<svg class="highcharts-root" style="font-family:&quot;Lucida Grande&quot;,&quot;Lucida Sans Unicode&quot;,Arial,Helvetica,sans-serif;font-size:12px" xmlns="http://www.w3.org/2000/svg" width="600" height="400" aria-label="Interactive chart" aria-hidden="false"><rect fill="#fff" class="highcharts-background" width="600" height="400" rx="0" ry="0" aria-hidden="true"/><path d="M42.353 293.36h515.294l6.93 66.405H35.423Zm522.153 67.013H34.582l.841-.608h529.154Z" class="highcharts-3d-frame highcharts-3d-frame-bottom" data-z-index="-1000" aria-hidden="true" fill="none"/><g stroke-linejoin="round" class="highcharts-3d-frame highcharts-3d-frame-left" data-z-index="-1000" aria-hidden="true" fill="none"><path d="m17.572 76.823.89.645-8.294 66.382h-1Zm.89.645 23.89 215.893-6.929 66.404L10.168 143.85Z"/><path d="M34.582 360.373 9.168 143.85h1l25.255 215.915Z"/></g><path d="M17.572 76.823h563.885l.08.645H18.463Zm.89.645h563.076l-23.89 215.893H42.352Z" class="highcharts-3d-frame highcharts-3d-frame-back" data-z-index="-1000" aria-hidden="true" fill="none"/><path fill="none" class="highcharts-plot-background" aria-hidden="true" d="M10 61h580v324H10z"/><path fill="none" class="highcharts-plot-border" data-z-index="1" aria-hidden="true" d="M10 61h580v324H10z"/><g class="highcharts-series-group" data-z-index="3" aria-hidden="false"><g class="highcharts-series highcharts-series-0 highcharts-pie-series highcharts-tracker" data-z-index=".1" style="cursor:pointer" aria-hidden="false"><path fill="#639CD3" d="M450.795 209.492v18.562L300 241.562V223Z" data-z-index="20.164" class="highcharts-point highcharts-color-0"/><path fill="#D84367" d="M155.46 256.258v18.561L300 241.562V223Z" data-z-index="39.499" class="highcharts-point highcharts-color-5"/><path fill="#639CD3" d="M299.969 115.52v18.561l.031 107.48V223Z" data-z-index="143033.846" class="highcharts-point highcharts-color-0"/><path fill="#2A2A2F" d="M381.487 313.73v18.562L300 241.562V223Z" data-z-index="143034.836" class="highcharts-point highcharts-color-1"/><path fill="#639CD3" d="M299.969 115.52c77.224-.011 141.12 39.8 150.826 93.972v18.562c-9.705-54.173-73.602-93.984-150.826-93.973ZM300 223v18.562Z" data-z-index="144478.633" class="highcharts-point highcharts-color-0"/><path fill="#D84367" d="M299.94 115.52v18.561l.06 107.48V223Z" data-z-index="186653.509" class="highcharts-point highcharts-color-5"/><path fill="#676CD0" d="M195.924 301.333v18.562L300 241.562V223Z" data-z-index="186654.499" class="highcharts-point highcharts-color-4"/><path fill="#D84367" d="M155.46 256.258C150.257 244.953 148 234.888 148 223v18.562c0-59.345 68.013-107.457 151.94-107.48V115.52C216.012 115.543 148 163.655 148 223v18.562c0 11.888 2.257 21.952 7.46 33.257ZM300 223v18.562Z" data-z-index="188538.898" class="highcharts-point highcharts-color-5"/><path fill="#676CD0" d="M155.46 256.259v18.561L300 241.562V223Z" data-z-index="236351.509" class="highcharts-point highcharts-color-4"/><path fill="#DE8A43" d="M271.562 328.582v18.562L300 241.562V223Z" data-z-index="236352.499" class="highcharts-point highcharts-color-3"/><path fill="#676CD0" d="M195.924 301.333c-19.552-12.988-32.162-27.036-40.464-45.074v18.561c8.302 18.039 20.912 32.086 40.464 45.075ZM300 223v18.562Z" data-z-index="238738.898" class="highcharts-point highcharts-color-4"/><path fill="#2A2A2F" d="M450.795 209.493v18.562L300 241.562V223Z" data-z-index="255002.846" class="highcharts-point highcharts-color-1"/><path fill="#77D464" d="M272.563 335.583v18.561L301 248.562V230Z" data-z-index="255003.836" class="highcharts-point highcharts-point-select highcharts-color-2"/><path fill="#2A2A2F" d="M452 223c0 37.978-25.174 70.37-70.513 90.73v18.562C426.826 311.932 452 279.54 452 241.562Zm-152 0v18.562Z" data-z-index="257578.633" class="highcharts-point highcharts-color-1"/><path fill="#DE8A43" d="M195.925 301.334v18.562L300 241.562V223Z" data-z-index="292385.509" class="highcharts-point highcharts-color-3"/><path fill="#77D464" d="M382.485 320.73v18.562L301 248.562V230Z" data-z-index="292386.499" class="highcharts-point highcharts-point-select highcharts-color-2"/><path fill="#DE8A43" d="M271.562 328.582c-29.714-4.001-53.591-12.603-75.637-27.248v18.562c22.046 14.644 45.923 23.246 75.637 27.248ZM300 223v18.562Z" data-z-index="295338.898" class="highcharts-point highcharts-color-3"/><path fill="#77D464" d="M382.485 320.73c-34.015 15.275-70.338 20.183-109.922 14.853v18.561c39.584 5.33 75.907.423 109.922-14.852ZM301 230v18.562Z" data-z-index="295339.898" class="highcharts-point highcharts-point-select highcharts-color-2"/><g data-z-index="31416026.536" stroke="#7cb5ec" stroke-linejoin="round" tabindex="-1" aria-label="Samsung, 23%. Share." style="outline:0"><path fill="#7cb5ec" d="M299.969 115.52c77.224-.011 141.12 39.8 150.826 93.972L300 223Z" data-z-index="314160.265" class="highcharts-point highcharts-color-0"/></g><g data-z-index="31416026.536" stroke="#434348" stroke-linejoin="round" tabindex="-1" aria-label="Apple, 18%. Share." style="outline:0"><path fill="#434348" d="M450.795 209.493c7.596 42.401-18.285 81.325-69.308 104.237L300 223Z" data-z-index="314160.265" class="highcharts-point highcharts-color-1"/></g><g data-z-index="31416026.536" stroke="#90ed7d" stroke-linejoin="round" tabindex="-1" aria-label="Xiaomi, 12%. Share." style="outline:0"><path fill="#90ed7d" d="M382.485 320.73c-34.015 15.275-70.338 20.183-109.922 14.853L301 230Z" data-z-index="314160.265" class="highcharts-point highcharts-point-select highcharts-color-2"/></g><g data-z-index="31416026.536" stroke="#f7a35c" stroke-linejoin="round" tabindex="-1" aria-label="Oppo*, 9%. Share." style="outline:0"><path fill="#f7a35c" d="M271.562 328.582c-29.714-4.001-53.591-12.603-75.637-27.248L300 223Z" data-z-index="314160.265" class="highcharts-point highcharts-color-3"/></g><g data-z-index="31416026.536" stroke="#8085e9" stroke-linejoin="round" tabindex="-1" aria-label="Vivo, 8%. Share." style="outline:0"><path fill="#8085e9" d="M195.924 301.333c-19.552-12.988-32.162-27.036-40.464-45.074L300 223Z" data-z-index="314160.265" class="highcharts-point highcharts-color-4"/></g><g data-z-index="31416026.536" stroke="#f15c80" stroke-linejoin="round" tabindex="-1" aria-label="Others, 30%. Share." style="outline:0"><path fill="#f15c80" d="M155.46 256.258c-25.976-56.447 17.68-117.096 97.507-135.463 15.967-3.674 30.181-5.27 46.972-5.275L300 223Z" data-z-index="314160.265" class="highcharts-point highcharts-color-5"/></g></g></g><text x="300" text-anchor="middle" class="highcharts-title" data-z-index="4" style="color:#333;font-size:18px;fill:#333" y="24" aria-hidden="true">Global smartphone shipments market share, Q1 2022</text><text x="300" text-anchor="middle" class="highcharts-subtitle" data-z-index="4" style="color:#666;fill:#666" y="46" aria-hidden="true">Source: <a target="_blank"><tspan>Counterpoint Research</tspan></a></text><g class="highcharts-data-labels highcharts-series-0 highcharts-pie-series highcharts-tracker" data-z-index="6" aria-hidden="true" style="cursor:pointer"><path fill="none" class="highcharts-data-label-connector highcharts-color-0" stroke="#7cb5ec" d="M454.97 119.883c-5 0-46.515 13.502-50.483 18.002l-3.968 4.5"/><path fill="none" class="highcharts-data-label-connector highcharts-color-1" stroke="#434348" d="M477.325 281.55c-5 0-28.933-7.665-34.362-10.22l-5.43-2.554"/><path fill="none" class="highcharts-data-label-connector highcharts-color-2" stroke="#90ed7d" d="M427.009 358.048c-5 0-96.278-17.682-97.403-23.575l-1.124-5.894"/><path fill="none" class="highcharts-data-label-connector highcharts-color-3" stroke="#f7a35c" d="M160.393 345.495c5 0 65.153-16.038 67.877-21.384l2.723-5.346"/><path fill="none" class="highcharts-data-label-connector highcharts-color-4" stroke="#8085e9" d="M128.573 296.662c5 0 32.957-9.645 38.023-12.86l5.066-3.215"/><path fill="none" class="highcharts-data-label-connector highcharts-color-5" stroke="#f15c80" d="M131.93 142.176c5 0 35.391 10.58 40.245 14.107l4.854 3.527"/><g style="cursor:pointer"><text x="5" data-z-index="1" y="16" style="color:#000;font-size:11px;font-weight:700;fill:#000" transform="translate(460 110)" class="highcharts-label highcharts-data-label highcharts-data-label-color-0"><tspan class="highcharts-text-outline" fill="#FFF" stroke="#FFF" stroke-width="2" stroke-linejoin="round">Samsung<tspan x="5" dy="0">​</tspan></tspan>Samsung</text></g><g style="cursor:pointer"><text x="5" data-z-index="1" y="16" style="color:#000;font-size:11px;font-weight:700;fill:#000" transform="translate(482 272)" class="highcharts-label highcharts-data-label highcharts-data-label-color-1"><tspan class="highcharts-text-outline" fill="#FFF" stroke="#FFF" stroke-width="2" stroke-linejoin="round">Apple<tspan x="5" dy="0">​</tspan></tspan>Apple</text></g><g style="cursor:pointer"><text x="5" data-z-index="1" y="16" style="color:#000;font-size:11px;font-weight:700;fill:#000" transform="translate(432 348)" class="highcharts-label highcharts-data-label highcharts-data-label-color-2"><tspan class="highcharts-text-outline" fill="#FFF" stroke="#FFF" stroke-width="2" stroke-linejoin="round">Xiaomi<tspan x="5" dy="0">​</tspan></tspan>Xiaomi</text></g><g style="cursor:pointer"><text x="5" data-z-index="1" y="16" style="color:#000;font-size:11px;font-weight:700;fill:#000" transform="translate(110 335)" class="highcharts-label highcharts-data-label highcharts-data-label-color-3"><tspan class="highcharts-text-outline" fill="#FFF" stroke="#FFF" stroke-width="2" stroke-linejoin="round">Oppo*<tspan x="5" dy="0">​</tspan></tspan>Oppo*</text></g><g style="cursor:pointer"><text x="5" data-z-index="1" y="16" style="color:#000;font-size:11px;font-weight:700;fill:#000" transform="translate(89 287)" class="highcharts-label highcharts-data-label highcharts-data-label-color-4"><tspan class="highcharts-text-outline" fill="#FFF" stroke="#FFF" stroke-width="2" stroke-linejoin="round">Vivo<tspan x="5" dy="0">​</tspan></tspan>Vivo</text></g><g style="cursor:pointer"><text x="5" data-z-index="1" y="16" style="color:#000;font-size:11px;font-weight:700;fill:#000" transform="translate(79 132)" class="highcharts-label highcharts-data-label highcharts-data-label-color-5"><tspan class="highcharts-text-outline" fill="#FFF" stroke="#FFF" stroke-width="2" stroke-linejoin="round">Others<tspan x="5" dy="0">​</tspan></tspan>Others</text></g></g></svg>