<svg class="highcharts-root" style="font-family:&quot;Lucida Grande&quot;,&quot;Lucida Sans Unicode&quot;,Arial,Helvetica,sans-serif;font-size:12px" xmlns="http://www.w3.org/2000/svg" width="600" height="420" aria-label="Interactive chart" aria-hidden="false"><defs aria-hidden="true"><clipPath id="a"><path fill="none" d="M0 0h527v237H0z"/></clipPath></defs><rect fill="#fff" class="highcharts-background" width="600" height="420" rx="0" ry="0" aria-hidden="true"/><path fill="none" class="highcharts-plot-background" aria-hidden="true" d="M63 61h527v237H63z"/><g class="highcharts-grid highcharts-xaxis-grid" data-z-index="1" aria-hidden="true" fill="none"><path data-z-index="1" class="highcharts-grid-line" d="M150.5 61v237m88-237v237m87-237v237m88-237v237m88-237v237m88-237v237M62.5 61v237"/></g><g class="highcharts-grid highcharts-yaxis-grid" data-z-index="1" aria-hidden="true" fill="none" stroke="#e6e6e6"><path data-z-index="1" class="highcharts-grid-line" d="M63 298.5h527m-527-59h527m-527-59h527m-527-60h527m-527-60h527"/></g><path fill="none" class="highcharts-plot-border" data-z-index="1" aria-hidden="true" d="M63 61h527v237H63z"/><g class="highcharts-axis highcharts-xaxis" data-z-index="2" aria-hidden="true"><text x="326.5" data-z-index="7" text-anchor="middle" class="highcharts-axis-title" style="color:#666;fill:#666" y="350">Time</text><path fill="none" class="highcharts-axis-line" stroke="#ccd6eb" data-z-index="7" d="M63 298.5h527"/></g><g class="highcharts-axis highcharts-yaxis" data-z-index="2" aria-hidden="true"><text x="24.086" data-z-index="7" text-anchor="middle" transform="rotate(-90 24.086 179.5)" class="highcharts-axis-title" style="color:#666;fill:#666" y="179.5">Percentage usage</text><path fill="none" class="highcharts-axis-line" data-z-index="7" d="M63 61v237"/></g><g class="highcharts-series-group" data-z-index="3" aria-hidden="false"><g class="highcharts-series highcharts-series-0 highcharts-spline-series" data-z-index=".1" clip-path="url(#a)" aria-hidden="true" fill="none" stroke-linejoin="round" stroke-linecap="round" transform="translate(63 61)"><path d="m43.917 133.905 87.833-24.293c35.133-9.717 52.7-24.292 87.833-24.292 35.134 0 52.7 29.033 87.834 29.033 35.133 0 52.7-51.252 87.833-69.62 35.133-18.367 87.833-22.218 87.833-22.218" class="highcharts-graph" data-z-index="1" stroke="#698F01" stroke-width="2"/><path d="m43.917 133.905 87.833-24.293c35.133-9.717 52.7-24.292 87.833-24.292 35.134 0 52.7 29.033 87.834 29.033 35.133 0 52.7-51.252 87.833-69.62 35.133-18.367 87.833-22.218 87.833-22.218" data-z-index="2" class="highcharts-tracker-line" stroke="rgba(192,192,192,0.0001)" stroke-width="22" style="cursor:pointer"/></g><g class="highcharts-markers highcharts-series-0 highcharts-spline-series highcharts-tracker" data-z-index=".1" style="cursor:pointer;outline:0" aria-hidden="false" tabindex="-1" aria-label="NVDA, line 1 of 6 with 6 data points. This is the most used screen reader in 2019." fill="#698F01"><path d="M43 138a4 4 0 1 1 .004 0Z" class="highcharts-point" tabindex="-1" aria-label="December 2010, 34.8%. NVDA." style="outline:0" transform="translate(63 61)"/><path d="M131 114a4 4 0 1 1 .004 0Z" class="highcharts-point" tabindex="-1" aria-label="May 2012, 43%. NVDA." style="outline:0" transform="translate(63 61)"/><path d="M219 89a4 4 0 1 1 .004 0Z" class="highcharts-point" tabindex="-1" aria-label="January 2014, 51.2%. NVDA." style="outline:0" transform="translate(63 61)"/><path d="M307 118a4 4 0 1 1 .004 0Z" class="highcharts-point" tabindex="-1" aria-label="July 2015, 41.4%. NVDA." style="outline:0" transform="translate(63 61)"/><path d="M395 49a4 4 0 1 1 .004 0Z" class="highcharts-point" tabindex="-1" aria-label="October 2017, 64.9%. NVDA." style="outline:0" transform="translate(63 61)"/><path d="M483 27a4 4 0 1 1 .004 0Z" class="highcharts-point" tabindex="-1" aria-label="September 2019, 72.4%. NVDA." style="outline:0" transform="translate(63 61)"/></g><g class="highcharts-series highcharts-series-1 highcharts-spline-series" data-z-index=".1" clip-path="url(#a)" aria-hidden="true" fill="none" transform="translate(63 61)"><path d="M43.917 30.81s52.7 17.479 87.833 17.479c35.133 0 52.7-.593 87.833-.593 35.134 0 52.7 59.843 87.834 59.843 35.133 0 52.7-66.064 87.833-66.064 35.133 0 87.833 12.739 87.833 12.739" class="highcharts-graph" data-z-index="1" stroke="#265FB5" stroke-width="2" stroke-dasharray="6,2,2,2"/><path d="M43.917 30.81s52.7 17.479 87.833 17.479c35.133 0 52.7-.593 87.833-.593 35.134 0 52.7 59.843 87.834 59.843 35.133 0 52.7-66.064 87.833-66.064 35.133 0 87.833 12.739 87.833 12.739" data-z-index="2" class="highcharts-tracker-line" stroke-linecap="round" stroke-linejoin="round" stroke="rgba(192,192,192,0.0001)" stroke-width="22" style="cursor:pointer"/></g><g class="highcharts-markers highcharts-series-1 highcharts-spline-series highcharts-tracker" data-z-index=".1" style="cursor:pointer;outline:0" aria-hidden="false" tabindex="-1" aria-label="JAWS, line 2 of 6 with 6 data points." fill="#265FB5"><path d="m43 27 4 4-4 4-4-4Z" class="highcharts-point" tabindex="-1" aria-label="December 2010, 69.6%. JAWS." style="outline:0" transform="translate(63 61)"/><path d="m131 44 4 4-4 4-4-4Z" class="highcharts-point" tabindex="-1" aria-label="May 2012, 63.7%. JAWS." style="outline:0" transform="translate(63 61)"/><path d="m219 44 4 4-4 4-4-4Z" class="highcharts-point" tabindex="-1" aria-label="January 2014, 63.9%. JAWS." style="outline:0" transform="translate(63 61)"/><path d="m307 104 4 4-4 4-4-4Z" class="highcharts-point" tabindex="-1" aria-label="July 2015, 43.7%. JAWS." style="outline:0" transform="translate(63 61)"/><path d="m395 37 4 4-4 4-4-4Z" class="highcharts-point" tabindex="-1" aria-label="October 2017, 66%. JAWS." style="outline:0" transform="translate(63 61)"/><path d="m483 50 4 4-4 4-4-4Z" class="highcharts-point" tabindex="-1" aria-label="September 2019, 61.7%. JAWS." style="outline:0" transform="translate(63 61)"/></g><g class="highcharts-series highcharts-series-2 highcharts-spline-series" data-z-index=".1" clip-path="url(#a)" aria-hidden="true" fill="none" transform="translate(63 61)"><path d="M43.917 177.157s52.7-21.27 87.833-31.106c35.133-9.835 52.7-18.071 87.833-18.071 35.134 0 52.7 17.479 87.834 17.479 35.133 0 52.7-16.176 87.833-25.774 35.133-9.599 87.833-22.219 87.833-22.219" class="highcharts-graph" data-z-index="1" stroke="#222" stroke-width="2" stroke-dasharray="2,2"/><path d="M43.917 177.157s52.7-21.27 87.833-31.106c35.133-9.835 52.7-18.071 87.833-18.071 35.134 0 52.7 17.479 87.834 17.479 35.133 0 52.7-16.176 87.833-25.774 35.133-9.599 87.833-22.219 87.833-22.219" data-z-index="2" class="highcharts-tracker-line" stroke-linecap="round" stroke-linejoin="round" stroke="rgba(192,192,192,0.0001)" stroke-width="22" style="cursor:pointer"/></g><g class="highcharts-markers highcharts-series-2 highcharts-spline-series highcharts-tracker" data-z-index=".1" style="cursor:pointer;outline:0" aria-hidden="false" tabindex="-1" aria-label="VoiceOver, line 3 of 6 with 6 data points." fill="#222"><path d="M39 173h8v8h-8Z" class="highcharts-point" tabindex="-1" aria-label="December 2010, 20.2%. VoiceOver." style="outline:0" transform="translate(63 61)"/><path d="M127 142h8v8h-8Z" class="highcharts-point" tabindex="-1" aria-label="May 2012, 30.7%. VoiceOver." style="outline:0" transform="translate(63 61)"/><path d="M215 124h8v8h-8Z" class="highcharts-point" tabindex="-1" aria-label="January 2014, 36.8%. VoiceOver." style="outline:0" transform="translate(63 61)"/><path d="M303 141h8v8h-8Z" class="highcharts-point" tabindex="-1" aria-label="July 2015, 30.9%. VoiceOver." style="outline:0" transform="translate(63 61)"/><path d="M391 116h8v8h-8Z" class="highcharts-point" tabindex="-1" aria-label="October 2017, 39.6%. VoiceOver." style="outline:0" transform="translate(63 61)"/><path d="M479 93h8v8h-8Z" class="highcharts-point" tabindex="-1" aria-label="September 2019, 47.1%. VoiceOver." style="outline:0" transform="translate(63 61)"/></g><g class="highcharts-series highcharts-series-3 highcharts-spline-series" data-z-index=".1" clip-path="url(#a)" aria-hidden="true" fill="none" transform="translate(63 61)"><path d="m395.25 173.602 87.833-26.366" class="highcharts-graph" data-z-index="1" stroke="#B02FDD" stroke-width="2" stroke-dasharray="8,6"/><path d="m395.25 173.602 87.833-26.366" data-z-index="2" class="highcharts-tracker-line" stroke-linecap="round" stroke-linejoin="round" stroke="rgba(192,192,192,0.0001)" stroke-width="22" style="cursor:pointer"/></g><g class="highcharts-markers highcharts-series-3 highcharts-spline-series highcharts-tracker" data-z-index=".1" style="cursor:pointer;outline:0" aria-hidden="false" tabindex="-1" aria-label="Narrator, line 4 of 6 with 6 data points." fill="#B02FDD"><path d="m395 170 4 8h-8Z" class="highcharts-point" tabindex="-1" aria-label="October 2017, 21.4%. Narrator." style="outline:0" transform="translate(63 61)"/><path d="m483 143 4 8h-8Z" class="highcharts-point" tabindex="-1" aria-label="September 2019, 30.3%. Narrator." style="outline:0" transform="translate(63 61)"/></g><g class="highcharts-series highcharts-series-4 highcharts-spline-series" data-z-index=".1" clip-path="url(#a)" aria-hidden="true" fill="none" transform="translate(63 61)"><path d="M43.917 218.929s52.7-2.074 87.833-2.074c35.133 0 52.7 4.444 87.833 4.444 35.134 0 52.7-65.768 87.834-65.768 35.133 0 52.7 62.213 87.833 63.694 35.133 1.481 87.833 1.481 87.833 1.481" class="highcharts-graph" data-z-index="1" stroke="#0FA388" stroke-width="2" stroke-dasharray="2,2"/><path d="M43.917 218.929s52.7-2.074 87.833-2.074c35.133 0 52.7 4.444 87.833 4.444 35.134 0 52.7-65.768 87.834-65.768 35.133 0 52.7 62.213 87.833 63.694 35.133 1.481 87.833 1.481 87.833 1.481" data-z-index="2" class="highcharts-tracker-line" stroke-linecap="round" stroke-linejoin="round" stroke="rgba(192,192,192,0.0001)" stroke-width="22" style="cursor:pointer"/></g><g class="highcharts-markers highcharts-series-4 highcharts-spline-series highcharts-tracker" data-z-index=".1" style="cursor:pointer;outline:0" aria-hidden="false" tabindex="-1" aria-label="ZoomText/Fusion, line 5 of 6 with 6 data points." fill="#0FA388"><path d="M39 215h8l-4 8Z" class="highcharts-point" tabindex="-1" aria-label="December 2010, 6.1%. ZoomText/Fusion." style="outline:0" transform="translate(63 61)"/><path d="M127 213h8l-4 8Z" class="highcharts-point" tabindex="-1" aria-label="May 2012, 6.8%. ZoomText/Fusion." style="outline:0" transform="translate(63 61)"/><path d="M215 217h8l-4 8Z" class="highcharts-point" tabindex="-1" aria-label="January 2014, 5.3%. ZoomText/Fusion." style="outline:0" transform="translate(63 61)"/><path d="M303 152h8l-4 8Z" class="highcharts-point" tabindex="-1" aria-label="July 2015, 27.5%. ZoomText/Fusion." style="outline:0" transform="translate(63 61)"/><path d="M391 215h8l-4 8Z" class="highcharts-point" tabindex="-1" aria-label="October 2017, 6%. ZoomText/Fusion." style="outline:0" transform="translate(63 61)"/><path d="M479 217h8l-4 8Z" class="highcharts-point" tabindex="-1" aria-label="September 2019, 5.5%. ZoomText/Fusion." style="outline:0" transform="translate(63 61)"/></g><g class="highcharts-series highcharts-series-5 highcharts-spline-series" data-z-index=".1" clip-path="url(#a)" aria-hidden="true" fill="none" transform="translate(63 61)"><path d="M43.917 110.797s52.7-19.493 87.833-26.366c35.133-6.873 52.7-7.998 87.833-7.998 35.134 0 52.7 4.74 87.834 24.884 35.133 20.145 52.7 61.62 87.833 75.84 35.133 14.22 87.833 14.22 87.833 14.22" class="highcharts-graph" data-z-index="1" stroke="#F4693E" stroke-width="2" stroke-dasharray="6,2"/><path d="M43.917 110.797s52.7-19.493 87.833-26.366c35.133-6.873 52.7-7.998 87.833-7.998 35.134 0 52.7 4.74 87.834 24.884 35.133 20.145 52.7 61.62 87.833 75.84 35.133 14.22 87.833 14.22 87.833 14.22" data-z-index="2" class="highcharts-tracker-line" stroke-linecap="round" stroke-linejoin="round" stroke="rgba(192,192,192,0.0001)" stroke-width="22" style="cursor:pointer"/></g><g class="highcharts-markers highcharts-series-5 highcharts-spline-series highcharts-tracker" data-z-index=".1" style="cursor:pointer;outline:0" aria-hidden="false" tabindex="-1" aria-label="Other, line 6 of 6 with 6 data points." fill="#F4693E"><path d="M43 115a4 4 0 1 1 .004 0Z" class="highcharts-point" tabindex="-1" aria-label="December 2010, 42.6%. Other." style="outline:0" transform="translate(63 61)"/><path d="M131 88a4 4 0 1 1 .004 0Z" class="highcharts-point" tabindex="-1" aria-label="May 2012, 51.5%. Other." style="outline:0" transform="translate(63 61)"/><path d="M219 80a4 4 0 1 1 .004 0Z" class="highcharts-point" tabindex="-1" aria-label="January 2014, 54.2%. Other." style="outline:0" transform="translate(63 61)"/><path d="M307 105a4 4 0 1 1 .004 0Z" class="highcharts-point" tabindex="-1" aria-label="July 2015, 45.8%. Other." style="outline:0" transform="translate(63 61)"/><path d="M395 181a4 4 0 1 1 .004 0Z" class="highcharts-point" tabindex="-1" aria-label="October 2017, 20.2%. Other." style="outline:0" transform="translate(63 61)"/><path d="M483 195a4 4 0 1 1 .004 0Z" class="highcharts-point" tabindex="-1" aria-label="September 2019, 15.4%. Other." style="outline:0" transform="translate(63 61)"/></g></g><g data-z-index="3" aria-hidden="true"><text data-z-index="1" y="12" style="color:#698f01;font-weight:700;fill:#698f01" transform="translate(547 67)" class="highcharts-label highcharts-series-label highcharts-series-label-0 highcharts-color-none">NVDA</text></g><g data-z-index="3" aria-hidden="true"><text data-z-index="1" y="12" style="color:#265fb5;font-weight:700;fill:#265fb5" transform="translate(422 85)" class="highcharts-label highcharts-series-label highcharts-series-label-1 highcharts-color-none">JAWS</text></g><g data-z-index="3" aria-hidden="true"><text data-z-index="1" y="12" style="color:#222;font-weight:700;fill:#222" transform="translate(231 200)" class="highcharts-label highcharts-series-label highcharts-series-label-2 highcharts-color-none">VoiceOver</text></g><g data-z-index="3" aria-hidden="true"><text data-z-index="1" y="12" style="color:#b02fdd;font-weight:700;fill:#b02fdd" transform="translate(491 191)" class="highcharts-label highcharts-series-label highcharts-series-label-3 highcharts-color-none">Narrator</text></g><g data-z-index="3" aria-hidden="true"><text data-z-index="1" y="12" style="color:#0fa388;font-weight:700;fill:#0fa388" transform="translate(238 283)" class="highcharts-label highcharts-series-label highcharts-series-label-4 highcharts-color-none">ZoomText/Fusion</text></g><g data-z-index="3" aria-hidden="true"><text data-z-index="1" y="12" style="color:#f4693e;font-weight:700;fill:#f4693e" transform="translate(549 235)" class="highcharts-label highcharts-series-label highcharts-series-label-5 highcharts-color-none">Other</text></g><text x="300" text-anchor="middle" class="highcharts-title" data-z-index="4" style="color:#333;font-size:18px;fill:#333" y="24" aria-hidden="true">Most common desktop screen readers</text><text x="300" text-anchor="middle" class="highcharts-subtitle" data-z-index="4" style="color:#666;fill:#666" y="46" aria-hidden="true">Source: WebAIM. Click on points to visit official screen reader website</text><g class="highcharts-legend highcharts-no-tooltip" data-z-index="7" transform="translate(40 364)" aria-hidden="true"><rect fill="none" class="highcharts-legend-box" rx="0" ry="0" width="520" height="41"/><g data-z-index="1"><g class="highcharts-legend-item highcharts-spline-series highcharts-color-undefined highcharts-series-0" data-z-index="1"><path fill="none" d="M8 14h40" class="highcharts-graph" stroke="#698F01" stroke-width="2"/><path fill="#698F01" d="M28 18a4 4 0 1 1 .004 0Z" class="highcharts-point"/><text x="45" data-z-index="2" y="15" style="color:#333;cursor:pointer;font-size:12px;font-weight:700;fill:#333" transform="translate(8 3)">NVDA</text></g><g class="highcharts-legend-item highcharts-spline-series highcharts-color-undefined highcharts-series-1" data-z-index="1"><path fill="none" d="M182.758 14h40" class="highcharts-graph" stroke-dasharray="6,2,2,2" stroke="#265FB5" stroke-width="2"/><path fill="#265FB5" d="m202.758 10 4 4-4 4-4-4Z" class="highcharts-point"/><text x="45" y="15" data-z-index="2" style="color:#333;cursor:pointer;font-size:12px;font-weight:700;fill:#333" transform="translate(182.758 3)">JAWS</text></g><g class="highcharts-legend-item highcharts-spline-series highcharts-color-undefined highcharts-series-2" data-z-index="1"><path fill="none" d="M357.516 14h40" class="highcharts-graph" stroke-dasharray="2,2" stroke="#222" stroke-width="2"/><path fill="#222" d="M373.516 10h8v8h-8Z" class="highcharts-point"/><text x="45" y="15" data-z-index="2" style="color:#333;cursor:pointer;font-size:12px;font-weight:700;fill:#333" transform="translate(357.516 3)">VoiceOver</text></g><g class="highcharts-legend-item highcharts-spline-series highcharts-color-undefined highcharts-series-3" data-z-index="1"><path fill="none" d="M8 29h40" class="highcharts-graph" stroke-dasharray="8,6" stroke="#B02FDD" stroke-width="2"/><path fill="#B02FDD" d="m28 25 4 8h-8Z" class="highcharts-point"/><text x="45" y="15" data-z-index="2" style="color:#333;cursor:pointer;font-size:12px;font-weight:700;fill:#333" transform="translate(8 18)">Narrator</text></g><g class="highcharts-legend-item highcharts-spline-series highcharts-color-undefined highcharts-series-4" data-z-index="1"><path fill="none" d="M182.758 29h40" class="highcharts-graph" stroke-dasharray="2,2" stroke="#0FA388" stroke-width="2"/><path fill="#0FA388" d="M198.758 25h8l-4 8Z" class="highcharts-point"/><text x="45" y="15" data-z-index="2" style="color:#333;cursor:pointer;font-size:12px;font-weight:700;fill:#333" transform="translate(182.758 18)">ZoomText/Fusion</text></g><g class="highcharts-legend-item highcharts-spline-series highcharts-color-undefined highcharts-series-5" data-z-index="1"><path fill="none" d="M357.516 29h40" class="highcharts-graph" stroke-dasharray="6,2" stroke="#F4693E" stroke-width="2"/><path fill="#F4693E" d="M377.516 33a4 4 0 1 1 .004 0Z" class="highcharts-point"/><text x="45" y="15" data-z-index="2" style="color:#333;cursor:pointer;font-size:12px;font-weight:700;fill:#333" transform="translate(357.516 18)">Other</text></g></g></g><g class="highcharts-axis-labels highcharts-xaxis-labels" data-z-index="7" aria-hidden="true" text-anchor="middle"><text x="106.917" style="color:#666;cursor:default;font-size:11px;fill:#666" y="317">December<tspan dy="14" x="106.917">​</tspan>2010</text><text x="194.75" style="color:#666;cursor:default;font-size:11px;fill:#666" y="317">May 2012</text><text x="282.583" style="color:#666;cursor:default;font-size:11px;fill:#666" y="317">January 2014</text><text x="370.417" style="color:#666;cursor:default;font-size:11px;fill:#666" y="317">July 2015</text><text x="458.25" style="color:#666;cursor:default;font-size:11px;fill:#666" y="317">October 2017</text><text x="546.083" style="color:#666;cursor:default;font-size:11px;fill:#666" y="317">September<tspan dy="14" x="546.083">​</tspan>2019</text></g><g class="highcharts-axis-labels highcharts-yaxis-labels" data-z-index="7" aria-hidden="true" text-anchor="end"><text x="48" style="color:#666;cursor:default;font-size:11px;fill:#666" y="303">0</text><text x="48" style="color:#666;cursor:default;font-size:11px;fill:#666" y="243">20</text><text x="48" style="color:#666;cursor:default;font-size:11px;fill:#666" y="184">40</text><text x="48" style="color:#666;cursor:default;font-size:11px;fill:#666" y="125">60</text><text x="48" style="color:#666;cursor:default;font-size:11px;fill:#666" y="66">80</text></g></svg>