<svg class="highcharts-root" style="font-family:&quot;Lucida Grande&quot;,&quot;Lucida Sans Unicode&quot;,Arial,Helvetica,sans-serif;font-size:12px" xmlns="http://www.w3.org/2000/svg" width="600" height="400" aria-label="Interactive chart" aria-hidden="false"><defs aria-hidden="true"><clipPath id="a"><path fill="none" d="M0 0h580v338H0z"/></clipPath></defs><rect fill="#fff" class="highcharts-background" width="600" height="400" rx="0" ry="0" aria-hidden="true"/><path fill="none" class="highcharts-plot-background" aria-hidden="true" d="M10 47h580v338H10z"/><path fill="none" class="highcharts-plot-border" data-z-index="1" aria-hidden="true" d="M10 47h580v338H10z"/><g class="highcharts-series-group" data-z-index="3" aria-hidden="false"><g class="highcharts-series highcharts-series-0 highcharts-arcdiagram-series highcharts-tracker" data-z-index=".1" clip-path="url(#a)" aria-hidden="false" transform="translate(10 47)"><path fill="rgba(41,52,98,0.5)" d="M5.3 208.39a10.033 10.033 0 0 1 20.067 0h-1a9.033 9.033 0 0 0-18.067 0Z" class="highcharts-link highcharts-point highcharts-color-0" tabindex="-1" aria-label="Connection from Hamburg to Stuttgart. Train connections." style="outline:0"/><path fill="rgba(41,52,98,0.5)" d="M5.3 208.39a20.967 20.967 0 0 1 41.933 0h-1a19.967 19.967 0 0 0-39.933 0Z" class="highcharts-link highcharts-point highcharts-color-1" tabindex="-1" aria-label="Connection from Hamburg to Frankfurt. Train connections." style="outline:0"/><path fill="rgba(41,52,98,0.5)" d="M5.3 208.39a34.433 34.433 0 0 1 68.867 0h-1a33.433 33.433 0 0 0-66.867 0Z" class="highcharts-link highcharts-point highcharts-color-2" tabindex="-1" aria-label="Connection from Hamburg to München. Train connections." style="outline:0"/><path fill="rgba(91,209,215,0.5)" d="M97.367 208.39a12.867 12.867 0 0 1 25.733 0h-1a11.867 11.867 0 0 0-23.733 0Z" class="highcharts-link highcharts-point highcharts-color-3" tabindex="-1" aria-label="Connection from Hannover to Wien. Train connections." style="outline:0"/><path fill="rgba(91,209,215,0.5)" d="M73.167 208.39a12.6 12.6 0 0 1 25.2 0h-1a11.6 11.6 0 0 0-23.2 0Z" class="highcharts-link highcharts-point highcharts-color-4" tabindex="-1" aria-label="Connection from Hannover to München. Train connections." style="outline:0"/><path fill="rgba(0,77,97,0.5)" d="M122.1 208.39a17.5 17.5 0 0 1 35 0h-1a16.5 16.5 0 0 0-33 0Z" class="highcharts-link highcharts-point highcharts-color-5" tabindex="-1" aria-label="Connection from Berlin to Wien. Train connections." style="outline:0"/><path fill="rgba(0,77,97,0.5)" d="M73.167 208.39a41.967 41.967 0 0 1 83.933 0h-1a40.967 40.967 0 0 0-81.933 0Z" class="highcharts-link highcharts-point highcharts-color-6" tabindex="-1" aria-label="Connection from Berlin to München. Train connections." style="outline:0"/><path fill="rgba(0,77,97,0.5)" d="M24.367 208.39a66.367 66.367 0 0 1 132.733 0h-1a65.367 65.367 0 0 0-130.733 0Z" class="highcharts-link highcharts-point highcharts-color-7" tabindex="-1" aria-label="Connection from Berlin to Stuttgart. Train connections." style="outline:0"/><path fill="rgba(0,77,97,0.5)" d="M46.233 208.39a55.433 55.433 0 0 1 110.867 0h-1a54.433 54.433 0 0 0-108.867 0Z" class="highcharts-link highcharts-point highcharts-color-8" tabindex="-1" aria-label="Connection from Berlin to Frankfurt. Train connections." style="outline:0"/><path fill="rgba(0,77,97,0.5)" d="M156.1 208.39a13.133 13.133 0 0 1 26.267 0h-1a12.133 12.133 0 0 0-24.267 0Z" class="highcharts-link highcharts-point highcharts-color-9" tabindex="-1" aria-label="Connection from Berlin to Köln. Train connections." style="outline:0"/><path fill="rgba(0,77,97,0.5)" d="M156.1 208.39a22.133 22.133 0 0 1 44.267 0h-1a21.133 21.133 0 0 0-42.267 0Z" class="highcharts-link highcharts-point highcharts-color-10" tabindex="-1" aria-label="Connection from Berlin to Düsseldorf. Train connections." style="outline:0"/><path fill="rgba(255,241,193,0.5)" d="M73.167 208.39a63.6 63.6 0 0 1 127.2 0h-1a62.6 62.6 0 0 0-125.2 0Z" class="highcharts-link highcharts-point highcharts-color-11" tabindex="-1" aria-label="Connection from München to Düsseldorf. Train connections." style="outline:0"/><path fill="rgba(255,241,193,0.5)" d="M73.167 208.39a24.967 24.967 0 0 1 49.933 0h-1a23.967 23.967 0 0 0-47.933 0Z" class="highcharts-link highcharts-point highcharts-color-12" tabindex="-1" aria-label="Connection from München to Wien. Train connections." style="outline:0"/><path fill="rgba(255,241,193,0.5)" d="M46.233 208.39a13.967 13.967 0 0 1 27.934 0h-1a12.967 12.967 0 0 0-25.934 0Z" class="highcharts-link highcharts-point highcharts-color-13" tabindex="-1" aria-label="Connection from München to Frankfurt. Train connections." style="outline:0"/><path fill="rgba(255,241,193,0.5)" d="M73.167 208.39a54.6 54.6 0 0 1 109.2 0h-1a53.6 53.6 0 0 0-107.2 0Z" class="highcharts-link highcharts-point highcharts-color-14" tabindex="-1" aria-label="Connection from München to Köln. Train connections." style="outline:0"/><path fill="rgba(255,241,193,0.5)" d="M73.167 208.39a72.1 72.1 0 0 1 144.2 0h-1a71.1 71.1 0 0 0-142.2 0Z" class="highcharts-link highcharts-point highcharts-color-0" tabindex="-1" aria-label="Connection from München to Amsterdam. Train connections." style="outline:0"/><path fill="rgba(166,73,66,0.5)" d="M24.367 208.39a49.367 49.367 0 0 1 98.733 0h-1a48.367 48.367 0 0 0-96.733 0Z" class="highcharts-link highcharts-point highcharts-color-1" tabindex="-1" aria-label="Connection from Stuttgart to Wien. Train connections." style="outline:0"/><path fill="rgba(254,95,85,0.5)" d="M46.233 208.39a38.433 38.433 0 0 1 76.867 0h-1a37.433 37.433 0 0 0-74.867 0Z" class="highcharts-link highcharts-point highcharts-color-2" tabindex="-1" aria-label="Connection from Frankfurt to Wien. Train connections." style="outline:0"/><path fill="rgba(254,95,85,0.5)" d="M46.233 208.39a85.567 85.567 0 0 1 171.134 0h-1a84.567 84.567 0 0 0-169.134 0Z" class="highcharts-link highcharts-point highcharts-color-3" tabindex="-1" aria-label="Connection from Frankfurt to Amsterdam. Train connections." style="outline:0"/><path fill="rgba(254,95,85,0.5)" d="M46.233 208.39a101.333 101.333 0 0 1 202.667 0h-1a100.333 100.333 0 0 0-200.667 0Z" class="highcharts-link highcharts-point highcharts-color-4" tabindex="-1" aria-label="Connection from Frankfurt to Paris. Train connections." style="outline:0"/><path fill="rgba(254,95,85,0.5)" d="M46.233 208.39a116.1 116.1 0 0 1 232.2 0h-1a115.1 115.1 0 0 0-230.2 0Z" class="highcharts-link highcharts-point highcharts-color-5" tabindex="-1" aria-label="Connection from Frankfurt to Budapest. Train connections." style="outline:0"/><path fill="rgba(255,245,145,0.5)" d="M122.1 208.39a39.133 39.133 0 0 1 78.267 0h-1a38.133 38.133 0 0 0-76.267 0Z" class="highcharts-link highcharts-point highcharts-color-6" tabindex="-1" aria-label="Connection from Düsseldorf to Wien. Train connections." style="outline:0"/><path fill="rgba(255,245,145,0.5)" d="M5.3 208.39a97.533 97.533 0 0 1 195.067 0h-1a96.533 96.533 0 0 0-193.067 0Z" class="highcharts-link highcharts-point highcharts-color-7" tabindex="-1" aria-label="Connection from Düsseldorf to Hamburg. Train connections." style="outline:0"/><path fill="rgba(245,88,123,0.5)" d="M216.367 208.39a16.267 16.267 0 0 1 32.533 0h-1a15.267 15.267 0 0 0-30.533 0Z" class="highcharts-link highcharts-point highcharts-color-8" tabindex="-1" aria-label="Connection from Amsterdam to Paris. Train connections." style="outline:0"/><path fill="rgba(250,211,207,0.5)" d="M247.9 208.39a22.267 22.267 0 0 1 44.533 0h-1a21.267 21.267 0 0 0-42.533 0Z" class="highcharts-link highcharts-point highcharts-color-9" tabindex="-1" aria-label="Connection from Paris to Brest. Train connections." style="outline:0"/><path fill="rgba(250,211,207,0.5)" d="M247.9 208.39a30.233 30.233 0 0 1 60.467 0h-1a29.233 29.233 0 0 0-58.467 0Z" class="highcharts-link highcharts-point highcharts-color-10" tabindex="-1" aria-label="Connection from Paris to Nantes. Train connections." style="outline:0"/><path fill="rgba(250,211,207,0.5)" d="M247.9 208.39a37.767 37.767 0 0 1 75.533 0h-1a36.767 36.767 0 0 0-73.533 0Z" class="highcharts-link highcharts-point highcharts-color-11" tabindex="-1" aria-label="Connection from Paris to Bayonne. Train connections." style="outline:0"/><path fill="rgba(250,211,207,0.5)" d="M247.9 208.39a44.767 44.767 0 0 1 89.533 0h-1a43.767 43.767 0 0 0-87.533 0Z" class="highcharts-link highcharts-point highcharts-color-12" tabindex="-1" aria-label="Connection from Paris to Bordeaux. Train connections." style="outline:0"/><path fill="rgba(250,211,207,0.5)" d="M247.9 208.39a51.767 51.767 0 0 1 103.533 0h-1a50.767 50.767 0 0 0-101.533 0Z" class="highcharts-link highcharts-point highcharts-color-13" tabindex="-1" aria-label="Connection from Paris to Toulouse. Train connections." style="outline:0"/><path fill="rgba(250,211,207,0.5)" d="M247.9 208.39a58.767 58.767 0 0 1 117.533 0h-1a57.767 57.767 0 0 0-115.533 0Z" class="highcharts-link highcharts-point highcharts-color-14" tabindex="-1" aria-label="Connection from Paris to Montpellier. Train connections." style="outline:0"/><path fill="rgba(250,211,207,0.5)" d="M247.9 208.39a65.767 65.767 0 0 1 131.533 0h-1a64.767 64.767 0 0 0-129.533 0Z" class="highcharts-link highcharts-point highcharts-color-0" tabindex="-1" aria-label="Connection from Paris to Marseille. Train connections." style="outline:0"/><path fill="rgba(250,211,207,0.5)" d="M247.9 208.39a73.733 73.733 0 0 1 147.467 0h-1a72.733 72.733 0 0 0-145.467 0Z" class="highcharts-link highcharts-point highcharts-color-1" tabindex="-1" aria-label="Connection from Paris to Nice. Train connections." style="outline:0"/><path fill="rgba(250,211,207,0.5)" d="M247.9 208.39a86.1 86.1 0 0 1 172.2 0h-1a85.1 85.1 0 0 0-170.2 0Z" class="highcharts-link highcharts-point highcharts-color-2" tabindex="-1" aria-label="Connection from Paris to Milano. Train connections." style="outline:0"/><path fill="rgba(38,106,46,0.5)" d="M307.367 208.39a44 44 0 0 1 88 0h-1a43 43 0 0 0-86 0Z" class="highcharts-link highcharts-point highcharts-color-3" tabindex="-1" aria-label="Connection from Nantes to Nice. Train connections." style="outline:0"/><path fill="rgba(41,52,98,0.5)" d="M336.433 208.39a54.967 54.967 0 0 1 109.934 0h-1a53.967 53.967 0 0 0-107.934 0Z" class="highcharts-link highcharts-point highcharts-color-4" tabindex="-1" aria-label="Connection from Bordeaux to Lyon. Train connections." style="outline:0"/><path fill="rgba(38,106,46,0.5)" d="M307.367 208.39a69.5 69.5 0 0 1 139 0h-1a68.5 68.5 0 0 0-137 0Z" class="highcharts-link highcharts-point highcharts-color-5" tabindex="-1" aria-label="Connection from Nantes to Lyon. Train connections." style="outline:0"/><path fill="rgba(255,80,47,0.5)" d="M73.167 208.39a173.467 173.467 0 0 1 346.933 0h-1a172.467 172.467 0 0 0-344.933 0Z" class="highcharts-link highcharts-point highcharts-color-6" tabindex="-1" aria-label="Connection from Milano to München. Train connections." style="outline:0"/><path fill="rgba(255,80,47,0.5)" d="M419.1 208.39a23.1 23.1 0 0 1 46.2 0h-1a22.1 22.1 0 0 0-44.2 0Z" class="highcharts-link highcharts-point highcharts-color-7" tabindex="-1" aria-label="Connection from Milano to Roma. Train connections." style="outline:0"/><path fill="rgba(255,80,47,0.5)" d="M419.1 208.39a33.133 33.133 0 0 1 66.267 0h-1a32.133 32.133 0 0 0-64.267 0Z" class="highcharts-link highcharts-point highcharts-color-8" tabindex="-1" aria-label="Connection from Milano to Bari. Train connections." style="outline:0"/><path fill="rgba(255,80,47,0.5)" d="M419.1 208.39a42.133 42.133 0 0 1 84.267 0h-1a41.133 41.133 0 0 0-82.267 0Z" class="highcharts-link highcharts-point highcharts-color-9" tabindex="-1" aria-label="Connection from Milano to Napoli. Train connections." style="outline:0"/><path fill="rgba(255,80,47,0.5)" d="M419.1 208.39a50.633 50.633 0 0 1 101.267 0h-1a49.633 49.633 0 0 0-99.267 0Z" class="highcharts-link highcharts-point highcharts-color-10" tabindex="-1" aria-label="Connection from Milano to Brindisi. Train connections." style="outline:0"/><path fill="rgba(255,80,47,0.5)" d="M419.1 208.39a58.667 58.667 0 0 1 117.333 0h-1a57.667 57.667 0 0 0-115.333 0Z" class="highcharts-link highcharts-point highcharts-color-11" tabindex="-1" aria-label="Connection from Milano to Lamezia Terme. Train connections." style="outline:0"/><path fill="rgba(91,231,196,0.5)" d="M464.3 208.39a43.067 43.067 0 0 1 86.133 0h-1a42.067 42.067 0 0 0-84.133 0Z" class="highcharts-link highcharts-point highcharts-color-12" tabindex="-1" aria-label="Connection from Torino to Roma. Train connections." style="outline:0"/><path fill="rgba(38,106,46,0.5)" d="M502.367 208.39a31.033 31.033 0 0 1 62.066 0h-1a30.033 30.033 0 0 0-60.066 0Z" class="highcharts-link highcharts-point highcharts-color-13" tabindex="-1" aria-label="Connection from Venezia to Napoli. Train connections." style="outline:0"/><path fill="rgba(255,138,92,0.5)" d="M464.3 208.39a10.533 10.533 0 0 1 21.067 0h-1a9.533 9.533 0 0 0-19.067 0Z" class="highcharts-link highcharts-point highcharts-color-14" tabindex="-1" aria-label="Connection from Roma to Bari. Train connections." style="outline:0"/><path fill="rgba(255,138,92,0.5)" d="M464.3 208.39a57.067 57.067 0 0 1 114.133 0h-1a56.067 56.067 0 0 0-112.133 0Z" class="highcharts-link highcharts-point highcharts-color-0" tabindex="-1" aria-label="Connection from Roma to Catania. Train connections." style="outline:0"/><path fill="rgba(255,138,92,0.5)" d="M464.3 208.39a28.033 28.033 0 0 1 56.067 0h-1a27.033 27.033 0 0 0-54.067 0Z" class="highcharts-link highcharts-point highcharts-color-1" tabindex="-1" aria-label="Connection from Roma to Brindisi. Train connections." style="outline:0"/><path fill="rgba(89,62,26,0.5)" d="M419.1 208.39a79.667 79.667 0 0 1 159.333 0h-1a78.667 78.667 0 0 0-157.333 0Z" class="highcharts-link highcharts-point highcharts-color-2" tabindex="-1" aria-label="Connection from Catania to Milano. Train connections." style="outline:0"/><path fill="#293462" d="M5.8 214.19a5.8 5.8 0 1 1 .006 0Z" class="highcharts-node highcharts-point highcharts-color-0"/><path fill="#a64942" d="M24.867 212.257a3.867 3.867 0 1 1 .004 0Z" class="highcharts-node highcharts-point highcharts-color-1"/><path fill="#fe5f55" d="M46.733 216.123a7.733 7.733 0 1 1 .008 0Z" class="highcharts-node highcharts-point highcharts-color-2"/><path fill="#fff1c1" d="M73.667 218.057a9.667 9.667 0 1 1 .01 0Z" class="highcharts-node highcharts-point highcharts-color-3"/><path fill="#5bd1d7" d="M97.867 212.257a3.867 3.867 0 1 1 .004 0Z" class="highcharts-node highcharts-point highcharts-color-4"/><path fill="#ff502f" d="M122.6 219.99a11.6 11.6 0 1 1 .012 0Z" class="highcharts-node highcharts-point highcharts-color-5"/><path fill="#004d61" d="M156.6 219.99a11.6 11.6 0 1 1 .012 0Z" class="highcharts-node highcharts-point highcharts-color-6"/><path fill="#ff8a5c" d="M181.867 212.257a3.867 3.867 0 1 1 .004 0Z" class="highcharts-node highcharts-point highcharts-color-7"/><path fill="#fff591" d="M199.867 212.257a3.867 3.867 0 1 1 .004 0Z" class="highcharts-node highcharts-point highcharts-color-8"/><path fill="#f5587b" d="M216.867 212.257a3.867 3.867 0 1 1 .004 0Z" class="highcharts-node highcharts-point highcharts-color-9"/><path fill="#fad3cf" d="M248.4 225.79a17.4 17.4 0 1 1 .017 0Z" class="highcharts-node highcharts-point highcharts-color-10"/><path fill="#a696c8" d="M277.933 210.323a1.933 1.933 0 1 1 .002 0Z" class="highcharts-node highcharts-point highcharts-color-11"/><path fill="#5BE7C4" d="M291.933 210.323a1.933 1.933 0 1 1 .002 0Z" class="highcharts-node highcharts-point highcharts-color-12"/><path fill="#266A2E" d="M307.867 212.257a3.867 3.867 0 1 1 .004 0Z" class="highcharts-node highcharts-point highcharts-color-13"/><path fill="#593E1A" d="M322.933 210.323a1.933 1.933 0 1 1 .002 0Z" class="highcharts-node highcharts-point highcharts-color-14"/><path fill="#293462" d="M336.933 210.323a1.933 1.933 0 1 1 .002 0Z" class="highcharts-node highcharts-point highcharts-color-0"/><path fill="#a64942" d="M350.933 210.323a1.933 1.933 0 1 1 .002 0Z" class="highcharts-node highcharts-point highcharts-color-1"/><path fill="#fe5f55" d="M364.933 210.323a1.933 1.933 0 1 1 .002 0Z" class="highcharts-node highcharts-point highcharts-color-2"/><path fill="#fff1c1" d="M378.933 210.323a1.933 1.933 0 1 1 .002 0Z" class="highcharts-node highcharts-point highcharts-color-3"/><path fill="#5bd1d7" d="M394.867 212.257a3.867 3.867 0 1 1 .004 0Z" class="highcharts-node highcharts-point highcharts-color-4"/><path fill="#ff502f" d="M419.6 219.99a11.6 11.6 0 1 1 .012 0Z" class="highcharts-node highcharts-point highcharts-color-5"/><path fill="#004d61" d="M445.867 212.257a3.867 3.867 0 1 1 .004 0Z" class="highcharts-node highcharts-point highcharts-color-6"/><path fill="#ff8a5c" d="M464.8 214.19a5.8 5.8 0 1 1 .006 0Z" class="highcharts-node highcharts-point highcharts-color-7"/><path fill="#fff591" d="M484.867 212.257a3.867 3.867 0 1 1 .004 0Z" class="highcharts-node highcharts-point highcharts-color-8"/><path fill="#f5587b" d="M502.867 212.257a3.867 3.867 0 1 1 .004 0Z" class="highcharts-node highcharts-point highcharts-color-9"/><path fill="#fad3cf" d="M519.867 212.257a3.867 3.867 0 1 1 .004 0Z" class="highcharts-node highcharts-point highcharts-color-10"/><path fill="#a696c8" d="M535.933 210.323a1.933 1.933 0 1 1 .002 0Z" class="highcharts-node highcharts-point highcharts-color-11"/><path fill="#5BE7C4" d="M549.933 210.323a1.933 1.933 0 1 1 .002 0Z" class="highcharts-node highcharts-point highcharts-color-12"/><path fill="#266A2E" d="M563.933 210.323a1.933 1.933 0 1 1 .002 0Z" class="highcharts-node highcharts-point highcharts-color-13"/><path fill="#593E1A" d="M577.933 210.323a1.933 1.933 0 1 1 .002 0Z" class="highcharts-node highcharts-point highcharts-color-14"/></g></g><text x="300" text-anchor="middle" class="highcharts-title" data-z-index="4" style="color:#333;font-size:18px;fill:#333" y="24" aria-hidden="true">Main train connections in Europe</text><g class="highcharts-data-labels highcharts-series-0 highcharts-arcdiagram-series highcharts-tracker" data-z-index="6" aria-hidden="true" fill="none"><text x="2.133" class="highcharts-data-label highcharts-data-label-color-0" data-z-index="1" transform="rotate(90 -16.367 266.89)" style="font-size:11px;font-weight:700;color:#000;fill:#000" y="238.39"><tspan class="highcharts-text-outline" fill="#FFF" stroke="#FFF" stroke-width="2" stroke-linejoin="round">Hamburg<tspan x="2.133" dy="0">​</tspan></tspan>Hamburg</text><text x="21.2" class="highcharts-data-label highcharts-data-label-color-1" data-z-index="1" transform="rotate(90 2.7 266.89)" style="font-size:11px;font-weight:700;color:#000;fill:#000" y="238.39"><tspan class="highcharts-text-outline" fill="#FFF" stroke="#FFF" stroke-width="2" stroke-linejoin="round">Stuttgart<tspan x="21.2" dy="0">​</tspan></tspan>Stuttgart</text><text x="43.067" class="highcharts-data-label highcharts-data-label-color-2" data-z-index="1" transform="rotate(90 24.567 266.89)" style="font-size:11px;font-weight:700;color:#000;fill:#000" y="238.39"><tspan class="highcharts-text-outline" fill="#FFF" stroke="#FFF" stroke-width="2" stroke-linejoin="round">Frankfurt<tspan x="43.067" dy="0">​</tspan></tspan>Frankfurt</text><text x="70" class="highcharts-data-label highcharts-data-label-color-3" data-z-index="1" transform="rotate(90 51.5 266.89)" style="font-size:11px;font-weight:700;color:#000;fill:#000" y="238.39"><tspan class="highcharts-text-outline" fill="#FFF" stroke="#FFF" stroke-width="2" stroke-linejoin="round">München<tspan x="70" dy="0">​</tspan></tspan>München</text><text x="94.2" class="highcharts-data-label highcharts-data-label-color-4" data-z-index="1" transform="rotate(90 75.7 266.89)" style="font-size:11px;font-weight:700;color:#000;fill:#000" y="238.39"><tspan class="highcharts-text-outline" fill="#FFF" stroke="#FFF" stroke-width="2" stroke-linejoin="round">Hannover<tspan x="94.2" dy="0">​</tspan></tspan>Hannover</text><text x="118.933" class="highcharts-data-label highcharts-data-label-color-5" data-z-index="1" transform="rotate(90 100.433 266.89)" style="font-size:11px;font-weight:700;color:#000;fill:#000" y="238.39"><tspan class="highcharts-text-outline" fill="#FFF" stroke="#FFF" stroke-width="2" stroke-linejoin="round">Wien<tspan x="118.933" dy="0">​</tspan></tspan>Wien</text><text x="152.933" class="highcharts-data-label highcharts-data-label-color-6" data-z-index="1" transform="rotate(90 134.433 266.89)" style="font-size:11px;font-weight:700;color:#000;fill:#000" y="238.39"><tspan class="highcharts-text-outline" fill="#FFF" stroke="#FFF" stroke-width="2" stroke-linejoin="round">Berlin<tspan x="152.933" dy="0">​</tspan></tspan>Berlin</text><text x="178.2" class="highcharts-data-label highcharts-data-label-color-7" data-z-index="1" transform="rotate(90 159.7 266.89)" style="font-size:11px;font-weight:700;color:#000;fill:#000" y="238.39"><tspan class="highcharts-text-outline" fill="#FFF" stroke="#FFF" stroke-width="2" stroke-linejoin="round">Köln<tspan x="178.2" dy="0">​</tspan></tspan>Köln</text><text x="196.2" class="highcharts-data-label highcharts-data-label-color-8" data-z-index="1" transform="rotate(90 177.7 266.89)" style="font-size:11px;font-weight:700;color:#000;fill:#000" y="238.39"><tspan class="highcharts-text-outline" fill="#FFF" stroke="#FFF" stroke-width="2" stroke-linejoin="round">Düsseldorf<tspan x="196.2" dy="0">​</tspan></tspan>Düsseldorf</text><text x="213.2" class="highcharts-data-label highcharts-data-label-color-9" data-z-index="1" transform="rotate(90 194.7 266.89)" style="font-size:11px;font-weight:700;color:#000;fill:#000" y="238.39"><tspan class="highcharts-text-outline" fill="#FFF" stroke="#FFF" stroke-width="2" stroke-linejoin="round">Amsterdam<tspan x="213.2" dy="0">​</tspan></tspan>Amsterdam</text><text x="244.733" class="highcharts-data-label highcharts-data-label-color-10" data-z-index="1" transform="rotate(90 226.233 266.89)" style="font-size:11px;font-weight:700;color:#000;fill:#000" y="238.39"><tspan class="highcharts-text-outline" fill="#FFF" stroke="#FFF" stroke-width="2" stroke-linejoin="round">Paris<tspan x="244.733" dy="0">​</tspan></tspan>Paris</text><text x="274.267" class="highcharts-data-label highcharts-data-label-color-11" data-z-index="1" transform="rotate(90 255.767 266.89)" style="font-size:11px;font-weight:700;color:#000;fill:#000" y="238.39"><tspan class="highcharts-text-outline" fill="#FFF" stroke="#FFF" stroke-width="2" stroke-linejoin="round">Budapest<tspan x="274.267" dy="0">​</tspan></tspan>Budapest</text><text x="288.267" class="highcharts-data-label highcharts-data-label-color-12" data-z-index="1" transform="rotate(90 269.767 266.89)" style="font-size:11px;font-weight:700;color:#000;fill:#000" y="238.39"><tspan class="highcharts-text-outline" fill="#FFF" stroke="#FFF" stroke-width="2" stroke-linejoin="round">Brest<tspan x="288.267" dy="0">​</tspan></tspan>Brest</text><text x="304.2" class="highcharts-data-label highcharts-data-label-color-13" data-z-index="1" transform="rotate(90 285.7 266.89)" style="font-size:11px;font-weight:700;color:#000;fill:#000" y="238.39"><tspan class="highcharts-text-outline" fill="#FFF" stroke="#FFF" stroke-width="2" stroke-linejoin="round">Nantes<tspan x="304.2" dy="0">​</tspan></tspan>Nantes</text><text x="319.267" class="highcharts-data-label highcharts-data-label-color-14" data-z-index="1" transform="rotate(90 300.767 266.89)" style="font-size:11px;font-weight:700;color:#000;fill:#000" y="238.39"><tspan class="highcharts-text-outline" fill="#FFF" stroke="#FFF" stroke-width="2" stroke-linejoin="round">Bayonne<tspan x="319.267" dy="0">​</tspan></tspan>Bayonne</text><text x="333.267" class="highcharts-data-label highcharts-data-label-color-0" data-z-index="1" transform="rotate(90 314.767 266.89)" style="font-size:11px;font-weight:700;color:#000;fill:#000" y="238.39"><tspan class="highcharts-text-outline" fill="#FFF" stroke="#FFF" stroke-width="2" stroke-linejoin="round">Bordeaux<tspan x="333.267" dy="0">​</tspan></tspan>Bordeaux</text><text x="347.267" class="highcharts-data-label highcharts-data-label-color-1" data-z-index="1" transform="rotate(90 328.767 266.89)" style="font-size:11px;font-weight:700;color:#000;fill:#000" y="238.39"><tspan class="highcharts-text-outline" fill="#FFF" stroke="#FFF" stroke-width="2" stroke-linejoin="round">Toulouse<tspan x="347.267" dy="0">​</tspan></tspan>Toulouse</text><text x="361.267" class="highcharts-data-label highcharts-data-label-color-2" data-z-index="1" transform="rotate(90 342.767 266.89)" style="font-size:11px;font-weight:700;color:#000;fill:#000" y="238.39"><tspan class="highcharts-text-outline" fill="#FFF" stroke="#FFF" stroke-width="2" stroke-linejoin="round">Montpellier<tspan x="361.267" dy="0">​</tspan></tspan>Montpellier</text><text x="375.267" class="highcharts-data-label highcharts-data-label-color-3" data-z-index="1" transform="rotate(90 356.767 266.89)" style="font-size:11px;font-weight:700;color:#000;fill:#000" y="238.39"><tspan class="highcharts-text-outline" fill="#FFF" stroke="#FFF" stroke-width="2" stroke-linejoin="round">Marseille<tspan x="375.267" dy="0">​</tspan></tspan>Marseille</text><text x="391.2" class="highcharts-data-label highcharts-data-label-color-4" data-z-index="1" transform="rotate(90 372.7 266.89)" style="font-size:11px;font-weight:700;color:#000;fill:#000" y="238.39"><tspan class="highcharts-text-outline" fill="#FFF" stroke="#FFF" stroke-width="2" stroke-linejoin="round">Nice<tspan x="391.2" dy="0">​</tspan></tspan>Nice</text><text x="415.933" class="highcharts-data-label highcharts-data-label-color-5" data-z-index="1" transform="rotate(90 397.433 266.89)" style="font-size:11px;font-weight:700;color:#000;fill:#000" y="238.39"><tspan class="highcharts-text-outline" fill="#FFF" stroke="#FFF" stroke-width="2" stroke-linejoin="round">Milano<tspan x="415.933" dy="0">​</tspan></tspan>Milano</text><text x="442.2" class="highcharts-data-label highcharts-data-label-color-6" data-z-index="1" transform="rotate(90 423.7 266.89)" style="font-size:11px;font-weight:700;color:#000;fill:#000" y="238.39"><tspan class="highcharts-text-outline" fill="#FFF" stroke="#FFF" stroke-width="2" stroke-linejoin="round">Lyon<tspan x="442.2" dy="0">​</tspan></tspan>Lyon</text><text x="461.133" class="highcharts-data-label highcharts-data-label-color-7" data-z-index="1" transform="rotate(90 442.633 266.89)" style="font-size:11px;font-weight:700;color:#000;fill:#000" y="238.39"><tspan class="highcharts-text-outline" fill="#FFF" stroke="#FFF" stroke-width="2" stroke-linejoin="round">Roma<tspan x="461.133" dy="0">​</tspan></tspan>Roma</text><text x="481.2" class="highcharts-data-label highcharts-data-label-color-8" data-z-index="1" transform="rotate(90 462.7 266.89)" style="font-size:11px;font-weight:700;color:#000;fill:#000" y="238.39"><tspan class="highcharts-text-outline" fill="#FFF" stroke="#FFF" stroke-width="2" stroke-linejoin="round">Bari<tspan x="481.2" dy="0">​</tspan></tspan>Bari</text><text x="499.2" class="highcharts-data-label highcharts-data-label-color-9" data-z-index="1" transform="rotate(90 480.7 266.89)" style="font-size:11px;font-weight:700;color:#000;fill:#000" y="238.39"><tspan class="highcharts-text-outline" fill="#FFF" stroke="#FFF" stroke-width="2" stroke-linejoin="round">Napoli<tspan x="499.2" dy="0">​</tspan></tspan>Napoli</text><text x="516.2" class="highcharts-data-label highcharts-data-label-color-10" data-z-index="1" transform="rotate(90 497.7 266.89)" style="font-size:11px;font-weight:700;color:#000;fill:#000" y="238.39"><tspan class="highcharts-text-outline" fill="#FFF" stroke="#FFF" stroke-width="2" stroke-linejoin="round">Brindisi<tspan x="516.2" dy="0">​</tspan></tspan>Brindisi</text><text x="532.267" class="highcharts-data-label highcharts-data-label-color-11" data-z-index="1" transform="rotate(90 513.767 266.89)" style="font-size:11px;font-weight:700;color:#000;fill:#000" y="238.39"><tspan class="highcharts-text-outline" fill="#FFF" stroke="#FFF" stroke-width="2" stroke-linejoin="round">Lamezia Terme<tspan x="532.267" dy="0">​</tspan></tspan>Lamezia Terme</text><text x="546.267" class="highcharts-data-label highcharts-data-label-color-12" data-z-index="1" transform="rotate(90 527.767 266.89)" style="font-size:11px;font-weight:700;color:#000;fill:#000" y="238.39"><tspan class="highcharts-text-outline" fill="#FFF" stroke="#FFF" stroke-width="2" stroke-linejoin="round">Torino<tspan x="546.267" dy="0">​</tspan></tspan>Torino</text><text x="560.267" class="highcharts-data-label highcharts-data-label-color-13" data-z-index="1" transform="rotate(90 541.767 266.89)" style="font-size:11px;font-weight:700;color:#000;fill:#000" y="238.39"><tspan class="highcharts-text-outline" fill="#FFF" stroke="#FFF" stroke-width="2" stroke-linejoin="round">Venezia<tspan x="560.267" dy="0">​</tspan></tspan>Venezia</text><text x="574.267" class="highcharts-data-label highcharts-data-label-color-14" data-z-index="1" transform="rotate(90 555.767 266.89)" style="font-size:11px;font-weight:700;color:#000;fill:#000" y="238.39"><tspan class="highcharts-text-outline" fill="#FFF" stroke="#FFF" stroke-width="2" stroke-linejoin="round">Catania<tspan x="574.267" dy="0">​</tspan></tspan>Catania</text></g></svg>