<svg class="highcharts-root" style="font-family:&quot;Lucida Grande&quot;,&quot;Lucida Sans Unicode&quot;,Arial,Helvetica,sans-serif;font-size:12px" xmlns="http://www.w3.org/2000/svg" width="600" height="400" aria-label="Interactive chart" aria-hidden="false"><defs aria-hidden="true"><clipPath id="a"><path fill="none" d="M0 0h521v303H0z"/></clipPath></defs><rect fill="#fff" class="highcharts-background" width="600" height="400" rx="0" ry="0" aria-hidden="true"/><path fill="none" class="highcharts-plot-background" aria-hidden="true" d="M69 61h521v303H69z"/><g class="highcharts-plot-bands-0" data-z-index="0" aria-hidden="true"><path fill="rgba(68, 170, 213, .2)" class="highcharts-plot-band" d="M558.5 61v303h26V61Z"/></g><g class="highcharts-grid highcharts-xaxis-grid" data-z-index="1" aria-hidden="true" fill="none"><path data-z-index="1" class="highcharts-grid-line" d="M73.5 61v303m128-303v303m128-303v303m127-303v303m128-303v303"/></g><g class="highcharts-grid highcharts-yaxis-grid" data-z-index="1" aria-hidden="true" fill="none" stroke="#e6e6e6"><path data-z-index="1" class="highcharts-grid-line" d="M69 364.5h521m-521-50h521m-521-51h521m-521-50h521m-521-51h521m-521-50h521m-521-52h521"/></g><path fill="none" class="highcharts-plot-border" data-z-index="1" aria-hidden="true" d="M69 61h521v303H69z"/><g class="highcharts-axis highcharts-xaxis" data-z-index="2" aria-hidden="true" fill="none" stroke="#ccd6eb"><path class="highcharts-tick" d="M73.5 364v10m128-10v10m128-10v10m127-10v10m128-10v10"/><path class="highcharts-axis-line" data-z-index="7" d="M69 364.5h521"/></g><g class="highcharts-axis highcharts-yaxis" data-z-index="2" aria-hidden="true"><text x="23.656" data-z-index="7" text-anchor="middle" transform="rotate(-90 23.656 212.5)" class="highcharts-axis-title" style="color:#666;fill:#666" y="212.5">Quantity</text><path fill="none" class="highcharts-axis-line" data-z-index="7" d="M69 61v303"/></g><g class="highcharts-series-group" data-z-index="3" aria-hidden="false"><g class="highcharts-series highcharts-series-0 highcharts-areaspline-series highcharts-color-0" data-z-index=".1" clip-path="url(#a)" aria-hidden="true" transform="translate(69 61)"><path fill="rgba(124,181,236,0.5)" d="M5.108 111.1s15.323 3.535 25.54 3.535c10.215 0 15.323-1.713 25.538-2.99 10.216-1.276 15.324-3.393 25.54-3.393 10.215 0 15.323 6.496 25.539 9.06 10.215 2.563 15.323 1.947 25.539 3.757 10.216 1.81 15.323 5.292 25.54 5.292 10.215 0 15.323-3.429 25.538-3.429 10.216 0 15.324.187 25.54.187 10.215 0 15.323-.976 25.539-1.773 10.215-.796 15.323-2.08 25.539-2.211 10.216-.132 15.324-.132 25.54-.132 10.215 0 15.323 9.05 25.538 9.05 10.216 0 15.324-1.58 25.54-1.58 10.215 0 15.323 5.014 25.539 8.872 10.216 3.858 15.323 8.898 25.54 10.418 10.215 1.52 15.323 1.52 25.538 1.52 10.216 0 15.324-3.919 25.54-3.919 10.215 0 15.323 3.468 25.539 4.773 10.215 1.305 15.323 1.752 25.539 1.752 10.216 0 25.54-7.307 25.54-7.307V303H5.106Z" class="highcharts-area" data-z-index="0"/><path fill="none" d="M5.108 111.1s15.323 3.535 25.54 3.535c10.215 0 15.323-1.713 25.538-2.99 10.216-1.276 15.324-3.393 25.54-3.393 10.215 0 15.323 6.496 25.539 9.06 10.215 2.563 15.323 1.947 25.539 3.757 10.216 1.81 15.323 5.292 25.54 5.292 10.215 0 15.323-3.429 25.538-3.429 10.216 0 15.324.187 25.54.187 10.215 0 15.323-.976 25.539-1.773 10.215-.796 15.323-2.08 25.539-2.211 10.216-.132 15.324-.132 25.54-.132 10.215 0 15.323 9.05 25.538 9.05 10.216 0 15.324-1.58 25.54-1.58 10.215 0 15.323 5.014 25.539 8.872 10.216 3.858 15.323 8.898 25.54 10.418 10.215 1.52 15.323 1.52 25.538 1.52 10.216 0 15.324-3.919 25.54-3.919 10.215 0 15.323 3.468 25.539 4.773 10.215 1.305 15.323 1.752 25.539 1.752 10.216 0 25.54-7.307 25.54-7.307" class="highcharts-graph" data-z-index="1" stroke="#7cb5ec" stroke-width="2" stroke-linejoin="round" stroke-linecap="round"/><path fill="none" d="M5.108 111.1s15.323 3.535 25.54 3.535c10.215 0 15.323-1.713 25.538-2.99 10.216-1.276 15.324-3.393 25.54-3.393 10.215 0 15.323 6.496 25.539 9.06 10.215 2.563 15.323 1.947 25.539 3.757 10.216 1.81 15.323 5.292 25.54 5.292 10.215 0 15.323-3.429 25.538-3.429 10.216 0 15.324.187 25.54.187 10.215 0 15.323-.976 25.539-1.773 10.215-.796 15.323-2.08 25.539-2.211 10.216-.132 15.324-.132 25.54-.132 10.215 0 15.323 9.05 25.538 9.05 10.216 0 15.324-1.58 25.54-1.58 10.215 0 15.323 5.014 25.539 8.872 10.216 3.858 15.323 8.898 25.54 10.418 10.215 1.52 15.323 1.52 25.538 1.52 10.216 0 15.324-3.919 25.54-3.919 10.215 0 15.323 3.468 25.539 4.773 10.215 1.305 15.323 1.752 25.539 1.752 10.216 0 25.54-7.307 25.54-7.307" data-z-index="2" class="highcharts-tracker-line" stroke-linecap="round" stroke-linejoin="round" stroke="rgba(192,192,192,0.0001)" stroke-width="22"/></g><g class="highcharts-markers highcharts-series-0 highcharts-areaspline-series highcharts-color-0 highcharts-tracker" data-z-index=".1" aria-hidden="false" tabindex="-1" aria-label="Moose, series 1 of 2 with 21 data points." style="outline:0" fill="#7cb5ec"><path d="M5 115a4 4 0 1 1 .004 0Z" class="highcharts-point highcharts-color-0" tabindex="-1" aria-label="x, 2000, 38,000. Moose." style="outline:0" transform="translate(69 61)"/><path d="M30 119a4 4 0 1 1 .004 0Z" class="highcharts-point highcharts-color-0" tabindex="-1" aria-label="x, 2001, 37,300. Moose." style="outline:0" transform="translate(69 61)"/><path d="M56 116a4 4 0 1 1 .004 0Z" class="highcharts-point highcharts-color-0" tabindex="-1" aria-label="x, 2002, 37,892. Moose." style="outline:0" transform="translate(69 61)"/><path d="M81 112a4 4 0 1 1 .004 0Z" class="highcharts-point highcharts-color-0" tabindex="-1" aria-label="x, 2003, 38,564. Moose." style="outline:0" transform="translate(69 61)"/><path d="M107 121a4 4 0 1 1 .004 0Z" class="highcharts-point highcharts-color-0" tabindex="-1" aria-label="x, 2004, 36,770. Moose." style="outline:0" transform="translate(69 61)"/><path d="M132 125a4 4 0 1 1 .004 0Z" class="highcharts-point highcharts-color-0" tabindex="-1" aria-label="x, 2005, 36,026. Moose." style="outline:0" transform="translate(69 61)"/><path d="M158 130a4 4 0 1 1 .004 0Z" class="highcharts-point highcharts-color-0" tabindex="-1" aria-label="x, 2006, 34,978. Moose." style="outline:0" transform="translate(69 61)"/><path d="M183 127a4 4 0 1 1 .004 0Z" class="highcharts-point highcharts-color-0" tabindex="-1" aria-label="x, 2007, 35,657. Moose." style="outline:0" transform="translate(69 61)"/><path d="M209 127a4 4 0 1 1 .004 0Z" class="highcharts-point highcharts-color-0" tabindex="-1" aria-label="x, 2008, 35,620. Moose." style="outline:0" transform="translate(69 61)"/><path d="M234 125a4 4 0 1 1 .004 0Z" class="highcharts-point highcharts-color-0" tabindex="-1" aria-label="x, 2009, 35,971. Moose." style="outline:0" transform="translate(69 61)"/><path d="M260 123a4 4 0 1 1 .004 0Z" class="highcharts-point highcharts-color-0" tabindex="-1" aria-label="x, 2010, 36,409. Moose." style="outline:0" transform="translate(69 61)"/><path d="M286 123a4 4 0 1 1 .004 0Z" class="highcharts-point highcharts-color-0" tabindex="-1" aria-label="x, 2011, 36,435. Moose." style="outline:0" transform="translate(69 61)"/><path d="M311 132a4 4 0 1 1 .004 0Z" class="highcharts-point highcharts-color-0" tabindex="-1" aria-label="x, 2012, 34,643. Moose." style="outline:0" transform="translate(69 61)"/><path d="M337 130a4 4 0 1 1 .004 0Z" class="highcharts-point highcharts-color-0" tabindex="-1" aria-label="x, 2013, 34,956. Moose." style="outline:0" transform="translate(69 61)"/><path d="M362 139a4 4 0 1 1 .004 0Z" class="highcharts-point highcharts-color-0" tabindex="-1" aria-label="x, 2014, 33,199. Moose." style="outline:0" transform="translate(69 61)"/><path d="M388 150a4 4 0 1 1 .004 0Z" class="highcharts-point highcharts-color-0" tabindex="-1" aria-label="x, 2015, 31,136. Moose." style="outline:0" transform="translate(69 61)"/><path d="M413 151a4 4 0 1 1 .004 0Z" class="highcharts-point highcharts-color-0" tabindex="-1" aria-label="x, 2016, 30,835. Moose." style="outline:0" transform="translate(69 61)"/><path d="M439 147a4 4 0 1 1 .004 0Z" class="highcharts-point highcharts-color-0" tabindex="-1" aria-label="x, 2017, 31,611. Moose." style="outline:0" transform="translate(69 61)"/><path d="M464 152a4 4 0 1 1 .004 0Z" class="highcharts-point highcharts-color-0" tabindex="-1" aria-label="x, 2018, 30,666. Moose." style="outline:0" transform="translate(69 61)"/><path d="M490 154a4 4 0 1 1 .004 0Z" class="highcharts-point highcharts-color-0" tabindex="-1" aria-label="x, 2019, 30,319. Moose." style="outline:0" transform="translate(69 61)"/><path d="M515 147a4 4 0 1 1 .004 0Z" class="highcharts-point highcharts-color-0" tabindex="-1" aria-label="x, 2020, 31,766. Moose." style="outline:0" transform="translate(69 61)"/></g><g class="highcharts-series highcharts-series-1 highcharts-areaspline-series highcharts-color-1" data-z-index=".1" clip-path="url(#a)" aria-hidden="true" transform="translate(69 61)"><path fill="rgba(67,67,72,0.5)" d="M5.108 189.203s15.323-3.359 25.54-5.378c10.215-2.019 15.323-3.105 25.538-4.717 10.216-1.612 15.324-1.966 25.54-3.343 10.215-1.376 15.323-1.075 25.539-3.54 10.215-2.464 15.323-5.472 25.539-8.782 10.216-3.31 15.323-2.706 25.54-7.767 10.215-5.06 15.323-10.96 25.538-17.538 10.216-6.578 15.324-10.239 25.54-15.352 10.215-5.114 15.323-6.725 25.539-10.216 10.215-3.492 15.323-7.242 25.539-7.242 10.216 0 15.324 7.532 25.54 11.686 10.215 4.153 15.323 9.08 25.538 9.08 10.216 0 15.324-5.914 25.54-5.914 10.215 0 15.323 2.854 25.539 5.363 10.216 2.509 15.323 7.181 25.54 7.181 10.215 0 15.323-11.551 25.538-20.478 10.216-8.926 15.324-18.046 25.54-24.154 10.215-6.107 15.323-2.455 25.539-6.383 10.215-3.928 15.323-6.966 25.539-13.256 10.216-6.29 25.54-18.195 25.54-18.195V303H5.106Z" class="highcharts-area" data-z-index="0"/><path fill="none" d="M5.108 189.203s15.323-3.359 25.54-5.378c10.215-2.019 15.323-3.105 25.538-4.717 10.216-1.612 15.324-1.966 25.54-3.343 10.215-1.376 15.323-1.075 25.539-3.54 10.215-2.464 15.323-5.472 25.539-8.782 10.216-3.31 15.323-2.706 25.54-7.767 10.215-5.06 15.323-10.96 25.538-17.538 10.216-6.578 15.324-10.239 25.54-15.352 10.215-5.114 15.323-6.725 25.539-10.216 10.215-3.492 15.323-7.242 25.539-7.242 10.216 0 15.324 7.532 25.54 11.686 10.215 4.153 15.323 9.08 25.538 9.08 10.216 0 15.324-5.914 25.54-5.914 10.215 0 15.323 2.854 25.539 5.363 10.216 2.509 15.323 7.181 25.54 7.181 10.215 0 15.323-11.551 25.538-20.478 10.216-8.926 15.324-18.046 25.54-24.154 10.215-6.107 15.323-2.455 25.539-6.383 10.215-3.928 15.323-6.966 25.539-13.256 10.216-6.29 25.54-18.195 25.54-18.195" class="highcharts-graph" data-z-index="1" stroke="#434348" stroke-width="2" stroke-linejoin="round" stroke-linecap="round"/><path fill="none" d="M5.108 189.203s15.323-3.359 25.54-5.378c10.215-2.019 15.323-3.105 25.538-4.717 10.216-1.612 15.324-1.966 25.54-3.343 10.215-1.376 15.323-1.075 25.539-3.54 10.215-2.464 15.323-5.472 25.539-8.782 10.216-3.31 15.323-2.706 25.54-7.767 10.215-5.06 15.323-10.96 25.538-17.538 10.216-6.578 15.324-10.239 25.54-15.352 10.215-5.114 15.323-6.725 25.539-10.216 10.215-3.492 15.323-7.242 25.539-7.242 10.216 0 15.324 7.532 25.54 11.686 10.215 4.153 15.323 9.08 25.538 9.08 10.216 0 15.324-5.914 25.54-5.914 10.215 0 15.323 2.854 25.539 5.363 10.216 2.509 15.323 7.181 25.54 7.181 10.215 0 15.323-11.551 25.538-20.478 10.216-8.926 15.324-18.046 25.54-24.154 10.215-6.107 15.323-2.455 25.539-6.383 10.215-3.928 15.323-6.966 25.539-13.256 10.216-6.29 25.54-18.195 25.54-18.195" data-z-index="2" class="highcharts-tracker-line" stroke-linecap="round" stroke-linejoin="round" stroke="rgba(192,192,192,0.0001)" stroke-width="22"/></g><g class="highcharts-markers highcharts-series-1 highcharts-areaspline-series highcharts-color-1 highcharts-tracker" data-z-index=".1" aria-hidden="false" tabindex="-1" aria-label="Deer, series 2 of 2 with 21 data points." style="outline:0" fill="#434348"><path d="m5 185 4 4-4 4-4-4Z" class="highcharts-point highcharts-color-1" tabindex="-1" aria-label="x, 2000, 22,534. Deer." style="outline:0" transform="translate(69 61)"/><path d="m30 180 4 4-4 4-4-4Z" class="highcharts-point highcharts-color-1" tabindex="-1" aria-label="x, 2001, 23,599. Deer." style="outline:0" transform="translate(69 61)"/><path d="m56 175 4 4-4 4-4-4Z" class="highcharts-point highcharts-color-1" tabindex="-1" aria-label="x, 2002, 24,533. Deer." style="outline:0" transform="translate(69 61)"/><path d="m81 172 4 4-4 4-4-4Z" class="highcharts-point highcharts-color-1" tabindex="-1" aria-label="x, 2003, 25,195. Deer." style="outline:0" transform="translate(69 61)"/><path d="m107 168 4 4-4 4-4-4Z" class="highcharts-point highcharts-color-1" tabindex="-1" aria-label="x, 2004, 25,896. Deer." style="outline:0" transform="translate(69 61)"/><path d="m132 159 4 4-4 4-4-4Z" class="highcharts-point highcharts-color-1" tabindex="-1" aria-label="x, 2005, 27,635. Deer." style="outline:0" transform="translate(69 61)"/><path d="m158 152 4 4-4 4-4-4Z" class="highcharts-point highcharts-color-1" tabindex="-1" aria-label="x, 2006, 29,173. Deer." style="outline:0" transform="translate(69 61)"/><path d="m183 134 4 4-4 4-4-4Z" class="highcharts-point highcharts-color-1" tabindex="-1" aria-label="x, 2007, 32,646. Deer." style="outline:0" transform="translate(69 61)"/><path d="m209 119 4 4-4 4-4-4Z" class="highcharts-point highcharts-color-1" tabindex="-1" aria-label="x, 2008, 35,686. Deer." style="outline:0" transform="translate(69 61)"/><path d="m234 109 4 4-4 4-4-4Z" class="highcharts-point highcharts-color-1" tabindex="-1" aria-label="x, 2009, 37,709. Deer." style="outline:0" transform="translate(69 61)"/><path d="m260 101 4 4-4 4-4-4Z" class="highcharts-point highcharts-color-1" tabindex="-1" aria-label="x, 2010, 39,143. Deer." style="outline:0" transform="translate(69 61)"/><path d="m286 113 4 4-4 4-4-4Z" class="highcharts-point highcharts-color-1" tabindex="-1" aria-label="x, 2011, 36,829. Deer." style="outline:0" transform="translate(69 61)"/><path d="m311 122 4 4-4 4-4-4Z" class="highcharts-point highcharts-color-1" tabindex="-1" aria-label="x, 2012, 35,031. Deer." style="outline:0" transform="translate(69 61)"/><path d="m337 116 4 4-4 4-4-4Z" class="highcharts-point highcharts-color-1" tabindex="-1" aria-label="x, 2013, 36,202. Deer." style="outline:0" transform="translate(69 61)"/><path d="m362 122 4 4-4 4-4-4Z" class="highcharts-point highcharts-color-1" tabindex="-1" aria-label="x, 2014, 35,140. Deer." style="outline:0" transform="translate(69 61)"/><path d="m388 129 4 4-4 4-4-4Z" class="highcharts-point highcharts-color-1" tabindex="-1" aria-label="x, 2015, 33,718. Deer." style="outline:0" transform="translate(69 61)"/><path d="m413 108 4 4-4 4-4-4Z" class="highcharts-point highcharts-color-1" tabindex="-1" aria-label="x, 2016, 37,773. Deer." style="outline:0" transform="translate(69 61)"/><path d="m439 84 4 4-4 4-4-4Z" class="highcharts-point highcharts-color-1" tabindex="-1" aria-label="x, 2017, 42,556. Deer." style="outline:0" transform="translate(69 61)"/><path d="m464 78 4 4-4 4-4-4Z" class="highcharts-point highcharts-color-1" tabindex="-1" aria-label="x, 2018, 43,820. Deer." style="outline:0" transform="translate(69 61)"/><path d="m490 64 4 4-4 4-4-4Z" class="highcharts-point highcharts-color-1" tabindex="-1" aria-label="x, 2019, 46,445. Deer." style="outline:0" transform="translate(69 61)"/><path d="m515 46 4 4-4 4-4-4Z" class="highcharts-point highcharts-color-1" tabindex="-1" aria-label="x, 2020, 50,048. Deer." style="outline:0" transform="translate(69 61)"/></g></g><text x="300" text-anchor="middle" class="highcharts-title" data-z-index="4" style="color:#333;font-size:18px;fill:#333" y="24" aria-hidden="true">Moose and deer hunting in Norway, 2000 - 2021</text><text x="300" text-anchor="middle" class="highcharts-subtitle" data-z-index="4" style="color:#666;fill:#666" y="46" aria-hidden="true">Source: <a target="_blank"><tspan>SSB</tspan></a></text><g class="highcharts-legend highcharts-no-tooltip" data-z-index="7" transform="translate(130 80)" aria-hidden="true"><rect fill="#FFF" class="highcharts-legend-box" rx="0" ry="0" stroke="#999" x=".5" y=".5" width="76" height="40"/><g data-z-index="1"><g class="highcharts-legend-item highcharts-areaspline-series highcharts-color-0 highcharts-series-0" data-z-index="1" transform="translate(8 3)"><text x="21" data-z-index="2" y="15" style="color:#333;cursor:pointer;font-size:12px;font-weight:700;fill:#333">Moose</text><rect x="2" y="4" width="12" height="12" fill="#7cb5ec" rx="6" ry="6" class="highcharts-point" data-z-index="3"/></g><g class="highcharts-legend-item highcharts-areaspline-series highcharts-color-1 highcharts-series-1" data-z-index="1" transform="translate(8 18)"><text x="21" y="15" data-z-index="2" style="color:#333;cursor:pointer;font-size:12px;font-weight:700;fill:#333">Deer</text><rect x="2" y="4" width="12" height="12" fill="#434348" rx="6" ry="6" class="highcharts-point" data-z-index="3"/></g></g></g><g class="highcharts-axis-labels highcharts-xaxis-labels" data-z-index="7" aria-hidden="true" text-anchor="middle"><text x="74.108" style="color:#666;cursor:default;font-size:11px;fill:#666" y="383">2000</text><text x="201.804" style="color:#666;cursor:default;font-size:11px;fill:#666" y="383">2005</text><text x="329.5" style="color:#666;cursor:default;font-size:11px;fill:#666" y="383">2010</text><text x="457.196" style="color:#666;cursor:default;font-size:11px;fill:#666" y="383">2015</text><text x="576.086" style="color:#666;cursor:default;font-size:11px;fill:#666" y="383">2020</text></g><g class="highcharts-axis-labels highcharts-yaxis-labels" data-z-index="7" aria-hidden="true" text-anchor="end"><text x="54" style="color:#666;cursor:default;font-size:11px;fill:#666" y="369">0</text><text x="54" style="color:#666;cursor:default;font-size:11px;fill:#666" y="318">10k</text><text x="54" style="color:#666;cursor:default;font-size:11px;fill:#666" y="268">20k</text><text x="54" style="color:#666;cursor:default;font-size:11px;fill:#666" y="217">30k</text><text x="54" style="color:#666;cursor:default;font-size:11px;fill:#666" y="167">40k</text><text x="54" style="color:#666;cursor:default;font-size:11px;fill:#666" y="116">50k</text><text x="54" style="color:#666;cursor:default;font-size:11px;fill:#666" y="66">60k</text></g></svg>