<svg class="highcharts-root" style="font-family:&quot;Lucida Grande&quot;,&quot;Lucida Sans Unicode&quot;,Arial,Helvetica,sans-serif;font-size:12px" xmlns="http://www.w3.org/2000/svg" width="600" height="400" aria-label="Interactive chart" aria-hidden="false"><defs aria-hidden="true"><clipPath id="a"><path fill="none" d="M0 0h527v288H0z"/></clipPath></defs><rect fill="#fff" class="highcharts-background" width="600" height="400" rx="0" ry="0" aria-hidden="true"/><path fill="none" class="highcharts-plot-background" aria-hidden="true" d="M63 47h527v288H63z"/><g class="highcharts-grid highcharts-xaxis-grid" data-z-index="1" aria-hidden="true" fill="none"><path data-z-index="1" class="highcharts-grid-line" d="M67.5 47v288m74-288v288m74-288v288m74-288v288m73-288v288m74-288v288m74-288v288m74-288v288"/></g><g class="highcharts-grid highcharts-yaxis-grid" data-z-index="1" aria-hidden="true" fill="none" stroke="#e6e6e6"><path data-z-index="1" class="highcharts-grid-line" d="M63 335.5h527m-527-96h527m-527-96h527m-527-97h527"/></g><path fill="none" class="highcharts-plot-border" data-z-index="1" aria-hidden="true" d="M63 47h527v288H63z"/><g class="highcharts-axis highcharts-xaxis" data-z-index="2" aria-hidden="true" fill="none" stroke="#ccd6eb"><path class="highcharts-tick" d="M67.5 335v10m74-10v10m74-10v10m74-10v10m73-10v10m74-10v10m74-10v10m74-10v10"/><path class="highcharts-axis-line" data-z-index="7" d="M63 335.5h527"/></g><g class="highcharts-axis highcharts-yaxis" data-z-index="2" aria-hidden="true"><text x="24.086" data-z-index="7" text-anchor="middle" transform="rotate(-90 24.086 191)" class="highcharts-axis-title" style="color:#666;fill:#666" y="191">Amount</text><path fill="none" class="highcharts-axis-line" data-z-index="7" d="M63 47v288"/></g><g class="highcharts-series-group" data-z-index="3" aria-hidden="false"><g class="highcharts-series highcharts-series-0 highcharts-area-series highcharts-color-0" data-z-index=".1" clip-path="url(#a)" aria-hidden="true" transform="translate(63 47)"><path fill="rgba(124,181,236,0.5)" d="m5.167 96 73.81 19.2 73.809-38.4h73.81l73.809 57.6 73.81-96 73.809 19.2 73.81-38.4V288H5.165Z" class="highcharts-area" data-z-index="0"/><path fill="none" d="m5.167 96 73.81 19.2 73.809-38.4h73.81l73.809 57.6 73.81-96 73.809 19.2 73.81-38.4" class="highcharts-graph" data-z-index="1" stroke="#7cb5ec" stroke-width="2" stroke-linejoin="round" stroke-linecap="round"/><path fill="none" d="m5.167 96 73.81 19.2 73.809-38.4h73.81l73.809 57.6 73.81-96 73.809 19.2 73.81-38.4" data-z-index="2" class="highcharts-tracker-line" stroke-linecap="round" stroke-linejoin="round" stroke="rgba(192,192,192,0.0001)" stroke-width="22"/></g><g class="highcharts-markers highcharts-series-0 highcharts-area-series highcharts-color-0 highcharts-tracker" data-z-index=".1" aria-hidden="false" tabindex="-1" aria-label="Arvid, series 1 of 2 with 8 data points." style="outline:0" fill="#7cb5ec"><path d="M5 100a4 4 0 1 1 .004 0Z" class="highcharts-point highcharts-color-0" tabindex="-1" aria-label="x, 2014, 10. Arvid." style="outline:0" transform="translate(63 47)"/><path d="M78 119a4 4 0 1 1 .004 0Z" class="highcharts-point highcharts-color-0" tabindex="-1" aria-label="x, 2015, 9. Arvid." style="outline:0" transform="translate(63 47)"/><path d="M152 81a4 4 0 1 1 .004 0Z" class="highcharts-point highcharts-color-0" tabindex="-1" aria-label="x, 2016, 11. Arvid." style="outline:0" transform="translate(63 47)"/><path d="M226 81a4 4 0 1 1 .004 0Z" class="highcharts-point highcharts-color-0" tabindex="-1" aria-label="x, 2017, 11. Arvid." style="outline:0" transform="translate(63 47)"/><path d="M300 138a4 4 0 1 1 .004 0Z" class="highcharts-point highcharts-color-0" tabindex="-1" aria-label="x, 2018, 8. Arvid." style="outline:0" transform="translate(63 47)"/><path d="M374 42a4 4 0 1 1 .004 0Z" class="highcharts-point highcharts-color-0" tabindex="-1" aria-label="x, 2019, 13. Arvid." style="outline:0" transform="translate(63 47)"/><path d="M448 62a4 4 0 1 1 .004 0Z" class="highcharts-point highcharts-color-0" tabindex="-1" aria-label="x, 2020, 12. Arvid." style="outline:0" transform="translate(63 47)"/><path d="M521 23a4 4 0 1 1 .004 0Z" class="highcharts-point highcharts-color-0" tabindex="-1" aria-label="x, 2021, 14. Arvid." style="outline:0" transform="translate(63 47)"/></g><g class="highcharts-series highcharts-series-1 highcharts-area-series highcharts-color-1" data-z-index=".1" clip-path="url(#a)" aria-hidden="true" transform="translate(63 47)"><path fill="rgba(67,67,72,0.5)" d="m5.167 38.4 73.81 76.8L152.785 96h73.81l73.809 38.4V288h147.619V134.4l73.81 38.4V288H5.165Z" class="highcharts-area" data-z-index="0"/><path fill="none" d="m5.167 38.4 73.81 76.8L152.785 96h73.81l73.809 38.4m147.619 0 73.81 38.4" class="highcharts-graph" data-z-index="1" stroke="#434348" stroke-width="2" stroke-linejoin="round" stroke-linecap="round"/><path fill="none" d="m5.167 38.4 73.81 76.8L152.785 96h73.81l73.809 38.4m147.619 0 73.81 38.4" data-z-index="2" class="highcharts-tracker-line" stroke-linecap="round" stroke-linejoin="round" stroke="rgba(192,192,192,0.0001)" stroke-width="22"/></g><g class="highcharts-markers highcharts-series-1 highcharts-area-series highcharts-color-1 highcharts-tracker" data-z-index=".1" aria-hidden="false" tabindex="-1" aria-label="Yasin, series 2 of 2 with 8 data points." style="outline:0" fill="#434348"><path d="m5 34 4 4-4 4-4-4Z" class="highcharts-point highcharts-color-1" tabindex="-1" aria-label="x, 2014, 13. Yasin." style="outline:0" transform="translate(63 47)"/><path d="m78 111 4 4-4 4-4-4Z" class="highcharts-point highcharts-color-1" tabindex="-1" aria-label="x, 2015, 9. Yasin." style="outline:0" transform="translate(63 47)"/><path d="m152 92 4 4-4 4-4-4Z" class="highcharts-point highcharts-color-1" tabindex="-1" aria-label="x, 2016, 10. Yasin." style="outline:0" transform="translate(63 47)"/><path d="m226 92 4 4-4 4-4-4Z" class="highcharts-point highcharts-color-1" tabindex="-1" aria-label="x, 2017, 10. Yasin." style="outline:0" transform="translate(63 47)"/><path d="m300 130 4 4-4 4-4-4Z" class="highcharts-point highcharts-color-1" tabindex="-1" aria-label="x, 2018, 8. Yasin." style="outline:0" transform="translate(63 47)"/><path d="m448 130 4 4-4 4-4-4Z" class="highcharts-point highcharts-color-1" tabindex="-1" aria-label="x, 2020, 8. Yasin." style="outline:0" transform="translate(63 47)"/><path d="m521 169 4 4-4 4-4-4Z" class="highcharts-point highcharts-color-1" tabindex="-1" aria-label="x, 2021, 6. Yasin." style="outline:0" transform="translate(63 47)"/></g></g><text x="300" text-anchor="middle" class="highcharts-title" data-z-index="4" style="color:#333;font-size:18px;fill:#333" y="24" aria-hidden="true">Born persons, by boys&apos; name</text><text x="590" text-anchor="end" class="highcharts-subtitle" data-z-index="4" style="color:#666;fill:#666" y="383" aria-hidden="true">* Missing data for Yasin in 2019</text><g class="highcharts-legend highcharts-no-tooltip" data-z-index="7" transform="translate(160 70)" aria-hidden="true"><rect fill="#FFF" class="highcharts-legend-box" rx="0" ry="0" stroke="#999" x=".5" y=".5" width="69" height="40"/><g data-z-index="1"><g class="highcharts-legend-item highcharts-area-series highcharts-color-0 highcharts-series-0" data-z-index="1" transform="translate(8 3)"><text x="21" data-z-index="2" y="15" style="color:#333;cursor:pointer;font-size:12px;font-weight:700;fill:#333">Arvid</text><rect x="2" y="4" width="12" height="12" fill="#7cb5ec" rx="6" ry="6" class="highcharts-point" data-z-index="3"/></g><g class="highcharts-legend-item highcharts-area-series highcharts-color-1 highcharts-series-1" data-z-index="1" transform="translate(8 18)"><text x="21" y="15" data-z-index="2" style="color:#333;cursor:pointer;font-size:12px;font-weight:700;fill:#333">Yasin</text><rect x="2" y="4" width="12" height="12" fill="#434348" rx="6" ry="6" class="highcharts-point" data-z-index="3"/></g></g></g><g class="highcharts-axis-labels highcharts-xaxis-labels" data-z-index="7" aria-hidden="true" text-anchor="middle"><text x="68.167" style="color:#666;cursor:default;font-size:11px;fill:#666" y="354">2014</text><text x="141.976" style="color:#666;cursor:default;font-size:11px;fill:#666" y="354">2015</text><text x="215.786" style="color:#666;cursor:default;font-size:11px;fill:#666" y="354">2016</text><text x="289.595" style="color:#666;cursor:default;font-size:11px;fill:#666" y="354">2017</text><text x="363.405" style="color:#666;cursor:default;font-size:11px;fill:#666" y="354">2018</text><text x="437.214" style="color:#666;cursor:default;font-size:11px;fill:#666" y="354">2019</text><text x="511.024" style="color:#666;cursor:default;font-size:11px;fill:#666" y="354">2020</text><text x="576.086" style="color:#666;cursor:default;font-size:11px;fill:#666" y="354">2021</text></g><g class="highcharts-axis-labels highcharts-yaxis-labels" data-z-index="7" aria-hidden="true" text-anchor="end"><text x="48" style="color:#666;cursor:default;font-size:11px;fill:#666" y="340">0</text><text x="48" style="color:#666;cursor:default;font-size:11px;fill:#666" y="244">5</text><text x="48" style="color:#666;cursor:default;font-size:11px;fill:#666" y="148">10</text><text x="48" style="color:#666;cursor:default;font-size:11px;fill:#666" y="52">15</text></g></svg>