<svg class="highcharts-root" style="font-family:&quot;Lucida Grande&quot;,&quot;Lucida Sans Unicode&quot;,Arial,Helvetica,sans-serif;font-size:12px" xmlns="http://www.w3.org/2000/svg" width="600" height="400" aria-label="Interactive chart" aria-hidden="false"><defs aria-hidden="true"><clipPath id="a"><path fill="none" d="M0 0h521v235H0z"/></clipPath></defs><rect fill="#fff" class="highcharts-background" width="600" height="400" rx="0" ry="0" aria-hidden="true"/><path fill="none" class="highcharts-plot-background" aria-hidden="true" d="M69 61h521v235H69z"/><g class="highcharts-grid highcharts-xaxis-grid" data-z-index="1" aria-hidden="true" fill="none"><path data-z-index="1" class="highcharts-grid-line" d="M73.5 61v235m128-235v235m128-235v235m127-235v235m128-235v235"/></g><g class="highcharts-grid highcharts-yaxis-grid" data-z-index="1" aria-hidden="true" fill="none" stroke="#e6e6e6"><path data-z-index="1" class="highcharts-grid-line" d="M69 296.5h521m-521-59h521m-521-58h521m-521-59h521m-521-60h521"/></g><path fill="none" class="highcharts-plot-border" data-z-index="1" aria-hidden="true" d="M69 61h521v235H69z"/><g class="highcharts-axis highcharts-xaxis" data-z-index="2" aria-hidden="true" fill="none" stroke="#ccd6eb"><path class="highcharts-tick" d="M73.5 296v10m128-10v10m128-10v10m127-10v10m128-10v10"/><path class="highcharts-axis-line" data-z-index="7" d="M69 296.5h521"/></g><g class="highcharts-axis highcharts-yaxis" data-z-index="2" aria-hidden="true"><text x="23.656" data-z-index="7" text-anchor="middle" transform="rotate(-90 23.656 178.5)" class="highcharts-axis-title" style="color:#666;fill:#666" y="178.5">Million tonnes CO<tspan>2</tspan>-equivalents</text><path fill="none" class="highcharts-axis-line" data-z-index="7" d="M69 61v235"/></g><g class="highcharts-series-group" data-z-index="3" aria-hidden="false"><g class="highcharts-series highcharts-series-0 highcharts-area-series highcharts-color-0" data-z-index=".1" clip-path="url(#a)" aria-hidden="true" transform="translate(69 61)"><path fill="rgba(124,181,236,0.75)" d="m5.108 59.608 63.848.235 63.848 5.68 63.848-38.727L260.5 75.094l63.848-12.455 63.848-17.349 63.848-3.713 63.848 17.749v95.257l-63.848-17.854-63.848-.476-63.848 1.65-63.848-1.72-63.848-4.824-63.848 1.921-63.848 1.346-63.848 2.732Z" class="highcharts-area" data-z-index="0"/><path fill="none" d="m5.108 59.608 63.848.235 63.848 5.68 63.848-38.727L260.5 75.094l63.848-12.455 63.848-17.349 63.848-3.713 63.848 17.749" class="highcharts-graph" data-z-index="1" stroke="#666" stroke-linejoin="round" stroke-linecap="round"/><path fill="none" d="m5.108 59.608 63.848.235 63.848 5.68 63.848-38.727L260.5 75.094l63.848-12.455 63.848-17.349 63.848-3.713 63.848 17.749" data-z-index="2" class="highcharts-tracker-line" stroke-linecap="round" stroke-linejoin="round" stroke="rgba(192,192,192,0.0001)" stroke-width="21"/></g><g class="highcharts-markers highcharts-series-0 highcharts-area-series highcharts-color-0 highcharts-tracker" data-z-index=".1" aria-hidden="false" tabindex="-1" aria-label="Ocean transport, series 1 of 5 with 9 data points." style="outline:0" fill="#7cb5ec" stroke="#666"><path d="M5 64a4 4 0 1 1 .004 0Z" class="highcharts-point highcharts-color-0" tabindex="-1" aria-label="x, 2012, 13,234. Ocean transport." style="outline:0" transform="translate(69 61)"/><path d="M68 64a4 4 0 1 1 .004 0Z" class="highcharts-point highcharts-color-0" tabindex="-1" aria-label="x, 2013, 12,729. Ocean transport." style="outline:0" transform="translate(69 61)"/><path d="M132 70a4 4 0 1 1 .004 0Z" class="highcharts-point highcharts-color-0" tabindex="-1" aria-label="x, 2014, 11,533. Ocean transport." style="outline:0" transform="translate(69 61)"/><path d="M196 31a4 4 0 1 1 .004 0Z" class="highcharts-point highcharts-color-0" tabindex="-1" aria-label="x, 2015, 17,798. Ocean transport." style="outline:0" transform="translate(69 61)"/><path d="M260 79a4 4 0 1 1 .004 0Z" class="highcharts-point highcharts-color-0" tabindex="-1" aria-label="x, 2016, 10,398. Ocean transport." style="outline:0" transform="translate(69 61)"/><path d="M324 67a4 4 0 1 1 .004 0Z" class="highcharts-point highcharts-color-0" tabindex="-1" aria-label="x, 2017, 12,811. Ocean transport." style="outline:0" transform="translate(69 61)"/><path d="M388 49a4 4 0 1 1 .004 0Z" class="highcharts-point highcharts-color-0" tabindex="-1" aria-label="x, 2018, 15,483. Ocean transport." style="outline:0" transform="translate(69 61)"/><path d="M452 46a4 4 0 1 1 .004 0Z" class="highcharts-point highcharts-color-0" tabindex="-1" aria-label="x, 2019, 16,196. Ocean transport." style="outline:0" transform="translate(69 61)"/><path d="M515 63a4 4 0 1 1 .004 0Z" class="highcharts-point highcharts-color-0" tabindex="-1" aria-label="x, 2020, 16,214. Ocean transport." style="outline:0" transform="translate(69 61)"/></g><g class="highcharts-series highcharts-series-1 highcharts-area-series highcharts-color-1" data-z-index=".1" clip-path="url(#a)" aria-hidden="true" transform="translate(69 61)"><path fill="rgba(67,67,72,0.75)" d="m5.108 137.358 63.848-2.732 63.848-1.346 63.848-1.92 63.848 4.822 63.848 1.722 63.848-1.651 63.848.476 63.848 17.854v29.604l-63.848-17.807-63.848 2.955-63.848 2.203-63.848 1.37-63.848-4.043-63.848 1.95-63.848 2.204-63.848 3.613Z" class="highcharts-area" data-z-index="0"/><path fill="none" d="m5.108 137.358 63.848-2.732 63.848-1.346 63.848-1.92 63.848 4.822 63.848 1.722 63.848-1.651 63.848.476 63.848 17.854" class="highcharts-graph" data-z-index="1" stroke="#666" stroke-linejoin="round" stroke-linecap="round"/><path fill="none" d="m5.108 137.358 63.848-2.732 63.848-1.346 63.848-1.92 63.848 4.822 63.848 1.722 63.848-1.651 63.848.476 63.848 17.854" data-z-index="2" class="highcharts-tracker-line" stroke-linecap="round" stroke-linejoin="round" stroke="rgba(192,192,192,0.0001)" stroke-width="21"/></g><g class="highcharts-markers highcharts-series-1 highcharts-area-series highcharts-color-1 highcharts-tracker" data-z-index=".1" aria-hidden="false" tabindex="-1" aria-label="Households, series 2 of 5 with 9 data points." style="outline:0" fill="#434348" stroke="#666"><path d="m5 133 4 4-4 4-4-4Z" class="highcharts-point highcharts-color-1" tabindex="-1" aria-label="x, 2012, 6,685. Households." style="outline:0" transform="translate(69 61)"/><path d="m68 131 4 4-4 4-4-4Z" class="highcharts-point highcharts-color-1" tabindex="-1" aria-label="x, 2013, 6,535. Households." style="outline:0" transform="translate(69 61)"/><path d="m132 129 4 4-4 4-4-4Z" class="highcharts-point highcharts-color-1" tabindex="-1" aria-label="x, 2014, 6,389. Households." style="outline:0" transform="translate(69 61)"/><path d="m196 127 4 4-4 4-4-4Z" class="highcharts-point highcharts-color-1" tabindex="-1" aria-label="x, 2015, 6,384. Households." style="outline:0" transform="translate(69 61)"/><path d="m260 132 4 4-4 4-4-4Z" class="highcharts-point highcharts-color-1" tabindex="-1" aria-label="x, 2016, 6,251. Households." style="outline:0" transform="translate(69 61)"/><path d="m324 134 4 4-4 4-4-4Z" class="highcharts-point highcharts-color-1" tabindex="-1" aria-label="x, 2017, 5,725. Households." style="outline:0" transform="translate(69 61)"/><path d="m388 132 4 4-4 4-4-4Z" class="highcharts-point highcharts-color-1" tabindex="-1" aria-label="x, 2018, 5,631. Households." style="outline:0" transform="translate(69 61)"/><path d="m452 133 4 4-4 4-4-4Z" class="highcharts-point highcharts-color-1" tabindex="-1" aria-label="x, 2019, 5,047. Households." style="outline:0" transform="translate(69 61)"/><path d="m515 151 4 4-4 4-4-4Z" class="highcharts-point highcharts-color-1" tabindex="-1" aria-label="x, 2020, 5,039. Households." style="outline:0" transform="translate(69 61)"/></g><g class="highcharts-series highcharts-series-2 highcharts-area-series highcharts-color-2" data-z-index=".1" clip-path="url(#a)" aria-hidden="true" transform="translate(69 61)"><path fill="rgba(144,237,125,0.75)" d="m5.108 176.632 63.848-3.613 63.848-2.203 63.848-1.95 63.848 4.041 63.848-1.369 63.848-2.203 63.848-2.955 63.848 17.807v28.864l-63.848-17.819-63.848 3.16-63.848 2.38-63.848 1.545-63.848-4.518-63.848 1.669-63.848 1.868-63.848 3.214Z" class="highcharts-area" data-z-index="0"/><path fill="none" d="m5.108 176.632 63.848-3.613 63.848-2.203 63.848-1.95 63.848 4.041 63.848-1.369 63.848-2.203 63.848-2.955 63.848 17.807" class="highcharts-graph" data-z-index="1" stroke="#666" stroke-linejoin="round" stroke-linecap="round"/><path fill="none" d="m5.108 176.632 63.848-3.613 63.848-2.203 63.848-1.95 63.848 4.041 63.848-1.369 63.848-2.203 63.848-2.955 63.848 17.807" data-z-index="2" class="highcharts-tracker-line" stroke-linecap="round" stroke-linejoin="round" stroke="rgba(192,192,192,0.0001)" stroke-width="21"/></g><g class="highcharts-markers highcharts-series-2 highcharts-area-series highcharts-color-2 highcharts-tracker" data-z-index=".1" aria-hidden="false" tabindex="-1" aria-label="Agriculture and hunting, series 3 of 5 with 9 data points." style="outline:0" fill="#90ed7d" stroke="#666"><path d="M1 173h8v8H1Z" class="highcharts-point highcharts-color-2" tabindex="-1" aria-label="x, 2012, 4,752. Agriculture and hunting." style="outline:0" transform="translate(69 61)"/><path d="M64 169h8v8h-8Z" class="highcharts-point highcharts-color-2" tabindex="-1" aria-label="x, 2013, 4,820. Agriculture and hunting." style="outline:0" transform="translate(69 61)"/><path d="M128 167h8v8h-8Z" class="highcharts-point highcharts-color-2" tabindex="-1" aria-label="x, 2014, 4,877. Agriculture and hunting." style="outline:0" transform="translate(69 61)"/><path d="M192 165h8v8h-8Z" class="highcharts-point highcharts-color-2" tabindex="-1" aria-label="x, 2015, 4,925. Agriculture and hunting." style="outline:0" transform="translate(69 61)"/><path d="M256 169h8v8h-8Z" class="highcharts-point highcharts-color-2" tabindex="-1" aria-label="x, 2016, 5,006. Agriculture and hunting." style="outline:0" transform="translate(69 61)"/><path d="M320 168h8v8h-8Z" class="highcharts-point highcharts-color-2" tabindex="-1" aria-label="x, 2017, 4,976. Agriculture and hunting." style="outline:0" transform="translate(69 61)"/><path d="M384 165h8v8h-8Z" class="highcharts-point highcharts-color-2" tabindex="-1" aria-label="x, 2018, 4,946. Agriculture and hunting." style="outline:0" transform="translate(69 61)"/><path d="M448 162h8v8h-8Z" class="highcharts-point highcharts-color-2" tabindex="-1" aria-label="x, 2019, 4,911. Agriculture and hunting." style="outline:0" transform="translate(69 61)"/><path d="M511 180h8v8h-8Z" class="highcharts-point highcharts-color-2" tabindex="-1" aria-label="x, 2020, 4,913. Agriculture and hunting." style="outline:0" transform="translate(69 61)"/></g><g class="highcharts-series highcharts-series-3 highcharts-area-series highcharts-color-3" data-z-index=".1" clip-path="url(#a)" aria-hidden="true" transform="translate(69 61)"><path fill="rgba(247,163,92,0.75)" d="m5.108 204.55 63.848-3.214 63.848-1.868 63.848-1.668 63.848 4.517 63.848-1.545 63.848-2.38 63.848-3.16 63.848 17.819v9.106l-63.848.059-63.848-.987-63.848.511-63.848.482-63.848-.247-63.848.394-63.848-.23-63.848 1Z" class="highcharts-area" data-z-index="0"/><path fill="none" d="m5.108 204.55 63.848-3.214 63.848-1.868 63.848-1.668 63.848 4.517 63.848-1.545 63.848-2.38 63.848-3.16 63.848 17.819" class="highcharts-graph" data-z-index="1" stroke="#666" stroke-linejoin="round" stroke-linecap="round"/><path fill="none" d="m5.108 204.55 63.848-3.214 63.848-1.868 63.848-1.668 63.848 4.517 63.848-1.545 63.848-2.38 63.848-3.16 63.848 17.819" data-z-index="2" class="highcharts-tracker-line" stroke-linecap="round" stroke-linejoin="round" stroke="rgba(192,192,192,0.0001)" stroke-width="21"/></g><g class="highcharts-markers highcharts-series-3 highcharts-area-series highcharts-color-3 highcharts-tracker" data-z-index=".1" aria-hidden="false" tabindex="-1" aria-label="Air transport, series 4 of 5 with 9 data points." style="outline:0" fill="#f7a35c" stroke="#666"><path d="m5 201 4 8H1Z" class="highcharts-point highcharts-color-3" tabindex="-1" aria-label="x, 2012, 3,164. Air transport." style="outline:0" transform="translate(69 61)"/><path d="m68 197 4 8h-8Z" class="highcharts-point highcharts-color-3" tabindex="-1" aria-label="x, 2013, 3,541. Air transport." style="outline:0" transform="translate(69 61)"/><path d="m132 195 4 8h-8Z" class="highcharts-point highcharts-color-3" tabindex="-1" aria-label="x, 2014, 3,898. Air transport." style="outline:0" transform="translate(69 61)"/><path d="m196 194 4 8h-8Z" class="highcharts-point highcharts-color-3" tabindex="-1" aria-label="x, 2015, 4,115. Air transport." style="outline:0" transform="translate(69 61)"/><path d="m260 198 4 8h-8Z" class="highcharts-point highcharts-color-3" tabindex="-1" aria-label="x, 2016, 3,388. Air transport." style="outline:0" transform="translate(69 61)"/><path d="m324 197 4 8h-8Z" class="highcharts-point highcharts-color-3" tabindex="-1" aria-label="x, 2017, 3,569. Air transport." style="outline:0" transform="translate(69 61)"/><path d="m388 194 4 8h-8Z" class="highcharts-point highcharts-color-3" tabindex="-1" aria-label="x, 2018, 3,887. Air transport." style="outline:0" transform="translate(69 61)"/><path d="m452 191 4 8h-8Z" class="highcharts-point highcharts-color-3" tabindex="-1" aria-label="x, 2019, 4,593. Air transport." style="outline:0" transform="translate(69 61)"/><path d="m515 209 4 8h-8Z" class="highcharts-point highcharts-color-3" tabindex="-1" aria-label="x, 2020, 1,550. Air transport." style="outline:0" transform="translate(69 61)"/></g><g class="highcharts-series highcharts-series-4 highcharts-area-series highcharts-color-4" data-z-index=".1" clip-path="url(#a)" aria-hidden="true" transform="translate(69 61)"><path fill="rgba(128,133,233,0.75)" d="m5.108 223.138 63.848-.998 63.848.229 63.848-.394 63.848.247 63.848-.482 63.848-.511 63.848.987 63.848-.059V235H5.108Z" class="highcharts-area" data-z-index="0"/><path fill="none" d="m5.108 223.138 63.848-.998 63.848.229 63.848-.394 63.848.247 63.848-.482 63.848-.511 63.848.987 63.848-.059" class="highcharts-graph" data-z-index="1" stroke="#666" stroke-linejoin="round" stroke-linecap="round"/><path fill="none" d="m5.108 223.138 63.848-.998 63.848.229 63.848-.394 63.848.247 63.848-.482 63.848-.511 63.848.987 63.848-.059" data-z-index="2" class="highcharts-tracker-line" stroke-linecap="round" stroke-linejoin="round" stroke="rgba(192,192,192,0.0001)" stroke-width="21"/></g><g class="highcharts-markers highcharts-series-4 highcharts-area-series highcharts-color-4 highcharts-tracker" data-z-index=".1" aria-hidden="false" tabindex="-1" aria-label="Construction, series 5 of 5 with 9 data points." style="outline:0" fill="#8085e9" stroke="#666"><path d="M1 219h8l-4 8Z" class="highcharts-point highcharts-color-4" tabindex="-1" aria-label="x, 2012, 2,019. Construction." style="outline:0" transform="translate(69 61)"/><path d="M64 218h8l-4 8Z" class="highcharts-point highcharts-color-4" tabindex="-1" aria-label="x, 2013, 2,189. Construction." style="outline:0" transform="translate(69 61)"/><path d="M128 218h8l-4 8Z" class="highcharts-point highcharts-color-4" tabindex="-1" aria-label="x, 2014, 2,150. Construction." style="outline:0" transform="translate(69 61)"/><path d="M192 218h8l-4 8Z" class="highcharts-point highcharts-color-4" tabindex="-1" aria-label="x, 2015, 2,217. Construction." style="outline:0" transform="translate(69 61)"/><path d="M256 218h8l-4 8Z" class="highcharts-point highcharts-color-4" tabindex="-1" aria-label="x, 2016, 2,175. Construction." style="outline:0" transform="translate(69 61)"/><path d="M320 218h8l-4 8Z" class="highcharts-point highcharts-color-4" tabindex="-1" aria-label="x, 2017, 2,257. Construction." style="outline:0" transform="translate(69 61)"/><path d="M384 217h8l-4 8Z" class="highcharts-point highcharts-color-4" tabindex="-1" aria-label="x, 2018, 2,344. Construction." style="outline:0" transform="translate(69 61)"/><path d="M448 218h8l-4 8Z" class="highcharts-point highcharts-color-4" tabindex="-1" aria-label="x, 2019, 2,176. Construction." style="outline:0" transform="translate(69 61)"/><path d="M511 218h8l-4 8Z" class="highcharts-point highcharts-color-4" tabindex="-1" aria-label="x, 2020, 2,186. Construction." style="outline:0" transform="translate(69 61)"/></g></g><text x="300" text-anchor="middle" class="highcharts-title" data-z-index="4" style="color:#333;font-size:18px;fill:#333" y="24" aria-hidden="true">Greenhouse gases from Norwegian economic activity</text><text x="300" text-anchor="middle" class="highcharts-subtitle" data-z-index="4" style="color:#666;fill:#666" y="46" aria-hidden="true">Source: <a target="_blank"><tspan>SSB</tspan></a></text><g class="highcharts-legend highcharts-no-tooltip" data-z-index="7" transform="translate(112 329)" aria-hidden="true"><rect fill="none" class="highcharts-legend-box" rx="0" ry="0" width="375" height="56"/><g data-z-index="1"><g class="highcharts-legend-item highcharts-area-series highcharts-color-0 highcharts-series-0" data-z-index="1" transform="translate(8 3)"><text x="21" data-z-index="2" y="15" style="color:#333;cursor:pointer;font-size:12px;font-weight:700;fill:#333">Ocean transport</text><rect x="2" y="4" width="12" height="12" fill="#7cb5ec" rx="6" ry="6" class="highcharts-point" data-z-index="3"/></g><g class="highcharts-legend-item highcharts-area-series highcharts-color-1 highcharts-series-1" data-z-index="1" transform="translate(197.516 3)"><text x="21" y="15" data-z-index="2" style="color:#333;cursor:pointer;font-size:12px;font-weight:700;fill:#333">Households</text><rect x="2" y="4" width="12" height="12" fill="#434348" rx="6" ry="6" class="highcharts-point" data-z-index="3"/></g><g class="highcharts-legend-item highcharts-area-series highcharts-color-2 highcharts-series-2" data-z-index="1" transform="translate(8 18)"><text x="21" y="15" data-z-index="2" style="color:#333;cursor:pointer;font-size:12px;font-weight:700;fill:#333">Agriculture and hunting</text><rect x="2" y="4" width="12" height="12" fill="#90ed7d" rx="6" ry="6" class="highcharts-point" data-z-index="3"/></g><g class="highcharts-legend-item highcharts-area-series highcharts-color-3 highcharts-series-3" data-z-index="1" transform="translate(197.516 18)"><text x="21" y="15" data-z-index="2" style="color:#333;cursor:pointer;font-size:12px;font-weight:700;fill:#333">Air transport</text><rect x="2" y="4" width="12" height="12" fill="#f7a35c" rx="6" ry="6" class="highcharts-point" data-z-index="3"/></g><g class="highcharts-legend-item highcharts-area-series highcharts-color-4 highcharts-series-4" data-z-index="1" transform="translate(8 33)"><text x="21" y="15" data-z-index="2" style="color:#333;cursor:pointer;font-size:12px;font-weight:700;fill:#333">Construction</text><rect x="2" y="4" width="12" height="12" fill="#8085e9" rx="6" ry="6" class="highcharts-point" data-z-index="3"/></g></g></g><g class="highcharts-axis-labels highcharts-xaxis-labels" data-z-index="7" aria-hidden="true" text-anchor="middle"><text x="74.108" style="color:#666;cursor:default;font-size:11px;fill:#666" y="315">2012</text><text x="201.804" style="color:#666;cursor:default;font-size:11px;fill:#666" y="315">2014</text><text x="329.5" style="color:#666;cursor:default;font-size:11px;fill:#666" y="315">2016</text><text x="457.196" style="color:#666;cursor:default;font-size:11px;fill:#666" y="315">2018</text><text x="576.086" style="color:#666;cursor:default;font-size:11px;fill:#666" y="315">2020</text></g><g class="highcharts-axis-labels highcharts-yaxis-labels" data-z-index="7" aria-hidden="true" text-anchor="end"><text x="54" style="color:#666;cursor:default;font-size:11px;fill:#666" y="301">0</text><text x="54" style="color:#666;cursor:default;font-size:11px;fill:#666" y="242">10k</text><text x="54" style="color:#666;cursor:default;font-size:11px;fill:#666" y="183">20k</text><text x="54" style="color:#666;cursor:default;font-size:11px;fill:#666" y="124">30k</text><text x="54" style="color:#666;cursor:default;font-size:11px;fill:#666" y="66">40k</text></g></svg>