<svg class="highcharts-root" style="font-family:&quot;Lucida Grande&quot;,&quot;Lucida Sans Unicode&quot;,Arial,Helvetica,sans-serif;font-size:12px" xmlns="http://www.w3.org/2000/svg" width="600" height="420" aria-label="Interactive chart" aria-hidden="false"><defs aria-hidden="true"><clipPath id="a"><path fill="none" d="M0 0h537v285H0z"/></clipPath></defs><rect fill="#fff" class="highcharts-background" width="600" height="420" rx="0" ry="0" aria-hidden="true"/><path fill="none" class="highcharts-plot-background" aria-hidden="true" d="M53 61h537v285H53z"/><g class="highcharts-grid highcharts-xaxis-grid" data-z-index="1" aria-hidden="true" fill="none"><path data-z-index="1" class="highcharts-grid-line" d="M57.5 61v285m85-285v285m85-285v285m85-285v285m85-285v285m85-285v285m85-285v285"/></g><g class="highcharts-grid highcharts-yaxis-grid" data-z-index="1" aria-hidden="true" fill="none" stroke="#e6e6e6"><path data-z-index="1" class="highcharts-grid-line" d="M53 346.5h537m-537-71h537m-537-71h537m-537-72h537m-537-72h537"/></g><path fill="none" class="highcharts-plot-border" data-z-index="1" aria-hidden="true" d="M53 61h537v285H53z"/><g class="highcharts-axis highcharts-xaxis" data-z-index="2" aria-hidden="true" fill="none" stroke="#ccd6eb"><path class="highcharts-tick" d="M57.5 346v10m85-10v10m85-10v10m85-10v10m85-10v10m85-10v10m85-10v10"/><path class="highcharts-axis-line" data-z-index="7" d="M53 346.5h537"/></g><g class="highcharts-axis highcharts-yaxis" data-z-index="2" aria-hidden="true"><path fill="none" class="highcharts-axis-line" data-z-index="7" d="M53 61v285"/></g><g class="highcharts-series-group" data-z-index="3" aria-hidden="false"><g class="highcharts-series highcharts-series-0 highcharts-area-series highcharts-color-0" data-z-index=".1" clip-path="url(#a)" aria-hidden="true" transform="translate(53 61)"><path fill="rgba(124,181,236,0.75)" d="M5.265 0h526.47v145.845l-16.983 3.64-16.983-8.992-16.982-2.676-16.983-.851-16.983-1.451-16.983.068-16.983 2.098h-16.983l-16.983-.77-16.983-2.21-16.983-8.36-16.983-3.308-16.983-7.492-16.983-5.926-16.983-4.36-16.982-5.758-16.983-8.016-16.983-7.657-16.983-7.169-16.983-5.91-16.983-1.53-16.983 1.002-16.983 1.033-16.983 1.033-16.983 1.063-16.983.063-16.983-4.386-16.983-2.903-16.982-3.559-16.983-1.321-16.983-2.356Z" class="highcharts-area" data-z-index="0"/><path fill="none" d="M5.265 0h526.47" class="highcharts-graph" data-z-index="1" stroke="#7cb5ec" stroke-width="2" stroke-linejoin="round" stroke-linecap="round"/><path fill="none" d="M5.265 0h526.47" data-z-index="2" class="highcharts-tracker-line" stroke-linecap="round" stroke-linejoin="round" stroke="rgba(192,192,192,0.0001)" stroke-width="22"/></g><g class="highcharts-series highcharts-series-1 highcharts-area-series highcharts-color-1" data-z-index=".1" clip-path="url(#a)" aria-hidden="true" transform="translate(53 61)"><path fill="rgba(67,67,72,0.75)" d="m5.265 58.884 16.983 2.356 16.982 1.32 16.982 3.559 16.983 2.903L90.18 73.41l16.983-.063 16.983-1.063 16.983-1.033 16.983-1.033 16.983-1.003 16.983 1.53 16.983 5.911 16.983 7.169 16.983 7.657 16.983 8.016 16.982 5.759 16.983 4.36 16.983 5.925 16.983 7.492 16.983 3.307 16.983 8.361 16.983 2.21 16.983.77h16.983l16.983-2.098 16.983-.068 16.983 1.451 16.983.85 16.982 2.677 16.983 8.992 16.983-3.64v66.901l-16.983 2.401-16.983-3.739-16.982-1.338-16.983-1.162-16.983-.746-16.983 2.13-16.983 3.114h-16.983l-16.983-2.45-16.983 1.73-16.983-2.609-16.983-1.388-16.983-2.257-16.983-1.295-16.983-1.103-16.982-1.667-16.983-3.57-16.983-3.209-16.983-2.967L192.077 190l-16.983 1.357L158.11 190l-16.983.699-16.983-.699-16.983.699L90.18 190l-16.983-.742-16.983-2.298-16.982-3.911-16.983-1.685-16.983-2.356Z" class="highcharts-area" data-z-index="0"/><path fill="none" d="m5.265 58.884 16.983 2.356 16.982 1.32 16.982 3.559 16.983 2.903L90.18 73.41l16.983-.063 16.983-1.063 16.983-1.033 16.983-1.033 16.983-1.003 16.983 1.53 16.983 5.911 16.983 7.169 16.983 7.657 16.983 8.016 16.982 5.759 16.983 4.36 16.983 5.925 16.983 7.492 16.983 3.307 16.983 8.361 16.983 2.21 16.983.77h16.983l16.983-2.098 16.983-.068 16.983 1.451 16.983.85 16.982 2.677 16.983 8.992 16.983-3.64" class="highcharts-graph" data-z-index="1" stroke="#434348" stroke-width="2" stroke-linejoin="round" stroke-linecap="round"/><path fill="none" d="m5.265 58.884 16.983 2.356 16.982 1.32 16.982 3.559 16.983 2.903L90.18 73.41l16.983-.063 16.983-1.063 16.983-1.033 16.983-1.033 16.983-1.003 16.983 1.53 16.983 5.911 16.983 7.169 16.983 7.657 16.983 8.016 16.982 5.759 16.983 4.36 16.983 5.925 16.983 7.492 16.983 3.307 16.983 8.361 16.983 2.21 16.983.77h16.983l16.983-2.098 16.983-.068 16.983 1.451 16.983.85 16.982 2.677 16.983 8.992 16.983-3.64" data-z-index="2" class="highcharts-tracker-line" stroke-linecap="round" stroke-linejoin="round" stroke="rgba(192,192,192,0.0001)" stroke-width="22"/></g><g class="highcharts-series highcharts-series-2 highcharts-area-series highcharts-color-2" data-z-index=".1" clip-path="url(#a)" aria-hidden="true" transform="translate(53 61)"><path fill="rgba(144,237,125,0.75)" d="m5.265 179.008 16.983 2.356 16.983 1.685 16.982 3.911 16.983 2.298L90.18 190l16.983.699 16.983-.699 16.983.699 16.983-.699 16.983 1.357L192.077 190l16.983 2.62 16.983 2.968 16.983 3.208 16.983 3.57 16.982 1.668 16.983 1.103 16.983 1.295 16.983 2.257 16.983 1.388 16.983 2.61 16.983-1.731 16.983 2.45h16.983l16.983-3.115 16.983-2.13 16.983.747 16.983 1.162 16.982 1.338 16.983 3.74 16.983-2.402v36.127l-16.983 2.598-16.983-1.26h-16.982l-16.983 1.585-16.983-.325-16.983 1.709-16.983 1.53-16.983 2.754-16.983-.405-16.983 2.419-16.983.548-16.983.056-16.983 1.81-16.983 1.185-16.983.872-16.982.814-16.983.885-16.983-1.138-16.983.835-16.983-.558-16.983-.144-16.983-.295-16.983 1.792-16.983.273-16.983 1.822-16.983-.508-16.983 1.687-16.983-.374-16.982-.26-16.983 2.088H5.265Z" class="highcharts-area" data-z-index="0"/><path fill="none" d="m5.265 179.008 16.983 2.356 16.983 1.685 16.982 3.911 16.983 2.298L90.18 190l16.983.699 16.983-.699 16.983.699 16.983-.699 16.983 1.357L192.077 190l16.983 2.62 16.983 2.968 16.983 3.208 16.983 3.57 16.982 1.668 16.983 1.103 16.983 1.295 16.983 2.257 16.983 1.388 16.983 2.61 16.983-1.731 16.983 2.45h16.983l16.983-3.115 16.983-2.13 16.983.747 16.983 1.162 16.982 1.338 16.983 3.74 16.983-2.402" class="highcharts-graph" data-z-index="1" stroke="#90ed7d" stroke-width="2" stroke-linejoin="round" stroke-linecap="round"/><path fill="none" d="m5.265 179.008 16.983 2.356 16.983 1.685 16.982 3.911 16.983 2.298L90.18 190l16.983.699 16.983-.699 16.983.699 16.983-.699 16.983 1.357L192.077 190l16.983 2.62 16.983 2.968 16.983 3.208 16.983 3.57 16.982 1.668 16.983 1.103 16.983 1.295 16.983 2.257 16.983 1.388 16.983 2.61 16.983-1.731 16.983 2.45h16.983l16.983-3.115 16.983-2.13 16.983.747 16.983 1.162 16.982 1.338 16.983 3.74 16.983-2.402" data-z-index="2" class="highcharts-tracker-line" stroke-linecap="round" stroke-linejoin="round" stroke="rgba(192,192,192,0.0001)" stroke-width="22"/></g><g class="highcharts-series highcharts-series-3 highcharts-area-series highcharts-color-3" data-z-index=".1" clip-path="url(#a)" aria-hidden="true" transform="translate(53 61)"><path fill="rgba(247,163,92,0.75)" d="M5.265 270.868h16.983l16.983-2.088 16.982.26 16.983.374 16.983-1.687 16.983.508 16.983-1.822 16.983-.273 16.983-1.792 16.983.295 16.983.144 16.983.558 16.983-.835 16.983 1.138 16.983-.885 16.982-.814 16.983-.872 16.983-1.185 16.983-1.81 16.983-.056 16.983-.548 16.983-2.42 16.983.406 16.983-2.754 16.983-1.53 16.983-1.71 16.983.326 16.983-1.585h16.982l16.983 1.26 16.983-2.598V285H5.265Z" class="highcharts-area" data-z-index="0"/><path fill="none" d="M5.265 270.868h16.983l16.983-2.088 16.982.26 16.983.374 16.983-1.687 16.983.508 16.983-1.822 16.983-.273 16.983-1.792 16.983.295 16.983.144 16.983.558 16.983-.835 16.983 1.138 16.983-.885 16.982-.814 16.983-.872 16.983-1.185 16.983-1.81 16.983-.056 16.983-.548 16.983-2.42 16.983.406 16.983-2.754 16.983-1.53 16.983-1.71 16.983.326 16.983-1.585h16.982l16.983 1.26 16.983-2.598" class="highcharts-graph" data-z-index="1" stroke="#f7a35c" stroke-width="2" stroke-linejoin="round" stroke-linecap="round"/><path fill="none" d="M5.265 270.868h16.983l16.983-2.088 16.982.26 16.983.374 16.983-1.687 16.983.508 16.983-1.822 16.983-.273 16.983-1.792 16.983.295 16.983.144 16.983.558 16.983-.835 16.983 1.138 16.983-.885 16.982-.814 16.983-.872 16.983-1.185 16.983-1.81 16.983-.056 16.983-.548 16.983-2.42 16.983.406 16.983-2.754 16.983-1.53 16.983-1.71 16.983.326 16.983-1.585h16.982l16.983 1.26 16.983-2.598" data-z-index="2" class="highcharts-tracker-line" stroke-linecap="round" stroke-linejoin="round" stroke="rgba(192,192,192,0.0001)" stroke-width="22"/></g></g><g data-z-index="3" aria-hidden="true"><text data-z-index="1" y="12" style="color:#000;font-weight:700;fill:#000" transform="translate(533 124)" class="highcharts-label highcharts-series-label highcharts-series-label-0 highcharts-color-0">China</text></g><g data-z-index="3" aria-hidden="true"><text data-z-index="1" y="12" style="color:#fff;font-weight:700;fill:#fff" transform="translate(216 184)" class="highcharts-label highcharts-series-label highcharts-series-label-1 highcharts-color-1">USA</text></g><g data-z-index="3" aria-hidden="true"><text data-z-index="1" y="12" style="color:#000;font-weight:700;fill:#000" transform="translate(59 280)" class="highcharts-label highcharts-series-label highcharts-series-label-2 highcharts-color-2">EU</text></g><g data-z-index="3" aria-hidden="true"><text data-z-index="1" y="12" style="color:#000;font-weight:700;fill:#000" transform="translate(535 322)" class="highcharts-label highcharts-series-label highcharts-series-label-3 highcharts-color-3">India</text></g><text x="300" text-anchor="middle" class="highcharts-title" data-z-index="4" style="color:#333;font-size:18px;fill:#333" y="24" aria-hidden="true">Countries/regions with highest Gt CO<tspan>2</tspan>-emissions</text><text x="300" text-anchor="middle" class="highcharts-subtitle" data-z-index="4" style="color:#666;fill:#666" y="46" aria-hidden="true">Source: <a target="_blank"><tspan>Energi og Klima</tspan></a></text><g class="highcharts-legend highcharts-no-tooltip" data-z-index="7" transform="translate(167 379)" aria-hidden="true"><rect fill="none" class="highcharts-legend-box" rx="0" ry="0" width="266" height="26"/><g data-z-index="1"><g class="highcharts-legend-item highcharts-area-series highcharts-color-0 highcharts-series-0" data-z-index="1" transform="translate(8 3)"><text x="21" data-z-index="2" y="15" style="color:#333;cursor:pointer;font-size:12px;font-weight:700;fill:#333">China</text><rect x="2" y="4" width="12" height="12" fill="#7cb5ec" rx="6" ry="6" class="highcharts-point" data-z-index="3"/></g><g class="highcharts-legend-item highcharts-area-series highcharts-color-1 highcharts-series-1" data-z-index="1" transform="translate(84.273 3)"><text x="21" y="15" data-z-index="2" style="color:#333;cursor:pointer;font-size:12px;font-weight:700;fill:#333">USA</text><rect x="2" y="4" width="12" height="12" fill="#434348" rx="6" ry="6" class="highcharts-point" data-z-index="3"/></g><g class="highcharts-legend-item highcharts-area-series highcharts-color-2 highcharts-series-2" data-z-index="1" transform="translate(149.805 3)"><text x="21" y="15" data-z-index="2" style="color:#333;cursor:pointer;font-size:12px;font-weight:700;fill:#333">EU</text><rect x="2" y="4" width="12" height="12" fill="#90ed7d" rx="6" ry="6" class="highcharts-point" data-z-index="3"/></g><g class="highcharts-legend-item highcharts-area-series highcharts-color-3 highcharts-series-3" data-z-index="1" transform="translate(206.852 3)"><text x="21" y="15" data-z-index="2" style="color:#333;cursor:pointer;font-size:12px;font-weight:700;fill:#333">India</text><rect x="2" y="4" width="12" height="12" fill="#f7a35c" rx="6" ry="6" class="highcharts-point" data-z-index="3"/></g></g></g><g class="highcharts-axis-labels highcharts-xaxis-labels" data-z-index="7" aria-hidden="true" text-anchor="middle"><text x="58.265" style="color:#666;cursor:default;font-size:11px;fill:#666" y="365">1990</text><text x="143.179" style="color:#666;cursor:default;font-size:11px;fill:#666" y="365">1995</text><text x="228.094" style="color:#666;cursor:default;font-size:11px;fill:#666" y="365">2000</text><text x="313.009" style="color:#666;cursor:default;font-size:11px;fill:#666" y="365">2005</text><text x="397.923" style="color:#666;cursor:default;font-size:11px;fill:#666" y="365">2010</text><text x="482.838" style="color:#666;cursor:default;font-size:11px;fill:#666" y="365">2015</text><text x="567.752" style="color:#666;cursor:default;font-size:11px;fill:#666" y="365">2020</text></g><g class="highcharts-axis-labels highcharts-yaxis-labels" data-z-index="7" aria-hidden="true" text-anchor="end"><text x="38" style="color:#666;cursor:default;font-size:11px;fill:#666" y="351">0%</text><text x="38" style="color:#666;cursor:default;font-size:11px;fill:#666" y="279">25%</text><text x="38" style="color:#666;cursor:default;font-size:11px;fill:#666" y="208">50%</text><text x="38" style="color:#666;cursor:default;font-size:11px;fill:#666" y="137">75%</text><text x="38" style="color:#666;cursor:default;font-size:11px;fill:#666" y="66">100%</text></g></svg>