<svg class="highcharts-root" style="font-family:&quot;Lucida Grande&quot;,&quot;Lucida Sans Unicode&quot;,Arial,Helvetica,sans-serif;font-size:12px" xmlns="http://www.w3.org/2000/svg" width="600" height="400" aria-label="Interactive chart" aria-hidden="false"><defs aria-hidden="true"><clipPath id="a"><path fill="none" d="M0 0h505v284H0z"/></clipPath></defs><rect fill="#fff" class="highcharts-background" width="600" height="400" rx="0" ry="0" aria-hidden="true"/><path fill="none" class="highcharts-plot-background" aria-hidden="true" d="M85 61h505v284H85z"/><g class="highcharts-grid highcharts-xaxis-grid" data-z-index="1" aria-hidden="true" fill="none" stroke="#e6e6e6"><path data-z-index="1" class="highcharts-grid-line" d="M129.5 61v284m73-284v284m74-284v284m74-284v284m74-284v284m73-284v284m74-284v284"/></g><g class="highcharts-grid highcharts-yaxis-grid" data-z-index="1" aria-hidden="true" fill="none" stroke="#e6e6e6"><path data-z-index="1" class="highcharts-grid-line" d="M85 267.5h505m-505-91h505m-505-91h505"/></g><path fill="none" class="highcharts-plot-border" data-z-index="1" stroke="#ccc" aria-hidden="true" d="M84.5 60.5h506v285h-506z"/><g class="highcharts-axis highcharts-xaxis" data-z-index="2" aria-hidden="true"><path fill="none" class="highcharts-tick" stroke="#ccd6eb" d="M129.5 345v10m73-10v10m74-10v10m74-10v10m74-10v10m73-10v10m74-10v10"/><text x="337.5" data-z-index="7" text-anchor="middle" class="highcharts-axis-title" style="color:#666;fill:#666" y="383">Daily fat intake</text><path fill="none" class="highcharts-axis-line" stroke="#ccd6eb" data-z-index="7" d="M85 345.5h505"/></g><g class="highcharts-axis highcharts-yaxis" data-z-index="2" aria-hidden="true"><text x="24.289" data-z-index="7" text-anchor="middle" transform="rotate(-90 24.29 203)" class="highcharts-axis-title" style="color:#666;fill:#666" y="203">Daily sugar intake</text><path fill="none" class="highcharts-axis-line" data-z-index="7" d="M85 61v284"/></g><g class="highcharts-plot-lines-3" data-z-index="3" aria-hidden="true"><path fill="none" class="highcharts-plot-line" stroke="#000" stroke-width="2" stroke-dasharray="2,6" d="M130 61v284"/></g><text x="134" class="highcharts-plot-line-label" data-z-index="3" y="76" style="font-style:italic" aria-hidden="true">Safe fat intake 65g/day</text><g class="highcharts-plot-lines-3" data-z-index="3" aria-hidden="true"><path fill="none" class="highcharts-plot-line" stroke="#000" stroke-width="2" stroke-dasharray="2,6" d="M85 267h505"/></g><text x="580" text-anchor="end" class="highcharts-plot-line-label" data-z-index="3" y="263" style="font-style:italic" aria-hidden="true">Safe sugar intake 50g/day</text><g class="highcharts-series-group" data-z-index="3" aria-hidden="false"><g class="highcharts-series highcharts-series-0 highcharts-bubble-series highcharts-color-0 highcharts-tracker" data-z-index=".1" clip-path="url(#a)" aria-hidden="false" fill="rgba(124,181,236,0.5)" stroke="#7cb5ec" transform="translate(85 61)"><path d="M486.5 138a13.5 13.5 0 1 1 .013 0Z" class="highcharts-point highcharts-color-0" tabindex="-1" aria-label="1. BE, fat: 95g, sugar: 95g, obesity: 13.8%." style="outline:0"/><path d="M361 125a15 15 0 1 1 .015 0Z" class="highcharts-point highcharts-color-0" tabindex="-1" aria-label="2. DE, fat: 86.5g, sugar: 102.9g, obesity: 14.7%." style="outline:0"/><path d="M277 146a16 16 0 1 1 .016 0Z" class="highcharts-point highcharts-color-0" tabindex="-1" aria-label="3. FI, fat: 80.8g, sugar: 91.5g, obesity: 15.8%." style="outline:0"/><path d="M271 121a11 11 0 1 1 .011 0Z" class="highcharts-point highcharts-color-0" tabindex="-1" aria-label="4. NL, fat: 80.4g, sugar: 102.5g, obesity: 12%." style="outline:0"/><path d="M270 151a11 11 0 1 1 .011 0Z" class="highcharts-point highcharts-color-0" tabindex="-1" aria-label="5. SE, fat: 80.3g, sugar: 86.1g, obesity: 11.8%." style="outline:0"/><path d="M241.5 186a16.5 16.5 0 1 1 .016 0Z" class="highcharts-point highcharts-color-0" tabindex="-1" aria-label="6. ES, fat: 78.4g, sugar: 70.1g, obesity: 16.6%." style="outline:0"/><path d="M179.5 187a14.5 14.5 0 1 1 .014 0Z" class="highcharts-point highcharts-color-0" tabindex="-1" aria-label="7. FR, fat: 74.2g, sugar: 68.5g, obesity: 14.5%." style="outline:0"/><path d="M170 150a4 4 0 1 1 .004 0Z" class="highcharts-point highcharts-color-0" tabindex="-1" aria-label="8. NO, fat: 73.5g, sugar: 83.1g, obesity: 10%." style="outline:0"/><path d="M133 150a23 23 0 1 1 .023 0Z" class="highcharts-point highcharts-color-0" tabindex="-1" aria-label="9. UK, fat: 71g, sugar: 93.2g, obesity: 24.7%." style="outline:0"/><path d="M106.5 200a7.5 7.5 0 1 1 .007 0Z" class="highcharts-point highcharts-color-0" tabindex="-1" aria-label="10. IT, fat: 69.2g, sugar: 57.6g, obesity: 10.4%." style="outline:0"/><path d="M97 277a16 16 0 1 1 .016 0Z" class="highcharts-point highcharts-color-0" tabindex="-1" aria-label="11. RU, fat: 68.6g, sugar: 20g, obesity: 16%." style="outline:0"/><path d="M51.5 96a28.5 28.5 0 1 1 .028 0Z" class="highcharts-point highcharts-color-0" tabindex="-1" aria-label="12. US, fat: 65.5g, sugar: 126.4g, obesity: 35.3%." style="outline:0"/><path d="M50 230a25 25 0 1 1 .025 0Z" class="highcharts-point highcharts-color-0" tabindex="-1" aria-label="13. HU, fat: 65.4g, sugar: 50.8g, obesity: 28.5%." style="outline:0"/><path d="M20.5 218a15.5 15.5 0 1 1 .015 0Z" class="highcharts-point highcharts-color-0" tabindex="-1" aria-label="14. PT, fat: 63.4g, sugar: 51.8g, obesity: 15.4%." style="outline:0"/><path d="M29.5 173a26.5 26.5 0 1 1 .026 0Z" class="highcharts-point highcharts-color-0" tabindex="-1" aria-label="15. NZ, fat: 64g, sugar: 82.9g, obesity: 31.3%." style="outline:0"/></g></g><text x="300" text-anchor="middle" class="highcharts-title" data-z-index="4" style="color:#333;font-size:18px;fill:#333" y="24" aria-hidden="true">Sugar and fat intake per country</text><text x="300" text-anchor="middle" class="highcharts-subtitle" data-z-index="4" style="color:#666;fill:#666" y="46" aria-hidden="true">Source: <a><tspan>Euromonitor</tspan></a> and <a><tspan>OECD</tspan></a></text><g class="highcharts-data-labels highcharts-series-0 highcharts-bubble-series highcharts-color-0 highcharts-tracker" data-z-index="6" aria-hidden="true"><text x="5" data-z-index="1" y="16" style="color:#000;font-size:11px;font-weight:700;fill:#000" transform="translate(560 174)" class="highcharts-label highcharts-data-label highcharts-data-label-color-0"><tspan class="highcharts-text-outline" fill="#FFF" stroke="#FFF" stroke-width="2" stroke-linejoin="round">BE<tspan x="5" dy="0">​</tspan></tspan>BE</text><text x="5" data-z-index="1" y="16" style="color:#000;font-size:11px;font-weight:700;fill:#000" transform="translate(434 159)" class="highcharts-label highcharts-data-label highcharts-data-label-color-0"><tspan class="highcharts-text-outline" fill="#FFF" stroke="#FFF" stroke-width="2" stroke-linejoin="round">DE<tspan x="5" dy="0">​</tspan></tspan>DE</text><text x="5" data-z-index="1" y="16" style="color:#000;font-size:11px;font-weight:700;fill:#000" transform="translate(353 180)" class="highcharts-label highcharts-data-label highcharts-data-label-color-0"><tspan class="highcharts-text-outline" fill="#FFF" stroke="#FFF" stroke-width="2" stroke-linejoin="round">FI<tspan x="5" dy="0">​</tspan></tspan>FI</text><text x="5" data-z-index="1" y="16" style="color:#000;font-size:11px;font-weight:700;fill:#000" transform="translate(344 160)" class="highcharts-label highcharts-data-label highcharts-data-label-color-0"><tspan class="highcharts-text-outline" fill="#FFF" stroke="#FFF" stroke-width="2" stroke-linejoin="round">NL<tspan x="5" dy="0">​</tspan></tspan>NL</text><text x="5" data-z-index="1" y="16" style="color:#000;font-size:11px;font-weight:700;fill:#000" transform="translate(316 219)" class="highcharts-label highcharts-data-label highcharts-data-label-color-0"><tspan class="highcharts-text-outline" fill="#FFF" stroke="#FFF" stroke-width="2" stroke-linejoin="round">ES<tspan x="5" dy="0">​</tspan></tspan>ES</text><text x="5" data-z-index="1" y="16" style="color:#000;font-size:11px;font-weight:700;fill:#000" transform="translate(253 222)" class="highcharts-label highcharts-data-label highcharts-data-label-color-0"><tspan class="highcharts-text-outline" fill="#FFF" stroke="#FFF" stroke-width="2" stroke-linejoin="round">FR<tspan x="5" dy="0">​</tspan></tspan>FR</text><text x="5" data-z-index="1" y="16" style="color:#000;font-size:11px;font-weight:700;fill:#000" transform="translate(241 195)" class="highcharts-label highcharts-data-label highcharts-data-label-color-0"><tspan class="highcharts-text-outline" fill="#FFF" stroke="#FFF" stroke-width="2" stroke-linejoin="round">NO<tspan x="5" dy="0">​</tspan></tspan>NO</text><text x="5" data-z-index="1" y="16" style="color:#000;font-size:11px;font-weight:700;fill:#000" transform="translate(205 177)" class="highcharts-label highcharts-data-label highcharts-data-label-color-0"><tspan class="highcharts-text-outline" fill="#FFF" stroke="#FFF" stroke-width="2" stroke-linejoin="round">UK<tspan x="5" dy="0">​</tspan></tspan>UK</text><text x="5" data-z-index="1" y="16" style="color:#000;font-size:11px;font-weight:700;fill:#000" transform="translate(181 242)" class="highcharts-label highcharts-data-label highcharts-data-label-color-0"><tspan class="highcharts-text-outline" fill="#FFF" stroke="#FFF" stroke-width="2" stroke-linejoin="round">IT<tspan x="5" dy="0">​</tspan></tspan>IT</text><text x="5" data-z-index="1" y="16" style="color:#000;font-size:11px;font-weight:700;fill:#000" transform="translate(170 310)" class="highcharts-label highcharts-data-label highcharts-data-label-color-0"><tspan class="highcharts-text-outline" fill="#FFF" stroke="#FFF" stroke-width="2" stroke-linejoin="round">RU<tspan x="5" dy="0">​</tspan></tspan>RU</text><text x="5" data-z-index="1" y="16" style="color:#000;font-size:11px;font-weight:700;fill:#000" transform="translate(125 117)" class="highcharts-label highcharts-data-label highcharts-data-label-color-0"><tspan class="highcharts-text-outline" fill="#FFF" stroke="#FFF" stroke-width="2" stroke-linejoin="round">US<tspan x="5" dy="0">​</tspan></tspan>US</text><text x="5" data-z-index="1" y="16" style="color:#000;font-size:11px;font-weight:700;fill:#000" transform="translate(122 254)" class="highcharts-label highcharts-data-label highcharts-data-label-color-0"><tspan class="highcharts-text-outline" fill="#FFF" stroke="#FFF" stroke-width="2" stroke-linejoin="round">HU<tspan x="5" dy="0">​</tspan></tspan>HU</text><text x="5" data-z-index="1" y="16" style="color:#000;font-size:11px;font-weight:700;fill:#000" transform="translate(94 252)" class="highcharts-label highcharts-data-label highcharts-data-label-color-0"><tspan class="highcharts-text-outline" fill="#FFF" stroke="#FFF" stroke-width="2" stroke-linejoin="round">PT<tspan x="5" dy="0">​</tspan></tspan>PT</text><text x="5" data-z-index="1" y="16" style="color:#000;font-size:11px;font-weight:700;fill:#000" transform="translate(102 196)" class="highcharts-label highcharts-data-label highcharts-data-label-color-0"><tspan class="highcharts-text-outline" fill="#FFF" stroke="#FFF" stroke-width="2" stroke-linejoin="round">NZ<tspan x="5" dy="0">​</tspan></tspan>NZ</text></g><g class="highcharts-axis-labels highcharts-xaxis-labels" data-z-index="7" aria-hidden="true" text-anchor="middle"><text x="129.601" style="color:#666;cursor:default;font-size:11px;fill:#666" y="364">65 gr</text><text x="203.375" style="color:#666;cursor:default;font-size:11px;fill:#666" y="364">70 gr</text><text x="277.148" style="color:#666;cursor:default;font-size:11px;fill:#666" y="364">75 gr</text><text x="350.922" style="color:#666;cursor:default;font-size:11px;fill:#666" y="364">80 gr</text><text x="424.695" style="color:#666;cursor:default;font-size:11px;fill:#666" y="364">85 gr</text><text x="498.469" style="color:#666;cursor:default;font-size:11px;fill:#666" y="364">90 gr</text><text x="572.243" style="color:#666;cursor:default;font-size:11px;fill:#666" y="364">95 gr</text></g><g class="highcharts-axis-labels highcharts-yaxis-labels" data-z-index="7" aria-hidden="true" text-anchor="end"><text x="70" style="color:#666;cursor:default;font-size:11px;fill:#666" y="271">50 gr</text><text x="70" style="color:#666;cursor:default;font-size:11px;fill:#666" y="181">100 gr</text><text x="70" style="color:#666;cursor:default;font-size:11px;fill:#666" y="90">150 gr</text></g></svg>