<svg class="highcharts-root" style="font-family:&quot;Lucida Grande&quot;,&quot;Lucida Sans Unicode&quot;,Arial,Helvetica,sans-serif;font-size:12px" xmlns="http://www.w3.org/2000/svg" width="600" height="400" aria-label="Interactive chart" aria-hidden="false"><defs aria-hidden="true"><clipPath id="a"><path fill="none" d="M0 0h431v282H0z"/></clipPath><clipPath id="b"><path fill="none" d="M0 0h431v282H0z"/></clipPath></defs><rect fill="#fff" class="highcharts-background" width="600" height="400" rx="0" ry="0" aria-hidden="true"/><path fill="none" class="highcharts-plot-background" aria-hidden="true" d="M82 82h431v282H82z"/><g class="highcharts-grid highcharts-xaxis-grid" data-z-index="1" aria-hidden="true" fill="none"><path data-z-index="1" class="highcharts-grid-line" d="M117.5 82v282m36-282v282m36-282v282m36-282v282m36-282v282m36-282v282m35-282v282m36-282v282m36-282v282m36-282v282m36-282v282m36-282v282M81.5 82v282"/></g><g class="highcharts-grid highcharts-yaxis-grid" data-z-index="1" aria-hidden="true" fill="none" stroke="#e6e6e6"><path data-z-index="1" class="highcharts-grid-line" d="M82 364.5h431m-431-70h431m-431-71h431m-431-70h431m-431-72h431"/></g><g class="highcharts-grid highcharts-yaxis-grid" data-z-index="1" aria-hidden="true" fill="none" stroke="#e6e6e6"><path data-z-index="1" class="highcharts-grid-line" d="M82 364.5h431m-431-70h431m-431-71h431m-431-70h431m-431-72h431"/></g><path fill="none" class="highcharts-plot-border" data-z-index="1" aria-hidden="true" d="M82 82h431v282H82z"/><g class="highcharts-axis highcharts-xaxis" data-z-index="2" aria-hidden="true"><path fill="none" class="highcharts-axis-line" stroke="#ccd6eb" data-z-index="7" d="M82 364.5h431"/></g><g class="highcharts-axis highcharts-yaxis" data-z-index="2" aria-hidden="true"><text x="24.344" data-z-index="7" text-anchor="middle" transform="rotate(-90 24.344 223)" class="highcharts-axis-title" style="color:#434348;fill:#434348" y="223">Temperature</text><path fill="none" class="highcharts-axis-line" data-z-index="7" d="M82 82v282"/></g><g class="highcharts-axis highcharts-yaxis" data-z-index="2" aria-hidden="true"><text x="575.938" data-z-index="7" text-anchor="middle" transform="rotate(90 575.938 223)" class="highcharts-axis-title" style="color:#7cb5ec;fill:#7cb5ec" y="223">Precipitation</text><path fill="none" class="highcharts-axis-line" data-z-index="7" d="M513 82v282"/></g><g class="highcharts-series-group" data-z-index="3" aria-hidden="false"><g class="highcharts-series highcharts-series-0 highcharts-column-series highcharts-color-0 highcharts-tracker" data-z-index=".1" clip-path="url(#a)" aria-hidden="false" tabindex="-1" aria-label="Precipitation, series 1 of 2. Bar series with 12 bars. Y axis, Precipitation." style="outline:0" fill="#7cb5ec" stroke="#fff" transform="translate(82 82)"><path class="highcharts-point highcharts-color-0" tabindex="-1" aria-label="Jan, 27.6 mm. Precipitation." style="outline:0" d="M8.5 185.5h18v97h-18z"/><path class="highcharts-point highcharts-color-0" tabindex="-1" aria-label="Feb, 28.8 mm. Precipitation." style="outline:0" d="M44.5 180.5h18v102h-18z"/><path class="highcharts-point highcharts-color-0" tabindex="-1" aria-label="Mar, 21.7 mm. Precipitation." style="outline:0" d="M80.5 206.5h18v76h-18z"/><path class="highcharts-point highcharts-color-0" tabindex="-1" aria-label="Apr, 34.1 mm. Precipitation." style="outline:0" d="M116.5 162.5h18v120h-18z"/><path class="highcharts-point highcharts-color-0" tabindex="-1" aria-label="May, 29 mm. Precipitation." style="outline:0" d="M152.5 180.5h18v102h-18z"/><path class="highcharts-point highcharts-color-0" tabindex="-1" aria-label="Jun, 28.4 mm. Precipitation." style="outline:0" d="M188.5 182.5h18v100h-18z"/><path class="highcharts-point highcharts-color-0" tabindex="-1" aria-label="Jul, 45.6 mm. Precipitation." style="outline:0" d="M224.5 121.5h18v161h-18z"/><path class="highcharts-point highcharts-color-0" tabindex="-1" aria-label="Aug, 51.7 mm. Precipitation." style="outline:0" d="M260.5 100.5h18v182h-18z"/><path class="highcharts-point highcharts-color-0" tabindex="-1" aria-label="Sep, 39 mm. Precipitation." style="outline:0" d="M296.5 145.5h18v137h-18z"/><path class="highcharts-point highcharts-color-0" tabindex="-1" aria-label="Oct, 60 mm. Precipitation." style="outline:0" d="M332.5 71.5h18v211h-18z"/><path class="highcharts-point highcharts-color-0" tabindex="-1" aria-label="Nov, 28.6 mm. Precipitation." style="outline:0" d="M368.5 181.5h18v101h-18z"/><path class="highcharts-point highcharts-color-0" tabindex="-1" aria-label="Dec, 32.1 mm. Precipitation." style="outline:0" d="M403.5 169.5h18v113h-18z"/></g><g class="highcharts-series highcharts-series-1 highcharts-spline-series highcharts-color-1" data-z-index=".1" clip-path="url(#b)" aria-hidden="true" fill="none" stroke-linejoin="round" stroke-linecap="round" transform="translate(82 82)"><path d="M17.958 236.88s21.55 9.165 35.917 9.165 21.55-44.133 35.917-64.155c14.366-20.022 21.55-23.406 35.916-35.955 14.367-12.549 21.55-7.473 35.917-26.79s21.55-59.22 35.917-69.795c14.366-10.575 21.55-10.575 35.916-10.575 14.367 0 21.55 13.818 35.917 26.085 14.367 12.267 21.55 19.035 35.917 35.25 14.366 16.215 21.55 22.137 35.916 45.825 14.367 23.688 21.55 50.478 35.917 72.615 14.367 22.137 35.917 38.07 35.917 38.07" class="highcharts-graph" data-z-index="1" stroke="#434348" stroke-width="2"/><path d="M17.958 236.88s21.55 9.165 35.917 9.165 21.55-44.133 35.917-64.155c14.366-20.022 21.55-23.406 35.916-35.955 14.367-12.549 21.55-7.473 35.917-26.79s21.55-59.22 35.917-69.795c14.366-10.575 21.55-10.575 35.916-10.575 14.367 0 21.55 13.818 35.917 26.085 14.367 12.267 21.55 19.035 35.917 35.25 14.366 16.215 21.55 22.137 35.916 45.825 14.367 23.688 21.55 50.478 35.917 72.615 14.367 22.137 35.917 38.07 35.917 38.07" data-z-index="2" class="highcharts-tracker-line" stroke="rgba(192,192,192,0.0001)" stroke-width="22"/></g><g class="highcharts-markers highcharts-series-1 highcharts-spline-series highcharts-color-1 highcharts-tracker" data-z-index=".1" aria-hidden="false" tabindex="-1" aria-label="Temperature, series 2 of 2. Line with 12 data points. Y axis, Temperature." style="outline:0" fill="#434348"><path d="M17 241a4 4 0 1 1 .004 0Z" class="highcharts-point highcharts-negative highcharts-color-1" tabindex="-1" aria-label="Jan, -13.6°C. Temperature." style="outline:0" transform="translate(82 82)"/><path d="M53 250a4 4 0 1 1 .004 0Z" class="highcharts-point highcharts-negative highcharts-color-1" tabindex="-1" aria-label="Feb, -14.9°C. Temperature." style="outline:0" transform="translate(82 82)"/><path d="M89 186a4 4 0 1 1 .004 0Z" class="highcharts-point highcharts-negative highcharts-color-1" tabindex="-1" aria-label="Mar, -5.8°C. Temperature." style="outline:0" transform="translate(82 82)"/><path d="M125 150a4 4 0 1 1 .004 0Z" class="highcharts-point highcharts-negative highcharts-color-1" tabindex="-1" aria-label="Apr, -0.7°C. Temperature." style="outline:0" transform="translate(82 82)"/><path d="M161 123a4 4 0 1 1 .004 0Z" class="highcharts-point highcharts-color-1" tabindex="-1" aria-label="May, 3.1°C. Temperature." style="outline:0" transform="translate(82 82)"/><path d="M197 53a4 4 0 1 1 .004 0Z" class="highcharts-point highcharts-color-1" tabindex="-1" aria-label="Jun, 13°C. Temperature." style="outline:0" transform="translate(82 82)"/><path d="M233 43a4 4 0 1 1 .004 0Z" class="highcharts-point highcharts-color-1" tabindex="-1" aria-label="Jul, 14.5°C. Temperature." style="outline:0" transform="translate(82 82)"/><path d="M269 69a4 4 0 1 1 .004 0Z" class="highcharts-point highcharts-color-1" tabindex="-1" aria-label="Aug, 10.8°C. Temperature." style="outline:0" transform="translate(82 82)"/><path d="M305 104a4 4 0 1 1 .004 0Z" class="highcharts-point highcharts-color-1" tabindex="-1" aria-label="Sep, 5.8°C. Temperature." style="outline:0" transform="translate(82 82)"/><path d="M341 150a4 4 0 1 1 .004 0Z" class="highcharts-point highcharts-negative highcharts-color-1" tabindex="-1" aria-label="Oct, -0.7°C. Temperature." style="outline:0" transform="translate(82 82)"/><path d="M377 223a4 4 0 1 1 .004 0Z" class="highcharts-point highcharts-negative highcharts-color-1" tabindex="-1" aria-label="Nov, -11°C. Temperature." style="outline:0" transform="translate(82 82)"/><path d="M413 261a4 4 0 1 1 .004 0Z" class="highcharts-point highcharts-negative highcharts-color-1" tabindex="-1" aria-label="Dec, -16.4°C. Temperature." style="outline:0" transform="translate(82 82)"/></g></g><text x="10" class="highcharts-title" data-z-index="4" style="color:#333;font-size:18px;fill:#333" y="24" aria-hidden="true">Average Monthly Precipitation and Temperature in Karasjok,<tspan dy="21" x="10">​</tspan>2021</text><text x="300" text-anchor="middle" class="highcharts-subtitle" data-z-index="4" style="color:#666;fill:#666" y="67" aria-hidden="true">Source: <a target="_blank"><tspan>YR</tspan></a></text><g class="highcharts-legend highcharts-no-tooltip" data-z-index="7" transform="translate(90 90)" aria-hidden="true"><rect fill="rgba(255,255,255,0.25)" class="highcharts-legend-box" rx="0" ry="0" width="235" height="26"/><g data-z-index="1"><g class="highcharts-legend-item highcharts-column-series highcharts-color-0 highcharts-series-0" data-z-index="1" transform="translate(8 3)"><text x="21" data-z-index="2" y="15" style="color:#333;cursor:pointer;font-size:12px;font-weight:700;fill:#333">Precipitation</text><rect x="2" y="4" width="12" height="12" fill="#7cb5ec" rx="6" ry="6" class="highcharts-point" data-z-index="3"/></g><g class="highcharts-legend-item highcharts-spline-series highcharts-color-1 highcharts-series-1" data-z-index="1"><path fill="none" d="M127.219 14h16" class="highcharts-graph" stroke="#434348" stroke-width="2"/><path fill="#434348" d="M135.219 18a4 4 0 1 1 .004 0Z" class="highcharts-point"/><text x="21" y="15" data-z-index="2" style="color:#333;cursor:pointer;font-size:12px;font-weight:700;fill:#333" transform="translate(127.219 3)">Temperature</text></g></g></g><g class="highcharts-axis-labels highcharts-xaxis-labels" data-z-index="7" aria-hidden="true" text-anchor="middle"><text x="99.958" style="color:#666;cursor:default;font-size:11px;fill:#666" y="383">Jan</text><text x="135.875" style="color:#666;cursor:default;font-size:11px;fill:#666" y="383">Feb</text><text x="171.792" style="color:#666;cursor:default;font-size:11px;fill:#666" y="383">Mar</text><text x="207.708" style="color:#666;cursor:default;font-size:11px;fill:#666" y="383">Apr</text><text x="243.625" style="color:#666;cursor:default;font-size:11px;fill:#666" y="383">May</text><text x="279.542" style="color:#666;cursor:default;font-size:11px;fill:#666" y="383">Jun</text><text x="315.458" style="color:#666;cursor:default;font-size:11px;fill:#666" y="383">Jul</text><text x="351.375" style="color:#666;cursor:default;font-size:11px;fill:#666" y="383">Aug</text><text x="387.292" style="color:#666;cursor:default;font-size:11px;fill:#666" y="383">Sep</text><text x="423.208" style="color:#666;cursor:default;font-size:11px;fill:#666" y="383">Oct</text><text x="459.125" style="color:#666;cursor:default;font-size:11px;fill:#666" y="383">Nov</text><text x="495.042" style="color:#666;cursor:default;font-size:11px;fill:#666" y="383">Dec</text></g><g class="highcharts-axis-labels highcharts-yaxis-labels" data-z-index="7" aria-hidden="true" text-anchor="end"><text x="67" style="color:#434348;cursor:default;font-size:11px;fill:#434348" y="369">-20°C</text><text x="67" style="color:#434348;cursor:default;font-size:11px;fill:#434348" y="298">-10°C</text><text x="67" style="color:#434348;cursor:default;font-size:11px;fill:#434348" y="228">0°C</text><text x="67" style="color:#434348;cursor:default;font-size:11px;fill:#434348" y="157">10°C</text><text x="67" style="color:#434348;cursor:default;font-size:11px;fill:#434348" y="87">20°C</text></g><g class="highcharts-axis-labels highcharts-yaxis-labels" data-z-index="7" aria-hidden="true"><text x="528" style="color:#7cb5ec;cursor:default;font-size:11px;fill:#7cb5ec" y="369">0 mm</text><text x="528" style="color:#7cb5ec;cursor:default;font-size:11px;fill:#7cb5ec" y="298">20 mm</text><text x="528" style="color:#7cb5ec;cursor:default;font-size:11px;fill:#7cb5ec" y="228">40 mm</text><text x="528" style="color:#7cb5ec;cursor:default;font-size:11px;fill:#7cb5ec" y="157">60 mm</text><text x="528" style="color:#7cb5ec;cursor:default;font-size:11px;fill:#7cb5ec" y="87">80 mm</text></g></svg>