<svg class="highcharts-root" style="font-family:&quot;Lucida Grande&quot;,&quot;Lucida Sans Unicode&quot;,Arial,Helvetica,sans-serif;font-size:12px" xmlns="http://www.w3.org/2000/svg" width="600" height="400" aria-label="Interactive chart" aria-hidden="false"><defs aria-hidden="true"><clipPath id="a"><path fill="none" d="M0 0h427v279H0z"/></clipPath><clipPath id="b"><path fill="none" d="M0 0h427v279H0z"/></clipPath></defs><rect fill="#fff" class="highcharts-background" width="600" height="400" rx="0" ry="0" aria-hidden="true"/><path fill="none" class="highcharts-plot-background" aria-hidden="true" d="M79 47h427v279H79z"/><g class="highcharts-grid highcharts-xaxis-grid" data-z-index="1" aria-hidden="true" fill="none"><path data-z-index="1" class="highcharts-grid-line" d="M114.5 47v279m35-279v279m36-279v279m35-279v279m36-279v279m35-279v279m36-279v279m36-279v279m35-279v279m36-279v279m35-279v279m36-279v279M78.5 47v279"/></g><g class="highcharts-grid highcharts-yaxis-grid" data-z-index="1" aria-hidden="true" fill="none" stroke="#e6e6e6"><path data-z-index="1" class="highcharts-grid-line" d="M79 326.5h427m-427-70h427m-427-69h427m-427-70h427m-427-71h427"/></g><g class="highcharts-grid highcharts-yaxis-grid" data-z-index="1" aria-hidden="true" fill="none" stroke="#e6e6e6"><path data-z-index="1" class="highcharts-grid-line" d="M79 326.5h427m-427-70h427m-427-69h427m-427-70h427m-427-71h427"/></g><path fill="none" class="highcharts-plot-border" data-z-index="1" aria-hidden="true" d="M79 47h427v279H79z"/><g class="highcharts-axis highcharts-xaxis" data-z-index="2" aria-hidden="true"><path fill="none" class="highcharts-axis-line" stroke="#ccd6eb" data-z-index="7" d="M79 326.5h427"/></g><g class="highcharts-axis highcharts-yaxis" data-z-index="2" aria-hidden="true"><text x="24.227" data-z-index="7" text-anchor="middle" transform="rotate(-90 24.227 186.5)" class="highcharts-axis-title" style="color:#434348;fill:#434348" y="186.5">Temperature</text><path fill="none" class="highcharts-axis-line" data-z-index="7" d="M79 47v279"/></g><g class="highcharts-axis highcharts-yaxis" data-z-index="2" aria-hidden="true"><text x="575.891" data-z-index="7" text-anchor="middle" transform="rotate(90 575.89 186.5)" class="highcharts-axis-title" style="color:#7cb5ec;fill:#7cb5ec" y="186.5">Rainfall</text><path fill="none" class="highcharts-axis-line" data-z-index="7" d="M506 47v279"/></g><g class="highcharts-series-group" data-z-index="3" aria-hidden="false"><g class="highcharts-series highcharts-series-0 highcharts-column-series highcharts-color-0 highcharts-tracker" data-z-index=".1" clip-path="url(#a)" aria-hidden="false" tabindex="-1" aria-label="Rainfall, series 1 of 4. Bar series with 12 bars. Y axis, Rainfall." style="outline:0" fill="#7cb5ec" stroke="#fff" transform="translate(79 47)"><path class="highcharts-point highcharts-color-0" tabindex="-1" aria-label="Jan, 49.9. Rainfall." style="outline:0" d="M8.5 221.5h18v58h-18z"/><path class="highcharts-point highcharts-color-0" tabindex="-1" aria-label="Feb, 71.5. Rainfall." style="outline:0" d="M44.5 196.5h18v83h-18z"/><path class="highcharts-point highcharts-color-0" tabindex="-1" aria-label="Mar, 106.4. Rainfall." style="outline:0" d="M79.5 155.5h18v124h-18z"/><path class="highcharts-point highcharts-color-0" tabindex="-1" aria-label="Apr, 129.2. Rainfall." style="outline:0" d="M115.5 129.5h18v150h-18z"/><path class="highcharts-point highcharts-color-0" tabindex="-1" aria-label="May, 144. Rainfall." style="outline:0" d="M151.5 112.5h18v167h-18z"/><path class="highcharts-point highcharts-color-0" tabindex="-1" aria-label="Jun, 176. Rainfall." style="outline:0" d="M186.5 74.5h18v205h-18z"/><path class="highcharts-point highcharts-color-0" tabindex="-1" aria-label="Jul, 135.6. Rainfall." style="outline:0" d="M222.5 121.5h18v158h-18z"/><path class="highcharts-point highcharts-color-0" tabindex="-1" aria-label="Aug, 148.5. Rainfall." style="outline:0" d="M257.5 106.5h18v173h-18z"/><path class="highcharts-point highcharts-color-0" tabindex="-1" aria-label="Sep, 216.4. Rainfall." style="outline:0" d="M293.5 27.5h18v252h-18z"/><path class="highcharts-point highcharts-color-0" tabindex="-1" aria-label="Oct, 194.1. Rainfall." style="outline:0" d="M329.5 53.5h18v226h-18z"/><path class="highcharts-point highcharts-color-0" tabindex="-1" aria-label="Nov, 95.6. Rainfall." style="outline:0" d="M364.5 168.5h18v111h-18z"/><path class="highcharts-point highcharts-color-0" tabindex="-1" aria-label="Dec, 54.4. Rainfall." style="outline:0" d="M400.5 216.5h18v63h-18z"/></g><g class="highcharts-series highcharts-series-1 highcharts-errorbar-series highcharts-tracker" data-z-index=".1" clip-path="url(#a)" aria-hidden="false" tabindex="-1" aria-label="Rainfall error, series 2 of 4 with 12 data points. Y axis, Rainfall." style="outline:0" fill="none" stroke="#000" transform="translate(79 47)"><g class="highcharts-point" tabindex="-1" aria-label="Jan, low: 48, high: 51. Rainfall error." style="outline:0"><path class="highcharts-boxplot-stem" d="M17.5 223v-4m0 4"/><path class="highcharts-boxplot-whisker" d="M13 219.5h9m-9 4h9"/></g><g class="highcharts-point" tabindex="-1" aria-label="Feb, low: 68, high: 73. Rainfall error." style="outline:0"><path class="highcharts-boxplot-stem" d="M53.5 199v-5m0 5"/><path class="highcharts-boxplot-whisker" d="M49 194.5h9m-9 5h9"/></g><g class="highcharts-point" tabindex="-1" aria-label="Mar, low: 92, high: 110. Rainfall error." style="outline:0"><path class="highcharts-boxplot-stem" d="M88.5 172v-21m0 21"/><path class="highcharts-boxplot-whisker" d="M84 151.5h9m-9 21h9"/></g><g class="highcharts-point" tabindex="-1" aria-label="Apr, low: 128, high: 136. Rainfall error." style="outline:0"><path class="highcharts-boxplot-stem" d="M124.5 130v-10m0 10"/><path class="highcharts-boxplot-whisker" d="M120 120.5h9m-9 10h9"/></g><g class="highcharts-point" tabindex="-1" aria-label="May, low: 140, high: 150. Rainfall error." style="outline:0"><path class="highcharts-boxplot-stem" d="M160.5 116v-12m0 12"/><path class="highcharts-boxplot-whisker" d="M156 104.5h9m-9 12h9"/></g><g class="highcharts-point" tabindex="-1" aria-label="Jun, low: 171, high: 179. Rainfall error." style="outline:0"><path class="highcharts-boxplot-stem" d="M195.5 80V70m0 10"/><path class="highcharts-boxplot-whisker" d="M191 70.5h9m-9 10h9"/></g><g class="highcharts-point" tabindex="-1" aria-label="Jul, low: 135, high: 143. Rainfall error." style="outline:0"><path class="highcharts-boxplot-stem" d="M231.5 122v-10m0 10"/><path class="highcharts-boxplot-whisker" d="M227 112.5h9m-9 10h9"/></g><g class="highcharts-point" tabindex="-1" aria-label="Aug, low: 142, high: 149. Rainfall error." style="outline:0"><path class="highcharts-boxplot-stem" d="M266.5 113v-8m0 8"/><path class="highcharts-boxplot-whisker" d="M262 105.5h9m-9 8h9"/></g><g class="highcharts-point" tabindex="-1" aria-label="Sep, low: 204, high: 220. Rainfall error." style="outline:0"><path class="highcharts-boxplot-stem" d="M302.5 41V23m0 18"/><path class="highcharts-boxplot-whisker" d="M298 23.5h9m-9 18h9"/></g><g class="highcharts-point" tabindex="-1" aria-label="Oct, low: 189, high: 199. Rainfall error." style="outline:0"><path class="highcharts-boxplot-stem" d="M338.5 59V47m0 12"/><path class="highcharts-boxplot-whisker" d="M334 47.5h9m-9 12h9"/></g><g class="highcharts-point" tabindex="-1" aria-label="Nov, low: 95, high: 110. Rainfall error." style="outline:0"><path class="highcharts-boxplot-stem" d="M373.5 168v-17m0 17"/><path class="highcharts-boxplot-whisker" d="M369 151.5h9m-9 17h9"/></g><g class="highcharts-point" tabindex="-1" aria-label="Dec, low: 52, high: 56. Rainfall error." style="outline:0"><path class="highcharts-boxplot-stem" d="M409.5 218v-5m0 5"/><path class="highcharts-boxplot-whisker" d="M405 213.5h9m-9 5h9"/></g></g><g class="highcharts-series highcharts-series-2 highcharts-spline-series highcharts-color-1" data-z-index=".1" clip-path="url(#b)" aria-hidden="true" fill="none" stroke-linejoin="round" stroke-linecap="round" transform="translate(79 47)"><path d="M17.792 217.969s21.35.872 35.583.872c14.233 0 21.35-9.417 35.583-22.67 14.234-13.252 21.35-28.422 35.584-43.593 14.233-15.17 21.35-20.053 35.583-32.26 14.233-12.206 21.35-16.565 35.583-28.771 14.234-12.206 21.35-23.54 35.584-32.26 14.233-8.718 21.35-11.334 35.583-11.334 14.233 0 21.35 13.601 35.583 27.9 14.234 14.299 21.35 27.203 35.584 43.594 14.233 16.391 21.35 23.192 35.583 38.362 14.233 15.171 35.583 37.491 35.583 37.491" class="highcharts-graph" data-z-index="1" stroke="#434348" stroke-width="2"/><path d="M17.792 217.969s21.35.872 35.583.872c14.233 0 21.35-9.417 35.583-22.67 14.234-13.252 21.35-28.422 35.584-43.593 14.233-15.17 21.35-20.053 35.583-32.26 14.233-12.206 21.35-16.565 35.583-28.771 14.234-12.206 21.35-23.54 35.584-32.26 14.233-8.718 21.35-11.334 35.583-11.334 14.233 0 21.35 13.601 35.583 27.9 14.234 14.299 21.35 27.203 35.584 43.594 14.233 16.391 21.35 23.192 35.583 38.362 14.233 15.171 35.583 37.491 35.583 37.491" data-z-index="2" class="highcharts-tracker-line" stroke="rgba(192,192,192,0.0001)" stroke-width="22"/></g><g class="highcharts-markers highcharts-series-2 highcharts-spline-series highcharts-color-1 highcharts-tracker" data-z-index=".1" aria-hidden="false" tabindex="-1" aria-label="Temperature, series 3 of 4. Line with 12 data points. Y axis, Temperature." style="outline:0" fill="#434348"><path d="M17 222a4 4 0 1 1 .004 0Z" class="highcharts-point highcharts-color-1" tabindex="-1" aria-label="Jan, 7. Temperature." style="outline:0" transform="translate(79 47)"/><path d="M53 223a4 4 0 1 1 .004 0Z" class="highcharts-point highcharts-color-1" tabindex="-1" aria-label="Feb, 6.9. Temperature." style="outline:0" transform="translate(79 47)"/><path d="M88 200a4 4 0 1 1 .004 0Z" class="highcharts-point highcharts-color-1" tabindex="-1" aria-label="Mar, 9.5. Temperature." style="outline:0" transform="translate(79 47)"/><path d="M124 157a4 4 0 1 1 .004 0Z" class="highcharts-point highcharts-color-1" tabindex="-1" aria-label="Apr, 14.5. Temperature." style="outline:0" transform="translate(79 47)"/><path d="M160 124a4 4 0 1 1 .004 0Z" class="highcharts-point highcharts-color-1" tabindex="-1" aria-label="May, 18.2. Temperature." style="outline:0" transform="translate(79 47)"/><path d="M195 96a4 4 0 1 1 .004 0Z" class="highcharts-point highcharts-color-1" tabindex="-1" aria-label="Jun, 21.5. Temperature." style="outline:0" transform="translate(79 47)"/><path d="M231 63a4 4 0 1 1 .004 0Z" class="highcharts-point highcharts-color-1" tabindex="-1" aria-label="Jul, 25.2. Temperature." style="outline:0" transform="translate(79 47)"/><path d="M266 52a4 4 0 1 1 .004 0Z" class="highcharts-point highcharts-color-1" tabindex="-1" aria-label="Aug, 26.5. Temperature." style="outline:0" transform="translate(79 47)"/><path d="M302 80a4 4 0 1 1 .004 0Z" class="highcharts-point highcharts-color-1" tabindex="-1" aria-label="Sep, 23.3. Temperature." style="outline:0" transform="translate(79 47)"/><path d="M338 123a4 4 0 1 1 .004 0Z" class="highcharts-point highcharts-color-1" tabindex="-1" aria-label="Oct, 18.3. Temperature." style="outline:0" transform="translate(79 47)"/><path d="M373 162a4 4 0 1 1 .004 0Z" class="highcharts-point highcharts-color-1" tabindex="-1" aria-label="Nov, 13.9. Temperature." style="outline:0" transform="translate(79 47)"/><path d="M409 199a4 4 0 1 1 .004 0Z" class="highcharts-point highcharts-color-1" tabindex="-1" aria-label="Dec, 9.6. Temperature." style="outline:0" transform="translate(79 47)"/></g><g class="highcharts-series highcharts-series-3 highcharts-errorbar-series highcharts-tracker" data-z-index=".1" clip-path="url(#b)" aria-hidden="false" tabindex="-1" aria-label="Temperature error, series 4 of 4 with 12 data points. Y axis, Temperature." style="outline:0" fill="none" stroke="#000" transform="translate(79 47)"><g class="highcharts-point" tabindex="-1" aria-label="Jan, low: 6, high: 8. Temperature error." style="outline:0"><path class="highcharts-boxplot-stem" d="M17.5 226v-17m0 17"/><path class="highcharts-boxplot-whisker" d="M13 209.5h9m-9 17h9"/></g><g class="highcharts-point" tabindex="-1" aria-label="Feb, low: 5.9, high: 7.6. Temperature error." style="outline:0"><path class="highcharts-boxplot-stem" d="M53.5 227v-15m0 15"/><path class="highcharts-boxplot-whisker" d="M49 212.5h9m-9 15h9"/></g><g class="highcharts-point" tabindex="-1" aria-label="Mar, low: 9.4, high: 10.4. Temperature error." style="outline:0"><path class="highcharts-boxplot-stem" d="M88.5 197v-9m0 9"/><path class="highcharts-boxplot-whisker" d="M84 188.5h9m-9 9h9"/></g><g class="highcharts-point" tabindex="-1" aria-label="Apr, low: 14.1, high: 15.9. Temperature error." style="outline:0"><path class="highcharts-boxplot-stem" d="M124.5 156v-16m0 16"/><path class="highcharts-boxplot-whisker" d="M120 140.5h9m-9 16h9"/></g><g class="highcharts-point" tabindex="-1" aria-label="May, low: 18, high: 20.1. Temperature error." style="outline:0"><path class="highcharts-boxplot-stem" d="M160.5 122v-19m0 19"/><path class="highcharts-boxplot-whisker" d="M156 103.5h9m-9 19h9"/></g><g class="highcharts-point" tabindex="-1" aria-label="Jun, low: 21, high: 24. Temperature error." style="outline:0"><path class="highcharts-boxplot-stem" d="M195.5 95V69m0 26"/><path class="highcharts-boxplot-whisker" d="M191 69.5h9m-9 26h9"/></g><g class="highcharts-point" tabindex="-1" aria-label="Jul, low: 23.2, high: 25.3. Temperature error." style="outline:0"><path class="highcharts-boxplot-stem" d="M231.5 76V58m0 18"/><path class="highcharts-boxplot-whisker" d="M227 58.5h9m-9 18h9"/></g><g class="highcharts-point" tabindex="-1" aria-label="Aug, low: 26.1, high: 27.8. Temperature error." style="outline:0"><path class="highcharts-boxplot-stem" d="M266.5 51V36m0 15"/><path class="highcharts-boxplot-whisker" d="M262 36.5h9m-9 15h9"/></g><g class="highcharts-point" tabindex="-1" aria-label="Sep, low: 23.2, high: 23.9. Temperature error." style="outline:0"><path class="highcharts-boxplot-stem" d="M302.5 76v-6m0 6"/><path class="highcharts-boxplot-whisker" d="M298 70.5h9m-9 6h9"/></g><g class="highcharts-point" tabindex="-1" aria-label="Oct, low: 18, high: 21.1. Temperature error." style="outline:0"><path class="highcharts-boxplot-stem" d="M338.5 122V95m0 27"/><path class="highcharts-boxplot-whisker" d="M334 95.5h9m-9 27h9"/></g><g class="highcharts-point" tabindex="-1" aria-label="Nov, low: 12.9, high: 14. Temperature error." style="outline:0"><path class="highcharts-boxplot-stem" d="M373.5 166v-10m0 10"/><path class="highcharts-boxplot-whisker" d="M369 156.5h9m-9 10h9"/></g><g class="highcharts-point" tabindex="-1" aria-label="Dec, low: 7.6, high: 10. Temperature error." style="outline:0"><path class="highcharts-boxplot-stem" d="M409.5 212v-21m0 21"/><path class="highcharts-boxplot-whisker" d="M405 191.5h9m-9 21h9"/></g></g></g><text x="300" text-anchor="middle" class="highcharts-title" data-z-index="4" style="color:#333;font-size:18px;fill:#333" y="24" aria-hidden="true">Temperature vs Rainfall</text><g class="highcharts-legend highcharts-no-tooltip" data-z-index="7" transform="translate(198 359)" aria-hidden="true"><rect fill="none" class="highcharts-legend-box" rx="0" ry="0" width="204" height="26"/><g data-z-index="1"><g class="highcharts-legend-item highcharts-column-series highcharts-color-0 highcharts-series-0" data-z-index="1" transform="translate(8 3)"><text x="21" data-z-index="2" y="15" style="color:#333;cursor:pointer;font-size:12px;font-weight:700;fill:#333">Rainfall</text><rect x="2" y="4" width="12" height="12" fill="#7cb5ec" rx="6" ry="6" class="highcharts-point" data-z-index="3"/></g><g class="highcharts-legend-item highcharts-spline-series highcharts-color-1 highcharts-series-2" data-z-index="1"><path fill="none" d="M95.953 14h16" class="highcharts-graph" stroke="#434348" stroke-width="2"/><path fill="#434348" d="M103.953 18a4 4 0 1 1 .004 0Z" class="highcharts-point"/><text x="21" y="15" data-z-index="2" style="color:#333;cursor:pointer;font-size:12px;font-weight:700;fill:#333" transform="translate(95.953 3)">Temperature</text></g></g></g><g class="highcharts-axis-labels highcharts-xaxis-labels" data-z-index="7" aria-hidden="true" text-anchor="middle"><text x="96.792" style="color:#666;cursor:default;font-size:11px;fill:#666" y="345">Jan</text><text x="132.375" style="color:#666;cursor:default;font-size:11px;fill:#666" y="345">Feb</text><text x="167.958" style="color:#666;cursor:default;font-size:11px;fill:#666" y="345">Mar</text><text x="203.542" style="color:#666;cursor:default;font-size:11px;fill:#666" y="345">Apr</text><text x="239.125" style="color:#666;cursor:default;font-size:11px;fill:#666" y="345">May</text><text x="274.708" style="color:#666;cursor:default;font-size:11px;fill:#666" y="345">Jun</text><text x="310.292" style="color:#666;cursor:default;font-size:11px;fill:#666" y="345">Jul</text><text x="345.875" style="color:#666;cursor:default;font-size:11px;fill:#666" y="345">Aug</text><text x="381.458" style="color:#666;cursor:default;font-size:11px;fill:#666" y="345">Sep</text><text x="417.042" style="color:#666;cursor:default;font-size:11px;fill:#666" y="345">Oct</text><text x="452.625" style="color:#666;cursor:default;font-size:11px;fill:#666" y="345">Nov</text><text x="488.208" style="color:#666;cursor:default;font-size:11px;fill:#666" y="345">Dec</text></g><g class="highcharts-axis-labels highcharts-yaxis-labels" data-z-index="7" aria-hidden="true" text-anchor="end"><text x="64" style="color:#434348;cursor:default;font-size:11px;fill:#434348" y="331">0 °C</text><text x="64" style="color:#434348;cursor:default;font-size:11px;fill:#434348" y="261">8 °C</text><text x="64" style="color:#434348;cursor:default;font-size:11px;fill:#434348" y="191">16 °C</text><text x="64" style="color:#434348;cursor:default;font-size:11px;fill:#434348" y="121">24 °C</text><text x="64" style="color:#434348;cursor:default;font-size:11px;fill:#434348" y="52">32 °C</text></g><g class="highcharts-axis-labels highcharts-yaxis-labels" data-z-index="7" aria-hidden="true"><text x="521" style="color:#7cb5ec;cursor:default;font-size:11px;fill:#7cb5ec" y="331">0 mm</text><text x="521" style="color:#7cb5ec;cursor:default;font-size:11px;fill:#7cb5ec" y="261">60 mm</text><text x="521" style="color:#7cb5ec;cursor:default;font-size:11px;fill:#7cb5ec" y="191">120 mm</text><text x="521" style="color:#7cb5ec;cursor:default;font-size:11px;fill:#7cb5ec" y="121">180 mm</text><text x="521" style="color:#7cb5ec;cursor:default;font-size:11px;fill:#7cb5ec" y="52">240 mm</text></g></svg>