<svg class="highcharts-root" style="font-family:&quot;Lucida Grande&quot;,&quot;Lucida Sans Unicode&quot;,Arial,Helvetica,sans-serif;font-size:12px" xmlns="http://www.w3.org/2000/svg" width="500" height="400" aria-label="Interactive chart" aria-hidden="false"><defs aria-hidden="true"><clipPath id="a"><path fill="none" d="M0 0h480v338H0z"/></clipPath></defs><rect fill="#fff" class="highcharts-background" width="500" height="400" rx="0" ry="0" aria-hidden="true"/><path fill="none" class="highcharts-plot-background" aria-hidden="true" d="M10 47h480v338H10z"/><g class="highcharts-plot-bands-0" data-z-index="0" aria-hidden="true"><path fill="#55BF3B" class="highcharts-plot-band" d="M64.1 300.5a185.9 185.9 0 0 1 242.984-176.919l-6.141 19.034A165.9 165.9 0 0 0 84.1 300.5Z"/><path fill="#DDDF0D" class="highcharts-plot-band" d="M307.261 123.639a185.9 185.9 0 0 1 92.873 67.232l-16.152 11.794a165.9 165.9 0 0 0-82.881-59.999Z"/><path fill="#DF5353" class="highcharts-plot-band" d="M400.244 191.02a185.9 185.9 0 0 1 35.655 108.97l-20 .055a165.9 165.9 0 0 0-31.82-97.246Z"/></g><g class="highcharts-grid highcharts-yaxis-grid highcharts-radial-axis-grid" data-z-index="1" aria-hidden="true" fill="none"><path data-z-index="1" class="highcharts-grid-line" d="M250 300.5H64.1m185.9 0L78.235 229.397M250 300.5 118.492 169.106M250 300.5l-71.253-171.703M250 300.5l-.162-185.9M250 300.5l70.953-171.827M250 300.5l131.279-131.623M250 300.5l171.64-71.403M250 300.5l185.9-.324"/></g><path fill="none" class="highcharts-plot-border" data-z-index="1" aria-hidden="true" d="M10 47h480v338H10z"/><g class="highcharts-axis highcharts-yaxis highcharts-radial-axis" data-z-index="2" aria-hidden="true" fill="none"><path class="highcharts-tick" stroke="#fff" stroke-width="2" d="M64.1 300.5h20m-5.865-71.103 18.48 7.65m21.777-67.941 14.148 14.136m46.107-54.445 7.666 18.473m63.425-32.67.017 20m71.098-5.927-7.633 18.486m67.959 21.718-14.124 14.16m54.485 46.06-18.466 7.682m32.726 63.397-20 .034"/><path class="highcharts-axis-line" stroke="#ccd6eb" data-z-index="7" d="M64.1 300.5a185.9 185.9 0 0 1 371.8-.51m-185.9.51"/></g><g class="highcharts-data-labels highcharts-series-0 highcharts-gauge-series highcharts-color-0 highcharts-tracker" data-z-index="2" aria-hidden="true"><text x="5" data-z-index="1" y="20" style="color:#333;font-size:16px;font-weight:700;fill:#333" transform="translate(209 316)" class="highcharts-label highcharts-data-label highcharts-data-label-color-0"><tspan class="highcharts-text-outline" fill="#FFF" stroke="#FFF" stroke-width="2" stroke-linejoin="round">80 km/h<tspan x="5" dy="0">​</tspan></tspan>80 km/h</text></g><g class="highcharts-series-group" data-z-index="3" aria-hidden="false"><g class="highcharts-series highcharts-series-0 highcharts-gauge-series highcharts-color-0 highcharts-tracker" data-z-index=".1" clip-path="url(#a)" aria-hidden="false" fill="gray" transform="translate(10 47)"><path d="M0-6 148.72-.5v1L0 6Z" transform="rotate(-108.04 212.022 39.629)" data-z-index="1" class="highcharts-dial" tabindex="-1" aria-label="80 km/h. Speed." style="outline:0"/><circle r="6" data-z-index="2" class="highcharts-pivot" transform="translate(240 253.5)"/></g></g><text x="250" text-anchor="middle" class="highcharts-title" data-z-index="4" style="color:#333;font-size:18px;fill:#333" y="24" aria-hidden="true">Speedometer</text><g class="highcharts-axis-labels highcharts-yaxis-labels highcharts-radial-axis-labels" data-z-index="7" aria-hidden="true" text-anchor="middle"><text x="44.1" style="color:#666;cursor:default;font-size:14px;fill:#666" y="306.25">0</text><text x="59.756" style="color:#666;cursor:default;font-size:14px;fill:#666" y="227.497">25</text><text x="104.343" style="color:#666;cursor:default;font-size:14px;fill:#666" y="160.72">50</text><text x="171.081" style="color:#666;cursor:default;font-size:14px;fill:#666" y="116.075">75</text><text x="249.82" style="color:#666;cursor:default;font-size:14px;fill:#666" y="100.35">100</text><text x="328.587" style="color:#666;cursor:default;font-size:14px;fill:#666" y="115.937">125</text><text x="395.403" style="color:#666;cursor:default;font-size:14px;fill:#666" y="160.466">150</text><text x="440.106" style="color:#666;cursor:default;font-size:14px;fill:#666" y="227.165">175</text><text x="455.9" style="color:#666;cursor:default;font-size:14px;fill:#666" y="305.891">200</text></g></svg>