<svg class="highcharts-root" style="font-family:&quot;Lucida Grande&quot;,&quot;Lucida Sans Unicode&quot;,Arial,Helvetica,sans-serif;font-size:12px" xmlns="http://www.w3.org/2000/svg" width="600" height="400" aria-label="Interactive chart" aria-hidden="false"><defs aria-hidden="true"><clipPath id="a"><path fill="none" d="M0 0h580v286H0z"/></clipPath></defs><rect fill="#fff" class="highcharts-background" width="600" height="400" rx="0" ry="0" aria-hidden="true"/><path fill="none" class="highcharts-plot-background" aria-hidden="true" d="M10 99h580v286H10z"/><g class="highcharts-grid highcharts-yaxis-grid" data-z-index="1" aria-hidden="true" fill="none" stroke="#e6e6e6"><path data-z-index="1" class="highcharts-grid-line" d="M10 385.5h580m-580-71h580m-580-72h580m-580-71h580m-580-73h580"/></g><g class="highcharts-grid highcharts-yaxis-grid" data-z-index="1" aria-hidden="true" fill="none"><path data-z-index="1" class="highcharts-grid-line" d="M10 385.5h580m-580-71h580m-580-72h580m-580-71h580m-580-72h580"/></g><path fill="none" class="highcharts-plot-border" data-z-index="1" aria-hidden="true" d="M10 99h580v286H10z"/><g class="highcharts-grid highcharts-xaxis-grid" data-z-index="1" aria-hidden="true" fill="none" stroke="#e6e6e6"><path data-z-index="1" class="highcharts-grid-line" d="M15.5 99v286m132-286v286m133-286v286m133-286v286m132-286v286"/></g><g class="highcharts-axis highcharts-yaxis" data-z-index="2" aria-hidden="true"><path fill="none" class="highcharts-axis-line" data-z-index="7" d="M10 99v286"/></g><g class="highcharts-axis highcharts-yaxis" data-z-index="2" aria-hidden="true"><path fill="none" class="highcharts-axis-line" data-z-index="7" d="M590 99v286"/></g><g class="highcharts-axis highcharts-xaxis" data-z-index="2" aria-hidden="true"><path fill="none" class="highcharts-axis-line" stroke="#ccd6eb" data-z-index="7" d="M10 385.5h580"/></g><g class="highcharts-series-group" data-z-index="3" aria-hidden="false"><g class="highcharts-series highcharts-series-0 highcharts-line-series highcharts-color-0 popup-on-click" data-z-index=".1" clip-path="url(#a)" aria-hidden="false" tabindex="-1" aria-label="All sessions, line 1 of 2 with 0 data points. Y axis, values." style="outline:0" fill="none" stroke-linejoin="round" stroke-linecap="round" transform="translate(10 99)"><path d="m5.686 138.817 18.955-17.546 18.954-13.492 18.954 26.24 18.954 31.546 18.955 56.407 18.954 20.32 18.954-16.588 18.954-30.416 18.955-21.464 18.954 14.536 18.954-6.457 18.954 38.338 18.955 19.32 18.954-12.842L290 175.375l18.954-20.67 18.954-23.467 18.955 9.846 18.954 53.067 18.954-5.105 18.954-41.234 18.955-25.883 18.954-8.809 18.954 16.023 18.954 6.964 18.955 62.835 18.954 23.316 18.954-58.359 18.954-31.46 18.955-2.595" class="highcharts-graph" data-z-index="1" stroke="#7cb5ec" stroke-width="4"/><path d="m5.686 138.817 18.955-17.546 18.954-13.492 18.954 26.24 18.954 31.546 18.955 56.407 18.954 20.32 18.954-16.588 18.954-30.416 18.955-21.464 18.954 14.536 18.954-6.457 18.954 38.338 18.955 19.32 18.954-12.842L290 175.375l18.954-20.67 18.954-23.467 18.955 9.846 18.954 53.067 18.954-5.105 18.954-41.234 18.955-25.883 18.954-8.809 18.954 16.023 18.954 6.964 18.955 62.835 18.954 23.316 18.954-58.359 18.954-31.46 18.955-2.595" data-z-index="2" class="highcharts-tracker-line" stroke="rgba(192,192,192,0.0001)" stroke-width="24" style="cursor:pointer"/></g><g class="highcharts-markers highcharts-series-0 highcharts-line-series highcharts-color-0 popup-on-click highcharts-tracker" data-z-index=".1" aria-hidden="false" style="cursor:pointer;outline:0" tabindex="-1" aria-label="Users, line 1 of 2 with 31 data points. Y axis, values." fill="#7cb5ec" stroke="#fff"><path d="M5 142.817a4 4 0 1 1 .004 0Z" class="highcharts-point highcharts-color-0" tabindex="-1" aria-label="Monday, Dec 18, 2017, 40.585. Users." style="outline:0" transform="translate(10 99)"/><path d="M24 125.271a4 4 0 1 1 .004 0Z" class="highcharts-point highcharts-color-0" tabindex="-1" aria-label="Tuesday, Dec 19, 2017, 43.039. Users." style="outline:0" transform="translate(10 99)"/><path d="M43 111.78a4 4 0 1 1 .004 0Z" class="highcharts-point highcharts-color-0" tabindex="-1" aria-label="Wednesday, Dec 20, 2017, 44.926. Users." style="outline:0" transform="translate(10 99)"/><path d="M62 138.02a4 4 0 1 1 .004 0Z" class="highcharts-point highcharts-color-0" tabindex="-1" aria-label="Thursday, Dec 21, 2017, 41.256. Users." style="outline:0" transform="translate(10 99)"/><path d="M81 169.565a4 4 0 1 1 .004 0Z" class="highcharts-point highcharts-color-0" tabindex="-1" aria-label="Friday, Dec 22, 2017, 36.844. Users." style="outline:0" transform="translate(10 99)"/><path d="M100 225.972a4 4 0 1 1 .004 0Z" class="highcharts-point highcharts-color-0" tabindex="-1" aria-label="Saturday, Dec 23, 2017, 28.955. Users." style="outline:0" transform="translate(10 99)"/><path d="M119 246.292a4 4 0 1 1 .004 0Z" class="highcharts-point highcharts-color-0" tabindex="-1" aria-label="Sunday, Dec 24, 2017, 26.113. Users." style="outline:0" transform="translate(10 99)"/><path d="M138 229.704a4 4 0 1 1 .004 0Z" class="highcharts-point highcharts-color-0" tabindex="-1" aria-label="Monday, Dec 25, 2017, 28.433. Users." style="outline:0" transform="translate(10 99)"/><path d="M157 199.288a4 4 0 1 1 .004 0Z" class="highcharts-point highcharts-color-0" tabindex="-1" aria-label="Tuesday, Dec 26, 2017, 32.687. Users." style="outline:0" transform="translate(10 99)"/><path d="M176 177.824a4 4 0 1 1 .004 0Z" class="highcharts-point highcharts-color-0" tabindex="-1" aria-label="Wednesday, Dec 27, 2017, 35.689. Users." style="outline:0" transform="translate(10 99)"/><path d="M195 192.36a4 4 0 1 1 .004 0Z" class="highcharts-point highcharts-color-0" tabindex="-1" aria-label="Thursday, Dec 28, 2017, 33.656. Users." style="outline:0" transform="translate(10 99)"/><path d="M214 185.903a4 4 0 1 1 .004 0Z" class="highcharts-point highcharts-color-0" tabindex="-1" aria-label="Friday, Dec 29, 2017, 34.559. Users." style="outline:0" transform="translate(10 99)"/><path d="M233 224.241a4 4 0 1 1 .004 0Z" class="highcharts-point highcharts-color-0" tabindex="-1" aria-label="Saturday, Dec 30, 2017, 29.197. Users." style="outline:0" transform="translate(10 99)"/><path d="M252 243.56a4 4 0 1 1 .004 0Z" class="highcharts-point highcharts-color-0" tabindex="-1" aria-label="Sunday, Dec 31, 2017, 26.495. Users." style="outline:0" transform="translate(10 99)"/><path d="M271 230.72a4 4 0 1 1 .004 0Z" class="highcharts-point highcharts-color-0" tabindex="-1" aria-label="Monday, Jan 1, 2018, 28.291. Users." style="outline:0" transform="translate(10 99)"/><path d="M290 179.375a4 4 0 1 1 .004 0Z" class="highcharts-point highcharts-color-0" tabindex="-1" aria-label="Tuesday, Jan 2, 2018, 35.472. Users." style="outline:0" transform="translate(10 99)"/><path d="M308 158.705a4 4 0 1 1 .004 0Z" class="highcharts-point highcharts-color-0" tabindex="-1" aria-label="Wednesday, Jan 3, 2018, 38.363. Users." style="outline:0" transform="translate(10 99)"/><path d="M327 135.238a4 4 0 1 1 .004 0Z" class="highcharts-point highcharts-color-0" tabindex="-1" aria-label="Thursday, Jan 4, 2018, 41.645. Users." style="outline:0" transform="translate(10 99)"/><path d="M346 145.084a4 4 0 1 1 .004 0Z" class="highcharts-point highcharts-color-0" tabindex="-1" aria-label="Friday, Jan 5, 2018, 40.268. Users." style="outline:0" transform="translate(10 99)"/><path d="M365 198.151a4 4 0 1 1 .004 0Z" class="highcharts-point highcharts-color-0" tabindex="-1" aria-label="Saturday, Jan 6, 2018, 32.846. Users." style="outline:0" transform="translate(10 99)"/><path d="M384 193.046a4 4 0 1 1 .004 0Z" class="highcharts-point highcharts-color-0" tabindex="-1" aria-label="Sunday, Jan 7, 2018, 33.56. Users." style="outline:0" transform="translate(10 99)"/><path d="M403 151.812a4 4 0 1 1 .004 0Z" class="highcharts-point highcharts-color-0" tabindex="-1" aria-label="Monday, Jan 8, 2018, 39.327. Users." style="outline:0" transform="translate(10 99)"/><path d="M422 125.929a4 4 0 1 1 .004 0Z" class="highcharts-point highcharts-color-0" tabindex="-1" aria-label="Tuesday, Jan 9, 2018, 42.947. Users." style="outline:0" transform="translate(10 99)"/><path d="M441 117.12a4 4 0 1 1 .004 0Z" class="highcharts-point highcharts-color-0" tabindex="-1" aria-label="Wednesday, Jan 10, 2018, 44.179. Users." style="outline:0" transform="translate(10 99)"/><path d="M460 133.143a4 4 0 1 1 .004 0Z" class="highcharts-point highcharts-color-0" tabindex="-1" aria-label="Thursday, Jan 11, 2018, 41.938. Users." style="outline:0" transform="translate(10 99)"/><path d="M479 140.107a4 4 0 1 1 .004 0Z" class="highcharts-point highcharts-color-0" tabindex="-1" aria-label="Friday, Jan 12, 2018, 40.964. Users." style="outline:0" transform="translate(10 99)"/><path d="M498 202.942a4 4 0 1 1 .004 0Z" class="highcharts-point highcharts-color-0" tabindex="-1" aria-label="Saturday, Jan 13, 2018, 32.176. Users." style="outline:0" transform="translate(10 99)"/><path d="M517 226.258a4 4 0 1 1 .004 0Z" class="highcharts-point highcharts-color-0" tabindex="-1" aria-label="Sunday, Jan 14, 2018, 28.915. Users." style="outline:0" transform="translate(10 99)"/><path d="M536 167.9a4 4 0 1 1 .004 0Z" class="highcharts-point highcharts-color-0" tabindex="-1" aria-label="Monday, Jan 15, 2018, 37.077. Users." style="outline:0" transform="translate(10 99)"/><path d="M555 136.44a4 4 0 1 1 .004 0Z" class="highcharts-point highcharts-color-0" tabindex="-1" aria-label="Tuesday, Jan 16, 2018, 41.477. Users." style="outline:0" transform="translate(10 99)"/><path d="M574 133.844a4 4 0 1 1 .004 0Z" class="highcharts-point highcharts-color-0" tabindex="-1" aria-label="Wednesday, Jan 17, 2018, 41.84. Users." style="outline:0" transform="translate(10 99)"/></g><g class="highcharts-series highcharts-series-1 highcharts-line-series highcharts-color-1 popup-on-click" data-z-index=".1" clip-path="url(#a)" aria-hidden="false" tabindex="-1" aria-label="New users, line 2 of 2 with 0 data points. Y axis, values." style="outline:0" fill="none" stroke-linejoin="round" stroke-linecap="round" transform="translate(10 99)"><path d="m5.686 83.29 18.955-22.508 18.954-13.299 18.954 31.038 18.954 40.655 18.955 70.878 18.954 24.303 18.954-22.615 18.954-40.033 18.955-27.056 18.954 18.547 18.954-3.16 18.954 48.97 18.955 20.213 18.954-14.9L290 128.12l18.954-25.533 18.954-28.028 18.955 11.698 18.954 74.338 18.954-7.064 18.954-59.488 18.955-31.739 18.954-14.007 18.954 17.961 18.954 12.062 18.955 85.371 18.954 27.8 18.954-78.465 18.954-38.753 18.955-4.812" class="highcharts-graph" data-z-index="1" stroke="#434348" stroke-width="2"/><path d="m5.686 83.29 18.955-22.508 18.954-13.299 18.954 31.038 18.954 40.655 18.955 70.878 18.954 24.303 18.954-22.615 18.954-40.033 18.955-27.056 18.954 18.547 18.954-3.16 18.954 48.97 18.955 20.213 18.954-14.9L290 128.12l18.954-25.533 18.954-28.028 18.955 11.698 18.954 74.338 18.954-7.064 18.954-59.488 18.955-31.739 18.954-14.007 18.954 17.961 18.954 12.062 18.955 85.371 18.954 27.8 18.954-78.465 18.954-38.753 18.955-4.812" data-z-index="2" class="highcharts-tracker-line" stroke="rgba(192,192,192,0.0001)" stroke-width="22" style="cursor:pointer"/></g><g class="highcharts-markers highcharts-series-1 highcharts-line-series highcharts-color-1 popup-on-click highcharts-tracker" data-z-index=".1" aria-hidden="false" style="cursor:pointer;outline:0" tabindex="-1" aria-label="Sessions, line 2 of 2 with 31 data points. Y axis, values." fill="#434348" stroke="#fff"><path d="m5 79.29 4 4-4 4-4-4Z" class="highcharts-point highcharts-color-1" tabindex="-1" aria-label="Monday, Dec 18, 2017, 48.351. Sessions." style="outline:0" transform="translate(10 99)"/><path d="m24 56.782 4 4-4 4-4-4Z" class="highcharts-point highcharts-color-1" tabindex="-1" aria-label="Tuesday, Dec 19, 2017, 51.499. Sessions." style="outline:0" transform="translate(10 99)"/><path d="m43 43.483 4 4-4 4-4-4Z" class="highcharts-point highcharts-color-1" tabindex="-1" aria-label="Wednesday, Dec 20, 2017, 53.359. Sessions." style="outline:0" transform="translate(10 99)"/><path d="m62 74.521 4 4-4 4-4-4Z" class="highcharts-point highcharts-color-1" tabindex="-1" aria-label="Thursday, Dec 21, 2017, 49.018. Sessions." style="outline:0" transform="translate(10 99)"/><path d="m81 115.176 4 4-4 4-4-4Z" class="highcharts-point highcharts-color-1" tabindex="-1" aria-label="Friday, Dec 22, 2017, 43.332. Sessions." style="outline:0" transform="translate(10 99)"/><path d="m100 186.054 4 4-4 4-4-4Z" class="highcharts-point highcharts-color-1" tabindex="-1" aria-label="Saturday, Dec 23, 2017, 33.419. Sessions." style="outline:0" transform="translate(10 99)"/><path d="m119 210.357 4 4-4 4-4-4Z" class="highcharts-point highcharts-color-1" tabindex="-1" aria-label="Sunday, Dec 24, 2017, 30.02. Sessions." style="outline:0" transform="translate(10 99)"/><path d="m138 187.742 4 4-4 4-4-4Z" class="highcharts-point highcharts-color-1" tabindex="-1" aria-label="Monday, Dec 25, 2017, 33.183. Sessions." style="outline:0" transform="translate(10 99)"/><path d="m157 147.709 4 4-4 4-4-4Z" class="highcharts-point highcharts-color-1" tabindex="-1" aria-label="Tuesday, Dec 26, 2017, 38.782. Sessions." style="outline:0" transform="translate(10 99)"/><path d="m176 120.653 4 4-4 4-4-4Z" class="highcharts-point highcharts-color-1" tabindex="-1" aria-label="Wednesday, Dec 27, 2017, 42.566. Sessions." style="outline:0" transform="translate(10 99)"/><path d="m195 139.2 4 4-4 4-4-4Z" class="highcharts-point highcharts-color-1" tabindex="-1" aria-label="Thursday, Dec 28, 2017, 39.972. Sessions." style="outline:0" transform="translate(10 99)"/><path d="m214 136.04 4 4-4 4-4-4Z" class="highcharts-point highcharts-color-1" tabindex="-1" aria-label="Friday, Dec 29, 2017, 40.414. Sessions." style="outline:0" transform="translate(10 99)"/><path d="m233 185.01 4 4-4 4-4-4Z" class="highcharts-point highcharts-color-1" tabindex="-1" aria-label="Saturday, Dec 30, 2017, 33.565. Sessions." style="outline:0" transform="translate(10 99)"/><path d="m252 205.223 4 4-4 4-4-4Z" class="highcharts-point highcharts-color-1" tabindex="-1" aria-label="Sunday, Dec 31, 2017, 30.738. Sessions." style="outline:0" transform="translate(10 99)"/><path d="m271 190.323 4 4-4 4-4-4Z" class="highcharts-point highcharts-color-1" tabindex="-1" aria-label="Monday, Jan 1, 2018, 32.822. Sessions." style="outline:0" transform="translate(10 99)"/><path d="m290 124.12 4 4-4 4-4-4Z" class="highcharts-point highcharts-color-1" tabindex="-1" aria-label="Tuesday, Jan 2, 2018, 42.081. Sessions." style="outline:0" transform="translate(10 99)"/><path d="m308 98.588 4 4-4 4-4-4Z" class="highcharts-point highcharts-color-1" tabindex="-1" aria-label="Wednesday, Jan 3, 2018, 45.652. Sessions." style="outline:0" transform="translate(10 99)"/><path d="m327 70.56 4 4-4 4-4-4Z" class="highcharts-point highcharts-color-1" tabindex="-1" aria-label="Thursday, Jan 4, 2018, 49.572. Sessions." style="outline:0" transform="translate(10 99)"/><path d="m346 82.258 4 4-4 4-4-4Z" class="highcharts-point highcharts-color-1" tabindex="-1" aria-label="Friday, Jan 5, 2018, 47.936. Sessions." style="outline:0" transform="translate(10 99)"/><path d="m365 156.596 4 4-4 4-4-4Z" class="highcharts-point highcharts-color-1" tabindex="-1" aria-label="Saturday, Jan 6, 2018, 37.539. Sessions." style="outline:0" transform="translate(10 99)"/><path d="m384 149.532 4 4-4 4-4-4Z" class="highcharts-point highcharts-color-1" tabindex="-1" aria-label="Sunday, Jan 7, 2018, 38.527. Sessions." style="outline:0" transform="translate(10 99)"/><path d="m403 90.044 4 4-4 4-4-4Z" class="highcharts-point highcharts-color-1" tabindex="-1" aria-label="Monday, Jan 8, 2018, 46.847. Sessions." style="outline:0" transform="translate(10 99)"/><path d="m422 58.305 4 4-4 4-4-4Z" class="highcharts-point highcharts-color-1" tabindex="-1" aria-label="Tuesday, Jan 9, 2018, 51.286. Sessions." style="outline:0" transform="translate(10 99)"/><path d="m441 44.298 4 4-4 4-4-4Z" class="highcharts-point highcharts-color-1" tabindex="-1" aria-label="Wednesday, Jan 10, 2018, 53.245. Sessions." style="outline:0" transform="translate(10 99)"/><path d="m460 62.26 4 4-4 3.999-4-4Z" class="highcharts-point highcharts-color-1" tabindex="-1" aria-label="Thursday, Jan 11, 2018, 50.733. Sessions." style="outline:0" transform="translate(10 99)"/><path d="m479 74.321 4 4-4 4-4-4Z" class="highcharts-point highcharts-color-1" tabindex="-1" aria-label="Friday, Jan 12, 2018, 49.046. Sessions." style="outline:0" transform="translate(10 99)"/><path d="m498 159.692 4 4-4 4-4-4Z" class="highcharts-point highcharts-color-1" tabindex="-1" aria-label="Saturday, Jan 13, 2018, 37.106. Sessions." style="outline:0" transform="translate(10 99)"/><path d="m517 187.491 4 4-4 4-4-4Z" class="highcharts-point highcharts-color-1" tabindex="-1" aria-label="Sunday, Jan 14, 2018, 33.218. Sessions." style="outline:0" transform="translate(10 99)"/><path d="m536 109.027 4 4-4 4-4-4Z" class="highcharts-point highcharts-color-1" tabindex="-1" aria-label="Monday, Jan 15, 2018, 44.192. Sessions." style="outline:0" transform="translate(10 99)"/><path d="m555 70.274 4 4-4 4-4-4Z" class="highcharts-point highcharts-color-1" tabindex="-1" aria-label="Tuesday, Jan 16, 2018, 49.612. Sessions." style="outline:0" transform="translate(10 99)"/><path d="m574 65.462 4 4-4 4-4-4Z" class="highcharts-point highcharts-color-1" tabindex="-1" aria-label="Wednesday, Jan 17, 2018, 50.285. Sessions." style="outline:0" transform="translate(10 99)"/></g></g><g data-z-index="3" aria-hidden="true"><text data-z-index="1" y="12" style="color:#7cb5ec;font-weight:700;fill:#7cb5ec" transform="translate(28 232)" class="highcharts-label highcharts-series-label highcharts-series-label-0 popup-on-click highcharts-color-0">Users</text></g><g data-z-index="3" aria-hidden="true"><text data-z-index="1" y="12" style="color:#434348;font-weight:700;fill:#434348" transform="translate(527 151)" class="highcharts-label highcharts-series-label highcharts-series-label-1 popup-on-click highcharts-color-1">Sessions</text></g><text x="300" text-anchor="middle" class="highcharts-title" data-z-index="4" style="color:#333;font-size:18px;fill:#333" y="24" aria-hidden="true">Daily sessions at www.highcharts.com</text><text x="300" text-anchor="middle" class="highcharts-subtitle" data-z-index="4" style="color:#666;fill:#666" y="46" aria-hidden="true">Source: Google Analytics</text><g class="highcharts-legend highcharts-no-tooltip" data-z-index="7" transform="translate(10 61)" aria-hidden="true"><rect fill="none" class="highcharts-legend-box" rx="0" ry="0" width="166" height="26"/><g data-z-index="1"><g class="highcharts-legend-item highcharts-line-series highcharts-color-0 popup-on-click highcharts-series-0" data-z-index="1"><path fill="none" d="M8 14h16" class="highcharts-graph" stroke="#7cb5ec" stroke-width="4"/><path fill="#7cb5ec" d="M16 18a4 4 0 1 1 .004 0Z" class="highcharts-point" stroke="#fff"/><text x="21" y="15" data-z-index="2" style="color:#333;cursor:pointer;font-size:12px;font-weight:700;fill:#333" transform="translate(8 3)">Users</text></g><g class="highcharts-legend-item highcharts-line-series highcharts-color-1 popup-on-click highcharts-series-1" data-z-index="1"><path fill="none" d="M83.898 14h16" class="highcharts-graph" stroke="#434348" stroke-width="2"/><path fill="#434348" d="m91.898 10 4 4-4 4-4-4Z" class="highcharts-point" stroke="#fff"/><text x="21" y="15" data-z-index="2" style="color:#333;cursor:pointer;font-size:12px;font-weight:700;fill:#333" transform="translate(83.898 3)">Sessions</text></g></g></g><g class="highcharts-axis-labels highcharts-yaxis-labels" data-z-index="7" aria-hidden="true"><text x="13" style="color:#666;cursor:default;font-size:11px;fill:#666" y="330">30</text><text x="13" style="color:#666;cursor:default;font-size:11px;fill:#666" y="258">40</text><text x="13" style="color:#666;cursor:default;font-size:11px;fill:#666" y="187">50</text><text x="13" style="color:#666;cursor:default;font-size:11px;fill:#666" y="115">60</text></g><g class="highcharts-axis-labels highcharts-yaxis-labels" data-z-index="7" aria-hidden="true" text-anchor="end"><text x="587" style="color:#666;cursor:default;font-size:11px;fill:#666" y="330">30</text><text x="587" style="color:#666;cursor:default;font-size:11px;fill:#666" y="258">40</text><text x="587" style="color:#666;cursor:default;font-size:11px;fill:#666" y="187">50</text><text x="587" style="color:#666;cursor:default;font-size:11px;fill:#666" y="115">60</text></g><g class="highcharts-axis-labels highcharts-xaxis-labels" data-z-index="7" aria-hidden="true"><text x="18.686" style="color:#666;cursor:default;font-size:11px;fill:#666" y="382">18. Dec</text><text x="151.366" style="color:#666;cursor:default;font-size:11px;fill:#666" y="382">25. Dec</text><text x="284.046" style="color:#666;cursor:default;font-size:11px;fill:#666" y="382">1. Jan</text><text x="416.725" style="color:#666;cursor:default;font-size:11px;fill:#666" y="382">8. Jan</text><text x="549.405" style="color:#666;cursor:default;font-size:11px;fill:#666" y="382">15. Jan</text></g></svg>