<svg class="highcharts-root" style="font-family:&quot;Lucida Grande&quot;,&quot;Lucida Sans Unicode&quot;,Arial,Helvetica,sans-serif;font-size:12px" xmlns="http://www.w3.org/2000/svg" width="600" height="600" aria-label="Interactive chart" aria-hidden="false"><defs aria-hidden="true"><clipPath id="a"><path fill="none" d="M0 0h580v485H0z"/></clipPath></defs><rect fill="#fff" class="highcharts-background" width="600" height="600" rx="0" ry="0" aria-hidden="true"/><path fill="none" class="highcharts-plot-background" aria-hidden="true" d="M10 47h580v485H10z"/><path fill="none" class="highcharts-plot-border" data-z-index="1" aria-hidden="true" d="M10 47h580v485H10z"/><g class="highcharts-series-group" data-z-index="3" aria-hidden="false" fill-opacity=".5"><g class="highcharts-series highcharts-series-0 highcharts-packedbubble-series highcharts-color-0 highcharts-tracker" data-z-index=".1" clip-path="url(#a)" aria-hidden="false" tabindex="-1" aria-label="Europe, series 1 of 6 with 36 data points." style="outline:0" fill="#7cb5ec" stroke="#7cb5ec" transform="translate(10 47)"><path d="M458.128 224.053a24.5 24.5 0 1 1 .024 0Z" class="highcharts-point highcharts-color-0" tabindex="-1" aria-label="Germany, value: 767.1. Europe." style="outline:0"/><path d="M365.187 357.988a10 10 0 1 1 .01 0Z" class="highcharts-point highcharts-color-0" tabindex="-1" aria-label="Croatia, value: 20.7. Europe." style="outline:0"/><path d="M178.03 368.69a13.5 13.5 0 1 1 .013 0Z" class="highcharts-point highcharts-color-0" tabindex="-1" aria-label="Belgium, value: 97.2. Europe." style="outline:0"/><path d="M157.365 206.89a13.5 13.5 0 1 1 .014 0Z" class="highcharts-point highcharts-color-0" tabindex="-1" aria-label="Czech Republic, value: 111.7. Europe." style="outline:0"/><path d="M250.137 124.144a15 15 0 1 1 .015 0Z" class="highcharts-point highcharts-color-0" tabindex="-1" aria-label="Netherlands, value: 158.1. Europe." style="outline:0"/><path d="M369.241 126.717a17 17 0 1 1 .017 0Z" class="highcharts-point highcharts-color-0" tabindex="-1" aria-label="Spain, value: 241.6. Europe." style="outline:0"/><path d="M426.599 182.529a17 17 0 1 1 .017 0Z" class="highcharts-point highcharts-color-0" tabindex="-1" aria-label="Ukraine, value: 249.1. Europe." style="outline:0"/><path d="M443.128 342.152a18 18 0 1 1 .018 0Z" class="highcharts-point highcharts-color-0" tabindex="-1" aria-label="Poland, value: 298.1. Europe." style="outline:0"/><path d="M205.57 398.11a18.5 18.5 0 1 1 .02 0Z" class="highcharts-point highcharts-color-0" tabindex="-1" aria-label="France, value: 323.7. Europe." style="outline:0"/><path d="M182.114 309.282a12.5 12.5 0 1 1 .013 0Z" class="highcharts-point highcharts-color-0" tabindex="-1" aria-label="Romania, value: 78.3. Europe." style="outline:0"/><path d="M222.783 100.468a20 20 0 1 1 .02 0Z" class="highcharts-point highcharts-color-0" tabindex="-1" aria-label="United Kingdom, value: 415.4. Europe." style="outline:0"/><path d="M334.539 106.896a19 19 0 1 1 .019 0Z" class="highcharts-point highcharts-color-0" tabindex="-1" aria-label="Turkey, value: 353.2. Europe." style="outline:0"/><path d="M393.807 160.21a18.5 18.5 0 1 1 .018 0Z" class="highcharts-point highcharts-color-0" tabindex="-1" aria-label="Italy, value: 337.6. Europe." style="outline:0"/><path d="M407.957 335.156a12.5 12.5 0 1 1 .013 0Z" class="highcharts-point highcharts-color-0" tabindex="-1" aria-label="Greece, value: 71.1. Europe." style="outline:0"/><path d="M356.954 386.572a12.5 12.5 0 1 1 .012 0Z" class="highcharts-point highcharts-color-0" tabindex="-1" aria-label="Austria, value: 69.8. Europe." style="outline:0"/><path d="M183.671 337.74a12 12 0 1 1 .012 0Z" class="highcharts-point highcharts-color-0" tabindex="-1" aria-label="Belarus, value: 67.7. Europe." style="outline:0"/><path d="M162.211 259.28a12 12 0 1 1 .012 0Z" class="highcharts-point highcharts-color-0" tabindex="-1" aria-label="Serbia, value: 59.3. Europe." style="outline:0"/><path d="M215.145 155.213a11.5 11.5 0 1 1 .012 0Z" class="highcharts-point highcharts-color-0" tabindex="-1" aria-label="Finland, value: 54.8. Europe." style="outline:0"/><path d="M343.27 141.583a11.5 11.5 0 1 1 .012 0Z" class="highcharts-point highcharts-color-0" tabindex="-1" aria-label="Bulgaria, value: 51.2. Europe." style="outline:0"/><path d="M425.259 235.276a11.5 11.5 0 1 1 .011 0Z" class="highcharts-point highcharts-color-0" tabindex="-1" aria-label="Portugal, value: 48.3. Europe." style="outline:0"/><path d="M380.602 330.401a11 11 0 1 1 .01 0Z" class="highcharts-point highcharts-color-0" tabindex="-1" aria-label="Norway, value: 44.4. Europe." style="outline:0"/><path d="M204.764 354.148a11 11 0 1 1 .011 0Z" class="highcharts-point highcharts-color-0" tabindex="-1" aria-label="Sweden, value: 44.3. Europe." style="outline:0"/><path d="M158.393 175.228a11 11 0 1 1 .01 0Z" class="highcharts-point highcharts-color-0" tabindex="-1" aria-label="Hungary, value: 43.7. Europe." style="outline:0"/><path d="M243.325 168.874a11 11 0 1 1 .011 0Z" class="highcharts-point highcharts-color-0" tabindex="-1" aria-label="Switzerland, value: 40.2. Europe." style="outline:0"/><path d="M361.349 161.629a11 11 0 1 1 .011 0Z" class="highcharts-point highcharts-color-0" tabindex="-1" aria-label="Denmark, value: 40. Europe." style="outline:0"/><path d="M398.772 236.21a10.5 10.5 0 1 1 .01 0Z" class="highcharts-point highcharts-color-0" tabindex="-1" aria-label="Slovakia, value: 34.7. Europe." style="outline:0"/><path d="M356.182 335.737a10.5 10.5 0 1 1 .01 0Z" class="highcharts-point highcharts-color-0" tabindex="-1" aria-label="Ireland, value: 34.6. Europe." style="outline:0"/><path d="M204.83 321.573a10 10 0 1 1 .01 0Z" class="highcharts-point highcharts-color-0" tabindex="-1" aria-label="Croatia, value: 20.7. Europe." style="outline:0"/><path d="M192.05 281.588a10 10 0 1 1 .01 0Z" class="highcharts-point highcharts-color-0" tabindex="-1" aria-label="Estonia, value: 19.4. Europe." style="outline:0"/><path d="M222.473 128.486a9.5 9.5 0 1 1 .01 0Z" class="highcharts-point highcharts-color-0" tabindex="-1" aria-label="Slovenia, value: 16.7. Europe." style="outline:0"/><path d="M321.846 126.777a9 9 0 1 1 .01 0Z" class="highcharts-point highcharts-color-0" tabindex="-1" aria-label="Lithuania, value: 12.3. Europe." style="outline:0"/><path d="M338.554 162.982a9 9 0 1 1 .009 0Z" class="highcharts-point highcharts-color-0" tabindex="-1" aria-label="Luxembourg, value: 10.4. Europe." style="outline:0"/><path d="M382.554 251.547a9 9 0 1 1 .01 0Z" class="highcharts-point highcharts-color-0" tabindex="-1" aria-label="Macedonia, value: 9.5. Europe." style="outline:0"/><path d="M361.99 312.452a9 9 0 1 1 .01 0Z" class="highcharts-point highcharts-color-0" tabindex="-1" aria-label="Moldova, value: 7.8. Europe." style="outline:0"/><path d="M243.131 283.056a8.5 8.5 0 1 1 .009 0Z" class="highcharts-point highcharts-color-0" tabindex="-1" aria-label="Latvia, value: 7.5. Europe." style="outline:0"/><path d="M258.37 208.348a8.5 8.5 0 1 1 .009 0Z" class="highcharts-point highcharts-color-0" tabindex="-1" aria-label="Cyprus, value: 7.2. Europe." style="outline:0"/></g><g class="highcharts-series highcharts-series-1 highcharts-packedbubble-series highcharts-color-1 highcharts-tracker" data-z-index=".1" clip-path="url(#a)" aria-hidden="false" tabindex="-1" aria-label="Africa, series 2 of 6 with 17 data points." style="outline:0" fill="#434348" stroke="#434348" transform="translate(10 47)"><path d="M264.314 370.017a9 9 0 1 1 .009 0Z" class="highcharts-point highcharts-color-1" tabindex="-1" aria-label="Senegal, value: 8.2. Africa." style="outline:0"/><path d="M331.543 390.704a9 9 0 1 1 .01 0Z" class="highcharts-point highcharts-color-1" tabindex="-1" aria-label="Cameroon, value: 9.2. Africa." style="outline:0"/><path d="M261.243 347.359a9.5 9.5 0 1 1 .01 0Z" class="highcharts-point highcharts-color-1" tabindex="-1" aria-label="Zimbabwe, value: 13.1. Africa." style="outline:0"/><path d="M188.079 258.194a9.5 9.5 0 1 1 .01 0Z" class="highcharts-point highcharts-color-1" tabindex="-1" aria-label="Ghana, value: 14.1. Africa." style="outline:0"/><path d="M246.73 191.754a9.5 9.5 0 1 1 .01 0Z" class="highcharts-point highcharts-color-1" tabindex="-1" aria-label="Kenya, value: 14.1. Africa." style="outline:0"/><path d="M300.827 118.826a9.5 9.5 0 1 1 .01 0Z" class="highcharts-point highcharts-color-1" tabindex="-1" aria-label="Sudan, value: 17.3. Africa." style="outline:0"/><path d="M373.876 182.726a10 10 0 1 1 .01 0Z" class="highcharts-point highcharts-color-1" tabindex="-1" aria-label="Tunisia, value: 24.3. Africa." style="outline:0"/><path d="M385.762 304.409a10 10 0 1 1 .01 0Z" class="highcharts-point highcharts-color-1" tabindex="-1" aria-label="Angola, value: 25. Africa." style="outline:0"/><path d="M281.326 302.507a11.5 11.5 0 1 1 .011 0Z" class="highcharts-point highcharts-color-1" tabindex="-1" aria-label="Libya, value: 50.6. Africa." style="outline:0"/><path d="M258.17 296.632a8.5 8.5 0 1 1 .008 0Z" class="highcharts-point highcharts-color-1" tabindex="-1" aria-label="Ivory Coast, value: 7.3. Africa." style="outline:0"/><path d="M186.922 200.777a12 12 0 1 1 .012 0Z" class="highcharts-point highcharts-color-1" tabindex="-1" aria-label="Morocco, value: 60.7. Africa." style="outline:0"/><path d="M278.104 123.32a9 9 0 1 1 .01 0Z" class="highcharts-point highcharts-color-1" tabindex="-1" aria-label="Ethiopia, value: 8.9. Africa." style="outline:0"/><path d="M397.159 182.288a9 9 0 1 1 .009 0Z" class="highcharts-point highcharts-color-1" tabindex="-1" aria-label="United Republic of Tanzania, value: 9.1. Africa." style="outline:0"/><path d="M412.41 262.738a13 13 0 1 1 .013 0Z" class="highcharts-point highcharts-color-1" tabindex="-1" aria-label="Nigeria, value: 93.9. Africa." style="outline:0"/><path d="M327.113 434.149a19.5 19.5 0 1 1 .02 0Z" class="highcharts-point highcharts-color-1" tabindex="-1" aria-label="South Africa, value: 392.7. Africa." style="outline:0"/><path d="M235.156 369.7a16.5 16.5 0 1 1 .016 0Z" class="highcharts-point highcharts-color-1" tabindex="-1" aria-label="Egypt, value: 225.1. Africa." style="outline:0"/><path d="M187.637 172.28a14.5 14.5 0 1 1 .015 0Z" class="highcharts-point highcharts-color-1" tabindex="-1" aria-label="Algeria, value: 141.5. Africa." style="outline:0"/></g><g class="highcharts-series highcharts-series-2 highcharts-packedbubble-series highcharts-color-2 highcharts-tracker" data-z-index=".1" clip-path="url(#a)" aria-hidden="false" tabindex="-1" aria-label="Oceania, series 3 of 6 with 3 data points." style="outline:0" fill="#90ed7d" stroke="#90ed7d" transform="translate(10 47)"><path d="M134.022 243.66a20 20 0 1 1 .02 0Z" class="highcharts-point highcharts-color-2" tabindex="-1" aria-label="Australia, value: 409.4. Oceania." style="outline:0"/><path d="M335.133 322.714a10.5 10.5 0 1 1 .01 0Z" class="highcharts-point highcharts-color-2" tabindex="-1" aria-label="New Zealand, value: 34.1. Oceania." style="outline:0"/><path d="M222.183 335.195a8.5 8.5 0 1 1 .009 0Z" class="highcharts-point highcharts-color-2" tabindex="-1" aria-label="Papua New Guinea, value: 7.1. Oceania." style="outline:0"/></g><g class="highcharts-series highcharts-series-3 highcharts-packedbubble-series highcharts-color-3 highcharts-tracker" data-z-index=".1" clip-path="url(#a)" aria-hidden="false" tabindex="-1" aria-label="North America, series 4 of 6 with 10 data points." style="outline:0" fill="#f7a35c" stroke="#f7a35c" transform="translate(10 47)"><path d="M222.26 281.34a8.5 8.5 0 1 1 .008 0Z" class="highcharts-point highcharts-color-3" tabindex="-1" aria-label="Costa Rica, value: 7.6. North America." style="outline:0"/><path d="M299.418 342.249a9 9 0 1 1 .01 0Z" class="highcharts-point highcharts-color-3" tabindex="-1" aria-label="Honduras, value: 8.4. North America." style="outline:0"/><path d="M279.467 333.931a9 9 0 1 1 .009 0Z" class="highcharts-point highcharts-color-3" tabindex="-1" aria-label="Jamaica, value: 8.3. North America." style="outline:0"/><path d="M206.788 297.203a9 9 0 1 1 .009 0Z" class="highcharts-point highcharts-color-3" tabindex="-1" aria-label="Panama, value: 10.2. North America." style="outline:0"/><path d="M238.52 144.012a9 9 0 1 1 .009 0Z" class="highcharts-point highcharts-color-3" tabindex="-1" aria-label="Guatemala, value: 12. North America." style="outline:0"/><path d="M292.99 141.682a10 10 0 1 1 .01 0Z" class="highcharts-point highcharts-color-3" tabindex="-1" aria-label="Dominican Republic, value: 23.4. North America." style="outline:0"/><path d="M348.536 184.085a10.5 10.5 0 1 1 .01 0Z" class="highcharts-point highcharts-color-3" tabindex="-1" aria-label="Cuba, value: 30.2. North America." style="outline:0"/><path d="M402.554 393.64a27 27 0 1 1 .027 0Z" class="highcharts-point highcharts-color-3" tabindex="-1" aria-label="USA, value: 5,334.5. North America." style="outline:0"/><path d="M282.484 450.004a22 22 0 1 1 .022 0Z" class="highcharts-point highcharts-color-3" tabindex="-1" aria-label="Canada, value: 566. North America." style="outline:0"/><path d="M131.888 289.42a20.5 20.5 0 1 1 .02 0Z" class="highcharts-point highcharts-color-3" tabindex="-1" aria-label="Mexico, value: 456.3. North America." style="outline:0"/></g><g class="highcharts-series highcharts-series-4 highcharts-packedbubble-series highcharts-color-4 highcharts-tracker" data-z-index=".1" clip-path="url(#a)" aria-hidden="false" tabindex="-1" aria-label="South America, series 5 of 6 with 11 data points." style="outline:0" fill="#8085e9" stroke="#8085e9" transform="translate(10 47)"><path d="M228.066 228.71a8.5 8.5 0 1 1 .008 0Z" class="highcharts-point highcharts-color-4" tabindex="-1" aria-label="El Salvador, value: 7.2. South America." style="outline:0"/><path d="M294.47 320.099a9 9 0 1 1 .01 0Z" class="highcharts-point highcharts-color-4" tabindex="-1" aria-label="Uruguay, value: 8.1. South America." style="outline:0"/><path d="M282.36 356.264a9.5 9.5 0 1 1 .01 0Z" class="highcharts-point highcharts-color-4" tabindex="-1" aria-label="Bolivia, value: 17.8. South America." style="outline:0"/><path d="M167.4 284.076a10.5 10.5 0 1 1 .01 0Z" class="highcharts-point highcharts-color-4" tabindex="-1" aria-label="Trinidad and Tobago, value: 34. South America." style="outline:0"/><path d="M208.142 217.76a11 11 0 1 1 .011 0Z" class="highcharts-point highcharts-color-4" tabindex="-1" aria-label="Ecuador, value: 43. South America." style="outline:0"/><path d="M317.244 155.17a12.5 12.5 0 1 1 .013 0Z" class="highcharts-point highcharts-color-4" tabindex="-1" aria-label="Chile, value: 78.6. South America." style="outline:0"/><path d="M417.48 208.915a11.5 11.5 0 1 1 .01 0Z" class="highcharts-point highcharts-color-4" tabindex="-1" aria-label="Peru, value: 52. South America." style="outline:0"/><path d="M364.212 291.051a12.5 12.5 0 1 1 .013 0Z" class="highcharts-point highcharts-color-4" tabindex="-1" aria-label="Colombia, value: 74.1. South America." style="outline:0"/><path d="M248.246 415.152a21.5 21.5 0 1 1 .021 0Z" class="highcharts-point highcharts-color-4" tabindex="-1" aria-label="Brazil, value: 501.1. South America." style="outline:0"/><path d="M232.348 315.75a16 16 0 1 1 .016 0Z" class="highcharts-point highcharts-color-4" tabindex="-1" aria-label="Argentina, value: 199. South America." style="outline:0"/><path d="M179.045 235.788a16 16 0 1 1 .016 0Z" class="highcharts-point highcharts-color-4" tabindex="-1" aria-label="Venezuela, value: 195.2. South America." style="outline:0"/></g><g class="highcharts-series highcharts-series-5 highcharts-packedbubble-series highcharts-color-5 highcharts-tracker" data-z-index=".1" clip-path="url(#a)" aria-hidden="false" tabindex="-1" aria-label="Asia, series 6 of 6 with 40 data points." style="outline:0" fill="#f15c80" stroke="#f15c80" transform="translate(10 47)"><path d="M263.132 179.347a8.5 8.5 0 1 1 .008 0Z" class="highcharts-point highcharts-color-5" tabindex="-1" aria-label="Nepal, value: 6.5. Asia." style="outline:0"/><path d="M313.592 326.366a8.5 8.5 0 1 1 .008 0Z" class="highcharts-point highcharts-color-5" tabindex="-1" aria-label="Georgia, value: 6.5. Asia." style="outline:0"/><path d="M243.254 333.81a8.5 8.5 0 1 1 .008 0Z" class="highcharts-point highcharts-color-5" tabindex="-1" aria-label="Brunei Darussalam, value: 7.4. Asia." style="outline:0"/><path d="M209.418 265.55a8.5 8.5 0 1 1 .008 0Z" class="highcharts-point highcharts-color-5" tabindex="-1" aria-label="Kyrgyzstan, value: 7.4. Asia." style="outline:0"/><path d="M275.895 197.994a9 9 0 1 1 .009 0Z" class="highcharts-point highcharts-color-5" tabindex="-1" aria-label="Afghanistan, value: 7.9. Asia." style="outline:0"/><path d="M342.91 300.808a9 9 0 1 1 .008 0Z" class="highcharts-point highcharts-color-5" tabindex="-1" aria-label="Myanmar, value: 9.1. Asia." style="outline:0"/><path d="M235.767 210.91a9.5 9.5 0 1 1 .01 0Z" class="highcharts-point highcharts-color-5" tabindex="-1" aria-label="Mongolia, value: 14.7. Asia." style="outline:0"/><path d="M312.614 268.764a9.5 9.5 0 1 1 .01 0Z" class="highcharts-point highcharts-color-5" tabindex="-1" aria-label="Sri Lanka, value: 16.6. Asia." style="outline:0"/><path d="M361.284 203.091a10 10 0 1 1 .01 0Z" class="highcharts-point highcharts-color-5" tabindex="-1" aria-label="Bahrain, value: 20.5. Asia." style="outline:0"/><path d="M306.292 229.92a10 10 0 1 1 .01 0Z" class="highcharts-point highcharts-color-5" tabindex="-1" aria-label="Yemen, value: 22.6. Asia." style="outline:0"/><path d="M292.52 278.682a10 10 0 1 1 .01 0Z" class="highcharts-point highcharts-color-5" tabindex="-1" aria-label="Jordan, value: 22.3. Asia." style="outline:0"/><path d="M266.53 248.784a10 10 0 1 1 .01 0Z" class="highcharts-point highcharts-color-5" tabindex="-1" aria-label="Lebanon, value: 21.1. Asia." style="outline:0"/><path d="M251.081 230.904a10.5 10.5 0 1 1 .01 0Z" class="highcharts-point highcharts-color-5" tabindex="-1" aria-label="Azerbaijan, value: 31.7. Asia." style="outline:0"/><path d="M359.543 262.883a11.5 11.5 0 1 1 .012 0Z" class="highcharts-point highcharts-color-5" tabindex="-1" aria-label="Singapore, value: 47.8. Asia." style="outline:0"/><path d="M261.944 322.311a11.5 11.5 0 1 1 .011 0Z" class="highcharts-point highcharts-color-5" tabindex="-1" aria-label="Hong Kong, value: 49.9. Asia." style="outline:0"/><path d="M300.122 206.276a11.5 11.5 0 1 1 .012 0Z" class="highcharts-point highcharts-color-5" tabindex="-1" aria-label="Syria, value: 52.7. Asia." style="outline:0"/><path d="M208.032 245.197a12 12 0 1 1 .012 0Z" class="highcharts-point highcharts-color-5" tabindex="-1" aria-label="DPR Korea, value: 59.9. Asia." style="outline:0"/><path d="M321.534 183.695a12 12 0 1 1 .012 0Z" class="highcharts-point highcharts-color-5" tabindex="-1" aria-label="Israel, value: 64.8. Asia." style="outline:0"/><path d="M292.672 254.958a12.5 12.5 0 1 1 .013 0Z" class="highcharts-point highcharts-color-5" tabindex="-1" aria-label="Turkmenistan, value: 70.6. Asia." style="outline:0"/><path d="M389.033 279.808a12.5 12.5 0 1 1 .012 0Z" class="highcharts-point highcharts-color-5" tabindex="-1" aria-label="Oman, value: 74.3. Asia." style="outline:0"/><path d="M336.97 280.727a13 13 0 1 1 .013 0Z" class="highcharts-point highcharts-color-5" tabindex="-1" aria-label="Qatar, value: 88.8. Asia." style="outline:0"/><path d="M267.138 278.139a13.5 13.5 0 1 1 .013 0Z" class="highcharts-point highcharts-color-5" tabindex="-1" aria-label="Philippines, value: 96.9. Asia." style="outline:0"/><path d="M279.417 228.803a13.5 13.5 0 1 1 .013 0Z" class="highcharts-point highcharts-color-5" tabindex="-1" aria-label="Kuwait, value: 98.6. Asia." style="outline:0"/><path d="M265.44 152.975a14 14 0 1 1 .013 0Z" class="highcharts-point highcharts-color-5" tabindex="-1" aria-label="Uzbekistan, value: 122.6. Asia." style="outline:0"/><path d="M387.878 213.347a14.5 14.5 0 1 1 .014 0Z" class="highcharts-point highcharts-color-5" tabindex="-1" aria-label="Iraq, value: 139.9. Asia." style="outline:0"/><path d="M363.295 236.693a15 15 0 1 1 .015 0Z" class="highcharts-point highcharts-color-5" tabindex="-1" aria-label="Pakistan, value: 158.1. Asia." style="outline:0"/><path d="M331.246 252.903a16 16 0 1 1 .016 0Z" class="highcharts-point highcharts-color-5" tabindex="-1" aria-label="Vietnam, value: 190.2. Asia." style="outline:0"/><path d="M313.552 305.486a16 16 0 1 1 .016 0Z" class="highcharts-point highcharts-color-5" tabindex="-1" aria-label="United Arab Emirates, value: 201.1. Asia." style="outline:0"/><path d="M237.086 263.77a16.5 16.5 0 1 1 .016 0Z" class="highcharts-point highcharts-color-5" tabindex="-1" aria-label="Malaysia, value: 227.5. Asia." style="outline:0"/><path d="M217.499 193.654a17 17 0 1 1 .017 0Z" class="highcharts-point highcharts-color-5" tabindex="-1" aria-label="Kazakhstan, value: 236.2. Asia." style="outline:0"/><path d="M290.835 180.761a17.5 17.5 0 1 1 .017 0Z" class="highcharts-point highcharts-color-5" tabindex="-1" aria-label="Thailand, value: 272. Asia." style="outline:0"/><path d="M332.046 219.165a17.5 17.5 0 1 1 .017 0Z" class="highcharts-point highcharts-color-5" tabindex="-1" aria-label="Taiwan, value: 276.7. Asia." style="outline:0"/><path d="M420.465 307.757a20.5 20.5 0 1 1 .02 0Z" class="highcharts-point highcharts-color-5" tabindex="-1" aria-label="Indonesia, value: 453. Asia." style="outline:0"/><path d="M329.474 368.699a21 21 0 1 1 .021 0Z" class="highcharts-point highcharts-color-5" tabindex="-1" aria-label="Saudi Arabia, value: 494.8. Asia." style="outline:0"/><path d="M140.245 347.598a27 27 0 1 1 .027 0Z" class="highcharts-point highcharts-color-5" tabindex="-1" aria-label="Japan, value: 1,278.9. Asia." style="outline:0"/><path d="M181.605 139.095a27 27 0 1 1 .027 0Z" class="highcharts-point highcharts-color-5" tabindex="-1" aria-label="China, value: 10,540.8. Asia." style="outline:0"/><path d="M280.55 100.415a27 27 0 1 1 .027 0Z" class="highcharts-point highcharts-color-5" tabindex="-1" aria-label="India, value: 2,341.9. Asia." style="outline:0"/><path d="M437.992 144.874a27 27 0 1 1 .027 0Z" class="highcharts-point highcharts-color-5" tabindex="-1" aria-label="Russia, value: 1,766.4. Asia." style="outline:0"/><path d="M453.119 274.733a23 23 0 1 1 .023 0Z" class="highcharts-point highcharts-color-5" tabindex="-1" aria-label="Iran, value: 618.2. Asia." style="outline:0"/><path d="M295.074 403.11a22.5 22.5 0 1 1 .023 0Z" class="highcharts-point highcharts-color-5" tabindex="-1" aria-label="Korea, value: 610.1. Asia." style="outline:0"/></g></g><text x="300" text-anchor="middle" class="highcharts-title" data-z-index="4" style="color:#333;font-size:18px;fill:#333" y="24" aria-hidden="true">Carbon emissions around the world (2014)</text><g class="highcharts-data-labels highcharts-series-0 highcharts-packedbubble-series highcharts-color-0 highcharts-tracker" data-z-index="6" aria-hidden="true"><g style="transition:opacity 2000ms ease 0s"><text data-z-index="1" y="11" style="color:#000;font-size:11px;font-weight:400;fill:#000" transform="translate(444 241)" class="highcharts-label highcharts-data-label highcharts-data-label-color-0">Germany</text></g><g style="transition:opacity 2000ms ease 0s"><text data-z-index="1" y="11" style="color:#000;font-size:11px;font-weight:400;fill:#000" transform="translate(435 365)" class="highcharts-label highcharts-data-label highcharts-data-label-color-0">Poland</text></g><g style="transition:opacity 2000ms ease 0s;pointer-events:auto"><text data-z-index="1" y="11" style="color:#000;font-size:11px;font-weight:400;fill:#000" transform="translate(198 421)" class="highcharts-label highcharts-data-label highcharts-data-label-color-0">France</text></g><g style="transition:opacity 2000ms ease 0s;pointer-events:auto"><text data-z-index="1" y="11" style="color:#000;font-size:11px;font-weight:400;fill:#000" transform="translate(190 121)" class="highcharts-label highcharts-data-label highcharts-data-label-color-0">United Kingdom</text></g><g style="transition:opacity 2000ms ease 0s"><text data-z-index="1" y="11" style="color:#000;font-size:11px;font-weight:400;fill:#000" transform="translate(326 129)" class="highcharts-label highcharts-data-label highcharts-data-label-color-0">Turkey</text></g><g style="transition:opacity 2000ms ease 0s;pointer-events:auto"><text data-z-index="1" y="11" style="color:#000;font-size:11px;font-weight:400;fill:#000" transform="translate(393 183)" class="highcharts-label highcharts-data-label highcharts-data-label-color-0">Italy</text></g></g><g style="transition:opacity 2000ms ease 0s" class="highcharts-data-labels highcharts-series-1 highcharts-packedbubble-series highcharts-color-1 highcharts-tracker" data-z-index="6" aria-hidden="true"><text data-z-index="1" y="11" style="color:#000;font-size:11px;font-weight:400;fill:#000" transform="translate(305 456)" class="highcharts-label highcharts-data-label highcharts-data-label-color-1">South Africa</text></g><g style="transition:opacity 2000ms ease 0s" class="highcharts-data-labels highcharts-series-2 highcharts-packedbubble-series highcharts-color-2 highcharts-tracker" data-z-index="6" aria-hidden="true"><text data-z-index="1" y="11" style="color:#000;font-size:11px;font-weight:400;fill:#000" transform="translate(120 265)" class="highcharts-label highcharts-data-label highcharts-data-label-color-2">Australia</text></g><g class="highcharts-data-labels highcharts-series-3 highcharts-packedbubble-series highcharts-color-3 highcharts-tracker" data-z-index="6" aria-hidden="true"><g style="transition:opacity 2000ms ease 0s"><text data-z-index="1" y="11" style="color:#000;font-size:11px;font-weight:400;fill:#000" transform="translate(402 408)" class="highcharts-label highcharts-data-label highcharts-data-label-color-3">USA</text></g><g style="transition:opacity 2000ms ease 0s;pointer-events:auto"><text data-z-index="1" y="11" style="color:#000;font-size:11px;font-weight:400;fill:#000" transform="translate(273 469)" class="highcharts-label highcharts-data-label highcharts-data-label-color-3">Canada</text></g><g style="transition:opacity 2000ms ease 0s"><text data-z-index="1" y="11" style="color:#000;font-size:11px;font-weight:400;fill:#000" transform="translate(123 310)" class="highcharts-label highcharts-data-label highcharts-data-label-color-3">Mexico</text></g></g><g style="transition:opacity 2000ms ease 0s" class="highcharts-data-labels highcharts-series-4 highcharts-packedbubble-series highcharts-color-4 highcharts-tracker" data-z-index="6" aria-hidden="true"><text data-z-index="1" y="11" style="color:#000;font-size:11px;font-weight:400;fill:#000" transform="translate(243 435)" class="highcharts-label highcharts-data-label highcharts-data-label-color-4">Brazil</text></g><g class="highcharts-data-labels highcharts-series-5 highcharts-packedbubble-series highcharts-color-5 highcharts-tracker" data-z-index="6" aria-hidden="true"><g style="transition:opacity 2000ms ease 0s"><text data-z-index="1" y="11" style="color:#000;font-size:11px;font-weight:400;fill:#000" transform="translate(278 204)" class="highcharts-label highcharts-data-label highcharts-data-label-color-5">Thailand</text></g><g style="transition:opacity 2000ms ease 0s;pointer-events:auto"><text data-z-index="1" y="11" style="color:#000;font-size:11px;font-weight:400;fill:#000" transform="translate(323 243)" class="highcharts-label highcharts-data-label highcharts-data-label-color-5">Taiwan</text></g><g style="transition:opacity 2000ms ease 0s"><text data-z-index="1" y="11" style="color:#000;font-size:11px;font-weight:400;fill:#000" transform="translate(405 328)" class="highcharts-label highcharts-data-label highcharts-data-label-color-5">Indonesia</text></g><g style="transition:opacity 2000ms ease 0s;pointer-events:auto"><text data-z-index="1" y="11" style="color:#000;font-size:11px;font-weight:400;fill:#000" transform="translate(306 389)" class="highcharts-label highcharts-data-label highcharts-data-label-color-5">Saudi Arabia</text></g><g style="transition:opacity 2000ms ease 0s;pointer-events:auto"><text data-z-index="1" y="11" style="color:#000;font-size:11px;font-weight:400;fill:#000" transform="translate(135 362)" class="highcharts-label highcharts-data-label highcharts-data-label-color-5">Japan</text></g><g style="transition:opacity 2000ms ease 0s;pointer-events:auto"><text data-z-index="1" y="11" style="color:#000;font-size:11px;font-weight:400;fill:#000" transform="translate(176 153)" class="highcharts-label highcharts-data-label highcharts-data-label-color-5">China</text></g><g style="transition:opacity 2000ms ease 0s;pointer-events:auto"><text data-z-index="1" y="11" style="color:#000;font-size:11px;font-weight:400;fill:#000" transform="translate(277 114)" class="highcharts-label highcharts-data-label highcharts-data-label-color-5">India</text></g><g style="transition:opacity 2000ms ease 0s;pointer-events:auto"><text data-z-index="1" y="11" style="color:#000;font-size:11px;font-weight:400;fill:#000" transform="translate(431 159)" class="highcharts-label highcharts-data-label highcharts-data-label-color-5">Russia</text></g><g style="transition:opacity 2000ms ease 0s;pointer-events:auto"><text data-z-index="1" y="11" style="color:#000;font-size:11px;font-weight:400;fill:#000" transform="translate(453 293)" class="highcharts-label highcharts-data-label highcharts-data-label-color-5">Iran</text></g><g style="transition:opacity 2000ms ease 0s;pointer-events:auto"><text data-z-index="1" y="11" style="color:#000;font-size:11px;font-weight:400;fill:#000" transform="translate(290 422)" class="highcharts-label highcharts-data-label highcharts-data-label-color-5">Korea</text></g></g><g class="highcharts-legend highcharts-no-tooltip" data-z-index="7" transform="translate(41 544)" aria-hidden="true"><rect fill="none" class="highcharts-legend-box" rx="0" ry="0" width="517" height="41"/><g data-z-index="1"><g class="highcharts-legend-item highcharts-packedbubble-series highcharts-color-0 highcharts-series-0" data-z-index="1"><path fill="none" d="M8 14h16" class="highcharts-graph"/><path fill="#7cb5ec" d="M16 20a6 6 0 1 1 .006 0Z" class="highcharts-point" stroke="#7cb5ec" fill-opacity=".5"/><text x="21" data-z-index="2" y="15" style="color:#333;cursor:pointer;font-size:12px;font-weight:700;fill:#333" transform="translate(8 3)">Europe</text></g><g class="highcharts-legend-item highcharts-packedbubble-series highcharts-color-1 highcharts-series-1" data-z-index="1"><path fill="none" d="M138.406 14h16" class="highcharts-graph"/><path fill="#434348" d="M146.406 20a6 6 0 1 1 .006 0Z" class="highcharts-point" stroke="#434348" fill-opacity=".5"/><text x="21" y="15" data-z-index="2" style="color:#333;cursor:pointer;font-size:12px;font-weight:700;fill:#333" transform="translate(138.406 3)">Africa</text></g><g class="highcharts-legend-item highcharts-packedbubble-series highcharts-color-2 highcharts-series-2" data-z-index="1"><path fill="none" d="M268.813 14h16" class="highcharts-graph"/><path fill="#90ed7d" d="M276.813 20a6 6 0 1 1 .005 0Z" class="highcharts-point" stroke="#90ed7d" fill-opacity=".5"/><text x="21" y="15" data-z-index="2" style="color:#333;cursor:pointer;font-size:12px;font-weight:700;fill:#333" transform="translate(268.813 3)">Oceania</text></g><g class="highcharts-legend-item highcharts-packedbubble-series highcharts-color-3 highcharts-series-3" data-z-index="1"><path fill="none" d="M399.219 14h16" class="highcharts-graph"/><path fill="#f7a35c" d="M407.219 20a6 6 0 1 1 .006 0Z" class="highcharts-point" stroke="#f7a35c" fill-opacity=".5"/><text x="21" y="15" data-z-index="2" style="color:#333;cursor:pointer;font-size:12px;font-weight:700;fill:#333" transform="translate(399.219 3)">North America</text></g><g class="highcharts-legend-item highcharts-packedbubble-series highcharts-color-4 highcharts-series-4" data-z-index="1"><path fill="none" d="M8 29h16" class="highcharts-graph"/><path fill="#8085e9" d="M16 35a6 6 0 1 1 .006 0Z" class="highcharts-point" stroke="#8085e9" fill-opacity=".5"/><text x="21" y="15" data-z-index="2" style="color:#333;cursor:pointer;font-size:12px;font-weight:700;fill:#333" transform="translate(8 18)">South America</text></g><g class="highcharts-legend-item highcharts-packedbubble-series highcharts-color-5 highcharts-series-5" data-z-index="1"><path fill="none" d="M138.406 29h16" class="highcharts-graph"/><path fill="#f15c80" d="M146.406 35a6 6 0 1 1 .006 0Z" class="highcharts-point" stroke="#f15c80" fill-opacity=".5"/><text x="21" y="15" data-z-index="2" style="color:#333;cursor:pointer;font-size:12px;font-weight:700;fill:#333" transform="translate(138.406 18)">Asia</text></g></g></g></svg>