<svg class="highcharts-root" style="font-family:&quot;Lucida Grande&quot;,&quot;Lucida Sans Unicode&quot;,Arial,Helvetica,sans-serif;font-size:12px" xmlns="http://www.w3.org/2000/svg" width="600" height="400" aria-label="Interactive chart" aria-hidden="false"><defs aria-hidden="true"><clipPath id="b"><path fill="none" d="M0 0h501v220H0z"/></clipPath><clipPath id="a"><path fill="none" d="M0 0h501v220H0z"/></clipPath></defs><rect fill="#fff" class="highcharts-background" width="600" height="400" rx="0" ry="0" aria-hidden="true"/><path fill="none" class="highcharts-plot-background" aria-hidden="true" d="M46 47h501v220H46z"/><g class="highcharts-grid highcharts-xaxis-grid" data-z-index="1" aria-hidden="true" fill="none"><path data-z-index="1" class="highcharts-grid-line" d="M108.5 47v220m62-220v220m63-220v220m63-220v220m62-220v220m63-220v220m62-220v220m63-220v220M45.5 47v220"/></g><g class="highcharts-grid highcharts-yaxis-grid" data-z-index="1" aria-hidden="true" fill="none" stroke="#e6e6e6"><path data-z-index="1" class="highcharts-grid-line" d="M46 267.5h501m-501-55h501m-501-55h501m-501-55h501m-501-56h501"/></g><g class="highcharts-grid highcharts-yaxis-grid" data-z-index="1" aria-hidden="true" fill="none" stroke="#e6e6e6"><path data-z-index="1" class="highcharts-grid-line" d="M46 267.5h501m-501-55h501m-501-55h501m-501-55h501m-501-56h501"/></g><path fill="none" class="highcharts-plot-border" data-z-index="1" aria-hidden="true" d="M46 47h501v220H46z"/><g class="highcharts-axis highcharts-xaxis" data-z-index="2" aria-hidden="true"><path fill="none" class="highcharts-axis-line" stroke="#ccd6eb" data-z-index="7" d="M46 267.5h501"/></g><g class="highcharts-axis highcharts-yaxis" data-z-index="2" aria-hidden="true"><path fill="none" class="highcharts-axis-line" data-z-index="7" d="M46 47v220"/></g><g class="highcharts-axis highcharts-yaxis" data-z-index="2" aria-hidden="true"><path fill="none" class="highcharts-axis-line" data-z-index="7" d="M547 47v220"/></g><g class="highcharts-series-group" data-z-index="3" aria-hidden="false"><g class="highcharts-series highcharts-series-1 highcharts-column-series highcharts-color-1 highcharts-tracker" data-z-index="2" clip-path="url(#a)" aria-hidden="false" tabindex="-1" aria-label="Complaints, series 2 of 2. Bar series with 8 bars. Y axis, values." style="outline:0" fill="#434348" stroke="#fff" transform="translate(46 47)"><path class="highcharts-point highcharts-color-1" tabindex="-1" aria-label="Overpriced, 755. Complaints." style="outline:0" d="M15.5 12.5h31v208h-31z"/><path class="highcharts-point highcharts-color-1" tabindex="-1" aria-label="Small portions, 222. Complaints." style="outline:0" d="M78.5 159.5h31v61h-31z"/><path class="highcharts-point highcharts-color-1" tabindex="-1" aria-label="Wait time, 151. Complaints." style="outline:0" d="M141.5 178.5h31v42h-31z"/><path class="highcharts-point highcharts-color-1" tabindex="-1" aria-label="Food is tasteless, 86. Complaints." style="outline:0" d="M203.5 196.5h31v24h-31z"/><path class="highcharts-point highcharts-color-1" tabindex="-1" aria-label="No atmosphere, 72. Complaints." style="outline:0" d="M266.5 200.5h31v20h-31z"/><path class="highcharts-point highcharts-color-1" tabindex="-1" aria-label="Not clean, 51. Complaints." style="outline:0" d="M328.5 206.5h31v14h-31z"/><path class="highcharts-point highcharts-color-1" tabindex="-1" aria-label="Too noisy, 36. Complaints." style="outline:0" d="M391.5 210.5h31v10h-31z"/><path class="highcharts-point highcharts-color-1" tabindex="-1" aria-label="Unfriendly staff, 10. Complaints." style="outline:0" d="M454.5 217.5h31v3h-31z"/></g><g class="highcharts-series highcharts-series-0 highcharts-pareto-series highcharts-color-0" data-z-index="10" clip-path="url(#b)" aria-hidden="true" fill="none" stroke-linejoin="round" stroke-linecap="round" transform="translate(46 47)"><path d="m31.313 99.899 62.624-35.315 62.626-24.02 62.625-13.68 62.625-11.454 62.625-8.113 62.625-5.726L469.688 0" class="highcharts-graph" data-z-index="1" stroke="#7cb5ec" stroke-width="2"/><path d="m31.313 99.899 62.624-35.315 62.626-24.02 62.625-13.68 62.625-11.454 62.625-8.113 62.625-5.726L469.688 0" data-z-index="2" class="highcharts-tracker-line" stroke="rgba(192,192,192,0.0001)" stroke-width="22"/></g><g class="highcharts-markers highcharts-series-0 highcharts-pareto-series highcharts-color-0 highcharts-tracker" data-z-index="10" aria-hidden="false" tabindex="-1" aria-label="Pareto, series 1 of 2 with 8 data points. Y axis, values." style="outline:0" fill="#7cb5ec"><path d="M31 103.899a4 4 0 1 1 .004 0Z" class="highcharts-point highcharts-color-0" tabindex="-1" aria-label="Overpriced, 54.59%. Pareto." style="outline:0" transform="translate(46 47)"/><path d="M93 68.584a4 4 0 1 1 .004 0Z" class="highcharts-point highcharts-color-0" tabindex="-1" aria-label="Small portions, 70.64%. Pareto." style="outline:0" transform="translate(46 47)"/><path d="M156 44.564a4 4 0 1 1 .004 0Z" class="highcharts-point highcharts-color-0" tabindex="-1" aria-label="Wait time, 81.56%. Pareto." style="outline:0" transform="translate(46 47)"/><path d="M219 30.884a4 4 0 1 1 .004 0Z" class="highcharts-point highcharts-color-0" tabindex="-1" aria-label="Food is tasteless, 87.78%. Pareto." style="outline:0" transform="translate(46 47)"/><path d="M281 19.43a4 4 0 1 1 .004 0Z" class="highcharts-point highcharts-color-0" tabindex="-1" aria-label="No atmosphere, 92.99%. Pareto." style="outline:0" transform="translate(46 47)"/><path d="M344 11.317a4 4 0 1 1 .004 0Z" class="highcharts-point highcharts-color-0" tabindex="-1" aria-label="Not clean, 96.67%. Pareto." style="outline:0" transform="translate(46 47)"/><path d="M407 5.59a4 4 0 1 1 .004 0Z" class="highcharts-point highcharts-color-0" tabindex="-1" aria-label="Too noisy, 99.28%. Pareto." style="outline:0" transform="translate(46 47)"/><path d="M469 4a4 4 0 1 1 .004 0Z" class="highcharts-point highcharts-color-0" tabindex="-1" aria-label="Unfriendly staff, 100.00%. Pareto." style="outline:0" transform="translate(46 47)"/></g></g><text x="300" text-anchor="middle" class="highcharts-title" data-z-index="4" style="color:#333;font-size:18px;fill:#333" y="24" aria-hidden="true">Restaurants Complaints</text><g class="highcharts-legend highcharts-no-tooltip" data-z-index="7" transform="translate(206 359)" aria-hidden="true"><rect fill="none" class="highcharts-legend-box" rx="0" ry="0" width="187" height="26"/><g data-z-index="1"><g class="highcharts-legend-item highcharts-pareto-series highcharts-color-0 highcharts-series-0" data-z-index="1"><path fill="none" d="M8 14h16" class="highcharts-graph" stroke="#7cb5ec" stroke-width="2"/><path fill="#7cb5ec" d="M16 18a4 4 0 1 1 .004 0Z" class="highcharts-point"/><text x="21" data-z-index="2" y="15" style="color:#333;cursor:pointer;font-size:12px;font-weight:700;fill:#333" transform="translate(8 3)">Pareto</text></g><g class="highcharts-legend-item highcharts-column-series highcharts-color-1 highcharts-series-1" data-z-index="1" transform="translate(88.43 3)"><text x="21" y="15" data-z-index="2" style="color:#333;cursor:pointer;font-size:12px;font-weight:700;fill:#333">Complaints</text><rect x="2" y="4" width="12" height="12" fill="#434348" rx="6" ry="6" class="highcharts-point" data-z-index="3"/></g></g></g><g class="highcharts-axis-labels highcharts-xaxis-labels" data-z-index="7" aria-hidden="true" text-anchor="end"><text x="79.905" transform="rotate(-45 79.905 283)" style="color:#666;cursor:default;font-size:11px;fill:#666" y="283">Overpriced</text><text x="142.53" transform="rotate(-45 142.53 283)" style="color:#666;cursor:default;font-size:11px;fill:#666" y="283">Small portions</text><text x="205.155" transform="rotate(-45 205.155 283)" style="color:#666;cursor:default;font-size:11px;fill:#666" y="283">Wait time</text><text x="267.78" transform="rotate(-45 267.78 283)" style="color:#666;cursor:default;font-size:11px;fill:#666" y="283">Food is tasteless</text><text x="330.405" transform="rotate(-45 330.405 283)" style="color:#666;cursor:default;font-size:11px;fill:#666" y="283">No atmosphere</text><text x="393.03" transform="rotate(-45 393.03 283)" style="color:#666;cursor:default;font-size:11px;fill:#666" y="283">Not clean</text><text x="455.655" transform="rotate(-45 455.655 283)" style="color:#666;cursor:default;font-size:11px;fill:#666" y="283">Too noisy</text><text x="518.28" transform="rotate(-45 518.28 283)" style="color:#666;cursor:default;font-size:11px;fill:#666" y="283">Unfriendly staff</text></g><g class="highcharts-axis-labels highcharts-yaxis-labels" data-z-index="7" aria-hidden="true" text-anchor="end"><text x="31" style="color:#666;cursor:default;font-size:11px;fill:#666" y="272">0</text><text x="31" style="color:#666;cursor:default;font-size:11px;fill:#666" y="217">200</text><text x="31" style="color:#666;cursor:default;font-size:11px;fill:#666" y="162">400</text><text x="31" style="color:#666;cursor:default;font-size:11px;fill:#666" y="107">600</text><text x="31" style="color:#666;cursor:default;font-size:11px;fill:#666" y="52">800</text></g><g class="highcharts-axis-labels highcharts-yaxis-labels" data-z-index="7" aria-hidden="true"><text x="562" style="color:#666;cursor:default;font-size:11px;fill:#666" y="272">0%</text><text x="562" style="color:#666;cursor:default;font-size:11px;fill:#666" y="217">25%</text><text x="562" style="color:#666;cursor:default;font-size:11px;fill:#666" y="162">50%</text><text x="562" style="color:#666;cursor:default;font-size:11px;fill:#666" y="107">75%</text><text x="562" style="color:#666;cursor:default;font-size:11px;fill:#666" y="52">100%</text></g></svg>