<svg class="highcharts-root" style="font-family:&quot;Lucida Grande&quot;,&quot;Lucida Sans Unicode&quot;,Arial,Helvetica,sans-serif;font-size:12px" xmlns="http://www.w3.org/2000/svg" width="600" height="400" aria-label="Interactive chart" aria-hidden="false"><rect fill="#fff" class="highcharts-background" width="600" height="400" rx="0" ry="0" aria-hidden="true"/><path fill="none" class="highcharts-plot-background" aria-hidden="true" d="M10 47h580v300H10z"/><path fill="none" class="highcharts-plot-border" data-z-index="1" aria-hidden="true" d="M10 47h580v300H10z"/><g class="highcharts-series-group" data-z-index="3" aria-hidden="false"><g class="highcharts-series highcharts-series-0 highcharts-pie-series highcharts-tracker" data-z-index=".1" style="cursor:pointer" aria-hidden="false" stroke="#fff" stroke-linejoin="round"><path fill="#7cb5ec" d="M289.971 10a140 140 0 1 1-139.958 141.903L290 150Z" transform="translate(17 54)" class="highcharts-point highcharts-point-select highcharts-color-0" tabindex="-1" aria-label="Chrome, 74.77%. Brands." style="outline:0"/><path fill="#434348" d="M150.011 151.763a140 140 0 0 1 41.69-101.45L290 150Z" transform="translate(10 47)" class="highcharts-point highcharts-color-1" tabindex="-1" aria-label="Edge, 12.82%. Brands." style="outline:0"/><path fill="#90ed7d" d="M191.801 50.215a140 140 0 0 1 32.634-23.913L290 150Z" transform="translate(10 47)" class="highcharts-point highcharts-color-2" tabindex="-1" aria-label="Firefox, 4.63%. Brands." style="outline:0"/><path fill="#f7a35c" d="M224.559 26.236a140 140 0 0 1 19.494-8.482L290 150Z" transform="translate(10 47)" class="highcharts-point highcharts-color-3" tabindex="-1" aria-label="Safari, 2.44%. Brands." style="outline:0"/><path fill="#8085e9" d="M244.185 17.709a140 140 0 0 1 16.988-4.71L290 150Z" transform="translate(10 47)" class="highcharts-point highcharts-color-4" tabindex="-1" aria-label="Internet Explorer, 2.02%. Brands." style="outline:0"/><path fill="#f15c80" d="M261.31 12.971a140 140 0 0 1 28.496-2.97L290 150Z" transform="translate(10 47)" class="highcharts-point highcharts-color-5" tabindex="-1" aria-label="Other, 3.28%. Brands." style="outline:0"/></g></g><text x="300" text-anchor="middle" class="highcharts-title" data-z-index="4" style="color:#333;font-size:18px;fill:#333" y="24" aria-hidden="true">Browser market shares in March, 2022</text><g class="highcharts-legend highcharts-no-tooltip" data-z-index="7" transform="translate(31 359)" aria-hidden="true"><rect fill="none" class="highcharts-legend-box" rx="0" ry="0" width="538" height="26"/><g data-z-index="1"><g class="highcharts-legend-item highcharts-pie-series highcharts-color-0" data-z-index="1" transform="translate(8 3)"><text x="21" data-z-index="2" y="15" style="color:#333;cursor:pointer;font-size:12px;font-weight:700;fill:#333">Chrome</text><rect x="2" y="4" width="12" height="12" fill="#7cb5ec" rx="6" ry="6" class="highcharts-point" data-z-index="3"/></g><g class="highcharts-legend-item highcharts-pie-series highcharts-color-1" data-z-index="1" transform="translate(97.219 3)"><text x="21" y="15" data-z-index="2" style="color:#333;cursor:pointer;font-size:12px;font-weight:700;fill:#333">Edge</text><rect x="2" y="4" width="12" height="12" fill="#434348" rx="6" ry="6" class="highcharts-point" data-z-index="3"/></g><g class="highcharts-legend-item highcharts-pie-series highcharts-color-2" data-z-index="1" transform="translate(168.328 3)"><text x="21" y="15" data-z-index="2" style="color:#333;cursor:pointer;font-size:12px;font-weight:700;fill:#333">Firefox</text><rect x="2" y="4" width="12" height="12" fill="#90ed7d" rx="6" ry="6" class="highcharts-point" data-z-index="3"/></g><g class="highcharts-legend-item highcharts-pie-series highcharts-color-3" data-z-index="1" transform="translate(252.336 3)"><text x="21" y="15" data-z-index="2" style="color:#333;cursor:pointer;font-size:12px;font-weight:700;fill:#333">Safari</text><rect x="2" y="4" width="12" height="12" fill="#f7a35c" rx="6" ry="6" class="highcharts-point" data-z-index="3"/></g><g class="highcharts-legend-item highcharts-pie-series highcharts-color-4" data-z-index="1" transform="translate(328.633 3)"><text x="21" y="15" data-z-index="2" style="color:#333;cursor:pointer;font-size:12px;font-weight:700;fill:#333">Internet Explorer</text><rect x="2" y="4" width="12" height="12" fill="#8085e9" rx="6" ry="6" class="highcharts-point" data-z-index="3"/></g><g class="highcharts-legend-item highcharts-pie-series highcharts-color-5" data-z-index="1" transform="translate(474.328 3)"><text x="21" y="15" data-z-index="2" style="color:#333;cursor:pointer;font-size:12px;font-weight:700;fill:#333">Other</text><rect x="2" y="4" width="12" height="12" fill="#f15c80" rx="6" ry="6" class="highcharts-point" data-z-index="3"/></g></g></g></svg>