<svg class="highcharts-root" style="font-family:&quot;Lucida Grande&quot;,&quot;Lucida Sans Unicode&quot;,Arial,Helvetica,sans-serif;font-size:12px" xmlns="http://www.w3.org/2000/svg" width="600" height="400" aria-label="Interactive chart" aria-hidden="false"><defs aria-hidden="true"><clipPath id="a"><circle cx="213" cy="169" r="135.2"/></clipPath><clipPath id="b"><circle cx="213" cy="169" r="135.2"/></clipPath></defs><rect fill="#fff" class="highcharts-background" width="600" height="400" rx="0" ry="0" aria-hidden="true"/><path fill="none" class="highcharts-plot-background" aria-hidden="true" d="M10 47h426v338H10z"/><g class="highcharts-grid highcharts-xaxis-grid highcharts-radial-axis-grid" data-z-index="1" aria-hidden="true" fill="none" stroke="#e6e6e6"><path data-z-index="1" class="highcharts-grid-line" d="M223 216V80.8m0 135.2 117.087-67.6M223 216l117.087 67.6M223 216v135.2m0-135.2-117.087 67.6M223 216l-117.087-67.6M223 216V80.8"/></g><g class="highcharts-grid highcharts-yaxis-grid highcharts-radial-axis-grid" data-z-index="1" aria-hidden="true" fill="none" stroke="#e6e6e6"><path data-z-index="1" class="highcharts-grid-line" d="m223 170.933 39.029 22.534v45.066L223 261.067l-39.029-22.534v-45.066L223 170.933"/><path data-z-index="1" class="highcharts-grid-line" d="m223 125.867 78.058 45.066v90.134L223 306.133l-78.058-45.066v-90.134L223 125.867"/><path data-z-index="1" class="highcharts-grid-line" d="m223 80.8 117.087 67.6v135.2L223 351.2l-117.087-67.6V148.4L223 80.8"/></g><path fill="none" class="highcharts-plot-border" data-z-index="1" aria-hidden="true" d="M10 47h426v338H10z"/><g class="highcharts-axis highcharts-xaxis highcharts-radial-axis" data-z-index="2" aria-hidden="true"><path fill="none" class="highcharts-axis-line" data-z-index="7" d="M223 80.8a135.2 135.2 0 1 1-.135 0M223 216"/></g><g class="highcharts-axis highcharts-yaxis highcharts-radial-axis" data-z-index="2" aria-hidden="true"><path fill="none" class="highcharts-axis-line" data-z-index="7" d="M223 216V80.8"/></g><g class="highcharts-series-group" data-z-index="3" aria-hidden="false"><g class="highcharts-series highcharts-series-0 highcharts-line-series highcharts-color-0" data-z-index=".1" clip-path="url(#a)" aria-hidden="true" fill="none" stroke-linejoin="round" stroke-linecap="round" transform="translate(10 47)"><path d="m213 91.485 29.662 60.39 64.007 71.205L213 232.093l-26.54-47.77 10.928-24.336L213 91.485" class="highcharts-graph" data-z-index="1" stroke="#7cb5ec" stroke-width="2"/><path d="m213 91.485 29.662 60.39 64.007 71.205L213 232.093l-26.54-47.77 10.928-24.336L213 91.485" data-z-index="2" class="highcharts-tracker-line" stroke="rgba(192,192,192,0.0001)" stroke-width="22"/></g><g class="highcharts-markers highcharts-series-0 highcharts-line-series highcharts-color-0 highcharts-tracker" data-z-index=".1" aria-hidden="false" tabindex="-1" aria-label="Allocated Budget, line 1 of 2 with 6 data points." style="outline:0" fill="#7cb5ec"><path d="M213 95.485a4 4 0 1 1 .004 0Z" class="highcharts-point highcharts-color-0" tabindex="-1" aria-label="Sales, 43,000. Allocated Budget." style="outline:0" transform="translate(10 47)"/><path d="M242 155.875a4 4 0 1 1 .004 0Z" class="highcharts-point highcharts-color-0" tabindex="-1" aria-label="Marketing, 19,000. Allocated Budget." style="outline:0" transform="translate(10 47)"/><path d="M306 227.08a4 4 0 1 1 .004 0Z" class="highcharts-point highcharts-color-0" tabindex="-1" aria-label="Development, 60,000. Allocated Budget." style="outline:0" transform="translate(10 47)"/><path d="M212 236.093a4 4 0 1 1 .004 0Z" class="highcharts-point highcharts-color-0" tabindex="-1" aria-label="Customer Support, 35,000. Allocated Budget." style="outline:0" transform="translate(10 47)"/><path d="M186 188.323a4 4 0 1 1 .004 0Z" class="highcharts-point highcharts-color-0" tabindex="-1" aria-label="Information Technology, 17,000. Allocated Budget." style="outline:0" transform="translate(10 47)"/><path d="M197 163.987a4 4 0 1 1 .004 0Z" class="highcharts-point highcharts-color-0" tabindex="-1" aria-label="Administration, 10,000. Allocated Budget." style="outline:0" transform="translate(10 47)"/></g><g class="highcharts-series highcharts-series-1 highcharts-line-series highcharts-color-1" data-z-index=".1" clip-path="url(#b)" aria-hidden="true" fill="none" stroke-linejoin="round" stroke-linecap="round" transform="translate(10 47)"><path d="m213 78.867 60.885 54.981 4.684 73.008L213 224.883l-40.59-32.448 18.734-36.054L213 78.867" class="highcharts-graph" data-z-index="1" stroke="#434348" stroke-width="2"/><path d="m213 78.867 60.885 54.981 4.684 73.008L213 224.883l-40.59-32.448 18.734-36.054L213 78.867" data-z-index="2" class="highcharts-tracker-line" stroke="rgba(192,192,192,0.0001)" stroke-width="22"/></g><g class="highcharts-markers highcharts-series-1 highcharts-line-series highcharts-color-1 highcharts-tracker" data-z-index=".1" aria-hidden="false" tabindex="-1" aria-label="Actual Spending, line 2 of 2 with 6 data points." style="outline:0" fill="#434348"><path d="m213 74.867 4 4-4 4-4-4Z" class="highcharts-point highcharts-color-1" tabindex="-1" aria-label="Sales, 50,000. Actual Spending." style="outline:0" transform="translate(10 47)"/><path d="m273 129.848 4 4-4 4-4-4Z" class="highcharts-point highcharts-color-1" tabindex="-1" aria-label="Marketing, 39,000. Actual Spending." style="outline:0" transform="translate(10 47)"/><path d="m278 202.856 4 4-4 4-4-4Z" class="highcharts-point highcharts-color-1" tabindex="-1" aria-label="Development, 42,000. Actual Spending." style="outline:0" transform="translate(10 47)"/><path d="m212 220.883 4 4-4 4-4-4Z" class="highcharts-point highcharts-color-1" tabindex="-1" aria-label="Customer Support, 31,000. Actual Spending." style="outline:0" transform="translate(10 47)"/><path d="m172 188.435 4 4-4 4-4-4Z" class="highcharts-point highcharts-color-1" tabindex="-1" aria-label="Information Technology, 26,000. Actual Spending." style="outline:0" transform="translate(10 47)"/><path d="m191 152.381 4 4-4 4-4-4Z" class="highcharts-point highcharts-color-1" tabindex="-1" aria-label="Administration, 14,000. Actual Spending." style="outline:0" transform="translate(10 47)"/></g></g><text x="220" text-anchor="middle" class="highcharts-title" data-z-index="4" style="color:#333;font-size:18px;fill:#333" y="24" aria-hidden="true">Budget vs spending</text><g class="highcharts-legend highcharts-no-tooltip" data-z-index="7" transform="translate(448 177)" aria-hidden="true"><rect fill="none" class="highcharts-legend-box" rx="0" ry="0" width="141" height="41"/><g data-z-index="1"><g class="highcharts-legend-item highcharts-line-series highcharts-color-0 highcharts-series-0" data-z-index="1"><path fill="none" d="M8 14h16" class="highcharts-graph" stroke="#7cb5ec" stroke-width="2"/><path fill="#7cb5ec" d="M16 18a4 4 0 1 1 .004 0Z" class="highcharts-point"/><text x="21" data-z-index="2" y="15" style="color:#333;cursor:pointer;font-size:12px;font-weight:700;fill:#333" transform="translate(8 3)">Allocated Budget</text></g><g class="highcharts-legend-item highcharts-line-series highcharts-color-1 highcharts-series-1" data-z-index="1"><path fill="none" d="M8 29h16" class="highcharts-graph" stroke="#434348" stroke-width="2"/><path fill="#434348" d="m16 25 4 4-4 4-4-4Z" class="highcharts-point"/><text x="21" y="15" data-z-index="2" style="color:#333;cursor:pointer;font-size:12px;font-weight:700;fill:#333" transform="translate(8 18)">Actual Spending</text></g></g></g><g class="highcharts-axis-labels highcharts-xaxis-labels highcharts-radial-axis-labels" data-z-index="7" aria-hidden="true"><text x="223" style="color:#666;cursor:default;font-size:11px;fill:#666" text-anchor="middle" y="70.3">Sales</text><text x="353.077" style="color:#666;cursor:default;font-size:11px;fill:#666" y="145.4">Marketing</text><text x="353.077" style="color:#666;cursor:default;font-size:11px;fill:#666" y="295.6">Development</text><text x="223" style="color:#666;cursor:default;font-size:11px;fill:#666" text-anchor="middle" y="370.7">Customer Support</text><text x="92.923" style="color:#666;cursor:default;font-size:11px;fill:#666" text-anchor="end" y="288.6">Information<tspan dy="14" x="92.923">​</tspan>Technology</text><text x="92.923" style="color:#666;cursor:default;font-size:11px;fill:#666" text-anchor="end" y="145.4">Administration</text></g><g class="highcharts-axis-labels highcharts-yaxis-labels highcharts-radial-axis-labels" data-z-index="7" aria-hidden="true" text-anchor="end"><text x="220" style="color:#666;cursor:default;font-size:11px;fill:#666" y="214">0</text><text x="220" style="color:#666;cursor:default;font-size:11px;fill:#666" y="168.933">25k</text><text x="220" style="color:#666;cursor:default;font-size:11px;fill:#666" y="123.867">50k</text></g></svg>