<svg class="highcharts-root" style="font-family:&quot;Lucida Grande&quot;,&quot;Lucida Sans Unicode&quot;,Arial,Helvetica,sans-serif;font-size:12px" xmlns="http://www.w3.org/2000/svg" width="600" height="400" aria-label="Interactive chart" aria-hidden="false"><defs aria-hidden="true"><clipPath id="a"><circle cx="290" cy="143" r="121.55"/></clipPath><clipPath id="b"><circle cx="290" cy="143" r="121.55"/></clipPath><clipPath id="c"><circle cx="290" cy="143" r="121.55"/></clipPath></defs><rect fill="#fff" class="highcharts-background" width="600" height="400" rx="0" ry="0" aria-hidden="true"/><path fill="none" class="highcharts-plot-background" aria-hidden="true" d="M10 61h580v286H10z"/><g class="highcharts-grid highcharts-xaxis-grid highcharts-radial-axis-grid" data-z-index="1" aria-hidden="true" fill="none" stroke="#e6e6e6"><path data-z-index="1" class="highcharts-grid-line" d="M300 204V82.45M300 204l85.949-85.949M300 204h121.55M300 204l85.949 85.949M300 204v121.55M300 204l-85.949 85.949M300 204H178.45M300 204l-85.949-85.949M300 204V82.45"/></g><g class="highcharts-grid highcharts-yaxis-grid highcharts-radial-axis-grid" data-z-index="1" aria-hidden="true" fill="none" stroke="#e6e6e6"><path data-z-index="1" class="highcharts-grid-line" d="M300 143.225a60.775 60.775 0 1 1-.06 0M300 204"/><path data-z-index="1" class="highcharts-grid-line" d="M300 82.45a121.55 121.55 0 1 1-.122 0M300 204"/></g><path fill="none" class="highcharts-plot-border" data-z-index="1" aria-hidden="true" d="M10 61h580v286H10z"/><g class="highcharts-axis highcharts-xaxis highcharts-radial-axis" data-z-index="2" aria-hidden="true"><path fill="none" class="highcharts-axis-line" stroke="#ccd6eb" data-z-index="7" d="M300 82.45a121.55 121.55 0 1 1-.122 0M300 204"/></g><g class="highcharts-axis highcharts-yaxis highcharts-radial-axis" data-z-index="2" aria-hidden="true"><path fill="none" class="highcharts-axis-line" data-z-index="7" d="M300 204V82.45"/></g><g class="highcharts-series-group" data-z-index="3" aria-hidden="false"><g class="highcharts-series highcharts-series-0 highcharts-column-series highcharts-color-0 highcharts-tracker highcharts-dense-data" data-z-index=".1" clip-path="url(#a)" aria-hidden="false" tabindex="-1" aria-label="Column, series 1 of 3. Bar series with 8 bars." style="outline:0" fill="#7cb5ec" transform="translate(10 61)"><path d="M290 45.76a97.24 97.24 0 0 1 68.69 28.412L290 143Z" class="highcharts-point highcharts-color-0" tabindex="-1" aria-label="x, 0, 8. Column." style="outline:0"/><path d="M350.164 82.836a85.085 85.085 0 0 1 24.921 60.079L290 143Z" class="highcharts-point highcharts-color-0" tabindex="-1" aria-label="x, 45, 7. Column." style="outline:0"/><path d="M362.93 143a72.93 72.93 0 0 1-21.31 51.518L290 143Z" class="highcharts-point highcharts-color-0" tabindex="-1" aria-label="x, 90, 6. Column." style="outline:0"/><path d="M332.974 185.974a60.775 60.775 0 0 1-42.913 17.801L290 143Z" class="highcharts-point highcharts-color-0" tabindex="-1" aria-label="x, 135, 5. Column." style="outline:0"/><path d="M290 191.62a48.62 48.62 0 0 1-34.345-14.206L290 143Z" class="highcharts-point highcharts-color-0" tabindex="-1" aria-label="x, 180, 4. Column." style="outline:0"/><path d="M264.215 168.785a36.465 36.465 0 0 1-10.68-25.749L290 143Z" class="highcharts-point highcharts-color-0" tabindex="-1" aria-label="x, 225, 3. Column." style="outline:0"/><path d="M265.69 143a24.31 24.31 0 0 1 7.103-17.173L290 143Z" class="highcharts-point highcharts-color-0" tabindex="-1" aria-label="x, 270, 2. Column." style="outline:0"/><path d="M281.405 134.405a12.155 12.155 0 0 1 8.583-3.56L290 143Z" class="highcharts-point highcharts-color-0" tabindex="-1" aria-label="x, 315, 1. Column." style="outline:0"/></g><g class="highcharts-series highcharts-series-1 highcharts-line-series highcharts-color-1" data-z-index=".1" clip-path="url(#b)" aria-hidden="true" fill="none" stroke-linejoin="round" stroke-linecap="round" transform="translate(10 61)"><path d="m290 130.845 17.19-5.035L326.465 143l-2.085 34.38L290 203.775l-51.57-9.206L204.916 143l16.326-68.76L290 130.846" class="highcharts-graph" data-z-index="1" stroke="#434348" stroke-width="2"/><path d="m290 130.845 17.19-5.035L326.465 143l-2.085 34.38L290 203.775l-51.57-9.206L204.916 143l16.326-68.76L290 130.846" data-z-index="2" class="highcharts-tracker-line" stroke="rgba(192,192,192,0.0001)" stroke-width="22"/></g><g class="highcharts-markers highcharts-series-1 highcharts-line-series highcharts-color-1 highcharts-tracker" data-z-index=".1" aria-hidden="false" tabindex="-1" aria-label="Line, series 2 of 3. Line with 8 data points." style="outline:0" fill="#434348"><path d="M290 134.845a4 4 0 1 1 .004 0Z" class="highcharts-point highcharts-color-1" tabindex="-1" aria-label="x, 0, 1. Line." style="outline:0" transform="translate(10 61)"/><path d="M307 129.81a4 4 0 1 1 .004 0Z" class="highcharts-point highcharts-color-1" tabindex="-1" aria-label="x, 45, 2. Line." style="outline:0" transform="translate(10 61)"/><path d="M326 147a4 4 0 1 1 .004 0Z" class="highcharts-point highcharts-color-1" tabindex="-1" aria-label="x, 90, 3. Line." style="outline:0" transform="translate(10 61)"/><path d="M324 181.38a4 4 0 1 1 .004 0Z" class="highcharts-point highcharts-color-1" tabindex="-1" aria-label="x, 135, 4. Line." style="outline:0" transform="translate(10 61)"/><path d="M289 207.775a4 4 0 1 1 .004 0Z" class="highcharts-point highcharts-color-1" tabindex="-1" aria-label="x, 180, 5. Line." style="outline:0" transform="translate(10 61)"/><path d="M238 198.57a4 4 0 1 1 .004 0Z" class="highcharts-point highcharts-color-1" tabindex="-1" aria-label="x, 225, 6. Line." style="outline:0" transform="translate(10 61)"/><path d="M204 147a4 4 0 1 1 .004 0Z" class="highcharts-point highcharts-color-1" tabindex="-1" aria-label="x, 270, 7. Line." style="outline:0" transform="translate(10 61)"/><path d="M221 78.24a4 4 0 1 1 .004 0Z" class="highcharts-point highcharts-color-1" tabindex="-1" aria-label="x, 315, 8. Line." style="outline:0" transform="translate(10 61)"/></g><g class="highcharts-series highcharts-series-2 highcharts-area-series highcharts-color-2" data-z-index=".1" clip-path="url(#c)" aria-hidden="true" transform="translate(10 61)"><path fill="rgba(144,237,125,0.75)" d="m290 130.845 68.76-56.604L314.31 143l35.854 60.164L290 179.465l-51.57 15.104L241.38 143l5.646-42.974L290 130.845v12.605l.318-.132.132-.318-.132-.318-.318-.132-.318.132-.132.318.132.318.318.132Z" class="highcharts-area" data-z-index="0"/><path fill="none" d="m290 130.845 68.76-56.604L314.31 143l35.854 60.164L290 179.465l-51.57 15.104L241.38 143l5.646-42.974L290 130.845" class="highcharts-graph" data-z-index="1" stroke="#90ed7d" stroke-width="2" stroke-linejoin="round" stroke-linecap="round"/><path fill="none" d="m290 130.845 68.76-56.604L314.31 143l35.854 60.164L290 179.465l-51.57 15.104L241.38 143l5.646-42.974L290 130.845" data-z-index="2" class="highcharts-tracker-line" stroke-linecap="round" stroke-linejoin="round" stroke="rgba(192,192,192,0.0001)" stroke-width="22"/></g><g class="highcharts-markers highcharts-series-2 highcharts-area-series highcharts-color-2 highcharts-tracker" data-z-index=".1" aria-hidden="false" tabindex="-1" aria-label="Area, series 3 of 3 with 8 data points." style="outline:0" fill="#90ed7d"><path d="m290 126.845 4 4-4 4-4-4Z" class="highcharts-point highcharts-color-2" tabindex="-1" aria-label="x, 0, 1. Area." style="outline:0" transform="translate(10 61)"/><path d="m358 70.24 4 4-4 4-4-4Z" class="highcharts-point highcharts-color-2" tabindex="-1" aria-label="x, 45, 8. Area." style="outline:0" transform="translate(10 61)"/><path d="m314 139 4 4-4 4-4-4Z" class="highcharts-point highcharts-color-2" tabindex="-1" aria-label="x, 90, 2. Area." style="outline:0" transform="translate(10 61)"/><path d="m350 199.164 4 4-4 4-4-4Z" class="highcharts-point highcharts-color-2" tabindex="-1" aria-label="x, 135, 7. Area." style="outline:0" transform="translate(10 61)"/><path d="m289 175.465 4 4-4 4-4-4Z" class="highcharts-point highcharts-color-2" tabindex="-1" aria-label="x, 180, 3. Area." style="outline:0" transform="translate(10 61)"/><path d="m238 190.57 4 4-4 4-4-4Z" class="highcharts-point highcharts-color-2" tabindex="-1" aria-label="x, 225, 6. Area." style="outline:0" transform="translate(10 61)"/><path d="m241 139 4 4-4 4-4-4Z" class="highcharts-point highcharts-color-2" tabindex="-1" aria-label="x, 270, 4. Area." style="outline:0" transform="translate(10 61)"/><path d="m247 96.026 4 4-4 4-4-4Z" class="highcharts-point highcharts-color-2" tabindex="-1" aria-label="x, 315, 5. Area." style="outline:0" transform="translate(10 61)"/></g></g><text x="300" text-anchor="middle" class="highcharts-title" data-z-index="4" style="color:#333;font-size:18px;fill:#333" y="24" aria-hidden="true">Highcharts Polar Chart</text><text x="300" text-anchor="middle" class="highcharts-subtitle" data-z-index="4" style="color:#666;fill:#666" y="46" aria-hidden="true">Also known as Radar Chart</text><g class="highcharts-legend highcharts-no-tooltip" data-z-index="7" transform="translate(190 359)" aria-hidden="true"><rect fill="none" class="highcharts-legend-box" rx="0" ry="0" width="220" height="26"/><g data-z-index="1"><g class="highcharts-legend-item highcharts-column-series highcharts-color-0 highcharts-series-0" data-z-index="1" transform="translate(8 3)"><text x="21" data-z-index="2" y="15" style="color:#333;cursor:pointer;font-size:12px;font-weight:700;fill:#333">Column</text><rect x="2" y="4" width="12" height="12" fill="#7cb5ec" rx="6" ry="6" class="highcharts-point" data-z-index="3"/></g><g class="highcharts-legend-item highcharts-line-series highcharts-color-1 highcharts-series-1" data-z-index="1"><path fill="none" d="M96.516 14h16" class="highcharts-graph" stroke="#434348" stroke-width="2"/><path fill="#434348" d="M104.516 18a4 4 0 1 1 .004 0Z" class="highcharts-point"/><text x="21" y="15" data-z-index="2" style="color:#333;cursor:pointer;font-size:12px;font-weight:700;fill:#333" transform="translate(96.516 3)">Line</text></g><g class="highcharts-legend-item highcharts-area-series highcharts-color-2 highcharts-series-2" data-z-index="1" transform="translate(163.313 3)"><text x="21" y="15" data-z-index="2" style="color:#333;cursor:pointer;font-size:12px;font-weight:700;fill:#333">Area</text><rect x="2" y="4" width="12" height="12" fill="#90ed7d" rx="6" ry="6" class="highcharts-point" data-z-index="3"/></g></g></g><g class="highcharts-axis-labels highcharts-xaxis-labels highcharts-radial-axis-labels" data-z-index="7" aria-hidden="true"><text x="300" style="color:#666;cursor:default;font-size:11px;fill:#666" text-anchor="middle" y="71.95">0°</text><text x="396.555" style="color:#666;cursor:default;font-size:11px;fill:#666" y="111.945">45°</text><text x="436.55" style="color:#666;cursor:default;font-size:11px;fill:#666" y="208.5">90°</text><text x="396.555" style="color:#666;cursor:default;font-size:11px;fill:#666" y="305.055">135°</text><text x="300" style="color:#666;cursor:default;font-size:11px;fill:#666" text-anchor="middle" y="345.05">180°</text><text x="203.445" style="color:#666;cursor:default;font-size:11px;fill:#666" text-anchor="end" y="305.055">225°</text><text x="163.45" style="color:#666;cursor:default;font-size:11px;fill:#666" text-anchor="end" y="208.5">270°</text><text x="203.445" style="color:#666;cursor:default;font-size:11px;fill:#666" text-anchor="end" y="111.945">315°</text></g><g class="highcharts-axis-labels highcharts-yaxis-labels highcharts-radial-axis-labels" data-z-index="7" aria-hidden="true" text-anchor="end"><text x="297" style="color:#666;cursor:default;font-size:11px;fill:#666" y="202">0</text><text x="297" style="color:#666;cursor:default;font-size:11px;fill:#666" y="141.225">5</text></g></svg>