<svg class="highcharts-root" style="font-family:&quot;Lucida Grande&quot;,&quot;Lucida Sans Unicode&quot;,Arial,Helvetica,sans-serif;font-size:12px" xmlns="http://www.w3.org/2000/svg" width="600" height="400" aria-label="Interactive chart" aria-hidden="false"><defs aria-hidden="true"><clipPath id="a"><path fill="none" d="M0 0h522v265H0z"/></clipPath></defs><rect fill="#fff" class="highcharts-background" width="600" height="400" rx="0" ry="0" aria-hidden="true"/><path fill="none" class="highcharts-plot-background" aria-hidden="true" d="M68 61h522v265H68z"/><g class="highcharts-grid highcharts-xaxis-grid" data-z-index="1" aria-hidden="true" fill="none"><path data-z-index="1" class="highcharts-grid-line" d="M111.5 61v265m43-265v265m44-265v265m43-265v265m44-265v265m43-265v265m44-265v265m43-265v265m44-265v265m43-265v265m44-265v265m43-265v265M67.5 61v265"/></g><g class="highcharts-grid highcharts-yaxis-grid" data-z-index="1" aria-hidden="true" fill="none" stroke="#e6e6e6"><path data-z-index="1" class="highcharts-grid-line" d="M68 326.5h522m-522-44h522m-522-44h522m-522-44h522m-522-45h522m-522-44h522m-522-45h522"/></g><path fill="none" class="highcharts-plot-border" data-z-index="1" aria-hidden="true" d="M68 61h522v265H68z"/><g class="highcharts-axis highcharts-xaxis" data-z-index="2" aria-hidden="true"><path fill="none" class="highcharts-axis-line" stroke="#ccd6eb" data-z-index="7" d="M68 326.5h522"/></g><g class="highcharts-axis highcharts-yaxis" data-z-index="2" aria-hidden="true"><text x="24.313" data-z-index="7" text-anchor="middle" transform="rotate(-90 24.313 193.5)" class="highcharts-axis-title" style="color:#666;fill:#666" y="193.5">Temperature</text><path fill="none" class="highcharts-axis-line" data-z-index="7" d="M68 61v265"/></g><g class="highcharts-series-group" data-z-index="3" aria-hidden="false"><g class="highcharts-series highcharts-series-0 highcharts-spline-series highcharts-color-0" data-z-index=".1" clip-path="url(#a)" aria-hidden="true" fill="none" stroke-linejoin="round" stroke-linecap="round" transform="translate(68 61)"><path d="M21.75 219.067s26.1 0 43.5-4.417 26.1-12.013 43.5-26.5 26.1-29.15 43.5-45.933c17.4-16.784 26.1-24.734 43.5-37.984s26.1-16.253 43.5-28.266c17.4-12.014 26.1-22.967 43.5-31.8 17.4-8.834 26.1-12.367 43.5-12.367s26.1 16.077 43.5 31.8c17.4 15.723 26.1 27.913 43.5 46.817 17.4 18.903 26.1 30.21 43.5 47.7 17.4 17.49 43.5 39.75 43.5 39.75" class="highcharts-graph" data-z-index="1" stroke="#7cb5ec" stroke-width="2"/><path d="M21.75 219.067s26.1 0 43.5-4.417 26.1-12.013 43.5-26.5 26.1-29.15 43.5-45.933c17.4-16.784 26.1-24.734 43.5-37.984s26.1-16.253 43.5-28.266c17.4-12.014 26.1-22.967 43.5-31.8 17.4-8.834 26.1-12.367 43.5-12.367s26.1 16.077 43.5 31.8c17.4 15.723 26.1 27.913 43.5 46.817 17.4 18.903 26.1 30.21 43.5 47.7 17.4 17.49 43.5 39.75 43.5 39.75" data-z-index="2" class="highcharts-tracker-line" stroke="rgba(192,192,192,0.0001)" stroke-width="22"/></g><g class="highcharts-markers highcharts-series-0 highcharts-spline-series highcharts-color-0 highcharts-tracker" data-z-index=".1" aria-hidden="false" tabindex="-1" aria-label="Tokyo, line 1 of 2 with 12 data points." style="outline:0" fill="#7cb5ec" stroke="#666" transform="translate(68 61)"><path d="M17 215.067h8v8h-8Z" class="highcharts-point highcharts-color-0" tabindex="-1" aria-label="Jan, 5.2. Tokyo." style="outline:0"/><path d="M61 210.65h8v8h-8Z" class="highcharts-point highcharts-color-0" tabindex="-1" aria-label="Feb, 5.7. Tokyo." style="outline:0"/><path d="M104 184.15h8v8h-8Z" class="highcharts-point highcharts-color-0" tabindex="-1" aria-label="Mar, 8.7. Tokyo." style="outline:0"/><path d="M148 138.217h8v8h-8Z" class="highcharts-point highcharts-color-0" tabindex="-1" aria-label="Apr, 13.9. Tokyo." style="outline:0"/><path d="M191 100.233h8v8h-8Z" class="highcharts-point highcharts-color-0" tabindex="-1" aria-label="May, 18.2. Tokyo." style="outline:0"/><path d="M235 71.967h8v8h-8Z" class="highcharts-point highcharts-color-0" tabindex="-1" aria-label="Jun, 21.4. Tokyo." style="outline:0"/><path d="M278 40.167h8v8h-8Z" class="highcharts-point highcharts-color-0" tabindex="-1" aria-label="Jul, 25. Tokyo." style="outline:0"/><image preserveAspectRatio="none" xmlns:ns1="http://www.w3.org/1999/xlink" ns1:href="https://www.highcharts.com/samples/graphics/sun.png" x="326" y="31.8" class="highcharts-point highcharts-color-0" width="30" transform="translate(-15 -15)" height="30" tabindex="-1" aria-label="Aug, 26.4. Sunny symbol, this is the warmest point in the chart. Tokyo." style="outline:0"/><path d="M365 59.6h8v8h-8Z" class="highcharts-point highcharts-color-0" tabindex="-1" aria-label="Sep, 22.8. Tokyo." style="outline:0"/><path d="M409 106.417h8v8h-8Z" class="highcharts-point highcharts-color-0" tabindex="-1" aria-label="Oct, 17.5. Tokyo." style="outline:0"/><path d="M452 154.117h8v8h-8Z" class="highcharts-point highcharts-color-0" tabindex="-1" aria-label="Nov, 12.1. Tokyo." style="outline:0"/><path d="M496 193.867h8v8h-8Z" class="highcharts-point highcharts-color-0" tabindex="-1" aria-label="Dec, 7.6. Tokyo." style="outline:0"/></g><g class="highcharts-series highcharts-series-1 highcharts-spline-series highcharts-color-1" data-z-index=".1" clip-path="url(#a)" aria-hidden="true" fill="none" stroke-linejoin="round" stroke-linecap="round" transform="translate(68 61)"><path d="M21.75 251.75s26.1 0 43.5-.883c17.4-.884 26.1-7.42 43.5-15.017 17.4-7.597 26.1-10.247 43.5-22.967 17.4-12.72 26.1-27.206 43.5-40.633 17.4-13.427 26.1-19.433 43.5-26.5s26.1-8.833 43.5-8.833 26.1 0 43.5.883 26.1 15.547 43.5 25.617 26.1 12.72 43.5 24.733 26.1 24.557 43.5 35.333c17.4 10.777 43.5 18.55 43.5 18.55" class="highcharts-graph" data-z-index="1" stroke="#434348" stroke-width="2"/><path d="M21.75 251.75s26.1 0 43.5-.883c17.4-.884 26.1-7.42 43.5-15.017 17.4-7.597 26.1-10.247 43.5-22.967 17.4-12.72 26.1-27.206 43.5-40.633 17.4-13.427 26.1-19.433 43.5-26.5s26.1-8.833 43.5-8.833 26.1 0 43.5.883 26.1 15.547 43.5 25.617 26.1 12.72 43.5 24.733 26.1 24.557 43.5 35.333c17.4 10.777 43.5 18.55 43.5 18.55" data-z-index="2" class="highcharts-tracker-line" stroke="rgba(192,192,192,0.0001)" stroke-width="22"/></g><g class="highcharts-markers highcharts-series-1 highcharts-spline-series highcharts-color-1 highcharts-tracker" data-z-index=".1" aria-hidden="false" tabindex="-1" aria-label="Bergen, line 2 of 2 with 12 data points." style="outline:0" stroke="#666" fill="#434348" transform="translate(68 61)"><image preserveAspectRatio="none" xmlns:ns2="http://www.w3.org/1999/xlink" ns2:href="https://www.highcharts.com/samples/graphics/snow.png" x="21" y="251.75" class="highcharts-point highcharts-color-1" width="30" transform="translate(-15 -15)" height="30" tabindex="-1" aria-label="Jan, 1.5. Snowy symbol, this is the coldest point in the chart. Bergen." style="outline:0"/><path d="m65 246.867 4 4-4 4-4-4Z" class="highcharts-point highcharts-color-1" tabindex="-1" aria-label="Feb, 1.6. Bergen." style="outline:0"/><path d="m108 231.85 4 4-4 4-4-4Z" class="highcharts-point highcharts-color-1" tabindex="-1" aria-label="Mar, 3.3. Bergen." style="outline:0"/><path d="m152 208.883 4 4-4 4-4-4Z" class="highcharts-point highcharts-color-1" tabindex="-1" aria-label="Apr, 5.9. Bergen." style="outline:0"/><path d="m195 168.25 4 4-4 4-4-4Z" class="highcharts-point highcharts-color-1" tabindex="-1" aria-label="May, 10.5. Bergen." style="outline:0"/><path d="m239 141.75 4 4-4 4-4-4Z" class="highcharts-point highcharts-color-1" tabindex="-1" aria-label="Jun, 13.5. Bergen." style="outline:0"/><path d="m282 132.917 4 4-4 4-4-4Z" class="highcharts-point highcharts-color-1" tabindex="-1" aria-label="Jul, 14.5. Bergen." style="outline:0"/><path d="m326 133.8 4 4-4 4-4-4Z" class="highcharts-point highcharts-color-1" tabindex="-1" aria-label="Aug, 14.4. Bergen." style="outline:0"/><path d="m369 159.417 4 4-4 4-4-4Z" class="highcharts-point highcharts-color-1" tabindex="-1" aria-label="Sep, 11.5. Bergen." style="outline:0"/><path d="m413 184.15 4 4-4 4-4-4Z" class="highcharts-point highcharts-color-1" tabindex="-1" aria-label="Oct, 8.7. Bergen." style="outline:0"/><path d="m456 219.483 4 4-4 4-4-4Z" class="highcharts-point highcharts-color-1" tabindex="-1" aria-label="Nov, 4.7. Bergen." style="outline:0"/><path d="m500 238.033 4 4-4 4-4-4Z" class="highcharts-point highcharts-color-1" tabindex="-1" aria-label="Dec, 2.6. Bergen." style="outline:0"/></g></g><g data-z-index="3" aria-hidden="true"><text data-z-index="1" y="12" style="color:#7cb5ec;font-weight:700;fill:#7cb5ec" transform="translate(397 76)" class="highcharts-label highcharts-series-label highcharts-series-label-0 highcharts-color-0">Tokyo</text></g><g data-z-index="3" aria-hidden="true"><text data-z-index="1" y="12" style="color:#434348;font-weight:700;fill:#434348" transform="translate(522 306)" class="highcharts-label highcharts-series-label highcharts-series-label-1 highcharts-color-1">Bergen</text></g><text x="300" text-anchor="middle" class="highcharts-title" data-z-index="4" style="color:#333;font-size:18px;fill:#333" y="24" aria-hidden="true">Monthly Average Temperature</text><text x="300" text-anchor="middle" class="highcharts-subtitle" data-z-index="4" style="color:#666;fill:#666" y="46" aria-hidden="true">Source: <a target="_blank"><tspan>Wikipedia.com</tspan></a></text><g class="highcharts-legend highcharts-no-tooltip" data-z-index="7" transform="translate(220 359)" aria-hidden="true"><rect fill="none" class="highcharts-legend-box" rx="0" ry="0" width="159" height="26"/><g data-z-index="1"><g class="highcharts-legend-item highcharts-spline-series highcharts-color-0 highcharts-series-0" data-z-index="1"><path fill="none" d="M8 14h16" class="highcharts-graph" stroke="#7cb5ec" stroke-width="2"/><path fill="#7cb5ec" d="M12 10h8v8h-8Z" class="highcharts-point" stroke="#666"/><text x="21" data-z-index="2" y="15" style="color:#333;cursor:pointer;font-size:12px;font-weight:700;fill:#333" transform="translate(8 3)">Tokyo</text></g><g class="highcharts-legend-item highcharts-spline-series highcharts-color-1 highcharts-series-1" data-z-index="1"><path fill="none" d="M87.203 14h16" class="highcharts-graph" stroke="#434348" stroke-width="2"/><path fill="#434348" d="m95.203 10 4 4-4 4-4-4Z" class="highcharts-point" stroke="#666"/><text x="21" y="15" data-z-index="2" style="color:#333;cursor:pointer;font-size:12px;font-weight:700;fill:#333" transform="translate(87.203 3)">Bergen</text></g></g></g><g class="highcharts-axis-labels highcharts-xaxis-labels" data-z-index="7" aria-hidden="true" text-anchor="middle"><text x="89.75" style="color:#666;cursor:default;font-size:11px;fill:#666" y="345">Jan</text><text x="133.25" style="color:#666;cursor:default;font-size:11px;fill:#666" y="345">Feb</text><text x="176.75" style="color:#666;cursor:default;font-size:11px;fill:#666" y="345">Mar</text><text x="220.25" style="color:#666;cursor:default;font-size:11px;fill:#666" y="345">Apr</text><text x="263.75" style="color:#666;cursor:default;font-size:11px;fill:#666" y="345">May</text><text x="307.25" style="color:#666;cursor:default;font-size:11px;fill:#666" y="345">Jun</text><text x="350.75" style="color:#666;cursor:default;font-size:11px;fill:#666" y="345">Jul</text><text x="394.25" style="color:#666;cursor:default;font-size:11px;fill:#666" y="345">Aug</text><text x="437.75" style="color:#666;cursor:default;font-size:11px;fill:#666" y="345">Sep</text><text x="481.25" style="color:#666;cursor:default;font-size:11px;fill:#666" y="345">Oct</text><text x="524.75" style="color:#666;cursor:default;font-size:11px;fill:#666" y="345">Nov</text><text x="568.25" style="color:#666;cursor:default;font-size:11px;fill:#666" y="345">Dec</text></g><g class="highcharts-axis-labels highcharts-yaxis-labels" data-z-index="7" aria-hidden="true" text-anchor="end"><text x="53" style="color:#666;cursor:default;font-size:11px;fill:#666" y="331">0°</text><text x="53" style="color:#666;cursor:default;font-size:11px;fill:#666" y="286">5°</text><text x="53" style="color:#666;cursor:default;font-size:11px;fill:#666" y="242">10°</text><text x="53" style="color:#666;cursor:default;font-size:11px;fill:#666" y="198">15°</text><text x="53" style="color:#666;cursor:default;font-size:11px;fill:#666" y="154">20°</text><text x="53" style="color:#666;cursor:default;font-size:11px;fill:#666" y="110">25°</text><text x="53" style="color:#666;cursor:default;font-size:11px;fill:#666" y="66">30°</text></g></svg>