<svg class="highcharts-root" style="font-family:&quot;Lucida Grande&quot;,&quot;Lucida Sans Unicode&quot;,Arial,Helvetica,sans-serif;font-size:12px" xmlns="http://www.w3.org/2000/svg" width="600" height="500" aria-label="Interactive chart" aria-hidden="false"><defs aria-hidden="true"><clipPath id="a"><path fill="none" d="M0 0h527v346H0z"/></clipPath></defs><rect fill="#fff" class="highcharts-background" width="600" height="500" rx="0" ry="0" aria-hidden="true"/><path fill="none" class="highcharts-plot-background" aria-hidden="true" d="M63 61h527v346H63z"/><g class="highcharts-grid highcharts-xaxis-grid" data-z-index="1" aria-hidden="true" fill="none"><path data-z-index="1" class="highcharts-grid-line" d="M91.5 61v346m30-346v346m29-346v346m29-346v346m29-346v346m30-346v346m29-346v346m29-346v346m29-346v346m30-346v346m29-346v346m29-346v346m30-346v346m29-346v346m29-346v346m29-346v346m30-346v346m29-346v346M62.5 61v346"/></g><g class="highcharts-grid highcharts-yaxis-grid" data-z-index="1" aria-hidden="true" fill="none" stroke="#e6e6e6"><path data-z-index="1" class="highcharts-grid-line" d="M63 407.5h527m-527-58h527m-527-57h527m-527-58h527m-527-58h527m-527-57h527m-527-59h527"/></g><path fill="none" class="highcharts-plot-border" data-z-index="1" aria-hidden="true" d="M63 61h527v346H63z"/><g class="highcharts-axis highcharts-xaxis" data-z-index="2" aria-hidden="true"><path fill="none" class="highcharts-axis-line" stroke="#ccd6eb" data-z-index="7" d="M63 407.5h527"/></g><g class="highcharts-axis highcharts-yaxis" data-z-index="2" aria-hidden="true"><text x="24.086" data-z-index="7" text-anchor="middle" transform="rotate(-90 24.086 234)" class="highcharts-axis-title" style="color:#666;fill:#666" y="234">Values</text><path fill="none" class="highcharts-axis-line" data-z-index="7" d="M63 61v346"/></g><g class="highcharts-series-group" data-z-index="3" aria-hidden="false"><g class="highcharts-series highcharts-series-0 highcharts-variwide-series highcharts-tracker" data-z-index=".1" clip-path="url(#a)" aria-hidden="false" stroke="#fff" transform="translate(63 61)"><path fill="#7cb5ec" class="highcharts-point highcharts-color-0" tabindex="-1" aria-label="Norway, y: 50.2, z: 335,504. Labor Costs." style="outline:0" d="M-.5 57.5h12v289h-12z"/><path fill="#434348" class="highcharts-point highcharts-color-1" tabindex="-1" aria-label="Denmark, y: 42, z: 277,339. Labor Costs." style="outline:0" d="M11.5 104.5h10v242h-10z"/><path fill="#90ed7d" class="highcharts-point highcharts-color-2" tabindex="-1" aria-label="Belgium, y: 39.2, z: 421,611. Labor Costs." style="outline:0" d="M21.5 120.5h15v226h-15z"/><path fill="#f7a35c" class="highcharts-point highcharts-color-3" tabindex="-1" aria-label="Sweden, y: 38, z: 462,057. Labor Costs." style="outline:0" d="M36.5 127.5h17v219h-17z"/><path fill="#8085e9" class="highcharts-point highcharts-color-4" tabindex="-1" aria-label="France, y: 35.6, z: 2,228,857. Labor Costs." style="outline:0" d="M53.5 141.5h80v205h-80z"/><path fill="#f15c80" class="highcharts-point highcharts-color-5" tabindex="-1" aria-label="Netherlands, y: 34.3, z: 702,641. Labor Costs." style="outline:0" d="M133.5 148.5h25v198h-25z"/><path fill="#e4d354" class="highcharts-point highcharts-color-6" tabindex="-1" aria-label="Finland, y: 33.2, z: 215,615. Labor Costs." style="outline:0" d="M158.5 155.5h8v191h-8z"/><path fill="#2b908f" class="highcharts-point highcharts-color-7" tabindex="-1" aria-label="Germany, y: 33, z: 3,144,050. Labor Costs." style="outline:0" d="M166.5 156.5h112v190h-112z"/><path fill="#f45b5b" class="highcharts-point highcharts-color-8" tabindex="-1" aria-label="Austria, y: 32.7, z: 349,344. Labor Costs." style="outline:0" d="M278.5 157.5h13v189h-13z"/><path fill="#91e8e1" class="highcharts-point highcharts-color-9" tabindex="-1" aria-label="Ireland, y: 30.4, z: 275,567. Labor Costs." style="outline:0" d="M291.5 171.5h10v175h-10z"/><path fill="#7cb5ec" class="highcharts-point highcharts-color-0" tabindex="-1" aria-label="Italy, y: 27.8, z: 1,672,438. Labor Costs." style="outline:0" d="M301.5 186.5h60v160h-60z"/><path fill="#434348" class="highcharts-point highcharts-color-1" tabindex="-1" aria-label="United Kingdom, y: 26.7, z: 2,366,911. Labor Costs." style="outline:0" d="M361.5 192.5h84v154h-84z"/><path fill="#90ed7d" class="highcharts-point highcharts-color-2" tabindex="-1" aria-label="Spain, y: 21.3, z: 1,113,851. Labor Costs." style="outline:0" d="M445.5 223.5h40v123h-40z"/><path fill="#f7a35c" class="highcharts-point highcharts-color-3" tabindex="-1" aria-label="Greece, y: 14.2, z: 175,887. Labor Costs." style="outline:0" d="M485.5 264.5h7v82h-7z"/><path fill="#8085e9" class="highcharts-point highcharts-color-4" tabindex="-1" aria-label="Portugal, y: 13.7, z: 184,933. Labor Costs." style="outline:0" d="M492.5 267.5h6v79h-6z"/><path fill="#f15c80" class="highcharts-point highcharts-color-5" tabindex="-1" aria-label="Czech Republic, y: 10.2, z: 176,564. Labor Costs." style="outline:0" d="M498.5 287.5h7v59h-7z"/><path fill="#e4d354" class="highcharts-point highcharts-color-6" tabindex="-1" aria-label="Poland, y: 8.6, z: 424,269. Labor Costs." style="outline:0" d="M505.5 296.5h15v50h-15z"/><path fill="#2b908f" class="highcharts-point highcharts-color-7" tabindex="-1" aria-label="Romania, y: 5.5, z: 169,578. Labor Costs." style="outline:0" d="M520.5 314.5h6v32h-6z"/></g></g><text x="300" text-anchor="middle" class="highcharts-title" data-z-index="4" style="color:#333;font-size:18px;fill:#333" y="24" aria-hidden="true">Labor Costs in Europe, 2016</text><text x="300" text-anchor="middle" class="highcharts-subtitle" data-z-index="4" style="color:#666;fill:#666" y="46" aria-hidden="true">Source: <a><tspan>eurostat</tspan></a></text><text x="10" class="highcharts-caption" data-z-index="4" style="color:#666;fill:#666" y="497" aria-hidden="true">Column widths are proportional to GDP</text><g class="highcharts-data-labels highcharts-series-0 highcharts-variwide-series highcharts-tracker" data-z-index="6" aria-hidden="true"><text x="5" data-z-index="1" y="16" style="color:#000;font-size:11px;font-weight:700;fill:#000" transform="translate(58 96)" class="highcharts-label highcharts-data-label highcharts-data-label-color-0"><tspan class="highcharts-text-outline" fill="#FFF" stroke="#FFF" stroke-width="2" stroke-linejoin="round">€50<tspan x="5" dy="0">​</tspan></tspan>€50</text><text x="5" data-z-index="1" y="16" style="color:#000;font-size:11px;font-weight:700;fill:#000" transform="translate(64 143)" class="highcharts-label highcharts-data-label highcharts-data-label-color-1"><tspan class="highcharts-text-outline" fill="#FFF" stroke="#FFF" stroke-width="2" stroke-linejoin="round">€42<tspan x="5" dy="0">​</tspan></tspan>€42</text><text x="5" data-z-index="1" y="16" style="color:#000;font-size:11px;font-weight:700;fill:#000" transform="translate(76 159)" class="highcharts-label highcharts-data-label highcharts-data-label-color-2"><tspan class="highcharts-text-outline" fill="#FFF" stroke="#FFF" stroke-width="2" stroke-linejoin="round">€39<tspan x="5" dy="0">​</tspan></tspan>€39</text><text x="5" data-z-index="1" y="16" style="color:#000;font-size:11px;font-weight:700;fill:#000" transform="translate(141 180)" class="highcharts-label highcharts-data-label highcharts-data-label-color-4"><tspan class="highcharts-text-outline" fill="#FFF" stroke="#FFF" stroke-width="2" stroke-linejoin="round">€36<tspan x="5" dy="0">​</tspan></tspan>€36</text><text x="5" data-z-index="1" y="16" style="color:#000;font-size:11px;font-weight:700;fill:#000" transform="translate(193 187)" class="highcharts-label highcharts-data-label highcharts-data-label-color-5"><tspan class="highcharts-text-outline" fill="#FFF" stroke="#FFF" stroke-width="2" stroke-linejoin="round">€34<tspan x="5" dy="0">​</tspan></tspan>€34</text><text x="5" data-z-index="1" y="16" style="color:#000;font-size:11px;font-weight:700;fill:#000" transform="translate(270 195)" class="highcharts-label highcharts-data-label highcharts-data-label-color-7"><tspan class="highcharts-text-outline" fill="#FFF" stroke="#FFF" stroke-width="2" stroke-linejoin="round">€33<tspan x="5" dy="0">​</tspan></tspan>€33</text><text x="5" data-z-index="1" y="16" style="color:#000;font-size:11px;font-weight:700;fill:#000" transform="translate(332 196)" class="highcharts-label highcharts-data-label highcharts-data-label-color-8"><tspan class="highcharts-text-outline" fill="#FFF" stroke="#FFF" stroke-width="2" stroke-linejoin="round">€33<tspan x="5" dy="0">​</tspan></tspan>€33</text><text x="5" data-z-index="1" y="16" style="color:#000;font-size:11px;font-weight:700;fill:#000" transform="translate(344 210)" class="highcharts-label highcharts-data-label highcharts-data-label-color-9"><tspan class="highcharts-text-outline" fill="#FFF" stroke="#FFF" stroke-width="2" stroke-linejoin="round">€30<tspan x="5" dy="0">​</tspan></tspan>€30</text><text x="5" data-z-index="1" y="16" style="color:#000;font-size:11px;font-weight:700;fill:#000" transform="translate(379 225)" class="highcharts-label highcharts-data-label highcharts-data-label-color-0"><tspan class="highcharts-text-outline" fill="#FFF" stroke="#FFF" stroke-width="2" stroke-linejoin="round">€28<tspan x="5" dy="0">​</tspan></tspan>€28</text><text x="5" data-z-index="1" y="16" style="color:#000;font-size:11px;font-weight:700;fill:#000" transform="translate(451 231)" class="highcharts-label highcharts-data-label highcharts-data-label-color-1"><tspan class="highcharts-text-outline" fill="#FFF" stroke="#FFF" stroke-width="2" stroke-linejoin="round">€27<tspan x="5" dy="0">​</tspan></tspan>€27</text><text x="5" data-z-index="1" y="16" style="color:#000;font-size:11px;font-weight:700;fill:#000" transform="translate(513 262)" class="highcharts-label highcharts-data-label highcharts-data-label-color-2"><tspan class="highcharts-text-outline" fill="#FFF" stroke="#FFF" stroke-width="2" stroke-linejoin="round">€21<tspan x="5" dy="0">​</tspan></tspan>€21</text><text x="5" data-z-index="1" y="16" style="color:#000;font-size:11px;font-weight:700;fill:#000" transform="translate(536 303)" class="highcharts-label highcharts-data-label highcharts-data-label-color-3"><tspan class="highcharts-text-outline" fill="#FFF" stroke="#FFF" stroke-width="2" stroke-linejoin="round">€14<tspan x="5" dy="0">​</tspan></tspan>€14</text><text x="5" data-z-index="1" y="16" style="color:#000;font-size:11px;font-weight:700;fill:#000" transform="translate(549 326)" class="highcharts-label highcharts-data-label highcharts-data-label-color-5"><tspan class="highcharts-text-outline" fill="#FFF" stroke="#FFF" stroke-width="2" stroke-linejoin="round">€10<tspan x="5" dy="0">​</tspan></tspan>€10</text><text x="5" data-z-index="1" y="16" style="color:#000;font-size:11px;font-weight:700;fill:#000" transform="translate(571 353)" class="highcharts-label highcharts-data-label highcharts-data-label-color-7"><tspan class="highcharts-text-outline" fill="#FFF" stroke="#FFF" stroke-width="2" stroke-linejoin="round">€6<tspan x="5" dy="0">​</tspan></tspan>€6</text></g><g class="highcharts-axis-labels highcharts-xaxis-labels" data-z-index="7" aria-hidden="true" text-anchor="end"><text x="70.081" transform="rotate(-45 70.08 423)" style="color:#666;cursor:default;font-size:11px;fill:#666" y="423">Norway</text><text x="80.883" transform="rotate(-45 80.883 423)" style="color:#666;cursor:default;font-size:11px;fill:#666" y="423">Denmark</text><text x="93.873" transform="rotate(-45 93.873 423)" style="color:#666;cursor:default;font-size:11px;fill:#666" y="423">Belgium</text><text x="109.844" transform="rotate(-45 109.844 423)" style="color:#666;cursor:default;font-size:11px;fill:#666" y="423">Sweden</text><text x="163.7" transform="rotate(-45 163.7 423)" style="color:#666;cursor:default;font-size:11px;fill:#666" y="423">France</text><text x="211.412" transform="rotate(-45 211.412 423)" style="color:#666;cursor:default;font-size:11px;fill:#666" y="423">Netherlands</text><text x="226.328" transform="rotate(-45 226.328 423)" style="color:#666;cursor:default;font-size:11px;fill:#666" y="423">Finland</text><text x="295.862" transform="rotate(-45 295.862 423)" style="color:#666;cursor:default;font-size:11px;fill:#666" y="423">Germany</text><text x="349.62" transform="rotate(-45 349.62 423)" style="color:#666;cursor:default;font-size:11px;fill:#666" y="423">Austria</text><text x="360.59" transform="rotate(-45 360.59 423)" style="color:#666;cursor:default;font-size:11px;fill:#666" y="423">Ireland</text><text x="399.951" transform="rotate(-45 399.95 423)" style="color:#666;cursor:default;font-size:11px;fill:#666" y="423">Italy</text><text x="474.577" transform="rotate(-45 474.577 423)" style="color:#666;cursor:default;font-size:11px;fill:#666" y="423">United Kingdom</text><text x="533.004" transform="rotate(-45 533.004 423)" style="color:#666;cursor:default;font-size:11px;fill:#666" y="423">Spain</text><text x="553.149" transform="rotate(-45 553.149 423)" style="color:#666;cursor:default;font-size:11px;fill:#666" y="423">Greece</text><text x="559.647" transform="rotate(-45 559.647 423)" style="color:#666;cursor:default;font-size:11px;fill:#666" y="423">Portugal</text><text x="566.101" transform="rotate(-45 566.101 423)" style="color:#666;cursor:default;font-size:11px;fill:#666" y="423">Czech Republic</text><text x="577.66" transform="rotate(-45 577.66 423)" style="color:#666;cursor:default;font-size:11px;fill:#666" y="423">Poland</text><text x="587.498" transform="rotate(-45 587.498 423)" style="color:#666;cursor:default;font-size:11px;fill:#666" y="423">Romania</text></g><g class="highcharts-axis-labels highcharts-yaxis-labels" data-z-index="7" aria-hidden="true" text-anchor="end"><text x="48" style="color:#666;cursor:default;font-size:11px;fill:#666" y="412">0</text><text x="48" style="color:#666;cursor:default;font-size:11px;fill:#666" y="354">10</text><text x="48" style="color:#666;cursor:default;font-size:11px;fill:#666" y="296">20</text><text x="48" style="color:#666;cursor:default;font-size:11px;fill:#666" y="239">30</text><text x="48" style="color:#666;cursor:default;font-size:11px;fill:#666" y="181">40</text><text x="48" style="color:#666;cursor:default;font-size:11px;fill:#666" y="123">50</text><text x="48" style="color:#666;cursor:default;font-size:11px;fill:#666" y="66">60</text></g></svg>