<svg class="highcharts-root" style="font-family:&quot;Lucida Grande&quot;,&quot;Lucida Sans Unicode&quot;,Arial,Helvetica,sans-serif;font-size:12px" xmlns="http://www.w3.org/2000/svg" width="600" height="500" aria-label="Interactive chart" aria-hidden="false"><rect fill="#fff" class="highcharts-background" width="600" height="500" rx="0" ry="0" aria-hidden="true"/><path fill="none" class="highcharts-plot-background" aria-hidden="true" d="M10 68h580v417H10z"/><path fill="none" class="highcharts-plot-border" data-z-index="1" aria-hidden="true" d="M10 68h580v417H10z"/><g class="highcharts-series-group" data-z-index="3" aria-hidden="false"><g class="highcharts-series highcharts-series-0 highcharts-variablepie-series highcharts-tracker" data-z-index=".1" aria-hidden="false" stroke="#fff" stroke-linejoin="round"><path fill="#7cb5ec" d="M289.971 66.5a142.5 142.5 0 0 1 141.926 129.408l-102.464 9.454a39.6 39.6 0 0 0-39.441-35.962Z" transform="translate(10 68)" class="highcharts-point highcharts-color-0" tabindex="-1" aria-label="Spain, y: 505,992, z: 92. countries." style="outline:0"/><path fill="#434348" d="M444.857 194.869A155.5 155.5 0 0 1 297.74 364.307l-5.769-115.756a39.6 39.6 0 0 0 37.465-43.15Z" transform="translate(10 68)" class="highcharts-point highcharts-color-1" tabindex="-1" aria-label="France, y: 551,695, z: 119. countries." style="outline:0"/><path fill="#90ed7d" d="M297.634 365.314a156.5 156.5 0 0 1-126.665-54.707l88.912-75.897a39.6 39.6 0 0 0 32.05 13.843Z" transform="translate(10 68)" class="highcharts-point highcharts-color-2" tabindex="-1" aria-label="Poland, y: 312,679, z: 121. countries." style="outline:0"/><path fill="#f7a35c" d="M166.3 314.379a162.5 162.5 0 0 1-20.692-30.831l109.205-56.381a39.6 39.6 0 0 0 5.042 7.513Z" transform="translate(10 68)" class="highcharts-point highcharts-color-3" tabindex="-1" aria-label="Czech Republic, y: 78,865, z: 136. countries." style="outline:0"/><path fill="#8085e9" d="M123.753 294.62a187 187 0 0 1-5.595-159.372l135.452 58.134a39.6 39.6 0 0 0 1.185 33.75Z" transform="translate(10 68)" class="highcharts-point highcharts-color-4" tabindex="-1" aria-label="Italy, y: 301,336, z: 200. countries." style="outline:0"/><path fill="#f15c80" d="M114.558 133.495a191 191 0 0 1 10.204-20.294l130.98 75.937a39.6 39.6 0 0 0-2.116 4.208Z" transform="translate(10 68)" class="highcharts-point highcharts-color-5" tabindex="-1" aria-label="Switzerland, y: 41,284, z: 213. countries." style="outline:0"/><path fill="#e4d354" d="M118.806 109.519A198 198 0 0 1 289.725 11l.22 158.4a39.6 39.6 0 0 0-34.184 19.704Z" transform="translate(10 68)" class="highcharts-point highcharts-color-6" tabindex="-1" aria-label="Germany, y: 357,114, z: 235. countries." style="outline:0"/></g></g><text x="300" text-anchor="middle" class="highcharts-title" data-z-index="4" style="color:#333;font-size:18px;fill:#333" y="24" aria-hidden="true">Countries compared by population density and total area,<tspan dy="21" x="300">​</tspan>2022.</text><g class="highcharts-data-labels highcharts-series-0 highcharts-variablepie-series highcharts-tracker" data-z-index="6" aria-hidden="true"><path fill="none" class="highcharts-data-label-connector highcharts-color-0" stroke="#7cb5ec" d="M421.278 149.581c-5 0-17.133 13.296-21.178 17.728l-4.044 4.432"/><path fill="none" class="highcharts-data-label-connector highcharts-color-1" stroke="#434348" d="M445.05 398.64c-5 0-18.59-11.804-23.12-15.738l-4.53-3.935"/><path fill="none" class="highcharts-data-label-connector highcharts-color-2" stroke="#90ed7d" d="M221.001 448.191c5 0 12.142-16.522 14.523-22.03l2.38-5.507"/><path fill="none" class="highcharts-data-label-connector highcharts-color-3" stroke="#f7a35c" d="M135.086 384.162c5 0 19.953-10.02 24.937-13.36l4.985-3.34"/><path fill="none" class="highcharts-data-label-connector highcharts-color-4" stroke="#8085e9" d="M78.13 284.5c5 0 22.989-.621 28.985-.829l5.997-.207"/><path fill="none" class="highcharts-data-label-connector highcharts-color-5" stroke="#f15c80" d="M97.595 177.64c5 0 21.078 8.093 26.438 10.79l5.36 2.698"/><path fill="none" class="highcharts-data-label-connector highcharts-color-6" stroke="#e4d354" d="M181.302 79.372c5 0 13.976 15.602 16.968 20.803l2.993 5.2"/><text x="5" data-z-index="1" y="16" style="color:#000;font-size:11px;font-weight:700;fill:#000" transform="translate(426 140)" class="highcharts-label highcharts-data-label highcharts-data-label-color-0"><tspan class="highcharts-text-outline" fill="#FFF" stroke="#FFF" stroke-width="2" stroke-linejoin="round">Spain<tspan x="5" dy="0">​</tspan></tspan>Spain</text><text x="5" data-z-index="1" y="16" style="color:#000;font-size:11px;font-weight:700;fill:#000" transform="translate(450 389)" class="highcharts-label highcharts-data-label highcharts-data-label-color-1"><tspan class="highcharts-text-outline" fill="#FFF" stroke="#FFF" stroke-width="2" stroke-linejoin="round">France<tspan x="5" dy="0">​</tspan></tspan>France</text><text x="5" data-z-index="1" y="16" style="color:#000;font-size:11px;font-weight:700;fill:#000" transform="translate(168 438)" class="highcharts-label highcharts-data-label highcharts-data-label-color-2"><tspan class="highcharts-text-outline" fill="#FFF" stroke="#FFF" stroke-width="2" stroke-linejoin="round">Poland<tspan x="5" dy="0">​</tspan></tspan>Poland</text><text x="5" data-z-index="1" y="16" style="color:#000;font-size:11px;font-weight:700;fill:#000" transform="translate(34 374)" class="highcharts-label highcharts-data-label highcharts-data-label-color-3"><tspan class="highcharts-text-outline" fill="#FFF" stroke="#FFF" stroke-width="2" stroke-linejoin="round">Czech Republic<tspan x="5" dy="0">​</tspan></tspan>Czech Republic</text><text x="5" data-z-index="1" y="16" style="color:#000;font-size:11px;font-weight:700;fill:#000" transform="translate(39 275)" class="highcharts-label highcharts-data-label highcharts-data-label-color-4"><tspan class="highcharts-text-outline" fill="#FFF" stroke="#FFF" stroke-width="2" stroke-linejoin="round">Italy<tspan x="5" dy="0">​</tspan></tspan>Italy</text><text x="5" data-z-index="1" y="16" style="color:#000;font-size:11px;font-weight:700;fill:#000" transform="translate(16 168)" class="highcharts-label highcharts-data-label highcharts-data-label-color-5"><tspan class="highcharts-text-outline" fill="#FFF" stroke="#FFF" stroke-width="2" stroke-linejoin="round">Switzerland<tspan x="5" dy="0">​</tspan></tspan>Switzerland</text><text x="5" data-z-index="1" y="16" style="color:#000;font-size:11px;font-weight:700;fill:#000" transform="translate(116 69)" class="highcharts-label highcharts-data-label highcharts-data-label-color-6"><tspan class="highcharts-text-outline" fill="#FFF" stroke="#FFF" stroke-width="2" stroke-linejoin="round">Germany<tspan x="5" dy="0">​</tspan></tspan>Germany</text></g></svg>