<svg class="highcharts-root" style="font-family:&quot;Lucida Grande&quot;,&quot;Lucida Sans Unicode&quot;,Arial,Helvetica,sans-serif;font-size:12px" xmlns="http://www.w3.org/2000/svg" width="600" height="400" aria-label="Interactive chart" aria-hidden="false"><defs aria-hidden="true"><clipPath id="a"><path fill="none" d="M0 0h503v258H0z"/></clipPath></defs><rect fill="#fff" class="highcharts-background" width="600" height="400" rx="0" ry="0" aria-hidden="true"/><path fill="none" class="highcharts-plot-background" aria-hidden="true" d="M87 47h503v258H87z"/><g class="highcharts-grid highcharts-xaxis-grid" data-z-index="1" aria-hidden="true" fill="none"><path data-z-index="1" class="highcharts-grid-line" d="M158.5 47v258m72-258v258m72-258v258m71-258v258m72-258v258m72-258v258m72-258v258M86.5 47v258"/></g><g class="highcharts-grid highcharts-yaxis-grid" data-z-index="1" aria-hidden="true" fill="none" stroke="#e6e6e6"><path data-z-index="1" class="highcharts-grid-line" d="M87 305.5h503M87 46.5h503m-503 195h503m-503-65h503m-503-64h503"/></g><path fill="none" class="highcharts-plot-border" data-z-index="1" aria-hidden="true" d="M87 47h503v258H87z"/><g class="highcharts-axis highcharts-xaxis" data-z-index="2" aria-hidden="true"><path fill="none" class="highcharts-axis-line" stroke="#ccd6eb" data-z-index="7" d="M87 305.5h503"/></g><g class="highcharts-axis highcharts-yaxis" data-z-index="2" aria-hidden="true"><text x="24.266" data-z-index="7" text-anchor="middle" transform="rotate(-90 24.266 176)" class="highcharts-axis-title" style="color:#666;fill:#666" y="176">USD</text><path fill="none" class="highcharts-axis-line" data-z-index="7" d="M87 47v258"/></g><g class="highcharts-series-group" data-z-index="3" aria-hidden="false"><g class="highcharts-series highcharts-series-0 highcharts-waterfall-series highcharts-tracker" data-z-index=".1" clip-path="url(#a)" aria-hidden="false" stroke="#333" transform="translate(87 47)"><path fill="#90ed7d" class="highcharts-point" tabindex="-1" aria-label="Start, 120,000." style="outline:0" d="M13.5 226.5h43v31h-43z"/><path fill="#90ed7d" class="highcharts-point" tabindex="-1" aria-label="Product Revenue, 569,000." style="outline:0" d="M85.5 79.5h43v147h-43z"/><path fill="#90ed7d" class="highcharts-point" tabindex="-1" aria-label="Service Revenue, 231,000." style="outline:0" d="M157.5 20.5h43v60h-43z"/><path fill="#434348" class="highcharts-point highcharts-intermediate-sum" tabindex="-1" aria-label="Positive Balance, 920,000." style="outline:0" d="M229.5 20.5h43v237h-43z"/><path fill="#f7a35c" class="highcharts-point highcharts-negative" tabindex="-1" aria-label="Fixed Costs, -342,000." style="outline:0" d="M301.5 20.5h43v88h-43z"/><path fill="#f7a35c" class="highcharts-point highcharts-negative" tabindex="-1" aria-label="Variable Costs, -233,000." style="outline:0" d="M373.5 108.5h43v60h-43z"/><path fill="#434348" class="highcharts-point highcharts-sum" tabindex="-1" aria-label="Balance, 345,000." style="outline:0" d="M445.5 168.5h43v89h-43z"/><path fill="none" d="M56.5 226.5h29m43-147h29m43-59h29m43 0h29m43 88h29m43 60h29" class="highcharts-graph" data-z-index="1" stroke-dasharray="1,3"/></g></g><text x="300" text-anchor="middle" class="highcharts-title" data-z-index="4" style="color:#333;font-size:18px;fill:#333" y="24" aria-hidden="true">Highcharts Waterfall</text><g class="highcharts-data-labels highcharts-series-0 highcharts-waterfall-series highcharts-tracker" data-z-index="6" aria-hidden="true"><text x="5" data-z-index="1" y="16" style="color:#000;font-size:11px;font-weight:700;fill:#000" transform="translate(103 278)" class="highcharts-label highcharts-data-label highcharts-data-label-color-undefined"><tspan class="highcharts-text-outline" fill="#FFF" stroke="#FFF" stroke-width="2" stroke-linejoin="round">120k<tspan x="5" dy="0">​</tspan></tspan>120k</text><text x="5" data-z-index="1" y="16" style="color:#000;font-size:11px;font-weight:700;fill:#000" transform="translate(175 189)" class="highcharts-label highcharts-data-label highcharts-data-label-color-undefined"><tspan class="highcharts-text-outline" fill="#FFF" stroke="#FFF" stroke-width="2" stroke-linejoin="round">569k<tspan x="5" dy="0">​</tspan></tspan>569k</text><text x="5" data-z-index="1" y="16" style="color:#000;font-size:11px;font-weight:700;fill:#000" transform="translate(247 86)" class="highcharts-label highcharts-data-label highcharts-data-label-color-undefined"><tspan class="highcharts-text-outline" fill="#FFF" stroke="#FFF" stroke-width="2" stroke-linejoin="round">231k<tspan x="5" dy="0">​</tspan></tspan>231k</text><text x="5" data-z-index="1" y="16" style="color:#fff;font-size:11px;font-weight:700;fill:#fff" transform="translate(319 175)" class="highcharts-label highcharts-data-label highcharts-data-label-color-undefined"><tspan class="highcharts-text-outline" fill="#000" stroke="#000" stroke-width="2" stroke-linejoin="round">920k<tspan x="5" dy="0">​</tspan></tspan>920k</text><text x="5" data-z-index="1" y="16" style="color:#000;font-size:11px;font-weight:700;fill:#000" transform="translate(387 100)" class="highcharts-label highcharts-data-label highcharts-data-label-color-undefined"><tspan class="highcharts-text-outline" fill="#FFF" stroke="#FFF" stroke-width="2" stroke-linejoin="round">-342k<tspan x="5" dy="0">​</tspan></tspan>-342k</text><text x="5" data-z-index="1" y="16" style="color:#000;font-size:11px;font-weight:700;fill:#000" transform="translate(459 174)" class="highcharts-label highcharts-data-label highcharts-data-label-color-undefined"><tspan class="highcharts-text-outline" fill="#FFF" stroke="#FFF" stroke-width="2" stroke-linejoin="round">-233k<tspan x="5" dy="0">​</tspan></tspan>-233k</text><text x="5" data-z-index="1" y="16" style="color:#fff;font-size:11px;font-weight:700;fill:#fff" transform="translate(535 249)" class="highcharts-label highcharts-data-label highcharts-data-label-color-undefined"><tspan class="highcharts-text-outline" fill="#000" stroke="#000" stroke-width="2" stroke-linejoin="round">345k<tspan x="5" dy="0">​</tspan></tspan>345k</text></g><g class="highcharts-axis-labels highcharts-xaxis-labels" data-z-index="7" aria-hidden="true" text-anchor="end"><text x="125.521" transform="rotate(-45 125.521 321)" style="color:#666;cursor:default;font-size:11px;fill:#666" y="321">Start</text><text x="197.378" transform="rotate(-45 197.378 321)" style="color:#666;cursor:default;font-size:11px;fill:#666" y="321">Product Revenue</text><text x="269.236" transform="rotate(-45 269.236 321)" style="color:#666;cursor:default;font-size:11px;fill:#666" y="321">Service Revenue</text><text x="341.093" transform="rotate(-45 341.093 321)" style="color:#666;cursor:default;font-size:11px;fill:#666" y="321">Positive Balance</text><text x="412.95" transform="rotate(-45 412.95 321)" style="color:#666;cursor:default;font-size:11px;fill:#666" y="321">Fixed Costs</text><text x="484.807" transform="rotate(-45 484.807 321)" style="color:#666;cursor:default;font-size:11px;fill:#666" y="321">Variable Costs</text><text x="556.664" transform="rotate(-45 556.664 321)" style="color:#666;cursor:default;font-size:11px;fill:#666" y="321">Balance</text></g><g class="highcharts-axis-labels highcharts-yaxis-labels" data-z-index="7" aria-hidden="true" text-anchor="end"><text x="72" style="color:#666;cursor:default;font-size:11px;fill:#666" y="310">0</text><text x="72" style="color:#666;cursor:default;font-size:11px;fill:#666" y="52">1 000k</text><text x="72" style="color:#666;cursor:default;font-size:11px;fill:#666" y="245">250k</text><text x="72" style="color:#666;cursor:default;font-size:11px;fill:#666" y="181">500k</text><text x="72" style="color:#666;cursor:default;font-size:11px;fill:#666" y="116">750k</text></g></svg>