<svg class="highcharts-root" style="font-family:&quot;Lucida Grande&quot;,&quot;Lucida Sans Unicode&quot;,Arial,Helvetica,sans-serif;font-size:12px" xmlns="http://www.w3.org/2000/svg" width="600" height="370" aria-label="Interactive chart" aria-hidden="false"><defs aria-hidden="true"><linearGradient x1="0" x2="0" y1="0" y2="1" id="b"><stop offset="0" stop-color="#7cb5ec"/><stop offset="1" stop-color="#7CB5EC" stop-opacity=".25"/></linearGradient><clipPath id="a"><path fill="none" d="M0 0h534v195H0z"/></clipPath></defs><rect fill="#fff" class="highcharts-background" width="600" height="370" rx="0" ry="0" aria-hidden="true"/><path fill="none" class="highcharts-plot-background" aria-hidden="true" d="M56 61h534v195H56z"/><g class="highcharts-grid highcharts-xaxis-grid" data-z-index="1" aria-hidden="true" fill="none"><path data-z-index="1" class="highcharts-grid-line" d="M71.5 61v195m87-195v195m88-195v195m87-195v195m87-195v195m88-195v195"/></g><g class="highcharts-grid highcharts-yaxis-grid" data-z-index="1" aria-hidden="true" fill="none" stroke="#e6e6e6"><path data-z-index="1" class="highcharts-grid-line" d="M56 256.5h534m-534-65h534m-534-65h534m-534-66h534"/></g><path fill="none" class="highcharts-plot-border" data-z-index="1" aria-hidden="true" d="M56 61h534v195H56z"/><g class="highcharts-axis highcharts-xaxis" data-z-index="2" aria-hidden="true" fill="none" stroke="#ccd6eb"><path class="highcharts-tick" d="M71.5 296v10m87-10v10m88-10v10m87-10v10m87-10v10m88-10v10"/><path class="highcharts-axis-line" data-z-index="7" d="M56 296.5h534"/></g><g class="highcharts-axis highcharts-yaxis" data-z-index="2" aria-hidden="true"><text x="24.039" data-z-index="7" text-anchor="middle" transform="rotate(-90 24.04 158.5)" class="highcharts-axis-title" style="color:#666;fill:#666" y="158.5">Wind speed (m/s)</text><path fill="none" class="highcharts-axis-line" data-z-index="7" d="M56 61v195"/></g><g class="highcharts-series-group" data-z-index="3" aria-hidden="false"><g class="highcharts-markers highcharts-series-0 highcharts-windbarb-series highcharts-tracker" data-z-index=".1" aria-hidden="false" tabindex="-1" aria-label="Wind, series 1 of 2 with 24 data points." style="outline:0" fill="none" stroke="#434348" stroke-width="2"><path class="highcharts-point highcharts-color-undefined" d="M0 7h-1.5L0 10l1.5-3H0v-17h4" transform="rotate(-114 125.587 114.642)" tabindex="-1" aria-label="Saturday, Jul 30, 00:00, value: 4.9 m/s, direction: 246 m/s. Wind." style="outline:0"/><path class="highcharts-point highcharts-color-undefined" d="M0 7h-1.5L0 10l1.5-3H0v-17h4" transform="rotate(-118 129.803 109.83)" tabindex="-1" aria-label="Saturday, Jul 30, 01:00, value: 4.1 m/s, direction: 242 m/s. Wind." style="outline:0"/><path class="highcharts-point highcharts-color-undefined" d="M0 7h-1.5L0 10l1.5-3H0v-17h4" transform="rotate(-98 177.762 87.755)" tabindex="-1" aria-label="Saturday, Jul 30, 02:00, value: 3.2 m/s, direction: 262 m/s. Wind." style="outline:0"/><path class="highcharts-point highcharts-color-undefined" d="M0 7h-1.5L0 10l1.5-3H0v-17" transform="rotate(-76 245.348 50.048)" tabindex="-1" aria-label="Saturday, Jul 30, 03:00, value: 1.5 m/s, direction: 284 m/s. Wind." style="outline:0"/><path class="highcharts-point highcharts-color-undefined" d="M0 7h-1.5L0 10l1.5-3H0v-17" transform="rotate(-66 292.133 15.378)" tabindex="-1" aria-label="Saturday, Jul 30, 04:00, value: 1.1 m/s, direction: 294 m/s. Wind." style="outline:0"/><path class="highcharts-point highcharts-color-undefined" d="M0 7h-1.5L0 10l1.5-3H0v-17" transform="rotate(-168 105.052 128.483)" tabindex="-1" aria-label="Saturday, Jul 30, 05:00, value: 0.4 m/s, direction: 192 m/s. Wind." style="outline:0"/><path class="highcharts-point highcharts-color-undefined" d="M0 10a10 10 0 1 1 .01 0Z" transform="rotate(30 -413.56 516.666)" tabindex="-1" aria-label="Saturday, Jul 30, 06:00, value: 0.2 m/s, direction: 30 m/s. Wind." style="outline:0"/><path class="highcharts-point highcharts-color-undefined" d="M0 7h-1.5L0 10l1.5-3H0v-17" transform="rotate(110 15.75 216.689)" tabindex="-1" aria-label="Saturday, Jul 30, 07:00, value: 1.1 m/s, direction: 110 m/s. Wind." style="outline:0"/><path class="highcharts-point highcharts-color-undefined" d="M0 7h-1.5L0 10l1.5-3H0v-17" transform="rotate(112 30.213 221.163)" tabindex="-1" aria-label="Saturday, Jul 30, 08:00, value: 1.4 m/s, direction: 112 m/s. Wind." style="outline:0"/><path class="highcharts-point highcharts-color-undefined" d="M0 7h-1.5L0 10l1.5-3H0v-17" transform="rotate(132 72.769 197.754)" tabindex="-1" aria-label="Saturday, Jul 30, 09:00, value: 2.1 m/s, direction: 132 m/s. Wind." style="outline:0"/><path class="highcharts-point highcharts-color-undefined" d="M0 7h-1.5L0 10l1.5-3H0v-17" transform="rotate(134 86.549 199.602)" tabindex="-1" aria-label="Saturday, Jul 30, 10:00, value: 1.6 m/s, direction: 134 m/s. Wind." style="outline:0"/><path class="highcharts-point highcharts-color-undefined" d="M0 7h-1.5L0 10l1.5-3H0v-17" transform="rotate(128 88.735 214.107)" tabindex="-1" aria-label="Saturday, Jul 30, 11:00, value: 1.5 m/s, direction: 128 m/s. Wind." style="outline:0"/><path class="highcharts-point highcharts-color-undefined" d="M0 7h-1.5L0 10l1.5-3H0v-17" transform="rotate(91 31.346 302.07)" tabindex="-1" aria-label="Saturday, Jul 30, 12:00, value: 0.7 m/s, direction: 91 m/s. Wind." style="outline:0"/><path class="highcharts-point highcharts-color-undefined" d="M0 7h-1.5L0 10l1.5-3H0v-17" transform="rotate(-85 328.474 -56.115)" tabindex="-1" aria-label="Saturday, Jul 30, 13:00, value: 0.7 m/s, direction: 275 m/s. Wind." style="outline:0"/><path class="highcharts-point highcharts-color-undefined" d="M0 7h-1.5L0 10l1.5-3H0v-17" transform="rotate(-19 1013.445 -990.161)" tabindex="-1" aria-label="Saturday, Jul 30, 14:00, value: 0.6 m/s, direction: 341 m/s. Wind." style="outline:0"/><path class="highcharts-point highcharts-color-undefined" d="M0 7h-1.5L0 10l1.5-3H0v-17h4" transform="rotate(-124 273.081 31.815)" tabindex="-1" aria-label="Saturday, Jul 30, 15:00, value: 4.5 m/s, direction: 236 m/s. Wind." style="outline:0"/><path class="highcharts-point highcharts-color-undefined" d="M0 7h-1.5L0 10l1.5-3H0v-17h4" transform="rotate(-119 291.91 13.935)" tabindex="-1" aria-label="Saturday, Jul 30, 16:00, value: 4.9 m/s, direction: 241 m/s. Wind." style="outline:0"/><path class="highcharts-point highcharts-color-undefined" d="M0 7h-1.5L0 10l1.5-3H0v-17h4" transform="rotate(-126 291.851 25.121)" tabindex="-1" aria-label="Saturday, Jul 30, 17:00, value: 3.4 m/s, direction: 234 m/s. Wind." style="outline:0"/><path class="highcharts-point highcharts-color-undefined" d="M0 7h-1.5L0 10l1.5-3H0v-17" transform="rotate(-100 348.248 -57.05)" tabindex="-1" aria-label="Saturday, Jul 30, 18:00, value: 0.7 m/s, direction: 260 m/s. Wind." style="outline:0"/><path class="highcharts-point highcharts-color-undefined" d="M0 7h-1.5L0 10l1.5-3H0v-17" transform="rotate(-86 391.355 -122.98)" tabindex="-1" aria-label="Saturday, Jul 30, 19:00, value: 1.1 m/s, direction: 274 m/s. Wind." style="outline:0"/><path class="highcharts-point highcharts-color-undefined" d="M0 7h-1.5L0 10l1.5-3H0v-17" transform="rotate(-33 720.164 -720.449)" tabindex="-1" aria-label="Saturday, Jul 30, 20:00, value: 0.9 m/s, direction: 327 m/s. Wind." style="outline:0"/><path class="highcharts-point highcharts-color-undefined" d="M0 7h-1.5L0 10l1.5-3H0v-17" transform="rotate(-24 914.439 -1109.668)" tabindex="-1" aria-label="Saturday, Jul 30, 21:00, value: 0.5 m/s, direction: 336 m/s. Wind." style="outline:0"/><path class="highcharts-point highcharts-color-undefined" d="M0 7h-1.5L0 10l1.5-3H0v-17" transform="rotate(-29 809.722 -929.66)" tabindex="-1" aria-label="Saturday, Jul 30, 22:00, value: 0.4 m/s, direction: 331 m/s. Wind." style="outline:0"/><path class="highcharts-point highcharts-color-undefined" d="M0 7h-1.5L0 10l1.5-3H0v-17" transform="rotate(157 258.955 196.397)" tabindex="-1" aria-label="Saturday, Jul 30, 23:00, value: 1.4 m/s, direction: 157 m/s. Wind." style="outline:0"/></g><g class="highcharts-series highcharts-series-1 highcharts-area-series" data-z-index=".1" clip-path="url(#a)" aria-hidden="true" transform="translate(56 61)"><path fill="url(#b)" d="m15.937 35.75 21.832 26L59.6 91l21.832 55.25 21.831 13L125.095 182l21.831 6.5 21.832-29.25 21.832-9.75 21.831-22.75L234.253 143l21.831 3.25 21.832 26h21.831l21.832 3.25L343.41 48.75l21.832-13 21.832 48.75 21.831 87.75 21.832-13 21.831 6.5 21.832 13 21.83 3.25 21.832-32.5V195H15.937Z" class="highcharts-area" data-z-index="0"/><path fill="none" d="m15.937 35.75 21.832 26L59.6 91l21.832 55.25 21.831 13L125.095 182l21.831 6.5 21.832-29.25 21.832-9.75 21.831-22.75L234.253 143l21.831 3.25 21.832 26h21.831l21.832 3.25L343.41 48.75l21.832-13 21.832 48.75 21.831 87.75 21.832-13 21.831 6.5 21.832 13 21.83 3.25 21.832-32.5" class="highcharts-graph" data-z-index="1" stroke="#7cb5ec" stroke-width="2" stroke-linejoin="round" stroke-linecap="round"/><path fill="none" d="m15.937 35.75 21.832 26L59.6 91l21.832 55.25 21.831 13L125.095 182l21.831 6.5 21.832-29.25 21.832-9.75 21.831-22.75L234.253 143l21.831 3.25 21.832 26h21.831l21.832 3.25L343.41 48.75l21.832-13 21.832 48.75 21.831 87.75 21.832-13 21.831 6.5 21.832 13 21.83 3.25 21.832-32.5" data-z-index="2" class="highcharts-tracker-line" stroke-linecap="round" stroke-linejoin="round" stroke="rgba(192,192,192,0.0001)" stroke-width="22"/></g><g class="highcharts-markers highcharts-series-1 highcharts-area-series highcharts-tracker" data-z-index=".1" aria-hidden="false" tabindex="-1" aria-label="Wind speed, series 2 of 2 with 24 data points." style="outline:0" fill="#7cb5ec"><path d="M15 40a4 4 0 1 1 .004 0Z" class="highcharts-point" tabindex="-1" aria-label="Saturday, Jul 30, 00:00, 4.9 m/s. Wind speed." style="outline:0" transform="translate(56 61)"/><path d="M37 66a4 4 0 1 1 .004 0Z" class="highcharts-point" tabindex="-1" aria-label="Saturday, Jul 30, 01:00, 4.1 m/s. Wind speed." style="outline:0" transform="translate(56 61)"/><path d="M59 95a4 4 0 1 1 .004 0Z" class="highcharts-point" tabindex="-1" aria-label="Saturday, Jul 30, 02:00, 3.2 m/s. Wind speed." style="outline:0" transform="translate(56 61)"/><path d="M81 150a4 4 0 1 1 .004 0Z" class="highcharts-point" tabindex="-1" aria-label="Saturday, Jul 30, 03:00, 1.5 m/s. Wind speed." style="outline:0" transform="translate(56 61)"/><path d="M103 163a4 4 0 1 1 .004 0Z" class="highcharts-point" tabindex="-1" aria-label="Saturday, Jul 30, 04:00, 1.1 m/s. Wind speed." style="outline:0" transform="translate(56 61)"/><path d="M125 186a4 4 0 1 1 .004 0Z" class="highcharts-point" tabindex="-1" aria-label="Saturday, Jul 30, 05:00, 0.4 m/s. Wind speed." style="outline:0" transform="translate(56 61)"/><path d="M146 193a4 4 0 1 1 .004 0Z" class="highcharts-point" tabindex="-1" aria-label="Saturday, Jul 30, 06:00, 0.2 m/s. Wind speed." style="outline:0" transform="translate(56 61)"/><path d="M168 163a4 4 0 1 1 .004 0Z" class="highcharts-point" tabindex="-1" aria-label="Saturday, Jul 30, 07:00, 1.1 m/s. Wind speed." style="outline:0" transform="translate(56 61)"/><path d="M190 154a4 4 0 1 1 .004 0Z" class="highcharts-point" tabindex="-1" aria-label="Saturday, Jul 30, 08:00, 1.4 m/s. Wind speed." style="outline:0" transform="translate(56 61)"/><path d="M212 131a4 4 0 1 1 .004 0Z" class="highcharts-point" tabindex="-1" aria-label="Saturday, Jul 30, 09:00, 2.1 m/s. Wind speed." style="outline:0" transform="translate(56 61)"/><path d="M234 147a4 4 0 1 1 .004 0Z" class="highcharts-point" tabindex="-1" aria-label="Saturday, Jul 30, 10:00, 1.6 m/s. Wind speed." style="outline:0" transform="translate(56 61)"/><path d="M256 150a4 4 0 1 1 .004 0Z" class="highcharts-point" tabindex="-1" aria-label="Saturday, Jul 30, 11:00, 1.5 m/s. Wind speed." style="outline:0" transform="translate(56 61)"/><path d="M277 176a4 4 0 1 1 .004 0Z" class="highcharts-point" tabindex="-1" aria-label="Saturday, Jul 30, 12:00, 0.7 m/s. Wind speed." style="outline:0" transform="translate(56 61)"/><path d="M299 176a4 4 0 1 1 .004 0Z" class="highcharts-point" tabindex="-1" aria-label="Saturday, Jul 30, 13:00, 0.7 m/s. Wind speed." style="outline:0" transform="translate(56 61)"/><path d="M321 180a4 4 0 1 1 .004 0Z" class="highcharts-point" tabindex="-1" aria-label="Saturday, Jul 30, 14:00, 0.6 m/s. Wind speed." style="outline:0" transform="translate(56 61)"/><path d="M343 53a4 4 0 1 1 .004 0Z" class="highcharts-point" tabindex="-1" aria-label="Saturday, Jul 30, 15:00, 4.5 m/s. Wind speed." style="outline:0" transform="translate(56 61)"/><path d="M365 40a4 4 0 1 1 .004 0Z" class="highcharts-point" tabindex="-1" aria-label="Saturday, Jul 30, 16:00, 4.9 m/s. Wind speed." style="outline:0" transform="translate(56 61)"/><path d="M387 89a4 4 0 1 1 .004 0Z" class="highcharts-point" tabindex="-1" aria-label="Saturday, Jul 30, 17:00, 3.4 m/s. Wind speed." style="outline:0" transform="translate(56 61)"/><path d="M408 176a4 4 0 1 1 .004 0Z" class="highcharts-point" tabindex="-1" aria-label="Saturday, Jul 30, 18:00, 0.7 m/s. Wind speed." style="outline:0" transform="translate(56 61)"/><path d="M430 163a4 4 0 1 1 .004 0Z" class="highcharts-point" tabindex="-1" aria-label="Saturday, Jul 30, 19:00, 1.1 m/s. Wind speed." style="outline:0" transform="translate(56 61)"/><path d="M452 170a4 4 0 1 1 .004 0Z" class="highcharts-point" tabindex="-1" aria-label="Saturday, Jul 30, 20:00, 0.9 m/s. Wind speed." style="outline:0" transform="translate(56 61)"/><path d="M474 183a4 4 0 1 1 .004 0Z" class="highcharts-point" tabindex="-1" aria-label="Saturday, Jul 30, 21:00, 0.5 m/s. Wind speed." style="outline:0" transform="translate(56 61)"/><path d="M496 186a4 4 0 1 1 .004 0Z" class="highcharts-point" tabindex="-1" aria-label="Saturday, Jul 30, 22:00, 0.4 m/s. Wind speed." style="outline:0" transform="translate(56 61)"/><path d="M518 154a4 4 0 1 1 .004 0Z" class="highcharts-point" tabindex="-1" aria-label="Saturday, Jul 30, 23:00, 1.4 m/s. Wind speed." style="outline:0" transform="translate(56 61)"/></g></g><text x="300" text-anchor="middle" class="highcharts-title" data-z-index="4" style="color:#333;font-size:18px;fill:#333" y="24" aria-hidden="true">Observed wind in Vik, 30. July 2022</text><text x="300" text-anchor="middle" class="highcharts-subtitle" data-z-index="4" style="color:#666;fill:#666" y="46" aria-hidden="true">Source: <a target="_blank"><tspan>YR</tspan></a></text><g class="highcharts-legend highcharts-no-tooltip" data-z-index="7" transform="translate(246 329)" aria-hidden="true"><rect fill="none" class="highcharts-legend-box" rx="0" ry="0" width="108" height="26"/><g class="highcharts-legend-item highcharts-area-series highcharts-color-undefined highcharts-series-1" data-z-index="1" transform="translate(8 3)"><text x="21" data-z-index="2" y="15" style="color:#333;cursor:pointer;font-size:12px;font-weight:700;fill:#333">Wind speed</text><rect x="2" y="4" width="12" height="12" fill="#7cb5ec" rx="6" ry="6" class="highcharts-point" data-z-index="3"/></g></g><g class="highcharts-axis-labels highcharts-xaxis-labels" data-z-index="7" aria-hidden="true" text-anchor="middle"><text x="71.937" style="color:#666;cursor:default;font-size:11px;fill:#666" y="315">30. Jul</text><text x="159.263" style="color:#666;cursor:default;font-size:11px;fill:#666" y="315">04:00</text><text x="246.59" style="color:#666;cursor:default;font-size:11px;fill:#666" y="315">08:00</text><text x="333.916" style="color:#666;cursor:default;font-size:11px;fill:#666" y="315">12:00</text><text x="421.242" style="color:#666;cursor:default;font-size:11px;fill:#666" y="315">16:00</text><text x="508.568" style="color:#666;cursor:default;font-size:11px;fill:#666" y="315">20:00</text></g><g class="highcharts-axis-labels highcharts-yaxis-labels" data-z-index="7" aria-hidden="true" text-anchor="end"><text x="41" style="color:#666;cursor:default;font-size:11px;fill:#666" y="261">0</text><text x="41" style="color:#666;cursor:default;font-size:11px;fill:#666" y="196">2</text><text x="41" style="color:#666;cursor:default;font-size:11px;fill:#666" y="131">4</text><text x="41" style="color:#666;cursor:default;font-size:11px;fill:#666" y="66">6</text></g></svg>