<svg class="highcharts-root" style="font-family:&quot;Lucida Grande&quot;,&quot;Lucida Sans Unicode&quot;,Arial,Helvetica,sans-serif;font-size:12px" xmlns="http://www.w3.org/2000/svg" width="600" height="400" aria-label="Interactive chart" aria-hidden="false"><rect fill="#fff" class="highcharts-background" width="600" height="400" rx="0" ry="0" aria-hidden="true"/><g stroke-linejoin="round" class="highcharts-3d-frame highcharts-3d-frame-bottom" data-z-index="-1000" aria-hidden="true" fill="none"><path d="m189.324 206.1 338.491 34.83L510.978 253l-347.885-37.34Z"/><path d="m528.028 241.524-17.068 12.263.018-.787 16.837-12.07Zm-17.068 12.263-348.464-37.491.597-.637L510.978 253Z"/></g><g stroke-linejoin="round" class="highcharts-3d-frame highcharts-3d-frame-left" data-z-index="-1000" aria-hidden="true" fill="none"><path d="m186.482 72.937.239.106-26.794 5.219-.623-.036Z"/><path d="m186.72 73.043 2.604 133.057-26.231 9.56-3.166-137.398Z"/><path d="m162.496 216.296-3.192-138.07.623.036 3.166 137.397Z"/></g><g stroke-linejoin="round" class="highcharts-3d-frame highcharts-3d-frame-back" data-z-index="-1000" aria-hidden="true" fill="none"><path d="m186.482 72.937 345.302 19.06-.234.092-344.83-19.046Zm345.302 19.061-3.756 149.526-.213-.594 3.735-148.84Z"/><path d="m186.72 73.043 344.83 19.046-3.735 148.841-338.491-34.83Z"/></g><path fill="none" class="highcharts-plot-background" aria-hidden="true" d="M86 61h504v192H86z"/><g class="highcharts-grid highcharts-xaxis-grid" data-z-index="1" aria-hidden="true" fill="none" stroke="#e6e6e6"><path data-z-index="1" class="highcharts-grid-line" d="m212.218 74.45 2.184 134.23m-25.632 9.735 25.632-9.735m24.101-132.777 1.743 135.437m-24.998 9.917 24.998-9.917m25.037-133.958 1.286 136.666m-24.335 10.106 24.335-10.106M292.574 78.89l.81 137.917m-23.642 10.3 23.643-10.3M320.39 80.426l.317 139.193m-22.92 10.498 22.92-10.498m28.039-137.627-.196 140.492m-22.163 10.703 22.163-10.703m29.108-138.895-.728 141.815m-21.373 10.914 21.373-10.914m30.213-140.187-1.282 143.164m-20.547 11.13 20.547-11.13m31.357-141.503-1.858 144.539m-19.683 11.354 19.683-11.354M467.9 88.573l-2.455 145.94m-18.78 11.584 18.78-11.585M499.21 90.303l-3.079 147.367m-17.836 11.822 17.836-11.822m35.803-145.56-3.742 148.859m-16.825 12.073 16.825-12.073M186.416 73.026l2.608 133.043m-26.238 9.557 26.238-9.557"/></g><g class="highcharts-grid highcharts-yaxis-grid" data-z-index="1" aria-hidden="true" fill="none" stroke="#e6e6e6"><path data-z-index="1" class="highcharts-grid-line" d="m189.33 206.44 338.476 34.87M163.1 216.01l26.23-9.57m-.857-43.837 340.561 29.74m-366.976-21.581 26.415-8.159m-.868-44.345L530.28 142.74m-369.277-17.77 26.602-6.712m-.891-45.568L531.56 91.694M159.918 77.898l26.796-5.208"/></g><path fill="none" class="highcharts-plot-border" data-z-index="1" aria-hidden="true" d="M86 61h504v192H86z"/><g class="highcharts-axis highcharts-yaxis" data-z-index="2" aria-hidden="true"><text x="116.315" data-z-index="7" text-anchor="middle" transform="rotate(-90 116.315 147.577)" class="highcharts-axis-title" style="color:#666;fill:#666" y="147.577">NOK (million)</text></g><g class="highcharts-series-group" data-z-index="3" aria-hidden="false"><g class="highcharts-markers highcharts-series-0 highcharts-column-series highcharts-color-0 highcharts-tracker" data-z-index="10" aria-hidden="false" stroke-linejoin="round" stroke="#7cb5ec"><g data-z-index="10600105" class="highcharts-point highcharts-color-0" tabindex="-1" aria-label="Belgium, 16,076 MNOK. Total imports." style="outline:0"><path fill="#7cb5ec" d="m169.937 216.562 12.99 1.395-.304-14.881-13.014-1.328Z" class="highcharts-3d-front" data-z-index="0"/><path fill="#95CEFF" d="m182.623 203.076 9.415-3.367-12.904-1.297-9.525 3.336Z" class="highcharts-3d-top" data-z-index="0"/><path fill="#639CD3" d="m182.623 203.076.304 14.881 9.393-3.536-.282-14.712Z" class="highcharts-3d-side" data-z-index="0"/></g><g data-z-index="52601335" class="highcharts-point highcharts-color-0" tabindex="-1" aria-label="China, 112,688 MNOK. Total imports." style="outline:0"><path fill="#7cb5ec" d="m196.04 219.365 13.236 1.422-1.768-104.182-13.409-.943Z" class="highcharts-3d-front" data-z-index="0"/><path fill="#95CEFF" d="m207.508 116.605 9.312-2.39-13.291-.92-9.43 2.367Z" class="highcharts-3d-top" data-z-index="0"/><path fill="#639CD3" d="m207.508 116.605 1.768 104.182 9.166-3.603-1.622-102.97Z" class="highcharts-3d-side" data-z-index="0"/></g><g data-z-index="94600395" class="highcharts-point highcharts-color-0" tabindex="-1" aria-label="Denmark, 39,452 MNOK. Total imports." style="outline:0"><path fill="#7cb5ec" d="m222.638 222.222 13.49 1.449-.486-36.184-13.552-1.282Z" class="highcharts-3d-front" data-z-index="0"/><path fill="#95CEFF" d="m235.642 187.487 8.977-3.25-13.43-1.252-9.099 3.22Z" class="highcharts-3d-top" data-z-index="0"/><path fill="#639CD3" d="m235.642 187.487.486 36.184 8.93-3.672-.439-35.762Z" class="highcharts-3d-side" data-z-index="0"/></g><g data-z-index="136599895" class="highcharts-point highcharts-color-0" tabindex="-1" aria-label="Fiji, 0 MNOK. Total imports." style="outline:0"><path fill="#7cb5ec" d="m249.748 225.133 13.751 1.477-13.751-1.477Z" class="highcharts-3d-front" data-z-index="0"/><path fill="#95CEFF" d="m263.5 226.61 8.68-3.742-13.625-1.441-8.807 3.706Z" class="highcharts-3d-top" data-z-index="0"/><path fill="#7CB5EC" d="m263.5 226.61 8.68-3.742Z" class="highcharts-3d-side" data-z-index="0"/></g><g data-z-index="178601105" class="highcharts-point highcharts-color-0" tabindex="-1" aria-label="Germany, 94,352 MNOK. Total imports." style="outline:0"><path fill="#7cb5ec" d="m277.384 228.101 14.02 1.506-.553-89.83-14.182-1.083Z" class="highcharts-3d-front" data-z-index="0"/><path fill="#95CEFF" d="m290.851 139.777 8.528-2.743-14.049-1.056-8.661 2.716Z" class="highcharts-3d-top" data-z-index="0"/><path fill="#639CD3" d="m290.851 139.777.553 89.83 8.422-3.815-.447-88.758Z" class="highcharts-3d-side" data-z-index="0"/></g><g data-z-index="220600285" class="highcharts-point highcharts-color-0" tabindex="-1" aria-label="Netherlands, 30,495 MNOK. Total imports." style="outline:0"><path fill="#7cb5ec" d="m305.561 231.128 14.297 1.535-.07-28.995-14.35-1.399Z" class="highcharts-3d-front" data-z-index="0"/><path fill="#95CEFF" d="m319.788 203.668 8.183-3.544-14.213-1.364-8.32 3.51Z" class="highcharts-3d-top" data-z-index="0"/><path fill="#639CD3" d="m319.788 203.668.07 28.995 8.15-3.89-.037-28.649Z" class="highcharts-3d-side" data-z-index="0"/></g><g data-z-index="262600175" class="highcharts-point highcharts-color-0" tabindex="-1" aria-label="Russia, 21,813 MNOK. Total imports." style="outline:0"><path fill="#7cb5ec" d="m334.296 234.214 14.581 1.566.03-20.993-14.621-1.467Z" class="highcharts-3d-front" data-z-index="0"/><path fill="#95CEFF" d="m348.908 214.787 7.888-3.715-14.478-1.43-8.032 3.678Z" class="highcharts-3d-top" data-z-index="0"/><path fill="#639CD3" d="m348.908 214.787-.03 20.993 7.866-3.968.052-20.74Z" class="highcharts-3d-side" data-z-index="0"/></g><g data-z-index="304601125" class="highcharts-point highcharts-color-0" tabindex="-1" aria-label="Sweden, 95,908 MNOK. Total imports." style="outline:0"><path fill="#7cb5ec" d="m363.605 237.361 14.875 1.598.503-94.002-15.062-1.142Z" class="highcharts-3d-front" data-z-index="0"/><path fill="#95CEFF" d="m378.983 144.957 7.656-2.893-14.907-1.113-7.81 2.864Z" class="highcharts-3d-top" data-z-index="0"/><path fill="#639CD3" d="m378.983 144.957-.503 94.002 7.57-4.047.59-92.848Z" class="highcharts-3d-side" data-z-index="0"/></g><g data-z-index="346600045" class="highcharts-point highcharts-color-0" tabindex="-1" aria-label="Turkey, 11,596 MNOK. Total imports." style="outline:0"><path fill="#7cb5ec" d="m393.505 240.573 15.178 1.63.107-11.45-15.201-1.575Z" class="highcharts-3d-front" data-z-index="0"/><path fill="#95CEFF" d="m408.79 230.752 7.27-3.988-15.044-1.535-7.427 3.949Z" class="highcharts-3d-top" data-z-index="0"/><path fill="#639CD3" d="m408.79 230.752-.107 11.45 7.26-4.128.117-11.31Z" class="highcharts-3d-side" data-z-index="0"/></g><g data-z-index="388600585" class="highcharts-point highcharts-color-0" tabindex="-1" aria-label="United States, 53,771 MNOK. Total imports." style="outline:0"><path fill="#7cb5ec" d="m424.015 243.85 15.49 1.663.718-53.483-15.602-1.4Z" class="highcharts-3d-front" data-z-index="0"/><path fill="#95CEFF" d="m440.223 192.03 6.975-3.548-15.436-1.364-7.141 3.511Z" class="highcharts-3d-top" data-z-index="0"/><path fill="#639CD3" d="m440.223 192.03-.718 53.483 6.936-4.214.757-52.817Z" class="highcharts-3d-side" data-z-index="0"/></g><g data-z-index="472600005" class="highcharts-point highcharts-color-0" tabindex="-1" aria-label="Vietnam, 8,270 MNOK. Total imports." style="outline:0"><path fill="#7cb5ec" d="m486.94 250.607 16.144 1.734.189-8.646-16.163-1.69Z" class="highcharts-3d-front" data-z-index="0"/><path fill="#95CEFF" d="m503.273 243.695 6.245-4.281-15.982-1.646-6.426 4.237Z" class="highcharts-3d-top" data-z-index="0"/><path fill="#639CD3" d="m503.273 243.695-.19 8.646 6.242-4.39.193-8.537Z" class="highcharts-3d-side" data-z-index="0"/></g></g></g><text x="300" text-anchor="middle" class="highcharts-title" data-z-index="4" style="color:#333;font-size:18px;fill:#333" y="24" aria-hidden="true">External trade in goods by country, Norway 2021</text><text x="300" text-anchor="middle" class="highcharts-subtitle" data-z-index="4" style="color:#666;fill:#666" y="46" aria-hidden="true">Source: <a target="_blank"><tspan>SSB</tspan></a></text><g class="highcharts-legend highcharts-no-tooltip" data-z-index="7" transform="translate(240 359)" aria-hidden="true"><rect fill="none" class="highcharts-legend-box" rx="0" ry="0" width="120" height="26"/><g class="highcharts-legend-item highcharts-column-series highcharts-color-0 highcharts-series-0" data-z-index="1" transform="translate(8 3)"><text x="21" data-z-index="2" y="15" style="color:#333;cursor:pointer;font-size:12px;font-weight:700;fill:#333">Total imports</text><rect x="2" y="4" width="12" height="12" fill="#7cb5ec" rx="6" ry="6" class="highcharts-point" data-z-index="3"/></g></g><g class="highcharts-axis-labels highcharts-xaxis-labels" data-z-index="7" aria-hidden="true" text-anchor="end"><text x="178.216" transform="matrix(.43834 -.46215 .43834 .56059 -1.17 183.877)" style="color:#666;cursor:default;font-size:16px;fill:#666" y="231.023">Belgium</text><text x="204.493" transform="matrix(.44668 -.46605 .44668 .56636 8.64 196.764)" style="color:#666;cursor:default;font-size:16px;fill:#666" y="233.973">China</text><text x="231.272" transform="matrix(.45525 -.47002 .45525 .57225 18.1 210.07)" style="color:#666;cursor:default;font-size:16px;fill:#666" y="236.98">Denmark</text><text x="258.567" transform="matrix(.46408 -.47405 .46408 .57827 27.173 223.809)" style="color:#666;cursor:default;font-size:16px;fill:#666" y="240.045">Fiji</text><text x="286.394" transform="matrix(.47316 -.47816 .47316 .58441 35.826 238)" style="color:#666;cursor:default;font-size:16px;fill:#666" y="243.17">Germany</text><text x="314.767" transform="matrix(.48251 -.48233 .48251 .59069 44.02 252.659)" style="color:#666;cursor:default;font-size:16px;fill:#666" y="246.355">Netherlands</text><text x="343.705" transform="matrix(.49214 -.48658 .49214 .5971 51.712 267.806)" style="color:#666;cursor:default;font-size:16px;fill:#666" y="249.605">Russia</text><text x="373.223" transform="matrix(.50207 -.4909 .50207 .60365 58.858 283.46)" style="color:#666;cursor:default;font-size:16px;fill:#666" y="252.919">Sweden</text><text x="403.339" transform="matrix(.5123 -.4953 .5123 .61034 65.41 299.642)" style="color:#666;cursor:default;font-size:16px;fill:#666" y="256.301">Turkey</text><text x="434.072" transform="matrix(.52284 -.49977 .52284 .61718 71.317 316.374)" style="color:#666;cursor:default;font-size:16px;fill:#666" y="259.751">United States</text><text x="465.44" transform="matrix(.5337 -.50433 .5337 .62418 76.521 333.677)" style="color:#666;cursor:default;font-size:16px;fill:#666" y="263.274">Unspecified</text><text x="497.464" transform="matrix(.54492 -.50896 .54492 .63133 80.964 351.576)" style="color:#666;cursor:default;font-size:16px;fill:#666" y="266.869">Vietnam</text></g><g class="highcharts-axis-labels highcharts-yaxis-labels" data-z-index="7" aria-hidden="true" text-anchor="end"><text x="152.39" style="color:#666;cursor:default;font-size:11px;fill:#666" y="219.172">0</text><text x="151.284" style="color:#666;cursor:default;font-size:11px;fill:#666" y="173.961">50k</text><text x="150.165" style="color:#666;cursor:default;font-size:11px;fill:#666" y="128.208">100k</text><text x="149.032" style="color:#666;cursor:default;font-size:11px;fill:#666" y="81.903">150k</text></g></svg>