<svg class="highcharts-root" style="font-family:&quot;Lucida Grande&quot;,&quot;Lucida Sans Unicode&quot;,Arial,Helvetica,sans-serif;font-size:12px" xmlns="http://www.w3.org/2000/svg" width="600" height="400" aria-label="Interactive chart" aria-hidden="false"><defs aria-hidden="true"><clipPath id="a"><path fill="none" d="M0 0h545v317H0z"/></clipPath></defs><rect fill="#fff" class="highcharts-background" width="600" height="400" rx="0" ry="0" aria-hidden="true"/><path fill="none" class="highcharts-plot-background" aria-hidden="true" d="M45 47h545v317H45z"/><g class="highcharts-grid highcharts-xaxis-grid" data-z-index="1" aria-hidden="true" fill="none"><path data-z-index="1" class="highcharts-grid-line" d="M49.5 47v317m87-317v317m89-317v317m90-317v317m91-317v317m90-317v317m89-317v317"/></g><g class="highcharts-grid highcharts-yaxis-grid" data-z-index="1" aria-hidden="true" fill="none" stroke="#e6e6e6"><path data-z-index="1" class="highcharts-grid-line" d="M45 364.5h545m-545-63h545m-545-64h545m-545-63h545m-545-64h545m-545-64h545"/></g><path fill="none" class="highcharts-plot-border" data-z-index="1" aria-hidden="true" d="M45 47h545v317H45z"/><g class="highcharts-axis highcharts-xaxis" data-z-index="2" aria-hidden="true" fill="none" stroke="#ccd6eb"><path class="highcharts-tick" d="M49.5 364v10m87-10v10m89-10v10m90-10v10m91-10v10m90-10v10m89-10v10"/><path class="highcharts-axis-line" data-z-index="7" d="M45 364.5h545"/></g><g class="highcharts-axis highcharts-yaxis" data-z-index="2" aria-hidden="true"><path fill="none" class="highcharts-axis-line" data-z-index="7" d="M45 47v317"/></g><g class="highcharts-series-group" data-z-index="3" aria-hidden="false"><g class="highcharts-series highcharts-series-0 highcharts-arearange-series highcharts-color-0" data-z-index=".1" clip-path="url(#a)" aria-hidden="false" transform="translate(45 47)"><path fill="rgba(124,181,236,0.75)" d="m5.343 181.324 1.468 17.118 1.468-3.804 1.468 30.432 1.468 27.896 1.468-1.902 1.468-55.158 1.467 8.242 1.468-22.19 1.468 10.144 1.468-8.876 1.468 3.17 1.468 25.36 1.468-3.17 1.468 17.752 1.468 19.02 1.467-32.968 1.468-20.922 1.468-15.85 1.468-20.922 1.468 32.968 1.468 1.902 1.468-8.876 1.468 10.778 1.468-15.85 1.468 19.654 1.467 3.17 1.468-4.438 1.468-12.68 1.468 31.7 1.468 11.412 1.468.634 1.468-29.798 1.468-15.216 1.468 1.902 1.467 3.804 1.468 11.412 1.468 27.896 1.468 19.654 1.468-1.902 1.468-27.262 1.468 8.242 1.468 3.17 1.468-8.876 1.468-.634 1.467 1.902 1.468-39.308 1.468-4.438 1.468-.634 1.468.634 1.468-9.51 1.468 8.876 1.468 12.68 1.468 39.942h1.467l1.468 1.902 1.468-10.778 1.468-34.236 1.468-4.438 1.468 11.412 1.468 10.144 1.468.634 1.468 15.85 1.468-32.334 1.467 42.478 1.468 13.314 1.468 13.314 1.468-50.086 1.468-16.484 1.468 13.948 1.468-19.02 1.468-7.608 1.468-5.072 1.467 1.902 1.468 5.706 1.468 6.974 1.468 15.216 1.468 1.902 1.468-15.216 1.468-7.608 1.468 8.242 1.468 10.144 1.468-13.314 1.467-15.216 1.468-8.242 1.407 4.438 1.468 16.484 1.468-.634 1.468 9.51 1.468-12.68 1.468-15.216 1.467-6.974 1.468 18.386 1.468-19.654 1.468 12.046 1.468 2.536 1.468-22.824 1.468 6.974 1.468-10.778 1.468 32.968 1.467 1.268 1.468 10.778 1.468-16.484 1.468 26.628 1.468-10.144 1.468-3.17 1.468 11.412 1.468 5.072 1.468-24.726 1.468-10.778 1.467 10.144 1.468 1.902 1.468 2.536 1.468 1.268 1.468 14.582 1.468-17.118 1.468 8.242 1.468-1.902 1.468-22.19 1.467 37.406 1.468-6.34 1.468-10.778 1.468-3.804 1.468-8.876 1.468-13.948 1.468-1.902 1.468 1.268 1.468 15.85 1.468 12.68 1.467-1.902 1.468-13.314 1.468 3.804 1.468 1.268 1.468-41.21 1.468 5.072 1.468-5.072 1.468-1.902 1.468-5.706 1.467 1.902 1.468 5.706 1.468-5.706 1.468 17.118 1.468 24.726 1.468-31.7 1.468-1.268 1.468-12.68 1.468 1.268 1.468 8.242 1.467-20.922 1.468-1.268 1.468 16.484 1.468 39.308 1.468-31.066 1.468-8.876 1.468 1.902 1.468 4.438 1.468 4.438 1.467-17.752 1.468 2.536 1.468 22.19 1.468-27.262 1.468 2.536 1.468 4.438 1.468-5.706 1.468 13.948 1.468-5.072 1.468-15.216 1.467 11.412 1.468-5.706 1.468 9.51 1.468 11.412 1.468-3.17 1.468-5.072 1.468-11.412 1.468 13.948 1.468 8.242 1.467-16.484 1.468 25.36 1.468 5.072 1.468-22.824 1.468-22.19 1.468 12.68 1.468-4.438 1.468 13.314 1.468 3.17 1.468 11.412 1.467 1.902 1.468-19.654 1.468-13.948 1.468 20.288 1.468-6.34 1.468-3.804 1.468-3.804 1.468 4.438 1.468 26.628 1.467-19.654 1.468-15.85 1.468 17.752 1.468-2.536 1.468 19.02 1.468-12.68 1.468-22.19 1.468-12.046 1.468-1.268 1.468.634 1.467 5.072h1.468l1.468-4.438 1.468 8.242 1.468 12.046 1.468-13.948 1.468 1.902 1.468 6.34h1.468l1.467 3.804 1.468-8.876 1.468-1.268 1.468-.634 1.468 4.438 1.468 10.778 1.468 12.046 1.468-24.092 1.468-21.556 1.468 16.484 1.467 20.922 1.468.634 1.468-8.242 1.468-1.268 1.468 3.804 1.468-13.314 1.468 3.804 1.468 1.268h1.468l1.467 24.726 1.468 5.706 1.468-10.144 1.468 3.804 1.468-2.536 1.468 8.876 1.468-37.406 1.468 22.824 1.468-8.242 1.468 6.974 1.467-6.974 1.468 31.7 1.468.634 1.468-12.046 1.468-20.288 1.468-10.144h1.468l1.468 14.582 1.468 3.17 1.467 5.072 1.468 9.51h1.468l1.468-1.902 1.468 12.68 1.468-10.144 1.468 17.118 1.468 3.17 1.468-29.164 1.468-14.582 1.467 19.02 1.468 17.752 1.468-30.432 1.468 13.948 1.468 6.34 1.468-3.17 1.468-6.974 1.468-15.85 1.468-10.144 1.467 12.046 1.468 1.268 1.468 4.438 1.468-4.438 1.468 7.608 1.468 14.582 1.468 1.902 1.468-14.582 1.468 17.118 1.468 31.066 1.467 9.51 1.468-12.68 1.468-25.994 1.468-3.17 1.468 6.34 1.468-17.118 1.468-2.536 1.468 1.902 1.468 8.876 1.467 36.138 1.468 11.412 1.468-32.334 1.468-19.02 1.468-2.536 1.468 24.092 1.468-8.876 1.468-.634 1.468 14.582 1.468-9.51 1.467 3.804 1.468-3.17 1.53 5.072 1.467.634 1.468-13.314 1.468 24.092 1.468.634 1.468-19.02 1.468-3.17 1.468 24.726 1.468-12.68 1.467-10.778 1.468 4.438 1.468 17.118 1.468 1.268 1.468-12.046 1.468 22.19 1.468-4.438 1.468-10.778 1.468.634 1.467-6.34 1.468 10.144 1.468 7.608 1.468-6.34 1.468 31.7 1.468-1.902 1.468-17.752 1.468-21.556 1.468 6.974 1.468 29.164 1.467 3.804 1.468 8.876 1.468 19.654 1.468 1.902 1.468-3.17 1.468-35.504 1.468-27.896 1.468 5.706 1.468.634 1.467-4.438 1.468-6.34 1.468 3.17 1.468 17.752 1.468 3.804 1.468 5.706 1.468 42.478 1.468-1.268 1.468-11.412 1.468 6.974 1.467-3.804 1.468 3.804 1.468-41.844 1.468-17.752 1.468-5.072 1.468-.634 1.468-3.17 1.468 1.268 1.468 4.438 1.467 5.072 1.468-1.902 1.468 3.17 1.468 25.994 1.468-11.412 1.468 7.608 1.468.634v-19.654l-1.468 8.242-1.468-5.072-1.468 7.608-1.468-17.118-1.468-1.902-1.468-9.51-1.467-15.85-1.468-19.02-1.468 17.118-1.468-7.608-1.468 6.974-1.468 24.092-1.468 1.902-1.468 23.458-1.468 10.144-1.467 13.314-1.468-10.144-1.468-8.242-1.468-2.536-1.468-8.242-1.468-6.974-1.468-15.216-1.468-14.582-1.468-15.216-1.468 27.262-1.467-18.386-1.468 13.314-1.468-3.17-1.468 3.17-1.468 41.844-1.468 16.484-1.468-1.902-1.468-28.53-1.468.634-1.467-22.19-1.468-6.974-1.468-3.804-1.468-5.706-1.468 36.138-1.468-6.974-1.468-12.046-1.468-5.706-1.468-10.144-1.468-10.144-1.467 10.144h-1.468l-1.468 21.556-1.468-24.726-1.468-5.072-1.468 16.484-1.468-5.072-1.468-28.53-1.468 3.17-1.467 11.412-1.468.634-1.468-.634-1.468-3.17-1.468 6.974-1.468-19.654-1.468 17.118-1.468 9.51-1.468.634-1.529-10.778-1.468-21.556-1.467 6.34-1.468 15.216-1.468 1.902-1.468-5.706-1.468-15.216-1.468-7.608-1.468-1.268-1.468 1.902-1.468 33.602-1.468-6.34-1.467-8.876-1.468-48.818-1.468 6.34-1.468 12.68-1.468 29.164-1.468-9.51-1.468 15.85-1.468-3.804-1.468-7.608-1.467-6.974h-1.468l-1.468-12.046-1.468 15.216-1.468-10.778-1.468 9.51-1.468-39.308-1.468-.634-1.468 15.85-1.468-34.236-1.467 4.438-1.468 8.242-1.468-1.268-1.468-15.216-1.468 36.772-1.468-14.582-1.468 17.118-1.468 10.778-1.468-1.268-1.467-10.144-1.468 4.438-1.468-19.654-1.468-1.902-1.468-4.438-1.468 9.51-1.468-1.268-1.468 7.608-1.468-4.438-1.468 8.242-1.467-1.902-1.468-12.046-1.468 10.778-1.468-5.706-1.468 6.974-1.468-32.968-1.468 15.85-1.468-5.706-1.468 17.752-1.467-15.85-1.468 3.804-1.468 1.268-1.468 4.438-1.468-13.314-1.468-9.51-1.468-6.974-1.468 20.922-1.468-16.484-1.468 8.242-1.467 5.072-1.468 5.072-1.468-6.974-1.468-1.268-1.468 15.216-1.468 1.268-1.468 12.68-1.468-10.144-1.468 2.536-1.467-6.34-1.468-11.412-1.468.634-1.468-11.412-1.468 25.994-1.468-6.974-1.468-15.216-1.468 10.778-1.468 11.412-1.468-39.308-1.467 26.628-1.468 17.752-1.468-23.458-1.468-5.706-1.468 12.68-1.468-3.17-1.468-4.438-1.468-14.582-1.468-1.902-1.467 13.948-1.468-42.478-1.468 7.608-1.468 24.092-1.468-37.406-1.468 20.288-1.468 42.478-1.468 24.726-1.468-20.922-1.468-21.556-1.467 1.268-1.468 13.314-1.468 8.242-1.468-8.242-1.468-10.144-1.468 26.628h-1.468l-1.468-9.51L278.31 63.4l-1.467 3.17-1.468 10.144-1.468 11.412-1.468 10.144-1.468-32.334-1.468-36.772-1.468 13.948-1.468 9.51L265.1 76.08l-1.468 27.896h-1.467l-1.468-10.778-1.468 14.582h-1.468l-1.468-15.85-1.468 19.654-1.468-15.216-1.468-20.288-1.468 18.386-1.467 1.268-1.468-3.804-1.468-13.314-1.468 19.02-1.468-12.046-1.468 8.876-1.468-1.268-1.468-6.34-1.468-1.902-1.468-11.412-1.467 25.994h-1.468l-1.468 8.242-1.468-33.602-1.468 25.36-1.468-3.17-1.468 7.608-1.468-17.118-1.468 4.438-1.467-16.484-1.468-25.994-1.468 39.308-1.468 19.02-1.468 1.268-1.468-32.968-1.468 35.504-1.468-27.896-1.468-39.308-1.468 17.752-1.467 51.988-1.468-30.432-1.468 32.334-1.468-32.968-1.468 27.262-1.468-24.726-1.468 15.85-1.468 25.36-1.468 15.216-1.467-5.706-1.468-22.19-1.468-37.406-1.468-14.582-1.468 6.974-1.468 10.144-1.468 3.17-1.468 6.34-1.468 11.412-1.468 16.484-1.467.634-1.468 3.804-1.468 2.536-1.468 17.118-1.468-11.412-1.468 31.7-1.468-13.948-1.468-3.17-1.468 5.706-1.467-16.484-1.468 10.144-1.468-13.314-1.468 8.876-1.468 24.092-1.468-19.654-1.468-8.876-1.468 12.046-1.468.634-1.468-1.268-1.467-16.484-1.468-15.216-1.468 7.608-1.468-6.974-1.468 29.164-1.468-1.268-1.468-16.484-1.468-5.706-1.468 11.412-1.467-18.386-1.468 34.236-1.468 27.896-1.468-46.916-1.468 5.706-1.468-18.386-1.407 10.778-1.468 10.778-1.467 6.34-1.468 24.726-1.468-10.144-1.468-9.51-1.468 13.948-1.468 6.974-1.468-6.34-1.468-7.608-1.468-21.556-1.468 16.484-1.467-8.876-1.468 4.438-1.468 24.726-1.468-13.314-1.468 3.17-1.468 6.34-1.468 26.628-1.468-2.536-1.468-17.752-1.467-8.876-1.468 10.144-1.468-5.072-1.468-6.974-1.468-6.974-1.468 3.804-1.468-4.438-1.468 20.922-1.468 25.36-1.468-20.288-1.467-15.85-1.468-3.17-1.468-2.536-1.468-12.046-1.468-10.778-1.468 27.896-1.468-13.314-1.468 19.02-1.468 3.17-1.467 13.314-1.468 1.268h-1.468l-1.468 5.706-1.468-8.876-1.468 15.85-1.468 16.484-1.468-20.922-1.468-34.236-1.468-.634-1.467-1.268-1.468 4.438-1.468 10.144-1.468 10.778-1.468 21.556-1.468-22.19-1.468-31.066-1.468 3.17-1.468 4.438-1.467-30.432-1.468-5.706-1.468 47.55-1.468-8.242-1.468 6.34-1.468-17.118-1.468-23.458-1.468 6.34-1.468 9.51-1.468 46.282-1.467 19.02-1.468-4.438-1.468-29.164-1.468-3.17-1.468 2.536-1.468-10.778-1.468 5.706-1.468 3.804-1.468-3.804-1.467-6.974-1.468 24.726-1.468 42.478-1.468-62.132-1.468-6.974-1.468 15.216-1.468-17.752v20.922" class="highcharts-area" data-z-index="0" aria-hidden="true"/><path fill="none" d="m5.343 181.324 1.468 17.118 1.468-3.804 1.468 30.432 1.468 27.896 1.468-1.902 1.468-55.158 1.467 8.242 1.468-22.19 1.468 10.144 1.468-8.876 1.468 3.17 1.468 25.36 1.468-3.17 1.468 17.752 1.468 19.02 1.467-32.968 1.468-20.922 1.468-15.85 1.468-20.922 1.468 32.968 1.468 1.902 1.468-8.876 1.468 10.778 1.468-15.85 1.468 19.654 1.467 3.17 1.468-4.438 1.468-12.68 1.468 31.7 1.468 11.412 1.468.634 1.468-29.798 1.468-15.216 1.468 1.902 1.467 3.804 1.468 11.412 1.468 27.896 1.468 19.654 1.468-1.902 1.468-27.262 1.468 8.242 1.468 3.17 1.468-8.876 1.468-.634 1.467 1.902 1.468-39.308 1.468-4.438 1.468-.634 1.468.634 1.468-9.51 1.468 8.876 1.468 12.68 1.468 39.942h1.467l1.468 1.902 1.468-10.778 1.468-34.236 1.468-4.438 1.468 11.412 1.468 10.144 1.468.634 1.468 15.85 1.468-32.334 1.467 42.478 1.468 13.314 1.468 13.314 1.468-50.086 1.468-16.484 1.468 13.948 1.468-19.02 1.468-7.608 1.468-5.072 1.467 1.902 1.468 5.706 1.468 6.974 1.468 15.216 1.468 1.902 1.468-15.216 1.468-7.608 1.468 8.242 1.468 10.144 1.468-13.314 1.467-15.216 1.468-8.242 1.407 4.438 1.468 16.484 1.468-.634 1.468 9.51 1.468-12.68 1.468-15.216 1.467-6.974 1.468 18.386 1.468-19.654 1.468 12.046 1.468 2.536 1.468-22.824 1.468 6.974 1.468-10.778 1.468 32.968 1.467 1.268 1.468 10.778 1.468-16.484 1.468 26.628 1.468-10.144 1.468-3.17 1.468 11.412 1.468 5.072 1.468-24.726 1.468-10.778 1.467 10.144 1.468 1.902 1.468 2.536 1.468 1.268 1.468 14.582 1.468-17.118 1.468 8.242 1.468-1.902 1.468-22.19 1.467 37.406 1.468-6.34 1.468-10.778 1.468-3.804 1.468-8.876 1.468-13.948 1.468-1.902 1.468 1.268 1.468 15.85 1.468 12.68 1.467-1.902 1.468-13.314 1.468 3.804 1.468 1.268 1.468-41.21 1.468 5.072 1.468-5.072 1.468-1.902 1.468-5.706 1.467 1.902 1.468 5.706 1.468-5.706 1.468 17.118 1.468 24.726 1.468-31.7 1.468-1.268 1.468-12.68 1.468 1.268 1.468 8.242 1.467-20.922 1.468-1.268 1.468 16.484 1.468 39.308 1.468-31.066 1.468-8.876 1.468 1.902 1.468 4.438 1.468 4.438 1.467-17.752 1.468 2.536 1.468 22.19 1.468-27.262 1.468 2.536 1.468 4.438 1.468-5.706 1.468 13.948 1.468-5.072 1.468-15.216 1.467 11.412 1.468-5.706 1.468 9.51 1.468 11.412 1.468-3.17 1.468-5.072 1.468-11.412 1.468 13.948 1.468 8.242 1.467-16.484 1.468 25.36 1.468 5.072 1.468-22.824 1.468-22.19 1.468 12.68 1.468-4.438 1.468 13.314 1.468 3.17 1.468 11.412 1.467 1.902 1.468-19.654 1.468-13.948 1.468 20.288 1.468-6.34 1.468-3.804 1.468-3.804 1.468 4.438 1.468 26.628 1.467-19.654 1.468-15.85 1.468 17.752 1.468-2.536 1.468 19.02 1.468-12.68 1.468-22.19 1.468-12.046 1.468-1.268 1.468.634 1.467 5.072h1.468l1.468-4.438 1.468 8.242 1.468 12.046 1.468-13.948 1.468 1.902 1.468 6.34h1.468l1.467 3.804 1.468-8.876 1.468-1.268 1.468-.634 1.468 4.438 1.468 10.778 1.468 12.046 1.468-24.092 1.468-21.556 1.468 16.484 1.467 20.922 1.468.634 1.468-8.242 1.468-1.268 1.468 3.804 1.468-13.314 1.468 3.804 1.468 1.268h1.468l1.467 24.726 1.468 5.706 1.468-10.144 1.468 3.804 1.468-2.536 1.468 8.876 1.468-37.406 1.468 22.824 1.468-8.242 1.468 6.974 1.467-6.974 1.468 31.7 1.468.634 1.468-12.046 1.468-20.288 1.468-10.144h1.468l1.468 14.582 1.468 3.17 1.467 5.072 1.468 9.51h1.468l1.468-1.902 1.468 12.68 1.468-10.144 1.468 17.118 1.468 3.17 1.468-29.164 1.468-14.582 1.467 19.02 1.468 17.752 1.468-30.432 1.468 13.948 1.468 6.34 1.468-3.17 1.468-6.974 1.468-15.85 1.468-10.144 1.467 12.046 1.468 1.268 1.468 4.438 1.468-4.438 1.468 7.608 1.468 14.582 1.468 1.902 1.468-14.582 1.468 17.118 1.468 31.066 1.467 9.51 1.468-12.68 1.468-25.994 1.468-3.17 1.468 6.34 1.468-17.118 1.468-2.536 1.468 1.902 1.468 8.876 1.467 36.138 1.468 11.412 1.468-32.334 1.468-19.02 1.468-2.536 1.468 24.092 1.468-8.876 1.468-.634 1.468 14.582 1.468-9.51 1.467 3.804 1.468-3.17 1.53 5.072 1.467.634 1.468-13.314 1.468 24.092 1.468.634 1.468-19.02 1.468-3.17 1.468 24.726 1.468-12.68 1.467-10.778 1.468 4.438 1.468 17.118 1.468 1.268 1.468-12.046 1.468 22.19 1.468-4.438 1.468-10.778 1.468.634 1.467-6.34 1.468 10.144 1.468 7.608 1.468-6.34 1.468 31.7 1.468-1.902 1.468-17.752 1.468-21.556 1.468 6.974 1.468 29.164 1.467 3.804 1.468 8.876 1.468 19.654 1.468 1.902 1.468-3.17 1.468-35.504 1.468-27.896 1.468 5.706 1.468.634 1.467-4.438 1.468-6.34 1.468 3.17 1.468 17.752 1.468 3.804 1.468 5.706 1.468 42.478 1.468-1.268 1.468-11.412 1.468 6.974 1.467-3.804 1.468 3.804 1.468-41.844 1.468-17.752 1.468-5.072 1.468-.634 1.468-3.17 1.468 1.268 1.468 4.438 1.467 5.072 1.468-1.902 1.468 3.17 1.468 25.994 1.468-11.412 1.468 7.608 1.468.634m0-19.654-1.468 8.242-1.468-5.072-1.468 7.608-1.468-17.118-1.468-1.902-1.468-9.51-1.467-15.85-1.468-19.02-1.468 17.118-1.468-7.608-1.468 6.974-1.468 24.092-1.468 1.902-1.468 23.458-1.468 10.144-1.467 13.314-1.468-10.144-1.468-8.242-1.468-2.536-1.468-8.242-1.468-6.974-1.468-15.216-1.468-14.582-1.468-15.216-1.468 27.262-1.467-18.386-1.468 13.314-1.468-3.17-1.468 3.17-1.468 41.844-1.468 16.484-1.468-1.902-1.468-28.53-1.468.634-1.467-22.19-1.468-6.974-1.468-3.804-1.468-5.706-1.468 36.138-1.468-6.974-1.468-12.046-1.468-5.706-1.468-10.144-1.468-10.144-1.467 10.144h-1.468l-1.468 21.556-1.468-24.726-1.468-5.072-1.468 16.484-1.468-5.072-1.468-28.53-1.468 3.17-1.467 11.412-1.468.634-1.468-.634-1.468-3.17-1.468 6.974-1.468-19.654-1.468 17.118-1.468 9.51-1.468.634-1.529-10.778-1.468-21.556-1.467 6.34-1.468 15.216-1.468 1.902-1.468-5.706-1.468-15.216-1.468-7.608-1.468-1.268-1.468 1.902-1.468 33.602-1.468-6.34-1.467-8.876-1.468-48.818-1.468 6.34-1.468 12.68-1.468 29.164-1.468-9.51-1.468 15.85-1.468-3.804-1.468-7.608-1.467-6.974h-1.468l-1.468-12.046-1.468 15.216-1.468-10.778-1.468 9.51-1.468-39.308-1.468-.634-1.468 15.85-1.468-34.236-1.467 4.438-1.468 8.242-1.468-1.268-1.468-15.216-1.468 36.772-1.468-14.582-1.468 17.118-1.468 10.778-1.468-1.268-1.467-10.144-1.468 4.438-1.468-19.654-1.468-1.902-1.468-4.438-1.468 9.51-1.468-1.268-1.468 7.608-1.468-4.438-1.468 8.242-1.467-1.902-1.468-12.046-1.468 10.778-1.468-5.706-1.468 6.974-1.468-32.968-1.468 15.85-1.468-5.706-1.468 17.752-1.467-15.85-1.468 3.804-1.468 1.268-1.468 4.438-1.468-13.314-1.468-9.51-1.468-6.974-1.468 20.922-1.468-16.484-1.468 8.242-1.467 5.072-1.468 5.072-1.468-6.974-1.468-1.268-1.468 15.216-1.468 1.268-1.468 12.68-1.468-10.144-1.468 2.536-1.467-6.34-1.468-11.412-1.468.634-1.468-11.412-1.468 25.994-1.468-6.974-1.468-15.216-1.468 10.778-1.468 11.412-1.468-39.308-1.467 26.628-1.468 17.752-1.468-23.458-1.468-5.706-1.468 12.68-1.468-3.17-1.468-4.438-1.468-14.582-1.468-1.902-1.467 13.948-1.468-42.478-1.468 7.608-1.468 24.092-1.468-37.406-1.468 20.288-1.468 42.478-1.468 24.726-1.468-20.922-1.468-21.556-1.467 1.268-1.468 13.314-1.468 8.242-1.468-8.242-1.468-10.144-1.468 26.628h-1.468l-1.468-9.51L278.31 63.4l-1.467 3.17-1.468 10.144-1.468 11.412-1.468 10.144-1.468-32.334-1.468-36.772-1.468 13.948-1.468 9.51L265.1 76.08l-1.468 27.896h-1.467l-1.468-10.778-1.468 14.582h-1.468l-1.468-15.85-1.468 19.654-1.468-15.216-1.468-20.288-1.468 18.386-1.467 1.268-1.468-3.804-1.468-13.314-1.468 19.02-1.468-12.046-1.468 8.876-1.468-1.268-1.468-6.34-1.468-1.902-1.468-11.412-1.467 25.994h-1.468l-1.468 8.242-1.468-33.602-1.468 25.36-1.468-3.17-1.468 7.608-1.468-17.118-1.468 4.438-1.467-16.484-1.468-25.994-1.468 39.308-1.468 19.02-1.468 1.268-1.468-32.968-1.468 35.504-1.468-27.896-1.468-39.308-1.468 17.752-1.467 51.988-1.468-30.432-1.468 32.334-1.468-32.968-1.468 27.262-1.468-24.726-1.468 15.85-1.468 25.36-1.468 15.216-1.467-5.706-1.468-22.19-1.468-37.406-1.468-14.582-1.468 6.974-1.468 10.144-1.468 3.17-1.468 6.34-1.468 11.412-1.468 16.484-1.467.634-1.468 3.804-1.468 2.536-1.468 17.118-1.468-11.412-1.468 31.7-1.468-13.948-1.468-3.17-1.468 5.706-1.467-16.484-1.468 10.144-1.468-13.314-1.468 8.876-1.468 24.092-1.468-19.654-1.468-8.876-1.468 12.046-1.468.634-1.468-1.268-1.467-16.484-1.468-15.216-1.468 7.608-1.468-6.974-1.468 29.164-1.468-1.268-1.468-16.484-1.468-5.706-1.468 11.412-1.467-18.386-1.468 34.236-1.468 27.896-1.468-46.916-1.468 5.706-1.468-18.386-1.407 10.778-1.468 10.778-1.467 6.34-1.468 24.726-1.468-10.144-1.468-9.51-1.468 13.948-1.468 6.974-1.468-6.34-1.468-7.608-1.468-21.556-1.468 16.484-1.467-8.876-1.468 4.438-1.468 24.726-1.468-13.314-1.468 3.17-1.468 6.34-1.468 26.628-1.468-2.536-1.468-17.752-1.467-8.876-1.468 10.144-1.468-5.072-1.468-6.974-1.468-6.974-1.468 3.804-1.468-4.438-1.468 20.922-1.468 25.36-1.468-20.288-1.467-15.85-1.468-3.17-1.468-2.536-1.468-12.046-1.468-10.778-1.468 27.896-1.468-13.314-1.468 19.02-1.468 3.17-1.467 13.314-1.468 1.268h-1.468l-1.468 5.706-1.468-8.876-1.468 15.85-1.468 16.484-1.468-20.922-1.468-34.236-1.468-.634-1.467-1.268-1.468 4.438-1.468 10.144-1.468 10.778-1.468 21.556-1.468-22.19-1.468-31.066-1.468 3.17-1.468 4.438-1.467-30.432-1.468-5.706-1.468 47.55-1.468-8.242-1.468 6.34-1.468-17.118-1.468-23.458-1.468 6.34-1.468 9.51-1.468 46.282-1.467 19.02-1.468-4.438-1.468-29.164-1.468-3.17-1.468 2.536-1.468-10.778-1.468 5.706-1.468 3.804-1.468-3.804-1.467-6.974-1.468 24.726-1.468 42.478-1.468-62.132-1.468-6.974-1.468 15.216-1.468-17.752" class="highcharts-graph" data-z-index="1" stroke="#7cb5ec" stroke-linejoin="round" stroke-linecap="round" aria-hidden="false" tabindex="-1" aria-label="Temperatures, series 1 of 1 with 365 data points." style="outline:0"/><path fill="rgba(192,192,192,0.0001)" d="m5.343 181.324 1.468 17.118 1.468-3.804 1.468 30.432 1.468 27.896 1.468-1.902 1.468-55.158 1.467 8.242 1.468-22.19 1.468 10.144 1.468-8.876 1.468 3.17 1.468 25.36 1.468-3.17 1.468 17.752 1.468 19.02 1.467-32.968 1.468-20.922 1.468-15.85 1.468-20.922 1.468 32.968 1.468 1.902 1.468-8.876 1.468 10.778 1.468-15.85 1.468 19.654 1.467 3.17 1.468-4.438 1.468-12.68 1.468 31.7 1.468 11.412 1.468.634 1.468-29.798 1.468-15.216 1.468 1.902 1.467 3.804 1.468 11.412 1.468 27.896 1.468 19.654 1.468-1.902 1.468-27.262 1.468 8.242 1.468 3.17 1.468-8.876 1.468-.634 1.467 1.902 1.468-39.308 1.468-4.438 1.468-.634 1.468.634 1.468-9.51 1.468 8.876 1.468 12.68 1.468 39.942h1.467l1.468 1.902 1.468-10.778 1.468-34.236 1.468-4.438 1.468 11.412 1.468 10.144 1.468.634 1.468 15.85 1.468-32.334 1.467 42.478 1.468 13.314 1.468 13.314 1.468-50.086 1.468-16.484 1.468 13.948 1.468-19.02 1.468-7.608 1.468-5.072 1.467 1.902 1.468 5.706 1.468 6.974 1.468 15.216 1.468 1.902 1.468-15.216 1.468-7.608 1.468 8.242 1.468 10.144 1.468-13.314 1.467-15.216 1.468-8.242 1.407 4.438 1.468 16.484 1.468-.634 1.468 9.51 1.468-12.68 1.468-15.216 1.467-6.974 1.468 18.386 1.468-19.654 1.468 12.046 1.468 2.536 1.468-22.824 1.468 6.974 1.468-10.778 1.468 32.968 1.467 1.268 1.468 10.778 1.468-16.484 1.468 26.628 1.468-10.144 1.468-3.17 1.468 11.412 1.468 5.072 1.468-24.726 1.468-10.778 1.467 10.144 1.468 1.902 1.468 2.536 1.468 1.268 1.468 14.582 1.468-17.118 1.468 8.242 1.468-1.902 1.468-22.19 1.467 37.406 1.468-6.34 1.468-10.778 1.468-3.804 1.468-8.876 1.468-13.948 1.468-1.902 1.468 1.268 1.468 15.85 1.468 12.68 1.467-1.902 1.468-13.314 1.468 3.804 1.468 1.268 1.468-41.21 1.468 5.072 1.468-5.072 1.468-1.902 1.468-5.706 1.467 1.902 1.468 5.706 1.468-5.706 1.468 17.118 1.468 24.726 1.468-31.7 1.468-1.268 1.468-12.68 1.468 1.268 1.468 8.242 1.467-20.922 1.468-1.268 1.468 16.484 1.468 39.308 1.468-31.066 1.468-8.876 1.468 1.902 1.468 4.438 1.468 4.438 1.467-17.752 1.468 2.536 1.468 22.19 1.468-27.262 1.468 2.536 1.468 4.438 1.468-5.706 1.468 13.948 1.468-5.072 1.468-15.216 1.467 11.412 1.468-5.706 1.468 9.51 1.468 11.412 1.468-3.17 1.468-5.072 1.468-11.412 1.468 13.948 1.468 8.242 1.467-16.484 1.468 25.36 1.468 5.072 1.468-22.824 1.468-22.19 1.468 12.68 1.468-4.438 1.468 13.314 1.468 3.17 1.468 11.412 1.467 1.902 1.468-19.654 1.468-13.948 1.468 20.288 1.468-6.34 1.468-3.804 1.468-3.804 1.468 4.438 1.468 26.628 1.467-19.654 1.468-15.85 1.468 17.752 1.468-2.536 1.468 19.02 1.468-12.68 1.468-22.19 1.468-12.046 1.468-1.268 1.468.634 1.467 5.072h1.468l1.468-4.438 1.468 8.242 1.468 12.046 1.468-13.948 1.468 1.902 1.468 6.34h1.468l1.467 3.804 1.468-8.876 1.468-1.268 1.468-.634 1.468 4.438 1.468 10.778 1.468 12.046 1.468-24.092 1.468-21.556 1.468 16.484 1.467 20.922 1.468.634 1.468-8.242 1.468-1.268 1.468 3.804 1.468-13.314 1.468 3.804 1.468 1.268h1.468l1.467 24.726 1.468 5.706 1.468-10.144 1.468 3.804 1.468-2.536 1.468 8.876 1.468-37.406 1.468 22.824 1.468-8.242 1.468 6.974 1.467-6.974 1.468 31.7 1.468.634 1.468-12.046 1.468-20.288 1.468-10.144h1.468l1.468 14.582 1.468 3.17 1.467 5.072 1.468 9.51h1.468l1.468-1.902 1.468 12.68 1.468-10.144 1.468 17.118 1.468 3.17 1.468-29.164 1.468-14.582 1.467 19.02 1.468 17.752 1.468-30.432 1.468 13.948 1.468 6.34 1.468-3.17 1.468-6.974 1.468-15.85 1.468-10.144 1.467 12.046 1.468 1.268 1.468 4.438 1.468-4.438 1.468 7.608 1.468 14.582 1.468 1.902 1.468-14.582 1.468 17.118 1.468 31.066 1.467 9.51 1.468-12.68 1.468-25.994 1.468-3.17 1.468 6.34 1.468-17.118 1.468-2.536 1.468 1.902 1.468 8.876 1.467 36.138 1.468 11.412 1.468-32.334 1.468-19.02 1.468-2.536 1.468 24.092 1.468-8.876 1.468-.634 1.468 14.582 1.468-9.51 1.467 3.804 1.468-3.17 1.53 5.072 1.467.634 1.468-13.314 1.468 24.092 1.468.634 1.468-19.02 1.468-3.17 1.468 24.726 1.468-12.68 1.467-10.778 1.468 4.438 1.468 17.118 1.468 1.268 1.468-12.046 1.468 22.19 1.468-4.438 1.468-10.778 1.468.634 1.467-6.34 1.468 10.144 1.468 7.608 1.468-6.34 1.468 31.7 1.468-1.902 1.468-17.752 1.468-21.556 1.468 6.974 1.468 29.164 1.467 3.804 1.468 8.876 1.468 19.654 1.468 1.902 1.468-3.17 1.468-35.504 1.468-27.896 1.468 5.706 1.468.634 1.467-4.438 1.468-6.34 1.468 3.17 1.468 17.752 1.468 3.804 1.468 5.706 1.468 42.478 1.468-1.268 1.468-11.412 1.468 6.974 1.467-3.804 1.468 3.804 1.468-41.844 1.468-17.752 1.468-5.072 1.468-.634 1.468-3.17 1.468 1.268 1.468 4.438 1.467 5.072 1.468-1.902 1.468 3.17 1.468 25.994 1.468-11.412 1.468 7.608 1.468.634h0v-19.654l-1.468 8.242-1.468-5.072-1.468 7.608-1.468-17.118-1.468-1.902-1.468-9.51-1.467-15.85-1.468-19.02-1.468 17.118-1.468-7.608-1.468 6.974-1.468 24.092-1.468 1.902-1.468 23.458-1.468 10.144-1.467 13.314-1.468-10.144-1.468-8.242-1.468-2.536-1.468-8.242-1.468-6.974-1.468-15.216-1.468-14.582-1.468-15.216-1.468 27.262-1.467-18.386-1.468 13.314-1.468-3.17-1.468 3.17-1.468 41.844-1.468 16.484-1.468-1.902-1.468-28.53-1.468.634-1.467-22.19-1.468-6.974-1.468-3.804-1.468-5.706-1.468 36.138-1.468-6.974-1.468-12.046-1.468-5.706-1.468-10.144-1.468-10.144-1.467 10.144h-1.468l-1.468 21.556-1.468-24.726-1.468-5.072-1.468 16.484-1.468-5.072-1.468-28.53-1.468 3.17-1.467 11.412-1.468.634-1.468-.634-1.468-3.17-1.468 6.974-1.468-19.654-1.468 17.118-1.468 9.51-1.468.634-1.529-10.778-1.468-21.556-1.467 6.34-1.468 15.216-1.468 1.902-1.468-5.706-1.468-15.216-1.468-7.608-1.468-1.268-1.468 1.902-1.468 33.602-1.468-6.34-1.467-8.876-1.468-48.818-1.468 6.34-1.468 12.68-1.468 29.164-1.468-9.51-1.468 15.85-1.468-3.804-1.468-7.608-1.467-6.974h-1.468l-1.468-12.046-1.468 15.216-1.468-10.778-1.468 9.51-1.468-39.308-1.468-.634-1.468 15.85-1.468-34.236-1.467 4.438-1.468 8.242-1.468-1.268-1.468-15.216-1.468 36.772-1.468-14.582-1.468 17.118-1.468 10.778-1.468-1.268-1.467-10.144-1.468 4.438-1.468-19.654-1.468-1.902-1.468-4.438-1.468 9.51-1.468-1.268-1.468 7.608-1.468-4.438-1.468 8.242-1.467-1.902-1.468-12.046-1.468 10.778-1.468-5.706-1.468 6.974-1.468-32.968-1.468 15.85-1.468-5.706-1.468 17.752-1.467-15.85-1.468 3.804-1.468 1.268-1.468 4.438-1.468-13.314-1.468-9.51-1.468-6.974-1.468 20.922-1.468-16.484-1.468 8.242-1.467 5.072-1.468 5.072-1.468-6.974-1.468-1.268-1.468 15.216-1.468 1.268-1.468 12.68-1.468-10.144-1.468 2.536-1.467-6.34-1.468-11.412-1.468.634-1.468-11.412-1.468 25.994-1.468-6.974-1.468-15.216-1.468 10.778-1.468 11.412-1.468-39.308-1.467 26.628-1.468 17.752-1.468-23.458-1.468-5.706-1.468 12.68-1.468-3.17-1.468-4.438-1.468-14.582-1.468-1.902-1.467 13.948-1.468-42.478-1.468 7.608-1.468 24.092-1.468-37.406-1.468 20.288-1.468 42.478-1.468 24.726-1.468-20.922-1.468-21.556-1.467 1.268-1.468 13.314-1.468 8.242-1.468-8.242-1.468-10.144-1.468 26.628h-1.468l-1.468-9.51L278.31 63.4l-1.467 3.17-1.468 10.144-1.468 11.412-1.468 10.144-1.468-32.334-1.468-36.772-1.468 13.948-1.468 9.51L265.1 76.08l-1.468 27.896h-1.467l-1.468-10.778-1.468 14.582h-1.468l-1.468-15.85-1.468 19.654-1.468-15.216-1.468-20.288-1.468 18.386-1.467 1.268-1.468-3.804-1.468-13.314-1.468 19.02-1.468-12.046-1.468 8.876-1.468-1.268-1.468-6.34-1.468-1.902-1.468-11.412-1.467 25.994h-1.468l-1.468 8.242-1.468-33.602-1.468 25.36-1.468-3.17-1.468 7.608-1.468-17.118-1.468 4.438-1.467-16.484-1.468-25.994-1.468 39.308-1.468 19.02-1.468 1.268-1.468-32.968-1.468 35.504-1.468-27.896-1.468-39.308-1.468 17.752-1.467 51.988-1.468-30.432-1.468 32.334-1.468-32.968-1.468 27.262-1.468-24.726-1.468 15.85-1.468 25.36-1.468 15.216-1.467-5.706-1.468-22.19-1.468-37.406-1.468-14.582-1.468 6.974-1.468 10.144-1.468 3.17-1.468 6.34-1.468 11.412-1.468 16.484-1.467.634-1.468 3.804-1.468 2.536-1.468 17.118-1.468-11.412-1.468 31.7-1.468-13.948-1.468-3.17-1.468 5.706-1.467-16.484-1.468 10.144-1.468-13.314-1.468 8.876-1.468 24.092-1.468-19.654-1.468-8.876-1.468 12.046-1.468.634-1.468-1.268-1.467-16.484-1.468-15.216-1.468 7.608-1.468-6.974-1.468 29.164-1.468-1.268-1.468-16.484-1.468-5.706-1.468 11.412-1.467-18.386-1.468 34.236-1.468 27.896-1.468-46.916-1.468 5.706-1.468-18.386-1.407 10.778-1.468 10.778-1.467 6.34-1.468 24.726-1.468-10.144-1.468-9.51-1.468 13.948-1.468 6.974-1.468-6.34-1.468-7.608-1.468-21.556-1.468 16.484-1.467-8.876-1.468 4.438-1.468 24.726-1.468-13.314-1.468 3.17-1.468 6.34-1.468 26.628-1.468-2.536-1.468-17.752-1.467-8.876-1.468 10.144-1.468-5.072-1.468-6.974-1.468-6.974-1.468 3.804-1.468-4.438-1.468 20.922-1.468 25.36-1.468-20.288-1.467-15.85-1.468-3.17-1.468-2.536-1.468-12.046-1.468-10.778-1.468 27.896-1.468-13.314-1.468 19.02-1.468 3.17-1.467 13.314-1.468 1.268h-1.468l-1.468 5.706-1.468-8.876-1.468 15.85-1.468 16.484-1.468-20.922-1.468-34.236-1.468-.634-1.467-1.268-1.468 4.438-1.468 10.144-1.468 10.778-1.468 21.556-1.468-22.19-1.468-31.066-1.468 3.17-1.468 4.438-1.467-30.432-1.468-5.706-1.468 47.55-1.468-8.242-1.468 6.34-1.468-17.118-1.468-23.458-1.468 6.34-1.468 9.51-1.468 46.282-1.467 19.02-1.468-4.438-1.468-29.164-1.468-3.17-1.468 2.536-1.468-10.778-1.468 5.706-1.468 3.804-1.468-3.804-1.467-6.974-1.468 24.726-1.468 42.478-1.468-62.132-1.468-6.974-1.468 15.216-1.468-17.752v20.922" data-z-index="2" class="highcharts-tracker-area" stroke-linecap="round" stroke-linejoin="round" stroke="rgba(192,192,192,0.0001)" aria-hidden="true"/></g></g><text x="300" text-anchor="middle" class="highcharts-title" data-z-index="4" style="color:#333;font-size:18px;fill:#333" y="24" aria-hidden="true">Temperature variation by day</text><g class="highcharts-axis-labels highcharts-xaxis-labels" data-z-index="7" aria-hidden="true" text-anchor="middle"><text x="50.282" style="color:#666;cursor:default;font-size:11px;fill:#666" y="383">Jan &apos;17</text><text x="136.888" style="color:#666;cursor:default;font-size:11px;fill:#666" y="383">Mar &apos;17</text><text x="226.429" style="color:#666;cursor:default;font-size:11px;fill:#666" y="383">May &apos;17</text><text x="315.971" style="color:#666;cursor:default;font-size:11px;fill:#666" y="383">Jul &apos;17</text><text x="406.98" style="color:#666;cursor:default;font-size:11px;fill:#666" y="383">Sep &apos;17</text><text x="496.522" style="color:#666;cursor:default;font-size:11px;fill:#666" y="383">Nov &apos;17</text><text x="571.389" style="color:#666;cursor:default;font-size:11px;fill:#666" y="383">Jan &apos;18</text></g><g class="highcharts-axis-labels highcharts-yaxis-labels" data-z-index="7" aria-hidden="true" text-anchor="end"><text x="30" style="color:#666;cursor:default;font-size:11px;fill:#666" y="369">-20</text><text x="30" style="color:#666;cursor:default;font-size:11px;fill:#666" y="305">-10</text><text x="30" style="color:#666;cursor:default;font-size:11px;fill:#666" y="242">0</text><text x="30" style="color:#666;cursor:default;font-size:11px;fill:#666" y="178">10</text><text x="30" style="color:#666;cursor:default;font-size:11px;fill:#666" y="115">20</text><text x="30" style="color:#666;cursor:default;font-size:11px;fill:#666" y="52">30</text></g></svg>