<svg class="highcharts-root" style="font-family:&quot;Lucida Grande&quot;,&quot;Lucida Sans Unicode&quot;,Arial,Helvetica,sans-serif;font-size:12px" xmlns="http://www.w3.org/2000/svg" width="600" height="410" aria-label="Interactive chart" aria-hidden="false"><defs aria-hidden="true"><clipPath id="a"><path fill="none" d="M0 0h308v537H0z"/></clipPath></defs><rect fill="#fff" class="highcharts-background" width="600" height="410" rx="0" ry="0" aria-hidden="true"/><path fill="none" class="highcharts-plot-background" aria-hidden="true" d="M53 47h537v308H53z"/><g class="highcharts-grid highcharts-xaxis-grid" data-z-index="1" aria-hidden="true" fill="none"><path data-z-index="1" class="highcharts-grid-line" d="M53 50.5h537m-537 86h537m-537 87h537m-537 86h537"/></g><g class="highcharts-grid highcharts-yaxis-grid" data-z-index="1" aria-hidden="true" fill="none" stroke="#e6e6e6"><path data-z-index="1" class="highcharts-grid-line" d="M52.5 47v308m77-308v308m76-308v308m77-308v308m77-308v308m77-308v308m76-308v308m78-308v308"/></g><path fill="none" class="highcharts-plot-border" data-z-index="1" aria-hidden="true" d="M53 47h537v308H53z"/><g class="highcharts-axis highcharts-xaxis" data-z-index="2" aria-hidden="true" fill="none" stroke="#ccd6eb"><path class="highcharts-tick" d="M53 50.5H43m10 86H43m10 87H43m10 86H43"/><path class="highcharts-axis-line" data-z-index="7" d="M52.5 47v308"/></g><g class="highcharts-axis highcharts-yaxis" data-z-index="2" aria-hidden="true"><text x="321.5" data-z-index="7" text-anchor="middle" class="highcharts-axis-title" style="color:#666;fill:#666" y="393">Revenue (billions USD)</text><path fill="none" class="highcharts-axis-line" data-z-index="7" d="M53 355h537"/></g><g class="highcharts-series-group" data-z-index="3" aria-hidden="false"><g class="highcharts-series highcharts-series-0 highcharts-area-series highcharts-color-0" data-z-index=".1" clip-path="url(#a)" aria-hidden="true" transform="matrix(0 -1 -1 0 590 355)"><path fill="rgba(124,181,236,0.5)" d="m304.98 493.12-43.137-13.234-43.137-24.97-43.137-48.445-43.138-67.087-43.137-72.764-43.137-91.942L3.02 40.505V537h301.96Z" class="highcharts-area" data-z-index="0"/><path fill="none" d="m304.98 493.12-43.137-13.234-43.137-24.97-43.137-48.445-43.138-67.087-43.137-72.764-43.137-91.942L3.02 40.505" class="highcharts-graph" data-z-index="1" stroke="#7cb5ec" stroke-width="2" stroke-linejoin="round" stroke-linecap="round"/><path fill="none" d="m304.98 493.12-43.137-13.234-43.137-24.97-43.137-48.445-43.138-67.087-43.137-72.764-43.137-91.942L3.02 40.505" data-z-index="2" class="highcharts-tracker-line" stroke-linecap="round" stroke-linejoin="round" stroke="rgba(192,192,192,0.0001)" stroke-width="22"/></g><g class="highcharts-markers highcharts-series-0 highcharts-area-series highcharts-color-0 highcharts-tracker" data-z-index=".1" aria-hidden="false" tabindex="-1" aria-label="Alibaba, series 1 of 2 with 8 data points." style="outline:0" fill="#7cb5ec"><path d="M304 497a4 4 0 1 1 .004 0Z" class="highcharts-point highcharts-color-0" tabindex="-1" aria-label="x, 2014, 11.44. Alibaba." style="outline:0" transform="matrix(0 -1 -1 0 590 355)"/><path d="M261 484a4 4 0 1 1 .004 0Z" class="highcharts-point highcharts-color-0" tabindex="-1" aria-label="x, 2015, 14.89. Alibaba." style="outline:0" transform="matrix(0 -1 -1 0 590 355)"/><path d="M218 459a4 4 0 1 1 .004 0Z" class="highcharts-point highcharts-color-0" tabindex="-1" aria-label="x, 2016, 21.4. Alibaba." style="outline:0" transform="matrix(0 -1 -1 0 590 355)"/><path d="M175 410a4 4 0 1 1 .004 0Z" class="highcharts-point highcharts-color-0" tabindex="-1" aria-label="x, 2017, 34.03. Alibaba." style="outline:0" transform="matrix(0 -1 -1 0 590 355)"/><path d="M132 343a4 4 0 1 1 .004 0Z" class="highcharts-point highcharts-color-0" tabindex="-1" aria-label="x, 2018, 51.52. Alibaba." style="outline:0" transform="matrix(0 -1 -1 0 590 355)"/><path d="M89 271a4 4 0 1 1 .004 0Z" class="highcharts-point highcharts-color-0" tabindex="-1" aria-label="x, 2019, 70.49. Alibaba." style="outline:0" transform="matrix(0 -1 -1 0 590 355)"/><path d="M46 179a4 4 0 1 1 .004 0Z" class="highcharts-point highcharts-color-0" tabindex="-1" aria-label="x, 2020, 94.46. Alibaba." style="outline:0" transform="matrix(0 -1 -1 0 590 355)"/><path d="M3 45a4 4 0 1 1 .004 0Z" class="highcharts-point highcharts-color-0" tabindex="-1" aria-label="x, 2021, 129.44. Alibaba." style="outline:0" transform="matrix(0 -1 -1 0 590 355)"/></g><g class="highcharts-series highcharts-series-1 highcharts-area-series highcharts-color-1" data-z-index=".1" clip-path="url(#a)" aria-hidden="true" transform="matrix(0 -1 -1 0 590 355)"><path fill="rgba(67,67,72,0.5)" d="m304.98 492.928-43.137-21.442-43.137-37.59-43.137-50.094-43.138-57.805-43.137-56.155-43.137-55.694L3.02 84.654V537h301.96Z" class="highcharts-area" data-z-index="0"/><path fill="none" d="m304.98 492.928-43.137-21.442-43.137-37.59-43.137-50.094-43.138-57.805-43.137-56.155-43.137-55.694L3.02 84.654" class="highcharts-graph" data-z-index="1" stroke="#434348" stroke-width="2" stroke-linejoin="round" stroke-linecap="round"/><path fill="none" d="m304.98 492.928-43.137-21.442-43.137-37.59-43.137-50.094-43.138-57.805-43.137-56.155-43.137-55.694L3.02 84.654" data-z-index="2" class="highcharts-tracker-line" stroke-linecap="round" stroke-linejoin="round" stroke="rgba(192,192,192,0.0001)" stroke-width="22"/></g><g class="highcharts-markers highcharts-series-1 highcharts-area-series highcharts-color-1 highcharts-tracker" data-z-index=".1" aria-hidden="false" tabindex="-1" aria-label="Meta (Facebook), series 2 of 2 with 8 data points." style="outline:0" fill="#434348"><path d="m304 489 4 4-4 4-4-4Z" class="highcharts-point highcharts-color-1" tabindex="-1" aria-label="x, 2014, 11.49. Meta (Facebook)." style="outline:0" transform="matrix(0 -1 -1 0 590 355)"/><path d="m261 467 4 4-4 4-4-4Z" class="highcharts-point highcharts-color-1" tabindex="-1" aria-label="x, 2015, 17.08. Meta (Facebook)." style="outline:0" transform="matrix(0 -1 -1 0 590 355)"/><path d="m218 430 4 4-4 4-4-4Z" class="highcharts-point highcharts-color-1" tabindex="-1" aria-label="x, 2016, 26.88. Meta (Facebook)." style="outline:0" transform="matrix(0 -1 -1 0 590 355)"/><path d="m175 380 4 4-4 4-4-4Z" class="highcharts-point highcharts-color-1" tabindex="-1" aria-label="x, 2017, 39.94. Meta (Facebook)." style="outline:0" transform="matrix(0 -1 -1 0 590 355)"/><path d="m132 322 4 4-4 4-4-4Z" class="highcharts-point highcharts-color-1" tabindex="-1" aria-label="x, 2018, 55.01. Meta (Facebook)." style="outline:0" transform="matrix(0 -1 -1 0 590 355)"/><path d="m89 266 4 4-4 4-4-4Z" class="highcharts-point highcharts-color-1" tabindex="-1" aria-label="x, 2019, 69.65. Meta (Facebook)." style="outline:0" transform="matrix(0 -1 -1 0 590 355)"/><path d="m46 210 4 4-4 4-4-4Z" class="highcharts-point highcharts-color-1" tabindex="-1" aria-label="x, 2020, 84.17. Meta (Facebook)." style="outline:0" transform="matrix(0 -1 -1 0 590 355)"/><path d="m3 81 4 4-4 4-4-4Z" class="highcharts-point highcharts-color-1" tabindex="-1" aria-label="x, 2021, 117.93. Meta (Facebook)." style="outline:0" transform="matrix(0 -1 -1 0 590 355)"/></g></g><text x="300" text-anchor="middle" class="highcharts-title" data-z-index="4" style="color:#333;font-size:18px;fill:#333" y="24" aria-hidden="true">Alibaba and Meta (Facebook) revenue</text><g class="highcharts-legend highcharts-no-tooltip" data-z-index="7" transform="translate(302 110)" aria-hidden="true"><rect fill="#FFF" class="highcharts-legend-box" rx="0" ry="0" stroke="#999" x=".5" y=".5" width="136" height="40"/><g data-z-index="1"><g class="highcharts-legend-item highcharts-area-series highcharts-color-0 highcharts-series-0" data-z-index="1" transform="translate(8 3)"><text x="21" data-z-index="2" y="15" style="color:#333;cursor:pointer;font-size:12px;font-weight:700;fill:#333">Alibaba</text><rect x="2" y="4" width="12" height="12" fill="#7cb5ec" rx="6" ry="6" class="highcharts-point" data-z-index="3"/></g><g class="highcharts-legend-item highcharts-area-series highcharts-color-1 highcharts-series-1" data-z-index="1" transform="translate(8 18)"><text x="21" y="15" data-z-index="2" style="color:#333;cursor:pointer;font-size:12px;font-weight:700;fill:#333">Meta (Facebook)</text><rect x="2" y="4" width="12" height="12" fill="#434348" rx="6" ry="6" class="highcharts-point" data-z-index="3"/></g></g></g><g class="highcharts-axis-labels highcharts-xaxis-labels" data-z-index="7" aria-hidden="true" text-anchor="end"><text x="38" style="color:#666;cursor:default;font-size:11px;fill:#666" y="55">2014</text><text x="38" style="color:#666;cursor:default;font-size:11px;fill:#666" y="141">2016</text><text x="38" style="color:#666;cursor:default;font-size:11px;fill:#666" y="227">2018</text><text x="38" style="color:#666;cursor:default;font-size:11px;fill:#666" y="313">2020</text></g><g class="highcharts-axis-labels highcharts-yaxis-labels" data-z-index="7" aria-hidden="true" text-anchor="middle"><text x="53" style="color:#666;cursor:default;font-size:11px;fill:#666" y="374">$0</text><text x="129.714" style="color:#666;cursor:default;font-size:11px;fill:#666" y="374">$20</text><text x="206.429" style="color:#666;cursor:default;font-size:11px;fill:#666" y="374">$40</text><text x="283.143" style="color:#666;cursor:default;font-size:11px;fill:#666" y="374">$60</text><text x="359.857" style="color:#666;cursor:default;font-size:11px;fill:#666" y="374">$80</text><text x="436.571" style="color:#666;cursor:default;font-size:11px;fill:#666" y="374">$100</text><text x="513.286" style="color:#666;cursor:default;font-size:11px;fill:#666" y="374">$120</text><text x="576.086" style="color:#666;cursor:default;font-size:11px;fill:#666" y="374">$140</text></g></svg>