<svg class="highcharts-root" style="font-family:&quot;Lucida Grande&quot;,&quot;Lucida Sans Unicode&quot;,Arial,Helvetica,sans-serif;font-size:12px" xmlns="http://www.w3.org/2000/svg" width="600" height="400" aria-label="Interactive chart" aria-hidden="false"><defs aria-hidden="true"><clipPath id="a"><path fill="none" d="M0 0h551v265H0z"/></clipPath></defs><rect fill="#fff" class="highcharts-background" width="600" height="400" rx="0" ry="0" aria-hidden="true"/><path fill="none" class="highcharts-plot-background" aria-hidden="true" d="M39 61h551v265H39z"/><g class="highcharts-grid highcharts-xaxis-grid" data-z-index="1" aria-hidden="true" fill="none"><path data-z-index="1" class="highcharts-grid-line" d="M97.5 61v265m126-265v265m127-265v265m126-265v265"/></g><g class="highcharts-grid highcharts-yaxis-grid" data-z-index="1" aria-hidden="true" fill="none" stroke="#e6e6e6"><path data-z-index="1" class="highcharts-grid-line" d="M39 326.5h551m-551-44h551m-551-44h551m-551-44h551m-551-45h551m-551-44h551m-551-45h551"/></g><path fill="none" class="highcharts-plot-border" data-z-index="1" aria-hidden="true" d="M39 61h551v265H39z"/><g class="highcharts-axis highcharts-xaxis" data-z-index="2" aria-hidden="true" fill="none" stroke="#ccd6eb"><path class="highcharts-tick" d="M97.5 326v10m126-10v10m127-10v10m126-10v10"/><path class="highcharts-axis-line" data-z-index="7" d="M39 326.5h551"/></g><g class="highcharts-axis highcharts-yaxis" data-z-index="2" aria-hidden="true"><path fill="none" class="highcharts-axis-line" data-z-index="7" d="M39 61v265"/></g><g class="highcharts-series-group" data-z-index="3" aria-hidden="false"><g class="highcharts-series highcharts-series-1 highcharts-arearange-series" data-z-index=".1" clip-path="url(#a)" aria-hidden="true" transform="translate(39 61)"><path fill="rgba(124,181,236,0.3)" d="m5.402 143.983 18.006 3.534 18.007 18.55 18.007 29.15 18.006 26.5 18.007-1.767 18.006-37.1 18.007-15.9 18.006 19.433 18.007 37.984 18.006-60.95 18.007 25.616 18.006-10.6 18.007 15.017 18.006 19.433L275.5 225.25l18.007-38.867 18.006-19.433 18.007 28.267 18.006-70.667 18.007 8.833 18.006 47.7 18.007-17.666 18.006 25.616 18.007-37.983 18.006-6.183 18.007 35.333 18.006 8.833 18.007 9.717 18.007 17.667 18.006-43.284v-95.4L527.592 50.35l-18.007-12.367-18.007 26.5-18.006-10.6-18.007 26.5-18.006-7.066-18.007 5.3-18.006-11.484-18.007-31.8-18.006-13.25-18.007-9.716L329.52 29.15l-18.007 40.633L293.507 90.1 275.5 86.567h-18.007l-18.006 17.666L221.48 68.9l-18.006-10.6-18.007-22.967-18.006 24.734-18.007 42.4-18.006-18.55-18.007-5.3L95.435 116.6 77.428 83.033l-18.006 29.15-18.007-22.966-18.007-16.784L5.402 38.867v105.116" class="highcharts-area" data-z-index="0"/><path fill="none" d="m5.402 143.983 18.006 3.534 18.007 18.55 18.007 29.15 18.006 26.5 18.007-1.767 18.006-37.1 18.007-15.9 18.006 19.433 18.007 37.984 18.006-60.95 18.007 25.616 18.006-10.6 18.007 15.017 18.006 19.433L275.5 225.25l18.007-38.867 18.006-19.433 18.007 28.267 18.006-70.667 18.007 8.833 18.006 47.7 18.007-17.666 18.006 25.616 18.007-37.983 18.006-6.183 18.007 35.333 18.006 8.833 18.007 9.717 18.007 17.667 18.006-43.284m0-95.4L527.592 50.35l-18.007-12.367-18.007 26.5-18.006-10.6-18.007 26.5-18.006-7.066-18.007 5.3-18.006-11.484-18.007-31.8-18.006-13.25-18.007-9.716L329.52 29.15l-18.007 40.633L293.507 90.1 275.5 86.567h-18.007l-18.006 17.666L221.48 68.9l-18.006-10.6-18.007-22.967-18.006 24.734-18.007 42.4-18.006-18.55-18.007-5.3L95.435 116.6 77.428 83.033l-18.006 29.15-18.007-22.966-18.007-16.784L5.402 38.867" class="highcharts-graph" data-z-index="1"/><path fill="rgba(192,192,192,0.0001)" d="m5.402 143.983 18.006 3.534 18.007 18.55 18.007 29.15 18.006 26.5 18.007-1.767 18.006-37.1 18.007-15.9 18.006 19.433 18.007 37.984 18.006-60.95 18.007 25.616 18.006-10.6 18.007 15.017 18.006 19.433L275.5 225.25l18.007-38.867 18.006-19.433 18.007 28.267 18.006-70.667 18.007 8.833 18.006 47.7 18.007-17.666 18.006 25.616 18.007-37.983 18.006-6.183 18.007 35.333 18.006 8.833 18.007 9.717 18.007 17.667 18.006-43.284v-95.4L527.592 50.35l-18.007-12.367-18.007 26.5-18.006-10.6-18.007 26.5-18.006-7.066-18.007 5.3-18.006-11.484-18.007-31.8-18.006-13.25-18.007-9.716L329.52 29.15l-18.007 40.633L293.507 90.1 275.5 86.567h-18.007l-18.006 17.666L221.48 68.9l-18.006-10.6-18.007-22.967-18.006 24.734-18.007 42.4-18.006-18.55-18.007-5.3L95.435 116.6 77.428 83.033l-18.006 29.15-18.007-22.966-18.007-16.784L5.402 38.867v105.116" data-z-index="2" class="highcharts-tracker-area"/></g><g class="highcharts-series highcharts-series-0 highcharts-line-series highcharts-color-0" data-z-index="1" clip-path="url(#a)" aria-hidden="true" fill="none" stroke-linejoin="round" stroke-linecap="round" transform="translate(39 61)"><path d="m5.402 105.117 18.006 8.833 18.007 16.783 18.007 22.084 18.006-5.3 18.007 23.85L113.44 127.2l18.007-4.417 18.006 18.55 18.007-11.483 18.006-19.433h18.007l18.006 19.433 18.007 12.367 18.006 1.766 18.007-.883 18.007-1.767 18.006-15.9L329.52 100.7l18.006-25.617L365.533 90.1l18.006 19.433 18.007 7.067 18.006 10.6 18.007-9.717 18.006 3.534 18.007-7.95 18.006 10.6 18.007-7.95 18.007 7.066 18.006 14.134" class="highcharts-graph" data-z-index="1" stroke="#7cb5ec" stroke-width="2"/><path d="m5.402 105.117 18.006 8.833 18.007 16.783 18.007 22.084 18.006-5.3 18.007 23.85L113.44 127.2l18.007-4.417 18.006 18.55 18.007-11.483 18.006-19.433h18.007l18.006 19.433 18.007 12.367 18.006 1.766 18.007-.883 18.007-1.767 18.006-15.9L329.52 100.7l18.006-25.617L365.533 90.1l18.006 19.433 18.007 7.067 18.006 10.6 18.007-9.717 18.006 3.534 18.007-7.95 18.006 10.6 18.007-7.95 18.007 7.066 18.006 14.134" data-z-index="2" class="highcharts-tracker-line" stroke="rgba(192,192,192,0.0001)" stroke-width="22"/></g><g class="highcharts-markers highcharts-series-0 highcharts-line-series highcharts-color-0 highcharts-tracker" data-z-index="1" aria-hidden="false" tabindex="-1" aria-label="Temperature, series 1 of 2. Line with 31 data points." style="outline:0" fill="#fff" stroke="#7cb5ec" stroke-width="2"><path d="M5 109a4 4 0 1 1 .004 0Z" class="highcharts-point highcharts-color-0" tabindex="-1" aria-label="Friday, Jul 1, 2022, 18.1°C. Temperature." style="outline:0" transform="translate(39 61)"/><path d="M23 118a4 4 0 1 1 .004 0Z" class="highcharts-point highcharts-color-0" tabindex="-1" aria-label="Saturday, Jul 2, 2022, 17.1°C. Temperature." style="outline:0" transform="translate(39 61)"/><path d="M41 135a4 4 0 1 1 .004 0Z" class="highcharts-point highcharts-color-0" tabindex="-1" aria-label="Sunday, Jul 3, 2022, 15.2°C. Temperature." style="outline:0" transform="translate(39 61)"/><path d="M59 157a4 4 0 1 1 .004 0Z" class="highcharts-point highcharts-color-0" tabindex="-1" aria-label="Monday, Jul 4, 2022, 12.7°C. Temperature." style="outline:0" transform="translate(39 61)"/><path d="M77 152a4 4 0 1 1 .004 0Z" class="highcharts-point highcharts-color-0" tabindex="-1" aria-label="Tuesday, Jul 5, 2022, 13.3°C. Temperature." style="outline:0" transform="translate(39 61)"/><path d="M95 175a4 4 0 1 1 .004 0Z" class="highcharts-point highcharts-color-0" tabindex="-1" aria-label="Wednesday, Jul 6, 2022, 10.6°C. Temperature." style="outline:0" transform="translate(39 61)"/><path d="M113 131a4 4 0 1 1 .004 0Z" class="highcharts-point highcharts-color-0" tabindex="-1" aria-label="Thursday, Jul 7, 2022, 15.6°C. Temperature." style="outline:0" transform="translate(39 61)"/><path d="M131 127a4 4 0 1 1 .004 0Z" class="highcharts-point highcharts-color-0" tabindex="-1" aria-label="Friday, Jul 8, 2022, 16.1°C. Temperature." style="outline:0" transform="translate(39 61)"/><path d="M149 145a4 4 0 1 1 .004 0Z" class="highcharts-point highcharts-color-0" tabindex="-1" aria-label="Saturday, Jul 9, 2022, 14°C. Temperature." style="outline:0" transform="translate(39 61)"/><path d="M167 134a4 4 0 1 1 .004 0Z" class="highcharts-point highcharts-color-0" tabindex="-1" aria-label="Sunday, Jul 10, 2022, 15.3°C. Temperature." style="outline:0" transform="translate(39 61)"/><path d="M185 114a4 4 0 1 1 .004 0Z" class="highcharts-point highcharts-color-0" tabindex="-1" aria-label="Monday, Jul 11, 2022, 17.5°C. Temperature." style="outline:0" transform="translate(39 61)"/><path d="M203 114a4 4 0 1 1 .004 0Z" class="highcharts-point highcharts-color-0" tabindex="-1" aria-label="Tuesday, Jul 12, 2022, 17.5°C. Temperature." style="outline:0" transform="translate(39 61)"/><path d="M221 134a4 4 0 1 1 .004 0Z" class="highcharts-point highcharts-color-0" tabindex="-1" aria-label="Wednesday, Jul 13, 2022, 15.3°C. Temperature." style="outline:0" transform="translate(39 61)"/><path d="M239 146a4 4 0 1 1 .004 0Z" class="highcharts-point highcharts-color-0" tabindex="-1" aria-label="Thursday, Jul 14, 2022, 13.9°C. Temperature." style="outline:0" transform="translate(39 61)"/><path d="M257 148a4 4 0 1 1 .004 0Z" class="highcharts-point highcharts-color-0" tabindex="-1" aria-label="Friday, Jul 15, 2022, 13.7°C. Temperature." style="outline:0" transform="translate(39 61)"/><path d="M275 147a4 4 0 1 1 .004 0Z" class="highcharts-point highcharts-color-0" tabindex="-1" aria-label="Saturday, Jul 16, 2022, 13.8°C. Temperature." style="outline:0" transform="translate(39 61)"/><path d="M293 145a4 4 0 1 1 .004 0Z" class="highcharts-point highcharts-color-0" tabindex="-1" aria-label="Sunday, Jul 17, 2022, 14°C. Temperature." style="outline:0" transform="translate(39 61)"/><path d="M311 129a4 4 0 1 1 .004 0Z" class="highcharts-point highcharts-color-0" tabindex="-1" aria-label="Monday, Jul 18, 2022, 15.8°C. Temperature." style="outline:0" transform="translate(39 61)"/><path d="M329 105a4 4 0 1 1 .004 0Z" class="highcharts-point highcharts-color-0" tabindex="-1" aria-label="Tuesday, Jul 19, 2022, 18.6°C. Temperature." style="outline:0" transform="translate(39 61)"/><path d="M347 79a4 4 0 1 1 .004 0Z" class="highcharts-point highcharts-color-0" tabindex="-1" aria-label="Wednesday, Jul 20, 2022, 21.5°C. Temperature." style="outline:0" transform="translate(39 61)"/><path d="M365 94a4 4 0 1 1 .004 0Z" class="highcharts-point highcharts-color-0" tabindex="-1" aria-label="Thursday, Jul 21, 2022, 19.8°C. Temperature." style="outline:0" transform="translate(39 61)"/><path d="M383 114a4 4 0 1 1 .004 0Z" class="highcharts-point highcharts-color-0" tabindex="-1" aria-label="Friday, Jul 22, 2022, 17.6°C. Temperature." style="outline:0" transform="translate(39 61)"/><path d="M401 121a4 4 0 1 1 .004 0Z" class="highcharts-point highcharts-color-0" tabindex="-1" aria-label="Saturday, Jul 23, 2022, 16.8°C. Temperature." style="outline:0" transform="translate(39 61)"/><path d="M419 131a4 4 0 1 1 .004 0Z" class="highcharts-point highcharts-color-0" tabindex="-1" aria-label="Sunday, Jul 24, 2022, 15.6°C. Temperature." style="outline:0" transform="translate(39 61)"/><path d="M437 121a4 4 0 1 1 .004 0Z" class="highcharts-point highcharts-color-0" tabindex="-1" aria-label="Monday, Jul 25, 2022, 16.7°C. Temperature." style="outline:0" transform="translate(39 61)"/><path d="M455 125a4 4 0 1 1 .004 0Z" class="highcharts-point highcharts-color-0" tabindex="-1" aria-label="Tuesday, Jul 26, 2022, 16.3°C. Temperature." style="outline:0" transform="translate(39 61)"/><path d="M473 117a4 4 0 1 1 .004 0Z" class="highcharts-point highcharts-color-0" tabindex="-1" aria-label="Wednesday, Jul 27, 2022, 17.2°C. Temperature." style="outline:0" transform="translate(39 61)"/><path d="M491 128a4 4 0 1 1 .004 0Z" class="highcharts-point highcharts-color-0" tabindex="-1" aria-label="Thursday, Jul 28, 2022, 16°C. Temperature." style="outline:0" transform="translate(39 61)"/><path d="M509 120a4 4 0 1 1 .004 0Z" class="highcharts-point highcharts-color-0" tabindex="-1" aria-label="Friday, Jul 29, 2022, 16.9°C. Temperature." style="outline:0" transform="translate(39 61)"/><path d="M527 127a4 4 0 1 1 .004 0Z" class="highcharts-point highcharts-color-0" tabindex="-1" aria-label="Saturday, Jul 30, 2022, 16.1°C. Temperature." style="outline:0" transform="translate(39 61)"/><path d="M545 141a4 4 0 1 1 .004 0Z" class="highcharts-point highcharts-color-0" tabindex="-1" aria-label="Sunday, Jul 31, 2022, 14.5°C. Temperature." style="outline:0" transform="translate(39 61)"/></g></g><text x="300" text-anchor="middle" class="highcharts-title" data-z-index="4" style="color:#333;font-size:18px;fill:#333" y="24" aria-hidden="true">July temperatures in Nesbyen, 2022</text><text x="300" text-anchor="middle" class="highcharts-subtitle" data-z-index="4" style="color:#666;fill:#666" y="46" aria-hidden="true">Source: <a target="_blank"><tspan>YR</tspan></a></text><g class="highcharts-legend highcharts-no-tooltip" data-z-index="7" transform="translate(242 359)" aria-hidden="true"><rect fill="none" class="highcharts-legend-box" rx="0" ry="0" width="116" height="26"/><g class="highcharts-legend-item highcharts-line-series highcharts-color-0 highcharts-series-0" data-z-index="1"><path fill="none" d="M8 14h16" class="highcharts-graph" stroke="#7cb5ec" stroke-width="2"/><path fill="#fff" d="M16 18a4 4 0 1 1 .004 0Z" class="highcharts-point" stroke="#7cb5ec" stroke-width="2"/><text x="21" data-z-index="2" y="15" style="color:#333;cursor:pointer;font-size:12px;font-weight:700;fill:#333" transform="translate(8 3)">Temperature</text></g></g><g class="highcharts-axis-labels highcharts-xaxis-labels" data-z-index="7" aria-hidden="true" text-anchor="middle"><text x="98.422" style="color:#666;cursor:default;font-size:11px;fill:#666" y="345">4. Jul</text><text x="224.467" style="color:#666;cursor:default;font-size:11px;fill:#666" y="345">11. Jul</text><text x="350.513" style="color:#666;cursor:default;font-size:11px;fill:#666" y="345">18. Jul</text><text x="476.559" style="color:#666;cursor:default;font-size:11px;fill:#666" y="345">25. Jul</text></g><g class="highcharts-axis-labels highcharts-yaxis-labels" data-z-index="7" aria-hidden="true" text-anchor="end"><text x="24" style="color:#666;cursor:default;font-size:11px;fill:#666" y="331">0</text><text x="24" style="color:#666;cursor:default;font-size:11px;fill:#666" y="286">5</text><text x="24" style="color:#666;cursor:default;font-size:11px;fill:#666" y="242">10</text><text x="24" style="color:#666;cursor:default;font-size:11px;fill:#666" y="198">15</text><text x="24" style="color:#666;cursor:default;font-size:11px;fill:#666" y="154">20</text><text x="24" style="color:#666;cursor:default;font-size:11px;fill:#666" y="110">25</text><text x="24" style="color:#666;cursor:default;font-size:11px;fill:#666" y="66">30</text></g></svg>