<svg class="highcharts-root" style="font-family:&quot;Lucida Grande&quot;,&quot;Lucida Sans Unicode&quot;,Arial,Helvetica,sans-serif;font-size:12px" xmlns="http://www.w3.org/2000/svg" width="600" height="400" aria-label="Interactive chart" aria-hidden="false"><defs aria-hidden="true"><clipPath id="a"><path fill="none" d="M0 0h521v215H0z"/></clipPath></defs><rect fill="#fff" class="highcharts-background" width="600" height="400" rx="0" ry="0" aria-hidden="true"/><path fill="none" class="highcharts-plot-background" aria-hidden="true" d="M69 82h521v215H69z"/><g class="highcharts-grid highcharts-xaxis-grid" data-z-index="1" aria-hidden="true" fill="none"><path data-z-index="1" class="highcharts-grid-line" d="M115.5 82v215m48-215v215m47-215v215m47-215v215m48-215v215m47-215v215m48-215v215m47-215v215m47-215v215m48-215v215m47-215v215M68.5 82v215"/></g><g class="highcharts-grid highcharts-yaxis-grid" data-z-index="1" aria-hidden="true" fill="none" stroke="#e6e6e6"><path data-z-index="1" class="highcharts-grid-line" d="M69 297.5h521m-521-54h521m-521-53h521m-521-54h521m-521-55h521"/></g><path fill="none" class="highcharts-plot-border" data-z-index="1" aria-hidden="true" d="M69 82h521v215H69z"/><g class="highcharts-axis highcharts-xaxis" data-z-index="2" aria-hidden="true"><path fill="none" class="highcharts-axis-line" stroke="#ccd6eb" data-z-index="7" d="M69 297.5h521"/></g><g class="highcharts-axis highcharts-yaxis" data-z-index="2" aria-hidden="true"><text x="23.719" data-z-index="7" text-anchor="middle" transform="rotate(-90 23.719 189.5)" class="highcharts-axis-title" style="color:#666;fill:#666" y="189.5">TWh</text><path fill="none" class="highcharts-axis-line" data-z-index="7" d="M69 82v215"/></g><g class="highcharts-series-group" data-z-index="3" aria-hidden="false"><g class="highcharts-series highcharts-series-0 highcharts-area-series highcharts-color-0" data-z-index=".1" clip-path="url(#a)" aria-hidden="true" transform="translate(69 82)"><path fill="rgba(124,181,236,0.75)" d="m23.682 59.662 47.363 22.844 47.364-4.031 47.364-16.125 47.363-9.944L260.5 66.381l47.364 1.075 47.363-23.381 47.364-5.644 47.364 26.338 47.363 8.6V161H23.682Z" class="highcharts-area" data-z-index="0"/><path fill="none" d="m23.682 59.662 47.363 22.844 47.364-4.031 47.364-16.125 47.363-9.944L260.5 66.381l47.364 1.075 47.363-23.381 47.364-5.644 47.364 26.338 47.363 8.6" class="highcharts-graph" data-z-index="1" stroke="#7cb5ec" stroke-width="2" stroke-linejoin="round" stroke-linecap="round"/><path fill="none" d="m23.682 59.662 47.363 22.844 47.364-4.031 47.364-16.125 47.363-9.944L260.5 66.381l47.364 1.075 47.363-23.381 47.364-5.644 47.364 26.338 47.363 8.6" data-z-index="2" class="highcharts-tracker-line" stroke-linecap="round" stroke-linejoin="round" stroke="rgba(192,192,192,0.0001)" stroke-width="22"/></g><g class="highcharts-markers highcharts-series-0 highcharts-area-series highcharts-color-0 highcharts-tracker" data-z-index=".1" aria-hidden="false" tabindex="-1" aria-label="Total production, series 1 of 3 with 11 data points." style="outline:0" fill="#7cb5ec"><path d="M23 64a4 4 0 1 1 .004 0Z" class="highcharts-point highcharts-color-0" tabindex="-1" aria-label="Q1 2019, 37.8. Total production." style="outline:0" transform="translate(69 82)"/><path d="M71 87a4 4 0 1 1 .004 0Z" class="highcharts-point highcharts-color-0" tabindex="-1" aria-label="Q2 2019, 29.3. Total production." style="outline:0" transform="translate(69 82)"/><path d="M118 82a4 4 0 1 1 .004 0Z" class="highcharts-point highcharts-color-0" tabindex="-1" aria-label="Q3 2019, 30.8. Total production." style="outline:0" transform="translate(69 82)"/><path d="M165 66a4 4 0 1 1 .004 0Z" class="highcharts-point highcharts-color-0" tabindex="-1" aria-label="Q4 2019, 36.8. Total production." style="outline:0" transform="translate(69 82)"/><path d="M213 56a4 4 0 1 1 .004 0Z" class="highcharts-point highcharts-color-0" tabindex="-1" aria-label="Q1 2020, 40.5. Total production." style="outline:0" transform="translate(69 82)"/><path d="M260 70a4 4 0 1 1 .004 0Z" class="highcharts-point highcharts-color-0" tabindex="-1" aria-label="Q2 2020, 35.3. Total production." style="outline:0" transform="translate(69 82)"/><path d="M307 71a4 4 0 1 1 .004 0Z" class="highcharts-point highcharts-color-0" tabindex="-1" aria-label="Q3 2020, 34.9. Total production." style="outline:0" transform="translate(69 82)"/><path d="M355 48a4 4 0 1 1 .004 0Z" class="highcharts-point highcharts-color-0" tabindex="-1" aria-label="Q4 2020, 43.6. Total production." style="outline:0" transform="translate(69 82)"/><path d="M402 42a4 4 0 1 1 .004 0Z" class="highcharts-point highcharts-color-0" tabindex="-1" aria-label="Q1 2021, 45.7. Total production." style="outline:0" transform="translate(69 82)"/><path d="M449 69a4 4 0 1 1 .004 0Z" class="highcharts-point highcharts-color-0" tabindex="-1" aria-label="Q2 2021, 35.9. Total production." style="outline:0" transform="translate(69 82)"/><path d="M497 77a4 4 0 1 1 .004 0Z" class="highcharts-point highcharts-color-0" tabindex="-1" aria-label="Q3 2021, 32.7. Total production." style="outline:0" transform="translate(69 82)"/></g><g class="highcharts-series highcharts-series-1 highcharts-area-series highcharts-color-1" data-z-index=".1" clip-path="url(#a)" aria-hidden="true" transform="translate(69 82)"><path fill="rgba(67,67,72,0.75)" d="m23.682 54.019 47.363 26.875 47.364 8.6 47.364-30.638 47.363-3.225L260.5 80.088l47.364 7.256 47.363-24.725 47.364-16.125 47.364 30.369 47.363 10.48V161H23.682Z" class="highcharts-area" data-z-index="0"/><path fill="none" d="m23.682 54.019 47.363 26.875 47.364 8.6 47.364-30.638 47.363-3.225L260.5 80.088l47.364 7.256 47.363-24.725 47.364-16.125 47.364 30.369 47.363 10.48" class="highcharts-graph" data-z-index="1" stroke="#434348" stroke-width="2" stroke-linejoin="round" stroke-linecap="round"/><path fill="none" d="m23.682 54.019 47.363 26.875 47.364 8.6 47.364-30.638 47.363-3.225L260.5 80.088l47.364 7.256 47.363-24.725 47.364-16.125 47.364 30.369 47.363 10.48" data-z-index="2" class="highcharts-tracker-line" stroke-linecap="round" stroke-linejoin="round" stroke="rgba(192,192,192,0.0001)" stroke-width="22"/></g><g class="highcharts-markers highcharts-series-1 highcharts-area-series highcharts-color-1 highcharts-tracker" data-z-index=".1" aria-hidden="false" tabindex="-1" aria-label="Gross consumption, series 2 of 3 with 11 data points." style="outline:0" fill="#434348"><path d="m23 50 4 4-4 4-4-4Z" class="highcharts-point highcharts-color-1" tabindex="-1" aria-label="Q1 2019, 39.9. Gross consumption." style="outline:0" transform="translate(69 82)"/><path d="m71 77 4 4-4 4-4-4Z" class="highcharts-point highcharts-color-1" tabindex="-1" aria-label="Q2 2019, 29.9. Gross consumption." style="outline:0" transform="translate(69 82)"/><path d="m118 85 4 4-4 4-4-4Z" class="highcharts-point highcharts-color-1" tabindex="-1" aria-label="Q3 2019, 26.7. Gross consumption." style="outline:0" transform="translate(69 82)"/><path d="m165 55 4 4-4 4-4-4Z" class="highcharts-point highcharts-color-1" tabindex="-1" aria-label="Q4 2019, 38.1. Gross consumption." style="outline:0" transform="translate(69 82)"/><path d="m213 52 4 4-4 4-4-4Z" class="highcharts-point highcharts-color-1" tabindex="-1" aria-label="Q1 2020, 39.3. Gross consumption." style="outline:0" transform="translate(69 82)"/><path d="m260 76 4 4-4 4-4-4Z" class="highcharts-point highcharts-color-1" tabindex="-1" aria-label="Q2 2020, 30.2. Gross consumption." style="outline:0" transform="translate(69 82)"/><path d="m307 83 4 4-4 4-4-4Z" class="highcharts-point highcharts-color-1" tabindex="-1" aria-label="Q3 2020, 27.5. Gross consumption." style="outline:0" transform="translate(69 82)"/><path d="m355 59 4 4-4 4-4-4Z" class="highcharts-point highcharts-color-1" tabindex="-1" aria-label="Q4 2020, 36.7. Gross consumption." style="outline:0" transform="translate(69 82)"/><path d="m402 42 4 4-4 4-4-4Z" class="highcharts-point highcharts-color-1" tabindex="-1" aria-label="Q1 2021, 42.7. Gross consumption." style="outline:0" transform="translate(69 82)"/><path d="m449 73 4 4-4 4-4-4Z" class="highcharts-point highcharts-color-1" tabindex="-1" aria-label="Q2 2021, 31.4. Gross consumption." style="outline:0" transform="translate(69 82)"/><path d="m497 83 4 4-4 4-4-4Z" class="highcharts-point highcharts-color-1" tabindex="-1" aria-label="Q3 2021, 27.5. Gross consumption." style="outline:0" transform="translate(69 82)"/></g><g class="highcharts-series highcharts-series-2 highcharts-area-series highcharts-color-2" data-z-index=".1" clip-path="url(#a)" aria-hidden="true" transform="translate(69 82)"><path fill="rgba(144,237,125,0.75)" d="m23.682 167.162 47.363-4.3 47.364-12.63 47.364 14.512 47.363-6.719 47.364-10.481 47.364-6.181 47.363 1.343 47.364 10.75 47.364-4.3 47.363-1.881V161H23.682Z" class="highcharts-area" data-z-index="0"/><path fill="none" d="m23.682 167.162 47.363-4.3 47.364-12.63 47.364 14.512 47.363-6.719 47.364-10.481 47.364-6.181 47.363 1.343 47.364 10.75 47.364-4.3 47.363-1.881" class="highcharts-graph" data-z-index="1" stroke="#90ed7d" stroke-width="2" stroke-linejoin="round" stroke-linecap="round"/><path fill="none" d="m23.682 167.162 47.363-4.3 47.364-12.63 47.364 14.512 47.363-6.719 47.364-10.481 47.364-6.181 47.363 1.343 47.364 10.75 47.364-4.3 47.363-1.881" data-z-index="2" class="highcharts-tracker-line" stroke-linecap="round" stroke-linejoin="round" stroke="rgba(192,192,192,0.0001)" stroke-width="22"/></g><g class="highcharts-markers highcharts-series-2 highcharts-area-series highcharts-color-2 highcharts-tracker" data-z-index=".1" aria-hidden="false" tabindex="-1" aria-label="Trade surplus, series 3 of 3 with 11 data points." style="outline:0" fill="#90ed7d"><path d="M19 163h8v8h-8Z" class="highcharts-point highcharts-negative highcharts-color-2" tabindex="-1" aria-label="Q1 2019, -2.2. Trade surplus." style="outline:0" transform="translate(69 82)"/><path d="M67 159h8v8h-8Z" class="highcharts-point highcharts-negative highcharts-color-2" tabindex="-1" aria-label="Q2 2019, -0.6. Trade surplus." style="outline:0" transform="translate(69 82)"/><path d="M114 146h8v8h-8Z" class="highcharts-point highcharts-color-2" tabindex="-1" aria-label="Q3 2019, 4.1. Trade surplus." style="outline:0" transform="translate(69 82)"/><path d="M161 161h8v8h-8Z" class="highcharts-point highcharts-negative highcharts-color-2" tabindex="-1" aria-label="Q4 2019, -1.3. Trade surplus." style="outline:0" transform="translate(69 82)"/><path d="M209 154h8v8h-8Z" class="highcharts-point highcharts-color-2" tabindex="-1" aria-label="Q1 2020, 1.2. Trade surplus." style="outline:0" transform="translate(69 82)"/><path d="M256 144h8v8h-8Z" class="highcharts-point highcharts-color-2" tabindex="-1" aria-label="Q2 2020, 5.1. Trade surplus." style="outline:0" transform="translate(69 82)"/><path d="M303 137h8v8h-8Z" class="highcharts-point highcharts-color-2" tabindex="-1" aria-label="Q3 2020, 7.4. Trade surplus." style="outline:0" transform="translate(69 82)"/><path d="M351 139h8v8h-8Z" class="highcharts-point highcharts-color-2" tabindex="-1" aria-label="Q4 2020, 6.9. Trade surplus." style="outline:0" transform="translate(69 82)"/><path d="M398 149h8v8h-8Z" class="highcharts-point highcharts-color-2" tabindex="-1" aria-label="Q1 2021, 2.9. Trade surplus." style="outline:0" transform="translate(69 82)"/><path d="M445 145h8v8h-8Z" class="highcharts-point highcharts-color-2" tabindex="-1" aria-label="Q2 2021, 4.5. Trade surplus." style="outline:0" transform="translate(69 82)"/><path d="M493 143h8v8h-8Z" class="highcharts-point highcharts-color-2" tabindex="-1" aria-label="Q3 2021, 5.2. Trade surplus." style="outline:0" transform="translate(69 82)"/></g></g><text x="300" text-anchor="middle" class="highcharts-title" data-z-index="4" style="color:#333;font-size:18px;fill:#333" y="24" aria-hidden="true">Production, consumption and trade surplus of electrical<tspan dy="21" x="300">​</tspan>power</text><text x="300" text-anchor="middle" class="highcharts-subtitle" data-z-index="4" style="color:#666;fill:#666" y="67" aria-hidden="true">Source: <a target="_blank"><tspan>SSB</tspan></a></text><g class="highcharts-legend highcharts-no-tooltip" data-z-index="7" transform="translate(86 359)" aria-hidden="true"><rect fill="none" class="highcharts-legend-box" rx="0" ry="0" width="428" height="26"/><g data-z-index="1"><g class="highcharts-legend-item highcharts-area-series highcharts-color-0 highcharts-series-0" data-z-index="1" transform="translate(8 3)"><text x="21" data-z-index="2" y="15" style="color:#333;cursor:pointer;font-size:12px;font-weight:700;fill:#333">Total production</text><rect x="2" y="4" width="12" height="12" fill="#7cb5ec" rx="6" ry="6" class="highcharts-point" data-z-index="3"/></g><g class="highcharts-legend-item highcharts-area-series highcharts-color-1 highcharts-series-1" data-z-index="1" transform="translate(152.32 3)"><text x="21" y="15" data-z-index="2" style="color:#333;cursor:pointer;font-size:12px;font-weight:700;fill:#333">Gross consumption</text><rect x="2" y="4" width="12" height="12" fill="#434348" rx="6" ry="6" class="highcharts-point" data-z-index="3"/></g><g class="highcharts-legend-item highcharts-area-series highcharts-color-2 highcharts-series-2" data-z-index="1" transform="translate(313.414 3)"><text x="21" y="15" data-z-index="2" style="color:#333;cursor:pointer;font-size:12px;font-weight:700;fill:#333">Trade surplus</text><rect x="2" y="4" width="12" height="12" fill="#90ed7d" rx="6" ry="6" class="highcharts-point" data-z-index="3"/></g></g></g><g class="highcharts-axis-labels highcharts-xaxis-labels" data-z-index="7" aria-hidden="true" text-anchor="end"><text x="95.275" transform="rotate(-45 95.275 313)" style="color:#666;cursor:default;font-size:11px;fill:#666" y="313">Q1 2019</text><text x="142.638" transform="rotate(-45 142.638 313)" style="color:#666;cursor:default;font-size:11px;fill:#666" y="313">Q2 2019</text><text x="190.002" transform="rotate(-45 190.002 313)" style="color:#666;cursor:default;font-size:11px;fill:#666" y="313">Q3 2019</text><text x="237.365" transform="rotate(-45 237.365 313)" style="color:#666;cursor:default;font-size:11px;fill:#666" y="313">Q4 2019</text><text x="284.729" transform="rotate(-45 284.73 313)" style="color:#666;cursor:default;font-size:11px;fill:#666" y="313">Q1 2020</text><text x="332.093" transform="rotate(-45 332.093 313)" style="color:#666;cursor:default;font-size:11px;fill:#666" y="313">Q2 2020</text><text x="379.456" transform="rotate(-45 379.456 313)" style="color:#666;cursor:default;font-size:11px;fill:#666" y="313">Q3 2020</text><text x="426.82" transform="rotate(-45 426.82 313)" style="color:#666;cursor:default;font-size:11px;fill:#666" y="313">Q4 2020</text><text x="474.184" transform="rotate(-45 474.184 313)" style="color:#666;cursor:default;font-size:11px;fill:#666" y="313">Q1 2021</text><text x="521.547" transform="rotate(-45 521.547 313)" style="color:#666;cursor:default;font-size:11px;fill:#666" y="313">Q2 2021</text><text x="568.911" transform="rotate(-45 568.91 313)" style="color:#666;cursor:default;font-size:11px;fill:#666" y="313">Q3 2021</text></g><g class="highcharts-axis-labels highcharts-yaxis-labels" data-z-index="7" aria-hidden="true" text-anchor="end"><text x="54" style="color:#666;cursor:default;font-size:11px;fill:#666" y="302">-20</text><text x="54" style="color:#666;cursor:default;font-size:11px;fill:#666" y="248">0</text><text x="54" style="color:#666;cursor:default;font-size:11px;fill:#666" y="194">20</text><text x="54" style="color:#666;cursor:default;font-size:11px;fill:#666" y="140">40</text><text x="54" style="color:#666;cursor:default;font-size:11px;fill:#666" y="87">60</text></g></svg>