<svg class="highcharts-root" style="font-family:&quot;Lucida Grande&quot;,&quot;Lucida Sans Unicode&quot;,Arial,Helvetica,sans-serif;font-size:12px" xmlns="http://www.w3.org/2000/svg" width="600" height="900" aria-label="World population by country"><defs><clipPath id="a"><path fill="none" d="M0 0h814v439H0z"/></clipPath></defs><rect fill="#fff" class="highcharts-background" width="600" height="900" rx="0" ry="0"/><path fill="none" class="highcharts-plot-background" d="M111 71h439v814H111z"/><g class="highcharts-grid highcharts-xaxis-grid" data-z-index="1" fill="none"><path data-z-index="1" class="highcharts-grid-line" d="M111 114.5h439m-439 43h439m-439 43h439m-439 42h439m-439 43h439m-439 43h439m-439 43h439m-439 43h439m-439 43h439m-439 42h439m-439 43h439m-439 43h439m-439 43h439m-439 43h439m-439 43h439m-439 42h439m-439 43h439m-439 43h439m-439 43h439m-439-814h439"/></g><g class="highcharts-grid highcharts-yaxis-grid" data-z-index="1" fill="none" stroke="#e6e6e6"><path data-z-index="1" class="highcharts-grid-line" d="M110.5 71v814m146-814v814m147-814v814m147-814v814"/></g><path fill="none" class="highcharts-plot-border" data-z-index="1" d="M111 71h439v814H111z"/><g class="highcharts-axis highcharts-xaxis" data-z-index="2"><path fill="none" class="highcharts-axis-line" stroke="#ccd6eb" data-z-index="7" d="M110.5 71v814"/></g><g class="highcharts-axis highcharts-yaxis" data-z-index="2"><path fill="none" class="highcharts-axis-line" data-z-index="7" d="M111 71h439"/></g><g class="highcharts-series-group" data-z-index="3"><g class="highcharts-series highcharts-series-0 highcharts-bar-series highcharts-tracker" data-z-index=".1" clip-path="url(#a)" transform="matrix(0 -1 -1 0 550 885)"><path fill="#7cb5ec" class="highcharts-point highcharts-color-0" d="M775 50h35v390h-35z"/><path fill="#434348" class="highcharts-point highcharts-color-1" d="M733 176h35v264h-35z"/><path fill="#90ed7d" class="highcharts-point highcharts-color-2" d="M690 334h35v106h-35z"/><path fill="#f7a35c" class="highcharts-point highcharts-color-3" d="M647 386h35v54h-35z"/><path fill="#8085e9" class="highcharts-point highcharts-color-4" d="M604 389h35v51h-35z"/><path fill="#f15c80" class="highcharts-point highcharts-color-5" d="M561 397h35v43h-35z"/><path fill="#e4d354" class="highcharts-point highcharts-color-6" d="M518 398h35v42h-35z"/><path fill="#2b908f" class="highcharts-point highcharts-color-7" d="M476 409h35v31h-35z"/><path fill="#f45b5b" class="highcharts-point highcharts-color-8" d="M433 411h35v29h-35z"/><path fill="#91e8e1" class="highcharts-point highcharts-color-9" d="M390 412h35v28h-35z"/><path fill="#7cb5ec" class="highcharts-point highcharts-color-0" d="M347 413h35v27h-35z"/><path fill="#434348" class="highcharts-point highcharts-color-1" d="M304 414h35v26h-35z"/><path fill="#90ed7d" class="highcharts-point highcharts-color-2" d="M261 414h35v26h-35z"/><path fill="#f7a35c" class="highcharts-point highcharts-color-3" d="M218 415h35v25h-35z"/><path fill="#8085e9" class="highcharts-point highcharts-color-4" d="M176 418h35v22h-35z"/><path fill="#f15c80" class="highcharts-point highcharts-color-5" d="M133 421h35v19h-35z"/><path fill="#e4d354" class="highcharts-point highcharts-color-6" d="M90 422h35v18H90z"/><path fill="#2b908f" class="highcharts-point highcharts-color-7" d="M47 423h35v17H47z"/><path fill="#f45b5b" class="highcharts-point highcharts-color-8" d="M4 424h35v16H4z"/></g></g><text x="10" class="highcharts-title" data-z-index="4" style="color:#333;font-size:18px;fill:#333" y="24">World population by country</text><text x="490" text-anchor="end" class="highcharts-subtitle" data-z-index="4" style="color:#666;fill:#666" y="379"><tspan style="font-size:80px">1960</tspan>
        <tspan class="highcharts-br" dy="15" x="490">​</tspan>
<tspan style="font-size:22px">
            Total: <tspan style="font-weight:700">: 3.03</tspan> billion
        </tspan></text><g class="highcharts-data-labels highcharts-series-0 highcharts-bar-series highcharts-tracker" data-z-index="6"><text x="5" data-z-index="1" y="16" style="color:#000;font-size:11px;font-weight:700;fill:#000" transform="translate(500 81)" class="highcharts-label highcharts-data-label highcharts-data-label-color-0"><tspan class="highcharts-text-outline" fill="#FFF" stroke="#FFF" stroke-width="2" stroke-linejoin="round">667 070 000<tspan x="5" dy="0">​</tspan></tspan>667 070 000</text><text x="5" data-z-index="1" y="16" style="color:#000;font-size:11px;font-weight:700;fill:#000" transform="translate(374 123)" class="highcharts-label highcharts-data-label highcharts-data-label-color-1"><tspan class="highcharts-text-outline" fill="#FFF" stroke="#FFF" stroke-width="2" stroke-linejoin="round">450 547 679<tspan x="5" dy="0">​</tspan></tspan>450 547 679</text><text x="5" data-z-index="1" y="16" style="color:#000;font-size:11px;font-weight:700;fill:#000" transform="translate(216 166)" class="highcharts-label highcharts-data-label highcharts-data-label-color-2"><tspan class="highcharts-text-outline" fill="#FFF" stroke="#FFF" stroke-width="2" stroke-linejoin="round">180 671 000<tspan x="5" dy="0">​</tspan></tspan>180 671 000</text><text x="5" data-z-index="1" y="16" style="color:#000;font-size:11px;font-weight:700;fill:#000" transform="translate(164 209)" class="highcharts-label highcharts-data-label highcharts-data-label-color-3"><tspan class="highcharts-text-outline" fill="#FFF" stroke="#FFF" stroke-width="2" stroke-linejoin="round">92 500 572<tspan x="5" dy="0">​</tspan></tspan>92 500 572</text><text x="5" data-z-index="1" y="16" style="color:#000;font-size:11px;font-weight:700;fill:#000" transform="translate(161 252)" class="highcharts-label highcharts-data-label highcharts-data-label-color-4"><tspan class="highcharts-text-outline" fill="#FFF" stroke="#FFF" stroke-width="2" stroke-linejoin="round">87 751 068<tspan x="5" dy="0">​</tspan></tspan>87 751 068</text><text x="5" data-z-index="1" y="16" style="color:#000;font-size:11px;font-weight:700;fill:#000" transform="translate(153 295)" class="highcharts-label highcharts-data-label highcharts-data-label-color-5"><tspan class="highcharts-text-outline" fill="#FFF" stroke="#FFF" stroke-width="2" stroke-linejoin="round">72 814 900<tspan x="5" dy="0">​</tspan></tspan>72 814 900</text><text x="5" data-z-index="1" y="16" style="color:#000;font-size:11px;font-weight:700;fill:#000" transform="translate(152 338)" class="highcharts-label highcharts-data-label highcharts-data-label-color-6"><tspan class="highcharts-text-outline" fill="#FFF" stroke="#FFF" stroke-width="2" stroke-linejoin="round">72 179 226<tspan x="5" dy="0">​</tspan></tspan>72 179 226</text><text x="5" data-z-index="1" y="16" style="color:#000;font-size:11px;font-weight:700;fill:#000" transform="translate(141 380)" class="highcharts-label highcharts-data-label highcharts-data-label-color-7"><tspan class="highcharts-text-outline" fill="#FFF" stroke="#FFF" stroke-width="2" stroke-linejoin="round">52 400 000<tspan x="5" dy="0">​</tspan></tspan>52 400 000</text><text x="5" data-z-index="1" y="16" style="color:#000;font-size:11px;font-weight:700;fill:#000" transform="translate(139 423)" class="highcharts-label highcharts-data-label highcharts-data-label-color-8"><tspan class="highcharts-text-outline" fill="#FFF" stroke="#FFF" stroke-width="2" stroke-linejoin="round">50 199 700<tspan x="5" dy="0">​</tspan></tspan>50 199 700</text><text x="5" data-z-index="1" y="16" style="color:#000;font-size:11px;font-weight:700;fill:#000" transform="translate(138 466)" class="highcharts-label highcharts-data-label highcharts-data-label-color-9"><tspan class="highcharts-text-outline" fill="#FFF" stroke="#FFF" stroke-width="2" stroke-linejoin="round">48 013 504<tspan x="5" dy="0">​</tspan></tspan>48 013 504</text><text x="5" data-z-index="1" y="16" style="color:#000;font-size:11px;font-weight:700;fill:#000" transform="translate(137 509)" class="highcharts-label highcharts-data-label highcharts-data-label-color-0"><tspan class="highcharts-text-outline" fill="#FFF" stroke="#FFF" stroke-width="2" stroke-linejoin="round">46 621 669<tspan x="5" dy="0">​</tspan></tspan>46 621 669</text><text x="5" data-z-index="1" y="16" style="color:#000;font-size:11px;font-weight:700;fill:#000" transform="translate(136 552)" class="highcharts-label highcharts-data-label highcharts-data-label-color-1"><tspan class="highcharts-text-outline" fill="#FFF" stroke="#FFF" stroke-width="2" stroke-linejoin="round">45 138 458<tspan x="5" dy="0">​</tspan></tspan>45 138 458</text><text x="5" data-z-index="1" y="16" style="color:#000;font-size:11px;font-weight:700;fill:#000" transform="translate(136 595)" class="highcharts-label highcharts-data-label highcharts-data-label-color-2"><tspan class="highcharts-text-outline" fill="#FFF" stroke="#FFF" stroke-width="2" stroke-linejoin="round">44 988 690<tspan x="5" dy="0">​</tspan></tspan>44 988 690</text><text x="5" data-z-index="1" y="16" style="color:#000;font-size:11px;font-weight:700;fill:#000" transform="translate(135 638)" class="highcharts-label highcharts-data-label highcharts-data-label-color-3"><tspan class="highcharts-text-outline" fill="#FFF" stroke="#FFF" stroke-width="2" stroke-linejoin="round">42 664 652<tspan x="5" dy="0">​</tspan></tspan>42 664 652</text><text x="5" data-z-index="1" y="16" style="color:#000;font-size:11px;font-weight:700;fill:#000" transform="translate(132 680)" class="highcharts-label highcharts-data-label highcharts-data-label-color-4"><tspan class="highcharts-text-outline" fill="#FFF" stroke="#FFF" stroke-width="2" stroke-linejoin="round">37 771 859<tspan x="5" dy="0">​</tspan></tspan>37 771 859</text><text x="5" data-z-index="1" y="16" style="color:#000;font-size:11px;font-weight:700;fill:#000" transform="translate(129 723)" class="highcharts-label highcharts-data-label highcharts-data-label-color-5"><tspan class="highcharts-text-outline" fill="#FFF" stroke="#FFF" stroke-width="2" stroke-linejoin="round">32 670 039<tspan x="5" dy="0">​</tspan></tspan>32 670 039</text><text x="5" data-z-index="1" y="16" style="color:#000;font-size:11px;font-weight:700;fill:#000" transform="translate(128 766)" class="highcharts-label highcharts-data-label highcharts-data-label-color-6"><tspan class="highcharts-text-outline" fill="#FFF" stroke="#FFF" stroke-width="2" stroke-linejoin="round">30 455 000<tspan x="5" dy="0">​</tspan></tspan>30 455 000</text><text x="5" data-z-index="1" y="16" style="color:#000;font-size:11px;font-weight:700;fill:#000" transform="translate(127 809)" class="highcharts-label highcharts-data-label highcharts-data-label-color-7"><tspan class="highcharts-text-outline" fill="#FFF" stroke="#FFF" stroke-width="2" stroke-linejoin="round">29 637 450<tspan x="5" dy="0">​</tspan></tspan>29 637 450</text><text x="5" data-z-index="1" y="16" style="color:#000;font-size:11px;font-weight:700;fill:#000" transform="translate(126 852)" class="highcharts-label highcharts-data-label highcharts-data-label-color-8"><tspan class="highcharts-text-outline" fill="#FFF" stroke="#FFF" stroke-width="2" stroke-linejoin="round">27 472 345<tspan x="5" dy="0">​</tspan></tspan>27 472 345</text></g><g class="highcharts-axis-labels highcharts-xaxis-labels" data-z-index="7" text-anchor="end"><text x="96" style="color:#666;cursor:default;font-size:11px;fill:#666" y="97">China</text><text x="96" style="color:#666;cursor:default;font-size:11px;fill:#666" y="140">India</text><text x="96" style="color:#666;cursor:default;font-size:11px;fill:#666" y="183">United States</text><text x="96" style="color:#666;cursor:default;font-size:11px;fill:#666" y="225">Japan</text><text x="96" style="color:#666;cursor:default;font-size:11px;fill:#666" y="268">Indonesia</text><text x="96" style="color:#666;cursor:default;font-size:11px;fill:#666" y="311">Germany</text><text x="96" style="color:#666;cursor:default;font-size:11px;fill:#666" y="354">Brazil</text><text x="96" style="color:#666;cursor:default;font-size:11px;fill:#666" y="397">United Kingdom</text><text x="96" style="color:#666;cursor:default;font-size:11px;fill:#666" y="440">Italy</text><text x="96" style="color:#666;cursor:default;font-size:11px;fill:#666" y="483">Bangladesh</text><text x="96" style="color:#666;cursor:default;font-size:11px;fill:#666" y="525">France</text><text x="96" style="color:#666;cursor:default;font-size:11px;fill:#666" y="568">Nigeria</text><text x="96" style="color:#666;cursor:default;font-size:11px;fill:#666" y="611">Pakistan</text><text x="96" style="color:#666;cursor:default;font-size:11px;fill:#666" y="654">Ukraine</text><text x="96" style="color:#666;cursor:default;font-size:11px;fill:#666" y="697">Mexico</text><text x="96" style="color:#666;cursor:default;font-size:11px;fill:#666" y="740">Vietnam</text><text x="96" style="color:#666;cursor:default;font-size:11px;fill:#666" y="782">Spain</text><text x="96" style="color:#666;cursor:default;font-size:11px;fill:#666" y="825">Poland</text><text x="96" style="color:#666;cursor:default;font-size:11px;fill:#666" y="868">Turkey</text></g><g class="highcharts-axis-labels highcharts-yaxis-labels" data-z-index="7" text-anchor="middle"><text x="111" style="color:#666;cursor:default;font-size:11px;fill:#666" y="58">0</text><text x="257.333" y="58" style="color:#666;cursor:default;font-size:11px;fill:#666">250M</text><text x="403.667" y="58" style="color:#666;cursor:default;font-size:11px;fill:#666">500M</text><text x="550" y="58" style="color:#666;cursor:default;font-size:11px;fill:#666">750M</text></g></svg>