<svg class="highcharts-root" style="font-family:&quot;Lucida Grande&quot;,&quot;Lucida Sans Unicode&quot;,Arial,Helvetica,sans-serif;font-size:12px" xmlns="http://www.w3.org/2000/svg" width="600" height="400" aria-label="Interactive chart" aria-hidden="false"><defs aria-hidden="true"><clipPath id="a"><path fill="none" d="M0 0h461v217H0z"/></clipPath></defs><rect fill="#fff" class="highcharts-background" width="600" height="400" rx="0" ry="0" aria-hidden="true"/><path fill="none" class="highcharts-plot-background" aria-hidden="true" d="M66 90h461v217H66z"/><g class="highcharts-grid highcharts-xaxis-grid" data-z-index="1" aria-hidden="true" fill="none"><path data-z-index="1" class="highcharts-grid-line" d="M70.5 90v217m75-217v217m76-217v217m76-217v217m76-217v217m76-217v217m76-217v217"/></g><g class="highcharts-grid highcharts-xaxis-grid" data-z-index="1" aria-hidden="true" fill="none"><path data-z-index="1" class="highcharts-grid-line" d="M113.5 90v217m173-217v217m172-217v217"/></g><g class="highcharts-grid highcharts-yaxis-grid" data-z-index="1" aria-hidden="true" fill="none" stroke="#e6e6e6"><path data-z-index="1" class="highcharts-grid-line" d="M66 307.5h461m-461-54h461m-461-54h461m-461-55h461m-461-55h461"/></g><g class="highcharts-grid highcharts-yaxis-grid" data-z-index="1" aria-hidden="true" fill="none" stroke="#e6e6e6"><path data-z-index="1" class="highcharts-grid-line" d="M66 307.5h461m-461-54h461m-461-54h461m-461-55h461m-461-55h461"/></g><path fill="none" class="highcharts-plot-border" data-z-index="1" aria-hidden="true" d="M66 90h461v217H66z"/><g class="highcharts-axis highcharts-xaxis" data-z-index="2" aria-hidden="true"><path fill="none" class="highcharts-tick" stroke="#ccd6eb" d="M70.5 307v10m75-10v10m76-10v10m76-10v10m76-10v10m76-10v10m76-10v10"/><text x="296.5" data-z-index="7" text-anchor="middle" class="highcharts-axis-title" style="color:#666;fill:#666" y="345">Data</text><path fill="none" class="highcharts-axis-line" stroke="#ccd6eb" data-z-index="7" d="M66 307.5h461"/></g><g class="highcharts-axis highcharts-xaxis" data-z-index="2" aria-hidden="true"><path fill="none" class="highcharts-tick" stroke="#ccd6eb" d="M113.5 90V80m173 10V80m172 10V80"/><text x="296.5" data-z-index="7" text-anchor="middle" class="highcharts-axis-title" style="color:#666;fill:#666" y="61">Bell curve</text><path fill="none" class="highcharts-axis-line" stroke="#ccd6eb" data-z-index="7" d="M66 89.5h461"/></g><g class="highcharts-axis highcharts-yaxis" data-z-index="2" aria-hidden="true"><text x="23.602" data-z-index="7" text-anchor="middle" transform="rotate(-90 23.602 198.5)" class="highcharts-axis-title" style="color:#666;fill:#666" y="198.5">Data</text><path fill="none" class="highcharts-axis-line" data-z-index="7" d="M66 90v217"/></g><g class="highcharts-axis highcharts-yaxis" data-z-index="2" aria-hidden="true"><text x="576.352" data-z-index="7" text-anchor="middle" transform="rotate(90 576.352 198.5)" class="highcharts-axis-title" style="color:#666;fill:#666" y="198.5">Bell curve</text><path fill="none" class="highcharts-axis-line" data-z-index="7" d="M527 90v217"/></g><g class="highcharts-series-group" data-z-index="3" aria-hidden="false"><g class="highcharts-series highcharts-series-0 highcharts-bellcurve-series highcharts-color-0" data-z-index="-1" clip-path="url(#a)" aria-hidden="true" transform="translate(66 90)"><path fill="rgba(124,181,236,0.75)" d="M4.52 214.794s15.065-1.298 25.109-3.468c10.043-2.17 15.065-3.14 25.108-7.38 10.044-4.242 15.066-6.532 25.11-13.826 10.043-7.294 15.065-11.69 25.108-22.646 10.044-10.954 15.066-17.94 25.11-32.128 10.043-14.188 15.065-23.336 25.108-38.813 10.044-15.478 15.066-25.09 25.11-38.573 10.043-13.483 15.064-20.928 25.108-28.844 10.044-7.915 15.065-10.733 25.109-10.733 10.044 0 15.065 2.818 25.109 10.733 10.044 7.916 15.065 15.36 25.109 28.844 10.043 13.483 15.065 23.095 25.109 38.573 10.043 15.477 15.065 24.625 25.109 38.813 10.043 14.188 15.065 21.174 25.109 32.128 10.043 10.955 15.065 15.352 25.109 22.646 10.043 7.294 15.065 9.584 25.109 13.825 10.043 4.241 15.065 5.212 25.108 7.381 10.044 2.17 25.11 3.468 25.11 3.468V217H4.518Z" class="highcharts-area" data-z-index="0"/><path fill="none" d="M4.52 214.794s15.065-1.298 25.109-3.468c10.043-2.17 15.065-3.14 25.108-7.38 10.044-4.242 15.066-6.532 25.11-13.826 10.043-7.294 15.065-11.69 25.108-22.646 10.044-10.954 15.066-17.94 25.11-32.128 10.043-14.188 15.065-23.336 25.108-38.813 10.044-15.478 15.066-25.09 25.11-38.573 10.043-13.483 15.064-20.928 25.108-28.844 10.044-7.915 15.065-10.733 25.109-10.733 10.044 0 15.065 2.818 25.109 10.733 10.044 7.916 15.065 15.36 25.109 28.844 10.043 13.483 15.065 23.095 25.109 38.573 10.043 15.477 15.065 24.625 25.109 38.813 10.043 14.188 15.065 21.174 25.109 32.128 10.043 10.955 15.065 15.352 25.109 22.646 10.043 7.294 15.065 9.584 25.109 13.825 10.043 4.241 15.065 5.212 25.108 7.381 10.044 2.17 25.11 3.468 25.11 3.468" class="highcharts-graph" data-z-index="1" stroke="#7cb5ec" stroke-width="2" stroke-linejoin="round" stroke-linecap="round"/><path fill="none" d="M4.52 214.794s15.065-1.298 25.109-3.468c10.043-2.17 15.065-3.14 25.108-7.38 10.044-4.242 15.066-6.532 25.11-13.826 10.043-7.294 15.065-11.69 25.108-22.646 10.044-10.954 15.066-17.94 25.11-32.128 10.043-14.188 15.065-23.336 25.108-38.813 10.044-15.478 15.066-25.09 25.11-38.573 10.043-13.483 15.064-20.928 25.108-28.844 10.044-7.915 15.065-10.733 25.109-10.733 10.044 0 15.065 2.818 25.109 10.733 10.044 7.916 15.065 15.36 25.109 28.844 10.043 13.483 15.065 23.095 25.109 38.573 10.043 15.477 15.065 24.625 25.109 38.813 10.043 14.188 15.065 21.174 25.109 32.128 10.043 10.955 15.065 15.352 25.109 22.646 10.043 7.294 15.065 9.584 25.109 13.825 10.043 4.241 15.065 5.212 25.108 7.381 10.044 2.17 25.11 3.468 25.11 3.468" data-z-index="2" class="highcharts-tracker-line" stroke-linecap="round" stroke-linejoin="round" stroke="rgba(192,192,192,0.0001)" stroke-width="22"/></g><g class="highcharts-markers highcharts-series-1 highcharts-scatter-series highcharts-color-1 highcharts-tracker" data-z-index=".1" aria-hidden="false" tabindex="-1" aria-label="Data, series 2 of 2, scatter plot with 150 points. Y axis, Data. X axis, Data." style="outline:0" fill="#434348"><path d="M4.5 87 6 88.5 4.5 90 3 88.5Zm3 34 1.5 1.5-1.5 1.5-1.5-1.5Zm3-14 1.5 1.5-1.5 1.5-1.5-1.5Zm3 7 1.5 1.5-1.5 1.5-1.5-1.5Zm3-34 1.5 1.5-1.5 1.5-1.5-1.5Zm3-20 1.5 1.5-1.5 1.5-1.5-1.5Zm3 33 1.5 1.5-1.5 1.5-1.5-1.5Zm3 0 1.5 1.5-1.5 1.5-1.5-1.5Zm3 34 1.5 1.5-1.5 1.5-1.5-1.5Zm3-13 1.5 1.5-1.5 1.5-1.5-1.5Zm3-41 1.5 1.5-1.5 1.5-1.5-1.5Zm3 20 1.5 1.5-1.5 1.5-1.5-1.5Zm3 28 1.5 1.5-1.5 1.5-1.5-1.5Zm3 0 1.5 1.5-1.5 1.5-1.5-1.5Zm3-68 1.5 1.5-1.5 1.5-1.5-1.5Zm3-27 1.5 1.5-1.5 1.5-1.5-1.5Zm3 34 1.5 1.5-1.5 1.5-1.5-1.5Zm3 27 1.5 1.5-1.5 1.5-1.5-1.5Zm3-21 1.5 1.5-1.5 1.5-1.5-1.5Zm3 0 1.5 1.5-1.5 1.5-1.5-1.5Zm3 27 1.5 1.5-1.5 1.5-1.5-1.5Zm3-20 1.5 1.5-1.5 1.5-1.5-1.5Zm3 7 1.5 1.5-1.5 1.5-1.5-1.5Zm3 20 1.5 1.5-1.5 1.5-1.5-1.5Zm3-7 1.5 1.5-1.5 1.5-1.5-1.5Zm3 28 1.5 1.5-1.5 1.5-1.5-1.5Zm3-28 1.5 1.5-1.5 1.5-1.5-1.5Zm3-6 1.5 1.5-1.5 1.5-1.5-1.5Zm3 6 1.5 1.5-1.5 1.5-1.5-1.5Zm3 14 1.5 1.5-1.5 1.5-1.5-1.5Zm4 7 1.5 1.5-1.5 1.5-1.5-1.5Zm3-21 1.5 1.5-1.5 1.5-1.5-1.5Zm3-47 1.5 1.5-1.5 1.5-1.5-1.5Zm3-7 1.5 1.5-1.5 1.5-1.5-1.5Zm3 75 1.5 1.5-1.5 1.5-1.5-1.5Zm3-7 1.5 1.5-1.5 1.5-1.5-1.5Zm3-20 1.5 1.5-1.5 1.5-1.5-1.5Zm3-7 1.5 1.5-1.5 1.5-1.5-1.5Zm3 41 1.5 1.5-1.5 1.5-1.5-1.5Zm3-28 1.5 1.5-1.5 1.5-1.5-1.5Zm3-6 1.5 1.5-1.5 1.5-1.5-1.5Zm3 81 1.5 1.5-1.5 1.5-1.5-1.5Zm3-61 1.5 1.5-1.5 1.5-1.5-1.5Zm3-20 1.5 1.5-1.5 1.5-1.5-1.5Zm3-21 1.5 1.5-1.5 1.5-1.5-1.5Zm3 55 1.5 1.5-1.5 1.5-1.5-1.5Zm3-55 1.5 1.5-1.5 1.5-1.5-1.5Zm3 41 1.5 1.5-1.5 1.5-1.5-1.5Zm3-34 1.5 1.5-1.5 1.5-1.5-1.5Zm3 27 1.5 1.5-1.5 1.5-1.5-1.5Zm3 7 1.5 1.5-1.5 1.5-1.5-1.5Zm3 0 1.5 1.5-1.5 1.5-1.5-1.5Zm3 7 1.5 1.5-1.5 1.5-1.5-1.5Zm3 54 1.5 1.5-1.5 1.5-1.5-1.5Zm3-34 1.5 1.5-1.5 1.5-1.5-1.5Zm3 0 1.5 1.5-1.5 1.5-1.5-1.5Zm3-34 1.5 1.5-1.5 1.5-1.5-1.5Zm3 61 1.5 1.5-1.5 1.5-1.5-1.5Zm3-34 1.5 1.5-1.5 1.5-1.5-1.5Zm3 14 1.5 1.5-1.5 1.5-1.5-1.5Zm4 47 1.5 1.5-1.5 1.5-1.5-1.5Zm3-67 1.5 1.5-1.5 1.5-1.5-1.5Zm3 54 1.5 1.5-1.5 1.5-1.5-1.5Zm3-48 1.5 1.5-1.5 1.5-1.5-1.5Zm3 0 1.5 1.5-1.5 1.5-1.5-1.5Zm3-13 1.5 1.5-1.5 1.5-1.5-1.5Zm3 7 1.5 1.5-1.5 1.5-1.5-1.5Zm3 20 1.5 1.5-1.5 1.5-1.5-1.5Zm3 34 1.5 1.5-1.5 1.5-1.5-1.5Zm3-21 1.5 1.5-1.5 1.5-1.5-1.5Zm3-47 1.5 1.5-1.5 1.5-1.5-1.5Zm3 27 1.5 1.5-1.5 1.5-1.5-1.5Zm3 20 1.5 1.5-1.5 1.5-1.5-1.5Zm3-20 1.5 1.5-1.5 1.5-1.5-1.5Zm3-7 1.5 1.5-1.5 1.5-1.5-1.5Zm3-6 1.5 1.5-1.5 1.5-1.5-1.5Zm3 13 1.5 1.5-1.5 1.5-1.5-1.5Zm3-13 1.5 1.5-1.5 1.5-1.5-1.5Zm3 6 1.5 1.5-1.5 1.5-1.5-1.5Zm3 21 1.5 1.5-1.5 1.5-1.5-1.5Zm3 13 1.5 1.5-1.5 1.5-1.5-1.5Zm3 0 1.5 1.5-1.5 1.5-1.5-1.5Zm3-20 1.5 1.5-1.5 1.5-1.5-1.5Zm3 0 1.5 1.5-1.5 1.5-1.5-1.5Zm3-20 1.5 1.5-1.5 1.5-1.5-1.5Zm3-28 1.5 1.5-1.5 1.5-1.5-1.5Zm3 21 1.5 1.5-1.5 1.5-1.5-1.5Zm3 54 1.5 1.5-1.5 1.5-1.5-1.5Zm3-47 1.5 1.5-1.5 1.5-1.5-1.5Zm3 33 1.5 1.5-1.5 1.5-1.5-1.5Zm4-6 1.5 1.5-1.5 1.5-1.5-1.5Zm3-27 1.5 1.5-1.5 1.5-1.5-1.5Zm3 27 1.5 1.5-1.5 1.5-1.5-1.5Zm3 20 1.5 1.5-1.5 1.5-1.5-1.5Zm3-27 1.5 1.5-1.5 1.5-1.5-1.5Zm3-20 1.5 1.5-1.5 1.5-1.5-1.5Zm3 6 1.5 1.5-1.5 1.5-1.5-1.5Zm3 0 1.5 1.5-1.5 1.5-1.5-1.5Zm3 27 1.5 1.5-1.5 1.5-1.5-1.5Zm3-20 1.5 1.5-1.5 1.5-1.5-1.5Zm3-34 1.5 1.5-1.5 1.5-1.5-1.5Zm3 41 1.5 1.5-1.5 1.5-1.5-1.5Zm3-20 1.5 1.5-1.5 1.5-1.5-1.5Zm3 6 1.5 1.5-1.5 1.5-1.5-1.5Zm3-6 1.5 1.5-1.5 1.5-1.5-1.5Zm3 0 1.5 1.5-1.5 1.5-1.5-1.5Zm3 33 1.5 1.5-1.5 1.5-1.5-1.5Zm3-27 1.5 1.5-1.5 1.5-1.5-1.5Zm3 27 1.5 1.5-1.5 1.5-1.5-1.5Zm3-74 1.5 1.5-1.5 1.5-1.5-1.5Zm3 27 1.5 1.5-1.5 1.5-1.5-1.5Zm3 34 1.5 1.5-1.5 1.5-1.5-1.5Zm3-20 1.5 1.5-1.5 1.5-1.5-1.5Zm3 33 1.5 1.5-1.5 1.5-1.5-1.5Zm3-20 1.5 1.5-1.5 1.5-1.5-1.5Zm3-27 1.5 1.5-1.5 1.5-1.5-1.5Zm3 14 1.5 1.5-1.5 1.5-1.5-1.5Zm3-55 1.5 1.5-1.5 1.5-1.5-1.5Zm3 82 1.5 1.5-1.5 1.5-1.5-1.5Zm3 27 1.5 1.5-1.5 1.5-1.5-1.5Zm4-68 1.5 1.5-1.5 1.5-1.5-1.5Zm3 27 1.5 1.5-1.5 1.5-1.5-1.5Zm3 0 1.5 1.5-1.5 1.5-1.5-1.5Zm3 7 1.5 1.5-1.5 1.5-1.5-1.5Zm3-41 1.5 1.5-1.5 1.5-1.5-1.5Zm3 7 1.5 1.5-1.5 1.5-1.5-1.5Zm3 27 1.5 1.5-1.5 1.5-1.5-1.5Zm3-13 1.5 1.5-1.5 1.5-1.5-1.5Zm3 13 1.5 1.5-1.5 1.5-1.5-1.5Zm3-13 1.5 1.5-1.5 1.5-1.5-1.5Zm3 13 1.5 1.5-1.5 1.5-1.5-1.5Zm3-68 1.5 1.5-1.5 1.5-1.5-1.5Zm3 68 1.5 1.5-1.5 1.5-1.5-1.5Zm3 0 1.5 1.5-1.5 1.5-1.5-1.5Zm3 14 1.5 1.5-1.5 1.5-1.5-1.5Zm3-27 1.5 1.5-1.5 1.5-1.5-1.5Zm3-28 1.5 1.5-1.5 1.5-1.5-1.5Zm3 21 1.5 1.5-1.5 1.5-1.5-1.5Zm3 7 1.5 1.5-1.5 1.5-1.5-1.5Zm3-7 1.5 1.5-1.5 1.5-1.5-1.5Zm3 0 1.5 1.5-1.5 1.5-1.5-1.5Zm3 0 1.5 1.5-1.5 1.5-1.5-1.5Zm3 27 1.5 1.5-1.5 1.5-1.5-1.5Zm3-34 1.5 1.5-1.5 1.5-1.5-1.5Zm3-7 1.5 1.5-1.5 1.5-1.5-1.5Zm3 21 1.5 1.5-1.5 1.5-1.5-1.5Zm3 33 1.5 1.5-1.5 1.5-1.5-1.5Zm3-33 1.5 1.5-1.5 1.5-1.5-1.5Zm3-28 1.5 1.5-1.5 1.5-1.5-1.5Zm3 28 1.5 1.5-1.5 1.5-1.5-1.5Z" class="highcharts-point highcharts-color-1" tabindex="-1" aria-hidden="true" style="outline:0" transform="translate(66 90)"/></g></g><text x="300" text-anchor="middle" class="highcharts-title" data-z-index="4" style="color:#333;font-size:18px;fill:#333" y="24" aria-hidden="true">Bell curve</text><g class="highcharts-legend highcharts-no-tooltip" data-z-index="7" transform="translate(217 359)" aria-hidden="true"><rect fill="none" class="highcharts-legend-box" rx="0" ry="0" width="166" height="26"/><g data-z-index="1"><g class="highcharts-legend-item highcharts-bellcurve-series highcharts-color-0 highcharts-series-0" data-z-index="1" transform="translate(8 3)"><text x="21" data-z-index="2" y="15" style="color:#333;cursor:pointer;font-size:12px;font-weight:700;fill:#333">Bell curve</text><rect x="2" y="4" width="12" height="12" fill="#7cb5ec" rx="6" ry="6" class="highcharts-point" data-z-index="3"/></g><g class="highcharts-legend-item highcharts-scatter-series highcharts-color-1 highcharts-series-1" data-z-index="1"><path fill="none" d="M109.227 14h16" class="highcharts-graph"/><path fill="#434348" d="m117.727 13 1.5 1.5-1.5 1.5-1.5-1.5Z" class="highcharts-point"/><text x="21" y="15" data-z-index="2" style="color:#333;cursor:pointer;font-size:12px;font-weight:700;fill:#333" transform="translate(109.227 3)">Data</text></g></g></g><g class="highcharts-axis-labels highcharts-xaxis-labels" data-z-index="7" aria-hidden="true" text-anchor="middle"><text x="70.52" style="color:#666;cursor:default;font-size:11px;fill:#666" y="326">0</text><text x="146.352" style="color:#666;cursor:default;font-size:11px;fill:#666" y="326">25</text><text x="222.184" style="color:#666;cursor:default;font-size:11px;fill:#666" y="326">50</text><text x="298.017" style="color:#666;cursor:default;font-size:11px;fill:#666" y="326">75</text><text x="373.849" style="color:#666;cursor:default;font-size:11px;fill:#666" y="326">100</text><text x="449.681" style="color:#666;cursor:default;font-size:11px;fill:#666" y="326">125</text><text x="525.514" style="color:#666;cursor:default;font-size:11px;fill:#666" y="326">150</text></g><g class="highcharts-axis-labels highcharts-xaxis-labels" data-z-index="7" aria-hidden="true" text-anchor="middle"><text x="113.771" style="color:#666;cursor:default;font-size:11px;fill:#666" y="77">2</text><text x="286.592" style="color:#666;cursor:default;font-size:11px;fill:#666" y="77">3</text><text x="459.412" style="color:#666;cursor:default;font-size:11px;fill:#666" y="77">4</text></g><g class="highcharts-axis-labels highcharts-yaxis-labels" data-z-index="7" aria-hidden="true" text-anchor="end"><text x="51" style="color:#666;cursor:default;font-size:11px;fill:#666" y="312">1.6</text><text x="51" style="color:#666;cursor:default;font-size:11px;fill:#666" y="257">2.4</text><text x="51" style="color:#666;cursor:default;font-size:11px;fill:#666" y="203">3.2</text><text x="51" style="color:#666;cursor:default;font-size:11px;fill:#666" y="149">4</text><text x="51" style="color:#666;cursor:default;font-size:11px;fill:#666" y="95">4.8</text></g><g class="highcharts-axis-labels highcharts-yaxis-labels" data-z-index="7" aria-hidden="true"><text x="542" style="color:#666;cursor:default;font-size:11px;fill:#666" y="312">0</text><text x="542" style="color:#666;cursor:default;font-size:11px;fill:#666" y="257">0.25</text><text x="542" style="color:#666;cursor:default;font-size:11px;fill:#666" y="203">0.5</text><text x="542" style="color:#666;cursor:default;font-size:11px;fill:#666" y="149">0.75</text><text x="542" style="color:#666;cursor:default;font-size:11px;fill:#666" y="95">1</text></g></svg>