<svg class="highcharts-root" style="font-family:&quot;Lucida Grande&quot;,&quot;Lucida Sans Unicode&quot;,Arial,Helvetica,sans-serif;font-size:12px" xmlns="http://www.w3.org/2000/svg" width="600" height="400" aria-label="Interactive chart" aria-hidden="false"><defs aria-hidden="true"><clipPath id="a"><path fill="none" d="M0 0h513v298H0z"/></clipPath></defs><rect fill="#fff" class="highcharts-background" width="600" height="400" rx="0" ry="0" aria-hidden="true"/><path fill="none" class="highcharts-plot-background" aria-hidden="true" d="M77 47h513v298H77z"/><g class="highcharts-plot-lines-0" data-z-index="0" aria-hidden="true"><path fill="none" class="highcharts-plot-line" stroke="red" d="M77 180.5h513"/></g><text x="344" text-anchor="middle" class="highcharts-plot-line-label" data-z-index="0" y="177" style="color:gray;fill:gray" aria-hidden="true">Theoretical mean: 932</text><g class="highcharts-grid highcharts-xaxis-grid" data-z-index="1" aria-hidden="true" fill="none"><path data-z-index="1" class="highcharts-grid-line" d="M179.5 47v298m102-298v298m103-298v298m102-298v298m103-298v298M76.5 47v298"/></g><g class="highcharts-grid highcharts-yaxis-grid" data-z-index="1" aria-hidden="true" fill="none" stroke="#e6e6e6"><path data-z-index="1" class="highcharts-grid-line" d="M77 345.5h513m-513-50h513m-513-49h513m-513-50h513m-513-50h513m-513-49h513m-513-51h513"/></g><path fill="none" class="highcharts-plot-border" data-z-index="1" aria-hidden="true" d="M77 47h513v298H77z"/><g class="highcharts-axis highcharts-xaxis" data-z-index="2" aria-hidden="true"><text x="333.5" data-z-index="7" text-anchor="middle" class="highcharts-axis-title" style="color:#666;fill:#666" y="383">Experiment No.</text><path fill="none" class="highcharts-axis-line" stroke="#ccd6eb" data-z-index="7" d="M77 345.5h513"/></g><g class="highcharts-axis highcharts-yaxis" data-z-index="2" aria-hidden="true"><text x="24.172" data-z-index="7" text-anchor="middle" transform="rotate(-90 24.172 196)" class="highcharts-axis-title" style="color:#666;fill:#666" y="196">Observations</text><path fill="none" class="highcharts-axis-line" data-z-index="7" d="M77 47v298"/></g><g class="highcharts-series-group" data-z-index="3" aria-hidden="false" stroke="#7cb5ec"><g class="highcharts-series highcharts-series-0 highcharts-boxplot-series highcharts-color-0 highcharts-tracker" data-z-index=".1" clip-path="url(#a)" aria-hidden="false" tabindex="-1" aria-label="Observations, series 1 of 2. Boxplot with 5 boxes." style="outline:0" transform="translate(77 47)"><g class="highcharts-point" tabindex="-1" aria-label="1, low: 760, q1: 801, median: 848, q3: 895, high: 965. Observations." style="outline:0"><path fill="none" class="highcharts-boxplot-stem" d="M51.5 151v-35m0 82v20"/><path fill="none" class="highcharts-boxplot-whisker" stroke-width="2" d="M39 116h25M39 218h25"/><path fill="#fff" class="highcharts-boxplot-box" d="M26.5 151.5v47h50v-47h-50Z"/><path fill="none" class="highcharts-boxplot-median" stroke-width="2" d="M26.5 175h50"/></g><g class="highcharts-point" tabindex="-1" aria-label="2, low: 733, q1: 853, median: 939, q3: 980, high: 1,080. Observations." style="outline:0"><path fill="none" class="highcharts-boxplot-stem" d="M153.5 109V59m0 113v59"/><path fill="none" class="highcharts-boxplot-whisker" stroke-width="2" d="M141 59h25m-25 172h25"/><path fill="#fff" class="highcharts-boxplot-box" d="M128.5 109.5v63h50v-63h-50Z"/><path fill="none" class="highcharts-boxplot-median" stroke-width="2" d="M128.5 130h50"/></g><g class="highcharts-point" tabindex="-1" aria-label="3, low: 714, q1: 762, median: 817, q3: 870, high: 918. Observations." style="outline:0"><path fill="none" class="highcharts-boxplot-stem" d="M256.5 163v-23m0 77v24"/><path fill="none" class="highcharts-boxplot-whisker" stroke-width="2" d="M244 140h25m-25 101h25"/><path fill="#fff" class="highcharts-boxplot-box" d="M231.5 163.5v54h50v-54h-50Z"/><path fill="none" class="highcharts-boxplot-median" stroke-width="2" d="M231.5 190h50"/></g><g class="highcharts-point" tabindex="-1" aria-label="4, low: 724, q1: 802, median: 806, q3: 871, high: 950. Observations." style="outline:0"><path fill="none" class="highcharts-boxplot-stem" d="M358.5 163v-39m0 73v39"/><path fill="none" class="highcharts-boxplot-whisker" stroke-width="2" d="M346 124h25m-25 112h25"/><path fill="#fff" class="highcharts-boxplot-box" d="M333.5 163.5v34h50v-34h-50Z"/><path fill="none" class="highcharts-boxplot-median" stroke-width="2" d="M333.5 196h50"/></g><g class="highcharts-point" tabindex="-1" aria-label="5, low: 834, q1: 836, median: 864, q3: 882, high: 910. Observations." style="outline:0"><path fill="none" class="highcharts-boxplot-stem" d="M461.5 157v-13m0 36v1"/><path fill="none" class="highcharts-boxplot-whisker" stroke-width="2" d="M449 144h25m-25 37h25"/><path fill="#fff" class="highcharts-boxplot-box" d="M436.5 157.5v23h50v-23h-50Z"/><path fill="none" class="highcharts-boxplot-median" stroke-width="2" d="M436.5 167h50"/></g></g><g class="highcharts-markers highcharts-series-1 highcharts-scatter-series highcharts-tracker" data-z-index=".1" aria-hidden="false" tabindex="-1" aria-label="Outliers, series 2 of 2, scatter plot with 4 points." style="outline:0" fill="#fff"><path d="M51 280a4 4 0 1 1 .004 0Z" class="highcharts-point" tabindex="-1" aria-label="1, 644. Outliers." style="outline:0" transform="translate(77 47)"/><path d="M461 243a4 4 0 1 1 .004 0Z" class="highcharts-point" tabindex="-1" aria-label="5, 718. Outliers." style="outline:0" transform="translate(77 47)"/><path d="M461 128a4 4 0 1 1 .004 0Z" class="highcharts-point" tabindex="-1" aria-label="5, 951. Outliers." style="outline:0" transform="translate(77 47)"/><path d="M461 119a4 4 0 1 1 .004 0Z" class="highcharts-point" tabindex="-1" aria-label="5, 969. Outliers." style="outline:0" transform="translate(77 47)"/></g></g><text x="300" text-anchor="middle" class="highcharts-title" data-z-index="4" style="color:#333;font-size:18px;fill:#333" y="24" aria-hidden="true">Highcharts Box Plot Example</text><g class="highcharts-axis-labels highcharts-xaxis-labels" data-z-index="7" aria-hidden="true" text-anchor="middle"><text x="128.3" style="color:#666;cursor:default;font-size:11px;fill:#666" y="364">1</text><text x="230.9" style="color:#666;cursor:default;font-size:11px;fill:#666" y="364">2</text><text x="333.5" style="color:#666;cursor:default;font-size:11px;fill:#666" y="364">3</text><text x="436.1" style="color:#666;cursor:default;font-size:11px;fill:#666" y="364">4</text><text x="538.7" style="color:#666;cursor:default;font-size:11px;fill:#666" y="364">5</text></g><g class="highcharts-axis-labels highcharts-yaxis-labels" data-z-index="7" aria-hidden="true" text-anchor="end"><text x="62" style="color:#666;cursor:default;font-size:11px;fill:#666" y="350">600</text><text x="62" style="color:#666;cursor:default;font-size:11px;fill:#666" y="300">700</text><text x="62" style="color:#666;cursor:default;font-size:11px;fill:#666" y="250">800</text><text x="62" style="color:#666;cursor:default;font-size:11px;fill:#666" y="201">900</text><text x="62" style="color:#666;cursor:default;font-size:11px;fill:#666" y="151">1000</text><text x="62" style="color:#666;cursor:default;font-size:11px;fill:#666" y="101">1100</text><text x="62" style="color:#666;cursor:default;font-size:11px;fill:#666" y="52">1200</text></g></svg>