<svg class="highcharts-root" style="font-family:&quot;Lucida Grande&quot;,&quot;Lucida Sans Unicode&quot;,Arial,Helvetica,sans-serif;font-size:12px" xmlns="http://www.w3.org/2000/svg" width="600" height="400" aria-label="Interactive chart" aria-hidden="false"><defs aria-hidden="true"><clipPath id="a"><path fill="none" d="M0 0h527v250H0z"/></clipPath></defs><rect fill="#fff" class="highcharts-background" width="600" height="400" rx="0" ry="0" aria-hidden="true"/><path fill="none" class="highcharts-plot-background" aria-hidden="true" d="M63 61h527v250H63z"/><g class="highcharts-grid highcharts-xaxis-grid" data-z-index="1" aria-hidden="true" fill="none"><path data-z-index="1" class="highcharts-grid-line" d="M106.5 61v250m44-250v250m44-250v250m44-250v250m44-250v250m44-250v250m43-250v250m44-250v250m44-250v250m44-250v250m44-250v250m44-250v250M62.5 61v250"/></g><g class="highcharts-grid highcharts-yaxis-grid" data-z-index="1" aria-hidden="true" fill="none" stroke="#e6e6e6"><path data-z-index="1" class="highcharts-grid-line" d="M63 311.5h527m-527-62h527m-527-63h527m-527-62h527m-527-64h527"/></g><path fill="none" class="highcharts-plot-border" data-z-index="1" aria-hidden="true" d="M63 61h527v250H63z"/><g class="highcharts-axis highcharts-xaxis" data-z-index="2" aria-hidden="true"><path fill="none" class="highcharts-axis-line" stroke="#ccd6eb" data-z-index="7" d="M63 311.5h527"/></g><g class="highcharts-axis highcharts-yaxis" data-z-index="2" aria-hidden="true"><text x="24.086" data-z-index="7" text-anchor="middle" transform="rotate(-90 24.086 186)" class="highcharts-axis-title" style="color:#666;fill:#666" y="186">Million tonnes CO<tspan>2</tspan>-equivalents</text><path fill="none" class="highcharts-axis-line" data-z-index="7" d="M63 61v250"/></g><g class="highcharts-series-group" data-z-index="3" aria-hidden="false"><g class="highcharts-series highcharts-series-0 highcharts-column-series highcharts-color-0 highcharts-tracker" data-z-index=".1" clip-path="url(#a)" aria-hidden="false" tabindex="-1" aria-label="Oil and gas extraction, bar series 1 of 4 with 12 bars." style="outline:0" fill="#7cb5ec" transform="translate(63 61)"><path class="highcharts-point highcharts-color-0" tabindex="-1" aria-label="2010, 13.93. Oil and gas extraction." style="outline:0" d="M10 77h4v174h-4z"/><path class="highcharts-point highcharts-color-0" tabindex="-1" aria-label="2011, 13.63. Oil and gas extraction." style="outline:0" d="M54 81h4v170h-4z"/><path class="highcharts-point highcharts-color-0" tabindex="-1" aria-label="2012, 13.73. Oil and gas extraction." style="outline:0" d="M98 79h4v172h-4z"/><path class="highcharts-point highcharts-color-0" tabindex="-1" aria-label="2013, 13.67. Oil and gas extraction." style="outline:0" d="M142 80h4v171h-4z"/><path class="highcharts-point highcharts-color-0" tabindex="-1" aria-label="2014, 14.37. Oil and gas extraction." style="outline:0" d="M186 71h4v180h-4z"/><path class="highcharts-point highcharts-color-0" tabindex="-1" aria-label="2015, 14.89. Oil and gas extraction." style="outline:0" d="M230 65h4v186h-4z"/><path class="highcharts-point highcharts-color-0" tabindex="-1" aria-label="2016, 14.56. Oil and gas extraction." style="outline:0" d="M274 69h4v182h-4z"/><path class="highcharts-point highcharts-color-0" tabindex="-1" aria-label="2017, 14.32. Oil and gas extraction." style="outline:0" d="M318 72h4v179h-4z"/><path class="highcharts-point highcharts-color-0" tabindex="-1" aria-label="2018, 14.13. Oil and gas extraction." style="outline:0" d="M361 74h4v177h-4z"/><path class="highcharts-point highcharts-color-0" tabindex="-1" aria-label="2019, 13.93. Oil and gas extraction." style="outline:0" d="M405 77h4v174h-4z"/><path class="highcharts-point highcharts-color-0" tabindex="-1" aria-label="2020, 13.21. Oil and gas extraction." style="outline:0" d="M449 86h4v165h-4z"/><path class="highcharts-point highcharts-color-0" tabindex="-1" aria-label="2021, 12.16. Oil and gas extraction." style="outline:0" d="M493 99h4v152h-4z"/></g><g class="highcharts-series highcharts-series-1 highcharts-column-series highcharts-color-1 highcharts-tracker" data-z-index=".1" clip-path="url(#a)" aria-hidden="false" tabindex="-1" aria-label="Manufacturing industries and mining, bar series 2 of 4 with 12 bars." style="outline:0" fill="#434348" transform="translate(63 61)"><path class="highcharts-point highcharts-color-1" tabindex="-1" aria-label="2010, 12.24. Manufacturing industries and mining." style="outline:0" d="M17 98h4v153h-4z"/><path class="highcharts-point highcharts-color-1" tabindex="-1" aria-label="2011, 12.24. Manufacturing industries and mining." style="outline:0" d="M61 98h4v153h-4z"/><path class="highcharts-point highcharts-color-1" tabindex="-1" aria-label="2012, 11.95. Manufacturing industries and mining." style="outline:0" d="M105 102h4v149h-4z"/><path class="highcharts-point highcharts-color-1" tabindex="-1" aria-label="2013, 12.02. Manufacturing industries and mining." style="outline:0" d="M148 101h4v150h-4z"/><path class="highcharts-point highcharts-color-1" tabindex="-1" aria-label="2014, 11.65. Manufacturing industries and mining." style="outline:0" d="M192 105h4v146h-4z"/><path class="highcharts-point highcharts-color-1" tabindex="-1" aria-label="2015, 11.96. Manufacturing industries and mining." style="outline:0" d="M236 102h4v149h-4z"/><path class="highcharts-point highcharts-color-1" tabindex="-1" aria-label="2016, 11.59. Manufacturing industries and mining." style="outline:0" d="M280 106h4v145h-4z"/><path class="highcharts-point highcharts-color-1" tabindex="-1" aria-label="2017, 11.94. Manufacturing industries and mining." style="outline:0" d="M324 102h4v149h-4z"/><path class="highcharts-point highcharts-color-1" tabindex="-1" aria-label="2018, 11.96. Manufacturing industries and mining." style="outline:0" d="M368 102h4v149h-4z"/><path class="highcharts-point highcharts-color-1" tabindex="-1" aria-label="2019, 11.59. Manufacturing industries and mining." style="outline:0" d="M412 106h4v145h-4z"/><path class="highcharts-point highcharts-color-1" tabindex="-1" aria-label="2020, 11.42. Manufacturing industries and mining." style="outline:0" d="M456 108h4v143h-4z"/><path class="highcharts-point highcharts-color-1" tabindex="-1" aria-label="2021, 11.76. Manufacturing industries and mining." style="outline:0" d="M500 104h4v147h-4z"/></g><g class="highcharts-series highcharts-series-2 highcharts-column-series highcharts-color-2 highcharts-tracker" data-z-index=".1" clip-path="url(#a)" aria-hidden="false" tabindex="-1" aria-label="Road traffic, bar series 3 of 4 with 12 bars." style="outline:0" fill="#90ed7d" transform="translate(63 61)"><path class="highcharts-point highcharts-color-2" tabindex="-1" aria-label="2010, 10. Road traffic." style="outline:0" d="M23 126h4v125h-4z"/><path class="highcharts-point highcharts-color-2" tabindex="-1" aria-label="2011, 9.93. Road traffic." style="outline:0" d="M67 127h4v124h-4z"/><path class="highcharts-point highcharts-color-2" tabindex="-1" aria-label="2012, 9.97. Road traffic." style="outline:0" d="M111 126h4v125h-4z"/><path class="highcharts-point highcharts-color-2" tabindex="-1" aria-label="2013, 10.01. Road traffic." style="outline:0" d="M155 126h4v125h-4z"/><path class="highcharts-point highcharts-color-2" tabindex="-1" aria-label="2014, 10.23. Road traffic." style="outline:0" d="M199 123h4v128h-4z"/><path class="highcharts-point highcharts-color-2" tabindex="-1" aria-label="2015, 10.26. Road traffic." style="outline:0" d="M243 123h4v128h-4z"/><path class="highcharts-point highcharts-color-2" tabindex="-1" aria-label="2016, 10. Road traffic." style="outline:0" d="M287 126h4v125h-4z"/><path class="highcharts-point highcharts-color-2" tabindex="-1" aria-label="2017, 9.12. Road traffic." style="outline:0" d="M331 137h4v114h-4z"/><path class="highcharts-point highcharts-color-2" tabindex="-1" aria-label="2018, 9.36. Road traffic." style="outline:0" d="M375 134h4v117h-4z"/><path class="highcharts-point highcharts-color-2" tabindex="-1" aria-label="2019, 8.72. Road traffic." style="outline:0" d="M419 142h4v109h-4z"/><path class="highcharts-point highcharts-color-2" tabindex="-1" aria-label="2020, 8.38. Road traffic." style="outline:0" d="M462 146h4v105h-4z"/><path class="highcharts-point highcharts-color-2" tabindex="-1" aria-label="2021, 8.69. Road traffic." style="outline:0" d="M506 142h4v109h-4z"/></g><g class="highcharts-series highcharts-series-3 highcharts-column-series highcharts-color-3 highcharts-tracker" data-z-index=".1" clip-path="url(#a)" aria-hidden="false" tabindex="-1" aria-label="Agriculture, bar series 4 of 4 with 12 bars." style="outline:0" fill="#f7a35c" transform="translate(63 61)"><path class="highcharts-point highcharts-color-3" tabindex="-1" aria-label="2010, 4.35. Agriculture." style="outline:0" d="M30 197h4v54h-4z"/><path class="highcharts-point highcharts-color-3" tabindex="-1" aria-label="2011, 4.32. Agriculture." style="outline:0" d="M74 197h4v54h-4z"/><path class="highcharts-point highcharts-color-3" tabindex="-1" aria-label="2012, 4.34. Agriculture." style="outline:0" d="M118 197h4v54h-4z"/><path class="highcharts-point highcharts-color-3" tabindex="-1" aria-label="2013, 4.39. Agriculture." style="outline:0" d="M162 196h4v55h-4z"/><path class="highcharts-point highcharts-color-3" tabindex="-1" aria-label="2014, 4.46. Agriculture." style="outline:0" d="M206 195h4v56h-4z"/><path class="highcharts-point highcharts-color-3" tabindex="-1" aria-label="2015, 4.52. Agriculture." style="outline:0" d="M249 195h4v56h-4z"/><path class="highcharts-point highcharts-color-3" tabindex="-1" aria-label="2016, 4.58. Agriculture." style="outline:0" d="M293 194h4v57h-4z"/><path class="highcharts-point highcharts-color-3" tabindex="-1" aria-label="2017, 4.55. Agriculture." style="outline:0" d="M337 194h4v57h-4z"/><path class="highcharts-point highcharts-color-3" tabindex="-1" aria-label="2018, 4.53. Agriculture." style="outline:0" d="M381 194h4v57h-4z"/><path class="highcharts-point highcharts-color-3" tabindex="-1" aria-label="2019, 4.51. Agriculture." style="outline:0" d="M425 195h4v56h-4z"/><path class="highcharts-point highcharts-color-3" tabindex="-1" aria-label="2020, 4.49. Agriculture." style="outline:0" d="M469 195h4v56h-4z"/><path class="highcharts-point highcharts-color-3" tabindex="-1" aria-label="2021, 4.57. Agriculture." style="outline:0" d="M513 194h4v57h-4z"/></g></g><text x="300" text-anchor="middle" class="highcharts-title" data-z-index="4" style="color:#333;font-size:18px;fill:#333" y="24" aria-hidden="true">Emissions to air in Norway</text><text x="300" text-anchor="middle" class="highcharts-subtitle" data-z-index="4" style="color:#666;fill:#666" y="46" aria-hidden="true">Source: <a target="_blank"><tspan>SSB</tspan></a></text><g class="highcharts-legend highcharts-no-tooltip" data-z-index="7" transform="translate(31 344)" aria-hidden="true"><rect fill="none" class="highcharts-legend-box" rx="0" ry="0" width="538" height="41"/><g data-z-index="1"><g class="highcharts-legend-item highcharts-column-series highcharts-color-0 highcharts-series-0" data-z-index="1" transform="translate(8 3)"><text x="21" data-z-index="2" y="15" style="color:#333;cursor:pointer;font-size:12px;font-weight:700;fill:#333">Oil and gas extraction</text><rect x="2" y="4" width="12" height="12" fill="#7cb5ec" rx="6" ry="6" class="highcharts-point" data-z-index="3"/></g><g class="highcharts-legend-item highcharts-column-series highcharts-color-1 highcharts-series-1" data-z-index="1" transform="translate(279.336 3)"><text x="21" y="15" data-z-index="2" style="color:#333;cursor:pointer;font-size:12px;font-weight:700;fill:#333">Manufacturing industries and mining</text><rect x="2" y="4" width="12" height="12" fill="#434348" rx="6" ry="6" class="highcharts-point" data-z-index="3"/></g><g class="highcharts-legend-item highcharts-column-series highcharts-color-2 highcharts-series-2" data-z-index="1" transform="translate(8 18)"><text x="21" y="15" data-z-index="2" style="color:#333;cursor:pointer;font-size:12px;font-weight:700;fill:#333">Road traffic</text><rect x="2" y="4" width="12" height="12" fill="#90ed7d" rx="6" ry="6" class="highcharts-point" data-z-index="3"/></g><g class="highcharts-legend-item highcharts-column-series highcharts-color-3 highcharts-series-3" data-z-index="1" transform="translate(279.336 18)"><text x="21" y="15" data-z-index="2" style="color:#333;cursor:pointer;font-size:12px;font-weight:700;fill:#333">Agriculture</text><rect x="2" y="4" width="12" height="12" fill="#f7a35c" rx="6" ry="6" class="highcharts-point" data-z-index="3"/></g></g></g><g class="highcharts-axis-labels highcharts-xaxis-labels" data-z-index="7" aria-hidden="true" text-anchor="middle"><text x="84.958" style="color:#666;cursor:default;font-size:11px;fill:#666" y="330">2010</text><text x="128.875" style="color:#666;cursor:default;font-size:11px;fill:#666" y="330">2011</text><text x="172.792" style="color:#666;cursor:default;font-size:11px;fill:#666" y="330">2012</text><text x="216.708" style="color:#666;cursor:default;font-size:11px;fill:#666" y="330">2013</text><text x="260.625" style="color:#666;cursor:default;font-size:11px;fill:#666" y="330">2014</text><text x="304.542" style="color:#666;cursor:default;font-size:11px;fill:#666" y="330">2015</text><text x="348.458" style="color:#666;cursor:default;font-size:11px;fill:#666" y="330">2016</text><text x="392.375" style="color:#666;cursor:default;font-size:11px;fill:#666" y="330">2017</text><text x="436.292" style="color:#666;cursor:default;font-size:11px;fill:#666" y="330">2018</text><text x="480.208" style="color:#666;cursor:default;font-size:11px;fill:#666" y="330">2019</text><text x="524.125" style="color:#666;cursor:default;font-size:11px;fill:#666" y="330">2020</text><text x="568.042" style="color:#666;cursor:default;font-size:11px;fill:#666" y="330">2021</text></g><g class="highcharts-axis-labels highcharts-yaxis-labels" data-z-index="7" aria-hidden="true" text-anchor="end"><text x="48" style="color:#666;cursor:default;font-size:11px;fill:#666" y="316">0</text><text x="48" style="color:#666;cursor:default;font-size:11px;fill:#666" y="253">5</text><text x="48" style="color:#666;cursor:default;font-size:11px;fill:#666" y="191">10</text><text x="48" style="color:#666;cursor:default;font-size:11px;fill:#666" y="128">15</text><text x="48" style="color:#666;cursor:default;font-size:11px;fill:#666" y="66">20</text></g></svg>