<svg class="highcharts-root" style="font-family:&quot;Lucida Grande&quot;,&quot;Lucida Sans Unicode&quot;,Arial,Helvetica,sans-serif;font-size:12px" xmlns="http://www.w3.org/2000/svg" width="600" height="400" aria-label="Interactive chart" aria-hidden="false"><defs aria-hidden="true"><clipPath id="a"><path fill="none" d="M0 0h520v297H0z"/></clipPath></defs><rect fill="#fff" class="highcharts-background" width="600" height="400" rx="0" ry="0" aria-hidden="true"/><path fill="none" class="highcharts-plot-background" aria-hidden="true" d="M70 47h520v297H70z"/><g class="highcharts-grid highcharts-xaxis-grid" data-z-index="1" aria-hidden="true" fill="none"><path data-z-index="1" class="highcharts-grid-line" d="M173.5 47v297m104-297v297m104-297v297m104-297v297m104-297v297M69.5 47v297"/></g><g class="highcharts-grid highcharts-yaxis-grid" data-z-index="1" aria-hidden="true" fill="none" stroke="#e6e6e6"><path data-z-index="1" class="highcharts-grid-line" d="M70 344.5h520m-520-49h520m-520-50h520m-520-49h520m-520-50h520m-520-49h520m-520-51h520"/></g><path fill="none" class="highcharts-plot-border" data-z-index="1" aria-hidden="true" d="M70 47h520v297H70z"/><g class="highcharts-axis highcharts-xaxis" data-z-index="2" aria-hidden="true"><path fill="none" class="highcharts-axis-line" stroke="#ccd6eb" data-z-index="7" d="M70 344.5h520"/></g><g class="highcharts-axis highcharts-yaxis" data-z-index="2" aria-hidden="true"><text x="24.133" data-z-index="7" text-anchor="middle" transform="rotate(-90 24.133 195.5)" class="highcharts-axis-title" style="color:#666;fill:#666" y="195.5">Height (m)</text><path fill="none" class="highcharts-axis-line" data-z-index="7" d="M70 47v297"/></g><g class="highcharts-series-group" data-z-index="3" aria-hidden="false"><g class="highcharts-series highcharts-series-0 highcharts-columnpyramid-series highcharts-tracker" data-z-index=".1" clip-path="url(#a)" aria-hidden="false" stroke="#fff" transform="translate(70 47)"><path fill="#C79D6D" d="M52.04 22.176 77.04 297h-50Z" class="highcharts-point highcharts-color-0" tabindex="-1" aria-label="Pyramid of Khufu, 138.8 m. Height." style="outline:0"/><path fill="#B5927B" d="m156.04 26.928 25 270.072h-50Z" class="highcharts-point highcharts-color-1" tabindex="-1" aria-label="Pyramid of Khafre, 136.4 m. Height." style="outline:0"/><path fill="#CE9B84" d="m260.04 91.08 25 205.92h-50Z" class="highcharts-point highcharts-color-2" tabindex="-1" aria-label="Red Pyramid, 104 m. Height." style="outline:0"/><path fill="#B7A58C" d="m364.04 96.822 25 200.178h-50Z" class="highcharts-point highcharts-color-3" tabindex="-1" aria-label="Bent Pyramid, 101.1 m. Height." style="outline:0"/><path fill="#C7A58C" d="m468.04 148.5 25 148.5h-50Z" class="highcharts-point highcharts-color-4" tabindex="-1" aria-label="Pyramid of the Sun, 75 m. Height." style="outline:0"/></g></g><text x="300" text-anchor="middle" class="highcharts-title" data-z-index="4" style="color:#333;font-size:18px;fill:#333" y="24" aria-hidden="true">The 5 highest pyramids in the World</text><g class="highcharts-axis-labels highcharts-xaxis-labels" data-z-index="7" aria-hidden="true" text-anchor="middle"><text x="122" style="color:#666;cursor:default;font-size:14px;fill:#666" y="366">Pyramid of<tspan dy="17" x="122">​</tspan>Khufu</text><text x="226" style="color:#666;cursor:default;font-size:14px;fill:#666" y="366">Pyramid of<tspan dy="17" x="226">​</tspan>Khafre</text><text x="330" style="color:#666;cursor:default;font-size:14px;fill:#666" y="366">Red Pyramid</text><text x="434" style="color:#666;cursor:default;font-size:14px;fill:#666" y="366">Bent Pyramid</text><text x="538" style="color:#666;cursor:default;font-size:14px;fill:#666" y="366">Pyramid of<tspan dy="17" x="538">​</tspan>the Sun</text></g><g class="highcharts-axis-labels highcharts-yaxis-labels" data-z-index="7" aria-hidden="true" text-anchor="end"><text x="55" style="color:#666;cursor:default;font-size:11px;fill:#666" y="349">0</text><text x="55" style="color:#666;cursor:default;font-size:11px;fill:#666" y="299">25</text><text x="55" style="color:#666;cursor:default;font-size:11px;fill:#666" y="250">50</text><text x="55" style="color:#666;cursor:default;font-size:11px;fill:#666" y="200">75</text><text x="55" style="color:#666;cursor:default;font-size:11px;fill:#666" y="151">100</text><text x="55" style="color:#666;cursor:default;font-size:11px;fill:#666" y="101">125</text><text x="55" style="color:#666;cursor:default;font-size:11px;fill:#666" y="52">150</text></g></svg>