<svg class="highcharts-root" style="font-family:&quot;Lucida Grande&quot;,&quot;Lucida Sans Unicode&quot;,Arial,Helvetica,sans-serif;font-size:12px" xmlns="http://www.w3.org/2000/svg" width="600" height="400" aria-label="Interactive chart" aria-hidden="false"><defs aria-hidden="true"><clipPath id="a"><path fill="none" d="M0 0h520v279H0z"/></clipPath></defs><rect fill="#fff" class="highcharts-background" width="600" height="400" rx="0" ry="0" aria-hidden="true"/><path fill="none" class="highcharts-plot-background" aria-hidden="true" d="M70 47h520v279H70z"/><g class="highcharts-grid highcharts-xaxis-grid" data-z-index="1" aria-hidden="true" fill="none"><path data-z-index="1" class="highcharts-grid-line" d="M173.5 47v279m104-279v279m104-279v279m104-279v279m104-279v279M69.5 47v279"/></g><g class="highcharts-grid highcharts-yaxis-grid" data-z-index="1" aria-hidden="true" fill="none" stroke="#e6e6e6"><path data-z-index="1" class="highcharts-grid-line" d="M70 326.5h520m-520-70h520m-520-69h520m-520-70h520m-520-71h520"/></g><path fill="none" class="highcharts-plot-border" data-z-index="1" aria-hidden="true" d="M70 47h520v279H70z"/><g class="highcharts-axis highcharts-xaxis" data-z-index="2" aria-hidden="true"><path fill="none" class="highcharts-axis-line" stroke="#ccd6eb" data-z-index="7" d="M70 326.5h520"/></g><g class="highcharts-axis highcharts-yaxis" data-z-index="2" aria-hidden="true"><text x="24.133" data-z-index="7" text-anchor="middle" transform="rotate(-90 24.133 186.5)" class="highcharts-axis-title" style="color:#666;fill:#666" y="186.5">Assists</text><path fill="none" class="highcharts-axis-line" data-z-index="7" d="M70 47v279"/></g><g class="highcharts-series-group" data-z-index="3" aria-hidden="false" stroke="#fff"><g class="highcharts-series highcharts-series-0 highcharts-column-series highcharts-color-0 highcharts-tracker" data-z-index=".1" clip-path="url(#a)" aria-hidden="false" tabindex="-1" aria-label="Kevin De Bruyne, bar series 1 of 3 with 5 bars." style="outline:0" fill="#7cb5ec" transform="translate(70 47)"><path class="highcharts-point highcharts-color-0" tabindex="-1" aria-label="2021/22, 4. Kevin De Bruyne." style="outline:0" d="M26.5-.5h50v224h-50z"/><path class="highcharts-point highcharts-color-0" tabindex="-1" aria-label="2020/21, 4. Kevin De Bruyne." style="outline:0" d="M130.5-.5h50v113h-50z"/><path class="highcharts-point highcharts-color-0" tabindex="-1" aria-label="2019/20, 2. Kevin De Bruyne." style="outline:0" d="M234.5-.5h50v81h-50z"/><path class="highcharts-point highcharts-color-0" tabindex="-1" aria-label="2018/19, 4. Kevin De Bruyne." style="outline:0" d="M338.5-.5h50v160h-50z"/><path class="highcharts-point highcharts-color-0" tabindex="-1" aria-label="2017/18, 4. Kevin De Bruyne." style="outline:0" d="M442.5-.5h50v125h-50z"/></g><g class="highcharts-series highcharts-series-1 highcharts-column-series highcharts-color-1 highcharts-tracker" data-z-index=".1" clip-path="url(#a)" aria-hidden="false" tabindex="-1" aria-label="Joshua Kimmich, bar series 2 of 3 with 5 bars." style="outline:0" fill="#434348" transform="translate(70 47)"><path class="highcharts-point highcharts-color-1" tabindex="-1" aria-label="2020/21, 4. Joshua Kimmich." style="outline:0" d="M130.5 112.5h50v111h-50z"/><path class="highcharts-point highcharts-color-1" tabindex="-1" aria-label="2019/20, 3. Joshua Kimmich." style="outline:0" d="M234.5 80.5h50v119h-50z"/><path class="highcharts-point highcharts-color-1" tabindex="-1" aria-label="2018/19, 2. Joshua Kimmich." style="outline:0" d="M338.5 159.5h50v80h-50z"/><path class="highcharts-point highcharts-color-1" tabindex="-1" aria-label="2017/18, 3. Joshua Kimmich." style="outline:0" d="M442.5 124.5h50v93h-50z"/></g><g class="highcharts-series highcharts-series-2 highcharts-column-series highcharts-color-2 highcharts-tracker" data-z-index=".1" clip-path="url(#a)" aria-hidden="false" tabindex="-1" aria-label="Sadio Mané, bar series 3 of 3 with 5 bars." style="outline:0" fill="#90ed7d" transform="translate(70 47)"><path class="highcharts-point highcharts-color-2" tabindex="-1" aria-label="2021/22, 1. Sadio Mané." style="outline:0" d="M26.5 223.5h50v56h-50z"/><path class="highcharts-point highcharts-color-2" tabindex="-1" aria-label="2020/21, 2. Sadio Mané." style="outline:0" d="M130.5 223.5h50v56h-50z"/><path class="highcharts-point highcharts-color-2" tabindex="-1" aria-label="2019/20, 2. Sadio Mané." style="outline:0" d="M234.5 199.5h50v80h-50z"/><path class="highcharts-point highcharts-color-2" tabindex="-1" aria-label="2018/19, 1. Sadio Mané." style="outline:0" d="M338.5 239.5h50v40h-50z"/><path class="highcharts-point highcharts-color-2" tabindex="-1" aria-label="2017/18, 2. Sadio Mané." style="outline:0" d="M442.5 217.5h50v62h-50z"/></g></g><text x="300" text-anchor="middle" class="highcharts-title" data-z-index="4" style="color:#333;font-size:18px;fill:#333" y="24" aria-hidden="true">UEFA CL most assists by season</text><g class="highcharts-legend highcharts-no-tooltip" data-z-index="7" transform="translate(104 359)" aria-hidden="true"><rect fill="none" class="highcharts-legend-box" rx="0" ry="0" width="391" height="26"/><g data-z-index="1"><g class="highcharts-legend-item highcharts-column-series highcharts-color-0 highcharts-series-0" data-z-index="1" transform="translate(8 3)"><text x="21" data-z-index="2" y="15" style="color:#333;cursor:pointer;font-size:12px;font-weight:700;fill:#333">Kevin De Bruyne</text><rect x="2" y="4" width="12" height="12" fill="#7cb5ec" rx="6" ry="6" class="highcharts-point" data-z-index="3"/></g><g class="highcharts-legend-item highcharts-column-series highcharts-color-1 highcharts-series-1" data-z-index="1" transform="translate(150.719 3)"><text x="21" y="15" data-z-index="2" style="color:#333;cursor:pointer;font-size:12px;font-weight:700;fill:#333">Joshua Kimmich</text><rect x="2" y="4" width="12" height="12" fill="#434348" rx="6" ry="6" class="highcharts-point" data-z-index="3"/></g><g class="highcharts-legend-item highcharts-column-series highcharts-color-2 highcharts-series-2" data-z-index="1" transform="translate(292.238 3)"><text x="21" y="15" data-z-index="2" style="color:#333;cursor:pointer;font-size:12px;font-weight:700;fill:#333">Sadio Mané</text><rect x="2" y="4" width="12" height="12" fill="#90ed7d" rx="6" ry="6" class="highcharts-point" data-z-index="3"/></g></g></g><g class="highcharts-axis-labels highcharts-xaxis-labels" data-z-index="7" aria-hidden="true" text-anchor="middle"><text x="122" style="color:#666;cursor:default;font-size:11px;fill:#666" y="345">2021/22</text><text x="226" style="color:#666;cursor:default;font-size:11px;fill:#666" y="345">2020/21</text><text x="330" style="color:#666;cursor:default;font-size:11px;fill:#666" y="345">2019/20</text><text x="434" style="color:#666;cursor:default;font-size:11px;fill:#666" y="345">2018/19</text><text x="538" style="color:#666;cursor:default;font-size:11px;fill:#666" y="345">2017/18</text></g><g class="highcharts-axis-labels highcharts-yaxis-labels" data-z-index="7" aria-hidden="true" text-anchor="end"><text x="55" style="color:#666;cursor:default;font-size:11px;fill:#666" y="331">0</text><text x="55" style="color:#666;cursor:default;font-size:11px;fill:#666" y="261">25</text><text x="55" style="color:#666;cursor:default;font-size:11px;fill:#666" y="191">50</text><text x="55" style="color:#666;cursor:default;font-size:11px;fill:#666" y="121">75</text><text x="55" style="color:#666;cursor:default;font-size:11px;fill:#666" y="52">100</text></g></svg>