<svg class="highcharts-root" style="font-family:&quot;Lucida Grande&quot;,&quot;Lucida Sans Unicode&quot;,Arial,Helvetica,sans-serif;font-size:12px" xmlns="http://www.w3.org/2000/svg" width="600" height="400" aria-label="Interactive chart" aria-hidden="false"><defs aria-hidden="true"><clipPath id="a"><path fill="none" d="M0 0h520v279H0z"/></clipPath></defs><rect fill="#fff" class="highcharts-background" width="600" height="400" rx="0" ry="0" aria-hidden="true"/><path fill="none" class="highcharts-plot-background" aria-hidden="true" d="M70 47h520v279H70z"/><g class="highcharts-grid highcharts-xaxis-grid" data-z-index="1" aria-hidden="true" fill="none"><path data-z-index="1" class="highcharts-grid-line" d="M173.5 47v279m104-279v279m104-279v279m104-279v279m104-279v279M69.5 47v279"/></g><g class="highcharts-grid highcharts-yaxis-grid" data-z-index="1" aria-hidden="true" fill="none" stroke="#e6e6e6"><path data-z-index="1" class="highcharts-grid-line" d="M70 326.5h520m-520-46h520m-520-47h520m-520-46h520m-520-47h520m-520-46h520m-520-48h520"/></g><path fill="none" class="highcharts-plot-border" data-z-index="1" aria-hidden="true" d="M70 47h520v279H70z"/><g class="highcharts-axis highcharts-xaxis" data-z-index="2" aria-hidden="true"><path fill="none" class="highcharts-axis-line" stroke="#ccd6eb" data-z-index="7" d="M70 326.5h520"/></g><g class="highcharts-axis highcharts-yaxis" data-z-index="2" aria-hidden="true"><text x="24.133" data-z-index="7" text-anchor="middle" transform="rotate(-90 24.133 186.5)" class="highcharts-axis-title" style="color:#666;fill:#666" y="186.5">Million liters</text><path fill="none" class="highcharts-axis-line" data-z-index="7" d="M70 47v279"/></g><g class="highcharts-series-group" data-z-index="3" aria-hidden="false"><g class="highcharts-series highcharts-series-0 highcharts-column-series highcharts-color-0 highcharts-tracker" data-z-index=".1" clip-path="url(#a)" aria-hidden="false" tabindex="-1" aria-label="2020, series 1 of 5. Bar series with 5 bars." style="outline:0" fill="#7cb5ec" stroke="#fff" transform="translate(70 47)"><path class="highcharts-point highcharts-color-0" tabindex="-1" aria-label="Jet fuel, 59 million liters. 2020." style="outline:0" d="M22.5 224.5h17v55h-17z"/><path class="highcharts-point highcharts-color-0" tabindex="-1" aria-label="Duty-free diesel, 83 million liters. 2020." style="outline:0" d="M126.5 202.5h17v77h-17z"/><path class="highcharts-point highcharts-color-0" tabindex="-1" aria-label="Petrol, 65 million liters. 2020." style="outline:0" d="M230.5 219.5h17v60h-17z"/><path class="highcharts-point highcharts-color-0" tabindex="-1" aria-label="Diesel, 228 million liters. 2020." style="outline:0" d="M334.5 67.5h17v212h-17z"/><path class="highcharts-point highcharts-color-0" tabindex="-1" aria-label="Gas oil, 184 million liters. 2020." style="outline:0" d="M438.5 108.5h17v171h-17z"/></g><g class="highcharts-series highcharts-series-1 highcharts-column-series highcharts-color-1 highcharts-tracker" data-z-index=".1" clip-path="url(#a)" aria-hidden="false" tabindex="-1" aria-label="2021, series 2 of 5. Bar series with 5 bars." style="outline:0" fill="#434348" stroke="#fff" transform="translate(70 47)"><path class="highcharts-point highcharts-color-1" tabindex="-1" aria-label="Jet fuel, 24 million liters. 2021." style="outline:0" d="M43.5 257.5h17v22h-17z"/><path class="highcharts-point highcharts-color-1" tabindex="-1" aria-label="Duty-free diesel, 79 million liters. 2021." style="outline:0" d="M147.5 206.5h17v73h-17z"/><path class="highcharts-point highcharts-color-1" tabindex="-1" aria-label="Petrol, 72 million liters. 2021." style="outline:0" d="M251.5 212.5h17v67h-17z"/><path class="highcharts-point highcharts-color-1" tabindex="-1" aria-label="Diesel, 240 million liters. 2021." style="outline:0" d="M355.5 56.5h17v223h-17z"/><path class="highcharts-point highcharts-color-1" tabindex="-1" aria-label="Gas oil, 167 million liters. 2021." style="outline:0" d="M459.5 124.5h17v155h-17z"/></g><g class="highcharts-series highcharts-series-2 highcharts-column-series highcharts-color-2 highcharts-tracker" data-z-index=".1" clip-path="url(#a)" aria-hidden="false" tabindex="-1" aria-label="2022, series 3 of 5. Bar series with 5 bars." style="outline:0" fill="#90ed7d" stroke="#fff" transform="translate(70 47)"><path class="highcharts-point highcharts-color-2" tabindex="-1" aria-label="Jet fuel, 58 million liters. 2022." style="outline:0" d="M63.5 225.5h17v54h-17z"/><path class="highcharts-point highcharts-color-2" tabindex="-1" aria-label="Duty-free diesel, 88 million liters. 2022." style="outline:0" d="M167.5 197.5h17v82h-17z"/><path class="highcharts-point highcharts-color-2" tabindex="-1" aria-label="Petrol, 75 million liters. 2022." style="outline:0" d="M271.5 209.5h17v70h-17z"/><path class="highcharts-point highcharts-color-2" tabindex="-1" aria-label="Diesel, 250 million liters. 2022." style="outline:0" d="M375.5 47.5h17v232h-17z"/><path class="highcharts-point highcharts-color-2" tabindex="-1" aria-label="Gas oil, 176 million liters. 2022." style="outline:0" d="M479.5 115.5h17v164h-17z"/></g><g class="highcharts-series highcharts-series-3 highcharts-spline-series highcharts-color-3" data-z-index=".1" clip-path="url(#a)" aria-hidden="true" fill="none" stroke-linejoin="round" stroke-linecap="round" transform="translate(70 47)"><path d="M52 235.29s62.4-33.787 104-33.787 62.4 11.783 104 11.783S322.4 56.423 364 56.423s104 59.213 104 59.213" class="highcharts-graph" data-z-index="1" stroke="#f7a35c" stroke-width="2"/><path d="M52 235.29s62.4-33.787 104-33.787 62.4 11.783 104 11.783S322.4 56.423 364 56.423s104 59.213 104 59.213" data-z-index="2" class="highcharts-tracker-line" stroke="rgba(192,192,192,0.0001)" stroke-width="22"/></g><g class="highcharts-markers highcharts-series-3 highcharts-spline-series highcharts-color-3 highcharts-tracker" data-z-index=".1" aria-hidden="false" tabindex="-1" aria-label="Average, series 4 of 5. Line with 5 data points." style="outline:0" fill="#fff" stroke="#f7a35c" stroke-width="2"><path d="M52 239a4 4 0 1 1 .004 0Z" class="highcharts-point highcharts-color-3" tabindex="-1" aria-label="Jet fuel, 47 million liters. Average." style="outline:0" transform="translate(70 47)"/><path d="M156 206a4 4 0 1 1 .004 0Z" class="highcharts-point highcharts-color-3" tabindex="-1" aria-label="Duty-free diesel, 83.33 million liters. Average." style="outline:0" transform="translate(70 47)"/><path d="M260 217a4 4 0 1 1 .004 0Z" class="highcharts-point highcharts-color-3" tabindex="-1" aria-label="Petrol, 70.66 million liters. Average." style="outline:0" transform="translate(70 47)"/><path d="M364 60a4 4 0 1 1 .004 0Z" class="highcharts-point highcharts-color-3" tabindex="-1" aria-label="Diesel, 239.33 million liters. Average." style="outline:0" transform="translate(70 47)"/><path d="M468 120a4 4 0 1 1 .004 0Z" class="highcharts-point highcharts-color-3" tabindex="-1" aria-label="Gas oil, 175.66 million liters. Average." style="outline:0" transform="translate(70 47)"/></g><g class="highcharts-series highcharts-series-4 highcharts-pie-series highcharts-tracker" data-z-index=".1" aria-hidden="false" tabindex="-1" aria-label="Total, series 5 of 5. Pie with 3 slices." style="outline:0" stroke="#fff" stroke-linejoin="round"><path fill="#7cb5ec" d="M94.99 35a50 50 0 0 1 43.2 75.19l-12.956-7.557A35 35 0 0 0 94.993 50Z" transform="translate(70 47)" class="highcharts-point highcharts-color-0" tabindex="-1" aria-label="2020, 619 million liters. Total." style="outline:0"/><path fill="#434348" d="M138.166 110.234a50 50 0 0 1-83.697 4.045l12.16-8.784a35 35 0 0 0 58.587-2.832Z" transform="translate(70 47)" class="highcharts-point highcharts-color-1" tabindex="-1" aria-label="2021, 586 million liters. Total." style="outline:0"/><path fill="#90ed7d" d="M54.44 114.238A50 50 0 0 1 94.93 35l.021 15a35 35 0 0 0-28.343 55.467Z" transform="translate(70 47)" class="highcharts-point highcharts-color-2" tabindex="-1" aria-label="2022, 647 million liters. Total." style="outline:0"/></g></g><g data-z-index="3" aria-hidden="true"><text data-z-index="1" y="12" style="color:#f7a35c;font-weight:700;fill:#f7a35c" transform="translate(485 166)" class="highcharts-label highcharts-series-label highcharts-series-label-3 highcharts-color-3">Average</text></g><text x="10" class="highcharts-title" data-z-index="4" style="color:#333;font-size:18px;fill:#333" y="24" aria-hidden="true">Sales of petroleum products March, Norway</text><g class="highcharts-data-labels highcharts-series-4 highcharts-pie-series highcharts-tracker" data-z-index="6" aria-hidden="true"><text x="5" data-z-index="1" y="19" style="color:#000;font-size:15px;font-weight:700;fill:#000" transform="translate(131 122)" class="highcharts-label highcharts-data-label highcharts-data-label-color-0"><tspan class="highcharts-text-outline" fill="#FFF" stroke="#FFF" stroke-width="2" stroke-linejoin="round">1852 M<tspan x="5" dy="0">​</tspan></tspan>1852 M</text></g><g class="highcharts-legend highcharts-no-tooltip" data-z-index="7" transform="translate(147 359)" aria-hidden="true"><rect fill="none" class="highcharts-legend-box" rx="0" ry="0" width="305" height="26"/><g data-z-index="1"><g class="highcharts-legend-item highcharts-column-series highcharts-color-0 highcharts-series-0" data-z-index="1" transform="translate(8 3)"><text x="21" data-z-index="2" y="15" style="color:#333;cursor:pointer;font-size:12px;font-weight:700;fill:#333">2020</text><rect x="2" y="4" width="12" height="12" fill="#7cb5ec" rx="6" ry="6" class="highcharts-point" data-z-index="3"/></g><g class="highcharts-legend-item highcharts-column-series highcharts-color-1 highcharts-series-1" data-z-index="1" transform="translate(80.664 3)"><text x="21" y="15" data-z-index="2" style="color:#333;cursor:pointer;font-size:12px;font-weight:700;fill:#333">2021</text><rect x="2" y="4" width="12" height="12" fill="#434348" rx="6" ry="6" class="highcharts-point" data-z-index="3"/></g><g class="highcharts-legend-item highcharts-column-series highcharts-color-2 highcharts-series-2" data-z-index="1" transform="translate(153.328 3)"><text x="21" y="15" data-z-index="2" style="color:#333;cursor:pointer;font-size:12px;font-weight:700;fill:#333">2022</text><rect x="2" y="4" width="12" height="12" fill="#90ed7d" rx="6" ry="6" class="highcharts-point" data-z-index="3"/></g><g class="highcharts-legend-item highcharts-spline-series highcharts-color-3 highcharts-series-3" data-z-index="1"><path fill="none" d="M225.992 14h16" class="highcharts-graph" stroke-width="2" stroke="#f7a35c"/><path fill="#fff" d="M233.992 18a4 4 0 1 1 .004 0Z" class="highcharts-point" stroke="#f7a35c" stroke-width="2"/><text x="21" y="15" data-z-index="2" style="color:#333;cursor:pointer;font-size:12px;font-weight:700;fill:#333" transform="translate(225.992 3)">Average</text></g></g></g><g class="highcharts-axis-labels highcharts-xaxis-labels" data-z-index="7" aria-hidden="true" text-anchor="middle"><text x="122" style="color:#666;cursor:default;font-size:11px;fill:#666" y="345">Jet fuel</text><text x="226" style="color:#666;cursor:default;font-size:11px;fill:#666" y="345">Duty-free diesel</text><text x="330" style="color:#666;cursor:default;font-size:11px;fill:#666" y="345">Petrol</text><text x="434" style="color:#666;cursor:default;font-size:11px;fill:#666" y="345">Diesel</text><text x="538" style="color:#666;cursor:default;font-size:11px;fill:#666" y="345">Gas oil</text></g><g class="highcharts-axis-labels highcharts-yaxis-labels" data-z-index="7" aria-hidden="true" text-anchor="end"><text x="55" style="color:#666;cursor:default;font-size:11px;fill:#666" y="331">0</text><text x="55" style="color:#666;cursor:default;font-size:11px;fill:#666" y="284">50</text><text x="55" style="color:#666;cursor:default;font-size:11px;fill:#666" y="238">100</text><text x="55" style="color:#666;cursor:default;font-size:11px;fill:#666" y="191">150</text><text x="55" style="color:#666;cursor:default;font-size:11px;fill:#666" y="145">200</text><text x="55" style="color:#666;cursor:default;font-size:11px;fill:#666" y="98">250</text><text x="55" style="color:#666;cursor:default;font-size:11px;fill:#666" y="52">300</text></g></svg>