<svg class="highcharts-root" style="font-family:&quot;Lucida Grande&quot;,&quot;Lucida Sans Unicode&quot;,Arial,Helvetica,sans-serif;font-size:12px" xmlns="http://www.w3.org/2000/svg" width="600" height="400" aria-label="Interactive chart" aria-hidden="false"><rect fill="#fff" class="highcharts-background" width="600" height="400" rx="0" ry="0" aria-hidden="true"/><g stroke-linejoin="round" class="highcharts-3d-frame highcharts-3d-frame-bottom" data-z-index="-1000" aria-hidden="true" fill="none"><path d="m154.018 291.543 397.231 37.582L547.903 345l-410.631-40.36Z"/><path d="m551.27 329.617-3.411 16.209.044-.826 3.346-15.875Z"/><path d="m547.859 345.826-411.287-40.502.7-.684L547.903 345Z"/></g><g stroke-linejoin="round" class="highcharts-3d-frame highcharts-3d-frame-left" data-z-index="-1000" aria-hidden="true" fill="none"><path d="m143.402 71.487.406.142-18.082 5.823-.779-.033Zm.406.142 10.21 219.914-16.746 13.097-11.546-227.188Z"/><path d="M136.572 305.324 124.947 77.419l.779.033 11.546 227.188Z"/></g><g stroke-linejoin="round" class="highcharts-3d-frame highcharts-3d-frame-back" data-z-index="-1000" aria-hidden="true" fill="none"><path d="M143.402 71.487 564.385 88.26l-.058.137L143.808 71.63Z"/><path d="M564.385 88.26 551.27 329.617l-.02-.492 13.077-240.728Z"/><path d="m143.808 71.629 420.52 16.768-13.079 240.728-397.231-37.582Z"/></g><path fill="none" class="highcharts-plot-background" aria-hidden="true" d="M86 61h504v284H86z"/><g class="highcharts-grid highcharts-xaxis-grid" data-z-index="1" aria-hidden="true" fill="none" stroke="#e6e6e6"><path data-z-index="1" class="highcharts-grid-line" d="m181.533 73.133 8.3 221.798m-15.654 13.337 15.654-13.337m31.319-220.218 6.256 223.773m-14.482 13.59 14.482-13.59m33.349-222.194 4.173 225.744m-13.287 13.846 13.287-13.846m37.024-224.101 1.966 227.79m-12.02 14.113 12.02-14.113m39.232-226.147-.284 229.832m-10.726 14.384 10.726-14.384m42.306-228.156-2.622 231.91m-9.38 14.662 9.38-14.661m46.36-230.167-5.101 234.07m-7.952 14.954 7.952-14.954m48.866-232.325-7.63 236.226m-6.493 15.25 6.493-15.25M518.248 86.56l-10.313 238.467m-4.944 15.559 4.944-15.559m56.853-236.611-13.106 240.75m-3.33 15.878 3.33-15.878M143.43 71.614l10.23 219.895m-16.758 13.095 16.757-13.095"/></g><g class="highcharts-grid highcharts-yaxis-grid" data-z-index="1" aria-hidden="true" fill="none" stroke="#e6e6e6"><path data-z-index="1" class="highcharts-grid-line" d="m154.035 291.91 397.193 37.614M137.29 305.02l16.744-13.11m-2.449-52.772L554.353 272m-419.829-21.42 17.061-11.443m-2.516-54.196 408.502 27.825M131.68 194.62l17.388-9.68m-2.584-55.678 414.402 22.48m-432.13-14.667 17.728-7.813M143.79 71.22l420.562 16.728m-438.648-10.92 18.085-5.808"/></g><path fill="none" class="highcharts-plot-border" data-z-index="1" aria-hidden="true" d="M86 61h504v284H86z"/><g class="highcharts-axis highcharts-xaxis" data-z-index="2" aria-hidden="true"><text x="332.548" data-z-index="7" text-anchor="middle" class="highcharts-axis-title" style="color:#666;fill:#666" y="355.851">Age groups</text></g><g class="highcharts-axis highcharts-yaxis" data-z-index="2" aria-hidden="true"><text x="80.219" data-z-index="7" text-anchor="middle" transform="rotate(-90 80.219 194.222)" class="highcharts-axis-title" style="color:#666;fill:#666" y="194.222">Reported cases</text></g><g class="highcharts-series-group" data-z-index="3" aria-hidden="false"><g class="highcharts-markers highcharts-series-0 highcharts-cylinder-series highcharts-tracker" data-z-index="10" aria-hidden="false" stroke-linejoin="round"><g data-z-index="12601245" stroke="#7cb5ec" class="highcharts-point highcharts-color-0" tabindex="-1" aria-label="0-9, 95,321. Cases." style="outline:0"><path fill="#639CD3" d="M170.32 303.183c-.826 1.928-6.022 3.508-11.586 3.508-5.565 0-9.325-1.58-8.4-3.508.917-1.91 6.093-3.447 11.56-3.447 5.466 0 9.246 1.537 8.427 3.447" class="highcharts-3d-bottom" data-z-index="0"/><path fill="#7cb5ec" d="M145.378 198.826c.965-1.437 6.297-2.593 11.906-2.593 5.61 0 9.47 1.156 8.608 2.593l4.429 104.357c.819-1.91-2.96-3.447-8.428-3.447-5.466 0-10.642 1.537-11.559 3.447Z" class="highcharts-3d-back" data-z-index="1"/><path fill="#7cb5ec" d="M165.892 198.826c-.871 1.451-6.224 2.64-11.937 2.64-5.713 0-9.552-1.189-8.577-2.64l4.956 104.357c-.925 1.928 2.835 3.508 8.4 3.508 5.564 0 10.76-1.58 11.587-3.508Z" class="highcharts-3d-front" data-z-index="2"/><path fill="#95CEFF" d="M165.892 198.826c-.871 1.451-6.224 2.64-11.937 2.64-5.713 0-9.552-1.189-8.577-2.64.965-1.437 6.297-2.593 11.906-2.593 5.61 0 9.47 1.156 8.608 2.593" class="highcharts-3d-top" data-z-index="3"/></g><g data-z-index="63602295" stroke="#434348" class="highcharts-point highcharts-color-1" tabindex="-1" aria-label="10-19, 169,339. Cases." style="outline:0"><path fill="#2A2A2F" d="M208.488 306.89c-.645 1.965-5.735 3.575-11.353 3.575-5.618 0-9.568-1.61-8.823-3.576.738-1.946 5.812-3.512 11.33-3.512s9.484 1.566 8.846 3.512" class="highcharts-3d-bottom" data-z-index="0"/><path fill="#434348" d="M181.065 115.773c.81-1.052 6.158-1.899 11.94-1.899 5.783 0 9.914.847 9.213 1.899l6.27 191.116c.638-1.946-3.328-3.512-8.846-3.512-5.518 0-10.592 1.566-11.33 3.512Z" class="highcharts-3d-back" data-z-index="1"/><path fill="#434348" d="M202.218 115.773c-.71 1.063-6.075 1.935-11.967 1.935-5.893 0-10.005-.872-9.186-1.935l7.247 191.116c-.745 1.966 3.205 3.576 8.823 3.576s10.708-1.61 11.353-3.576Z" class="highcharts-3d-front" data-z-index="2"/><path fill="#5C5C61" d="M202.218 115.773c-.71 1.063-6.075 1.935-11.967 1.935-5.893 0-10.005-.872-9.186-1.935.81-1.052 6.158-1.899 11.94-1.899 5.783 0 9.914.847 9.213 1.899" class="highcharts-3d-top" data-z-index="3"/></g><g data-z-index="113601615" stroke="#90ed7d" class="highcharts-point highcharts-color-2" tabindex="-1" aria-label="20-29, 121,105. Cases." style="outline:0"><path fill="#77D464" d="M246.615 310.592c-.459 2.003-5.44 3.643-11.11 3.643-5.672 0-9.816-1.64-9.255-3.643.556-1.982 5.525-3.578 11.095-3.578 5.569 0 9.725 1.596 9.27 3.578" class="highcharts-3d-bottom" data-z-index="0"/><path fill="#90ed7d" d="M222.388 174.296c.595-1.35 5.75-2.435 11.51-2.435s10.046 1.085 9.56 2.435l3.157 136.296c.455-1.982-3.701-3.578-9.27-3.578-5.57 0-10.539 1.596-11.095 3.578Z" class="highcharts-3d-back" data-z-index="1"/><path fill="#90ed7d" d="M243.457 174.296c-.492 1.363-5.66 2.48-11.529 2.48s-10.141-1.117-9.54-2.48l3.862 136.296c-.561 2.003 3.583 3.643 9.254 3.643 5.671 0 10.652-1.64 11.111-3.643Z" class="highcharts-3d-front" data-z-index="2"/><path fill="#A9FF96" d="M243.457 174.296c-.492 1.363-5.66 2.48-11.529 2.48s-10.141-1.117-9.54-2.48c.595-1.35 5.75-2.435 11.51-2.435s10.046 1.085 9.56 2.435" class="highcharts-3d-top" data-z-index="3"/></g><g data-z-index="163601825" stroke="#f7a35c" class="highcharts-point highcharts-color-3" tabindex="-1" aria-label="30-39, 136,046. Cases." style="outline:0"><path fill="#DE8A43" d="M285.465 314.365c-.267 2.04-5.134 3.713-10.859 3.713s-10.07-1.672-9.7-3.713c.368-2.02 5.228-3.646 10.85-3.646 5.62 0 9.973 1.626 9.709 3.646" class="highcharts-3d-bottom" data-z-index="0"/><path fill="#f7a35c" d="M262.032 159.417c.397-1.291 5.458-2.329 11.298-2.329s10.354 1.038 10.069 2.329l2.066 154.948c.264-2.02-4.088-3.646-9.71-3.646-5.621 0-10.481 1.626-10.848 3.646Z" class="highcharts-3d-back" data-z-index="1"/><path fill="#f7a35c" d="M283.399 159.417c-.288 1.304-5.357 2.373-11.31 2.373s-10.457-1.07-10.057-2.373l2.875 154.948c-.37 2.04 3.974 3.713 9.7 3.713 5.724 0 10.591-1.672 10.858-3.713Z" class="highcharts-3d-front" data-z-index="2"/><path fill="#FFBC75" d="M283.399 159.417c-.288 1.304-5.357 2.373-11.31 2.373s-10.457-1.07-10.057-2.373c.397-1.291 5.458-2.329 11.298-2.329s10.354 1.038 10.069 2.329" class="highcharts-3d-top" data-z-index="3"/></g><g data-z-index="214601415" stroke="#8085e9" class="highcharts-point highcharts-color-4" tabindex="-1" aria-label="40-49, 106,800. Cases." style="outline:0"><path fill="#676CD0" d="M325.857 318.288c-.063 2.08-4.808 3.786-10.59 3.786-5.781 0-10.337-1.705-10.169-3.786.167-2.06 4.91-3.717 10.586-3.717 5.675 0 10.234 1.657 10.173 3.717" class="highcharts-3d-bottom" data-z-index="0"/><path fill="#8085e9" d="M304.078 196.172c.177-1.485 5.07-2.68 10.92-2.68s10.547 1.195 10.482 2.68l.377 122.116c.061-2.06-4.498-3.717-10.173-3.717-5.676 0-10.419 1.657-10.586 3.717Z" class="highcharts-3d-back" data-z-index="1"/><path fill="#8085e9" d="M325.48 196.172c-.066 1.5-4.962 2.73-10.924 2.73-5.963 0-10.658-1.23-10.478-2.73l1.02 122.116c-.168 2.08 4.388 3.786 10.17 3.786 5.781 0 10.526-1.705 10.589-3.786Z" class="highcharts-3d-front" data-z-index="2"/><path fill="#999EFF" d="M325.48 196.172c-.066 1.5-4.962 2.73-10.924 2.73-5.963 0-10.658-1.23-10.478-2.73.177-1.485 5.07-2.68 10.92-2.68s10.547 1.195 10.482 2.68" class="highcharts-3d-top" data-z-index="3"/></g><g data-z-index="264600715" stroke="#f15c80" class="highcharts-point highcharts-color-5" tabindex="-1" aria-label="50-59, 58,041. Cases." style="outline:0"><path fill="#D84367" d="M366.229 322.209c.146 2.121-4.475 3.86-10.313 3.86-5.838 0-10.608-1.739-10.646-3.86-.037-2.1 4.585-3.789 10.315-3.789 5.73 0 10.5 1.69 10.644 3.789" class="highcharts-3d-bottom" data-z-index="0"/><path fill="#f15c80" d="M345.391 256.686c-.038-1.793 4.66-3.236 10.485-3.236 5.824 0 10.674 1.443 10.823 3.236l-.47 65.523c-.145-2.1-4.913-3.789-10.644-3.789-5.73 0-10.352 1.69-10.315 3.789Z" class="highcharts-3d-back" data-z-index="1"/><path fill="#f15c80" d="M366.7 256.686c.15 1.812-4.546 3.298-10.482 3.298-5.936 0-10.788-1.486-10.827-3.298l-.121 65.523c.038 2.121 4.808 3.86 10.646 3.86 5.838 0 10.459-1.739 10.313-3.86Z" class="highcharts-3d-front" data-z-index="2"/><path fill="#FF7599" d="M366.7 256.686c.15 1.812-4.546 3.298-10.482 3.298-5.936 0-10.788-1.486-10.827-3.298-.038-1.793 4.66-3.236 10.485-3.236 5.824 0 10.674 1.443 10.823 3.236" class="highcharts-3d-top" data-z-index="3"/></g><g data-z-index="315600275" stroke="#e4d354" class="highcharts-point highcharts-color-6" tabindex="-1" aria-label="60-69, 26,766. Cases." style="outline:0"><path fill="#CBBA3B" d="M408.22 326.287c.366 2.163-4.12 3.937-10.017 3.937-5.897 0-10.895-1.774-11.151-3.937-.254-2.142 4.24-3.864 10.027-3.864 5.787 0 10.777 1.722 11.14 3.864" class="highcharts-3d-bottom" data-z-index="0"/><path fill="#e4d354" d="M387.431 295.922c-.257-2 4.27-3.608 10.1-3.608 5.832 0 10.862 1.608 11.231 3.608l-.543 30.365c-.363-2.142-5.353-3.864-11.14-3.864-5.786 0-10.28 1.722-10.027 3.864Z" class="highcharts-3d-back" data-z-index="1"/><path fill="#e4d354" d="M408.762 295.922c.373 2.02-4.147 3.677-10.09 3.677-5.942 0-10.98-1.657-11.24-3.677l-.38 30.365c.256 2.163 5.254 3.937 11.15 3.937 5.897 0 10.384-1.774 10.017-3.937Z" class="highcharts-3d-front" data-z-index="2"/><path fill="#FDEC6D" d="M408.762 295.922c.373 2.02-4.147 3.677-10.09 3.677-5.942 0-10.98-1.657-11.24-3.677-.258-2 4.269-3.608 10.1-3.608 5.83 0 10.861 1.608 11.23 3.608" class="highcharts-3d-top" data-z-index="3"/></g><g data-z-index="365600095" stroke="#2b908f" class="highcharts-point highcharts-color-7" tabindex="-1" aria-label="70-79, 14,291. Cases." style="outline:0"><path fill="#127776" d="M450.205 330.364c.592 2.207-3.758 4.016-9.713 4.016-5.955 0-11.183-1.809-11.663-4.016-.474-2.183 3.889-3.94 9.732-3.94s11.058 1.757 11.644 3.94" class="highcharts-3d-bottom" data-z-index="0"/><path fill="#2b908f" d="M429.201 314.3c-.478-2.108 3.901-3.804 9.768-3.804 5.866 0 11.105 1.696 11.695 3.804l-.459 16.064c-.586-2.183-5.801-3.94-11.644-3.94s-10.206 1.757-9.732 3.94Z" class="highcharts-3d-back" data-z-index="1"/><path fill="#2b908f" d="M450.664 314.3c.597 2.13-3.769 3.878-9.748 3.878-5.98 0-11.232-1.747-11.715-3.878l-.372 16.064c.48 2.207 5.708 4.016 11.663 4.016s10.305-1.809 9.713-4.016Z" class="highcharts-3d-front" data-z-index="2"/><path fill="#44A9A8" d="M450.664 314.3c.597 2.13-3.769 3.878-9.748 3.878-5.98 0-11.232-1.747-11.715-3.878-.478-2.108 3.901-3.804 9.768-3.804 5.866 0 11.105 1.696 11.695 3.804" class="highcharts-3d-top" data-z-index="3"/></g><g data-z-index="415599995" stroke="#f45b5b" class="highcharts-point highcharts-color-8" tabindex="-1" aria-label="80-89, 7,065. Cases." style="outline:0"><path fill="#DB4242" d="M493.026 334.523c.826 2.25-3.38 4.096-9.396 4.096-6.015 0-11.481-1.845-12.192-4.096-.704-2.227 3.521-4.018 9.422-4.018 5.9 0 11.348 1.79 12.166 4.018" class="highcharts-3d-bottom" data-z-index="0"/><path fill="#f45b5b" d="M471.713 326.436c-.707-2.189 3.526-3.95 9.439-3.95 5.912 0 11.373 1.761 12.194 3.95l-.32 8.087c-.818-2.227-6.266-4.018-12.166-4.018s-10.126 1.79-9.422 4.018Z" class="highcharts-3d-back" data-z-index="1"/><path fill="#f45b5b" d="M493.346 326.436c.83 2.212-3.385 4.026-9.412 4.026-6.028 0-11.507-1.814-12.221-4.026l-.275 8.087c.71 2.25 6.177 4.096 12.192 4.096 6.015 0 10.222-1.845 9.396-4.096Z" class="highcharts-3d-front" data-z-index="2"/><path fill="#FF7474" d="M493.346 326.436c.83 2.212-3.385 4.026-9.412 4.026-6.028 0-11.507-1.814-12.221-4.026-.707-2.189 3.526-3.95 9.439-3.95 5.912 0 11.373 1.761 12.194 3.95" class="highcharts-3d-top" data-z-index="3"/></g><g data-z-index="466599945" stroke="#91e8e1" class="highcharts-point highcharts-color-9" tabindex="-1" aria-label="90+, 3,283. Cases." style="outline:0"><path fill="#78CFC8" d="M537.59 338.85c1.074 2.298-2.98 4.182-9.057 4.182s-11.796-1.884-12.753-4.181c-.947-2.273 3.131-4.1 9.091-4.1 5.96 0 11.655 1.827 12.718 4.1" class="highcharts-3d-bottom" data-z-index="0"/><path fill="#91e8e1" d="M515.965 334.775c-.949-2.254 3.132-4.066 9.1-4.066 5.966 0 11.667 1.812 12.732 4.066l-.208 4.076c-1.063-2.273-6.757-4.1-12.718-4.1-5.96 0-10.038 1.827-9.091 4.1Z" class="highcharts-3d-back" data-z-index="1"/><path fill="#91e8e1" d="M537.797 334.775c1.077 2.278-2.98 4.145-9.063 4.145-6.084 0-11.81-1.867-12.769-4.145l-.185 4.076c.957 2.297 6.676 4.18 12.753 4.18 6.078 0 10.13-1.883 9.056-4.18Z" class="highcharts-3d-front" data-z-index="2"/><path fill="#AAFFFA" d="M537.797 334.775c1.077 2.278-2.98 4.145-9.063 4.145-6.084 0-11.81-1.867-12.769-4.145-.949-2.254 3.132-4.066 9.1-4.066 5.966 0 11.667 1.812 12.732 4.066" class="highcharts-3d-top" data-z-index="3"/></g></g></g><text x="300" text-anchor="middle" class="highcharts-title" data-z-index="4" style="color:#333;font-size:18px;fill:#333" y="24" aria-hidden="true">Number of confirmed COVID-19</text><text x="300" text-anchor="middle" class="highcharts-subtitle" data-z-index="4" style="color:#666;fill:#666" y="46" aria-hidden="true">Source: <a target="_blank"><tspan>FHI</tspan></a></text><g class="highcharts-axis-labels highcharts-xaxis-labels" data-z-index="7" aria-hidden="true" text-anchor="middle"><text x="155.976" style="color:#666;cursor:default;font-size:11px;fill:#666" y="321.813">0-9</text><text x="193.916" style="color:#666;cursor:default;font-size:11px;fill:#666" y="325.687">10-19</text><text x="232.58" style="color:#666;cursor:default;font-size:11px;fill:#666" y="329.635">20-29</text><text x="271.989" style="color:#666;cursor:default;font-size:11px;fill:#666" y="333.659">30-39</text><text x="312.165" style="color:#666;cursor:default;font-size:11px;fill:#666" y="337.761">40-49</text><text x="353.131" style="color:#666;cursor:default;font-size:11px;fill:#666" y="341.944">50-59</text><text x="394.91" style="color:#666;cursor:default;font-size:11px;fill:#666" y="346.21">60-69</text><text x="437.527" style="color:#666;cursor:default;font-size:11px;fill:#666" y="350.561">70-79</text><text x="481.007" style="color:#666;cursor:default;font-size:11px;fill:#666" y="355.001">80-89</text><text x="525.376" style="color:#666;cursor:default;font-size:11px;fill:#666" y="359.532">90+</text></g><g class="highcharts-axis-labels highcharts-yaxis-labels" data-z-index="7" aria-hidden="true" text-anchor="end"><text x="125.426" style="color:#666;cursor:default;font-size:11px;fill:#666" y="308.419">0</text><text x="122.498" style="color:#666;cursor:default;font-size:11px;fill:#666" y="254.076">50k</text><text x="119.489" style="color:#666;cursor:default;font-size:11px;fill:#666" y="198.214">100k</text><text x="116.395" style="color:#666;cursor:default;font-size:11px;fill:#666" y="140.771">150k</text><text x="113.211" style="color:#666;cursor:default;font-size:11px;fill:#666" y="81.677">200k</text></g></svg>