<svg class="highcharts-root" style="font-family:&quot;Lucida Grande&quot;,&quot;Lucida Sans Unicode&quot;,Arial,Helvetica,sans-serif;font-size:12px" xmlns="http://www.w3.org/2000/svg" width="600" height="400" aria-label="Interactive chart" aria-hidden="false"><defs aria-hidden="true"><clipPath id="a"><path fill="none" d="M0 0h517v317H0z"/></clipPath></defs><rect fill="#fff" class="highcharts-background" width="600" height="400" rx="0" ry="0" aria-hidden="true"/><path fill="none" class="highcharts-plot-background" aria-hidden="true" d="M73 47h517v317H73z"/><g class="highcharts-plot-lines-0" data-z-index="0" aria-hidden="true"><path fill="none" class="highcharts-plot-line" stroke="gray" d="M73 364.5h517"/></g><g class="highcharts-grid highcharts-xaxis-grid" data-z-index="1" aria-hidden="true" fill="none"><path data-z-index="1" class="highcharts-grid-line" d="M94.5 47v317m128-317v317m127-317v317m128-317v317"/></g><g class="highcharts-grid highcharts-yaxis-grid" data-z-index="1" aria-hidden="true" fill="none" stroke="#e6e6e6"><path data-z-index="1" class="highcharts-grid-line" d="M73 364.5h517m-517-63h517m-517-64h517m-517-63h517m-517-64h517m-517-64h517"/></g><path fill="none" class="highcharts-plot-border" data-z-index="1" aria-hidden="true" d="M73 47h517v317H73z"/><g class="highcharts-axis highcharts-xaxis" data-z-index="2" aria-hidden="true" fill="none" stroke="#ccd6eb"><path class="highcharts-tick" d="M94.5 364v10m128-10v10m127-10v10m128-10v10"/><path class="highcharts-axis-line" data-z-index="7" d="M73 364.5h517"/></g><g class="highcharts-axis highcharts-yaxis" data-z-index="2" aria-hidden="true"><text x="23.648" data-z-index="7" text-anchor="middle" transform="rotate(-90 23.648 205.5)" class="highcharts-axis-title" style="color:#666;fill:#666" y="205.5">Value</text><path fill="none" class="highcharts-axis-line" data-z-index="7" d="M73 47v317"/></g><g class="highcharts-series-group" data-z-index="3" aria-hidden="false"><g class="highcharts-series highcharts-series-0 highcharts-spline-series highcharts-color-0" data-z-index=".1" clip-path="url(#a)" aria-hidden="true" fill="none" stroke-linejoin="round" stroke-linecap="round" transform="translate(73 47)"><path d="M5.069 309.826s15.32 0 25.533-36.488c10.213-36.488 15.32-163.892 25.533-163.892 10.214 0 15.32 164.572 25.534 164.572 10.213 0 15.32-76.532 25.533-76.532 10.213 0 15.32 8.975 25.533 8.975 10.214 0 15.32-104.781 25.534-104.781 10.213 0 15.32 195.84 25.533 195.84 10.213 0 15.32-226.657 25.534-226.657 10.213 0 15.32 133.31 25.533 133.31 10.213 0 15.32-25.312 25.533-25.312 10.214 0 15.32 58.505 25.534 58.505 10.213 0 15.32-136.057 25.533-136.057 10.213 0 15.32 69.166 25.533 93.217 10.214 24.05 15.32 27.033 25.534 27.033 10.213 0 15.32-98.529 25.533-98.529 10.213 0 15.32 0 25.533 9.2 18.895 9.198 28.342 143.797 47.237 143.797 10.213 0 15.32-63.965 25.533-64.092 10.224-.126 25.56-.126 25.56-.126" class="highcharts-graph" data-z-index="1" stroke="#7cb5ec" stroke-width="2"/><path d="M5.069 309.826s15.32 0 25.533-36.488c10.213-36.488 15.32-163.892 25.533-163.892 10.214 0 15.32 164.572 25.534 164.572 10.213 0 15.32-76.532 25.533-76.532 10.213 0 15.32 8.975 25.533 8.975 10.214 0 15.32-104.781 25.534-104.781 10.213 0 15.32 195.84 25.533 195.84 10.213 0 15.32-226.657 25.534-226.657 10.213 0 15.32 133.31 25.533 133.31 10.213 0 15.32-25.312 25.533-25.312 10.214 0 15.32 58.505 25.534 58.505 10.213 0 15.32-136.057 25.533-136.057 10.213 0 15.32 69.166 25.533 93.217 10.214 24.05 15.32 27.033 25.534 27.033 10.213 0 15.32-98.529 25.533-98.529 10.213 0 15.32 0 25.533 9.2 18.895 9.198 28.342 143.797 47.237 143.797 10.213 0 15.32-63.965 25.533-64.092 10.224-.126 25.56-.126 25.56-.126" data-z-index="2" class="highcharts-tracker-line" stroke="rgba(192,192,192,0.0001)" stroke-width="22"/></g><g class="highcharts-markers highcharts-series-0 highcharts-spline-series highcharts-color-0 highcharts-tracker" data-z-index=".1" aria-hidden="false" fill="#7cb5ec"><path d="M5 313.826a4 4 0 1 1 .004 0Z" class="highcharts-point highcharts-color-0" tabindex="-1" aria-label="Monday, Oct 31, 13:44:59.337, 0.028289955279532375. Random data." style="outline:0" transform="translate(73 47)"/><path d="M30 277.338a4 4 0 1 1 .004 0Z" class="highcharts-point highcharts-color-0" tabindex="-1" aria-label="Monday, Oct 31, 13:45:00.337, 0.1721688557009391. Random data." style="outline:0" transform="translate(73 47)"/><path d="M56 113.446a4 4 0 1 1 .004 0Z" class="highcharts-point highcharts-color-0" tabindex="-1" aria-label="Monday, Oct 31, 13:45:01.337, 0.8184313749259415. Random data." style="outline:0" transform="translate(73 47)"/><path d="M81 278.018a4 4 0 1 1 .004 0Z" class="highcharts-point highcharts-color-0" tabindex="-1" aria-label="Monday, Oct 31, 13:45:02.337, 0.16948614593453248. Random data." style="outline:0" transform="translate(73 47)"/><path d="M107 201.486a4 4 0 1 1 .004 0Z" class="highcharts-point highcharts-color-0" tabindex="-1" aria-label="Monday, Oct 31, 13:45:03.337, 0.47126799927126317. Random data." style="outline:0" transform="translate(73 47)"/><path d="M132 210.461a4 4 0 1 1 .004 0Z" class="highcharts-point highcharts-color-0" tabindex="-1" aria-label="Monday, Oct 31, 13:45:04.337, 0.43587758966158074. Random data." style="outline:0" transform="translate(73 47)"/><path d="M158 105.68a4 4 0 1 1 .004 0Z" class="highcharts-point highcharts-color-0" tabindex="-1" aria-label="Monday, Oct 31, 13:45:05.337, 0.8490547902966155. Random data." style="outline:0" transform="translate(73 47)"/><path d="M183 301.52a4 4 0 1 1 .004 0Z" class="highcharts-point highcharts-color-0" tabindex="-1" aria-label="Monday, Oct 31, 13:45:06.337, 0.07681258274475034. Random data." style="outline:0" transform="translate(73 47)"/><path d="M209 74.863a4 4 0 1 1 .004 0Z" class="highcharts-point highcharts-color-0" tabindex="-1" aria-label="Monday, Oct 31, 13:45:07.337, 0.9705735680285967. Random data." style="outline:0" transform="translate(73 47)"/><path d="M234 208.174a4 4 0 1 1 .004 0Z" class="highcharts-point highcharts-color-0" tabindex="-1" aria-label="Monday, Oct 31, 13:45:08.337, 0.4448979619098721. Random data." style="outline:0" transform="translate(73 47)"/><path d="M260 182.86a4 4 0 1 1 .004 0Z" class="highcharts-point highcharts-color-0" tabindex="-1" aria-label="Monday, Oct 31, 13:45:09.337, 0.5447126640380695. Random data." style="outline:0" transform="translate(73 47)"/><path d="M285 241.366a4 4 0 1 1 .004 0Z" class="highcharts-point highcharts-color-0" tabindex="-1" aria-label="Monday, Oct 31, 13:45:10.337, 0.3140141567961978. Random data." style="outline:0" transform="translate(73 47)"/><path d="M311 105.309a4 4 0 1 1 .004 0Z" class="highcharts-point highcharts-color-0" tabindex="-1" aria-label="Monday, Oct 31, 13:45:11.337, 0.8505177510279849. Random data." style="outline:0" transform="translate(73 47)"/><path d="M337 198.526a4 4 0 1 1 .004 0Z" class="highcharts-point highcharts-color-0" tabindex="-1" aria-label="Monday, Oct 31, 13:45:12.337, 0.48294317092744454. Random data." style="outline:0" transform="translate(73 47)"/><path d="M362 225.56a4 4 0 1 1 .004 0Z" class="highcharts-point highcharts-color-0" tabindex="-1" aria-label="Monday, Oct 31, 13:45:13.337, 0.3763429831050433. Random data." style="outline:0" transform="translate(73 47)"/><path d="M388 127.03a4 4 0 1 1 .004 0Z" class="highcharts-point highcharts-color-0" tabindex="-1" aria-label="Monday, Oct 31, 13:45:14.337, 0.7648646646194677. Random data." style="outline:0" transform="translate(73 47)"/><path d="M413 136.23a4 4 0 1 1 .004 0Z" class="highcharts-point highcharts-color-0" tabindex="-1" aria-label="Monday, Oct 31, 13:45:15.337, 0.7285909769462504. Random data." style="outline:0" transform="translate(73 47)"/><path d="M460 280.027a4 4 0 1 1 .004 0Z" class="highcharts-point highcharts-color-0" tabindex="-1" aria-label="Monday, Oct 31, 13:45:17.187, 0.16156379137619337. Random data." style="outline:0" transform="translate(73 47)"/><path d="M486 215.935a4 4 0 1 1 .004 0Z" class="highcharts-point highcharts-color-0" tabindex="-1" aria-label="Monday, Oct 31, 13:45:18.187, 0.41429221343340217. Random data." style="outline:0" transform="translate(73 47)"/><path d="M511 216a4 4 0 1 1 .004 0Z" class="highcharts-point highcharts-color-0" tabindex="-1" aria-label="Monday, Oct 31, 13:45:19.188, 0.41479255700831663. Random data." style="outline:0" transform="translate(73 47)"/></g></g><text x="300" text-anchor="middle" class="highcharts-title" data-z-index="4" style="color:#333;font-size:18px;fill:#333" y="24" aria-hidden="true">Live random data</text><g class="highcharts-axis-labels highcharts-xaxis-labels" data-z-index="7" aria-hidden="true" text-anchor="middle"><text x="94.997" style="color:#666;cursor:default;font-size:11px;fill:#666" y="383">13:45:00</text><text x="222.664" style="color:#666;cursor:default;font-size:11px;fill:#666" y="383">13:45:05</text><text x="350.331" style="color:#666;cursor:default;font-size:11px;fill:#666" y="383">13:45:10</text><text x="477.998" style="color:#666;cursor:default;font-size:11px;fill:#666" y="383">13:45:15</text></g><g class="highcharts-axis-labels highcharts-yaxis-labels" data-z-index="7" aria-hidden="true" text-anchor="end"><text x="58" style="color:#666;cursor:default;font-size:11px;fill:#666" y="369">0</text><text x="58" style="color:#666;cursor:default;font-size:11px;fill:#666" y="305">0.25</text><text x="58" style="color:#666;cursor:default;font-size:11px;fill:#666" y="242">0.5</text><text x="58" style="color:#666;cursor:default;font-size:11px;fill:#666" y="178">0.75</text><text x="58" style="color:#666;cursor:default;font-size:11px;fill:#666" y="115">1</text><text x="58" style="color:#666;cursor:default;font-size:11px;fill:#666" y="52">1.25</text></g></svg>