<svg class="highcharts-root" style="font-family:&quot;Lucida Grande&quot;,&quot;Lucida Sans Unicode&quot;,Arial,Helvetica,sans-serif;font-size:12px" xmlns="http://www.w3.org/2000/svg" width="600" height="400" aria-label="Interactive chart" aria-hidden="false"><defs aria-hidden="true"><clipPath id="a"><path fill="none" d="M0 0h471v217H0z"/></clipPath></defs><rect fill="#fff" class="highcharts-background" width="600" height="400" rx="0" ry="0" aria-hidden="true"/><path fill="none" class="highcharts-plot-background" aria-hidden="true" d="M66 90h471v217H66z"/><g class="highcharts-grid highcharts-xaxis-grid" data-z-index="1" aria-hidden="true" fill="none"><path data-z-index="1" class="highcharts-grid-line" d="M70.5 90v217m77-217v217m78-217v217m77-217v217m78-217v217m77-217v217m77-217v217"/></g><g class="highcharts-grid highcharts-xaxis-grid" data-z-index="1" aria-hidden="true" fill="none"><path data-z-index="1" class="highcharts-grid-line" d="M69.5 90v217m97-217v217m96-217v217m96-217v217m97-217v217"/></g><g class="highcharts-grid highcharts-yaxis-grid" data-z-index="1" aria-hidden="true" fill="none" stroke="#e6e6e6"><path data-z-index="1" class="highcharts-grid-line" d="M66 307.5h471m-471-54h471m-471-54h471m-471-55h471m-471-55h471"/></g><g class="highcharts-grid highcharts-yaxis-grid" data-z-index="1" aria-hidden="true" fill="none" stroke="#e6e6e6"><path data-z-index="1" class="highcharts-grid-line" d="M66 307.5h471m-471-54h471m-471-54h471m-471-55h471m-471-55h471"/></g><path fill="none" class="highcharts-plot-border" data-z-index="1" aria-hidden="true" d="M66 90h471v217H66z"/><g class="highcharts-axis highcharts-xaxis" data-z-index="2" aria-hidden="true"><path fill="none" class="highcharts-tick" stroke="#ccd6eb" d="M70.5 307v10m77-10v10m78-10v10m77-10v10m78-10v10m77-10v10m77-10v10"/><text x="301.5" data-z-index="7" text-anchor="middle" class="highcharts-axis-title" style="color:#666;fill:#666" y="345">Data</text><path fill="none" class="highcharts-axis-line" stroke="#ccd6eb" data-z-index="7" d="M66 307.5h471"/></g><g class="highcharts-axis highcharts-xaxis" data-z-index="2" aria-hidden="true"><path fill="none" class="highcharts-tick" stroke="#ccd6eb" d="M69.5 90V80m97 10V80m96 10V80m96 10V80m97 10V80"/><text x="301.5" data-z-index="7" text-anchor="middle" class="highcharts-axis-title" style="color:#666;fill:#666" y="61">Histogram</text><path fill="none" class="highcharts-axis-line" stroke="#ccd6eb" data-z-index="7" d="M66 89.5h471"/></g><g class="highcharts-axis highcharts-yaxis" data-z-index="2" aria-hidden="true"><text x="23.602" data-z-index="7" text-anchor="middle" transform="rotate(-90 23.602 198.5)" class="highcharts-axis-title" style="color:#666;fill:#666" y="198.5">Data</text><path fill="none" class="highcharts-axis-line" data-z-index="7" d="M66 90v217"/></g><g class="highcharts-axis highcharts-yaxis" data-z-index="2" aria-hidden="true"><text x="575.914" data-z-index="7" text-anchor="middle" transform="rotate(90 575.914 198.5)" class="highcharts-axis-title" style="color:#666;fill:#666" y="198.5">Histogram</text><path fill="none" class="highcharts-axis-line" data-z-index="7" d="M537 90v217"/></g><g class="highcharts-series-group" data-z-index="3" aria-hidden="false"><g class="highcharts-series highcharts-series-0 highcharts-histogram-series highcharts-color-0 highcharts-tracker" data-z-index="-1" clip-path="url(#a)" aria-hidden="false" tabindex="-1" aria-label="Histogram, series 1 of 2 with 13 data points. Y axis, Histogram. X axis, Histogram." style="outline:0" fill="#7cb5ec" stroke="#fff" transform="translate(66 90)"><path class="highcharts-point highcharts-color-0" tabindex="-1" aria-label="1. 2.000 to 2.185, 1. Histogram." style="outline:0" d="M3.5 212.5h36v5h-36z"/><path class="highcharts-point highcharts-color-0" tabindex="-1" aria-label="2. 2.185 to 2.369, 7. Histogram." style="outline:0" d="M39.5 179.5h35v38h-35z"/><path class="highcharts-point highcharts-color-0" tabindex="-1" aria-label="3. 2.369 to 2.554, 11. Histogram." style="outline:0" d="M74.5 157.5h36v60h-36z"/><path class="highcharts-point highcharts-color-0" tabindex="-1" aria-label="4. 2.554 to 2.738, 14. Histogram." style="outline:0" d="M110.5 141.5h36v76h-36z"/><path class="highcharts-point highcharts-color-0" tabindex="-1" aria-label="5. 2.738 to 2.923, 24. Histogram." style="outline:0" d="M146.5 87.5h35v130h-35z"/><path class="highcharts-point highcharts-color-0" tabindex="-1" aria-label="6. 2.923 to 3.108, 37. Histogram." style="outline:0" d="M181.5 16.5h36v201h-36z"/><path class="highcharts-point highcharts-color-0" tabindex="-1" aria-label="7. 3.108 to 3.292, 13. Histogram." style="outline:0" d="M217.5 146.5h35v71h-35z"/><path class="highcharts-point highcharts-color-0" tabindex="-1" aria-label="8. 3.292 to 3.477, 18. Histogram." style="outline:0" d="M252.5 119.5h36v98h-36z"/><path class="highcharts-point highcharts-color-0" tabindex="-1" aria-label="9. 3.477 to 3.662, 10. Histogram." style="outline:0" d="M288.5 163.5h35v54h-35z"/><path class="highcharts-point highcharts-color-0" tabindex="-1" aria-label="10. 3.662 to 3.846, 9. Histogram." style="outline:0" d="M323.5 168.5h36v49h-36z"/><path class="highcharts-point highcharts-color-0" tabindex="-1" aria-label="11. 3.846 to 4.031, 3. Histogram." style="outline:0" d="M359.5 201.5h36v16h-36z"/><path class="highcharts-point highcharts-color-0" tabindex="-1" aria-label="12. 4.031 to 4.215, 2. Histogram." style="outline:0" d="M395.5 206.5h35v11h-35z"/><path class="highcharts-point highcharts-color-0" tabindex="-1" aria-label="13. 4.215 to 4.400, 1. Histogram." style="outline:0" d="M430.5 212.5h36v5h-36z"/></g><g class="highcharts-markers highcharts-series-1 highcharts-scatter-series highcharts-color-1 highcharts-tracker" data-z-index=".1" aria-hidden="false" tabindex="-1" aria-label="Data, series 2 of 2, scatter plot with 150 points. Y axis, Data. X axis, Data." style="outline:0" fill="#434348"><path d="M4.5 89.656a1.5 1.5 0 1 1 .001 0Z" class="highcharts-point highcharts-color-1" tabindex="-1" aria-label="x, 0, 3.5. Data." style="outline:0" transform="translate(66 90)"/><path d="M7.5 123.563a1.5 1.5 0 1 1 .001 0Z" class="highcharts-point highcharts-color-1" tabindex="-1" aria-label="x, 1, 3. Data." style="outline:0" transform="translate(66 90)"/><path d="M10.5 110a1.5 1.5 0 1 1 .001 0Z" class="highcharts-point highcharts-color-1" tabindex="-1" aria-label="x, 2, 3.2. Data." style="outline:0" transform="translate(66 90)"/><path d="M13.5 116.781a1.5 1.5 0 1 1 .001 0Z" class="highcharts-point highcharts-color-1" tabindex="-1" aria-label="x, 3, 3.1. Data." style="outline:0" transform="translate(66 90)"/><path d="M16.5 82.875a1.5 1.5 0 1 1 .001 0Z" class="highcharts-point highcharts-color-1" tabindex="-1" aria-label="x, 4, 3.6. Data." style="outline:0" transform="translate(66 90)"/><path d="M19.5 62.531a1.5 1.5 0 1 1 .001 0Z" class="highcharts-point highcharts-color-1" tabindex="-1" aria-label="x, 5, 3.9. Data." style="outline:0" transform="translate(66 90)"/><path d="M22.5 96.438a1.5 1.5 0 1 1 .001 0Z" class="highcharts-point highcharts-color-1" tabindex="-1" aria-label="x, 6, 3.4. Data." style="outline:0" transform="translate(66 90)"/><path d="M25.5 96.438a1.5 1.5 0 1 1 .001 0Z" class="highcharts-point highcharts-color-1" tabindex="-1" aria-label="x, 7, 3.4. Data." style="outline:0" transform="translate(66 90)"/><path d="M28.5 130.344a1.5 1.5 0 1 1 .001 0Z" class="highcharts-point highcharts-color-1" tabindex="-1" aria-label="x, 8, 2.9. Data." style="outline:0" transform="translate(66 90)"/><path d="M32.5 116.781a1.5 1.5 0 1 1 .001 0Z" class="highcharts-point highcharts-color-1" tabindex="-1" aria-label="x, 9, 3.1. Data." style="outline:0" transform="translate(66 90)"/><path d="M35.5 76.094a1.5 1.5 0 1 1 .001 0Z" class="highcharts-point highcharts-color-1" tabindex="-1" aria-label="x, 10, 3.7. Data." style="outline:0" transform="translate(66 90)"/><path d="M38.5 96.438a1.5 1.5 0 1 1 .001 0Z" class="highcharts-point highcharts-color-1" tabindex="-1" aria-label="x, 11, 3.4. Data." style="outline:0" transform="translate(66 90)"/><path d="M41.5 123.563a1.5 1.5 0 1 1 .001 0Z" class="highcharts-point highcharts-color-1" tabindex="-1" aria-label="x, 12, 3. Data." style="outline:0" transform="translate(66 90)"/><path d="M44.5 123.563a1.5 1.5 0 1 1 .001 0Z" class="highcharts-point highcharts-color-1" tabindex="-1" aria-label="x, 13, 3. Data." style="outline:0" transform="translate(66 90)"/><path d="M47.5 55.75a1.5 1.5 0 1 1 .001 0Z" class="highcharts-point highcharts-color-1" tabindex="-1" aria-label="x, 14, 4. Data." style="outline:0" transform="translate(66 90)"/><path d="M50.5 28.625a1.5 1.5 0 1 1 .001 0Z" class="highcharts-point highcharts-color-1" tabindex="-1" aria-label="x, 15, 4.4. Data." style="outline:0" transform="translate(66 90)"/><path d="M53.5 62.531a1.5 1.5 0 1 1 .001 0Z" class="highcharts-point highcharts-color-1" tabindex="-1" aria-label="x, 16, 3.9. Data." style="outline:0" transform="translate(66 90)"/><path d="M56.5 89.656a1.5 1.5 0 1 1 .001 0Z" class="highcharts-point highcharts-color-1" tabindex="-1" aria-label="x, 17, 3.5. Data." style="outline:0" transform="translate(66 90)"/><path d="M59.5 69.313a1.5 1.5 0 1 1 .001 0Z" class="highcharts-point highcharts-color-1" tabindex="-1" aria-label="x, 18, 3.8. Data." style="outline:0" transform="translate(66 90)"/><path d="M63.5 69.313a1.5 1.5 0 1 1 .001 0Z" class="highcharts-point highcharts-color-1" tabindex="-1" aria-label="x, 19, 3.8. Data." style="outline:0" transform="translate(66 90)"/><path d="M66.5 96.438a1.5 1.5 0 1 1 .001 0Z" class="highcharts-point highcharts-color-1" tabindex="-1" aria-label="x, 20, 3.4. Data." style="outline:0" transform="translate(66 90)"/><path d="M69.5 76.094a1.5 1.5 0 1 1 .001 0Z" class="highcharts-point highcharts-color-1" tabindex="-1" aria-label="x, 21, 3.7. Data." style="outline:0" transform="translate(66 90)"/><path d="M72.5 82.875a1.5 1.5 0 1 1 .001 0Z" class="highcharts-point highcharts-color-1" tabindex="-1" aria-label="x, 22, 3.6. Data." style="outline:0" transform="translate(66 90)"/><path d="M75.5 103.219a1.5 1.5 0 1 1 .001 0Z" class="highcharts-point highcharts-color-1" tabindex="-1" aria-label="x, 23, 3.3. Data." style="outline:0" transform="translate(66 90)"/><path d="M78.5 96.438a1.5 1.5 0 1 1 .001 0Z" class="highcharts-point highcharts-color-1" tabindex="-1" aria-label="x, 24, 3.4. Data." style="outline:0" transform="translate(66 90)"/><path d="M81.5 123.563a1.5 1.5 0 1 1 .001 0Z" class="highcharts-point highcharts-color-1" tabindex="-1" aria-label="x, 25, 3. Data." style="outline:0" transform="translate(66 90)"/><path d="M84.5 96.438a1.5 1.5 0 1 1 .001 0Z" class="highcharts-point highcharts-color-1" tabindex="-1" aria-label="x, 26, 3.4. Data." style="outline:0" transform="translate(66 90)"/><path d="M87.5 89.656a1.5 1.5 0 1 1 .001 0Z" class="highcharts-point highcharts-color-1" tabindex="-1" aria-label="x, 27, 3.5. Data." style="outline:0" transform="translate(66 90)"/><path d="M90.5 96.438a1.5 1.5 0 1 1 .001 0Z" class="highcharts-point highcharts-color-1" tabindex="-1" aria-label="x, 28, 3.4. Data." style="outline:0" transform="translate(66 90)"/><path d="M93.5 110a1.5 1.5 0 1 1 .001 0Z" class="highcharts-point highcharts-color-1" tabindex="-1" aria-label="x, 29, 3.2. Data." style="outline:0" transform="translate(66 90)"/><path d="M97.5 116.781a1.5 1.5 0 1 1 .001 0Z" class="highcharts-point highcharts-color-1" tabindex="-1" aria-label="x, 30, 3.1. Data." style="outline:0" transform="translate(66 90)"/><path d="M100.5 96.438a1.5 1.5 0 1 1 .001 0Z" class="highcharts-point highcharts-color-1" tabindex="-1" aria-label="x, 31, 3.4. Data." style="outline:0" transform="translate(66 90)"/><path d="M103.5 48.969a1.5 1.5 0 1 1 .001 0Z" class="highcharts-point highcharts-color-1" tabindex="-1" aria-label="x, 32, 4.1. Data." style="outline:0" transform="translate(66 90)"/><path d="M106.5 42.188a1.5 1.5 0 1 1 .001 0Z" class="highcharts-point highcharts-color-1" tabindex="-1" aria-label="x, 33, 4.2. Data." style="outline:0" transform="translate(66 90)"/><path d="M109.5 116.781a1.5 1.5 0 1 1 .001 0Z" class="highcharts-point highcharts-color-1" tabindex="-1" aria-label="x, 34, 3.1. Data." style="outline:0" transform="translate(66 90)"/><path d="M112.5 110a1.5 1.5 0 1 1 .001 0Z" class="highcharts-point highcharts-color-1" tabindex="-1" aria-label="x, 35, 3.2. Data." style="outline:0" transform="translate(66 90)"/><path d="M115.5 89.656a1.5 1.5 0 1 1 .001 0Z" class="highcharts-point highcharts-color-1" tabindex="-1" aria-label="x, 36, 3.5. Data." style="outline:0" transform="translate(66 90)"/><path d="M118.5 82.875a1.5 1.5 0 1 1 .001 0Z" class="highcharts-point highcharts-color-1" tabindex="-1" aria-label="x, 37, 3.6. Data." style="outline:0" transform="translate(66 90)"/><path d="M121.5 123.563a1.5 1.5 0 1 1 .001 0Z" class="highcharts-point highcharts-color-1" tabindex="-1" aria-label="x, 38, 3. Data." style="outline:0" transform="translate(66 90)"/><path d="M124.5 96.438a1.5 1.5 0 1 1 .001 0Z" class="highcharts-point highcharts-color-1" tabindex="-1" aria-label="x, 39, 3.4. Data." style="outline:0" transform="translate(66 90)"/><path d="M128.5 89.656a1.5 1.5 0 1 1 .001 0Z" class="highcharts-point highcharts-color-1" tabindex="-1" aria-label="x, 40, 3.5. Data." style="outline:0" transform="translate(66 90)"/><path d="M131.5 171.031a1.5 1.5 0 1 1 .001 0Z" class="highcharts-point highcharts-color-1" tabindex="-1" aria-label="x, 41, 2.3. Data." style="outline:0" transform="translate(66 90)"/><path d="M134.5 110a1.5 1.5 0 1 1 .001 0Z" class="highcharts-point highcharts-color-1" tabindex="-1" aria-label="x, 42, 3.2. Data." style="outline:0" transform="translate(66 90)"/><path d="M137.5 89.656a1.5 1.5 0 1 1 .001 0Z" class="highcharts-point highcharts-color-1" tabindex="-1" aria-label="x, 43, 3.5. Data." style="outline:0" transform="translate(66 90)"/><path d="M140.5 69.313a1.5 1.5 0 1 1 .001 0Z" class="highcharts-point highcharts-color-1" tabindex="-1" aria-label="x, 44, 3.8. Data." style="outline:0" transform="translate(66 90)"/><path d="M143.5 123.563a1.5 1.5 0 1 1 .001 0Z" class="highcharts-point highcharts-color-1" tabindex="-1" aria-label="x, 45, 3. Data." style="outline:0" transform="translate(66 90)"/><path d="M146.5 69.313a1.5 1.5 0 1 1 .001 0Z" class="highcharts-point highcharts-color-1" tabindex="-1" aria-label="x, 46, 3.8. Data." style="outline:0" transform="translate(66 90)"/><path d="M149.5 110a1.5 1.5 0 1 1 .001 0Z" class="highcharts-point highcharts-color-1" tabindex="-1" aria-label="x, 47, 3.2. Data." style="outline:0" transform="translate(66 90)"/><path d="M152.5 76.094a1.5 1.5 0 1 1 .001 0Z" class="highcharts-point highcharts-color-1" tabindex="-1" aria-label="x, 48, 3.7. Data." style="outline:0" transform="translate(66 90)"/><path d="M155.5 103.219a1.5 1.5 0 1 1 .001 0Z" class="highcharts-point highcharts-color-1" tabindex="-1" aria-label="x, 49, 3.3. Data." style="outline:0" transform="translate(66 90)"/><path d="M159.5 110a1.5 1.5 0 1 1 .001 0Z" class="highcharts-point highcharts-color-1" tabindex="-1" aria-label="x, 50, 3.2. Data." style="outline:0" transform="translate(66 90)"/><path d="M162.5 110a1.5 1.5 0 1 1 .001 0Z" class="highcharts-point highcharts-color-1" tabindex="-1" aria-label="x, 51, 3.2. Data." style="outline:0" transform="translate(66 90)"/><path d="M165.5 116.781a1.5 1.5 0 1 1 .001 0Z" class="highcharts-point highcharts-color-1" tabindex="-1" aria-label="x, 52, 3.1. Data." style="outline:0" transform="translate(66 90)"/><path d="M168.5 171.031a1.5 1.5 0 1 1 .001 0Z" class="highcharts-point highcharts-color-1" tabindex="-1" aria-label="x, 53, 2.3. Data." style="outline:0" transform="translate(66 90)"/><path d="M171.5 137.125a1.5 1.5 0 1 1 .001 0Z" class="highcharts-point highcharts-color-1" tabindex="-1" aria-label="x, 54, 2.8. Data." style="outline:0" transform="translate(66 90)"/><path d="M174.5 137.125a1.5 1.5 0 1 1 .001 0Z" class="highcharts-point highcharts-color-1" tabindex="-1" aria-label="x, 55, 2.8. Data." style="outline:0" transform="translate(66 90)"/><path d="M177.5 103.219a1.5 1.5 0 1 1 .001 0Z" class="highcharts-point highcharts-color-1" tabindex="-1" aria-label="x, 56, 3.3. Data." style="outline:0" transform="translate(66 90)"/><path d="M180.5 164.25a1.5 1.5 0 1 1 .001 0Z" class="highcharts-point highcharts-color-1" tabindex="-1" aria-label="x, 57, 2.4. Data." style="outline:0" transform="translate(66 90)"/><path d="M183.5 130.344a1.5 1.5 0 1 1 .001 0Z" class="highcharts-point highcharts-color-1" tabindex="-1" aria-label="x, 58, 2.9. Data." style="outline:0" transform="translate(66 90)"/><path d="M186.5 143.906a1.5 1.5 0 1 1 .001 0Z" class="highcharts-point highcharts-color-1" tabindex="-1" aria-label="x, 59, 2.7. Data." style="outline:0" transform="translate(66 90)"/><path d="M190.5 191.375a1.5 1.5 0 1 1 .001 0Z" class="highcharts-point highcharts-color-1" tabindex="-1" aria-label="x, 60, 2. Data." style="outline:0" transform="translate(66 90)"/><path d="M193.5 123.563a1.5 1.5 0 1 1 .001 0Z" class="highcharts-point highcharts-color-1" tabindex="-1" aria-label="x, 61, 3. Data." style="outline:0" transform="translate(66 90)"/><path d="M196.5 177.813a1.5 1.5 0 1 1 .001 0Z" class="highcharts-point highcharts-color-1" tabindex="-1" aria-label="x, 62, 2.2. Data." style="outline:0" transform="translate(66 90)"/><path d="M199.5 130.344a1.5 1.5 0 1 1 .001 0Z" class="highcharts-point highcharts-color-1" tabindex="-1" aria-label="x, 63, 2.9. Data." style="outline:0" transform="translate(66 90)"/><path d="M202.5 130.344a1.5 1.5 0 1 1 .001 0Z" class="highcharts-point highcharts-color-1" tabindex="-1" aria-label="x, 64, 2.9. Data." style="outline:0" transform="translate(66 90)"/><path d="M205.5 116.781a1.5 1.5 0 1 1 .001 0Z" class="highcharts-point highcharts-color-1" tabindex="-1" aria-label="x, 65, 3.1. Data." style="outline:0" transform="translate(66 90)"/><path d="M208.5 123.563a1.5 1.5 0 1 1 .001 0Z" class="highcharts-point highcharts-color-1" tabindex="-1" aria-label="x, 66, 3. Data." style="outline:0" transform="translate(66 90)"/><path d="M211.5 143.906a1.5 1.5 0 1 1 .001 0Z" class="highcharts-point highcharts-color-1" tabindex="-1" aria-label="x, 67, 2.7. Data." style="outline:0" transform="translate(66 90)"/><path d="M214.5 177.813a1.5 1.5 0 1 1 .001 0Z" class="highcharts-point highcharts-color-1" tabindex="-1" aria-label="x, 68, 2.2. Data." style="outline:0" transform="translate(66 90)"/><path d="M217.5 157.469a1.5 1.5 0 1 1 .001 0Z" class="highcharts-point highcharts-color-1" tabindex="-1" aria-label="x, 69, 2.5. Data." style="outline:0" transform="translate(66 90)"/><path d="M221.5 110a1.5 1.5 0 1 1 .001 0Z" class="highcharts-point highcharts-color-1" tabindex="-1" aria-label="x, 70, 3.2. Data." style="outline:0" transform="translate(66 90)"/><path d="M224.5 137.125a1.5 1.5 0 1 1 .001 0Z" class="highcharts-point highcharts-color-1" tabindex="-1" aria-label="x, 71, 2.8. Data." style="outline:0" transform="translate(66 90)"/><path d="M227.5 157.469a1.5 1.5 0 1 1 .001 0Z" class="highcharts-point highcharts-color-1" tabindex="-1" aria-label="x, 72, 2.5. Data." style="outline:0" transform="translate(66 90)"/><path d="M230.5 137.125a1.5 1.5 0 1 1 .001 0Z" class="highcharts-point highcharts-color-1" tabindex="-1" aria-label="x, 73, 2.8. Data." style="outline:0" transform="translate(66 90)"/><path d="M233.5 130.344a1.5 1.5 0 1 1 .001 0Z" class="highcharts-point highcharts-color-1" tabindex="-1" aria-label="x, 74, 2.9. Data." style="outline:0" transform="translate(66 90)"/><path d="M236.5 123.563a1.5 1.5 0 1 1 .001 0Z" class="highcharts-point highcharts-color-1" tabindex="-1" aria-label="x, 75, 3. Data." style="outline:0" transform="translate(66 90)"/><path d="M239.5 137.125a1.5 1.5 0 1 1 .001 0Z" class="highcharts-point highcharts-color-1" tabindex="-1" aria-label="x, 76, 2.8. Data." style="outline:0" transform="translate(66 90)"/><path d="M242.5 123.563a1.5 1.5 0 1 1 .001 0Z" class="highcharts-point highcharts-color-1" tabindex="-1" aria-label="x, 77, 3. Data." style="outline:0" transform="translate(66 90)"/><path d="M245.5 130.344a1.5 1.5 0 1 1 .001 0Z" class="highcharts-point highcharts-color-1" tabindex="-1" aria-label="x, 78, 2.9. Data." style="outline:0" transform="translate(66 90)"/><path d="M248.5 150.688a1.5 1.5 0 1 1 .001 0Z" class="highcharts-point highcharts-color-1" tabindex="-1" aria-label="x, 79, 2.6. Data." style="outline:0" transform="translate(66 90)"/><path d="M252.5 164.25a1.5 1.5 0 1 1 .001 0Z" class="highcharts-point highcharts-color-1" tabindex="-1" aria-label="x, 80, 2.4. Data." style="outline:0" transform="translate(66 90)"/><path d="M255.5 164.25a1.5 1.5 0 1 1 .001 0Z" class="highcharts-point highcharts-color-1" tabindex="-1" aria-label="x, 81, 2.4. Data." style="outline:0" transform="translate(66 90)"/><path d="M258.5 143.906a1.5 1.5 0 1 1 .001 0Z" class="highcharts-point highcharts-color-1" tabindex="-1" aria-label="x, 82, 2.7. Data." style="outline:0" transform="translate(66 90)"/><path d="M261.5 143.906a1.5 1.5 0 1 1 .001 0Z" class="highcharts-point highcharts-color-1" tabindex="-1" aria-label="x, 83, 2.7. Data." style="outline:0" transform="translate(66 90)"/><path d="M264.5 123.563a1.5 1.5 0 1 1 .001 0Z" class="highcharts-point highcharts-color-1" tabindex="-1" aria-label="x, 84, 3. Data." style="outline:0" transform="translate(66 90)"/><path d="M267.5 96.438a1.5 1.5 0 1 1 .001 0Z" class="highcharts-point highcharts-color-1" tabindex="-1" aria-label="x, 85, 3.4. Data." style="outline:0" transform="translate(66 90)"/><path d="M270.5 116.781a1.5 1.5 0 1 1 .001 0Z" class="highcharts-point highcharts-color-1" tabindex="-1" aria-label="x, 86, 3.1. Data." style="outline:0" transform="translate(66 90)"/><path d="M273.5 171.031a1.5 1.5 0 1 1 .001 0Z" class="highcharts-point highcharts-color-1" tabindex="-1" aria-label="x, 87, 2.3. Data." style="outline:0" transform="translate(66 90)"/><path d="M276.5 123.563a1.5 1.5 0 1 1 .001 0Z" class="highcharts-point highcharts-color-1" tabindex="-1" aria-label="x, 88, 3. Data." style="outline:0" transform="translate(66 90)"/><path d="M279.5 157.469a1.5 1.5 0 1 1 .001 0Z" class="highcharts-point highcharts-color-1" tabindex="-1" aria-label="x, 89, 2.5. Data." style="outline:0" transform="translate(66 90)"/><path d="M283.5 150.688a1.5 1.5 0 1 1 .001 0Z" class="highcharts-point highcharts-color-1" tabindex="-1" aria-label="x, 90, 2.6. Data." style="outline:0" transform="translate(66 90)"/><path d="M286.5 123.563a1.5 1.5 0 1 1 .001 0Z" class="highcharts-point highcharts-color-1" tabindex="-1" aria-label="x, 91, 3. Data." style="outline:0" transform="translate(66 90)"/><path d="M289.5 150.688a1.5 1.5 0 1 1 .001 0Z" class="highcharts-point highcharts-color-1" tabindex="-1" aria-label="x, 92, 2.6. Data." style="outline:0" transform="translate(66 90)"/><path d="M292.5 171.031a1.5 1.5 0 1 1 .001 0Z" class="highcharts-point highcharts-color-1" tabindex="-1" aria-label="x, 93, 2.3. Data." style="outline:0" transform="translate(66 90)"/><path d="M295.5 143.906a1.5 1.5 0 1 1 .001 0Z" class="highcharts-point highcharts-color-1" tabindex="-1" aria-label="x, 94, 2.7. Data." style="outline:0" transform="translate(66 90)"/><path d="M298.5 123.563a1.5 1.5 0 1 1 .001 0Z" class="highcharts-point highcharts-color-1" tabindex="-1" aria-label="x, 95, 3. Data." style="outline:0" transform="translate(66 90)"/><path d="M301.5 130.344a1.5 1.5 0 1 1 .001 0Z" class="highcharts-point highcharts-color-1" tabindex="-1" aria-label="x, 96, 2.9. Data." style="outline:0" transform="translate(66 90)"/><path d="M304.5 130.344a1.5 1.5 0 1 1 .001 0Z" class="highcharts-point highcharts-color-1" tabindex="-1" aria-label="x, 97, 2.9. Data." style="outline:0" transform="translate(66 90)"/><path d="M307.5 157.469a1.5 1.5 0 1 1 .001 0Z" class="highcharts-point highcharts-color-1" tabindex="-1" aria-label="x, 98, 2.5. Data." style="outline:0" transform="translate(66 90)"/><path d="M310.5 137.125a1.5 1.5 0 1 1 .001 0Z" class="highcharts-point highcharts-color-1" tabindex="-1" aria-label="x, 99, 2.8. Data." style="outline:0" transform="translate(66 90)"/><path d="M314.5 103.219a1.5 1.5 0 1 1 .001 0Z" class="highcharts-point highcharts-color-1" tabindex="-1" aria-label="x, 100, 3.3. Data." style="outline:0" transform="translate(66 90)"/><path d="M317.5 143.906a1.5 1.5 0 1 1 .001 0Z" class="highcharts-point highcharts-color-1" tabindex="-1" aria-label="x, 101, 2.7. Data." style="outline:0" transform="translate(66 90)"/><path d="M320.5 123.563a1.5 1.5 0 1 1 .001 0Z" class="highcharts-point highcharts-color-1" tabindex="-1" aria-label="x, 102, 3. Data." style="outline:0" transform="translate(66 90)"/><path d="M323.5 130.344a1.5 1.5 0 1 1 .001 0Z" class="highcharts-point highcharts-color-1" tabindex="-1" aria-label="x, 103, 2.9. Data." style="outline:0" transform="translate(66 90)"/><path d="M326.5 123.563a1.5 1.5 0 1 1 .001 0Z" class="highcharts-point highcharts-color-1" tabindex="-1" aria-label="x, 104, 3. Data." style="outline:0" transform="translate(66 90)"/><path d="M329.5 123.563a1.5 1.5 0 1 1 .001 0Z" class="highcharts-point highcharts-color-1" tabindex="-1" aria-label="x, 105, 3. Data." style="outline:0" transform="translate(66 90)"/><path d="M332.5 157.469a1.5 1.5 0 1 1 .001 0Z" class="highcharts-point highcharts-color-1" tabindex="-1" aria-label="x, 106, 2.5. Data." style="outline:0" transform="translate(66 90)"/><path d="M335.5 130.344a1.5 1.5 0 1 1 .001 0Z" class="highcharts-point highcharts-color-1" tabindex="-1" aria-label="x, 107, 2.9. Data." style="outline:0" transform="translate(66 90)"/><path d="M338.5 157.469a1.5 1.5 0 1 1 .001 0Z" class="highcharts-point highcharts-color-1" tabindex="-1" aria-label="x, 108, 2.5. Data." style="outline:0" transform="translate(66 90)"/><path d="M341.5 82.875a1.5 1.5 0 1 1 .001 0Z" class="highcharts-point highcharts-color-1" tabindex="-1" aria-label="x, 109, 3.6. Data." style="outline:0" transform="translate(66 90)"/><path d="M345.5 110a1.5 1.5 0 1 1 .001 0Z" class="highcharts-point highcharts-color-1" tabindex="-1" aria-label="x, 110, 3.2. Data." style="outline:0" transform="translate(66 90)"/><path d="M348.5 143.906a1.5 1.5 0 1 1 .001 0Z" class="highcharts-point highcharts-color-1" tabindex="-1" aria-label="x, 111, 2.7. Data." style="outline:0" transform="translate(66 90)"/><path d="M351.5 123.563a1.5 1.5 0 1 1 .001 0Z" class="highcharts-point highcharts-color-1" tabindex="-1" aria-label="x, 112, 3. Data." style="outline:0" transform="translate(66 90)"/><path d="M354.5 157.469a1.5 1.5 0 1 1 .001 0Z" class="highcharts-point highcharts-color-1" tabindex="-1" aria-label="x, 113, 2.5. Data." style="outline:0" transform="translate(66 90)"/><path d="M357.5 137.125a1.5 1.5 0 1 1 .001 0Z" class="highcharts-point highcharts-color-1" tabindex="-1" aria-label="x, 114, 2.8. Data." style="outline:0" transform="translate(66 90)"/><path d="M360.5 110a1.5 1.5 0 1 1 .001 0Z" class="highcharts-point highcharts-color-1" tabindex="-1" aria-label="x, 115, 3.2. Data." style="outline:0" transform="translate(66 90)"/><path d="M363.5 123.563a1.5 1.5 0 1 1 .001 0Z" class="highcharts-point highcharts-color-1" tabindex="-1" aria-label="x, 116, 3. Data." style="outline:0" transform="translate(66 90)"/><path d="M366.5 69.313a1.5 1.5 0 1 1 .001 0Z" class="highcharts-point highcharts-color-1" tabindex="-1" aria-label="x, 117, 3.8. Data." style="outline:0" transform="translate(66 90)"/><path d="M369.5 150.688a1.5 1.5 0 1 1 .001 0Z" class="highcharts-point highcharts-color-1" tabindex="-1" aria-label="x, 118, 2.6. Data." style="outline:0" transform="translate(66 90)"/><path d="M372.5 177.813a1.5 1.5 0 1 1 .001 0Z" class="highcharts-point highcharts-color-1" tabindex="-1" aria-label="x, 119, 2.2. Data." style="outline:0" transform="translate(66 90)"/><path d="M376.5 110a1.5 1.5 0 1 1 .001 0Z" class="highcharts-point highcharts-color-1" tabindex="-1" aria-label="x, 120, 3.2. Data." style="outline:0" transform="translate(66 90)"/><path d="M379.5 137.125a1.5 1.5 0 1 1 .001 0Z" class="highcharts-point highcharts-color-1" tabindex="-1" aria-label="x, 121, 2.8. Data." style="outline:0" transform="translate(66 90)"/><path d="M382.5 137.125a1.5 1.5 0 1 1 .001 0Z" class="highcharts-point highcharts-color-1" tabindex="-1" aria-label="x, 122, 2.8. Data." style="outline:0" transform="translate(66 90)"/><path d="M385.5 143.906a1.5 1.5 0 1 1 .001 0Z" class="highcharts-point highcharts-color-1" tabindex="-1" aria-label="x, 123, 2.7. Data." style="outline:0" transform="translate(66 90)"/><path d="M388.5 103.219a1.5 1.5 0 1 1 .001 0Z" class="highcharts-point highcharts-color-1" tabindex="-1" aria-label="x, 124, 3.3. Data." style="outline:0" transform="translate(66 90)"/><path d="M391.5 110a1.5 1.5 0 1 1 .001 0Z" class="highcharts-point highcharts-color-1" tabindex="-1" aria-label="x, 125, 3.2. Data." style="outline:0" transform="translate(66 90)"/><path d="M394.5 137.125a1.5 1.5 0 1 1 .001 0Z" class="highcharts-point highcharts-color-1" tabindex="-1" aria-label="x, 126, 2.8. Data." style="outline:0" transform="translate(66 90)"/><path d="M397.5 123.563a1.5 1.5 0 1 1 .001 0Z" class="highcharts-point highcharts-color-1" tabindex="-1" aria-label="x, 127, 3. Data." style="outline:0" transform="translate(66 90)"/><path d="M400.5 137.125a1.5 1.5 0 1 1 .001 0Z" class="highcharts-point highcharts-color-1" tabindex="-1" aria-label="x, 128, 2.8. Data." style="outline:0" transform="translate(66 90)"/><path d="M403.5 123.563a1.5 1.5 0 1 1 .001 0Z" class="highcharts-point highcharts-color-1" tabindex="-1" aria-label="x, 129, 3. Data." style="outline:0" transform="translate(66 90)"/><path d="M406.5 137.125a1.5 1.5 0 1 1 .001 0Z" class="highcharts-point highcharts-color-1" tabindex="-1" aria-label="x, 130, 2.8. Data." style="outline:0" transform="translate(66 90)"/><path d="M410.5 69.313a1.5 1.5 0 1 1 .001 0Z" class="highcharts-point highcharts-color-1" tabindex="-1" aria-label="x, 131, 3.8. Data." style="outline:0" transform="translate(66 90)"/><path d="M413.5 137.125a1.5 1.5 0 1 1 .001 0Z" class="highcharts-point highcharts-color-1" tabindex="-1" aria-label="x, 132, 2.8. Data." style="outline:0" transform="translate(66 90)"/><path d="M416.5 137.125a1.5 1.5 0 1 1 .001 0Z" class="highcharts-point highcharts-color-1" tabindex="-1" aria-label="x, 133, 2.8. Data." style="outline:0" transform="translate(66 90)"/><path d="M419.5 150.688a1.5 1.5 0 1 1 .001 0Z" class="highcharts-point highcharts-color-1" tabindex="-1" aria-label="x, 134, 2.6. Data." style="outline:0" transform="translate(66 90)"/><path d="M422.5 123.563a1.5 1.5 0 1 1 .001 0Z" class="highcharts-point highcharts-color-1" tabindex="-1" aria-label="x, 135, 3. Data." style="outline:0" transform="translate(66 90)"/><path d="M425.5 96.438a1.5 1.5 0 1 1 .001 0Z" class="highcharts-point highcharts-color-1" tabindex="-1" aria-label="x, 136, 3.4. Data." style="outline:0" transform="translate(66 90)"/><path d="M428.5 116.781a1.5 1.5 0 1 1 .001 0Z" class="highcharts-point highcharts-color-1" tabindex="-1" aria-label="x, 137, 3.1. Data." style="outline:0" transform="translate(66 90)"/><path d="M431.5 123.563a1.5 1.5 0 1 1 .001 0Z" class="highcharts-point highcharts-color-1" tabindex="-1" aria-label="x, 138, 3. Data." style="outline:0" transform="translate(66 90)"/><path d="M434.5 116.781a1.5 1.5 0 1 1 .001 0Z" class="highcharts-point highcharts-color-1" tabindex="-1" aria-label="x, 139, 3.1. Data." style="outline:0" transform="translate(66 90)"/><path d="M437.5 116.781a1.5 1.5 0 1 1 .001 0Z" class="highcharts-point highcharts-color-1" tabindex="-1" aria-label="x, 140, 3.1. Data." style="outline:0" transform="translate(66 90)"/><path d="M441.5 116.781a1.5 1.5 0 1 1 .001 0Z" class="highcharts-point highcharts-color-1" tabindex="-1" aria-label="x, 141, 3.1. Data." style="outline:0" transform="translate(66 90)"/><path d="M444.5 143.906a1.5 1.5 0 1 1 .001 0Z" class="highcharts-point highcharts-color-1" tabindex="-1" aria-label="x, 142, 2.7. Data." style="outline:0" transform="translate(66 90)"/><path d="M447.5 110a1.5 1.5 0 1 1 .001 0Z" class="highcharts-point highcharts-color-1" tabindex="-1" aria-label="x, 143, 3.2. Data." style="outline:0" transform="translate(66 90)"/><path d="M450.5 103.219a1.5 1.5 0 1 1 .001 0Z" class="highcharts-point highcharts-color-1" tabindex="-1" aria-label="x, 144, 3.3. Data." style="outline:0" transform="translate(66 90)"/><path d="M453.5 123.563a1.5 1.5 0 1 1 .001 0Z" class="highcharts-point highcharts-color-1" tabindex="-1" aria-label="x, 145, 3. Data." style="outline:0" transform="translate(66 90)"/><path d="M456.5 157.469a1.5 1.5 0 1 1 .001 0Z" class="highcharts-point highcharts-color-1" tabindex="-1" aria-label="x, 146, 2.5. Data." style="outline:0" transform="translate(66 90)"/><path d="M459.5 123.563a1.5 1.5 0 1 1 .001 0Z" class="highcharts-point highcharts-color-1" tabindex="-1" aria-label="x, 147, 3. Data." style="outline:0" transform="translate(66 90)"/><path d="M462.5 96.438a1.5 1.5 0 1 1 .001 0Z" class="highcharts-point highcharts-color-1" tabindex="-1" aria-label="x, 148, 3.4. Data." style="outline:0" transform="translate(66 90)"/><path d="M465.5 123.563a1.5 1.5 0 1 1 .001 0Z" class="highcharts-point highcharts-color-1" tabindex="-1" aria-label="x, 149, 3. Data." style="outline:0" transform="translate(66 90)"/></g></g><text x="300" text-anchor="middle" class="highcharts-title" data-z-index="4" style="color:#333;font-size:18px;fill:#333" y="24" aria-hidden="true">Highcharts Histogram</text><g class="highcharts-legend highcharts-no-tooltip" data-z-index="7" transform="translate(214 359)" aria-hidden="true"><rect fill="none" class="highcharts-legend-box" rx="0" ry="0" width="171" height="26"/><g data-z-index="1"><g class="highcharts-legend-item highcharts-histogram-series highcharts-color-0 highcharts-series-0" data-z-index="1" transform="translate(8 3)"><text x="21" data-z-index="2" y="15" style="color:#333;cursor:pointer;font-size:12px;font-weight:700;fill:#333">Histogram</text><rect x="2" y="4" width="12" height="12" fill="#7cb5ec" rx="6" ry="6" class="highcharts-point" data-z-index="3"/></g><g class="highcharts-legend-item highcharts-scatter-series highcharts-color-1 highcharts-series-1" data-z-index="1"><path fill="none" d="M113.64 14h16" class="highcharts-graph"/><path fill="#434348" d="M122.14 16a1.5 1.5 0 1 1 .002 0Z" class="highcharts-point"/><text x="21" y="15" data-z-index="2" style="color:#333;cursor:pointer;font-size:12px;font-weight:700;fill:#333" transform="translate(113.64 3)">Data</text></g></g></g><g class="highcharts-axis-labels highcharts-xaxis-labels" data-z-index="7" aria-hidden="true" text-anchor="middle"><text x="70.618" style="color:#666;cursor:default;font-size:11px;fill:#666" y="326">0</text><text x="148.095" style="color:#666;cursor:default;font-size:11px;fill:#666" y="326">25</text><text x="225.572" style="color:#666;cursor:default;font-size:11px;fill:#666" y="326">50</text><text x="303.05" style="color:#666;cursor:default;font-size:11px;fill:#666" y="326">75</text><text x="380.527" style="color:#666;cursor:default;font-size:11px;fill:#666" y="326">100</text><text x="458.004" style="color:#666;cursor:default;font-size:11px;fill:#666" y="326">125</text><text x="535.481" style="color:#666;cursor:default;font-size:11px;fill:#666" y="326">150</text></g><g class="highcharts-axis-labels highcharts-xaxis-labels" data-z-index="7" aria-hidden="true" text-anchor="middle"><text x="70.269" style="color:#666;cursor:default;font-size:11px;fill:#666" y="77">2</text><text x="166.615" style="color:#666;cursor:default;font-size:11px;fill:#666" y="77">2.5</text><text x="262.961" style="color:#666;cursor:default;font-size:11px;fill:#666" y="77">3</text><text x="359.308" style="color:#666;cursor:default;font-size:11px;fill:#666" y="77">3.5</text><text x="455.654" style="color:#666;cursor:default;font-size:11px;fill:#666" y="77">4</text></g><g class="highcharts-axis-labels highcharts-yaxis-labels" data-z-index="7" aria-hidden="true" text-anchor="end"><text x="51" style="color:#666;cursor:default;font-size:11px;fill:#666" y="312">1.6</text><text x="51" style="color:#666;cursor:default;font-size:11px;fill:#666" y="257">2.4</text><text x="51" style="color:#666;cursor:default;font-size:11px;fill:#666" y="203">3.2</text><text x="51" style="color:#666;cursor:default;font-size:11px;fill:#666" y="149">4</text><text x="51" style="color:#666;cursor:default;font-size:11px;fill:#666" y="95">4.8</text></g><g class="highcharts-axis-labels highcharts-yaxis-labels" data-z-index="7" aria-hidden="true"><text x="552" style="color:#666;cursor:default;font-size:11px;fill:#666" y="312">0</text><text x="552" style="color:#666;cursor:default;font-size:11px;fill:#666" y="257">10</text><text x="552" style="color:#666;cursor:default;font-size:11px;fill:#666" y="203">20</text><text x="552" style="color:#666;cursor:default;font-size:11px;fill:#666" y="149">30</text><text x="552" style="color:#666;cursor:default;font-size:11px;fill:#666" y="95">40</text></g></svg>