<svg class="highcharts-root" style="font-family:&quot;Lucida Grande&quot;,&quot;Lucida Sans Unicode&quot;,Arial,Helvetica,sans-serif;font-size:12px" xmlns="http://www.w3.org/2000/svg" width="600" height="400" aria-label="Interactive chart" aria-hidden="false"><rect fill="#fff" class="highcharts-background" width="600" height="400" rx="0" ry="0" aria-hidden="true"/><path fill="none" class="highcharts-plot-background" aria-hidden="true" d="M90 61h500v257H90z"/><g class="highcharts-grid highcharts-xaxis-grid" data-z-index="1" aria-hidden="true" fill="none"><path data-z-index="1" class="highcharts-grid-line" d="M139.5 61v257m50-257v257m50-257v257m50-257v257m50-257v257m50-257v257m50-257v257m50-257v257m50-257v257m50-257v257M89.5 61v257"/></g><g class="highcharts-grid highcharts-yaxis-grid" data-z-index="1" aria-hidden="true" fill="none" stroke="#e6e6e6"><path data-z-index="1" class="highcharts-grid-line" d="M90 318.5h500m-500-64h500m-500-64h500m-500-65h500m-500-65h500"/></g><path fill="none" class="highcharts-plot-border" data-z-index="1" aria-hidden="true" d="M90 61h500v257H90z"/><g class="highcharts-axis highcharts-xaxis" data-z-index="2" aria-hidden="true"><path fill="none" class="highcharts-axis-line" stroke="#ccd6eb" data-z-index="7" d="M90 318.5h500"/></g><g class="highcharts-axis highcharts-yaxis" data-z-index="2" aria-hidden="true"><text x="24.219" data-z-index="7" text-anchor="middle" transform="rotate(-90 24.219 189.5)" class="highcharts-axis-title" style="color:#666;fill:#666" y="189.5">Population</text><path fill="none" class="highcharts-axis-line" data-z-index="7" d="M90 61v257"/></g><g class="highcharts-series-group" data-z-index="3" aria-hidden="false"><g class="highcharts-markers highcharts-series-0 highcharts-lollipop-series highcharts-color-0 highcharts-tracker" data-z-index=".1" aria-hidden="false"><path fill="none" class="highcharts-lollipop-stem" data-z-index="-1" d="M114.5 132.418V318m50-179.053V318m50-42.78V318m50-35.512V318m50-28.938V318m50-27.498V318m50-27.165V318m50-21.37V318m50-18.75V318m50-16.739V318" stroke="#7cb5ec"/><path fill="#7cb5ec" d="M25 75a4 4 0 1 1 .004 0Z" class="highcharts-point highcharts-color-0 highcharts-lollipop-low" tabindex="-1" aria-label="1. China, 1444216107. Population." style="outline:0" transform="translate(90 61)"/><path fill="#7cb5ec" d="M75 81a4 4 0 1 1 .004 0Z" class="highcharts-point highcharts-color-0 highcharts-lollipop-low" tabindex="-1" aria-label="2. India, 1393409038. Population." style="outline:0" transform="translate(90 61)"/><path fill="#7cb5ec" d="M125 218a4 4 0 1 1 .004 0Z" class="highcharts-point highcharts-color-0 highcharts-lollipop-low" tabindex="-1" aria-label="3. United States, 332915073. Population." style="outline:0" transform="translate(90 61)"/><path fill="#7cb5ec" d="M175 225a4 4 0 1 1 .004 0Z" class="highcharts-point highcharts-color-0 highcharts-lollipop-low" tabindex="-1" aria-label="4. Indonesia, 276361783. Population." style="outline:0" transform="translate(90 61)"/><path fill="#7cb5ec" d="M225 232a4 4 0 1 1 .004 0Z" class="highcharts-point highcharts-color-0 highcharts-lollipop-low" tabindex="-1" aria-label="5. Pakistan, 225199937. Population." style="outline:0" transform="translate(90 61)"/><path fill="#7cb5ec" d="M275 233a4 4 0 1 1 .004 0Z" class="highcharts-point highcharts-color-0 highcharts-lollipop-low" tabindex="-1" aria-label="6. Brazil, 213993437. Population." style="outline:0" transform="translate(90 61)"/><path fill="#7cb5ec" d="M325 233a4 4 0 1 1 .004 0Z" class="highcharts-point highcharts-color-0 highcharts-lollipop-low" tabindex="-1" aria-label="7. Nigeria, 211400708. Population." style="outline:0" transform="translate(90 61)"/><path fill="#7cb5ec" d="M375 239a4 4 0 1 1 .004 0Z" class="highcharts-point highcharts-color-0 highcharts-lollipop-low" tabindex="-1" aria-label="8. Bangladesh, 166303498. Population." style="outline:0" transform="translate(90 61)"/><path fill="#7cb5ec" d="M425 242a4 4 0 1 1 .004 0Z" class="highcharts-point highcharts-color-0 highcharts-lollipop-low" tabindex="-1" aria-label="9. Russia, 145912025. Population." style="outline:0" transform="translate(90 61)"/><path fill="#7cb5ec" d="M475 244a4 4 0 1 1 .004 0Z" class="highcharts-point highcharts-color-0 highcharts-lollipop-low" tabindex="-1" aria-label="10. Mexico, 130262216. Population." style="outline:0" transform="translate(90 61)"/></g></g><text x="300" text-anchor="middle" class="highcharts-title" data-z-index="4" style="color:#333;font-size:18px;fill:#333" y="24" aria-hidden="true">Top 10 Countries by Population</text><text x="300" text-anchor="middle" class="highcharts-subtitle" data-z-index="4" style="color:#666;fill:#666" y="46" aria-hidden="true">2021</text><g class="highcharts-axis-labels highcharts-xaxis-labels" data-z-index="7" aria-hidden="true" text-anchor="end"><text x="117.593" transform="rotate(-45 117.593 334)" style="color:#666;cursor:default;font-size:11px;fill:#666" y="334">China</text><text x="167.593" transform="rotate(-45 167.593 334)" style="color:#666;cursor:default;font-size:11px;fill:#666" y="334">India</text><text x="217.593" transform="rotate(-45 217.593 334)" style="color:#666;cursor:default;font-size:11px;fill:#666" y="334">United States</text><text x="267.593" transform="rotate(-45 267.593 334)" style="color:#666;cursor:default;font-size:11px;fill:#666" y="334">Indonesia</text><text x="317.593" transform="rotate(-45 317.593 334)" style="color:#666;cursor:default;font-size:11px;fill:#666" y="334">Pakistan</text><text x="367.593" transform="rotate(-45 367.593 334)" style="color:#666;cursor:default;font-size:11px;fill:#666" y="334">Brazil</text><text x="417.593" transform="rotate(-45 417.593 334)" style="color:#666;cursor:default;font-size:11px;fill:#666" y="334">Nigeria</text><text x="467.593" transform="rotate(-45 467.593 334)" style="color:#666;cursor:default;font-size:11px;fill:#666" y="334">Bangladesh</text><text x="517.593" transform="rotate(-45 517.593 334)" style="color:#666;cursor:default;font-size:11px;fill:#666" y="334">Russia</text><text x="567.593" transform="rotate(-45 567.593 334)" style="color:#666;cursor:default;font-size:11px;fill:#666" y="334">Mexico</text></g><g class="highcharts-axis-labels highcharts-yaxis-labels" data-z-index="7" aria-hidden="true" text-anchor="end"><text x="75" style="color:#666;cursor:default;font-size:11px;fill:#666" y="323">0</text><text x="75" style="color:#666;cursor:default;font-size:11px;fill:#666" y="258">500M</text><text x="75" style="color:#666;cursor:default;font-size:11px;fill:#666" y="194">1 000M</text><text x="75" style="color:#666;cursor:default;font-size:11px;fill:#666" y="130">1 500M</text><text x="75" style="color:#666;cursor:default;font-size:11px;fill:#666" y="66">2 000M</text></g></svg>