<svg class="highcharts-root" style="font-family:&quot;Lucida Grande&quot;,&quot;Lucida Sans Unicode&quot;,Arial,Helvetica,sans-serif;font-size:12px" xmlns="http://www.w3.org/2000/svg" width="600" height="400" aria-label="Interactive chart" aria-hidden="false"><rect fill="#fff" class="highcharts-background" width="600" height="400" rx="0" ry="0" aria-hidden="true"/><path fill="none" class="highcharts-plot-background" aria-hidden="true" d="M10 61h580v324H10z"/><path fill="none" class="highcharts-plot-border" data-z-index="1" aria-hidden="true" d="M10 61h580v324H10z"/><g class="highcharts-series-group" data-z-index="3" aria-hidden="false"><g class="highcharts-series highcharts-series-0 highcharts-pie-series highcharts-tracker" data-z-index=".1" aria-hidden="false" stroke="#fff" stroke-linejoin="round"><path fill="#7cb5ec" d="M289.971 31a141.5 141.5 0 1 1-94.46 246.829L290 172.5Z" transform="translate(10 61)" class="highcharts-point highcharts-color-0 highcharts-drilldown-point" style="cursor:pointer;outline:0" tabindex="-1" aria-label="Chrome, 61.04%. Browsers."/><path fill="#434348" d="M195.406 277.734a141.5 141.5 0 0 1-42.898-71.793L290 172.5Z" transform="translate(10 61)" class="highcharts-point highcharts-color-1 highcharts-drilldown-point" style="cursor:pointer;outline:0" tabindex="-1" aria-label="Safari, 9.47%. Browsers."/><path fill="#90ed7d" d="M152.475 205.804a141.5 141.5 0 0 1 4.77-82.277L290 172.5Z" transform="translate(10 61)" class="highcharts-point highcharts-color-2 highcharts-drilldown-point" style="cursor:pointer;outline:0" tabindex="-1" aria-label="Edge, 9.32%. Browsers."/><path fill="#f7a35c" d="M157.294 123.395A141.5 141.5 0 0 1 198.8 64.31L290 172.5Z" transform="translate(10 61)" class="highcharts-point highcharts-color-3 highcharts-drilldown-point" style="cursor:pointer;outline:0" tabindex="-1" aria-label="Firefox, 8.15%. Browsers."/><path fill="#8085e9" d="M198.91 64.22A141.5 141.5 0 0 1 289.802 31L290 172.5Z" transform="translate(10 61)" class="highcharts-point highcharts-color-4" tabindex="-1" aria-label="Other, 11.02%. Browsers." style="outline:0"/></g></g><text x="300" text-anchor="middle" class="highcharts-title" data-z-index="4" style="color:#333;font-size:18px;fill:#333" y="24" aria-hidden="true">Browser market shares. January, 2022</text><text x="300" text-anchor="middle" class="highcharts-subtitle" data-z-index="4" style="color:#666;fill:#666" y="46" aria-hidden="true">Click the slices to view versions. Source: <a target="_blank"><tspan>statcounter.com</tspan></a></text><g class="highcharts-data-labels highcharts-series-0 highcharts-pie-series highcharts-tracker" data-z-index="6" aria-hidden="true"><path fill="none" class="highcharts-data-label-connector highcharts-color-0" stroke="#7cb5ec" d="M465.129 294.91c-5 0-21.807-6.446-27.41-8.594l-5.601-2.149"/><path fill="none" class="highcharts-data-label-connector highcharts-color-1" stroke="#434348" d="M147.716 321.362c5 0 20.459-9.222 25.611-12.295l5.153-3.074"/><path fill="none" class="highcharts-data-label-connector highcharts-color-2" stroke="#90ed7d" d="M123.792 223.492c5 0 22.97 1.05 28.96 1.4l5.99.35"/><path fill="none" class="highcharts-data-label-connector highcharts-color-3" stroke="#f7a35c" d="M154.703 134.864c5 0 19.725 10.353 24.633 13.804l4.909 3.45"/><path fill="none" class="highcharts-data-label-connector highcharts-color-4" stroke="#8085e9" d="M236.241 72.38c5 0 11.167 16.91 13.223 22.547l2.056 5.637"/><g style="cursor:pointer"><text x="5" data-z-index="1" y="16" style="color:#039;font-size:11px;font-weight:700;fill:#039;text-decoration:underline" transform="translate(470 285)" class="highcharts-label highcharts-data-label highcharts-data-label-color-0 highcharts-drilldown-data-label"><tspan class="highcharts-text-outline" fill="#FFF" stroke="#FFF" stroke-width="2" stroke-linejoin="round">Chrome: 61.0%<tspan x="5" dy="0">​</tspan></tspan>Chrome: 61.0%</text></g><g style="cursor:pointer"><text x="5" data-z-index="1" y="16" style="color:#039;font-size:11px;font-weight:700;fill:#039;text-decoration:underline" transform="translate(68 311)" class="highcharts-label highcharts-data-label highcharts-data-label-color-1 highcharts-drilldown-data-label"><tspan class="highcharts-text-outline" fill="#FFF" stroke="#FFF" stroke-width="2" stroke-linejoin="round">Safari: 9.5%<tspan x="5" dy="0">​</tspan></tspan>Safari: 9.5%</text></g><g style="cursor:pointer"><text x="5" data-z-index="1" y="16" style="color:#039;font-size:11px;font-weight:700;fill:#039;text-decoration:underline" transform="translate(49 213)" class="highcharts-label highcharts-data-label highcharts-data-label-color-2 highcharts-drilldown-data-label"><tspan class="highcharts-text-outline" fill="#FFF" stroke="#FFF" stroke-width="2" stroke-linejoin="round">Edge: 9.3%<tspan x="5" dy="0">​</tspan></tspan>Edge: 9.3%</text></g><g style="cursor:pointer"><text x="5" data-z-index="1" y="16" style="color:#039;font-size:11px;font-weight:700;fill:#039;text-decoration:underline" transform="translate(68 125)" class="highcharts-label highcharts-data-label highcharts-data-label-color-3 highcharts-drilldown-data-label"><tspan class="highcharts-text-outline" fill="#FFF" stroke="#FFF" stroke-width="2" stroke-linejoin="round">Firefox: 8.2%<tspan x="5" dy="0">​</tspan></tspan>Firefox: 8.2%</text></g><text x="5" data-z-index="1" y="16" style="color:#000;font-size:11px;font-weight:700;fill:#000" transform="translate(150 62)" class="highcharts-label highcharts-data-label highcharts-data-label-color-4"><tspan class="highcharts-text-outline" fill="#FFF" stroke="#FFF" stroke-width="2" stroke-linejoin="round">Other: 11.0%<tspan x="5" dy="0">​</tspan></tspan>Other: 11.0%</text></g></svg>