<svg class="highcharts-root" style="font-family:&quot;Lucida Grande&quot;,&quot;Lucida Sans Unicode&quot;,Arial,Helvetica,sans-serif;font-size:12px" xmlns="http://www.w3.org/2000/svg" width="600" height="400" aria-label="Interactive chart" aria-hidden="false"><defs aria-hidden="true"><clipPath id="a"><circle cx="233.5" cy="162" r="137.7"/></clipPath><clipPath id="b"><circle cx="233.5" cy="162" r="137.7"/></clipPath><clipPath id="c"><circle cx="233.5" cy="162" r="137.7"/></clipPath><clipPath id="d"><circle cx="233.5" cy="162" r="137.7"/></clipPath><clipPath id="e"><circle cx="233.5" cy="162" r="137.7"/></clipPath><clipPath id="f"><circle cx="233.5" cy="162" r="137.7"/></clipPath><clipPath id="g"><circle cx="233.5" cy="162" r="137.7"/></clipPath></defs><rect fill="#fff" class="highcharts-background" width="600" height="400" rx="0" ry="0" aria-hidden="true"/><path fill="none" class="highcharts-plot-background" aria-hidden="true" d="M10 61h467v324H10z"/><g class="highcharts-grid highcharts-xaxis-grid highcharts-radial-axis-grid" data-z-index="1" aria-hidden="true" fill="none" stroke="#e6e6e6"><path data-z-index="1" class="highcharts-grid-line" d="M243.5 223V85.3m0 137.7 52.696-127.218M243.5 223l97.369-97.369M243.5 223l127.218-52.696M243.5 223h137.7m-137.7 0 127.218 52.696M243.5 223l97.369 97.369M243.5 223l52.696 127.218M243.5 223v137.7m0-137.7-52.696 127.218M243.5 223l-97.369 97.369M243.5 223l-127.218 52.696M243.5 223H105.8m137.7 0-127.218-52.696M243.5 223l-97.369-97.369M243.5 223 190.804 95.782M243.5 223V85.3"/></g><g class="highcharts-grid highcharts-yaxis-grid highcharts-radial-axis-grid" data-z-index="1" aria-hidden="true" fill="none" stroke="#e6e6e6"><path data-z-index="1" class="highcharts-grid-line" d="M243.5 165.682a57.318 57.318 0 1 1-.057 0M243.5 223"/><path data-z-index="1" class="highcharts-grid-line" d="M243.5 108.365a114.635 114.635 0 1 1-.115 0M243.5 223"/></g><path fill="none" class="highcharts-plot-border" data-z-index="1" aria-hidden="true" d="M10 61h467v324H10z"/><g class="highcharts-axis highcharts-xaxis highcharts-radial-axis" data-z-index="2" aria-hidden="true"><path fill="none" class="highcharts-axis-line" stroke="#ccd6eb" data-z-index="7" d="M243.5 85.3a137.7 137.7 0 1 1-.138 0M243.5 223"/></g><g class="highcharts-axis highcharts-yaxis highcharts-radial-axis" data-z-index="2" aria-hidden="true"><text x="247.5" data-z-index="7" text-anchor="middle" transform="rotate(90 247.5 154.15)" class="highcharts-axis-title" style="color:#666;fill:#666" y="154.15">Frequency (%)</text><path fill="none" class="highcharts-axis-line" data-z-index="7" d="M243.5 223V85.3"/></g><g class="highcharts-series-group" data-z-index="3" aria-hidden="false"><g class="highcharts-series highcharts-series-0 highcharts-column-series highcharts-color-0 highcharts-tracker highcharts-dense-data" data-z-index=".1" clip-path="url(#a)" aria-hidden="false" tabindex="-1" aria-label="&amp;lt; 0.5 m/s, bar series 1 of 7 with 16 bars." style="outline:0" fill="#7cb5ec" transform="translate(10 61)"><path d="M230.254 141.506a20.749 20.749 0 0 1 6.471-.003L233.5 162Z" class="highcharts-point highcharts-color-0" tabindex="-1" aria-label="N, 1.81%. &amp;lt; 0.5 m/s." style="outline:0"/><path d="M235.16 155.089a7.107 7.107 0 0 1 2.048.847L233.5 162Z" class="highcharts-point highcharts-color-0" tabindex="-1" aria-label="NNE, 0.62%. &amp;lt; 0.5 m/s." style="outline:0"/><path d="M239.025 154.395a9.4 9.4 0 0 1 2.074 2.072L233.5 162Z" class="highcharts-point highcharts-color-0" tabindex="-1" aria-label="NE, 0.82%. &amp;lt; 0.5 m/s." style="outline:0"/><path d="M239.267 158.466a6.763 6.763 0 0 1 .808 1.949L233.5 162Z" class="highcharts-point highcharts-color-0" tabindex="-1" aria-label="ENE, 0.59%. &amp;lt; 0.5 m/s." style="outline:0"/><path d="M240.52 160.888a7.107 7.107 0 0 1 .001 2.217L233.5 162Z" class="highcharts-point highcharts-color-0" tabindex="-1" aria-label="E, 0.62%. &amp;lt; 0.5 m/s." style="outline:0"/><path d="M247.1 165.265a13.986 13.986 0 0 1-1.668 4.03L233.5 162Z" class="highcharts-point highcharts-color-0" tabindex="-1" aria-label="ESE, 1.22%. &amp;lt; 0.5 m/s." style="outline:0"/><path d="M248.431 172.848a18.456 18.456 0 0 1-4.068 4.073L233.5 162Z" class="highcharts-point highcharts-color-0" tabindex="-1" aria-label="SE, 1.61%. &amp;lt; 0.5 m/s." style="outline:0"/><path d="M245.719 181.94a23.386 23.386 0 0 1-6.737 2.794L233.5 162Z" class="highcharts-point highcharts-color-0" tabindex="-1" aria-label="SSE, 2.04%. &amp;lt; 0.5 m/s." style="outline:0"/><path d="M238.27 192.118a30.493 30.493 0 0 1-9.51.004L233.5 162Z" class="highcharts-point highcharts-color-0" tabindex="-1" aria-label="S, 2.66%. &amp;lt; 0.5 m/s." style="outline:0"/><path d="M225.579 194.995a33.932 33.932 0 0 1-9.78-4.045L233.5 162Z" class="highcharts-point highcharts-color-0" tabindex="-1" aria-label="SSW, 2.96%. &amp;lt; 0.5 m/s." style="outline:0"/><path d="M216.453 185.464a29.003 29.003 0 0 1-6.4-6.393L233.5 162Z" class="highcharts-point highcharts-color-0" tabindex="-1" aria-label="SW, 2.53%. &amp;lt; 0.5 m/s." style="outline:0"/><path d="M214.245 173.8a22.583 22.583 0 0 1-2.699-6.506L233.5 162Z" class="highcharts-point highcharts-color-0" tabindex="-1" aria-label="WSW, 1.97%. &amp;lt; 0.5 m/s." style="outline:0"/><path d="M214.931 164.941a18.8 18.8 0 0 1-.003-5.863L233.5 162Z" class="highcharts-point highcharts-color-0" tabindex="-1" aria-label="W, 1.64%. &amp;lt; 0.5 m/s." style="outline:0"/><path d="M218.786 158.468a15.132 15.132 0 0 1 1.804-4.361L233.5 162Z" class="highcharts-point highcharts-color-0" tabindex="-1" aria-label="WNW, 1.32%. &amp;lt; 0.5 m/s." style="outline:0"/><path d="M218.847 151.354a18.112 18.112 0 0 1 3.992-3.997L233.5 162Z" class="highcharts-point highcharts-color-0" tabindex="-1" aria-label="NW, 1.58%. &amp;lt; 0.5 m/s." style="outline:0"/><path d="M224.456 147.24a17.31 17.31 0 0 1 4.986-2.068L233.5 162Z" class="highcharts-point highcharts-color-0" tabindex="-1" aria-label="NNW, 1.51%. &amp;lt; 0.5 m/s." style="outline:0"/></g><g class="highcharts-series highcharts-series-1 highcharts-column-series highcharts-color-1 highcharts-tracker highcharts-dense-data" data-z-index=".1" clip-path="url(#b)" aria-hidden="false" tabindex="-1" aria-label="0.5-2 m/s, bar series 2 of 7 with 16 bars." style="outline:0" fill="#434348" transform="translate(10 61)"><path d="M227.062 121.353a41.154 41.154 0 0 1 12.835-.007l-3.172 20.157a20.749 20.749 0 0 0-6.47.003Z" class="highcharts-point highcharts-color-1" tabindex="-1" aria-label="N, 1.78%. 0.5-2 m/s." style="outline:0"/><path d="M238.076 142.939a19.603 19.603 0 0 1 5.65 2.337l-6.518 10.66a7.107 7.107 0 0 0-2.049-.847Z" class="highcharts-point highcharts-color-1" tabindex="-1" aria-label="NNE, 1.09%. 0.5-2 m/s." style="outline:0"/><path d="M244.55 146.79a18.8 18.8 0 0 1 4.149 4.144l-7.6 5.533a9.4 9.4 0 0 0-2.074-2.072Z" class="highcharts-point highcharts-color-1" tabindex="-1" aria-label="NE, 0.82%. 0.5-2 m/s." style="outline:0"/><path d="M251.191 151.159a20.749 20.749 0 0 1 2.48 5.977l-13.596 3.279a6.763 6.763 0 0 0-.808-1.949Z" class="highcharts-point highcharts-color-1" tabindex="-1" aria-label="ENE, 1.22%. 0.5-2 m/s." style="outline:0"/><path d="M265.43 156.943a32.327 32.327 0 0 1 .004 10.082l-24.913-3.92a7.107 7.107 0 0 0-.001-2.217Z" class="highcharts-point highcharts-color-1" tabindex="-1" aria-label="E, 2.2%. 0.5-2 m/s." style="outline:0"/><path d="M269.504 170.644a37.027 37.027 0 0 1-4.414 10.671l-19.658-12.02a13.986 13.986 0 0 0 1.667-4.03Z" class="highcharts-point highcharts-color-1" tabindex="-1" aria-label="ESE, 2.01%. 0.5-2 m/s." style="outline:0"/><path d="M276.81 193.467a53.535 53.535 0 0 1-11.8 11.812l-20.647-28.358a18.456 18.456 0 0 0 4.068-4.073Z" class="highcharts-point highcharts-color-1" tabindex="-1" aria-label="SE, 3.06%. 0.5-2 m/s." style="outline:0"/><path d="M266.204 215.368a62.59 62.59 0 0 1-18.032 7.479l-9.19-38.113a23.386 23.386 0 0 0 6.737-2.794Z" class="highcharts-point highcharts-color-1" tabindex="-1" aria-label="SSE, 3.42%. 0.5-2 m/s." style="outline:0"/><path d="M246.77 245.786a84.83 84.83 0 0 1-26.457.013l8.447-53.677a30.493 30.493 0 0 0 9.51-.004Z" class="highcharts-point highcharts-color-1" tabindex="-1" aria-label="S, 4.74%. 0.5-2 m/s." style="outline:0"/><path d="M214.5 241.142a81.391 81.391 0 0 1-23.457-9.702l24.756-40.49a33.932 33.932 0 0 0 9.78 4.045Z" class="highcharts-point highcharts-color-1" tabindex="-1" aria-label="SSW, 4.14%. 0.5-2 m/s." style="outline:0"/><path d="M189.433 222.653a74.972 74.972 0 0 1-16.542-16.525l37.162-27.057a29.003 29.003 0 0 0 6.4 6.393Z" class="highcharts-point highcharts-color-1" tabindex="-1" aria-label="SW, 4.01%. 0.5-2 m/s." style="outline:0"/><path d="M188.245 189.732a53.076 53.076 0 0 1-6.342-15.29l29.643-7.148a22.583 22.583 0 0 0 2.699 6.506Z" class="highcharts-point highcharts-color-1" tabindex="-1" aria-label="WSW, 2.66%. 0.5-2 m/s." style="outline:0"/><path d="M195.57 168.008a38.403 38.403 0 0 1-.006-11.978l19.364 3.048a18.8 18.8 0 0 0 .003 5.863Z" class="highcharts-point highcharts-color-1" tabindex="-1" aria-label="W, 1.71%. 0.5-2 m/s." style="outline:0"/><path d="M192.034 152.045a42.644 42.644 0 0 1 5.083-12.29l23.473 14.352a15.132 15.132 0 0 0-1.804 4.36Z" class="highcharts-point highcharts-color-1" tabindex="-1" aria-label="WNW, 2.4%. 0.5-2 m/s." style="outline:0"/><path d="M179.153 122.515a67.176 67.176 0 0 1 14.807-14.822l28.88 39.664a18.112 18.112 0 0 0-3.993 3.997Z" class="highcharts-point highcharts-color-1" tabindex="-1" aria-label="NW, 4.28%. 0.5-2 m/s." style="outline:0"/><path d="M194.507 98.37a74.628 74.628 0 0 1 21.499-8.918l13.436 55.72a17.31 17.31 0 0 0-4.986 2.069Z" class="highcharts-point highcharts-color-1" tabindex="-1" aria-label="NNW, 5%. 0.5-2 m/s." style="outline:0"/></g><g class="highcharts-series highcharts-series-2 highcharts-column-series highcharts-color-2 highcharts-tracker highcharts-dense-data" data-z-index=".1" clip-path="url(#c)" aria-hidden="false" tabindex="-1" aria-label="2-4 m/s, bar series 3 of 7 with 16 bars." style="outline:0" fill="#90ed7d" transform="translate(10 61)"><path d="M226.775 119.541a42.988 42.988 0 0 1 13.407-.007l-.285 1.812a41.154 41.154 0 0 0-12.835.007Z" class="highcharts-point highcharts-color-2" tabindex="-1" aria-label="N, 0.16%. 2-4 m/s." style="outline:0"/><path d="M238.076 142.939a19.603 19.603 0 0 1 5.65 2.337 19.603 19.603 0 0 0-5.65-2.337Z" class="highcharts-point highcharts-color-2" tabindex="-1" aria-label="NNE, 0%. 2-4 m/s." style="outline:0"/><path d="M245.022 146.141a19.603 19.603 0 0 1 4.325 4.321l-.648.472a18.8 18.8 0 0 0-4.149-4.144Z" class="highcharts-point highcharts-color-2" tabindex="-1" aria-label="NE, 0.07%. 2-4 m/s." style="outline:0"/><path d="M251.876 150.74a21.551 21.551 0 0 1 2.575 6.208l-.78.188a20.749 20.749 0 0 0-2.48-5.977Z" class="highcharts-point highcharts-color-2" tabindex="-1" aria-label="ENE, 0.07%. 2-4 m/s." style="outline:0"/><path d="M270.977 156.064a37.944 37.944 0 0 1 .006 11.834l-5.549-.873a32.327 32.327 0 0 0-.005-10.082Z" class="highcharts-point highcharts-color-2" tabindex="-1" aria-label="E, 0.49%. 2-4 m/s." style="outline:0"/><path d="M286.782 174.792a54.796 54.796 0 0 1-6.532 15.792l-15.16-9.269a37.027 37.027 0 0 0 4.414-10.671Z" class="highcharts-point highcharts-color-2" tabindex="-1" aria-label="ESE, 1.55%. 2-4 m/s." style="outline:0"/><path d="M298.79 209.436a80.703 80.703 0 0 1-17.789 17.807l-15.99-21.964a53.535 53.535 0 0 0 11.8-11.812Z" class="highcharts-point highcharts-color-2" tabindex="-1" aria-label="SE, 2.37%. 2-4 m/s." style="outline:0"/><path d="M278.003 234.623a85.174 85.174 0 0 1-24.537 10.178l-5.294-21.954a62.59 62.59 0 0 0 18.032-7.48Z" class="highcharts-point highcharts-color-2" tabindex="-1" aria-label="SSE, 1.97%. 2-4 m/s." style="outline:0"/><path d="M247.541 250.654a89.76 89.76 0 0 1-27.994.014l.766-4.869a84.83 84.83 0 0 0 26.457-.013Z" class="highcharts-point highcharts-color-2" tabindex="-1" aria-label="S, 0.43%. 2-4 m/s." style="outline:0"/><path d="M213.804 244.04a84.372 84.372 0 0 1-24.316-10.057l1.555-2.543a81.391 81.391 0 0 0 23.457 9.702Z" class="highcharts-point highcharts-color-2" tabindex="-1" aria-label="SSW, 0.26%. 2-4 m/s." style="outline:0"/><path d="M181.212 233.968a88.957 88.957 0 0 1-19.627-19.608l11.306-8.232a74.972 74.972 0 0 0 16.542 16.525Z" class="highcharts-point highcharts-color-2" tabindex="-1" aria-label="SW, 1.22%. 2-4 m/s." style="outline:0"/><path d="M168.99 201.532a75.66 75.66 0 0 1-9.041-21.796l21.954-5.294a53.076 53.076 0 0 0 6.342 15.29Z" class="highcharts-point highcharts-color-2" tabindex="-1" aria-label="WSW, 1.97%. 2-4 m/s." style="outline:0"/><path d="M185.153 169.657a48.95 48.95 0 0 1-.007-15.266l10.418 1.64a38.403 38.403 0 0 0 .006 11.977Z" class="highcharts-point highcharts-color-2" tabindex="-1" aria-label="W, 0.92%. 2-4 m/s." style="outline:0"/><path d="M180.999 149.396a53.993 53.993 0 0 1 6.436-15.561l9.682 5.92a42.644 42.644 0 0 0-5.083 12.29Z" class="highcharts-point highcharts-color-2" tabindex="-1" aria-label="WNW, 0.99%. 2-4 m/s." style="outline:0"/><path d="M167.282 113.89a81.85 81.85 0 0 1 18.042-18.06l8.636 11.863a67.176 67.176 0 0 0-14.807 14.822Z" class="highcharts-point highcharts-color-2" tabindex="-1" aria-label="NW, 1.28%. 2-4 m/s." style="outline:0"/><path d="M186.6 85.467a89.76 89.76 0 0 1 25.859-10.725l3.547 14.71a74.628 74.628 0 0 0-21.499 8.917Z" class="highcharts-point highcharts-color-2" tabindex="-1" aria-label="NNW, 1.32%. 2-4 m/s." style="outline:0"/></g><g class="highcharts-series highcharts-series-3 highcharts-column-series highcharts-color-3 highcharts-tracker highcharts-dense-data" data-z-index=".1" clip-path="url(#d)" aria-hidden="false" tabindex="-1" aria-label="4-6 m/s, bar series 4 of 7 with 16 bars." style="outline:0" fill="#f7a35c" transform="translate(10 61)"><path d="M226.775 119.541a42.988 42.988 0 0 1 13.407-.007 42.988 42.988 0 0 0-13.407.007Z" class="highcharts-point highcharts-color-3" tabindex="-1" aria-label="N, 0%. 4-6 m/s." style="outline:0"/><path d="M238.076 142.939a19.603 19.603 0 0 1 5.65 2.337 19.603 19.603 0 0 0-5.65-2.337Z" class="highcharts-point highcharts-color-3" tabindex="-1" aria-label="NNE, 0%. 4-6 m/s." style="outline:0"/><path d="M245.022 146.141a19.603 19.603 0 0 1 4.325 4.321 19.603 19.603 0 0 0-4.325-4.32Z" class="highcharts-point highcharts-color-3" tabindex="-1" aria-label="NE, 0%. 4-6 m/s." style="outline:0"/><path d="M251.876 150.74a21.551 21.551 0 0 1 2.575 6.208 21.551 21.551 0 0 0-2.575-6.209Z" class="highcharts-point highcharts-color-3" tabindex="-1" aria-label="ENE, 0%. 4-6 m/s." style="outline:0"/><path d="M270.977 156.064a37.944 37.944 0 0 1 .006 11.834 37.944 37.944 0 0 0-.006-11.834Z" class="highcharts-point highcharts-color-3" tabindex="-1" aria-label="E, 0%. 4-6 m/s." style="outline:0"/><path d="M290.126 175.595a58.235 58.235 0 0 1-6.942 16.783l-2.934-1.794a54.796 54.796 0 0 0 6.532-15.792Z" class="highcharts-point highcharts-color-3" tabindex="-1" aria-label="ESE, 0.3%. 4-6 m/s." style="outline:0"/><path d="M318.637 223.856a105.235 105.235 0 0 1-23.196 23.22L281 227.242a80.703 80.703 0 0 0 17.79-17.807Z" class="highcharts-point highcharts-color-3" tabindex="-1" aria-label="SE, 2.14%. 4-6 m/s." style="outline:0"/><path d="M283.154 243.029a95.033 95.033 0 0 1-27.377 11.356l-2.31-9.584a85.174 85.174 0 0 0 24.536-10.178Z" class="highcharts-point highcharts-color-3" tabindex="-1" aria-label="SSE, 0.86%. 4-6 m/s." style="outline:0"/><path d="M247.541 250.654a89.76 89.76 0 0 1-27.994.014 89.76 89.76 0 0 0 27.994-.014Z" class="highcharts-point highcharts-color-3" tabindex="-1" aria-label="S, 0%. 4-6 m/s." style="outline:0"/><path d="M213.804 244.04a84.372 84.372 0 0 1-24.316-10.057 84.372 84.372 0 0 0 24.316 10.057Z" class="highcharts-point highcharts-color-3" tabindex="-1" aria-label="SSW, 0%. 4-6 m/s." style="outline:0"/><path d="M177.91 238.512a94.574 94.574 0 0 1-20.866-20.846l4.54-3.306a88.957 88.957 0 0 0 19.628 19.608Z" class="highcharts-point highcharts-color-3" tabindex="-1" aria-label="SW, 0.49%. 4-6 m/s." style="outline:0"/><path d="M161.268 206.264a84.716 84.716 0 0 1-10.123-24.405l8.804-2.123a75.66 75.66 0 0 0 9.04 21.796Z" class="highcharts-point highcharts-color-3" tabindex="-1" aria-label="WSW, 0.79%. 4-6 m/s." style="outline:0"/><path d="M168.736 172.258a65.571 65.571 0 0 1-.01-20.45l16.42 2.583a48.95 48.95 0 0 0 .007 15.266Z" class="highcharts-point highcharts-color-3" tabindex="-1" aria-label="W, 1.45%. 4-6 m/s." style="outline:0"/><path d="M163.052 145.087a72.45 72.45 0 0 1 8.637-20.88l15.746 9.628a53.993 53.993 0 0 0-6.436 15.56Z" class="highcharts-point highcharts-color-3" tabindex="-1" aria-label="WNW, 1.61%. 4-6 m/s." style="outline:0"/><path d="M160.234 108.769a90.562 90.562 0 0 1 19.962-19.982l5.128 7.043a81.85 81.85 0 0 0-18.042 18.06Z" class="highcharts-point highcharts-color-3" tabindex="-1" aria-label="NW, 0.76%. 4-6 m/s." style="outline:0"/><path d="M185.822 84.197a91.25 91.25 0 0 1 26.287-10.904l.35 1.449A89.76 89.76 0 0 0 186.6 85.467Z" class="highcharts-point highcharts-color-3" tabindex="-1" aria-label="NNW, 0.13%. 4-6 m/s." style="outline:0"/></g><g class="highcharts-series highcharts-series-4 highcharts-column-series highcharts-color-4 highcharts-tracker highcharts-dense-data" data-z-index=".1" clip-path="url(#e)" aria-hidden="false" tabindex="-1" aria-label="6-8 m/s, bar series 5 of 7 with 16 bars." style="outline:0" fill="#8085e9" transform="translate(10 61)"><path d="M226.775 119.541a42.988 42.988 0 0 1 13.407-.007 42.988 42.988 0 0 0-13.407.007Z" class="highcharts-point highcharts-color-4" tabindex="-1" aria-label="N, 0%. 6-8 m/s." style="outline:0"/><path d="M238.076 142.939a19.603 19.603 0 0 1 5.65 2.337 19.603 19.603 0 0 0-5.65-2.337Z" class="highcharts-point highcharts-color-4" tabindex="-1" aria-label="NNE, 0%. 6-8 m/s." style="outline:0"/><path d="M245.022 146.141a19.603 19.603 0 0 1 4.325 4.321 19.603 19.603 0 0 0-4.325-4.32Z" class="highcharts-point highcharts-color-4" tabindex="-1" aria-label="NE, 0%. 6-8 m/s." style="outline:0"/><path d="M251.876 150.74a21.551 21.551 0 0 1 2.575 6.208 21.551 21.551 0 0 0-2.575-6.209Z" class="highcharts-point highcharts-color-4" tabindex="-1" aria-label="ENE, 0%. 6-8 m/s." style="outline:0"/><path d="M270.977 156.064a37.944 37.944 0 0 1 .006 11.834 37.944 37.944 0 0 0-.006-11.834Z" class="highcharts-point highcharts-color-4" tabindex="-1" aria-label="E, 0%. 6-8 m/s." style="outline:0"/><path d="M291.575 175.943a59.725 59.725 0 0 1-7.12 17.212l-1.271-.777a58.235 58.235 0 0 0 6.942-16.783Z" class="highcharts-point highcharts-color-4" tabindex="-1" aria-label="ESE, 0.13%. 6-8 m/s." style="outline:0"/><path d="M334.774 235.58a125.182 125.182 0 0 1-27.593 27.62l-11.74-16.125a105.235 105.235 0 0 0 23.196-23.22Z" class="highcharts-point highcharts-color-4" tabindex="-1" aria-label="SE, 1.74%. 6-8 m/s." style="outline:0"/><path d="M286.329 248.21a101.108 101.108 0 0 1-29.127 12.081l-1.425-5.906a95.033 95.033 0 0 0 27.377-11.356Z" class="highcharts-point highcharts-color-4" tabindex="-1" aria-label="SSE, 0.53%. 6-8 m/s." style="outline:0"/><path d="M247.541 250.654a89.76 89.76 0 0 1-27.994.014 89.76 89.76 0 0 0 27.994-.014Z" class="highcharts-point highcharts-color-4" tabindex="-1" aria-label="S, 0%. 6-8 m/s." style="outline:0"/><path d="M213.804 244.04a84.372 84.372 0 0 1-24.316-10.057 84.372 84.372 0 0 0 24.316 10.057Z" class="highcharts-point highcharts-color-4" tabindex="-1" aria-label="SSW, 0%. 6-8 m/s." style="outline:0"/><path d="M177.035 239.718a96.064 96.064 0 0 1-21.196-21.175l1.205-.877a94.574 94.574 0 0 0 20.867 20.846Z" class="highcharts-point highcharts-color-4" tabindex="-1" aria-label="SW, 0.13%. 6-8 m/s." style="outline:0"/><path d="M158.336 208.06a88.155 88.155 0 0 1-10.534-25.395l3.343-.806a84.716 84.716 0 0 0 10.123 24.405Z" class="highcharts-point highcharts-color-4" tabindex="-1" aria-label="WSW, 0.3%. 6-8 m/s." style="outline:0"/><path d="M165.792 172.724a68.552 68.552 0 0 1-.01-21.38l2.944.463a65.571 65.571 0 0 0 .01 20.45Z" class="highcharts-point highcharts-color-4" tabindex="-1" aria-label="W, 0.26%. 6-8 m/s." style="outline:0"/><path d="M159.374 144.204a76.233 76.233 0 0 1 9.087-21.97l3.228 1.973a72.45 72.45 0 0 0-8.637 20.88Z" class="highcharts-point highcharts-color-4" tabindex="-1" aria-label="WNW, 0.33%. 6-8 m/s." style="outline:0"/><path d="M154.113 104.322a98.128 98.128 0 0 1 21.63-21.651l4.453 6.116a90.562 90.562 0 0 0-19.962 19.982Z" class="highcharts-point highcharts-color-4" tabindex="-1" aria-label="NW, 0.66%. 6-8 m/s." style="outline:0"/><path d="M184.445 81.949a93.886 93.886 0 0 1 27.046-11.22l.618 2.564a91.25 91.25 0 0 0-26.287 10.904Z" class="highcharts-point highcharts-color-4" tabindex="-1" aria-label="NNW, 0.23%. 6-8 m/s." style="outline:0"/></g><g class="highcharts-series highcharts-series-5 highcharts-column-series highcharts-color-5 highcharts-tracker highcharts-dense-data" data-z-index=".1" clip-path="url(#f)" aria-hidden="false" tabindex="-1" aria-label="8-10 m/s, bar series 6 of 7 with 16 bars." style="outline:0" fill="#f15c80" transform="translate(10 61)"><path d="M226.775 119.541a42.988 42.988 0 0 1 13.407-.007 42.988 42.988 0 0 0-13.407.007Z" class="highcharts-point highcharts-color-5" tabindex="-1" aria-label="N, 0%. 8-10 m/s." style="outline:0"/><path d="M238.076 142.939a19.603 19.603 0 0 1 5.65 2.337 19.603 19.603 0 0 0-5.65-2.337Z" class="highcharts-point highcharts-color-5" tabindex="-1" aria-label="NNE, 0%. 8-10 m/s." style="outline:0"/><path d="M245.022 146.141a19.603 19.603 0 0 1 4.325 4.321 19.603 19.603 0 0 0-4.325-4.32Z" class="highcharts-point highcharts-color-5" tabindex="-1" aria-label="NE, 0%. 8-10 m/s." style="outline:0"/><path d="M251.876 150.74a21.551 21.551 0 0 1 2.575 6.208 21.551 21.551 0 0 0-2.575-6.209Z" class="highcharts-point highcharts-color-5" tabindex="-1" aria-label="ENE, 0%. 8-10 m/s." style="outline:0"/><path d="M270.977 156.064a37.944 37.944 0 0 1 .006 11.834 37.944 37.944 0 0 0-.006-11.834Z" class="highcharts-point highcharts-color-5" tabindex="-1" aria-label="E, 0%. 8-10 m/s." style="outline:0"/><path d="M291.575 175.943a59.725 59.725 0 0 1-7.12 17.212 59.725 59.725 0 0 0 7.12-17.212Z" class="highcharts-point highcharts-color-5" tabindex="-1" aria-label="ESE, 0%. 8-10 m/s." style="outline:0"/><path d="M338.391 238.208a129.653 129.653 0 0 1-28.578 28.607l-2.632-3.614a125.182 125.182 0 0 0 27.593-27.621Z" class="highcharts-point highcharts-color-5" tabindex="-1" aria-label="SE, 0.39%. 8-10 m/s." style="outline:0"/><path d="M289.264 252.998a106.726 106.726 0 0 1-30.746 12.754l-1.316-5.46a101.108 101.108 0 0 0 29.127-12.083Z" class="highcharts-point highcharts-color-5" tabindex="-1" aria-label="SSE, 0.49%. 8-10 m/s." style="outline:0"/><path d="M247.541 250.654a89.76 89.76 0 0 1-27.994.014 89.76 89.76 0 0 0 27.994-.014Z" class="highcharts-point highcharts-color-5" tabindex="-1" aria-label="S, 0%. 8-10 m/s." style="outline:0"/><path d="M213.804 244.04a84.372 84.372 0 0 1-24.316-10.057 84.372 84.372 0 0 0 24.316 10.057Z" class="highcharts-point highcharts-color-5" tabindex="-1" aria-label="SSW, 0%. 8-10 m/s." style="outline:0"/><path d="M177.035 239.718a96.064 96.064 0 0 1-21.196-21.175 96.064 96.064 0 0 0 21.196 21.175Z" class="highcharts-point highcharts-color-5" tabindex="-1" aria-label="SW, 0%. 8-10 m/s." style="outline:0"/><path d="M158.336 208.06a88.155 88.155 0 0 1-10.534-25.395 88.155 88.155 0 0 0 10.534 25.396Z" class="highcharts-point highcharts-color-5" tabindex="-1" aria-label="WSW, 0%. 8-10 m/s." style="outline:0"/><path d="M164.66 172.903a69.698 69.698 0 0 1-.011-21.737l1.132.178a68.552 68.552 0 0 0 .011 21.38Z" class="highcharts-point highcharts-color-5" tabindex="-1" aria-label="W, 0.1%. 8-10 m/s." style="outline:0"/><path d="M159.374 144.204a76.233 76.233 0 0 1 9.087-21.97 76.233 76.233 0 0 0-9.087 21.97Z" class="highcharts-point highcharts-color-5" tabindex="-1" aria-label="WNW, 0%. 8-10 m/s." style="outline:0"/><path d="M147.714 99.673a106.038 106.038 0 0 1 23.373-23.397l4.656 6.395a98.128 98.128 0 0 0-21.63 21.65Z" class="highcharts-point highcharts-color-5" tabindex="-1" aria-label="NW, 0.69%. 8-10 m/s." style="outline:0"/><path d="M183.666 80.678a95.377 95.377 0 0 1 27.476-11.397l.35 1.449a93.886 93.886 0 0 0-27.047 11.219Z" class="highcharts-point highcharts-color-5" tabindex="-1" aria-label="NNW, 0.13%. 8-10 m/s." style="outline:0"/></g><g class="highcharts-series highcharts-series-6 highcharts-column-series highcharts-color-6 highcharts-tracker highcharts-dense-data" data-z-index=".1" clip-path="url(#g)" aria-hidden="false" tabindex="-1" aria-label="&amp;gt; 10 m/s, bar series 7 of 7 with 16 bars." style="outline:0" fill="#e4d354" transform="translate(10 61)"><path d="M226.775 119.541a42.988 42.988 0 0 1 13.407-.007 42.988 42.988 0 0 0-13.407.007Z" class="highcharts-point highcharts-color-6" tabindex="-1" aria-label="N, 0%. &amp;gt; 10 m/s." style="outline:0"/><path d="M238.076 142.939a19.603 19.603 0 0 1 5.65 2.337 19.603 19.603 0 0 0-5.65-2.337Z" class="highcharts-point highcharts-color-6" tabindex="-1" aria-label="NNE, 0%. &amp;gt; 10 m/s." style="outline:0"/><path d="M245.022 146.141a19.603 19.603 0 0 1 4.325 4.321 19.603 19.603 0 0 0-4.325-4.32Z" class="highcharts-point highcharts-color-6" tabindex="-1" aria-label="NE, 0%. &amp;gt; 10 m/s." style="outline:0"/><path d="M251.876 150.74a21.551 21.551 0 0 1 2.575 6.208 21.551 21.551 0 0 0-2.575-6.209Z" class="highcharts-point highcharts-color-6" tabindex="-1" aria-label="ENE, 0%. &amp;gt; 10 m/s." style="outline:0"/><path d="M270.977 156.064a37.944 37.944 0 0 1 .006 11.834 37.944 37.944 0 0 0-.006-11.834Z" class="highcharts-point highcharts-color-6" tabindex="-1" aria-label="E, 0%. &amp;gt; 10 m/s." style="outline:0"/><path d="M291.575 175.943a59.725 59.725 0 0 1-7.12 17.212 59.725 59.725 0 0 0 7.12-17.212Z" class="highcharts-point highcharts-color-6" tabindex="-1" aria-label="ESE, 0%. &amp;gt; 10 m/s." style="outline:0"/><path d="M339.597 239.084a131.143 131.143 0 0 1-28.907 28.936l-.877-1.205a129.653 129.653 0 0 0 28.578-28.607Z" class="highcharts-point highcharts-color-6" tabindex="-1" aria-label="SE, 0.13%. &amp;gt; 10 m/s." style="outline:0"/><path d="M289.264 252.998a106.726 106.726 0 0 1-30.746 12.754 106.726 106.726 0 0 0 30.746-12.754Z" class="highcharts-point highcharts-color-6" tabindex="-1" aria-label="SSE, 0%. &amp;gt; 10 m/s." style="outline:0"/><path d="M247.541 250.654a89.76 89.76 0 0 1-27.994.014 89.76 89.76 0 0 0 27.994-.014Z" class="highcharts-point highcharts-color-6" tabindex="-1" aria-label="S, 0%. &amp;gt; 10 m/s." style="outline:0"/><path d="M213.804 244.04a84.372 84.372 0 0 1-24.316-10.057 84.372 84.372 0 0 0 24.316 10.057Z" class="highcharts-point highcharts-color-6" tabindex="-1" aria-label="SSW, 0%. &amp;gt; 10 m/s." style="outline:0"/><path d="M177.035 239.718a96.064 96.064 0 0 1-21.196-21.175 96.064 96.064 0 0 0 21.196 21.175Z" class="highcharts-point highcharts-color-6" tabindex="-1" aria-label="SW, 0%. &amp;gt; 10 m/s." style="outline:0"/><path d="M158.336 208.06a88.155 88.155 0 0 1-10.534-25.395 88.155 88.155 0 0 0 10.534 25.396Z" class="highcharts-point highcharts-color-6" tabindex="-1" aria-label="WSW, 0%. &amp;gt; 10 m/s." style="outline:0"/><path d="M164.66 172.903a69.698 69.698 0 0 1-.011-21.737 69.698 69.698 0 0 0 .01 21.737Z" class="highcharts-point highcharts-color-6" tabindex="-1" aria-label="W, 0%. &amp;gt; 10 m/s." style="outline:0"/><path d="M159.374 144.204a76.233 76.233 0 0 1 9.087-21.97 76.233 76.233 0 0 0-9.087 21.97Z" class="highcharts-point highcharts-color-6" tabindex="-1" aria-label="WNW, 0%. &amp;gt; 10 m/s." style="outline:0"/><path d="M147.435 99.47a106.382 106.382 0 0 1 23.45-23.472l.202.278a106.038 106.038 0 0 0-23.373 23.397Z" class="highcharts-point highcharts-color-6" tabindex="-1" aria-label="NW, 0.03%. &amp;gt; 10 m/s." style="outline:0"/><path d="M183.247 79.994A96.18 96.18 0 0 1 210.954 68.5l.188.78a95.377 95.377 0 0 0-27.476 11.397Z" class="highcharts-point highcharts-color-6" tabindex="-1" aria-label="NNW, 0.07%. &amp;gt; 10 m/s." style="outline:0"/></g></g><text x="10" class="highcharts-title" data-z-index="4" style="color:#333;font-size:18px;fill:#333" y="24" aria-hidden="true">Wind rose for South Shore Met Station, Oregon</text><text x="10" class="highcharts-subtitle" data-z-index="4" style="color:#666;fill:#666" y="46" aria-hidden="true">Source: or.water.usgs.gov</text><g class="highcharts-legend highcharts-no-tooltip" data-z-index="7" transform="translate(489 110)" aria-hidden="true"><rect fill="none" class="highcharts-legend-box" rx="0" ry="0" width="100" height="116"/><g data-z-index="1"><g class="highcharts-legend-item highcharts-column-series highcharts-color-0 highcharts-series-0" data-z-index="1" transform="translate(8 3)"><text x="21" data-z-index="2" y="15" style="color:#333;cursor:pointer;font-size:12px;font-weight:700;fill:#333">&lt; 0.5 m/s</text><rect x="2" y="4" width="12" height="12" fill="#7cb5ec" rx="6" ry="6" class="highcharts-point" data-z-index="3"/></g><g class="highcharts-legend-item highcharts-column-series highcharts-color-1 highcharts-series-1" data-z-index="1" transform="translate(8 18)"><text x="21" y="15" data-z-index="2" style="color:#333;cursor:pointer;font-size:12px;font-weight:700;fill:#333">0.5-2 m/s</text><rect x="2" y="4" width="12" height="12" fill="#434348" rx="6" ry="6" class="highcharts-point" data-z-index="3"/></g><g class="highcharts-legend-item highcharts-column-series highcharts-color-2 highcharts-series-2" data-z-index="1" transform="translate(8 33)"><text x="21" y="15" data-z-index="2" style="color:#333;cursor:pointer;font-size:12px;font-weight:700;fill:#333">2-4 m/s</text><rect x="2" y="4" width="12" height="12" fill="#90ed7d" rx="6" ry="6" class="highcharts-point" data-z-index="3"/></g><g class="highcharts-legend-item highcharts-column-series highcharts-color-3 highcharts-series-3" data-z-index="1" transform="translate(8 48)"><text x="21" y="15" data-z-index="2" style="color:#333;cursor:pointer;font-size:12px;font-weight:700;fill:#333">4-6 m/s</text><rect x="2" y="4" width="12" height="12" fill="#f7a35c" rx="6" ry="6" class="highcharts-point" data-z-index="3"/></g><g class="highcharts-legend-item highcharts-column-series highcharts-color-4 highcharts-series-4" data-z-index="1" transform="translate(8 63)"><text x="21" y="15" data-z-index="2" style="color:#333;cursor:pointer;font-size:12px;font-weight:700;fill:#333">6-8 m/s</text><rect x="2" y="4" width="12" height="12" fill="#8085e9" rx="6" ry="6" class="highcharts-point" data-z-index="3"/></g><g class="highcharts-legend-item highcharts-column-series highcharts-color-5 highcharts-series-5" data-z-index="1" transform="translate(8 78)"><text x="21" y="15" data-z-index="2" style="color:#333;cursor:pointer;font-size:12px;font-weight:700;fill:#333">8-10 m/s</text><rect x="2" y="4" width="12" height="12" fill="#f15c80" rx="6" ry="6" class="highcharts-point" data-z-index="3"/></g><g class="highcharts-legend-item highcharts-column-series highcharts-color-6 highcharts-series-6" data-z-index="1" transform="translate(8 93)"><text x="21" y="15" data-z-index="2" style="color:#333;cursor:pointer;font-size:12px;font-weight:700;fill:#333">&gt; 10 m/s</text><rect x="2" y="4" width="12" height="12" fill="#e4d354" rx="6" ry="6" class="highcharts-point" data-z-index="3"/></g></g></g><g class="highcharts-axis-labels highcharts-xaxis-labels highcharts-radial-axis-labels" data-z-index="7" aria-hidden="true"><text x="243.5" style="color:#666;cursor:default;font-size:11px;fill:#666" text-anchor="middle" y="74.8">N</text><text x="301.936" style="color:#666;cursor:default;font-size:11px;fill:#666" y="86.424">NNE</text><text x="351.475" style="color:#666;cursor:default;font-size:11px;fill:#666" y="119.525">NE</text><text x="384.576" style="color:#666;cursor:default;font-size:11px;fill:#666" y="169.064">ENE</text><text x="396.2" style="color:#666;cursor:default;font-size:11px;fill:#666" y="227.5">E</text><text x="384.576" style="color:#666;cursor:default;font-size:11px;fill:#666" y="285.936">ESE</text><text x="351.475" style="color:#666;cursor:default;font-size:11px;fill:#666" y="335.475">SE</text><text x="301.936" style="color:#666;cursor:default;font-size:11px;fill:#666" y="368.576">SSE</text><text x="243.5" style="color:#666;cursor:default;font-size:11px;fill:#666" text-anchor="middle" y="380.2">S</text><text x="185.064" style="color:#666;cursor:default;font-size:11px;fill:#666" text-anchor="end" y="368.576">SSW</text><text x="135.525" style="color:#666;cursor:default;font-size:11px;fill:#666" text-anchor="end" y="335.475">SW</text><text x="102.424" style="color:#666;cursor:default;font-size:11px;fill:#666" text-anchor="end" y="285.936">WSW</text><text x="90.8" style="color:#666;cursor:default;font-size:11px;fill:#666" text-anchor="end" y="227.5">W</text><text x="102.424" style="color:#666;cursor:default;font-size:11px;fill:#666" text-anchor="end" y="169.064">WNW</text><text x="135.525" style="color:#666;cursor:default;font-size:11px;fill:#666" text-anchor="end" y="119.525">NW</text><text x="185.064" style="color:#666;cursor:default;font-size:11px;fill:#666" text-anchor="end" y="86.424">NNW</text></g><g class="highcharts-axis-labels highcharts-yaxis-labels highcharts-radial-axis-labels" data-z-index="7" aria-hidden="true" text-anchor="end"><text x="240.5" style="color:#666;cursor:default;font-size:11px;fill:#666" y="221">0%</text><text x="240.5" style="color:#666;cursor:default;font-size:11px;fill:#666" y="163.682">5%</text><text x="240.5" style="color:#666;cursor:default;font-size:11px;fill:#666" y="106.365">10%</text></g></svg>