<svg class="highcharts-root" style="font-family:&quot;Lucida Grande&quot;,&quot;Lucida Sans Unicode&quot;,Arial,Helvetica,sans-serif;font-size:12px" xmlns="http://www.w3.org/2000/svg" width="600" height="400" aria-label="Interactive chart" aria-hidden="false"><defs aria-hidden="true"><clipPath id="a"><path fill="none" d="M0 0h389v284H0z"/></clipPath></defs><rect fill="#fff" class="highcharts-background" width="600" height="400" rx="0" ry="0" aria-hidden="true"/><path fill="none" class="highcharts-plot-background" aria-hidden="true" d="M70 61h389v284H70z"/><g class="highcharts-grid highcharts-xaxis-grid" data-z-index="1" aria-hidden="true" fill="none" stroke="#e6e6e6"><path data-z-index="1" class="highcharts-grid-line" d="M69.5 61v284m65-284v284m65-284v284m65-284v284m64-284v284m65-284v284m66-284v284"/></g><g class="highcharts-grid highcharts-yaxis-grid" data-z-index="1" aria-hidden="true" fill="none" stroke="#e6e6e6"><path data-z-index="1" class="highcharts-grid-line" d="M70 345.5h389m-389-57h389m-389-57h389m-389-56h389m-389-57h389m-389-58h389"/></g><path fill="none" class="highcharts-plot-border" data-z-index="1" aria-hidden="true" d="M70 61h389v284H70z"/><g class="highcharts-axis highcharts-xaxis" data-z-index="2" aria-hidden="true"><path fill="none" class="highcharts-tick" stroke="#ccd6eb" d="M69.5 345v10m65-10v10m65-10v10m65-10v10m64-10v10m65-10v10m66-10v10"/><text x="264.5" data-z-index="7" text-anchor="middle" class="highcharts-axis-title" style="color:#666;fill:#666" y="383">Height (cm)</text><path fill="none" class="highcharts-axis-line" stroke="#ccd6eb" data-z-index="7" d="M70 345.5h389"/></g><g class="highcharts-axis highcharts-yaxis" data-z-index="2" aria-hidden="true"><text x="24.133" data-z-index="7" text-anchor="middle" transform="rotate(-90 24.133 203)" class="highcharts-axis-title" style="color:#666;fill:#666" y="203">Weight (kg)</text><path fill="none" class="highcharts-axis-line" data-z-index="7" d="M70 61v284"/></g><g class="highcharts-series-group" data-z-index="3" aria-hidden="false"><g class="highcharts-series highcharts-series-0 highcharts-polygon-series" data-z-index=".1" clip-path="url(#a)" aria-hidden="true" transform="translate(70 61)"><path fill="rgba(124,181,236,0.5)" d="m103.733 221.52-12.966-11.36V184.6l12.966-25.56L116.7 142l77.8-56.8 142.633-28.4L350.1 85.2 233.4 193.12 142.633 213Z" class="highcharts-area" data-z-index="0"/><path fill="none" d="m103.733 221.52-12.966-11.36V184.6l12.966-25.56L116.7 142l77.8-56.8 142.633-28.4L350.1 85.2 233.4 193.12 142.633 213Z" class="highcharts-graph" data-z-index="1"/></g><g class="highcharts-markers highcharts-series-1 highcharts-scatter-series highcharts-tracker" data-z-index=".1" aria-hidden="false" tabindex="-1" aria-label="Observations, series 2 of 2, scatter plot with 55 points." style="outline:0" fill="#434348"><path d="m376 87.164 4 4-4 4-4-4Z" class="highcharts-point" tabindex="-1" aria-label="Netherlands, 87.9. Observations." style="outline:0" transform="translate(70 61)"/><path d="m363 80.064 4 4-4 4-4-4Z" class="highcharts-point" tabindex="-1" aria-label="Montenegro, 90.4. Observations." style="outline:0" transform="translate(70 61)"/><path d="m350 81.484 4 4-4 4-4-4Z" class="highcharts-point" tabindex="-1" aria-label="Estonia, 89.9. Observations." style="outline:0" transform="translate(70 61)"/><path d="m350 90.288 4 4-4 4-4-4Z" class="highcharts-point" tabindex="-1" aria-label="Denmark, 86.8. Observations." style="outline:0" transform="translate(70 61)"/><path d="m337 83.472 4 4-4 4-4-4Z" class="highcharts-point" tabindex="-1" aria-label="Iceland, 89.2. Observations." style="outline:0" transform="translate(70 61)"/><path d="m337 81.484 4 4-4 4-4-4Z" class="highcharts-point" tabindex="-1" aria-label="Czechia, 89.9. Observations." style="outline:0" transform="translate(70 61)"/><path d="m324 81.484 4 4-4 4-4-4Z" class="highcharts-point" tabindex="-1" aria-label="Serbia, 89.9. Observations." style="outline:0" transform="translate(70 61)"/><path d="m324 81.484 4 4-4 4-4-4Z" class="highcharts-point" tabindex="-1" aria-label="Sweden, 89.9. Observations." style="outline:0" transform="translate(70 61)"/><path d="m324 83.756 4 4-4 4-4-4Z" class="highcharts-point" tabindex="-1" aria-label="Norway, 89.1. Observations." style="outline:0" transform="translate(70 61)"/><path d="m324 107.612 4 4-4 4-4-4Z" class="highcharts-point" tabindex="-1" aria-label="Dominica, 80.7. Observations." style="outline:0" transform="translate(70 61)"/><path d="m324 91.708 4 4-4 4-4-4Z" class="highcharts-point" tabindex="-1" aria-label="Finland, 86.3. Observations." style="outline:0" transform="translate(70 61)"/><path d="m311 85.744 4 4-4 4-4-4Z" class="highcharts-point" tabindex="-1" aria-label="Bermuda, 88.4. Observations." style="outline:0" transform="translate(70 61)"/><path d="m311 79.212 4 4-4 4-4-4Z" class="highcharts-point" tabindex="-1" aria-label="Puerto Rico, 90.7. Observations." style="outline:0" transform="translate(70 61)"/><path d="m298 97.956 4 4-4 4-4-4Z" class="highcharts-point" tabindex="-1" aria-label="Belarus, 84.1. Observations." style="outline:0" transform="translate(70 61)"/><path d="m298 42.292 4 4-4 4-4-4Z" class="highcharts-point" tabindex="-1" aria-label="Cook Islands, 103.7. Observations." style="outline:0" transform="translate(70 61)"/><path d="m285 56.208 4 4-4 4-4-4Z" class="highcharts-point" tabindex="-1" aria-label="Niue, 98.8. Observations." style="outline:0" transform="translate(70 61)"/><path d="m285 43.712 4 4-4 4-4-4Z" class="highcharts-point" tabindex="-1" aria-label="American Samoa, 103.2. Observations." style="outline:0" transform="translate(70 61)"/><path d="m272 108.748 4 4-4 4-4-4Z" class="highcharts-point" tabindex="-1" aria-label="Russia, 80.3. Observations." style="outline:0" transform="translate(70 61)"/><path d="m272 78.076 4 4-4 4-4-4Z" class="highcharts-point" tabindex="-1" aria-label="Saint Lucia, 91.1. Observations." style="outline:0" transform="translate(70 61)"/><path d="m259 146.52 4 4-4 4-4-4Z" class="highcharts-point" tabindex="-1" aria-label="Senegal, 67. Observations." style="outline:0" transform="translate(70 61)"/><path d="m259 70.692 4 4-4 4-4-4Z" class="highcharts-point" tabindex="-1" aria-label="Tonga, 93.7. Observations." style="outline:0" transform="translate(70 61)"/><path d="m246 124.936 4 4-4 4-4-4Z" class="highcharts-point" tabindex="-1" aria-label="Algeria, 74.6. Observations." style="outline:0" transform="translate(70 61)"/><path d="m246 96.252 4 4-4 4-4-4Z" class="highcharts-point" tabindex="-1" aria-label="Argentina, 84.7. Observations." style="outline:0" transform="translate(70 61)"/><path d="m246 111.02 4 4-4 4-4-4Z" class="highcharts-point" tabindex="-1" aria-label="Portugal, 79.5. Observations." style="outline:0" transform="translate(70 61)"/><path d="m233 127.776 4 4-4 4-4-4Z" class="highcharts-point" tabindex="-1" aria-label="Mauritius, 73.6. Observations." style="outline:0" transform="translate(70 61)"/><path d="m233 76.088 4 4-4 4-4-4Z" class="highcharts-point" tabindex="-1" aria-label="Samoa, 91.8. Observations." style="outline:0" transform="translate(70 61)"/><path d="m220 139.42 4 4-4 4-4-4Z" class="highcharts-point" tabindex="-1" aria-label="Japan, 69.5. Observations." style="outline:0" transform="translate(70 61)"/><path d="m220 126.64 4 4-4 4-4-4Z" class="highcharts-point" tabindex="-1" aria-label="Bahrain, 74. Observations." style="outline:0" transform="translate(70 61)"/><path d="m207 154.756 4 4-4 4-4-4Z" class="highcharts-point" tabindex="-1" aria-label="Chad, 64.1. Observations." style="outline:0" transform="translate(70 61)"/><path d="m207 86.88 4 4-4 4-4-4Z" class="highcharts-point" tabindex="-1" aria-label="Tuvalu, 88. Observations." style="outline:0" transform="translate(70 61)"/><path d="m207 144.248 4 4-4 4-4-4Z" class="highcharts-point" tabindex="-1" aria-label="Sudan, 67.8. Observations." style="outline:0" transform="translate(70 61)"/><path d="m194 169.808 4 4-4 4-4-4Z" class="highcharts-point" tabindex="-1" aria-label="Eritrea, 58.8. Observations." style="outline:0" transform="translate(70 61)"/><path d="m194 155.324 4 4-4 4-4-4Z" class="highcharts-point" tabindex="-1" aria-label="Kenya, 63.9. Observations." style="outline:0" transform="translate(70 61)"/><path d="m194 124.652 4 4-4 4-4-4Z" class="highcharts-point" tabindex="-1" aria-label="Mongolia, 74.7. Observations." style="outline:0" transform="translate(70 61)"/><path d="m194 151.916 4 4-4 4-4-4Z" class="highcharts-point" tabindex="-1" aria-label="Nigeria, 65.1. Observations." style="outline:0" transform="translate(70 61)"/><path d="m181 72.68 4 4-4 4-4-4Z" class="highcharts-point" tabindex="-1" aria-label="Nauru, 93. Observations." style="outline:0" transform="translate(70 61)"/><path d="m181 106.476 4 4-4 4-4-4Z" class="highcharts-point" tabindex="-1" aria-label="Micronesia, 81.1. Observations." style="outline:0" transform="translate(70 61)"/><path d="m181 152.484 4 4-4 4-4-4Z" class="highcharts-point" tabindex="-1" aria-label="Ghana, 64.9. Observations." style="outline:0" transform="translate(70 61)"/><path d="m181 132.604 4 4-4 4-4-4Z" class="highcharts-point" tabindex="-1" aria-label="South Africa, 71.9. Observations." style="outline:0" transform="translate(70 61)"/><path d="m168 162.992 4 4-4 4-4-4Z" class="highcharts-point" tabindex="-1" aria-label="Vietnam, 61.2. Observations." style="outline:0" transform="translate(70 61)"/><path d="m168 149.644 4 4-4 4-4-4Z" class="highcharts-point" tabindex="-1" aria-label="Ivory Coast, 65.9. Observations." style="outline:0" transform="translate(70 61)"/><path d="m168 140.272 4 4-4 4-4-4Z" class="highcharts-point" tabindex="-1" aria-label="Maldives, 69.2. Observations." style="outline:0" transform="translate(70 61)"/><path d="m168 176.34 4 4-4 4-4-4Z" class="highcharts-point" tabindex="-1" aria-label="Ethiopia, 56.5. Observations." style="outline:0" transform="translate(70 61)"/><path d="m155 126.072 4 4-4 4-4-4Z" class="highcharts-point" tabindex="-1" aria-label="Ecuador, 74.2. Observations." style="outline:0" transform="translate(70 61)"/><path d="m155 164.98 4 4-4 4-4-4Z" class="highcharts-point" tabindex="-1" aria-label="Burundi, 60.5. Observations." style="outline:0" transform="translate(70 61)"/><path d="m142 139.136 4 4-4 4-4-4Z" class="highcharts-point" tabindex="-1" aria-label="India, 69.6. Observations." style="outline:0" transform="translate(70 61)"/><path d="m142 124.652 4 4-4 4-4-4Z" class="highcharts-point" tabindex="-1" aria-label="Brunei, 74.7. Observations." style="outline:0" transform="translate(70 61)"/><path d="m129 172.932 4 4-4 4-4-4Z" class="highcharts-point" tabindex="-1" aria-label="Bangladesh, 57.7. Observations." style="outline:0" transform="translate(70 61)"/><path d="m129 170.944 4 4-4 4-4-4Z" class="highcharts-point" tabindex="-1" aria-label="Madagascar, 58.4. Observations." style="outline:0" transform="translate(70 61)"/><path d="m129 161.288 4 4-4 4-4-4Z" class="highcharts-point" tabindex="-1" aria-label="Philippines, 61.8. Observations." style="outline:0" transform="translate(70 61)"/><path d="m116 164.98 4 4-4 4-4-4Z" class="highcharts-point" tabindex="-1" aria-label="Nepal, 60.5. Observations." style="outline:0" transform="translate(70 61)"/><path d="m116 140.556 4 4-4 4-4-4Z" class="highcharts-point" tabindex="-1" aria-label="Guatemala, 69.1. Observations." style="outline:0" transform="translate(70 61)"/><path d="m103 159.3 4 4-4 4-4-4Z" class="highcharts-point" tabindex="-1" aria-label="Yemen, 62.5. Observations." style="outline:0" transform="translate(70 61)"/><path d="m90 167.82 4 4-4 4-4-4Z" class="highcharts-point" tabindex="-1" aria-label="Laos, 59.5. Observations." style="outline:0" transform="translate(70 61)"/><path d="m51 183.724 4 4-4 4-4-4Z" class="highcharts-point" tabindex="-1" aria-label="Timor-Leste, 53.9. Observations." style="outline:0" transform="translate(70 61)"/></g></g><text x="300" text-anchor="middle" class="highcharts-title" data-z-index="4" style="color:#333;font-size:18px;fill:#333" y="24" aria-hidden="true">Average height and weight for men by country</text><text x="300" text-anchor="middle" class="highcharts-subtitle" data-z-index="4" style="color:#666;fill:#666" y="46" aria-hidden="true">Source: <a target="_blank"><tspan>WorldData</tspan></a></text><g class="highcharts-legend highcharts-no-tooltip" data-z-index="7" transform="translate(471 177)" aria-hidden="true"><rect fill="none" class="highcharts-legend-box" rx="0" ry="0" width="119" height="41"/><g data-z-index="1"><g class="highcharts-legend-item highcharts-polygon-series highcharts-color-undefined highcharts-series-0" data-z-index="1" transform="translate(8 3)"><text x="21" data-z-index="2" y="15" style="color:#333;cursor:pointer;font-size:12px;font-weight:700;fill:#333">Target</text><rect x="2" y="4" width="12" height="12" fill="rgba(124,181,236,0.5)" rx="6" ry="6" class="highcharts-point" data-z-index="3"/></g><g class="highcharts-legend-item highcharts-scatter-series highcharts-color-undefined highcharts-series-1" data-z-index="1"><path fill="none" d="M8 29h16" class="highcharts-graph"/><path fill="#434348" d="m16 25 4 4-4 4-4-4Z" class="highcharts-point"/><text x="21" y="15" data-z-index="2" style="color:#333;cursor:pointer;font-size:12px;font-weight:700;fill:#333" transform="translate(8 18)">Observations</text></g></g></g><g class="highcharts-axis-labels highcharts-xaxis-labels" data-z-index="7" aria-hidden="true" text-anchor="middle"><text x="70" style="color:#666;cursor:default;font-size:11px;fill:#666" y="364">155</text><text x="134.833" style="color:#666;cursor:default;font-size:11px;fill:#666" y="364">160</text><text x="199.667" style="color:#666;cursor:default;font-size:11px;fill:#666" y="364">165</text><text x="264.5" style="color:#666;cursor:default;font-size:11px;fill:#666" y="364">170</text><text x="329.333" style="color:#666;cursor:default;font-size:11px;fill:#666" y="364">175</text><text x="394.167" style="color:#666;cursor:default;font-size:11px;fill:#666" y="364">180</text><text x="459" style="color:#666;cursor:default;font-size:11px;fill:#666" y="364">185</text></g><g class="highcharts-axis-labels highcharts-yaxis-labels" data-z-index="7" aria-hidden="true" text-anchor="end"><text x="55" style="color:#666;cursor:default;font-size:11px;fill:#666" y="350">20</text><text x="55" style="color:#666;cursor:default;font-size:11px;fill:#666" y="293">40</text><text x="55" style="color:#666;cursor:default;font-size:11px;fill:#666" y="236">60</text><text x="55" style="color:#666;cursor:default;font-size:11px;fill:#666" y="179">80</text><text x="55" style="color:#666;cursor:default;font-size:11px;fill:#666" y="122">100</text><text x="55" style="color:#666;cursor:default;font-size:11px;fill:#666" y="66">120</text></g></svg>