<svg class="highcharts-root" style="font-family:&quot;Lucida Grande&quot;,&quot;Lucida Sans Unicode&quot;,Arial,Helvetica,sans-serif;font-size:12px" xmlns="http://www.w3.org/2000/svg" width="600" height="400" aria-label="Interactive chart" aria-hidden="false"><defs aria-hidden="true"><linearGradient x1="119.07" x2="460.93" y1="327.641" y2="327.641" id="b" gradientUnits="userSpaceOnUse"><stop offset="0" stop-color="#4982B9"/><stop offset=".5" stop-color="#7cb5ec"/><stop offset="1" stop-color="#4982B9"/></linearGradient><linearGradient x1="232.207" x2="347.793" y1="121.884" y2="121.884" id="c" gradientUnits="userSpaceOnUse"><stop offset="0" stop-color="#101015"/><stop offset=".5" stop-color="#434348"/><stop offset="1" stop-color="#101015"/></linearGradient><linearGradient x1="261.954" x2="318.046" y1="70.738" y2="70.738" id="d" gradientUnits="userSpaceOnUse"><stop offset="0" stop-color="#5DBA4A"/><stop offset=".5" stop-color="#90ed7d"/><stop offset="1" stop-color="#5DBA4A"/></linearGradient><linearGradient x1="276.564" x2="303.436" y1="46.057" y2="46.057" id="e" gradientUnits="userSpaceOnUse"><stop offset="0" stop-color="#C47029"/><stop offset=".5" stop-color="#f7a35c"/><stop offset="1" stop-color="#C47029"/></linearGradient><linearGradient x1="290" x2="290" y1="23.609" y2="23.609" id="f" gradientUnits="userSpaceOnUse"><stop offset="0" stop-color="#4D52B6"/><stop offset=".5" stop-color="#8085e9"/><stop offset="1" stop-color="#4D52B6"/></linearGradient><linearGradient x1="283.85" x2="296.15" y1="33.999" y2="33.999" id="g" gradientUnits="userSpaceOnUse"><stop offset="0" stop-color="#4D52B6"/><stop offset=".5" stop-color="#8085e9"/><stop offset="1" stop-color="#4D52B6"/></linearGradient><filter id="a"><feComponentTransfer><feFuncA type="table" tableValues="0 1"/></feComponentTransfer></filter></defs><rect fill="#fff" class="highcharts-background" width="600" height="400" rx="0" ry="0" aria-hidden="true"/><path d="M22.137 371.308h555.726l5.409 11.504H16.728Zm561.115 12.454H15.772l.956-.95h566.544Z" class="highcharts-3d-frame highcharts-3d-frame-bottom" data-z-index="-1000" aria-hidden="true" fill="none"/><g stroke-linejoin="round" class="highcharts-3d-frame highcharts-3d-frame-left" data-z-index="-1000" aria-hidden="true" fill="none"><path d="m14.797 48.458.869.105L10 53.909H9Zm.869.105 6.47 322.745-5.408 11.504L10 53.909Z"/><path d="M15.771 383.762 9 53.909h1l6.728 328.903Z"/></g><path d="M14.797 48.458h569.426l.111.105H15.666Zm.869.105h568.668l-6.47 322.745H22.136Z" class="highcharts-3d-frame highcharts-3d-frame-back" data-z-index="-1000" aria-hidden="true" fill="none"/><path fill="none" class="highcharts-plot-background" aria-hidden="true" d="M10 47h580v338H10z"/><g class="highcharts-grid highcharts-yaxis-grid" data-z-index="1" aria-hidden="true" fill="none"><path data-z-index="1" class="highcharts-grid-line" d="M22.146 371.774h555.708M16.738 383.287l5.408-11.513m-.901-44.933h557.51M15.802 337.515l5.443-10.674m-.925-46.17h559.36m-564.84 9.805 5.48-9.805m-.913-45.526h561.186M13.89 244.087l5.517-8.942m-.919-45.825h563.024m-568.577 8.07 5.553-8.069m-.925-46.126h564.874m-570.464 7.182 5.59-7.182m-.95-47.401h566.774M10.985 102.06l5.628-6.266m-.937-46.743h568.648M10.01 54.407l5.666-5.356"/></g><path fill="none" class="highcharts-plot-border" data-z-index="1" aria-hidden="true" d="M10 47h580v338H10z"/><g class="highcharts-series-group" data-z-index="3" aria-hidden="false"><g class="highcharts-markers highcharts-series-0 highcharts-pyramid3d-series highcharts-tracker" data-z-index="10" aria-hidden="false" stroke-linejoin="round"><g data-z-index="290102206" class="highcharts-point highcharts-color-0" tabindex="-1" aria-label="Website visits, 15,654. Unique users." style="outline:0"><path fill="#4982B9" d="M465.942 327.776c23.047 20.74-35.813 42.071-134.214 46.186-99.784 4.172-191.052-11.35-201.632-33.112-9.818-20.194 54.6-38.168 142.156-41.356 86.493-3.15 172.266 9.003 193.69 28.282" class="highcharts-3d-bottom" data-z-index="0"/><g class="highcharts-funnel3d-lower-group" data-z-index="0" filter="url(#a)" transform="translate(10 47)"/><g class="highcharts-funnel3d-upper-group" data-z-index="2" filter="url(#a)" fill="url(#b)" transform="translate(10 47)"><path d="M232.881 114.459c-4.78-4.73 16.52-9.138 47.31-9.941 30.657-.8 60.329 2.25 66.473 6.905l109.278 169.353c-21.424-19.28-107.197-31.432-193.69-28.282-87.556 3.188-151.974 21.162-142.156 41.356Z" class="highcharts-3d-backUpper" data-z-index="1"/><path d="M346.664 111.423c6.299 4.772-14.37 9.444-46.4 10.32-32.176.878-62.48-2.435-67.383-7.284L120.096 293.85c10.58 21.762 101.848 37.284 201.632 33.112 98.401-4.115 157.26-25.446 134.214-46.186Z" class="highcharts-3d-frontUpper" data-z-index="2"/><path d="M347.119 114.459c-4.903 4.85-35.207 8.162-67.383 7.283-32.03-.875-52.699-5.547-46.4-10.319L124.058 280.776c-23.047 20.74 35.813 42.071 134.214 46.186 99.784 4.172 191.052-11.35 201.632-33.112Z" class="highcharts-3d-rightUpper" data-z-index="2"/></g><path fill="#95CEFF" d="M356.664 158.423c6.299 4.772-14.37 9.444-46.4 10.32-32.176.878-62.48-2.435-67.383-7.284-4.78-4.73 16.52-9.138 47.31-9.941 30.657-.8 60.329 2.25 66.473 6.905" class="highcharts-3d-top" data-z-index="3"/></g><g data-z-index="290102673" class="highcharts-point highcharts-color-1" tabindex="-1" aria-label="Downloads, 4,064. Unique users." style="outline:0"><path fill="#101015" d="M356.664 158.423c6.299 4.772-14.37 9.444-46.4 10.32-32.176.878-62.48-2.435-67.383-7.284-4.78-4.73 16.52-9.138 47.31-9.941 30.657-.8 60.329 2.25 66.473 6.905" class="highcharts-3d-bottom" data-z-index="0"/><g class="highcharts-funnel3d-lower-group" data-z-index="0" filter="url(#a)" transform="translate(10 47)"/><g class="highcharts-funnel3d-upper-group" data-z-index="2" filter="url(#a)" fill="url(#c)" transform="translate(10 47)"><path d="M262.333 67.615c-2.51-2.022 7.756-3.93 22.851-4.28 15.063-.35 29.544.979 32.376 2.985l29.104 45.103c-6.144-4.655-35.816-7.704-66.473-6.905-30.79.803-52.09 5.211-47.31 9.94Z" class="highcharts-3d-backUpper" data-z-index="1"/><path d="M317.56 66.32c2.867 2.031-7.25 3.995-22.637 4.36-15.42.365-30.05-1.018-32.59-3.065L232.88 114.46c4.903 4.85 35.207 8.162 67.383 7.283 32.03-.875 52.699-5.547 46.4-10.319Z" class="highcharts-3d-frontUpper" data-z-index="2"/><path d="M317.667 67.615c-2.54 2.047-17.17 3.43-32.59 3.065-15.388-.365-25.504-2.329-22.637-4.36l-29.104 45.103c-6.299 4.772 14.37 9.444 46.4 10.32 32.176.878 62.48-2.435 67.383-7.284Z" class="highcharts-3d-rightUpper" data-z-index="2"/></g><path fill="#5C5C61" d="M327.56 113.32c2.867 2.031-7.25 3.995-22.637 4.36-15.42.365-30.05-1.018-32.59-3.065-2.51-2.022 7.756-3.93 22.851-4.28 15.063-.35 29.544.979 32.376 2.985" class="highcharts-3d-top" data-z-index="3"/></g><g data-z-index="290102902" class="highcharts-point highcharts-color-2" tabindex="-1" aria-label="Requested price list, 1,987. Unique users." style="outline:0"><path fill="#5DBA4A" d="M327.56 113.32c2.867 2.031-7.25 3.995-22.637 4.36-15.42.365-30.05-1.018-32.59-3.065-2.51-2.022 7.756-3.93 22.851-4.28 15.063-.35 29.544.979 32.376 2.985" class="highcharts-3d-bottom" data-z-index="0"/><g class="highcharts-funnel3d-lower-group" data-z-index="0" filter="url(#a)" transform="translate(10 47)"/><g class="highcharts-funnel3d-upper-group" data-z-index="2" filter="url(#a)" fill="url(#d)" transform="translate(10 47)"><path d="M276.758 44.671c-1.247-.904 3.653-1.763 10.921-1.92 7.261-.159 14.218.44 15.539 1.342L317.56 66.32c-2.832-2.006-17.313-3.335-32.376-2.986-15.095.35-25.36 2.259-22.851 4.281Z" class="highcharts-3d-backUpper" data-z-index="1"/><path d="M303.218 44.093c1.328.906-3.538 1.777-10.873 1.938-7.343.161-14.333-.45-15.587-1.36l-14.425 22.944c2.54 2.047 17.17 3.43 32.59 3.065 15.388-.365 25.504-2.329 22.637-4.36Z" class="highcharts-3d-frontUpper" data-z-index="2"/><path d="M303.242 44.671c-1.254.91-8.244 1.521-15.587 1.36-7.335-.161-12.201-1.032-10.873-1.938L262.44 66.32c-2.867 2.031 7.25 3.995 22.637 4.36 15.42.365 30.05-1.018 32.59-3.065Z" class="highcharts-3d-rightUpper" data-z-index="2"/></g><path fill="#A9FF96" d="M313.218 91.093c1.328.906-3.538 1.777-10.873 1.938-7.343.161-14.333-.45-15.587-1.36-1.247-.904 3.653-1.763 10.921-1.92 7.261-.159 14.218.44 15.539 1.342" class="highcharts-3d-top" data-z-index="3"/></g><g data-z-index="290103014" class="highcharts-point highcharts-color-3" tabindex="-1" aria-label="Invoice sent, 976. Unique users." style="outline:0"><path fill="#C47029" d="M313.218 91.093c1.328.906-3.538 1.777-10.873 1.938-7.343.161-14.333-.45-15.587-1.36-1.247-.904 3.653-1.763 10.921-1.92 7.261-.159 14.218.44 15.539 1.342" class="highcharts-3d-bottom" data-z-index="0"/><g class="highcharts-funnel3d-lower-group" data-z-index="0" filter="url(#a)" transform="translate(10 47)"/><g class="highcharts-funnel3d-upper-group" data-z-index="2" filter="url(#a)" fill="url(#e)" transform="translate(10 47)"><path d="m283.85 33.392 5.069-.863 7.226.603 7.073 10.96c-1.321-.9-8.278-1.5-15.539-1.342-7.268.158-12.168 1.017-10.921 1.921Z" class="highcharts-3d-backUpper" data-z-index="1"/><path d="m296.145 33.132-5.058.867-7.237-.607-7.092 11.28c1.254.909 8.244 1.52 15.587 1.359 7.335-.161 12.201-1.032 10.873-1.938Z" class="highcharts-3d-frontUpper" data-z-index="2"/><path d="m296.15 33.392-7.237.607-5.058-.867-7.073 10.96c-1.328.907 3.538 1.778 10.873 1.939 7.343.161 14.333-.45 15.587-1.36Z" class="highcharts-3d-rightUpper" data-z-index="2"/></g><path fill="#FFBC75" d="m306.145 80.132-5.058.867-7.237-.607 5.069-.863Z" class="highcharts-3d-top" data-z-index="3"/></g><g data-z-index="290103111" class="highcharts-point highcharts-color-4" tabindex="-1" aria-label="Finalized, 846. Unique users." style="outline:0"><path fill="#4D52B6" d="m306.145 80.132-5.058.867-7.237-.607 5.069-.863Z" class="highcharts-3d-bottom" data-z-index="0"/><g class="highcharts-funnel3d-upper-group" data-z-index="2" filter="url(#a)" fill="url(#f)" transform="translate(10 47)"><path d="M290 23.609Z" class="highcharts-3d-backUpper" data-z-index="1"/><path d="M290 23.609Z" class="highcharts-3d-frontUpper" data-z-index="2"/><path d="M290 23.609Z" class="highcharts-3d-rightUpper" data-z-index="2"/></g><g class="highcharts-funnel3d-lower-group" data-z-index="2" filter="url(#a)" fill="url(#g)" transform="translate(10 47)"><path d="m290 23.609 6.145 9.523-7.226-.603-5.07.863Z" class="highcharts-3d-backLower" data-z-index="1"/><path d="m296.15 33.392-7.237.607-5.058-.867L290 23.61Z" class="highcharts-3d-rightLower" data-z-index="1"/><path d="m290 23.609-6.15 9.783 7.237.607 5.058-.867Z" class="highcharts-3d-frontLower" data-z-index="2"/></g><path fill="#999EFF" d="M300 70.609Z" class="highcharts-3d-top" data-z-index="3"/></g></g></g><text x="300" text-anchor="middle" class="highcharts-title" data-z-index="4" style="color:#333;font-size:18px;fill:#333" y="24" aria-hidden="true">Highcharts Pyramid3D Chart</text><g class="highcharts-data-labels highcharts-series-0 highcharts-pyramid3d-series highcharts-tracker" data-z-index="6" aria-hidden="true"><text x="5" data-z-index="1" y="16" style="color:#000;font-size:11px;font-weight:700;fill:#000" transform="translate(368 153)" class="highcharts-label highcharts-data-label highcharts-data-label-color-0"><tspan class="highcharts-text-outline" fill="#FFF" stroke="#FFF" stroke-width="2" stroke-linejoin="round"><tspan style="font-weight:700">Website visits</tspan> (15 654)<tspan x="5" dy="0">​</tspan></tspan><tspan style="font-weight:700">Website visits</tspan> (15 654)</text><text x="5" data-z-index="1" y="16" style="color:#000;font-size:11px;font-weight:700;fill:#000" transform="translate(338 107)" class="highcharts-label highcharts-data-label highcharts-data-label-color-1"><tspan class="highcharts-text-outline" fill="#FFF" stroke="#FFF" stroke-width="2" stroke-linejoin="round"><tspan style="font-weight:700">Downloads</tspan> (4 064)<tspan x="5" dy="0">​</tspan></tspan><tspan style="font-weight:700">Downloads</tspan> (4 064)</text><text x="5" data-z-index="1" y="16" style="color:#000;font-size:11px;font-weight:700;fill:#000" transform="translate(323 85)" class="highcharts-label highcharts-data-label highcharts-data-label-color-2"><tspan class="highcharts-text-outline" fill="#FFF" stroke="#FFF" stroke-width="2" stroke-linejoin="round"><tspan style="font-weight:700">Requested price list</tspan> (1 987)<tspan x="5" dy="0">​</tspan></tspan><tspan style="font-weight:700">Requested price list</tspan> (1 987)</text><text x="5" data-z-index="1" y="16" style="color:#000;font-size:11px;font-weight:700;fill:#000" transform="translate(316 74)" class="highcharts-label highcharts-data-label highcharts-data-label-color-3"><tspan class="highcharts-text-outline" fill="#FFF" stroke="#FFF" stroke-width="2" stroke-linejoin="round"><tspan style="font-weight:700">Invoice sent</tspan> (976)<tspan x="5" dy="0">​</tspan></tspan><tspan style="font-weight:700">Invoice sent</tspan> (976)</text><text x="5" data-z-index="1" y="16" style="color:#000;font-size:11px;font-weight:700;fill:#000" transform="translate(310 64)" class="highcharts-label highcharts-data-label highcharts-data-label-color-4"><tspan class="highcharts-text-outline" fill="#FFF" stroke="#FFF" stroke-width="2" stroke-linejoin="round"><tspan style="font-weight:700">Finalized</tspan> (846)<tspan x="5" dy="0">​</tspan></tspan><tspan style="font-weight:700">Finalized</tspan> (846)</text></g></svg>