<svg class="highcharts-root" style="font-family:&quot;Lucida Grande&quot;,&quot;Lucida Sans Unicode&quot;,Arial,Helvetica,sans-serif;font-size:12px" xmlns="http://www.w3.org/2000/svg" width="600" height="250" aria-label="Interactive chart"><rect fill="#fff" class="highcharts-background" width="600" height="250" rx="0" ry="0"/><path fill="none" class="highcharts-plot-background" d="M10 47h580v188H10z"/><path fill="none" d="M120 40v290M420 40v290" stroke="silver" stroke-width="2" stroke-dasharray="8,6"/><text x="3" data-z-index="1" y="15" style="font-weight:700" transform="translate(20 40)" class="highcharts-label">Web client</text><text x="3" data-z-index="1" y="15" style="font-weight:700" transform="translate(220 40)" class="highcharts-label">Web service / CLI</text><text x="3" data-z-index="1" y="15" style="font-weight:700" transform="translate(440 40)" class="highcharts-label">Command line client</text><g class="highcharts-label" transform="translate(10 82)"><rect fill="none" class="highcharts-label-box highcharts-shadow" width="77" height="54" stroke="#000" stroke-width="5" rx="5" ry="5" stroke-opacity=".05" transform="translate(1 1)"/><rect fill="none" class="highcharts-label-box highcharts-shadow" width="77" height="54" stroke="#000" stroke-width="3" rx="5" ry="5" stroke-opacity=".1" transform="translate(1 1)"/><rect fill="none" class="highcharts-label-box highcharts-shadow" width="77" height="54" stroke="#000" rx="5" ry="5" stroke-opacity=".15" transform="translate(1 1)"/><rect fill="#7cb5ec" class="highcharts-label-box" width="77" height="54" stroke="#fff" stroke-width="2" rx="5" ry="5"/><text x="5" data-z-index="1" y="17" style="color:#fff;fill:#fff">SaaS client<tspan class="highcharts-br" dy="15" x="5">​</tspan>(browser or<tspan class="highcharts-br" dy="15" x="5">​</tspan>script)</text></g><path fill="none" d="M95 95h100l-5 5m5-5-5-5" stroke="#f7a35c" stroke-width="2"/><text x="3" data-z-index="1" y="13" style="color:#f7a35c;font-size:10px;fill:#f7a35c" transform="translate(90 75)" class="highcharts-label">POST options in JSON</text><g class="highcharts-label" transform="translate(210 82)"><rect fill="#434348" class="highcharts-label-box" width="106" height="20" rx="5" ry="5"/><text x="3" data-z-index="1" y="15" style="color:#fff;font-weight:700;fill:#fff">PhantomJS</text></g><path fill="none" d="M250 110v75l-5-5m5 5 5-5" stroke="#f7a35c" stroke-width="2"/><text x="3" data-z-index="1" y="13" style="color:#f7a35c;font-size:10px;fill:#f7a35c" transform="translate(255 120)" class="highcharts-label">SVG</text><g class="highcharts-label" transform="translate(210 200)"><rect fill="#434348" class="highcharts-label-box" width="106" height="20" rx="5" ry="5"/><text x="3" data-z-index="1" y="15" style="color:#fff;font-weight:700;fill:#fff">Batik</text></g><path fill="none" d="M235 185v-30c0-25 0-25-20-25H95l5-5m-5 5 5 5" stroke="#f7a35c" stroke-width="2"/><text x="3" data-z-index="1" y="13" style="color:#f7a35c;font-size:10px;fill:#f7a35c" transform="translate(100 110)" class="highcharts-label">Rasterized image</text><g class="highcharts-label" transform="translate(10 180)"><rect fill="none" class="highcharts-label-box highcharts-shadow" width="73" height="54" stroke="#000" stroke-width="5" rx="5" ry="5" stroke-opacity=".05" transform="translate(1 1)"/><rect fill="none" class="highcharts-label-box highcharts-shadow" width="73" height="54" stroke="#000" stroke-width="3" rx="5" ry="5" stroke-opacity=".1" transform="translate(1 1)"/><rect fill="none" class="highcharts-label-box highcharts-shadow" width="73" height="54" stroke="#000" rx="5" ry="5" stroke-opacity=".15" transform="translate(1 1)"/><rect fill="#7cb5ec" class="highcharts-label-box" width="73" height="54" stroke="#fff" stroke-width="2" rx="5" ry="5"/><text x="5" data-z-index="1" y="17" style="color:#fff;fill:#fff">Browser<tspan class="highcharts-br" dy="15" x="5">​</tspan>running<tspan class="highcharts-br" dy="15" x="5">​</tspan>Highcharts</text></g><path fill="none" d="M95 205h100l-5 5m5-5-5-5" stroke="#434348" stroke-width="2"/><text x="3" data-z-index="1" y="13" style="color:#434348;font-size:10px;fill:#434348" transform="translate(110 185)" class="highcharts-label">POST SVG</text><path fill="none" d="M195 215H95l5 5m-5-5 5-5" stroke="#434348" stroke-width="2"/><text x="3" data-z-index="1" y="13" style="color:#434348;font-size:10px;fill:#434348" transform="translate(100 215)" class="highcharts-label">Rasterized image</text><g class="highcharts-label" transform="translate(450 82)"><rect fill="none" class="highcharts-label-box highcharts-shadow" width="43" height="24" stroke="#000" stroke-width="5" rx="5" ry="5" stroke-opacity=".05" transform="translate(1 1)"/><rect fill="none" class="highcharts-label-box highcharts-shadow" width="43" height="24" stroke="#000" stroke-width="3" rx="5" ry="5" stroke-opacity=".1" transform="translate(1 1)"/><rect fill="none" class="highcharts-label-box highcharts-shadow" width="43" height="24" stroke="#000" rx="5" ry="5" stroke-opacity=".15" transform="translate(1 1)"/><rect fill="#90ed7d" class="highcharts-label-box" width="43" height="24" stroke="#fff" stroke-width="2" rx="5" ry="5"/><text x="5" data-z-index="1" y="17" style="color:#fff;fill:#fff">Script</text></g><path fill="none" d="M430 90H330l5 5m-5-5 5-5" stroke="#90ed7d" stroke-width="2"/><text x="3" data-z-index="1" y="13" style="color:#90ed7d;font-size:10px;fill:#90ed7d" transform="translate(340 70)" class="highcharts-label">Command</text><path fill="none" d="M330 100h100l-5 5m5-5-5-5" stroke="#90ed7d" stroke-width="2"/><text x="3" data-z-index="1" y="13" style="color:#90ed7d;font-size:10px;fill:#90ed7d" transform="translate(330 100)" class="highcharts-label">Rasterized image</text><path fill="none" class="highcharts-plot-border" data-z-index="1" d="M10 47h580v188H10z"/><text x="300" text-anchor="middle" class="highcharts-title" data-z-index="4" style="color:#000;font-size:18px;fill:#000" y="24">Highcharts export server overview</text></svg>