<svg class="highcharts-root" style="font-family:&quot;Lucida Grande&quot;,&quot;Lucida Sans Unicode&quot;,Arial,Helvetica,sans-serif;font-size:12px" xmlns="http://www.w3.org/2000/svg" width="600" height="400" aria-label="Interactive chart" aria-hidden="false"><defs aria-hidden="true"><clipPath id="a"><path fill="none" d="M0 0h444v303H0z"/></clipPath></defs><rect fill="#fff" class="highcharts-background" width="600" height="400" rx="0" ry="0" aria-hidden="true"/><path fill="none" class="highcharts-plot-background" aria-hidden="true" d="M63 61h444v303H63z"/><g class="highcharts-grid highcharts-xaxis-grid" data-z-index="1" aria-hidden="true" fill="none"><path data-z-index="1" class="highcharts-grid-line" d="M210.5 61v303m148-303v303m148-303v303M62.5 61v303"/></g><g class="highcharts-grid highcharts-yaxis-grid" data-z-index="1" aria-hidden="true" fill="none" stroke="#e6e6e6"><path data-z-index="1" class="highcharts-grid-line" d="M63 364.5h444m-444-50h444m-444-51h444m-444-50h444m-444-51h444m-444-50h444m-444-52h444"/></g><path fill="none" class="highcharts-plot-border" data-z-index="1" aria-hidden="true" d="M63 61h444v303H63z"/><g class="highcharts-axis highcharts-xaxis" data-z-index="2" aria-hidden="true"><path fill="none" class="highcharts-axis-line" stroke="#ccd6eb" data-z-index="7" d="M63 364.5h444"/></g><g class="highcharts-axis highcharts-yaxis" data-z-index="2" aria-hidden="true"><text x="24.086" data-z-index="7" text-anchor="middle" transform="rotate(-90 24.086 212.5)" class="highcharts-axis-title" style="color:#666;fill:#666" y="212.5">Amount</text><path fill="none" class="highcharts-axis-line" data-z-index="7" d="M63 61v303"/></g><g class="highcharts-series-group" data-z-index="3" aria-hidden="false" stroke="#fff"><g class="highcharts-series highcharts-series-0 highcharts-column-series highcharts-color-0 highcharts-tracker" data-z-index=".1" clip-path="url(#a)" aria-hidden="false" tabindex="-1" aria-label="Ava, bar series 1 of 3 with 3 bars." style="outline:0" fill="#7cb5ec" transform="translate(63 61)"><path class="highcharts-point highcharts-color-0" tabindex="-1" aria-label="2019, 38. Ava." style="outline:0" d="M32.5 111.5h24v192h-24z"/><path class="highcharts-point highcharts-color-0" tabindex="-1" aria-label="2020, 51. Ava." style="outline:0" d="M180.5 45.5h24v258h-24z"/><path class="highcharts-point highcharts-color-0" tabindex="-1" aria-label="2021, 34. Ava." style="outline:0" d="M328.5 131.5h24v172h-24z"/></g><g class="highcharts-series highcharts-series-1 highcharts-column-series highcharts-color-1 highcharts-tracker" data-z-index=".1" clip-path="url(#a)" aria-hidden="false" tabindex="-1" aria-label="Dina, bar series 2 of 3 with 3 bars." style="outline:0" fill="#434348" transform="translate(63 61)"><path class="highcharts-point highcharts-color-1" tabindex="-1" aria-label="2019, 31. Dina." style="outline:0" d="M61.5 146.5h24v157h-24z"/><path class="highcharts-point highcharts-color-1" tabindex="-1" aria-label="2020, 26. Dina." style="outline:0" d="M209.5 172.5h24v131h-24z"/><path class="highcharts-point highcharts-color-1" tabindex="-1" aria-label="2021, 27. Dina." style="outline:0" d="M357.5 167.5h24v136h-24z"/></g><g class="highcharts-series highcharts-series-2 highcharts-column-series highcharts-color-2 highcharts-tracker" data-z-index=".1" clip-path="url(#a)" aria-hidden="false" tabindex="-1" aria-label="Malin, bar series 3 of 3 with 3 bars." style="outline:0" fill="#90ed7d" transform="translate(63 61)"><path class="highcharts-point highcharts-color-2" tabindex="-1" aria-label="2019, 38. Malin." style="outline:0" d="M91.5 111.5h24v192h-24z"/><path class="highcharts-point highcharts-color-2" tabindex="-1" aria-label="2020, 42. Malin." style="outline:0" d="M239.5 91.5h24v212h-24z"/><path class="highcharts-point highcharts-color-2" tabindex="-1" aria-label="2021, 41. Malin." style="outline:0" d="M387.5 96.5h24v207h-24z"/></g></g><text x="300" text-anchor="middle" class="highcharts-title" data-z-index="4" style="color:#333;font-size:18px;fill:#333" y="24" aria-hidden="true">Born persons, by girls&apos; name</text><text x="300" text-anchor="middle" class="highcharts-subtitle" data-z-index="4" style="color:#666;fill:#666" y="46" aria-hidden="true">Resize the frame or click buttons to change appearance</text><g class="highcharts-legend highcharts-no-tooltip" data-z-index="7" transform="translate(519 170)" aria-hidden="true"><rect fill="none" class="highcharts-legend-box" rx="0" ry="0" width="70" height="56"/><g data-z-index="1"><g class="highcharts-legend-item highcharts-column-series highcharts-color-0 highcharts-series-0" data-z-index="1" transform="translate(8 3)"><text x="21" data-z-index="2" y="15" style="color:#333;cursor:pointer;font-size:12px;font-weight:700;fill:#333">Ava</text><rect x="2" y="4" width="12" height="12" fill="#7cb5ec" rx="6" ry="6" class="highcharts-point" data-z-index="3"/></g><g class="highcharts-legend-item highcharts-column-series highcharts-color-1 highcharts-series-1" data-z-index="1" transform="translate(8 18)"><text x="21" y="15" data-z-index="2" style="color:#333;cursor:pointer;font-size:12px;font-weight:700;fill:#333">Dina</text><rect x="2" y="4" width="12" height="12" fill="#434348" rx="6" ry="6" class="highcharts-point" data-z-index="3"/></g><g class="highcharts-legend-item highcharts-column-series highcharts-color-2 highcharts-series-2" data-z-index="1" transform="translate(8 33)"><text x="21" y="15" data-z-index="2" style="color:#333;cursor:pointer;font-size:12px;font-weight:700;fill:#333">Malin</text><rect x="2" y="4" width="12" height="12" fill="#90ed7d" rx="6" ry="6" class="highcharts-point" data-z-index="3"/></g></g></g><g class="highcharts-axis-labels highcharts-xaxis-labels" data-z-index="7" aria-hidden="true" text-anchor="middle"><text x="127" style="color:#666;cursor:default;font-size:11px;fill:#666" y="383">2019</text><text x="275" style="color:#666;cursor:default;font-size:11px;fill:#666" y="383">2020</text><text x="423" style="color:#666;cursor:default;font-size:11px;fill:#666" y="383">2021</text></g><g class="highcharts-axis-labels highcharts-yaxis-labels" data-z-index="7" aria-hidden="true" text-anchor="end"><text x="48" style="color:#666;cursor:default;font-size:11px;fill:#666" y="369">0</text><text x="48" style="color:#666;cursor:default;font-size:11px;fill:#666" y="318">10</text><text x="48" style="color:#666;cursor:default;font-size:11px;fill:#666" y="268">20</text><text x="48" style="color:#666;cursor:default;font-size:11px;fill:#666" y="217">30</text><text x="48" style="color:#666;cursor:default;font-size:11px;fill:#666" y="167">40</text><text x="48" style="color:#666;cursor:default;font-size:11px;fill:#666" y="116">50</text><text x="48" style="color:#666;cursor:default;font-size:11px;fill:#666" y="66">60</text></g></svg>