<svg class="highcharts-root" style="font-family:&quot;Lucida Grande&quot;,&quot;Lucida Sans Unicode&quot;,Arial,Helvetica,sans-serif;font-size:12px" xmlns="http://www.w3.org/2000/svg" width="600" height="400" aria-label="Interactive chart" aria-hidden="false"><rect fill="#fff" class="highcharts-background" width="600" height="400" rx="0" ry="0" aria-hidden="true"/><path fill="none" class="highcharts-plot-background" aria-hidden="true" d="M73 47h517v317H73z"/><g class="highcharts-grid highcharts-xaxis-grid" data-z-index="1" aria-hidden="true" fill="none"><path data-z-index="1" class="highcharts-grid-line" d="M175.5 47v317m104-317v317m103-317v317m104-317v317m103-317v317M72.5 47v317"/></g><g class="highcharts-grid highcharts-yaxis-grid" data-z-index="1" aria-hidden="true" fill="none" stroke="#e6e6e6"><path data-z-index="1" class="highcharts-grid-line" d="M73 364.5h517m-517-45h517m-517-46h517m-517-45h517m-517-45h517m-517-45h517m-517-46h517m-517-46h517"/></g><path fill="none" class="highcharts-plot-border" data-z-index="1" aria-hidden="true" d="M73 47h517v317H73z"/><g class="highcharts-axis highcharts-xaxis" data-z-index="2" aria-hidden="true"><path fill="none" class="highcharts-axis-line" stroke="#ccd6eb" data-z-index="7" d="M73 364.5h517"/></g><g class="highcharts-axis highcharts-yaxis" data-z-index="2" aria-hidden="true"><text x="24.242" data-z-index="7" text-anchor="middle" transform="rotate(-90 24.242 205.5)" class="highcharts-axis-title" style="color:#666;fill:#666" y="205.5">Measurements</text><path fill="none" class="highcharts-axis-line" data-z-index="7" d="M73 47v317"/></g><g class="highcharts-series-group" data-z-index="3" aria-hidden="false"><g class="highcharts-markers highcharts-series-0 highcharts-scatter-series highcharts-color-0 highcharts-tracker" data-z-index=".1" aria-hidden="false" tabindex="-1" aria-label="Run 1, scatter plot 1 of 5 with 200 points." style="outline:0" fill="rgba(124,181,236,0.5)"><path d="M26 139.68a2 2 0 1 1 .002 0Zm36-77.766a2 2 0 1 1 .002 0Zm13 94.816a2 2 0 1 1 .002 0Zm-39 1.457a2 2 0 1 1 .002 0Z" class="highcharts-point highcharts-color-0" tabindex="-1" aria-hidden="true" style="outline:0" transform="translate(73 47)"/><path d="M75 153.964a2 2 0 1 1 .002 0Zm-11-49.747a2 2 0 1 1 .002 0Zm4 39.099a2 2 0 1 1 .002 0Zm1-16.606a2 2 0 1 1 .002 0Zm-14-22.72a2 2 0 1 1 .002 0Zm-19 55.201a2 2 0 1 1 .002 0Zm30 23.223a2 2 0 1 1 .002 0ZM31 151.23a2 2 0 1 1 .002 0Zm9-27.138a2 2 0 1 1 .002 0Zm20 22.294a2 2 0 1 1 .002 0ZM30 64.84a2 2 0 1 1 .002 0Zm40 70.965a2 2 0 1 1 .002 0Zm4 26.979a2 2 0 1 1 .002 0Zm-46-37.88a2 2 0 1 1 .002 0Zm5 .096a2 2 0 1 1 .002 0Zm32 63.06a2 2 0 1 1 .002 0Zm-16-21.694a2 2 0 1 1 .002 0Zm5-21.436a2 2 0 1 1 .002 0Zm-3-49.86a2 2 0 1 1 .002 0Zm15 16.76a2 2 0 1 1 .002 0Zm-29 20.498a2 2 0 1 1 .002 0Zm13 8.185a2 2 0 1 1 .002 0Zm5 64.715a2 2 0 1 1 .002 0Zm9-71.814a2 2 0 1 1 .002 0Zm-35 34.733a2 2 0 1 1 .002 0Z" class="highcharts-point highcharts-color-0" tabindex="-1" aria-hidden="true" style="outline:0" transform="translate(73 47)"/><path d="M59 143.996a2 2 0 1 1 .002 0Zm1-46.826a2 2 0 1 1 .002 0Zm-3 81.182a2 2 0 1 1 .002 0Zm-17-15.271a2 2 0 1 1 .002 0ZM32 72.64a2 2 0 1 1 .002 0Zm35 94.63a2 2 0 1 1 .002 0Zm-32-17.133a2 2 0 1 1 .002 0Zm2 43.511a2 2 0 1 1 .002 0ZM57 89.573a2 2 0 1 1 .002 0Zm3-3.75a2 2 0 1 1 .002 0Zm14 12.752a2 2 0 1 1 .002 0Zm-41 .386a2 2 0 1 1 .002 0Z" class="highcharts-point highcharts-color-0" tabindex="-1" aria-hidden="true" style="outline:0" transform="translate(73 47)"/><path d="M65 169.005a2 2 0 1 1 .002 0Zm0-50.257a2 2 0 1 1 .002 0Zm-26 24.76a2 2 0 1 1 .002 0ZM27 88.072a2 2 0 1 1 .002 0Zm1 114.801a2 2 0 1 1 .002 0ZM70 89.446a2 2 0 1 1 .002 0Zm-7 12.403a2 2 0 1 1 .002 0Zm-14 33.818a2 2 0 1 1 .002 0Zm1-36.413a2 2 0 1 1 .002 0Zm-11 28.524a2 2 0 1 1 .002 0Zm2-51.893a2 2 0 1 1 .002 0Z" class="highcharts-point highcharts-color-0" tabindex="-1" aria-hidden="true" style="outline:0" transform="translate(73 47)"/><path d="M40 125.397a2 2 0 1 1 .002 0Zm-1 42.907a2 2 0 1 1 .002 0Zm-7-16.268a2 2 0 1 1 .002 0Zm17 71.992a2 2 0 1 1 .002 0Zm2-186.834a2 2 0 1 1 .002 0Zm8 100.201a2 2 0 1 1 .002 0Zm3-90.767a2 2 0 1 1 .002 0ZM45 178.674a2 2 0 1 1 .002 0ZM71 75.203a2 2 0 1 1 .002 0Zm-4 42.76a2 2 0 1 1 .002 0Zm-31 58.175a2 2 0 1 1 .002 0Zm18 3.687a2 2 0 1 1 .002 0ZM39 142.52a2 2 0 1 1 .002 0Z" class="highcharts-point highcharts-color-0" tabindex="-1" aria-hidden="true" style="outline:0" transform="translate(73 47)"/><path d="M41 169.663a2 2 0 1 1 .002 0Zm10-79.816a2 2 0 1 1 .002 0Zm15 65.92a2 2 0 1 1 .002 0Zm-4-41.144a2 2 0 1 1 .002 0Zm-28 44.633a2 2 0 1 1 .002 0Zm37-19.008a2 2 0 1 1 .002 0ZM54 55.28a2 2 0 1 1 .002 0Z" class="highcharts-point highcharts-color-0" tabindex="-1" aria-hidden="true" style="outline:0" transform="translate(73 47)"/><path d="M38 168.913a2 2 0 1 1 .002 0Zm2-49.035a2 2 0 1 1 .002 0Zm13 48.831a2 2 0 1 1 .002 0Zm-18 40.493a2 2 0 1 1 .002 0Zm-5-92.818a2 2 0 1 1 .002 0Z" class="highcharts-point highcharts-color-0" tabindex="-1" aria-hidden="true" style="outline:0" transform="translate(73 47)"/><path d="M36 171.537a2 2 0 1 1 .002 0Zm29-41.554a2 2 0 1 1 .002 0Zm5 6.299a2 2 0 1 1 .002 0Zm-38-30.071a2 2 0 1 1 .002 0Zm0 38.525a2 2 0 1 1 .002 0Zm9 76.847a2 2 0 1 1 .002 0Zm17-166.25a2 2 0 1 1 .002 0Zm13 97.041a2 2 0 1 1 .002 0Z" class="highcharts-point highcharts-color-0" tabindex="-1" aria-hidden="true" style="outline:0" transform="translate(73 47)"/><path d="M38 169.543a2 2 0 1 1 .002 0Zm9-94.075a2 2 0 1 1 .002 0Zm20 25.652a2 2 0 1 1 .002 0Zm8 29.098a2 2 0 1 1 .002 0Zm-14 5.907a2 2 0 1 1 .002 0Z" class="highcharts-point highcharts-color-0" tabindex="-1" aria-hidden="true" style="outline:0" transform="translate(73 47)"/><path d="M74 130.548a2 2 0 1 1 .002 0Zm-4 3.992a2 2 0 1 1 .002 0Zm-27-7.055a2 2 0 1 1 .002 0Zm-8 87.382a2 2 0 1 1 .002 0Zm15-79.274a2 2 0 1 1 .002 0Zm7 2.971a2 2 0 1 1 .002 0Zm13 .615a2 2 0 1 1 .002 0ZM30 115.07a2 2 0 1 1 .002 0Zm5 25.215a2 2 0 1 1 .002 0Zm38-21.148a2 2 0 1 1 .002 0ZM43 142.54a2 2 0 1 1 .002 0Zm-4 1.798a2 2 0 1 1 .002 0Zm1-36.782a2 2 0 1 1 .002 0Z" class="highcharts-point highcharts-color-0" tabindex="-1" aria-hidden="true" style="outline:0" transform="translate(73 47)"/><path d="M70 136.235a2 2 0 1 1 .002 0Zm-5 1.655a2 2 0 1 1 .002 0Zm-6 72.654a2 2 0 1 1 .002 0Zm-4-17.014a2 2 0 1 1 .002 0Zm12-68.994a2 2 0 1 1 .002 0Zm-31 18.876a2 2 0 1 1 .002 0Zm12-23.292a2 2 0 1 1 .002 0Zm7 24.415a2 2 0 1 1 .002 0Zm-5 6.588a2 2 0 1 1 .002 0Zm-21-31.019a2 2 0 1 1 .002 0Zm6 38.322a2 2 0 1 1 .002 0Zm31-6.663a2 2 0 1 1 .002 0Zm-22 7.705a2 2 0 1 1 .002 0Z" class="highcharts-point highcharts-color-0" tabindex="-1" aria-hidden="true" style="outline:0" transform="translate(73 47)"/><path d="M57 196.958a2 2 0 1 1 .002 0ZM27 128.69a2 2 0 1 1 .002 0Zm23 56.788a2 2 0 1 1 .002 0Zm24-52.46a2 2 0 1 1 .002 0Zm-42 36.544a2 2 0 1 1 .002 0Zm2-8.21a2 2 0 1 1 .002 0Zm-1-19.77a2 2 0 1 1 .002 0Zm41 16.796a2 2 0 1 1 .002 0Zm-41-2.195a2 2 0 1 1 .002 0Zm23-10.47a2 2 0 1 1 .002 0Zm15 62.767a2 2 0 1 1 .002 0Zm-30 11.65a2 2 0 1 1 .002 0Zm4-30.041a2 2 0 1 1 .002 0ZM40 52.378a2 2 0 1 1 .002 0Zm33 85.996a2 2 0 1 1 .002 0Zm1 26.106a2 2 0 1 1 .002 0Zm-6-31.34a2 2 0 1 1 .002 0Zm-9-.81a2 2 0 1 1 .002 0Zm-20 9.321a2 2 0 1 1 .002 0Zm21-.523a2 2 0 1 1 .002 0Zm0-37.926a2 2 0 1 1 .002 0Z" class="highcharts-point highcharts-color-0" tabindex="-1" aria-hidden="true" style="outline:0" transform="translate(73 47)"/><path d="M69 212.011a2 2 0 1 1 .002 0Zm-19-53.133a2 2 0 1 1 .002 0Zm16-20.644a2 2 0 1 1 .002 0Zm-20-14.762a2 2 0 1 1 .002 0Zm16 2.857a2 2 0 1 1 .002 0Zm-33 11.649a2 2 0 1 1 .002 0Zm25 18.845a2 2 0 1 1 .002 0Zm11-69.742a2 2 0 1 1 .002 0Zm-16 26.474a2 2 0 1 1 .002 0Zm12 32.298a2 2 0 1 1 .002 0Zm-13-5.507a2 2 0 1 1 .002 0Z" class="highcharts-point highcharts-color-0" tabindex="-1" aria-hidden="true" style="outline:0" transform="translate(73 47)"/><path d="M59 126.664a2 2 0 1 1 .002 0Zm-7 21.889a2 2 0 1 1 .002 0ZM38 131.56a2 2 0 1 1 .002 0Zm13-49.495a2 2 0 1 1 .002 0Zm-14 95.683a2 2 0 1 1 .002 0Zm-10 2.634a2 2 0 1 1 .002 0Zm39-93.287a2 2 0 1 1 .002 0Zm4 62.089a2 2 0 1 1 .002 0Zm-36-2.766a2 2 0 1 1 .002 0Zm18 34.702a2 2 0 1 1 .002 0Z" class="highcharts-point highcharts-color-0" tabindex="-1" aria-hidden="true" style="outline:0" transform="translate(73 47)"/><path d="M38 135.081a2 2 0 1 1 .002 0Zm-2 10.861a2 2 0 1 1 .002 0Zm3-88.39a2 2 0 1 1 .002 0Zm33 10.686a2 2 0 1 1 .002 0ZM51 225.092a2 2 0 1 1 .002 0Zm20-44.916a2 2 0 1 1 .002 0Zm-28-58.002a2 2 0 1 1 .002 0Zm32 10.769a2 2 0 1 1 .002 0Zm-3-10.059a2 2 0 1 1 .002 0Zm-21 3.484a2 2 0 1 1 .002 0ZM40 44.56a2 2 0 1 1 .002 0Zm-14 63.191a2 2 0 1 1 .002 0Zm25 55.923a2 2 0 1 1 .002 0Z" class="highcharts-point highcharts-color-0" tabindex="-1" aria-hidden="true" style="outline:0" transform="translate(73 47)"/><path d="M71 126.126a2 2 0 1 1 .002 0Zm-15-11.268a2 2 0 1 1 .002 0Zm15 27.222a2 2 0 1 1 .002 0Zm-26-27.545a2 2 0 1 1 .002 0ZM59 70.32a2 2 0 1 1 .002 0Zm-7 64.398a2 2 0 1 1 .002 0Z" class="highcharts-point highcharts-color-0" tabindex="-1" aria-hidden="true" style="outline:0" transform="translate(73 47)"/><path d="M71 128.756a2 2 0 1 1 .002 0Zm-7-36.143a2 2 0 1 1 .002 0Zm-27 90.915a2 2 0 1 1 .002 0Zm13-35.454a2 2 0 1 1 .002 0Zm1 20.717a2 2 0 1 1 .002 0Zm-15-33.259a2 2 0 1 1 .002 0Zm30 80.817a2 2 0 1 1 .002 0Z" class="highcharts-point highcharts-color-0" tabindex="-1" aria-hidden="true" style="outline:0" transform="translate(73 47)"/><path d="M68 128.191a2 2 0 1 1 .002 0ZM37 85.337a2 2 0 1 1 .002 0Zm27 95.3a2 2 0 1 1 .002 0Zm-23-5.152a2 2 0 1 1 .002 0Zm23-98.833a2 2 0 1 1 .002 0ZM35 65.428a2 2 0 1 1 .002 0Zm41 116.474a2 2 0 1 1 .002 0Zm-45-19.724a2 2 0 1 1 .002 0Zm26-23.752a2 2 0 1 1 .002 0Zm-9 3.526a2 2 0 1 1 .002 0Zm-15 11.894a2 2 0 1 1 .002 0Zm21 30.335a2 2 0 1 1 .002 0Zm-13-26.487a2 2 0 1 1 .002 0Zm-12-9.346a2 2 0 1 1 .002 0Zm8 25.239a2 2 0 1 1 .002 0Zm-10-41.105a2 2 0 1 1 .002 0Z" class="highcharts-point highcharts-color-0" tabindex="-1" aria-hidden="true" style="outline:0" transform="translate(73 47)"/></g><g class="highcharts-markers highcharts-series-1 highcharts-scatter-series highcharts-color-1 highcharts-tracker" data-z-index=".1" aria-hidden="false" tabindex="-1" aria-label="Run 2, scatter plot 2 of 5 with 200 points." style="outline:0" fill="rgba(67,67,72,0.5)"><path d="M130 168.575a2 2 0 1 1 .002 0Zm35-3.436a2 2 0 1 1 .002 0Zm13 14.181a2 2 0 1 1 .002 0Zm-38-8.452a2 2 0 1 1 .002 0Zm38-26.704a2 2 0 1 1 .002 0Zm-11-21.034a2 2 0 1 1 .002 0Zm5 72.672a2 2 0 1 1 .002 0Zm1-14.886a2 2 0 1 1 .002 0Zm-14-21.515a2 2 0 1 1 .002 0Zm-20-15.434a2 2 0 1 1 .002 0Zm30 32.586a2 2 0 1 1 .002 0Zm-34 4.12a2 2 0 1 1 .002 0Z" class="highcharts-point highcharts-color-1" tabindex="-1" aria-hidden="true" style="outline:0" transform="translate(73 47)"/><path d="M143 143.257a2 2 0 1 1 .002 0Zm20 32.006a2 2 0 1 1 .002 0Zm-30 4.876a2 2 0 1 1 .002 0Zm40-62.655a2 2 0 1 1 .002 0Zm5 18.606a2 2 0 1 1 .002 0Zm-47 7.655a2 2 0 1 1 .002 0Zm5 27.869a2 2 0 1 1 .002 0Zm32-51.44a2 2 0 1 1 .002 0Zm-16 114.072a2 2 0 1 1 .002 0Zm5-81.412a2 2 0 1 1 .002 0Zm-3 25.086a2 2 0 1 1 .002 0Zm15 8.884a2 2 0 1 1 .002 0Zm-28-35.301a2 2 0 1 1 .002 0Zm13 96.37a2 2 0 1 1 .002 0Zm5-64.089a2 2 0 1 1 .002 0Zm8 22.242a2 2 0 1 1 .002 0Z" class="highcharts-point highcharts-color-1" tabindex="-1" aria-hidden="true" style="outline:0" transform="translate(73 47)"/><path d="M133 178.052a2 2 0 1 1 .002 0Zm30 32.455a2 2 0 1 1 .002 0Zm1-33.347a2 2 0 1 1 .002 0Zm-3 18.575a2 2 0 1 1 .002 0Zm-18-35.575a2 2 0 1 1 .002 0Zm-7 72.394a2 2 0 1 1 .002 0Zm35-36.016a2 2 0 1 1 .002 0Zm-33 .282a2 2 0 1 1 .002 0Z" class="highcharts-point highcharts-color-1" tabindex="-1" aria-hidden="true" style="outline:0" transform="translate(73 47)"/><path d="M140 199.92a2 2 0 1 1 .002 0Zm20-39.842a2 2 0 1 1 .002 0Zm4 24.281a2 2 0 1 1 .002 0Zm13-15.383a2 2 0 1 1 .002 0Zm-41 86.279a2 2 0 1 1 .002 0Z" class="highcharts-point highcharts-color-1" tabindex="-1" aria-hidden="true" style="outline:0" transform="translate(73 47)"/><path d="M168 184.702a2 2 0 1 1 .002 0Zm1 14.411a2 2 0 1 1 .002 0Zm-27-14.676a2 2 0 1 1 .002 0Zm-11-15.801a2 2 0 1 1 .002 0Zm1 73.95a2 2 0 1 1 .002 0Zm42-6.566a2 2 0 1 1 .002 0Zm-8-55.54a2 2 0 1 1 .002 0Zm-14 12.536a2 2 0 1 1 .002 0Zm1-35.402a2 2 0 1 1 .002 0Zm-11-49.83a2 2 0 1 1 .002 0Zm2 32.881a2 2 0 1 1 .002 0Zm-1 37.726a2 2 0 1 1 .002 0Z" class="highcharts-point highcharts-color-1" tabindex="-1" aria-hidden="true" style="outline:0" transform="translate(73 47)"/><path d="M142 174.647a2 2 0 1 1 .002 0Zm-7-17.497a2 2 0 1 1 .002 0Zm17-21.085a2 2 0 1 1 .002 0Z" class="highcharts-point highcharts-color-1" tabindex="-1" aria-hidden="true" style="outline:0" transform="translate(73 47)"/><path d="M154 134.057a2 2 0 1 1 .002 0Zm8 50.979a2 2 0 1 1 .002 0Zm4 74.456a2 2 0 1 1 .002 0Zm-17-.842a2 2 0 1 1 .002 0Zm25-96.203a2 2 0 1 1 .002 0Zm-3 51.369a2 2 0 1 1 .002 0Zm-32-29.039a2 2 0 1 1 .002 0Zm18 6.846a2 2 0 1 1 .002 0Zm-14-19.607a2 2 0 1 1 .002 0Zm1 11.025a2 2 0 1 1 .002 0ZM154 97a2 2 0 1 1 .002 0Zm16 142.52a2 2 0 1 1 .002 0Zm-4-123.261a2 2 0 1 1 .002 0Zm-29 8.392a2 2 0 1 1 .002 0Z" class="highcharts-point highcharts-color-1" tabindex="-1" aria-hidden="true" style="outline:0" transform="translate(73 47)"/><path d="M175 215.376a2 2 0 1 1 .002 0Zm-18-47.644a2 2 0 1 1 .002 0Zm-16 45.393a2 2 0 1 1 .002 0Zm3-36.335a2 2 0 1 1 .002 0Zm12-.857a2 2 0 1 1 .002 0Zm-17-5.388a2 2 0 1 1 .002 0Zm-5 4.599a2 2 0 1 1 .002 0Zm6-16.845a2 2 0 1 1 .002 0Zm29-28.902a2 2 0 1 1 .002 0Zm4 50.048a2 2 0 1 1 .002 0Zm-38-70.062a2 2 0 1 1 .002 0Z" class="highcharts-point highcharts-color-1" tabindex="-1" aria-hidden="true" style="outline:0" transform="translate(73 47)"/><path d="M136 175.745a2 2 0 1 1 .002 0Zm8-3.515a2 2 0 1 1 .002 0Zm18 35.11a2 2 0 1 1 .002 0Zm13-25.154a2 2 0 1 1 .002 0Z" class="highcharts-point highcharts-color-1" tabindex="-1" aria-hidden="true" style="outline:0" transform="translate(73 47)"/><path d="M142 168.69a2 2 0 1 1 .002 0Zm8 .758a2 2 0 1 1 .002 0Zm21-.037a2 2 0 1 1 .002 0Zm8 49.532a2 2 0 1 1 .002 0Zm-15-38.162a2 2 0 1 1 .002 0Zm14-7.286a2 2 0 1 1 .002 0Zm-5-14.605a2 2 0 1 1 .002 0Zm-26 22.684a2 2 0 1 1 .002 0Zm-8-56.228a2 2 0 1 1 .002 0Zm15 38.477a2 2 0 1 1 .002 0Zm6 10.322a2 2 0 1 1 .002 0Zm13 53.995a2 2 0 1 1 .002 0Zm-39-33.67a2 2 0 1 1 .002 0Zm5-13.286a2 2 0 1 1 .002 0Zm37 15.485a2 2 0 1 1 .002 0Zm-29-2.575a2 2 0 1 1 .002 0ZM143 93.46a2 2 0 1 1 .002 0Zm0 179.33a2 2 0 1 1 .002 0Zm31-128.597a2 2 0 1 1 .002 0Z" class="highcharts-point highcharts-color-1" tabindex="-1" aria-hidden="true" style="outline:0" transform="translate(73 47)"/><path d="M168 179.488a2 2 0 1 1 .002 0Zm-6-88.981a2 2 0 1 1 .002 0Zm-4 3.955a2 2 0 1 1 .002 0Zm12 34.838a2 2 0 1 1 .002 0Zm-31 132.515a2 2 0 1 1 .002 0Zm12-90.48a2 2 0 1 1 .002 0Zm7 3.664a2 2 0 1 1 .002 0Zm-4 54.444a2 2 0 1 1 .002 0Zm-22-81.02a2 2 0 1 1 .002 0Zm7 67.703a2 2 0 1 1 .002 0Zm31-118.44a2 2 0 1 1 .002 0ZM147 200.79a2 2 0 1 1 .002 0Z" class="highcharts-point highcharts-color-1" tabindex="-1" aria-hidden="true" style="outline:0" transform="translate(73 47)"/><path d="M160 174.507a2 2 0 1 1 .002 0Zm-29 27.271a2 2 0 1 1 .002 0Zm23-38.281a2 2 0 1 1 .002 0Zm23-9.915a2 2 0 1 1 .002 0Zm-42 23.443a2 2 0 1 1 .002 0Zm2-32.943a2 2 0 1 1 .002 0Zm-1 54.948a2 2 0 1 1 .002 0Zm42-39.094a2 2 0 1 1 .002 0Z" class="highcharts-point highcharts-color-1" tabindex="-1" aria-hidden="true" style="outline:0" transform="translate(73 47)"/><path d="M136 147.528a2 2 0 1 1 .002 0Zm23-54.718a2 2 0 1 1 .002 0Zm16 25.881a2 2 0 1 1 .002 0Zm-30 13.563a2 2 0 1 1 .002 0Zm4 69.904a2 2 0 1 1 .002 0Zm-6 2.246a2 2 0 1 1 .002 0Zm33-46.409a2 2 0 1 1 .002 0Zm2-4.119a2 2 0 1 1 .002 0Zm-7 19.352a2 2 0 1 1 .002 0Zm-9 8.932a2 2 0 1 1 .002 0Zm-20-8.493a2 2 0 1 1 .002 0Zm22-24.595a2 2 0 1 1 .002 0Zm-1-7.355a2 2 0 1 1 .002 0Z" class="highcharts-point highcharts-color-1" tabindex="-1" aria-hidden="true" style="outline:0" transform="translate(73 47)"/><path d="M172 171.009a2 2 0 1 1 .002 0Zm-19-9.599a2 2 0 1 1 .002 0Zm17 20.694a2 2 0 1 1 .002 0Zm-21-98.96a2 2 0 1 1 .002 0Zm16 111.604a2 2 0 1 1 .002 0Zm-33 28.467a2 2 0 1 1 .002 0Zm25-53.063a2 2 0 1 1 .002 0Zm12-56.948a2 2 0 1 1 .002 0ZM152 230.46a2 2 0 1 1 .002 0Zm12-72.334a2 2 0 1 1 .002 0Zm-12 29.457a2 2 0 1 1 .002 0Zm11-34.21a2 2 0 1 1 .002 0Z" class="highcharts-point highcharts-color-1" tabindex="-1" aria-hidden="true" style="outline:0" transform="translate(73 47)"/><path d="M155 171.569a2 2 0 1 1 .002 0Zm-14 5.457a2 2 0 1 1 .002 0Zm14-43.336a2 2 0 1 1 .002 0Zm-15 38.036a2 2 0 1 1 .002 0Zm-10 12.88a2 2 0 1 1 .002 0Zm39-1.636a2 2 0 1 1 .002 0Zm4 24.687a2 2 0 1 1 .002 0Zm-36-10.5a2 2 0 1 1 .002 0Zm18 3.98a2 2 0 1 1 .002 0Zm-13-1.241a2 2 0 1 1 .002 0Z" class="highcharts-point highcharts-color-1" tabindex="-1" aria-hidden="true" style="outline:0" transform="translate(73 47)"/><path d="M140 172.012a2 2 0 1 1 .002 0Zm2 91.862a2 2 0 1 1 .002 0Zm34-64.581a2 2 0 1 1 .002 0Zm-22 54.622a2 2 0 1 1 .002 0Zm20-74.562a2 2 0 1 1 .002 0Zm-28-33.172a2 2 0 1 1 .002 0Zm32 15.461a2 2 0 1 1 .002 0Zm-3 8.858a2 2 0 1 1 .002 0Zm-20 9.84a2 2 0 1 1 .002 0Zm-12-1.224a2 2 0 1 1 .002 0Zm-13-14.964a2 2 0 1 1 .002 0Z" class="highcharts-point highcharts-color-1" tabindex="-1" aria-hidden="true" style="outline:0" transform="translate(73 47)"/><path d="M154 177.119a2 2 0 1 1 .002 0Zm21-1.256a2 2 0 1 1 .002 0Zm-16-42.153a2 2 0 1 1 .002 0Zm15 47.842a2 2 0 1 1 .002 0Zm-25-21.444a2 2 0 1 1 .002 0Zm13 20.047a2 2 0 1 1 .002 0Z" class="highcharts-point highcharts-color-1" tabindex="-1" aria-hidden="true" style="outline:0" transform="translate(73 47)"/><path d="M156 174.183a2 2 0 1 1 .002 0Zm18-2.378a2 2 0 1 1 .002 0Zm-7-1.527a2 2 0 1 1 .002 0Zm-26 46.111a2 2 0 1 1 .002 0Zm12-19.583a2 2 0 1 1 .002 0Zm1-10.054a2 2 0 1 1 .002 0Zm-15-60.542a2 2 0 1 1 .002 0Zm31 62.126a2 2 0 1 1 .002 0Zm2-10.263a2 2 0 1 1 .002 0Zm-32-20.853a2 2 0 1 1 .002 0Zm28-11.831a2 2 0 1 1 .002 0Zm-24 89.128a2 2 0 1 1 .002 0Zm24-82.826a2 2 0 1 1 .002 0Zm-29 58.696a2 2 0 1 1 .002 0Zm40-62.027a2 2 0 1 1 .002 0Zm-45-27.801a2 2 0 1 1 .002 0Zm26 74.674a2 2 0 1 1 .002 0Zm-9-14.148a2 2 0 1 1 .002 0Zm-14-39.968a2 2 0 1 1 .002 0Z" class="highcharts-point highcharts-color-1" tabindex="-1" aria-hidden="true" style="outline:0" transform="translate(73 47)"/><path d="M157 187.664a2 2 0 1 1 .002 0Zm-12 18.498a2 2 0 1 1 .002 0Zm-12-15.608a2 2 0 1 1 .002 0Zm7-42.531a2 2 0 1 1 .002 0Zm-10 98.297a2 2 0 1 1 .002 0Z" class="highcharts-point highcharts-color-1" tabindex="-1" aria-hidden="true" style="outline:0" transform="translate(73 47)"/></g><g class="highcharts-markers highcharts-series-2 highcharts-scatter-series highcharts-color-2 highcharts-tracker" data-z-index=".1" aria-hidden="false" tabindex="-1" aria-label="Run 3, scatter plot 3 of 5 with 200 points." style="outline:0" fill="rgba(144,237,125,0.5)"><path d="M233 135.303a2 2 0 1 1 .002 0Zm35 57.452a2 2 0 1 1 .002 0Zm14-58.311a2 2 0 1 1 .002 0Zm-39 35.947a2 2 0 1 1 .002 0Zm39 19.796a2 2 0 1 1 .002 0Zm-11-3.244a2 2 0 1 1 .002 0Zm4-88.193a2 2 0 1 1 .002 0Zm1 96.628a2 2 0 1 1 .002 0Zm-14 49.305a2 2 0 1 1 .002 0Zm-20 4.761a2 2 0 1 1 .002 0Zm30-48.468a2 2 0 1 1 .002 0Z" class="highcharts-point highcharts-color-2" tabindex="-1" aria-hidden="true" style="outline:0" transform="translate(73 47)"/><path d="M238 284.262a2 2 0 1 1 .002 0Z" class="highcharts-point highcharts-negative highcharts-color-2" tabindex="-1" aria-hidden="true" style="outline:0" transform="translate(73 47)"/><path d="M247 118.647a2 2 0 1 1 .002 0Zm19 101.661a2 2 0 1 1 .002 0Zm-29-37.352a2 2 0 1 1 .002 0Zm40-.166a2 2 0 1 1 .002 0Zm4-41.486a2 2 0 1 1 .002 0Zm-47 38.331a2 2 0 1 1 .002 0Zm6 20.682a2 2 0 1 1 .002 0Zm32-16.421a2 2 0 1 1 .002 0Zm-16-48.578a2 2 0 1 1 .002 0Zm5 25.561a2 2 0 1 1 .002 0Z" class="highcharts-point highcharts-color-2" tabindex="-1" aria-hidden="true" style="outline:0" transform="translate(73 47)"/><path d="M257 131.417a2 2 0 1 1 .002 0Zm16 6.758a2 2 0 1 1 .002 0Zm-29 93.838a2 2 0 1 1 .002 0Zm13-21.721a2 2 0 1 1 .002 0Zm5 59.391a2 2 0 1 1 .002 0Zm9-85.373a2 2 0 1 1 .002 0Zm-35-64.704a2 2 0 1 1 .002 0Zm30 118.843a2 2 0 1 1 .002 0Zm1-28.217a2 2 0 1 1 .002 0Z" class="highcharts-point highcharts-color-2" tabindex="-1" aria-hidden="true" style="outline:0" transform="translate(73 47)"/><path d="M264 210.687a2 2 0 1 1 .002 0Zm-18 23.003a2 2 0 1 1 .002 0Zm-7-77.542a2 2 0 1 1 .002 0Zm35 24.126a2 2 0 1 1 .002 0Zm-32-1.937a2 2 0 1 1 .002 0Zm2-17.39a2 2 0 1 1 .002 0Zm20 20.637a2 2 0 1 1 .002 0Zm3-16.774a2 2 0 1 1 .002 0Zm14 11.988a2 2 0 1 1 .002 0Zm-41 29.264a2 2 0 1 1 .002 0Zm32-20.486a2 2 0 1 1 .002 0Zm0 27.338a2 2 0 1 1 .002 0Z" class="highcharts-point highcharts-color-2" tabindex="-1" aria-hidden="true" style="outline:0" transform="translate(73 47)"/><path d="M246 178.146a2 2 0 1 1 .002 0Zm-12-2.3a2 2 0 1 1 .002 0Zm1 55.578a2 2 0 1 1 .002 0Zm42-50.774a2 2 0 1 1 .002 0Zm-8 61.645a2 2 0 1 1 .002 0ZM256 215.1a2 2 0 1 1 .002 0Zm1-52.859a2 2 0 1 1 .002 0Zm-11 64.999a2 2 0 1 1 .002 0Zm2-149.61a2 2 0 1 1 .002 0Zm-1 61.174a2 2 0 1 1 .002 0Zm-1 29.487a2 2 0 1 1 .002 0Zm-7 6.954a2 2 0 1 1 .002 0Zm16 11.07a2 2 0 1 1 .002 0Zm3-13.411a2 2 0 1 1 .002 0Zm7-4.744a2 2 0 1 1 .002 0Zm4 17.934a2 2 0 1 1 .002 0Zm-17 73.431a2 2 0 1 1 .002 0Zm26-86.981a2 2 0 1 1 .002 0Zm-4-3.102a2 2 0 1 1 .002 0Zm-31-24.875a2 2 0 1 1 .002 0Zm18 39.111a2 2 0 1 1 .002 0Zm-15 56.358a2 2 0 1 1 .002 0Z" class="highcharts-point highcharts-color-2" tabindex="-1" aria-hidden="true" style="outline:0" transform="translate(73 47)"/><path d="M247 167.655a2 2 0 1 1 .002 0Zm10-16.698a2 2 0 1 1 .002 0Zm16 8.193a2 2 0 1 1 .002 0Zm-4-30.1a2 2 0 1 1 .002 0Zm-28 57.53a2 2 0 1 1 .002 0Zm37-33.734a2 2 0 1 1 .002 0Zm-18 5.622a2 2 0 1 1 .002 0Zm-15 98.831a2 2 0 1 1 .002 0Z" class="highcharts-point highcharts-color-2" tabindex="-1" aria-hidden="true" style="outline:0" transform="translate(73 47)"/><path d="M247 163.714a2 2 0 1 1 .002 0Z" class="highcharts-point highcharts-color-2" tabindex="-1" aria-hidden="true" style="outline:0" transform="translate(73 47)"/><path d="M260 274.468a2 2 0 1 1 .002 0Z" class="highcharts-point highcharts-negative highcharts-color-2" tabindex="-1" aria-hidden="true" style="outline:0" transform="translate(73 47)"/><path d="M242 97.358a2 2 0 1 1 .002 0Zm-5 117.116a2 2 0 1 1 .002 0ZM243 158a2 2 0 1 1 .002 0Zm29 4.217a2 2 0 1 1 .002 0Zm5 26.806a2 2 0 1 1 .002 0Zm-38-43.653a2 2 0 1 1 .002 0Zm0 44.381a2 2 0 1 1 .002 0Zm8-34.477a2 2 0 1 1 .002 0Zm18 43.283a2 2 0 1 1 .002 0Zm13-21.651a2 2 0 1 1 .002 0Zm-33 53.016a2 2 0 1 1 .002 0Zm9-90.954a2 2 0 1 1 .002 0Zm20 7.092a2 2 0 1 1 .002 0Z" class="highcharts-point highcharts-color-2" tabindex="-1" aria-hidden="true" style="outline:0" transform="translate(73 47)"/><path d="M282 176.886a2 2 0 1 1 .002 0Zm-14-29.883a2 2 0 1 1 .002 0Zm13 36.577a2 2 0 1 1 .002 0Zm-4 42.127a2 2 0 1 1 .002 0Zm-27-29.249a2 2 0 1 1 .002 0Zm-8-37.301a2 2 0 1 1 .002 0Zm15 11.44a2 2 0 1 1 .002 0Zm7 13.105a2 2 0 1 1 .002 0Zm13-33.592a2 2 0 1 1 .002 0Zm-40 79.788a2 2 0 1 1 .002 0Zm5-53.54a2 2 0 1 1 .002 0Zm37-3.239a2 2 0 1 1 .002 0Zm-29 7.722a2 2 0 1 1 .002 0Z" class="highcharts-point highcharts-color-2" tabindex="-1" aria-hidden="true" style="outline:0" transform="translate(73 47)"/><path d="M246 158.942a2 2 0 1 1 .002 0Zm0 15.303a2 2 0 1 1 .002 0Zm31-41.305a2 2 0 1 1 .002 0Zm-5 37.647a2 2 0 1 1 .002 0Zm-7-62.703a2 2 0 1 1 .002 0Zm-3 128.488a2 2 0 1 1 .002 0Zm12-52.417a2 2 0 1 1 .002 0Zm-32 8.962a2 2 0 1 1 .002 0Zm12 29.455a2 2 0 1 1 .002 0Zm8-102.686a2 2 0 1 1 .002 0Zm-5 75.628a2 2 0 1 1 .002 0Zm-22 6.761a2 2 0 1 1 .002 0Zm7-56.965a2 2 0 1 1 .002 0Z" class="highcharts-point highcharts-color-2" tabindex="-1" aria-hidden="true" style="outline:0" transform="translate(73 47)"/><path d="M273 169.808a2 2 0 1 1 .002 0Zm-22-41.973a2 2 0 1 1 .002 0Zm13 8.662a2 2 0 1 1 .002 0Zm-30 81.677a2 2 0 1 1 .002 0Zm23-58.166a2 2 0 1 1 .002 0Zm24 73.772a2 2 0 1 1 .002 0Zm-42 7.184a2 2 0 1 1 .002 0Zm2-52.289a2 2 0 1 1 .002 0Zm-1 4.379a2 2 0 1 1 .002 0Zm41 8.752a2 2 0 1 1 .002 0Zm-41 28.884a2 2 0 1 1 .002 0Zm23-110.704a2 2 0 1 1 .002 0Zm15 47.274a2 2 0 1 1 .002 0Zm-30-1.059a2 2 0 1 1 .002 0Zm4 57.299a2 2 0 1 1 .002 0Z" class="highcharts-point highcharts-color-2" tabindex="-1" aria-hidden="true" style="outline:0" transform="translate(73 47)"/><path d="M246 166.4a2 2 0 1 1 .002 0Zm34 37.18a2 2 0 1 1 .002 0Zm1 21.846a2 2 0 1 1 .002 0Zm-6-40.99a2 2 0 1 1 .002 0Zm-9 45.638a2 2 0 1 1 .002 0Zm-20-49.701a2 2 0 1 1 .002 0Zm21 17.051a2 2 0 1 1 .002 0Zm-1-30.004a2 2 0 1 1 .002 0Zm10 39.524a2 2 0 1 1 .002 0Zm-19-33.334a2 2 0 1 1 .002 0Z" class="highcharts-point highcharts-color-2" tabindex="-1" aria-hidden="true" style="outline:0" transform="translate(73 47)"/><path d="M273 182.096a2 2 0 1 1 .002 0Zm-20 36.277a2 2 0 1 1 .002 0Zm16-70.209a2 2 0 1 1 .002 0Zm-33 116.543a2 2 0 1 1 .002 0Z" class="highcharts-point highcharts-color-2" tabindex="-1" aria-hidden="true" style="outline:0" transform="translate(73 47)"/><path d="M260 275.097a2 2 0 1 1 .002 0Z" class="highcharts-point highcharts-negative highcharts-color-2" tabindex="-1" aria-hidden="true" style="outline:0" transform="translate(73 47)"/><path d="M272 137.924a2 2 0 1 1 .002 0Zm-16 .981a2 2 0 1 1 .002 0Zm12 51.399a2 2 0 1 1 .002 0Zm-13-26.794a2 2 0 1 1 .002 0Zm11-46.541a2 2 0 1 1 .002 0Zm-7 121.462a2 2 0 1 1 .002 0Zm-14-79.451a2 2 0 1 1 .002 0Z" class="highcharts-point highcharts-color-2" tabindex="-1" aria-hidden="true" style="outline:0" transform="translate(73 47)"/><path d="M258 142.474a2 2 0 1 1 .002 0Zm-15 53.563a2 2 0 1 1 .002 0Zm-10-28.957a2 2 0 1 1 .002 0Zm40 88.696a2 2 0 1 1 .002 0Zm4 4.664a2 2 0 1 1 .002 0Zm-36-38.814a2 2 0 1 1 .002 0Zm18-44.106a2 2 0 1 1 .002 0Zm-14 34.939a2 2 0 1 1 .002 0Zm-2-63.119a2 2 0 1 1 .002 0Zm3 40.883a2 2 0 1 1 .002 0Zm33 .151a2 2 0 1 1 .002 0Zm-21-38.398a2 2 0 1 1 .002 0Zm20 47.249a2 2 0 1 1 .002 0Zm-29 17.115a2 2 0 1 1 .002 0Zm32-81.248a2 2 0 1 1 .002 0Zm-2 4.996a2 2 0 1 1 .002 0Zm-21-18.06a2 2 0 1 1 .002 0Zm-12 54.108a2 2 0 1 1 .002 0Zm-13 1.789a2 2 0 1 1 .002 0Zm25 44.175a2 2 0 1 1 .002 0Zm20-37.103a2 2 0 1 1 .002 0Zm-15-43.74a2 2 0 1 1 .002 0Zm15 8.966a2 2 0 1 1 .002 0Zm-26-11.753a2 2 0 1 1 .002 0Zm14 9.198a2 2 0 1 1 .002 0Zm-7 12.212a2 2 0 1 1 .002 0Zm19 2.722a2 2 0 1 1 .002 0Zm-7 48.136a2 2 0 1 1 .002 0Zm-27-7.621a2 2 0 1 1 .002 0Zm13-18.312a2 2 0 1 1 .002 0Z" class="highcharts-point highcharts-color-2" tabindex="-1" aria-hidden="true" style="outline:0" transform="translate(73 47)"/><path d="M257 184.901a2 2 0 1 1 .002 0Zm-14 88.107a2 2 0 1 1 .002 0Zm30-64.347a2 2 0 1 1 .002 0Zm2 26.879a2 2 0 1 1 .002 0Zm-31-8.69a2 2 0 1 1 .002 0Zm27-70.172a2 2 0 1 1 .002 0Zm-23 66.512a2 2 0 1 1 .002 0Zm23-73.968a2 2 0 1 1 .002 0Zm-29-15.224a2 2 0 1 1 .002 0Zm40 52.593a2 2 0 1 1 .002 0Zm-45 4.953a2 2 0 1 1 .002 0Zm27-10.438a2 2 0 1 1 .002 0Z" class="highcharts-point highcharts-color-2" tabindex="-1" aria-hidden="true" style="outline:0" transform="translate(73 47)"/><path d="M255 282.33a2 2 0 1 1 .002 0Z" class="highcharts-point highcharts-negative highcharts-color-2" tabindex="-1" aria-hidden="true" style="outline:0" transform="translate(73 47)"/><path d="M240 150.46a2 2 0 1 1 .002 0Zm20-1.24a2 2 0 1 1 .002 0Zm-12 20.434a2 2 0 1 1 .002 0Zm-12 10.169a2 2 0 1 1 .002 0Zm8 42.102a2 2 0 1 1 .002 0Zm-10-85.617a2 2 0 1 1 .002 0Z" class="highcharts-point highcharts-color-2" tabindex="-1" aria-hidden="true" style="outline:0" transform="translate(73 47)"/></g><g class="highcharts-markers highcharts-series-3 highcharts-scatter-series highcharts-color-3 highcharts-tracker" data-z-index=".1" aria-hidden="false" tabindex="-1" aria-label="Run 4, scatter plot 4 of 5 with 200 points." style="outline:0" fill="rgba(247,163,92,0.5)"><path d="M337 136.796a2 2 0 1 1 .002 0Zm35-29.298a2 2 0 1 1 .002 0Zm13 101.677a2 2 0 1 1 .002 0Zm-38-66.571a2 2 0 1 1 .002 0Zm38-4.534a2 2 0 1 1 .002 0Zm-11-14.534a2 2 0 1 1 .002 0Zm5 13.621a2 2 0 1 1 .002 0Zm1 5.026a2 2 0 1 1 .002 0Zm-15 8.528a2 2 0 1 1 .002 0Z" class="highcharts-point highcharts-color-3" tabindex="-1" aria-hidden="true" style="outline:0" transform="translate(73 47)"/><path d="M346 141.702a2 2 0 1 1 .002 0Zm30 24.992a2 2 0 1 1 .002 0Zm-35-16.713a2 2 0 1 1 .002 0Zm9 6.476a2 2 0 1 1 .002 0Zm20 10.491a2 2 0 1 1 .002 0Zm-30-39.415a2 2 0 1 1 .002 0Zm40 20.691a2 2 0 1 1 .002 0Zm5 3.846a2 2 0 1 1 .002 0Zm-47-38.467a2 2 0 1 1 .002 0Z" class="highcharts-point highcharts-color-3" tabindex="-1" aria-hidden="true" style="outline:0" transform="translate(73 47)"/><path d="M343 152.632a2 2 0 1 1 .002 0Zm32 21.312a2 2 0 1 1 .002 0Zm-16-16.918a2 2 0 1 1 .002 0Zm5-7.708a2 2 0 1 1 .002 0Z" class="highcharts-point highcharts-color-3" tabindex="-1" aria-hidden="true" style="outline:0" transform="translate(73 47)"/><path d="M361 148.421a2 2 0 1 1 .002 0Zm15-71.928a2 2 0 1 1 .002 0Zm-29 83.197a2 2 0 1 1 .002 0Zm14-84.501a2 2 0 1 1 .002 0Zm5 43.775a2 2 0 1 1 .002 0Zm8 29.789a2 2 0 1 1 .002 0Zm-35-96.236a2 2 0 1 1 .002 0Z" class="highcharts-point highcharts-color-3" tabindex="-1" aria-hidden="true" style="outline:0" transform="translate(73 47)"/><path d="M369 119.232a2 2 0 1 1 .002 0Zm2 19.698a2 2 0 1 1 .002 0Zm-3 7.89a2 2 0 1 1 .002 0Zm-18-23.185a2 2 0 1 1 .002 0Zm-8 74.935a2 2 0 1 1 .002 0Zm36-15.025a2 2 0 1 1 .002 0ZM345 136.7a2 2 0 1 1 .002 0Zm2 44.587a2 2 0 1 1 .002 0Zm20-71.545a2 2 0 1 1 .002 0Zm4-49.419a2 2 0 1 1 .002 0Zm13 69.948a2 2 0 1 1 .002 0Zm-41 19.046a2 2 0 1 1 .002 0Zm32-2.873a2 2 0 1 1 .002 0Z" class="highcharts-point highcharts-color-3" tabindex="-1" aria-hidden="true" style="outline:0" transform="translate(73 47)"/><path d="M376 145.742a2 2 0 1 1 .002 0Zm-27 5.276a2 2 0 1 1 .002 0Zm-11 18.218a2 2 0 1 1 .002 0Zm0-26.583a2 2 0 1 1 .002 0ZM380 94.3a2 2 0 1 1 .002 0Zm-7 106.054a2 2 0 1 1 .002 0Zm-14-40.046a2 2 0 1 1 .002 0Zm1-12.522a2 2 0 1 1 .002 0Zm-11-34.89a2 2 0 1 1 .002 0Zm2 108.866a2 2 0 1 1 .002 0Zm-1-135.778a2 2 0 1 1 .002 0Z" class="highcharts-point highcharts-color-3" tabindex="-1" aria-hidden="true" style="outline:0" transform="translate(73 47)"/><path d="M349 152.903a2 2 0 1 1 .002 0Zm-7 20.59a2 2 0 1 1 .002 0Zm17-36.044a2 2 0 1 1 .002 0Zm2 45.255a2 2 0 1 1 .002 0Zm8-40.273a2 2 0 1 1 .002 0Zm4 46.48a2 2 0 1 1 .002 0Zm-18-43.51a2 2 0 1 1 .002 0Zm26-18.708a2 2 0 1 1 .002 0Zm-4 12.597a2 2 0 1 1 .002 0Zm-31 4.495a2 2 0 1 1 .002 0Zm18 34.155a2 2 0 1 1 .002 0Zm-14-39.075a2 2 0 1 1 .002 0Z" class="highcharts-point highcharts-color-3" tabindex="-1" aria-hidden="true" style="outline:0" transform="translate(73 47)"/><path d="M351 152.681a2 2 0 1 1 .002 0Zm10-34.451a2 2 0 1 1 .002 0Zm15-51.579a2 2 0 1 1 .002 0Zm-4 136.158a2 2 0 1 1 .002 0Zm-28-46.884a2 2 0 1 1 .002 0Zm38-56.098a2 2 0 1 1 .002 0Zm-18 21.596a2 2 0 1 1 .002 0Zm-16 42.359a2 2 0 1 1 .002 0Zm3-98.771a2 2 0 1 1 .002 0Zm12 140.033a2 2 0 1 1 .002 0ZM346 45.852a2 2 0 1 1 .002 0Zm-6 101.258a2 2 0 1 1 .002 0Zm7 3.452a2 2 0 1 1 .002 0Zm29 3.703a2 2 0 1 1 .002 0Zm4 16.488a2 2 0 1 1 .002 0Zm-38-10.271a2 2 0 1 1 .002 0Z" class="highcharts-point highcharts-color-3" tabindex="-1" aria-hidden="true" style="outline:0" transform="translate(73 47)"/><path d="M343 153.159a2 2 0 1 1 .002 0Zm8-1.041a2 2 0 1 1 .002 0Zm18 31.422a2 2 0 1 1 .002 0Zm12-43.23a2 2 0 1 1 .002 0Zm-32 16.84a2 2 0 1 1 .002 0Zm8-12.48a2 2 0 1 1 .002 0Zm20 3.966a2 2 0 1 1 .002 0Zm8 19.961a2 2 0 1 1 .002 0Zm-14-64.255a2 2 0 1 1 .002 0Zm14 94.727a2 2 0 1 1 .002 0Zm-5-83.752a2 2 0 1 1 .002 0Zm-27 32.697a2 2 0 1 1 .002 0Z" class="highcharts-point highcharts-color-3" tabindex="-1" aria-hidden="true" style="outline:0" transform="translate(73 47)"/><path d="M345 150.031a2 2 0 1 1 .002 0Zm15-48.848a2 2 0 1 1 .002 0Zm7 56.23a2 2 0 1 1 .002 0Zm13 20.961a2 2 0 1 1 .002 0Zm-40 19.39a2 2 0 1 1 .002 0Zm6-71.074a2 2 0 1 1 .002 0Zm37 13.332a2 2 0 1 1 .002 0Zm-29-65.289a2 2 0 1 1 .002 0Zm-5 109.641a2 2 0 1 1 .002 0Zm1-44.477a2 2 0 1 1 .002 0Zm31-43.933a2 2 0 1 1 .002 0Zm-6 84.696a2 2 0 1 1 .002 0Zm-6-18.803a2 2 0 1 1 .002 0Zm-4-79.609a2 2 0 1 1 .002 0Zm12 63.684a2 2 0 1 1 .002 0Zm-31 53.753a2 2 0 1 1 .002 0Zm12-40.893a2 2 0 1 1 .002 0Z" class="highcharts-point highcharts-color-3" tabindex="-1" aria-hidden="true" style="outline:0" transform="translate(73 47)"/><path d="M365 86.346a2 2 0 1 1 .002 0Zm-4 128.248a2 2 0 1 1 .002 0Zm-22 7.846a2 2 0 1 1 .002 0Zm7-117.585a2 2 0 1 1 .002 0Zm30 13.134a2 2 0 1 1 .002 0Zm-22 50.887a2 2 0 1 1 .002 0Zm13-100.354a2 2 0 1 1 .002 0Zm-29 88.861a2 2 0 1 1 .002 0Zm22-41.323a2 2 0 1 1 .002 0Zm24 38.612a2 2 0 1 1 .002 0Zm-42-69.245a2 2 0 1 1 .002 0Zm2 57.676a2 2 0 1 1 .002 0Zm-1 18.724a2 2 0 1 1 .002 0Zm41-17.378a2 2 0 1 1 .002 0Zm-41-77.751a2 2 0 1 1 .002 0Zm23 91.634a2 2 0 1 1 .002 0Zm16-52.47a2 2 0 1 1 .002 0Zm-30 38.048a2 2 0 1 1 .002 0Zm3 79.682a2 2 0 1 1 .002 0Zm-5-57.577a2 2 0 1 1 .002 0Zm33-112.308a2 2 0 1 1 .002 0Zm2 76.958a2 2 0 1 1 .002 0Zm-7 42.301a2 2 0 1 1 .002 0Zm-9-29.334a2 2 0 1 1 .002 0Zm-20-4.617a2 2 0 1 1 .002 0Zm22 74.472a2 2 0 1 1 .002 0Z" class="highcharts-point highcharts-color-3" tabindex="-1" aria-hidden="true" style="outline:0" transform="translate(73 47)"/><path d="M370 214.967a2 2 0 1 1 .002 0Zm9-120.515a2 2 0 1 1 .002 0Zm-19 66.652a2 2 0 1 1 .002 0Zm16 63.306a2 2 0 1 1 .002 0Zm-20-122.33a2 2 0 1 1 .002 0Zm16 81.505a2 2 0 1 1 .002 0Zm-33-23.922a2 2 0 1 1 .002 0Zm25-7.72a2 2 0 1 1 .002 0Zm11-7.553a2 2 0 1 1 .002 0Z" class="highcharts-point highcharts-color-3" tabindex="-1" aria-hidden="true" style="outline:0" transform="translate(73 47)"/><path d="M359 160.411a2 2 0 1 1 .002 0Zm12-84.283a2 2 0 1 1 .002 0Zm-13 16.078a2 2 0 1 1 .002 0Zm12 80.234a2 2 0 1 1 .002 0Zm-8-78.025a2 2 0 1 1 .002 0Zm-14 58.686a2 2 0 1 1 .002 0Zm13-7.185a2 2 0 1 1 .002 0Zm-14-4.686a2 2 0 1 1 .002 0Zm-10-9.351a2 2 0 1 1 .002 0Zm39 .946a2 2 0 1 1 .002 0Z" class="highcharts-point highcharts-color-3" tabindex="-1" aria-hidden="true" style="outline:0" transform="translate(73 47)"/><path d="M380 132.193a2 2 0 1 1 .002 0ZM344 70.41a2 2 0 1 1 .002 0Zm18 54.626a2 2 0 1 1 .002 0Zm-13 74.675a2 2 0 1 1 .002 0Zm-3-58.438a2 2 0 1 1 .002 0Zm3 16.846a2 2 0 1 1 .002 0Zm33 1.74a2 2 0 1 1 .002 0Zm-21-10.463a2 2 0 1 1 .002 0Zm20-11.134a2 2 0 1 1 .002 0Zm-28 90.445a2 2 0 1 1 .002 0Zm32-78.365a2 2 0 1 1 .002 0Zm-3-32.425a2 2 0 1 1 .002 0Zm-21 48.925a2 2 0 1 1 .002 0Zm-11-14.627a2 2 0 1 1 .002 0Zm-13 63.995a2 2 0 1 1 .002 0Z" class="highcharts-point highcharts-color-3" tabindex="-1" aria-hidden="true" style="outline:0" transform="translate(73 47)"/><path d="M361 147.617a2 2 0 1 1 .002 0Zm21-42.873a2 2 0 1 1 .002 0Zm-16 45.846a2 2 0 1 1 .002 0Zm15 67.809a2 2 0 1 1 .002 0Zm-26-13.293a2 2 0 1 1 .002 0Zm14-128.518a2 2 0 1 1 .002 0Zm-6 48.933a2 2 0 1 1 .002 0Zm18 101.197a2 2 0 1 1 .002 0ZM374 73.52a2 2 0 1 1 .002 0Zm-26 55.017a2 2 0 1 1 .002 0Zm12 45.171a2 2 0 1 1 .002 0Zm1-17.716a2 2 0 1 1 .002 0Zm-15 3.564a2 2 0 1 1 .002 0Zm30-32.691a2 2 0 1 1 .002 0Zm2 40.067a2 2 0 1 1 .002 0Z" class="highcharts-point highcharts-color-3" tabindex="-1" aria-hidden="true" style="outline:0" transform="translate(73 47)"/><path d="M347 131.133a2 2 0 1 1 .002 0Zm27 28.024a2 2 0 1 1 .002 0Zm-23-10.43a2 2 0 1 1 .002 0Zm23-2.59a2 2 0 1 1 .002 0Zm-29-49.398a2 2 0 1 1 .002 0Zm41 57.498a2 2 0 1 1 .002 0Z" class="highcharts-point highcharts-color-3" tabindex="-1" aria-hidden="true" style="outline:0" transform="translate(73 47)"/><path d="M341 96.645a2 2 0 1 1 .002 0Zm26 16.675a2 2 0 1 1 .002 0Zm-9 105.088a2 2 0 1 1 .002 0Zm-15-18.064a2 2 0 1 1 .002 0Zm21-91.55a2 2 0 1 1 .002 0Zm-12 23.019a2 2 0 1 1 .002 0Zm-13 16.951a2 2 0 1 1 .002 0Zm8 5.296a2 2 0 1 1 .002 0Zm-10-27.924a2 2 0 1 1 .002 0Z" class="highcharts-point highcharts-color-3" tabindex="-1" aria-hidden="true" style="outline:0" transform="translate(73 47)"/></g><g class="highcharts-markers highcharts-series-4 highcharts-scatter-series highcharts-color-4 highcharts-tracker" data-z-index=".1" aria-hidden="false" tabindex="-1" aria-label="Run 5, scatter plot 5 of 5 with 200 points." style="outline:0" fill="rgba(128,133,233,0.5)"><path d="M440 177.016a2 2 0 1 1 .002 0Zm35-58.805a2 2 0 1 1 .002 0Zm13 138.834a2 2 0 1 1 .002 0Zm-38-111.722a2 2 0 1 1 .002 0Zm38 24.739a2 2 0 1 1 .002 0Zm-10 53.526a2 2 0 1 1 .002 0Zm4-34.468a2 2 0 1 1 .002 0Zm1-4.797a2 2 0 1 1 .002 0Zm-14-22.58a2 2 0 1 1 .002 0Zm-20-2.993a2 2 0 1 1 .002 0Zm30-4.615a2 2 0 1 1 .002 0Zm-34-1.416a2 2 0 1 1 .002 0Zm8 40.07a2 2 0 1 1 .002 0Zm20-24.659a2 2 0 1 1 .002 0Zm-29 54.69a2 2 0 1 1 .002 0Z" class="highcharts-point highcharts-color-4" tabindex="-1" aria-hidden="true" style="outline:0" transform="translate(73 47)"/><path d="M484 187.614a2 2 0 1 1 .002 0Zm4-33.68a2 2 0 1 1 .002 0Zm-47 26.001a2 2 0 1 1 .002 0Zm5 14.959a2 2 0 1 1 .002 0Zm32 1.91a2 2 0 1 1 .002 0Zm-16-9.986a2 2 0 1 1 .002 0Zm6-21.843a2 2 0 1 1 .002 0Zm-4 45.01a2 2 0 1 1 .002 0Zm15-87.602a2 2 0 1 1 .002 0Zm-28 85.351a2 2 0 1 1 .002 0Zm13-25.154a2 2 0 1 1 .002 0Zm5-11.155a2 2 0 1 1 .002 0Z" class="highcharts-point highcharts-color-4" tabindex="-1" aria-hidden="true" style="outline:0" transform="translate(73 47)"/><path d="M478 120.548a2 2 0 1 1 .002 0Zm-35 70.9a2 2 0 1 1 .002 0Zm30-16.018a2 2 0 1 1 .002 0Zm1 27.045a2 2 0 1 1 .002 0Zm-3-36.344a2 2 0 1 1 .002 0Zm-18 14.094a2 2 0 1 1 .002 0Zm-7-6.392a2 2 0 1 1 .002 0Zm35 68.757a2 2 0 1 1 .002 0Zm-32-105.878a2 2 0 1 1 .002 0Zm1 19.19a2 2 0 1 1 .002 0Zm21 57.278a2 2 0 1 1 .002 0Z" class="highcharts-point highcharts-color-4" tabindex="-1" aria-hidden="true" style="outline:0" transform="translate(73 47)"/><path d="M474 166.181a2 2 0 1 1 .002 0Zm13 43.705a2 2 0 1 1 .002 0Zm-40-12.92a2 2 0 1 1 .002 0Zm31-68.581a2 2 0 1 1 .002 0Zm1 97.119a2 2 0 1 1 .002 0Zm-26-6.698a2 2 0 1 1 .002 0ZM441 96.46a2 2 0 1 1 .002 0Zm1 78.786a2 2 0 1 1 .002 0Zm42 9.165a2 2 0 1 1 .002 0Zm-8 13.705a2 2 0 1 1 .002 0Zm-14-11.76a2 2 0 1 1 .002 0Zm1-15.616a2 2 0 1 1 .002 0Zm-11 36.741a2 2 0 1 1 .002 0Zm2 38.108a2 2 0 1 1 .002 0Zm0-93.372a2 2 0 1 1 .002 0Zm-2 79.532a2 2 0 1 1 .002 0Z" class="highcharts-point highcharts-color-4" tabindex="-1" aria-hidden="true" style="outline:0" transform="translate(73 47)"/><path d="M445 175.767a2 2 0 1 1 .002 0Zm17-32.847a2 2 0 1 1 .002 0Zm2 75.62a2 2 0 1 1 .002 0Zm8-96.665a2 2 0 1 1 .002 0Zm4 37.647a2 2 0 1 1 .002 0Z" class="highcharts-point highcharts-color-4" tabindex="-1" aria-hidden="true" style="outline:0" transform="translate(73 47)"/><path d="M459 145.48a2 2 0 1 1 .002 0Zm25-34.69a2 2 0 1 1 .002 0Zm-3 64.9a2 2 0 1 1 .002 0Zm-31-40.809a2 2 0 1 1 .002 0Zm18 120.072a2 2 0 1 1 .002 0Zm-15-77.503a2 2 0 1 1 .002 0Zm1-60.474a2 2 0 1 1 .002 0Zm10 62.073a2 2 0 1 1 .002 0Zm16 78.711a2 2 0 1 1 .002 0Zm-4-70.542a2 2 0 1 1 .002 0Zm-28 14.827a2 2 0 1 1 .002 0Zm37-8.993a2 2 0 1 1 .002 0Zm-18-38.708a2 2 0 1 1 .002 0Zm-15 5.426a2 2 0 1 1 .002 0Zm2-8.668a2 2 0 1 1 .002 0Zm13 94.09a2 2 0 1 1 .002 0Zm-18-64.67a2 2 0 1 1 .002 0Zm-5-9.109a2 2 0 1 1 .002 0Zm6 60.965a2 2 0 1 1 .002 0Zm29-50.663a2 2 0 1 1 .002 0Zm4-47.994a2 2 0 1 1 .002 0Zm-37 53.689a2 2 0 1 1 .002 0Zm0-21.877a2 2 0 1 1 .002 0Zm8 88.403a2 2 0 1 1 .002 0Zm18-72.953a2 2 0 1 1 .002 0Zm13-104.669a2 2 0 1 1 .002 0ZM452 99.2a2 2 0 1 1 .002 0Z" class="highcharts-point highcharts-color-4" tabindex="-1" aria-hidden="true" style="outline:0" transform="translate(73 47)"/><path d="M461 176.395a2 2 0 1 1 .002 0Zm20 .078a2 2 0 1 1 .002 0Zm8-27.628a2 2 0 1 1 .002 0Zm-15 70.121a2 2 0 1 1 .002 0Zm14-27.331a2 2 0 1 1 .002 0Zm-5-25.645a2 2 0 1 1 .002 0Zm-26 42.488a2 2 0 1 1 .002 0Zm-8-36.814a2 2 0 1 1 .002 0Zm15 56.18a2 2 0 1 1 .002 0Zm7-49.554a2 2 0 1 1 .002 0Zm13-51.814a2 2 0 1 1 .002 0Zm-40 44.812a2 2 0 1 1 .002 0Zm5 26.674a2 2 0 1 1 .002 0Zm37-24.631a2 2 0 1 1 .002 0Zm-29 5.179a2 2 0 1 1 .002 0Z" class="highcharts-point highcharts-color-4" tabindex="-1" aria-hidden="true" style="outline:0" transform="translate(73 47)"/><path d="M453 170.504a2 2 0 1 1 .002 0Zm0 17.969a2 2 0 1 1 .002 0Zm31-5.281a2 2 0 1 1 .002 0Zm-6-19.485a2 2 0 1 1 .002 0Zm-6 1.94a2 2 0 1 1 .002 0Zm-3 60.53a2 2 0 1 1 .002 0Zm12 24.488a2 2 0 1 1 .002 0Zm-32-.35a2 2 0 1 1 .002 0Zm12-50.325a2 2 0 1 1 .002 0Zm7-16.24a2 2 0 1 1 .002 0Zm-4 62.434a2 2 0 1 1 .002 0Zm-22 9.124a2 2 0 1 1 .002 0Zm7-80.118a2 2 0 1 1 .002 0Zm31-81.376a2 2 0 1 1 .002 0Zm-22 46.659a2 2 0 1 1 .002 0Z" class="highcharts-point highcharts-color-4" tabindex="-1" aria-hidden="true" style="outline:0" transform="translate(73 47)"/><path d="M470 183.537a2 2 0 1 1 .002 0Zm-29 55.31a2 2 0 1 1 .002 0Zm23-38.761a2 2 0 1 1 .002 0Zm24-26.045a2 2 0 1 1 .002 0Zm-42-9.413a2 2 0 1 1 .002 0Zm2-19.005a2 2 0 1 1 .002 0Zm-1 10.379a2 2 0 1 1 .002 0Zm41 28.958a2 2 0 1 1 .002 0Zm-42-56.268a2 2 0 1 1 .002 0Zm24 121.84a2 2 0 1 1 .002 0Zm15-114.392a2 2 0 1 1 .002 0Zm-30 53.331a2 2 0 1 1 .002 0Zm4-23.257a2 2 0 1 1 .002 0Zm-6-1.398a2 2 0 1 1 .002 0Zm34 59.847a2 2 0 1 1 .002 0Z" class="highcharts-point highcharts-color-4" tabindex="-1" aria-hidden="true" style="outline:0" transform="translate(73 47)"/><path d="M488 176.695a2 2 0 1 1 .002 0Zm-7 50.45a2 2 0 1 1 .002 0Zm-8-61.066a2 2 0 1 1 .002 0Zm-21 8.375a2 2 0 1 1 .002 0Zm22-36.218a2 2 0 1 1 .002 0Zm-1 16.665a2 2 0 1 1 .002 0Zm9 11.979a2 2 0 1 1 .002 0Zm-18 97.616a2 2 0 1 1 .002 0Zm16-71.737a2 2 0 1 1 .002 0Zm-20-17.568a2 2 0 1 1 .002 0Zm15 5.605a2 2 0 1 1 .002 0Zm-33-28.782a2 2 0 1 1 .002 0Zm25 24.031a2 2 0 1 1 .002 0Z" class="highcharts-point highcharts-color-4" tabindex="-1" aria-hidden="true" style="outline:0" transform="translate(73 47)"/><path d="M479 169.066a2 2 0 1 1 .002 0Zm-17 26.085a2 2 0 1 1 .002 0Zm12-28.742a2 2 0 1 1 .002 0Zm-12 3.853a2 2 0 1 1 .002 0Z" class="highcharts-point highcharts-color-4" tabindex="-1" aria-hidden="true" style="outline:0" transform="translate(73 47)"/><path d="M473 169.032a2 2 0 1 1 .002 0Zm-8-3.345a2 2 0 1 1 .002 0Zm-13 2.217a2 2 0 1 1 .002 0Zm13 8.208a2 2 0 1 1 .002 0Zm-15 39.1a2 2 0 1 1 .002 0Zm-10 3.66a2 2 0 1 1 .002 0Zm40-127.13a2 2 0 1 1 .002 0Zm4 141.978a2 2 0 1 1 .002 0Zm-36 4.514a2 2 0 1 1 .002 0Zm18-83.475a2 2 0 1 1 .002 0Zm-14 46.767a2 2 0 1 1 .002 0Zm-2-16.285a2 2 0 1 1 .002 0Zm3-50.931a2 2 0 1 1 .002 0Zm33 35.053a2 2 0 1 1 .002 0Z" class="highcharts-point highcharts-color-4" tabindex="-1" aria-hidden="true" style="outline:0" transform="translate(73 47)"/><path d="M465 176.96a2 2 0 1 1 .002 0Zm20 1.082a2 2 0 1 1 .002 0Zm-29-5.378a2 2 0 1 1 .002 0Zm32 12.079a2 2 0 1 1 .002 0Zm-3 12.972a2 2 0 1 1 .002 0Zm-20 47.025a2 2 0 1 1 .002 0Zm-12-103.567a2 2 0 1 1 .002 0Zm-13 39.747a2 2 0 1 1 .002 0Z" class="highcharts-point highcharts-color-4" tabindex="-1" aria-hidden="true" style="outline:0" transform="translate(73 47)"/><path d="M465 175.585a2 2 0 1 1 .002 0Zm20 21.739a2 2 0 1 1 .002 0Zm-16-3.059a2 2 0 1 1 .002 0Zm15 53.519a2 2 0 1 1 .002 0Zm-25-60.188a2 2 0 1 1 .002 0Zm13-23.719a2 2 0 1 1 .002 0Z" class="highcharts-point highcharts-color-4" tabindex="-1" aria-hidden="true" style="outline:0" transform="translate(73 47)"/><path d="M466 175.131a2 2 0 1 1 .002 0Zm19 9.544a2 2 0 1 1 .002 0Zm-8-29.825a2 2 0 1 1 .002 0Zm-26 5.222a2 2 0 1 1 .002 0Zm12-28.375a2 2 0 1 1 .002 0Zm1 35.316a2 2 0 1 1 .002 0Zm-15-2.287a2 2 0 1 1 .002 0Zm31 20.854a2 2 0 1 1 .002 0Zm2-29.187a2 2 0 1 1 .002 0Zm-32 24.042a2 2 0 1 1 .002 0Zm28-6.778a2 2 0 1 1 .002 0Zm-24 1.941a2 2 0 1 1 .002 0Z" class="highcharts-point highcharts-color-4" tabindex="-1" aria-hidden="true" style="outline:0" transform="translate(73 47)"/><path d="M478 170.653a2 2 0 1 1 .002 0Zm-29-78.175a2 2 0 1 1 .002 0Zm40 22.034a2 2 0 1 1 .002 0Zm-45 119.016a2 2 0 1 1 .002 0Zm27-62.378a2 2 0 1 1 .002 0Zm-9 74.58a2 2 0 1 1 .002 0ZM447 192a2 2 0 1 1 .002 0Zm20-3.002a2 2 0 1 1 .002 0Zm-12 30.054a2 2 0 1 1 .002 0Zm-12-42.176a2 2 0 1 1 .002 0Zm8-32.613a2 2 0 1 1 .002 0Z" class="highcharts-point highcharts-color-4" tabindex="-1" aria-hidden="true" style="outline:0" transform="translate(73 47)"/><path d="M441 176.047a2 2 0 1 1 .002 0Z" class="highcharts-point highcharts-color-4" tabindex="-1" aria-hidden="true" style="outline:0" transform="translate(73 47)"/></g></g><text x="300" text-anchor="middle" class="highcharts-title" data-z-index="4" style="color:#333;font-size:18px;fill:#333" y="24" aria-hidden="true">Scatter chart with jitter</text><g class="highcharts-axis-labels highcharts-xaxis-labels" data-z-index="7" aria-hidden="true" text-anchor="middle"><text x="124.7" style="color:#666;cursor:default;font-size:11px;fill:#666" y="383">Run 1</text><text x="228.1" style="color:#666;cursor:default;font-size:11px;fill:#666" y="383">Run 2</text><text x="331.5" style="color:#666;cursor:default;font-size:11px;fill:#666" y="383">Run 3</text><text x="434.9" style="color:#666;cursor:default;font-size:11px;fill:#666" y="383">Run 4</text><text x="538.3" style="color:#666;cursor:default;font-size:11px;fill:#666" y="383">Run 5</text></g><g class="highcharts-axis-labels highcharts-yaxis-labels" data-z-index="7" aria-hidden="true" text-anchor="end"><text x="58" style="color:#666;cursor:default;font-size:11px;fill:#666" y="369">-0.1</text><text x="58" style="color:#666;cursor:default;font-size:11px;fill:#666" y="323">0</text><text x="58" style="color:#666;cursor:default;font-size:11px;fill:#666" y="278">0.1</text><text x="58" style="color:#666;cursor:default;font-size:11px;fill:#666" y="233">0.2</text><text x="58" style="color:#666;cursor:default;font-size:11px;fill:#666" y="187">0.3</text><text x="58" style="color:#666;cursor:default;font-size:11px;fill:#666" y="142">0.4</text><text x="58" style="color:#666;cursor:default;font-size:11px;fill:#666" y="97">0.5</text><text x="58" style="color:#666;cursor:default;font-size:11px;fill:#666" y="52">0.6</text></g></svg>