<svg class="highcharts-root" style="font-family:&quot;Lucida Grande&quot;,&quot;Lucida Sans Unicode&quot;,Arial,Helvetica,sans-serif;font-size:12px" xmlns="http://www.w3.org/2000/svg" width="600" height="500" aria-label="Interactive chart" aria-hidden="false"><defs aria-hidden="true"><clipPath id="a"><path fill="none" d="M0 0h527v365H0z"/></clipPath></defs><rect fill="#fff" class="highcharts-background" width="600" height="500" rx="0" ry="0" aria-hidden="true"/><path fill="none" class="highcharts-plot-background" aria-hidden="true" d="M63 61h527v365H63z"/><g class="highcharts-plot-lines-0" data-z-index="0" aria-hidden="true"><path fill="none" class="highcharts-plot-line" stroke="#d33" stroke-dasharray="4,3" d="M287.5 61v365"/></g><g class="highcharts-grid highcharts-xaxis-grid" data-z-index="1" aria-hidden="true" fill="none"><path data-z-index="1" class="highcharts-grid-line" d="M165.5 61v365m113-365v365m112-365v365m114-365v365"/></g><g class="highcharts-grid highcharts-yaxis-grid" data-z-index="1" aria-hidden="true" fill="none" stroke="#e6e6e6"><path data-z-index="1" class="highcharts-grid-line" d="M63 426.5h527m-527-46h527m-527-45h527m-527-46h527m-527-45h527m-527-46h527m-527-46h527m-527-45h527m-527-47h527"/></g><path fill="none" class="highcharts-plot-border" data-z-index="1" aria-hidden="true" d="M63 61h527v365H63z"/><g class="highcharts-axis highcharts-xaxis" data-z-index="2" aria-hidden="true" fill="none" stroke="#ccd6eb"><path class="highcharts-tick" d="M165.5 426v10m113-10v10m112-10v10m114-10v10"/><path class="highcharts-axis-line" data-z-index="7" d="M63 426.5h527"/></g><g class="highcharts-axis highcharts-yaxis" data-z-index="2" aria-hidden="true"><text x="24.086" data-z-index="7" text-anchor="middle" transform="rotate(-90 24.086 243.5)" class="highcharts-axis-title" style="color:#666;fill:#666" y="243.5">Temperature (°F)</text><path fill="none" class="highcharts-axis-line" data-z-index="7" d="M63 61v365"/></g><g class="highcharts-series-group" data-z-index="3" aria-hidden="false" fill="none" stroke-linejoin="round" stroke-linecap="round"><g class="highcharts-series highcharts-series-0 highcharts-spline-series" data-z-index=".1" clip-path="url(#a)" aria-hidden="true" transform="translate(63 61)"><path d="M5.167 132.313h12.916c5.167 0 7.75 1.825 12.917 4.562 5.167 2.738 7.75 9.125 12.917 9.125 5.166 0 7.75-31.938 12.916-31.938 5.167 0 7.75 18.25 12.917 18.25s7.75-4.562 12.917-4.562c5.166 0 7.75 36.5 12.916 36.5 5.167 0 7.75-2.738 12.917-9.125 5.167-6.388 7.75-22.813 12.917-22.813 5.166 0 7.75 4.563 12.916 4.563 5.167 0 7.75-4.563 12.917-4.563s7.75 4.563 12.917 4.563c5.166 0 7.75-3.65 12.916-9.125 5.167-5.475 7.75-18.25 12.917-18.25s7.75 22.813 12.917 22.813c5.166 0 7.75-4.563 12.916-4.563h25.834c5.166 0 7.75-4.563 12.916-4.563H263.5c5.167 0 7.75-6.387 12.917-9.124 5.166-2.738 7.75-2.738 12.916-4.563 5.167-1.825 7.75-4.563 12.917-4.563s7.75 4.563 12.917 4.563c5.166 0 7.75 0 12.916-4.563 5.167-4.562 7.75-16.424 12.917-22.812 5.167-6.388 7.75-9.125 12.917-9.125 5.166 0 7.75 4.563 12.916 4.563 5.167 0 7.75-5.475 12.917-9.126 5.167-3.65 7.75-3.65 12.917-9.124 5.166-5.475 7.75-18.25 12.916-18.25 5.167 0 7.75 18.25 12.917 22.812 5.167 4.563 7.75 2.737 12.917 4.563 5.166 1.824 7.75 1.825 12.916 4.562 5.167 2.738 7.75 9.125 12.917 9.125h12.917c5.166 0 7.75 1.825 12.916 4.563 5.167 2.737 7.75 9.124 12.917 9.124s7.75-9.124 12.917-9.124c5.166 0 12.916 13.687 12.916 13.687" class="highcharts-graph" data-z-index="1" stroke="#f4b042" stroke-width="2"/><path d="M5.167 132.313h12.916c5.167 0 7.75 1.825 12.917 4.562 5.167 2.738 7.75 9.125 12.917 9.125 5.166 0 7.75-31.938 12.916-31.938 5.167 0 7.75 18.25 12.917 18.25s7.75-4.562 12.917-4.562c5.166 0 7.75 36.5 12.916 36.5 5.167 0 7.75-2.738 12.917-9.125 5.167-6.388 7.75-22.813 12.917-22.813 5.166 0 7.75 4.563 12.916 4.563 5.167 0 7.75-4.563 12.917-4.563s7.75 4.563 12.917 4.563c5.166 0 7.75-3.65 12.916-9.125 5.167-5.475 7.75-18.25 12.917-18.25s7.75 22.813 12.917 22.813c5.166 0 7.75-4.563 12.916-4.563h25.834c5.166 0 7.75-4.563 12.916-4.563H263.5c5.167 0 7.75-6.387 12.917-9.124 5.166-2.738 7.75-2.738 12.916-4.563 5.167-1.825 7.75-4.563 12.917-4.563s7.75 4.563 12.917 4.563c5.166 0 7.75 0 12.916-4.563 5.167-4.562 7.75-16.424 12.917-22.812 5.167-6.388 7.75-9.125 12.917-9.125 5.166 0 7.75 4.563 12.916 4.563 5.167 0 7.75-5.475 12.917-9.126 5.167-3.65 7.75-3.65 12.917-9.124 5.166-5.475 7.75-18.25 12.916-18.25 5.167 0 7.75 18.25 12.917 22.812 5.167 4.563 7.75 2.737 12.917 4.563 5.166 1.824 7.75 1.825 12.916 4.562 5.167 2.738 7.75 9.125 12.917 9.125h12.917c5.166 0 7.75 1.825 12.916 4.563 5.167 2.737 7.75 9.124 12.917 9.124s7.75-9.124 12.917-9.124c5.166 0 12.916 13.687 12.916 13.687" data-z-index="2" class="highcharts-tracker-line" stroke="rgba(192,192,192,0.0001)" stroke-width="22" style="cursor:pointer"/></g><g class="highcharts-series highcharts-series-1 highcharts-spline-series" data-z-index=".1" clip-path="url(#a)" aria-hidden="true" transform="translate(63 61)"><path d="M5.167 338.277s7.75-82.125 12.916-82.125c5.167 0 7.75 9.125 12.917 9.125s7.75-33.893 12.917-33.893c5.166 0 7.75 32.59 12.916 32.59 5.167 0 7.75-9.387 12.917-16.947 5.167-7.56 7.75-12.515 12.917-20.857 5.166-8.343 7.75-20.857 12.916-20.857 5.167 0 7.75 0 12.917 7.17 5.167 7.169 7.75 31.285 12.917 31.285h12.916c5.167 0 7.75-1.043 12.917-7.17s7.75-23.464 12.917-23.464c5.166 0 7.75 9.777 12.916 9.777 5.167 0 7.75-20.857 12.917-21.51 5.167-.651 7.75 0 12.917-.651 5.166-.652 7.75-18.12 12.916-33.241 5.167-15.122 7.75-42.366 12.917-42.366s7.75 18.902 12.917 18.902c5.166 0 7.75 0 12.916-7.822 5.167-7.821 7.75-34.544 12.917-34.544s7.75 8.342 12.917 11.732c5.166 3.389 7.75 5.214 12.916 5.214 5.167 0 7.75-14.079 12.917-20.857 5.167-6.779 7.75-7.04 12.917-13.036 5.166-5.996 7.75-12.253 12.916-16.946 5.167-4.693 7.75-6.518 12.917-6.518s7.75 5.214 12.917 6.518c5.166 1.303 7.75 1.303 12.916 1.303 5.167 0 7.75-5.475 12.917-7.821 5.167-2.347 7.75-1.695 12.917-3.91 5.166-2.217 7.75-7.17 12.916-7.17 5.167 0 7.75 3.65 12.917 9.124 5.167 5.475 7.75 18.25 12.917 18.25 5.166 0 7.75-24.116 12.916-24.116 5.167 0 7.75 7.17 12.917 14.992 5.167 7.82 7.75 24.116 12.917 24.116 5.166 0 7.75-3.26 12.916-3.26 5.167 0 7.75 21.51 12.917 21.51s7.75-11.08 12.917-11.08c5.166 0 12.916 18.901 12.916 18.901" class="highcharts-graph" data-z-index="1" stroke="#41aff4" stroke-width="2"/><path d="M5.167 338.277s7.75-82.125 12.916-82.125c5.167 0 7.75 9.125 12.917 9.125s7.75-33.893 12.917-33.893c5.166 0 7.75 32.59 12.916 32.59 5.167 0 7.75-9.387 12.917-16.947 5.167-7.56 7.75-12.515 12.917-20.857 5.166-8.343 7.75-20.857 12.916-20.857 5.167 0 7.75 0 12.917 7.17 5.167 7.169 7.75 31.285 12.917 31.285h12.916c5.167 0 7.75-1.043 12.917-7.17s7.75-23.464 12.917-23.464c5.166 0 7.75 9.777 12.916 9.777 5.167 0 7.75-20.857 12.917-21.51 5.167-.651 7.75 0 12.917-.651 5.166-.652 7.75-18.12 12.916-33.241 5.167-15.122 7.75-42.366 12.917-42.366s7.75 18.902 12.917 18.902c5.166 0 7.75 0 12.916-7.822 5.167-7.821 7.75-34.544 12.917-34.544s7.75 8.342 12.917 11.732c5.166 3.389 7.75 5.214 12.916 5.214 5.167 0 7.75-14.079 12.917-20.857 5.167-6.779 7.75-7.04 12.917-13.036 5.166-5.996 7.75-12.253 12.916-16.946 5.167-4.693 7.75-6.518 12.917-6.518s7.75 5.214 12.917 6.518c5.166 1.303 7.75 1.303 12.916 1.303 5.167 0 7.75-5.475 12.917-7.821 5.167-2.347 7.75-1.695 12.917-3.91 5.166-2.217 7.75-7.17 12.916-7.17 5.167 0 7.75 3.65 12.917 9.124 5.167 5.475 7.75 18.25 12.917 18.25 5.166 0 7.75-24.116 12.916-24.116 5.167 0 7.75 7.17 12.917 14.992 5.167 7.82 7.75 24.116 12.917 24.116 5.166 0 7.75-3.26 12.916-3.26 5.167 0 7.75 21.51 12.917 21.51s7.75-11.08 12.917-11.08c5.166 0 12.916 18.901 12.916 18.901" data-z-index="2" class="highcharts-tracker-line" stroke="rgba(192,192,192,0.0001)" stroke-width="22" style="cursor:pointer"/></g></g><text x="300" text-anchor="middle" class="highcharts-title" data-z-index="4" style="color:#333;font-size:18px;fill:#333" y="24" aria-hidden="true">Play chart as sound</text><text x="300" text-anchor="middle" class="highcharts-subtitle" data-z-index="4" style="color:#666;fill:#666" y="46" aria-hidden="true">Weekly temperature averages</text><g class="highcharts-legend highcharts-no-tooltip" data-z-index="7" transform="translate(200 459)" aria-hidden="true"><rect fill="none" class="highcharts-legend-box" rx="0" ry="0" width="199" height="26"/><g data-z-index="1"><g class="highcharts-legend-item highcharts-spline-series highcharts-color-undefined highcharts-series-0" data-z-index="1"><path fill="none" d="M8 14h16" class="highcharts-graph" stroke-width="2" stroke="#f4b042"/><text x="21" data-z-index="2" y="15" style="color:#333;cursor:pointer;font-size:12px;font-weight:700;fill:#333" transform="translate(8 3)">San Diego</text></g><g class="highcharts-legend-item highcharts-spline-series highcharts-color-undefined highcharts-series-1" data-z-index="1"><path fill="none" d="M110.781 14h16" class="highcharts-graph" stroke-width="2" stroke="#41aff4"/><text x="21" y="15" data-z-index="2" style="color:#333;cursor:pointer;font-size:12px;font-weight:700;fill:#333" transform="translate(110.781 3)">New York</text></g></g></g><g class="highcharts-axis-labels highcharts-xaxis-labels" data-z-index="7" aria-hidden="true" text-anchor="middle"><text x="165.964" style="color:#666;cursor:default;font-size:11px;fill:#666" y="445">Mar &apos;18</text><text x="278.524" style="color:#666;cursor:default;font-size:11px;fill:#666" y="445">May &apos;18</text><text x="391.083" style="color:#666;cursor:default;font-size:11px;fill:#666" y="445">Jul &apos;18</text><text x="505.488" style="color:#666;cursor:default;font-size:11px;fill:#666" y="445">Sep &apos;18</text></g><g class="highcharts-axis-labels highcharts-yaxis-labels" data-z-index="7" aria-hidden="true" text-anchor="end"><text x="48" style="color:#666;cursor:default;font-size:11px;fill:#666" y="431">10</text><text x="48" style="color:#666;cursor:default;font-size:11px;fill:#666" y="385">20</text><text x="48" style="color:#666;cursor:default;font-size:11px;fill:#666" y="339">30</text><text x="48" style="color:#666;cursor:default;font-size:11px;fill:#666" y="294">40</text><text x="48" style="color:#666;cursor:default;font-size:11px;fill:#666" y="248">50</text><text x="48" style="color:#666;cursor:default;font-size:11px;fill:#666" y="202">60</text><text x="48" style="color:#666;cursor:default;font-size:11px;fill:#666" y="157">70</text><text x="48" style="color:#666;cursor:default;font-size:11px;fill:#666" y="111">80</text><text x="48" style="color:#666;cursor:default;font-size:11px;fill:#666" y="66">90</text></g></svg>