<svg class="highcharts-root" style="font-family:&quot;Lucida Grande&quot;,&quot;Lucida Sans Unicode&quot;,Arial,Helvetica,sans-serif;font-size:12px" xmlns="http://www.w3.org/2000/svg" width="600" height="400" aria-label="Interactive chart" aria-hidden="false"><defs aria-hidden="true"><clipPath id="a"><path fill="none" d="M1 0h283v507H1z"/></clipPath></defs><rect fill="#fff" class="highcharts-background" width="600" height="400" rx="0" ry="0" aria-hidden="true"/><path fill="none" class="highcharts-plot-background" aria-hidden="true" d="M83 61h507v284H83z"/><g class="highcharts-grid highcharts-xaxis-grid" data-z-index="1" aria-hidden="true" fill="none"><path data-z-index="1" class="highcharts-grid-line" d="M83 342.5h507m-507-83h507m-507-84h507m-507-84h507"/></g><g class="highcharts-grid highcharts-yaxis-grid" data-z-index="1" aria-hidden="true" fill="none" stroke="#e6e6e6"><path data-z-index="1" class="highcharts-grid-line" d="M82.5 61v284m46-284v284m46-284v284m46-284v284m46-284v284m46-284v284m47-284v284m46-284v284m46-284v284m46-284v284m46-284v284m47-284v284"/></g><path fill="none" class="highcharts-plot-border" data-z-index="1" aria-hidden="true" d="M83 61h507v284H83z"/><g class="highcharts-axis highcharts-xaxis" data-z-index="2" aria-hidden="true"><path fill="none" class="highcharts-tick" stroke="#ccd6eb" d="M83 342.5H73m10-83H73m10-84H73m10-84H73"/><text x="23.906" data-z-index="7" text-anchor="middle" transform="rotate(-90 23.906 203)" class="highcharts-axis-title" style="color:#666;fill:#666" y="203">Altitude</text><path fill="none" class="highcharts-axis-line" stroke="#ccd6eb" data-z-index="7" d="M82.5 61v284"/></g><g class="highcharts-axis highcharts-yaxis" data-z-index="2" aria-hidden="true"><text x="336.5" data-z-index="7" text-anchor="middle" class="highcharts-axis-title" style="color:#666;fill:#666" y="383">Temperature</text><path fill="none" class="highcharts-axis-line" stroke="#ccd6eb" stroke-width="2" data-z-index="7" d="M83 345h507"/></g><g class="highcharts-series-group" data-z-index="3" aria-hidden="false"><g class="highcharts-series highcharts-series-0 highcharts-spline-series highcharts-color-0" data-z-index=".1" clip-path="url(#a)" aria-hidden="true" fill="none" stroke-linejoin="round" stroke-linecap="round" transform="matrix(0 -1 -1 0 590 345)"><path d="M2.68 23.045s20.094 269.632 33.49 299.591c13.396 29.96 20.094 29.96 33.49 29.96 13.397 0 20.095-14.38 33.49-46.091 13.397-31.711 20.095-71.902 33.492-112.462 13.396-40.56 20.094-90.338 33.49-90.338s20.094 67.108 33.49 116.149c13.397 49.04 20.095 84.07 33.491 129.054 13.396 44.985 33.49 95.87 33.49 95.87" class="highcharts-graph" data-z-index="1" stroke="#7cb5ec" stroke-width="2"/><path d="M2.68 23.045s20.094 269.632 33.49 299.591c13.396 29.96 20.094 29.96 33.49 29.96 13.397 0 20.095-14.38 33.49-46.091 13.397-31.711 20.095-71.902 33.492-112.462 13.396-40.56 20.094-90.338 33.49-90.338s20.094 67.108 33.49 116.149c13.397 49.04 20.095 84.07 33.491 129.054 13.396 44.985 33.49 95.87 33.49 95.87" data-z-index="2" class="highcharts-tracker-line" stroke="rgba(192,192,192,0.0001)" stroke-width="22"/></g><g class="highcharts-markers highcharts-series-0 highcharts-spline-series highcharts-color-0 highcharts-tracker" data-z-index=".1" aria-hidden="false" fill="#7cb5ec"><path d="M2 27.045a4 4 0 1 1 .004 0Z" class="highcharts-point highcharts-color-0" tabindex="-1" aria-label="x, 0, 15. Temperature." style="outline:0" transform="matrix(0 -1 -1 0 590 345)"/><path d="M36 326.636a4 4 0 1 1 .004 0Z" class="highcharts-point highcharts-negative highcharts-color-0" tabindex="-1" aria-label="x, 10, -50. Temperature." style="outline:0" transform="matrix(0 -1 -1 0 590 345)"/><path d="M69 356.595a4 4 0 1 1 .004 0Z" class="highcharts-point highcharts-negative highcharts-color-0" tabindex="-1" aria-label="x, 20, -56.5. Temperature." style="outline:0" transform="matrix(0 -1 -1 0 590 345)"/><path d="M103 310.505a4 4 0 1 1 .004 0Z" class="highcharts-point highcharts-negative highcharts-color-0" tabindex="-1" aria-label="x, 30, -46.5. Temperature." style="outline:0" transform="matrix(0 -1 -1 0 590 345)"/><path d="M136 198.043a4 4 0 1 1 .004 0Z" class="highcharts-point highcharts-negative highcharts-color-0" tabindex="-1" aria-label="x, 40, -22.1. Temperature." style="outline:0" transform="matrix(0 -1 -1 0 590 345)"/><path d="M170 107.705a4 4 0 1 1 .004 0Z" class="highcharts-point highcharts-negative highcharts-color-0" tabindex="-1" aria-label="x, 50, -2.5. Temperature." style="outline:0" transform="matrix(0 -1 -1 0 590 345)"/><path d="M203 223.854a4 4 0 1 1 .004 0Z" class="highcharts-point highcharts-negative highcharts-color-0" tabindex="-1" aria-label="x, 60, -27.7. Temperature." style="outline:0" transform="matrix(0 -1 -1 0 590 345)"/><path d="M237 352.908a4 4 0 1 1 .004 0Z" class="highcharts-point highcharts-negative highcharts-color-0" tabindex="-1" aria-label="x, 70, -55.7. Temperature." style="outline:0" transform="matrix(0 -1 -1 0 590 345)"/><path d="M270 448.777a4 4 0 1 1 .004 0Z" class="highcharts-point highcharts-negative highcharts-color-0" tabindex="-1" aria-label="x, 80, -76.5. Temperature." style="outline:0" transform="matrix(0 -1 -1 0 590 345)"/></g></g><text x="300" text-anchor="middle" class="highcharts-title" data-z-index="4" style="color:#333;font-size:18px;fill:#333" y="24" aria-hidden="true">Atmosphere Temperature by Altitude</text><text x="300" text-anchor="middle" class="highcharts-subtitle" data-z-index="4" style="color:#666;fill:#666" y="46" aria-hidden="true">According to the Standard Atmosphere Model</text><g class="highcharts-axis-labels highcharts-xaxis-labels" data-z-index="7" aria-hidden="true" text-anchor="end"><text x="68" style="color:#666;cursor:default;font-size:11px;fill:#666" y="347">0 km</text><text x="68" style="color:#666;cursor:default;font-size:11px;fill:#666" y="263">25 km</text><text x="68" style="color:#666;cursor:default;font-size:11px;fill:#666" y="179">50 km</text><text x="68" style="color:#666;cursor:default;font-size:11px;fill:#666" y="96">75 km</text></g><g class="highcharts-axis-labels highcharts-yaxis-labels" data-z-index="7" aria-hidden="true" text-anchor="middle"><text x="83" style="color:#666;cursor:default;font-size:11px;fill:#666" y="364">-90°</text><text x="129.091" style="color:#666;cursor:default;font-size:11px;fill:#666" y="364">-80°</text><text x="175.182" style="color:#666;cursor:default;font-size:11px;fill:#666" y="364">-70°</text><text x="221.273" style="color:#666;cursor:default;font-size:11px;fill:#666" y="364">-60°</text><text x="267.364" style="color:#666;cursor:default;font-size:11px;fill:#666" y="364">-50°</text><text x="313.455" style="color:#666;cursor:default;font-size:11px;fill:#666" y="364">-40°</text><text x="359.545" style="color:#666;cursor:default;font-size:11px;fill:#666" y="364">-30°</text><text x="405.636" style="color:#666;cursor:default;font-size:11px;fill:#666" y="364">-20°</text><text x="451.727" style="color:#666;cursor:default;font-size:11px;fill:#666" y="364">-10°</text><text x="497.818" style="color:#666;cursor:default;font-size:11px;fill:#666" y="364">0°</text><text x="543.909" style="color:#666;cursor:default;font-size:11px;fill:#666" y="364">10°</text><text x="580.656" style="color:#666;cursor:default;font-size:11px;fill:#666" y="364">20°</text></g></svg>