<svg class="highcharts-root" style="font-family:&quot;Lucida Grande&quot;,&quot;Lucida Sans Unicode&quot;,Arial,Helvetica,sans-serif;font-size:12px" xmlns="http://www.w3.org/2000/svg" width="600" height="400" aria-label="Interactive chart" aria-hidden="false"><defs aria-hidden="true"><clipPath id="a"><path fill="none" d="M0 0h580v324H0z"/></clipPath></defs><rect fill="#fff" class="highcharts-background" width="600" height="400" rx="0" ry="0" aria-hidden="true"/><path fill="none" class="highcharts-plot-background" aria-hidden="true" d="M10 61h580v324H10z"/><path fill="none" class="highcharts-plot-border" data-z-index="1" aria-hidden="true" d="M10 61h580v324H10z"/><g class="highcharts-axis highcharts-xaxis" data-z-index="2" aria-hidden="true"><path fill="none" class="highcharts-axis-line" data-z-index="7" d="M10 385h580"/></g><g class="highcharts-axis highcharts-yaxis" data-z-index="2" aria-hidden="true"><path fill="none" class="highcharts-axis-line" data-z-index="7" d="M10 61v324"/></g><g class="highcharts-series-group" data-z-index="3" aria-hidden="false"><g class="highcharts-series highcharts-series-0 highcharts-treemap-series highcharts-color-0 highcharts-tracker" data-z-index=".1" clip-path="url(#a)" aria-hidden="false" stroke="#e6e6e6" transform="translate(10 61)"><g class="highcharts-level-group-3" data-z-index="997" aria-hidden="true"><path fill="#7cb5ec" class="highcharts-point" tabindex="-1" aria-hidden="true" style="outline:0" d="M426.5 250.5h18v18h-18zm18-19h4v37h-4zm-18 0h18v19h-18zm51 83h2v5h-2zm0-10h2v4h-2zm0 9h2v1h-2zm0-5h2v5h-2zm-59-24h8v26h-8zm0 26h8v13h-8zm-40-26h40v39h-40zm75-93h2v40h-2zm-27 35h27v5h-27zm0-35h27v35h-27zm18 77h4v27h-4zm-18 18h18v9h-18zm0-18h18v18h-18zm44 46h7v2h-7zm0-11h7v11h-7zm7-1h2v2h-2zm0-12h2v12h-2zm-7-3h7v1h-7zm0-15h7v15h-7zm0 28h7v3h-7zm0-12h7v12h-7zm-44 30h21v5h-21zm21-23h1v28h-1zm-21 0h21v23h-21zm51-11h2v3h-2zm0 3h2v3h-2zm0-15h2v12h-2zm-99-23h44v35h-44zm44-58h4v93h-4zm-44 0h44v58h-44zm99 131h2v1h-2zm0-3h2v3h-2zm-13-3h6v7h-6zm0-9h6v9h-6zm-16 0h16v16h-16zm0-39h20v15h-20zm20 0h2v20h-2zm-20 15h20v5h-20zm0 5h14v19h-14zm14 14h8v5h-8zm0-14h8v14h-8zm-7-74h21v17h-21zm21-23h3v40h-3zm-21 0h21v23h-21zm14 56h1v21h-1zm-21 11h21v10h-21zm0-11h21v11h-21zm22 23h9v2h-9zm0-23h9v23h-9zm0 75h7v1h-7zm0-6h7v6h-7zm-3-85h12v10h-12zm0 10h12v6h-12zm-19-10h19v16h-19z"/><path fill="#434348" class="highcharts-point" tabindex="-1" aria-hidden="true" style="outline:0" d="M572.5 317.5h5v1h-5zm5-5h1v6h-1zm-5 0h5v5h-5zm0-1h5v1h-5zm5-7h1v8h-1zm-5 0h5v7h-5zm-17-1h9v1h-9zm0-11h9v11h-9zm0 20h9v1h-9zm0-8h9v8h-9zm-1-35h1v14h-1zm-12 13h12v1h-12zm0-13h12v13h-12zm13-22h11v1h-11zm11-11h1v12h-1zm-11 0h11v11h-11zm17 23h7v8h-7zm-5-23h12v12h-12zm-3 22h8v1h-8zm0-10h8v10h-8zm14 54h1v7h-1zm-36 20h12v1h-12zm12-11h1v12h-1zm-12 0h12v11h-12zm22-52h8v8h-8zm14 42h1v1h-1zm0-14h1v14h-1zm-6-29h7v1h-7zm0-10h7v10h-7zm-54 1h22v2h-22zm22-30h2v32h-2zm-22 0h22v30h-22zm46 57h8v9h-8zm-50-11h4v18h-4zm0 18h4v15h-4zm-35-18h35v33h-35zm63 45h12v1h-12zm12-13h1v14h-1zm-12 0h12v13h-12zm12-14h1v14h-1zm-12 0h12v14h-12zm36 38h1v2h-1zm-6-26h5v1h-5zm5-7h1v8h-1zm-5 0h5v7h-5zm-1 13h1v5h-1zm0 5h1v2h-1zm-7-5h7v7h-7zm-17-110h3v15h-3zm0 15h3v13h-3zm-29-15h29v28h-29zm36 45h1v17h-1zm-12 15h12v2h-12zm0-15h12v15h-12zm30 51h5v1h-5zm5-9h1v10h-1zm-5 0h5v9h-5zm5 18h1v8h-1zm-5 7h5v1h-5zm0-7h5v7h-5zm-8 12h8v8h-8zm14 7h1v3h-1zm0 3h1v3h-1zm0-9h1v6h-1zm-36-41h12v1h-12zm12-15h1v16h-1zm-12 0h12v15h-12zm30 24h5v1h-5zm5-10h1v11h-1zm-5 0h5v10h-5zm-33 47h3v9h-3zm0-14h3v14h-3zm-21 0h21v23h-21zm37-23h9v2h-9zm0-13h9v13h-9zm9 36h8v1h-8zm0-7h8v7h-8zm-2-74h1v9h-1zm0 9h1v8h-1zm-20-9h20v17h-20zm-27-28h3v74h-3zm-36 68h36v6h-36zm0-68h36v68h-36zm76 72h9v1h-9zm0-15h9v15h-9zm9 19h8v9h-8zm13 51h1v5h-1zm-5 0h5v5h-5zm-32-41h2v13h-2zm0 13h2v10h-2zm-22-13h22v23h-22zm37 14h9v1h-9zm0-12h9v12h-9zm0 43h9v1h-9zm0-9h9v9h-9zm9-22h8v2h-8zm0-6h8v6h-8zm14 1h1v1h-1zm0-19h1v19h-1zm-38-16h2v26h-2zm-22 24h22v2h-22zm0-24h22v24h-22zm53 65h1v5h-1zm0 5h1v2h-1zm-7-5h7v7h-7zm-50-2h4v9h-4zm0-16h4v16h-4zm-35 0h35v25h-35zm97-107h3v18h-3zm0 18h3v10h-3zm-26-18h26v28h-26zm13 42h15v3h-15zm15-14h1v17h-1zm-15 0h15v14h-15z"/><path fill="#90ed7d" class="highcharts-point" tabindex="-1" aria-hidden="true" style="outline:0" d="M327.5 283.5h14v3h-14zm14-17h1v20h-1zm-14 0h14v17h-14zm-20-16h18v18h-18zm18 0h2v26h-2zm-18 18h18v8h-18zm48 4h10v8h-10zm10 0h1v14h-1zm-10 8h10v6h-10zm18 20h4v3h-4zm4 0h1v6h-1zm-4 3h4v3h-4zm-31-46h12v11h-12zm12 0h1v18h-1zm-12 11h12v7h-12zm26-11h9v9h-9zm9 0h1v15h-1zm-9 9h9v6h-9zm-5-48h14v15h-14zm14 0h1v25h-1zm-14 15h14v10h-14zm3 39h7v8h-7zm7 6h5v2h-5zm0-6h5v6h-5zm-46 14h14v14h-14zm14 0h1v19h-1zm-14 14h14v5h-14zm39 2h6v4h-6zm6 0h1v7h-1zm-6 4h6v3h-6zm-21-88h16v15h-16zm16 0h2v25h-2zm-16 15h16v10h-16zm-72 57h30v22h-30zm30 0h4v33h-4zm-30 22h30v11h-30zm93-3h6v4h-6zm6 0h1v7h-1zm-6 4h6v3h-6zm-59-122h20v27h-20zm20 21h21v6h-21zm0-21h21v21h-21zm46 120h4v2h-4zm4 0h1v4h-1zm-4 2h4v2h-4zm0-7h4v3h-4zm4 0h1v5h-1zm-4 3h4v2h-4zm-46-66h14v12h-14zm14 0h1v23h-1zm-14 12h14v11h-14zm15 53h12v10h-12zm12 0h1v15h-1zm-12 10h12v5h-12zm31-30h4v4h-4zm4 0h1v6h-1zm-4 4h4v2h-4zm-66-16h18v15h-18zm18 0h2v25h-2zm-18 15h18v10h-18zm66-11h5v5h-5zm0 5h5v3h-5zm-7 8h6v6h-6zm6 0h1v9h-1zm-6 6h6v3h-6zm-5-56h8v14h-8zm8 11h9v3h-9zm0-11h9v11h-9zm-27 32h12v12h-12zm12 0h1v18h-1zm-12 12h12v6h-12zm-15 18h14v12h-14zm14 0h1v18h-1zm-14 12h14v6h-14zm39-1h6v4h-6zm6 0h1v7h-1zm-6 4h6v3h-6zm11 0h1v1h-1zm0 1h1v2h-1zm-4-1h4v3h-4zm-46-102h17v16h-17zm17 0h1v25h-1zm-17 16h17v9h-17zm46 60h4v3h-4zm4 0h1v6h-1zm-4 3h4v3h-4zm-31-54h12v14h-12zm12 10h7v4h-7zm0-10h7v10h-7zm-81-52h31v71h-31zm31 0h3v99h-3zm-31 71h31v28h-31zm82 56h9v5h-9zm9-5h2v10h-2zm-9 0h9v5h-9zm0-27h10v7h-10zm10 0h1v13h-1zm-10 7h10v6h-10zm0 6h10v9h-10zm10 0h1v14h-1zm-10 9h10v5h-10zm8-117h15v23h-15zm0 23h15v4h-15zm-15-23h15v27h-15zm25 124h2v5h-2zm2 4h3v1h-3zm0-4h3v4h-3zm-9-35h6v8h-6zm6 0h1v13h-1zm-6 8h6v5h-6zm-59 13h18v13h-18zm18 0h2v22h-2zm-18 13h18v9h-18zm0-96h18v20h-18zm18 0h2v32h-2zm-18 20h18v12h-18zm35 55h12v11h-12zm12 0h1v15h-1zm-12 11h12v4h-12zm13-47h13v10h-13zm0 10h13v5h-13z"/><path fill="#f7a35c" class="highcharts-point" tabindex="-1" aria-hidden="true" style="outline:0" d="M556.5 26.5h21v4h-21zm21-27h2v31h-2zm-21 0h21v27h-21zm22 180h1v4h-1zm0-5h1v5h-1zm0 9h1v2h-1zm-8-69h7v5h-7zm7-15h1v20h-1zm-7 0h7v15h-7zm-64 57h44v9h-44zm44-45h6v54h-6zm-44 0h44v45h-44zm63-81h1v39h-1zm-13 36h13v3h-13zm0-36h13v36h-13zm0 145h13v2h-13zm13-15h1v17h-1zm-13 0h13v15h-13zm13-91h1v38h-1zm-13 31h13v7h-13zm0-31h13v31h-13zm21 116h1v3h-1zm0 3h1v3h-1zm-7-3h7v6h-7zm-14 5h13v1h-13zm13-13h1v14h-1zm-13 0h13v13h-13zm14-44h7v4h-7zm7-14h1v18h-1zm-7 0h7v14h-7zm0-24h7v4h-7zm7-19h1v23h-1zm-7 0h7v19h-7zm7 61h1v11h-1zm-7 9h7v2h-7zm0-9h7v9h-7zm8 48h1v2h-1zm-8-116h6v7h-6zm6-17h2v24h-2zm-6 0h6v17h-6zm8 110h1v2h-1zm0 2h1v2h-1zm0-10h1v8h-1zm-8-109h8v7h-8zm8-15h1v22h-1zm-8 0h8v15h-8zm7 118h1v10h-1zm-7 7h7v3h-7zm0-7h7v7h-7zm8-27h1v4h-1zm0 4h1v4h-1zm0-34h1v30h-1zm-32 87h10v13h-10zm0-13h10v13h-10zm-40 0h40v26h-40zm64 19h7v1h-7zm7-7h1v8h-1zm-7 0h7v7h-7zm8-95h1v5h-1zm0 5h1v4h-1zm0-35h1v30h-1zm-8 114h7v1h-7zm7-8h1v9h-1zm-7 0h7v8h-7zm-14-4h13v6h-13zm13-20h1v26h-1zm-13 0h13v20h-13zm22 53h1v2h-1zm0 2h1v2h-1zm0-17h1v2h-1zm0-6h1v6h-1zm0-16h1v2h-1zm0 2h1v2h-1zm0-23h1v21h-1zm-24-130h2v112h-2zm-48 105h48v7h-48zm0-105h48v105h-48zm64 177h7v1h-7zm7-9h1v10h-1zm-7 0h7v9h-7zm-1-60h1v27h-1zm-13 21h13v6h-13zm0-21h13v21h-13z"/><path fill="#8085e9" class="highcharts-point" tabindex="-1" aria-hidden="true" style="outline:0" d="M505.5 73.5h1v30h-1zm-16 29h16v1h-16zm0-29h16v29h-16zm13 117h4v1h-4zm-13-33h12v8h-12zm12-16h1v24h-1zm-12 0h12v16h-12zm-50-142h7v192h-7zm-166 178h166v14h-166zm0-178h166v178h-166zm229 187h4v1h-4zm0-5h4v5h-4zm-56-118h57v10h-57zm57-64h3v74h-3zm-57 0h57v64h-57zm50 180h6v9h-6zm0 9h6v3h-6zm-7-9h7v12h-7zm0-46h12v8h-12zm12-30h1v38h-1zm-12 0h12v30h-12zm13 75h3v3h-3zm3-17h1v20h-1zm-3 0h3v17h-3zm0-31h4v2h-4zm0-27h4v27h-4zm-13 71h12v5h-12zm12-9h1v14h-1zm-12 0h12v9h-12zm-43-53h40v14h-40zm40-39h3v53h-3zm-40 0h40v39h-40zm34 108h9v10h-9zm0-12h9v12h-9zm-34 0h34v22h-34zm56-16h4v7h-4zm0 7h4v1h-4zm0-28h4v21h-4zm3 55h1v3h-1zm-3 0h3v3h-3zm-56-24h38v6h-38zm38-37h5v43h-5zm-38 0h38v37h-38z"/><path fill="#f15c80" class="highcharts-point" tabindex="-1" aria-hidden="true" style="outline:0" d="M225.5 83.5h44v31h-44zm44-84h4v115h-4zm-44 0h44v84h-44zm0 319h35v5h-35zm35-35h2v40h-2zm-35 0h35v35h-35zm-226-98h201v86H-.5zm201-186h25v272h-25zm-201 0h201v186H-.5zm164 272h49v52h-49zm49 0h13v52h-13zm-213 0h164v52H-.5zm226-7h34v19h-34zm34-55h3v74h-3zm-34 0h34v55h-34zm37-21h11v27h-11zm0 27h11v13h-11zm0-101h11v74h-11zm0 196h11v7h-11zm0-11h11v11h-11zm0-71h11v71h-11zm-37-39h33v20h-33zm33-75h4v95h-4zm-33 0h33v75h-33zm37 203h5v6h-5zm9 0h2v6h-2zm-4 0h4v6h-4z"/></g><g class="highcharts-level-group-2" data-z-index="998" aria-hidden="false" tabindex="-1" aria-label="Regions, series 1 of 1 with 738 data points." style="outline:0" cursor="pointer"><path fill="rgba(124,181,236,0.15)" class="highcharts-point highcharts-internal-node-interactive" tabindex="-1" aria-hidden="true" style="outline:0" d="M426.5 231.5h22v37h-22zm51 83h2v5h-2zm0-10h2v10h-2zm-99-20h48v39h-48zm48-93h29v40h-29zm0 77h22v27h-22zm44 35h7v13h-7zm7-13h2v14h-2zm-7-18h7v16h-7zm0 16h7v15h-7zm-44 7h22v28h-22zm51-23h2v18h-2zm-99-81h48v93h-48zm99 128h2v4h-2zm-29-12h22v16h-22zm0-39h22v20h-22zm0 20h22v19h-22zm7-97h24v40h-24zm-7 56h22v21h-22zm22 0h9v25h-9zm0 69h7v7h-7zm-22-85h31v16h-31z"/><path fill="rgba(67,67,72,0.15)" class="highcharts-point highcharts-internal-node-interactive" tabindex="-1" aria-hidden="true" style="outline:0" d="M572.5 312.5h6v6h-6zm0-8h6v8h-6zm-17-12h9v12h-9zm0 12h9v9h-9zm-13-35h13v14h-13zm13-33h12v12h-12zm17 23h7v8h-7zm-5-23h12v12h-12zm-3 12h8v11h-8zm14 54h1v7h-1zm-36 9h13v12h-13zm22-52h8v8h-8zm14 28h1v15h-1zm-6-39h7v11h-7zm-54-29h24v32h-24zm46 57h8v9h-8zm-85-11h39v33h-39zm63 32h13v14h-13zm0-14h13v14h-13zm36 38h1v2h-1zm-6-33h6v8h-6zm-8 13h8v7h-8zm-46-110h32v28h-32zm24 45h13v17h-13zm30 42h6v10h-6zm0 18h6v8h-6zm-8 12h8v8h-8zm14 7h1v3h-1zm0 3h1v3h-1zm0-9h1v6h-1zm-36-56h13v16h-13zm30 14h6v11h-6zm-54 33h24v23h-24zm37-36h9v15h-9zm9 29h8v8h-8zm-22-74h21v17h-21zm-63-28h39v74h-39zm76 57h9v16h-9zm9 19h8v9h-8zm8 51h6v5h-6zm-54-41h24v23h-24zm37 2h9v13h-9zm0 34h9v10h-9zm9-28h8v8h-8zm14-18h1v20h-1zm-60-16h24v26h-24zm46 65h8v7h-8zm-85-18h39v25h-39zm71-107h29v28h-29zm13 28h16v17h-16z"/><path fill="rgba(144,237,125,0.15)" class="highcharts-point highcharts-internal-node-interactive" tabindex="-1" aria-hidden="true" style="outline:0" d="M327.5 266.5h15v20h-15zm-20-16h20v26h-20zm48 22h11v14h-11zm18 28h5v6h-5zm-31-43h13v18h-13zm26 0h10v15h-10zm-5-39h15v25h-15zm3 54h12v8h-12zm-39 14h15v19h-15zm39 16h7v7h-7zm-21-84h18v25h-18zm-72 72h34v33h-34zm93 19h7v7h-7zm-59-118h41v27h-41zm66 120h5v4h-5zm0-5h5v5h-5zm-46-63h15v23h-15zm15 65h13v15h-13zm31-20h5v6h-5zm-66-12h20v25h-20zm66 4h5v8h-5zm-7 13h7v9h-7zm-5-50h17v14h-17zm-19 32h13v18h-13zm-15 30h15v18h-15zm39 11h7v7h-7zm7 4h5v3h-5zm-46-102h18v25h-18zm46 76h5v6h-5zm-31-51h19v14h-19zm-69-52h34v99h-34zm82 122h11v10h-11zm0-27h11v13h-11zm0 13h11v14h-11zm-7-108h30v27h-30zm25 124h5v5h-5zm-7-35h7v13h-7zm-59 21h20v22h-20zm0-83h20v32h-20zm35 75h13v15h-13zm13-36h13v15h-13z"/><path fill="rgba(247,163,92,0.15)" class="highcharts-point highcharts-internal-node-interactive" tabindex="-1" aria-hidden="true" style="outline:0" d="M556.5-.5h23v31h-23zm22 180h1v4h-1zm0-5h1v5h-1zm0 9h1v2h-1zm-8-84h8v20h-8zm-64 12h50v54h-50zm50-81h14v39h-14zm0 130h14v17h-14zm0-91h14v38h-14zm14 116h8v6h-8zm-14-8h14v14h-14zm14-58h8v18h-8zm0-43h8v23h-8zm0 61h8v11h-8zm8 48h1v2h-1zm-8-133h8v24h-8zm8 102h1v12h-1zm-8-124h9v22h-9zm0 118h8v10h-8zm8-57h1v38h-1zm-72 74h50v26h-50zm64 12h8v8h-8zm8-125h1v39h-1zm-8 106h8v9h-8zm-14-24h14v26h-14zm22 53h1v2h-1zm0 2h1v2h-1zm0-23h1v8h-1zm0-37h1v25h-1zm-72-130h50v112h-50zm64 168h8v10h-8zm-14-60h14v27h-14z"/><path fill="rgba(128,133,233,0.15)" class="highcharts-point highcharts-internal-node-interactive" tabindex="-1" aria-hidden="true" style="outline:0" d="M489.5 73.5h17v30h-17zm13 117h4v1h-4zm-13-49h13v24h-13zm-216-142h173v192h-173zm229 182h4v6h-4zm-56-182h60v74h-60zm43 180h13v12h-13zm0-76h13v38h-13zm13 58h4v20h-4zm0-58h4v29h-4zm-13 62h13v14h-13zm-43-92h43v53h-43zm0 96h43v22h-43zm56-37h4v29h-4zm0 55h4v3h-4zm-56-61h43v43h-43z"/><path fill="rgba(241,92,128,0.15)" class="highcharts-point highcharts-internal-node-interactive" tabindex="-1" aria-hidden="true" style="outline:0" d="M225.5-.5h48v115h-48zm0 284h37v40h-37zM-.5-.5h226v272H-.5zm0 272h226v52H-.5zm226-62h37v74h-37zm37-95h11v114h-11zm0 114h11v89h-11zm-37-114h37v95h-37zm37 203h11v6h-11z"/></g><g class="highcharts-level-group-1" data-z-index="999" aria-hidden="true" stroke-width="3" cursor="pointer"><path fill="rgba(124,181,236,0.15)" class="highcharts-point highcharts-internal-node-interactive" tabindex="-1" aria-hidden="true" style="outline:0" d="M378.5 191.5h101v132h-101z"/><path fill="rgba(67,67,72,0.15)" class="highcharts-point highcharts-internal-node-interactive" tabindex="-1" aria-hidden="true" style="outline:0" d="M479.5 191.5h100v132h-100z"/><path fill="rgba(144,237,125,0.15)" class="highcharts-point highcharts-internal-node-interactive" tabindex="-1" aria-hidden="true" style="outline:0" d="M273.5 191.5h105v132h-105z"/><path fill="rgba(247,163,92,0.15)" class="highcharts-point highcharts-internal-node-interactive" tabindex="-1" aria-hidden="true" style="outline:0" d="M506.5-.5h73v192h-73z"/><path fill="rgba(128,133,233,0.15)" class="highcharts-point highcharts-internal-node-interactive" tabindex="-1" aria-hidden="true" style="outline:0" d="M273.5-.5h233v192h-233z"/><path fill="rgba(241,92,128,0.15)" class="highcharts-point highcharts-internal-node-interactive" tabindex="-1" aria-hidden="true" style="outline:0" d="M-.5-.5h274v324H-.5z"/></g></g></g><text x="300" text-anchor="middle" class="highcharts-title" data-z-index="4" style="color:#333;font-size:18px;fill:#333" y="24" aria-hidden="true">Global Mortality Rate 2012, per 100 000 population</text><text x="300" text-anchor="middle" class="highcharts-subtitle" data-z-index="4" style="color:#666;fill:#666" y="46" aria-hidden="true">Click points to drill down. Source: <a><tspan>WHO</tspan></a>.</text><g class="highcharts-data-labels highcharts-series-0 highcharts-treemap-series highcharts-color-0 highcharts-tracker" data-z-index="6" aria-hidden="true"><text x="5" data-z-index="1" y="19" style="color:#000;font-size:14px;font-weight:700;fill:#000" transform="translate(387 305)" class="highcharts-label highcharts-data-label highcharts-data-label-color-undefined"><tspan class="highcharts-text-outline" fill="#FFF" stroke="#FFF" stroke-width="2" stroke-linejoin="round">Eastern Me…<tspan x="5" dy="0">​</tspan></tspan>Eastern Me…</text><text x="5" data-z-index="1" y="19" style="color:#fff;font-size:14px;font-weight:700;fill:#fff" transform="translate(509 305)" class="highcharts-label highcharts-data-label highcharts-data-label-color-undefined"><tspan class="highcharts-text-outline" fill="#000" stroke="#000" stroke-width="2" stroke-linejoin="round">Europe<tspan x="5" dy="0">​</tspan></tspan>Europe</text><text x="5" data-z-index="1" y="19" style="color:#000;font-size:14px;font-weight:700;fill:#000" transform="translate(310 305)" class="highcharts-label highcharts-data-label highcharts-data-label-color-undefined"><tspan class="highcharts-text-outline" fill="#FFF" stroke="#FFF" stroke-width="2" stroke-linejoin="round">Africa<tspan x="5" dy="0">​</tspan></tspan>Africa</text><text x="5" data-z-index="1" y="19" style="color:#000;font-size:14px;font-weight:700;fill:#000" transform="translate(515 144)" class="highcharts-label highcharts-data-label highcharts-data-label-color-undefined"><tspan class="highcharts-text-outline" fill="#FFF" stroke="#FFF" stroke-width="2" stroke-linejoin="round">Americas<tspan x="5" dy="0">​</tspan></tspan>Americas</text><text x="5" data-z-index="1" y="19" style="color:#000;font-size:14px;font-weight:700;fill:#000" transform="translate(341 144)" class="highcharts-label highcharts-data-label highcharts-data-label-color-undefined"><tspan class="highcharts-text-outline" fill="#FFF" stroke="#FFF" stroke-width="2" stroke-linejoin="round">Western Pacific<tspan x="5" dy="0">​</tspan></tspan>Western Pacific</text><text x="5" data-z-index="1" y="19" style="color:#000;font-size:14px;font-weight:700;fill:#000" transform="translate(84 210)" class="highcharts-label highcharts-data-label highcharts-data-label-color-undefined"><tspan class="highcharts-text-outline" fill="#FFF" stroke="#FFF" stroke-width="2" stroke-linejoin="round">South-East Asia<tspan x="5" dy="0">​</tspan></tspan>South-East Asia</text></g></svg>