<svg width="128" height="167" viewBox="0 0 128 167" fill="none" xmlns="http://www.w3.org/2000/svg">
<path d="M11.0301 122.417L64.8173 149.787L116.562 122.417V15.3872H11.0301V122.417Z" fill="white"/>
<path d="M117.651 15.7957L9.94072 124.323L65.7705 151.966L117.651 125.413V15.7957Z" fill="#F2F3F2"/>
<path d="M7.48941 51.0637V124.732L9.39579 125.685L63.183 153.055L64.8171 153.872L66.4511 153.055L118.332 125.685L120.238 124.732V11.8467H7.48941V51.0637ZM11.0298 122.689V15.3871H116.698V122.689L64.8171 150.059L11.0298 122.689Z" fill="#DCDEDC"/>
<path d="M63.8642 17.1573C64.4088 17.1573 64.9535 17.1573 65.4982 17.2935L63.8642 20.4254C61.4131 20.2892 59.2344 22.1956 59.0982 24.6467C58.962 27.0977 60.8684 29.2765 63.3195 29.4126H63.8642C64.9535 29.4126 66.0429 29.0041 66.8599 28.3233L68.6301 31.319C67.2684 32.2722 65.6344 32.8169 63.8642 32.8169C59.5067 32.9531 55.8301 29.685 55.694 25.3275C55.5578 20.9701 58.8259 17.2935 63.1833 17.1573H63.8642ZM69.4471 23.8297L71.4897 27.2339L69.4471 30.502L67.5408 27.2339H63.5918L65.6344 23.8297H69.4471ZM66.1791 22.6041C66.1791 22.0594 66.3152 21.5148 66.5876 21.1063C66.8599 20.6977 67.4046 20.2892 67.8131 20.0169L68.0854 19.8807C68.6301 19.6084 68.7663 19.4722 68.7663 19.1999C68.7663 18.9275 68.3578 18.6552 68.0854 18.6552C67.5408 18.6552 67.1322 18.9275 66.8599 19.4722L66.1791 18.7914C66.3152 18.519 66.5876 18.2467 66.8599 17.9743C67.2684 17.702 67.6769 17.702 68.0854 17.702C68.494 17.702 69.0386 17.8382 69.311 18.1105C69.5833 18.3829 69.8557 18.7914 69.8557 19.1999C69.8557 19.8807 69.4471 20.4254 68.6301 20.6977L68.2216 20.9701C67.8131 21.2424 67.5408 21.3786 67.4046 21.7871H69.8557V22.7403L66.1791 22.6041ZM63.8642 39.6254L76.8003 32.2722V11.8467H50.7918V32.136L63.8642 39.6254Z" fill="#FF492C"/>
<path d="M122.826 87.8296H4.90229L0.544846 97.3615L4.90229 106.893H122.826L127.047 97.3615L122.826 87.8296Z" fill="#FF492C"/>
<path d="M25.9952 81.7019C25.9135 81.7019 25.8454 81.6746 25.791 81.6202C25.7365 81.5566 25.7093 81.484 25.7093 81.4023V64.844C25.7093 64.7623 25.7365 64.6897 25.791 64.6261C25.8454 64.5717 25.9135 64.5444 25.9952 64.5444H28.8684C28.9501 64.5444 29.0182 64.5717 29.0727 64.6261C29.1362 64.6897 29.168 64.7623 29.168 64.844V78.6108C29.168 78.6925 29.2088 78.7334 29.2906 78.7334H37.2974C37.3791 78.7334 37.4517 78.7606 37.5152 78.8151C37.5697 78.8786 37.5969 78.9512 37.5969 79.0329V81.4023C37.5969 81.484 37.5697 81.5566 37.5152 81.6202C37.4517 81.6746 37.3791 81.7019 37.2974 81.7019H25.9952ZM50.6557 74.1036C50.7555 74.7209 50.7873 75.4154 50.751 76.187C50.7419 76.3867 50.6375 76.4866 50.4378 76.4866H42.8667C42.7669 76.4866 42.7351 76.5274 42.7714 76.6091C42.8168 76.9359 42.903 77.2627 43.0301 77.5895C43.4568 78.4973 44.3237 78.9512 45.631 78.9512C46.6749 78.9422 47.501 78.52 48.1093 77.6849C48.1728 77.585 48.2454 77.5351 48.3271 77.5351C48.3816 77.5351 48.4406 77.5668 48.5042 77.6304L50.2608 79.3734C50.3425 79.4551 50.3833 79.5277 50.3833 79.5912C50.3833 79.6276 50.3515 79.6956 50.288 79.7955C49.7524 80.4582 49.0579 80.9756 48.2046 81.3478C47.3603 81.711 46.4298 81.8925 45.4131 81.8925C44.006 81.8925 42.8168 81.5748 41.8454 80.9393C40.8741 80.3039 40.1751 79.4142 39.7484 78.2704C39.4035 77.4534 39.231 76.3822 39.231 75.0568C39.231 74.158 39.3535 73.3683 39.5986 72.6874C39.9799 71.5254 40.6381 70.5995 41.5731 69.9095C42.5172 69.2287 43.6338 68.8883 44.9229 68.8883C46.5569 68.8883 47.8687 69.3603 48.8582 70.3044C49.8477 71.2485 50.4469 72.5149 50.6557 74.1036ZM44.9501 71.8704C43.9152 71.8704 43.2344 72.3515 42.9076 73.3138C42.844 73.5317 42.7896 73.7949 42.7442 74.1036C42.7442 74.1853 42.785 74.2261 42.8667 74.2261H47.1016C47.2015 74.2261 47.2332 74.1853 47.1969 74.1036C47.1152 73.6315 47.0744 73.4046 47.0744 73.4227C46.9291 72.9325 46.6749 72.5512 46.3118 72.2789C45.9396 72.0066 45.4857 71.8704 44.9501 71.8704ZM57.791 68.9019C58.8531 68.9019 59.8018 69.088 60.6369 69.4602C61.4721 69.8233 62.1212 70.3271 62.5842 70.9717C63.0471 71.6071 63.2786 72.3152 63.2786 73.0959V81.4023C63.2786 81.484 63.2514 81.5566 63.1969 81.6202C63.1425 81.6746 63.0744 81.7019 62.9927 81.7019H60.1195C60.0378 81.7019 59.9697 81.6746 59.9152 81.6202C59.8517 81.5566 59.8199 81.484 59.8199 81.4023V80.5989C59.8199 80.5535 59.8063 80.5217 59.7791 80.5036C59.7428 80.4854 59.711 80.499 59.6837 80.5444C58.9938 81.4432 57.8908 81.8925 56.3748 81.8925C55.0948 81.8925 54.0645 81.5839 53.2837 80.9666C52.494 80.3493 52.0991 79.4324 52.0991 78.2159C52.0991 76.9632 52.5439 75.9873 53.4335 75.2883C54.3141 74.5983 55.5714 74.2534 57.2054 74.2534H59.6974C59.7791 74.2534 59.8199 74.2125 59.8199 74.1308V73.5861C59.8199 73.0505 59.6565 72.6284 59.3297 72.3198C59.0029 72.0202 58.5127 71.8704 57.8591 71.8704C57.3598 71.8704 56.9422 71.9612 56.6063 72.1427C56.2704 72.3243 56.0525 72.5785 55.9527 72.9053C55.9073 73.0868 55.8029 73.1685 55.6395 73.1504L52.671 72.7555C52.4713 72.7192 52.3805 72.6466 52.3986 72.5376C52.4622 71.8477 52.7345 71.2259 53.2157 70.6721C53.6968 70.1183 54.3368 69.6871 55.1357 69.3785C55.9254 69.0607 56.8106 68.9019 57.791 68.9019ZM57.3008 79.3189C57.9998 79.3189 58.5944 79.1328 59.0846 78.7606C59.5748 78.3884 59.8199 77.9073 59.8199 77.3172V76.4321C59.8199 76.3504 59.7791 76.3095 59.6974 76.3095H57.9408C57.2054 76.3095 56.629 76.4502 56.2114 76.7317C55.7938 77.004 55.585 77.3944 55.585 77.9027C55.585 78.3476 55.7393 78.6925 56.048 78.9376C56.3566 79.1918 56.7742 79.3189 57.3008 79.3189ZM73.5323 64.844C73.5323 64.7623 73.5595 64.6897 73.614 64.6261C73.6684 64.5717 73.7365 64.5444 73.8182 64.5444H76.6914C76.7731 64.5444 76.8412 64.5717 76.8957 64.6261C76.9501 64.6897 76.9774 64.7623 76.9774 64.844V81.4023C76.9774 81.484 76.9501 81.5566 76.8957 81.6202C76.8412 81.6746 76.7731 81.7019 76.6914 81.7019H73.8182C73.7365 81.7019 73.6684 81.6746 73.614 81.6202C73.5595 81.5566 73.5323 81.484 73.5323 81.4023V80.5989C73.5323 80.5535 73.5141 80.5263 73.4778 80.5172C73.4415 80.5081 73.4097 80.5172 73.3825 80.5444C72.6925 81.4432 71.753 81.8925 70.5637 81.8925C69.4199 81.8925 68.435 81.5748 67.6089 80.9393C66.7828 80.3039 66.1881 79.4324 65.825 78.3249C65.5527 77.4715 65.4165 76.482 65.4165 75.3563C65.4165 74.1944 65.5618 73.1822 65.8523 72.3198C66.2335 71.2667 66.8281 70.4361 67.6361 69.8278C68.444 69.2105 69.4426 68.9019 70.6318 68.9019C71.812 68.9019 72.7289 69.3104 73.3825 70.1274C73.4097 70.1819 73.4415 70.2 73.4778 70.1819C73.5141 70.1637 73.5323 70.132 73.5323 70.0866V64.844ZM73.0148 77.8755C73.3416 77.2763 73.505 76.4502 73.505 75.3972C73.505 74.3078 73.3235 73.45 72.9603 72.8236C72.5881 72.1881 72.0435 71.8704 71.3263 71.8704C70.5547 71.8704 69.9737 72.1881 69.5833 72.8236C69.1748 73.4681 68.9706 74.3351 68.9706 75.4244C68.9706 76.4049 69.143 77.2219 69.488 77.8755C69.8965 78.5836 70.5002 78.9376 71.2991 78.9376C72.0344 78.9376 72.6063 78.5836 73.0148 77.8755ZM90.7306 74.1036C90.8304 74.7209 90.8622 75.4154 90.8259 76.187C90.8168 76.3867 90.7124 76.4866 90.5127 76.4866H82.9416C82.8418 76.4866 82.81 76.5274 82.8463 76.6091C82.8917 76.9359 82.9779 77.2627 83.105 77.5895C83.5317 78.4973 84.3986 78.9512 85.7059 78.9512C86.7498 78.9422 87.5759 78.52 88.1842 77.6849C88.2477 77.585 88.3203 77.5351 88.402 77.5351C88.4565 77.5351 88.5155 77.5668 88.5791 77.6304L90.3357 79.3734C90.4174 79.4551 90.4582 79.5277 90.4582 79.5912C90.4582 79.6276 90.4264 79.6956 90.3629 79.7955C89.8273 80.4582 89.1328 80.9756 88.2795 81.3478C87.4352 81.711 86.5047 81.8925 85.488 81.8925C84.0809 81.8925 82.8917 81.5748 81.9203 80.9393C80.949 80.3039 80.25 79.4142 79.8233 78.2704C79.4784 77.4534 79.3059 76.3822 79.3059 75.0568C79.3059 74.158 79.4284 73.3683 79.6735 72.6874C80.0548 71.5254 80.713 70.5995 81.648 69.9095C82.5921 69.2287 83.7087 68.8883 84.9978 68.8883C86.6318 68.8883 87.9436 69.3603 88.9331 70.3044C89.9226 71.2485 90.5218 72.5149 90.7306 74.1036ZM85.025 71.8704C83.9901 71.8704 83.3093 72.3515 82.9825 73.3138C82.9189 73.5317 82.8645 73.7949 82.8191 74.1036C82.8191 74.1853 82.8599 74.2261 82.9416 74.2261H87.1765C87.2764 74.2261 87.3081 74.1853 87.2718 74.1036C87.1901 73.6315 87.1493 73.4046 87.1493 73.4227C87.004 72.9325 86.7498 72.5512 86.3867 72.2789C86.0145 72.0066 85.5606 71.8704 85.025 71.8704ZM99.2412 68.9291C99.8313 68.9291 100.294 69.0426 100.63 69.2695C100.766 69.3422 100.816 69.4647 100.78 69.6372L100.262 72.4423C100.253 72.6329 100.14 72.6874 99.922 72.6057C99.6769 72.524 99.391 72.4832 99.0642 72.4832C98.9371 72.4832 98.7601 72.5013 98.5331 72.5376C97.943 72.583 97.4437 72.7963 97.0352 73.1776C96.6267 73.568 96.4225 74.0809 96.4225 74.7163V81.4023C96.4225 81.484 96.3952 81.5566 96.3408 81.6202C96.2772 81.6746 96.2046 81.7019 96.1229 81.7019H93.2633C93.1816 81.7019 93.109 81.6746 93.0454 81.6202C92.991 81.5566 92.9638 81.484 92.9638 81.4023V69.3921C92.9638 69.3104 92.991 69.2423 93.0454 69.1878C93.109 69.1334 93.1816 69.1061 93.2633 69.1061H96.1229C96.2046 69.1061 96.2772 69.1334 96.3408 69.1878C96.3952 69.2423 96.4225 69.3104 96.4225 69.3921V70.3317C96.4225 70.3771 96.4361 70.4088 96.4633 70.427C96.4996 70.4451 96.5269 70.4361 96.545 70.3998C97.2168 69.4193 98.1155 68.9291 99.2412 68.9291Z" fill="#252530"/>
<path d="M55.0945 94.3387C55.0945 94.3841 55.0763 94.4204 55.04 94.4476C55.0128 94.4839 54.9765 94.5021 54.9311 94.5021H50.3013C50.2559 94.5021 50.2332 94.5248 50.2332 94.5702V97.1166C50.2332 97.1619 50.2559 97.1846 50.3013 97.1846H53.4196C53.465 97.1846 53.5058 97.1983 53.5421 97.2255C53.5694 97.2618 53.583 97.3026 53.583 97.348V98.3829C53.583 98.4283 53.5694 98.4692 53.5421 98.5055C53.5058 98.5327 53.465 98.5463 53.4196 98.5463H50.3013C50.2559 98.5463 50.2332 98.569 50.2332 98.6144V102.509C50.2332 102.554 50.215 102.591 50.1787 102.618C50.1515 102.654 50.1152 102.672 50.0698 102.672H48.817C48.7716 102.672 48.7353 102.654 48.7081 102.618C48.6718 102.591 48.6536 102.554 48.6536 102.509V93.3038C48.6536 93.2584 48.6718 93.2221 48.7081 93.1948C48.7353 93.1585 48.7716 93.1404 48.817 93.1404H54.9311C54.9765 93.1404 55.0128 93.1585 55.04 93.1948C55.0763 93.2221 55.0945 93.2584 55.0945 93.3038V94.3387ZM61.3038 102.672C61.2131 102.672 61.1541 102.627 61.1268 102.536L60.6775 101.079C60.6593 101.043 60.6366 101.025 60.6094 101.025H57.0145C56.9872 101.025 56.9645 101.043 56.9464 101.079L56.497 102.536C56.4698 102.627 56.4108 102.672 56.32 102.672H54.9583C54.9038 102.672 54.863 102.654 54.8358 102.618C54.8085 102.591 54.804 102.545 54.8221 102.482L57.777 93.2766C57.8043 93.1858 57.8633 93.1404 57.9541 93.1404H59.6562C59.747 93.1404 59.806 93.1858 59.8332 93.2766L62.8017 102.482C62.8108 102.5 62.8153 102.523 62.8153 102.55C62.8153 102.631 62.7654 102.672 62.6655 102.672H61.3038ZM57.3685 99.7038C57.3594 99.7583 57.3776 99.7855 57.423 99.7855H60.1872C60.2417 99.7855 60.2599 99.7583 60.2417 99.7038L58.8392 95.1421C58.8301 95.1058 58.8165 95.0876 58.7983 95.0876C58.7802 95.0876 58.7665 95.1058 58.7575 95.1421L57.3685 99.7038ZM64.3813 102.672C64.3359 102.672 64.2996 102.654 64.2724 102.618C64.236 102.591 64.2179 102.554 64.2179 102.509V93.3038C64.2179 93.2584 64.236 93.2221 64.2724 93.1948C64.2996 93.1585 64.3359 93.1404 64.3813 93.1404H65.6341C65.6794 93.1404 65.7203 93.1585 65.7566 93.1948C65.7838 93.2221 65.7975 93.2584 65.7975 93.3038V101.243C65.7975 101.288 65.8202 101.311 65.8655 101.311H70.4272C70.4726 101.311 70.5089 101.329 70.5362 101.365C70.5725 101.392 70.5907 101.429 70.5907 101.474V102.509C70.5907 102.554 70.5725 102.591 70.5362 102.618C70.5089 102.654 70.4726 102.672 70.4272 102.672H64.3813ZM72.1566 102.672C72.1112 102.672 72.0749 102.654 72.0477 102.618C72.0114 102.591 71.9932 102.554 71.9932 102.509V93.3038C71.9932 93.2584 72.0114 93.2221 72.0477 93.1948C72.0749 93.1585 72.1112 93.1404 72.1566 93.1404H73.4094C73.4548 93.1404 73.4956 93.1585 73.5319 93.1948C73.5592 93.2221 73.5728 93.2584 73.5728 93.3038V101.243C73.5728 101.288 73.5955 101.311 73.6409 101.311H78.2026C78.248 101.311 78.2888 101.329 78.3251 101.365C78.3524 101.392 78.366 101.429 78.366 101.474V102.509C78.366 102.554 78.3524 102.591 78.3251 102.618C78.2888 102.654 78.248 102.672 78.2026 102.672H72.1566Z" fill="white"/>
<path d="M48.2319 127.265C48.2047 127.292 48.1956 127.319 48.2047 127.346C48.2229 127.373 48.2501 127.387 48.2864 127.387H53.6379C53.7014 127.387 53.7559 127.41 53.8013 127.455C53.8558 127.501 53.883 127.555 53.883 127.619V129.539C53.883 129.602 53.8558 129.657 53.8013 129.702C53.7559 129.747 53.7014 129.77 53.6379 129.77H44.7596C44.687 129.77 44.628 129.747 44.5826 129.702C44.5372 129.657 44.5145 129.602 44.5145 129.539V127.714C44.5145 127.596 44.5553 127.496 44.637 127.414C45.2816 126.788 45.9397 126.103 46.6115 125.358C47.2833 124.614 47.7054 124.151 47.8779 123.969C48.241 123.533 48.6132 123.116 48.9945 122.716C50.1928 121.391 50.7919 120.406 50.7919 119.762C50.7919 119.299 50.6285 118.917 50.3017 118.618C49.9749 118.327 49.5482 118.182 49.0217 118.182C48.4952 118.182 48.0685 118.327 47.7417 118.618C47.4058 118.917 47.2379 119.312 47.2379 119.802V120.293C47.2379 120.356 47.2152 120.411 47.1698 120.456C47.1244 120.501 47.0699 120.524 47.0064 120.524H44.6779C44.6143 120.524 44.5599 120.501 44.5145 120.456C44.46 120.411 44.4328 120.356 44.4328 120.293V119.367C44.4782 118.659 44.7051 118.028 45.1136 117.474C45.5221 116.929 46.0623 116.512 46.7341 116.221C47.4149 115.931 48.1775 115.785 49.0217 115.785C49.9568 115.785 50.7692 115.962 51.4592 116.316C52.1491 116.661 52.6802 117.129 53.0524 117.719C53.4336 118.318 53.6243 118.976 53.6243 119.693C53.6243 120.247 53.4836 120.815 53.2021 121.396C52.9298 121.977 52.5168 122.603 51.963 123.275C51.5545 123.783 51.1142 124.292 50.6421 124.8C50.1701 125.299 49.4665 126.021 48.5315 126.965L48.2319 127.265ZM60.2966 129.988C58.8441 129.988 57.7003 129.584 56.8651 128.776C56.0209 127.968 55.5987 126.865 55.5987 125.467V120.252C55.5987 118.881 56.0209 117.796 56.8651 116.997C57.7003 116.189 58.8441 115.785 60.2966 115.785C61.74 115.785 62.8884 116.189 63.7417 116.997C64.586 117.796 65.0081 118.881 65.0081 120.252V125.467C65.0081 126.865 64.586 127.968 63.7417 128.776C62.8884 129.584 61.74 129.988 60.2966 129.988ZM60.2966 127.605C60.8867 127.605 61.3542 127.423 61.6992 127.06C62.0532 126.697 62.2302 126.212 62.2302 125.603V120.17C62.2302 119.571 62.0532 119.09 61.6992 118.727C61.3542 118.364 60.8867 118.182 60.2966 118.182C59.7156 118.182 59.2526 118.364 58.9077 118.727C58.5536 119.09 58.3766 119.571 58.3766 120.17V125.603C58.3766 126.212 58.5536 126.697 58.9077 127.06C59.2526 127.423 59.7156 127.605 60.2966 127.605ZM70.5366 127.265C70.5094 127.292 70.5048 127.319 70.523 127.346C70.5321 127.373 70.5593 127.387 70.6047 127.387H75.9562C76.0197 127.387 76.0742 127.41 76.1196 127.455C76.165 127.501 76.1877 127.555 76.1877 127.619V129.539C76.1877 129.602 76.165 129.657 76.1196 129.702C76.0742 129.747 76.0197 129.77 75.9562 129.77H67.0643C67.0007 129.77 66.9463 129.747 66.9009 129.702C66.8555 129.657 66.8328 129.602 66.8328 129.539V127.714C66.8328 127.596 66.8691 127.496 66.9417 127.414C67.5953 126.788 68.2535 126.103 68.9162 125.358C69.588 124.614 70.0101 124.151 70.1826 123.969C70.5548 123.533 70.9315 123.116 71.3128 122.716C72.5111 121.391 73.1102 120.406 73.1102 119.762C73.1102 119.299 72.9468 118.917 72.62 118.618C72.2841 118.327 71.8529 118.182 71.3264 118.182C70.7999 118.182 70.3732 118.327 70.0464 118.618C69.7196 118.917 69.5562 119.312 69.5562 119.802V120.293C69.5562 120.356 69.5335 120.411 69.4881 120.456C69.4427 120.501 69.3837 120.524 69.3111 120.524H66.9826C66.919 120.524 66.8646 120.501 66.8192 120.456C66.7738 120.411 66.7511 120.356 66.7511 120.293V119.367C66.7874 118.659 67.0098 118.028 67.4183 117.474C67.8268 116.929 68.3715 116.512 69.0524 116.221C69.7332 115.931 70.4912 115.785 71.3264 115.785C72.2614 115.785 73.0739 115.962 73.7638 116.316C74.4629 116.661 74.9985 117.129 75.3707 117.719C75.7429 118.318 75.929 118.976 75.929 119.693C75.929 120.247 75.7928 120.815 75.5204 121.396C75.239 121.977 74.8214 122.603 74.2677 123.275C73.8592 123.783 73.4189 124.292 72.9468 124.8C72.4748 125.299 71.7712 126.021 70.8362 126.965L70.5366 127.265ZM79.837 116.003C79.9097 115.967 80.0095 115.949 80.1366 115.949H82.5332C82.5968 115.949 82.6512 115.971 82.6966 116.017C82.742 116.062 82.7647 116.117 82.7647 116.18V129.539C82.7647 129.602 82.742 129.657 82.6966 129.702C82.6512 129.747 82.5968 129.77 82.5332 129.77H80.2183C80.1548 129.77 80.1003 129.747 80.0549 129.702C80.0004 129.657 79.9732 129.602 79.9732 129.539V118.713C79.9732 118.686 79.9641 118.659 79.946 118.631C79.9187 118.604 79.8915 118.6 79.8643 118.618L77.9034 119.149L77.8217 119.162C77.7037 119.162 77.6447 119.09 77.6447 118.945L77.5902 117.256C77.5902 117.12 77.6492 117.025 77.7673 116.97L79.837 116.003Z" fill="#252530"/>
</svg>
