<svg width="240" height="240" viewBox="0 0 240 240" fill="none" xmlns="http://www.w3.org/2000/svg">
<path d="M220 240H20L0 220V20L20 0H220L240 20V220L220 240Z" fill="#2F2B38"/>
<path d="M160.519 62.9365C136.336 45.6831 103.667 45.6831 79.4844 62.9365L120.072 103.524L160.59 63.0072L160.519 62.9365Z" fill="#8087E8"/>
<path d="M62.9371 79.4828C45.6837 103.666 45.6837 136.334 62.9371 160.517L103.525 119.929L63.0079 79.4121L62.9371 79.4828Z" fill="#8087E8"/>
<path d="M177.064 160.517C194.318 136.334 194.318 103.666 177.064 79.3413L136.477 119.929L177.064 160.517Z" fill="#8087E8"/>
<path d="M79.4844 177.063C103.667 194.317 136.336 194.317 160.66 177.063L120.072 136.476L79.4844 177.063Z" fill="#8087E8"/>
<path d="M160.518 62.9365L119.93 103.524L79.4129 63.0072C76.3016 65.2699 73.2611 67.7448 70.4326 70.5732C67.6042 73.4017 65.0586 76.3715 62.8666 79.5535L103.455 120.141L63.008 160.588C65.2707 163.699 67.7456 166.74 70.574 169.568C73.4025 172.397 76.3723 174.942 79.5543 177.134L120.142 136.546L160.589 176.993C163.7 174.73 166.741 172.255 169.569 169.427C172.397 166.598 174.943 163.628 177.135 160.447L136.547 119.859L176.994 79.4121C174.731 76.3008 172.256 73.2602 169.428 70.4318C166.599 67.6034 163.7 65.1285 160.518 62.9365Z" fill="#A3EDBA"/>
<path d="M95.2526 95.2513C81.6055 108.898 81.6055 131.102 95.2526 144.749C108.9 158.396 131.103 158.396 144.75 144.749C158.397 131.102 158.397 108.898 144.75 95.2513C131.103 81.6041 108.9 81.6041 95.2526 95.2513Z" fill="#2F2B38"/>
</svg>
