<svg class="highcharts-root" style="font-family:Signika,serif;font-size:12px" xmlns="http://www.w3.org/2000/svg" width="600" height="400" aria-label="Interactive chart" aria-hidden="false"><defs aria-hidden="true"><clipPath id="a"><path fill="none" d="M0 0h600v400H0z"/></clipPath><clipPath id="b"><path fill="none" d="M0 0h600v400H0z"/></clipPath><clipPath id="c"><path fill="none" d="M0 0h600v400H0z"/></clipPath></defs><rect fill="none" class="highcharts-background" width="600" height="400" rx="0" ry="0" aria-hidden="true"/><g stroke-linejoin="round" class="highcharts-3d-frame highcharts-3d-frame-bottom" data-z-index="-1000" aria-hidden="true" fill="none"><path d="m247.148 231.545 287.691 46.078L467.347 314 173.33 264.818Z"/><path d="m535.156 278.13-67.815 36.574.006-.704 67.492-36.377Z"/><path d="m467.34 314.704-294.594-49.31.584-.576L467.347 314Z"/></g><g stroke-linejoin="round" class="highcharts-3d-frame highcharts-3d-frame-left" data-z-index="-1000" aria-hidden="true" fill="none"><path d="m245.512 51.183.226.212-74.881 27.817-.6-.083Zm.226.212 1.41 180.15-73.818 33.273-2.473-185.606Z"/><path d="m172.746 265.394-2.49-186.265.6.083 2.474 185.606Z"/></g><g stroke-linejoin="round" class="highcharts-3d-frame highcharts-3d-frame-back" data-z-index="-1000" aria-hidden="true" fill="none"><path d="m245.512 51.183 292.191 38.593-.33.147-291.635-38.528Z"/><path d="m537.703 89.776-2.547 188.354-.317-.507 2.534-187.7Z"/><path d="m245.738 51.395 291.635 38.528-2.534 187.7-287.69-46.078Z"/></g><path fill="none" class="highcharts-plot-background" aria-hidden="true" d="M116 43h474v271H116z"/><g class="highcharts-grid highcharts-yaxis-grid" data-z-index="1" aria-hidden="true" fill="none" stroke="#e6e6e6" stroke-dasharray="4,3"><path data-z-index="1" class="highcharts-grid-line" d="m247.151 231.873 287.684 46.091m-361.5-12.808 73.816-33.283m-.278-35.516 288.46 44.62m-362.486-12.4 74.026-32.22m-.28-35.704 289.243 43.134m-363.479-11.989 74.236-31.145m-.286-36.558 290.043 41.601m-364.495-11.563 74.452-30.038m-.283-36.085 290.834 40.08M171.36 116.948l74.664-28.939m-.289-36.951 291.642 38.514M170.852 78.865l74.883-27.807"/></g><path fill="none" class="highcharts-plot-border" data-z-index="1" aria-hidden="true" d="M116 43h474v271H116z"/><g class="highcharts-axis highcharts-yaxis" data-z-index="2" aria-hidden="true"><text x="77.953" data-z-index="7" text-anchor="middle" transform="rotate(-90 77.953 172.65)" class="highcharts-axis-title" style="color:#666;fill:#666" y="172.649">Height Above Sea Level</text></g><g class="highcharts-series-group" data-z-index="3" aria-hidden="false"><g class="highcharts-series highcharts-series-2 highcharts-area-series" data-z-index="1" clip-path="url(#a)" aria-hidden="false" transform="translate(116 43)"><path fill="#E6DCB4" d="m132.713 40.06 7.767-5.23 7.977 22.842 7.85 2.695 7.95 17.836 7.883 3.993 7.895 2.91 7.932 8.414 7.913-1.301 7.916-9.343 7.96-2.089 8.01 17.79 8.009 16.475 8.007-25.208 8.029 31.876 8.105-53.466 8.102-.725 8.117 2.383 8.13 4.204 8.176-4.318 8.17 3.955 8.15 11.69 8.195 4.87 8.048 32.403 8.272-4.882 8.242 3.498 8.39-13.535 8.225 11.063 8.324.94 8.395-4.285 8.304 7.407 8.546-13.808 8.38 4.274 8.488-3.269 8.086 30.644 8.813-25.263-1.576 118.65-8.402-1.345-8.38-1.342-8.36-1.34-8.34-1.335-8.318-1.332-8.298-1.33-8.277-1.325-8.256-1.322-8.236-1.32-8.215-1.315-8.195-1.313-8.175-1.309-8.155-1.306-8.134-1.303-8.114-1.3-8.095-1.296-8.074-1.293-8.055-1.29-8.035-1.287-8.015-1.284-7.996-1.28-7.976-1.278-7.957-1.274-7.937-1.272-7.918-1.268-7.898-1.265-7.88-1.262-7.86-1.259-7.841-1.256-7.823-1.253-7.803-1.25-7.785-1.246-7.765-1.244-7.748-1.24-7.728-1.239" class="highcharts-area" data-z-index="0" aria-hidden="true"/><path fill="none" d="m133.713 41.06 7.767-5.23 7.977 22.842 7.85 2.695 7.95 17.836 7.883 3.993 7.895 2.91 7.932 8.414 7.913-1.301 7.916-9.343 7.96-2.089 8.01 17.79 8.009 16.475 8.007-25.208 8.029 31.876 8.105-53.466 8.102-.725 8.117 2.383 8.13 4.204 8.176-4.318 8.17 3.955 8.15 11.69 8.195 4.87 8.048 32.403 8.272-4.882 8.242 3.498 8.39-13.535 8.225 11.063 8.324.94 8.395-4.285 8.304 7.407 8.546-13.808 8.38 4.274 8.488-3.269 8.086 30.644 8.813-25.263" class="highcharts-graph highcharts-shadow" data-z-index="1" stroke="#000" stroke-width="5" stroke-linejoin="round" stroke-linecap="round" stroke-opacity=".05" aria-hidden="true"/><path fill="none" d="m133.713 41.06 7.767-5.23 7.977 22.842 7.85 2.695 7.95 17.836 7.883 3.993 7.895 2.91 7.932 8.414 7.913-1.301 7.916-9.343 7.96-2.089 8.01 17.79 8.009 16.475 8.007-25.208 8.029 31.876 8.105-53.466 8.102-.725 8.117 2.383 8.13 4.204 8.176-4.318 8.17 3.955 8.15 11.69 8.195 4.87 8.048 32.403 8.272-4.882 8.242 3.498 8.39-13.535 8.225 11.063 8.324.94 8.395-4.285 8.304 7.407 8.546-13.808 8.38 4.274 8.488-3.269 8.086 30.644 8.813-25.263" class="highcharts-graph highcharts-shadow" data-z-index="1" stroke="#000" stroke-width="3" stroke-linejoin="round" stroke-linecap="round" stroke-opacity=".1" aria-hidden="true"/><path fill="none" d="m133.713 41.06 7.767-5.23 7.977 22.842 7.85 2.695 7.95 17.836 7.883 3.993 7.895 2.91 7.932 8.414 7.913-1.301 7.916-9.343 7.96-2.089 8.01 17.79 8.009 16.475 8.007-25.208 8.029 31.876 8.105-53.466 8.102-.725 8.117 2.383 8.13 4.204 8.176-4.318 8.17 3.955 8.15 11.69 8.195 4.87 8.048 32.403 8.272-4.882 8.242 3.498 8.39-13.535 8.225 11.063 8.324.94 8.395-4.285 8.304 7.407 8.546-13.808 8.38 4.274 8.488-3.269 8.086 30.644 8.813-25.263" class="highcharts-graph highcharts-shadow" data-z-index="1" stroke="#000" stroke-linejoin="round" stroke-linecap="round" stroke-opacity=".15" aria-hidden="true"/><path fill="none" d="m132.713 40.06 7.767-5.23 7.977 22.842 7.85 2.695 7.95 17.836 7.883 3.993 7.895 2.91 7.932 8.414 7.913-1.301 7.916-9.343 7.96-2.089 8.01 17.79 8.009 16.475 8.007-25.208 8.029 31.876 8.105-53.466 8.102-.725 8.117 2.383 8.13 4.204 8.176-4.318 8.17 3.955 8.15 11.69 8.195 4.87 8.048 32.403 8.272-4.882 8.242 3.498 8.39-13.535 8.225 11.063 8.324.94 8.395-4.285 8.304 7.407 8.546-13.808 8.38 4.274 8.488-3.269 8.086 30.644 8.813-25.263" class="highcharts-graph" data-z-index="1" stroke="#C8BE8C" stroke-width="2" stroke-linejoin="round" stroke-linecap="round" aria-hidden="true"/></g><g class="highcharts-series highcharts-series-1 highcharts-area-series" data-z-index="100" clip-path="url(#b)" aria-hidden="false" transform="translate(116 43)"><path fill="#8CB4C8" d="m96.787 131 12.855-23.54 13.348 22.985 13.197.933 13.18-10.557 13.392 13.468 13.368 1.095 13.417-1.382 13.502 7.63 13.52-11.27 13.608 2.776 13.668-2.859 13.726 3.275 13.782 2.912 13.801 13.558 13.985-18.932 13.889 16.41 14.091-9.671 14.144-5.55 14.134 4.396 14.176 5.786 14.135 14.463-1.03 95.095-14.153-2.317-14.094-2.306-14.034-2.296-13.975-2.287-13.916-2.278-13.858-2.267-13.8-2.259-13.74-2.248-13.685-2.24-13.628-2.23-13.57-2.22-13.515-2.212-13.458-2.202-13.403-2.194-13.347-2.184-13.293-2.175-13.238-2.166-13.184-2.158-13.13-2.148-13.076-2.14-13.023-2.131" class="highcharts-area" data-z-index="0" aria-hidden="true"/><path fill="none" d="m97.787 132 12.855-23.54 13.348 22.985 13.197.933 13.18-10.557 13.392 13.468 13.368 1.095 13.417-1.382 13.502 7.63 13.52-11.27 13.608 2.776 13.668-2.859 13.726 3.275 13.782 2.912 13.801 13.558 13.985-18.932 13.889 16.41 14.091-9.671 14.144-5.55 14.134 4.396 14.176 5.786 14.135 14.463" class="highcharts-graph highcharts-shadow" data-z-index="1" stroke="#000" stroke-width="5" stroke-linejoin="round" stroke-linecap="round" stroke-opacity=".05" aria-hidden="true"/><path fill="none" d="m97.787 132 12.855-23.54 13.348 22.985 13.197.933 13.18-10.557 13.392 13.468 13.368 1.095 13.417-1.382 13.502 7.63 13.52-11.27 13.608 2.776 13.668-2.859 13.726 3.275 13.782 2.912 13.801 13.558 13.985-18.932 13.889 16.41 14.091-9.671 14.144-5.55 14.134 4.396 14.176 5.786 14.135 14.463" class="highcharts-graph highcharts-shadow" data-z-index="1" stroke="#000" stroke-width="3" stroke-linejoin="round" stroke-linecap="round" stroke-opacity=".1" aria-hidden="true"/><path fill="none" d="m97.787 132 12.855-23.54 13.348 22.985 13.197.933 13.18-10.557 13.392 13.468 13.368 1.095 13.417-1.382 13.502 7.63 13.52-11.27 13.608 2.776 13.668-2.859 13.726 3.275 13.782 2.912 13.801 13.558 13.985-18.932 13.889 16.41 14.091-9.671 14.144-5.55 14.134 4.396 14.176 5.786 14.135 14.463" class="highcharts-graph highcharts-shadow" data-z-index="1" stroke="#000" stroke-linejoin="round" stroke-linecap="round" stroke-opacity=".15" aria-hidden="true"/><path fill="none" d="m96.787 131 12.855-23.54 13.348 22.985 13.197.933 13.18-10.557 13.392 13.468 13.368 1.095 13.417-1.382 13.502 7.63 13.52-11.27 13.608 2.776 13.668-2.859 13.726 3.275 13.782 2.912 13.801 13.558 13.985-18.932 13.889 16.41 14.091-9.671 14.144-5.55 14.134 4.396 14.176 5.786 14.135 14.463" class="highcharts-graph" data-z-index="1" stroke="#78A0B4" stroke-width="2" stroke-linejoin="round" stroke-linecap="round" aria-hidden="true"/></g><g class="highcharts-series highcharts-series-0 highcharts-area-series" data-z-index="200" clip-path="url(#c)" aria-hidden="false" transform="translate(116 43)"><path fill="#C86E32" d="m59.173 152.687 8.616-3.055 8.635-3.958 8.729 1.722 8.78 4.372 9.001 24.549 8.507-28.132 8.806-.659 8.809-3.66 8.873.947 8.878-2.284 8.942 3.66 8.92-4.741 8.985 2.31 9.064 16.183 9.06 13.024 9.027-2.745 9.057-3.057 9.085-5.724 9.117-11.42 9.159 9.281 9.178 3.426 9.204 1.603 9.242-4.244 9.221 15.496 9.315-9.752 9.324-1.84 9.334 2.463 9.362 2.084 9.306 15.185 9.447-4.132 9.452-.246 9.48-.014-.756 91.167-9.404-1.573-9.377-1.569-9.35-1.564-9.324-1.56-9.298-1.555-9.272-1.55-9.245-1.547-9.22-1.543-9.193-1.538-9.168-1.533-9.143-1.53-9.117-1.525-9.091-1.52-9.066-1.517-9.04-1.512-9.017-1.508-8.99-1.504-8.966-1.5-8.941-1.496-8.917-1.491-8.892-1.488-8.867-1.483-8.843-1.48-8.818-1.474-8.795-1.471-8.77-1.467-8.747-1.463-8.722-1.46-8.699-1.455-8.675-1.45-8.651-1.448-8.628-1.443" class="highcharts-area" data-z-index="0" aria-hidden="true"/><path fill="none" d="m60.173 153.687 8.616-3.055 8.635-3.958 8.729 1.722 8.78 4.372 9.001 24.549 8.507-28.132 8.806-.659 8.809-3.66 8.873.947 8.878-2.284 8.942 3.66 8.92-4.741 8.985 2.31 9.064 16.183 9.06 13.024 9.027-2.745 9.057-3.057 9.085-5.724 9.117-11.42 9.159 9.281 9.178 3.426 9.204 1.603 9.242-4.244 9.221 15.496 9.315-9.752 9.324-1.84 9.334 2.463 9.362 2.084 9.306 15.185 9.447-4.132 9.452-.246 9.48-.014" class="highcharts-graph highcharts-shadow" data-z-index="1" stroke="#000" stroke-width="5" stroke-linejoin="round" stroke-linecap="round" stroke-opacity=".05" aria-hidden="true"/><path fill="none" d="m60.173 153.687 8.616-3.055 8.635-3.958 8.729 1.722 8.78 4.372 9.001 24.549 8.507-28.132 8.806-.659 8.809-3.66 8.873.947 8.878-2.284 8.942 3.66 8.92-4.741 8.985 2.31 9.064 16.183 9.06 13.024 9.027-2.745 9.057-3.057 9.085-5.724 9.117-11.42 9.159 9.281 9.178 3.426 9.204 1.603 9.242-4.244 9.221 15.496 9.315-9.752 9.324-1.84 9.334 2.463 9.362 2.084 9.306 15.185 9.447-4.132 9.452-.246 9.48-.014" class="highcharts-graph highcharts-shadow" data-z-index="1" stroke="#000" stroke-width="3" stroke-linejoin="round" stroke-linecap="round" stroke-opacity=".1" aria-hidden="true"/><path fill="none" d="m60.173 153.687 8.616-3.055 8.635-3.958 8.729 1.722 8.78 4.372 9.001 24.549 8.507-28.132 8.806-.659 8.809-3.66 8.873.947 8.878-2.284 8.942 3.66 8.92-4.741 8.985 2.31 9.064 16.183 9.06 13.024 9.027-2.745 9.057-3.057 9.085-5.724 9.117-11.42 9.159 9.281 9.178 3.426 9.204 1.603 9.242-4.244 9.221 15.496 9.315-9.752 9.324-1.84 9.334 2.463 9.362 2.084 9.306 15.185 9.447-4.132 9.452-.246 9.48-.014" class="highcharts-graph highcharts-shadow" data-z-index="1" stroke="#000" stroke-linejoin="round" stroke-linecap="round" stroke-opacity=".15" aria-hidden="true"/><path fill="none" d="m59.173 152.687 8.616-3.055 8.635-3.958 8.729 1.722 8.78 4.372 9.001 24.549 8.507-28.132 8.806-.659 8.809-3.66 8.873.947 8.878-2.284 8.942 3.66 8.92-4.741 8.985 2.31 9.064 16.183 9.06 13.024 9.027-2.745 9.057-3.057 9.085-5.724 9.117-11.42 9.159 9.281 9.178 3.426 9.204 1.603 9.242-4.244 9.221 15.496 9.315-9.752 9.324-1.84 9.334 2.463 9.362 2.084 9.306 15.185 9.447-4.132 9.452-.246 9.48-.014" class="highcharts-graph" data-z-index="1" stroke="#B45A32" stroke-width="2" stroke-linejoin="round" stroke-linecap="round" aria-hidden="true"/></g></g><text x="300" text-anchor="middle" class="highcharts-title" data-z-index="4" style="color:#000;font-size:16px;font-weight:700;fill:#000" y="22" aria-hidden="true">Visual comparison of Mountains Panorama</text><g class="highcharts-legend highcharts-no-tooltip" data-z-index="7" transform="translate(151 326)" aria-hidden="true"><rect fill="#E0E0E8" class="highcharts-legend-box" rx="0" ry="0" width="298" height="59"/><g data-z-index="1"><g class="highcharts-legend-item highcharts-area-series highcharts-color-undefined highcharts-series-0" data-z-index="1" transform="translate(8 3)"><text x="21" data-z-index="2" y="16" style="color:#333;cursor:pointer;font-size:13px;font-weight:700;fill:#333">Tatra Mountains visible from Rusinowa polana</text><rect x="1.5" y="4" width="13" height="13" fill="#C86E32" rx="6.5" ry="6.5" class="highcharts-point" data-z-index="3"/></g><g class="highcharts-legend-item highcharts-area-series highcharts-color-undefined highcharts-series-1" data-z-index="1" transform="translate(8 19)"><text x="21" y="16" data-z-index="2" style="color:#333;cursor:pointer;font-size:13px;font-weight:700;fill:#333">Dachstein panorama seen from Krippenstein</text><rect x="1.5" y="4" width="13" height="13" fill="#8CB4C8" rx="6.5" ry="6.5" class="highcharts-point" data-z-index="3"/></g><g class="highcharts-legend-item highcharts-area-series highcharts-color-undefined highcharts-series-2" data-z-index="1" transform="translate(8 35)"><text x="21" y="16" data-z-index="2" style="color:#333;cursor:pointer;font-size:13px;font-weight:700;fill:#333">Panorama from Col Des Mines</text><rect x="1.5" y="4" width="13" height="13" fill="#C8BE8C" rx="6.5" ry="6.5" class="highcharts-point" data-z-index="3"/></g></g></g><g class="highcharts-axis-labels highcharts-yaxis-labels" data-z-index="7" aria-hidden="true" text-anchor="end"><text x="162.819" style="color:#6e6e70;cursor:default;font-size:11px;fill:#6e6e70" y="268.195">0 MAMSL</text><text x="162.303" style="color:#6e6e70;cursor:default;font-size:11px;fill:#6e6e70" y="231.632">1 000 MAMSL</text><text x="161.775" style="color:#6e6e70;cursor:default;font-size:11px;fill:#6e6e70" y="194.188">2 000 MAMSL</text><text x="161.253" style="color:#6e6e70;cursor:default;font-size:11px;fill:#6e6e70" y="157.222">3 000 MAMSL</text><text x="160.729" style="color:#6e6e70;cursor:default;font-size:11px;fill:#6e6e70" y="120.054">4 000 MAMSL</text><text x="160.202" style="color:#6e6e70;cursor:default;font-size:11px;fill:#6e6e70" y="82.682">5 000 MAMSL</text></g></svg>