<svg class="highcharts-root" style="font-family:Signika,serif;font-size:12px" xmlns="http://www.w3.org/2000/svg" width="600" height="400" aria-label="Interactive chart" aria-hidden="false"><rect fill="none" class="highcharts-background" width="600" height="400" rx="0" ry="0" aria-hidden="true"/><g stroke-linejoin="round" class="highcharts-3d-frame highcharts-3d-frame-bottom" data-z-index="-1000" aria-hidden="true" fill="none"><path d="m147.837 266.065 401.713 40.27-.863 13.665-415.221-43.231Z"/><path d="M548.63 320.82 132.8 277.43l.666-.661L548.686 320Z"/></g><g stroke-linejoin="round" class="highcharts-3d-frame highcharts-3d-frame-left" data-z-index="-1000" aria-hidden="true" fill="none"><path d="m135.079 55.132.353.116-15.822 3.81-.758-.026Z"/><path d="m135.432 55.248 12.405 210.817-14.371 10.704L119.61 59.058Z"/><path d="M132.8 277.43 118.853 59.031l.758.026 13.856 217.71Z"/></g><g stroke-linejoin="round" class="highcharts-3d-frame highcharts-3d-frame-back" data-z-index="-1000" aria-hidden="true" fill="none"><path d="m135.079 55.132 431.058 14.42-.006.12-430.7-14.424Z"/><path d="m135.432 55.248 430.7 14.423-16.582 236.663-401.713-40.27Z"/></g><path fill="none" class="highcharts-plot-background" aria-hidden="true" d="M75 43h515v277H75z"/><g class="highcharts-grid highcharts-xaxis-grid" data-z-index="1" aria-hidden="true" fill="none" stroke="#e6e6e6"><path data-z-index="1" class="highcharts-grid-line" d="M176.03 56.608 186 269.89m-13.243 10.97 13.242-10.97m68.113-210.667 5.109 218.007m-10.986 11.488 10.986-11.488m77.736-215.233-.297 222.996m-8.47 12.05 8.47-12.05m86.59-220.106-6.201 228.165m-5.717 12.647 5.717-12.647M514.117 67.93l-12.715 233.578m-2.672 13.29 2.672-13.29"/></g><g class="highcharts-grid highcharts-yaxis-grid" data-z-index="1" aria-hidden="true" fill="none" stroke="#e6e6e6"><path data-z-index="1" class="highcharts-grid-line" d="m147.858 266.421 401.664 40.31m-416.033-29.595 14.37-10.715m-1.951-33.144 406.202 36.516m-420.795-26.82 14.593-9.696m-1.992-33.852 410.844 32.539m-425.667-23.907 14.823-8.632m-2.036-34.583 415.596 28.368M126.82 172.36l15.06-7.518m-2.124-36.114 420.563 23.895m-435.872-17.57 15.309-6.325m-2.126-36.134 425.543 19.3M122.069 97.698l15.56-5.104m-2.221-37.752 430.755 14.37m-446.58-10.574 15.825-3.796"/></g><path fill="none" class="highcharts-plot-border" data-z-index="1" aria-hidden="true" d="M75 43h515v277H75z"/><g class="highcharts-axis highcharts-yaxis" data-z-index="2" aria-hidden="true"><text x="88.688" data-z-index="7" text-anchor="middle" transform="matrix(-.0592 -.78488 .81027 0 -45.084 241.184)" class="highcharts-axis-title" style="color:#666;font-size:16px;fill:#666" y="171.575">TWh</text></g><g class="highcharts-series-group" data-z-index="3" aria-hidden="false"><g class="highcharts-markers highcharts-series-0 highcharts-column-series highcharts-color-0 highcharts-tracker" data-z-index="10" aria-hidden="false" stroke-linejoin="round"><g data-z-index="26600575" stroke="#8d4654" class="highcharts-point highcharts-color-2" tabindex="-1" aria-label="x, 2016, 368. Saudi Arabia." style="outline:0"><path fill="#8d4654" d="m152.827 278.834 18.104 1.886-2.652-51.273-18.385-1.619Z" class="highcharts-3d-front" data-z-index="0"/><path fill="#A65F6D" d="m168.279 229.447 13.582-9.396-17.846-1.512-14.12 9.29Z" class="highcharts-3d-top" data-z-index="0"/><path fill="#742D3B" d="m168.279 229.447 2.652 51.273 13.282-10.947-2.352-49.722Z" class="highcharts-3d-side" data-z-index="0"/></g><g data-z-index="26601615" stroke="#f45b5b" class="highcharts-point highcharts-color-0" tabindex="-1" aria-label="x, 2016, 563. South Korea." style="outline:0"><path fill="#f45b5b" d="m149.894 227.828 18.385 1.619-4.23-81.757-18.83-1.174Z" class="highcharts-3d-front" data-z-index="0"/><path fill="#FF7474" d="m164.05 147.69 14.065-6.811-18.265-1.095-14.63 6.732Z" class="highcharts-3d-top" data-z-index="0"/><path fill="#DB4242" d="m164.05 147.69 4.229 81.757 13.582-9.396-3.746-79.172Z" class="highcharts-3d-side" data-z-index="0"/></g><g data-z-index="57600935" stroke="#7798BF" class="highcharts-point highcharts-color-3" tabindex="-1" aria-label="x, 2016, 564. France." style="outline:0"><path fill="#7798BF" d="m175.307 281.175 18.364 1.913-3.542-79.626-18.808-1.491Z" class="highcharts-3d-front" data-z-index="0"/><path fill="#90B1D8" d="m190.13 203.462 13.047-8.655-18.244-1.392-13.612 8.556Z" class="highcharts-3d-top" data-z-index="0"/><path fill="#5E7FA6" d="m190.13 203.462 3.541 79.626 12.616-11.102-3.11-77.179Z" class="highcharts-3d-side" data-z-index="0"/></g><g data-z-index="57602135" stroke="#8085e9" class="highcharts-point highcharts-color-1" tabindex="-1" aria-label="x, 2016, 650. Germany." style="outline:0"><path fill="#8085e9" d="m171.32 201.97 18.81 1.492-4.319-97.076-19.35-.948Z" class="highcharts-3d-front" data-z-index="0"/><path fill="#999EFF" d="m185.811 106.386 13.582-5.495-18.753-.883-14.178 5.43Z" class="highcharts-3d-top" data-z-index="0"/><path fill="#676CD0" d="m185.811 106.386 4.318 97.076 13.048-8.655-3.784-93.916Z" class="highcharts-3d-side" data-z-index="0"/></g><g data-z-index="128600595" stroke="#8d4654" class="highcharts-point highcharts-color-2" tabindex="-1" aria-label="x, 2017, 378. Saudi Arabia." style="outline:0"><path fill="#8d4654" d="m228.021 286.665 18.98 1.976-1.48-53.956-19.298-1.69Z" class="highcharts-3d-front" data-z-index="0"/><path fill="#A65F6D" d="m245.52 234.685 11.248-9.802-18.702-1.576-11.843 9.688Z" class="highcharts-3d-top" data-z-index="0"/><path fill="#742D3B" d="m245.52 234.685 1.481 53.956 11.012-11.469-1.245-52.29Z" class="highcharts-3d-side" data-z-index="0"/></g><g data-z-index="128601645" stroke="#f45b5b" class="highcharts-point highcharts-color-0" tabindex="-1" aria-label="x, 2017, 567. South Korea." style="outline:0"><path fill="#f45b5b" d="m226.223 232.995 19.297 1.69-2.32-84.532-19.795-1.22Z" class="highcharts-3d-front" data-z-index="0"/><path fill="#FF7474" d="m243.2 150.153 11.62-7.068-19.169-1.135-12.246 6.983Z" class="highcharts-3d-top" data-z-index="0"/><path fill="#DB4242" d="m243.2 150.153 2.32 84.532 11.248-9.802-1.949-81.798Z" class="highcharts-3d-side" data-z-index="0"/></g><g data-z-index="158600935" stroke="#7798BF" class="highcharts-point highcharts-color-3" tabindex="-1" aria-label="x, 2017, 562. France." style="outline:0"><path fill="#7798BF" d="m250.824 289.04 19.25 2.004-1.632-81.37-19.74-1.566Z" class="highcharts-3d-front" data-z-index="0"/><path fill="#90B1D8" d="m268.442 209.674 10.617-9.077-19.115-1.459-11.242 8.97Z" class="highcharts-3d-top" data-z-index="0"/><path fill="#5E7FA6" d="m268.442 209.674 1.631 81.37 10.301-11.63-1.315-78.817Z" class="highcharts-3d-side" data-z-index="0"/></g><g data-z-index="158602145" stroke="#8085e9" class="highcharts-point highcharts-color-1" tabindex="-1" aria-label="x, 2017, 654. Germany." style="outline:0"><path fill="#8085e9" d="m248.702 208.108 19.74 1.566-2.01-100.192-20.342-.991Z" class="highcharts-3d-front" data-z-index="0"/><path fill="#999EFF" d="m266.433 109.482 11.01-5.741-19.68-.922-11.673 5.672Z" class="highcharts-3d-top" data-z-index="0"/><path fill="#676CD0" d="m266.433 109.482 2.009 100.192 10.617-9.077-1.616-96.856Z" class="highcharts-3d-side" data-z-index="0"/></g><g data-z-index="229600595" stroke="#8d4654" class="highcharts-point highcharts-color-2" tabindex="-1" aria-label="x, 2018, 378. Saudi Arabia." style="outline:0"><path fill="#8d4654" d="m306.094 294.794 19.91 2.074-.115-55.145-20.26-1.774Z" class="highcharts-3d-front" data-z-index="0"/><path fill="#A65F6D" d="m325.89 241.723 8.68-10.284-19.601-1.652-9.34 10.162Z" class="highcharts-3d-top" data-z-index="0"/><path fill="#742D3B" d="m325.89 241.723.115 55.145 8.53-12.023.036-53.406Z" class="highcharts-3d-side" data-z-index="0"/></g><g data-z-index="229601685" stroke="#f45b5b" class="highcharts-point highcharts-color-0" tabindex="-1" aria-label="x, 2018, 590. South Korea." style="outline:0"><path fill="#f45b5b" d="m305.628 239.949 20.261 1.774-.188-89.876-20.832-1.262Z" class="highcharts-3d-front" data-z-index="0"/><path fill="#FF7474" d="m325.701 151.847 8.926-7.31-20.136-1.172-9.622 7.22Z" class="highcharts-3d-top" data-z-index="0"/><path fill="#DB4242" d="m325.701 151.847.188 89.876 8.682-10.284.056-86.901Z" class="highcharts-3d-side" data-z-index="0"/></g><g data-z-index="260600965" stroke="#7798BF" class="highcharts-point highcharts-color-3" tabindex="-1" aria-label="x, 2018, 582. France." style="outline:0"><path fill="#7798BF" d="m330.819 297.37 20.21 2.104.512-85.677-20.768-1.631Z" class="highcharts-3d-front" data-z-index="0"/><path fill="#90B1D8" d="m351.54 213.797 7.907-9.454-20.075-1.517-8.6 9.34Z" class="highcharts-3d-top" data-z-index="0"/><path fill="#5E7FA6" d="m351.54 213.797-.51 85.677 7.718-12.202.699-82.929Z" class="highcharts-3d-side" data-z-index="0"/></g><g data-z-index="260602155" stroke="#8085e9" class="highcharts-point highcharts-color-1" tabindex="-1" aria-label="x, 2018, 643. Germany." style="outline:0"><path fill="#8085e9" d="m330.773 212.166 20.768 1.631.602-101.014-21.425-1.038Z" class="highcharts-3d-front" data-z-index="0"/><path fill="#999EFF" d="m352.143 112.783 8.125-6.01-20.688-.963-8.862 5.935Z" class="highcharts-3d-top" data-z-index="0"/><path fill="#676CD0" d="m352.143 112.783-.602 101.014 7.906-9.454.821-97.57Z" class="highcharts-3d-side" data-z-index="0"/></g><g data-z-index="331600575" stroke="#8d4654" class="highcharts-point highcharts-color-2" tabindex="-1" aria-label="x, 2019, 367. Saudi Arabia." style="outline:0"><path fill="#8d4654" d="m388.863 303.413 20.922 2.18 1.366-54.76-21.298-1.875Z" class="highcharts-3d-front" data-z-index="0"/><path fill="#A65F6D" d="m411.151 250.833 5.812-10.862-20.569-1.742-6.54 10.729Z" class="highcharts-3d-top" data-z-index="0"/><path fill="#742D3B" d="m411.151 250.833-1.366 54.76 5.763-12.626 1.415-52.996Z" class="highcharts-3d-side" data-z-index="0"/></g><g data-z-index="331601645" stroke="#f45b5b" class="highcharts-point highcharts-color-0" tabindex="-1" aria-label="x, 2019, 582. South Korea." style="outline:0"><path fill="#f45b5b" d="m389.853 248.958 21.298 1.875 2.25-90.195-21.918-1.35Z" class="highcharts-3d-front" data-z-index="0"/><path fill="#FF7474" d="m413.401 160.638 5.888-7.814-21.146-1.252-6.66 7.715Z" class="highcharts-3d-top" data-z-index="0"/><path fill="#DB4242" d="m413.401 160.638-2.25 90.195 5.812-10.862 2.326-87.147Z" class="highcharts-3d-side" data-z-index="0"/></g><g data-z-index="361600945" stroke="#7798BF" class="highcharts-point highcharts-color-3" tabindex="-1" aria-label="x, 2019, 571. France." style="outline:0"><path fill="#7798BF" d="m414 306.031 21.235 2.211 2.853-85.955-21.839-1.727Z" class="highcharts-3d-front" data-z-index="0"/><path fill="#90B1D8" d="m438.088 222.287 4.92-9.996-21.072-1.603-5.687 9.872Z" class="highcharts-3d-top" data-z-index="0"/><path fill="#5E7FA6" d="m438.088 222.287-2.853 85.955 4.894-12.81 2.878-83.141Z" class="highcharts-3d-side" data-z-index="0"/></g><g data-z-index="361602075" stroke="#8085e9" class="highcharts-point highcharts-color-1" tabindex="-1" aria-label="x, 2019, 612. Germany." style="outline:0"><path fill="#8085e9" d="m416.25 220.56 21.838 1.727 3.252-98.002-22.528-1.138Z" class="highcharts-3d-front" data-z-index="0"/><path fill="#999EFF" d="m441.34 124.285 4.942-6.586-21.712-1.054-5.758 6.502Z" class="highcharts-3d-top" data-z-index="0"/><path fill="#676CD0" d="m441.34 124.285-3.252 98.002 4.92-9.996 3.274-94.592Z" class="highcharts-3d-side" data-z-index="0"/></g><g data-z-index="432600565" stroke="#8d4654" class="highcharts-point highcharts-color-2" tabindex="-1" aria-label="x, 2020, 363. Saudi Arabia." style="outline:0"><path fill="#8d4654" d="m475.004 312.383 22.001 2.291 2.938-55.18-22.41-1.978Z" class="highcharts-3d-front" data-z-index="0"/><path fill="#A65F6D" d="m499.943 259.494 2.67-11.451-21.604-1.836-3.476 11.309Z" class="highcharts-3d-top" data-z-index="0"/><path fill="#742D3B" d="m499.943 259.494-2.938 55.18 2.73-13.266 2.877-53.365Z" class="highcharts-3d-side" data-z-index="0"/></g><g data-z-index="432601615" stroke="#f45b5b" class="highcharts-point highcharts-color-0" tabindex="-1" aria-label="x, 2020, 571. South Korea." style="outline:0"><path fill="#f45b5b" d="m477.533 257.516 22.41 1.978 4.822-90.555-23.083-1.44Z" class="highcharts-3d-front" data-z-index="0"/><path fill="#FF7474" d="m504.765 168.939 2.56-8.324-22.228-1.333-3.415 8.217Z" class="highcharts-3d-top" data-z-index="0"/><path fill="#DB4242" d="m504.765 168.939-4.822 90.555 2.67-11.451 4.711-87.428Z" class="highcharts-3d-side" data-z-index="0"/></g><g data-z-index="462600875" stroke="#7798BF" class="highcharts-point highcharts-color-3" tabindex="-1" aria-label="x, 2020, 533. France." style="outline:0"><path fill="#7798BF" d="m501.439 315.136 22.338 2.326 5.078-81.948-22.96-1.855Z" class="highcharts-3d-front" data-z-index="0"/><path fill="#90B1D8" d="m528.855 235.514 1.624-10.73-22.113-1.718-2.471 10.593Z" class="highcharts-3d-top" data-z-index="0"/><path fill="#5E7FA6" d="m528.855 235.514-5.078 81.948 1.77-13.466 4.932-79.212Z" class="highcharts-3d-side" data-z-index="0"/></g><g data-z-index="462601935" stroke="#8085e9" class="highcharts-point highcharts-color-1" tabindex="-1" aria-label="x, 2020, 572. Germany." style="outline:0"><path fill="#8085e9" d="m505.895 233.659 22.96 1.855 5.806-93.682-23.674-1.283Z" class="highcharts-3d-front" data-z-index="0"/><path fill="#999EFF" d="m534.66 141.832 1.446-7.412-22.774-1.186-2.345 7.315Z" class="highcharts-3d-top" data-z-index="0"/><path fill="#676CD0" d="m534.66 141.832-5.805 93.682 1.624-10.73 5.627-90.364Z" class="highcharts-3d-side" data-z-index="0"/></g></g></g><text x="300" text-anchor="middle" class="highcharts-title" data-z-index="4" style="color:#000;font-size:16px;font-weight:700;fill:#000" y="22" aria-hidden="true">Electricity production in countries, grouped by continent</text><g class="highcharts-legend highcharts-no-tooltip" data-z-index="7" transform="translate(102 358)" aria-hidden="true"><rect fill="#E0E0E8" class="highcharts-legend-box" rx="0" ry="0" width="395" height="27"/><g data-z-index="1"><g class="highcharts-legend-item highcharts-column-series highcharts-color-0 highcharts-series-0" data-z-index="1" transform="translate(8 3)"><text x="21" data-z-index="2" y="16" style="color:#333;cursor:pointer;font-size:13px;font-weight:700;fill:#333">South Korea</text><rect x="1.5" y="4" width="13" height="13" fill="#f45b5b" rx="6.5" ry="6.5" class="highcharts-point" data-z-index="3"/></g><g class="highcharts-legend-item highcharts-column-series highcharts-color-1 highcharts-series-1" data-z-index="1" transform="translate(119.188 3)"><text x="21" y="16" data-z-index="2" style="color:#333;cursor:pointer;font-size:13px;font-weight:700;fill:#333">Germany</text><rect x="1.5" y="4" width="13" height="13" fill="#8085e9" rx="6.5" ry="6.5" class="highcharts-point" data-z-index="3"/></g><g class="highcharts-legend-item highcharts-column-series highcharts-color-2 highcharts-series-2" data-z-index="1" transform="translate(212.898 3)"><text x="21" y="16" data-z-index="2" style="color:#333;cursor:pointer;font-size:13px;font-weight:700;fill:#333">Saudi Arabia</text><rect x="1.5" y="4" width="13" height="13" fill="#8d4654" rx="6.5" ry="6.5" class="highcharts-point" data-z-index="3"/></g><g class="highcharts-legend-item highcharts-column-series highcharts-color-3 highcharts-series-3" data-z-index="1" transform="translate(327.234 3)"><text x="21" y="16" data-z-index="2" style="color:#333;cursor:pointer;font-size:13px;font-weight:700;fill:#333">France</text><rect x="1.5" y="4" width="13" height="13" fill="#7798BF" rx="6.5" ry="6.5" class="highcharts-point" data-z-index="3"/></g></g></g><g class="highcharts-axis-labels highcharts-xaxis-labels" data-z-index="7" aria-hidden="true" text-anchor="middle"><text x="172.935" transform="matrix(.73022 .08022 0 .79376 46.655 47.819)" style="color:#6e6e70;cursor:default;font-size:16px;fill:#6e6e70" y="299.135">2016</text><text x="248.711" transform="matrix(.76547 .0841 0 .8127 58.33 36.672)" style="color:#6e6e70;cursor:default;font-size:16px;fill:#6e6e70" y="307.46">2017</text><text x="328.19" transform="matrix(.80334 .08826 0 .83256 64.541 23.979)" style="color:#6e6e70;cursor:default;font-size:16px;fill:#6e6e70" y="316.192">2018</text><text x="411.651" transform="matrix(.8441 .09273 0 .85341 64.178 9.52)" style="color:#6e6e70;cursor:default;font-size:16px;fill:#6e6e70" y="325.361">2019</text><text x="499.401" transform="matrix(.88803 .09756 0 .87534 55.918 -6.96)" style="color:#6e6e70;cursor:default;font-size:16px;fill:#6e6e70" y="335.001">2020</text></g><g class="highcharts-axis-labels highcharts-yaxis-labels" data-z-index="7" aria-hidden="true" text-anchor="end"><text x="121.954" style="color:#6e6e70;cursor:default;font-size:11px;fill:#6e6e70" y="280.438">0</text><text x="119.657" style="color:#6e6e70;cursor:default;font-size:11px;fill:#6e6e70" y="246.349">250</text><text x="117.257" style="color:#6e6e70;cursor:default;font-size:11px;fill:#6e6e70" y="210.741">500</text><text x="114.855" style="color:#6e6e70;cursor:default;font-size:11px;fill:#6e6e70" y="175.104">750</text><text x="112.398" style="color:#6e6e70;cursor:default;font-size:11px;fill:#6e6e70" y="138.663">1000</text><text x="109.886" style="color:#6e6e70;cursor:default;font-size:11px;fill:#6e6e70" y="101.39">1250</text><text x="107.316" style="color:#6e6e70;cursor:default;font-size:11px;fill:#6e6e70" y="63.256">1500</text></g></svg>