<svg class="highcharts-root" style="font-family:Signika,serif;font-size:12px" xmlns="http://www.w3.org/2000/svg" width="600" height="420" aria-label="Interactive chart" aria-hidden="false"><defs aria-hidden="true"><clipPath id="a"><path fill="none" d="M0 0h539v290H0z"/></clipPath></defs><rect fill="none" class="highcharts-background" width="600" height="420" rx="0" ry="0" aria-hidden="true"/><path fill="none" class="highcharts-plot-background" aria-hidden="true" d="M51 56h539v290H51z"/><g class="highcharts-grid highcharts-xaxis-grid" data-z-index="1" aria-hidden="true" fill="none"><path data-z-index="1" class="highcharts-grid-line" d="M55.5 56v290m86-290v290m85-290v290m85-290v290m85-290v290m85-290v290m86-290v290"/></g><g class="highcharts-grid highcharts-yaxis-grid" data-z-index="1" aria-hidden="true" fill="none" stroke="#e6e6e6"><path data-z-index="1" class="highcharts-grid-line" d="M51 346.5h539m-539-72h539m-539-73h539m-539-72h539m-539-74h539"/></g><path fill="none" class="highcharts-plot-border" data-z-index="1" aria-hidden="true" d="M51 56h539v290H51z"/><g class="highcharts-axis highcharts-xaxis" data-z-index="2" aria-hidden="true" fill="none" stroke="#ccd6eb"><path class="highcharts-tick" d="M55.5 346v10m86-10v10m85-10v10m85-10v10m85-10v10m85-10v10m86-10v10"/><path class="highcharts-axis-line" data-z-index="7" d="M51 346.5h539"/></g><g class="highcharts-axis highcharts-yaxis" data-z-index="2" aria-hidden="true"><path fill="none" class="highcharts-axis-line" data-z-index="7" d="M51 56v290"/></g><g class="highcharts-series-group" data-z-index="3" aria-hidden="false"><g class="highcharts-series highcharts-series-0 highcharts-area-series highcharts-color-0" data-z-index=".1" clip-path="url(#a)" aria-hidden="true" transform="translate(51 56)"><path fill="rgba(244,91,91,0.75)" d="M5.284 0h528.432v148.404l-17.046 3.704-17.047-9.15-17.046-2.723-17.046-.866-17.046-1.477-17.046.07-17.047 2.135h-17.046l-17.046-.783-17.046-2.25-17.046-8.507-17.046-3.366-17.047-7.623-17.046-6.03-17.046-4.436-17.046-5.86-17.046-8.156-17.046-7.792L209.838 78l-17.046-6.014-17.046-1.557-17.046 1.02-17.046 1.051-17.046 1.05-17.047 1.082-17.046.065-17.046-4.463-17.046-2.954-17.046-3.621-17.047-1.345-17.046-2.397Z" class="highcharts-area" data-z-index="0"/><path fill="none" d="M6.284 1h528.432" class="highcharts-graph highcharts-shadow" data-z-index="1" stroke="#000" stroke-width="5" stroke-linejoin="round" stroke-linecap="round" stroke-opacity=".05"/><path fill="none" d="M6.284 1h528.432" class="highcharts-graph highcharts-shadow" data-z-index="1" stroke="#000" stroke-width="3" stroke-linejoin="round" stroke-linecap="round" stroke-opacity=".1"/><path fill="none" d="M6.284 1h528.432" class="highcharts-graph highcharts-shadow" data-z-index="1" stroke="#000" stroke-linejoin="round" stroke-linecap="round" stroke-opacity=".15"/><path fill="none" d="M5.284 0h528.432" class="highcharts-graph" data-z-index="1" stroke="#f45b5b" stroke-width="2" stroke-linejoin="round" stroke-linecap="round"/><path fill="none" d="M5.284 0h528.432" data-z-index="2" class="highcharts-tracker-line" stroke-linecap="round" stroke-linejoin="round" stroke="rgba(192,192,192,0.0001)" stroke-width="22"/></g><g class="highcharts-series highcharts-series-1 highcharts-area-series highcharts-color-1" data-z-index=".1" clip-path="url(#a)" aria-hidden="true" transform="translate(51 56)"><path fill="rgba(128,133,233,0.75)" d="m5.284 59.917 17.046 2.397 17.047 1.345 17.046 3.621 17.046 2.954 17.046 4.463 17.046-.065 17.047-1.081 17.046-1.051 17.046-1.05 17.046-1.021 17.046 1.557L209.838 78l17.047 7.294 17.046 7.792 17.046 8.157 17.046 5.86 17.046 4.435 17.046 6.03 17.047 7.623 17.046 3.366 17.046 8.508 17.046 2.249 17.046.783h17.046l17.047-2.136 17.046-.069 17.046 1.477 17.046.866 17.046 2.723 17.047 9.15 17.046-3.704v68.075l-17.046 2.443-17.047-3.805-17.046-1.361-17.046-1.183-17.046-.76-17.046 2.168-17.047 3.169h-17.046l-17.046-2.493-17.046 1.76-17.046-2.654-17.046-1.413-17.047-2.296-17.046-1.318-17.046-1.122-17.046-1.697-17.046-3.633-17.046-3.264-17.047-3.02-17.046-2.667-17.046 1.381-17.046-1.38-17.046.71-17.046-.71-17.047.71-17.046-.71-17.046-.756-17.046-2.338-17.046-3.98-17.047-1.715-17.046-2.396Z" class="highcharts-area" data-z-index="0"/><path fill="none" d="m6.284 60.917 17.046 2.397 17.047 1.345 17.046 3.621 17.046 2.954 17.046 4.463 17.046-.065 17.047-1.081 17.046-1.051 17.046-1.05 17.046-1.021 17.046 1.557L210.838 79l17.047 7.294 17.046 7.792 17.046 8.157 17.046 5.86 17.046 4.435 17.046 6.03 17.047 7.623 17.046 3.366 17.046 8.508 17.046 2.249 17.046.783h17.046l17.047-2.136 17.046-.069 17.046 1.477 17.046.866 17.046 2.723 17.047 9.15 17.046-3.704" class="highcharts-graph highcharts-shadow" data-z-index="1" stroke="#000" stroke-width="5" stroke-linejoin="round" stroke-linecap="round" stroke-opacity=".05"/><path fill="none" d="m6.284 60.917 17.046 2.397 17.047 1.345 17.046 3.621 17.046 2.954 17.046 4.463 17.046-.065 17.047-1.081 17.046-1.051 17.046-1.05 17.046-1.021 17.046 1.557L210.838 79l17.047 7.294 17.046 7.792 17.046 8.157 17.046 5.86 17.046 4.435 17.046 6.03 17.047 7.623 17.046 3.366 17.046 8.508 17.046 2.249 17.046.783h17.046l17.047-2.136 17.046-.069 17.046 1.477 17.046.866 17.046 2.723 17.047 9.15 17.046-3.704" class="highcharts-graph highcharts-shadow" data-z-index="1" stroke="#000" stroke-width="3" stroke-linejoin="round" stroke-linecap="round" stroke-opacity=".1"/><path fill="none" d="m6.284 60.917 17.046 2.397 17.047 1.345 17.046 3.621 17.046 2.954 17.046 4.463 17.046-.065 17.047-1.081 17.046-1.051 17.046-1.05 17.046-1.021 17.046 1.557L210.838 79l17.047 7.294 17.046 7.792 17.046 8.157 17.046 5.86 17.046 4.435 17.046 6.03 17.047 7.623 17.046 3.366 17.046 8.508 17.046 2.249 17.046.783h17.046l17.047-2.136 17.046-.069 17.046 1.477 17.046.866 17.046 2.723 17.047 9.15 17.046-3.704" class="highcharts-graph highcharts-shadow" data-z-index="1" stroke="#000" stroke-linejoin="round" stroke-linecap="round" stroke-opacity=".15"/><path fill="none" d="m5.284 59.917 17.046 2.397 17.047 1.345 17.046 3.621 17.046 2.954 17.046 4.463 17.046-.065 17.047-1.081 17.046-1.051 17.046-1.05 17.046-1.021 17.046 1.557L209.838 78l17.047 7.294 17.046 7.792 17.046 8.157 17.046 5.86 17.046 4.435 17.046 6.03 17.047 7.623 17.046 3.366 17.046 8.508 17.046 2.249 17.046.783h17.046l17.047-2.136 17.046-.069 17.046 1.477 17.046.866 17.046 2.723 17.047 9.15 17.046-3.704" class="highcharts-graph" data-z-index="1" stroke="#8085e9" stroke-width="2" stroke-linejoin="round" stroke-linecap="round"/><path fill="none" d="m5.284 59.917 17.046 2.397 17.047 1.345 17.046 3.621 17.046 2.954 17.046 4.463 17.046-.065 17.047-1.081 17.046-1.051 17.046-1.05 17.046-1.021 17.046 1.557L209.838 78l17.047 7.294 17.046 7.792 17.046 8.157 17.046 5.86 17.046 4.435 17.046 6.03 17.047 7.623 17.046 3.366 17.046 8.508 17.046 2.249 17.046.783h17.046l17.047-2.136 17.046-.069 17.046 1.477 17.046.866 17.046 2.723 17.047 9.15 17.046-3.704" data-z-index="2" class="highcharts-tracker-line" stroke-linecap="round" stroke-linejoin="round" stroke="rgba(192,192,192,0.0001)" stroke-width="22"/></g><g class="highcharts-series highcharts-series-2 highcharts-area-series highcharts-color-2" data-z-index=".1" clip-path="url(#a)" aria-hidden="true" transform="translate(51 56)"><path fill="rgba(141,70,84,0.75)" d="m5.284 182.149 17.046 2.396 17.047 1.715 17.046 3.98 17.046 2.338 17.046.755 17.046.711 17.047-.71 17.046.71 17.046-.71 17.046 1.38 17.046-1.38L209.838 196l17.047 3.02 17.046 3.264 17.046 3.633 17.046 1.697 17.046 1.122 17.046 1.318 17.047 2.296 17.046 1.413 17.046 2.655 17.046-1.761 17.046 2.493h17.046l17.047-3.17 17.046-2.166 17.046.759 17.046 1.183 17.046 1.361 17.047 3.805 17.046-2.443v36.76l-17.046 2.643-17.047-1.281h-17.046l-17.046 1.613-17.046-.332-17.046 1.74-17.047 1.557-17.046 2.802-17.046-.412-17.046 2.46-17.046.559-17.046.057-17.047 1.841-17.046 1.206-17.046.888-17.046.828-17.046.9-17.046-1.158-17.047.85-17.046-.567-17.046-.147-17.046-.3-17.046 1.823-17.046.278-17.047 1.854-17.046-.517-17.046 1.717-17.046-.381-17.046-.264-17.047 2.124H5.284Z" class="highcharts-area" data-z-index="0"/><path fill="none" d="m6.284 183.149 17.046 2.396 17.047 1.715 17.046 3.98 17.046 2.338 17.046.755 17.046.711 17.047-.71 17.046.71 17.046-.71 17.046 1.38 17.046-1.38L210.838 197l17.047 3.02 17.046 3.264 17.046 3.633 17.046 1.697 17.046 1.122 17.046 1.318 17.047 2.296 17.046 1.413 17.046 2.655 17.046-1.761 17.046 2.493h17.046l17.047-3.17 17.046-2.166 17.046.759 17.046 1.183 17.046 1.361 17.047 3.805 17.046-2.443" class="highcharts-graph highcharts-shadow" data-z-index="1" stroke="#000" stroke-width="5" stroke-linejoin="round" stroke-linecap="round" stroke-opacity=".05"/><path fill="none" d="m6.284 183.149 17.046 2.396 17.047 1.715 17.046 3.98 17.046 2.338 17.046.755 17.046.711 17.047-.71 17.046.71 17.046-.71 17.046 1.38 17.046-1.38L210.838 197l17.047 3.02 17.046 3.264 17.046 3.633 17.046 1.697 17.046 1.122 17.046 1.318 17.047 2.296 17.046 1.413 17.046 2.655 17.046-1.761 17.046 2.493h17.046l17.047-3.17 17.046-2.166 17.046.759 17.046 1.183 17.046 1.361 17.047 3.805 17.046-2.443" class="highcharts-graph highcharts-shadow" data-z-index="1" stroke="#000" stroke-width="3" stroke-linejoin="round" stroke-linecap="round" stroke-opacity=".1"/><path fill="none" d="m6.284 183.149 17.046 2.396 17.047 1.715 17.046 3.98 17.046 2.338 17.046.755 17.046.711 17.047-.71 17.046.71 17.046-.71 17.046 1.38 17.046-1.38L210.838 197l17.047 3.02 17.046 3.264 17.046 3.633 17.046 1.697 17.046 1.122 17.046 1.318 17.047 2.296 17.046 1.413 17.046 2.655 17.046-1.761 17.046 2.493h17.046l17.047-3.17 17.046-2.166 17.046.759 17.046 1.183 17.046 1.361 17.047 3.805 17.046-2.443" class="highcharts-graph highcharts-shadow" data-z-index="1" stroke="#000" stroke-linejoin="round" stroke-linecap="round" stroke-opacity=".15"/><path fill="none" d="m5.284 182.149 17.046 2.396 17.047 1.715 17.046 3.98 17.046 2.338 17.046.755 17.046.711 17.047-.71 17.046.71 17.046-.71 17.046 1.38 17.046-1.38L209.838 196l17.047 3.02 17.046 3.264 17.046 3.633 17.046 1.697 17.046 1.122 17.046 1.318 17.047 2.296 17.046 1.413 17.046 2.655 17.046-1.761 17.046 2.493h17.046l17.047-3.17 17.046-2.166 17.046.759 17.046 1.183 17.046 1.361 17.047 3.805 17.046-2.443" class="highcharts-graph" data-z-index="1" stroke="#8d4654" stroke-width="2" stroke-linejoin="round" stroke-linecap="round"/><path fill="none" d="m5.284 182.149 17.046 2.396 17.047 1.715 17.046 3.98 17.046 2.338 17.046.755 17.046.711 17.047-.71 17.046.71 17.046-.71 17.046 1.38 17.046-1.38L209.838 196l17.047 3.02 17.046 3.264 17.046 3.633 17.046 1.697 17.046 1.122 17.046 1.318 17.047 2.296 17.046 1.413 17.046 2.655 17.046-1.761 17.046 2.493h17.046l17.047-3.17 17.046-2.166 17.046.759 17.046 1.183 17.046 1.361 17.047 3.805 17.046-2.443" data-z-index="2" class="highcharts-tracker-line" stroke-linecap="round" stroke-linejoin="round" stroke="rgba(192,192,192,0.0001)" stroke-width="22"/></g><g class="highcharts-series highcharts-series-3 highcharts-area-series highcharts-color-3" data-z-index=".1" clip-path="url(#a)" aria-hidden="true" transform="translate(51 56)"><path fill="rgba(119,152,191,0.75)" d="M5.284 275.62H22.33l17.047-2.124 17.046.264 17.046.38 17.046-1.716 17.046.517 17.047-1.854 17.046-.278 17.046-1.823 17.046.3 17.046.147 17.046.567 17.047-.85 17.046 1.159 17.046-.9 17.046-.83 17.046-.887 17.046-1.206 17.047-1.841 17.046-.057 17.046-.558 17.046-2.461 17.046.412 17.046-2.802 17.047-1.558 17.046-1.739 17.046.332 17.046-1.613h17.046l17.047 1.281 17.046-2.643V290H5.284Z" class="highcharts-area" data-z-index="0"/><path fill="none" d="M6.284 276.62H23.33l17.047-2.124 17.046.264 17.046.38 17.046-1.716 17.046.517 17.047-1.854 17.046-.278 17.046-1.823 17.046.3 17.046.147 17.046.567 17.047-.85 17.046 1.159 17.046-.9 17.046-.83 17.046-.887 17.046-1.206 17.047-1.841 17.046-.057 17.046-.558 17.046-2.461 17.046.412 17.046-2.802 17.047-1.558 17.046-1.739 17.046.332 17.046-1.613h17.046l17.047 1.281 17.046-2.643" class="highcharts-graph highcharts-shadow" data-z-index="1" stroke="#000" stroke-width="5" stroke-linejoin="round" stroke-linecap="round" stroke-opacity=".05"/><path fill="none" d="M6.284 276.62H23.33l17.047-2.124 17.046.264 17.046.38 17.046-1.716 17.046.517 17.047-1.854 17.046-.278 17.046-1.823 17.046.3 17.046.147 17.046.567 17.047-.85 17.046 1.159 17.046-.9 17.046-.83 17.046-.887 17.046-1.206 17.047-1.841 17.046-.057 17.046-.558 17.046-2.461 17.046.412 17.046-2.802 17.047-1.558 17.046-1.739 17.046.332 17.046-1.613h17.046l17.047 1.281 17.046-2.643" class="highcharts-graph highcharts-shadow" data-z-index="1" stroke="#000" stroke-width="3" stroke-linejoin="round" stroke-linecap="round" stroke-opacity=".1"/><path fill="none" d="M6.284 276.62H23.33l17.047-2.124 17.046.264 17.046.38 17.046-1.716 17.046.517 17.047-1.854 17.046-.278 17.046-1.823 17.046.3 17.046.147 17.046.567 17.047-.85 17.046 1.159 17.046-.9 17.046-.83 17.046-.887 17.046-1.206 17.047-1.841 17.046-.057 17.046-.558 17.046-2.461 17.046.412 17.046-2.802 17.047-1.558 17.046-1.739 17.046.332 17.046-1.613h17.046l17.047 1.281 17.046-2.643" class="highcharts-graph highcharts-shadow" data-z-index="1" stroke="#000" stroke-linejoin="round" stroke-linecap="round" stroke-opacity=".15"/><path fill="none" d="M5.284 275.62H22.33l17.047-2.124 17.046.264 17.046.38 17.046-1.716 17.046.517 17.047-1.854 17.046-.278 17.046-1.823 17.046.3 17.046.147 17.046.567 17.047-.85 17.046 1.159 17.046-.9 17.046-.83 17.046-.887 17.046-1.206 17.047-1.841 17.046-.057 17.046-.558 17.046-2.461 17.046.412 17.046-2.802 17.047-1.558 17.046-1.739 17.046.332 17.046-1.613h17.046l17.047 1.281 17.046-2.643" class="highcharts-graph" data-z-index="1" stroke="#7798BF" stroke-width="2" stroke-linejoin="round" stroke-linecap="round"/><path fill="none" d="M5.284 275.62H22.33l17.047-2.124 17.046.264 17.046.38 17.046-1.716 17.046.517 17.047-1.854 17.046-.278 17.046-1.823 17.046.3 17.046.147 17.046.567 17.047-.85 17.046 1.159 17.046-.9 17.046-.83 17.046-.887 17.046-1.206 17.047-1.841 17.046-.057 17.046-.558 17.046-2.461 17.046.412 17.046-2.802 17.047-1.558 17.046-1.739 17.046.332 17.046-1.613h17.046l17.047 1.281 17.046-2.643" data-z-index="2" class="highcharts-tracker-line" stroke-linecap="round" stroke-linejoin="round" stroke="rgba(192,192,192,0.0001)" stroke-width="22"/></g></g><g data-z-index="3" aria-hidden="true"><text data-z-index="1" y="12" style="color:#000;font-weight:700;fill:#000" transform="translate(441 120)" class="highcharts-label highcharts-series-label highcharts-series-label-0 highcharts-color-0">China</text></g><g data-z-index="3" aria-hidden="true"><text data-z-index="1" y="12" style="color:#000;font-weight:700;fill:#000" transform="translate(215 182)" class="highcharts-label highcharts-series-label highcharts-series-label-1 highcharts-color-1">USA</text></g><g data-z-index="3" aria-hidden="true"><text data-z-index="1" y="12" style="color:#fff;font-weight:700;fill:#fff" transform="translate(90 280)" class="highcharts-label highcharts-series-label highcharts-series-label-2 highcharts-color-2">EU</text></g><g data-z-index="3" aria-hidden="true"><text data-z-index="1" y="12" style="color:#000;font-weight:700;fill:#000" transform="translate(537 322)" class="highcharts-label highcharts-series-label highcharts-series-label-3 highcharts-color-3">India</text></g><text x="300" text-anchor="middle" class="highcharts-title" data-z-index="4" style="color:#000;font-size:16px;font-weight:700;fill:#000" y="22" aria-hidden="true">Countries/regions with highest Gt CO<tspan>2</tspan>-emissions</text><text x="300" text-anchor="middle" class="highcharts-subtitle" data-z-index="4" style="color:#000;fill:#000" y="42" aria-hidden="true">Source: <a target="_blank"><tspan>Energi og Klima</tspan></a></text><g class="highcharts-legend highcharts-no-tooltip" data-z-index="7" transform="translate(166 378)" aria-hidden="true"><rect fill="#E0E0E8" class="highcharts-legend-box" rx="0" ry="0" width="267" height="27"/><g data-z-index="1"><g class="highcharts-legend-item highcharts-area-series highcharts-color-0 highcharts-series-0" data-z-index="1" transform="translate(8 3)"><text x="21" data-z-index="2" y="16" style="color:#333;cursor:pointer;font-size:13px;font-weight:700;fill:#333">China</text><rect x="1.5" y="4" width="13" height="13" fill="#f45b5b" rx="6.5" ry="6.5" class="highcharts-point" data-z-index="3"/></g><g class="highcharts-legend-item highcharts-area-series highcharts-color-1 highcharts-series-1" data-z-index="1" transform="translate(82.96 3)"><text x="21" y="16" data-z-index="2" style="color:#333;cursor:pointer;font-size:13px;font-weight:700;fill:#333">USA</text><rect x="1.5" y="4" width="13" height="13" fill="#8085e9" rx="6.5" ry="6.5" class="highcharts-point" data-z-index="3"/></g><g class="highcharts-legend-item highcharts-area-series highcharts-color-2 highcharts-series-2" data-z-index="1" transform="translate(149.969 3)"><text x="21" y="16" data-z-index="2" style="color:#333;cursor:pointer;font-size:13px;font-weight:700;fill:#333">EU</text><rect x="1.5" y="4" width="13" height="13" fill="#8d4654" rx="6.5" ry="6.5" class="highcharts-point" data-z-index="3"/></g><g class="highcharts-legend-item highcharts-area-series highcharts-color-3 highcharts-series-3" data-z-index="1" transform="translate(209.031 3)"><text x="21" y="16" data-z-index="2" style="color:#333;cursor:pointer;font-size:13px;font-weight:700;fill:#333">India</text><rect x="1.5" y="4" width="13" height="13" fill="#7798BF" rx="6.5" ry="6.5" class="highcharts-point" data-z-index="3"/></g></g></g><g class="highcharts-axis-labels highcharts-xaxis-labels" data-z-index="7" aria-hidden="true" text-anchor="middle"><text x="56.284" style="color:#6e6e70;cursor:default;font-size:11px;fill:#6e6e70" y="365">1990</text><text x="141.515" style="color:#6e6e70;cursor:default;font-size:11px;fill:#6e6e70" y="365">1995</text><text x="226.746" style="color:#6e6e70;cursor:default;font-size:11px;fill:#6e6e70" y="365">2000</text><text x="311.977" style="color:#6e6e70;cursor:default;font-size:11px;fill:#6e6e70" y="365">2005</text><text x="397.208" style="color:#6e6e70;cursor:default;font-size:11px;fill:#6e6e70" y="365">2010</text><text x="482.439" style="color:#6e6e70;cursor:default;font-size:11px;fill:#6e6e70" y="365">2015</text><text x="567.67" style="color:#6e6e70;cursor:default;font-size:11px;fill:#6e6e70" y="365">2020</text></g><g class="highcharts-axis-labels highcharts-yaxis-labels" data-z-index="7" aria-hidden="true" text-anchor="end"><text x="36" style="color:#6e6e70;cursor:default;font-size:11px;fill:#6e6e70" y="351">0%</text><text x="36" style="color:#6e6e70;cursor:default;font-size:11px;fill:#6e6e70" y="278">25%</text><text x="36" style="color:#6e6e70;cursor:default;font-size:11px;fill:#6e6e70" y="206">50%</text><text x="36" style="color:#6e6e70;cursor:default;font-size:11px;fill:#6e6e70" y="133">75%</text><text x="36" style="color:#6e6e70;cursor:default;font-size:11px;fill:#6e6e70" y="61">100%</text></g></svg>