<svg class="highcharts-root" style="font-family:Signika,serif;font-size:12px" xmlns="http://www.w3.org/2000/svg" width="600" height="400" aria-label="Interactive chart" aria-hidden="false"><defs aria-hidden="true"><clipPath id="a"><path fill="none" d="M0 0h527v246H0z"/></clipPath></defs><rect fill="none" class="highcharts-background" width="600" height="400" rx="0" ry="0" aria-hidden="true"/><path fill="none" class="highcharts-plot-background" aria-hidden="true" d="M63 56h527v246H63z"/><g class="highcharts-grid highcharts-xaxis-grid" data-z-index="1" aria-hidden="true" fill="none"><path data-z-index="1" class="highcharts-grid-line" d="M110.5 56v246m48-246v246m48-246v246m48-246v246m48-246v246m47-246v246m48-246v246m48-246v246m48-246v246m48-246v246m48-246v246M62.5 56v246"/></g><g class="highcharts-grid highcharts-yaxis-grid" data-z-index="1" aria-hidden="true" fill="none" stroke="#e6e6e6"><path data-z-index="1" class="highcharts-grid-line" d="M63 302.5h527m-527-41h527m-527-41h527m-527-41h527m-527-41h527m-527-41h527m-527-42h527"/></g><path fill="none" class="highcharts-plot-border" data-z-index="1" aria-hidden="true" d="M63 56h527v246H63z"/><g class="highcharts-axis highcharts-xaxis" data-z-index="2" aria-hidden="true"><path fill="none" class="highcharts-axis-line" stroke="#ccd6eb" data-z-index="7" d="M63 302.5h527"/></g><g class="highcharts-axis highcharts-yaxis" data-z-index="2" aria-hidden="true"><text x="23.336" data-z-index="7" text-anchor="middle" transform="rotate(-90 23.336 179)" class="highcharts-axis-title" style="color:#666;fill:#666" y="179">TWh</text><path fill="none" class="highcharts-axis-line" data-z-index="7" d="M63 56v246"/></g><g class="highcharts-series-group" data-z-index="3" aria-hidden="false"><g class="highcharts-series highcharts-series-0 highcharts-area-series highcharts-color-0" data-z-index=".1" clip-path="url(#a)" aria-hidden="true" transform="translate(63 56)"><path fill="rgba(244,91,91,0.75)" d="m23.955 50.02 47.909 34.85 47.909-6.15 47.909-24.6 47.909-15.17L263.5 60.27l47.91 1.64 47.908-35.67 47.91-8.61 47.908 40.18 47.91 13.12V205H23.953Z" class="highcharts-area" data-z-index="0"/><path fill="none" d="m24.955 51.02 47.909 34.85 47.909-6.15 47.909-24.6 47.909-15.17L264.5 61.27l47.91 1.64 47.908-35.67 47.91-8.61 47.908 40.18 47.91 13.12" class="highcharts-graph highcharts-shadow" data-z-index="1" stroke="#000" stroke-width="5" stroke-linejoin="round" stroke-linecap="round" stroke-opacity=".05"/><path fill="none" d="m24.955 51.02 47.909 34.85 47.909-6.15 47.909-24.6 47.909-15.17L264.5 61.27l47.91 1.64 47.908-35.67 47.91-8.61 47.908 40.18 47.91 13.12" class="highcharts-graph highcharts-shadow" data-z-index="1" stroke="#000" stroke-width="3" stroke-linejoin="round" stroke-linecap="round" stroke-opacity=".1"/><path fill="none" d="m24.955 51.02 47.909 34.85 47.909-6.15 47.909-24.6 47.909-15.17L264.5 61.27l47.91 1.64 47.908-35.67 47.91-8.61 47.908 40.18 47.91 13.12" class="highcharts-graph highcharts-shadow" data-z-index="1" stroke="#000" stroke-linejoin="round" stroke-linecap="round" stroke-opacity=".15"/><path fill="none" d="m23.955 50.02 47.909 34.85 47.909-6.15 47.909-24.6 47.909-15.17L263.5 60.27l47.91 1.64 47.908-35.67 47.91-8.61 47.908 40.18 47.91 13.12" class="highcharts-graph" data-z-index="1" stroke="#f45b5b" stroke-width="2" stroke-linejoin="round" stroke-linecap="round"/><path fill="none" d="m23.955 50.02 47.909 34.85 47.909-6.15 47.909-24.6 47.909-15.17L263.5 60.27l47.91 1.64 47.908-35.67 47.91-8.61 47.908 40.18 47.91 13.12" data-z-index="2" class="highcharts-tracker-line" stroke-linecap="round" stroke-linejoin="round" stroke="rgba(192,192,192,0.0001)" stroke-width="22"/></g><g class="highcharts-markers highcharts-series-0 highcharts-area-series highcharts-color-0 highcharts-tracker" data-z-index=".1" aria-hidden="false" tabindex="-1" aria-label="Total production, series 1 of 3 with 11 data points." style="outline:0" fill="#f45b5b"><path d="M23 54a4 4 0 1 1 .004 0Z" class="highcharts-point highcharts-color-0" tabindex="-1" aria-label="Q1 2019, 37.8. Total production." style="outline:0" transform="translate(63 56)"/><path d="M71 89a4 4 0 1 1 .004 0Z" class="highcharts-point highcharts-color-0" tabindex="-1" aria-label="Q2 2019, 29.3. Total production." style="outline:0" transform="translate(63 56)"/><path d="M119 83a4 4 0 1 1 .004 0Z" class="highcharts-point highcharts-color-0" tabindex="-1" aria-label="Q3 2019, 30.8. Total production." style="outline:0" transform="translate(63 56)"/><path d="M167 58a4 4 0 1 1 .004 0Z" class="highcharts-point highcharts-color-0" tabindex="-1" aria-label="Q4 2019, 36.8. Total production." style="outline:0" transform="translate(63 56)"/><path d="M215 43a4 4 0 1 1 .004 0Z" class="highcharts-point highcharts-color-0" tabindex="-1" aria-label="Q1 2020, 40.5. Total production." style="outline:0" transform="translate(63 56)"/><path d="M263 64a4 4 0 1 1 .004 0Z" class="highcharts-point highcharts-color-0" tabindex="-1" aria-label="Q2 2020, 35.3. Total production." style="outline:0" transform="translate(63 56)"/><path d="M311 66a4 4 0 1 1 .004 0Z" class="highcharts-point highcharts-color-0" tabindex="-1" aria-label="Q3 2020, 34.9. Total production." style="outline:0" transform="translate(63 56)"/><path d="M359 30a4 4 0 1 1 .004 0Z" class="highcharts-point highcharts-color-0" tabindex="-1" aria-label="Q4 2020, 43.6. Total production." style="outline:0" transform="translate(63 56)"/><path d="M407 22a4 4 0 1 1 .004 0Z" class="highcharts-point highcharts-color-0" tabindex="-1" aria-label="Q1 2021, 45.7. Total production." style="outline:0" transform="translate(63 56)"/><path d="M455 62a4 4 0 1 1 .004 0Z" class="highcharts-point highcharts-color-0" tabindex="-1" aria-label="Q2 2021, 35.9. Total production." style="outline:0" transform="translate(63 56)"/><path d="M503 75a4 4 0 1 1 .004 0Z" class="highcharts-point highcharts-color-0" tabindex="-1" aria-label="Q3 2021, 32.7. Total production." style="outline:0" transform="translate(63 56)"/></g><g class="highcharts-series highcharts-series-1 highcharts-area-series highcharts-color-1" data-z-index=".1" clip-path="url(#a)" aria-hidden="true" transform="translate(63 56)"><path fill="rgba(128,133,233,0.75)" d="m23.955 41.41 47.909 41 47.909 13.12 47.909-46.74 47.909-4.92L263.5 81.18l47.91 11.07 47.908-37.72 47.91-24.6 47.908 46.33 47.91 15.99V205H23.953Z" class="highcharts-area" data-z-index="0"/><path fill="none" d="m24.955 42.41 47.909 41 47.909 13.12 47.909-46.74 47.909-4.92L264.5 82.18l47.91 11.07 47.908-37.72 47.91-24.6 47.908 46.33 47.91 15.99" class="highcharts-graph highcharts-shadow" data-z-index="1" stroke="#000" stroke-width="5" stroke-linejoin="round" stroke-linecap="round" stroke-opacity=".05"/><path fill="none" d="m24.955 42.41 47.909 41 47.909 13.12 47.909-46.74 47.909-4.92L264.5 82.18l47.91 11.07 47.908-37.72 47.91-24.6 47.908 46.33 47.91 15.99" class="highcharts-graph highcharts-shadow" data-z-index="1" stroke="#000" stroke-width="3" stroke-linejoin="round" stroke-linecap="round" stroke-opacity=".1"/><path fill="none" d="m24.955 42.41 47.909 41 47.909 13.12 47.909-46.74 47.909-4.92L264.5 82.18l47.91 11.07 47.908-37.72 47.91-24.6 47.908 46.33 47.91 15.99" class="highcharts-graph highcharts-shadow" data-z-index="1" stroke="#000" stroke-linejoin="round" stroke-linecap="round" stroke-opacity=".15"/><path fill="none" d="m23.955 41.41 47.909 41 47.909 13.12 47.909-46.74 47.909-4.92L263.5 81.18l47.91 11.07 47.908-37.72 47.91-24.6 47.908 46.33 47.91 15.99" class="highcharts-graph" data-z-index="1" stroke="#8085e9" stroke-width="2" stroke-linejoin="round" stroke-linecap="round"/><path fill="none" d="m23.955 41.41 47.909 41 47.909 13.12 47.909-46.74 47.909-4.92L263.5 81.18l47.91 11.07 47.908-37.72 47.91-24.6 47.908 46.33 47.91 15.99" data-z-index="2" class="highcharts-tracker-line" stroke-linecap="round" stroke-linejoin="round" stroke="rgba(192,192,192,0.0001)" stroke-width="22"/></g><g class="highcharts-markers highcharts-series-1 highcharts-area-series highcharts-color-1 highcharts-tracker" data-z-index=".1" aria-hidden="false" tabindex="-1" aria-label="Gross consumption, series 2 of 3 with 11 data points." style="outline:0" fill="#8085e9"><path d="m23 37 4 4-4 4-4-4Z" class="highcharts-point highcharts-color-1" tabindex="-1" aria-label="Q1 2019, 39.9. Gross consumption." style="outline:0" transform="translate(63 56)"/><path d="m71 78 4 4-4 4-4-4Z" class="highcharts-point highcharts-color-1" tabindex="-1" aria-label="Q2 2019, 29.9. Gross consumption." style="outline:0" transform="translate(63 56)"/><path d="m119 92 4 4-4 4-4-4Z" class="highcharts-point highcharts-color-1" tabindex="-1" aria-label="Q3 2019, 26.7. Gross consumption." style="outline:0" transform="translate(63 56)"/><path d="m167 45 4 4-4 4-4-4Z" class="highcharts-point highcharts-color-1" tabindex="-1" aria-label="Q4 2019, 38.1. Gross consumption." style="outline:0" transform="translate(63 56)"/><path d="m215 40 4 4-4 4-4-4Z" class="highcharts-point highcharts-color-1" tabindex="-1" aria-label="Q1 2020, 39.3. Gross consumption." style="outline:0" transform="translate(63 56)"/><path d="m263 77 4 4-4 4-4-4Z" class="highcharts-point highcharts-color-1" tabindex="-1" aria-label="Q2 2020, 30.2. Gross consumption." style="outline:0" transform="translate(63 56)"/><path d="m311 88 4 4-4 4-4-4Z" class="highcharts-point highcharts-color-1" tabindex="-1" aria-label="Q3 2020, 27.5. Gross consumption." style="outline:0" transform="translate(63 56)"/><path d="m359 51 4 4-4 4-4-4Z" class="highcharts-point highcharts-color-1" tabindex="-1" aria-label="Q4 2020, 36.7. Gross consumption." style="outline:0" transform="translate(63 56)"/><path d="m407 26 4 4-4 4-4-4Z" class="highcharts-point highcharts-color-1" tabindex="-1" aria-label="Q1 2021, 42.7. Gross consumption." style="outline:0" transform="translate(63 56)"/><path d="m455 72 4 4-4 4-4-4Z" class="highcharts-point highcharts-color-1" tabindex="-1" aria-label="Q2 2021, 31.4. Gross consumption." style="outline:0" transform="translate(63 56)"/><path d="m503 88 4 4-4 4-4-4Z" class="highcharts-point highcharts-color-1" tabindex="-1" aria-label="Q3 2021, 27.5. Gross consumption." style="outline:0" transform="translate(63 56)"/></g><g class="highcharts-series highcharts-series-2 highcharts-area-series highcharts-color-2" data-z-index=".1" clip-path="url(#a)" aria-hidden="true" transform="translate(63 56)"><path fill="rgba(141,70,84,0.75)" d="m23.955 214.02 47.909-6.56 47.909-19.27 47.909 22.14 47.909-10.25 47.909-15.99 47.91-9.43 47.908 2.05 47.91 16.4 47.908-6.56 47.91-2.87V205H23.953Z" class="highcharts-area" data-z-index="0"/><path fill="none" d="m24.955 215.02 47.909-6.56 47.909-19.27 47.909 22.14 47.909-10.25 47.909-15.99 47.91-9.43 47.908 2.05 47.91 16.4 47.908-6.56 47.91-2.87" class="highcharts-graph highcharts-shadow" data-z-index="1" stroke="#000" stroke-width="5" stroke-linejoin="round" stroke-linecap="round" stroke-opacity=".05"/><path fill="none" d="m24.955 215.02 47.909-6.56 47.909-19.27 47.909 22.14 47.909-10.25 47.909-15.99 47.91-9.43 47.908 2.05 47.91 16.4 47.908-6.56 47.91-2.87" class="highcharts-graph highcharts-shadow" data-z-index="1" stroke="#000" stroke-width="3" stroke-linejoin="round" stroke-linecap="round" stroke-opacity=".1"/><path fill="none" d="m24.955 215.02 47.909-6.56 47.909-19.27 47.909 22.14 47.909-10.25 47.909-15.99 47.91-9.43 47.908 2.05 47.91 16.4 47.908-6.56 47.91-2.87" class="highcharts-graph highcharts-shadow" data-z-index="1" stroke="#000" stroke-linejoin="round" stroke-linecap="round" stroke-opacity=".15"/><path fill="none" d="m23.955 214.02 47.909-6.56 47.909-19.27 47.909 22.14 47.909-10.25 47.909-15.99 47.91-9.43 47.908 2.05 47.91 16.4 47.908-6.56 47.91-2.87" class="highcharts-graph" data-z-index="1" stroke="#8d4654" stroke-width="2" stroke-linejoin="round" stroke-linecap="round"/><path fill="none" d="m23.955 214.02 47.909-6.56 47.909-19.27 47.909 22.14 47.909-10.25 47.909-15.99 47.91-9.43 47.908 2.05 47.91 16.4 47.908-6.56 47.91-2.87" data-z-index="2" class="highcharts-tracker-line" stroke-linecap="round" stroke-linejoin="round" stroke="rgba(192,192,192,0.0001)" stroke-width="22"/></g><g class="highcharts-markers highcharts-series-2 highcharts-area-series highcharts-color-2 highcharts-tracker" data-z-index=".1" aria-hidden="false" tabindex="-1" aria-label="Trade surplus, series 3 of 3 with 11 data points." style="outline:0" fill="#8d4654"><path d="M19 210h8v8h-8Z" class="highcharts-point highcharts-negative highcharts-color-2" tabindex="-1" aria-label="Q1 2019, -2.2. Trade surplus." style="outline:0" transform="translate(63 56)"/><path d="M67 203h8v8h-8Z" class="highcharts-point highcharts-negative highcharts-color-2" tabindex="-1" aria-label="Q2 2019, -0.6. Trade surplus." style="outline:0" transform="translate(63 56)"/><path d="M115 184h8v8h-8Z" class="highcharts-point highcharts-color-2" tabindex="-1" aria-label="Q3 2019, 4.1. Trade surplus." style="outline:0" transform="translate(63 56)"/><path d="M163 206h8v8h-8Z" class="highcharts-point highcharts-negative highcharts-color-2" tabindex="-1" aria-label="Q4 2019, -1.3. Trade surplus." style="outline:0" transform="translate(63 56)"/><path d="M211 196h8v8h-8Z" class="highcharts-point highcharts-color-2" tabindex="-1" aria-label="Q1 2020, 1.2. Trade surplus." style="outline:0" transform="translate(63 56)"/><path d="M259 180h8v8h-8Z" class="highcharts-point highcharts-color-2" tabindex="-1" aria-label="Q2 2020, 5.1. Trade surplus." style="outline:0" transform="translate(63 56)"/><path d="M307 171h8v8h-8Z" class="highcharts-point highcharts-color-2" tabindex="-1" aria-label="Q3 2020, 7.4. Trade surplus." style="outline:0" transform="translate(63 56)"/><path d="M355 173h8v8h-8Z" class="highcharts-point highcharts-color-2" tabindex="-1" aria-label="Q4 2020, 6.9. Trade surplus." style="outline:0" transform="translate(63 56)"/><path d="M403 189h8v8h-8Z" class="highcharts-point highcharts-color-2" tabindex="-1" aria-label="Q1 2021, 2.9. Trade surplus." style="outline:0" transform="translate(63 56)"/><path d="M451 183h8v8h-8Z" class="highcharts-point highcharts-color-2" tabindex="-1" aria-label="Q2 2021, 4.5. Trade surplus." style="outline:0" transform="translate(63 56)"/><path d="M499 180h8v8h-8Z" class="highcharts-point highcharts-color-2" tabindex="-1" aria-label="Q3 2021, 5.2. Trade surplus." style="outline:0" transform="translate(63 56)"/></g></g><text x="300" text-anchor="middle" class="highcharts-title" data-z-index="4" style="color:#000;font-size:16px;font-weight:700;fill:#000" y="22" aria-hidden="true">Production, consumption and trade surplus of electrical power</text><text x="300" text-anchor="middle" class="highcharts-subtitle" data-z-index="4" style="color:#000;fill:#000" y="42" aria-hidden="true">Source: <a target="_blank"><tspan>SSB</tspan></a></text><g class="highcharts-legend highcharts-no-tooltip" data-z-index="7" transform="translate(102 358)" aria-hidden="true"><rect fill="#E0E0E8" class="highcharts-legend-box" rx="0" ry="0" width="396" height="27"/><g data-z-index="1"><g class="highcharts-legend-item highcharts-area-series highcharts-color-0 highcharts-series-0" data-z-index="1" transform="translate(8 3)"><text x="21" data-z-index="2" y="16" style="color:#333;cursor:pointer;font-size:13px;font-weight:700;fill:#333">Total production</text><rect x="1.5" y="4" width="13" height="13" fill="#f45b5b" rx="6.5" ry="6.5" class="highcharts-point" data-z-index="3"/></g><g class="highcharts-legend-item highcharts-area-series highcharts-color-1 highcharts-series-1" data-z-index="1" transform="translate(141.836 3)"><text x="21" y="16" data-z-index="2" style="color:#333;cursor:pointer;font-size:13px;font-weight:700;fill:#333">Gross consumption</text><rect x="1.5" y="4" width="13" height="13" fill="#8085e9" rx="6.5" ry="6.5" class="highcharts-point" data-z-index="3"/></g><g class="highcharts-legend-item highcharts-area-series highcharts-color-2 highcharts-series-2" data-z-index="1" transform="translate(289.875 3)"><text x="21" y="16" data-z-index="2" style="color:#333;cursor:pointer;font-size:13px;font-weight:700;fill:#333">Trade surplus</text><rect x="1.5" y="4" width="13" height="13" fill="#8d4654" rx="6.5" ry="6.5" class="highcharts-point" data-z-index="3"/></g></g></g><g class="highcharts-axis-labels highcharts-xaxis-labels" data-z-index="7" aria-hidden="true" text-anchor="end"><text x="89.547" transform="rotate(-45 89.547 318)" style="color:#6e6e70;cursor:default;font-size:11px;fill:#6e6e70" y="318">Q1 2019</text><text x="137.456" transform="rotate(-45 137.456 318)" style="color:#6e6e70;cursor:default;font-size:11px;fill:#6e6e70" y="318">Q2 2019</text><text x="185.365" transform="rotate(-45 185.365 318)" style="color:#6e6e70;cursor:default;font-size:11px;fill:#6e6e70" y="318">Q3 2019</text><text x="233.275" transform="rotate(-45 233.275 318)" style="color:#6e6e70;cursor:default;font-size:11px;fill:#6e6e70" y="318">Q4 2019</text><text x="281.184" transform="rotate(-45 281.184 318)" style="color:#6e6e70;cursor:default;font-size:11px;fill:#6e6e70" y="318">Q1 2020</text><text x="329.093" transform="rotate(-45 329.093 318)" style="color:#6e6e70;cursor:default;font-size:11px;fill:#6e6e70" y="318">Q2 2020</text><text x="377.002" transform="rotate(-45 377.002 318)" style="color:#6e6e70;cursor:default;font-size:11px;fill:#6e6e70" y="318">Q3 2020</text><text x="424.911" transform="rotate(-45 424.91 318)" style="color:#6e6e70;cursor:default;font-size:11px;fill:#6e6e70" y="318">Q4 2020</text><text x="472.82" transform="rotate(-45 472.82 318)" style="color:#6e6e70;cursor:default;font-size:11px;fill:#6e6e70" y="318">Q1 2021</text><text x="520.729" transform="rotate(-45 520.73 318)" style="color:#6e6e70;cursor:default;font-size:11px;fill:#6e6e70" y="318">Q2 2021</text><text x="568.638" transform="rotate(-45 568.638 318)" style="color:#6e6e70;cursor:default;font-size:11px;fill:#6e6e70" y="318">Q3 2021</text></g><g class="highcharts-axis-labels highcharts-yaxis-labels" data-z-index="7" aria-hidden="true" text-anchor="end"><text x="48" style="color:#6e6e70;cursor:default;font-size:11px;fill:#6e6e70" y="307">-10</text><text x="48" style="color:#6e6e70;cursor:default;font-size:11px;fill:#6e6e70" y="266">0</text><text x="48" style="color:#6e6e70;cursor:default;font-size:11px;fill:#6e6e70" y="225">10</text><text x="48" style="color:#6e6e70;cursor:default;font-size:11px;fill:#6e6e70" y="184">20</text><text x="48" style="color:#6e6e70;cursor:default;font-size:11px;fill:#6e6e70" y="143">30</text><text x="48" style="color:#6e6e70;cursor:default;font-size:11px;fill:#6e6e70" y="102">40</text><text x="48" style="color:#6e6e70;cursor:default;font-size:11px;fill:#6e6e70" y="61">50</text></g></svg>