<svg class="highcharts-root" style="font-family:Signika,serif;font-size:12px" xmlns="http://www.w3.org/2000/svg" width="600" height="400" aria-label="Interactive chart" aria-hidden="false"><defs aria-hidden="true"><clipPath id="a"><path fill="none" d="M0 0h471v223H0z"/></clipPath></defs><rect fill="none" class="highcharts-background" width="600" height="400" rx="0" ry="0" aria-hidden="true"/><path fill="none" class="highcharts-plot-background" aria-hidden="true" d="M62 85h471v223H62z"/><g class="highcharts-grid highcharts-xaxis-grid" data-z-index="1" aria-hidden="true" fill="none"><path data-z-index="1" class="highcharts-grid-line" d="M66.5 85v223m77-223v223m78-223v223m77-223v223m78-223v223m77-223v223m77-223v223"/></g><g class="highcharts-grid highcharts-xaxis-grid" data-z-index="1" aria-hidden="true" fill="none"><path data-z-index="1" class="highcharts-grid-line" d="M110.5 85v223m176-223v223m177-223v223"/></g><g class="highcharts-grid highcharts-yaxis-grid" data-z-index="1" aria-hidden="true" fill="none" stroke="#e6e6e6"><path data-z-index="1" class="highcharts-grid-line" d="M62 308.5h471m-471-56h471m-471-55h471m-471-56h471m-471-57h471"/></g><g class="highcharts-grid highcharts-yaxis-grid" data-z-index="1" aria-hidden="true" fill="none" stroke="#e6e6e6"><path data-z-index="1" class="highcharts-grid-line" d="M62 308.5h471m-471-56h471m-471-55h471m-471-56h471m-471-57h471"/></g><path fill="none" class="highcharts-plot-border" data-z-index="1" aria-hidden="true" d="M62 85h471v223H62z"/><g class="highcharts-axis highcharts-xaxis" data-z-index="2" aria-hidden="true"><path fill="none" class="highcharts-tick" stroke="#ccd6eb" d="M66.5 308v10m77-10v10m78-10v10m77-10v10m78-10v10m77-10v10m77-10v10"/><text x="297.5" data-z-index="7" text-anchor="middle" class="highcharts-axis-title" style="color:#666;fill:#666" y="345.5">Data</text><path fill="none" class="highcharts-axis-line" stroke="#ccd6eb" data-z-index="7" d="M62 308.5h471"/></g><g class="highcharts-axis highcharts-xaxis" data-z-index="2" aria-hidden="true"><path fill="none" class="highcharts-tick" stroke="#ccd6eb" d="M110.5 85V75m176 10V75m177 10V75"/><text x="297.5" data-z-index="7" text-anchor="middle" class="highcharts-axis-title" style="color:#666;fill:#666" y="56.5">Bell curve</text><path fill="none" class="highcharts-axis-line" stroke="#ccd6eb" data-z-index="7" d="M62 84.5h471"/></g><g class="highcharts-axis highcharts-yaxis" data-z-index="2" aria-hidden="true"><text x="23.25" data-z-index="7" text-anchor="middle" transform="rotate(-90 23.25 196.5)" class="highcharts-axis-title" style="color:#666;fill:#666" y="196.5">Data</text><path fill="none" class="highcharts-axis-line" data-z-index="7" d="M62 85v223"/></g><g class="highcharts-axis highcharts-yaxis" data-z-index="2" aria-hidden="true"><text x="577.25" data-z-index="7" text-anchor="middle" transform="rotate(90 577.25 196.5)" class="highcharts-axis-title" style="color:#666;fill:#666" y="196.5">Bell curve</text><path fill="none" class="highcharts-axis-line" data-z-index="7" d="M533 85v223"/></g><g class="highcharts-series-group" data-z-index="3" aria-hidden="false"><g class="highcharts-series highcharts-series-0 highcharts-bellcurve-series highcharts-color-0" data-z-index="-1" clip-path="url(#a)" aria-hidden="true" transform="translate(62 85)"><path fill="rgba(244,91,91,0.75)" d="M4.618 220.733s15.392-1.334 25.653-3.563c10.262-2.23 15.392-3.227 25.654-7.586 10.261-4.358 15.392-6.711 25.653-14.207 10.262-7.496 15.393-12.014 25.654-23.272s15.392-18.436 25.654-33.017c10.261-14.58 15.392-23.981 25.653-39.886 10.262-15.905 15.392-25.783 25.654-39.64 10.261-13.856 15.392-21.506 25.653-29.64 10.262-8.135 15.393-11.03 25.654-11.03s15.392 2.895 25.654 11.03c10.261 8.134 15.392 15.784 25.653 29.64 10.262 13.857 15.392 23.735 25.654 39.64 10.261 15.905 15.392 25.306 25.653 39.886 10.262 14.581 15.393 21.76 25.654 33.017 10.261 11.258 15.392 15.776 25.654 23.272 10.261 7.496 15.392 9.849 25.653 14.207 10.262 4.359 15.392 5.356 25.654 7.586 10.261 2.23 25.653 3.563 25.653 3.563V223H4.618Z" class="highcharts-area" data-z-index="0"/><path fill="none" d="M5.618 221.733s15.392-1.334 25.653-3.563c10.262-2.23 15.392-3.227 25.654-7.586 10.261-4.358 15.392-6.711 25.653-14.207 10.262-7.496 15.393-12.014 25.654-23.272s15.392-18.436 25.654-33.017c10.261-14.58 15.392-23.981 25.653-39.886 10.262-15.905 15.392-25.783 25.654-39.64 10.261-13.856 15.392-21.506 25.653-29.64 10.262-8.135 15.393-11.03 25.654-11.03s15.392 2.895 25.654 11.03c10.261 8.134 15.392 15.784 25.653 29.64 10.262 13.857 15.392 23.735 25.654 39.64 10.261 15.905 15.392 25.306 25.653 39.886 10.262 14.581 15.393 21.76 25.654 33.017 10.261 11.258 15.392 15.776 25.654 23.272 10.261 7.496 15.392 9.849 25.653 14.207 10.262 4.359 15.392 5.356 25.654 7.586 10.261 2.23 25.653 3.563 25.653 3.563" class="highcharts-graph highcharts-shadow" data-z-index="1" stroke="#000" stroke-width="5" stroke-linejoin="round" stroke-linecap="round" stroke-opacity=".05"/><path fill="none" d="M5.618 221.733s15.392-1.334 25.653-3.563c10.262-2.23 15.392-3.227 25.654-7.586 10.261-4.358 15.392-6.711 25.653-14.207 10.262-7.496 15.393-12.014 25.654-23.272s15.392-18.436 25.654-33.017c10.261-14.58 15.392-23.981 25.653-39.886 10.262-15.905 15.392-25.783 25.654-39.64 10.261-13.856 15.392-21.506 25.653-29.64 10.262-8.135 15.393-11.03 25.654-11.03s15.392 2.895 25.654 11.03c10.261 8.134 15.392 15.784 25.653 29.64 10.262 13.857 15.392 23.735 25.654 39.64 10.261 15.905 15.392 25.306 25.653 39.886 10.262 14.581 15.393 21.76 25.654 33.017 10.261 11.258 15.392 15.776 25.654 23.272 10.261 7.496 15.392 9.849 25.653 14.207 10.262 4.359 15.392 5.356 25.654 7.586 10.261 2.23 25.653 3.563 25.653 3.563" class="highcharts-graph highcharts-shadow" data-z-index="1" stroke="#000" stroke-width="3" stroke-linejoin="round" stroke-linecap="round" stroke-opacity=".1"/><path fill="none" d="M5.618 221.733s15.392-1.334 25.653-3.563c10.262-2.23 15.392-3.227 25.654-7.586 10.261-4.358 15.392-6.711 25.653-14.207 10.262-7.496 15.393-12.014 25.654-23.272s15.392-18.436 25.654-33.017c10.261-14.58 15.392-23.981 25.653-39.886 10.262-15.905 15.392-25.783 25.654-39.64 10.261-13.856 15.392-21.506 25.653-29.64 10.262-8.135 15.393-11.03 25.654-11.03s15.392 2.895 25.654 11.03c10.261 8.134 15.392 15.784 25.653 29.64 10.262 13.857 15.392 23.735 25.654 39.64 10.261 15.905 15.392 25.306 25.653 39.886 10.262 14.581 15.393 21.76 25.654 33.017 10.261 11.258 15.392 15.776 25.654 23.272 10.261 7.496 15.392 9.849 25.653 14.207 10.262 4.359 15.392 5.356 25.654 7.586 10.261 2.23 25.653 3.563 25.653 3.563" class="highcharts-graph highcharts-shadow" data-z-index="1" stroke="#000" stroke-linejoin="round" stroke-linecap="round" stroke-opacity=".15"/><path fill="none" d="M4.618 220.733s15.392-1.334 25.653-3.563c10.262-2.23 15.392-3.227 25.654-7.586 10.261-4.358 15.392-6.711 25.653-14.207 10.262-7.496 15.393-12.014 25.654-23.272s15.392-18.436 25.654-33.017c10.261-14.58 15.392-23.981 25.653-39.886 10.262-15.905 15.392-25.783 25.654-39.64 10.261-13.856 15.392-21.506 25.653-29.64 10.262-8.135 15.393-11.03 25.654-11.03s15.392 2.895 25.654 11.03c10.261 8.134 15.392 15.784 25.653 29.64 10.262 13.857 15.392 23.735 25.654 39.64 10.261 15.905 15.392 25.306 25.653 39.886 10.262 14.581 15.393 21.76 25.654 33.017 10.261 11.258 15.392 15.776 25.654 23.272 10.261 7.496 15.392 9.849 25.653 14.207 10.262 4.359 15.392 5.356 25.654 7.586 10.261 2.23 25.653 3.563 25.653 3.563" class="highcharts-graph" data-z-index="1" stroke="#f45b5b" stroke-width="2" stroke-linejoin="round" stroke-linecap="round"/><path fill="none" d="M4.618 220.733s15.392-1.334 25.653-3.563c10.262-2.23 15.392-3.227 25.654-7.586 10.261-4.358 15.392-6.711 25.653-14.207 10.262-7.496 15.393-12.014 25.654-23.272s15.392-18.436 25.654-33.017c10.261-14.58 15.392-23.981 25.653-39.886 10.262-15.905 15.392-25.783 25.654-39.64 10.261-13.856 15.392-21.506 25.653-29.64 10.262-8.135 15.393-11.03 25.654-11.03s15.392 2.895 25.654 11.03c10.261 8.134 15.392 15.784 25.653 29.64 10.262 13.857 15.392 23.735 25.654 39.64 10.261 15.905 15.392 25.306 25.653 39.886 10.262 14.581 15.393 21.76 25.654 33.017 10.261 11.258 15.392 15.776 25.654 23.272 10.261 7.496 15.392 9.849 25.653 14.207 10.262 4.359 15.392 5.356 25.654 7.586 10.261 2.23 25.653 3.563 25.653 3.563" data-z-index="2" class="highcharts-tracker-line" stroke-linecap="round" stroke-linejoin="round" stroke="rgba(192,192,192,0.0001)" stroke-width="22"/></g><g class="highcharts-markers highcharts-series-1 highcharts-scatter-series highcharts-color-1 highcharts-tracker" data-z-index=".1" aria-hidden="false" tabindex="-1" aria-label="Data, series 2 of 2, scatter plot with 150 points. Y axis, Data. X axis, Data." style="outline:0" fill="#8085e9"><path d="M4.5 89 6 90.5 4.5 92 3 90.5Zm3 35 1.5 1.5-1.5 1.5-1.5-1.5Zm3-14 1.5 1.5-1.5 1.5-1.5-1.5Zm3 7 1.5 1.5-1.5 1.5-1.5-1.5Zm3-35 1.5 1.5-1.5 1.5-1.5-1.5Zm3-21 1.5 1.5-1.5 1.5-1.5-1.5Zm3 35 1.5 1.5-1.5 1.5-1.5-1.5Zm3 0 1.5 1.5-1.5 1.5-1.5-1.5Zm3 35 1.5 1.5-1.5 1.5-1.5-1.5Zm4-14 1.5 1.5-1.5 1.5-1.5-1.5Zm3-42 1.5 1.5-1.5 1.5-1.5-1.5Zm3 21 1.5 1.5-1.5 1.5-1.5-1.5Zm3 28 1.5 1.5-1.5 1.5-1.5-1.5Zm3 0 1.5 1.5-1.5 1.5-1.5-1.5Zm3-70 1.5 1.5-1.5 1.5-1.5-1.5Zm3-28 1.5 1.5-1.5 1.5-1.5-1.5Zm3 35 1.5 1.5-1.5 1.5-1.5-1.5Zm3 28 1.5 1.5-1.5 1.5-1.5-1.5Zm3-21 1.5 1.5-1.5 1.5-1.5-1.5Zm4 0 1.5 1.5-1.5 1.5-1.5-1.5Zm3 28 1.5 1.5-1.5 1.5-1.5-1.5Zm3-21 1.5 1.5-1.5 1.5-1.5-1.5Zm3 7 1.5 1.5-1.5 1.5-1.5-1.5Zm3 21 1.5 1.5-1.5 1.5-1.5-1.5Zm3-7 1.5 1.5-1.5 1.5-1.5-1.5Zm3 28 1.5 1.5-1.5 1.5-1.5-1.5Zm3-28 1.5 1.5-1.5 1.5-1.5-1.5Zm3-7 1.5 1.5-1.5 1.5-1.5-1.5Zm3 7 1.5 1.5-1.5 1.5-1.5-1.5Zm3 14 1.5 1.5-1.5 1.5-1.5-1.5Zm4 7 1.5 1.5-1.5 1.5-1.5-1.5Zm3-21 1.5 1.5-1.5 1.5-1.5-1.5Zm3-49 1.5 1.5-1.5 1.5-1.5-1.5Zm3-7 1.5 1.5-1.5 1.5-1.5-1.5Zm3 77 1.5 1.5-1.5 1.5-1.5-1.5Zm3-7 1.5 1.5-1.5 1.5-1.5-1.5Zm3-21 1.5 1.5-1.5 1.5-1.5-1.5Zm3-7 1.5 1.5-1.5 1.5-1.5-1.5Zm3 42 1.5 1.5-1.5 1.5-1.5-1.5Zm3-28 1.5 1.5-1.5 1.5-1.5-1.5Zm4-7 1.5 1.5-1.5 1.5-1.5-1.5Zm3 84 1.5 1.5-1.5 1.5-1.5-1.5Zm3-63 1.5 1.5-1.5 1.5-1.5-1.5Zm3-21 1.5 1.5-1.5 1.5-1.5-1.5Zm3-21 1.5 1.5-1.5 1.5-1.5-1.5Zm3 56 1.5 1.5-1.5 1.5-1.5-1.5Zm3-56 1.5 1.5-1.5 1.5-1.5-1.5Zm3 42 1.5 1.5-1.5 1.5-1.5-1.5Zm3-35 1.5 1.5-1.5 1.5-1.5-1.5Zm3 28 1.5 1.5-1.5 1.5-1.5-1.5Zm4 7 1.5 1.5-1.5 1.5-1.5-1.5Zm3 0 1.5 1.5-1.5 1.5-1.5-1.5Zm3 7 1.5 1.5-1.5 1.5-1.5-1.5Zm3 56 1.5 1.5-1.5 1.5-1.5-1.5Zm3-35 1.5 1.5-1.5 1.5-1.5-1.5Zm3 0 1.5 1.5-1.5 1.5-1.5-1.5Zm3-35 1.5 1.5-1.5 1.5-1.5-1.5Zm3 63 1.5 1.5-1.5 1.5-1.5-1.5Zm3-35 1.5 1.5-1.5 1.5-1.5-1.5Zm3 14 1.5 1.5-1.5 1.5-1.5-1.5Zm4 49 1.5 1.5-1.5 1.5-1.5-1.5Zm3-70 1.5 1.5-1.5 1.5-1.5-1.5Zm3 56 1.5 1.5-1.5 1.5-1.5-1.5Zm3-49 1.5 1.5-1.5 1.5-1.5-1.5Zm3 0 1.5 1.5-1.5 1.5-1.5-1.5Zm3-14 1.5 1.5-1.5 1.5-1.5-1.5Zm3 7 1.5 1.5-1.5 1.5-1.5-1.5Zm3 21 1.5 1.5-1.5 1.5-1.5-1.5Zm3 35 1.5 1.5-1.5 1.5-1.5-1.5Zm3-21 1.5 1.5-1.5 1.5-1.5-1.5Zm4-49 1.5 1.5-1.5 1.5-1.5-1.5Zm3 28 1.5 1.5-1.5 1.5-1.5-1.5Zm3 21 1.5 1.5-1.5 1.5-1.5-1.5Zm3-21 1.5 1.5-1.5 1.5-1.5-1.5Zm3-7 1.5 1.5-1.5 1.5-1.5-1.5Zm3-7 1.5 1.5-1.5 1.5-1.5-1.5Zm3 14 1.5 1.5-1.5 1.5-1.5-1.5Zm3-14 1.5 1.5-1.5 1.5-1.5-1.5Zm3 7 1.5 1.5-1.5 1.5-1.5-1.5Zm3 21 1.5 1.5-1.5 1.5-1.5-1.5Zm4 14 1.5 1.5-1.5 1.5-1.5-1.5Zm3 0 1.5 1.5-1.5 1.5-1.5-1.5Zm3-21 1.5 1.5-1.5 1.5-1.5-1.5Zm3 0 1.5 1.5-1.5 1.5-1.5-1.5Zm3-21 1.5 1.5-1.5 1.5-1.5-1.5Zm3-28 1.5 1.5-1.5 1.5-1.5-1.5Zm3 21 1.5 1.5-1.5 1.5-1.5-1.5Zm3 56 1.5 1.5-1.5 1.5-1.5-1.5Zm3-49 1.5 1.5-1.5 1.5-1.5-1.5Zm3 35 1.5 1.5-1.5 1.5-1.5-1.5Zm4-7 1.5 1.5-1.5 1.5-1.5-1.5Zm3-28 1.5 1.5-1.5 1.5-1.5-1.5Zm3 28 1.5 1.5-1.5 1.5-1.5-1.5Zm3 21 1.5 1.5-1.5 1.5-1.5-1.5Zm3-28 1.5 1.5-1.5 1.5-1.5-1.5Zm3-21 1.5 1.5-1.5 1.5-1.5-1.5Zm3 7 1.5 1.5-1.5 1.5-1.5-1.5Zm3 0 1.5 1.5-1.5 1.5-1.5-1.5Zm3 28 1.5 1.5-1.5 1.5-1.5-1.5Zm3-21 1.5 1.5-1.5 1.5-1.5-1.5Zm4-35 1.5 1.5-1.5 1.5-1.5-1.5Zm3 42 1.5 1.5-1.5 1.5-1.5-1.5Zm3-21 1.5 1.5-1.5 1.5-1.5-1.5Zm3 7 1.5 1.5-1.5 1.5-1.5-1.5Zm3-7 1.5 1.5-1.5 1.5-1.5-1.5Zm3 0 1.5 1.5-1.5 1.5-1.5-1.5Zm3 35 1.5 1.5-1.5 1.5-1.5-1.5Zm3-28 1.5 1.5-1.5 1.5-1.5-1.5Zm3 28 1.5 1.5-1.5 1.5-1.5-1.5Zm3-77 1.5 1.5-1.5 1.5-1.5-1.5Zm4 28 1.5 1.5-1.5 1.5-1.5-1.5Zm3 35 1.5 1.5-1.5 1.5-1.5-1.5Zm3-21 1.5 1.5-1.5 1.5-1.5-1.5Zm3 35 1.5 1.5-1.5 1.5-1.5-1.5Zm3-21 1.5 1.5-1.5 1.5-1.5-1.5Zm3-28 1.5 1.5-1.5 1.5-1.5-1.5Zm3 14 1.5 1.5-1.5 1.5-1.5-1.5Zm3-56 1.5 1.5-1.5 1.5-1.5-1.5Zm3 84 1.5 1.5-1.5 1.5-1.5-1.5Zm3 28 1.5 1.5-1.5 1.5-1.5-1.5Zm4-70 1.5 1.5-1.5 1.5-1.5-1.5Zm3 28 1.5 1.5-1.5 1.5-1.5-1.5Zm3 0 1.5 1.5-1.5 1.5-1.5-1.5Zm3 7 1.5 1.5-1.5 1.5-1.5-1.5Zm3-42 1.5 1.5-1.5 1.5-1.5-1.5Zm3 7 1.5 1.5-1.5 1.5-1.5-1.5Zm3 28 1.5 1.5-1.5 1.5-1.5-1.5Zm3-14 1.5 1.5-1.5 1.5-1.5-1.5Zm3 14 1.5 1.5-1.5 1.5-1.5-1.5Zm3-14 1.5 1.5-1.5 1.5-1.5-1.5Zm3 14 1.5 1.5-1.5 1.5-1.5-1.5Zm4-70 1.5 1.5-1.5 1.5-1.5-1.5Zm3 70 1.5 1.5-1.5 1.5-1.5-1.5Zm3 0 1.5 1.5-1.5 1.5-1.5-1.5Zm3 14 1.5 1.5-1.5 1.5-1.5-1.5Zm3-28 1.5 1.5-1.5 1.5-1.5-1.5Zm3-28 1.5 1.5-1.5 1.5-1.5-1.5Zm3 21 1.5 1.5-1.5 1.5-1.5-1.5Zm3 7 1.5 1.5-1.5 1.5-1.5-1.5Zm3-7 1.5 1.5-1.5 1.5-1.5-1.5Zm3 0 1.5 1.5-1.5 1.5-1.5-1.5Zm4 0 1.5 1.5-1.5 1.5-1.5-1.5Zm3 28 1.5 1.5-1.5 1.5-1.5-1.5Zm3-35 1.5 1.5-1.5 1.5-1.5-1.5Zm3-7 1.5 1.5-1.5 1.5-1.5-1.5Zm3 21 1.5 1.5-1.5 1.5-1.5-1.5Zm3 35 1.5 1.5-1.5 1.5-1.5-1.5Zm3-35 1.5 1.5-1.5 1.5-1.5-1.5Zm3-28 1.5 1.5-1.5 1.5-1.5-1.5Zm3 28 1.5 1.5-1.5 1.5-1.5-1.5Z" class="highcharts-point highcharts-color-1" tabindex="-1" aria-hidden="true" style="outline:0" transform="translate(62 85)"/></g></g><text x="300" text-anchor="middle" class="highcharts-title" data-z-index="4" style="color:#000;font-size:16px;font-weight:700;fill:#000" y="22" aria-hidden="true">Bell curve</text><g class="highcharts-legend highcharts-no-tooltip" data-z-index="7" transform="translate(220 358)" aria-hidden="true"><rect fill="#E0E0E8" class="highcharts-legend-box" rx="0" ry="0" width="160" height="27"/><g data-z-index="1"><g class="highcharts-legend-item highcharts-bellcurve-series highcharts-color-0 highcharts-series-0" data-z-index="1" transform="translate(8 3)"><text x="21" data-z-index="2" y="16" style="color:#333;cursor:pointer;font-size:13px;font-weight:700;fill:#333">Bell curve</text><rect x="1.5" y="4" width="13" height="13" fill="#f45b5b" rx="6.5" ry="6.5" class="highcharts-point" data-z-index="3"/></g><g class="highcharts-legend-item highcharts-scatter-series highcharts-color-1 highcharts-series-1" data-z-index="1"><path fill="none" d="M104.96 15h16" class="highcharts-graph"/><path fill="#8085e9" d="m113.46 14 1.5 1.5-1.5 1.5-1.5-1.5Z" class="highcharts-point"/><text x="21" y="16" data-z-index="2" style="color:#333;cursor:pointer;font-size:13px;font-weight:700;fill:#333" transform="translate(104.96 3)">Data</text></g></g></g><g class="highcharts-axis-labels highcharts-xaxis-labels" data-z-index="7" aria-hidden="true" text-anchor="middle"><text x="66.618" style="color:#6e6e70;cursor:default;font-size:11px;fill:#6e6e70" y="327">0</text><text x="144.095" style="color:#6e6e70;cursor:default;font-size:11px;fill:#6e6e70" y="327">25</text><text x="221.572" style="color:#6e6e70;cursor:default;font-size:11px;fill:#6e6e70" y="327">50</text><text x="299.05" style="color:#6e6e70;cursor:default;font-size:11px;fill:#6e6e70" y="327">75</text><text x="376.527" style="color:#6e6e70;cursor:default;font-size:11px;fill:#6e6e70" y="327">100</text><text x="454.004" style="color:#6e6e70;cursor:default;font-size:11px;fill:#6e6e70" y="327">125</text><text x="531.481" style="color:#6e6e70;cursor:default;font-size:11px;fill:#6e6e70" y="327">150</text></g><g class="highcharts-axis-labels highcharts-xaxis-labels" data-z-index="7" aria-hidden="true" text-anchor="middle"><text x="110.807" style="color:#6e6e70;cursor:default;font-size:11px;fill:#6e6e70" y="73">2</text><text x="287.377" style="color:#6e6e70;cursor:default;font-size:11px;fill:#6e6e70" y="73">3</text><text x="463.946" style="color:#6e6e70;cursor:default;font-size:11px;fill:#6e6e70" y="73">4</text></g><g class="highcharts-axis-labels highcharts-yaxis-labels" data-z-index="7" aria-hidden="true" text-anchor="end"><text x="47" style="color:#6e6e70;cursor:default;font-size:11px;fill:#6e6e70" y="313">1.6</text><text x="47" style="color:#6e6e70;cursor:default;font-size:11px;fill:#6e6e70" y="257">2.4</text><text x="47" style="color:#6e6e70;cursor:default;font-size:11px;fill:#6e6e70" y="201">3.2</text><text x="47" style="color:#6e6e70;cursor:default;font-size:11px;fill:#6e6e70" y="146">4</text><text x="47" style="color:#6e6e70;cursor:default;font-size:11px;fill:#6e6e70" y="90">4.8</text></g><g class="highcharts-axis-labels highcharts-yaxis-labels" data-z-index="7" aria-hidden="true"><text x="548" style="color:#6e6e70;cursor:default;font-size:11px;fill:#6e6e70" y="313">0</text><text x="548" style="color:#6e6e70;cursor:default;font-size:11px;fill:#6e6e70" y="257">0.25</text><text x="548" style="color:#6e6e70;cursor:default;font-size:11px;fill:#6e6e70" y="201">0.5</text><text x="548" style="color:#6e6e70;cursor:default;font-size:11px;fill:#6e6e70" y="146">0.75</text><text x="548" style="color:#6e6e70;cursor:default;font-size:11px;fill:#6e6e70" y="90">1</text></g></svg>