<svg class="highcharts-root" style="font-family:Signika,serif;font-size:12px" xmlns="http://www.w3.org/2000/svg" width="600" height="400" aria-label="Interactive chart" aria-hidden="false"><defs aria-hidden="true"><clipPath id="a"><path fill="none" d="M0 0h520v303H0z"/></clipPath></defs><rect fill="none" class="highcharts-background" width="600" height="400" rx="0" ry="0" aria-hidden="true"/><path fill="none" class="highcharts-plot-background" aria-hidden="true" d="M70 43h520v303H70z"/><g class="highcharts-plot-lines-0" data-z-index="0" aria-hidden="true"><path fill="none" class="highcharts-plot-line" stroke="red" d="M70 178.5h520"/></g><text x="340" text-anchor="middle" class="highcharts-plot-line-label" data-z-index="0" y="175" style="color:gray;fill:gray" aria-hidden="true">Theoretical mean: 932</text><g class="highcharts-grid highcharts-xaxis-grid" data-z-index="1" aria-hidden="true" fill="none"><path data-z-index="1" class="highcharts-grid-line" d="M173.5 43v303m104-303v303m104-303v303m104-303v303m104-303v303M69.5 43v303"/></g><g class="highcharts-grid highcharts-yaxis-grid" data-z-index="1" aria-hidden="true" fill="none" stroke="#e6e6e6"><path data-z-index="1" class="highcharts-grid-line" d="M70 346.5h520m-520-50h520m-520-51h520m-520-50h520m-520-51h520m-520-50h520m-520-52h520"/></g><path fill="none" class="highcharts-plot-border" data-z-index="1" aria-hidden="true" d="M70 43h520v303H70z"/><g class="highcharts-axis highcharts-xaxis" data-z-index="2" aria-hidden="true"><text x="330" data-z-index="7" text-anchor="middle" class="highcharts-axis-title" style="color:#666;fill:#666" y="383.5">Experiment No.</text><path fill="none" class="highcharts-axis-line" stroke="#ccd6eb" data-z-index="7" d="M70 346.5h520"/></g><g class="highcharts-axis highcharts-yaxis" data-z-index="2" aria-hidden="true"><text x="23" data-z-index="7" text-anchor="middle" transform="rotate(-90 23 194.5)" class="highcharts-axis-title" style="color:#666;fill:#666" y="194.5">Observations</text><path fill="none" class="highcharts-axis-line" data-z-index="7" d="M70 43v303"/></g><g class="highcharts-series-group" data-z-index="3" aria-hidden="false" stroke="#f45b5b"><g class="highcharts-series highcharts-series-0 highcharts-boxplot-series highcharts-color-0 highcharts-tracker" data-z-index=".1" clip-path="url(#a)" aria-hidden="false" tabindex="-1" aria-label="Observations, series 1 of 2. Boxplot with 5 boxes." style="outline:0" transform="translate(70 43)"><g class="highcharts-point" tabindex="-1" aria-label="1, low: 760, q1: 801, median: 848, q3: 895, high: 965. Observations." style="outline:0"><path fill="none" class="highcharts-boxplot-stem" d="M51.5 154v-36m0 83v21"/><path fill="none" class="highcharts-boxplot-whisker" stroke-width="2" d="M39 118h25M39 222h25"/><path fill="#fff" class="highcharts-boxplot-box" d="M26.5 154.5v47h50v-47h-50Z"/><path fill="none" class="highcharts-boxplot-median" stroke-width="2" d="M26.5 178h50"/></g><g class="highcharts-point" tabindex="-1" aria-label="2, low: 733, q1: 853, median: 939, q3: 980, high: 1,080. Observations." style="outline:0"><path fill="none" class="highcharts-boxplot-stem" d="M155.5 111V60m0 115v60"/><path fill="none" class="highcharts-boxplot-whisker" stroke-width="2" d="M143 60h25m-25 175h25"/><path fill="#fff" class="highcharts-boxplot-box" d="M130.5 111.5v64h50v-64h-50Z"/><path fill="none" class="highcharts-boxplot-median" stroke-width="2" d="M130.5 132h50"/></g><g class="highcharts-point" tabindex="-1" aria-label="3, low: 714, q1: 762, median: 817, q3: 870, high: 918. Observations." style="outline:0"><path fill="none" class="highcharts-boxplot-stem" d="M259.5 166v-24m0 79v24"/><path fill="none" class="highcharts-boxplot-whisker" stroke-width="2" d="M247 142h25m-25 103h25"/><path fill="#fff" class="highcharts-boxplot-box" d="M234.5 166.5v55h50v-55h-50Z"/><path fill="none" class="highcharts-boxplot-median" stroke-width="2" d="M234.5 193h50"/></g><g class="highcharts-point" tabindex="-1" aria-label="4, low: 724, q1: 802, median: 806, q3: 871, high: 950. Observations." style="outline:0"><path fill="none" class="highcharts-boxplot-stem" d="M363.5 166v-40m0 74v40"/><path fill="none" class="highcharts-boxplot-whisker" stroke-width="2" d="M351 126h25m-25 114h25"/><path fill="#fff" class="highcharts-boxplot-box" d="M338.5 166.5v34h50v-34h-50Z"/><path fill="none" class="highcharts-boxplot-median" stroke-width="2" d="M338.5 199h50"/></g><g class="highcharts-point" tabindex="-1" aria-label="5, low: 834, q1: 836, median: 864, q3: 882, high: 910. Observations." style="outline:0"><path fill="none" class="highcharts-boxplot-stem" d="M467.5 160v-14m0 37v1"/><path fill="none" class="highcharts-boxplot-whisker" stroke-width="2" d="M455 146h25m-25 38h25"/><path fill="#fff" class="highcharts-boxplot-box" d="M442.5 160.5v23h50v-23h-50Z"/><path fill="none" class="highcharts-boxplot-median" stroke-width="2" d="M442.5 170h50"/></g></g><g class="highcharts-markers highcharts-series-1 highcharts-scatter-series highcharts-tracker" data-z-index=".1" aria-hidden="false" tabindex="-1" aria-label="Outliers, series 2 of 2, scatter plot with 4 points." style="outline:0" fill="#fff"><path d="M52 285a4 4 0 1 1 .004 0Z" class="highcharts-point" tabindex="-1" aria-label="1, 644. Outliers." style="outline:0" transform="translate(70 43)"/><path d="M468 247a4 4 0 1 1 .004 0Z" class="highcharts-point" tabindex="-1" aria-label="5, 718. Outliers." style="outline:0" transform="translate(70 43)"/><path d="M468 130a4 4 0 1 1 .004 0Z" class="highcharts-point" tabindex="-1" aria-label="5, 951. Outliers." style="outline:0" transform="translate(70 43)"/><path d="M468 121a4 4 0 1 1 .004 0Z" class="highcharts-point" tabindex="-1" aria-label="5, 969. Outliers." style="outline:0" transform="translate(70 43)"/></g></g><text x="300" text-anchor="middle" class="highcharts-title" data-z-index="4" style="color:#000;font-size:16px;font-weight:700;fill:#000" y="22" aria-hidden="true">Highcharts Box Plot Example</text><g class="highcharts-axis-labels highcharts-xaxis-labels" data-z-index="7" aria-hidden="true" text-anchor="middle"><text x="122" style="color:#6e6e70;cursor:default;font-size:11px;fill:#6e6e70" y="365">1</text><text x="226" style="color:#6e6e70;cursor:default;font-size:11px;fill:#6e6e70" y="365">2</text><text x="330" style="color:#6e6e70;cursor:default;font-size:11px;fill:#6e6e70" y="365">3</text><text x="434" style="color:#6e6e70;cursor:default;font-size:11px;fill:#6e6e70" y="365">4</text><text x="538" style="color:#6e6e70;cursor:default;font-size:11px;fill:#6e6e70" y="365">5</text></g><g class="highcharts-axis-labels highcharts-yaxis-labels" data-z-index="7" aria-hidden="true" text-anchor="end"><text x="55" style="color:#6e6e70;cursor:default;font-size:11px;fill:#6e6e70" y="351">600</text><text x="55" style="color:#6e6e70;cursor:default;font-size:11px;fill:#6e6e70" y="300">700</text><text x="55" style="color:#6e6e70;cursor:default;font-size:11px;fill:#6e6e70" y="250">800</text><text x="55" style="color:#6e6e70;cursor:default;font-size:11px;fill:#6e6e70" y="199">900</text><text x="55" style="color:#6e6e70;cursor:default;font-size:11px;fill:#6e6e70" y="149">1000</text><text x="55" style="color:#6e6e70;cursor:default;font-size:11px;fill:#6e6e70" y="98">1100</text><text x="55" style="color:#6e6e70;cursor:default;font-size:11px;fill:#6e6e70" y="48">1200</text></g></svg>