<svg class="highcharts-root" style="font-family:Signika,serif;font-size:12px" xmlns="http://www.w3.org/2000/svg" width="600" height="400" aria-label="Interactive chart" aria-hidden="false"><defs aria-hidden="true"><radialGradient cx=".4" cy=".3" r=".7" id="b"><stop offset="0" stop-color="#FFF" stop-opacity=".5"/><stop offset="1" stop-color="#F45B5B" stop-opacity=".5"/></radialGradient><radialGradient cx=".4" cy=".3" r=".7" id="c"><stop offset="0" stop-color="#FFF" stop-opacity=".5"/><stop offset="1" stop-color="#8085E9" stop-opacity=".5"/></radialGradient><clipPath id="a"><path fill="none" d="M0 0h525v283H0z"/></clipPath></defs><rect fill="none" class="highcharts-background" width="600" height="400" rx="0" ry="0" aria-hidden="true"/><path fill="none" class="highcharts-plot-background" aria-hidden="true" d="M65 43h525v283H65z"/><g class="highcharts-grid highcharts-xaxis-grid" data-z-index="1" aria-hidden="true" fill="none" stroke="#e6e6e6"><path data-z-index="1" class="highcharts-grid-line" d="M85.5 43v283m97-283v283m96-283v283m97-283v283m96-283v283m97-283v283"/></g><g class="highcharts-grid highcharts-yaxis-grid" data-z-index="1" aria-hidden="true" fill="none" stroke="#e6e6e6"><path data-z-index="1" class="highcharts-grid-line" d="M65 295.5h525m-525-59h525m-525-60h525m-525-59h525m-525-59h525"/></g><path fill="none" class="highcharts-plot-border" data-z-index="1" stroke="#ccc" aria-hidden="true" d="M64.5 42.5h526v284h-526z"/><g class="highcharts-axis highcharts-xaxis" data-z-index="2" aria-hidden="true" fill="none" stroke="#ccd6eb"><path class="highcharts-tick" d="M85.5 326v10m97-10v10m96-10v10m97-10v10m96-10v10m97-10v10"/><path class="highcharts-axis-line" data-z-index="7" d="M65 326.5h525"/></g><g class="highcharts-axis highcharts-yaxis" data-z-index="2" aria-hidden="true"><text x="23.5" data-z-index="7" text-anchor="middle" transform="rotate(-90 23.5 184.5)" class="highcharts-axis-title" style="color:#666;fill:#666" y="184.5">Values</text><path fill="none" class="highcharts-axis-line" data-z-index="7" d="M65 43v283"/></g><g class="highcharts-series-group" data-z-index="3" aria-hidden="false"><g class="highcharts-series highcharts-series-0 highcharts-bubble-series highcharts-color-0 highcharts-tracker" data-z-index=".1" clip-path="url(#a)" aria-hidden="false" tabindex="-1" aria-label="Series 1, bubble series 1 of 2 with 14 bubbles." style="outline:0" fill="url(#b)" stroke="#f45b5b" transform="translate(65 43)"><path d="M64.5 83.47a23.5 23.5 0 1 1 .023 0Z" class="highcharts-point highcharts-color-0" tabindex="-1" aria-label="x, 9, y: 81, z: 63. Series 1." style="outline:0"/><path d="M493.5 267.735a27.5 27.5 0 1 1 .027 0Z" class="highcharts-point highcharts-color-0" tabindex="-1" aria-label="x, 98, y: 5, z: 89. Series 1." style="outline:0"/><path d="M267 158.499a25 25 0 1 1 .025 0Z" class="highcharts-point highcharts-color-0" tabindex="-1" aria-label="x, 51, y: 50, z: 73. Series 1." style="outline:0"/><path d="M219 212.912a13 13 0 1 1 .013 0Z" class="highcharts-point highcharts-color-0" tabindex="-1" aria-label="x, 41, y: 22, z: 14. Series 1." style="outline:0"/><path d="M301 210.168a15 15 0 1 1 .015 0Z" class="highcharts-point highcharts-color-0" tabindex="-1" aria-label="x, 58, y: 24, z: 20. Series 1." style="outline:0"/><path d="M397.5 182.834a18.5 18.5 0 1 1 .018 0Z" class="highcharts-point highcharts-color-0" tabindex="-1" aria-label="x, 78, y: 37, z: 34. Series 1." style="outline:0"/><path d="M286 141.267a22 22 0 1 1 .022 0Z" class="highcharts-point highcharts-color-0" tabindex="-1" aria-label="x, 55, y: 56, z: 53. Series 1." style="outline:0"/><path d="M107.5 169.858a24.5 24.5 0 1 1 .024 0Z" class="highcharts-point highcharts-color-0" tabindex="-1" aria-label="x, 18, y: 45, z: 70. Series 1." style="outline:0"/><path d="M223 164.73a17 17 0 1 1 .017 0Z" class="highcharts-point highcharts-color-0" tabindex="-1" aria-label="x, 42, y: 44, z: 28. Series 1." style="outline:0"/><path d="M35 151.755a23 23 0 1 1 .023 0Z" class="highcharts-point highcharts-color-0" tabindex="-1" aria-label="x, 3, y: 52, z: 59. Series 1." style="outline:0"/><path d="M170.5 237.9a28.5 28.5 0 1 1 .028 0Z" class="highcharts-point highcharts-color-0" tabindex="-1" aria-label="x, 31, y: 18, z: 97. Series 1." style="outline:0"/><path d="M401.5 59.75a23.5 23.5 0 1 1 .023 0Z" class="highcharts-point highcharts-color-0" tabindex="-1" aria-label="x, 79, y: 91, z: 63. Series 1." style="outline:0"/><path d="M469 213.54a16 16 0 1 1 .016 0Z" class="highcharts-point highcharts-color-0" tabindex="-1" aria-label="x, 93, y: 23, z: 23. Series 1." style="outline:0"/><path d="M233.5 70.726a15.5 15.5 0 1 1 .015 0Z" class="highcharts-point highcharts-color-0" tabindex="-1" aria-label="x, 44, y: 83, z: 22. Series 1." style="outline:0"/></g><g class="highcharts-series highcharts-series-1 highcharts-bubble-series highcharts-color-1 highcharts-tracker" data-z-index=".1" clip-path="url(#a)" aria-hidden="false" tabindex="-1" aria-label="Series 2, bubble series 2 of 2 with 14 bubbles." style="outline:0" fill="url(#c)" stroke="#8085e9" transform="translate(65 43)"><path d="M223 176.962a15 15 0 1 1 .015 0Z" class="highcharts-point highcharts-color-1" tabindex="-1" aria-label="x, 42, y: 38, z: 20. Series 2." style="outline:0"/><path d="M50 213.4a4 4 0 1 1 .004 0Z" class="highcharts-point highcharts-color-1" tabindex="-1" aria-label="x, 6, y: 18, z: 1. Series 2." style="outline:0"/><path d="M25.5 54.007a22.5 22.5 0 1 1 .022 0Z" class="highcharts-point highcharts-color-1" tabindex="-1" aria-label="x, 1, y: 93, z: 55. Series 2." style="outline:0"/><path d="M295.5 274.85a27.5 27.5 0 1 1 .027 0Z" class="highcharts-point highcharts-color-1" tabindex="-1" aria-label="x, 57, y: 2, z: 90. Series 2." style="outline:0"/><path d="M406.5 87.33a15.5 15.5 0 1 1 .015 0Z" class="highcharts-point highcharts-color-1" tabindex="-1" aria-label="x, 80, y: 76, z: 22. Series 2." style="outline:0"/><path d="M74.5 105.073a28.5 28.5 0 1 1 .028 0Z" class="highcharts-point highcharts-color-1" tabindex="-1" aria-label="x, 11, y: 74, z: 96. Series 2." style="outline:0"/><path d="M445.5 130.767a11.5 11.5 0 1 1 .011 0Z" class="highcharts-point highcharts-color-1" tabindex="-1" aria-label="x, 88, y: 56, z: 10. Series 2." style="outline:0"/><path d="M165.5 162.115a21.5 21.5 0 1 1 .021 0Z" class="highcharts-point highcharts-color-1" tabindex="-1" aria-label="x, 30, y: 47, z: 49. Series 2." style="outline:0"/><path d="M295.5 133.536a28.5 28.5 0 1 1 .028 0Z" class="highcharts-point highcharts-color-1" tabindex="-1" aria-label="x, 57, y: 62, z: 98. Series 2." style="outline:0"/><path d="M40 228.144a14 14 0 1 1 .014 0Z" class="highcharts-point highcharts-color-1" tabindex="-1" aria-label="x, 4, y: 16, z: 16. Series 2." style="outline:0"/><path d="M243 240.375a12 12 0 1 1 .012 0Z" class="highcharts-point highcharts-color-1" tabindex="-1" aria-label="x, 46, y: 10, z: 11. Series 2." style="outline:0"/><path d="M127.5 73.238a27.5 27.5 0 1 1 .027 0Z" class="highcharts-point highcharts-color-1" tabindex="-1" aria-label="x, 22, y: 87, z: 89. Series 2." style="outline:0"/><path d="M295.5 62.75a26.5 26.5 0 1 1 .026 0Z" class="highcharts-point highcharts-color-1" tabindex="-1" aria-label="x, 57, y: 91, z: 82. Series 2." style="outline:0"/><path d="M237.5 245.016a28.5 28.5 0 1 1 .028 0Z" class="highcharts-point highcharts-color-1" tabindex="-1" aria-label="x, 45, y: 15, z: 98. Series 2." style="outline:0"/></g></g><text x="300" text-anchor="middle" class="highcharts-title" data-z-index="4" style="color:#000;font-size:16px;font-weight:700;fill:#000" y="22" aria-hidden="true">Highcharts bubbles with radial gradient fill</text><g class="highcharts-legend highcharts-no-tooltip" data-z-index="7" transform="translate(218 358)" aria-hidden="true"><rect fill="#E0E0E8" class="highcharts-legend-box" rx="0" ry="0" width="163" height="27"/><g data-z-index="1"><g class="highcharts-legend-item highcharts-bubble-series highcharts-color-0 highcharts-series-0" data-z-index="1"><path fill="none" d="M8 15h16" class="highcharts-graph"/><path fill="url(#b)" d="M8.5 19a6.5 6.5 0 1 1 .006 0Z" class="highcharts-point" stroke="#f45b5b" transform="translate(8 3)"/><text x="21" data-z-index="2" y="16" style="color:#333;cursor:pointer;font-size:13px;font-weight:700;fill:#333" transform="translate(8 3)">Series 1</text></g><g class="highcharts-legend-item highcharts-bubble-series highcharts-color-1 highcharts-series-1" data-z-index="1"><path fill="none" d="M91.96 15h16" class="highcharts-graph"/><path fill="url(#c)" d="M8.5 19a6.5 6.5 0 1 1 .006 0Z" class="highcharts-point" stroke="#8085e9" transform="translate(91.96 3)"/><text x="21" y="16" data-z-index="2" style="color:#333;cursor:pointer;font-size:13px;font-weight:700;fill:#333" transform="translate(91.96 3)">Series 2</text></g></g></g><g class="highcharts-axis-labels highcharts-xaxis-labels" data-z-index="7" aria-hidden="true" text-anchor="middle"><text x="86.478" style="color:#6e6e70;cursor:default;font-size:11px;fill:#6e6e70" y="345">0</text><text x="182.911" style="color:#6e6e70;cursor:default;font-size:11px;fill:#6e6e70" y="345">20</text><text x="279.344" style="color:#6e6e70;cursor:default;font-size:11px;fill:#6e6e70" y="345">40</text><text x="375.777" style="color:#6e6e70;cursor:default;font-size:11px;fill:#6e6e70" y="345">60</text><text x="472.21" style="color:#6e6e70;cursor:default;font-size:11px;fill:#6e6e70" y="345">80</text><text x="568.643" style="color:#6e6e70;cursor:default;font-size:11px;fill:#6e6e70" y="345">100</text></g><g class="highcharts-axis-labels highcharts-yaxis-labels" data-z-index="7" aria-hidden="true" text-anchor="end"><text x="50" style="color:#6e6e70;cursor:default;font-size:11px;fill:#6e6e70" y="300">0</text><text x="50" style="color:#6e6e70;cursor:default;font-size:11px;fill:#6e6e70" y="241">25</text><text x="50" style="color:#6e6e70;cursor:default;font-size:11px;fill:#6e6e70" y="181">50</text><text x="50" style="color:#6e6e70;cursor:default;font-size:11px;fill:#6e6e70" y="122">75</text><text x="50" style="color:#6e6e70;cursor:default;font-size:11px;fill:#6e6e70" y="63">100</text></g></svg>