<svg class="highcharts-root" style="font-family:Signika,serif;font-size:12px" xmlns="http://www.w3.org/2000/svg" width="600" height="400" aria-label="Interactive chart" aria-hidden="false"><defs aria-hidden="true"><clipPath id="a"><path fill="none" d="M0 0h513v290H0z"/></clipPath></defs><rect fill="none" class="highcharts-background" width="600" height="400" rx="0" ry="0" aria-hidden="true"/><path fill="none" class="highcharts-plot-background" aria-hidden="true" d="M77 56h513v290H77z"/><g class="highcharts-grid highcharts-xaxis-grid" data-z-index="1" aria-hidden="true" fill="none" stroke="#e6e6e6"><path data-z-index="1" class="highcharts-grid-line" d="M121.5 56v290m75-290v290m75-290v290m75-290v290m75-290v290m75-290v290m75-290v290"/></g><g class="highcharts-grid highcharts-yaxis-grid" data-z-index="1" aria-hidden="true" fill="none" stroke="#e6e6e6"><path data-z-index="1" class="highcharts-grid-line" d="M77 266.5h513m-513-93h513m-513-92h513"/></g><path fill="none" class="highcharts-plot-border" data-z-index="1" stroke="#ccc" aria-hidden="true" d="M76.5 55.5h514v291h-514z"/><g class="highcharts-axis highcharts-xaxis" data-z-index="2" aria-hidden="true"><path fill="none" class="highcharts-tick" stroke="#ccd6eb" d="M121.5 346v10m75-10v10m75-10v10m75-10v10m75-10v10m75-10v10m75-10v10"/><text x="333.5" data-z-index="7" text-anchor="middle" class="highcharts-axis-title" style="color:#666;fill:#666" y="383.5">Daily fat intake</text><path fill="none" class="highcharts-axis-line" stroke="#ccd6eb" data-z-index="7" d="M77 346.5h513"/></g><g class="highcharts-axis highcharts-yaxis" data-z-index="2" aria-hidden="true"><text x="23.517" data-z-index="7" text-anchor="middle" transform="rotate(-90 23.517 201)" class="highcharts-axis-title" style="color:#666;fill:#666" y="201">Daily sugar intake</text><path fill="none" class="highcharts-axis-line" data-z-index="7" d="M77 56v290"/></g><g class="highcharts-plot-lines-3" data-z-index="3" aria-hidden="true"><path fill="none" class="highcharts-plot-line" stroke="#000" stroke-width="2" stroke-dasharray="2,6" d="M122 56v290"/></g><text x="126" class="highcharts-plot-line-label" data-z-index="3" y="71" style="font-style:italic" aria-hidden="true">Safe fat intake 65g/day</text><g class="highcharts-plot-lines-3" data-z-index="3" aria-hidden="true"><path fill="none" class="highcharts-plot-line" stroke="#000" stroke-width="2" stroke-dasharray="2,6" d="M77 266h513"/></g><text x="580" text-anchor="end" class="highcharts-plot-line-label" data-z-index="3" y="262" style="font-style:italic" aria-hidden="true">Safe sugar intake 50g/day</text><g class="highcharts-series-group" data-z-index="3" aria-hidden="false"><g class="highcharts-series highcharts-series-0 highcharts-bubble-series highcharts-tracker" data-z-index=".1" clip-path="url(#a)" aria-hidden="false" transform="translate(77 56)"><path fill="rgba(244,91,91,0.5)" d="M494 141a14 14 0 1 1 .014 0Z" stroke="#f45b5b" class="highcharts-point highcharts-color-0" tabindex="-1" aria-label="1. BE, fat: 95g, sugar: 95g, obesity: 13.8%." style="outline:0"/><path fill="rgba(128,133,233,0.5)" d="M367 127a15 15 0 1 1 .015 0Z" stroke="#8085e9" class="highcharts-point highcharts-color-1" tabindex="-1" aria-label="2. DE, fat: 86.5g, sugar: 102.9g, obesity: 14.7%." style="outline:0"/><path fill="rgba(141,70,84,0.5)" d="M282 149a16 16 0 1 1 .016 0Z" stroke="#8d4654" class="highcharts-point highcharts-color-2" tabindex="-1" aria-label="3. FI, fat: 80.8g, sugar: 91.5g, obesity: 15.8%." style="outline:0"/><path fill="rgba(119,152,191,0.5)" d="M275.5 124a11.5 11.5 0 1 1 .011 0Z" stroke="#7798BF" class="highcharts-point highcharts-color-3" tabindex="-1" aria-label="4. NL, fat: 80.4g, sugar: 102.5g, obesity: 12%." style="outline:0"/><path fill="rgba(170,238,238,0.5)" d="M274 154a11 11 0 1 1 .011 0Z" stroke="#aee" class="highcharts-point highcharts-color-4" tabindex="-1" aria-label="5. SE, fat: 80.3g, sugar: 86.1g, obesity: 11.8%." style="outline:0"/><path fill="rgba(255,0,102,0.5)" d="M246 190a17 17 0 1 1 .017 0Z" stroke="#f06" class="highcharts-point highcharts-color-5" tabindex="-1" aria-label="6. ES, fat: 78.4g, sugar: 70.1g, obesity: 16.6%." style="outline:0"/><path fill="rgba(238,170,238,0.5)" d="M183 191a15 15 0 1 1 .015 0Z" stroke="#eae" class="highcharts-point highcharts-color-6" tabindex="-1" aria-label="7. FR, fat: 74.2g, sugar: 68.5g, obesity: 14.5%." style="outline:0"/><path fill="rgba(85,191,59,0.5)" d="M172 153a4 4 0 1 1 .004 0Z" stroke="#55BF3B" class="highcharts-point highcharts-color-7" tabindex="-1" aria-label="8. NO, fat: 73.5g, sugar: 83.1g, obesity: 10%." style="outline:0"/><path fill="rgba(223,83,83,0.5)" d="M134.5 153a23.5 23.5 0 1 1 .023 0Z" stroke="#DF5353" class="highcharts-point highcharts-color-8" tabindex="-1" aria-label="9. UK, fat: 71g, sugar: 93.2g, obesity: 24.7%." style="outline:0"/><path fill="rgba(119,152,191,0.5)" d="M107.5 204a7.5 7.5 0 1 1 .007 0Z" stroke="#7798BF" class="highcharts-point highcharts-color-9" tabindex="-1" aria-label="10. IT, fat: 69.2g, sugar: 57.6g, obesity: 10.4%." style="outline:0"/><path fill="rgba(170,238,238,0.5)" d="M98.5 282a16.5 16.5 0 1 1 .016 0Z" stroke="#aee" class="highcharts-point highcharts-color-10" tabindex="-1" aria-label="11. RU, fat: 68.6g, sugar: 20g, obesity: 16%." style="outline:0"/><path fill="rgba(244,91,91,0.5)" d="M52 97a29 29 0 1 1 .029 0Z" stroke="#f45b5b" class="highcharts-point highcharts-color-0" tabindex="-1" aria-label="12. US, fat: 65.5g, sugar: 126.4g, obesity: 35.3%." style="outline:0"/><path fill="rgba(128,133,233,0.5)" d="M50.5 234a25.5 25.5 0 1 1 .025 0Z" stroke="#8085e9" class="highcharts-point highcharts-color-1" tabindex="-1" aria-label="13. HU, fat: 65.4g, sugar: 50.8g, obesity: 28.5%." style="outline:0"/><path fill="rgba(141,70,84,0.5)" d="M21 223a16 16 0 1 1 .016 0Z" stroke="#8d4654" class="highcharts-point highcharts-color-2" tabindex="-1" aria-label="14. PT, fat: 63.4g, sugar: 51.8g, obesity: 15.4%." style="outline:0"/><path fill="rgba(119,152,191,0.5)" d="M30 176a27 27 0 1 1 .027 0Z" stroke="#7798BF" class="highcharts-point highcharts-color-3" tabindex="-1" aria-label="15. NZ, fat: 64g, sugar: 82.9g, obesity: 31.3%." style="outline:0"/></g></g><text x="300" text-anchor="middle" class="highcharts-title" data-z-index="4" style="color:#000;font-size:16px;font-weight:700;fill:#000" y="22" aria-hidden="true">Sugar and fat intake per country</text><text x="300" text-anchor="middle" class="highcharts-subtitle" data-z-index="4" style="color:#000;fill:#000" y="42" aria-hidden="true">Source: <a><tspan>Euromonitor</tspan></a> and <a><tspan>OECD</tspan></a></text><g class="highcharts-data-labels highcharts-series-0 highcharts-bubble-series highcharts-tracker" data-z-index="6" aria-hidden="true"><text x="5" data-z-index="1" y="16" style="color:#000;font-size:11px;font-weight:700;fill:#000" transform="translate(559 171)" class="highcharts-label highcharts-data-label highcharts-data-label-color-0"><tspan class="highcharts-text-outline" fill="#FFF" stroke="#FFF" stroke-width="2" stroke-linejoin="round">BE<tspan x="5" dy="0">​</tspan></tspan>BE</text><text x="5" data-z-index="1" y="16" style="color:#000;font-size:11px;font-weight:700;fill:#000" transform="translate(432 157)" class="highcharts-label highcharts-data-label highcharts-data-label-color-1"><tspan class="highcharts-text-outline" fill="#FFF" stroke="#FFF" stroke-width="2" stroke-linejoin="round">DE<tspan x="5" dy="0">​</tspan></tspan>DE</text><text x="5" data-z-index="1" y="16" style="color:#fff;font-size:11px;font-weight:700;fill:#fff" transform="translate(349 178)" class="highcharts-label highcharts-data-label highcharts-data-label-color-2"><tspan class="highcharts-text-outline" fill="#000" stroke="#000" stroke-width="2" stroke-linejoin="round">FI<tspan x="5" dy="0">​</tspan></tspan>FI</text><text x="5" data-z-index="1" y="16" style="color:#000;font-size:11px;font-weight:700;fill:#000" transform="translate(340 157)" class="highcharts-label highcharts-data-label highcharts-data-label-color-3"><tspan class="highcharts-text-outline" fill="#FFF" stroke="#FFF" stroke-width="2" stroke-linejoin="round">NL<tspan x="5" dy="0">​</tspan></tspan>NL</text><text x="5" data-z-index="1" y="16" style="color:#000;font-size:11px;font-weight:700;fill:#000" transform="translate(311 218)" class="highcharts-label highcharts-data-label highcharts-data-label-color-5"><tspan class="highcharts-text-outline" fill="#FFF" stroke="#FFF" stroke-width="2" stroke-linejoin="round">ES<tspan x="5" dy="0">​</tspan></tspan>ES</text><text x="5" data-z-index="1" y="16" style="color:#000;font-size:11px;font-weight:700;fill:#000" transform="translate(248 221)" class="highcharts-label highcharts-data-label highcharts-data-label-color-6"><tspan class="highcharts-text-outline" fill="#FFF" stroke="#FFF" stroke-width="2" stroke-linejoin="round">FR<tspan x="5" dy="0">​</tspan></tspan>FR</text><text x="5" data-z-index="1" y="16" style="color:#000;font-size:11px;font-weight:700;fill:#000" transform="translate(236 193)" class="highcharts-label highcharts-data-label highcharts-data-label-color-7"><tspan class="highcharts-text-outline" fill="#FFF" stroke="#FFF" stroke-width="2" stroke-linejoin="round">NO<tspan x="5" dy="0">​</tspan></tspan>NO</text><text x="5" data-z-index="1" y="16" style="color:#000;font-size:11px;font-weight:700;fill:#000" transform="translate(199 175)" class="highcharts-label highcharts-data-label highcharts-data-label-color-8"><tspan class="highcharts-text-outline" fill="#FFF" stroke="#FFF" stroke-width="2" stroke-linejoin="round">UK<tspan x="5" dy="0">​</tspan></tspan>UK</text><text x="5" data-z-index="1" y="16" style="color:#000;font-size:11px;font-weight:700;fill:#000" transform="translate(174 241)" class="highcharts-label highcharts-data-label highcharts-data-label-color-9"><tspan class="highcharts-text-outline" fill="#FFF" stroke="#FFF" stroke-width="2" stroke-linejoin="round">IT<tspan x="5" dy="0">​</tspan></tspan>IT</text><text x="5" data-z-index="1" y="16" style="color:#000;font-size:11px;font-weight:700;fill:#000" transform="translate(163 311)" class="highcharts-label highcharts-data-label highcharts-data-label-color-10"><tspan class="highcharts-text-outline" fill="#FFF" stroke="#FFF" stroke-width="2" stroke-linejoin="round">RU<tspan x="5" dy="0">​</tspan></tspan>RU</text><text x="5" data-z-index="1" y="16" style="color:#000;font-size:11px;font-weight:700;fill:#000" transform="translate(118 113)" class="highcharts-label highcharts-data-label highcharts-data-label-color-0"><tspan class="highcharts-text-outline" fill="#FFF" stroke="#FFF" stroke-width="2" stroke-linejoin="round">US<tspan x="5" dy="0">​</tspan></tspan>US</text><text x="5" data-z-index="1" y="16" style="color:#000;font-size:11px;font-weight:700;fill:#000" transform="translate(115 253)" class="highcharts-label highcharts-data-label highcharts-data-label-color-1"><tspan class="highcharts-text-outline" fill="#FFF" stroke="#FFF" stroke-width="2" stroke-linejoin="round">HU<tspan x="5" dy="0">​</tspan></tspan>HU</text><text x="5" data-z-index="1" y="16" style="color:#fff;font-size:11px;font-weight:700;fill:#fff" transform="translate(86 252)" class="highcharts-label highcharts-data-label highcharts-data-label-color-2"><tspan class="highcharts-text-outline" fill="#000" stroke="#000" stroke-width="2" stroke-linejoin="round">PT<tspan x="5" dy="0">​</tspan></tspan>PT</text><text x="5" data-z-index="1" y="16" style="color:#000;font-size:11px;font-weight:700;fill:#000" transform="translate(95 194)" class="highcharts-label highcharts-data-label highcharts-data-label-color-3"><tspan class="highcharts-text-outline" fill="#FFF" stroke="#FFF" stroke-width="2" stroke-linejoin="round">NZ<tspan x="5" dy="0">​</tspan></tspan>NZ</text></g><g class="highcharts-axis-labels highcharts-xaxis-labels" data-z-index="7" aria-hidden="true" text-anchor="middle"><text x="122.364" style="color:#6e6e70;cursor:default;font-size:11px;fill:#6e6e70" y="365">65 gr</text><text x="197.252" style="color:#6e6e70;cursor:default;font-size:11px;fill:#6e6e70" y="365">70 gr</text><text x="272.14" style="color:#6e6e70;cursor:default;font-size:11px;fill:#6e6e70" y="365">75 gr</text><text x="347.028" style="color:#6e6e70;cursor:default;font-size:11px;fill:#6e6e70" y="365">80 gr</text><text x="421.916" style="color:#6e6e70;cursor:default;font-size:11px;fill:#6e6e70" y="365">85 gr</text><text x="496.804" style="color:#6e6e70;cursor:default;font-size:11px;fill:#6e6e70" y="365">90 gr</text><text x="571.692" style="color:#6e6e70;cursor:default;font-size:11px;fill:#6e6e70" y="365">95 gr</text></g><g class="highcharts-axis-labels highcharts-yaxis-labels" data-z-index="7" aria-hidden="true" text-anchor="end"><text x="62" style="color:#6e6e70;cursor:default;font-size:11px;fill:#6e6e70" y="271">50 gr</text><text x="62" style="color:#6e6e70;cursor:default;font-size:11px;fill:#6e6e70" y="178">100 gr</text><text x="62" style="color:#6e6e70;cursor:default;font-size:11px;fill:#6e6e70" y="85">150 gr</text></g></svg>