<svg class="highcharts-root" style="font-family:Signika,serif;font-size:12px" xmlns="http://www.w3.org/2000/svg" width="600" height="400" aria-label="Interactive chart" aria-hidden="false"><defs aria-hidden="true"><clipPath id="a"><path fill="none" d="M0 0h531v309H0z"/></clipPath></defs><rect fill="none" class="highcharts-background" width="600" height="400" rx="0" ry="0" aria-hidden="true"/><path fill="none" class="highcharts-plot-background" aria-hidden="true" d="M59 56h531v309H59z"/><g class="highcharts-grid highcharts-xaxis-grid" data-z-index="1" aria-hidden="true" fill="none"><path data-z-index="1" class="highcharts-grid-line" d="M102.5 56v309m45-309v309m44-309v309m44-309v309m44-309v309m45-309v309m44-309v309m44-309v309m44-309v309m45-309v309m44-309v309m44-309v309M58.5 56v309"/></g><g class="highcharts-grid highcharts-yaxis-grid" data-z-index="1" aria-hidden="true" fill="none" stroke="#e6e6e6"><path data-z-index="1" class="highcharts-grid-line" d="M59 365.5h531m-531-51h531m-531-52h531m-531-51h531m-531-52h531m-531-51h531m-531-53h531"/></g><path fill="none" class="highcharts-plot-border" data-z-index="1" aria-hidden="true" d="M59 56h531v309H59z"/><g class="highcharts-axis highcharts-xaxis" data-z-index="2" aria-hidden="true"><path fill="none" class="highcharts-axis-line" stroke="#ccd6eb" data-z-index="7" d="M59 365.5h531"/></g><g class="highcharts-axis highcharts-yaxis" data-z-index="2" aria-hidden="true"><text x="22.936" data-z-index="7" text-anchor="middle" transform="rotate(-90 22.936 210.5)" class="highcharts-axis-title" style="color:#666;fill:#666" y="210.5">Values</text><path fill="none" class="highcharts-axis-line" data-z-index="7" d="M59 56v309"/></g><g class="highcharts-series-group" data-z-index="3" aria-hidden="false"><g class="highcharts-series highcharts-series-0 highcharts-column-series highcharts-tracker" data-z-index=".1" clip-path="url(#a)" aria-hidden="false" transform="translate(59 56)"><path fill="none" stroke="#000" stroke-width="5" stroke-opacity=".05" class="highcharts-shadow" d="M12.5 31.5h22v279h-22z"/><path fill="none" stroke="#000" stroke-width="3" stroke-opacity=".1" class="highcharts-shadow" d="M12.5 31.5h22v279h-22z"/><path fill="none" stroke="#000" stroke-opacity=".15" class="highcharts-shadow" d="M12.5 31.5h22v279h-22z"/><path fill="#f45b5b" stroke="#fff" class="highcharts-point highcharts-color-0" tabindex="-1" aria-label="Jan, 5,412. Unemployed." style="outline:0" d="M11.5 30.5h22v279h-22z"/><path fill="none" stroke="#000" stroke-width="5" stroke-opacity=".05" class="highcharts-shadow" d="M56.5 54.5h22v256h-22z"/><path fill="none" stroke="#000" stroke-width="3" stroke-opacity=".1" class="highcharts-shadow" d="M56.5 54.5h22v256h-22z"/><path fill="none" stroke="#000" stroke-opacity=".15" class="highcharts-shadow" d="M56.5 54.5h22v256h-22z"/><path fill="#8085e9" stroke="#fff" class="highcharts-point highcharts-color-1" tabindex="-1" aria-label="Feb, 4,977. Unemployed." style="outline:0" d="M55.5 53.5h22v256h-22z"/><path fill="none" stroke="#000" stroke-width="5" stroke-opacity=".05" class="highcharts-shadow" d="M100.5 66.5h22v244h-22z"/><path fill="none" stroke="#000" stroke-width="3" stroke-opacity=".1" class="highcharts-shadow" d="M100.5 66.5h22v244h-22z"/><path fill="none" stroke="#000" stroke-opacity=".15" class="highcharts-shadow" d="M100.5 66.5h22v244h-22z"/><path fill="#8d4654" stroke="#fff" class="highcharts-point highcharts-color-2" tabindex="-1" aria-label="Mar, 4,730. Unemployed." style="outline:0" d="M99.5 65.5h22v244h-22z"/><path fill="none" stroke="#000" stroke-width="5" stroke-opacity=".05" class="highcharts-shadow" d="M144.5 81.5h22v229h-22z"/><path fill="none" stroke="#000" stroke-width="3" stroke-opacity=".1" class="highcharts-shadow" d="M144.5 81.5h22v229h-22z"/><path fill="none" stroke="#000" stroke-opacity=".15" class="highcharts-shadow" d="M144.5 81.5h22v229h-22z"/><path fill="#7798BF" stroke="#fff" class="highcharts-point highcharts-color-3" tabindex="-1" aria-label="Apr, 4,437. Unemployed." style="outline:0" d="M143.5 80.5h22v229h-22z"/><path fill="none" stroke="#000" stroke-width="5" stroke-opacity=".05" class="highcharts-shadow" d="M189.5 107.5h22v203h-22z"/><path fill="none" stroke="#000" stroke-width="3" stroke-opacity=".1" class="highcharts-shadow" d="M189.5 107.5h22v203h-22z"/><path fill="none" stroke="#000" stroke-opacity=".15" class="highcharts-shadow" d="M189.5 107.5h22v203h-22z"/><path fill="#aee" stroke="#fff" class="highcharts-point highcharts-color-4" tabindex="-1" aria-label="May, 3,947. Unemployed." style="outline:0" d="M188.5 106.5h22v203h-22z"/><path fill="none" stroke="#000" stroke-width="5" stroke-opacity=".05" class="highcharts-shadow" d="M233.5 119.5h22v191h-22z"/><path fill="none" stroke="#000" stroke-width="3" stroke-opacity=".1" class="highcharts-shadow" d="M233.5 119.5h22v191h-22z"/><path fill="none" stroke="#000" stroke-opacity=".15" class="highcharts-shadow" d="M233.5 119.5h22v191h-22z"/><path fill="#f06" stroke="#fff" class="highcharts-point highcharts-color-5" tabindex="-1" aria-label="Jun, 3,707. Unemployed." style="outline:0" d="M232.5 118.5h22v191h-22z"/><path fill="none" stroke="#000" stroke-width="5" stroke-opacity=".05" class="highcharts-shadow" d="M277.5 97.5h22v213h-22z"/><path fill="none" stroke="#000" stroke-width="3" stroke-opacity=".1" class="highcharts-shadow" d="M277.5 97.5h22v213h-22z"/><path fill="none" stroke="#000" stroke-opacity=".15" class="highcharts-shadow" d="M277.5 97.5h22v213h-22z"/><path fill="#eae" stroke="#fff" class="highcharts-point highcharts-color-6" tabindex="-1" aria-label="Jul, 4,143. Unemployed." style="outline:0" d="M276.5 96.5h22v213h-22z"/><path fill="none" stroke="#000" stroke-width="5" stroke-opacity=".05" class="highcharts-shadow" d="M321.5 124.5h22v186h-22z"/><path fill="none" stroke="#000" stroke-width="3" stroke-opacity=".1" class="highcharts-shadow" d="M321.5 124.5h22v186h-22z"/><path fill="none" stroke="#000" stroke-opacity=".15" class="highcharts-shadow" d="M321.5 124.5h22v186h-22z"/><path fill="#55BF3B" stroke="#fff" class="highcharts-point highcharts-color-7" tabindex="-1" aria-label="Aug, 3,609. Unemployed." style="outline:0" d="M320.5 123.5h22v186h-22z"/><path fill="none" stroke="#000" stroke-width="5" stroke-opacity=".05" class="highcharts-shadow" d="M366.5 139.5h22v171h-22z"/><path fill="none" stroke="#000" stroke-width="3" stroke-opacity=".1" class="highcharts-shadow" d="M366.5 139.5h22v171h-22z"/><path fill="none" stroke="#000" stroke-opacity=".15" class="highcharts-shadow" d="M366.5 139.5h22v171h-22z"/><path fill="#DF5353" stroke="#fff" class="highcharts-point highcharts-color-8" tabindex="-1" aria-label="Sep, 3,311. Unemployed." style="outline:0" d="M365.5 138.5h22v171h-22z"/><path fill="none" stroke="#000" stroke-width="5" stroke-opacity=".05" class="highcharts-shadow" d="M410.5 152.5h22v158h-22z"/><path fill="none" stroke="#000" stroke-width="3" stroke-opacity=".1" class="highcharts-shadow" d="M410.5 152.5h22v158h-22z"/><path fill="none" stroke="#000" stroke-opacity=".15" class="highcharts-shadow" d="M410.5 152.5h22v158h-22z"/><path fill="#7798BF" stroke="#fff" class="highcharts-point highcharts-color-9" tabindex="-1" aria-label="Oct, 3,072. Unemployed." style="outline:0" d="M409.5 151.5h22v158h-22z"/><path fill="none" stroke="#000" stroke-width="5" stroke-opacity=".05" class="highcharts-shadow" d="M454.5 161.5h22v149h-22z"/><path fill="none" stroke="#000" stroke-width="3" stroke-opacity=".1" class="highcharts-shadow" d="M454.5 161.5h22v149h-22z"/><path fill="none" stroke="#000" stroke-opacity=".15" class="highcharts-shadow" d="M454.5 161.5h22v149h-22z"/><path fill="#aee" stroke="#fff" class="highcharts-point highcharts-color-10" tabindex="-1" aria-label="Nov, 2,899. Unemployed." style="outline:0" d="M453.5 160.5h22v149h-22z"/><path fill="none" stroke="#000" stroke-width="5" stroke-opacity=".05" class="highcharts-shadow" d="M498.5 161.5h22v149h-22z"/><path fill="none" stroke="#000" stroke-width="3" stroke-opacity=".1" class="highcharts-shadow" d="M498.5 161.5h22v149h-22z"/><path fill="none" stroke="#000" stroke-opacity=".15" class="highcharts-shadow" d="M498.5 161.5h22v149h-22z"/><path fill="#f45b5b" stroke="#fff" class="highcharts-point highcharts-color-0" tabindex="-1" aria-label="Dec, 2,887. Unemployed." style="outline:0" d="M497.5 160.5h22v149h-22z"/></g></g><text x="300" text-anchor="middle" class="highcharts-title" data-z-index="4" style="color:#000;font-size:16px;font-weight:700;fill:#000" y="22" aria-hidden="true">Unemployment rates in engineering and ICT subjects, 2021</text><text x="300" text-anchor="middle" class="highcharts-subtitle" data-z-index="4" style="color:#000;fill:#000" y="42" aria-hidden="true">Chart option: Plain | Source: <a target="_blank"><tspan>NAV</tspan></a></text><g class="highcharts-axis-labels highcharts-xaxis-labels" data-z-index="7" aria-hidden="true" text-anchor="middle"><text x="81.125" style="color:#6e6e70;cursor:default;font-size:11px;fill:#6e6e70" y="384">Jan</text><text x="125.375" style="color:#6e6e70;cursor:default;font-size:11px;fill:#6e6e70" y="384">Feb</text><text x="169.625" style="color:#6e6e70;cursor:default;font-size:11px;fill:#6e6e70" y="384">Mar</text><text x="213.875" style="color:#6e6e70;cursor:default;font-size:11px;fill:#6e6e70" y="384">Apr</text><text x="258.125" style="color:#6e6e70;cursor:default;font-size:11px;fill:#6e6e70" y="384">May</text><text x="302.375" style="color:#6e6e70;cursor:default;font-size:11px;fill:#6e6e70" y="384">Jun</text><text x="346.625" style="color:#6e6e70;cursor:default;font-size:11px;fill:#6e6e70" y="384">Jul</text><text x="390.875" style="color:#6e6e70;cursor:default;font-size:11px;fill:#6e6e70" y="384">Aug</text><text x="435.125" style="color:#6e6e70;cursor:default;font-size:11px;fill:#6e6e70" y="384">Sep</text><text x="479.375" style="color:#6e6e70;cursor:default;font-size:11px;fill:#6e6e70" y="384">Oct</text><text x="523.625" style="color:#6e6e70;cursor:default;font-size:11px;fill:#6e6e70" y="384">Nov</text><text x="567.875" style="color:#6e6e70;cursor:default;font-size:11px;fill:#6e6e70" y="384">Dec</text></g><g class="highcharts-axis-labels highcharts-yaxis-labels" data-z-index="7" aria-hidden="true" text-anchor="end"><text x="44" style="color:#6e6e70;cursor:default;font-size:11px;fill:#6e6e70" y="370">0</text><text x="44" style="color:#6e6e70;cursor:default;font-size:11px;fill:#6e6e70" y="318">1k</text><text x="44" style="color:#6e6e70;cursor:default;font-size:11px;fill:#6e6e70" y="267">2k</text><text x="44" style="color:#6e6e70;cursor:default;font-size:11px;fill:#6e6e70" y="215">3k</text><text x="44" style="color:#6e6e70;cursor:default;font-size:11px;fill:#6e6e70" y="164">4k</text><text x="44" style="color:#6e6e70;cursor:default;font-size:11px;fill:#6e6e70" y="112">5k</text><text x="44" style="color:#6e6e70;cursor:default;font-size:11px;fill:#6e6e70" y="61">6k</text></g></svg>