<svg class="highcharts-root" style="font-family:Signika,serif;font-size:12px" xmlns="http://www.w3.org/2000/svg" width="600" height="400" aria-label="Interactive chart" aria-hidden="false"><defs aria-hidden="true"><clipPath id="a"><path fill="none" d="M0 0h525v270H0z"/></clipPath></defs><rect fill="none" class="highcharts-background" width="600" height="400" rx="0" ry="0" aria-hidden="true"/><path fill="none" class="highcharts-plot-background" aria-hidden="true" d="M65 56h525v270H65z"/><g class="highcharts-grid highcharts-xaxis-grid" data-z-index="1" aria-hidden="true" fill="none"><path data-z-index="1" class="highcharts-grid-line" d="M152.5 56v270m87-270v270m88-270v270m87-270v270m88-270v270m87-270v270M64.5 56v270"/></g><g class="highcharts-grid highcharts-yaxis-grid" data-z-index="1" aria-hidden="true" fill="none" stroke="#e6e6e6"><path data-z-index="1" class="highcharts-grid-line" d="M65 326.5h525m-525-67h525m-525-68h525m-525-67h525m-525-69h525"/></g><path fill="none" class="highcharts-plot-border" data-z-index="1" aria-hidden="true" d="M65 56h525v270H65z"/><g class="highcharts-axis highcharts-xaxis" data-z-index="2" aria-hidden="true"><path fill="none" class="highcharts-axis-line" stroke="#ccd6eb" data-z-index="7" d="M65 326.5h525"/></g><g class="highcharts-axis highcharts-yaxis" data-z-index="2" aria-hidden="true"><text x="23.436" data-z-index="7" text-anchor="middle" transform="rotate(-90 23.436 191)" class="highcharts-axis-title" style="color:#666;fill:#666" y="191">Amount</text><path fill="none" class="highcharts-axis-line" data-z-index="7" d="M65 56v270"/></g><g class="highcharts-series-group" data-z-index="3" aria-hidden="false"><g class="highcharts-series highcharts-series-0 highcharts-column-series highcharts-color-0 highcharts-tracker" data-z-index=".1" clip-path="url(#a)" aria-hidden="false" tabindex="-1" aria-label="Boys, bar series 1 of 2 with 6 bars." style="outline:0" transform="translate(65 56)"><path fill="none" stroke="#000" stroke-width="5" stroke-opacity=".05" class="highcharts-shadow" d="M20.5 66.5h21v205h-21z"/><path fill="none" stroke="#000" stroke-width="3" stroke-opacity=".1" class="highcharts-shadow" d="M20.5 66.5h21v205h-21z"/><path fill="none" stroke="#000" stroke-opacity=".15" class="highcharts-shadow" d="M20.5 66.5h21v205h-21z"/><path fill="#f45b5b" stroke="#fff" class="highcharts-point highcharts-color-0" tabindex="-1" aria-label="2016, 30,386. Boys." style="outline:0" d="M19.5 65.5h21v205h-21z"/><path fill="none" stroke="#000" stroke-width="5" stroke-opacity=".05" class="highcharts-shadow" d="M108.5 74.5h21v197h-21z"/><path fill="none" stroke="#000" stroke-width="3" stroke-opacity=".1" class="highcharts-shadow" d="M108.5 74.5h21v197h-21z"/><path fill="none" stroke="#000" stroke-opacity=".15" class="highcharts-shadow" d="M108.5 74.5h21v197h-21z"/><path fill="#f45b5b" stroke="#fff" class="highcharts-point highcharts-color-0" tabindex="-1" aria-label="2017, 29,173. Boys." style="outline:0" d="M107.5 73.5h21v197h-21z"/><path fill="none" stroke="#000" stroke-width="5" stroke-opacity=".05" class="highcharts-shadow" d="M195.5 79.5h21v192h-21z"/><path fill="none" stroke="#000" stroke-width="3" stroke-opacity=".1" class="highcharts-shadow" d="M195.5 79.5h21v192h-21z"/><path fill="none" stroke="#000" stroke-opacity=".15" class="highcharts-shadow" d="M195.5 79.5h21v192h-21z"/><path fill="#f45b5b" stroke="#fff" class="highcharts-point highcharts-color-0" tabindex="-1" aria-label="2018, 28,430. Boys." style="outline:0" d="M194.5 78.5h21v192h-21z"/><path fill="none" stroke="#000" stroke-width="5" stroke-opacity=".05" class="highcharts-shadow" d="M283.5 82.5h21v189h-21z"/><path fill="none" stroke="#000" stroke-width="3" stroke-opacity=".1" class="highcharts-shadow" d="M283.5 82.5h21v189h-21z"/><path fill="none" stroke="#000" stroke-opacity=".15" class="highcharts-shadow" d="M283.5 82.5h21v189h-21z"/><path fill="#f45b5b" stroke="#fff" class="highcharts-point highcharts-color-0" tabindex="-1" aria-label="2019, 28,042. Boys." style="outline:0" d="M282.5 81.5h21v189h-21z"/><path fill="none" stroke="#000" stroke-width="5" stroke-opacity=".05" class="highcharts-shadow" d="M370.5 88.5h21v183h-21z"/><path fill="none" stroke="#000" stroke-width="3" stroke-opacity=".1" class="highcharts-shadow" d="M370.5 88.5h21v183h-21z"/><path fill="none" stroke="#000" stroke-opacity=".15" class="highcharts-shadow" d="M370.5 88.5h21v183h-21z"/><path fill="#f45b5b" stroke="#fff" class="highcharts-point highcharts-color-0" tabindex="-1" aria-label="2020, 27,063. Boys." style="outline:0" d="M369.5 87.5h21v183h-21z"/><path fill="none" stroke="#000" stroke-width="5" stroke-opacity=".05" class="highcharts-shadow" d="M458.5 77.5h21v194h-21z"/><path fill="none" stroke="#000" stroke-width="3" stroke-opacity=".1" class="highcharts-shadow" d="M458.5 77.5h21v194h-21z"/><path fill="none" stroke="#000" stroke-opacity=".15" class="highcharts-shadow" d="M458.5 77.5h21v194h-21z"/><path fill="#f45b5b" stroke="#fff" class="highcharts-point highcharts-color-0" tabindex="-1" aria-label="2021, 28,684. Boys." style="outline:0" d="M457.5 76.5h21v194h-21z"/></g><g class="highcharts-series highcharts-series-1 highcharts-column-series highcharts-color-1 highcharts-tracker" data-z-index=".1" clip-path="url(#a)" aria-hidden="false" tabindex="-1" aria-label="Girls, bar series 2 of 2 with 6 bars." style="outline:0" transform="translate(65 56)"><path fill="none" stroke="#000" stroke-width="5" stroke-opacity=".05" class="highcharts-shadow" d="M46.5 79.5h21v192h-21z"/><path fill="none" stroke="#000" stroke-width="3" stroke-opacity=".1" class="highcharts-shadow" d="M46.5 79.5h21v192h-21z"/><path fill="none" stroke="#000" stroke-opacity=".15" class="highcharts-shadow" d="M46.5 79.5h21v192h-21z"/><path fill="#8085e9" stroke="#fff" class="highcharts-point highcharts-color-1" tabindex="-1" aria-label="2016, 28,504. Girls." style="outline:0" d="M45.5 78.5h21v192h-21z"/><path fill="none" stroke="#000" stroke-width="5" stroke-opacity=".05" class="highcharts-shadow" d="M134.5 86.5h21v185h-21z"/><path fill="none" stroke="#000" stroke-width="3" stroke-opacity=".1" class="highcharts-shadow" d="M134.5 86.5h21v185h-21z"/><path fill="none" stroke="#000" stroke-opacity=".15" class="highcharts-shadow" d="M134.5 86.5h21v185h-21z"/><path fill="#8085e9" stroke="#fff" class="highcharts-point highcharts-color-1" tabindex="-1" aria-label="2017, 27,460. Girls." style="outline:0" d="M133.5 85.5h21v185h-21z"/><path fill="none" stroke="#000" stroke-width="5" stroke-opacity=".05" class="highcharts-shadow" d="M221.5 91.5h21v180h-21z"/><path fill="none" stroke="#000" stroke-width="3" stroke-opacity=".1" class="highcharts-shadow" d="M221.5 91.5h21v180h-21z"/><path fill="none" stroke="#000" stroke-opacity=".15" class="highcharts-shadow" d="M221.5 91.5h21v180h-21z"/><path fill="#8085e9" stroke="#fff" class="highcharts-point highcharts-color-1" tabindex="-1" aria-label="2018, 26,690. Girls." style="outline:0" d="M220.5 90.5h21v180h-21z"/><path fill="none" stroke="#000" stroke-width="5" stroke-opacity=".05" class="highcharts-shadow" d="M309.5 92.5h21v179h-21z"/><path fill="none" stroke="#000" stroke-width="3" stroke-opacity=".1" class="highcharts-shadow" d="M309.5 92.5h21v179h-21z"/><path fill="none" stroke="#000" stroke-opacity=".15" class="highcharts-shadow" d="M309.5 92.5h21v179h-21z"/><path fill="#8085e9" stroke="#fff" class="highcharts-point highcharts-color-1" tabindex="-1" aria-label="2019, 26,453. Girls." style="outline:0" d="M308.5 91.5h21v179h-21z"/><path fill="none" stroke="#000" stroke-width="5" stroke-opacity=".05" class="highcharts-shadow" d="M396.5 96.5h21v175h-21z"/><path fill="none" stroke="#000" stroke-width="3" stroke-opacity=".1" class="highcharts-shadow" d="M396.5 96.5h21v175h-21z"/><path fill="none" stroke="#000" stroke-opacity=".15" class="highcharts-shadow" d="M396.5 96.5h21v175h-21z"/><path fill="#8085e9" stroke="#fff" class="highcharts-point highcharts-color-1" tabindex="-1" aria-label="2020, 25,916. Girls." style="outline:0" d="M395.5 95.5h21v175h-21z"/><path fill="none" stroke="#000" stroke-width="5" stroke-opacity=".05" class="highcharts-shadow" d="M484.5 86.5h21v185h-21z"/><path fill="none" stroke="#000" stroke-width="3" stroke-opacity=".1" class="highcharts-shadow" d="M484.5 86.5h21v185h-21z"/><path fill="none" stroke="#000" stroke-opacity=".15" class="highcharts-shadow" d="M484.5 86.5h21v185h-21z"/><path fill="#8085e9" stroke="#fff" class="highcharts-point highcharts-color-1" tabindex="-1" aria-label="2021, 27,376. Girls." style="outline:0" d="M483.5 85.5h21v185h-21z"/></g></g><text x="300" text-anchor="middle" class="highcharts-title" data-z-index="4" style="color:#000;font-size:16px;font-weight:700;fill:#000" y="22" aria-hidden="true">Live births in Norway</text><text x="300" text-anchor="middle" class="highcharts-subtitle" data-z-index="4" style="color:#000;fill:#000" y="42" aria-hidden="true">Source: <a target="_blank"><tspan>SSB</tspan></a></text><g class="highcharts-legend highcharts-no-tooltip" data-z-index="7" transform="translate(234 358)" aria-hidden="true"><rect fill="#E0E0E8" class="highcharts-legend-box" rx="0" ry="0" width="132" height="27"/><g data-z-index="1"><g class="highcharts-legend-item highcharts-column-series highcharts-color-0 highcharts-series-0" data-z-index="1" transform="translate(8 3)"><text x="21" data-z-index="2" y="16" style="color:#333;cursor:pointer;font-size:13px;font-weight:700;fill:#333">Boys</text><rect x="1.5" y="4" width="13" height="13" fill="#f45b5b" rx="6.5" ry="6.5" class="highcharts-point" data-z-index="3"/></g><g class="highcharts-legend-item highcharts-column-series highcharts-color-1 highcharts-series-1" data-z-index="1" transform="translate(75.734 3)"><text x="21" y="16" data-z-index="2" style="color:#333;cursor:pointer;font-size:13px;font-weight:700;fill:#333">Girls</text><rect x="1.5" y="4" width="13" height="13" fill="#8085e9" rx="6.5" ry="6.5" class="highcharts-point" data-z-index="3"/></g></g></g><g class="highcharts-axis-labels highcharts-xaxis-labels" data-z-index="7" aria-hidden="true" text-anchor="middle"><text x="108.75" style="color:#6e6e70;cursor:default;font-size:11px;fill:#6e6e70" y="345">2016</text><text x="196.25" style="color:#6e6e70;cursor:default;font-size:11px;fill:#6e6e70" y="345">2017</text><text x="283.75" style="color:#6e6e70;cursor:default;font-size:11px;fill:#6e6e70" y="345">2018</text><text x="371.25" style="color:#6e6e70;cursor:default;font-size:11px;fill:#6e6e70" y="345">2019</text><text x="458.75" style="color:#6e6e70;cursor:default;font-size:11px;fill:#6e6e70" y="345">2020</text><text x="546.25" style="color:#6e6e70;cursor:default;font-size:11px;fill:#6e6e70" y="345">2021</text></g><g class="highcharts-axis-labels highcharts-yaxis-labels" data-z-index="7" aria-hidden="true" text-anchor="end"><text x="50" style="color:#6e6e70;cursor:default;font-size:11px;fill:#6e6e70" y="331">0</text><text x="50" style="color:#6e6e70;cursor:default;font-size:11px;fill:#6e6e70" y="263">10k</text><text x="50" style="color:#6e6e70;cursor:default;font-size:11px;fill:#6e6e70" y="196">20k</text><text x="50" style="color:#6e6e70;cursor:default;font-size:11px;fill:#6e6e70" y="128">30k</text><text x="50" style="color:#6e6e70;cursor:default;font-size:11px;fill:#6e6e70" y="61">40k</text></g></svg>