<svg class="highcharts-root" style="font-family:Signika,serif;font-size:12px" xmlns="http://www.w3.org/2000/svg" width="600" height="400" aria-label="Interactive chart" aria-hidden="false"><defs aria-hidden="true"><clipPath id="a"><path fill="none" d="M0 0h525v270H0z"/></clipPath></defs><rect fill="none" class="highcharts-background" width="600" height="400" rx="0" ry="0" aria-hidden="true"/><path fill="none" class="highcharts-plot-background" aria-hidden="true" d="M65 56h525v270H65z"/><g class="highcharts-grid highcharts-xaxis-grid" data-z-index="1" aria-hidden="true" fill="none"><path data-z-index="1" class="highcharts-grid-line" d="M108.5 56v270m44-270v270m43-270v270m44-270v270m44-270v270m44-270v270m43-270v270m44-270v270m44-270v270m44-270v270m43-270v270m44-270v270M64.5 56v270"/></g><g class="highcharts-grid highcharts-yaxis-grid" data-z-index="1" aria-hidden="true" fill="none" stroke="#e6e6e6"><path data-z-index="1" class="highcharts-grid-line" d="M65 326.5h525m-525-54h525m-525-54h525m-525-54h525m-525-54h525m-525-55h525"/></g><path fill="none" class="highcharts-plot-border" data-z-index="1" aria-hidden="true" d="M65 56h525v270H65z"/><g class="highcharts-axis highcharts-xaxis" data-z-index="2" aria-hidden="true"><path fill="none" class="highcharts-axis-line" stroke="#ccd6eb" data-z-index="7" d="M65 326.5h525"/></g><g class="highcharts-axis highcharts-yaxis" data-z-index="2" aria-hidden="true"><text x="23.5" data-z-index="7" text-anchor="middle" transform="rotate(-90 23.5 191)" class="highcharts-axis-title" style="color:#666;fill:#666" y="191">Rainfall (mm)</text><path fill="none" class="highcharts-axis-line" data-z-index="7" d="M65 56v270"/></g><g class="highcharts-series-group" data-z-index="3" aria-hidden="false"><g class="highcharts-series highcharts-series-0 highcharts-column-series highcharts-color-0 highcharts-tracker" data-z-index=".1" clip-path="url(#a)" aria-hidden="false" tabindex="-1" aria-label="Tokyo, bar series 1 of 4 with 12 bars." style="outline:0" transform="translate(65 56)"><path fill="none" stroke="#000" stroke-width="5" stroke-opacity=".05" class="highcharts-shadow" d="M11 218h4v54h-4z"/><path fill="none" stroke="#000" stroke-width="3" stroke-opacity=".1" class="highcharts-shadow" d="M11 218h4v54h-4z"/><path fill="none" stroke="#000" stroke-opacity=".15" class="highcharts-shadow" d="M11 218h4v54h-4z"/><path fill="#f45b5b" class="highcharts-point highcharts-color-0" tabindex="-1" aria-label="Jan, 49.9. Tokyo." style="outline:0" d="M10 217h4v54h-4z"/><path fill="none" stroke="#000" stroke-width="5" stroke-opacity=".05" class="highcharts-shadow" d="M55 195h4v77h-4z"/><path fill="none" stroke="#000" stroke-width="3" stroke-opacity=".1" class="highcharts-shadow" d="M55 195h4v77h-4z"/><path fill="none" stroke="#000" stroke-opacity=".15" class="highcharts-shadow" d="M55 195h4v77h-4z"/><path fill="#f45b5b" class="highcharts-point highcharts-color-0" tabindex="-1" aria-label="Feb, 71.5. Tokyo." style="outline:0" d="M54 194h4v77h-4z"/><path fill="none" stroke="#000" stroke-width="5" stroke-opacity=".05" class="highcharts-shadow" d="M99 157h4v115h-4z"/><path fill="none" stroke="#000" stroke-width="3" stroke-opacity=".1" class="highcharts-shadow" d="M99 157h4v115h-4z"/><path fill="none" stroke="#000" stroke-opacity=".15" class="highcharts-shadow" d="M99 157h4v115h-4z"/><path fill="#f45b5b" class="highcharts-point highcharts-color-0" tabindex="-1" aria-label="Mar, 106.4. Tokyo." style="outline:0" d="M98 156h4v115h-4z"/><path fill="none" stroke="#000" stroke-width="5" stroke-opacity=".05" class="highcharts-shadow" d="M142 132h4v140h-4z"/><path fill="none" stroke="#000" stroke-width="3" stroke-opacity=".1" class="highcharts-shadow" d="M142 132h4v140h-4z"/><path fill="none" stroke="#000" stroke-opacity=".15" class="highcharts-shadow" d="M142 132h4v140h-4z"/><path fill="#f45b5b" class="highcharts-point highcharts-color-0" tabindex="-1" aria-label="Apr, 129.2. Tokyo." style="outline:0" d="M141 131h4v140h-4z"/><path fill="none" stroke="#000" stroke-width="5" stroke-opacity=".05" class="highcharts-shadow" d="M186 116h4v156h-4z"/><path fill="none" stroke="#000" stroke-width="3" stroke-opacity=".1" class="highcharts-shadow" d="M186 116h4v156h-4z"/><path fill="none" stroke="#000" stroke-opacity=".15" class="highcharts-shadow" d="M186 116h4v156h-4z"/><path fill="#f45b5b" class="highcharts-point highcharts-color-0" tabindex="-1" aria-label="May, 144. Tokyo." style="outline:0" d="M185 115h4v156h-4z"/><path fill="none" stroke="#000" stroke-width="5" stroke-opacity=".05" class="highcharts-shadow" d="M230 82h4v190h-4z"/><path fill="none" stroke="#000" stroke-width="3" stroke-opacity=".1" class="highcharts-shadow" d="M230 82h4v190h-4z"/><path fill="none" stroke="#000" stroke-opacity=".15" class="highcharts-shadow" d="M230 82h4v190h-4z"/><path fill="#f45b5b" class="highcharts-point highcharts-color-0" tabindex="-1" aria-label="Jun, 176. Tokyo." style="outline:0" d="M229 81h4v190h-4z"/><path fill="none" stroke="#000" stroke-width="5" stroke-opacity=".05" class="highcharts-shadow" d="M274 126h4v146h-4z"/><path fill="none" stroke="#000" stroke-width="3" stroke-opacity=".1" class="highcharts-shadow" d="M274 126h4v146h-4z"/><path fill="none" stroke="#000" stroke-opacity=".15" class="highcharts-shadow" d="M274 126h4v146h-4z"/><path fill="#f45b5b" class="highcharts-point highcharts-color-0" tabindex="-1" aria-label="Jul, 135.6. Tokyo." style="outline:0" d="M273 125h4v146h-4z"/><path fill="none" stroke="#000" stroke-width="5" stroke-opacity=".05" class="highcharts-shadow" d="M317 112h4v160h-4z"/><path fill="none" stroke="#000" stroke-width="3" stroke-opacity=".1" class="highcharts-shadow" d="M317 112h4v160h-4z"/><path fill="none" stroke="#000" stroke-opacity=".15" class="highcharts-shadow" d="M317 112h4v160h-4z"/><path fill="#f45b5b" class="highcharts-point highcharts-color-0" tabindex="-1" aria-label="Aug, 148.5. Tokyo." style="outline:0" d="M316 111h4v160h-4z"/><path fill="none" stroke="#000" stroke-width="5" stroke-opacity=".05" class="highcharts-shadow" d="M361 38h4v234h-4z"/><path fill="none" stroke="#000" stroke-width="3" stroke-opacity=".1" class="highcharts-shadow" d="M361 38h4v234h-4z"/><path fill="none" stroke="#000" stroke-opacity=".15" class="highcharts-shadow" d="M361 38h4v234h-4z"/><path fill="#f45b5b" class="highcharts-point highcharts-color-0" tabindex="-1" aria-label="Sep, 216.4. Tokyo." style="outline:0" d="M360 37h4v234h-4z"/><path fill="none" stroke="#000" stroke-width="5" stroke-opacity=".05" class="highcharts-shadow" d="M405 62h4v210h-4z"/><path fill="none" stroke="#000" stroke-width="3" stroke-opacity=".1" class="highcharts-shadow" d="M405 62h4v210h-4z"/><path fill="none" stroke="#000" stroke-opacity=".15" class="highcharts-shadow" d="M405 62h4v210h-4z"/><path fill="#f45b5b" class="highcharts-point highcharts-color-0" tabindex="-1" aria-label="Oct, 194.1. Tokyo." style="outline:0" d="M404 61h4v210h-4z"/><path fill="none" stroke="#000" stroke-width="5" stroke-opacity=".05" class="highcharts-shadow" d="M449 169h4v103h-4z"/><path fill="none" stroke="#000" stroke-width="3" stroke-opacity=".1" class="highcharts-shadow" d="M449 169h4v103h-4z"/><path fill="none" stroke="#000" stroke-opacity=".15" class="highcharts-shadow" d="M449 169h4v103h-4z"/><path fill="#f45b5b" class="highcharts-point highcharts-color-0" tabindex="-1" aria-label="Nov, 95.6. Tokyo." style="outline:0" d="M448 168h4v103h-4z"/><path fill="none" stroke="#000" stroke-width="5" stroke-opacity=".05" class="highcharts-shadow" d="M492 213h4v59h-4z"/><path fill="none" stroke="#000" stroke-width="3" stroke-opacity=".1" class="highcharts-shadow" d="M492 213h4v59h-4z"/><path fill="none" stroke="#000" stroke-opacity=".15" class="highcharts-shadow" d="M492 213h4v59h-4z"/><path fill="#f45b5b" class="highcharts-point highcharts-color-0" tabindex="-1" aria-label="Dec, 54.4. Tokyo." style="outline:0" d="M491 212h4v59h-4z"/></g><g class="highcharts-series highcharts-series-1 highcharts-column-series highcharts-color-1 highcharts-tracker" data-z-index=".1" clip-path="url(#a)" aria-hidden="false" tabindex="-1" aria-label="New York, bar series 2 of 4 with 12 bars." style="outline:0" transform="translate(65 56)"><path fill="none" stroke="#000" stroke-width="5" stroke-opacity=".05" class="highcharts-shadow" d="M18 182h4v90h-4z"/><path fill="none" stroke="#000" stroke-width="3" stroke-opacity=".1" class="highcharts-shadow" d="M18 182h4v90h-4z"/><path fill="none" stroke="#000" stroke-opacity=".15" class="highcharts-shadow" d="M18 182h4v90h-4z"/><path fill="#8085e9" class="highcharts-point highcharts-color-1" tabindex="-1" aria-label="Jan, 83.6. New York." style="outline:0" d="M17 181h4v90h-4z"/><path fill="none" stroke="#000" stroke-width="5" stroke-opacity=".05" class="highcharts-shadow" d="M61 187h4v85h-4z"/><path fill="none" stroke="#000" stroke-width="3" stroke-opacity=".1" class="highcharts-shadow" d="M61 187h4v85h-4z"/><path fill="none" stroke="#000" stroke-opacity=".15" class="highcharts-shadow" d="M61 187h4v85h-4z"/><path fill="#8085e9" class="highcharts-point highcharts-color-1" tabindex="-1" aria-label="Feb, 78.8. New York." style="outline:0" d="M60 186h4v85h-4z"/><path fill="none" stroke="#000" stroke-width="5" stroke-opacity=".05" class="highcharts-shadow" d="M105 166h4v106h-4z"/><path fill="none" stroke="#000" stroke-width="3" stroke-opacity=".1" class="highcharts-shadow" d="M105 166h4v106h-4z"/><path fill="none" stroke="#000" stroke-opacity=".15" class="highcharts-shadow" d="M105 166h4v106h-4z"/><path fill="#8085e9" class="highcharts-point highcharts-color-1" tabindex="-1" aria-label="Mar, 98.5. New York." style="outline:0" d="M104 165h4v106h-4z"/><path fill="none" stroke="#000" stroke-width="5" stroke-opacity=".05" class="highcharts-shadow" d="M149 171h4v101h-4z"/><path fill="none" stroke="#000" stroke-width="3" stroke-opacity=".1" class="highcharts-shadow" d="M149 171h4v101h-4z"/><path fill="none" stroke="#000" stroke-opacity=".15" class="highcharts-shadow" d="M149 171h4v101h-4z"/><path fill="#8085e9" class="highcharts-point highcharts-color-1" tabindex="-1" aria-label="Apr, 93.4. New York." style="outline:0" d="M148 170h4v101h-4z"/><path fill="none" stroke="#000" stroke-width="5" stroke-opacity=".05" class="highcharts-shadow" d="M193 158h4v114h-4z"/><path fill="none" stroke="#000" stroke-width="3" stroke-opacity=".1" class="highcharts-shadow" d="M193 158h4v114h-4z"/><path fill="none" stroke="#000" stroke-opacity=".15" class="highcharts-shadow" d="M193 158h4v114h-4z"/><path fill="#8085e9" class="highcharts-point highcharts-color-1" tabindex="-1" aria-label="May, 106. New York." style="outline:0" d="M192 157h4v114h-4z"/><path fill="none" stroke="#000" stroke-width="5" stroke-opacity=".05" class="highcharts-shadow" d="M236 181h4v91h-4z"/><path fill="none" stroke="#000" stroke-width="3" stroke-opacity=".1" class="highcharts-shadow" d="M236 181h4v91h-4z"/><path fill="none" stroke="#000" stroke-opacity=".15" class="highcharts-shadow" d="M236 181h4v91h-4z"/><path fill="#8085e9" class="highcharts-point highcharts-color-1" tabindex="-1" aria-label="Jun, 84.5. New York." style="outline:0" d="M235 180h4v91h-4z"/><path fill="none" stroke="#000" stroke-width="5" stroke-opacity=".05" class="highcharts-shadow" d="M280 159h4v113h-4z"/><path fill="none" stroke="#000" stroke-width="3" stroke-opacity=".1" class="highcharts-shadow" d="M280 159h4v113h-4z"/><path fill="none" stroke="#000" stroke-opacity=".15" class="highcharts-shadow" d="M280 159h4v113h-4z"/><path fill="#8085e9" class="highcharts-point highcharts-color-1" tabindex="-1" aria-label="Jul, 105. New York." style="outline:0" d="M279 158h4v113h-4z"/><path fill="none" stroke="#000" stroke-width="5" stroke-opacity=".05" class="highcharts-shadow" d="M324 159h4v113h-4z"/><path fill="none" stroke="#000" stroke-width="3" stroke-opacity=".1" class="highcharts-shadow" d="M324 159h4v113h-4z"/><path fill="none" stroke="#000" stroke-opacity=".15" class="highcharts-shadow" d="M324 159h4v113h-4z"/><path fill="#8085e9" class="highcharts-point highcharts-color-1" tabindex="-1" aria-label="Aug, 104.3. New York." style="outline:0" d="M323 158h4v113h-4z"/><path fill="none" stroke="#000" stroke-width="5" stroke-opacity=".05" class="highcharts-shadow" d="M368 174h4v98h-4z"/><path fill="none" stroke="#000" stroke-width="3" stroke-opacity=".1" class="highcharts-shadow" d="M368 174h4v98h-4z"/><path fill="none" stroke="#000" stroke-opacity=".15" class="highcharts-shadow" d="M368 174h4v98h-4z"/><path fill="#8085e9" class="highcharts-point highcharts-color-1" tabindex="-1" aria-label="Sep, 91.2. New York." style="outline:0" d="M367 173h4v98h-4z"/><path fill="none" stroke="#000" stroke-width="5" stroke-opacity=".05" class="highcharts-shadow" d="M411 182h4v90h-4z"/><path fill="none" stroke="#000" stroke-width="3" stroke-opacity=".1" class="highcharts-shadow" d="M411 182h4v90h-4z"/><path fill="none" stroke="#000" stroke-opacity=".15" class="highcharts-shadow" d="M411 182h4v90h-4z"/><path fill="#8085e9" class="highcharts-point highcharts-color-1" tabindex="-1" aria-label="Oct, 83.5. New York." style="outline:0" d="M410 181h4v90h-4z"/><path fill="none" stroke="#000" stroke-width="5" stroke-opacity=".05" class="highcharts-shadow" d="M455 157h4v115h-4z"/><path fill="none" stroke="#000" stroke-width="3" stroke-opacity=".1" class="highcharts-shadow" d="M455 157h4v115h-4z"/><path fill="none" stroke="#000" stroke-opacity=".15" class="highcharts-shadow" d="M455 157h4v115h-4z"/><path fill="#8085e9" class="highcharts-point highcharts-color-1" tabindex="-1" aria-label="Nov, 106.6. New York." style="outline:0" d="M454 156h4v115h-4z"/><path fill="none" stroke="#000" stroke-width="5" stroke-opacity=".05" class="highcharts-shadow" d="M499 172h4v100h-4z"/><path fill="none" stroke="#000" stroke-width="3" stroke-opacity=".1" class="highcharts-shadow" d="M499 172h4v100h-4z"/><path fill="none" stroke="#000" stroke-opacity=".15" class="highcharts-shadow" d="M499 172h4v100h-4z"/><path fill="#8085e9" class="highcharts-point highcharts-color-1" tabindex="-1" aria-label="Dec, 92.3. New York." style="outline:0" d="M498 171h4v100h-4z"/></g><g class="highcharts-series highcharts-series-2 highcharts-column-series highcharts-color-2 highcharts-tracker" data-z-index=".1" clip-path="url(#a)" aria-hidden="false" tabindex="-1" aria-label="London, bar series 3 of 4 with 12 bars." style="outline:0" transform="translate(65 56)"><path fill="none" stroke="#000" stroke-width="5" stroke-opacity=".05" class="highcharts-shadow" d="M24 219h4v53h-4z"/><path fill="none" stroke="#000" stroke-width="3" stroke-opacity=".1" class="highcharts-shadow" d="M24 219h4v53h-4z"/><path fill="none" stroke="#000" stroke-opacity=".15" class="highcharts-shadow" d="M24 219h4v53h-4z"/><path fill="#8d4654" class="highcharts-point highcharts-color-2" tabindex="-1" aria-label="Jan, 48.9. London." style="outline:0" d="M23 218h4v53h-4z"/><path fill="none" stroke="#000" stroke-width="5" stroke-opacity=".05" class="highcharts-shadow" d="M68 230h4v42h-4z"/><path fill="none" stroke="#000" stroke-width="3" stroke-opacity=".1" class="highcharts-shadow" d="M68 230h4v42h-4z"/><path fill="none" stroke="#000" stroke-opacity=".15" class="highcharts-shadow" d="M68 230h4v42h-4z"/><path fill="#8d4654" class="highcharts-point highcharts-color-2" tabindex="-1" aria-label="Feb, 38.8. London." style="outline:0" d="M67 229h4v42h-4z"/><path fill="none" stroke="#000" stroke-width="5" stroke-opacity=".05" class="highcharts-shadow" d="M112 230h4v42h-4z"/><path fill="none" stroke="#000" stroke-width="3" stroke-opacity=".1" class="highcharts-shadow" d="M112 230h4v42h-4z"/><path fill="none" stroke="#000" stroke-opacity=".15" class="highcharts-shadow" d="M112 230h4v42h-4z"/><path fill="#8d4654" class="highcharts-point highcharts-color-2" tabindex="-1" aria-label="Mar, 39.3. London." style="outline:0" d="M111 229h4v42h-4z"/><path fill="none" stroke="#000" stroke-width="5" stroke-opacity=".05" class="highcharts-shadow" d="M155 227h4v45h-4z"/><path fill="none" stroke="#000" stroke-width="3" stroke-opacity=".1" class="highcharts-shadow" d="M155 227h4v45h-4z"/><path fill="none" stroke="#000" stroke-opacity=".15" class="highcharts-shadow" d="M155 227h4v45h-4z"/><path fill="#8d4654" class="highcharts-point highcharts-color-2" tabindex="-1" aria-label="Apr, 41.4. London." style="outline:0" d="M154 226h4v45h-4z"/><path fill="none" stroke="#000" stroke-width="5" stroke-opacity=".05" class="highcharts-shadow" d="M199 221h4v51h-4z"/><path fill="none" stroke="#000" stroke-width="3" stroke-opacity=".1" class="highcharts-shadow" d="M199 221h4v51h-4z"/><path fill="none" stroke="#000" stroke-opacity=".15" class="highcharts-shadow" d="M199 221h4v51h-4z"/><path fill="#8d4654" class="highcharts-point highcharts-color-2" tabindex="-1" aria-label="May, 47. London." style="outline:0" d="M198 220h4v51h-4z"/><path fill="none" stroke="#000" stroke-width="5" stroke-opacity=".05" class="highcharts-shadow" d="M243 220h4v52h-4z"/><path fill="none" stroke="#000" stroke-width="3" stroke-opacity=".1" class="highcharts-shadow" d="M243 220h4v52h-4z"/><path fill="none" stroke="#000" stroke-opacity=".15" class="highcharts-shadow" d="M243 220h4v52h-4z"/><path fill="#8d4654" class="highcharts-point highcharts-color-2" tabindex="-1" aria-label="Jun, 48.3. London." style="outline:0" d="M242 219h4v52h-4z"/><path fill="none" stroke="#000" stroke-width="5" stroke-opacity=".05" class="highcharts-shadow" d="M287 208h4v64h-4z"/><path fill="none" stroke="#000" stroke-width="3" stroke-opacity=".1" class="highcharts-shadow" d="M287 208h4v64h-4z"/><path fill="none" stroke="#000" stroke-opacity=".15" class="highcharts-shadow" d="M287 208h4v64h-4z"/><path fill="#8d4654" class="highcharts-point highcharts-color-2" tabindex="-1" aria-label="Jul, 59. London." style="outline:0" d="M286 207h4v64h-4z"/><path fill="none" stroke="#000" stroke-width="5" stroke-opacity=".05" class="highcharts-shadow" d="M330 208h4v64h-4z"/><path fill="none" stroke="#000" stroke-width="3" stroke-opacity=".1" class="highcharts-shadow" d="M330 208h4v64h-4z"/><path fill="none" stroke="#000" stroke-opacity=".15" class="highcharts-shadow" d="M330 208h4v64h-4z"/><path fill="#8d4654" class="highcharts-point highcharts-color-2" tabindex="-1" aria-label="Aug, 59.6. London." style="outline:0" d="M329 207h4v64h-4z"/><path fill="none" stroke="#000" stroke-width="5" stroke-opacity=".05" class="highcharts-shadow" d="M374 215h4v57h-4z"/><path fill="none" stroke="#000" stroke-width="3" stroke-opacity=".1" class="highcharts-shadow" d="M374 215h4v57h-4z"/><path fill="none" stroke="#000" stroke-opacity=".15" class="highcharts-shadow" d="M374 215h4v57h-4z"/><path fill="#8d4654" class="highcharts-point highcharts-color-2" tabindex="-1" aria-label="Sep, 52.4. London." style="outline:0" d="M373 214h4v57h-4z"/><path fill="none" stroke="#000" stroke-width="5" stroke-opacity=".05" class="highcharts-shadow" d="M418 202h4v70h-4z"/><path fill="none" stroke="#000" stroke-width="3" stroke-opacity=".1" class="highcharts-shadow" d="M418 202h4v70h-4z"/><path fill="none" stroke="#000" stroke-opacity=".15" class="highcharts-shadow" d="M418 202h4v70h-4z"/><path fill="#8d4654" class="highcharts-point highcharts-color-2" tabindex="-1" aria-label="Oct, 65.2. London." style="outline:0" d="M417 201h4v70h-4z"/><path fill="none" stroke="#000" stroke-width="5" stroke-opacity=".05" class="highcharts-shadow" d="M462 208h4v64h-4z"/><path fill="none" stroke="#000" stroke-width="3" stroke-opacity=".1" class="highcharts-shadow" d="M462 208h4v64h-4z"/><path fill="none" stroke="#000" stroke-opacity=".15" class="highcharts-shadow" d="M462 208h4v64h-4z"/><path fill="#8d4654" class="highcharts-point highcharts-color-2" tabindex="-1" aria-label="Nov, 59.3. London." style="outline:0" d="M461 207h4v64h-4z"/><path fill="none" stroke="#000" stroke-width="5" stroke-opacity=".05" class="highcharts-shadow" d="M505 217h4v55h-4z"/><path fill="none" stroke="#000" stroke-width="3" stroke-opacity=".1" class="highcharts-shadow" d="M505 217h4v55h-4z"/><path fill="none" stroke="#000" stroke-opacity=".15" class="highcharts-shadow" d="M505 217h4v55h-4z"/><path fill="#8d4654" class="highcharts-point highcharts-color-2" tabindex="-1" aria-label="Dec, 51.2. London." style="outline:0" d="M504 216h4v55h-4z"/></g><g class="highcharts-series highcharts-series-3 highcharts-column-series highcharts-color-3 highcharts-tracker" data-z-index=".1" clip-path="url(#a)" aria-hidden="false" tabindex="-1" aria-label="Berlin, bar series 4 of 4 with 12 bars." style="outline:0" transform="translate(65 56)"><path fill="none" stroke="#000" stroke-width="5" stroke-opacity=".05" class="highcharts-shadow" d="M31 226h4v46h-4z"/><path fill="none" stroke="#000" stroke-width="3" stroke-opacity=".1" class="highcharts-shadow" d="M31 226h4v46h-4z"/><path fill="none" stroke="#000" stroke-opacity=".15" class="highcharts-shadow" d="M31 226h4v46h-4z"/><path fill="#7798BF" class="highcharts-point highcharts-color-3" tabindex="-1" aria-label="Jan, 42.4. Berlin." style="outline:0" d="M30 225h4v46h-4z"/><path fill="none" stroke="#000" stroke-width="5" stroke-opacity=".05" class="highcharts-shadow" d="M75 236h4v36h-4z"/><path fill="none" stroke="#000" stroke-width="3" stroke-opacity=".1" class="highcharts-shadow" d="M75 236h4v36h-4z"/><path fill="none" stroke="#000" stroke-opacity=".15" class="highcharts-shadow" d="M75 236h4v36h-4z"/><path fill="#7798BF" class="highcharts-point highcharts-color-3" tabindex="-1" aria-label="Feb, 33.2. Berlin." style="outline:0" d="M74 235h4v36h-4z"/><path fill="none" stroke="#000" stroke-width="5" stroke-opacity=".05" class="highcharts-shadow" d="M118 235h4v37h-4z"/><path fill="none" stroke="#000" stroke-width="3" stroke-opacity=".1" class="highcharts-shadow" d="M118 235h4v37h-4z"/><path fill="none" stroke="#000" stroke-opacity=".15" class="highcharts-shadow" d="M118 235h4v37h-4z"/><path fill="#7798BF" class="highcharts-point highcharts-color-3" tabindex="-1" aria-label="Mar, 34.5. Berlin." style="outline:0" d="M117 234h4v37h-4z"/><path fill="none" stroke="#000" stroke-width="5" stroke-opacity=".05" class="highcharts-shadow" d="M162 229h4v43h-4z"/><path fill="none" stroke="#000" stroke-width="3" stroke-opacity=".1" class="highcharts-shadow" d="M162 229h4v43h-4z"/><path fill="none" stroke="#000" stroke-opacity=".15" class="highcharts-shadow" d="M162 229h4v43h-4z"/><path fill="#7798BF" class="highcharts-point highcharts-color-3" tabindex="-1" aria-label="Apr, 39.7. Berlin." style="outline:0" d="M161 228h4v43h-4z"/><path fill="none" stroke="#000" stroke-width="5" stroke-opacity=".05" class="highcharts-shadow" d="M206 215h4v57h-4z"/><path fill="none" stroke="#000" stroke-width="3" stroke-opacity=".1" class="highcharts-shadow" d="M206 215h4v57h-4z"/><path fill="none" stroke="#000" stroke-opacity=".15" class="highcharts-shadow" d="M206 215h4v57h-4z"/><path fill="#7798BF" class="highcharts-point highcharts-color-3" tabindex="-1" aria-label="May, 52.6. Berlin." style="outline:0" d="M205 214h4v57h-4z"/><path fill="none" stroke="#000" stroke-width="5" stroke-opacity=".05" class="highcharts-shadow" d="M250 190h4v82h-4z"/><path fill="none" stroke="#000" stroke-width="3" stroke-opacity=".1" class="highcharts-shadow" d="M250 190h4v82h-4z"/><path fill="none" stroke="#000" stroke-opacity=".15" class="highcharts-shadow" d="M250 190h4v82h-4z"/><path fill="#7798BF" class="highcharts-point highcharts-color-3" tabindex="-1" aria-label="Jun, 75.5. Berlin." style="outline:0" d="M249 189h4v82h-4z"/><path fill="none" stroke="#000" stroke-width="5" stroke-opacity=".05" class="highcharts-shadow" d="M293 210h4v62h-4z"/><path fill="none" stroke="#000" stroke-width="3" stroke-opacity=".1" class="highcharts-shadow" d="M293 210h4v62h-4z"/><path fill="none" stroke="#000" stroke-opacity=".15" class="highcharts-shadow" d="M293 210h4v62h-4z"/><path fill="#7798BF" class="highcharts-point highcharts-color-3" tabindex="-1" aria-label="Jul, 57.4. Berlin." style="outline:0" d="M292 209h4v62h-4z"/><path fill="none" stroke="#000" stroke-width="5" stroke-opacity=".05" class="highcharts-shadow" d="M337 207h4v65h-4z"/><path fill="none" stroke="#000" stroke-width="3" stroke-opacity=".1" class="highcharts-shadow" d="M337 207h4v65h-4z"/><path fill="none" stroke="#000" stroke-opacity=".15" class="highcharts-shadow" d="M337 207h4v65h-4z"/><path fill="#7798BF" class="highcharts-point highcharts-color-3" tabindex="-1" aria-label="Aug, 60.4. Berlin." style="outline:0" d="M336 206h4v65h-4z"/><path fill="none" stroke="#000" stroke-width="5" stroke-opacity=".05" class="highcharts-shadow" d="M381 221h4v51h-4z"/><path fill="none" stroke="#000" stroke-width="3" stroke-opacity=".1" class="highcharts-shadow" d="M381 221h4v51h-4z"/><path fill="none" stroke="#000" stroke-opacity=".15" class="highcharts-shadow" d="M381 221h4v51h-4z"/><path fill="#7798BF" class="highcharts-point highcharts-color-3" tabindex="-1" aria-label="Sep, 47.6. Berlin." style="outline:0" d="M380 220h4v51h-4z"/><path fill="none" stroke="#000" stroke-width="5" stroke-opacity=".05" class="highcharts-shadow" d="M425 230h4v42h-4z"/><path fill="none" stroke="#000" stroke-width="3" stroke-opacity=".1" class="highcharts-shadow" d="M425 230h4v42h-4z"/><path fill="none" stroke="#000" stroke-opacity=".15" class="highcharts-shadow" d="M425 230h4v42h-4z"/><path fill="#7798BF" class="highcharts-point highcharts-color-3" tabindex="-1" aria-label="Oct, 39.1. Berlin." style="outline:0" d="M424 229h4v42h-4z"/><path fill="none" stroke="#000" stroke-width="5" stroke-opacity=".05" class="highcharts-shadow" d="M468 221h4v51h-4z"/><path fill="none" stroke="#000" stroke-width="3" stroke-opacity=".1" class="highcharts-shadow" d="M468 221h4v51h-4z"/><path fill="none" stroke="#000" stroke-opacity=".15" class="highcharts-shadow" d="M468 221h4v51h-4z"/><path fill="#7798BF" class="highcharts-point highcharts-color-3" tabindex="-1" aria-label="Nov, 46.8. Berlin." style="outline:0" d="M467 220h4v51h-4z"/><path fill="none" stroke="#000" stroke-width="5" stroke-opacity=".05" class="highcharts-shadow" d="M512 217h4v55h-4z"/><path fill="none" stroke="#000" stroke-width="3" stroke-opacity=".1" class="highcharts-shadow" d="M512 217h4v55h-4z"/><path fill="none" stroke="#000" stroke-opacity=".15" class="highcharts-shadow" d="M512 217h4v55h-4z"/><path fill="#7798BF" class="highcharts-point highcharts-color-3" tabindex="-1" aria-label="Dec, 51.1. Berlin." style="outline:0" d="M511 216h4v55h-4z"/></g></g><text x="300" text-anchor="middle" class="highcharts-title" data-z-index="4" style="color:#000;font-size:16px;font-weight:700;fill:#000" y="22" aria-hidden="true">Monthly Average Rainfall</text><text x="300" text-anchor="middle" class="highcharts-subtitle" data-z-index="4" style="color:#000;fill:#000" y="42" aria-hidden="true">Source: WorldClimate.com</text><g class="highcharts-legend highcharts-no-tooltip" data-z-index="7" transform="translate(136 358)" aria-hidden="true"><rect fill="#E0E0E8" class="highcharts-legend-box" rx="0" ry="0" width="327" height="27"/><g data-z-index="1"><g class="highcharts-legend-item highcharts-column-series highcharts-color-0 highcharts-series-0" data-z-index="1" transform="translate(8 3)"><text x="21" data-z-index="2" y="16" style="color:#333;cursor:pointer;font-size:13px;font-weight:700;fill:#333">Tokyo</text><rect x="1.5" y="4" width="13" height="13" fill="#f45b5b" rx="6.5" ry="6.5" class="highcharts-point" data-z-index="3"/></g><g class="highcharts-legend-item highcharts-column-series highcharts-color-1 highcharts-series-1" data-z-index="1" transform="translate(83.21 3)"><text x="21" y="16" data-z-index="2" style="color:#333;cursor:pointer;font-size:13px;font-weight:700;fill:#333">New York</text><rect x="1.5" y="4" width="13" height="13" fill="#8085e9" rx="6.5" ry="6.5" class="highcharts-point" data-z-index="3"/></g><g class="highcharts-legend-item highcharts-column-series highcharts-color-2 highcharts-series-2" data-z-index="1" transform="translate(179.093 3)"><text x="21" y="16" data-z-index="2" style="color:#333;cursor:pointer;font-size:13px;font-weight:700;fill:#333">London</text><rect x="1.5" y="4" width="13" height="13" fill="#8d4654" rx="6.5" ry="6.5" class="highcharts-point" data-z-index="3"/></g><g class="highcharts-legend-item highcharts-column-series highcharts-color-3 highcharts-series-3" data-z-index="1" transform="translate(263.46 3)"><text x="21" y="16" data-z-index="2" style="color:#333;cursor:pointer;font-size:13px;font-weight:700;fill:#333">Berlin</text><rect x="1.5" y="4" width="13" height="13" fill="#7798BF" rx="6.5" ry="6.5" class="highcharts-point" data-z-index="3"/></g></g></g><g class="highcharts-axis-labels highcharts-xaxis-labels" data-z-index="7" aria-hidden="true" text-anchor="middle"><text x="86.875" style="color:#6e6e70;cursor:default;font-size:11px;fill:#6e6e70" y="345">Jan</text><text x="130.625" style="color:#6e6e70;cursor:default;font-size:11px;fill:#6e6e70" y="345">Feb</text><text x="174.375" style="color:#6e6e70;cursor:default;font-size:11px;fill:#6e6e70" y="345">Mar</text><text x="218.125" style="color:#6e6e70;cursor:default;font-size:11px;fill:#6e6e70" y="345">Apr</text><text x="261.875" style="color:#6e6e70;cursor:default;font-size:11px;fill:#6e6e70" y="345">May</text><text x="305.625" style="color:#6e6e70;cursor:default;font-size:11px;fill:#6e6e70" y="345">Jun</text><text x="349.375" style="color:#6e6e70;cursor:default;font-size:11px;fill:#6e6e70" y="345">Jul</text><text x="393.125" style="color:#6e6e70;cursor:default;font-size:11px;fill:#6e6e70" y="345">Aug</text><text x="436.875" style="color:#6e6e70;cursor:default;font-size:11px;fill:#6e6e70" y="345">Sep</text><text x="480.625" style="color:#6e6e70;cursor:default;font-size:11px;fill:#6e6e70" y="345">Oct</text><text x="524.375" style="color:#6e6e70;cursor:default;font-size:11px;fill:#6e6e70" y="345">Nov</text><text x="568.125" style="color:#6e6e70;cursor:default;font-size:11px;fill:#6e6e70" y="345">Dec</text></g><g class="highcharts-axis-labels highcharts-yaxis-labels" data-z-index="7" aria-hidden="true" text-anchor="end"><text x="50" style="color:#6e6e70;cursor:default;font-size:11px;fill:#6e6e70" y="331">0</text><text x="50" style="color:#6e6e70;cursor:default;font-size:11px;fill:#6e6e70" y="277">50</text><text x="50" style="color:#6e6e70;cursor:default;font-size:11px;fill:#6e6e70" y="223">100</text><text x="50" style="color:#6e6e70;cursor:default;font-size:11px;fill:#6e6e70" y="169">150</text><text x="50" style="color:#6e6e70;cursor:default;font-size:11px;fill:#6e6e70" y="115">200</text><text x="50" style="color:#6e6e70;cursor:default;font-size:11px;fill:#6e6e70" y="61">250</text></g></svg>