<svg class="highcharts-root" style="font-family:Signika,serif;font-size:12px" xmlns="http://www.w3.org/2000/svg" width="600" height="400" aria-label="Interactive chart" aria-hidden="false"><defs aria-hidden="true"><clipPath id="a"><path fill="none" d="M0 0h531v276H0z"/></clipPath></defs><rect fill="none" class="highcharts-background" width="600" height="400" rx="0" ry="0" aria-hidden="true"/><path fill="none" class="highcharts-plot-background" aria-hidden="true" d="M59 56h531v276H59z"/><g class="highcharts-grid highcharts-xaxis-grid" data-z-index="1" aria-hidden="true" fill="none"><path data-z-index="1" class="highcharts-grid-line" d="M164.5 56v276m106-276v276m107-276v276m106-276v276m106-276v276M58.5 56v276"/></g><g class="highcharts-grid highcharts-yaxis-grid" data-z-index="1" aria-hidden="true" fill="none" stroke="#e6e6e6"><path data-z-index="1" class="highcharts-grid-line" d="M59 332.5h531m-531-55h531m-531-55h531m-531-56h531m-531-55h531m-531-56h531"/></g><path fill="none" class="highcharts-plot-border" data-z-index="1" aria-hidden="true" d="M59 56h531v276H59z"/><g class="highcharts-axis highcharts-xaxis" data-z-index="2" aria-hidden="true"><path fill="none" class="highcharts-axis-line" stroke="#ccd6eb" data-z-index="7" d="M59 332.5h531"/></g><g class="highcharts-axis highcharts-yaxis" data-z-index="2" aria-hidden="true"><text x="23" data-z-index="7" text-anchor="middle" transform="rotate(-90 23 194)" class="highcharts-axis-title" style="color:#666;fill:#666" y="194">Gold medals</text><path fill="none" class="highcharts-axis-line" data-z-index="7" d="M59 56v276"/></g><g class="highcharts-series-group" data-z-index="3" aria-hidden="false"><g class="highcharts-series highcharts-series-0 highcharts-column-series highcharts-tracker" data-z-index=".1" clip-path="url(#a)" aria-hidden="false" tabindex="-1" aria-label="2016, bar series 1 of 2 with 8 bars." style="outline:0" transform="translate(59 56)"><path fill="none" stroke="#000" stroke-width="5" stroke-opacity=".05" class="highcharts-shadow" d="M751 228h51v50h-51z"/><path fill="none" stroke="#000" stroke-width="3" stroke-opacity=".1" class="highcharts-shadow" d="M751 228h51v50h-51z"/><path fill="none" stroke="#000" stroke-opacity=".15" class="highcharts-shadow" d="M751 228h51v50h-51z"/><path fill="#9E9FA3" class="highcharts-point" tabindex="-1" aria-label="South Korea, 9. 2016." style="outline:0" d="M750 227h51v50h-51z"/><path fill="none" stroke="#000" stroke-width="5" stroke-opacity=".05" class="highcharts-shadow" d="M220 212h51v66h-51z"/><path fill="none" stroke="#000" stroke-width="3" stroke-opacity=".1" class="highcharts-shadow" d="M220 212h51v66h-51z"/><path fill="none" stroke="#000" stroke-opacity=".15" class="highcharts-shadow" d="M220 212h51v66h-51z"/><path fill="#9E9FA3" class="highcharts-point" tabindex="-1" aria-label="Japan, 12. 2016." style="outline:0" d="M219 211h51v66h-51z"/><path fill="none" stroke="#000" stroke-width="5" stroke-opacity=".05" class="highcharts-shadow" d="M538 234h51v44h-51z"/><path fill="none" stroke="#000" stroke-width="3" stroke-opacity=".1" class="highcharts-shadow" d="M538 234h51v44h-51z"/><path fill="none" stroke="#000" stroke-opacity=".15" class="highcharts-shadow" d="M538 234h51v44h-51z"/><path fill="#9E9FA3" class="highcharts-point" tabindex="-1" aria-label="Australia, 8. 2016." style="outline:0" d="M537 233h51v44h-51z"/><path fill="none" stroke="#000" stroke-width="5" stroke-opacity=".05" class="highcharts-shadow" d="M645 184h51v94h-51z"/><path fill="none" stroke="#000" stroke-width="3" stroke-opacity=".1" class="highcharts-shadow" d="M645 184h51v94h-51z"/><path fill="none" stroke="#000" stroke-opacity=".15" class="highcharts-shadow" d="M645 184h51v94h-51z"/><path fill="#9E9FA3" class="highcharts-point" tabindex="-1" aria-label="Germany, 17. 2016." style="outline:0" d="M644 183h51v94h-51z"/><path fill="none" stroke="#000" stroke-width="5" stroke-opacity=".05" class="highcharts-shadow" d="M432 173h51v105h-51z"/><path fill="none" stroke="#000" stroke-width="3" stroke-opacity=".1" class="highcharts-shadow" d="M432 173h51v105h-51z"/><path fill="none" stroke="#000" stroke-opacity=".15" class="highcharts-shadow" d="M432 173h51v105h-51z"/><path fill="#9E9FA3" class="highcharts-point" tabindex="-1" aria-label="Russia, 19. 2016." style="outline:0" d="M431 172h51v105h-51z"/><path fill="none" stroke="#000" stroke-width="5" stroke-opacity=".05" class="highcharts-shadow" d="M114 134h51v144h-51z"/><path fill="none" stroke="#000" stroke-width="3" stroke-opacity=".1" class="highcharts-shadow" d="M114 134h51v144h-51z"/><path fill="none" stroke="#000" stroke-opacity=".15" class="highcharts-shadow" d="M114 134h51v144h-51z"/><path fill="#9E9FA3" class="highcharts-point" tabindex="-1" aria-label="China, 26. 2016." style="outline:0" d="M113 133h51v144h-51z"/><path fill="none" stroke="#000" stroke-width="5" stroke-opacity=".05" class="highcharts-shadow" d="M326 129h51v149h-51z"/><path fill="none" stroke="#000" stroke-width="3" stroke-opacity=".1" class="highcharts-shadow" d="M326 129h51v149h-51z"/><path fill="none" stroke="#000" stroke-opacity=".15" class="highcharts-shadow" d="M326 129h51v149h-51z"/><path fill="#9E9FA3" class="highcharts-point" tabindex="-1" aria-label="Great Britain, 27. 2016." style="outline:0" d="M325 128h51v149h-51z"/><path fill="none" stroke="#000" stroke-width="5" stroke-opacity=".05" class="highcharts-shadow" d="M7 24h51v254H7z"/><path fill="none" stroke="#000" stroke-width="3" stroke-opacity=".1" class="highcharts-shadow" d="M7 24h51v254H7z"/><path fill="none" stroke="#000" stroke-opacity=".15" class="highcharts-shadow" d="M7 24h51v254H7z"/><path fill="#9E9FA3" class="highcharts-point" tabindex="-1" aria-label="United States, 46. 2016." style="outline:0" d="M6 23h51v254H6z"/></g><g class="highcharts-series highcharts-series-1 highcharts-column-series highcharts-color-0 highcharts-tracker" data-z-index=".1" clip-path="url(#a)" aria-hidden="false" tabindex="-1" aria-label="2020, bar series 2 of 2 with 8 bars." style="outline:0" transform="translate(59 56)"><path fill="none" stroke="#000" stroke-width="5" stroke-opacity=".05" class="highcharts-shadow" d="M772 245h51v33h-51z"/><path fill="none" stroke="#000" stroke-width="3" stroke-opacity=".1" class="highcharts-shadow" d="M772 245h51v33h-51z"/><path fill="none" stroke="#000" stroke-opacity=".15" class="highcharts-shadow" d="M772 245h51v33h-51z"/><path fill="#C92427" class="highcharts-point highcharts-color-0" tabindex="-1" aria-label="South Korea, 6. 2020." style="outline:0" d="M771 244h51v33h-51z"/><path fill="none" stroke="#000" stroke-width="5" stroke-opacity=".05" class="highcharts-shadow" d="M241 129h51v149h-51z"/><path fill="none" stroke="#000" stroke-width="3" stroke-opacity=".1" class="highcharts-shadow" d="M241 129h51v149h-51z"/><path fill="none" stroke="#000" stroke-opacity=".15" class="highcharts-shadow" d="M241 129h51v149h-51z"/><path fill="#C92427" class="highcharts-point highcharts-color-0" tabindex="-1" aria-label="Japan, 27. 2020." style="outline:0" d="M240 128h51v149h-51z"/><path fill="none" stroke="#000" stroke-width="5" stroke-opacity=".05" class="highcharts-shadow" d="M560 184h51v94h-51z"/><path fill="none" stroke="#000" stroke-width="3" stroke-opacity=".1" class="highcharts-shadow" d="M560 184h51v94h-51z"/><path fill="none" stroke="#000" stroke-opacity=".15" class="highcharts-shadow" d="M560 184h51v94h-51z"/><path fill="#0052B4" class="highcharts-point highcharts-color-0" tabindex="-1" aria-label="Australia, 17. 2020." style="outline:0" d="M559 183h51v94h-51z"/><path fill="none" stroke="#000" stroke-width="5" stroke-opacity=".05" class="highcharts-shadow" d="M666 223h51v55h-51z"/><path fill="none" stroke="#000" stroke-width="3" stroke-opacity=".1" class="highcharts-shadow" d="M666 223h51v55h-51z"/><path fill="none" stroke="#000" stroke-opacity=".15" class="highcharts-shadow" d="M666 223h51v55h-51z"/><path class="highcharts-point highcharts-color-0" tabindex="-1" aria-label="Germany, 10. 2020." style="outline:0" d="M665 222h51v55h-51z"/><path fill="none" stroke="#000" stroke-width="5" stroke-opacity=".05" class="highcharts-shadow" d="M453 168h51v110h-51z"/><path fill="none" stroke="#000" stroke-width="3" stroke-opacity=".1" class="highcharts-shadow" d="M453 168h51v110h-51z"/><path fill="none" stroke="#000" stroke-opacity=".15" class="highcharts-shadow" d="M453 168h51v110h-51z"/><path fill="#F0F0F0" class="highcharts-point highcharts-color-0" tabindex="-1" aria-label="Russia, 20. 2020." style="outline:0" d="M452 167h51v110h-51z"/><path fill="none" stroke="#000" stroke-width="5" stroke-opacity=".05" class="highcharts-shadow" d="M135 68h51v210h-51z"/><path fill="none" stroke="#000" stroke-width="3" stroke-opacity=".1" class="highcharts-shadow" d="M135 68h51v210h-51z"/><path fill="none" stroke="#000" stroke-opacity=".15" class="highcharts-shadow" d="M135 68h51v210h-51z"/><path fill="#FFD944" class="highcharts-point highcharts-color-0" tabindex="-1" aria-label="China, 38. 2020." style="outline:0" d="M134 67h51v210h-51z"/><path fill="none" stroke="#000" stroke-width="5" stroke-opacity=".05" class="highcharts-shadow" d="M347 157h51v121h-51z"/><path fill="none" stroke="#000" stroke-width="3" stroke-opacity=".1" class="highcharts-shadow" d="M347 157h51v121h-51z"/><path fill="none" stroke="#000" stroke-opacity=".15" class="highcharts-shadow" d="M347 157h51v121h-51z"/><path fill="#0052B4" class="highcharts-point highcharts-color-0" tabindex="-1" aria-label="Great Britain, 22. 2020." style="outline:0" d="M346 156h51v121h-51z"/><path fill="none" stroke="#000" stroke-width="5" stroke-opacity=".05" class="highcharts-shadow" d="M29 63h51v215H29z"/><path fill="none" stroke="#000" stroke-width="3" stroke-opacity=".1" class="highcharts-shadow" d="M29 63h51v215H29z"/><path fill="none" stroke="#000" stroke-opacity=".15" class="highcharts-shadow" d="M29 63h51v215H29z"/><path fill="#D70026" class="highcharts-point highcharts-color-0" tabindex="-1" aria-label="United States, 39. 2020." style="outline:0" d="M28 62h51v215H28z"/></g></g><text x="10" class="highcharts-title" data-z-index="4" style="color:#000;font-size:16px;font-weight:700;fill:#000" y="22" aria-hidden="true">Summer Olympics 2020 - Top 5 countries by Gold medals</text><text x="10" class="highcharts-subtitle" data-z-index="4" style="color:#000;fill:#000" y="42" aria-hidden="true">Comparing to results from Summer Olympics 2016 - Source: <a target="_blank"><tspan>Olympics</tspan></a></text><g class="highcharts-data-labels highcharts-series-1 highcharts-column-series highcharts-color-0 highcharts-tracker" data-z-index="6" aria-hidden="true"><text x="5" data-z-index="1" y="20" style="color:#fff;font-size:16px;font-weight:700;fill:#fff" transform="translate(847 302)" class="highcharts-label highcharts-data-label highcharts-data-label-color-0"><tspan class="highcharts-text-outline" fill="#000" stroke="#000" stroke-width="2" stroke-linejoin="round">6<tspan x="5" dy="0">​</tspan></tspan>6</text><text x="5" data-z-index="1" y="20" style="color:#fff;font-size:16px;font-weight:700;fill:#fff" transform="translate(312 244)" class="highcharts-label highcharts-data-label highcharts-data-label-color-0"><tspan class="highcharts-text-outline" fill="#000" stroke="#000" stroke-width="2" stroke-linejoin="round">27<tspan x="5" dy="0">​</tspan></tspan>27</text><text x="5" data-z-index="1" y="20" style="color:#fff;font-size:16px;font-weight:700;fill:#fff" transform="translate(631 272)" class="highcharts-label highcharts-data-label highcharts-data-label-color-0"><tspan class="highcharts-text-outline" fill="#000" stroke="#000" stroke-width="2" stroke-linejoin="round">17<tspan x="5" dy="0">​</tspan></tspan>17</text><text x="5" data-z-index="1" y="20" style="color:#fff;font-size:16px;font-weight:700;fill:#fff" transform="translate(737 291)" class="highcharts-label highcharts-data-label highcharts-data-label-color-0"><tspan class="highcharts-text-outline" fill="#000" stroke="#000" stroke-width="2" stroke-linejoin="round">10<tspan x="5" dy="0">​</tspan></tspan>10</text><text x="5" data-z-index="1" y="20" style="color:#000;font-size:16px;font-weight:700;fill:#000" transform="translate(524 264)" class="highcharts-label highcharts-data-label highcharts-data-label-color-0"><tspan class="highcharts-text-outline" fill="#FFF" stroke="#FFF" stroke-width="2" stroke-linejoin="round">20<tspan x="5" dy="0">​</tspan></tspan>20</text><text x="5" data-z-index="1" y="20" style="color:#000;font-size:16px;font-weight:700;fill:#000" transform="translate(206 214)" class="highcharts-label highcharts-data-label highcharts-data-label-color-0"><tspan class="highcharts-text-outline" fill="#FFF" stroke="#FFF" stroke-width="2" stroke-linejoin="round">38<tspan x="5" dy="0">​</tspan></tspan>38</text><text x="5" data-z-index="1" y="20" style="color:#fff;font-size:16px;font-weight:700;fill:#fff" transform="translate(418 258)" class="highcharts-label highcharts-data-label highcharts-data-label-color-0"><tspan class="highcharts-text-outline" fill="#000" stroke="#000" stroke-width="2" stroke-linejoin="round">22<tspan x="5" dy="0">​</tspan></tspan>22</text><text x="5" data-z-index="1" y="20" style="color:#fff;font-size:16px;font-weight:700;fill:#fff" transform="translate(100 211)" class="highcharts-label highcharts-data-label highcharts-data-label-color-0"><tspan class="highcharts-text-outline" fill="#000" stroke="#000" stroke-width="2" stroke-linejoin="round">39<tspan x="5" dy="0">​</tspan></tspan>39</text></g><g class="highcharts-axis-labels highcharts-yaxis-labels" data-z-index="7" aria-hidden="true" text-anchor="end"><text x="44" style="color:#6e6e70;cursor:default;font-size:11px;fill:#6e6e70" y="282">10</text><text x="44" style="color:#6e6e70;cursor:default;font-size:11px;fill:#6e6e70" y="226">20</text><text x="44" style="color:#6e6e70;cursor:default;font-size:11px;fill:#6e6e70" y="171">30</text><text x="44" style="color:#6e6e70;cursor:default;font-size:11px;fill:#6e6e70" y="116">40</text><text x="44" style="color:#6e6e70;cursor:default;font-size:11px;fill:#6e6e70" y="61">50</text></g></svg>