<svg class="highcharts-root" style="font-family:Signika,serif;font-size:12px" xmlns="http://www.w3.org/2000/svg" width="600" height="400" aria-label="Interactive chart" aria-hidden="false"><defs aria-hidden="true"><clipPath id="a"><path fill="none" d="M0 0h531v322H0z"/></clipPath></defs><rect fill="none" class="highcharts-background" width="600" height="400" rx="0" ry="0" aria-hidden="true"/><path fill="none" class="highcharts-plot-background" aria-hidden="true" d="M59 43h531v322H59z"/><g class="highcharts-grid highcharts-xaxis-grid" data-z-index="1" aria-hidden="true" fill="none"><path data-z-index="1" class="highcharts-grid-line" d="M191.5 43v322m133-322v322m132-322v322m133-322v322M58.5 43v322"/></g><g class="highcharts-grid highcharts-yaxis-grid" data-z-index="1" aria-hidden="true" fill="none" stroke="#e6e6e6"><path data-z-index="1" class="highcharts-grid-line" d="M59 365.5h531m-531-54h531m-531-53h531m-531-54h531m-531-54h531m-531-53h531m-531-55h531"/></g><path fill="none" class="highcharts-plot-border" data-z-index="1" aria-hidden="true" d="M59 43h531v322H59z"/><g class="highcharts-axis highcharts-xaxis" data-z-index="2" aria-hidden="true"><path fill="none" class="highcharts-axis-line" stroke="#ccd6eb" data-z-index="7" d="M59 365.5h531"/></g><g class="highcharts-axis highcharts-yaxis" data-z-index="2" aria-hidden="true"><text x="23" data-z-index="7" text-anchor="middle" transform="rotate(-90 23 204)" class="highcharts-axis-title" style="color:#666;fill:#666" y="204">Count trophies</text><path fill="none" class="highcharts-axis-line" data-z-index="7" d="M59 43v322"/></g><g class="highcharts-series-group" data-z-index="3" aria-hidden="false"><g class="highcharts-series highcharts-series-0 highcharts-column-series highcharts-color-0 highcharts-tracker" data-z-index=".1" clip-path="url(#a)" aria-hidden="false" tabindex="-1" aria-label="BPL, bar series 1 of 3 with 4 bars." style="outline:0" transform="translate(59 43)"><path fill="none" stroke="#000" stroke-width="5" stroke-opacity=".05" class="highcharts-shadow" d="M35.5 141.5h64v27h-64z"/><path fill="none" stroke="#000" stroke-width="3" stroke-opacity=".1" class="highcharts-shadow" d="M35.5 141.5h64v29h-64z"/><path fill="none" stroke="#000" stroke-opacity=".15" class="highcharts-shadow" d="M35.5 141.5h64v31h-64z"/><path fill="#f45b5b" stroke="#fff" class="highcharts-point highcharts-color-0" tabindex="-1" aria-label="Arsenal, 3. BPL." style="outline:0" d="M34.5 140.5h64v32h-64z"/><path fill="none" stroke="#000" stroke-width="5" stroke-opacity=".05" class="highcharts-shadow" d="M167.5 162.5h64v49h-64z"/><path fill="none" stroke="#000" stroke-width="3" stroke-opacity=".1" class="highcharts-shadow" d="M167.5 162.5h64v51h-64z"/><path fill="none" stroke="#000" stroke-opacity=".15" class="highcharts-shadow" d="M167.5 162.5h64v53h-64z"/><path fill="#f45b5b" stroke="#fff" class="highcharts-point highcharts-color-0" tabindex="-1" aria-label="Chelsea, 5. BPL." style="outline:0" d="M166.5 161.5h64v54h-64z"/><path fill="none" stroke="#000" stroke-width="5" stroke-opacity=".05" class="highcharts-shadow" d="M300.5 162.5h64v6h-64z"/><path fill="none" stroke="#000" stroke-width="3" stroke-opacity=".1" class="highcharts-shadow" d="M300.5 162.5h64v8h-64z"/><path fill="none" stroke="#000" stroke-opacity=".15" class="highcharts-shadow" d="M300.5 162.5h64v10h-64z"/><path fill="#f45b5b" stroke="#fff" class="highcharts-point highcharts-color-0" tabindex="-1" aria-label="Liverpool, 1. BPL." style="outline:0" d="M299.5 161.5h64v11h-64z"/><path fill="none" stroke="#000" stroke-width="5" stroke-opacity=".05" class="highcharts-shadow" d="M433.5 22.5h64v135h-64z"/><path fill="none" stroke="#000" stroke-width="3" stroke-opacity=".1" class="highcharts-shadow" d="M433.5 22.5h64v137h-64z"/><path fill="none" stroke="#000" stroke-opacity=".15" class="highcharts-shadow" d="M433.5 22.5h64v139h-64z"/><path fill="#f45b5b" stroke="#fff" class="highcharts-point highcharts-color-0" tabindex="-1" aria-label="Manchester United, 13. BPL." style="outline:0" d="M432.5 21.5h64v140h-64z"/></g><g class="highcharts-series highcharts-series-1 highcharts-column-series highcharts-color-1 highcharts-tracker" data-z-index=".1" clip-path="url(#a)" aria-hidden="false" tabindex="-1" aria-label="FA Cup, bar series 2 of 3 with 4 bars." style="outline:0" transform="translate(59 43)"><path fill="none" stroke="#000" stroke-width="5" stroke-opacity=".05" class="highcharts-shadow" d="M35.5 173.5h64v145h-64z"/><path fill="none" stroke="#000" stroke-width="3" stroke-opacity=".1" class="highcharts-shadow" d="M35.5 173.5h64v147h-64z"/><path fill="none" stroke="#000" stroke-opacity=".15" class="highcharts-shadow" d="M35.5 173.5h64v149h-64z"/><path fill="#8085e9" stroke="#fff" class="highcharts-point highcharts-color-1" tabindex="-1" aria-label="Arsenal, 14. FA Cup." style="outline:0" d="M34.5 172.5h64v150h-64z"/><path fill="none" stroke="#000" stroke-width="5" stroke-opacity=".05" class="highcharts-shadow" d="M167.5 216.5h64v81h-64z"/><path fill="none" stroke="#000" stroke-width="3" stroke-opacity=".1" class="highcharts-shadow" d="M167.5 216.5h64v83h-64z"/><path fill="none" stroke="#000" stroke-opacity=".15" class="highcharts-shadow" d="M167.5 216.5h64v85h-64z"/><path fill="#8085e9" stroke="#fff" class="highcharts-point highcharts-color-1" tabindex="-1" aria-label="Chelsea, 8. FA Cup." style="outline:0" d="M166.5 215.5h64v86h-64z"/><path fill="none" stroke="#000" stroke-width="5" stroke-opacity=".05" class="highcharts-shadow" d="M300.5 173.5h64v81h-64z"/><path fill="none" stroke="#000" stroke-width="3" stroke-opacity=".1" class="highcharts-shadow" d="M300.5 173.5h64v83h-64z"/><path fill="none" stroke="#000" stroke-opacity=".15" class="highcharts-shadow" d="M300.5 173.5h64v85h-64z"/><path fill="#8085e9" stroke="#fff" class="highcharts-point highcharts-color-1" tabindex="-1" aria-label="Liverpool, 8. FA Cup." style="outline:0" d="M299.5 172.5h64v86h-64z"/><path fill="none" stroke="#000" stroke-width="5" stroke-opacity=".05" class="highcharts-shadow" d="M433.5 162.5h64v124h-64z"/><path fill="none" stroke="#000" stroke-width="3" stroke-opacity=".1" class="highcharts-shadow" d="M433.5 162.5h64v126h-64z"/><path fill="none" stroke="#000" stroke-opacity=".15" class="highcharts-shadow" d="M433.5 162.5h64v128h-64z"/><path fill="#8085e9" stroke="#fff" class="highcharts-point highcharts-color-1" tabindex="-1" aria-label="Manchester United, 12. FA Cup." style="outline:0" d="M432.5 161.5h64v129h-64z"/></g><g class="highcharts-series highcharts-series-2 highcharts-column-series highcharts-color-2 highcharts-tracker" data-z-index=".1" clip-path="url(#a)" aria-hidden="false" tabindex="-1" aria-label="CL, bar series 3 of 3 with 4 bars." style="outline:0" transform="translate(59 43)"><path fill="none" stroke="#000" stroke-width="5" stroke-opacity=".05" class="highcharts-shadow" d="M167.5 302.5h64v16h-64z"/><path fill="none" stroke="#000" stroke-width="3" stroke-opacity=".1" class="highcharts-shadow" d="M167.5 302.5h64v18h-64z"/><path fill="none" stroke="#000" stroke-opacity=".15" class="highcharts-shadow" d="M167.5 302.5h64v20h-64z"/><path fill="#8d4654" stroke="#fff" class="highcharts-point highcharts-color-2" tabindex="-1" aria-label="Chelsea, 2. CL." style="outline:0" d="M166.5 301.5h64v21h-64z"/><path fill="none" stroke="#000" stroke-width="5" stroke-opacity=".05" class="highcharts-shadow" d="M300.5 259.5h64v59h-64z"/><path fill="none" stroke="#000" stroke-width="3" stroke-opacity=".1" class="highcharts-shadow" d="M300.5 259.5h64v61h-64z"/><path fill="none" stroke="#000" stroke-opacity=".15" class="highcharts-shadow" d="M300.5 259.5h64v63h-64z"/><path fill="#8d4654" stroke="#fff" class="highcharts-point highcharts-color-2" tabindex="-1" aria-label="Liverpool, 6. CL." style="outline:0" d="M299.5 258.5h64v64h-64z"/><path fill="none" stroke="#000" stroke-width="5" stroke-opacity=".05" class="highcharts-shadow" d="M433.5 291.5h64v27h-64z"/><path fill="none" stroke="#000" stroke-width="3" stroke-opacity=".1" class="highcharts-shadow" d="M433.5 291.5h64v29h-64z"/><path fill="none" stroke="#000" stroke-opacity=".15" class="highcharts-shadow" d="M433.5 291.5h64v31h-64z"/><path fill="#8d4654" stroke="#fff" class="highcharts-point highcharts-color-2" tabindex="-1" aria-label="Manchester United, 3. CL." style="outline:0" d="M432.5 290.5h64v32h-64z"/></g></g><text x="10" class="highcharts-title" data-z-index="4" style="color:#000;font-size:16px;font-weight:700;fill:#000" y="22" aria-hidden="true">Major trophies for some English teams</text><g class="highcharts-stack-labels" data-z-index="6" aria-hidden="true"><text x="5" data-z-index="1" y="16" style="color:#000;font-size:11px;font-weight:700;fill:#000" transform="translate(115 160)" class="highcharts-label highcharts-stack-labels">17</text><text x="5" data-z-index="1" y="16" style="color:#000;font-size:11px;font-weight:700;fill:#000" transform="translate(248 182)" class="highcharts-label highcharts-stack-labels">15</text><text x="5" data-z-index="1" y="16" style="color:#000;font-size:11px;font-weight:700;fill:#000" transform="translate(380 182)" class="highcharts-label highcharts-stack-labels">15</text><text x="5" data-z-index="1" y="16" style="color:#000;font-size:11px;font-weight:700;fill:#000" transform="translate(513 42)" class="highcharts-label highcharts-stack-labels">28</text></g><g class="highcharts-data-labels highcharts-series-0 highcharts-column-series highcharts-color-0 highcharts-tracker" data-z-index="6" aria-hidden="true"><text x="5" data-z-index="1" y="16" style="color:#000;font-size:11px;font-weight:700;fill:#000" transform="translate(118 188)" class="highcharts-label highcharts-data-label highcharts-data-label-color-0"><tspan class="highcharts-text-outline" fill="#FFF" stroke="#FFF" stroke-width="2" stroke-linejoin="round">3<tspan x="5" dy="0">​</tspan></tspan>3</text><text x="5" data-z-index="1" y="16" style="color:#000;font-size:11px;font-weight:700;fill:#000" transform="translate(250 220)" class="highcharts-label highcharts-data-label highcharts-data-label-color-0"><tspan class="highcharts-text-outline" fill="#FFF" stroke="#FFF" stroke-width="2" stroke-linejoin="round">5<tspan x="5" dy="0">​</tspan></tspan>5</text><text x="5" data-z-index="1" y="16" style="color:#000;font-size:11px;font-weight:700;fill:#000" transform="translate(383 199)" class="highcharts-label highcharts-data-label highcharts-data-label-color-0"><tspan class="highcharts-text-outline" fill="#FFF" stroke="#FFF" stroke-width="2" stroke-linejoin="round">1<tspan x="5" dy="0">​</tspan></tspan>1</text><text x="5" data-z-index="1" y="16" style="color:#000;font-size:11px;font-weight:700;fill:#000" transform="translate(513 123)" class="highcharts-label highcharts-data-label highcharts-data-label-color-0"><tspan class="highcharts-text-outline" fill="#FFF" stroke="#FFF" stroke-width="2" stroke-linejoin="round">13<tspan x="5" dy="0">​</tspan></tspan>13</text></g><g class="highcharts-data-labels highcharts-series-1 highcharts-column-series highcharts-color-1 highcharts-tracker" data-z-index="6" aria-hidden="true"><text x="5" data-z-index="1" y="16" style="color:#000;font-size:11px;font-weight:700;fill:#000" transform="translate(115 279)" class="highcharts-label highcharts-data-label highcharts-data-label-color-1"><tspan class="highcharts-text-outline" fill="#FFF" stroke="#FFF" stroke-width="2" stroke-linejoin="round">14<tspan x="5" dy="0">​</tspan></tspan>14</text><text x="5" data-z-index="1" y="16" style="color:#000;font-size:11px;font-weight:700;fill:#000" transform="translate(250 290)" class="highcharts-label highcharts-data-label highcharts-data-label-color-1"><tspan class="highcharts-text-outline" fill="#FFF" stroke="#FFF" stroke-width="2" stroke-linejoin="round">8<tspan x="5" dy="0">​</tspan></tspan>8</text><text x="5" data-z-index="1" y="16" style="color:#000;font-size:11px;font-weight:700;fill:#000" transform="translate(383 247)" class="highcharts-label highcharts-data-label highcharts-data-label-color-1"><tspan class="highcharts-text-outline" fill="#FFF" stroke="#FFF" stroke-width="2" stroke-linejoin="round">8<tspan x="5" dy="0">​</tspan></tspan>8</text><text x="5" data-z-index="1" y="16" style="color:#000;font-size:11px;font-weight:700;fill:#000" transform="translate(513 258)" class="highcharts-label highcharts-data-label highcharts-data-label-color-1"><tspan class="highcharts-text-outline" fill="#FFF" stroke="#FFF" stroke-width="2" stroke-linejoin="round">12<tspan x="5" dy="0">​</tspan></tspan>12</text></g><g class="highcharts-data-labels highcharts-series-2 highcharts-column-series highcharts-color-2 highcharts-tracker" data-z-index="6" aria-hidden="true"><text x="5" data-z-index="1" y="16" style="color:#fff;font-size:11px;font-weight:700;fill:#fff" transform="translate(118 348)" class="highcharts-label highcharts-data-label highcharts-data-label-color-2"><tspan class="highcharts-text-outline" fill="#000" stroke="#000" stroke-width="2" stroke-linejoin="round">0<tspan x="5" dy="0">​</tspan></tspan>0</text><text x="5" data-z-index="1" y="16" style="color:#fff;font-size:11px;font-weight:700;fill:#fff" transform="translate(250 344)" class="highcharts-label highcharts-data-label highcharts-data-label-color-2"><tspan class="highcharts-text-outline" fill="#000" stroke="#000" stroke-width="2" stroke-linejoin="round">2<tspan x="5" dy="0">​</tspan></tspan>2</text><text x="5" data-z-index="1" y="16" style="color:#fff;font-size:11px;font-weight:700;fill:#fff" transform="translate(383 322)" class="highcharts-label highcharts-data-label highcharts-data-label-color-2"><tspan class="highcharts-text-outline" fill="#000" stroke="#000" stroke-width="2" stroke-linejoin="round">6<tspan x="5" dy="0">​</tspan></tspan>6</text><text x="5" data-z-index="1" y="16" style="color:#fff;font-size:11px;font-weight:700;fill:#fff" transform="translate(516 338)" class="highcharts-label highcharts-data-label highcharts-data-label-color-2"><tspan class="highcharts-text-outline" fill="#000" stroke="#000" stroke-width="2" stroke-linejoin="round">3<tspan x="5" dy="0">​</tspan></tspan>3</text></g><g class="highcharts-legend highcharts-no-tooltip" data-z-index="7" transform="translate(80 80)" aria-hidden="true"><rect fill="#E0E0E8" class="highcharts-legend-box" rx="0" ry="0" stroke="#CCC" x=".5" y=".5" width="204" height="26"/><g data-z-index="1"><g class="highcharts-legend-item highcharts-column-series highcharts-color-0 highcharts-series-0" data-z-index="1" transform="translate(8 3)"><text x="21" data-z-index="2" y="16" style="color:#333;cursor:pointer;font-size:13px;font-weight:700;fill:#333">BPL</text><rect x="1.5" y="4" width="13" height="13" fill="#f45b5b" rx="6.5" ry="6.5" class="highcharts-point" data-z-index="3"/></g><g class="highcharts-legend-item highcharts-column-series highcharts-color-1 highcharts-series-1" data-z-index="1" transform="translate(74.29 3)"><text x="21" y="16" data-z-index="2" style="color:#333;cursor:pointer;font-size:13px;font-weight:700;fill:#333">FA Cup</text><rect x="1.5" y="4" width="13" height="13" fill="#8085e9" rx="6.5" ry="6.5" class="highcharts-point" data-z-index="3"/></g><g class="highcharts-legend-item highcharts-column-series highcharts-color-2 highcharts-series-2" data-z-index="1" transform="translate(158.04 3)"><text x="21" y="16" data-z-index="2" style="color:#333;cursor:pointer;font-size:13px;font-weight:700;fill:#333">CL</text><rect x="1.5" y="4" width="13" height="13" fill="#8d4654" rx="6.5" ry="6.5" class="highcharts-point" data-z-index="3"/></g></g></g><g class="highcharts-axis-labels highcharts-xaxis-labels" data-z-index="7" aria-hidden="true" text-anchor="middle"><text x="125.375" style="color:#6e6e70;cursor:default;font-size:11px;fill:#6e6e70" y="384">Arsenal</text><text x="258.125" style="color:#6e6e70;cursor:default;font-size:11px;fill:#6e6e70" y="384">Chelsea</text><text x="390.875" style="color:#6e6e70;cursor:default;font-size:11px;fill:#6e6e70" y="384">Liverpool</text><text x="523.625" style="color:#6e6e70;cursor:default;font-size:11px;fill:#6e6e70" y="384">Manchester United</text></g><g class="highcharts-axis-labels highcharts-yaxis-labels" data-z-index="7" aria-hidden="true" text-anchor="end"><text x="44" style="color:#6e6e70;cursor:default;font-size:11px;fill:#6e6e70" y="370">0</text><text x="44" style="color:#6e6e70;cursor:default;font-size:11px;fill:#6e6e70" y="316">5</text><text x="44" style="color:#6e6e70;cursor:default;font-size:11px;fill:#6e6e70" y="262">10</text><text x="44" style="color:#6e6e70;cursor:default;font-size:11px;fill:#6e6e70" y="209">15</text><text x="44" style="color:#6e6e70;cursor:default;font-size:11px;fill:#6e6e70" y="155">20</text><text x="44" style="color:#6e6e70;cursor:default;font-size:11px;fill:#6e6e70" y="101">25</text><text x="44" style="color:#6e6e70;cursor:default;font-size:11px;fill:#6e6e70" y="48">30</text></g></svg>