<svg class="highcharts-root" style="font-family:Signika,serif;font-size:12px" xmlns="http://www.w3.org/2000/svg" width="600" height="400" aria-label="Interactive chart" aria-hidden="false"><defs aria-hidden="true"><clipPath id="a"><path fill="none" d="M0 0h533v283H0z"/></clipPath></defs><rect fill="none" class="highcharts-background" width="600" height="400" rx="0" ry="0" aria-hidden="true"/><path fill="none" class="highcharts-plot-background" aria-hidden="true" d="M57 43h533v283H57z"/><g class="highcharts-grid highcharts-xaxis-grid" data-z-index="1" aria-hidden="true" fill="none"><path data-z-index="1" class="highcharts-grid-line" d="M163.5 43v283m106-283v283m107-283v283m106-283v283m107-283v283M56.5 43v283"/></g><g class="highcharts-grid highcharts-yaxis-grid" data-z-index="1" aria-hidden="true" fill="none" stroke="#e6e6e6"><path data-z-index="1" class="highcharts-grid-line" d="M57 326.5h533m-533-47h533m-533-47h533m-533-47h533m-533-48h533m-533-47h533m-533-48h533"/></g><path fill="none" class="highcharts-plot-border" data-z-index="1" aria-hidden="true" d="M57 43h533v283H57z"/><g class="highcharts-axis highcharts-xaxis" data-z-index="2" aria-hidden="true"><path fill="none" class="highcharts-axis-line" stroke="#ccd6eb" data-z-index="7" d="M57 326.5h533"/></g><g class="highcharts-axis highcharts-yaxis" data-z-index="2" aria-hidden="true"><text x="22.836" data-z-index="7" text-anchor="middle" transform="rotate(-90 22.836 184.5)" class="highcharts-axis-title" style="color:#666;fill:#666" y="184.5">Values</text><path fill="none" class="highcharts-axis-line" data-z-index="7" d="M57 43v283"/></g><g class="highcharts-series-group" data-z-index="3" aria-hidden="false"><g class="highcharts-series highcharts-series-0 highcharts-column-series highcharts-color-0 highcharts-tracker" data-z-index=".1" clip-path="url(#a)" aria-hidden="false" tabindex="-1" aria-label="John, bar series 1 of 3 with 5 bars." style="outline:0" transform="translate(57 43)"><path fill="none" stroke="#000" stroke-width="5" stroke-opacity=".05" class="highcharts-shadow" d="M23.5 72.5h18v118h-18z"/><path fill="none" stroke="#000" stroke-width="3" stroke-opacity=".1" class="highcharts-shadow" d="M23.5 72.5h18v118h-18z"/><path fill="none" stroke="#000" stroke-opacity=".15" class="highcharts-shadow" d="M23.5 72.5h18v118h-18z"/><path fill="#f45b5b" stroke="#fff" class="highcharts-point highcharts-color-0" tabindex="-1" aria-label="Apples, 5. John." style="outline:0" d="M22.5 71.5h18v118h-18z"/><path fill="none" stroke="#000" stroke-width="5" stroke-opacity=".05" class="highcharts-shadow" d="M130.5 119.5h18v71h-18z"/><path fill="none" stroke="#000" stroke-width="3" stroke-opacity=".1" class="highcharts-shadow" d="M130.5 119.5h18v71h-18z"/><path fill="none" stroke="#000" stroke-opacity=".15" class="highcharts-shadow" d="M130.5 119.5h18v71h-18z"/><path fill="#f45b5b" stroke="#fff" class="highcharts-point highcharts-color-0" tabindex="-1" aria-label="Oranges, 3. John." style="outline:0" d="M129.5 118.5h18v71h-18z"/><path fill="none" stroke="#000" stroke-width="5" stroke-opacity=".05" class="highcharts-shadow" d="M237.5 95.5h18v95h-18z"/><path fill="none" stroke="#000" stroke-width="3" stroke-opacity=".1" class="highcharts-shadow" d="M237.5 95.5h18v95h-18z"/><path fill="none" stroke="#000" stroke-opacity=".15" class="highcharts-shadow" d="M237.5 95.5h18v95h-18z"/><path fill="#f45b5b" stroke="#fff" class="highcharts-point highcharts-color-0" tabindex="-1" aria-label="Pears, 4. John." style="outline:0" d="M236.5 94.5h18v95h-18z"/><path fill="none" stroke="#000" stroke-width="5" stroke-opacity=".05" class="highcharts-shadow" d="M343.5 25.5h18v165h-18z"/><path fill="none" stroke="#000" stroke-width="3" stroke-opacity=".1" class="highcharts-shadow" d="M343.5 25.5h18v165h-18z"/><path fill="none" stroke="#000" stroke-opacity=".15" class="highcharts-shadow" d="M343.5 25.5h18v165h-18z"/><path fill="#f45b5b" stroke="#fff" class="highcharts-point highcharts-color-0" tabindex="-1" aria-label="Grapes, 7. John." style="outline:0" d="M342.5 24.5h18v165h-18z"/><path fill="none" stroke="#000" stroke-width="5" stroke-opacity=".05" class="highcharts-shadow" d="M450.5 143.5h18v47h-18z"/><path fill="none" stroke="#000" stroke-width="3" stroke-opacity=".1" class="highcharts-shadow" d="M450.5 143.5h18v47h-18z"/><path fill="none" stroke="#000" stroke-opacity=".15" class="highcharts-shadow" d="M450.5 143.5h18v47h-18z"/><path fill="#f45b5b" stroke="#fff" class="highcharts-point highcharts-color-0" tabindex="-1" aria-label="Bananas, 2. John." style="outline:0" d="M449.5 142.5h18v47h-18z"/></g><g class="highcharts-series highcharts-series-1 highcharts-column-series highcharts-color-1 highcharts-tracker" data-z-index=".1" clip-path="url(#a)" aria-hidden="false" tabindex="-1" aria-label="Jane, bar series 2 of 3 with 5 bars." style="outline:0" transform="translate(57 43)"><path fill="none" stroke="#000" stroke-width="5" stroke-opacity=".05" class="highcharts-shadow" d="M45.5 143.5h18v47h-18z"/><path fill="none" stroke="#000" stroke-width="3" stroke-opacity=".1" class="highcharts-shadow" d="M45.5 143.5h18v47h-18z"/><path fill="none" stroke="#000" stroke-opacity=".15" class="highcharts-shadow" d="M45.5 143.5h18v47h-18z"/><path fill="#8085e9" stroke="#fff" class="highcharts-point highcharts-color-1" tabindex="-1" aria-label="Apples, 2. Jane." style="outline:0" d="M44.5 142.5h18v47h-18z"/><path fill="none" stroke="#000" stroke-width="5" stroke-opacity=".05" class="highcharts-shadow" d="M151.5 190.5h18v47h-18z"/><path fill="none" stroke="#000" stroke-width="3" stroke-opacity=".1" class="highcharts-shadow" d="M151.5 190.5h18v47h-18z"/><path fill="none" stroke="#000" stroke-opacity=".15" class="highcharts-shadow" d="M151.5 190.5h18v47h-18z"/><path fill="#8085e9" stroke="#fff" class="highcharts-point highcharts-negative highcharts-color-1" tabindex="-1" aria-label="Oranges, -2. Jane." style="outline:0" d="M150.5 189.5h18v47h-18z"/><path fill="none" stroke="#000" stroke-width="5" stroke-opacity=".05" class="highcharts-shadow" d="M258.5 190.5h18v70h-18z"/><path fill="none" stroke="#000" stroke-width="3" stroke-opacity=".1" class="highcharts-shadow" d="M258.5 190.5h18v70h-18z"/><path fill="none" stroke="#000" stroke-opacity=".15" class="highcharts-shadow" d="M258.5 190.5h18v70h-18z"/><path fill="#8085e9" stroke="#fff" class="highcharts-point highcharts-negative highcharts-color-1" tabindex="-1" aria-label="Pears, -3. Jane." style="outline:0" d="M257.5 189.5h18v70h-18z"/><path fill="none" stroke="#000" stroke-width="5" stroke-opacity=".05" class="highcharts-shadow" d="M365.5 143.5h18v47h-18z"/><path fill="none" stroke="#000" stroke-width="3" stroke-opacity=".1" class="highcharts-shadow" d="M365.5 143.5h18v47h-18z"/><path fill="none" stroke="#000" stroke-opacity=".15" class="highcharts-shadow" d="M365.5 143.5h18v47h-18z"/><path fill="#8085e9" stroke="#fff" class="highcharts-point highcharts-color-1" tabindex="-1" aria-label="Grapes, 2. Jane." style="outline:0" d="M364.5 142.5h18v47h-18z"/><path fill="none" stroke="#000" stroke-width="5" stroke-opacity=".05" class="highcharts-shadow" d="M471.5 166.5h18v24h-18z"/><path fill="none" stroke="#000" stroke-width="3" stroke-opacity=".1" class="highcharts-shadow" d="M471.5 166.5h18v24h-18z"/><path fill="none" stroke="#000" stroke-opacity=".15" class="highcharts-shadow" d="M471.5 166.5h18v24h-18z"/><path fill="#8085e9" stroke="#fff" class="highcharts-point highcharts-color-1" tabindex="-1" aria-label="Bananas, 1. Jane." style="outline:0" d="M470.5 165.5h18v24h-18z"/></g><g class="highcharts-series highcharts-series-2 highcharts-column-series highcharts-color-2 highcharts-tracker" data-z-index=".1" clip-path="url(#a)" aria-hidden="false" tabindex="-1" aria-label="Joe, bar series 3 of 3 with 5 bars." style="outline:0" transform="translate(57 43)"><path fill="none" stroke="#000" stroke-width="5" stroke-opacity=".05" class="highcharts-shadow" d="M66.5 119.5h18v71h-18z"/><path fill="none" stroke="#000" stroke-width="3" stroke-opacity=".1" class="highcharts-shadow" d="M66.5 119.5h18v71h-18z"/><path fill="none" stroke="#000" stroke-opacity=".15" class="highcharts-shadow" d="M66.5 119.5h18v71h-18z"/><path fill="#8d4654" stroke="#fff" class="highcharts-point highcharts-color-2" tabindex="-1" aria-label="Apples, 3. Joe." style="outline:0" d="M65.5 118.5h18v71h-18z"/><path fill="none" stroke="#000" stroke-width="5" stroke-opacity=".05" class="highcharts-shadow" d="M173.5 95.5h18v95h-18z"/><path fill="none" stroke="#000" stroke-width="3" stroke-opacity=".1" class="highcharts-shadow" d="M173.5 95.5h18v95h-18z"/><path fill="none" stroke="#000" stroke-opacity=".15" class="highcharts-shadow" d="M173.5 95.5h18v95h-18z"/><path fill="#8d4654" stroke="#fff" class="highcharts-point highcharts-color-2" tabindex="-1" aria-label="Oranges, 4. Joe." style="outline:0" d="M172.5 94.5h18v95h-18z"/><path fill="none" stroke="#000" stroke-width="5" stroke-opacity=".05" class="highcharts-shadow" d="M279.5 95.5h18v95h-18z"/><path fill="none" stroke="#000" stroke-width="3" stroke-opacity=".1" class="highcharts-shadow" d="M279.5 95.5h18v95h-18z"/><path fill="none" stroke="#000" stroke-opacity=".15" class="highcharts-shadow" d="M279.5 95.5h18v95h-18z"/><path fill="#8d4654" stroke="#fff" class="highcharts-point highcharts-color-2" tabindex="-1" aria-label="Pears, 4. Joe." style="outline:0" d="M278.5 94.5h18v95h-18z"/><path fill="none" stroke="#000" stroke-width="5" stroke-opacity=".05" class="highcharts-shadow" d="M386.5 190.5h18v47h-18z"/><path fill="none" stroke="#000" stroke-width="3" stroke-opacity=".1" class="highcharts-shadow" d="M386.5 190.5h18v47h-18z"/><path fill="none" stroke="#000" stroke-opacity=".15" class="highcharts-shadow" d="M386.5 190.5h18v47h-18z"/><path fill="#8d4654" stroke="#fff" class="highcharts-point highcharts-negative highcharts-color-2" tabindex="-1" aria-label="Grapes, -2. Joe." style="outline:0" d="M385.5 189.5h18v47h-18z"/><path fill="none" stroke="#000" stroke-width="5" stroke-opacity=".05" class="highcharts-shadow" d="M492.5 72.5h18v118h-18z"/><path fill="none" stroke="#000" stroke-width="3" stroke-opacity=".1" class="highcharts-shadow" d="M492.5 72.5h18v118h-18z"/><path fill="none" stroke="#000" stroke-opacity=".15" class="highcharts-shadow" d="M492.5 72.5h18v118h-18z"/><path fill="#8d4654" stroke="#fff" class="highcharts-point highcharts-color-2" tabindex="-1" aria-label="Bananas, 5. Joe." style="outline:0" d="M491.5 71.5h18v118h-18z"/></g></g><text x="300" text-anchor="middle" class="highcharts-title" data-z-index="4" style="color:#000;font-size:16px;font-weight:700;fill:#000" y="22" aria-hidden="true">Column chart with negative values</text><g class="highcharts-legend highcharts-no-tooltip" data-z-index="7" transform="translate(204 358)" aria-hidden="true"><rect fill="#E0E0E8" class="highcharts-legend-box" rx="0" ry="0" width="191" height="27"/><g data-z-index="1"><g class="highcharts-legend-item highcharts-column-series highcharts-color-0 highcharts-series-0" data-z-index="1" transform="translate(8 3)"><text x="21" data-z-index="2" y="16" style="color:#333;cursor:pointer;font-size:13px;font-weight:700;fill:#333">John</text><rect x="1.5" y="4" width="13" height="13" fill="#f45b5b" rx="6.5" ry="6.5" class="highcharts-point" data-z-index="3"/></g><g class="highcharts-legend-item highcharts-column-series highcharts-color-1 highcharts-series-1" data-z-index="1" transform="translate(76.46 3)"><text x="21" y="16" data-z-index="2" style="color:#333;cursor:pointer;font-size:13px;font-weight:700;fill:#333">Jane</text><rect x="1.5" y="4" width="13" height="13" fill="#8085e9" rx="6.5" ry="6.5" class="highcharts-point" data-z-index="3"/></g><g class="highcharts-legend-item highcharts-column-series highcharts-color-2 highcharts-series-2" data-z-index="1" transform="translate(143.46 3)"><text x="21" y="16" data-z-index="2" style="color:#333;cursor:pointer;font-size:13px;font-weight:700;fill:#333">Joe</text><rect x="1.5" y="4" width="13" height="13" fill="#8d4654" rx="6.5" ry="6.5" class="highcharts-point" data-z-index="3"/></g></g></g><g class="highcharts-axis-labels highcharts-xaxis-labels" data-z-index="7" aria-hidden="true" text-anchor="middle"><text x="110.3" style="color:#6e6e70;cursor:default;font-size:11px;fill:#6e6e70" y="345">Apples</text><text x="216.9" style="color:#6e6e70;cursor:default;font-size:11px;fill:#6e6e70" y="345">Oranges</text><text x="323.5" style="color:#6e6e70;cursor:default;font-size:11px;fill:#6e6e70" y="345">Pears</text><text x="430.1" style="color:#6e6e70;cursor:default;font-size:11px;fill:#6e6e70" y="345">Grapes</text><text x="536.7" style="color:#6e6e70;cursor:default;font-size:11px;fill:#6e6e70" y="345">Bananas</text></g><g class="highcharts-axis-labels highcharts-yaxis-labels" data-z-index="7" aria-hidden="true" text-anchor="end"><text x="42" style="color:#6e6e70;cursor:default;font-size:11px;fill:#6e6e70" y="331">-4</text><text x="42" style="color:#6e6e70;cursor:default;font-size:11px;fill:#6e6e70" y="284">-2</text><text x="42" style="color:#6e6e70;cursor:default;font-size:11px;fill:#6e6e70" y="236">0</text><text x="42" style="color:#6e6e70;cursor:default;font-size:11px;fill:#6e6e70" y="189">2</text><text x="42" style="color:#6e6e70;cursor:default;font-size:11px;fill:#6e6e70" y="142">4</text><text x="42" style="color:#6e6e70;cursor:default;font-size:11px;fill:#6e6e70" y="95">6</text><text x="42" style="color:#6e6e70;cursor:default;font-size:11px;fill:#6e6e70" y="48">8</text></g></svg>