<svg class="highcharts-root" style="font-family:Signika,serif;font-size:12px" xmlns="http://www.w3.org/2000/svg" width="600" height="400" aria-label="Interactive chart" aria-hidden="false"><defs aria-hidden="true"><clipPath id="a"><path fill="none" d="M0 0h525v283H0z"/></clipPath></defs><rect fill="none" class="highcharts-background" width="600" height="400" rx="0" ry="0" aria-hidden="true"/><path fill="none" class="highcharts-plot-background" aria-hidden="true" d="M65 43h525v283H65z"/><g class="highcharts-grid highcharts-xaxis-grid" data-z-index="1" aria-hidden="true" fill="none"><path data-z-index="1" class="highcharts-grid-line" d="M169.5 43v283m105-283v283m105-283v283m105-283v283m105-283v283M64.5 43v283"/></g><g class="highcharts-grid highcharts-yaxis-grid" data-z-index="1" aria-hidden="true" fill="none" stroke="#e6e6e6"><path data-z-index="1" class="highcharts-grid-line" d="M65 326.5h525m-525-47h525m-525-47h525m-525-47h525m-525-48h525m-525-47h525m-525-48h525"/></g><path fill="none" class="highcharts-plot-border" data-z-index="1" aria-hidden="true" d="M65 43h525v283H65z"/><g class="highcharts-axis highcharts-xaxis" data-z-index="2" aria-hidden="true"><path fill="none" class="highcharts-axis-line" stroke="#ccd6eb" data-z-index="7" d="M65 326.5h525"/></g><g class="highcharts-axis highcharts-yaxis" data-z-index="2" aria-hidden="true"><text x="23.5" data-z-index="7" text-anchor="middle" transform="rotate(-90 23.5 184.5)" class="highcharts-axis-title" style="color:#666;fill:#666" y="184.5">Million liters</text><path fill="none" class="highcharts-axis-line" data-z-index="7" d="M65 43v283"/></g><g class="highcharts-series-group" data-z-index="3" aria-hidden="false"><g class="highcharts-series highcharts-series-0 highcharts-column-series highcharts-color-0 highcharts-tracker" data-z-index=".1" transform="translate(65 43)" clip-path="url(#a)" aria-hidden="false" tabindex="-1" aria-label="2020, series 1 of 5. Bar series with 5 bars." style="outline:0"><path fill="none" stroke="#000" stroke-width="5" stroke-opacity=".05" class="highcharts-shadow" d="M23.5 228.5h17v56h-17z"/><path fill="none" stroke="#000" stroke-width="3" stroke-opacity=".1" class="highcharts-shadow" d="M23.5 228.5h17v56h-17z"/><path fill="none" stroke="#000" stroke-opacity=".15" class="highcharts-shadow" d="M23.5 228.5h17v56h-17z"/><path fill="#f45b5b" stroke="#fff" class="highcharts-point highcharts-color-0" tabindex="-1" aria-label="Jet fuel, 59 million liters. 2020." style="outline:0" d="M22.5 227.5h17v56h-17z"/><path fill="none" stroke="#000" stroke-width="5" stroke-opacity=".05" class="highcharts-shadow" d="M128.5 206.5h17v78h-17z"/><path fill="none" stroke="#000" stroke-width="3" stroke-opacity=".1" class="highcharts-shadow" d="M128.5 206.5h17v78h-17z"/><path fill="none" stroke="#000" stroke-opacity=".15" class="highcharts-shadow" d="M128.5 206.5h17v78h-17z"/><path fill="#f45b5b" stroke="#fff" class="highcharts-point highcharts-color-0" tabindex="-1" aria-label="Duty-free diesel, 83 million liters. 2020." style="outline:0" d="M127.5 205.5h17v78h-17z"/><path fill="none" stroke="#000" stroke-width="5" stroke-opacity=".05" class="highcharts-shadow" d="M233.5 223.5h17v61h-17z"/><path fill="none" stroke="#000" stroke-width="3" stroke-opacity=".1" class="highcharts-shadow" d="M233.5 223.5h17v61h-17z"/><path fill="none" stroke="#000" stroke-opacity=".15" class="highcharts-shadow" d="M233.5 223.5h17v61h-17z"/><path fill="#f45b5b" stroke="#fff" class="highcharts-point highcharts-color-0" tabindex="-1" aria-label="Petrol, 65 million liters. 2020." style="outline:0" d="M232.5 222.5h17v61h-17z"/><path fill="none" stroke="#000" stroke-width="5" stroke-opacity=".05" class="highcharts-shadow" d="M338.5 69.5h17v215h-17z"/><path fill="none" stroke="#000" stroke-width="3" stroke-opacity=".1" class="highcharts-shadow" d="M338.5 69.5h17v215h-17z"/><path fill="none" stroke="#000" stroke-opacity=".15" class="highcharts-shadow" d="M338.5 69.5h17v215h-17z"/><path fill="#f45b5b" stroke="#fff" class="highcharts-point highcharts-color-0" tabindex="-1" aria-label="Diesel, 228 million liters. 2020." style="outline:0" d="M337.5 68.5h17v215h-17z"/><path fill="none" stroke="#000" stroke-width="5" stroke-opacity=".05" class="highcharts-shadow" d="M443.5 110.5h17v174h-17z"/><path fill="none" stroke="#000" stroke-width="3" stroke-opacity=".1" class="highcharts-shadow" d="M443.5 110.5h17v174h-17z"/><path fill="none" stroke="#000" stroke-opacity=".15" class="highcharts-shadow" d="M443.5 110.5h17v174h-17z"/><path fill="#f45b5b" stroke="#fff" class="highcharts-point highcharts-color-0" tabindex="-1" aria-label="Gas oil, 184 million liters. 2020." style="outline:0" d="M442.5 109.5h17v174h-17z"/></g><g class="highcharts-series highcharts-series-1 highcharts-column-series highcharts-color-1 highcharts-tracker" data-z-index=".1" transform="translate(65 43)" clip-path="url(#a)" aria-hidden="false" tabindex="-1" aria-label="2021, series 2 of 5. Bar series with 5 bars." style="outline:0"><path fill="none" stroke="#000" stroke-width="5" stroke-opacity=".05" class="highcharts-shadow" d="M44.5 261.5h17v23h-17z"/><path fill="none" stroke="#000" stroke-width="3" stroke-opacity=".1" class="highcharts-shadow" d="M44.5 261.5h17v23h-17z"/><path fill="none" stroke="#000" stroke-opacity=".15" class="highcharts-shadow" d="M44.5 261.5h17v23h-17z"/><path fill="#8085e9" stroke="#fff" class="highcharts-point highcharts-color-1" tabindex="-1" aria-label="Jet fuel, 24 million liters. 2021." style="outline:0" d="M43.5 260.5h17v23h-17z"/><path fill="none" stroke="#000" stroke-width="5" stroke-opacity=".05" class="highcharts-shadow" d="M149.5 209.5h17v75h-17z"/><path fill="none" stroke="#000" stroke-width="3" stroke-opacity=".1" class="highcharts-shadow" d="M149.5 209.5h17v75h-17z"/><path fill="none" stroke="#000" stroke-opacity=".15" class="highcharts-shadow" d="M149.5 209.5h17v75h-17z"/><path fill="#8085e9" stroke="#fff" class="highcharts-point highcharts-color-1" tabindex="-1" aria-label="Duty-free diesel, 79 million liters. 2021." style="outline:0" d="M148.5 208.5h17v75h-17z"/><path fill="none" stroke="#000" stroke-width="5" stroke-opacity=".05" class="highcharts-shadow" d="M254.5 216.5h17v68h-17z"/><path fill="none" stroke="#000" stroke-width="3" stroke-opacity=".1" class="highcharts-shadow" d="M254.5 216.5h17v68h-17z"/><path fill="none" stroke="#000" stroke-opacity=".15" class="highcharts-shadow" d="M254.5 216.5h17v68h-17z"/><path fill="#8085e9" stroke="#fff" class="highcharts-point highcharts-color-1" tabindex="-1" aria-label="Petrol, 72 million liters. 2021." style="outline:0" d="M253.5 215.5h17v68h-17z"/><path fill="none" stroke="#000" stroke-width="5" stroke-opacity=".05" class="highcharts-shadow" d="M359.5 58.5h17v226h-17z"/><path fill="none" stroke="#000" stroke-width="3" stroke-opacity=".1" class="highcharts-shadow" d="M359.5 58.5h17v226h-17z"/><path fill="none" stroke="#000" stroke-opacity=".15" class="highcharts-shadow" d="M359.5 58.5h17v226h-17z"/><path fill="#8085e9" stroke="#fff" class="highcharts-point highcharts-color-1" tabindex="-1" aria-label="Diesel, 240 million liters. 2021." style="outline:0" d="M358.5 57.5h17v226h-17z"/><path fill="none" stroke="#000" stroke-width="5" stroke-opacity=".05" class="highcharts-shadow" d="M464.5 126.5h17v158h-17z"/><path fill="none" stroke="#000" stroke-width="3" stroke-opacity=".1" class="highcharts-shadow" d="M464.5 126.5h17v158h-17z"/><path fill="none" stroke="#000" stroke-opacity=".15" class="highcharts-shadow" d="M464.5 126.5h17v158h-17z"/><path fill="#8085e9" stroke="#fff" class="highcharts-point highcharts-color-1" tabindex="-1" aria-label="Gas oil, 167 million liters. 2021." style="outline:0" d="M463.5 125.5h17v158h-17z"/></g><g class="highcharts-series highcharts-series-2 highcharts-column-series highcharts-color-2 highcharts-tracker" data-z-index=".1" transform="translate(65 43)" clip-path="url(#a)" aria-hidden="false" tabindex="-1" aria-label="2022, series 3 of 5. Bar series with 5 bars." style="outline:0"><path fill="none" stroke="#000" stroke-width="5" stroke-opacity=".05" class="highcharts-shadow" d="M65.5 229.5h17v55h-17z"/><path fill="none" stroke="#000" stroke-width="3" stroke-opacity=".1" class="highcharts-shadow" d="M65.5 229.5h17v55h-17z"/><path fill="none" stroke="#000" stroke-opacity=".15" class="highcharts-shadow" d="M65.5 229.5h17v55h-17z"/><path fill="#8d4654" stroke="#fff" class="highcharts-point highcharts-color-2" tabindex="-1" aria-label="Jet fuel, 58 million liters. 2022." style="outline:0" d="M64.5 228.5h17v55h-17z"/><path fill="none" stroke="#000" stroke-width="5" stroke-opacity=".05" class="highcharts-shadow" d="M170.5 201.5h17v83h-17z"/><path fill="none" stroke="#000" stroke-width="3" stroke-opacity=".1" class="highcharts-shadow" d="M170.5 201.5h17v83h-17z"/><path fill="none" stroke="#000" stroke-opacity=".15" class="highcharts-shadow" d="M170.5 201.5h17v83h-17z"/><path fill="#8d4654" stroke="#fff" class="highcharts-point highcharts-color-2" tabindex="-1" aria-label="Duty-free diesel, 88 million liters. 2022." style="outline:0" d="M169.5 200.5h17v83h-17z"/><path fill="none" stroke="#000" stroke-width="5" stroke-opacity=".05" class="highcharts-shadow" d="M275.5 213.5h17v71h-17z"/><path fill="none" stroke="#000" stroke-width="3" stroke-opacity=".1" class="highcharts-shadow" d="M275.5 213.5h17v71h-17z"/><path fill="none" stroke="#000" stroke-opacity=".15" class="highcharts-shadow" d="M275.5 213.5h17v71h-17z"/><path fill="#8d4654" stroke="#fff" class="highcharts-point highcharts-color-2" tabindex="-1" aria-label="Petrol, 75 million liters. 2022." style="outline:0" d="M274.5 212.5h17v71h-17z"/><path fill="none" stroke="#000" stroke-width="5" stroke-opacity=".05" class="highcharts-shadow" d="M380.5 48.5h17v236h-17z"/><path fill="none" stroke="#000" stroke-width="3" stroke-opacity=".1" class="highcharts-shadow" d="M380.5 48.5h17v236h-17z"/><path fill="none" stroke="#000" stroke-opacity=".15" class="highcharts-shadow" d="M380.5 48.5h17v236h-17z"/><path fill="#8d4654" stroke="#fff" class="highcharts-point highcharts-color-2" tabindex="-1" aria-label="Diesel, 250 million liters. 2022." style="outline:0" d="M379.5 47.5h17v236h-17z"/><path fill="none" stroke="#000" stroke-width="5" stroke-opacity=".05" class="highcharts-shadow" d="M485.5 118.5h17v166h-17z"/><path fill="none" stroke="#000" stroke-width="3" stroke-opacity=".1" class="highcharts-shadow" d="M485.5 118.5h17v166h-17z"/><path fill="none" stroke="#000" stroke-opacity=".15" class="highcharts-shadow" d="M485.5 118.5h17v166h-17z"/><path fill="#8d4654" stroke="#fff" class="highcharts-point highcharts-color-2" tabindex="-1" aria-label="Gas oil, 176 million liters. 2022." style="outline:0" d="M484.5 117.5h17v166h-17z"/></g><g class="highcharts-series highcharts-series-3 highcharts-spline-series highcharts-color-3" data-z-index=".1" transform="translate(65 43)" clip-path="url(#a)" aria-hidden="true" fill="none" stroke-linejoin="round" stroke-linecap="round"><path d="M53.5 239.663s63-34.271 105-34.271 63 11.952 105 11.952 63-159.112 105-159.112 105 60.062 105 60.062" class="highcharts-graph highcharts-shadow" data-z-index="1" stroke="#000" stroke-width="5" stroke-opacity=".05"/><path d="M53.5 239.663s63-34.271 105-34.271 63 11.952 105 11.952 63-159.112 105-159.112 105 60.062 105 60.062" class="highcharts-graph highcharts-shadow" data-z-index="1" stroke="#000" stroke-width="3" stroke-opacity=".1"/><path d="M53.5 239.663s63-34.271 105-34.271 63 11.952 105 11.952 63-159.112 105-159.112 105 60.062 105 60.062" class="highcharts-graph highcharts-shadow" data-z-index="1" stroke="#000" stroke-opacity=".15"/><path d="M52.5 238.663s63-34.271 105-34.271 63 11.952 105 11.952 63-159.112 105-159.112 105 60.062 105 60.062" class="highcharts-graph" data-z-index="1" stroke="#7798BF" stroke-width="2"/><path d="M52.5 238.663s63-34.271 105-34.271 63 11.952 105 11.952 63-159.112 105-159.112 105 60.062 105 60.062" data-z-index="2" class="highcharts-tracker-line" stroke="rgba(192,192,192,0.0001)" stroke-width="22"/></g><g class="highcharts-markers highcharts-series-3 highcharts-spline-series highcharts-color-3 highcharts-tracker" data-z-index=".1" aria-hidden="false" tabindex="-1" aria-label="Average, series 4 of 5. Line with 5 data points." style="outline:0" fill="#fff" stroke="#7798BF" stroke-width="2"><path d="M52 243a4 4 0 1 1 .004 0Z" class="highcharts-point highcharts-color-3" tabindex="-1" aria-label="Jet fuel, 47 million liters. Average." style="outline:0" transform="translate(65 43)"/><path d="M157 208a4 4 0 1 1 .004 0Z" class="highcharts-point highcharts-color-3" tabindex="-1" aria-label="Duty-free diesel, 83.33 million liters. Average." style="outline:0" transform="translate(65 43)"/><path d="M262 220a4 4 0 1 1 .004 0Z" class="highcharts-point highcharts-color-3" tabindex="-1" aria-label="Petrol, 70.66 million liters. Average." style="outline:0" transform="translate(65 43)"/><path d="M367 61a4 4 0 1 1 .004 0Z" class="highcharts-point highcharts-color-3" tabindex="-1" aria-label="Diesel, 239.33 million liters. Average." style="outline:0" transform="translate(65 43)"/><path d="M472 121a4 4 0 1 1 .004 0Z" class="highcharts-point highcharts-color-3" tabindex="-1" aria-label="Gas oil, 175.66 million liters. Average." style="outline:0" transform="translate(65 43)"/></g><g class="highcharts-series highcharts-series-4 highcharts-pie-series highcharts-tracker" data-z-index=".1" aria-hidden="false" tabindex="-1" aria-label="Total, series 5 of 5. Pie with 3 slices." style="outline:0" stroke-linejoin="round"><g class="highcharts-shadow" data-z-index="-1" fill="none" stroke="#000"><g class="highcharts-shadow"><path d="M160.99 79a50 50 0 0 1 43.2 75.19l-12.956-7.557A35 35 0 0 0 160.993 94Z" stroke-width="5" stroke-opacity=".05" class="highcharts-shadow"/><path d="M160.99 79a50 50 0 0 1 43.2 75.19l-12.956-7.557A35 35 0 0 0 160.993 94Z" stroke-width="3" stroke-opacity=".1" class="highcharts-shadow"/><path d="M160.99 79a50 50 0 0 1 43.2 75.19l-12.956-7.557A35 35 0 0 0 160.993 94Z" stroke-opacity=".15" class="highcharts-shadow"/></g><g class="highcharts-shadow"><path d="M204.166 154.234a50 50 0 0 1-83.697 4.045l12.16-8.784a35 35 0 0 0 58.587-2.832Z" stroke-width="5" stroke-opacity=".05" class="highcharts-shadow"/><path d="M204.166 154.234a50 50 0 0 1-83.697 4.045l12.16-8.784a35 35 0 0 0 58.587-2.832Z" stroke-width="3" stroke-opacity=".1" class="highcharts-shadow"/><path d="M204.166 154.234a50 50 0 0 1-83.697 4.045l12.16-8.784a35 35 0 0 0 58.587-2.832Z" stroke-opacity=".15" class="highcharts-shadow"/></g><g class="highcharts-shadow"><path d="M120.44 158.238A50 50 0 0 1 160.93 79l.021 15a35 35 0 0 0-28.343 55.467Z" stroke-width="5" stroke-opacity=".05" class="highcharts-shadow"/><path d="M120.44 158.238A50 50 0 0 1 160.93 79l.021 15a35 35 0 0 0-28.343 55.467Z" stroke-width="3" stroke-opacity=".1" class="highcharts-shadow"/><path d="M120.44 158.238A50 50 0 0 1 160.93 79l.021 15a35 35 0 0 0-28.343 55.467Z" stroke-opacity=".15" class="highcharts-shadow"/></g></g><path fill="#f45b5b" d="M94.99 35a50 50 0 0 1 43.2 75.19l-12.956-7.557A35 35 0 0 0 94.993 50Z" stroke="#fff" class="highcharts-point highcharts-color-0" tabindex="-1" aria-label="2020, 619 million liters. Total." style="outline:0" transform="translate(65 43)"/><path fill="#8085e9" d="M138.166 110.234a50 50 0 0 1-83.697 4.045l12.16-8.784a35 35 0 0 0 58.587-2.832Z" stroke="#fff" class="highcharts-point highcharts-color-1" tabindex="-1" aria-label="2021, 586 million liters. Total." style="outline:0" transform="translate(65 43)"/><path fill="#8d4654" d="M54.44 114.238A50 50 0 0 1 94.93 35l.021 15a35 35 0 0 0-28.343 55.467Z" stroke="#fff" class="highcharts-point highcharts-color-2" tabindex="-1" aria-label="2022, 647 million liters. Total." style="outline:0" transform="translate(65 43)"/></g></g><g data-z-index="3" aria-hidden="true"><text data-z-index="1" y="12" style="color:#7798bf;font-weight:700;fill:#7798bf" transform="translate(541 163)" class="highcharts-label highcharts-series-label highcharts-series-label-3 highcharts-color-3">Average</text></g><text x="10" class="highcharts-title" data-z-index="4" style="color:#000;font-size:16px;font-weight:700;fill:#000" y="22" aria-hidden="true">Sales of petroleum products March, Norway</text><g class="highcharts-data-labels highcharts-series-4 highcharts-pie-series highcharts-tracker" data-z-index="6" aria-hidden="true"><text x="5" data-z-index="1" y="19" style="color:#000;font-size:15px;font-weight:700;fill:#000" transform="translate(131 118)" class="highcharts-label highcharts-data-label highcharts-data-label-color-0"><tspan class="highcharts-text-outline" fill="#FFF" stroke="#FFF" stroke-width="2" stroke-linejoin="round">1852 M<tspan x="5" dy="0">​</tspan></tspan>1852 M</text></g><g class="highcharts-legend highcharts-no-tooltip" data-z-index="7" transform="translate(158 358)" aria-hidden="true"><rect fill="#E0E0E8" class="highcharts-legend-box" rx="0" ry="0" width="283" height="27"/><g data-z-index="1"><g class="highcharts-legend-item highcharts-column-series highcharts-color-0 highcharts-series-0" data-z-index="1" transform="translate(8 3)"><text x="21" data-z-index="2" y="16" style="color:#333;cursor:pointer;font-size:13px;font-weight:700;fill:#333">2020</text><rect x="1.5" y="4" width="13" height="13" fill="#f45b5b" rx="6.5" ry="6.5" class="highcharts-point" data-z-index="3"/></g><g class="highcharts-legend-item highcharts-column-series highcharts-color-1 highcharts-series-1" data-z-index="1" transform="translate(75 3)"><text x="21" y="16" data-z-index="2" style="color:#333;cursor:pointer;font-size:13px;font-weight:700;fill:#333">2021</text><rect x="1.5" y="4" width="13" height="13" fill="#8085e9" rx="6.5" ry="6.5" class="highcharts-point" data-z-index="3"/></g><g class="highcharts-legend-item highcharts-column-series highcharts-color-2 highcharts-series-2" data-z-index="1" transform="translate(142 3)"><text x="21" y="16" data-z-index="2" style="color:#333;cursor:pointer;font-size:13px;font-weight:700;fill:#333">2022</text><rect x="1.5" y="4" width="13" height="13" fill="#8d4654" rx="6.5" ry="6.5" class="highcharts-point" data-z-index="3"/></g><g class="highcharts-legend-item highcharts-spline-series highcharts-color-3 highcharts-series-3" data-z-index="1"><path fill="none" d="M209 15h16" class="highcharts-graph" stroke-width="2" stroke="#7798BF"/><path fill="#fff" d="M217 19a4 4 0 1 1 .004 0Z" class="highcharts-point" stroke="#7798BF" stroke-width="2"/><text x="21" y="16" data-z-index="2" style="color:#333;cursor:pointer;font-size:13px;font-weight:700;fill:#333" transform="translate(209 3)">Average</text></g></g></g><g class="highcharts-axis-labels highcharts-xaxis-labels" data-z-index="7" aria-hidden="true" text-anchor="middle"><text x="117.5" style="color:#6e6e70;cursor:default;font-size:11px;fill:#6e6e70" y="345">Jet fuel</text><text x="222.5" style="color:#6e6e70;cursor:default;font-size:11px;fill:#6e6e70" y="345">Duty-free diesel</text><text x="327.5" style="color:#6e6e70;cursor:default;font-size:11px;fill:#6e6e70" y="345">Petrol</text><text x="432.5" style="color:#6e6e70;cursor:default;font-size:11px;fill:#6e6e70" y="345">Diesel</text><text x="537.5" style="color:#6e6e70;cursor:default;font-size:11px;fill:#6e6e70" y="345">Gas oil</text></g><g class="highcharts-axis-labels highcharts-yaxis-labels" data-z-index="7" aria-hidden="true" text-anchor="end"><text x="50" style="color:#6e6e70;cursor:default;font-size:11px;fill:#6e6e70" y="331">0</text><text x="50" style="color:#6e6e70;cursor:default;font-size:11px;fill:#6e6e70" y="284">50</text><text x="50" style="color:#6e6e70;cursor:default;font-size:11px;fill:#6e6e70" y="236">100</text><text x="50" style="color:#6e6e70;cursor:default;font-size:11px;fill:#6e6e70" y="189">150</text><text x="50" style="color:#6e6e70;cursor:default;font-size:11px;fill:#6e6e70" y="142">200</text><text x="50" style="color:#6e6e70;cursor:default;font-size:11px;fill:#6e6e70" y="95">250</text><text x="50" style="color:#6e6e70;cursor:default;font-size:11px;fill:#6e6e70" y="48">300</text></g></svg>