<svg class="highcharts-root" style="font-family:Signika,serif;font-size:12px" xmlns="http://www.w3.org/2000/svg" width="600" height="400" aria-label="Interactive chart" aria-hidden="false"><rect fill="none" class="highcharts-background" width="600" height="400" rx="0" ry="0" aria-hidden="true"/><g stroke-linejoin="round" class="highcharts-3d-frame highcharts-3d-frame-bottom" data-z-index="-1000" aria-hidden="true" fill="none"><path d="m148.64 291.7 402.462 38.296L547.845 346 131.81 304.874Z"/><path d="m551.121 330.487-3.321 16.34.045-.827 3.257-16.004Zm-3.321 16.339-416.688-41.268.7-.684L547.844 346Z"/></g><path d="m137.675 66.708.404.14-18.202 5.74-.78-.032Zm.404.14 10.56 224.851-16.828 13.175-11.934-232.286Zm-6.967 238.71L119.097 72.556l.78.032 11.934 232.286Z" class="highcharts-3d-frame highcharts-3d-frame-left" data-z-index="-1000" aria-hidden="true" fill="none"/><g stroke-linejoin="round" class="highcharts-3d-frame highcharts-3d-frame-back" data-z-index="-1000" aria-hidden="true" fill="none"><path d="M137.675 66.708 564.709 83.46l-.057.136-426.573-16.75Z"/><path d="M564.709 83.461 551.12 330.487l-.019-.49 13.55-246.4Z"/><path d="m138.079 66.848 426.573 16.749-13.55 246.4-402.463-38.298Z"/></g><path fill="none" class="highcharts-plot-background" aria-hidden="true" d="M80 56h510v290H80z"/><g class="highcharts-grid highcharts-xaxis-grid" data-z-index="1" aria-hidden="true" fill="none" stroke="#e6e6e6"><path data-z-index="1" class="highcharts-grid-line" d="m176.62 68.361 8.57 226.817m-15.714 13.42 15.714-13.42M216.302 69.92l6.483 228.835M208.24 312.43l14.544-13.675M256.77 71.508l4.314 230.891m-13.327 13.937 13.327-13.937m36.966-229.27 2.056 232.983m-12.058 14.207 12.058-14.207m40.058-231.33-.29 235.115m-10.74 14.483 10.74-14.483M383.139 76.47l-2.731 237.284m-9.365 14.769 9.365-14.77M427 78.192l-5.27 239.494m-7.934 15.063 7.935-15.063M471.776 79.95l-7.91 241.745m-6.445 15.367 6.444-15.367m53.631-239.95-10.66 244.04m-4.891 15.678 4.891-15.679m58.279-242.169-13.579 246.423m-3.241 16.007 3.241-16.007M137.701 66.833l10.58 224.832m-16.839 13.173 16.839-13.173"/></g><g class="highcharts-grid highcharts-yaxis-grid" data-z-index="1" aria-hidden="true" fill="none" stroke="#e6e6e6"><path data-z-index="1" class="highcharts-grid-line" d="m148.657 292.066 402.423 38.33m-419.25-25.143 16.827-13.187m-2.515-53.534 408.15 33.455M128.994 250.03l17.148-11.5m-2.619-55.771 414.125 28.207m-431.613-18.521 17.488-9.686m-2.656-56.546 420.193 22.71m-438.027-14.919 17.834-7.791m-2.807-59.775 426.617 16.707m-444.822-10.98 18.205-5.727"/></g><path fill="none" class="highcharts-plot-border" data-z-index="1" aria-hidden="true" d="M80 56h510v290H80z"/><g class="highcharts-axis highcharts-xaxis" data-z-index="2" aria-hidden="true"><text x="329.542" data-z-index="7" text-anchor="middle" class="highcharts-axis-title" style="color:#666;fill:#666" y="356.054">Age groups</text></g><g class="highcharts-axis highcharts-yaxis" data-z-index="2" aria-hidden="true"><text x="78.837" data-z-index="7" text-anchor="middle" transform="rotate(-90 78.837 192.045)" class="highcharts-axis-title" style="color:#666;fill:#666" y="192.045">Reported cases</text></g><g class="highcharts-series-group" data-z-index="3" aria-hidden="false"><g class="highcharts-markers highcharts-series-0 highcharts-cylinder-series highcharts-tracker" data-z-index="10" aria-hidden="false" stroke-linejoin="round"><g data-z-index="12601275" stroke="#f45b5b" class="highcharts-point highcharts-color-0" tabindex="-1" aria-label="0-9, 95,321. Cases." style="outline:0"><path fill="#DB4242" d="M164.892 303.406c-.838 1.94-6.045 3.529-11.613 3.529-5.569 0-9.323-1.59-8.386-3.53.927-1.92 6.115-3.466 11.585-3.466 5.47 0 9.244 1.546 8.414 3.467" class="highcharts-3d-bottom" data-z-index="0"/><path fill="#f45b5b" d="M139.763 196.656c.978-1.438 6.325-2.595 11.942-2.595 5.616 0 9.472 1.157 8.597 2.595l4.59 106.75c.83-1.921-2.944-3.467-8.414-3.467s-10.658 1.546-11.585 3.467Z" class="highcharts-3d-back" data-z-index="1"/><path fill="#f45b5b" d="M160.302 196.656c-.884 1.452-6.252 2.642-11.972 2.642s-9.555-1.19-8.567-2.642l5.13 106.75c-.937 1.94 2.817 3.529 8.386 3.529 5.568 0 10.775-1.59 11.613-3.53Z" class="highcharts-3d-front" data-z-index="2"/><path fill="#FF7474" d="M160.302 196.656c-.884 1.452-6.252 2.642-11.972 2.642s-9.555-1.19-8.567-2.642c.978-1.438 6.325-2.595 11.942-2.595 5.616 0 9.472 1.157 8.597 2.595" class="highcharts-3d-top" data-z-index="3"/></g><g data-z-index="63602355" stroke="#8085e9" class="highcharts-point highcharts-color-1" tabindex="-1" aria-label="10-19, 169,339. Cases." style="outline:0"><path fill="#676CD0" d="M203.064 307.134c-.656 1.977-5.758 3.597-11.38 3.597-5.621 0-9.566-1.62-8.81-3.597.75-1.957 5.836-3.532 11.357-3.532 5.522 0 9.482 1.575 8.833 3.532" class="highcharts-3d-bottom" data-z-index="0"/><path fill="#8085e9" d="M175.326 110.989c.825-1.04 6.192-1.878 11.985-1.878 5.793 0 9.921.837 9.205 1.878l6.548 196.145c.65-1.957-3.31-3.532-8.833-3.532-5.521 0-10.607 1.575-11.356 3.532Z" class="highcharts-3d-back" data-z-index="1"/><path fill="#8085e9" d="M196.516 110.989c-.723 1.051-6.108 1.913-12.011 1.913s-10.013-.862-9.18-1.913l7.55 196.145c-.757 1.977 3.188 3.597 8.81 3.597 5.62 0 10.723-1.62 11.379-3.597Z" class="highcharts-3d-front" data-z-index="2"/><path fill="#999EFF" d="M196.516 110.989c-.723 1.051-6.108 1.913-12.011 1.913s-10.013-.862-9.18-1.913c.826-1.04 6.193-1.878 11.986-1.878 5.793 0 9.921.837 9.205 1.878" class="highcharts-3d-top" data-z-index="3"/></g><g data-z-index="114601655" stroke="#8d4654" class="highcharts-point highcharts-color-2" tabindex="-1" aria-label="20-29, 121,105. Cases." style="outline:0"><path fill="#742D3B" d="M241.965 310.934c-.467 2.015-5.458 3.666-11.134 3.666s-9.817-1.651-9.248-3.666c.564-1.995 5.543-3.6 11.117-3.6 5.574 0 9.727 1.605 9.265 3.6" class="highcharts-3d-bottom" data-z-index="0"/><path fill="#8d4654" d="M217.573 171.321c.604-1.346 5.774-2.43 11.544-2.43 5.769 0 10.054 1.084 9.559 2.43l3.289 139.613c.462-1.995-3.691-3.6-9.265-3.6-5.574 0-10.553 1.605-11.117 3.6Z" class="highcharts-3d-back" data-z-index="1"/><path fill="#8d4654" d="M238.676 171.321c-.501 1.361-5.684 2.476-11.563 2.476-5.878 0-10.15-1.115-9.54-2.476l4.01 139.613c-.57 2.015 3.572 3.666 9.248 3.666 5.676 0 10.667-1.651 11.134-3.666Z" class="highcharts-3d-front" data-z-index="2"/><path fill="#A65F6D" d="M238.676 171.321c-.501 1.361-5.684 2.476-11.563 2.476-5.878 0-10.15-1.115-9.54-2.476.604-1.346 5.774-2.43 11.544-2.43 5.769 0 10.054 1.084 9.559 2.43" class="highcharts-3d-top" data-z-index="3"/></g><g data-z-index="165601865" stroke="#7798BF" class="highcharts-point highcharts-color-3" tabindex="-1" aria-label="30-39, 136,046. Cases." style="outline:0"><path fill="#5E7FA6" d="M281.617 314.807c-.27 2.054-5.146 3.737-10.877 3.737-5.73 0-10.077-1.683-9.702-3.737.372-2.033 5.24-3.67 10.866-3.67 5.628 0 9.98 1.637 9.713 3.67" class="highcharts-3d-bottom" data-z-index="0"/><path fill="#7798BF" d="M258.07 156.454c.401-1.288 5.474-2.324 11.325-2.324 5.851 0 10.369 1.036 10.08 2.324l2.142 158.353c.268-2.033-4.085-3.67-9.713-3.67-5.627 0-10.494 1.637-10.866 3.67Z" class="highcharts-3d-back" data-z-index="1"/><path fill="#7798BF" d="M279.474 156.454c-.293 1.302-5.375 2.37-11.338 2.37-5.963 0-10.472-1.068-10.067-2.37l2.97 158.353c-.376 2.054 3.97 3.737 9.701 3.737s10.606-1.683 10.877-3.737Z" class="highcharts-3d-front" data-z-index="2"/><path fill="#90B1D8" d="M279.474 156.454c-.293 1.302-5.375 2.37-11.338 2.37-5.963 0-10.472-1.068-10.067-2.37.402-1.288 5.475-2.324 11.326-2.324 5.851 0 10.369 1.036 10.08 2.324" class="highcharts-3d-top" data-z-index="3"/></g><g data-z-index="216601445" stroke="#aee" class="highcharts-point highcharts-color-4" tabindex="-1" aria-label="40-49, 106,800. Cases." style="outline:0"><path fill="#91D5D5" d="M322.042 318.756c-.067 2.094-4.82 3.81-10.607 3.81-5.788 0-10.345-1.716-10.172-3.81.17-2.074 4.921-3.742 10.603-3.742 5.681 0 10.241 1.668 10.176 3.742" class="highcharts-3d-bottom" data-z-index="0"/><path fill="#aee" d="M300.196 194.104c.181-1.487 5.085-2.683 10.945-2.683s10.56 1.196 10.49 2.683l.41 124.652c.066-2.074-4.494-3.742-10.175-3.742-5.682 0-10.432 1.668-10.603 3.742Z" class="highcharts-3d-back" data-z-index="1"/><path fill="#aee" d="M321.632 194.104c-.07 1.502-4.978 2.734-10.95 2.734-5.972 0-10.67-1.232-10.486-2.734l1.067 124.652c-.173 2.094 4.384 3.81 10.172 3.81 5.787 0 10.54-1.716 10.607-3.81Z" class="highcharts-3d-front" data-z-index="2"/><path fill="#C3FFFF" d="M321.632 194.104c-.07 1.502-4.978 2.734-10.95 2.734-5.972 0-10.67-1.232-10.486-2.734.181-1.487 5.085-2.683 10.945-2.683s10.56 1.196 10.49 2.683" class="highcharts-3d-top" data-z-index="3"/></g><g data-z-index="267600735" stroke="#f06" class="highcharts-point highcharts-color-5" tabindex="-1" aria-label="50-59, 58,041. Cases." style="outline:0"><path fill="#E6004D" d="M363.262 322.782c.146 2.136-4.48 3.886-10.325 3.886-5.844 0-10.62-1.75-10.658-3.886-.038-2.114 4.59-3.815 10.327-3.815s10.512 1.7 10.656 3.815" class="highcharts-3d-bottom" data-z-index="0"/><path fill="#f06" d="M342.403 255.596c-.039-1.8 4.667-3.249 10.5-3.249 5.835 0 10.692 1.448 10.841 3.249l-.482 67.186c-.144-2.114-4.919-3.815-10.656-3.815-5.737 0-10.365 1.7-10.327 3.815Z" class="highcharts-3d-back" data-z-index="1"/><path fill="#f06" d="M363.744 255.596c.152 1.819-4.552 3.31-10.497 3.31-5.946 0-10.805-1.491-10.844-3.31l-.124 67.186c.037 2.136 4.814 3.886 10.658 3.886 5.845 0 10.471-1.75 10.325-3.886Z" class="highcharts-3d-front" data-z-index="2"/><path fill="#FF197F" d="M363.744 255.596c.152 1.819-4.552 3.31-10.497 3.31-5.946 0-10.805-1.491-10.844-3.31-.039-1.8 4.667-3.249 10.5-3.249 5.835 0 10.692 1.448 10.841 3.249" class="highcharts-3d-top" data-z-index="3"/></g><g data-z-index="318600285" stroke="#eae" class="highcharts-point highcharts-color-6" tabindex="-1" aria-label="60-69, 26,766. Cases." style="outline:0"><path fill="#D591D5" d="M405.302 326.888c.367 2.179-4.125 3.965-10.029 3.965s-10.907-1.786-11.163-3.965c-.254-2.156 4.246-3.89 10.04-3.89 5.793 0 10.789 1.734 11.152 3.89" class="highcharts-3d-bottom" data-z-index="0"/><path fill="#eae" d="M384.5 295.7c-.259-2.01 4.275-3.628 10.114-3.628s10.876 1.617 11.245 3.628l-.557 31.188c-.363-2.156-5.36-3.89-11.153-3.89s-10.293 1.734-10.04 3.89Z" class="highcharts-3d-back" data-z-index="1"/><path fill="#eae" d="M405.86 295.7c.372 2.032-4.154 3.698-10.104 3.698-5.951 0-10.996-1.666-11.257-3.698l-.39 31.188c.257 2.179 5.26 3.965 11.164 3.965s10.396-1.786 10.029-3.965Z" class="highcharts-3d-front" data-z-index="2"/><path fill="#FFC3FF" d="M405.86 295.7c.372 2.032-4.154 3.698-10.104 3.698-5.951 0-10.996-1.666-11.257-3.698-.258-2.01 4.276-3.628 10.115-3.628s10.876 1.617 11.245 3.628" class="highcharts-3d-top" data-z-index="3"/></g><g data-z-index="369600105" stroke="#55BF3B" class="highcharts-point highcharts-color-7" tabindex="-1" aria-label="70-79, 14,291. Cases." style="outline:0"><path fill="#3CA622" d="M448.185 331.077c.597 2.223-3.755 4.045-9.718 4.045-5.964 0-11.202-1.822-11.686-4.045-.48-2.2 3.886-3.969 9.737-3.969s11.077 1.77 11.667 3.969" class="highcharts-3d-bottom" data-z-index="0"/><path fill="#55BF3B" d="M427.175 314.194c-.483-2.12 3.9-3.826 9.775-3.826 5.876 0 11.126 1.705 11.722 3.826l-.487 16.883c-.59-2.2-5.816-3.969-11.667-3.969s-10.216 1.77-9.737 3.969Z" class="highcharts-3d-back" data-z-index="1"/><path fill="#55BF3B" d="M448.672 314.194c.602 2.143-3.767 3.9-9.756 3.9-5.99 0-11.253-1.757-11.74-3.9l-.395 16.883c.484 2.223 5.722 4.045 11.686 4.045 5.963 0 10.315-1.822 9.718-4.045Z" class="highcharts-3d-front" data-z-index="2"/><path fill="#6ED854" d="M448.672 314.194c.602 2.143-3.767 3.9-9.756 3.9-5.99 0-11.253-1.757-11.74-3.9-.484-2.12 3.898-3.826 9.774-3.826 5.876 0 11.126 1.705 11.722 3.826" class="highcharts-3d-top" data-z-index="3"/></g><g data-z-index="420599995" stroke="#DF5353" class="highcharts-point highcharts-color-8" tabindex="-1" aria-label="80-89, 7,065. Cases." style="outline:0"><path fill="#C63A3A" d="M491.939 335.35c.836 2.269-3.37 4.128-9.394 4.128-6.025 0-11.507-1.86-12.228-4.127-.713-2.245 3.511-4.05 9.421-4.05 5.91 0 11.374 1.805 12.2 4.05" class="highcharts-3d-bottom" data-z-index="0"/><path fill="#DF5353" d="M470.596 327.256c-.716-2.206 3.516-3.98 9.438-3.98 5.922 0 11.398 1.774 12.229 3.98l-.324 8.095c-.827-2.245-6.291-4.05-12.2-4.05-5.91 0-10.135 1.805-9.422 4.05Z" class="highcharts-3d-back" data-z-index="1"/><path fill="#DF5353" d="M492.263 327.256c.84 2.23-3.374 4.058-9.411 4.058-6.037 0-11.532-1.828-12.256-4.058l-.28 8.095c.722 2.268 6.204 4.127 12.229 4.127 6.024 0 10.23-1.86 9.394-4.127Z" class="highcharts-3d-front" data-z-index="2"/><path fill="#F86C6C" d="M492.263 327.256c.84 2.23-3.374 4.058-9.411 4.058-6.037 0-11.532-1.828-12.256-4.058-.716-2.206 3.516-3.98 9.438-3.98 5.922 0 11.398 1.774 12.229 3.98" class="highcharts-3d-top" data-z-index="3"/></g><g data-z-index="471599945" stroke="#7798BF" class="highcharts-point highcharts-color-9" tabindex="-1" aria-label="90+, 3,283. Cases." style="outline:0"><path fill="#5E7FA6" d="M536.589 339.712c1.085 2.315-2.968 4.213-9.054 4.213-6.087 0-11.822-1.898-12.79-4.213-.957-2.29 3.12-4.133 9.09-4.133s11.68 1.842 12.754 4.133" class="highcharts-3d-bottom" data-z-index="0"/><path fill="#7798BF" d="M514.932 335.632c-.959-2.271 3.122-4.097 9.098-4.097 5.976 0 11.693 1.826 12.768 4.097l-.21 4.08c-1.073-2.29-6.783-4.133-12.753-4.133s-10.047 1.842-9.09 4.133Z" class="highcharts-3d-back" data-z-index="1"/><path fill="#7798BF" d="M536.798 335.632c1.088 2.295-2.968 4.178-9.061 4.178s-11.835-1.883-12.805-4.178l-.187 4.08c.968 2.315 6.703 4.213 12.79 4.213 6.086 0 10.139-1.898 9.054-4.213Z" class="highcharts-3d-front" data-z-index="2"/><path fill="#90B1D8" d="M536.798 335.632c1.088 2.295-2.968 4.178-9.061 4.178s-11.835-1.883-12.805-4.178c-.959-2.271 3.122-4.097 9.098-4.097 5.976 0 11.693 1.826 12.768 4.097" class="highcharts-3d-top" data-z-index="3"/></g></g></g><text x="300" text-anchor="middle" class="highcharts-title" data-z-index="4" style="color:#000;font-size:16px;font-weight:700;fill:#000" y="22" aria-hidden="true">Number of confirmed COVID-19</text><text x="300" text-anchor="middle" class="highcharts-subtitle" data-z-index="4" style="color:#000;fill:#000" y="42" aria-hidden="true">Source: <a target="_blank"><tspan>FHI</tspan></a></text><g class="highcharts-axis-labels highcharts-xaxis-labels" data-z-index="7" aria-hidden="true" text-anchor="middle"><text x="150.742" style="color:#6e6e70;cursor:default;font-size:11px;fill:#6e6e70" y="322.09">0-9</text><text x="189.146" style="color:#6e6e70;cursor:default;font-size:11px;fill:#6e6e70" y="326.033">10-19</text><text x="228.291" style="color:#6e6e70;cursor:default;font-size:11px;fill:#6e6e70" y="330.053">20-29</text><text x="268.199" style="color:#6e6e70;cursor:default;font-size:11px;fill:#6e6e70" y="334.15">30-39</text><text x="308.893" style="color:#6e6e70;cursor:default;font-size:11px;fill:#6e6e70" y="338.328">40-49</text><text x="350.396" style="color:#6e6e70;cursor:default;font-size:11px;fill:#6e6e70" y="342.589">50-59</text><text x="392.732" style="color:#6e6e70;cursor:default;font-size:11px;fill:#6e6e70" y="346.936">60-69</text><text x="435.926" style="color:#6e6e70;cursor:default;font-size:11px;fill:#6e6e70" y="351.371">70-79</text><text x="480.006" style="color:#6e6e70;cursor:default;font-size:11px;fill:#6e6e70" y="355.896">80-89</text><text x="524.997" style="color:#6e6e70;cursor:default;font-size:11px;fill:#6e6e70" y="360.516">90+</text></g><g class="highcharts-axis-labels highcharts-yaxis-labels" data-z-index="7" aria-hidden="true" text-anchor="end"><text x="119.96" style="color:#6e6e70;cursor:default;font-size:11px;fill:#6e6e70" y="308.654">0</text><text x="116.917" style="color:#6e6e70;cursor:default;font-size:11px;fill:#6e6e70" y="252.751">50k</text><text x="113.831" style="color:#6e6e70;cursor:default;font-size:11px;fill:#6e6e70" y="196.043">100k</text><text x="110.611" style="color:#6e6e70;cursor:default;font-size:11px;fill:#6e6e70" y="136.884">150k</text><text x="107.342" style="color:#6e6e70;cursor:default;font-size:11px;fill:#6e6e70" y="76.824">200k</text></g></svg>