<svg class="highcharts-root" style="font-family:Signika,serif;font-size:12px" xmlns="http://www.w3.org/2000/svg" width="600" height="400" aria-label="Interactive chart" aria-hidden="false"><rect fill="none" class="highcharts-background" width="600" height="400" rx="0" ry="0" aria-hidden="true"/><path fill="none" class="highcharts-plot-background" aria-hidden="true" d="M78 56h512v290H78z"/><g class="highcharts-grid highcharts-xaxis-grid" data-z-index="1" aria-hidden="true" fill="none"><path data-z-index="1" class="highcharts-grid-line" d="M78 77.5h512m-512 20h512m-512 21h512m-512 21h512m-512 21h512m-512 20h512m-512 21h512m-512 21h512m-512 20h512m-512 21h512m-512 21h512m-512 21h512m-512 20h512m-512 21h512M78 56.5h512"/></g><g class="highcharts-grid highcharts-yaxis-grid" data-z-index="1" aria-hidden="true" fill="none" stroke="#e6e6e6"><path data-z-index="1" class="highcharts-grid-line" d="M77.5 56v290m47-290v290m46-290v290m47-290v290m46-290v290m47-290v290m46-290v290m47-290v290m46-290v290m47-290v290m46-290v290m48-290v290"/></g><path fill="none" class="highcharts-plot-border" data-z-index="1" aria-hidden="true" d="M78 56h512v290H78z"/><g class="highcharts-axis highcharts-xaxis" data-z-index="2" aria-hidden="true"><path fill="none" class="highcharts-axis-line" stroke="#ccd6eb" data-z-index="7" d="M77.5 56v290"/></g><g class="highcharts-axis highcharts-yaxis" data-z-index="2" aria-hidden="true"><text x="334" data-z-index="7" text-anchor="middle" class="highcharts-axis-title" style="color:#666;fill:#666" y="383.5">Life Expectancy (years)</text><path fill="none" class="highcharts-axis-line" data-z-index="7" d="M78 346h512"/></g><g class="highcharts-series-group" data-z-index="3" aria-hidden="false"><g class="highcharts-markers highcharts-series-0 highcharts-dumbbell-series highcharts-color-0 highcharts-tracker" data-z-index=".1" aria-hidden="false"><path fill="none" class="highcharts-lollipop-stem" data-z-index="-1" d="M219.964 66.5h260.654m-239.708 21h253.672m-286.255 20h181.528m-162.91 21h151.273m-72.145 21h151.272m-258.327 20h123.346m-16.291 21h218.763m-281.6 21h79.128m-4.654 21h207.126m-384 20h337.455m-302.546 21h109.382m-72.145 21h116.363m-2.327 20h197.818m-232.726 21h251.345" stroke="#f45b5b"/><path fill="#333" d="M279 374a4 4 0 1 1 .004 0Z" class="highcharts-point highcharts-color-0 highcharts-lollipop-low" tabindex="-1" aria-label="Austria, low: 70.1, high: 81.3. Life expectancy change." style="outline:0" transform="matrix(0 -1 -1 0 590 346)"/><path fill="#333" d="M258 353a4 4 0 1 1 .004 0Z" class="highcharts-point highcharts-color-0 highcharts-lollipop-low" tabindex="-1" aria-label="Belgium, low: 71, high: 81.9. Life expectancy change." style="outline:0" transform="matrix(0 -1 -1 0 590 346)"/><path fill="#333" d="M238 385a4 4 0 1 1 .004 0Z" class="highcharts-point highcharts-color-0 highcharts-lollipop-low" tabindex="-1" aria-label="Czechia, low: 69.6, high: 77.4. Life expectancy change." style="outline:0" transform="matrix(0 -1 -1 0 590 346)"/><path fill="#333" d="M217 367a4 4 0 1 1 .004 0Z" class="highcharts-point highcharts-color-0 highcharts-lollipop-low" tabindex="-1" aria-label="Estonia, low: 70.4, high: 76.9. Life expectancy change." style="outline:0" transform="matrix(0 -1 -1 0 590 346)"/><path fill="#333" d="M196 287a4 4 0 1 1 .004 0Z" class="highcharts-point highcharts-color-0 highcharts-lollipop-low" tabindex="-1" aria-label="Greece, low: 73.8, high: 80.3. Life expectancy change." style="outline:0" transform="matrix(0 -1 -1 0 590 346)"/><path fill="#333" d="M176 394a4 4 0 1 1 .004 0Z" class="highcharts-point highcharts-color-0 highcharts-lollipop-low" tabindex="-1" aria-label="Hungary, low: 69.2, high: 74.5. Life expectancy change." style="outline:0" transform="matrix(0 -1 -1 0 590 346)"/><path fill="#333" d="M155 287a4 4 0 1 1 .004 0Z" class="highcharts-point highcharts-color-0 highcharts-lollipop-low" tabindex="-1" aria-label="Iceland, low: 73.8, high: 83.2. Life expectancy change." style="outline:0" transform="matrix(0 -1 -1 0 590 346)"/><path fill="#333" d="M134 350a4 4 0 1 1 .004 0Z" class="highcharts-point highcharts-color-0 highcharts-lollipop-low" tabindex="-1" aria-label="Lithuania, low: 71.1, high: 74.5. Life expectancy change." style="outline:0" transform="matrix(0 -1 -1 0 590 346)"/><path fill="#333" d="M113 276a4 4 0 1 1 .004 0Z" class="highcharts-point highcharts-color-0 highcharts-lollipop-low" tabindex="-1" aria-label="Norway, low: 74.3, high: 83.2. Life expectancy change." style="outline:0" transform="matrix(0 -1 -1 0 590 346)"/><path fill="#333" d="M93 453a4 4 0 1 1 .004 0Z" class="highcharts-point highcharts-color-0 highcharts-lollipop-low" tabindex="-1" aria-label="Portugal, low: 66.7, high: 81.2. Life expectancy change." style="outline:0" transform="matrix(0 -1 -1 0 590 346)"/><path fill="#333" d="M72 418a4 4 0 1 1 .004 0Z" class="highcharts-point highcharts-color-0 highcharts-lollipop-low" tabindex="-1" aria-label="Romania, low: 68.2, high: 72.9. Life expectancy change." style="outline:0" transform="matrix(0 -1 -1 0 590 346)"/><path fill="#333" d="M51 381a4 4 0 1 1 .004 0Z" class="highcharts-point highcharts-color-0 highcharts-lollipop-low" tabindex="-1" aria-label="Slovakia, low: 69.8, high: 74.8. Life expectancy change." style="outline:0" transform="matrix(0 -1 -1 0 590 346)"/><path fill="#333" d="M31 266a4 4 0 1 1 .004 0Z" class="highcharts-point highcharts-color-0 highcharts-lollipop-low" tabindex="-1" aria-label="Sweden, low: 74.7, high: 83.2. Life expectancy change." style="outline:0" transform="matrix(0 -1 -1 0 590 346)"/><path fill="#333" d="M10 301a4 4 0 1 1 .004 0Z" class="highcharts-point highcharts-color-0 highcharts-lollipop-low" tabindex="-1" aria-label="Switzerland, low: 73.2, high: 84. Life expectancy change." style="outline:0" transform="matrix(0 -1 -1 0 590 346)"/><path fill="#f45b5b" d="M477 67a4 4 0 1 0 0-.004Zm14 21a4 4 0 1 0 0-.004Zm-105 20a4 4 0 1 0 0-.004Zm-11 21a4 4 0 1 0 0-.004Zm79 21a4 4 0 1 0 0-.004Zm-135 20a4 4 0 1 0 0-.004Zm202 21a4 4 0 1 0 0-.004Zm-202 21a4 4 0 1 0 0-.004Zm202 21a4 4 0 1 0 0-.004Zm-46 20a4 4 0 1 0 0-.004Zm-193 21a4 4 0 1 0 0-.004Zm44 21a4 4 0 1 0 0-.004Zm195 20a4 4 0 1 0 0-.004Zm19 21a4 4 0 1 0 0-.004Z" class="highcharts-point highcharts-color-0 highcharts-lollipop-high"/></g></g><text x="300" text-anchor="middle" class="highcharts-title" data-z-index="4" style="color:#000;font-size:16px;font-weight:700;fill:#000" y="22" aria-hidden="true">Change in Life Expectancy</text><text x="300" text-anchor="middle" class="highcharts-subtitle" data-z-index="4" style="color:#000;fill:#000" y="42" aria-hidden="true">1970 vs 2021 Source: <a target="_blank"><tspan>Eurostat</tspan></a></text><g class="highcharts-axis-labels highcharts-xaxis-labels" data-z-index="7" aria-hidden="true" text-anchor="end"><text x="63" style="color:#6e6e70;cursor:default;font-size:11px;fill:#6e6e70" y="71">Austria</text><text x="63" style="color:#6e6e70;cursor:default;font-size:11px;fill:#6e6e70" y="92">Belgium</text><text x="63" style="color:#6e6e70;cursor:default;font-size:11px;fill:#6e6e70" y="113">Czechia</text><text x="63" style="color:#6e6e70;cursor:default;font-size:11px;fill:#6e6e70" y="133">Estonia</text><text x="63" style="color:#6e6e70;cursor:default;font-size:11px;fill:#6e6e70" y="154">Greece</text><text x="63" style="color:#6e6e70;cursor:default;font-size:11px;fill:#6e6e70" y="175">Hungary</text><text x="63" style="color:#6e6e70;cursor:default;font-size:11px;fill:#6e6e70" y="195">Iceland</text><text x="63" style="color:#6e6e70;cursor:default;font-size:11px;fill:#6e6e70" y="216">Lithuania</text><text x="63" style="color:#6e6e70;cursor:default;font-size:11px;fill:#6e6e70" y="237">Norway</text><text x="63" style="color:#6e6e70;cursor:default;font-size:11px;fill:#6e6e70" y="258">Portugal</text><text x="63" style="color:#6e6e70;cursor:default;font-size:11px;fill:#6e6e70" y="278">Romania</text><text x="63" style="color:#6e6e70;cursor:default;font-size:11px;fill:#6e6e70" y="299">Slovakia</text><text x="63" style="color:#6e6e70;cursor:default;font-size:11px;fill:#6e6e70" y="320">Sweden</text><text x="63" style="color:#6e6e70;cursor:default;font-size:11px;fill:#6e6e70" y="340">Switzerland</text></g><g class="highcharts-axis-labels highcharts-yaxis-labels" data-z-index="7" aria-hidden="true" text-anchor="middle"><text x="78" style="color:#6e6e70;cursor:default;font-size:11px;fill:#6e6e70" y="365">64</text><text x="124.545" style="color:#6e6e70;cursor:default;font-size:11px;fill:#6e6e70" y="365">66</text><text x="171.091" style="color:#6e6e70;cursor:default;font-size:11px;fill:#6e6e70" y="365">68</text><text x="217.636" style="color:#6e6e70;cursor:default;font-size:11px;fill:#6e6e70" y="365">70</text><text x="264.182" style="color:#6e6e70;cursor:default;font-size:11px;fill:#6e6e70" y="365">72</text><text x="310.727" style="color:#6e6e70;cursor:default;font-size:11px;fill:#6e6e70" y="365">74</text><text x="357.273" style="color:#6e6e70;cursor:default;font-size:11px;fill:#6e6e70" y="365">76</text><text x="403.818" style="color:#6e6e70;cursor:default;font-size:11px;fill:#6e6e70" y="365">78</text><text x="450.364" style="color:#6e6e70;cursor:default;font-size:11px;fill:#6e6e70" y="365">80</text><text x="496.909" style="color:#6e6e70;cursor:default;font-size:11px;fill:#6e6e70" y="365">82</text><text x="543.455" style="color:#6e6e70;cursor:default;font-size:11px;fill:#6e6e70" y="365">84</text><text x="584.5" style="color:#6e6e70;cursor:default;font-size:11px;fill:#6e6e70" y="365">86</text></g></svg>