<svg class="highcharts-root" style="font-family:Signika,serif;font-size:12px" xmlns="http://www.w3.org/2000/svg" width="600" height="400" aria-label="Interactive chart" aria-hidden="false"><rect fill="none" class="highcharts-background" width="600" height="400" rx="0" ry="0" aria-hidden="true"/><path fill="none" class="highcharts-plot-background" aria-hidden="true" d="M10 43h580v342H10z"/><path fill="none" class="highcharts-plot-border" data-z-index="1" aria-hidden="true" d="M10 43h580v342H10z"/><g class="highcharts-series-group" data-z-index="3" aria-hidden="false"><g class="highcharts-series highcharts-series-0 highcharts-pie-series highcharts-tracker" data-z-index=".1" style="cursor:pointer" aria-hidden="false" stroke-linejoin="round"><g class="highcharts-shadow" data-z-index="-1" fill="none" stroke="#000"><g class="highcharts-shadow"><path d="M300.967 54A161 161 0 1 1 140.24 223.785L301 215Z" stroke-width="5" stroke-opacity=".05" class="highcharts-shadow"/><path d="M300.967 54A161 161 0 1 1 140.24 223.785L301 215Z" stroke-width="3" stroke-opacity=".1" class="highcharts-shadow"/><path d="M300.967 54A161 161 0 1 1 140.24 223.785L301 215Z" stroke-opacity=".15" class="highcharts-shadow"/></g><g class="highcharts-shadow"><path d="M140.231 223.624a161 161 0 0 1 42.028-117.352L301 215Z" stroke-width="5" stroke-opacity=".05" class="highcharts-shadow"/><path d="M140.231 223.624a161 161 0 0 1 42.028-117.352L301 215Z" stroke-width="3" stroke-opacity=".1" class="highcharts-shadow"/><path d="M140.231 223.624a161 161 0 0 1 42.028-117.352L301 215Z" stroke-opacity=".15" class="highcharts-shadow"/></g><g class="highcharts-shadow"><path d="M182.368 106.154a161 161 0 0 1 39.14-31.16L301 215Z" stroke-width="5" stroke-opacity=".05" class="highcharts-shadow"/><path d="M182.368 106.154a161 161 0 0 1 39.14-31.16L301 215Z" stroke-width="3" stroke-opacity=".1" class="highcharts-shadow"/><path d="M182.368 106.154a161 161 0 0 1 39.14-31.16L301 215Z" stroke-opacity=".15" class="highcharts-shadow"/></g><g class="highcharts-shadow"><path d="M221.647 74.914a161 161 0 0 1 22.578-10.571L301 215Z" stroke-width="5" stroke-opacity=".05" class="highcharts-shadow"/><path d="M221.647 74.914a161 161 0 0 1 22.578-10.571L301 215Z" stroke-width="3" stroke-opacity=".1" class="highcharts-shadow"/><path d="M221.647 74.914a161 161 0 0 1 22.578-10.571L301 215Z" stroke-opacity=".15" class="highcharts-shadow"/></g><g class="highcharts-shadow"><path d="M244.376 64.286a161 161 0 0 1 22.371-6.6L301 215Z" stroke-width="5" stroke-opacity=".05" class="highcharts-shadow"/><path d="M244.376 64.286a161 161 0 0 1 22.371-6.6L301 215Z" stroke-width="3" stroke-opacity=".1" class="highcharts-shadow"/><path d="M244.376 64.286a161 161 0 0 1 22.371-6.6L301 215Z" stroke-opacity=".15" class="highcharts-shadow"/></g><g class="highcharts-shadow"><path d="M266.905 57.652A161 161 0 0 1 300.776 54L301 215Z" stroke-width="5" stroke-opacity=".05" class="highcharts-shadow"/><path d="M266.905 57.652A161 161 0 0 1 300.776 54L301 215Z" stroke-width="3" stroke-opacity=".1" class="highcharts-shadow"/><path d="M266.905 57.652A161 161 0 0 1 300.776 54L301 215Z" stroke-opacity=".15" class="highcharts-shadow"/></g></g><path fill="#870000" d="M289.967 10A161 161 0 1 1 129.24 179.785L290 171Z" stroke="#fff" class="highcharts-point highcharts-color-0" tabindex="-1" aria-label="Chrome, 74.03%. Share." style="outline:0" transform="translate(10 43)"/><path fill="#AC1313" d="M129.231 179.624A161 161 0 0 1 171.26 62.272L290 171Z" stroke="#fff" class="highcharts-point highcharts-color-1" tabindex="-1" aria-label="Edge, 12.66%. Share." style="outline:0" transform="translate(10 43)"/><path fill="#D03737" d="M171.368 62.154a161 161 0 0 1 39.14-31.16L290 171Z" stroke="#fff" class="highcharts-point highcharts-color-2" tabindex="-1" aria-label="Firefox, 4.96%. Share." style="outline:0" transform="translate(10 43)"/><path fill="#F45B5B" d="M210.647 30.914a161 161 0 0 1 22.578-10.571L290 171Z" stroke="#fff" class="highcharts-point highcharts-color-3" tabindex="-1" aria-label="Safari, 2.49%. Share." style="outline:0" transform="translate(10 43)"/><path fill="#FF7F7F" d="M233.376 20.286a161 161 0 0 1 22.371-6.6L290 171Z" stroke="#fff" class="highcharts-point highcharts-color-4" tabindex="-1" aria-label="Internet Explorer, 2.31%. Share." style="outline:0" transform="translate(10 43)"/><path fill="#FFA3A3" d="M255.905 13.652A161 161 0 0 1 289.776 10L290 171Z" stroke="#fff" class="highcharts-point highcharts-color-5" tabindex="-1" aria-label="Other, 3.398%. Share." style="outline:0" transform="translate(10 43)"/></g></g><text x="300" text-anchor="middle" class="highcharts-title" data-z-index="4" style="color:#000;font-size:16px;font-weight:700;fill:#000" y="22" aria-hidden="true">Browser market shares in February, 2022</text><g class="highcharts-data-labels highcharts-series-0 highcharts-pie-series highcharts-tracker" data-z-index="6" aria-hidden="true" style="cursor:pointer"><g style="cursor:pointer"><text x="5" data-z-index="1" y="16" style="color:#fff;font-size:11px;font-weight:700;fill:#fff" transform="translate(356 280)" class="highcharts-label highcharts-data-label highcharts-data-label-color-0"><tspan class="highcharts-text-outline" fill="#000" stroke="#000" stroke-width="2" stroke-linejoin="round"><tspan style="font-weight:700">Chrome</tspan><tspan class="highcharts-br" dy="14" x="5">​</tspan>74.1 %<tspan x="5" dy="-14">​</tspan></tspan><tspan style="font-weight:700">Chrome</tspan><tspan class="highcharts-br" dy="14" x="5">​</tspan>74.1 %</text></g><g style="cursor:pointer"><text x="5" data-z-index="1" y="16" style="color:#fff;font-size:11px;font-weight:700;fill:#fff" transform="translate(174 167)" class="highcharts-label highcharts-data-label highcharts-data-label-color-1"><tspan class="highcharts-text-outline" fill="#000" stroke="#000" stroke-width="2" stroke-linejoin="round"><tspan style="font-weight:700">Edge</tspan><tspan class="highcharts-br" dy="14" x="5">​</tspan>12.7 %<tspan x="5" dy="-14">​</tspan></tspan><tspan style="font-weight:700">Edge</tspan><tspan class="highcharts-br" dy="14" x="5">​</tspan>12.7 %</text></g><g style="cursor:pointer"><text x="5" data-z-index="1" y="16" style="color:#fff;font-size:11px;font-weight:700;fill:#fff" transform="translate(209 117)" class="highcharts-label highcharts-data-label highcharts-data-label-color-2"><tspan class="highcharts-text-outline" fill="#000" stroke="#000" stroke-width="2" stroke-linejoin="round"><tspan style="font-weight:700">Firefox</tspan><tspan class="highcharts-br" dy="14" x="5">​</tspan>5.0 %<tspan x="5" dy="-14">​</tspan></tspan><tspan style="font-weight:700">Firefox</tspan><tspan class="highcharts-br" dy="14" x="5">​</tspan>5.0 %</text></g></g></svg>