<svg class="highcharts-root" style="font-family:Signika,serif;font-size:12px" xmlns="http://www.w3.org/2000/svg" width="600" height="400" aria-label="Interactive chart" aria-hidden="false"><rect fill="none" class="highcharts-background" width="600" height="400" rx="0" ry="0" aria-hidden="true"/><path fill="none" class="highcharts-plot-background" aria-hidden="true" d="M10 43h580v303H10z"/><path fill="none" class="highcharts-plot-border" data-z-index="1" aria-hidden="true" d="M10 43h580v303H10z"/><g class="highcharts-series-group" data-z-index="3" aria-hidden="false"><g class="highcharts-series highcharts-series-0 highcharts-pie-series highcharts-tracker" data-z-index=".1" style="cursor:pointer" aria-hidden="false" stroke-linejoin="round"><g class="highcharts-shadow" data-z-index="-1" fill="none" stroke="#000"><g class="highcharts-shadow"><path d="M307.971 61a141.5 141.5 0 1 1-141.458 143.423L308 202.5Z" stroke-width="5" stroke-opacity=".05" class="highcharts-shadow"/><path d="M307.971 61a141.5 141.5 0 1 1-141.458 143.423L308 202.5Z" stroke-width="3" stroke-opacity=".1" class="highcharts-shadow"/><path d="M307.971 61a141.5 141.5 0 1 1-141.458 143.423L308 202.5Z" stroke-opacity=".15" class="highcharts-shadow"/></g><g class="highcharts-shadow"><path d="M159.511 197.282a141.5 141.5 0 0 1 42.137-102.536L301 195.5Z" stroke-width="5" stroke-opacity=".05" class="highcharts-shadow"/><path d="M159.511 197.282a141.5 141.5 0 0 1 42.137-102.536L301 195.5Z" stroke-width="3" stroke-opacity=".1" class="highcharts-shadow"/><path d="M159.511 197.282a141.5 141.5 0 0 1 42.137-102.536L301 195.5Z" stroke-opacity=".15" class="highcharts-shadow"/></g><g class="highcharts-shadow"><path d="M201.749 94.646a141.5 141.5 0 0 1 32.984-24.17L301 195.5Z" stroke-width="5" stroke-opacity=".05" class="highcharts-shadow"/><path d="M201.749 94.646a141.5 141.5 0 0 1 32.984-24.17L301 195.5Z" stroke-width="3" stroke-opacity=".1" class="highcharts-shadow"/><path d="M201.749 94.646a141.5 141.5 0 0 1 32.984-24.17L301 195.5Z" stroke-opacity=".15" class="highcharts-shadow"/></g><g class="highcharts-shadow"><path d="M234.858 70.41a141.5 141.5 0 0 1 19.703-8.572L301 195.5Z" stroke-width="5" stroke-opacity=".05" class="highcharts-shadow"/><path d="M234.858 70.41a141.5 141.5 0 0 1 19.703-8.572L301 195.5Z" stroke-width="3" stroke-opacity=".1" class="highcharts-shadow"/><path d="M234.858 70.41a141.5 141.5 0 0 1 19.703-8.572L301 195.5Z" stroke-opacity=".15" class="highcharts-shadow"/></g><g class="highcharts-shadow"><path d="M254.695 61.791a141.5 141.5 0 0 1 17.17-4.759L301 195.5Z" stroke-width="5" stroke-opacity=".05" class="highcharts-shadow"/><path d="M254.695 61.791a141.5 141.5 0 0 1 17.17-4.759L301 195.5Z" stroke-width="3" stroke-opacity=".1" class="highcharts-shadow"/><path d="M254.695 61.791a141.5 141.5 0 0 1 17.17-4.759L301 195.5Z" stroke-opacity=".15" class="highcharts-shadow"/></g><g class="highcharts-shadow"><path d="M272.003 57.003a141.5 141.5 0 0 1 28.8-3.003L301 195.5Z" stroke-width="5" stroke-opacity=".05" class="highcharts-shadow"/><path d="M272.003 57.003a141.5 141.5 0 0 1 28.8-3.003L301 195.5Z" stroke-width="3" stroke-opacity=".1" class="highcharts-shadow"/><path d="M272.003 57.003a141.5 141.5 0 0 1 28.8-3.003L301 195.5Z" stroke-opacity=".15" class="highcharts-shadow"/></g></g><path fill="#f45b5b" d="M289.971 10a141.5 141.5 0 1 1-141.458 143.423L290 151.5Z" transform="translate(17 50)" stroke="#fff" class="highcharts-point highcharts-point-select highcharts-color-0" tabindex="-1" aria-label="Chrome, 74.77%. Brands." style="outline:0"/><path fill="#8085e9" d="M148.511 153.282a141.5 141.5 0 0 1 42.137-102.536L290 151.5Z" transform="translate(10 43)" stroke="#fff" class="highcharts-point highcharts-color-1" tabindex="-1" aria-label="Edge, 12.82%. Brands." style="outline:0"/><path fill="#8d4654" d="M190.749 50.646a141.5 141.5 0 0 1 32.984-24.17L290 151.5Z" transform="translate(10 43)" stroke="#fff" class="highcharts-point highcharts-color-2" tabindex="-1" aria-label="Firefox, 4.63%. Brands." style="outline:0"/><path fill="#7798BF" d="M223.858 26.41a141.5 141.5 0 0 1 19.703-8.572L290 151.5Z" transform="translate(10 43)" stroke="#fff" class="highcharts-point highcharts-color-3" tabindex="-1" aria-label="Safari, 2.44%. Brands." style="outline:0"/><path fill="#aee" d="M243.695 17.791a141.5 141.5 0 0 1 17.17-4.759L290 151.5Z" transform="translate(10 43)" stroke="#fff" class="highcharts-point highcharts-color-4" tabindex="-1" aria-label="Internet Explorer, 2.02%. Brands." style="outline:0"/><path fill="#f06" d="M261.003 13.003a141.5 141.5 0 0 1 28.8-3.003L290 151.5Z" transform="translate(10 43)" stroke="#fff" class="highcharts-point highcharts-color-5" tabindex="-1" aria-label="Other, 3.28%. Brands." style="outline:0"/></g></g><text x="300" text-anchor="middle" class="highcharts-title" data-z-index="4" style="color:#000;font-size:16px;font-weight:700;fill:#000" y="22" aria-hidden="true">Browser market shares in March, 2022</text><g class="highcharts-legend highcharts-no-tooltip" data-z-index="7" transform="translate(39 358)" aria-hidden="true"><rect fill="#E0E0E8" class="highcharts-legend-box" rx="0" ry="0" width="521" height="27"/><g data-z-index="1"><g class="highcharts-legend-item highcharts-pie-series highcharts-color-0" data-z-index="1" transform="translate(8 3)"><text x="21" data-z-index="2" y="16" style="color:#333;cursor:pointer;font-size:13px;font-weight:700;fill:#333">Chrome</text><rect x="1.5" y="4" width="13" height="13" fill="#f45b5b" rx="6.5" ry="6.5" class="highcharts-point" data-z-index="3"/></g><g class="highcharts-legend-item highcharts-pie-series highcharts-color-1" data-z-index="1" transform="translate(94.258 3)"><text x="21" y="16" data-z-index="2" style="color:#333;cursor:pointer;font-size:13px;font-weight:700;fill:#333">Edge</text><rect x="1.5" y="4" width="13" height="13" fill="#8085e9" rx="6.5" ry="6.5" class="highcharts-point" data-z-index="3"/></g><g class="highcharts-legend-item highcharts-pie-series highcharts-color-2" data-z-index="1" transform="translate(163.43 3)"><text x="21" y="16" data-z-index="2" style="color:#333;cursor:pointer;font-size:13px;font-weight:700;fill:#333">Firefox</text><rect x="1.5" y="4" width="13" height="13" fill="#8d4654" rx="6.5" ry="6.5" class="highcharts-point" data-z-index="3"/></g><g class="highcharts-legend-item highcharts-pie-series highcharts-color-3" data-z-index="1" transform="translate(244.617 3)"><text x="21" y="16" data-z-index="2" style="color:#333;cursor:pointer;font-size:13px;font-weight:700;fill:#333">Safari</text><rect x="1.5" y="4" width="13" height="13" fill="#7798BF" rx="6.5" ry="6.5" class="highcharts-point" data-z-index="3"/></g><g class="highcharts-legend-item highcharts-pie-series highcharts-color-4" data-z-index="1" transform="translate(319.563 3)"><text x="21" y="16" data-z-index="2" style="color:#333;cursor:pointer;font-size:13px;font-weight:700;fill:#333">Internet Explorer</text><rect x="1.5" y="4" width="13" height="13" fill="#aee" rx="6.5" ry="6.5" class="highcharts-point" data-z-index="3"/></g><g class="highcharts-legend-item highcharts-pie-series highcharts-color-5" data-z-index="1" transform="translate(458.89 3)"><text x="21" y="16" data-z-index="2" style="color:#333;cursor:pointer;font-size:13px;font-weight:700;fill:#333">Other</text><rect x="1.5" y="4" width="13" height="13" fill="#f06" rx="6.5" ry="6.5" class="highcharts-point" data-z-index="3"/></g></g></g></svg>