<svg class="highcharts-root" style="font-family:Signika,serif;font-size:12px" xmlns="http://www.w3.org/2000/svg" width="500" height="400" aria-label="Interactive chart" aria-hidden="false"><rect fill="none" class="highcharts-background" width="500" height="400" rx="0" ry="0" aria-hidden="true"/><path fill="none" class="highcharts-plot-background" aria-hidden="true" d="M10 10h480v375H10z"/><path fill="none" class="highcharts-plot-border" data-z-index="1" aria-hidden="true" d="M10 10h480v375H10z"/><g class="highcharts-series-group" data-z-index="3" aria-hidden="false"><g class="highcharts-series highcharts-series-0 highcharts-pie-series highcharts-tracker" data-z-index=".1" aria-hidden="false" stroke-linejoin="round"><g class="highcharts-shadow" data-z-index="-1" fill="none" stroke="#000"><g class="highcharts-shadow"><path d="M56.75 282.33a194.25 194.25 0 0 1 326.487-142.37l-66.118 71.145a97.125 97.125 0 0 0-163.244 71.185Z" stroke-width="5" stroke-opacity=".05" class="highcharts-shadow"/><path d="M56.75 282.33a194.25 194.25 0 0 1 326.487-142.37l-66.118 71.145a97.125 97.125 0 0 0-163.244 71.185Z" stroke-width="3" stroke-opacity=".1" class="highcharts-shadow"/><path d="M56.75 282.33a194.25 194.25 0 0 1 326.487-142.37l-66.118 71.145a97.125 97.125 0 0 0-163.244 71.185Z" stroke-opacity=".15" class="highcharts-shadow"/></g><g class="highcharts-shadow"><path d="M383.38 140.092a194.25 194.25 0 0 1 42.868 58.366l-87.624 41.896a97.125 97.125 0 0 0-21.434-29.183Z" stroke-width="5" stroke-opacity=".05" class="highcharts-shadow"/><path d="M383.38 140.092a194.25 194.25 0 0 1 42.868 58.366l-87.624 41.896a97.125 97.125 0 0 0-21.434-29.183Z" stroke-width="3" stroke-opacity=".1" class="highcharts-shadow"/><path d="M383.38 140.092a194.25 194.25 0 0 1 42.868 58.366l-87.624 41.896a97.125 97.125 0 0 0-21.434-29.183Z" stroke-opacity=".15" class="highcharts-shadow"/></g><g class="highcharts-shadow"><path d="M426.332 198.634a194.25 194.25 0 0 1 11.724 31.242l-93.528 26.187a97.125 97.125 0 0 0-5.862-15.621Z" stroke-width="5" stroke-opacity=".05" class="highcharts-shadow"/><path d="M426.332 198.634a194.25 194.25 0 0 1 11.724 31.242l-93.528 26.187a97.125 97.125 0 0 0-5.862-15.621Z" stroke-width="3" stroke-opacity=".1" class="highcharts-shadow"/><path d="M426.332 198.634a194.25 194.25 0 0 1 11.724 31.242l-93.528 26.187a97.125 97.125 0 0 0-5.862-15.621Z" stroke-opacity=".15" class="highcharts-shadow"/></g><g class="highcharts-shadow"><path d="M438.108 230.063a194.25 194.25 0 0 1 4.038 17.602l-95.573 17.292a97.125 97.125 0 0 0-2.019-8.8Z" stroke-width="5" stroke-opacity=".05" class="highcharts-shadow"/><path d="M438.108 230.063a194.25 194.25 0 0 1 4.038 17.602l-95.573 17.292a97.125 97.125 0 0 0-2.019-8.8Z" stroke-width="3" stroke-opacity=".1" class="highcharts-shadow"/><path d="M438.108 230.063a194.25 194.25 0 0 1 4.038 17.602l-95.573 17.292a97.125 97.125 0 0 0-2.019-8.8Z" stroke-opacity=".15" class="highcharts-shadow"/></g><g class="highcharts-shadow"><path d="M442.18 247.856a194.25 194.25 0 0 1 1.696 11.333l-96.438 11.53a97.125 97.125 0 0 0-.848-5.666Z" stroke-width="5" stroke-opacity=".05" class="highcharts-shadow"/><path d="M442.18 247.856a194.25 194.25 0 0 1 1.696 11.333l-96.438 11.53a97.125 97.125 0 0 0-.848-5.666Z" stroke-width="3" stroke-opacity=".1" class="highcharts-shadow"/><path d="M442.18 247.856a194.25 194.25 0 0 1 1.696 11.333l-96.438 11.53a97.125 97.125 0 0 0-.848-5.666Z" stroke-opacity=".15" class="highcharts-shadow"/></g><g class="highcharts-shadow"><path d="M443.9 259.382a194.25 194.25 0 0 1 1.35 22.674l-97.125.097a97.125 97.125 0 0 0-.675-11.337Z" stroke-width="5" stroke-opacity=".05" class="highcharts-shadow"/><path d="M443.9 259.382a194.25 194.25 0 0 1 1.35 22.674l-97.125.097a97.125 97.125 0 0 0-.675-11.337Z" stroke-width="3" stroke-opacity=".1" class="highcharts-shadow"/><path d="M443.9 259.382a194.25 194.25 0 0 1 1.35 22.674l-97.125.097a97.125 97.125 0 0 0-.675-11.337Z" stroke-opacity=".15" class="highcharts-shadow"/></g></g><path fill="#f45b5b" d="M45.75 271.33a194.25 194.25 0 0 1 326.487-142.37l-66.118 71.145a97.125 97.125 0 0 0-163.244 71.185Z" stroke="#fff" class="highcharts-point highcharts-color-0" tabindex="-1" aria-label="Chrome, 73.86%. Browser share." style="outline:0" transform="translate(10 10)"/><path fill="#8085e9" d="M372.38 129.092a194.25 194.25 0 0 1 42.868 58.366l-87.624 41.896a97.125 97.125 0 0 0-21.434-29.183Z" stroke="#fff" class="highcharts-point highcharts-color-1" tabindex="-1" aria-label="Edge, 11.97%. Browser share." style="outline:0" transform="translate(10 10)"/><path fill="#8d4654" d="M415.332 187.634a194.25 194.25 0 0 1 11.724 31.242l-93.528 26.187a97.125 97.125 0 0 0-5.862-15.621Z" stroke="#fff" class="highcharts-point highcharts-color-2" tabindex="-1" aria-label="Firefox, 5.52%. Browser share." style="outline:0" transform="translate(10 10)"/><path fill="#7798BF" d="M427.108 219.063a194.25 194.25 0 0 1 4.038 17.602l-95.573 17.292a97.125 97.125 0 0 0-2.019-8.8Z" stroke="#fff" class="highcharts-point highcharts-color-3" tabindex="-1" aria-label="Safari, 2.98%. Browser share." style="outline:0" transform="translate(10 10)"/><path fill="#aee" d="M431.18 236.856a194.25 194.25 0 0 1 1.696 11.333l-96.438 11.53a97.125 97.125 0 0 0-.848-5.666Z" stroke="#fff" class="highcharts-point highcharts-color-4" tabindex="-1" aria-label="Internet Explorer, 1.9%. Browser share." style="outline:0" transform="translate(10 10)"/><path fill="#f06" d="M432.9 248.382a194.25 194.25 0 0 1 1.35 22.674l-97.125.097a97.125 97.125 0 0 0-.675-11.337Z" stroke="#fff" class="highcharts-point highcharts-color-5" tabindex="-1" aria-label="Other, 3.77%. Browser share." style="outline:0" transform="translate(10 10)"/></g></g><text x="250" text-anchor="middle" class="highcharts-title" data-z-index="4" style="color:#000;font-size:16px;font-weight:700;fill:#000" y="220" aria-hidden="true">Browser<tspan class="highcharts-br" dy="19" x="250">​</tspan>shares<tspan class="highcharts-br" dy="19" x="250">​</tspan>January<tspan class="highcharts-br" dy="19" x="250">​</tspan>2022</text><g class="highcharts-data-labels highcharts-series-0 highcharts-pie-series highcharts-tracker" data-z-index="6" aria-hidden="true"><text x="5" data-z-index="1" y="16" style="color:#fff;font-size:11px;font-weight:700;fill:#fff" transform="translate(168 139)" class="highcharts-label highcharts-data-label highcharts-data-label-color-0"><tspan class="highcharts-text-outline" fill="#000" stroke="#000" stroke-width="2" stroke-linejoin="round">Chrome<tspan x="5" dy="0">​</tspan></tspan>Chrome</text><text x="5" data-z-index="1" y="16" style="color:#fff;font-size:11px;font-weight:700;fill:#fff" transform="translate(349 186)" class="highcharts-label highcharts-data-label highcharts-data-label-color-1"><tspan class="highcharts-text-outline" fill="#000" stroke="#000" stroke-width="2" stroke-linejoin="round">Edge<tspan x="5" dy="0">​</tspan></tspan>Edge</text><text x="5" data-z-index="1" y="16" style="color:#fff;font-size:11px;font-weight:700;fill:#fff" transform="translate(363 221)" class="highcharts-label highcharts-data-label highcharts-data-label-color-2"><tspan class="highcharts-text-outline" fill="#000" stroke="#000" stroke-width="2" stroke-linejoin="round">Firefox<tspan x="5" dy="0">​</tspan></tspan>Firefox</text><text x="5" data-z-index="1" y="16" style="color:#fff;font-size:11px;font-weight:700;fill:#fff" transform="translate(371 239)" class="highcharts-label highcharts-data-label highcharts-data-label-color-3"><tspan class="highcharts-text-outline" fill="#000" stroke="#000" stroke-width="2" stroke-linejoin="round">Safari<tspan x="5" dy="0">​</tspan></tspan>Safari</text><text x="5" data-z-index="1" y="16" style="color:#fff;font-size:11px;font-weight:700;fill:#fff" transform="translate(342 250)" class="highcharts-label highcharts-data-label highcharts-data-label-color-4"><tspan class="highcharts-text-outline" fill="#000" stroke="#000" stroke-width="2" stroke-linejoin="round">Internet Explorer<tspan x="5" dy="0">​</tspan></tspan>Internet Explorer</text></g></svg>