<svg class="highcharts-root" style="font-family:Signika,serif;font-size:12px" xmlns="http://www.w3.org/2000/svg" width="600" height="400" aria-label="Interactive chart" aria-hidden="false"><rect fill="none" class="highcharts-background" width="600" height="400" rx="0" ry="0" aria-hidden="true"/><path fill="none" class="highcharts-plot-background" aria-hidden="true" d="M10 56h580v329H10z"/><path fill="none" class="highcharts-plot-border" data-z-index="1" aria-hidden="true" d="M10 56h580v329H10z"/><g class="highcharts-series-group" data-z-index="3" aria-hidden="false" stroke="#fff" stroke-linejoin="round"><g class="highcharts-series highcharts-series-0 highcharts-pie-series highcharts-tracker" data-z-index=".1" aria-hidden="false" tabindex="-1" aria-label="Browsers, pie 1 of 2 with 5 slices." style="outline:0"><path fill="#8d4654" d="M289.98 67.8a96.7 96.7 0 1 1-64.553 168.68L290 164.5Z" transform="translate(10 56)" class="highcharts-point highcharts-color-0" tabindex="-1" aria-label="Chrome, 61.04%. Browsers." style="outline:0"/><path fill="#7798BF" d="M225.355 236.416a96.7 96.7 0 0 1-29.316-49.062L290 164.5Z" transform="translate(10 56)" class="highcharts-point highcharts-color-1" tabindex="-1" aria-label="Safari, 9.47%. Browsers." style="outline:0"/><path fill="#f06" d="M196.017 187.26a96.7 96.7 0 0 1 3.26-56.228L290 164.5Z" transform="translate(10 56)" class="highcharts-point highcharts-color-2" tabindex="-1" aria-label="Edge, 9.32%. Browsers." style="outline:0"/><path fill="#8085e9" d="M199.31 130.942a96.7 96.7 0 0 1 28.365-40.378L290 164.5Z" transform="translate(10 56)" class="highcharts-point highcharts-color-3" tabindex="-1" aria-label="Firefox, 8.15%. Browsers." style="outline:0"/><path fill="#eae" d="M227.75 90.502A96.7 96.7 0 0 1 289.865 67.8l.134 96.7Z" transform="translate(10 56)" class="highcharts-point highcharts-color-4" tabindex="-1" aria-label="Other, 11.02%. Browsers." style="outline:0"/></g><g class="highcharts-series highcharts-series-1 highcharts-pie-series highcharts-tracker" data-z-index=".1" aria-hidden="false" tabindex="-1" aria-label="Versions, pie 2 of 2 with 44 slices." style="outline:0"><path fill="#C07987" d="M289.974 38.9a125.6 125.6 0 0 1 89.845 213.395l-35.928-35.118A75.36 75.36 0 0 0 289.985 89.14Z" transform="translate(10 56)" class="highcharts-point highcharts-color-0" tabindex="-1" aria-label="Chrome v97.0, 36.89%. Versions." style="outline:0"/><path fill="#BD7684" d="M379.731 252.384a125.6 125.6 0 0 1-133.648 29.788l17.567-47.069a75.36 75.36 0 0 0 80.189-17.872Z" transform="translate(10 56)" class="highcharts-point highcharts-color-1" tabindex="-1" aria-label="Chrome v96.0, 18.16%. Versions." style="outline:0"/><path fill="#BB7482" d="M245.966 282.128a125.6 125.6 0 0 1-3.857-1.517l19.156-46.444a75.36 75.36 0 0 0 2.314.91Z" transform="translate(10 56)" class="highcharts-point highcharts-color-2" tabindex="-1" aria-label="Chrome v95.0, 0.54%. Versions." style="outline:0"/><path fill="#B97280" d="M241.992 280.563a125.6 125.6 0 0 1-5.058-2.224l21.226-45.536a75.36 75.36 0 0 0 3.035 1.335Z" transform="translate(10 56)" class="highcharts-point highcharts-color-3" tabindex="-1" aria-label="Chrome v94.0, 0.7%. Versions." style="outline:0"/><path fill="#B7707E" d="M236.82 278.286a125.6 125.6 0 0 1-5.62-2.8l23.52-44.394a75.36 75.36 0 0 0 3.372 1.68Z" transform="translate(10 56)" class="highcharts-point highcharts-color-4" tabindex="-1" aria-label="Chrome v93.0, 0.8%. Versions." style="outline:0"/><path fill="#B56E7C" d="M231.089 275.427a125.6 125.6 0 0 1-2.755-1.507L253 230.152a75.36 75.36 0 0 0 1.653.904Z" transform="translate(10 56)" class="highcharts-point highcharts-color-5" tabindex="-1" aria-label="Chrome v92.0, 0.41%. Versions." style="outline:0"/><path fill="#B36C7A" d="M228.225 273.858a125.6 125.6 0 0 1-2.067-1.193l25.537-43.266a75.36 75.36 0 0 0 1.24.716Z" transform="translate(10 56)" class="highcharts-point highcharts-color-6" tabindex="-1" aria-label="Chrome v91.0, 0.31%. Versions." style="outline:0"/><path fill="#B16A78" d="M226.05 272.6a125.6 125.6 0 0 1-.755-.45l25.882-43.06a75.36 75.36 0 0 0 .453.27Z" transform="translate(10 56)" class="highcharts-point highcharts-color-7" tabindex="-1" aria-label="Chrome v90.0, 0.13%. Versions." style="outline:0"/><path fill="#AF6876" d="M225.187 272.086a125.6 125.6 0 0 1-.858-.522l26.268-42.826a75.36 75.36 0 0 0 .515.313Z" transform="translate(10 56)" class="highcharts-point highcharts-color-8" tabindex="-1" aria-label="Chrome v89.0, 0.14%. Versions." style="outline:0"/><path fill="#AD6674" d="M224.222 271.498a125.6 125.6 0 0 1-.535-.33l26.525-42.667a75.36 75.36 0 0 0 .321.198Z" transform="translate(10 56)" class="highcharts-point highcharts-color-9" tabindex="-1" aria-label="Chrome v88.0, 0.1%. Versions." style="outline:0"/><path fill="#AB6472" d="M223.58 271.101a125.6 125.6 0 0 1-2.223-1.418l27.457-42.073a75.36 75.36 0 0 0 1.335.85Z" transform="translate(10 56)" class="highcharts-point highcharts-color-10" tabindex="-1" aria-label="Chrome v87.0, 0.35%. Versions." style="outline:0"/><path fill="#A96270" d="M221.252 269.614a125.6 125.6 0 0 1-1.048-.692l27.919-41.769a75.36 75.36 0 0 0 .628.416Z" transform="translate(10 56)" class="highcharts-point highcharts-color-0" tabindex="-1" aria-label="Chrome v86.0, 0.17%. Versions." style="outline:0"/><path fill="#A7606E" d="M220.1 268.852a125.6 125.6 0 0 1-1.144-.775l28.418-41.431a75.36 75.36 0 0 0 .686.465Z" transform="translate(10 56)" class="highcharts-point highcharts-color-1" tabindex="-1" aria-label="Chrome v85.0, 0.18%. Versions." style="outline:0"/><path fill="#A55E6C" d="M218.853 268.006a125.6 125.6 0 0 1-.929-.645l28.83-41.144a75.36 75.36 0 0 0 .558.386Z" transform="translate(10 56)" class="highcharts-point highcharts-color-2" tabindex="-1" aria-label="Chrome v84.0, 0.17%. Versions." style="outline:0"/><path fill="#A35C6A" d="M217.821 267.289a125.6 125.6 0 0 1-1.33-.947l29.404-40.737a75.36 75.36 0 0 0 .798.568Z" transform="translate(10 56)" class="highcharts-point highcharts-color-3" tabindex="-1" aria-label="Chrome v83.0, 0.21%. Versions." style="outline:0"/><path fill="#A15A68" d="M216.39 266.268a125.6 125.6 0 0 1-.509-.369l29.648-40.56a75.36 75.36 0 0 0 .305.222Z" transform="translate(10 56)" class="highcharts-point highcharts-color-4" tabindex="-1" aria-label="Chrome v81.0, 0.1%. Versions." style="outline:0"/><path fill="#9F5866" d="M215.78 265.825a125.6 125.6 0 0 1-.909-.672l30.052-40.261a75.36 75.36 0 0 0 .545.403Z" transform="translate(10 56)" class="highcharts-point highcharts-color-5" tabindex="-1" aria-label="Chrome v89.0, 0.16%. Versions." style="outline:0"/><path fill="#9D5664" d="M214.77 265.078a125.6 125.6 0 0 1-2.687-2.068l31.167-39.404a75.36 75.36 0 0 0 1.612 1.24Z" transform="translate(10 56)" class="highcharts-point highcharts-color-6" tabindex="-1" aria-label="Chrome v79.0, 0.43%. Versions." style="outline:0"/><path fill="#9B5462" d="M211.984 262.932a125.6 125.6 0 0 1-.59-.47l31.443-39.185a75.36 75.36 0 0 0 .353.282Z" transform="translate(10 56)" class="highcharts-point highcharts-color-7" tabindex="-1" aria-label="Chrome v78.0, 0.11%. Versions." style="outline:0"/><path fill="#995260" d="M211.297 262.384a125.6 125.6 0 0 1-.878-.713l31.833-38.868a75.36 75.36 0 0 0 .526.427Z" transform="translate(10 56)" class="highcharts-point highcharts-color-8" tabindex="-1" aria-label="Chrome v76.0, 0.16%. Versions." style="outline:0"/><path fill="#97505E" d="M210.322 261.592a125.6 125.6 0 0 1-.774-.64l32.18-38.581a75.36 75.36 0 0 0 .465.384Z" transform="translate(10 56)" class="highcharts-point highcharts-color-9" tabindex="-1" aria-label="Chrome v75.0, 0.15%. Versions." style="outline:0"/><path fill="#954E5C" d="M209.452 260.87a125.6 125.6 0 0 1-.769-.647l32.527-38.29a75.36 75.36 0 0 0 .46.39Z" transform="translate(10 56)" class="highcharts-point highcharts-color-10" tabindex="-1" aria-label="Chrome v72.0, 0.14%. Versions." style="outline:0"/><path fill="#934C5A" d="M208.587 260.142a125.6 125.6 0 0 1-.572-.49l32.794-38.061a75.36 75.36 0 0 0 .343.294Z" transform="translate(10 56)" class="highcharts-point highcharts-color-0" tabindex="-1" aria-label="Chrome v70.0, 0.11%. Versions." style="outline:0"/><path fill="#914A58" d="M207.92 259.57a125.6 125.6 0 0 1-.663-.577l33.097-37.797a75.36 75.36 0 0 0 .398.346Z" transform="translate(10 56)" class="highcharts-point highcharts-color-1" tabindex="-1" aria-label="Chrome v69.0, 0.13%. Versions." style="outline:0"/><path fill="#8F4856" d="M207.162 258.91a125.6 125.6 0 0 1-.659-.582l33.399-37.531a75.36 75.36 0 0 0 .395.349Z" transform="translate(10 56)" class="highcharts-point highcharts-color-2" tabindex="-1" aria-label="Chrome v56.0, 0.12%. Versions." style="outline:0"/><path fill="#AACBF2" d="M206.41 258.244a125.6 125.6 0 0 1-.468-.419l33.623-37.33a75.36 75.36 0 0 0 .28.252Z" transform="translate(10 56)" class="highcharts-point highcharts-color-3" tabindex="-1" aria-label="Safari v15.3, 0.1%. Versions." style="outline:0"/><path fill="#A4C5EC" d="M205.848 257.741a125.6 125.6 0 0 1-11.132-11.41L232.83 213.6a75.36 75.36 0 0 0 6.68 6.846Z" transform="translate(10 56)" class="highcharts-point highcharts-color-4" tabindex="-1" aria-label="Safari v15.2, 2.01%. Versions." style="outline:0"/><path fill="#9EBFE6" d="M194.635 246.236a125.6 125.6 0 0 1-10.81-14.637l42.47-26.84a75.36 75.36 0 0 0 6.486 8.783Z" transform="translate(10 56)" class="highcharts-point highcharts-color-5" tabindex="-1" aria-label="Safari v15.1, 2.29%. Versions." style="outline:0"/><path fill="#99BAE1" d="M183.758 231.493a125.6 125.6 0 0 1-1.962-3.217l43.282-25.51a75.36 75.36 0 0 0 1.177 1.93Z" transform="translate(10 56)" class="highcharts-point highcharts-color-6" tabindex="-1" aria-label="Safari v15.0, 0.49%. Versions." style="outline:0"/><path fill="#93B4DB" d="M181.733 228.168a125.6 125.6 0 0 1-8.623-17.712l46.756-18.382a75.36 75.36 0 0 0 5.174 10.627Z" transform="translate(10 56)" class="highcharts-point highcharts-color-7" tabindex="-1" aria-label="Safari v14.1, 2.48%. Versions." style="outline:0"/><path fill="#8DAED5" d="M173.064 210.34a125.6 125.6 0 0 1-1.699-4.595l47.454-16.498a75.36 75.36 0 0 0 1.02 2.757Z" transform="translate(10 56)" class="highcharts-point highcharts-color-8" tabindex="-1" aria-label="Safari v14.0, 0.64%. Versions." style="outline:0"/><path fill="#88A9D0" d="M171.324 205.626a125.6 125.6 0 0 1-2.716-8.886l48.557-12.896a75.36 75.36 0 0 0 1.63 5.332Z" transform="translate(10 56)" class="highcharts-point highcharts-color-9" tabindex="-1" aria-label="Safari v13.1, 1.17%. Versions." style="outline:0"/><path fill="#82A3CA" d="M168.576 196.618a125.6 125.6 0 0 1-.222-.85l48.659-12.507a75.36 75.36 0 0 0 .133.51Z" transform="translate(10 56)" class="highcharts-point highcharts-color-10" tabindex="-1" aria-label="Safari v13.0, 0.13%. Versions." style="outline:0"/><path fill="#7C9DC4" d="M168.323 195.646a125.6 125.6 0 0 1-.275-1.096l48.78-12.02a75.36 75.36 0 0 0 .166.658Z" transform="translate(10 56)" class="highcharts-point highcharts-color-0" tabindex="-1" aria-label="Safari v12.1, 0.16%. Versions." style="outline:0"/><path fill="#F39" d="M168.018 194.428a125.6 125.6 0 0 1-1.602-52.34l49.434 8.964a75.36 75.36 0 0 0 .96 31.405Z" transform="translate(10 56)" class="highcharts-point highcharts-color-1" tabindex="-1" aria-label="Edge v97, 6.62%. Versions." style="outline:0"/><path fill="#F28" d="M166.438 141.964a125.6 125.6 0 0 1 5.211-19.517l47.34 16.821a75.36 75.36 0 0 0-3.126 11.71Z" transform="translate(10 56)" class="highcharts-point highcharts-color-2" tabindex="-1" aria-label="Edge v96, 2.55%. Versions." style="outline:0"/><path fill="#F17" d="M171.691 122.33a125.6 125.6 0 0 1 .385-1.064l47.17 17.294a75.36 75.36 0 0 0-.231.637Z" transform="translate(10 56)" class="highcharts-point highcharts-color-3" tabindex="-1" aria-label="Edge v95, 0.15%. Versions." style="outline:0"/><path fill="#B3B8FF" d="M172.119 121.148a125.6 125.6 0 0 1 15.396-29.258l40.994 29.044a75.36 75.36 0 0 0-9.238 17.555Z" transform="translate(10 56)" class="highcharts-point highcharts-color-4" tabindex="-1" aria-label="Firefox v96.0, 4.17%. Versions." style="outline:0"/><path fill="#AAAFFF" d="M187.588 91.787a125.6 125.6 0 0 1 17.408-19.751l34.001 36.986a75.36 75.36 0 0 0-10.444 11.85Z" transform="translate(10 56)" class="highcharts-point highcharts-color-5" tabindex="-1" aria-label="Firefox v95.0, 3.33%. Versions." style="outline:0"/><path fill="#A2A7FF" d="M205.088 71.95a125.6 125.6 0 0 1 .557-.507l33.742 37.223a75.36 75.36 0 0 0-.334.305Z" transform="translate(10 56)" class="highcharts-point highcharts-color-6" tabindex="-1" aria-label="Firefox v94.0, 0.11%. Versions." style="outline:0"/><path fill="#999EFF" d="M205.738 71.359a125.6 125.6 0 0 1 1.312-1.17l33.18 37.724a75.36 75.36 0 0 0-.787.702Z" transform="translate(10 56)" class="highcharts-point highcharts-color-7" tabindex="-1" aria-label="Firefox v91.0, 0.23%. Versions." style="outline:0"/><path fill="#9196FA" d="M207.145 70.105a125.6 125.6 0 0 1 .852-.741l32.801 38.054a75.36 75.36 0 0 0-.511.445Z" transform="translate(10 56)" class="highcharts-point highcharts-color-8" tabindex="-1" aria-label="Firefox v78.0, 0.16%. Versions." style="outline:0"/><path fill="#888DF1" d="M208.093 69.282a125.6 125.6 0 0 1 .86-.734l32.419 38.381a75.36 75.36 0 0 0-.516.44Z" transform="translate(10 56)" class="highcharts-point highcharts-color-9" tabindex="-1" aria-label="Firefox v52.0, 0.15%. Versions." style="outline:0"/><path fill="#FDF" d="M209.049 68.467A125.6 125.6 0 0 1 289.826 38.9l.07 50.24a75.36 75.36 0 0 0-48.467 17.74Z" transform="translate(10 56)" class="highcharts-point highcharts-color-10" tabindex="-1" aria-label="Other, 11.02%. Versions." style="outline:0"/></g></g><text x="300" text-anchor="middle" class="highcharts-title" data-z-index="4" style="color:#000;font-size:16px;font-weight:700;fill:#000" y="22" aria-hidden="true">Browser market share, January, 2022</text><text x="300" text-anchor="middle" class="highcharts-subtitle" data-z-index="4" style="color:#000;fill:#000" y="42" aria-hidden="true">Source: <a target="_blank"><tspan>statcounter.com</tspan></a></text><g class="highcharts-data-labels highcharts-series-0 highcharts-pie-series highcharts-tracker" data-z-index="6" aria-hidden="true"><text x="5" data-z-index="1" y="16" style="color:#fff;font-size:11px;font-weight:700;fill:#fff" transform="translate(338 234)" class="highcharts-label highcharts-data-label highcharts-data-label-color-0"><tspan class="highcharts-text-outline" fill="#000" stroke="#000" stroke-width="2" stroke-linejoin="round">Chrome<tspan x="5" dy="0">​</tspan></tspan>Chrome</text><text x="5" data-z-index="1" y="16" style="color:#fff;font-size:11px;font-weight:700;fill:#fff" transform="translate(223 245)" class="highcharts-label highcharts-data-label highcharts-data-label-color-1"><tspan class="highcharts-text-outline" fill="#000" stroke="#000" stroke-width="2" stroke-linejoin="round">Safari<tspan x="5" dy="0">​</tspan></tspan>Safari</text><text x="5" data-z-index="1" y="16" style="color:#fff;font-size:11px;font-weight:700;fill:#fff" transform="translate(216 207)" class="highcharts-label highcharts-data-label highcharts-data-label-color-2"><tspan class="highcharts-text-outline" fill="#000" stroke="#000" stroke-width="2" stroke-linejoin="round">Edge<tspan x="5" dy="0">​</tspan></tspan>Edge</text><text x="5" data-z-index="1" y="16" style="color:#fff;font-size:11px;font-weight:700;fill:#fff" transform="translate(223 172)" class="highcharts-label highcharts-data-label highcharts-data-label-color-3"><tspan class="highcharts-text-outline" fill="#000" stroke="#000" stroke-width="2" stroke-linejoin="round">Firefox<tspan x="5" dy="0">​</tspan></tspan>Firefox</text><text x="5" data-z-index="1" y="16" style="color:#fff;font-size:11px;font-weight:700;fill:#fff" transform="translate(258 148)" class="highcharts-label highcharts-data-label highcharts-data-label-color-4"><tspan class="highcharts-text-outline" fill="#000" stroke="#000" stroke-width="2" stroke-linejoin="round">Other<tspan x="5" dy="0">​</tspan></tspan>Other</text></g><g class="highcharts-data-labels highcharts-series-1 highcharts-pie-series highcharts-tracker" data-z-index="6" aria-hidden="true"><path fill="none" class="highcharts-data-label-connector highcharts-color-0" stroke="#C07987" d="M448.43 160.173c-5 0-21.593 6.979-27.123 9.305l-5.531 2.326"/><path fill="none" class="highcharts-data-label-connector highcharts-color-1" stroke="#BD7684" d="M338.807 372.383c-5 0-8.91-17.57-10.214-23.427l-1.304-5.856"/><path fill="none" class="highcharts-data-label-connector highcharts-color-4" stroke="#A4C5EC" d="M185.692 331.239c5 0 15.743-14.725 20.04-18.912l4.299-4.187"/><path fill="none" class="highcharts-data-label-connector highcharts-color-5" stroke="#9EBFE6" d="M166.839 308.739c5 0 22.432-6.552 27.26-10.114l4.829-3.561"/><path fill="none" class="highcharts-data-label-connector highcharts-color-7" stroke="#93B4DB" d="M153.969 286.239c5 0 22.299-5.539 27.694-8.164l5.395-2.625"/><path fill="none" class="highcharts-data-label-connector highcharts-color-9" stroke="#88A9D0" d="M145.528 263.739c5 0 22.86-3.088 28.6-4.839l5.738-1.75"/><path fill="none" class="highcharts-data-label-connector highcharts-color-1" stroke="#F39" d="M139.47 225.173c5 0 22.992-.54 28.99-.72l5.997-.18"/><path fill="none" class="highcharts-data-label-connector highcharts-color-2" stroke="#F28" d="M144.688 180.28c5 0 22.388 4.652 28.184 6.203l5.797 1.551"/><path fill="none" class="highcharts-data-label-connector highcharts-color-4" stroke="#B3B8FF" d="M157.316 148.012c5 0 20.927 8.386 26.237 11.18l5.309 2.796"/><path fill="none" class="highcharts-data-label-connector highcharts-color-5" stroke="#AAAFFF" d="M178.329 117.548c5 0 18.497 11.91 22.995 15.88l4.5 3.969"/><path fill="none" class="highcharts-data-label-connector highcharts-color-10" stroke="#FDF" d="M241.601 74.35c5 0 11.177 16.907 13.236 22.542l2.06 5.636"/><text x="5" data-z-index="1" y="16" style="color:#fff;font-size:11px;font-weight:700;fill:#fff" transform="translate(453 150)" class="highcharts-label highcharts-data-label highcharts-data-label-color-0"><tspan class="highcharts-text-outline" fill="#000" stroke="#000" stroke-width="2" stroke-linejoin="round"><tspan style="font-weight:700">Chrome v97.0:</tspan> 36.89%<tspan x="5" dy="0">​</tspan></tspan><tspan style="font-weight:700">Chrome v97.0:</tspan> 36.89%</text><text x="5" data-z-index="1" y="16" style="color:#fff;font-size:11px;font-weight:700;fill:#fff" transform="translate(344 362)" class="highcharts-label highcharts-data-label highcharts-data-label-color-1"><tspan class="highcharts-text-outline" fill="#000" stroke="#000" stroke-width="2" stroke-linejoin="round"><tspan style="font-weight:700">Chrome v96.0:</tspan> 18.16%<tspan x="5" dy="0">​</tspan></tspan><tspan style="font-weight:700">Chrome v96.0:</tspan> 18.16%</text><text x="5" data-z-index="1" y="16" style="color:#fff;font-size:11px;font-weight:700;fill:#fff" transform="translate(78 321)" class="highcharts-label highcharts-data-label highcharts-data-label-color-4"><tspan class="highcharts-text-outline" fill="#000" stroke="#000" stroke-width="2" stroke-linejoin="round"><tspan style="font-weight:700">Safari v15.2:</tspan> 2.01%<tspan x="5" dy="0">​</tspan></tspan><tspan style="font-weight:700">Safari v15.2:</tspan> 2.01%</text><text x="5" data-z-index="1" y="16" style="color:#fff;font-size:11px;font-weight:700;fill:#fff" transform="translate(59 299)" class="highcharts-label highcharts-data-label highcharts-data-label-color-5"><tspan class="highcharts-text-outline" fill="#000" stroke="#000" stroke-width="2" stroke-linejoin="round"><tspan style="font-weight:700">Safari v15.1:</tspan> 2.29%<tspan x="5" dy="0">​</tspan></tspan><tspan style="font-weight:700">Safari v15.1:</tspan> 2.29%</text><text x="5" data-z-index="1" y="16" style="color:#fff;font-size:11px;font-weight:700;fill:#fff" transform="translate(46 276)" class="highcharts-label highcharts-data-label highcharts-data-label-color-7"><tspan class="highcharts-text-outline" fill="#000" stroke="#000" stroke-width="2" stroke-linejoin="round"><tspan style="font-weight:700">Safari v14.1:</tspan> 2.48%<tspan x="5" dy="0">​</tspan></tspan><tspan style="font-weight:700">Safari v14.1:</tspan> 2.48%</text><text x="5" data-z-index="1" y="16" style="color:#fff;font-size:11px;font-weight:700;fill:#fff" transform="translate(38 254)" class="highcharts-label highcharts-data-label highcharts-data-label-color-9"><tspan class="highcharts-text-outline" fill="#000" stroke="#000" stroke-width="2" stroke-linejoin="round"><tspan style="font-weight:700">Safari v13.1:</tspan> 1.17%<tspan x="5" dy="0">​</tspan></tspan><tspan style="font-weight:700">Safari v13.1:</tspan> 1.17%</text><text x="5" data-z-index="1" y="16" style="color:#fff;font-size:11px;font-weight:700;fill:#fff" transform="translate(45 215)" class="highcharts-label highcharts-data-label highcharts-data-label-color-1"><tspan class="highcharts-text-outline" fill="#000" stroke="#000" stroke-width="2" stroke-linejoin="round"><tspan style="font-weight:700">Edge v97:</tspan> 6.62%<tspan x="5" dy="0">​</tspan></tspan><tspan style="font-weight:700">Edge v97:</tspan> 6.62%</text><text x="5" data-z-index="1" y="16" style="color:#fff;font-size:11px;font-weight:700;fill:#fff" transform="translate(50 170)" class="highcharts-label highcharts-data-label highcharts-data-label-color-2"><tspan class="highcharts-text-outline" fill="#000" stroke="#000" stroke-width="2" stroke-linejoin="round"><tspan style="font-weight:700">Edge v96:</tspan> 2.55%<tspan x="5" dy="0">​</tspan></tspan><tspan style="font-weight:700">Edge v96:</tspan> 2.55%</text><text x="5" data-z-index="1" y="16" style="color:#fff;font-size:11px;font-weight:700;fill:#fff" transform="translate(44 138)" class="highcharts-label highcharts-data-label highcharts-data-label-color-4"><tspan class="highcharts-text-outline" fill="#000" stroke="#000" stroke-width="2" stroke-linejoin="round"><tspan style="font-weight:700">Firefox v96.0:</tspan> 4.17%<tspan x="5" dy="0">​</tspan></tspan><tspan style="font-weight:700">Firefox v96.0:</tspan> 4.17%</text><text x="5" data-z-index="1" y="16" style="color:#fff;font-size:11px;font-weight:700;fill:#fff" transform="translate(65 108)" class="highcharts-label highcharts-data-label highcharts-data-label-color-5"><tspan class="highcharts-text-outline" fill="#000" stroke="#000" stroke-width="2" stroke-linejoin="round"><tspan style="font-weight:700">Firefox v95.0:</tspan> 3.33%<tspan x="5" dy="0">​</tspan></tspan><tspan style="font-weight:700">Firefox v95.0:</tspan> 3.33%</text><text x="5" data-z-index="1" y="16" style="color:#fff;font-size:11px;font-weight:700;fill:#fff" transform="translate(157 64)" class="highcharts-label highcharts-data-label highcharts-data-label-color-10"><tspan class="highcharts-text-outline" fill="#000" stroke="#000" stroke-width="2" stroke-linejoin="round"><tspan style="font-weight:700">Other:</tspan> 11.02%<tspan x="5" dy="0">​</tspan></tspan><tspan style="font-weight:700">Other:</tspan> 11.02%</text></g></svg>