<svg class="highcharts-root" style="font-family:Signika,serif;font-size:12px" xmlns="http://www.w3.org/2000/svg" width="600" height="400" aria-label="Interactive chart" aria-hidden="false"><rect fill="none" class="highcharts-background" width="600" height="400" rx="0" ry="0" aria-hidden="true"/><path fill="none" class="highcharts-plot-background" aria-hidden="true" d="M10 56h580v329H10z"/><path fill="none" class="highcharts-plot-border" data-z-index="1" aria-hidden="true" d="M10 56h580v329H10z"/><g class="highcharts-series-group" data-z-index="3" aria-hidden="false"><g class="highcharts-series highcharts-series-0 highcharts-pie-series highcharts-tracker" data-z-index=".1" aria-hidden="false" stroke-linejoin="round"><g class="highcharts-shadow" data-z-index="-1" fill="none" stroke="#000"><g class="highcharts-shadow"><path d="M300.97 88a144 144 0 1 1-96.128 251.19L301 232Z" stroke-width="5" stroke-opacity=".05" class="highcharts-shadow"/><path d="M300.97 88a144 144 0 1 1-96.128 251.19L301 232Z" stroke-width="3" stroke-opacity=".1" class="highcharts-shadow"/><path d="M300.97 88a144 144 0 1 1-96.128 251.19L301 232Z" stroke-opacity=".15" class="highcharts-shadow"/></g><g class="highcharts-shadow"><path d="M204.735 339.093a144 144 0 0 1-43.656-73.06L301 232Z" stroke-width="5" stroke-opacity=".05" class="highcharts-shadow"/><path d="M204.735 339.093a144 144 0 0 1-43.656-73.06L301 232Z" stroke-width="3" stroke-opacity=".1" class="highcharts-shadow"/><path d="M204.735 339.093a144 144 0 0 1-43.656-73.06L301 232Z" stroke-opacity=".15" class="highcharts-shadow"/></g><g class="highcharts-shadow"><path d="M161.045 265.892a144 144 0 0 1 4.854-83.73L301 232Z" stroke-width="5" stroke-opacity=".05" class="highcharts-shadow"/><path d="M161.045 265.892a144 144 0 0 1 4.854-83.73L301 232Z" stroke-width="3" stroke-opacity=".1" class="highcharts-shadow"/><path d="M161.045 265.892a144 144 0 0 1 4.854-83.73L301 232Z" stroke-opacity=".15" class="highcharts-shadow"/></g><g class="highcharts-shadow"><path d="M165.95 182.027a144 144 0 0 1 42.24-60.128L301 232Z" stroke-width="5" stroke-opacity=".05" class="highcharts-shadow"/><path d="M165.95 182.027a144 144 0 0 1 42.24-60.128L301 232Z" stroke-width="3" stroke-opacity=".1" class="highcharts-shadow"/><path d="M165.95 182.027a144 144 0 0 1 42.24-60.128L301 232Z" stroke-opacity=".15" class="highcharts-shadow"/></g><g class="highcharts-shadow"><path d="M208.3 121.806A144 144 0 0 1 300.8 88l.2 144Z" stroke-width="5" stroke-opacity=".05" class="highcharts-shadow"/><path d="M208.3 121.806A144 144 0 0 1 300.8 88l.2 144Z" stroke-width="3" stroke-opacity=".1" class="highcharts-shadow"/><path d="M208.3 121.806A144 144 0 0 1 300.8 88l.2 144Z" stroke-opacity=".15" class="highcharts-shadow"/></g></g><path fill="#f45b5b" d="M289.97 31a144 144 0 1 1-96.128 251.19L290 175Z" stroke="#fff" class="highcharts-point highcharts-color-0 highcharts-drilldown-point" style="cursor:pointer;outline:0" tabindex="-1" aria-label="Chrome, 61.04%. Browsers." transform="translate(10 56)"/><path fill="#8085e9" d="M193.735 282.093a144 144 0 0 1-43.656-73.06L290 175Z" stroke="#fff" class="highcharts-point highcharts-color-1 highcharts-drilldown-point" style="cursor:pointer;outline:0" tabindex="-1" aria-label="Safari, 9.47%. Browsers." transform="translate(10 56)"/><path fill="#8d4654" d="M150.045 208.892a144 144 0 0 1 4.854-83.73L290 175Z" stroke="#fff" class="highcharts-point highcharts-color-2 highcharts-drilldown-point" style="cursor:pointer;outline:0" tabindex="-1" aria-label="Edge, 9.32%. Browsers." transform="translate(10 56)"/><path fill="#7798BF" d="M154.95 125.027a144 144 0 0 1 42.24-60.128L290 175Z" stroke="#fff" class="highcharts-point highcharts-color-3 highcharts-drilldown-point" style="cursor:pointer;outline:0" tabindex="-1" aria-label="Firefox, 8.15%. Browsers." transform="translate(10 56)"/><path fill="#aee" d="M197.3 64.806A144 144 0 0 1 289.8 31l.2 144Z" stroke="#fff" class="highcharts-point highcharts-color-4" tabindex="-1" aria-label="Other, 11.02%. Browsers." style="outline:0" transform="translate(10 56)"/></g></g><text x="300" text-anchor="middle" class="highcharts-title" data-z-index="4" style="color:#000;font-size:16px;font-weight:700;fill:#000" y="22" aria-hidden="true">Browser market shares. January, 2022</text><text x="300" text-anchor="middle" class="highcharts-subtitle" data-z-index="4" style="color:#000;fill:#000" y="42" aria-hidden="true">Click the slices to view versions. Source: <a target="_blank"><tspan>statcounter.com</tspan></a></text><g class="highcharts-data-labels highcharts-series-0 highcharts-pie-series highcharts-tracker" data-z-index="6" aria-hidden="true"><path fill="none" class="highcharts-data-label-connector highcharts-color-0" stroke="#f45b5b" d="M467.463 293.304c-5 0-21.807-6.445-27.409-8.593l-5.602-2.149"/><path fill="none" class="highcharts-data-label-connector highcharts-color-1" stroke="#8085e9" d="M145.57 320.143c5 0 20.458-9.222 25.61-12.296l5.153-3.074"/><path fill="none" class="highcharts-data-label-connector highcharts-color-2" stroke="#8d4654" d="M121.297 220.846c5 0 22.969 1.05 28.959 1.4l5.99.35"/><path fill="none" class="highcharts-data-label-connector highcharts-color-3" stroke="#7798BF" d="M152.658 130.926c5 0 19.725 10.353 24.633 13.804l4.909 3.45"/><path fill="none" class="highcharts-data-label-connector highcharts-color-4" stroke="#aee" d="M235.385 67.531c5 0 11.167 16.91 13.223 22.548l2.055 5.637"/><g style="cursor:pointer"><text x="5" data-z-index="1" y="16" style="color:#039;font-size:11px;font-weight:700;fill:#039;text-decoration:underline" transform="translate(472 283)" class="highcharts-label highcharts-data-label highcharts-data-label-color-0 highcharts-drilldown-data-label"><tspan class="highcharts-text-outline" fill="#FFF" stroke="#FFF" stroke-width="2" stroke-linejoin="round">Chrome: 61.0%<tspan x="5" dy="0">​</tspan></tspan>Chrome: 61.0%</text></g><g style="cursor:pointer"><text x="5" data-z-index="1" y="16" style="color:#039;font-size:11px;font-weight:700;fill:#039;text-decoration:underline" transform="translate(71 310)" class="highcharts-label highcharts-data-label highcharts-data-label-color-1 highcharts-drilldown-data-label"><tspan class="highcharts-text-outline" fill="#FFF" stroke="#FFF" stroke-width="2" stroke-linejoin="round">Safari: 9.5%<tspan x="5" dy="0">​</tspan></tspan>Safari: 9.5%</text></g><g style="cursor:pointer"><text x="5" data-z-index="1" y="16" style="color:#039;font-size:11px;font-weight:700;fill:#039;text-decoration:underline" transform="translate(51 211)" class="highcharts-label highcharts-data-label highcharts-data-label-color-2 highcharts-drilldown-data-label"><tspan class="highcharts-text-outline" fill="#FFF" stroke="#FFF" stroke-width="2" stroke-linejoin="round">Edge: 9.3%<tspan x="5" dy="0">​</tspan></tspan>Edge: 9.3%</text></g><g style="cursor:pointer"><text x="5" data-z-index="1" y="16" style="color:#039;font-size:11px;font-weight:700;fill:#039;text-decoration:underline" transform="translate(72 121)" class="highcharts-label highcharts-data-label highcharts-data-label-color-3 highcharts-drilldown-data-label"><tspan class="highcharts-text-outline" fill="#FFF" stroke="#FFF" stroke-width="2" stroke-linejoin="round">Firefox: 8.2%<tspan x="5" dy="0">​</tspan></tspan>Firefox: 8.2%</text></g><text x="5" data-z-index="1" y="16" style="color:#fff;font-size:11px;font-weight:700;fill:#fff" transform="translate(156 58)" class="highcharts-label highcharts-data-label highcharts-data-label-color-4"><tspan class="highcharts-text-outline" fill="#000" stroke="#000" stroke-width="2" stroke-linejoin="round">Other: 11.0%<tspan x="5" dy="0">​</tspan></tspan>Other: 11.0%</text></g></svg>