<svg class="highcharts-root" style="font-family:Signika,serif;font-size:12px" xmlns="http://www.w3.org/2000/svg" width="600" height="400" aria-label="Interactive chart" aria-hidden="false"><defs aria-hidden="true"><clipPath id="a"><circle cx="290" cy="145" r="123.25"/></clipPath><clipPath id="b"><circle cx="290" cy="145" r="123.25"/></clipPath><clipPath id="c"><circle cx="290" cy="145" r="123.25"/></clipPath></defs><rect fill="none" class="highcharts-background" width="600" height="400" rx="0" ry="0" aria-hidden="true"/><path fill="none" class="highcharts-plot-background" aria-hidden="true" d="M10 56h580v290H10z"/><g class="highcharts-grid highcharts-xaxis-grid highcharts-radial-axis-grid" data-z-index="1" aria-hidden="true" fill="none" stroke="#e6e6e6"><path data-z-index="1" class="highcharts-grid-line" d="M300 201V77.75M300 201l87.15-87.15M300 201h123.25M300 201l87.15 87.15M300 201v123.25M300 201l-87.15 87.15M300 201H176.75M300 201l-87.15-87.15M300 201V77.75"/></g><g class="highcharts-grid highcharts-yaxis-grid highcharts-radial-axis-grid" data-z-index="1" aria-hidden="true" fill="none" stroke="#e6e6e6"><path data-z-index="1" class="highcharts-grid-line" d="M300 139.375a61.625 61.625 0 1 1-.062 0M300 201"/><path data-z-index="1" class="highcharts-grid-line" d="M300 77.75a123.25 123.25 0 1 1-.123 0M300 201"/></g><path fill="none" class="highcharts-plot-border" data-z-index="1" aria-hidden="true" d="M10 56h580v290H10z"/><g class="highcharts-axis highcharts-xaxis highcharts-radial-axis" data-z-index="2" aria-hidden="true"><path fill="none" class="highcharts-axis-line" stroke="#ccd6eb" data-z-index="7" d="M300 77.75a123.25 123.25 0 1 1-.123 0M300 201"/></g><g class="highcharts-axis highcharts-yaxis highcharts-radial-axis" data-z-index="2" aria-hidden="true"><path fill="none" class="highcharts-axis-line" data-z-index="7" d="M300 201V77.75"/></g><g class="highcharts-series-group" data-z-index="3" aria-hidden="false"><g class="highcharts-series highcharts-series-0 highcharts-column-series highcharts-color-0 highcharts-tracker highcharts-dense-data" data-z-index=".1" clip-path="url(#a)" aria-hidden="false" tabindex="-1" aria-label="Column, series 1 of 3. Bar series with 8 bars." style="outline:0" transform="translate(10 56)"><path fill="none" d="M291 47.4a98.6 98.6 0 0 1 69.651 28.81L291 146Z" stroke="#000" stroke-width="5" stroke-opacity=".05" class="highcharts-shadow"/><path fill="none" d="M291 47.4a98.6 98.6 0 0 1 69.651 28.81L291 146Z" stroke="#000" stroke-width="3" stroke-opacity=".1" class="highcharts-shadow"/><path fill="none" d="M291 47.4a98.6 98.6 0 0 1 69.651 28.81L291 146Z" stroke="#000" stroke-opacity=".15" class="highcharts-shadow"/><path fill="#f45b5b" d="M290 46.4a98.6 98.6 0 0 1 69.651 28.81L290 145Z" class="highcharts-point highcharts-color-0" tabindex="-1" aria-label="x, 0, 8. Column." style="outline:0"/><path fill="none" d="M352.006 84.994a86.275 86.275 0 0 1 25.269 60.92L291 146Z" stroke="#000" stroke-width="5" stroke-opacity=".05" class="highcharts-shadow"/><path fill="none" d="M352.006 84.994a86.275 86.275 0 0 1 25.269 60.92L291 146Z" stroke="#000" stroke-width="3" stroke-opacity=".1" class="highcharts-shadow"/><path fill="none" d="M352.006 84.994a86.275 86.275 0 0 1 25.269 60.92L291 146Z" stroke="#000" stroke-opacity=".15" class="highcharts-shadow"/><path fill="#f45b5b" d="M351.006 83.994a86.275 86.275 0 0 1 25.269 60.92L290 145Z" class="highcharts-point highcharts-color-0" tabindex="-1" aria-label="x, 45, 7. Column." style="outline:0"/><path fill="none" d="M364.95 146a73.95 73.95 0 0 1-21.607 52.238L291 146Z" stroke="#000" stroke-width="5" stroke-opacity=".05" class="highcharts-shadow"/><path fill="none" d="M364.95 146a73.95 73.95 0 0 1-21.607 52.238L291 146Z" stroke="#000" stroke-width="3" stroke-opacity=".1" class="highcharts-shadow"/><path fill="none" d="M364.95 146a73.95 73.95 0 0 1-21.607 52.238L291 146Z" stroke="#000" stroke-opacity=".15" class="highcharts-shadow"/><path fill="#f45b5b" d="M363.95 145a73.95 73.95 0 0 1-21.607 52.238L290 145Z" class="highcharts-point highcharts-color-0" tabindex="-1" aria-label="x, 90, 6. Column." style="outline:0"/><path fill="none" d="M334.575 189.575a61.625 61.625 0 0 1-43.513 18.05L291 146Z" stroke="#000" stroke-width="5" stroke-opacity=".05" class="highcharts-shadow"/><path fill="none" d="M334.575 189.575a61.625 61.625 0 0 1-43.513 18.05L291 146Z" stroke="#000" stroke-width="3" stroke-opacity=".1" class="highcharts-shadow"/><path fill="none" d="M334.575 189.575a61.625 61.625 0 0 1-43.513 18.05L291 146Z" stroke="#000" stroke-opacity=".15" class="highcharts-shadow"/><path fill="#f45b5b" d="M333.575 188.575a61.625 61.625 0 0 1-43.513 18.05L290 145Z" class="highcharts-point highcharts-color-0" tabindex="-1" aria-label="x, 135, 5. Column." style="outline:0"/><path fill="none" d="M291 195.3a49.3 49.3 0 0 1-34.825-14.405L291 146Z" stroke="#000" stroke-width="5" stroke-opacity=".05" class="highcharts-shadow"/><path fill="none" d="M291 195.3a49.3 49.3 0 0 1-34.825-14.405L291 146Z" stroke="#000" stroke-width="3" stroke-opacity=".1" class="highcharts-shadow"/><path fill="none" d="M291 195.3a49.3 49.3 0 0 1-34.825-14.405L291 146Z" stroke="#000" stroke-opacity=".15" class="highcharts-shadow"/><path fill="#f45b5b" d="M290 194.3a49.3 49.3 0 0 1-34.825-14.405L290 145Z" class="highcharts-point highcharts-color-0" tabindex="-1" aria-label="x, 180, 4. Column." style="outline:0"/><path fill="none" d="M264.855 172.145a36.975 36.975 0 0 1-10.83-26.108L291 146Z" stroke="#000" stroke-width="5" stroke-opacity=".05" class="highcharts-shadow"/><path fill="none" d="M264.855 172.145a36.975 36.975 0 0 1-10.83-26.108L291 146Z" stroke="#000" stroke-width="3" stroke-opacity=".1" class="highcharts-shadow"/><path fill="none" d="M264.855 172.145a36.975 36.975 0 0 1-10.83-26.108L291 146Z" stroke="#000" stroke-opacity=".15" class="highcharts-shadow"/><path fill="#f45b5b" d="M263.855 171.145a36.975 36.975 0 0 1-10.83-26.108L290 145Z" class="highcharts-point highcharts-color-0" tabindex="-1" aria-label="x, 225, 3. Column." style="outline:0"/><path fill="none" d="M266.35 146a24.65 24.65 0 0 1 7.202-17.413L291 146Z" stroke="#000" stroke-width="5" stroke-opacity=".05" class="highcharts-shadow"/><path fill="none" d="M266.35 146a24.65 24.65 0 0 1 7.202-17.413L291 146Z" stroke="#000" stroke-width="3" stroke-opacity=".1" class="highcharts-shadow"/><path fill="none" d="M266.35 146a24.65 24.65 0 0 1 7.202-17.413L291 146Z" stroke="#000" stroke-opacity=".15" class="highcharts-shadow"/><path fill="#f45b5b" d="M265.35 145a24.65 24.65 0 0 1 7.202-17.413L290 145Z" class="highcharts-point highcharts-color-0" tabindex="-1" aria-label="x, 270, 2. Column." style="outline:0"/><path fill="none" d="M282.285 137.285a12.325 12.325 0 0 1 8.703-3.61L291 146Z" stroke="#000" stroke-width="5" stroke-opacity=".05" class="highcharts-shadow"/><path fill="none" d="M282.285 137.285a12.325 12.325 0 0 1 8.703-3.61L291 146Z" stroke="#000" stroke-width="3" stroke-opacity=".1" class="highcharts-shadow"/><path fill="none" d="M282.285 137.285a12.325 12.325 0 0 1 8.703-3.61L291 146Z" stroke="#000" stroke-opacity=".15" class="highcharts-shadow"/><path fill="#f45b5b" d="M281.285 136.285a12.325 12.325 0 0 1 8.703-3.61L290 145Z" class="highcharts-point highcharts-color-0" tabindex="-1" aria-label="x, 315, 1. Column." style="outline:0"/></g><g class="highcharts-series highcharts-series-1 highcharts-line-series highcharts-color-1" data-z-index=".1" clip-path="url(#b)" aria-hidden="true" fill="none" stroke-linejoin="round" stroke-linecap="round" transform="translate(10 56)"><path d="m291 133.675 17.43-5.105L327.975 146l-2.115 34.86L291 207.625l-52.29-9.334L204.724 146l16.554-69.72L291 133.674" class="highcharts-graph highcharts-shadow" data-z-index="1" stroke="#000" stroke-width="5" stroke-opacity=".05"/><path d="m291 133.675 17.43-5.105L327.975 146l-2.115 34.86L291 207.625l-52.29-9.334L204.724 146l16.554-69.72L291 133.674" class="highcharts-graph highcharts-shadow" data-z-index="1" stroke="#000" stroke-width="3" stroke-opacity=".1"/><path d="m291 133.675 17.43-5.105L327.975 146l-2.115 34.86L291 207.625l-52.29-9.334L204.724 146l16.554-69.72L291 133.674" class="highcharts-graph highcharts-shadow" data-z-index="1" stroke="#000" stroke-opacity=".15"/><path d="m290 132.675 17.43-5.105L326.975 145l-2.115 34.86L290 206.625l-52.29-9.334L203.724 145l16.554-69.72L290 132.674" class="highcharts-graph" data-z-index="1" stroke="#8085e9" stroke-width="2"/><path d="m290 132.675 17.43-5.105L326.975 145l-2.115 34.86L290 206.625l-52.29-9.334L203.724 145l16.554-69.72L290 132.674" data-z-index="2" class="highcharts-tracker-line" stroke="rgba(192,192,192,0.0001)" stroke-width="22"/></g><g class="highcharts-markers highcharts-series-1 highcharts-line-series highcharts-color-1 highcharts-tracker" data-z-index=".1" aria-hidden="false" tabindex="-1" aria-label="Line, series 2 of 3. Line with 8 data points." style="outline:0" fill="#8085e9"><path d="M290 136.675a4 4 0 1 1 .004 0Z" class="highcharts-point highcharts-color-1" tabindex="-1" aria-label="x, 0, 1. Line." style="outline:0" transform="translate(10 56)"/><path d="M307 131.57a4 4 0 1 1 .004 0Z" class="highcharts-point highcharts-color-1" tabindex="-1" aria-label="x, 45, 2. Line." style="outline:0" transform="translate(10 56)"/><path d="M326 149a4 4 0 1 1 .004 0Z" class="highcharts-point highcharts-color-1" tabindex="-1" aria-label="x, 90, 3. Line." style="outline:0" transform="translate(10 56)"/><path d="M324 183.86a4 4 0 1 1 .004 0Z" class="highcharts-point highcharts-color-1" tabindex="-1" aria-label="x, 135, 4. Line." style="outline:0" transform="translate(10 56)"/><path d="M289 210.625a4 4 0 1 1 .004 0Z" class="highcharts-point highcharts-color-1" tabindex="-1" aria-label="x, 180, 5. Line." style="outline:0" transform="translate(10 56)"/><path d="M237 201.29a4 4 0 1 1 .004 0Z" class="highcharts-point highcharts-color-1" tabindex="-1" aria-label="x, 225, 6. Line." style="outline:0" transform="translate(10 56)"/><path d="M203 149a4 4 0 1 1 .004 0Z" class="highcharts-point highcharts-color-1" tabindex="-1" aria-label="x, 270, 7. Line." style="outline:0" transform="translate(10 56)"/><path d="M220 79.28a4 4 0 1 1 .004 0Z" class="highcharts-point highcharts-color-1" tabindex="-1" aria-label="x, 315, 8. Line." style="outline:0" transform="translate(10 56)"/></g><g class="highcharts-series highcharts-series-2 highcharts-area-series highcharts-color-2" data-z-index=".1" clip-path="url(#c)" aria-hidden="true" transform="translate(10 56)"><path fill="rgba(141,70,84,0.75)" d="m290 132.675 69.72-57.396L314.65 145l36.356 61.006L290 181.975l-52.29 15.316L240.7 145l5.725-43.575L290 132.675v12.075l-.177.073-.073.177.073.177.177.073.177-.073.073-.177-.073-.177-.177-.073Z" class="highcharts-area" data-z-index="0"/><path fill="none" d="m291 133.675 69.72-57.396L315.65 146l36.356 61.006L291 182.975l-52.29 15.316L241.7 146l5.725-43.575L291 133.675" class="highcharts-graph highcharts-shadow" data-z-index="1" stroke="#000" stroke-width="5" stroke-linejoin="round" stroke-linecap="round" stroke-opacity=".05"/><path fill="none" d="m291 133.675 69.72-57.396L315.65 146l36.356 61.006L291 182.975l-52.29 15.316L241.7 146l5.725-43.575L291 133.675" class="highcharts-graph highcharts-shadow" data-z-index="1" stroke="#000" stroke-width="3" stroke-linejoin="round" stroke-linecap="round" stroke-opacity=".1"/><path fill="none" d="m291 133.675 69.72-57.396L315.65 146l36.356 61.006L291 182.975l-52.29 15.316L241.7 146l5.725-43.575L291 133.675" class="highcharts-graph highcharts-shadow" data-z-index="1" stroke="#000" stroke-linejoin="round" stroke-linecap="round" stroke-opacity=".15"/><path fill="none" d="m290 132.675 69.72-57.396L314.65 145l36.356 61.006L290 181.975l-52.29 15.316L240.7 145l5.725-43.575L290 132.675" class="highcharts-graph" data-z-index="1" stroke="#8d4654" stroke-width="2" stroke-linejoin="round" stroke-linecap="round"/><path fill="none" d="m290 132.675 69.72-57.396L314.65 145l36.356 61.006L290 181.975l-52.29 15.316L240.7 145l5.725-43.575L290 132.675" data-z-index="2" class="highcharts-tracker-line" stroke-linecap="round" stroke-linejoin="round" stroke="rgba(192,192,192,0.0001)" stroke-width="22"/></g><g class="highcharts-markers highcharts-series-2 highcharts-area-series highcharts-color-2 highcharts-tracker" data-z-index=".1" aria-hidden="false" tabindex="-1" aria-label="Area, series 3 of 3 with 8 data points." style="outline:0" fill="#8d4654"><path d="m290 128.675 4 4-4 4-4-4Z" class="highcharts-point highcharts-color-2" tabindex="-1" aria-label="x, 0, 1. Area." style="outline:0" transform="translate(10 56)"/><path d="m359 71.28 4 4-4 4-4-4Z" class="highcharts-point highcharts-color-2" tabindex="-1" aria-label="x, 45, 8. Area." style="outline:0" transform="translate(10 56)"/><path d="m314 141 4 4-4 4-4-4Z" class="highcharts-point highcharts-color-2" tabindex="-1" aria-label="x, 90, 2. Area." style="outline:0" transform="translate(10 56)"/><path d="m351 202.006 4 4-4 4-4-4Z" class="highcharts-point highcharts-color-2" tabindex="-1" aria-label="x, 135, 7. Area." style="outline:0" transform="translate(10 56)"/><path d="m289 177.975 4 4-4 4-4-4Z" class="highcharts-point highcharts-color-2" tabindex="-1" aria-label="x, 180, 3. Area." style="outline:0" transform="translate(10 56)"/><path d="m237 193.29 4 4-4 4-4-4Z" class="highcharts-point highcharts-color-2" tabindex="-1" aria-label="x, 225, 6. Area." style="outline:0" transform="translate(10 56)"/><path d="m240 141 4 4-4 4-4-4Z" class="highcharts-point highcharts-color-2" tabindex="-1" aria-label="x, 270, 4. Area." style="outline:0" transform="translate(10 56)"/><path d="m246 97.425 4 4-4 4-4-4Z" class="highcharts-point highcharts-color-2" tabindex="-1" aria-label="x, 315, 5. Area." style="outline:0" transform="translate(10 56)"/></g></g><text x="300" text-anchor="middle" class="highcharts-title" data-z-index="4" style="color:#000;font-size:16px;font-weight:700;fill:#000" y="22" aria-hidden="true">Highcharts Polar Chart</text><text x="300" text-anchor="middle" class="highcharts-subtitle" data-z-index="4" style="color:#000;fill:#000" y="42" aria-hidden="true">Also known as Radar Chart</text><g class="highcharts-legend highcharts-no-tooltip" data-z-index="7" transform="translate(192 358)" aria-hidden="true"><rect fill="#E0E0E8" class="highcharts-legend-box" rx="0" ry="0" width="216" height="27"/><g data-z-index="1"><g class="highcharts-legend-item highcharts-column-series highcharts-color-0 highcharts-series-0" data-z-index="1" transform="translate(8 3)"><text x="21" data-z-index="2" y="16" style="color:#333;cursor:pointer;font-size:13px;font-weight:700;fill:#333">Column</text><rect x="1.5" y="4" width="13" height="13" fill="#f45b5b" rx="6.5" ry="6.5" class="highcharts-point" data-z-index="3"/></g><g class="highcharts-legend-item highcharts-line-series highcharts-color-1 highcharts-series-1" data-z-index="1"><path fill="none" d="M93.79 15h16" class="highcharts-graph" stroke-width="2" stroke="#8085e9"/><path fill="#8085e9" d="M101.79 19a4 4 0 1 1 .003 0Z" class="highcharts-point"/><text x="21" y="16" data-z-index="2" style="color:#333;cursor:pointer;font-size:13px;font-weight:700;fill:#333" transform="translate(93.79 3)">Line</text></g><g class="highcharts-legend-item highcharts-area-series highcharts-color-2 highcharts-series-2" data-z-index="1" transform="translate(160.078 3)"><text x="21" y="16" data-z-index="2" style="color:#333;cursor:pointer;font-size:13px;font-weight:700;fill:#333">Area</text><rect x="1.5" y="4" width="13" height="13" fill="#8d4654" rx="6.5" ry="6.5" class="highcharts-point" data-z-index="3"/></g></g></g><g class="highcharts-axis-labels highcharts-xaxis-labels highcharts-radial-axis-labels" data-z-index="7" aria-hidden="true"><text x="300" style="color:#6e6e70;cursor:default;font-size:11px;fill:#6e6e70" text-anchor="middle" y="67.5">0°</text><text x="397.758" style="color:#6e6e70;cursor:default;font-size:11px;fill:#6e6e70" y="107.992">45°</text><text x="438.25" style="color:#6e6e70;cursor:default;font-size:11px;fill:#6e6e70" y="205.75">90°</text><text x="397.758" style="color:#6e6e70;cursor:default;font-size:11px;fill:#6e6e70" y="303.508">135°</text><text x="300" style="color:#6e6e70;cursor:default;font-size:11px;fill:#6e6e70" text-anchor="middle" y="344">180°</text><text x="202.242" style="color:#6e6e70;cursor:default;font-size:11px;fill:#6e6e70" text-anchor="end" y="303.508">225°</text><text x="161.75" style="color:#6e6e70;cursor:default;font-size:11px;fill:#6e6e70" text-anchor="end" y="205.75">270°</text><text x="202.242" style="color:#6e6e70;cursor:default;font-size:11px;fill:#6e6e70" text-anchor="end" y="107.992">315°</text></g><g class="highcharts-axis-labels highcharts-yaxis-labels highcharts-radial-axis-labels" data-z-index="7" aria-hidden="true" text-anchor="end"><text x="297" style="color:#6e6e70;cursor:default;font-size:11px;fill:#6e6e70" y="199">0</text><text x="297" style="color:#6e6e70;cursor:default;font-size:11px;fill:#6e6e70" y="137.375">5</text></g></svg>