<svg class="highcharts-root" style="font-family:Signika,serif;font-size:12px" xmlns="http://www.w3.org/2000/svg" width="600" height="400" aria-label="Interactive chart" aria-hidden="false"><rect fill="none" class="highcharts-background" width="600" height="400" rx="0" ry="0" aria-hidden="true"/><path fill="none" class="highcharts-plot-background" aria-hidden="true" d="M78 56h512v252H78z"/><g class="highcharts-grid highcharts-xaxis-grid" data-z-index="1" aria-hidden="true" fill="none"><path data-z-index="1" class="highcharts-grid-line" d="M77.5 56v252m73-252v252m73-252v252m73-252v252m74-252v252m73-252v252m73-252v252m73-252v252"/></g><g class="highcharts-grid highcharts-yaxis-grid" data-z-index="1" aria-hidden="true" fill="none" stroke="#e6e6e6"><path data-z-index="1" class="highcharts-grid-line" d="M78 308.5h512m-512-50h512m-512-51h512m-512-50h512m-512-51h512m-512-51h512"/></g><path fill="none" class="highcharts-plot-border" data-z-index="1" aria-hidden="true" d="M78 56h512v252H78z"/><g class="highcharts-axis highcharts-xaxis" data-z-index="2" aria-hidden="true"><path fill="none" class="highcharts-tick" stroke="#ccd6eb" d="M77.5 308v10m73-10v10m73-10v10m73-10v10m74-10v10m73-10v10m73-10v10m74-10v10"/><text x="334" data-z-index="7" text-anchor="middle" class="highcharts-axis-title" style="color:#666;fill:#666" y="345.5">Height</text><path fill="none" class="highcharts-axis-line" stroke="#ccd6eb" data-z-index="7" d="M78 308.5h512"/></g><g class="highcharts-axis highcharts-yaxis" data-z-index="2" aria-hidden="true"><text x="22.75" data-z-index="7" text-anchor="middle" transform="rotate(-90 22.75 182)" class="highcharts-axis-title" style="color:#666;fill:#666" y="182">Weight</text><path fill="none" class="highcharts-axis-line" data-z-index="7" d="M78 56v252"/></g><g class="highcharts-series-group" data-z-index="3" aria-hidden="false"><g class="highcharts-markers highcharts-series-0 highcharts-scatter-series highcharts-color-0 highcharts-tracker" data-z-index=".1" aria-hidden="false" tabindex="-1" aria-label="Basketball, scatter plot 1 of 3 with 284 points." style="outline:0" fill="rgba(5,141,199,0.5)"><path d="M372.5 99.268a2.5 2.5 0 1 1 .002 0Zm-7 14.112a2.5 2.5 0 1 1 .002 0Zm-139 20.16a2.5 2.5 0 1 1 .002 0Zm117-44.352a2.5 2.5 0 1 1 .002 0Zm51 2.016a2.5 2.5 0 1 1 .002 0Z" class="highcharts-point highcharts-color-0" tabindex="-1" aria-hidden="true" style="outline:0" transform="translate(78 56)"/><path d="M394.5 87.172a2.5 2.5 0 1 1 .002 0Zm-44 34.272a2.5 2.5 0 1 1 .002 0Zm81-28.224a2.5 2.5 0 1 1 .002 0Zm-66 42.336a2.5 2.5 0 1 1 .002 0Zm-51-8.064a2.5 2.5 0 1 1 .002 0Zm21-16.128a2.5 2.5 0 1 1 .002 0Zm88-26.208a2.5 2.5 0 1 1 .002 0Zm-7-26.208a2.5 2.5 0 1 1 .002 0Zm0 14.112a2.5 2.5 0 1 1 .002 0Z" class="highcharts-point highcharts-color-0" tabindex="-1" aria-hidden="true" style="outline:0" transform="translate(78 56)"/><path d="M423.5 89.188a2.5 2.5 0 1 1 .002 0Zm-14-22.176a2.5 2.5 0 1 1 .002 0Zm-103 56.448a2.5 2.5 0 1 1 .002 0Zm0-6.048a2.5 2.5 0 1 1 .002 0Zm-44 6.048a2.5 2.5 0 1 1 .002 0Zm176-24.192a2.5 2.5 0 1 1 .002 0Zm-51 8.064a2.5 2.5 0 1 1 .002 0Zm-220 56.448a2.5 2.5 0 1 1 .002 0Zm227-42.336a2.5 2.5 0 1 1 .002 0Zm-198 42.336a2.5 2.5 0 1 1 .002 0Zm81-38.304a2.5 2.5 0 1 1 .002 0Zm22 22.176a2.5 2.5 0 1 1 .002 0Zm-190 36.288a2.5 2.5 0 1 1 .002 0Zm226-52.416a2.5 2.5 0 1 1 .002 0Zm-36-6.048a2.5 2.5 0 1 1 .002 0Zm22 26.208a2.5 2.5 0 1 1 .002 0Zm-81-18.144a2.5 2.5 0 1 1 .002 0Zm15 26.208a2.5 2.5 0 1 1 .002 0Zm7-10.08a2.5 2.5 0 1 1 .002 0Zm110-32.256a2.5 2.5 0 1 1 .002 0Zm-110 12.096a2.5 2.5 0 1 1 .002 0Zm-102 38.304a2.5 2.5 0 1 1 .002 0Zm-15 8.064a2.5 2.5 0 1 1 .002 0Zm161-36.288a2.5 2.5 0 1 1 .002 0Zm-29 8.064a2.5 2.5 0 1 1 .002 0Zm-110 26.208a2.5 2.5 0 1 1 .002 0Zm117-18.144a2.5 2.5 0 1 1 .002 0Zm0-20.16a2.5 2.5 0 1 1 .002 0Zm-36 18.144a2.5 2.5 0 1 1 .002 0Zm-30 16.128a2.5 2.5 0 1 1 .002 0Z" class="highcharts-point highcharts-color-0" tabindex="-1" aria-hidden="true" style="outline:0" transform="translate(78 56)"/><path d="M277.5 147.652a2.5 2.5 0 1 1 .002 0Zm-124 18.144a2.5 2.5 0 1 1 .002 0Zm175-34.272a2.5 2.5 0 1 1 .002 0Zm-110 34.272a2.5 2.5 0 1 1 .002 0Zm-73 8.064a2.5 2.5 0 1 1 .002 0Zm161-74.592a2.5 2.5 0 1 1 .002 0Zm103-32.256a2.5 2.5 0 1 1 .002 0Zm-169 58.464a2.5 2.5 0 1 1 .002 0Zm183-72.576a2.5 2.5 0 1 1 .002 0Zm-131 90.72a2.5 2.5 0 1 1 .002 0Zm51-24.192a2.5 2.5 0 1 1 .002 0Zm51-16.128a2.5 2.5 0 1 1 .002 0Zm-183 48.384a2.5 2.5 0 1 1 .002 0Zm15 14.112a2.5 2.5 0 1 1 .002 0Zm-95 8.064a2.5 2.5 0 1 1 .002 0Zm175-54.432a2.5 2.5 0 1 1 .002 0Zm15-10.08a2.5 2.5 0 1 1 .002 0Zm-22 14.112a2.5 2.5 0 1 1 .002 0Zm117-28.224a2.5 2.5 0 1 1 .002 0Zm-95 32.256a2.5 2.5 0 1 1 .002 0Zm124-50.4a2.5 2.5 0 1 1 .002 0Zm-270 74.592a2.5 2.5 0 1 1 .002 0Zm248-88.704a2.5 2.5 0 1 1 .002 0Zm-146 50.4a2.5 2.5 0 1 1 .002 0Zm29 26.208a2.5 2.5 0 1 1 .002 0Z" class="highcharts-point highcharts-color-0" tabindex="-1" aria-hidden="true" style="outline:0" transform="translate(78 56)"/><path d="M153.5 165.796a2.5 2.5 0 1 1 .002 0Zm73 0a2.5 2.5 0 1 1 .002 0Zm66-38.304a2.5 2.5 0 1 1 .002 0Z" class="highcharts-point highcharts-color-0" tabindex="-1" aria-hidden="true" style="outline:0" transform="translate(78 56)"/><path d="M292.5 125.476a2.5 2.5 0 1 1 .002 0Zm-59 42.336a2.5 2.5 0 1 1 .002 0Zm22-8.064a2.5 2.5 0 1 1 .002 0Zm0-6.048a2.5 2.5 0 1 1 .002 0Zm-95 24.192a2.5 2.5 0 1 1 .002 0Zm132-38.304a2.5 2.5 0 1 1 .002 0Zm0 20.16a2.5 2.5 0 1 1 .002 0Zm0-28.224a2.5 2.5 0 1 1 .002 0Zm-22 22.176a2.5 2.5 0 1 1 .002 0Zm-125 36.288a2.5 2.5 0 1 1 .002 0Zm37-26.208a2.5 2.5 0 1 1 .002 0Zm73-18.144a2.5 2.5 0 1 1 .002 0Zm51-12.096a2.5 2.5 0 1 1 .002 0Zm-73 20.16a2.5 2.5 0 1 1 .002 0Zm102-70.56a2.5 2.5 0 1 1 .002 0Zm-7 24.192a2.5 2.5 0 1 1 .002 0Zm132-30.24a2.5 2.5 0 1 1 .002 0Z" class="highcharts-point highcharts-color-0" tabindex="-1" aria-hidden="true" style="outline:0" transform="translate(78 56)"/><path d="M255.5 143.62a2.5 2.5 0 1 1 .002 0Zm73-6.048a2.5 2.5 0 1 1 .002 0Zm-36-2.016a2.5 2.5 0 1 1 .002 0Zm204-62.496a2.5 2.5 0 1 1 .002 0Zm-168 42.336a2.5 2.5 0 1 1 .002 0Zm81-16.128a2.5 2.5 0 1 1 .002 0Zm80 14.112a2.5 2.5 0 1 1 .002 0Zm-175-2.016a2.5 2.5 0 1 1 .002 0Zm-110 68.544a2.5 2.5 0 1 1 .002 0Z" class="highcharts-point highcharts-color-0" tabindex="-1" aria-hidden="true" style="outline:0" transform="translate(78 56)"/><path d="M292.5 139.588a2.5 2.5 0 1 1 .002 0Zm0-6.048a2.5 2.5 0 1 1 .002 0Zm-44 20.16a2.5 2.5 0 1 1 .002 0Zm29-6.048a2.5 2.5 0 1 1 .002 0Zm117-44.352a2.5 2.5 0 1 1 .002 0Zm-161 64.512a2.5 2.5 0 1 1 .002 0Zm132-46.368a2.5 2.5 0 1 1 .002 0Zm22-32.256a2.5 2.5 0 1 1 .002 0Zm80 14.112a2.5 2.5 0 1 1 .002 0Zm-336 86.688a2.5 2.5 0 1 1 .002 0Zm234-92.736a2.5 2.5 0 1 1 .002 0Zm51-14.112a2.5 2.5 0 1 1 .002 0Zm29-20.16a2.5 2.5 0 1 1 .002 0Zm-88 54.432a2.5 2.5 0 1 1 .002 0Zm-14-14.112a2.5 2.5 0 1 1 .002 0Zm36 12.096a2.5 2.5 0 1 1 .002 0Zm8-12.096a2.5 2.5 0 1 1 .002 0Zm29-10.08a2.5 2.5 0 1 1 .002 0Zm44-32.256a2.5 2.5 0 1 1 .002 0Zm-198 72.576a2.5 2.5 0 1 1 .002 0Zm66-6.048a2.5 2.5 0 1 1 .002 0Z" class="highcharts-point highcharts-color-0" tabindex="-1" aria-hidden="true" style="outline:0" transform="translate(78 56)"/><path d="M387.5 93.22a2.5 2.5 0 1 1 .002 0Zm-88 74.592a2.5 2.5 0 1 1 .002 0Zm51-50.4a2.5 2.5 0 1 1 .002 0Zm-161 66.528a2.5 2.5 0 1 1 .002 0Zm139-16.128a2.5 2.5 0 1 1 .002 0Zm66-82.656a2.5 2.5 0 1 1 .002 0Zm-95 38.304a2.5 2.5 0 1 1 .002 0Zm15 16.128a2.5 2.5 0 1 1 .002 0Zm-88 26.208a2.5 2.5 0 1 1 .002 0Zm73-18.144a2.5 2.5 0 1 1 .002 0Zm-7-24.192a2.5 2.5 0 1 1 .002 0Zm-37 32.256a2.5 2.5 0 1 1 .002 0Zm-37 4.032a2.5 2.5 0 1 1 .002 0Zm-22 20.16a2.5 2.5 0 1 1 .002 0Zm139-62.496a2.5 2.5 0 1 1 .002 0Z" class="highcharts-point highcharts-color-0" tabindex="-1" aria-hidden="true" style="outline:0" transform="translate(78 56)"/><path d="M218.5 161.764a2.5 2.5 0 1 1 .002 0Zm205-58.464a2.5 2.5 0 1 1 .002 0Zm51-30.24a2.5 2.5 0 1 1 .002 0Zm-160 66.528a2.5 2.5 0 1 1 .002 0Zm21-4.032a2.5 2.5 0 1 1 .002 0Zm-43-14.112a2.5 2.5 0 1 1 .002 0Zm7 22.176a2.5 2.5 0 1 1 .002 0Zm-176 32.256a2.5 2.5 0 1 1 .002 0Zm286-86.688a2.5 2.5 0 1 1 .002 0Zm29-16.128a2.5 2.5 0 1 1 .002 0Zm-124 58.464a2.5 2.5 0 1 1 .002 0Zm73-58.464a2.5 2.5 0 1 1 .002 0Zm-44 22.176a2.5 2.5 0 1 1 .002 0Zm-66 34.272a2.5 2.5 0 1 1 .002 0Zm95-32.256a2.5 2.5 0 1 1 .002 0Zm-176 66.528a2.5 2.5 0 1 1 .002 0Zm147-38.304a2.5 2.5 0 1 1 .002 0Zm-51-30.24a2.5 2.5 0 1 1 .002 0Zm139-22.176a2.5 2.5 0 1 1 .002 0Zm14 20.16a2.5 2.5 0 1 1 .002 0Zm-175 54.432a2.5 2.5 0 1 1 .002 0Zm22-12.096a2.5 2.5 0 1 1 .002 0Zm-96 46.368a2.5 2.5 0 1 1 .002 0Zm176-58.464a2.5 2.5 0 1 1 .002 0Zm-37 0a2.5 2.5 0 1 1 .002 0Zm52-30.24a2.5 2.5 0 1 1 .002 0Zm-286 104.832a2.5 2.5 0 1 1 .002 0Z" class="highcharts-point highcharts-color-0" tabindex="-1" aria-hidden="true" style="outline:0" transform="translate(78 56)"/><path d="M474.5 77.092a2.5 2.5 0 1 1 .002 0Zm-160 60.48a2.5 2.5 0 1 1 .002 0Zm-96 36.288a2.5 2.5 0 1 1 .002 0Zm59-36.288a2.5 2.5 0 1 1 .002 0Zm-15 6.048a2.5 2.5 0 1 1 .002 0Zm-14 16.128a2.5 2.5 0 1 1 .002 0Zm36-26.208a2.5 2.5 0 1 1 .002 0Zm-175 46.368a2.5 2.5 0 1 1 .002 0Zm58 0a2.5 2.5 0 1 1 .002 0Zm73-32.256a2.5 2.5 0 1 1 .002 0Zm-51 20.16a2.5 2.5 0 1 1 .002 0Zm7-10.08a2.5 2.5 0 1 1 .002 0Z" class="highcharts-point highcharts-color-0" tabindex="-1" aria-hidden="true" style="outline:0" transform="translate(78 56)"/><path d="M109.5 179.908a2.5 2.5 0 1 1 .002 0Zm190-46.368a2.5 2.5 0 1 1 .002 0Zm-220 56.448a2.5 2.5 0 1 1 .002 0Zm103-16.128a2.5 2.5 0 1 1 .002 0Zm73-18.144a2.5 2.5 0 1 1 .002 0Zm-22 8.064a2.5 2.5 0 1 1 .002 0Zm88-40.32a2.5 2.5 0 1 1 .002 0Zm102-48.384a2.5 2.5 0 1 1 .002 0Zm0 10.08a2.5 2.5 0 1 1 .002 0Zm-73 12.096a2.5 2.5 0 1 1 .002 0Zm95-34.272a2.5 2.5 0 1 1 .002 0Z" class="highcharts-point highcharts-color-0" tabindex="-1" aria-hidden="true" style="outline:0" transform="translate(78 56)"/><path d="M321.5 123.46a2.5 2.5 0 1 1 .002 0Zm29-4.032a2.5 2.5 0 1 1 .002 0Zm44-16.128a2.5 2.5 0 1 1 .002 0Zm7-10.08a2.5 2.5 0 1 1 .002 0Zm-66 44.352a2.5 2.5 0 1 1 .002 0Zm103-68.544a2.5 2.5 0 1 1 .002 0Zm0 30.24a2.5 2.5 0 1 1 .002 0Zm-44-10.08a2.5 2.5 0 1 1 .002 0Zm-95 30.24a2.5 2.5 0 1 1 .002 0Z" class="highcharts-point highcharts-color-0" tabindex="-1" aria-hidden="true" style="outline:0" transform="translate(78 56)"/><path d="M350.5 123.46a2.5 2.5 0 1 1 .002 0Zm-15-14.112a2.5 2.5 0 1 1 .002 0Zm103-6.048a2.5 2.5 0 1 1 .002 0Zm-44-30.24a2.5 2.5 0 1 1 .002 0Zm-110 64.512a2.5 2.5 0 1 1 .002 0Zm88-14.112a2.5 2.5 0 1 1 .002 0Zm-102 4.032a2.5 2.5 0 1 1 .002 0Zm153-28.224a2.5 2.5 0 1 1 .002 0Zm-109 14.112a2.5 2.5 0 1 1 .002 0Zm-59 40.32a2.5 2.5 0 1 1 .002 0Zm-15 0a2.5 2.5 0 1 1 .002 0Zm-117 34.272a2.5 2.5 0 1 1 .002 0Zm22-24.192a2.5 2.5 0 1 1 .002 0Z" class="highcharts-point highcharts-color-0" tabindex="-1" aria-hidden="true" style="outline:0" transform="translate(78 56)"/><path d="M123.5 183.94a2.5 2.5 0 1 1 .002 0Zm88-36.288a2.5 2.5 0 1 1 .002 0Zm139-24.192a2.5 2.5 0 1 1 .002 0Zm-95 16.128a2.5 2.5 0 1 1 .002 0Zm37 4.032a2.5 2.5 0 1 1 .002 0Zm-8-12.096a2.5 2.5 0 1 1 .002 0Zm-73 36.288a2.5 2.5 0 1 1 .002 0Zm59-16.128a2.5 2.5 0 1 1 .002 0Zm-30 12.096a2.5 2.5 0 1 1 .002 0Zm103-58.464a2.5 2.5 0 1 1 .002 0Zm-161 68.544a2.5 2.5 0 1 1 .002 0Zm95-24.192a2.5 2.5 0 1 1 .002 0Zm51 8.064a2.5 2.5 0 1 1 .002 0Zm-36-22.176a2.5 2.5 0 1 1 .002 0Zm95-24.192a2.5 2.5 0 1 1 .002 0Zm14-22.176a2.5 2.5 0 1 1 .002 0Zm-234 88.704a2.5 2.5 0 1 1 .002 0Zm161-54.432a2.5 2.5 0 1 1 .002 0Zm132-80.64a2.5 2.5 0 1 1 .002 0Zm-161 80.64a2.5 2.5 0 1 1 .002 0Zm-88 36.288a2.5 2.5 0 1 1 .002 0Zm220-86.688a2.5 2.5 0 1 1 .002 0Zm-52 26.208a2.5 2.5 0 1 1 .002 0Zm-65 38.304a2.5 2.5 0 1 1 .002 0Zm-110 22.176a2.5 2.5 0 1 1 .002 0Zm80-6.048a2.5 2.5 0 1 1 .002 0Zm154-58.464a2.5 2.5 0 1 1 .002 0Zm-103 20.16a2.5 2.5 0 1 1 .002 0Zm22-4.032a2.5 2.5 0 1 1 .002 0Zm-212 72.576a2.5 2.5 0 1 1 .002 0Zm300-104.832a2.5 2.5 0 1 1 .002 0Zm-263 86.688a2.5 2.5 0 1 1 .002 0Zm110-14.112a2.5 2.5 0 1 1 .002 0Zm-110 32.256a2.5 2.5 0 1 1 .002 0Zm168-80.64a2.5 2.5 0 1 1 .002 0Zm-190 76.608a2.5 2.5 0 1 1 .002 0Zm139-30.24a2.5 2.5 0 1 1 .002 0Zm7-16.128a2.5 2.5 0 1 1 .002 0Zm-73 50.4a2.5 2.5 0 1 1 .002 0Zm-15-18.144a2.5 2.5 0 1 1 .002 0Zm15-22.176a2.5 2.5 0 1 1 .002 0Z" class="highcharts-point highcharts-color-0" tabindex="-1" aria-hidden="true" style="outline:0" transform="translate(78 56)"/><path d="M284.5 131.524a2.5 2.5 0 1 1 .002 0Zm-7 2.016a2.5 2.5 0 1 1 .002 0Zm-22 30.24a2.5 2.5 0 1 1 .002 0Zm59-18.144a2.5 2.5 0 1 1 .002 0Zm73-30.24a2.5 2.5 0 1 1 .002 0Zm0-30.24a2.5 2.5 0 1 1 .002 0Zm58-22.176a2.5 2.5 0 1 1 .002 0Zm-73 42.336a2.5 2.5 0 1 1 .002 0Zm66-46.368a2.5 2.5 0 1 1 .002 0Zm-205 104.832a2.5 2.5 0 1 1 .002 0Zm132-68.544a2.5 2.5 0 1 1 .002 0Zm-37 36.288a2.5 2.5 0 1 1 .002 0Zm59-32.256a2.5 2.5 0 1 1 .002 0Z" class="highcharts-point highcharts-color-0" tabindex="-1" aria-hidden="true" style="outline:0" transform="translate(78 56)"/><path d="M372.5 105.316a2.5 2.5 0 1 1 .002 0Zm29-10.08a2.5 2.5 0 1 1 .002 0Zm-36 14.112a2.5 2.5 0 1 1 .002 0Zm-125 8.064a2.5 2.5 0 1 1 .002 0Zm52 12.096a2.5 2.5 0 1 1 .002 0Zm-110 30.24a2.5 2.5 0 1 1 .002 0Zm58-14.112a2.5 2.5 0 1 1 .002 0Zm147-40.32a2.5 2.5 0 1 1 .002 0Zm-147 50.4a2.5 2.5 0 1 1 .002 0Zm-58 16.128a2.5 2.5 0 1 1 .002 0Zm168-48.384a2.5 2.5 0 1 1 .002 0Zm-95 26.208a2.5 2.5 0 1 1 .002 0Zm59-22.176a2.5 2.5 0 1 1 .002 0Zm87-10.08a2.5 2.5 0 1 1 .002 0Z" class="highcharts-point highcharts-color-0" tabindex="-1" aria-hidden="true" style="outline:0" transform="translate(78 56)"/><path d="M240.5 145.636a2.5 2.5 0 1 1 .002 0Zm169-116.928a2.5 2.5 0 1 1 .002 0Zm-176 94.752a2.5 2.5 0 1 1 .002 0Z" class="highcharts-point highcharts-color-0" tabindex="-1" aria-hidden="true" style="outline:0" transform="translate(78 56)"/><path d="M240.5 145.636a2.5 2.5 0 1 1 .002 0Zm95-32.256a2.5 2.5 0 1 1 .002 0Zm0-28.224a2.5 2.5 0 1 1 .002 0Zm74-18.144a2.5 2.5 0 1 1 .002 0Zm-30 28.224a2.5 2.5 0 1 1 .002 0Zm8-12.096a2.5 2.5 0 1 1 .002 0Zm14 0a2.5 2.5 0 1 1 .002 0Z" class="highcharts-point highcharts-color-0" tabindex="-1" aria-hidden="true" style="outline:0" transform="translate(78 56)"/></g><g class="highcharts-markers highcharts-series-1 highcharts-scatter-series highcharts-color-1 highcharts-tracker" data-z-index=".1" aria-hidden="false" tabindex="-1" aria-label="Triathlon, scatter plot 2 of 3 with 109 points." style="outline:0" fill="rgba(80,180,50,0.5)"><path d="m175.5 176.924 2.5 5h-5Z" class="highcharts-point highcharts-color-1" tabindex="-1" aria-label="x, 1.74, 61. Triathlon." style="outline:0" transform="translate(78 56)"/><path d="m189.5 172.892 2.5 5h-5Z" class="highcharts-point highcharts-color-1" tabindex="-1" aria-label="x, 1.76, 63. Triathlon." style="outline:0" transform="translate(78 56)"/><path d="m218.5 164.828 2.5 5h-5Z" class="highcharts-point highcharts-color-1" tabindex="-1" aria-label="x, 1.8, 67. Triathlon." style="outline:0" transform="translate(78 56)"/><path d="m153.5 195.068 2.5 5h-5Z" class="highcharts-point highcharts-color-1" tabindex="-1" aria-label="x, 1.71, 52. Triathlon." style="outline:0" transform="translate(78 56)"/><path d="m153.5 184.988 2.5 5h-5Z" class="highcharts-point highcharts-color-1" tabindex="-1" aria-label="x, 1.71, 57. Triathlon." style="outline:0" transform="translate(78 56)"/><path d="m109.5 195.068 2.5 5h-5Z" class="highcharts-point highcharts-color-1" tabindex="-1" aria-label="x, 1.65, 52. Triathlon." style="outline:0" transform="translate(78 56)"/><path d="m196.5 176.924 2.5 5h-5Z" class="highcharts-point highcharts-color-1" tabindex="-1" aria-label="x, 1.77, 61. Triathlon." style="outline:0" transform="translate(78 56)"/><path d="m167.5 170.876 2.5 5h-5Z" class="highcharts-point highcharts-color-1" tabindex="-1" aria-label="x, 1.73, 64. Triathlon." style="outline:0" transform="translate(78 56)"/><path d="m94.5 203.132 2.5 5h-5Z" class="highcharts-point highcharts-color-1" tabindex="-1" aria-label="x, 1.63, 48. Triathlon." style="outline:0" transform="translate(78 56)"/><path d="m145.5 189.02 2.5 5h-5Z" class="highcharts-point highcharts-color-1" tabindex="-1" aria-label="x, 1.7, 55. Triathlon." style="outline:0" transform="translate(78 56)"/><path d="m248.5 158.78 2.5 5h-5Z" class="highcharts-point highcharts-color-1" tabindex="-1" aria-label="x, 1.84, 70. Triathlon." style="outline:0" transform="translate(78 56)"/><path d="m270.5 150.716 2.5 5h-5Z" class="highcharts-point highcharts-color-1" tabindex="-1" aria-label="x, 1.87, 74. Triathlon." style="outline:0" transform="translate(78 56)"/><path d="m218.5 162.812 2.5 5h-5Z" class="highcharts-point highcharts-color-1" tabindex="-1" aria-label="x, 1.8, 68. Triathlon." style="outline:0" transform="translate(78 56)"/><path d="m131.5 191.036 2.5 5h-5Z" class="highcharts-point highcharts-color-1" tabindex="-1" aria-label="x, 1.68, 54. Triathlon." style="outline:0" transform="translate(78 56)"/><path d="m160.5 176.924 2.5 5h-5Z" class="highcharts-point highcharts-color-1" tabindex="-1" aria-label="x, 1.72, 61. Triathlon." style="outline:0" transform="translate(78 56)"/><path d="m145.5 176.924 2.5 5h-5Z" class="highcharts-point highcharts-color-1" tabindex="-1" aria-label="x, 1.7, 61. Triathlon." style="outline:0" transform="translate(78 56)"/><path d="m240.5 170.876 2.5 5h-5Z" class="highcharts-point highcharts-color-1" tabindex="-1" aria-label="x, 1.83, 64. Triathlon." style="outline:0" transform="translate(78 56)"/><path d="m94.5 184.988 2.5 5h-5Z" class="highcharts-point highcharts-color-1" tabindex="-1" aria-label="x, 1.63, 57. Triathlon." style="outline:0" transform="translate(78 56)"/><path d="m292.5 138.62 2.5 5h-5Z" class="highcharts-point highcharts-color-1" tabindex="-1" aria-label="x, 1.9, 80. Triathlon." style="outline:0" transform="translate(78 56)"/><path d="m109.5 178.94 2.5 5h-5Z" class="highcharts-point highcharts-color-1" tabindex="-1" aria-label="x, 1.65, 60. Triathlon." style="outline:0" transform="translate(78 56)"/><path d="m131.5 193.052 2.5 5h-5Z" class="highcharts-point highcharts-color-1" tabindex="-1" aria-label="x, 1.68, 53. Triathlon." style="outline:0" transform="translate(78 56)"/><path d="m292.5 148.7 2.5 5h-5Z" class="highcharts-point highcharts-color-1" tabindex="-1" aria-label="x, 1.9, 75. Triathlon." style="outline:0" transform="translate(78 56)"/><path d="m94.5 201.116 2.5 5h-5Z" class="highcharts-point highcharts-color-1" tabindex="-1" aria-label="x, 1.63, 49. Triathlon." style="outline:0" transform="translate(78 56)"/><path d="m153.5 168.86 2.5 5h-5Z" class="highcharts-point highcharts-color-1" tabindex="-1" aria-label="x, 1.71, 65. Triathlon." style="outline:0" transform="translate(78 56)"/><path d="m160.5 180.956 2.5 5h-5Z" class="highcharts-point highcharts-color-1" tabindex="-1" aria-label="x, 1.72, 59. Triathlon." style="outline:0" transform="translate(78 56)"/><path d="m50.5 207.164 2.5 5h-5Z" class="highcharts-point highcharts-color-1" tabindex="-1" aria-label="x, 1.57, 46. Triathlon." style="outline:0" transform="translate(78 56)"/><path d="m167.5 166.844 2.5 5h-5Z" class="highcharts-point highcharts-color-1" tabindex="-1" aria-label="x, 1.73, 66. Triathlon." style="outline:0" transform="translate(78 56)"/><path d="m123.5 178.94 2.5 5h-5Z" class="highcharts-point highcharts-color-1" tabindex="-1" aria-label="x, 1.67, 60. Triathlon." style="outline:0" transform="translate(78 56)"/><path d="m211.5 168.86 2.5 5h-5Z" class="highcharts-point highcharts-color-1" tabindex="-1" aria-label="x, 1.79, 65. Triathlon." style="outline:0" transform="translate(78 56)"/><path d="m131.5 199.1 2.5 5h-5Z" class="highcharts-point highcharts-color-1" tabindex="-1" aria-label="x, 1.68, 50. Triathlon." style="outline:0" transform="translate(78 56)"/><path d="m255.5 158.78 2.5 5h-5Z" class="highcharts-point highcharts-color-1" tabindex="-1" aria-label="x, 1.85, 70. Triathlon." style="outline:0" transform="translate(78 56)"/><path d="m72.5 201.116 2.5 5h-5Z" class="highcharts-point highcharts-color-1" tabindex="-1" aria-label="x, 1.6, 49. Triathlon." style="outline:0" transform="translate(78 56)"/><path d="m72.5 203.132 2.5 5h-5Z" class="highcharts-point highcharts-color-1" tabindex="-1" aria-label="x, 1.6, 48. Triathlon." style="outline:0" transform="translate(78 56)"/><path d="m160.5 178.94 2.5 5h-5Z" class="highcharts-point highcharts-color-1" tabindex="-1" aria-label="x, 1.72, 60. Triathlon." style="outline:0" transform="translate(78 56)"/><path d="m204.5 164.828 2.5 5h-5Z" class="highcharts-point highcharts-color-1" tabindex="-1" aria-label="x, 1.78, 67. Triathlon." style="outline:0" transform="translate(78 56)"/><path d="m204.5 172.892 2.5 5h-5Z" class="highcharts-point highcharts-color-1" tabindex="-1" aria-label="x, 1.78, 63. Triathlon." style="outline:0" transform="translate(78 56)"/><path d="m101.5 195.068 2.5 5h-5Z" class="highcharts-point highcharts-color-1" tabindex="-1" aria-label="x, 1.64, 52. Triathlon." style="outline:0" transform="translate(78 56)"/><path d="m226.5 150.716 2.5 5h-5Z" class="highcharts-point highcharts-color-1" tabindex="-1" aria-label="x, 1.81, 74. Triathlon." style="outline:0" transform="translate(78 56)"/><path d="m189.5 176.924 2.5 5h-5Z" class="highcharts-point highcharts-color-1" tabindex="-1" aria-label="x, 1.76, 61. Triathlon." style="outline:0" transform="translate(78 56)"/><path d="m21.5 209.18 2.5 5h-5Z" class="highcharts-point highcharts-color-1" tabindex="-1" aria-label="x, 1.53, 45. Triathlon." style="outline:0" transform="translate(78 56)"/><path d="m196.5 191.036 2.5 5h-5Z" class="highcharts-point highcharts-color-1" tabindex="-1" aria-label="x, 1.77, 54. Triathlon." style="outline:0" transform="translate(78 56)"/><path d="m226.5 158.78 2.5 5h-5Z" class="highcharts-point highcharts-color-1" tabindex="-1" aria-label="x, 1.81, 70. Triathlon." style="outline:0" transform="translate(78 56)"/><path d="m189.5 168.86 2.5 5h-5Z" class="highcharts-point highcharts-color-1" tabindex="-1" aria-label="x, 1.76, 65. Triathlon." style="outline:0" transform="translate(78 56)"/><path d="m196.5 168.86 2.5 5h-5Z" class="highcharts-point highcharts-color-1" tabindex="-1" aria-label="x, 1.77, 65. Triathlon." style="outline:0" transform="translate(78 56)"/><path d="m248.5 158.78 2.5 5h-5Z" class="highcharts-point highcharts-color-1" tabindex="-1" aria-label="x, 1.84, 70. Triathlon." style="outline:0" transform="translate(78 56)"/><path d="m299.5 142.652 2.5 5h-5Z" class="highcharts-point highcharts-color-1" tabindex="-1" aria-label="x, 1.91, 78. Triathlon." style="outline:0" transform="translate(78 56)"/><path d="m138.5 189.02 2.5 5h-5Z" class="highcharts-point highcharts-color-1" tabindex="-1" aria-label="x, 1.69, 55. Triathlon." style="outline:0" transform="translate(78 56)"/><path d="m226.5 158.78 2.5 5h-5Z" class="highcharts-point highcharts-color-1" tabindex="-1" aria-label="x, 1.81, 70. Triathlon." style="outline:0" transform="translate(78 56)"/><path d="m145.5 189.02 2.5 5h-5Z" class="highcharts-point highcharts-color-1" tabindex="-1" aria-label="x, 1.7, 55. Triathlon." style="outline:0" transform="translate(78 56)"/><path d="m131.5 187.004 2.5 5h-5Z" class="highcharts-point highcharts-color-1" tabindex="-1" aria-label="x, 1.68, 56. Triathlon." style="outline:0" transform="translate(78 56)"/><path d="m101.5 197.084 2.5 5h-5Z" class="highcharts-point highcharts-color-1" tabindex="-1" aria-label="x, 1.64, 51. Triathlon." style="outline:0" transform="translate(78 56)"/><path d="m131.5 184.988 2.5 5h-5Z" class="highcharts-point highcharts-color-1" tabindex="-1" aria-label="x, 1.68, 57. Triathlon." style="outline:0" transform="translate(78 56)"/><path d="m160.5 170.876 2.5 5h-5Z" class="highcharts-point highcharts-color-1" tabindex="-1" aria-label="x, 1.72, 64. Triathlon." style="outline:0" transform="translate(78 56)"/><path d="m204.5 182.972 2.5 5h-5Z" class="highcharts-point highcharts-color-1" tabindex="-1" aria-label="x, 1.78, 58. Triathlon." style="outline:0" transform="translate(78 56)"/><path d="m182.5 168.86 2.5 5h-5Z" class="highcharts-point highcharts-color-1" tabindex="-1" aria-label="x, 1.75, 65. Triathlon." style="outline:0" transform="translate(78 56)"/><path d="m218.5 182.972 2.5 5h-5Z" class="highcharts-point highcharts-color-1" tabindex="-1" aria-label="x, 1.8, 58. Triathlon." style="outline:0" transform="translate(78 56)"/><path d="m138.5 193.052 2.5 5h-5Z" class="highcharts-point highcharts-color-1" tabindex="-1" aria-label="x, 1.69, 53. Triathlon." style="outline:0" transform="translate(78 56)"/><path d="m182.5 168.86 2.5 5h-5Z" class="highcharts-point highcharts-color-1" tabindex="-1" aria-label="x, 1.75, 65. Triathlon." style="outline:0" transform="translate(78 56)"/><path d="m182.5 168.86 2.5 5h-5Z" class="highcharts-point highcharts-color-1" tabindex="-1" aria-label="x, 1.75, 65. Triathlon." style="outline:0" transform="translate(78 56)"/><path d="m262.5 144.668 2.5 5h-5Z" class="highcharts-point highcharts-color-1" tabindex="-1" aria-label="x, 1.86, 77. Triathlon." style="outline:0" transform="translate(78 56)"/><path d="m79.5 199.1 2.5 5h-5Z" class="highcharts-point highcharts-color-1" tabindex="-1" aria-label="x, 1.61, 50. Triathlon." style="outline:0" transform="translate(78 56)"/><path d="m167.5 178.94 2.5 5h-5Z" class="highcharts-point highcharts-color-1" tabindex="-1" aria-label="x, 1.73, 60. Triathlon." style="outline:0" transform="translate(78 56)"/><path d="m255.5 170.876 2.5 5h-5Z" class="highcharts-point highcharts-color-1" tabindex="-1" aria-label="x, 1.85, 64. Triathlon." style="outline:0" transform="translate(78 56)"/><path d="m145.5 176.924 2.5 5h-5Z" class="highcharts-point highcharts-color-1" tabindex="-1" aria-label="x, 1.7, 61. Triathlon." style="outline:0" transform="translate(78 56)"/><path d="m36.5 211.196 2.5 5h-5Z" class="highcharts-point highcharts-color-1" tabindex="-1" aria-label="x, 1.55, 44. Triathlon." style="outline:0" transform="translate(78 56)"/><path d="m123.5 174.908 2.5 5h-5Z" class="highcharts-point highcharts-color-1" tabindex="-1" aria-label="x, 1.67, 62. Triathlon." style="outline:0" transform="translate(78 56)"/><path d="m153.5 187.004 2.5 5h-5Z" class="highcharts-point highcharts-color-1" tabindex="-1" aria-label="x, 1.71, 56. Triathlon." style="outline:0" transform="translate(78 56)"/><path d="m79.5 203.132 2.5 5h-5Z" class="highcharts-point highcharts-color-1" tabindex="-1" aria-label="x, 1.61, 48. Triathlon." style="outline:0" transform="translate(78 56)"/><path d="m109.5 193.052 2.5 5h-5Z" class="highcharts-point highcharts-color-1" tabindex="-1" aria-label="x, 1.65, 53. Triathlon." style="outline:0" transform="translate(78 56)"/><path d="m153.5 187.004 2.5 5h-5Z" class="highcharts-point highcharts-color-1" tabindex="-1" aria-label="x, 1.71, 56. Triathlon." style="outline:0" transform="translate(78 56)"/><path d="m116.5 178.94 2.5 5h-5Z" class="highcharts-point highcharts-color-1" tabindex="-1" aria-label="x, 1.66, 60. Triathlon." style="outline:0" transform="translate(78 56)"/><path d="m182.5 170.876 2.5 5h-5Z" class="highcharts-point highcharts-color-1" tabindex="-1" aria-label="x, 1.75, 64. Triathlon." style="outline:0" transform="translate(78 56)"/><path d="m218.5 160.796 2.5 5h-5Z" class="highcharts-point highcharts-color-1" tabindex="-1" aria-label="x, 1.8, 69. Triathlon." style="outline:0" transform="translate(78 56)"/><path d="m153.5 189.02 2.5 5h-5Z" class="highcharts-point highcharts-color-1" tabindex="-1" aria-label="x, 1.71, 55. Triathlon." style="outline:0" transform="translate(78 56)"/><path d="m116.5 197.084 2.5 5h-5Z" class="highcharts-point highcharts-color-1" tabindex="-1" aria-label="x, 1.66, 51. Triathlon." style="outline:0" transform="translate(78 56)"/><path d="m72.5 199.1 2.5 5h-5Z" class="highcharts-point highcharts-color-1" tabindex="-1" aria-label="x, 1.6, 50. Triathlon." style="outline:0" transform="translate(78 56)"/><path d="m145.5 187.004 2.5 5h-5Z" class="highcharts-point highcharts-color-1" tabindex="-1" aria-label="x, 1.7, 56. Triathlon." style="outline:0" transform="translate(78 56)"/><path d="m182.5 174.908 2.5 5h-5Z" class="highcharts-point highcharts-color-1" tabindex="-1" aria-label="x, 1.75, 62. Triathlon." style="outline:0" transform="translate(78 56)"/><path d="m240.5 162.812 2.5 5h-5Z" class="highcharts-point highcharts-color-1" tabindex="-1" aria-label="x, 1.83, 68. Triathlon." style="outline:0" transform="translate(78 56)"/><path d="m145.5 180.956 2.5 5h-5Z" class="highcharts-point highcharts-color-1" tabindex="-1" aria-label="x, 1.7, 59. Triathlon." style="outline:0" transform="translate(78 56)"/><path d="m262.5 154.748 2.5 5h-5Z" class="highcharts-point highcharts-color-1" tabindex="-1" aria-label="x, 1.86, 72. Triathlon." style="outline:0" transform="translate(78 56)"/><path d="m153.5 178.94 2.5 5h-5Z" class="highcharts-point highcharts-color-1" tabindex="-1" aria-label="x, 1.71, 60. Triathlon." style="outline:0" transform="translate(78 56)"/><path d="m167.5 174.908 2.5 5h-5Z" class="highcharts-point highcharts-color-1" tabindex="-1" aria-label="x, 1.73, 62. Triathlon." style="outline:0" transform="translate(78 56)"/><path d="m131.5 187.004 2.5 5h-5Z" class="highcharts-point highcharts-color-1" tabindex="-1" aria-label="x, 1.68, 56. Triathlon." style="outline:0" transform="translate(78 56)"/><path d="m131.5 193.052 2.5 5h-5Z" class="highcharts-point highcharts-color-1" tabindex="-1" aria-label="x, 1.68, 53. Triathlon." style="outline:0" transform="translate(78 56)"/><path d="m145.5 180.956 2.5 5h-5Z" class="highcharts-point highcharts-color-1" tabindex="-1" aria-label="x, 1.7, 59. Triathlon." style="outline:0" transform="translate(78 56)"/><path d="m153.5 178.94 2.5 5h-5Z" class="highcharts-point highcharts-color-1" tabindex="-1" aria-label="x, 1.71, 60. Triathlon." style="outline:0" transform="translate(78 56)"/><path d="m218.5 158.78 2.5 5h-5Z" class="highcharts-point highcharts-color-1" tabindex="-1" aria-label="x, 1.8, 70. Triathlon." style="outline:0" transform="translate(78 56)"/><path d="m248.5 140.636 2.5 5h-5Z" class="highcharts-point highcharts-color-1" tabindex="-1" aria-label="x, 1.84, 79. Triathlon." style="outline:0" transform="translate(78 56)"/><path d="m131.5 187.004 2.5 5h-5Z" class="highcharts-point highcharts-color-1" tabindex="-1" aria-label="x, 1.68, 56. Triathlon." style="outline:0" transform="translate(78 56)"/><path d="m101.5 197.084 2.5 5h-5Z" class="highcharts-point highcharts-color-1" tabindex="-1" aria-label="x, 1.64, 51. Triathlon." style="outline:0" transform="translate(78 56)"/><path d="m233.5 160.796 2.5 5h-5Z" class="highcharts-point highcharts-color-1" tabindex="-1" aria-label="x, 1.82, 69. Triathlon." style="outline:0" transform="translate(78 56)"/><path d="m299.5 154.748 2.5 5h-5Z" class="highcharts-point highcharts-color-1" tabindex="-1" aria-label="x, 1.91, 72. Triathlon." style="outline:0" transform="translate(78 56)"/><path d="m116.5 189.02 2.5 5h-5Z" class="highcharts-point highcharts-color-1" tabindex="-1" aria-label="x, 1.66, 55. Triathlon." style="outline:0" transform="translate(78 56)"/><path d="m138.5 182.972 2.5 5h-5Z" class="highcharts-point highcharts-color-1" tabindex="-1" aria-label="x, 1.69, 58. Triathlon." style="outline:0" transform="translate(78 56)"/><path d="m218.5 152.732 2.5 5h-5Z" class="highcharts-point highcharts-color-1" tabindex="-1" aria-label="x, 1.8, 73. Triathlon." style="outline:0" transform="translate(78 56)"/><path d="m116.5 187.004 2.5 5h-5Z" class="highcharts-point highcharts-color-1" tabindex="-1" aria-label="x, 1.66, 56. Triathlon." style="outline:0" transform="translate(78 56)"/><path d="m116.5 191.036 2.5 5h-5Z" class="highcharts-point highcharts-color-1" tabindex="-1" aria-label="x, 1.66, 54. Triathlon." style="outline:0" transform="translate(78 56)"/><path d="m233.5 160.796 2.5 5h-5Z" class="highcharts-point highcharts-color-1" tabindex="-1" aria-label="x, 1.82, 69. Triathlon." style="outline:0" transform="translate(78 56)"/><path d="m277.5 168.86 2.5 5h-5Z" class="highcharts-point highcharts-color-1" tabindex="-1" aria-label="x, 1.88, 65. Triathlon." style="outline:0" transform="translate(78 56)"/><path d="m189.5 178.94 2.5 5h-5Z" class="highcharts-point highcharts-color-1" tabindex="-1" aria-label="x, 1.76, 60. Triathlon." style="outline:0" transform="translate(78 56)"/><path d="m240.5 164.828 2.5 5h-5Z" class="highcharts-point highcharts-color-1" tabindex="-1" aria-label="x, 1.83, 67. Triathlon." style="outline:0" transform="translate(78 56)"/><path d="m94.5 193.052 2.5 5h-5Z" class="highcharts-point highcharts-color-1" tabindex="-1" aria-label="x, 1.63, 53. Triathlon." style="outline:0" transform="translate(78 56)"/><path d="m240.5 158.78 2.5 5h-5Z" class="highcharts-point highcharts-color-1" tabindex="-1" aria-label="x, 1.83, 70. Triathlon." style="outline:0" transform="translate(78 56)"/><path d="m189.5 168.86 2.5 5h-5Z" class="highcharts-point highcharts-color-1" tabindex="-1" aria-label="x, 1.76, 65. Triathlon." style="outline:0" transform="translate(78 56)"/><path d="m204.5 182.972 2.5 5h-5Z" class="highcharts-point highcharts-color-1" tabindex="-1" aria-label="x, 1.78, 58. Triathlon." style="outline:0" transform="translate(78 56)"/><path d="m189.5 170.876 2.5 5h-5Z" class="highcharts-point highcharts-color-1" tabindex="-1" aria-label="x, 1.76, 64. Triathlon." style="outline:0" transform="translate(78 56)"/><path d="m167.5 182.972 2.5 5h-5Z" class="highcharts-point highcharts-color-1" tabindex="-1" aria-label="x, 1.73, 58. Triathlon." style="outline:0" transform="translate(78 56)"/><path d="m153.5 178.94 2.5 5h-5Z" class="highcharts-point highcharts-color-1" tabindex="-1" aria-label="x, 1.71, 60. Triathlon." style="outline:0" transform="translate(78 56)"/></g><g class="highcharts-markers highcharts-series-2 highcharts-scatter-series highcharts-color-2 highcharts-tracker" data-z-index=".1" aria-hidden="false" tabindex="-1" aria-label="Volleyball, scatter plot 3 of 3 with 382 points." style="outline:0" fill="rgba(237,86,27,0.5)"><path d="M246 128.54h5v5h-5Zm-81 38.304h5v5h-5Zm183-42.336h5v5h-5Zm-175 40.32h5v5h-5Zm153-54.432h5v5h-5Zm-22 24.192h5v5h-5Zm-110 20.16h5v5h-5Zm154-46.368h5v5h-5Zm-7 14.112h5v5h-5Zm-37 40.32h5v5h-5Zm-146 8.064h5v5h-5Zm249-66.528h5v5h-5Zm-227 50.4h5v5h-5Zm110-4.032h5v5h-5Zm-30 8.064h5v5h-5Z" class="highcharts-point highcharts-color-2" tabindex="-1" aria-hidden="true" style="outline:0" transform="translate(78 56)"/><path d="M326 114.428h5v5h-5Zm-29-12.096h5v5h-5Zm44 8.064h5v5h-5ZM99 174.908h5v5h-5Zm169-46.368h5v5h-5Zm109 0h5v5h-5Zm-153 22.176h5v5h-5Zm139-40.32h5v5h-5ZM231 158.78h5v5h-5Zm-29 12.096h5v5h-5Zm44-22.176h5v5h-5Zm-8 6.048h5v5h-5Zm-65 4.032h5v5h-5Zm124-10.08h5v5h-5Zm-51 14.112h5v5h-5Zm14-40.32h5v5h-5Zm-51 48.384h5v5h-5Zm146-42.336h5v5h-5Zm-65 10.08h5v5h-5Zm-22 30.24h5v5h-5Z" class="highcharts-point highcharts-color-2" tabindex="-1" aria-hidden="true" style="outline:0" transform="translate(78 56)"/><path d="M231 158.78h5v5h-5Zm154-64.512h5v5h-5Zm-191 72.576h5v5h-5Zm96-20.16h5v5h-5Zm-37-18.144h5v5h-5Zm-15 28.224h5v5h-5Zm117-8.064h5v5h-5Zm44-64.512h5v5h-5Zm37 4.032h5v5h-5Zm-22 4.032h5v5h-5Zm-102 54.432h5v5h-5Zm-88 2.016h5v5h-5Zm-37 32.256h5v5h-5Zm73-24.192h5v5h-5Zm-14 2.016h5v5h-5Z" class="highcharts-point highcharts-color-2" tabindex="-1" aria-hidden="true" style="outline:0" transform="translate(78 56)"/><path d="M238 154.748h5v5h-5Zm-65 4.032h5v5h-5Zm-37 24.192h5v5h-5Zm293-86.688h5v5h-5Zm-96 24.192h5v5h-5Zm22-20.16h5v5h-5Zm74 12.096h5v5h-5Zm-183 34.272h5v5h-5Zm73-28.224h5v5h-5Zm7 22.176h5v5h-5Z" class="highcharts-point highcharts-color-2" tabindex="-1" aria-hidden="true" style="outline:0" transform="translate(78 56)"/><path d="M246 142.652h5v5h-5Zm7 26.208h5v5h-5Zm-29 2.016h5v5h-5ZM333 148.7h5v5h-5Zm15-24.192h5v5h-5Zm-95 18.144h5v5h-5Zm110-28.224h5v5h-5Zm-117 16.128h5v5h-5Zm80-8.064h5v5h-5Zm88-20.16h5v5h-5Zm-88 0h5v5h-5Zm95-16.128h5v5h-5Zm-22 18.144h5v5h-5ZM151 168.86h5v5h-5Zm7 2.016h5v5h-5Zm161-60.48h5v5h-5Zm51-2.016h5v5h-5Zm-37-8.064h5v5h-5Zm30-6.048h5v5h-5Zm-88 68.544h5v5h-5Z" class="highcharts-point highcharts-color-2" tabindex="-1" aria-hidden="true" style="outline:0" transform="translate(78 56)"/><path d="M363 116.444h5v5h-5Zm-15 6.048h5v5h-5Zm-22 16.128h5v5h-5Zm7 20.16h5v5h-5Zm-21-34.272h5v5h-5Zm-15 12.096h5v5h-5Zm-7-14.112h5v5h-5Zm43-8.064h5v5h-5Zm-21 26.208h5v5h-5Zm-37 14.112h5v5h-5Zm15 2.016h5v5h-5Zm-139 2.016h5v5h-5Zm153-8.064h5v5h-5Zm-73 18.144h5v5h-5Zm73-26.208h5v5h-5Z" class="highcharts-point highcharts-color-2" tabindex="-1" aria-hidden="true" style="outline:0" transform="translate(78 56)"/><path d="M326 142.652h5v5h-5Zm-110 22.176h5v5h-5Zm44-10.08h5v5h-5Zm15 4.032h5v5h-5Zm95-16.128h5v5h-5Zm-139 12.096h5v5h-5Zm95-6.048h5v5h-5Z" class="highcharts-point highcharts-color-2" tabindex="-1" aria-hidden="true" style="outline:0" transform="translate(78 56)"/><path d="M216 164.828h5v5h-5Zm22-18.144h5v5h-5Zm-7 2.016h5v5h-5Zm15-10.08h5v5h-5Zm44 30.24h5v5h-5Zm-154-4.032h5v5h-5Z" class="highcharts-point highcharts-color-2" tabindex="-1" aria-hidden="true" style="outline:0" transform="translate(78 56)"/><path d="M246 138.62h5v5h-5Zm-81 14.112h5v5h-5Z" class="highcharts-point highcharts-color-2" tabindex="-1" aria-hidden="true" style="outline:0" transform="translate(78 56)"/><path d="M246 142.652h5v5h-5Zm-15 0h5v5h-5Zm-37-2.016h5v5h-5Z" class="highcharts-point highcharts-color-2" tabindex="-1" aria-hidden="true" style="outline:0" transform="translate(78 56)"/><path d="M246 142.652h5v5h-5Zm-81 38.304h5v5h-5Zm-58-6.048h5v5h-5Zm190-36.288h5v5h-5Zm80-20.16h5v5h-5Zm-29 2.016h5v5h-5Zm15 10.08h5v5h-5Zm7-24.192h5v5h-5Zm-154 8.064h5v5h-5Zm66 34.272h5v5h-5Zm81-12.096h5v5h-5Z" class="highcharts-point highcharts-color-2" tabindex="-1" aria-hidden="true" style="outline:0" transform="translate(78 56)"/><path d="M377 118.46h5v5h-5Zm-51 14.112h5v5h-5Zm-36 10.08h5v5h-5Zm36-42.336h5v5h-5Zm-88 42.336h5v5h-5Zm95-14.112h5v5h-5Zm-117 12.096h5v5h-5Zm0 22.176h5v5h-5Zm220-40.32h5v5h-5Zm-161-2.016h5v5h-5Zm66 4.032h5v5h-5Zm-22-10.08h5v5h-5Zm22 24.192h5v5h-5Zm-81-12.096h5v5h-5Zm66-10.08h5v5h-5Zm59-12.096h5v5h-5Zm29 14.112h5v5h-5Zm29-30.24h5v5h-5Zm-197 68.544h5v5h-5Zm-30 0h5v5h-5Zm81-66.528h5v5h-5Zm15 30.24h5v5h-5Zm-88 42.336h5v5h-5ZM202 148.7h5v5h-5Z" class="highcharts-point highcharts-color-2" tabindex="-1" aria-hidden="true" style="outline:0" transform="translate(78 56)"/><path d="M312 122.492h5v5h-5Zm51-28.224h5v5h-5Zm-125 58.464h5v5h-5Zm81-56.448h5v5h-5Zm66 14.112h5v5h-5ZM275 128.54h5v5h-5Zm154-26.208h5v5h-5Zm-66 26.208h5v5h-5Zm44-60.48h5v5h-5Zm-59 44.352h5v5h-5Zm-88 6.048h5v5h-5Zm52 10.08h5v5h-5Zm43-8.064h5v5h-5Zm-95 22.176h5v5h-5Zm-51 24.192h5v5h-5Zm44-18.144h5v5h-5Zm51-16.128h5v5h-5Zm-80 26.208h5v5h-5Zm131-54.432h5v5h-5Zm-29 18.144h5v5h-5Zm51-4.032h5v5h-5Zm-36 34.272h5v5h-5Zm7-50.4h5v5h-5Zm-190 58.464h5v5h-5Zm139-54.432h5v5h-5Zm36 36.288h5v5h-5Zm-51-6.048h5v5h-5Zm117-14.112h5v5h-5Zm-7 6.048h5v5h-5Zm-7-2.016h5v5h-5Z" class="highcharts-point highcharts-color-2" tabindex="-1" aria-hidden="true" style="outline:0" transform="translate(78 56)"/><path d="M348 108.38h5v5h-5Zm-117 24.192h5v5h-5Zm15 30.24h5v5h-5Zm-30-12.096h5v5h-5Zm147-40.32h5v5h-5ZM326 148.7h5v5h-5Z" class="highcharts-point highcharts-color-2" tabindex="-1" aria-hidden="true" style="outline:0" transform="translate(78 56)"/><path d="M216 148.7h5v5h-5Zm110 4.032h5v5h-5Zm-14-20.16h5v5h-5Zm-161 32.256h5v5h-5Zm226-56.448h5v5h-5Zm-29-6.048h5v5h-5Zm44-4.032h5v5h-5Zm-29 10.08h5v5h-5Zm-147 74.592h5v5h-5Zm52-44.352h5v5h-5Z" class="highcharts-point highcharts-color-2" tabindex="-1" aria-hidden="true" style="outline:0" transform="translate(78 56)"/><path d="M216 148.7h5v5h-5Zm205-54.432h5v5h-5Zm-248 70.56h5v5h-5Zm73-26.208h5v5h-5Zm-15 34.272h5v5h-5Zm117-50.4h5v5h-5Zm15 6.048h5v5h-5Zm-73 30.24h5v5h-5ZM392 98.3h5v5h-5Zm-132 54.432h5v5h-5Zm-7-18.144h5v5h-5Zm15 38.304h5v5h-5ZM407 98.3h5v5h-5Zm-59 16.128h5v5h-5Zm-249 80.64h5v5h-5Zm161-52.416h5v5h-5Zm-66 34.272h5v5h-5Zm37-36.288h5v5h-5Zm-66 26.208h5v5h-5ZM63 184.988h5v5h-5Zm124-10.08h5v5h-5Zm22-12.096h5v5h-5Zm44 6.048h5v5h-5Zm-73 4.032h5v5h-5Zm36-10.08h5v5h-5Zm-29 20.16h5v5h-5Zm-58 2.016h5v5h-5Zm124-42.336h5v5h-5Zm-66 26.208h5v5h-5Zm-22 16.128h5v5h-5Z" class="highcharts-point highcharts-color-2" tabindex="-1" aria-hidden="true" style="outline:0" transform="translate(78 56)"/><path d="M290 154.748h5v5h-5Zm-88 12.096h5v5h-5Zm58-18.144h5v5h-5Zm-109 24.192h5v5h-5Zm117-10.08h5v5h-5Zm36-10.08h5v5h-5Zm-73 14.112h5v5h-5Zm-37 6.048h5v5h-5Zm139-70.56h5v5h-5Zm-36 18.144h5v5h-5Zm36-12.096h5v5h-5Zm8 2.016h5v5h-5Zm-81 14.112h5v5h-5Zm81-2.016h5v5h-5Zm-51 12.096h5v5h-5Zm-15 4.032h5v5h-5Zm-15 0h5v5h-5ZM363 98.3h5v5h-5Z" class="highcharts-point highcharts-color-2" tabindex="-1" aria-hidden="true" style="outline:0" transform="translate(78 56)"/><path d="M341 106.364h5v5h-5Zm-37 24.192h5v5h-5Z" class="highcharts-point highcharts-color-2" tabindex="-1" aria-hidden="true" style="outline:0" transform="translate(78 56)"/><path d="M304 128.54h5v5h-5Zm-51-4.032h5v5h-5Zm110-4.032h5v5h-5Zm14-12.096h5v5h-5Zm-29 10.08h5v5h-5Zm-58 34.272h5v5h-5Zm0-34.272h5v5h-5Zm153-28.224h5v5h-5Zm-197 72.576h5v5h-5Zm36-28.224h5v5h-5Zm-51 16.128h5v5h-5Zm37 2.016h5v5h-5Z" class="highcharts-point highcharts-color-2" tabindex="-1" aria-hidden="true" style="outline:0" transform="translate(78 56)"/><path d="M246 158.78h5v5h-5Zm58-14.112h5v5h-5Zm-66 4.032h5v5h-5Zm-22 14.112h5v5h-5Zm-14 0h5v5h-5Zm36-4.032h5v5h-5Zm44-10.08h5v5h-5Zm37-24.192h5v5h-5Zm95-14.112h5v5h-5ZM304 138.62h5v5h-5Z" class="highcharts-point highcharts-color-2" tabindex="-1" aria-hidden="true" style="outline:0" transform="translate(78 56)"/><path d="M202 160.796h5v5h-5Zm73-10.08h5v5h-5Zm95-20.16h5v5h-5Zm29-6.048h5v5h-5Zm-109-2.016h5v5h-5Zm58-10.08h5v5h-5Zm-15 6.048h5v5h-5Zm-80-18.144h5v5h-5Zm15 38.304h5v5h-5Zm102-14.112h5v5h-5Zm-161 40.32h5v5h-5Zm95-32.256h5v5h-5Zm132-30.24h5v5h-5Zm-29 24.192h5v5h-5ZM297 138.62h5v5h-5Zm-132 36.288h5v5h-5Zm81-22.176h5v5h-5Zm117-34.272h5v5h-5Zm36 0h5v5h-5Zm-80 18.144h5v5h-5ZM282 148.7h5v5h-5Zm-66 24.192h5v5h-5Zm37-4.032h5v5h-5Zm-139 8.064h5v5h-5Z" class="highcharts-point highcharts-color-2" tabindex="-1" aria-hidden="true" style="outline:0" transform="translate(78 56)"/><path d="M297 138.62h5v5h-5Zm7 8.064h5v5h-5Zm-29 4.032h5v5h-5Zm-132 26.208h5v5h-5Zm22-14.112h5v5h-5Zm44 24.192h5v5h-5Zm7-14.112h5v5h-5Zm-14 2.016h5v5h-5Zm117-30.24h5v5h-5Zm-103-18.144h5v5h-5Zm220-8.064h5v5h-5Zm-198 22.176h5v5h-5Zm66 20.16h5v5h-5Zm73-72.576h5v5h-5Zm-197 92.736h5v5h-5Zm95-42.336h5v5h-5Zm146-32.256h5v5h-5Zm-44 28.224h5v5h-5Zm-7-12.096h5v5h-5Zm-51-16.128h5v5h-5Zm102 6.048h5v5h-5Z" class="highcharts-point highcharts-color-2" tabindex="-1" aria-hidden="true" style="outline:0" transform="translate(78 56)"/><path d="M216 174.908h5v5h-5Zm-14-4.032h5v5h-5Zm0-10.08h5v5h-5Zm22 6.048h5v5h-5Zm124-40.32h5v5h-5Zm-58 20.16h5v5h-5Zm0-16.128h5v5h-5Zm43 12.096h5v5h-5Zm103-46.368h5v5h-5Zm-44 10.08h5v5h-5Zm-15-14.112h5v5h-5ZM319 148.7h5v5h-5Zm73-30.24h5v5h-5Zm-66-12.096h5v5h-5Zm15 14.112h5v5h-5Zm-44 44.352h5v5h-5Zm-81-12.096h5v5h-5Zm110-34.272h5v5h-5Zm-73 38.304h5v5h-5Zm15-6.048h5v5h-5Zm-8 4.032h5v5h-5Z" class="highcharts-point highcharts-color-2" tabindex="-1" aria-hidden="true" style="outline:0" transform="translate(78 56)"/><path d="M290 132.572h5v5h-5Zm29 8.064h5v5h-5Zm14-6.048h5v5h-5Zm-29 20.16h5v5h-5Zm-66 10.08h5v5h-5Zm59-10.08h5v5h-5Zm-95 14.112h5v5h-5Zm88-22.176h5v5h-5Zm22-12.096h5v5h-5Zm-59 8.064h5v5h-5Zm0 16.128h5v5h-5Z" class="highcharts-point highcharts-color-2" tabindex="-1" aria-hidden="true" style="outline:0" transform="translate(78 56)"/><path d="M202 164.828h5v5h-5Zm88-10.08h5v5h-5ZM158 168.86h5v5h-5Zm161-56.448h5v5h-5Zm-29 34.272h5v5h-5Zm109-44.352h5v5h-5Zm-153 52.416h5v5h-5Zm14-4.032h5v5h-5Zm-95 10.08h5v5h-5Zm51-12.096h5v5h-5Zm139-26.208h5v5h-5Zm-80 18.144h5v5h-5Zm-132 26.208h5v5h-5ZM385 88.22h5v5h-5Zm-15 38.304h5v5h-5Zm-124 6.048h5v5h-5Zm51 8.064h5v5h-5Zm73-32.256h5v5h-5Zm-95 40.32h5v5h-5Zm37 0h5v5h-5Zm-22-8.064h5v5h-5Zm-88 8.064h5v5h-5Z" class="highcharts-point highcharts-color-2" tabindex="-1" aria-hidden="true" style="outline:0" transform="translate(78 56)"/><path d="M275 140.636h5v5h-5Zm0 8.064h5v5h-5Zm0 6.048h5v5h-5Zm37 0h5v5h-5Z" class="highcharts-point highcharts-color-2" tabindex="-1" aria-hidden="true" style="outline:0" transform="translate(78 56)"/><path d="M275 148.7h5v5h-5Zm102-50.4h5v5h-5Zm22 20.16h5v5h-5Zm-51 4.032h5v5h-5Z" class="highcharts-point highcharts-color-2" tabindex="-1" aria-hidden="true" style="outline:0" transform="translate(78 56)"/><path d="M377 100.316h5v5h-5Zm-117 32.256h5v5h-5Zm147-18.144h5v5h-5Zm-132 22.176h5v5h-5Zm58 2.016h5v5h-5Zm15-8.064h5v5h-5Zm-29-10.08h5v5h-5ZM92 189.02h5v5h-5Zm124-22.176h5v5h-5Z" class="highcharts-point highcharts-color-2" tabindex="-1" aria-hidden="true" style="outline:0" transform="translate(78 56)"/></g></g><text x="10" class="highcharts-title" data-z-index="4" style="color:#000;font-size:16px;font-weight:700;fill:#000" y="22" aria-hidden="true">Olympics athletes by height and weight</text><text x="10" class="highcharts-subtitle" data-z-index="4" style="color:#000;fill:#000" y="42" aria-hidden="true">Source: <a><tspan>The Guardian</tspan></a></text><g class="highcharts-legend highcharts-no-tooltip" data-z-index="7" transform="translate(157 358)" aria-hidden="true"><rect fill="#E0E0E8" class="highcharts-legend-box" rx="0" ry="0" width="285" height="27"/><g data-z-index="1"><g class="highcharts-legend-item highcharts-scatter-series highcharts-color-0 highcharts-series-0" data-z-index="1"><path fill="none" d="M8 15h16" class="highcharts-graph"/><path fill="rgba(5,141,199,0.5)" d="M16.5 18a2.5 2.5 0 1 1 .002 0Z" class="highcharts-point"/><text x="21" data-z-index="2" y="16" style="color:#333;cursor:pointer;font-size:13px;font-weight:700;fill:#333" transform="translate(8 3)">Basketball</text></g><g class="highcharts-legend-item highcharts-scatter-series highcharts-color-1 highcharts-series-1" data-z-index="1"><path fill="none" d="M107.516 15h16" class="highcharts-graph"/><path fill="rgba(80,180,50,0.5)" d="m116.016 13 2.5 5h-5Z" class="highcharts-point"/><text x="21" y="16" data-z-index="2" style="color:#333;cursor:pointer;font-size:13px;font-weight:700;fill:#333" transform="translate(107.516 3)">Triathlon</text></g><g class="highcharts-legend-item highcharts-scatter-series highcharts-color-2 highcharts-series-2" data-z-index="1"><path fill="none" d="M201.008 15h16" class="highcharts-graph"/><path fill="rgba(237,86,27,0.5)" d="M207.008 13h5v5h-5Z" class="highcharts-point"/><text x="21" y="16" data-z-index="2" style="color:#333;cursor:pointer;font-size:13px;font-weight:700;fill:#333" transform="translate(201.008 3)">Volleyball</text></g></g></g><g class="highcharts-axis-labels highcharts-xaxis-labels" data-z-index="7" aria-hidden="true" text-anchor="middle"><text x="78" style="color:#6e6e70;cursor:default;font-size:11px;fill:#6e6e70" y="327">1.5 m</text><text x="151.143" style="color:#6e6e70;cursor:default;font-size:11px;fill:#6e6e70" y="327">1.6 m</text><text x="224.286" style="color:#6e6e70;cursor:default;font-size:11px;fill:#6e6e70" y="327">1.7 m</text><text x="297.429" style="color:#6e6e70;cursor:default;font-size:11px;fill:#6e6e70" y="327">1.8 m</text><text x="370.571" style="color:#6e6e70;cursor:default;font-size:11px;fill:#6e6e70" y="327">1.9 m</text><text x="443.714" style="color:#6e6e70;cursor:default;font-size:11px;fill:#6e6e70" y="327">2 m</text><text x="516.857" style="color:#6e6e70;cursor:default;font-size:11px;fill:#6e6e70" y="327">2.1 m</text><text x="577.469" style="color:#6e6e70;cursor:default;font-size:11px;fill:#6e6e70" y="327">2.2 m</text></g><g class="highcharts-axis-labels highcharts-yaxis-labels" data-z-index="7" aria-hidden="true" text-anchor="end"><text x="63" style="color:#6e6e70;cursor:default;font-size:11px;fill:#6e6e70" y="313">25 kg</text><text x="63" style="color:#6e6e70;cursor:default;font-size:11px;fill:#6e6e70" y="262">50 kg</text><text x="63" style="color:#6e6e70;cursor:default;font-size:11px;fill:#6e6e70" y="212">75 kg</text><text x="63" style="color:#6e6e70;cursor:default;font-size:11px;fill:#6e6e70" y="162">100 kg</text><text x="63" style="color:#6e6e70;cursor:default;font-size:11px;fill:#6e6e70" y="111">125 kg</text><text x="63" style="color:#6e6e70;cursor:default;font-size:11px;fill:#6e6e70" y="61">150 kg</text></g></svg>