<svg class="highcharts-root" style="font-family:Signika,serif;font-size:12px" xmlns="http://www.w3.org/2000/svg" width="600" height="400" aria-label="Interactive chart" aria-hidden="false"><defs aria-hidden="true"><clipPath id="a"><path fill="none" d="M0 0h536v252H0z"/></clipPath></defs><rect fill="none" class="highcharts-background" width="600" height="400" rx="0" ry="0" aria-hidden="true"/><path fill="none" class="highcharts-plot-background" aria-hidden="true" d="M54 56h536v252H54z"/><g class="highcharts-grid highcharts-xaxis-grid" data-z-index="1" aria-hidden="true" fill="none"><path data-z-index="1" class="highcharts-grid-line" d="M76.5 56v252m132-252v252m128-252v252m133-252v252"/></g><g class="highcharts-grid highcharts-yaxis-grid" data-z-index="1" aria-hidden="true" fill="none" stroke="#e6e6e6"><path data-z-index="1" class="highcharts-grid-line" d="M54 308.5h536m-536-63h536m-536-63h536m-536-63h536m-536-64h536"/></g><path fill="none" class="highcharts-plot-border" data-z-index="1" aria-hidden="true" d="M54 56h536v252H54z"/><g class="highcharts-axis highcharts-xaxis" data-z-index="2" aria-hidden="true"><path fill="none" class="highcharts-tick" stroke="#ccd6eb" d="M76.5 308v10m132-10v10m128-10v10m133-10v10"/><text x="322" data-z-index="7" text-anchor="middle" class="highcharts-axis-title" style="color:#666;fill:#666" y="345.5">Date</text><path fill="none" class="highcharts-axis-line" stroke="#ccd6eb" data-z-index="7" d="M54 308.5h536"/></g><g class="highcharts-axis highcharts-yaxis" data-z-index="2" aria-hidden="true"><text x="23.5" data-z-index="7" text-anchor="middle" transform="rotate(-90 23.5 182)" class="highcharts-axis-title" style="color:#666;fill:#666" y="182">Snow depth (m)</text><path fill="none" class="highcharts-axis-line" data-z-index="7" d="M54 56v252"/></g><g class="highcharts-series-group" data-z-index="3" aria-hidden="false"><g class="highcharts-series highcharts-series-0 highcharts-spline-series highcharts-color-0" data-z-index=".1" clip-path="url(#a)" aria-hidden="true" fill="none" stroke-linejoin="round" stroke-linecap="round" transform="translate(54 56)"><path d="M6.255 253s3.909-7.56 6.514-7.56c2.606 0 3.909 1.89 6.515 1.89 3.474 0 5.211-2.52 8.685-2.52 2.606 0 3.909.63 6.515.63 2.605 0 3.908-.63 6.514-.63h6.514c2.606 0 3.909-1.134 6.515-1.89 2.605-.756 3.908-.756 6.514-1.89 2.606-1.134 3.909-3.15 6.514-3.78 2.606-.63 3.909-.63 6.515-.63 2.605 0 3.908 1.26 6.514 1.26 2.606 0 3.909-.378 6.514-.63 2.606-.252 3.909 0 6.515-.63s3.908-4.158 6.514-6.3c2.606-2.142 3.909-4.41 6.514-4.41 2.606 0 3.91 6.93 6.515 6.93 2.606 0 3.908-8.82 6.514-10.08 2.606-1.26 3.909-1.26 6.514-1.26 2.606 0 3.91 3.15 6.515 3.78 2.606.63 3.908.63 6.514.63 2.606 0 3.909-1.26 6.515-1.26 2.605 0 3.908 2.52 6.514 3.15 3.474.63 5.211.63 8.686.63 2.605 0 3.908-10.08 6.514-10.71 2.606-.63 3.909 0 6.514-.63 2.606-.63 3.909-2.394 6.515-6.93 2.605-4.536 3.908-10.332 6.514-15.75 2.606-5.418 3.909-11.34 6.514-11.34 2.606 0 3.909 5.04 6.515 6.3 2.605 1.26 3.908 1.26 6.514 1.26 2.606 0 3.909-8.19 6.514-11.34 2.606-3.15 3.909-1.818 6.515-4.41 3.474-3.456 5.211-7.398 8.686-10.71 2.605-2.484 3.908-3.78 6.514-3.78 2.606 0 3.908 4.41 6.514 4.41 2.606 0 3.909-25.83 6.515-32.76 2.605-6.93 3.908-.126 6.514-6.93 2.606-6.804 3.908-22.68 6.514-27.09 2.606-4.41 3.909-1.008 6.515-4.41 2.605-3.402 3.908-12.6 6.514-12.6 2.606 0 3.908 2.916 6.514 3.78 3.475 1.152 5.212.54 8.686 1.26 2.606.54 3.909 1.89 6.514 1.89 2.606 0 3.909-7.362 6.515-10.71 3.474-4.464 5.211-6.07 8.685-8.82 6.08-4.81 9.12-10.08 15.2-10.08s9.12 18.9 15.2 20.79c2.606 1.89 3.91 1.89 6.515 1.89 4.343 0 6.514-10.71 10.857-10.71 4.343 0 6.515 8.19 10.858 8.19 2.605 0 3.908-.63 6.514-.63 2.606 0 3.909 1.26 6.514 1.26h6.515c2.605 0 3.908 1.89 6.514 3.78 2.606 1.89 3.909 3.402 6.514 5.67 2.606 2.268 3.909 5.67 6.515 5.67 2.605 0 3.908-.252 6.514-.63 2.606-.378 3.909-1.26 6.514-1.26 2.606 0 3.909.504 6.515 1.89 2.605 1.386 3.908 4.41 6.514 5.04 2.606.63 3.909.63 6.514.63h6.515c2.605 0 3.908-3.15 6.514-3.15 2.606 0 3.909.378 6.514 4.41 2.606 4.032 3.909 10.71 6.515 15.75 2.605 5.04 3.908 5.922 6.514 9.45 2.606 3.528 3.909 3.276 6.514 8.19 2.606 4.914 3.909 11.52 6.515 16.38 3.474 6.48 5.211 7.362 8.685 11.97 2.606 3.456 3.91 4.158 6.515 8.19 2.606 4.032 3.908 6.174 6.514 11.97 2.606 5.796 3.909 9.828 6.515 17.01 2.605 7.182 3.908 10.71 6.514 18.9 2.606 8.19 3.908 13.885 6.514 22.05 1.737 5.443 4.343 11.97 4.343 11.97" class="highcharts-graph highcharts-shadow" data-z-index="1" stroke="#000" stroke-width="5" stroke-opacity=".05"/><path d="M6.255 253s3.909-7.56 6.514-7.56c2.606 0 3.909 1.89 6.515 1.89 3.474 0 5.211-2.52 8.685-2.52 2.606 0 3.909.63 6.515.63 2.605 0 3.908-.63 6.514-.63h6.514c2.606 0 3.909-1.134 6.515-1.89 2.605-.756 3.908-.756 6.514-1.89 2.606-1.134 3.909-3.15 6.514-3.78 2.606-.63 3.909-.63 6.515-.63 2.605 0 3.908 1.26 6.514 1.26 2.606 0 3.909-.378 6.514-.63 2.606-.252 3.909 0 6.515-.63s3.908-4.158 6.514-6.3c2.606-2.142 3.909-4.41 6.514-4.41 2.606 0 3.91 6.93 6.515 6.93 2.606 0 3.908-8.82 6.514-10.08 2.606-1.26 3.909-1.26 6.514-1.26 2.606 0 3.91 3.15 6.515 3.78 2.606.63 3.908.63 6.514.63 2.606 0 3.909-1.26 6.515-1.26 2.605 0 3.908 2.52 6.514 3.15 3.474.63 5.211.63 8.686.63 2.605 0 3.908-10.08 6.514-10.71 2.606-.63 3.909 0 6.514-.63 2.606-.63 3.909-2.394 6.515-6.93 2.605-4.536 3.908-10.332 6.514-15.75 2.606-5.418 3.909-11.34 6.514-11.34 2.606 0 3.909 5.04 6.515 6.3 2.605 1.26 3.908 1.26 6.514 1.26 2.606 0 3.909-8.19 6.514-11.34 2.606-3.15 3.909-1.818 6.515-4.41 3.474-3.456 5.211-7.398 8.686-10.71 2.605-2.484 3.908-3.78 6.514-3.78 2.606 0 3.908 4.41 6.514 4.41 2.606 0 3.909-25.83 6.515-32.76 2.605-6.93 3.908-.126 6.514-6.93 2.606-6.804 3.908-22.68 6.514-27.09 2.606-4.41 3.909-1.008 6.515-4.41 2.605-3.402 3.908-12.6 6.514-12.6 2.606 0 3.908 2.916 6.514 3.78 3.475 1.152 5.212.54 8.686 1.26 2.606.54 3.909 1.89 6.514 1.89 2.606 0 3.909-7.362 6.515-10.71 3.474-4.464 5.211-6.07 8.685-8.82 6.08-4.81 9.12-10.08 15.2-10.08s9.12 18.9 15.2 20.79c2.606 1.89 3.91 1.89 6.515 1.89 4.343 0 6.514-10.71 10.857-10.71 4.343 0 6.515 8.19 10.858 8.19 2.605 0 3.908-.63 6.514-.63 2.606 0 3.909 1.26 6.514 1.26h6.515c2.605 0 3.908 1.89 6.514 3.78 2.606 1.89 3.909 3.402 6.514 5.67 2.606 2.268 3.909 5.67 6.515 5.67 2.605 0 3.908-.252 6.514-.63 2.606-.378 3.909-1.26 6.514-1.26 2.606 0 3.909.504 6.515 1.89 2.605 1.386 3.908 4.41 6.514 5.04 2.606.63 3.909.63 6.514.63h6.515c2.605 0 3.908-3.15 6.514-3.15 2.606 0 3.909.378 6.514 4.41 2.606 4.032 3.909 10.71 6.515 15.75 2.605 5.04 3.908 5.922 6.514 9.45 2.606 3.528 3.909 3.276 6.514 8.19 2.606 4.914 3.909 11.52 6.515 16.38 3.474 6.48 5.211 7.362 8.685 11.97 2.606 3.456 3.91 4.158 6.515 8.19 2.606 4.032 3.908 6.174 6.514 11.97 2.606 5.796 3.909 9.828 6.515 17.01 2.605 7.182 3.908 10.71 6.514 18.9 2.606 8.19 3.908 13.885 6.514 22.05 1.737 5.443 4.343 11.97 4.343 11.97" class="highcharts-graph highcharts-shadow" data-z-index="1" stroke="#000" stroke-width="3" stroke-opacity=".1"/><path d="M6.255 253s3.909-7.56 6.514-7.56c2.606 0 3.909 1.89 6.515 1.89 3.474 0 5.211-2.52 8.685-2.52 2.606 0 3.909.63 6.515.63 2.605 0 3.908-.63 6.514-.63h6.514c2.606 0 3.909-1.134 6.515-1.89 2.605-.756 3.908-.756 6.514-1.89 2.606-1.134 3.909-3.15 6.514-3.78 2.606-.63 3.909-.63 6.515-.63 2.605 0 3.908 1.26 6.514 1.26 2.606 0 3.909-.378 6.514-.63 2.606-.252 3.909 0 6.515-.63s3.908-4.158 6.514-6.3c2.606-2.142 3.909-4.41 6.514-4.41 2.606 0 3.91 6.93 6.515 6.93 2.606 0 3.908-8.82 6.514-10.08 2.606-1.26 3.909-1.26 6.514-1.26 2.606 0 3.91 3.15 6.515 3.78 2.606.63 3.908.63 6.514.63 2.606 0 3.909-1.26 6.515-1.26 2.605 0 3.908 2.52 6.514 3.15 3.474.63 5.211.63 8.686.63 2.605 0 3.908-10.08 6.514-10.71 2.606-.63 3.909 0 6.514-.63 2.606-.63 3.909-2.394 6.515-6.93 2.605-4.536 3.908-10.332 6.514-15.75 2.606-5.418 3.909-11.34 6.514-11.34 2.606 0 3.909 5.04 6.515 6.3 2.605 1.26 3.908 1.26 6.514 1.26 2.606 0 3.909-8.19 6.514-11.34 2.606-3.15 3.909-1.818 6.515-4.41 3.474-3.456 5.211-7.398 8.686-10.71 2.605-2.484 3.908-3.78 6.514-3.78 2.606 0 3.908 4.41 6.514 4.41 2.606 0 3.909-25.83 6.515-32.76 2.605-6.93 3.908-.126 6.514-6.93 2.606-6.804 3.908-22.68 6.514-27.09 2.606-4.41 3.909-1.008 6.515-4.41 2.605-3.402 3.908-12.6 6.514-12.6 2.606 0 3.908 2.916 6.514 3.78 3.475 1.152 5.212.54 8.686 1.26 2.606.54 3.909 1.89 6.514 1.89 2.606 0 3.909-7.362 6.515-10.71 3.474-4.464 5.211-6.07 8.685-8.82 6.08-4.81 9.12-10.08 15.2-10.08s9.12 18.9 15.2 20.79c2.606 1.89 3.91 1.89 6.515 1.89 4.343 0 6.514-10.71 10.857-10.71 4.343 0 6.515 8.19 10.858 8.19 2.605 0 3.908-.63 6.514-.63 2.606 0 3.909 1.26 6.514 1.26h6.515c2.605 0 3.908 1.89 6.514 3.78 2.606 1.89 3.909 3.402 6.514 5.67 2.606 2.268 3.909 5.67 6.515 5.67 2.605 0 3.908-.252 6.514-.63 2.606-.378 3.909-1.26 6.514-1.26 2.606 0 3.909.504 6.515 1.89 2.605 1.386 3.908 4.41 6.514 5.04 2.606.63 3.909.63 6.514.63h6.515c2.605 0 3.908-3.15 6.514-3.15 2.606 0 3.909.378 6.514 4.41 2.606 4.032 3.909 10.71 6.515 15.75 2.605 5.04 3.908 5.922 6.514 9.45 2.606 3.528 3.909 3.276 6.514 8.19 2.606 4.914 3.909 11.52 6.515 16.38 3.474 6.48 5.211 7.362 8.685 11.97 2.606 3.456 3.91 4.158 6.515 8.19 2.606 4.032 3.908 6.174 6.514 11.97 2.606 5.796 3.909 9.828 6.515 17.01 2.605 7.182 3.908 10.71 6.514 18.9 2.606 8.19 3.908 13.885 6.514 22.05 1.737 5.443 4.343 11.97 4.343 11.97" class="highcharts-graph highcharts-shadow" data-z-index="1" stroke="#000" stroke-opacity=".15"/><path d="M5.255 252s3.909-7.56 6.514-7.56c2.606 0 3.909 1.89 6.515 1.89 3.474 0 5.211-2.52 8.685-2.52 2.606 0 3.909.63 6.515.63 2.605 0 3.908-.63 6.514-.63h6.514c2.606 0 3.909-1.134 6.515-1.89 2.605-.756 3.908-.756 6.514-1.89 2.606-1.134 3.909-3.15 6.514-3.78 2.606-.63 3.909-.63 6.515-.63 2.605 0 3.908 1.26 6.514 1.26 2.606 0 3.909-.378 6.514-.63 2.606-.252 3.909 0 6.515-.63s3.908-4.158 6.514-6.3c2.606-2.142 3.909-4.41 6.514-4.41 2.606 0 3.91 6.93 6.515 6.93 2.606 0 3.908-8.82 6.514-10.08 2.606-1.26 3.909-1.26 6.514-1.26 2.606 0 3.91 3.15 6.515 3.78 2.606.63 3.908.63 6.514.63 2.606 0 3.909-1.26 6.515-1.26 2.605 0 3.908 2.52 6.514 3.15 3.474.63 5.211.63 8.686.63 2.605 0 3.908-10.08 6.514-10.71 2.606-.63 3.909 0 6.514-.63 2.606-.63 3.909-2.394 6.515-6.93 2.605-4.536 3.908-10.332 6.514-15.75 2.606-5.418 3.909-11.34 6.514-11.34 2.606 0 3.909 5.04 6.515 6.3 2.605 1.26 3.908 1.26 6.514 1.26 2.606 0 3.909-8.19 6.514-11.34 2.606-3.15 3.909-1.818 6.515-4.41 3.474-3.456 5.211-7.398 8.686-10.71 2.605-2.484 3.908-3.78 6.514-3.78 2.606 0 3.908 4.41 6.514 4.41 2.606 0 3.909-25.83 6.515-32.76 2.605-6.93 3.908-.126 6.514-6.93 2.606-6.804 3.908-22.68 6.514-27.09 2.606-4.41 3.909-1.008 6.515-4.41 2.605-3.402 3.908-12.6 6.514-12.6 2.606 0 3.908 2.916 6.514 3.78 3.475 1.152 5.212.54 8.686 1.26 2.606.54 3.909 1.89 6.514 1.89 2.606 0 3.909-7.362 6.515-10.71 3.474-4.464 5.211-6.07 8.685-8.82 6.08-4.81 9.12-10.08 15.2-10.08s9.12 18.9 15.2 20.79c2.606 1.89 3.91 1.89 6.515 1.89 4.343 0 6.514-10.71 10.857-10.71 4.343 0 6.515 8.19 10.858 8.19 2.605 0 3.908-.63 6.514-.63 2.606 0 3.909 1.26 6.514 1.26h6.515c2.605 0 3.908 1.89 6.514 3.78 2.606 1.89 3.909 3.402 6.514 5.67 2.606 2.268 3.909 5.67 6.515 5.67 2.605 0 3.908-.252 6.514-.63 2.606-.378 3.909-1.26 6.514-1.26 2.606 0 3.909.504 6.515 1.89 2.605 1.386 3.908 4.41 6.514 5.04 2.606.63 3.909.63 6.514.63h6.515c2.605 0 3.908-3.15 6.514-3.15 2.606 0 3.909.378 6.514 4.41 2.606 4.032 3.909 10.71 6.515 15.75 2.605 5.04 3.908 5.922 6.514 9.45 2.606 3.528 3.909 3.276 6.514 8.19 2.606 4.914 3.909 11.52 6.515 16.38 3.474 6.48 5.211 7.362 8.685 11.97 2.606 3.456 3.91 4.158 6.515 8.19 2.606 4.032 3.908 6.174 6.514 11.97 2.606 5.796 3.909 9.828 6.515 17.01 2.605 7.182 3.908 10.71 6.514 18.9 2.606 8.19 3.908 13.885 6.514 22.05 1.737 5.443 4.343 11.97 4.343 11.97" class="highcharts-graph" data-z-index="1" stroke="#6CF" stroke-width="2"/><path d="M5.255 252s3.909-7.56 6.514-7.56c2.606 0 3.909 1.89 6.515 1.89 3.474 0 5.211-2.52 8.685-2.52 2.606 0 3.909.63 6.515.63 2.605 0 3.908-.63 6.514-.63h6.514c2.606 0 3.909-1.134 6.515-1.89 2.605-.756 3.908-.756 6.514-1.89 2.606-1.134 3.909-3.15 6.514-3.78 2.606-.63 3.909-.63 6.515-.63 2.605 0 3.908 1.26 6.514 1.26 2.606 0 3.909-.378 6.514-.63 2.606-.252 3.909 0 6.515-.63s3.908-4.158 6.514-6.3c2.606-2.142 3.909-4.41 6.514-4.41 2.606 0 3.91 6.93 6.515 6.93 2.606 0 3.908-8.82 6.514-10.08 2.606-1.26 3.909-1.26 6.514-1.26 2.606 0 3.91 3.15 6.515 3.78 2.606.63 3.908.63 6.514.63 2.606 0 3.909-1.26 6.515-1.26 2.605 0 3.908 2.52 6.514 3.15 3.474.63 5.211.63 8.686.63 2.605 0 3.908-10.08 6.514-10.71 2.606-.63 3.909 0 6.514-.63 2.606-.63 3.909-2.394 6.515-6.93 2.605-4.536 3.908-10.332 6.514-15.75 2.606-5.418 3.909-11.34 6.514-11.34 2.606 0 3.909 5.04 6.515 6.3 2.605 1.26 3.908 1.26 6.514 1.26 2.606 0 3.909-8.19 6.514-11.34 2.606-3.15 3.909-1.818 6.515-4.41 3.474-3.456 5.211-7.398 8.686-10.71 2.605-2.484 3.908-3.78 6.514-3.78 2.606 0 3.908 4.41 6.514 4.41 2.606 0 3.909-25.83 6.515-32.76 2.605-6.93 3.908-.126 6.514-6.93 2.606-6.804 3.908-22.68 6.514-27.09 2.606-4.41 3.909-1.008 6.515-4.41 2.605-3.402 3.908-12.6 6.514-12.6 2.606 0 3.908 2.916 6.514 3.78 3.475 1.152 5.212.54 8.686 1.26 2.606.54 3.909 1.89 6.514 1.89 2.606 0 3.909-7.362 6.515-10.71 3.474-4.464 5.211-6.07 8.685-8.82 6.08-4.81 9.12-10.08 15.2-10.08s9.12 18.9 15.2 20.79c2.606 1.89 3.91 1.89 6.515 1.89 4.343 0 6.514-10.71 10.857-10.71 4.343 0 6.515 8.19 10.858 8.19 2.605 0 3.908-.63 6.514-.63 2.606 0 3.909 1.26 6.514 1.26h6.515c2.605 0 3.908 1.89 6.514 3.78 2.606 1.89 3.909 3.402 6.514 5.67 2.606 2.268 3.909 5.67 6.515 5.67 2.605 0 3.908-.252 6.514-.63 2.606-.378 3.909-1.26 6.514-1.26 2.606 0 3.909.504 6.515 1.89 2.605 1.386 3.908 4.41 6.514 5.04 2.606.63 3.909.63 6.514.63h6.515c2.605 0 3.908-3.15 6.514-3.15 2.606 0 3.909.378 6.514 4.41 2.606 4.032 3.909 10.71 6.515 15.75 2.605 5.04 3.908 5.922 6.514 9.45 2.606 3.528 3.909 3.276 6.514 8.19 2.606 4.914 3.909 11.52 6.515 16.38 3.474 6.48 5.211 7.362 8.685 11.97 2.606 3.456 3.91 4.158 6.515 8.19 2.606 4.032 3.908 6.174 6.514 11.97 2.606 5.796 3.909 9.828 6.515 17.01 2.605 7.182 3.908 10.71 6.514 18.9 2.606 8.19 3.908 13.885 6.514 22.05 1.737 5.443 4.343 11.97 4.343 11.97" data-z-index="2" class="highcharts-tracker-line" stroke="rgba(192,192,192,0.0001)" stroke-width="22"/></g><g class="highcharts-markers highcharts-series-0 highcharts-spline-series highcharts-color-0 highcharts-tracker" data-z-index=".1" aria-hidden="false" tabindex="-1" aria-label="Winter 2019-2020, line 1 of 3 with 76 data points." style="outline:0" fill="#6CF"><path d="M4.5 254.5a2.5 2.5 0 1 1 .002 0Z" class="highcharts-point highcharts-color-0" tabindex="-1" aria-label="Saturday, Oct 24, 1970, 0. Winter 2019-2020." style="outline:0" transform="translate(54 56)"/><path d="M11.5 246.94a2.5 2.5 0 1 1 .002 0Z" class="highcharts-point highcharts-color-0" tabindex="-1" aria-label="Tuesday, Oct 27, 1970, 0.12. Winter 2019-2020." style="outline:0" transform="translate(54 56)"/><path d="M17.5 248.83a2.5 2.5 0 1 1 .002 0Z" class="highcharts-point highcharts-color-0" tabindex="-1" aria-label="Friday, Oct 30, 1970, 0.09. Winter 2019-2020." style="outline:0" transform="translate(54 56)"/><path d="M26.5 246.31a2.5 2.5 0 1 1 .002 0Z" class="highcharts-point highcharts-color-0" tabindex="-1" aria-label="Tuesday, Nov 3, 1970, 0.13. Winter 2019-2020." style="outline:0" transform="translate(54 56)"/><path d="M32.5 246.94a2.5 2.5 0 1 1 .002 0Z" class="highcharts-point highcharts-color-0" tabindex="-1" aria-label="Friday, Nov 6, 1970, 0.12. Winter 2019-2020." style="outline:0" transform="translate(54 56)"/><path d="M39.5 246.31a2.5 2.5 0 1 1 .002 0Z" class="highcharts-point highcharts-color-0" tabindex="-1" aria-label="Monday, Nov 9, 1970, 0.13. Winter 2019-2020." style="outline:0" transform="translate(54 56)"/><path d="M46.5 246.31a2.5 2.5 0 1 1 .002 0Z" class="highcharts-point highcharts-color-0" tabindex="-1" aria-label="Thursday, Nov 12, 1970, 0.13. Winter 2019-2020." style="outline:0" transform="translate(54 56)"/><path d="M52.5 244.42a2.5 2.5 0 1 1 .002 0Z" class="highcharts-point highcharts-color-0" tabindex="-1" aria-label="Sunday, Nov 15, 1970, 0.16. Winter 2019-2020." style="outline:0" transform="translate(54 56)"/><path d="M59.5 242.53a2.5 2.5 0 1 1 .002 0Z" class="highcharts-point highcharts-color-0" tabindex="-1" aria-label="Wednesday, Nov 18, 1970, 0.19. Winter 2019-2020." style="outline:0" transform="translate(54 56)"/><path d="M65.5 238.75a2.5 2.5 0 1 1 .002 0Z" class="highcharts-point highcharts-color-0" tabindex="-1" aria-label="Saturday, Nov 21, 1970, 0.25. Winter 2019-2020." style="outline:0" transform="translate(54 56)"/><path d="M72.5 238.12a2.5 2.5 0 1 1 .002 0Z" class="highcharts-point highcharts-color-0" tabindex="-1" aria-label="Tuesday, Nov 24, 1970, 0.26. Winter 2019-2020." style="outline:0" transform="translate(54 56)"/><path d="M78.5 239.38a2.5 2.5 0 1 1 .002 0Z" class="highcharts-point highcharts-color-0" tabindex="-1" aria-label="Friday, Nov 27, 1970, 0.24. Winter 2019-2020." style="outline:0" transform="translate(54 56)"/><path d="M85.5 238.75a2.5 2.5 0 1 1 .002 0Z" class="highcharts-point highcharts-color-0" tabindex="-1" aria-label="Monday, Nov 30, 1970, 0.25. Winter 2019-2020." style="outline:0" transform="translate(54 56)"/><path d="M91.5 238.12a2.5 2.5 0 1 1 .002 0Z" class="highcharts-point highcharts-color-0" tabindex="-1" aria-label="Thursday, Dec 3, 1970, 0.26. Winter 2019-2020." style="outline:0" transform="translate(54 56)"/><path d="M98.5 231.82a2.5 2.5 0 1 1 .002 0Z" class="highcharts-point highcharts-color-0" tabindex="-1" aria-label="Sunday, Dec 6, 1970, 0.36. Winter 2019-2020." style="outline:0" transform="translate(54 56)"/><path d="M104.5 227.41a2.5 2.5 0 1 1 .002 0Z" class="highcharts-point highcharts-color-0" tabindex="-1" aria-label="Wednesday, Dec 9, 1970, 0.43. Winter 2019-2020." style="outline:0" transform="translate(54 56)"/><path d="M111.5 234.34a2.5 2.5 0 1 1 .002 0Z" class="highcharts-point highcharts-color-0" tabindex="-1" aria-label="Saturday, Dec 12, 1970, 0.32. Winter 2019-2020." style="outline:0" transform="translate(54 56)"/><path d="M117.5 224.26a2.5 2.5 0 1 1 .002 0Z" class="highcharts-point highcharts-color-0" tabindex="-1" aria-label="Tuesday, Dec 15, 1970, 0.48. Winter 2019-2020." style="outline:0" transform="translate(54 56)"/><path d="M124.5 223a2.5 2.5 0 1 1 .002 0Z" class="highcharts-point highcharts-color-0" tabindex="-1" aria-label="Friday, Dec 18, 1970, 0.5. Winter 2019-2020." style="outline:0" transform="translate(54 56)"/><path d="M130.5 226.78a2.5 2.5 0 1 1 .002 0Z" class="highcharts-point highcharts-color-0" tabindex="-1" aria-label="Monday, Dec 21, 1970, 0.44. Winter 2019-2020." style="outline:0" transform="translate(54 56)"/><path d="M137.5 227.41a2.5 2.5 0 1 1 .002 0Z" class="highcharts-point highcharts-color-0" tabindex="-1" aria-label="Thursday, Dec 24, 1970, 0.43. Winter 2019-2020." style="outline:0" transform="translate(54 56)"/><path d="M143.5 226.15a2.5 2.5 0 1 1 .002 0Z" class="highcharts-point highcharts-color-0" tabindex="-1" aria-label="Sunday, Dec 27, 1970, 0.45. Winter 2019-2020." style="outline:0" transform="translate(54 56)"/><path d="M150.5 229.3a2.5 2.5 0 1 1 .002 0Z" class="highcharts-point highcharts-color-0" tabindex="-1" aria-label="Wednesday, Dec 30, 1970, 0.4. Winter 2019-2020." style="outline:0" transform="translate(54 56)"/><path d="M158.5 229.93a2.5 2.5 0 1 1 .002 0Z" class="highcharts-point highcharts-color-0" tabindex="-1" aria-label="Sunday, Jan 3, 1971, 0.39. Winter 2019-2020." style="outline:0" transform="translate(54 56)"/><path d="M165.5 219.22a2.5 2.5 0 1 1 .002 0Z" class="highcharts-point highcharts-color-0" tabindex="-1" aria-label="Wednesday, Jan 6, 1971, 0.56. Winter 2019-2020." style="outline:0" transform="translate(54 56)"/><path d="M171.5 218.59a2.5 2.5 0 1 1 .002 0Z" class="highcharts-point highcharts-color-0" tabindex="-1" aria-label="Saturday, Jan 9, 1971, 0.57. Winter 2019-2020." style="outline:0" transform="translate(54 56)"/><path d="M178.5 211.66a2.5 2.5 0 1 1 .002 0Z" class="highcharts-point highcharts-color-0" tabindex="-1" aria-label="Tuesday, Jan 12, 1971, 0.68. Winter 2019-2020." style="outline:0" transform="translate(54 56)"/><path d="M184.5 195.91a2.5 2.5 0 1 1 .002 0Z" class="highcharts-point highcharts-color-0" tabindex="-1" aria-label="Friday, Jan 15, 1971, 0.93. Winter 2019-2020." style="outline:0" transform="translate(54 56)"/><path d="M191.5 184.57a2.5 2.5 0 1 1 .002 0Z" class="highcharts-point highcharts-color-0" tabindex="-1" aria-label="Monday, Jan 18, 1971, 1.11. Winter 2019-2020." style="outline:0" transform="translate(54 56)"/><path d="M198.5 190.87a2.5 2.5 0 1 1 .002 0Z" class="highcharts-point highcharts-color-0" tabindex="-1" aria-label="Thursday, Jan 21, 1971, 1.01. Winter 2019-2020." style="outline:0" transform="translate(54 56)"/><path d="M204.5 192.13a2.5 2.5 0 1 1 .002 0Z" class="highcharts-point highcharts-color-0" tabindex="-1" aria-label="Sunday, Jan 24, 1971, 0.99. Winter 2019-2020." style="outline:0" transform="translate(54 56)"/><path d="M211.5 180.79a2.5 2.5 0 1 1 .002 0Z" class="highcharts-point highcharts-color-0" tabindex="-1" aria-label="Wednesday, Jan 27, 1971, 1.17. Winter 2019-2020." style="outline:0" transform="translate(54 56)"/><path d="M217.5 176.38a2.5 2.5 0 1 1 .002 0Z" class="highcharts-point highcharts-color-0" tabindex="-1" aria-label="Saturday, Jan 30, 1971, 1.24. Winter 2019-2020." style="outline:0" transform="translate(54 56)"/><path d="M226.5 165.67a2.5 2.5 0 1 1 .002 0Z" class="highcharts-point highcharts-color-0" tabindex="-1" aria-label="Wednesday, Feb 3, 1971, 1.41. Winter 2019-2020." style="outline:0" transform="translate(54 56)"/><path d="M232.5 161.89a2.5 2.5 0 1 1 .002 0Z" class="highcharts-point highcharts-color-0" tabindex="-1" aria-label="Saturday, Feb 6, 1971, 1.47. Winter 2019-2020." style="outline:0" transform="translate(54 56)"/><path d="M239.5 166.3a2.5 2.5 0 1 1 .002 0Z" class="highcharts-point highcharts-color-0" tabindex="-1" aria-label="Tuesday, Feb 9, 1971, 1.4. Winter 2019-2020." style="outline:0" transform="translate(54 56)"/><path d="M245.5 133.54a2.5 2.5 0 1 1 .002 0Z" class="highcharts-point highcharts-color-0" tabindex="-1" aria-label="Friday, Feb 12, 1971, 1.92. Winter 2019-2020." style="outline:0" transform="translate(54 56)"/><path d="M252.5 126.61a2.5 2.5 0 1 1 .002 0Z" class="highcharts-point highcharts-color-0" tabindex="-1" aria-label="Monday, Feb 15, 1971, 2.03. Winter 2019-2020." style="outline:0" transform="translate(54 56)"/><path d="M258.5 99.52a2.5 2.5 0 1 1 .002 0Z" class="highcharts-point highcharts-color-0" tabindex="-1" aria-label="Thursday, Feb 18, 1971, 2.46. Winter 2019-2020." style="outline:0" transform="translate(54 56)"/><path d="M265.5 95.11a2.5 2.5 0 1 1 .002 0Z" class="highcharts-point highcharts-color-0" tabindex="-1" aria-label="Sunday, Feb 21, 1971, 2.53. Winter 2019-2020." style="outline:0" transform="translate(54 56)"/><path d="M271.5 82.51a2.5 2.5 0 1 1 .002 0Z" class="highcharts-point highcharts-color-0" tabindex="-1" aria-label="Wednesday, Feb 24, 1971, 2.73. Winter 2019-2020." style="outline:0" transform="translate(54 56)"/><path d="M278.5 86.29a2.5 2.5 0 1 1 .002 0Z" class="highcharts-point highcharts-color-0" tabindex="-1" aria-label="Saturday, Feb 27, 1971, 2.67. Winter 2019-2020." style="outline:0" transform="translate(54 56)"/><path d="M287.5 87.55a2.5 2.5 0 1 1 .002 0Z" class="highcharts-point highcharts-color-0" tabindex="-1" aria-label="Wednesday, Mar 3, 1971, 2.65. Winter 2019-2020." style="outline:0" transform="translate(54 56)"/><path d="M293.5 89.44a2.5 2.5 0 1 1 .002 0Z" class="highcharts-point highcharts-color-0" tabindex="-1" aria-label="Saturday, Mar 6, 1971, 2.62. Winter 2019-2020." style="outline:0" transform="translate(54 56)"/><path d="M300.5 78.73a2.5 2.5 0 1 1 .002 0Z" class="highcharts-point highcharts-color-0" tabindex="-1" aria-label="Tuesday, Mar 9, 1971, 2.79. Winter 2019-2020." style="outline:0" transform="translate(54 56)"/><path d="M308.5 69.91a2.5 2.5 0 1 1 .002 0Z" class="highcharts-point highcharts-color-0" tabindex="-1" aria-label="Saturday, Mar 13, 1971, 2.93. Winter 2019-2020." style="outline:0" transform="translate(54 56)"/><path d="M323.5 59.83a2.5 2.5 0 1 1 .002 0Z" class="highcharts-point highcharts-color-0" tabindex="-1" aria-label="Saturday, Mar 20, 1971, 3.09. Winter 2019-2020." style="outline:0" transform="translate(54 56)"/><path d="M339.5 80.62a2.5 2.5 0 1 1 .002 0Z" class="highcharts-point highcharts-color-0" tabindex="-1" aria-label="Saturday, Mar 27, 1971, 2.76. Winter 2019-2020." style="outline:0" transform="translate(54 56)"/><path d="M345.5 82.51a2.5 2.5 0 1 1 .002 0Z" class="highcharts-point highcharts-color-0" tabindex="-1" aria-label="Tuesday, Mar 30, 1971, 2.73. Winter 2019-2020." style="outline:0" transform="translate(54 56)"/><path d="M356.5 71.8a2.5 2.5 0 1 1 .002 0Z" class="highcharts-point highcharts-color-0" tabindex="-1" aria-label="Sunday, Apr 4, 1971, 2.9. Winter 2019-2020." style="outline:0" transform="translate(54 56)"/><path d="M367.5 79.99a2.5 2.5 0 1 1 .002 0Z" class="highcharts-point highcharts-color-0" tabindex="-1" aria-label="Friday, Apr 9, 1971, 2.77. Winter 2019-2020." style="outline:0" transform="translate(54 56)"/><path d="M373.5 79.36a2.5 2.5 0 1 1 .002 0Z" class="highcharts-point highcharts-color-0" tabindex="-1" aria-label="Monday, Apr 12, 1971, 2.78. Winter 2019-2020." style="outline:0" transform="translate(54 56)"/><path d="M380.5 80.62a2.5 2.5 0 1 1 .002 0Z" class="highcharts-point highcharts-color-0" tabindex="-1" aria-label="Thursday, Apr 15, 1971, 2.76. Winter 2019-2020." style="outline:0" transform="translate(54 56)"/><path d="M386.5 80.62a2.5 2.5 0 1 1 .002 0Z" class="highcharts-point highcharts-color-0" tabindex="-1" aria-label="Sunday, Apr 18, 1971, 2.76. Winter 2019-2020." style="outline:0" transform="translate(54 56)"/><path d="M393.5 84.4a2.5 2.5 0 1 1 .002 0Z" class="highcharts-point highcharts-color-0" tabindex="-1" aria-label="Wednesday, Apr 21, 1971, 2.7. Winter 2019-2020." style="outline:0" transform="translate(54 56)"/><path d="M399.5 90.07a2.5 2.5 0 1 1 .002 0Z" class="highcharts-point highcharts-color-0" tabindex="-1" aria-label="Saturday, Apr 24, 1971, 2.61. Winter 2019-2020." style="outline:0" transform="translate(54 56)"/><path d="M406.5 95.74a2.5 2.5 0 1 1 .002 0Z" class="highcharts-point highcharts-color-0" tabindex="-1" aria-label="Tuesday, Apr 27, 1971, 2.52. Winter 2019-2020." style="outline:0" transform="translate(54 56)"/><path d="M412.5 95.11a2.5 2.5 0 1 1 .002 0Z" class="highcharts-point highcharts-color-0" tabindex="-1" aria-label="Friday, Apr 30, 1971, 2.53. Winter 2019-2020." style="outline:0" transform="translate(54 56)"/><path d="M419.5 93.85a2.5 2.5 0 1 1 .002 0Z" class="highcharts-point highcharts-color-0" tabindex="-1" aria-label="Monday, May 3, 1971, 2.55. Winter 2019-2020." style="outline:0" transform="translate(54 56)"/><path d="M426.5 95.74a2.5 2.5 0 1 1 .002 0Z" class="highcharts-point highcharts-color-0" tabindex="-1" aria-label="Thursday, May 6, 1971, 2.52. Winter 2019-2020." style="outline:0" transform="translate(54 56)"/><path d="M432.5 100.78a2.5 2.5 0 1 1 .002 0Z" class="highcharts-point highcharts-color-0" tabindex="-1" aria-label="Sunday, May 9, 1971, 2.44. Winter 2019-2020." style="outline:0" transform="translate(54 56)"/><path d="M439.5 101.41a2.5 2.5 0 1 1 .002 0Z" class="highcharts-point highcharts-color-0" tabindex="-1" aria-label="Wednesday, May 12, 1971, 2.43. Winter 2019-2020." style="outline:0" transform="translate(54 56)"/><path d="M445.5 101.41a2.5 2.5 0 1 1 .002 0Z" class="highcharts-point highcharts-color-0" tabindex="-1" aria-label="Saturday, May 15, 1971, 2.43. Winter 2019-2020." style="outline:0" transform="translate(54 56)"/><path d="M452.5 98.26a2.5 2.5 0 1 1 .002 0Z" class="highcharts-point highcharts-color-0" tabindex="-1" aria-label="Tuesday, May 18, 1971, 2.48. Winter 2019-2020." style="outline:0" transform="translate(54 56)"/><path d="M458.5 102.67a2.5 2.5 0 1 1 .002 0Z" class="highcharts-point highcharts-color-0" tabindex="-1" aria-label="Friday, May 21, 1971, 2.41. Winter 2019-2020." style="outline:0" transform="translate(54 56)"/><path d="M465.5 118.42a2.5 2.5 0 1 1 .002 0Z" class="highcharts-point highcharts-color-0" tabindex="-1" aria-label="Monday, May 24, 1971, 2.16. Winter 2019-2020." style="outline:0" transform="translate(54 56)"/><path d="M471.5 127.87a2.5 2.5 0 1 1 .002 0Z" class="highcharts-point highcharts-color-0" tabindex="-1" aria-label="Thursday, May 27, 1971, 2.01. Winter 2019-2020." style="outline:0" transform="translate(54 56)"/><path d="M478.5 136.06a2.5 2.5 0 1 1 .002 0Z" class="highcharts-point highcharts-color-0" tabindex="-1" aria-label="Sunday, May 30, 1971, 1.88. Winter 2019-2020." style="outline:0" transform="translate(54 56)"/><path d="M484.5 152.44a2.5 2.5 0 1 1 .002 0Z" class="highcharts-point highcharts-color-0" tabindex="-1" aria-label="Wednesday, Jun 2, 1971, 1.62. Winter 2019-2020." style="outline:0" transform="translate(54 56)"/><path d="M493.5 164.41a2.5 2.5 0 1 1 .002 0Z" class="highcharts-point highcharts-color-0" tabindex="-1" aria-label="Sunday, Jun 6, 1971, 1.43. Winter 2019-2020." style="outline:0" transform="translate(54 56)"/><path d="M499.5 172.6a2.5 2.5 0 1 1 .002 0Z" class="highcharts-point highcharts-color-0" tabindex="-1" aria-label="Wednesday, Jun 9, 1971, 1.3. Winter 2019-2020." style="outline:0" transform="translate(54 56)"/><path d="M506.5 184.57a2.5 2.5 0 1 1 .002 0Z" class="highcharts-point highcharts-color-0" tabindex="-1" aria-label="Saturday, Jun 12, 1971, 1.11. Winter 2019-2020." style="outline:0" transform="translate(54 56)"/><path d="M512.5 201.58a2.5 2.5 0 1 1 .002 0Z" class="highcharts-point highcharts-color-0" tabindex="-1" aria-label="Tuesday, Jun 15, 1971, 0.84. Winter 2019-2020." style="outline:0" transform="translate(54 56)"/><path d="M519.5 220.48a2.5 2.5 0 1 1 .002 0Z" class="highcharts-point highcharts-color-0" tabindex="-1" aria-label="Friday, Jun 18, 1971, 0.54. Winter 2019-2020." style="outline:0" transform="translate(54 56)"/><path d="M525.5 242.53a2.5 2.5 0 1 1 .002 0Z" class="highcharts-point highcharts-color-0" tabindex="-1" aria-label="Monday, Jun 21, 1971, 0.19. Winter 2019-2020." style="outline:0" transform="translate(54 56)"/><path d="M530.5 254.5a2.5 2.5 0 1 1 .002 0Z" class="highcharts-point highcharts-color-0" tabindex="-1" aria-label="Wednesday, Jun 23, 1971, 0. Winter 2019-2020." style="outline:0" transform="translate(54 56)"/></g><g class="highcharts-series highcharts-series-1 highcharts-spline-series highcharts-color-1" data-z-index=".1" clip-path="url(#a)" aria-hidden="true" fill="none" stroke-linejoin="round" stroke-linecap="round" transform="translate(54 56)"><path d="M51.855 253s28.663-22.05 47.772-22.05h15.2c6.08 0 9.12 1.26 15.2 1.26 8.686 0 13.03-9.555 21.715-12.6 12.16-4.263 18.24-5.67 30.4-5.67 6.08 0 9.12 1.26 15.2 1.26 11.292 0 16.938-5.67 28.23-5.67 13.896 0 20.845.411 34.742 1.26 2.606.16 3.909 1.26 6.515 1.26 2.605 0 3.908-.63 6.514-.63h6.514c3.475 0 5.212 2.52 8.686 3.15 2.606.63 3.909.63 6.514.63 2.606 0 3.909-5.67 6.515-5.67 2.605 0 3.908 1.89 6.514 1.89 2.606 0 3.909-5.04 6.514-5.67 2.606-.63 3.909-.63 6.515-.63 2.605 0 3.908 0 6.514.63 2.606.63 3.909 3.78 6.514 3.78 2.606 0 3.909-6.048 6.515-8.19 2.605-2.142 3.908-2.52 6.514-2.52 3.474 0 5.212 3.15 8.686 3.15 2.606 0 3.908-7.686 6.514-11.97 2.606-4.284 3.909-2.835 6.515-9.45.868-2.205 1.302-12.6 2.171-12.6 1.737 0 2.606 3.956 4.343 5.67 2.606 2.57 3.909 3.528 6.514 5.04 2.606 1.512 3.909.756 6.515 2.52 2.605 1.764 3.908 6.3 6.514 6.3 2.606 0 3.909-1.26 6.514-1.26 2.606 0 3.909.252 6.515.63 2.605.378 3.908.756 6.514 1.26 2.606.504 3.909.63 6.514 1.26 2.606.63 3.909 1.008 6.515 1.89 2.605.882 3.908.252 6.514 2.52 2.606 2.268 3.909 4.662 6.514 8.82 2.606 4.158 3.909 7.308 6.515 11.97 2.605 4.662 3.908 7.308 6.514 11.34 2.606 4.032 3.909 4.662 6.514 8.82 2.606 4.158 3.909 7.585 6.515 11.97 1.737 2.923 4.343 6.3 4.343 6.3" class="highcharts-graph highcharts-shadow" data-z-index="1" stroke="#000" stroke-width="5" stroke-opacity=".05"/><path d="M51.855 253s28.663-22.05 47.772-22.05h15.2c6.08 0 9.12 1.26 15.2 1.26 8.686 0 13.03-9.555 21.715-12.6 12.16-4.263 18.24-5.67 30.4-5.67 6.08 0 9.12 1.26 15.2 1.26 11.292 0 16.938-5.67 28.23-5.67 13.896 0 20.845.411 34.742 1.26 2.606.16 3.909 1.26 6.515 1.26 2.605 0 3.908-.63 6.514-.63h6.514c3.475 0 5.212 2.52 8.686 3.15 2.606.63 3.909.63 6.514.63 2.606 0 3.909-5.67 6.515-5.67 2.605 0 3.908 1.89 6.514 1.89 2.606 0 3.909-5.04 6.514-5.67 2.606-.63 3.909-.63 6.515-.63 2.605 0 3.908 0 6.514.63 2.606.63 3.909 3.78 6.514 3.78 2.606 0 3.909-6.048 6.515-8.19 2.605-2.142 3.908-2.52 6.514-2.52 3.474 0 5.212 3.15 8.686 3.15 2.606 0 3.908-7.686 6.514-11.97 2.606-4.284 3.909-2.835 6.515-9.45.868-2.205 1.302-12.6 2.171-12.6 1.737 0 2.606 3.956 4.343 5.67 2.606 2.57 3.909 3.528 6.514 5.04 2.606 1.512 3.909.756 6.515 2.52 2.605 1.764 3.908 6.3 6.514 6.3 2.606 0 3.909-1.26 6.514-1.26 2.606 0 3.909.252 6.515.63 2.605.378 3.908.756 6.514 1.26 2.606.504 3.909.63 6.514 1.26 2.606.63 3.909 1.008 6.515 1.89 2.605.882 3.908.252 6.514 2.52 2.606 2.268 3.909 4.662 6.514 8.82 2.606 4.158 3.909 7.308 6.515 11.97 2.605 4.662 3.908 7.308 6.514 11.34 2.606 4.032 3.909 4.662 6.514 8.82 2.606 4.158 3.909 7.585 6.515 11.97 1.737 2.923 4.343 6.3 4.343 6.3" class="highcharts-graph highcharts-shadow" data-z-index="1" stroke="#000" stroke-width="3" stroke-opacity=".1"/><path d="M51.855 253s28.663-22.05 47.772-22.05h15.2c6.08 0 9.12 1.26 15.2 1.26 8.686 0 13.03-9.555 21.715-12.6 12.16-4.263 18.24-5.67 30.4-5.67 6.08 0 9.12 1.26 15.2 1.26 11.292 0 16.938-5.67 28.23-5.67 13.896 0 20.845.411 34.742 1.26 2.606.16 3.909 1.26 6.515 1.26 2.605 0 3.908-.63 6.514-.63h6.514c3.475 0 5.212 2.52 8.686 3.15 2.606.63 3.909.63 6.514.63 2.606 0 3.909-5.67 6.515-5.67 2.605 0 3.908 1.89 6.514 1.89 2.606 0 3.909-5.04 6.514-5.67 2.606-.63 3.909-.63 6.515-.63 2.605 0 3.908 0 6.514.63 2.606.63 3.909 3.78 6.514 3.78 2.606 0 3.909-6.048 6.515-8.19 2.605-2.142 3.908-2.52 6.514-2.52 3.474 0 5.212 3.15 8.686 3.15 2.606 0 3.908-7.686 6.514-11.97 2.606-4.284 3.909-2.835 6.515-9.45.868-2.205 1.302-12.6 2.171-12.6 1.737 0 2.606 3.956 4.343 5.67 2.606 2.57 3.909 3.528 6.514 5.04 2.606 1.512 3.909.756 6.515 2.52 2.605 1.764 3.908 6.3 6.514 6.3 2.606 0 3.909-1.26 6.514-1.26 2.606 0 3.909.252 6.515.63 2.605.378 3.908.756 6.514 1.26 2.606.504 3.909.63 6.514 1.26 2.606.63 3.909 1.008 6.515 1.89 2.605.882 3.908.252 6.514 2.52 2.606 2.268 3.909 4.662 6.514 8.82 2.606 4.158 3.909 7.308 6.515 11.97 2.605 4.662 3.908 7.308 6.514 11.34 2.606 4.032 3.909 4.662 6.514 8.82 2.606 4.158 3.909 7.585 6.515 11.97 1.737 2.923 4.343 6.3 4.343 6.3" class="highcharts-graph highcharts-shadow" data-z-index="1" stroke="#000" stroke-opacity=".15"/><path d="M50.855 252s28.663-22.05 47.772-22.05h15.2c6.08 0 9.12 1.26 15.2 1.26 8.686 0 13.03-9.555 21.715-12.6 12.16-4.263 18.24-5.67 30.4-5.67 6.08 0 9.12 1.26 15.2 1.26 11.292 0 16.938-5.67 28.23-5.67 13.896 0 20.845.411 34.742 1.26 2.606.16 3.909 1.26 6.515 1.26 2.605 0 3.908-.63 6.514-.63h6.514c3.475 0 5.212 2.52 8.686 3.15 2.606.63 3.909.63 6.514.63 2.606 0 3.909-5.67 6.515-5.67 2.605 0 3.908 1.89 6.514 1.89 2.606 0 3.909-5.04 6.514-5.67 2.606-.63 3.909-.63 6.515-.63 2.605 0 3.908 0 6.514.63 2.606.63 3.909 3.78 6.514 3.78 2.606 0 3.909-6.048 6.515-8.19 2.605-2.142 3.908-2.52 6.514-2.52 3.474 0 5.212 3.15 8.686 3.15 2.606 0 3.908-7.686 6.514-11.97 2.606-4.284 3.909-2.835 6.515-9.45.868-2.205 1.302-12.6 2.171-12.6 1.737 0 2.606 3.956 4.343 5.67 2.606 2.57 3.909 3.528 6.514 5.04 2.606 1.512 3.909.756 6.515 2.52 2.605 1.764 3.908 6.3 6.514 6.3 2.606 0 3.909-1.26 6.514-1.26 2.606 0 3.909.252 6.515.63 2.605.378 3.908.756 6.514 1.26 2.606.504 3.909.63 6.514 1.26 2.606.63 3.909 1.008 6.515 1.89 2.605.882 3.908.252 6.514 2.52 2.606 2.268 3.909 4.662 6.514 8.82 2.606 4.158 3.909 7.308 6.515 11.97 2.605 4.662 3.908 7.308 6.514 11.34 2.606 4.032 3.909 4.662 6.514 8.82 2.606 4.158 3.909 7.585 6.515 11.97 1.737 2.923 4.343 6.3 4.343 6.3" class="highcharts-graph" data-z-index="1" stroke="#39F" stroke-width="2"/><path d="M50.855 252s28.663-22.05 47.772-22.05h15.2c6.08 0 9.12 1.26 15.2 1.26 8.686 0 13.03-9.555 21.715-12.6 12.16-4.263 18.24-5.67 30.4-5.67 6.08 0 9.12 1.26 15.2 1.26 11.292 0 16.938-5.67 28.23-5.67 13.896 0 20.845.411 34.742 1.26 2.606.16 3.909 1.26 6.515 1.26 2.605 0 3.908-.63 6.514-.63h6.514c3.475 0 5.212 2.52 8.686 3.15 2.606.63 3.909.63 6.514.63 2.606 0 3.909-5.67 6.515-5.67 2.605 0 3.908 1.89 6.514 1.89 2.606 0 3.909-5.04 6.514-5.67 2.606-.63 3.909-.63 6.515-.63 2.605 0 3.908 0 6.514.63 2.606.63 3.909 3.78 6.514 3.78 2.606 0 3.909-6.048 6.515-8.19 2.605-2.142 3.908-2.52 6.514-2.52 3.474 0 5.212 3.15 8.686 3.15 2.606 0 3.908-7.686 6.514-11.97 2.606-4.284 3.909-2.835 6.515-9.45.868-2.205 1.302-12.6 2.171-12.6 1.737 0 2.606 3.956 4.343 5.67 2.606 2.57 3.909 3.528 6.514 5.04 2.606 1.512 3.909.756 6.515 2.52 2.605 1.764 3.908 6.3 6.514 6.3 2.606 0 3.909-1.26 6.514-1.26 2.606 0 3.909.252 6.515.63 2.605.378 3.908.756 6.514 1.26 2.606.504 3.909.63 6.514 1.26 2.606.63 3.909 1.008 6.515 1.89 2.605.882 3.908.252 6.514 2.52 2.606 2.268 3.909 4.662 6.514 8.82 2.606 4.158 3.909 7.308 6.515 11.97 2.605 4.662 3.908 7.308 6.514 11.34 2.606 4.032 3.909 4.662 6.514 8.82 2.606 4.158 3.909 7.585 6.515 11.97 1.737 2.923 4.343 6.3 4.343 6.3" data-z-index="2" class="highcharts-tracker-line" stroke="rgba(192,192,192,0.0001)" stroke-width="22"/></g><g class="highcharts-markers highcharts-series-1 highcharts-spline-series highcharts-color-1 highcharts-tracker" data-z-index=".1" aria-hidden="false" tabindex="-1" aria-label="Winter 2020-2021, line 2 of 3 with 42 data points." style="outline:0" fill="#39F"><path d="M50.5 249.5 53 252l-2.5 2.5L48 252Z" class="highcharts-point highcharts-color-1" tabindex="-1" aria-label="Saturday, Nov 14, 1970, 0. Winter 2020-2021." style="outline:0" transform="translate(54 56)"/><path d="m98.5 227.45 2.5 2.5-2.5 2.5-2.5-2.5Z" class="highcharts-point highcharts-color-1" tabindex="-1" aria-label="Sunday, Dec 6, 1970, 0.35. Winter 2020-2021." style="outline:0" transform="translate(54 56)"/><path d="m113.5 227.45 2.5 2.5-2.5 2.5-2.5-2.5Z" class="highcharts-point highcharts-color-1" tabindex="-1" aria-label="Sunday, Dec 13, 1970, 0.35. Winter 2020-2021." style="outline:0" transform="translate(54 56)"/><path d="m128.5 228.71 2.5 2.5-2.5 2.5-2.5-2.5Z" class="highcharts-point highcharts-color-1" tabindex="-1" aria-label="Sunday, Dec 20, 1970, 0.33. Winter 2020-2021." style="outline:0" transform="translate(54 56)"/><path d="m150.5 216.11 2.5 2.5-2.5 2.5-2.5-2.5Z" class="highcharts-point highcharts-color-1" tabindex="-1" aria-label="Wednesday, Dec 30, 1970, 0.53. Winter 2020-2021." style="outline:0" transform="translate(54 56)"/><path d="m180.5 210.44 2.5 2.5-2.5 2.5-2.5-2.5Z" class="highcharts-point highcharts-color-1" tabindex="-1" aria-label="Wednesday, Jan 13, 1971, 0.62. Winter 2020-2021." style="outline:0" transform="translate(54 56)"/><path d="m195.5 211.7 2.5 2.5-2.5 2.5-2.5-2.5Z" class="highcharts-point highcharts-color-1" tabindex="-1" aria-label="Wednesday, Jan 20, 1971, 0.6. Winter 2020-2021." style="outline:0" transform="translate(54 56)"/><path d="m224.5 206.03 2.5 2.5-2.5 2.5-2.5-2.5Z" class="highcharts-point highcharts-color-1" tabindex="-1" aria-label="Tuesday, Feb 2, 1971, 0.69. Winter 2020-2021." style="outline:0" transform="translate(54 56)"/><path d="m258.5 207.29 2.5 2.5-2.5 2.5-2.5-2.5Z" class="highcharts-point highcharts-color-1" tabindex="-1" aria-label="Thursday, Feb 18, 1971, 0.67. Winter 2020-2021." style="outline:0" transform="translate(54 56)"/><path d="m265.5 208.55 2.5 2.5-2.5 2.5-2.5-2.5Z" class="highcharts-point highcharts-color-1" tabindex="-1" aria-label="Sunday, Feb 21, 1971, 0.65. Winter 2020-2021." style="outline:0" transform="translate(54 56)"/><path d="m271.5 207.92 2.5 2.5-2.5 2.5-2.5-2.5Z" class="highcharts-point highcharts-color-1" tabindex="-1" aria-label="Wednesday, Feb 24, 1971, 0.66. Winter 2020-2021." style="outline:0" transform="translate(54 56)"/><path d="m278.5 207.92 2.5 2.5-2.5 2.5-2.5-2.5Z" class="highcharts-point highcharts-color-1" tabindex="-1" aria-label="Saturday, Feb 27, 1971, 0.66. Winter 2020-2021." style="outline:0" transform="translate(54 56)"/><path d="m287.5 211.07 2.5 2.5-2.5 2.5-2.5-2.5Z" class="highcharts-point highcharts-color-1" tabindex="-1" aria-label="Wednesday, Mar 3, 1971, 0.61. Winter 2020-2021." style="outline:0" transform="translate(54 56)"/><path d="m293.5 211.7 2.5 2.5-2.5 2.5-2.5-2.5Z" class="highcharts-point highcharts-color-1" tabindex="-1" aria-label="Saturday, Mar 6, 1971, 0.6. Winter 2020-2021." style="outline:0" transform="translate(54 56)"/><path d="m300.5 206.03 2.5 2.5-2.5 2.5-2.5-2.5Z" class="highcharts-point highcharts-color-1" tabindex="-1" aria-label="Tuesday, Mar 9, 1971, 0.69. Winter 2020-2021." style="outline:0" transform="translate(54 56)"/><path d="m306.5 207.92 2.5 2.5-2.5 2.5-2.5-2.5Z" class="highcharts-point highcharts-color-1" tabindex="-1" aria-label="Friday, Mar 12, 1971, 0.66. Winter 2020-2021." style="outline:0" transform="translate(54 56)"/><path d="m313.5 202.25 2.5 2.5-2.5 2.5-2.5-2.5Z" class="highcharts-point highcharts-color-1" tabindex="-1" aria-label="Monday, Mar 15, 1971, 0.75. Winter 2020-2021." style="outline:0" transform="translate(54 56)"/><path d="m319.5 201.62 2.5 2.5-2.5 2.5-2.5-2.5Z" class="highcharts-point highcharts-color-1" tabindex="-1" aria-label="Thursday, Mar 18, 1971, 0.76. Winter 2020-2021." style="outline:0" transform="translate(54 56)"/><path d="m326.5 202.25 2.5 2.5-2.5 2.5-2.5-2.5Z" class="highcharts-point highcharts-color-1" tabindex="-1" aria-label="Sunday, Mar 21, 1971, 0.75. Winter 2020-2021." style="outline:0" transform="translate(54 56)"/><path d="m332.5 206.03 2.5 2.5-2.5 2.5-2.5-2.5Z" class="highcharts-point highcharts-color-1" tabindex="-1" aria-label="Wednesday, Mar 24, 1971, 0.69. Winter 2020-2021." style="outline:0" transform="translate(54 56)"/><path d="m339.5 197.84 2.5 2.5-2.5 2.5-2.5-2.5Z" class="highcharts-point highcharts-color-1" tabindex="-1" aria-label="Saturday, Mar 27, 1971, 0.82. Winter 2020-2021." style="outline:0" transform="translate(54 56)"/><path d="m345.5 195.32 2.5 2.5-2.5 2.5-2.5-2.5Z" class="highcharts-point highcharts-color-1" tabindex="-1" aria-label="Tuesday, Mar 30, 1971, 0.86. Winter 2020-2021." style="outline:0" transform="translate(54 56)"/><path d="m354.5 198.47 2.5 2.5-2.5 2.5-2.5-2.5Z" class="highcharts-point highcharts-color-1" tabindex="-1" aria-label="Saturday, Apr 3, 1971, 0.81. Winter 2020-2021." style="outline:0" transform="translate(54 56)"/><path d="m360.5 186.5 2.5 2.5-2.5 2.5-2.5-2.5Z" class="highcharts-point highcharts-color-1" tabindex="-1" aria-label="Tuesday, Apr 6, 1971, 1. Winter 2020-2021." style="outline:0" transform="translate(54 56)"/><path d="m367.5 177.05 2.5 2.5-2.5 2.5-2.5-2.5Z" class="highcharts-point highcharts-color-1" tabindex="-1" aria-label="Friday, Apr 9, 1971, 1.15. Winter 2020-2021." style="outline:0" transform="translate(54 56)"/><path d="m369.5 164.45 2.5 2.5-2.5 2.5-2.5-2.5Z" class="highcharts-point highcharts-color-1" tabindex="-1" aria-label="Saturday, Apr 10, 1971, 1.35. Winter 2020-2021." style="outline:0" transform="translate(54 56)"/><path d="m373.5 170.12 2.5 2.5-2.5 2.5-2.5-2.5Z" class="highcharts-point highcharts-color-1" tabindex="-1" aria-label="Monday, Apr 12, 1971, 1.26. Winter 2020-2021." style="outline:0" transform="translate(54 56)"/><path d="m380.5 175.16 2.5 2.5-2.5 2.5-2.5-2.5Z" class="highcharts-point highcharts-color-1" tabindex="-1" aria-label="Thursday, Apr 15, 1971, 1.18. Winter 2020-2021." style="outline:0" transform="translate(54 56)"/><path d="m386.5 177.68 2.5 2.5-2.5 2.5-2.5-2.5Z" class="highcharts-point highcharts-color-1" tabindex="-1" aria-label="Sunday, Apr 18, 1971, 1.14. Winter 2020-2021." style="outline:0" transform="translate(54 56)"/><path d="m393.5 183.98 2.5 2.5-2.5 2.5-2.5-2.5Z" class="highcharts-point highcharts-color-1" tabindex="-1" aria-label="Wednesday, Apr 21, 1971, 1.04. Winter 2020-2021." style="outline:0" transform="translate(54 56)"/><path d="m399.5 182.72 2.5 2.5-2.5 2.5-2.5-2.5Z" class="highcharts-point highcharts-color-1" tabindex="-1" aria-label="Saturday, Apr 24, 1971, 1.06. Winter 2020-2021." style="outline:0" transform="translate(54 56)"/><path d="m406.5 183.35 2.5 2.5-2.5 2.5-2.5-2.5Z" class="highcharts-point highcharts-color-1" tabindex="-1" aria-label="Tuesday, Apr 27, 1971, 1.05. Winter 2020-2021." style="outline:0" transform="translate(54 56)"/><path d="m412.5 184.61 2.5 2.5-2.5 2.5-2.5-2.5Z" class="highcharts-point highcharts-color-1" tabindex="-1" aria-label="Friday, Apr 30, 1971, 1.03. Winter 2020-2021." style="outline:0" transform="translate(54 56)"/><path d="m419.5 185.87 2.5 2.5-2.5 2.5-2.5-2.5Z" class="highcharts-point highcharts-color-1" tabindex="-1" aria-label="Monday, May 3, 1971, 1.01. Winter 2020-2021." style="outline:0" transform="translate(54 56)"/><path d="m426.5 187.76 2.5 2.5-2.5 2.5-2.5-2.5Z" class="highcharts-point highcharts-color-1" tabindex="-1" aria-label="Thursday, May 6, 1971, 0.98. Winter 2020-2021." style="outline:0" transform="translate(54 56)"/><path d="m432.5 190.28 2.5 2.5-2.5 2.5-2.5-2.5Z" class="highcharts-point highcharts-color-1" tabindex="-1" aria-label="Sunday, May 9, 1971, 0.94. Winter 2020-2021." style="outline:0" transform="translate(54 56)"/><path d="m439.5 199.1 2.5 2.5-2.5 2.5-2.5-2.5Z" class="highcharts-point highcharts-color-1" tabindex="-1" aria-label="Wednesday, May 12, 1971, 0.8. Winter 2020-2021." style="outline:0" transform="translate(54 56)"/><path d="m445.5 211.07 2.5 2.5-2.5 2.5-2.5-2.5Z" class="highcharts-point highcharts-color-1" tabindex="-1" aria-label="Saturday, May 15, 1971, 0.61. Winter 2020-2021." style="outline:0" transform="translate(54 56)"/><path d="m452.5 222.41 2.5 2.5-2.5 2.5-2.5-2.5Z" class="highcharts-point highcharts-color-1" tabindex="-1" aria-label="Tuesday, May 18, 1971, 0.43. Winter 2020-2021." style="outline:0" transform="translate(54 56)"/><path d="m458.5 231.23 2.5 2.5-2.5 2.5-2.5-2.5Z" class="highcharts-point highcharts-color-1" tabindex="-1" aria-label="Friday, May 21, 1971, 0.29. Winter 2020-2021." style="outline:0" transform="translate(54 56)"/><path d="m465.5 243.2 2.5 2.5-2.5 2.5-2.5-2.5Z" class="highcharts-point highcharts-color-1" tabindex="-1" aria-label="Monday, May 24, 1971, 0.1. Winter 2020-2021." style="outline:0" transform="translate(54 56)"/><path d="m469.5 249.5 2.5 2.5-2.5 2.5-2.5-2.5Z" class="highcharts-point highcharts-color-1" tabindex="-1" aria-label="Wednesday, May 26, 1971, 0. Winter 2020-2021." style="outline:0" transform="translate(54 56)"/></g><g class="highcharts-series highcharts-series-2 highcharts-spline-series highcharts-color-2" data-z-index=".1" clip-path="url(#a)" aria-hidden="true" fill="none" stroke-linejoin="round" stroke-linecap="round" transform="translate(54 56)"><path d="M32.312 253s9.12-4.646 15.2-6.3c7.818-2.126 11.726-1.109 19.543-3.15.869-.227 1.303-2.52 2.172-2.52 4.343 0 6.514 1.26 10.857 1.26 2.606 0 3.909-6.3 6.514-6.3 1.738 0 2.606 1.26 4.343 1.26s2.606-1.26 4.343-1.26c.869 0 1.303.378 2.172.63.868.252 1.303.63 2.171.63.869 0 1.303-.63 2.172-.63h2.171c.869 0 1.303.63 2.171.63h4.343c.869 0 1.303-.63 2.172-.63 8.686 0 13.028 2.52 21.714 2.52h4.343c.869 0 1.303-1.26 2.172-1.26h8.685c.869 0 1.303.504 2.172 1.26.868.756 1.303 1.89 2.171 2.52.869.63 1.303.63 2.172.63.868 0 1.303-2.74 2.171-3.78 6.08-7.276 9.12-17.01 15.2-17.01h2.172c.868 0 1.303-1.89 2.171-1.89.869 0 1.303 1.512 2.172 3.15.868 1.638 1.303 4.435 2.171 5.04 3.474 2.42 5.212 2.52 8.686 2.52 4.343 0 6.514-20.79 10.857-20.79.869 0 1.303 4.41 2.172 4.41 5.211 0 7.817-1.31 13.028-6.3 3.475-3.326 5.212-6.006 8.686-14.49 6.949-16.968 10.423-47.25 17.372-49.14 4.343-1.89 6.514 0 10.857-1.89 9.554-1.89 14.331-23.94 23.886-26.46 3.474-2.52 5.211-2.52 8.686-2.52 3.474 0 5.211 3.822 8.685 5.67 1.738.924 2.606 1.26 4.343 1.26.869 0 1.303-.63 2.172-.63.868 0 1.303.252 2.171.63.869.378 1.303.882 2.172 1.26.868.378 1.302.63 2.171.63h2.171c.87 0 1.303.63 2.172.63.869 0 1.303-.21 2.171-.63 1.738-.84 2.606-.672 4.343-2.52.869-.924 1.303-4.41 2.172-4.41 2.605 0 3.908 4.41 6.514 5.04 2.606.63 3.909 0 6.514.63 2.606.63 3.909 13.23 6.515 13.23 2.605 0 3.908-1.89 6.514-1.89 3.474 0 5.212 1.26 8.686 1.26 2.606 0 3.908-3.15 6.514-3.15 2.606 0 3.909.63 6.515.63 2.605 0 3.908-3.78 6.514-3.78 2.606 0 3.909 4.284 6.514 6.3 2.606 2.016 3.909 1.89 6.515 3.78 2.605 1.89 3.908 3.78 6.514 5.67 2.606 1.89 3.909 2.394 6.514 3.78 2.606 1.386 3.909 3.15 6.515 3.15h6.514c2.606 0 3.909 2.268 6.514 3.78 2.606 1.512 3.909 1.89 6.515 3.78 2.605 1.89 3.908 5.04 6.514 5.67 2.606.63 3.909 0 6.514.63 2.606.63 3.909 1.134 6.515 3.15 2.605 2.016 3.908 3.654 6.514 6.93 2.606 3.276 3.909 5.166 6.514 9.45 2.606 4.284 3.909 7.434 6.515 11.97 2.605 4.536 3.908 6.048 6.514 10.71 2.606 4.662 3.909 8.28 6.514 12.6 3.475 5.76 5.212 7.704 8.686 12.6 2.606 3.672 3.909 4.41 6.514 8.82 2.606 4.41 6.515 13.23 6.515 13.23" class="highcharts-graph highcharts-shadow" data-z-index="1" stroke="#000" stroke-width="5" stroke-opacity=".05"/><path d="M32.312 253s9.12-4.646 15.2-6.3c7.818-2.126 11.726-1.109 19.543-3.15.869-.227 1.303-2.52 2.172-2.52 4.343 0 6.514 1.26 10.857 1.26 2.606 0 3.909-6.3 6.514-6.3 1.738 0 2.606 1.26 4.343 1.26s2.606-1.26 4.343-1.26c.869 0 1.303.378 2.172.63.868.252 1.303.63 2.171.63.869 0 1.303-.63 2.172-.63h2.171c.869 0 1.303.63 2.171.63h4.343c.869 0 1.303-.63 2.172-.63 8.686 0 13.028 2.52 21.714 2.52h4.343c.869 0 1.303-1.26 2.172-1.26h8.685c.869 0 1.303.504 2.172 1.26.868.756 1.303 1.89 2.171 2.52.869.63 1.303.63 2.172.63.868 0 1.303-2.74 2.171-3.78 6.08-7.276 9.12-17.01 15.2-17.01h2.172c.868 0 1.303-1.89 2.171-1.89.869 0 1.303 1.512 2.172 3.15.868 1.638 1.303 4.435 2.171 5.04 3.474 2.42 5.212 2.52 8.686 2.52 4.343 0 6.514-20.79 10.857-20.79.869 0 1.303 4.41 2.172 4.41 5.211 0 7.817-1.31 13.028-6.3 3.475-3.326 5.212-6.006 8.686-14.49 6.949-16.968 10.423-47.25 17.372-49.14 4.343-1.89 6.514 0 10.857-1.89 9.554-1.89 14.331-23.94 23.886-26.46 3.474-2.52 5.211-2.52 8.686-2.52 3.474 0 5.211 3.822 8.685 5.67 1.738.924 2.606 1.26 4.343 1.26.869 0 1.303-.63 2.172-.63.868 0 1.303.252 2.171.63.869.378 1.303.882 2.172 1.26.868.378 1.302.63 2.171.63h2.171c.87 0 1.303.63 2.172.63.869 0 1.303-.21 2.171-.63 1.738-.84 2.606-.672 4.343-2.52.869-.924 1.303-4.41 2.172-4.41 2.605 0 3.908 4.41 6.514 5.04 2.606.63 3.909 0 6.514.63 2.606.63 3.909 13.23 6.515 13.23 2.605 0 3.908-1.89 6.514-1.89 3.474 0 5.212 1.26 8.686 1.26 2.606 0 3.908-3.15 6.514-3.15 2.606 0 3.909.63 6.515.63 2.605 0 3.908-3.78 6.514-3.78 2.606 0 3.909 4.284 6.514 6.3 2.606 2.016 3.909 1.89 6.515 3.78 2.605 1.89 3.908 3.78 6.514 5.67 2.606 1.89 3.909 2.394 6.514 3.78 2.606 1.386 3.909 3.15 6.515 3.15h6.514c2.606 0 3.909 2.268 6.514 3.78 2.606 1.512 3.909 1.89 6.515 3.78 2.605 1.89 3.908 5.04 6.514 5.67 2.606.63 3.909 0 6.514.63 2.606.63 3.909 1.134 6.515 3.15 2.605 2.016 3.908 3.654 6.514 6.93 2.606 3.276 3.909 5.166 6.514 9.45 2.606 4.284 3.909 7.434 6.515 11.97 2.605 4.536 3.908 6.048 6.514 10.71 2.606 4.662 3.909 8.28 6.514 12.6 3.475 5.76 5.212 7.704 8.686 12.6 2.606 3.672 3.909 4.41 6.514 8.82 2.606 4.41 6.515 13.23 6.515 13.23" class="highcharts-graph highcharts-shadow" data-z-index="1" stroke="#000" stroke-width="3" stroke-opacity=".1"/><path d="M32.312 253s9.12-4.646 15.2-6.3c7.818-2.126 11.726-1.109 19.543-3.15.869-.227 1.303-2.52 2.172-2.52 4.343 0 6.514 1.26 10.857 1.26 2.606 0 3.909-6.3 6.514-6.3 1.738 0 2.606 1.26 4.343 1.26s2.606-1.26 4.343-1.26c.869 0 1.303.378 2.172.63.868.252 1.303.63 2.171.63.869 0 1.303-.63 2.172-.63h2.171c.869 0 1.303.63 2.171.63h4.343c.869 0 1.303-.63 2.172-.63 8.686 0 13.028 2.52 21.714 2.52h4.343c.869 0 1.303-1.26 2.172-1.26h8.685c.869 0 1.303.504 2.172 1.26.868.756 1.303 1.89 2.171 2.52.869.63 1.303.63 2.172.63.868 0 1.303-2.74 2.171-3.78 6.08-7.276 9.12-17.01 15.2-17.01h2.172c.868 0 1.303-1.89 2.171-1.89.869 0 1.303 1.512 2.172 3.15.868 1.638 1.303 4.435 2.171 5.04 3.474 2.42 5.212 2.52 8.686 2.52 4.343 0 6.514-20.79 10.857-20.79.869 0 1.303 4.41 2.172 4.41 5.211 0 7.817-1.31 13.028-6.3 3.475-3.326 5.212-6.006 8.686-14.49 6.949-16.968 10.423-47.25 17.372-49.14 4.343-1.89 6.514 0 10.857-1.89 9.554-1.89 14.331-23.94 23.886-26.46 3.474-2.52 5.211-2.52 8.686-2.52 3.474 0 5.211 3.822 8.685 5.67 1.738.924 2.606 1.26 4.343 1.26.869 0 1.303-.63 2.172-.63.868 0 1.303.252 2.171.63.869.378 1.303.882 2.172 1.26.868.378 1.302.63 2.171.63h2.171c.87 0 1.303.63 2.172.63.869 0 1.303-.21 2.171-.63 1.738-.84 2.606-.672 4.343-2.52.869-.924 1.303-4.41 2.172-4.41 2.605 0 3.908 4.41 6.514 5.04 2.606.63 3.909 0 6.514.63 2.606.63 3.909 13.23 6.515 13.23 2.605 0 3.908-1.89 6.514-1.89 3.474 0 5.212 1.26 8.686 1.26 2.606 0 3.908-3.15 6.514-3.15 2.606 0 3.909.63 6.515.63 2.605 0 3.908-3.78 6.514-3.78 2.606 0 3.909 4.284 6.514 6.3 2.606 2.016 3.909 1.89 6.515 3.78 2.605 1.89 3.908 3.78 6.514 5.67 2.606 1.89 3.909 2.394 6.514 3.78 2.606 1.386 3.909 3.15 6.515 3.15h6.514c2.606 0 3.909 2.268 6.514 3.78 2.606 1.512 3.909 1.89 6.515 3.78 2.605 1.89 3.908 5.04 6.514 5.67 2.606.63 3.909 0 6.514.63 2.606.63 3.909 1.134 6.515 3.15 2.605 2.016 3.908 3.654 6.514 6.93 2.606 3.276 3.909 5.166 6.514 9.45 2.606 4.284 3.909 7.434 6.515 11.97 2.605 4.536 3.908 6.048 6.514 10.71 2.606 4.662 3.909 8.28 6.514 12.6 3.475 5.76 5.212 7.704 8.686 12.6 2.606 3.672 3.909 4.41 6.514 8.82 2.606 4.41 6.515 13.23 6.515 13.23" class="highcharts-graph highcharts-shadow" data-z-index="1" stroke="#000" stroke-opacity=".15"/><path d="M31.312 252s9.12-4.646 15.2-6.3c7.818-2.126 11.726-1.109 19.543-3.15.869-.227 1.303-2.52 2.172-2.52 4.343 0 6.514 1.26 10.857 1.26 2.606 0 3.909-6.3 6.514-6.3 1.738 0 2.606 1.26 4.343 1.26s2.606-1.26 4.343-1.26c.869 0 1.303.378 2.172.63.868.252 1.303.63 2.171.63.869 0 1.303-.63 2.172-.63h2.171c.869 0 1.303.63 2.171.63h4.343c.869 0 1.303-.63 2.172-.63 8.686 0 13.028 2.52 21.714 2.52h4.343c.869 0 1.303-1.26 2.172-1.26h8.685c.869 0 1.303.504 2.172 1.26.868.756 1.303 1.89 2.171 2.52.869.63 1.303.63 2.172.63.868 0 1.303-2.74 2.171-3.78 6.08-7.276 9.12-17.01 15.2-17.01h2.172c.868 0 1.303-1.89 2.171-1.89.869 0 1.303 1.512 2.172 3.15.868 1.638 1.303 4.435 2.171 5.04 3.474 2.42 5.212 2.52 8.686 2.52 4.343 0 6.514-20.79 10.857-20.79.869 0 1.303 4.41 2.172 4.41 5.211 0 7.817-1.31 13.028-6.3 3.475-3.326 5.212-6.006 8.686-14.49 6.949-16.968 10.423-47.25 17.372-49.14 4.343-1.89 6.514 0 10.857-1.89 9.554-1.89 14.331-23.94 23.886-26.46 3.474-2.52 5.211-2.52 8.686-2.52 3.474 0 5.211 3.822 8.685 5.67 1.738.924 2.606 1.26 4.343 1.26.869 0 1.303-.63 2.172-.63.868 0 1.303.252 2.171.63.869.378 1.303.882 2.172 1.26.868.378 1.302.63 2.171.63h2.171c.87 0 1.303.63 2.172.63.869 0 1.303-.21 2.171-.63 1.738-.84 2.606-.672 4.343-2.52.869-.924 1.303-4.41 2.172-4.41 2.605 0 3.908 4.41 6.514 5.04 2.606.63 3.909 0 6.514.63 2.606.63 3.909 13.23 6.515 13.23 2.605 0 3.908-1.89 6.514-1.89 3.474 0 5.212 1.26 8.686 1.26 2.606 0 3.908-3.15 6.514-3.15 2.606 0 3.909.63 6.515.63 2.605 0 3.908-3.78 6.514-3.78 2.606 0 3.909 4.284 6.514 6.3 2.606 2.016 3.909 1.89 6.515 3.78 2.605 1.89 3.908 3.78 6.514 5.67 2.606 1.89 3.909 2.394 6.514 3.78 2.606 1.386 3.909 3.15 6.515 3.15h6.514c2.606 0 3.909 2.268 6.514 3.78 2.606 1.512 3.909 1.89 6.515 3.78 2.605 1.89 3.908 5.04 6.514 5.67 2.606.63 3.909 0 6.514.63 2.606.63 3.909 1.134 6.515 3.15 2.605 2.016 3.908 3.654 6.514 6.93 2.606 3.276 3.909 5.166 6.514 9.45 2.606 4.284 3.909 7.434 6.515 11.97 2.605 4.536 3.908 6.048 6.514 10.71 2.606 4.662 3.909 8.28 6.514 12.6 3.475 5.76 5.212 7.704 8.686 12.6 2.606 3.672 3.909 4.41 6.514 8.82 2.606 4.41 6.515 13.23 6.515 13.23" class="highcharts-graph" data-z-index="1" stroke="#06C" stroke-width="2"/><path d="M31.312 252s9.12-4.646 15.2-6.3c7.818-2.126 11.726-1.109 19.543-3.15.869-.227 1.303-2.52 2.172-2.52 4.343 0 6.514 1.26 10.857 1.26 2.606 0 3.909-6.3 6.514-6.3 1.738 0 2.606 1.26 4.343 1.26s2.606-1.26 4.343-1.26c.869 0 1.303.378 2.172.63.868.252 1.303.63 2.171.63.869 0 1.303-.63 2.172-.63h2.171c.869 0 1.303.63 2.171.63h4.343c.869 0 1.303-.63 2.172-.63 8.686 0 13.028 2.52 21.714 2.52h4.343c.869 0 1.303-1.26 2.172-1.26h8.685c.869 0 1.303.504 2.172 1.26.868.756 1.303 1.89 2.171 2.52.869.63 1.303.63 2.172.63.868 0 1.303-2.74 2.171-3.78 6.08-7.276 9.12-17.01 15.2-17.01h2.172c.868 0 1.303-1.89 2.171-1.89.869 0 1.303 1.512 2.172 3.15.868 1.638 1.303 4.435 2.171 5.04 3.474 2.42 5.212 2.52 8.686 2.52 4.343 0 6.514-20.79 10.857-20.79.869 0 1.303 4.41 2.172 4.41 5.211 0 7.817-1.31 13.028-6.3 3.475-3.326 5.212-6.006 8.686-14.49 6.949-16.968 10.423-47.25 17.372-49.14 4.343-1.89 6.514 0 10.857-1.89 9.554-1.89 14.331-23.94 23.886-26.46 3.474-2.52 5.211-2.52 8.686-2.52 3.474 0 5.211 3.822 8.685 5.67 1.738.924 2.606 1.26 4.343 1.26.869 0 1.303-.63 2.172-.63.868 0 1.303.252 2.171.63.869.378 1.303.882 2.172 1.26.868.378 1.302.63 2.171.63h2.171c.87 0 1.303.63 2.172.63.869 0 1.303-.21 2.171-.63 1.738-.84 2.606-.672 4.343-2.52.869-.924 1.303-4.41 2.172-4.41 2.605 0 3.908 4.41 6.514 5.04 2.606.63 3.909 0 6.514.63 2.606.63 3.909 13.23 6.515 13.23 2.605 0 3.908-1.89 6.514-1.89 3.474 0 5.212 1.26 8.686 1.26 2.606 0 3.908-3.15 6.514-3.15 2.606 0 3.909.63 6.515.63 2.605 0 3.908-3.78 6.514-3.78 2.606 0 3.909 4.284 6.514 6.3 2.606 2.016 3.909 1.89 6.515 3.78 2.605 1.89 3.908 3.78 6.514 5.67 2.606 1.89 3.909 2.394 6.514 3.78 2.606 1.386 3.909 3.15 6.515 3.15h6.514c2.606 0 3.909 2.268 6.514 3.78 2.606 1.512 3.909 1.89 6.515 3.78 2.605 1.89 3.908 5.04 6.514 5.67 2.606.63 3.909 0 6.514.63 2.606.63 3.909 1.134 6.515 3.15 2.605 2.016 3.908 3.654 6.514 6.93 2.606 3.276 3.909 5.166 6.514 9.45 2.606 4.284 3.909 7.434 6.515 11.97 2.605 4.536 3.908 6.048 6.514 10.71 2.606 4.662 3.909 8.28 6.514 12.6 3.475 5.76 5.212 7.704 8.686 12.6 2.606 3.672 3.909 4.41 6.514 8.82 2.606 4.41 6.515 13.23 6.515 13.23" data-z-index="2" class="highcharts-tracker-line" stroke="rgba(192,192,192,0.0001)" stroke-width="22"/></g><g class="highcharts-markers highcharts-series-2 highcharts-spline-series highcharts-color-2 highcharts-tracker" data-z-index=".1" aria-hidden="false" tabindex="-1" aria-label="Winter 2021-2022, line 3 of 3 with 80 data points." style="outline:0" fill="#06C"><path d="M28 249.5h5v5h-5Z" class="highcharts-point highcharts-color-2" tabindex="-1" aria-label="Thursday, Nov 5, 1970, 0. Winter 2021-2022." style="outline:0" transform="translate(54 56)"/><path d="M44 243.2h5v5h-5Z" class="highcharts-point highcharts-color-2" tabindex="-1" aria-label="Thursday, Nov 12, 1970, 0.1. Winter 2021-2022." style="outline:0" transform="translate(54 56)"/><path d="M63 240.05h5v5h-5Z" class="highcharts-point highcharts-color-2" tabindex="-1" aria-label="Saturday, Nov 21, 1970, 0.15. Winter 2021-2022." style="outline:0" transform="translate(54 56)"/><path d="M65 237.53h5v5h-5Z" class="highcharts-point highcharts-color-2" tabindex="-1" aria-label="Sunday, Nov 22, 1970, 0.19. Winter 2021-2022." style="outline:0" transform="translate(54 56)"/><path d="M76 238.79h5v5h-5Z" class="highcharts-point highcharts-color-2" tabindex="-1" aria-label="Friday, Nov 27, 1970, 0.17. Winter 2021-2022." style="outline:0" transform="translate(54 56)"/><path d="M83 232.49h5v5h-5Z" class="highcharts-point highcharts-color-2" tabindex="-1" aria-label="Monday, Nov 30, 1970, 0.27. Winter 2021-2022." style="outline:0" transform="translate(54 56)"/><path d="M87 233.75h5v5h-5Z" class="highcharts-point highcharts-color-2" tabindex="-1" aria-label="Wednesday, Dec 2, 1970, 0.25. Winter 2021-2022." style="outline:0" transform="translate(54 56)"/><path d="M91 232.49h5v5h-5Z" class="highcharts-point highcharts-color-2" tabindex="-1" aria-label="Friday, Dec 4, 1970, 0.27. Winter 2021-2022." style="outline:0" transform="translate(54 56)"/><path d="M93 233.12h5v5h-5Z" class="highcharts-point highcharts-color-2" tabindex="-1" aria-label="Saturday, Dec 5, 1970, 0.26. Winter 2021-2022." style="outline:0" transform="translate(54 56)"/><path d="M96 233.75h5v5h-5Z" class="highcharts-point highcharts-color-2" tabindex="-1" aria-label="Sunday, Dec 6, 1970, 0.25. Winter 2021-2022." style="outline:0" transform="translate(54 56)"/><path d="M98 233.12h5v5h-5Z" class="highcharts-point highcharts-color-2" tabindex="-1" aria-label="Monday, Dec 7, 1970, 0.26. Winter 2021-2022." style="outline:0" transform="translate(54 56)"/><path d="M100 233.12h5v5h-5Z" class="highcharts-point highcharts-color-2" tabindex="-1" aria-label="Tuesday, Dec 8, 1970, 0.26. Winter 2021-2022." style="outline:0" transform="translate(54 56)"/><path d="M102 233.75h5v5h-5Z" class="highcharts-point highcharts-color-2" tabindex="-1" aria-label="Wednesday, Dec 9, 1970, 0.25. Winter 2021-2022." style="outline:0" transform="translate(54 56)"/><path d="M104 233.75h5v5h-5Z" class="highcharts-point highcharts-color-2" tabindex="-1" aria-label="Thursday, Dec 10, 1970, 0.25. Winter 2021-2022." style="outline:0" transform="translate(54 56)"/><path d="M106 233.75h5v5h-5Z" class="highcharts-point highcharts-color-2" tabindex="-1" aria-label="Friday, Dec 11, 1970, 0.25. Winter 2021-2022." style="outline:0" transform="translate(54 56)"/><path d="M109 233.12h5v5h-5Z" class="highcharts-point highcharts-color-2" tabindex="-1" aria-label="Saturday, Dec 12, 1970, 0.26. Winter 2021-2022." style="outline:0" transform="translate(54 56)"/><path d="M130 235.64h5v5h-5Z" class="highcharts-point highcharts-color-2" tabindex="-1" aria-label="Tuesday, Dec 22, 1970, 0.22. Winter 2021-2022." style="outline:0" transform="translate(54 56)"/><path d="M133 235.64h5v5h-5Z" class="highcharts-point highcharts-color-2" tabindex="-1" aria-label="Wednesday, Dec 23, 1970, 0.22. Winter 2021-2022." style="outline:0" transform="translate(54 56)"/><path d="M135 235.64h5v5h-5Z" class="highcharts-point highcharts-color-2" tabindex="-1" aria-label="Thursday, Dec 24, 1970, 0.22. Winter 2021-2022." style="outline:0" transform="translate(54 56)"/><path d="M137 234.38h5v5h-5Z" class="highcharts-point highcharts-color-2" tabindex="-1" aria-label="Friday, Dec 25, 1970, 0.24. Winter 2021-2022." style="outline:0" transform="translate(54 56)"/><path d="M139 234.38h5v5h-5Z" class="highcharts-point highcharts-color-2" tabindex="-1" aria-label="Saturday, Dec 26, 1970, 0.24. Winter 2021-2022." style="outline:0" transform="translate(54 56)"/><path d="M141 234.38h5v5h-5Z" class="highcharts-point highcharts-color-2" tabindex="-1" aria-label="Sunday, Dec 27, 1970, 0.24. Winter 2021-2022." style="outline:0" transform="translate(54 56)"/><path d="M143 234.38h5v5h-5Z" class="highcharts-point highcharts-color-2" tabindex="-1" aria-label="Monday, Dec 28, 1970, 0.24. Winter 2021-2022." style="outline:0" transform="translate(54 56)"/><path d="M146 234.38h5v5h-5Z" class="highcharts-point highcharts-color-2" tabindex="-1" aria-label="Tuesday, Dec 29, 1970, 0.24. Winter 2021-2022." style="outline:0" transform="translate(54 56)"/><path d="M148 235.64h5v5h-5Z" class="highcharts-point highcharts-color-2" tabindex="-1" aria-label="Wednesday, Dec 30, 1970, 0.22. Winter 2021-2022." style="outline:0" transform="translate(54 56)"/><path d="M150 238.16h5v5h-5Z" class="highcharts-point highcharts-color-2" tabindex="-1" aria-label="Thursday, Dec 31, 1970, 0.18. Winter 2021-2022." style="outline:0" transform="translate(54 56)"/><path d="M152 238.79h5v5h-5Z" class="highcharts-point highcharts-color-2" tabindex="-1" aria-label="Friday, Jan 1, 1971, 0.17. Winter 2021-2022." style="outline:0" transform="translate(54 56)"/><path d="M154 235.01h5v5h-5Z" class="highcharts-point highcharts-color-2" tabindex="-1" aria-label="Saturday, Jan 2, 1971, 0.23. Winter 2021-2022." style="outline:0" transform="translate(54 56)"/><path d="M169 218h5v5h-5Z" class="highcharts-point highcharts-color-2" tabindex="-1" aria-label="Saturday, Jan 9, 1971, 0.5. Winter 2021-2022." style="outline:0" transform="translate(54 56)"/><path d="M172 218h5v5h-5Z" class="highcharts-point highcharts-color-2" tabindex="-1" aria-label="Sunday, Jan 10, 1971, 0.5. Winter 2021-2022." style="outline:0" transform="translate(54 56)"/><path d="M174 216.11h5v5h-5Z" class="highcharts-point highcharts-color-2" tabindex="-1" aria-label="Monday, Jan 11, 1971, 0.53. Winter 2021-2022." style="outline:0" transform="translate(54 56)"/><path d="M176 219.26h5v5h-5Z" class="highcharts-point highcharts-color-2" tabindex="-1" aria-label="Tuesday, Jan 12, 1971, 0.48. Winter 2021-2022." style="outline:0" transform="translate(54 56)"/><path d="M178 224.3h5v5h-5Z" class="highcharts-point highcharts-color-2" tabindex="-1" aria-label="Wednesday, Jan 13, 1971, 0.4. Winter 2021-2022." style="outline:0" transform="translate(54 56)"/><path d="M187 226.82h5v5h-5Z" class="highcharts-point highcharts-color-2" tabindex="-1" aria-label="Sunday, Jan 17, 1971, 0.36. Winter 2021-2022." style="outline:0" transform="translate(54 56)"/><path d="M198 206.03h5v5h-5Z" class="highcharts-point highcharts-color-2" tabindex="-1" aria-label="Friday, Jan 22, 1971, 0.69. Winter 2021-2022." style="outline:0" transform="translate(54 56)"/><path d="M200 210.44h5v5h-5Z" class="highcharts-point highcharts-color-2" tabindex="-1" aria-label="Saturday, Jan 23, 1971, 0.62. Winter 2021-2022." style="outline:0" transform="translate(54 56)"/><path d="M213 204.14h5v5h-5Z" class="highcharts-point highcharts-color-2" tabindex="-1" aria-label="Friday, Jan 29, 1971, 0.72. Winter 2021-2022." style="outline:0" transform="translate(54 56)"/><path d="M222 189.65h5v5h-5Z" class="highcharts-point highcharts-color-2" tabindex="-1" aria-label="Tuesday, Feb 2, 1971, 0.95. Winter 2021-2022." style="outline:0" transform="translate(54 56)"/><path d="M239 140.51h5v5h-5Z" class="highcharts-point highcharts-color-2" tabindex="-1" aria-label="Wednesday, Feb 10, 1971, 1.73. Winter 2021-2022." style="outline:0" transform="translate(54 56)"/><path d="M250 138.62h5v5h-5Z" class="highcharts-point highcharts-color-2" tabindex="-1" aria-label="Monday, Feb 15, 1971, 1.76. Winter 2021-2022." style="outline:0" transform="translate(54 56)"/><path d="M274 112.16h5v5h-5Z" class="highcharts-point highcharts-color-2" tabindex="-1" aria-label="Friday, Feb 26, 1971, 2.18. Winter 2021-2022." style="outline:0" transform="translate(54 56)"/><path d="M282 109.64h5v5h-5Z" class="highcharts-point highcharts-color-2" tabindex="-1" aria-label="Tuesday, Mar 2, 1971, 2.22. Winter 2021-2022." style="outline:0" transform="translate(54 56)"/><path d="M291 115.31h5v5h-5Z" class="highcharts-point highcharts-color-2" tabindex="-1" aria-label="Saturday, Mar 6, 1971, 2.13. Winter 2021-2022." style="outline:0" transform="translate(54 56)"/><path d="M295 116.57h5v5h-5Z" class="highcharts-point highcharts-color-2" tabindex="-1" aria-label="Monday, Mar 8, 1971, 2.11. Winter 2021-2022." style="outline:0" transform="translate(54 56)"/><path d="M298 115.94h5v5h-5Z" class="highcharts-point highcharts-color-2" tabindex="-1" aria-label="Tuesday, Mar 9, 1971, 2.12. Winter 2021-2022." style="outline:0" transform="translate(54 56)"/><path d="M300 116.57h5v5h-5Z" class="highcharts-point highcharts-color-2" tabindex="-1" aria-label="Wednesday, Mar 10, 1971, 2.11. Winter 2021-2022." style="outline:0" transform="translate(54 56)"/><path d="M302 117.83h5v5h-5Z" class="highcharts-point highcharts-color-2" tabindex="-1" aria-label="Thursday, Mar 11, 1971, 2.09. Winter 2021-2022." style="outline:0" transform="translate(54 56)"/><path d="M304 118.46h5v5h-5Z" class="highcharts-point highcharts-color-2" tabindex="-1" aria-label="Friday, Mar 12, 1971, 2.08. Winter 2021-2022." style="outline:0" transform="translate(54 56)"/><path d="M306 118.46h5v5h-5Z" class="highcharts-point highcharts-color-2" tabindex="-1" aria-label="Saturday, Mar 13, 1971, 2.08. Winter 2021-2022." style="outline:0" transform="translate(54 56)"/><path d="M308 119.09h5v5h-5Z" class="highcharts-point highcharts-color-2" tabindex="-1" aria-label="Sunday, Mar 14, 1971, 2.07. Winter 2021-2022." style="outline:0" transform="translate(54 56)"/><path d="M311 118.46h5v5h-5Z" class="highcharts-point highcharts-color-2" tabindex="-1" aria-label="Monday, Mar 15, 1971, 2.08. Winter 2021-2022." style="outline:0" transform="translate(54 56)"/><path d="M315 115.94h5v5h-5Z" class="highcharts-point highcharts-color-2" tabindex="-1" aria-label="Wednesday, Mar 17, 1971, 2.12. Winter 2021-2022." style="outline:0" transform="translate(54 56)"/><path d="M317 111.53h5v5h-5Z" class="highcharts-point highcharts-color-2" tabindex="-1" aria-label="Thursday, Mar 18, 1971, 2.19. Winter 2021-2022." style="outline:0" transform="translate(54 56)"/><path d="M324 116.57h5v5h-5Z" class="highcharts-point highcharts-color-2" tabindex="-1" aria-label="Sunday, Mar 21, 1971, 2.11. Winter 2021-2022." style="outline:0" transform="translate(54 56)"/><path d="M330 117.2h5v5h-5Z" class="highcharts-point highcharts-color-2" tabindex="-1" aria-label="Wednesday, Mar 24, 1971, 2.1. Winter 2021-2022." style="outline:0" transform="translate(54 56)"/><path d="M337 130.43h5v5h-5Z" class="highcharts-point highcharts-color-2" tabindex="-1" aria-label="Saturday, Mar 27, 1971, 1.89. Winter 2021-2022." style="outline:0" transform="translate(54 56)"/><path d="M343 128.54h5v5h-5Z" class="highcharts-point highcharts-color-2" tabindex="-1" aria-label="Tuesday, Mar 30, 1971, 1.92. Winter 2021-2022." style="outline:0" transform="translate(54 56)"/><path d="M352 129.8h5v5h-5Z" class="highcharts-point highcharts-color-2" tabindex="-1" aria-label="Saturday, Apr 3, 1971, 1.9. Winter 2021-2022." style="outline:0" transform="translate(54 56)"/><path d="M358 126.65h5v5h-5Z" class="highcharts-point highcharts-color-2" tabindex="-1" aria-label="Tuesday, Apr 6, 1971, 1.95. Winter 2021-2022." style="outline:0" transform="translate(54 56)"/><path d="M365 127.28h5v5h-5Z" class="highcharts-point highcharts-color-2" tabindex="-1" aria-label="Friday, Apr 9, 1971, 1.94. Winter 2021-2022." style="outline:0" transform="translate(54 56)"/><path d="M371 123.5h5v5h-5Z" class="highcharts-point highcharts-color-2" tabindex="-1" aria-label="Monday, Apr 12, 1971, 2. Winter 2021-2022." style="outline:0" transform="translate(54 56)"/><path d="M378 129.8h5v5h-5Z" class="highcharts-point highcharts-color-2" tabindex="-1" aria-label="Thursday, Apr 15, 1971, 1.9. Winter 2021-2022." style="outline:0" transform="translate(54 56)"/><path d="M384 133.58h5v5h-5Z" class="highcharts-point highcharts-color-2" tabindex="-1" aria-label="Sunday, Apr 18, 1971, 1.84. Winter 2021-2022." style="outline:0" transform="translate(54 56)"/><path d="M391 139.25h5v5h-5Z" class="highcharts-point highcharts-color-2" tabindex="-1" aria-label="Wednesday, Apr 21, 1971, 1.75. Winter 2021-2022." style="outline:0" transform="translate(54 56)"/><path d="M397 143.03h5v5h-5Z" class="highcharts-point highcharts-color-2" tabindex="-1" aria-label="Saturday, Apr 24, 1971, 1.69. Winter 2021-2022." style="outline:0" transform="translate(54 56)"/><path d="M404 146.18h5v5h-5Z" class="highcharts-point highcharts-color-2" tabindex="-1" aria-label="Tuesday, Apr 27, 1971, 1.64. Winter 2021-2022." style="outline:0" transform="translate(54 56)"/><path d="M410 146.18h5v5h-5Z" class="highcharts-point highcharts-color-2" tabindex="-1" aria-label="Friday, Apr 30, 1971, 1.64. Winter 2021-2022." style="outline:0" transform="translate(54 56)"/><path d="M417 149.96h5v5h-5Z" class="highcharts-point highcharts-color-2" tabindex="-1" aria-label="Monday, May 3, 1971, 1.58. Winter 2021-2022." style="outline:0" transform="translate(54 56)"/><path d="M424 153.74h5v5h-5Z" class="highcharts-point highcharts-color-2" tabindex="-1" aria-label="Thursday, May 6, 1971, 1.52. Winter 2021-2022." style="outline:0" transform="translate(54 56)"/><path d="M430 159.41h5v5h-5Z" class="highcharts-point highcharts-color-2" tabindex="-1" aria-label="Sunday, May 9, 1971, 1.43. Winter 2021-2022." style="outline:0" transform="translate(54 56)"/><path d="M437 160.04h5v5h-5Z" class="highcharts-point highcharts-color-2" tabindex="-1" aria-label="Wednesday, May 12, 1971, 1.42. Winter 2021-2022." style="outline:0" transform="translate(54 56)"/><path d="M443 163.19h5v5h-5Z" class="highcharts-point highcharts-color-2" tabindex="-1" aria-label="Saturday, May 15, 1971, 1.37. Winter 2021-2022." style="outline:0" transform="translate(54 56)"/><path d="M450 170.12h5v5h-5Z" class="highcharts-point highcharts-color-2" tabindex="-1" aria-label="Tuesday, May 18, 1971, 1.26. Winter 2021-2022." style="outline:0" transform="translate(54 56)"/><path d="M456 179.57h5v5h-5Z" class="highcharts-point highcharts-color-2" tabindex="-1" aria-label="Friday, May 21, 1971, 1.11. Winter 2021-2022." style="outline:0" transform="translate(54 56)"/><path d="M463 191.54h5v5h-5Z" class="highcharts-point highcharts-color-2" tabindex="-1" aria-label="Monday, May 24, 1971, 0.92. Winter 2021-2022." style="outline:0" transform="translate(54 56)"/><path d="M469 202.25h5v5h-5Z" class="highcharts-point highcharts-color-2" tabindex="-1" aria-label="Thursday, May 27, 1971, 0.75. Winter 2021-2022." style="outline:0" transform="translate(54 56)"/><path d="M476 214.85h5v5h-5Z" class="highcharts-point highcharts-color-2" tabindex="-1" aria-label="Sunday, May 30, 1971, 0.55. Winter 2021-2022." style="outline:0" transform="translate(54 56)"/><path d="M484 227.45h5v5h-5Z" class="highcharts-point highcharts-color-2" tabindex="-1" aria-label="Thursday, Jun 3, 1971, 0.35. Winter 2021-2022." style="outline:0" transform="translate(54 56)"/><path d="M491 236.27h5v5h-5Z" class="highcharts-point highcharts-color-2" tabindex="-1" aria-label="Sunday, Jun 6, 1971, 0.21. Winter 2021-2022." style="outline:0" transform="translate(54 56)"/><path d="M497 249.5h5v5h-5Z" class="highcharts-point highcharts-color-2" tabindex="-1" aria-label="Wednesday, Jun 9, 1971, 0. Winter 2021-2022." style="outline:0" transform="translate(54 56)"/></g></g><g data-z-index="3" aria-hidden="true"><text data-z-index="1" y="12" style="color:#6cf;font-weight:700;fill:#6cf" transform="translate(451 122)" class="highcharts-label highcharts-series-label highcharts-series-label-0 highcharts-color-0">Winter 2019-2020</text></g><g data-z-index="3" aria-hidden="true"><text data-z-index="1" y="12" style="color:#39f;font-weight:700;fill:#39f" transform="translate(351 273)" class="highcharts-label highcharts-series-label highcharts-series-label-1 highcharts-color-1">Winter 2020-2021</text></g><g data-z-index="3" aria-hidden="true"><text data-z-index="1" y="12" style="color:#06c;font-weight:700;fill:#06c" transform="translate(373 208)" class="highcharts-label highcharts-series-label highcharts-series-label-2 highcharts-color-2">Winter 2021-2022</text></g><text x="300" text-anchor="middle" class="highcharts-title" data-z-index="4" style="color:#000;font-size:16px;font-weight:700;fill:#000" y="22" aria-hidden="true">Snow depth at Vikjafjellet, Norway</text><text x="300" text-anchor="middle" class="highcharts-subtitle" data-z-index="4" style="color:#000;fill:#000" y="42" aria-hidden="true">Irregular time data in Highcharts JS</text><g class="highcharts-legend highcharts-no-tooltip" data-z-index="7" transform="translate(92 358)" aria-hidden="true"><rect fill="#E0E0E8" class="highcharts-legend-box" rx="0" ry="0" width="415" height="27"/><g data-z-index="1"><g class="highcharts-legend-item highcharts-spline-series highcharts-color-0 highcharts-series-0" data-z-index="1"><path fill="none" d="M8 15h16" class="highcharts-graph" stroke-width="2" stroke="#6CF"/><path fill="#6CF" d="M16.5 18a2.5 2.5 0 1 1 .002 0Z" class="highcharts-point"/><text x="21" data-z-index="2" y="16" style="color:#333;cursor:pointer;font-size:13px;font-weight:700;fill:#333" transform="translate(8 3)">Winter 2019-2020</text></g><g class="highcharts-legend-item highcharts-spline-series highcharts-color-1 highcharts-series-1" data-z-index="1"><path fill="none" d="M147.82 15h16" class="highcharts-graph" stroke-width="2" stroke="#39F"/><path fill="#39F" d="m156.32 13 2.5 2.5-2.5 2.5-2.5-2.5Z" class="highcharts-point"/><text x="21" y="16" data-z-index="2" style="color:#333;cursor:pointer;font-size:13px;font-weight:700;fill:#333" transform="translate(147.82 3)">Winter 2020-2021</text></g><g class="highcharts-legend-item highcharts-spline-series highcharts-color-2 highcharts-series-2" data-z-index="1"><path fill="none" d="M287.64 15h16" class="highcharts-graph" stroke-width="2" stroke="#06C"/><path fill="#06C" d="M293.64 13h5v5h-5Z" class="highcharts-point"/><text x="21" y="16" data-z-index="2" style="color:#333;cursor:pointer;font-size:13px;font-weight:700;fill:#333" transform="translate(287.64 3)">Winter 2021-2022</text></g></g></g><g class="highcharts-axis-labels highcharts-xaxis-labels" data-z-index="7" aria-hidden="true" text-anchor="middle"><text x="76.626" style="color:#6e6e70;cursor:default;font-size:11px;fill:#6e6e70" y="327">1. Nov</text><text x="209.085" style="color:#6e6e70;cursor:default;font-size:11px;fill:#6e6e70" y="327">1. Jan</text><text x="337.2" style="color:#6e6e70;cursor:default;font-size:11px;fill:#6e6e70" y="327">1. Mar</text><text x="469.658" style="color:#6e6e70;cursor:default;font-size:11px;fill:#6e6e70" y="327">1. May</text></g><g class="highcharts-axis-labels highcharts-yaxis-labels" data-z-index="7" aria-hidden="true" text-anchor="end"><text x="39" style="color:#6e6e70;cursor:default;font-size:11px;fill:#6e6e70" y="313">0</text><text x="39" style="color:#6e6e70;cursor:default;font-size:11px;fill:#6e6e70" y="250">1</text><text x="39" style="color:#6e6e70;cursor:default;font-size:11px;fill:#6e6e70" y="187">2</text><text x="39" style="color:#6e6e70;cursor:default;font-size:11px;fill:#6e6e70" y="124">3</text><text x="39" style="color:#6e6e70;cursor:default;font-size:11px;fill:#6e6e70" y="61">4</text></g></svg>