<svg class="highcharts-root" style="font-family:Signika,serif;font-size:12px" xmlns="http://www.w3.org/2000/svg" width="600" height="400" aria-label="Interactive chart" aria-hidden="false"><defs aria-hidden="true"><clipPath id="a"><path fill="none" d="M0 0h580v329H0z"/></clipPath></defs><rect fill="none" class="highcharts-background" width="600" height="400" rx="0" ry="0" aria-hidden="true"/><path fill="none" class="highcharts-plot-background" aria-hidden="true" d="M10 56h580v329H10z"/><path fill="none" class="highcharts-plot-border" data-z-index="1" aria-hidden="true" d="M10 56h580v329H10z"/><g class="highcharts-axis highcharts-xaxis" data-z-index="2" aria-hidden="true"><path fill="none" class="highcharts-axis-line" data-z-index="7" d="M10 385h580"/></g><g class="highcharts-axis highcharts-yaxis" data-z-index="2" aria-hidden="true"><path fill="none" class="highcharts-axis-line" data-z-index="7" d="M10 56v329"/></g><g class="highcharts-series-group" data-z-index="3" aria-hidden="false"><g class="highcharts-series highcharts-series-0 highcharts-treemap-series highcharts-color-0 highcharts-tracker" data-z-index=".1" clip-path="url(#a)" aria-hidden="false" stroke="#e6e6e6" transform="translate(10 56)"><g class="highcharts-level-group-3" data-z-index="997" aria-hidden="true"><path fill="#f45b5b" class="highcharts-point" tabindex="-1" aria-hidden="true" style="outline:0" d="M426.5 254.5h18v18h-18zm18-20h4v38h-4zm-18 0h18v20h-18zm51 85h2v4h-2zm0-11h2v5h-2zm0 9h2v2h-2zm0-4h2v4h-2zm-59-24h8v26h-8zm0 26h8v13h-8zm-40-26h40v39h-40zm75-95h2v40h-2zm-27 35h27v5h-27zm0-35h27v35h-27zm18 78h4v28h-4zm-18 18h18v10h-18zm0-18h18v18h-18zm44 47h7v2h-7zm0-11h7v11h-7zm7-1h2v1h-2zm0-12h2v12h-2zm-7-3h7v1h-7zm0-15h7v15h-7zm0 28h7v3h-7zm0-12h7v12h-7zm-44 30h21v5h-21zm21-23h1v28h-1zm-21 0h21v23h-21zm51-11h2v3h-2zm0 3h2v3h-2zm0-15h2v12h-2zm-99-24h44v36h-44zm44-59h4v95h-4zm-44 0h44v59h-44zm99 132h2v2h-2zm0-3h2v3h-2zm-13-2h6v7h-6zm0-9h6v9h-6zm-16 0h16v16h-16zm0-39h20v15h-20zm20 0h2v20h-2zm-20 15h20v5h-20zm0 5h20v13h-20zm20 0h2v19h-2zm-20 13h20v6h-20zm7-89h21v17h-21zm21-23h3v40h-3zm-21 0h21v23h-21zm14 57h1v22h-1zm-21 11h21v11h-21zm0-11h21v11h-21zm22 23h9v3h-9zm0-23h9v23h-9zm0 76h7v1h-7zm0-6h7v6h-7zm-3-87h12v11h-12zm0 11h12v6h-12zm-19-11h19v17h-19z"/><path fill="#8085e9" class="highcharts-point" tabindex="-1" aria-hidden="true" style="outline:0" d="M572.5 322.5h5v1h-5zm5-5h1v6h-1zm-5 0h5v5h-5zm0-1h5v1h-5zm5-7h1v8h-1zm-5 0h5v7h-5zm-17-12h9v11h-9zm0 20h9v1h-9zm0-9h9v9h-9zm-1-35h1v15h-1zm-12 14h12v1h-12zm0-14h12v14h-12zm13-22h11v1h-11zm11-12h1v13h-1zm-11 0h11v12h-11zm17 24h7v8h-7zm-5-24h12v13h-12zm-3 23h8v1h-8zm0-10h8v10h-8zm14 55h1v7h-1zm-36 20h12v1h-12zm12-12h1v13h-1zm-12 0h12v12h-12zm22-44h8v1h-8zm0-8h8v8h-8zm14 43h1v1h-1zm0-15h1v15h-1zm-6-29h7v1h-7zm0-10h7v10h-7zm-54 1h22v2h-22zm22-31h2v33h-2zm-22 0h22v31h-22zm46 59h8v8h-8zm-50-11h4v17h-4zm0 17h4v16h-4zm-35-17h35v33h-35zm75 32h1v13h-1zm-12 0h12v13h-12zm12-14h1v14h-1zm-12 13h12v1h-12zm0-13h12v13h-12zm36 38h1v2h-1zm-6-26h5v1h-5zm5-8h1v9h-1zm-5 0h5v8h-5zm-8 20h8v1h-8zm0-7h8v7h-8zm-17-111h3v15h-3zm0 15h3v13h-3zm-29-15h29v28h-29zm36 45h1v18h-1zm-12 16h12v2h-12zm0-16h12v16h-12zm30 52h5v1h-5zm5-9h1v10h-1zm-5 0h5v9h-5zm5 19h1v8h-1zm-5 7h5v1h-5zm0-7h5v7h-5zm-8 12h8v8h-8zm14 7h1v3h-1zm0 3h1v3h-1zm0-9h1v6h-1zm-36-42h12v1h-12zm12-15h1v16h-1zm-12 0h12v15h-12zm30 24h5v1h-5zm5-10h1v11h-1zm-5 0h5v10h-5zm-33 48h3v9h-3zm0-14h3v14h-3zm-21 0h21v23h-21zm37-23h9v1h-9zm0-14h9v14h-9zm9 30h8v7h-8zm-2-76h1v10h-1zm0 10h1v7h-1zm-20-10h20v17h-20zm-27-28h3v76h-3zm-36 69h36v7h-36zm0-69h36v69h-36zm76 73h9v1h-9zm0-15h9v15h-9zm9 28h8v1h-8zm0-8h8v8h-8zm13 51h1v5h-1zm-5 0h5v5h-5zm-32-41h2v13h-2zm0 13h2v10h-2zm-22-13h22v23h-22zm37 14h9v1h-9zm0-13h9v13h-9zm0 44h9v1h-9zm0-9h9v9h-9zm9-23h8v3h-8zm0-6h8v6h-8zm14 1h1v1h-1zm0-19h1v19h-1zm-38-16h2v27h-2zm-22 25h22v2h-22zm0-25h22v25h-22zm53 66h1v5h-1zm0 5h1v2h-1zm-7-5h7v7h-7zm-50-2h4v9h-4zm0-16h4v16h-4zm-35 0h35v25h-35zm97-109h3v19h-3zm0 19h3v9h-3zm-26-19h26v28h-26zm13 43h15v2h-15zm15-15h1v17h-1zm-15 0h15v15h-15z"/><path fill="#8d4654" class="highcharts-point" tabindex="-1" aria-hidden="true" style="outline:0" d="M327.5 280.5h17v3h-17zm17-14h2v17h-2zm-17 0h17v14h-17zm-20-12h18v18h-18zm18 0h2v27h-2zm-18 18h18v9h-18zm53-11h9v10h-9zm9 0h1v17h-1zm-9 10h9v7h-9zm11 52h2v5h-2zm2 4h3v1h-3zm0-4h3v4h-3zm-11-77h15v10h-15zm15 0h1v15h-1zm-15 10h15v5h-15zm-16 61h8v11h-8zm8 8h6v3h-6zm0-8h6v8h-6zm9-95h14v15h-14zm14 0h1v24h-1zm-14 15h14v9h-14zm14 89h1v2h-1zm-1 0h1v2h-1zm-16-24h9v7h-9zm9 0h2v10h-2zm-9 7h9v3h-9zm-33-26h12v15h-12zm12 11h7v4h-7zm0-11h7v11h-7zm37 39h2v3h-2zm0 3h2v1h-2zm-5-47h7v4h-7zm0 4h7v3h-7zm-26-60h16v14h-16zm16 0h2v24h-2zm-16 14h16v10h-16zm-72 58h30v23h-30zm30 0h4v34h-4zm-30 23h30v11h-30zm103 0h2v3h-2zm0 3h2v2h-2zm-5-35h4v5h-4zm4 0h1v10h-1zm-4 5h4v5h-4zm-64-96h20v28h-20zm20 21h21v7h-21zm0-21h21v21h-21zm49 101h2v4h-2zm0 7h2v1h-2zm0-3h2v3h-2zm0-14h2v5h-2zm0 8h2v2h-2zm0-3h2v3h-2zm-49-44h17v10h-17zm17 0h2v20h-2zm-17 10h17v10h-17zm19 35h8v13h-8zm8 10h6v3h-6zm0-10h6v10h-6zm17 22h4v3h-4zm4 0h1v5h-1zm-4 3h4v2h-4zm-64-35h18v15h-18zm18 0h2v24h-2zm-18 15h18v9h-18zm64 8h4v6h-4zm4 0h1v9h-1zm-4 6h4v3h-4zm-11 12h6v6h-6zm6 5h5v1h-5zm0-5h5v5h-5zm-20-76h14v8h-14zm14 0h2v15h-2zm-14 8h14v7h-14zm0 7h13v11h-13zm13 0h1v17h-1zm-13 11h13v6h-13zm-19 26h11v15h-11zm11 11h8v4h-8zm0-11h8v11h-8zm33-3h4v5h-4zm4 0h1v9h-1zm-4 5h4v4h-4zm5 16h2v1h-2zm0-5h2v5h-2zm-49-89h17v16h-17zm17 0h1v24h-1zm-17 16h17v8h-17zm44 80h4v3h-4zm4 0h1v5h-1zm-4 3h4v2h-4zm-44-8h12v15h-12zm12 11h7v4h-7zm0-11h7v11h-7zm-66-119h31v72h-31zm31 0h3v100h-3zm-31 72h31v28h-31zm87 31h9v5h-9zm9-6h2v11h-2zm-9 0h9v6h-9zm10-30h7v9h-7zm7 0h1v17h-1zm-7 9h7v8h-7zm-10 8h10v9h-10zm10 0h1v13h-1zm-10 9h10v4h-10zm3-93h15v23h-15zm0 23h15v5h-15zm-15-23h15v28h-15zm28 109h2v4h-2zm0 7h2v1h-2zm0-3h2v3h-2zm-16 5h9v6h-9zm9 0h2v10h-2zm-9 6h9v4h-9zm-53-13h18v14h-18zm18 0h2v23h-2zm-18 14h18v9h-18zm0-97h18v19h-18zm18 0h2v32h-2zm-18 19h18v13h-18zm39 37h13v9h-13zm13 0h1v13h-1zm-13 9h13v4h-13zm0 17h9v13h-9zm9 0h5v13h-5z"/><path fill="#7798BF" class="highcharts-point" tabindex="-1" aria-hidden="true" style="outline:0" d="M556.5 27.5h21v4h-21zm21-28h2v32h-2zm-21 0h21v28h-21zm22 183h1v4h-1zm0-6h1v6h-1zm0 10h1v2h-1zm-8-70h7v5h-7zm7-15h1v20h-1zm-7 0h7v15h-7zm-64 58h44v8h-44zm44-46h6v54h-6zm-44 0h44v46h-44zm63-82h1v39h-1zm-13 36h13v3h-13zm0-36h13v36h-13zm0 147h13v1h-13zm13-15h1v16h-1zm-13 0h13v15h-13zm13-93h1v39h-1zm-13 31h13v8h-13zm0-31h13v31h-13zm21 118h1v3h-1zm0 3h1v3h-1zm-7-3h7v6h-7zm-14 5h13v1h-13zm13-14h1v15h-1zm-13 0h13v14h-13zm14-44h7v4h-7zm7-14h1v18h-1zm-7 0h7v14h-7zm0-24h7v4h-7zm7-19h1v23h-1zm-7 0h7v19h-7zm7 61h1v11h-1zm-7 9h7v2h-7zm0-9h7v9h-7zm8 49h1v2h-1zm-8-118h6v8h-6zm6-17h2v25h-2zm-6 0h6v17h-6zm8 111h1v2h-1zm0 2h1v2h-1zm0-10h1v8h-1zm-8-111h8v8h-8zm8-14h1v22h-1zm-8 0h8v14h-8zm7 119h1v10h-1zm-7 7h7v3h-7zm0-7h7v7h-7zm8-27h1v4h-1zm0 4h1v4h-1zm0-34h1v30h-1zm-32 88h10v13h-10zm0-14h10v14h-10zm-40 0h40v27h-40zm64 19h7v2h-7zm7-6h1v8h-1zm-7 0h7v6h-7zm8-97h1v6h-1zm0 6h1v4h-1zm0-36h1v30h-1zm-8 115h7v2h-7zm7-8h1v10h-1zm-7 0h7v8h-7zm-14-4h13v7h-13zm13-20h1v27h-1zm-13 0h13v20h-13zm22 54h1v2h-1zm0 2h1v2h-1zm0-18h1v2h-1zm0-6h1v6h-1zm0-16h1v2h-1zm0 2h1v2h-1zm0-23h1v21h-1zm-24-132h2v114h-2zm-48 106h48v8h-48zm0-106h48v106h-48zm64 180h7v1h-7zm7-9h1v10h-1zm-7 0h7v9h-7zm-1-61h1v27h-1zm-13 21h13v6h-13zm0-21h13v21h-13z"/><path fill="#aee" class="highcharts-point" tabindex="-1" aria-hidden="true" style="outline:0" d="M505.5 74.5h1v31h-1zm-16 29h16v2h-16zm0-29h16v29h-16zm13 119h4v1h-4zm-13-33h12v7h-12zm12-16h1v23h-1zm-12 0h12v16h-12zm-50-145h7v195h-7zm-166 181h166v14h-166zm0-181h166v181h-166zm229 190h4v1h-4zm0-6h4v6h-4zm-56-119h57v10h-57zm57-65h3v75h-3zm-57 0h57v65h-57zm43 190h12v5h-12zm12-7h1v12h-1zm-12 0h12v7h-12zm0-47h12v9h-12zm12-30h1v39h-1zm-12 0h12v30h-12zm13 76h3v2h-3zm3-18h1v20h-1zm-3 0h3v18h-3zm0-31h4v2h-4zm0-27h4v27h-4zm-13 71h12v6h-12zm12-9h1v15h-1zm-12 0h12v9h-12zm-43-53h40v14h-40zm40-40h3v54h-3zm-40 0h40v40h-40zm34 110h9v10h-9zm0-12h9v12h-9zm-34 0h34v22h-34zm56-16h4v6h-4zm0 6h4v1h-4zm0-28h4v22h-4zm3 56h1v3h-1zm-3 0h3v3h-3zm-56-25h38v7h-38zm38-37h5v44h-5zm-38 0h38v37h-38z"/><path fill="#f06" class="highcharts-point" tabindex="-1" aria-hidden="true" style="outline:0" d="M225.5 84.5h44v32h-44zm44-85h4v117h-4zm-44 0h44v85h-44zm0 324h35v5h-35zm35-36h2v41h-2zm-35 0h35v36h-35zm-226-99h201v87H-.5zm201-189h25v276h-25zm-201 0h201v189H-.5zm164 276h49v53h-49zm49 0h13v53h-13zm-213 0h164v53H-.5zm226-7h34v19h-34zm34-56h3v75h-3zm-34 0h34v56h-34zm37-21h11v27h-11zm0 27h11v13h-11zm0-102h11v75h-11zm0 199h11v7h-11zm0-11h11v11h-11zm0-73h11v73h-11zm-37-39h33v20h-33zm33-76h4v96h-4zm-33 0h33v76h-33zm37 206h5v6h-5zm5 5h6v1h-6zm0-5h6v5h-6z"/></g><g class="highcharts-level-group-2" data-z-index="998" aria-hidden="false" tabindex="-1" aria-label="Regions, series 1 of 1 with 738 data points." style="outline:0" cursor="pointer"><path fill="rgba(244,91,91,0.15)" class="highcharts-point highcharts-internal-node-interactive" tabindex="-1" aria-hidden="true" style="outline:0" d="M426.5 234.5h22v38h-22zm51 85h2v4h-2zm0-11h2v11h-2zm-99-19h48v39h-48zm48-95h29v40h-29zm0 78h22v28h-22zm44 36h7v13h-7zm7-13h2v13h-2zm-7-18h7v16h-7zm0 16h7v15h-7zm-44 7h22v28h-22zm51-23h2v18h-2zm-99-83h48v95h-48zm99 129h2v5h-2zm-29-11h22v16h-22zm0-39h22v20h-22zm0 20h22v19h-22zm7-99h24v40h-24zm-7 57h22v22h-22zm22 0h9v26h-9zm0 70h7v7h-7zm-22-87h31v17h-31z"/><path fill="rgba(128,133,233,0.15)" class="highcharts-point highcharts-internal-node-interactive" tabindex="-1" aria-hidden="true" style="outline:0" d="M572.5 317.5h6v6h-6zm0-8h6v8h-6zm-17-12h9v11h-9zm0 11h9v10h-9zm-13-35h13v15h-13zm13-34h12v13h-12zm17 24h7v8h-7zm-5-24h12v13h-12zm-3 13h8v11h-8zm14 55h1v7h-1zm-36 8h13v13h-13zm22-52h8v9h-8zm14 28h1v16h-1zm-6-39h7v11h-7zm-54-30h24v33h-24zm46 59h8v8h-8zm-85-11h39v33h-39zm63 32h13v13h-13zm0-14h13v14h-13zm36 38h1v2h-1zm-6-34h6v9h-6zm-8 13h8v8h-8zm-46-111h32v28h-32zm24 45h13v18h-13zm30 43h6v10h-6zm0 19h6v8h-6zm-8 12h8v8h-8zm14 7h1v3h-1zm0 3h1v3h-1zm0-9h1v6h-1zm-36-57h13v16h-13zm30 14h6v11h-6zm-54 34h24v23h-24zm37-37h9v15h-9zm9 30h8v7h-8zm-22-76h21v17h-21zm-63-28h39v76h-39zm76 58h9v16h-9zm9 20h8v9h-8zm8 51h6v5h-6zm-54-41h24v23h-24zm37 1h9v14h-9zm0 35h9v10h-9zm9-29h8v9h-8zm14-18h1v20h-1zm-60-16h24v27h-24zm46 66h8v7h-8zm-85-18h39v25h-39zm71-109h29v28h-29zm13 28h16v17h-16z"/><path fill="rgba(141,70,84,0.15)" class="highcharts-point highcharts-internal-node-interactive" tabindex="-1" aria-hidden="true" style="outline:0" d="M327.5 266.5h19v17h-19zm-20-12h20v27h-20zm53 7h10v17h-10zm11 62h5v5h-5zm-9-77h16v15h-16zm-16 71h14v11h-14zm17-95h15v24h-15zm13 104h2v2h-2zm-16-24h11v10h-11zm-33-19h19v15h-19zm49 39h2v4h-2zm-5-44h7v7h-7zm-26-56h18v24h-18zm-72 72h34v34h-34zm103 23h2v5h-2zm-5-32h5v10h-5zm-64-91h41v28h-41zm69 101h2v8h-2zm0-10h2v10h-2zm-49-39h19v20h-19zm19 45h14v13h-14zm25 22h5v5h-5zm-64-32h20v24h-20zm64 23h5v9h-5zm-11 18h11v6h-11zm-14-76h16v15h-16zm0 15h14v17h-14zm-19 37h19v15h-19zm44-3h5v9h-5zm5 16h2v6h-2zm-49-89h18v24h-18zm44 96h5v5h-5zm-44-5h19v15h-19zm-54-119h34v100h-34zm87 97h11v11h-11zm10-30h8v17h-8zm-10 17h11v13h-11zm-12-84h30v28h-30zm28 109h2v8h-2zm-16 9h11v10h-11zm-53-7h20v23h-20zm0-83h20v32h-20zm39 56h14v13h-14zm0 26h14v13h-14z"/><path fill="rgba(119,152,191,0.15)" class="highcharts-point highcharts-internal-node-interactive" tabindex="-1" aria-hidden="true" style="outline:0" d="M556.5-.5h23v32h-23zm22 183h1v4h-1zm0-6h1v6h-1zm0 10h1v2h-1zm-8-85h8v20h-8zm-64 12h50v54h-50zm50-82h14v39h-14zm0 132h14v16h-14zm0-93h14v39h-14zm14 118h8v6h-8zm-14-9h14v15h-14zm14-58h8v18h-8zm0-43h8v23h-8zm0 61h8v11h-8zm8 49h1v2h-1zm-8-135h8v25h-8zm8 103h1v12h-1zm-8-125h9v22h-9zm0 119h8v10h-8zm8-57h1v38h-1zm-72 74h50v27h-50zm64 13h8v8h-8zm8-127h1v40h-1zm-8 107h8v10h-8zm-14-24h14v27h-14zm22 54h1v2h-1zm0 2h1v2h-1zm0-24h1v8h-1zm0-37h1v25h-1zm-72-132h50v114h-50zm64 171h8v10h-8zm-14-61h14v27h-14z"/><path fill="rgba(170,238,238,0.15)" class="highcharts-point highcharts-internal-node-interactive" tabindex="-1" aria-hidden="true" style="outline:0" d="M489.5 74.5h17v31h-17zm13 119h4v1h-4zm-13-49h13v23h-13zm-216-145h173v195h-173zm229 184h4v7h-4zm-56-184h60v75h-60zm43 183h13v12h-13zm0-77h13v39h-13zm13 58h4v20h-4zm0-58h4v29h-4zm-13 62h13v15h-13zm-43-93h43v54h-43zm0 98h43v22h-43zm56-38h4v29h-4zm0 56h4v3h-4zm-56-62h43v44h-43z"/><path fill="rgba(255,0,102,0.15)" class="highcharts-point highcharts-internal-node-interactive" tabindex="-1" aria-hidden="true" style="outline:0" d="M225.5-.5h48v117h-48zm0 288h37v41h-37zM-.5-.5h226v276H-.5zm0 276h226v53H-.5zm226-63h37v75h-37zm37-96h11v115h-11zm0 115h11v91h-11zm-37-115h37v96h-37zm37 206h11v6h-11z"/></g><g class="highcharts-level-group-1" data-z-index="999" aria-hidden="true" stroke-width="3" cursor="pointer"><path fill="rgba(244,91,91,0.15)" class="highcharts-point highcharts-internal-node-interactive" tabindex="-1" aria-hidden="true" style="outline:0" d="M378.5 194.5h101v134h-101z"/><path fill="rgba(128,133,233,0.15)" class="highcharts-point highcharts-internal-node-interactive" tabindex="-1" aria-hidden="true" style="outline:0" d="M479.5 194.5h100v134h-100z"/><path fill="rgba(141,70,84,0.15)" class="highcharts-point highcharts-internal-node-interactive" tabindex="-1" aria-hidden="true" style="outline:0" d="M273.5 194.5h105v134h-105z"/><path fill="rgba(119,152,191,0.15)" class="highcharts-point highcharts-internal-node-interactive" tabindex="-1" aria-hidden="true" style="outline:0" d="M506.5-.5h73v195h-73z"/><path fill="rgba(170,238,238,0.15)" class="highcharts-point highcharts-internal-node-interactive" tabindex="-1" aria-hidden="true" style="outline:0" d="M273.5-.5h233v195h-233z"/><path fill="rgba(255,0,102,0.15)" class="highcharts-point highcharts-internal-node-interactive" tabindex="-1" aria-hidden="true" style="outline:0" d="M-.5-.5h274v329H-.5z"/></g></g></g><text x="300" text-anchor="middle" class="highcharts-title" data-z-index="4" style="color:#000;font-size:16px;font-weight:700;fill:#000" y="22" aria-hidden="true">Global Mortality Rate 2012, per 100 000 population</text><text x="300" text-anchor="middle" class="highcharts-subtitle" data-z-index="4" style="color:#000;fill:#000" y="42" aria-hidden="true">Click points to drill down. Source: <a><tspan>WHO</tspan></a>.</text><g class="highcharts-data-labels highcharts-series-0 highcharts-treemap-series highcharts-color-0 highcharts-tracker" data-z-index="6" aria-hidden="true"><text x="5" data-z-index="1" y="19" style="color:#000;font-size:14px;font-weight:700;fill:#000" transform="translate(389 296)" class="highcharts-label highcharts-data-label highcharts-data-label-color-undefined"><tspan class="highcharts-text-outline" fill="#FFF" stroke="#FFF" stroke-width="2" stroke-linejoin="round">Eastern<tspan dy="17" x="5">​</tspan>Mediterranean<tspan x="5" dy="-17">​</tspan></tspan>Eastern<tspan dy="17" x="5">​</tspan>Mediterranean</text><text x="5" data-z-index="1" y="19" style="color:#000;font-size:14px;font-weight:700;fill:#000" transform="translate(512 305)" class="highcharts-label highcharts-data-label highcharts-data-label-color-undefined"><tspan class="highcharts-text-outline" fill="#FFF" stroke="#FFF" stroke-width="2" stroke-linejoin="round">Europe<tspan x="5" dy="0">​</tspan></tspan>Europe</text><text x="5" data-z-index="1" y="19" style="color:#fff;font-size:14px;font-weight:700;fill:#fff" transform="translate(312 305)" class="highcharts-label highcharts-data-label highcharts-data-label-color-undefined"><tspan class="highcharts-text-outline" fill="#000" stroke="#000" stroke-width="2" stroke-linejoin="round">Africa<tspan x="5" dy="0">​</tspan></tspan>Africa</text><text x="5" data-z-index="1" y="19" style="color:#000;font-size:14px;font-weight:700;fill:#000" transform="translate(520 141)" class="highcharts-label highcharts-data-label highcharts-data-label-color-undefined"><tspan class="highcharts-text-outline" fill="#FFF" stroke="#FFF" stroke-width="2" stroke-linejoin="round">Americas<tspan x="5" dy="0">​</tspan></tspan>Americas</text><text x="5" data-z-index="1" y="19" style="color:#000;font-size:14px;font-weight:700;fill:#000" transform="translate(348 141)" class="highcharts-label highcharts-data-label highcharts-data-label-color-undefined"><tspan class="highcharts-text-outline" fill="#FFF" stroke="#FFF" stroke-width="2" stroke-linejoin="round">Western Pacific<tspan x="5" dy="0">​</tspan></tspan>Western Pacific</text><text x="5" data-z-index="1" y="19" style="color:#000;font-size:14px;font-weight:700;fill:#000" transform="translate(94 208)" class="highcharts-label highcharts-data-label highcharts-data-label-color-undefined"><tspan class="highcharts-text-outline" fill="#FFF" stroke="#FFF" stroke-width="2" stroke-linejoin="round">South-East Asia<tspan x="5" dy="0">​</tspan></tspan>South-East Asia</text></g></svg>