<svg class="highcharts-root" style="font-family:Signika,serif;font-size:12px" xmlns="http://www.w3.org/2000/svg" width="600" height="400" aria-label="Interactive chart" aria-hidden="false"><defs aria-hidden="true"><clipPath id="a"><path fill="none" d="M0 0h510v272H0z"/></clipPath></defs><rect fill="none" class="highcharts-background" width="600" height="400" rx="0" ry="0" aria-hidden="true"/><path fill="none" class="highcharts-plot-background" aria-hidden="true" d="M80 43h510v272H80z"/><g class="highcharts-grid highcharts-xaxis-grid" data-z-index="1" aria-hidden="true" fill="none"><path data-z-index="1" class="highcharts-grid-line" d="M152.5 43v272m73-272v272m73-272v272m72-272v272m73-272v272m73-272v272m73-272v272M79.5 43v272"/></g><g class="highcharts-grid highcharts-yaxis-grid" data-z-index="1" aria-hidden="true" fill="none" stroke="#e6e6e6"><path data-z-index="1" class="highcharts-grid-line" d="M80 315.5h510M80 42.5h510m-510 205h510m-510-68h510m-510-68h510"/></g><path fill="none" class="highcharts-plot-border" data-z-index="1" aria-hidden="true" d="M80 43h510v272H80z"/><g class="highcharts-axis highcharts-xaxis" data-z-index="2" aria-hidden="true"><path fill="none" class="highcharts-axis-line" stroke="#ccd6eb" data-z-index="7" d="M80 315.5h510"/></g><g class="highcharts-axis highcharts-yaxis" data-z-index="2" aria-hidden="true"><text x="24.686" data-z-index="7" text-anchor="middle" transform="rotate(-90 24.686 179)" class="highcharts-axis-title" style="color:#666;fill:#666" y="179">USD</text><path fill="none" class="highcharts-axis-line" data-z-index="7" d="M80 43v272"/></g><g class="highcharts-series-group" data-z-index="3" aria-hidden="false"><g class="highcharts-series highcharts-series-0 highcharts-waterfall-series highcharts-tracker" data-z-index=".1" clip-path="url(#a)" aria-hidden="false" transform="translate(80 43)"><path fill="none" stroke="#000" stroke-width="5" stroke-opacity=".05" class="highcharts-shadow" d="M15.5 239.5h43v33h-43z"/><path fill="none" stroke="#000" stroke-width="3" stroke-opacity=".1" class="highcharts-shadow" d="M15.5 239.5h43v33h-43z"/><path fill="none" stroke="#000" stroke-opacity=".15" class="highcharts-shadow" d="M15.5 239.5h43v33h-43z"/><path fill="#8d4654" stroke="#333" class="highcharts-point" tabindex="-1" aria-label="Start, 120,000." style="outline:0" d="M14.5 238.5h43v33h-43z"/><path fill="none" stroke="#000" stroke-width="5" stroke-opacity=".05" class="highcharts-shadow" d="M87.5 85.5h44v155h-44z"/><path fill="none" stroke="#000" stroke-width="3" stroke-opacity=".1" class="highcharts-shadow" d="M87.5 85.5h44v155h-44z"/><path fill="none" stroke="#000" stroke-opacity=".15" class="highcharts-shadow" d="M87.5 85.5h44v155h-44z"/><path fill="#8d4654" stroke="#333" class="highcharts-point" tabindex="-1" aria-label="Product Revenue, 569,000." style="outline:0" d="M86.5 84.5h44v155h-44z"/><path fill="none" stroke="#000" stroke-width="5" stroke-opacity=".05" class="highcharts-shadow" d="M160.5 22.5h44v63h-44z"/><path fill="none" stroke="#000" stroke-width="3" stroke-opacity=".1" class="highcharts-shadow" d="M160.5 22.5h44v63h-44z"/><path fill="none" stroke="#000" stroke-opacity=".15" class="highcharts-shadow" d="M160.5 22.5h44v63h-44z"/><path fill="#8d4654" stroke="#333" class="highcharts-point" tabindex="-1" aria-label="Service Revenue, 231,000." style="outline:0" d="M159.5 21.5h44v63h-44z"/><path fill="none" stroke="#000" stroke-width="5" stroke-opacity=".05" class="highcharts-shadow" d="M233.5 22.5h44v250h-44z"/><path fill="none" stroke="#000" stroke-width="3" stroke-opacity=".1" class="highcharts-shadow" d="M233.5 22.5h44v250h-44z"/><path fill="none" stroke="#000" stroke-opacity=".15" class="highcharts-shadow" d="M233.5 22.5h44v250h-44z"/><path fill="#8085e9" stroke="#333" class="highcharts-point highcharts-intermediate-sum" tabindex="-1" aria-label="Positive Balance, 920,000." style="outline:0" d="M232.5 21.5h44v250h-44z"/><path fill="none" stroke="#000" stroke-width="5" stroke-opacity=".05" class="highcharts-shadow" d="M306.5 22.5h44v93h-44z"/><path fill="none" stroke="#000" stroke-width="3" stroke-opacity=".1" class="highcharts-shadow" d="M306.5 22.5h44v93h-44z"/><path fill="none" stroke="#000" stroke-opacity=".15" class="highcharts-shadow" d="M306.5 22.5h44v93h-44z"/><path fill="#7798BF" stroke="#333" class="highcharts-point highcharts-negative" tabindex="-1" aria-label="Fixed Costs, -342,000." style="outline:0" d="M305.5 21.5h44v93h-44z"/><path fill="none" stroke="#000" stroke-width="5" stroke-opacity=".05" class="highcharts-shadow" d="M379.5 115.5h44v63h-44z"/><path fill="none" stroke="#000" stroke-width="3" stroke-opacity=".1" class="highcharts-shadow" d="M379.5 115.5h44v63h-44z"/><path fill="none" stroke="#000" stroke-opacity=".15" class="highcharts-shadow" d="M379.5 115.5h44v63h-44z"/><path fill="#7798BF" stroke="#333" class="highcharts-point highcharts-negative" tabindex="-1" aria-label="Variable Costs, -233,000." style="outline:0" d="M378.5 114.5h44v63h-44z"/><path fill="none" stroke="#000" stroke-width="5" stroke-opacity=".05" class="highcharts-shadow" d="M452.5 178.5h43v94h-43z"/><path fill="none" stroke="#000" stroke-width="3" stroke-opacity=".1" class="highcharts-shadow" d="M452.5 178.5h43v94h-43z"/><path fill="none" stroke="#000" stroke-opacity=".15" class="highcharts-shadow" d="M452.5 178.5h43v94h-43z"/><path fill="#8085e9" stroke="#333" class="highcharts-point highcharts-sum" tabindex="-1" aria-label="Balance, 345,000." style="outline:0" d="M451.5 177.5h43v94h-43z"/><path fill="none" d="M58.5 239.5h29m44-154h29m44-63h29m44 0h29m44 93h29m44 63h29" class="highcharts-graph highcharts-shadow" data-z-index="1" stroke="#000" stroke-width="5" stroke-dasharray="1,3" stroke-opacity=".05"/><path fill="none" d="M58.5 239.5h29m44-154h29m44-63h29m44 0h29m44 93h29m44 63h29" class="highcharts-graph highcharts-shadow" data-z-index="1" stroke="#000" stroke-width="3" stroke-dasharray="1,3" stroke-opacity=".1"/><path fill="none" d="M58.5 239.5h29m44-154h29m44-63h29m44 0h29m44 93h29m44 63h29" class="highcharts-graph highcharts-shadow" data-z-index="1" stroke="#000" stroke-dasharray="1,3" stroke-opacity=".15"/><path fill="none" d="M57.5 238.5h29m44-154h29m44-63h29m44 0h29m44 93h29m44 63h29" class="highcharts-graph" data-z-index="1" stroke="#333" stroke-dasharray="1,3"/></g></g><text x="300" text-anchor="middle" class="highcharts-title" data-z-index="4" style="color:#000;font-size:16px;font-weight:700;fill:#000" y="22" aria-hidden="true">Highcharts Waterfall</text><g class="highcharts-data-labels highcharts-series-0 highcharts-waterfall-series highcharts-tracker" data-z-index="6" aria-hidden="true"><text x="5" data-z-index="1" y="16" style="color:#fff;font-size:11px;font-weight:700;fill:#fff" transform="translate(100 287)" class="highcharts-label highcharts-data-label highcharts-data-label-color-undefined"><tspan class="highcharts-text-outline" fill="#000" stroke="#000" stroke-width="2" stroke-linejoin="round">120k<tspan x="5" dy="0">​</tspan></tspan>120k</text><text x="5" data-z-index="1" y="16" style="color:#fff;font-size:11px;font-weight:700;fill:#fff" transform="translate(172 194)" class="highcharts-label highcharts-data-label highcharts-data-label-color-undefined"><tspan class="highcharts-text-outline" fill="#000" stroke="#000" stroke-width="2" stroke-linejoin="round">569k<tspan x="5" dy="0">​</tspan></tspan>569k</text><text x="5" data-z-index="1" y="16" style="color:#fff;font-size:11px;font-weight:700;fill:#fff" transform="translate(245 85)" class="highcharts-label highcharts-data-label highcharts-data-label-color-undefined"><tspan class="highcharts-text-outline" fill="#000" stroke="#000" stroke-width="2" stroke-linejoin="round">231k<tspan x="5" dy="0">​</tspan></tspan>231k</text><text x="5" data-z-index="1" y="16" style="color:#000;font-size:11px;font-weight:700;fill:#000" transform="translate(318 178)" class="highcharts-label highcharts-data-label highcharts-data-label-color-undefined"><tspan class="highcharts-text-outline" fill="#FFF" stroke="#FFF" stroke-width="2" stroke-linejoin="round">920k<tspan x="5" dy="0">​</tspan></tspan>920k</text><text x="5" data-z-index="1" y="16" style="color:#000;font-size:11px;font-weight:700;fill:#000" transform="translate(389 100)" class="highcharts-label highcharts-data-label highcharts-data-label-color-undefined"><tspan class="highcharts-text-outline" fill="#FFF" stroke="#FFF" stroke-width="2" stroke-linejoin="round">-342k<tspan x="5" dy="0">​</tspan></tspan>-342k</text><text x="5" data-z-index="1" y="16" style="color:#000;font-size:11px;font-weight:700;fill:#000" transform="translate(462 178)" class="highcharts-label highcharts-data-label highcharts-data-label-color-undefined"><tspan class="highcharts-text-outline" fill="#FFF" stroke="#FFF" stroke-width="2" stroke-linejoin="round">-233k<tspan x="5" dy="0">​</tspan></tspan>-233k</text><text x="5" data-z-index="1" y="16" style="color:#000;font-size:11px;font-weight:700;fill:#000" transform="translate(537 256)" class="highcharts-label highcharts-data-label highcharts-data-label-color-undefined"><tspan class="highcharts-text-outline" fill="#FFF" stroke="#FFF" stroke-width="2" stroke-linejoin="round">345k<tspan x="5" dy="0">​</tspan></tspan>345k</text></g><g class="highcharts-axis-labels highcharts-xaxis-labels" data-z-index="7" aria-hidden="true" text-anchor="end"><text x="119.021" transform="rotate(-45 119.021 331)" style="color:#6e6e70;cursor:default;font-size:11px;fill:#6e6e70" y="331">Start</text><text x="191.878" transform="rotate(-45 191.878 331)" style="color:#6e6e70;cursor:default;font-size:11px;fill:#6e6e70" y="331">Product Revenue</text><text x="264.736" transform="rotate(-45 264.736 331)" style="color:#6e6e70;cursor:default;font-size:11px;fill:#6e6e70" y="331">Service Revenue</text><text x="337.593" transform="rotate(-45 337.593 331)" style="color:#6e6e70;cursor:default;font-size:11px;fill:#6e6e70" y="331">Positive Balance</text><text x="410.45" transform="rotate(-45 410.45 331)" style="color:#6e6e70;cursor:default;font-size:11px;fill:#6e6e70" y="331">Fixed Costs</text><text x="483.307" transform="rotate(-45 483.307 331)" style="color:#6e6e70;cursor:default;font-size:11px;fill:#6e6e70" y="331">Variable Costs</text><text x="556.164" transform="rotate(-45 556.164 331)" style="color:#6e6e70;cursor:default;font-size:11px;fill:#6e6e70" y="331">Balance</text></g><g class="highcharts-axis-labels highcharts-yaxis-labels" data-z-index="7" aria-hidden="true" text-anchor="end"><text x="65" style="color:#6e6e70;cursor:default;font-size:11px;fill:#6e6e70" y="320">0</text><text x="65" style="color:#6e6e70;cursor:default;font-size:11px;fill:#6e6e70" y="48">1 000k</text><text x="65" style="color:#6e6e70;cursor:default;font-size:11px;fill:#6e6e70" y="252">250k</text><text x="65" style="color:#6e6e70;cursor:default;font-size:11px;fill:#6e6e70" y="184">500k</text><text x="65" style="color:#6e6e70;cursor:default;font-size:11px;fill:#6e6e70" y="116">750k</text></g></svg>