<svg class="highcharts-root" style="font-family:Signika,serif;font-size:12px" xmlns="http://www.w3.org/2000/svg" width="600" height="300" aria-label="Interactive chart" aria-hidden="false"><defs aria-hidden="true"><clipPath id="a"><path fill="none" d="M0 0h506v183H0z"/></clipPath><clipPath id="b"><path fill="none" d="M4.5 20.5h43v20h-43z"/></clipPath></defs><rect fill="none" class="highcharts-background" width="600" height="300" rx="0" ry="0" aria-hidden="true"/><path fill="none" class="highcharts-plot-background" aria-hidden="true" d="M84 43h506v183H84z"/><g class="highcharts-grid highcharts-xaxis-grid" data-z-index="1" aria-hidden="true" fill="none"><path data-z-index="1" class="highcharts-grid-line" d="M134.5 43v183m109-183v183m109-183v183m108-183v183m109-183v183"/></g><g class="highcharts-grid highcharts-yaxis-grid" data-z-index="1" aria-hidden="true" fill="none" stroke="#e6e6e6"><path data-z-index="1" class="highcharts-grid-line" d="M84 104.5h506m-506 61h506m-506 61h506M84 42.5h506"/></g><path fill="none" class="highcharts-plot-border" data-z-index="1" aria-hidden="true" d="M84 43h506v183H84z"/><g class="highcharts-axis highcharts-xaxis" data-z-index="2" aria-hidden="true" fill="none" stroke="#ccd6eb"><path class="highcharts-tick" d="M134.5 226v10m109-10v10m109-10v10m108-10v10m109-10v10"/><path class="highcharts-axis-line" data-z-index="7" d="M84 226.5h506"/></g><g class="highcharts-axis highcharts-yaxis" data-z-index="2" aria-hidden="true"><path fill="none" class="highcharts-axis-line" data-z-index="7" d="M84 43v183"/></g><g class="highcharts-series-group" data-z-index="3" aria-hidden="false"><g class="highcharts-series highcharts-series-0 highcharts-xrange-series highcharts-tracker" data-z-index=".1" clip-path="url(#a)" aria-hidden="false" transform="translate(84 43)"><g class="highcharts-point highcharts-color-0" tabindex="-1" aria-label="1. Prototyping, Fri Nov 21 2014 to Tue Dec 02 2014." style="outline:0"><rect x="4.5" y="20.5" width="171" height="20" rx="3" ry="3" fill="none" class="highcharts-point highcharts-color-0 highcharts-partfill-original highcharts-shadow" stroke="#000" stroke-width="5" stroke-opacity=".05" transform="translate(1 1)"/><rect x="4.5" y="20.5" width="171" height="20" rx="3" ry="3" fill="none" class="highcharts-point highcharts-color-0 highcharts-partfill-original highcharts-shadow" stroke="#000" stroke-width="3" stroke-opacity=".1" transform="translate(1 1)"/><rect x="4.5" y="20.5" width="171" height="20" rx="3" ry="3" fill="none" class="highcharts-point highcharts-color-0 highcharts-partfill-original highcharts-shadow" stroke="#000" stroke-opacity=".15" transform="translate(1 1)"/><rect x="4.5" y="20.5" width="171" height="20" rx="3" ry="3" fill="#f45b5b" class="highcharts-point highcharts-color-0 highcharts-partfill-original" stroke="gray"/><rect x="4.5" y="20.5" width="171" height="20" rx="3" ry="3" fill="none" class="highcharts-partfill-overlay highcharts-shadow" clip-path="url(#b)" stroke="#000" stroke-width="5" stroke-opacity=".05" transform="translate(1 1)"/><rect x="4.5" y="20.5" width="171" height="20" rx="3" ry="3" fill="none" class="highcharts-partfill-overlay highcharts-shadow" clip-path="url(#b)" stroke="#000" stroke-width="3" stroke-opacity=".1" transform="translate(1 1)"/><rect x="4.5" y="20.5" width="171" height="20" rx="3" ry="3" fill="none" class="highcharts-partfill-overlay highcharts-shadow" clip-path="url(#b)" stroke="#000" stroke-opacity=".15" transform="translate(1 1)"/><rect x="4.5" y="20.5" width="171" height="20" rx="3" ry="3" fill="#A80F0F" class="highcharts-partfill-overlay" clip-path="url(#b)" stroke="gray"/></g><g class="highcharts-point highcharts-color-1" tabindex="-1" aria-label="2. Development, Tue Dec 02 2014 to Fri Dec 05 2014." style="outline:0"><rect x="175.5" y="81.5" width="46" height="20" rx="3" ry="3" fill="none" class="highcharts-point highcharts-color-1 highcharts-partfill-original highcharts-shadow" stroke="#000" stroke-width="5" stroke-opacity=".05" transform="translate(1 1)"/><rect x="175.5" y="81.5" width="46" height="20" rx="3" ry="3" fill="none" class="highcharts-point highcharts-color-1 highcharts-partfill-original highcharts-shadow" stroke="#000" stroke-width="3" stroke-opacity=".1" transform="translate(1 1)"/><rect x="175.5" y="81.5" width="46" height="20" rx="3" ry="3" fill="none" class="highcharts-point highcharts-color-1 highcharts-partfill-original highcharts-shadow" stroke="#000" stroke-opacity=".15" transform="translate(1 1)"/><rect x="175.5" y="81.5" width="46" height="20" rx="3" ry="3" fill="#8085e9" class="highcharts-point highcharts-color-1 highcharts-partfill-original" stroke="gray"/></g><g class="highcharts-point highcharts-color-2" tabindex="-1" aria-label="3. Testing, Mon Dec 08 2014 to Tue Dec 09 2014." style="outline:0"><rect x="268.5" y="142.5" width="16" height="20" rx="3" ry="3" fill="none" class="highcharts-point highcharts-color-2 highcharts-partfill-original highcharts-shadow" stroke="#000" stroke-width="5" stroke-opacity=".05" transform="translate(1 1)"/><rect x="268.5" y="142.5" width="16" height="20" rx="3" ry="3" fill="none" class="highcharts-point highcharts-color-2 highcharts-partfill-original highcharts-shadow" stroke="#000" stroke-width="3" stroke-opacity=".1" transform="translate(1 1)"/><rect x="268.5" y="142.5" width="16" height="20" rx="3" ry="3" fill="none" class="highcharts-point highcharts-color-2 highcharts-partfill-original highcharts-shadow" stroke="#000" stroke-opacity=".15" transform="translate(1 1)"/><rect x="268.5" y="142.5" width="16" height="20" rx="3" ry="3" fill="#8d4654" class="highcharts-point highcharts-color-2 highcharts-partfill-original" stroke="gray"/></g><g class="highcharts-point highcharts-color-1" tabindex="-1" aria-label="4. Development, Tue Dec 09 2014 to Fri Dec 19 2014." style="outline:0"><rect x="284.5" y="81.5" width="155" height="20" rx="3" ry="3" fill="none" class="highcharts-point highcharts-color-1 highcharts-partfill-original highcharts-shadow" stroke="#000" stroke-width="5" stroke-opacity=".05" transform="translate(1 1)"/><rect x="284.5" y="81.5" width="155" height="20" rx="3" ry="3" fill="none" class="highcharts-point highcharts-color-1 highcharts-partfill-original highcharts-shadow" stroke="#000" stroke-width="3" stroke-opacity=".1" transform="translate(1 1)"/><rect x="284.5" y="81.5" width="155" height="20" rx="3" ry="3" fill="none" class="highcharts-point highcharts-color-1 highcharts-partfill-original highcharts-shadow" stroke="#000" stroke-opacity=".15" transform="translate(1 1)"/><rect x="284.5" y="81.5" width="155" height="20" rx="3" ry="3" fill="#8085e9" class="highcharts-point highcharts-color-1 highcharts-partfill-original" stroke="gray"/></g><g class="highcharts-point highcharts-color-2" tabindex="-1" aria-label="5. Testing, Wed Dec 10 2014 to Tue Dec 23 2014." style="outline:0"><rect x="299.5" y="142.5" width="202" height="20" rx="3" ry="3" fill="none" class="highcharts-point highcharts-color-2 highcharts-partfill-original highcharts-shadow" stroke="#000" stroke-width="5" stroke-opacity=".05" transform="translate(1 1)"/><rect x="299.5" y="142.5" width="202" height="20" rx="3" ry="3" fill="none" class="highcharts-point highcharts-color-2 highcharts-partfill-original highcharts-shadow" stroke="#000" stroke-width="3" stroke-opacity=".1" transform="translate(1 1)"/><rect x="299.5" y="142.5" width="202" height="20" rx="3" ry="3" fill="none" class="highcharts-point highcharts-color-2 highcharts-partfill-original highcharts-shadow" stroke="#000" stroke-opacity=".15" transform="translate(1 1)"/><rect x="299.5" y="142.5" width="202" height="20" rx="3" ry="3" fill="#8d4654" class="highcharts-point highcharts-color-2 highcharts-partfill-original" stroke="gray"/></g></g></g><text x="300" text-anchor="middle" class="highcharts-title" data-z-index="4" style="color:#000;font-size:16px;font-weight:700;fill:#000" y="22" aria-hidden="true">Highcharts X-range</text><g class="highcharts-data-labels highcharts-series-0 highcharts-xrange-series highcharts-tracker" data-z-index="6" aria-hidden="true"><text x="5" data-z-index="1" y="16" style="color:#000;font-size:11px;font-weight:700;fill:#000" transform="translate(158 62)" class="highcharts-label highcharts-data-label highcharts-data-label-color-0"><tspan class="highcharts-text-outline" fill="#FFF" stroke="#FFF" stroke-width="2" stroke-linejoin="round">25%<tspan x="5" dy="0">​</tspan></tspan>25%</text></g><g class="highcharts-legend highcharts-no-tooltip" data-z-index="7" transform="translate(257 258)" aria-hidden="true"><rect fill="#E0E0E8" class="highcharts-legend-box" rx="0" ry="0" width="86" height="27"/><g class="highcharts-legend-item highcharts-xrange-series highcharts-color-undefined highcharts-series-0" data-z-index="1" transform="translate(8 3)"><text x="21" data-z-index="2" y="16" style="color:#333;cursor:pointer;font-size:13px;font-weight:700;fill:#333">Project 1</text><rect x="1.5" y="4" width="13" height="13" fill="#ccc" rx="6.5" ry="6.5" class="highcharts-point" data-z-index="3"/></g></g><g class="highcharts-axis-labels highcharts-xaxis-labels" data-z-index="7" aria-hidden="true" text-anchor="middle"><text x="135.468" style="color:#6e6e70;cursor:default;font-size:11px;fill:#6e6e70" y="245">24. Nov</text><text x="243.985" style="color:#6e6e70;cursor:default;font-size:11px;fill:#6e6e70" y="245">1. Dec</text><text x="352.502" style="color:#6e6e70;cursor:default;font-size:11px;fill:#6e6e70" y="245">8. Dec</text><text x="461.02" style="color:#6e6e70;cursor:default;font-size:11px;fill:#6e6e70" y="245">15. Dec</text><text x="569.537" style="color:#6e6e70;cursor:default;font-size:11px;fill:#6e6e70" y="245">22. Dec</text></g><g class="highcharts-axis-labels highcharts-yaxis-labels" data-z-index="7" aria-hidden="true" text-anchor="end"><text x="69" style="color:#6e6e70;cursor:default;font-size:11px;fill:#6e6e70" y="78">Prototyping</text><text x="69" style="color:#6e6e70;cursor:default;font-size:11px;fill:#6e6e70" y="139">Development</text><text x="69" style="color:#6e6e70;cursor:default;font-size:11px;fill:#6e6e70" y="200">Testing</text></g></svg>