<svg xmlns="http://www.w3.org/2000/svg" viewBox="0 0 240 240"><defs><style>.cls-1{fill:#f0f0f0;}.cls-2{fill:#8087e8;}.cls-3{fill:#a3edba;}</style></defs><g id="icon"><polygon class="cls-1" points="220 240 20 240 0 220 0 20 20 0 220 0 240 20 240 220 220 240 220 240"/><path class="cls-2" d="M189,108.33A70.06,70.06,0,0,0,131.67,51v57.36Z"/><path class="cls-2" d="M108.33,51A70.06,70.06,0,0,0,51,108.33h57.36Z"/><path class="cls-2" d="M131.67,189A70.06,70.06,0,0,0,189,131.67H131.67Z"/><path class="cls-2" d="M51,131.67A70.06,70.06,0,0,0,108.33,189V131.67Z"/><path class="cls-3" d="M189,108.33H131.67V51a70.69,70.69,0,0,0-23.34,0v57.36H51a70.69,70.69,0,0,0,0,23.34h57.36V189a70.69,70.69,0,0,0,23.34,0V131.67H189a70.69,70.69,0,0,0,0-23.34Z"/><path class="cls-1" d="M120,85a35,35,0,1,0,35,35,35,35,0,0,0-35-35Z"/></g></svg>