<svg xmlns="http://www.w3.org/2000/svg" viewBox="0 0 240 240"><defs><style>.cls-1{fill:#a3edba;}.cls-2{fill:#201836;}</style></defs><g id="icon"><polygon class="cls-1" points="152.15 0 87.85 0 32.15 32.15 0 87.85 0 152.15 32.15 207.85 87.85 240 152.15 240 207.85 207.85 240 152.15 240 87.85 207.85 32.15 152.15 0"/><rect class="cls-2" x="70" y="70" width="20" height="20" rx="10"/><rect class="cls-2" x="150" y="70" width="20" height="20" rx="10"/><polygon class="cls-2" points="60 140 80 160 80 160 80 160 80 160 110 160 110 180 130 180 130 160 160 160 160 160 180 140 180 110 170 110 170 140 70 140 70 110 60 110 60 140 60 140 60 140"/></g></svg>