<svg width="480" height="480" viewBox="0 0 480 480" fill="none" xmlns="http://www.w3.org/2000/svg">
<g clip-path="url(#clip0_8726_115924)">
<path d="M480 480L480 0L0 0L0 480L480 480Z" fill="#181228"/>
<path d="M480 240V0L0 0V240L480 240Z" fill="#46465C"/>
<path d="M332.959 382.864L332.961 142.066L92.1624 142.064L92.1607 382.863L332.959 382.864Z" fill="#8087E8"/>
<path d="M276.118 348.314C353.481 348.314 416.195 285.6 416.195 208.237C416.195 130.875 353.481 68.16 276.118 68.16C198.756 68.16 136.041 130.875 136.041 208.237C136.041 285.6 198.756 348.314 276.118 348.314Z" fill="#A3EDBA"/>
<path d="M139.465 238.726C144.973 264.069 157.578 288.18 177.28 307.882C219.431 350.033 281.759 359.696 333.172 336.889L333.172 239.685" fill="#181228"/>
<path d="M332.578 239.684L332.579 142.661L152.242 142.66C136.33 172.33 131.872 206.523 138.871 238.726" fill="#46465C"/>
<path d="M309.17 208.854L294.552 190.393L293.596 228.12L309.17 208.854Z" fill="#6699A1"/>
<path d="M233.573 274.519L218 293.784L245.011 288.966L233.573 274.519Z" fill="#30426B"/>
<path d="M211.162 242.902L263.317 269.845L238.175 238.087L211.162 242.902Z" fill="#6699A1"/>
<path d="M225.514 187.095L236.951 201.542L236.952 201.542L258.993 197.615L254.916 150.72L225.514 187.094L225.514 187.095Z" fill="#78758C"/>
<path d="M218.049 280.367L174.535 240.502L178.613 287.398L218.049 280.367Z" fill="#A3EDBA"/>
<path d="M192.92 196.708L170.881 200.637L196.023 232.395L192.92 196.707L192.92 196.707L192.92 196.708Z" fill="#8087E8"/>
</g>
<defs>
<clipPath id="clip0_8726_115924">
<rect width="480" height="480" fill="white"/>
</clipPath>
</defs>
</svg>
