<svg width="100%" height="100%" viewBox="0 0 30 30" fill="none" xmlns="http://www.w3.org/2000/svg">
<path d="M23.2368 10.7146C22.9625 10.6227 22.6883 10.5358 22.414 10.4541C22.4597 10.2652 22.5004 10.0762 22.541 9.88726C23.1656 6.84357 22.7543 4.39739 21.3679 3.5905C20.0324 2.81936 17.8539 3.62114 15.65 5.55154C15.4316 5.74047 15.2184 5.93969 15.0152 6.13882C14.8781 6.00604 14.736 5.87326 14.5938 5.7456C12.2832 3.68242 9.96756 2.81428 8.58122 3.62625C7.25077 4.40253 6.85466 6.70577 7.41326 9.58595C7.46912 9.87194 7.53006 10.1528 7.60115 10.4388C7.27614 10.5307 6.95623 10.6329 6.65662 10.7401C3.94491 11.6849 2 13.1761 2 14.7184C2 16.3117 4.07184 17.9102 6.89027 18.8805C7.11879 18.9572 7.34734 19.0337 7.58095 19.1001C7.50468 19.4065 7.43874 19.7078 7.37782 20.0193C6.84461 22.8536 7.26101 25.1006 8.59149 25.8718C9.96257 26.6684 12.268 25.8514 14.5125 23.875C14.6902 23.7167 14.868 23.5532 15.0457 23.3796C15.2691 23.5992 15.5027 23.8086 15.7363 24.0129C17.9098 25.8922 20.0578 26.6531 21.3832 25.882C22.7543 25.0853 23.2012 22.6698 22.6223 19.7282C22.5766 19.5035 22.5258 19.2738 22.4699 19.0388C22.6324 18.9928 22.7899 18.9418 22.9473 18.8907C25.8773 17.9153 28 16.3373 28 14.7184C28 13.171 25.9992 11.6696 23.2368 10.7146V10.7146ZM16.3661 6.37885C18.2551 4.72424 20.0172 4.0756 20.8196 4.54044C21.6778 5.03579 22.0078 7.03767 21.4696 9.66772C21.434 9.84136 21.3985 10.0099 21.3528 10.1784C20.2268 9.92183 19.0851 9.74095 17.9352 9.63702C17.2756 8.68523 16.5529 7.77927 15.772 6.92528C15.97 6.7363 16.1629 6.5576 16.3661 6.37885ZM10.4907 17.3689C10.7497 17.8131 11.0137 18.2574 11.293 18.6915C10.5016 18.605 9.7151 18.4771 8.9368 18.3085C9.1743 17.5374 9.45056 16.7789 9.76453 16.036C9.99812 16.4854 10.2368 16.9297 10.4907 17.3689ZM8.95204 11.2253C9.68329 11.0618 10.4602 10.929 11.2678 10.8269C10.9986 11.2508 10.7346 11.6849 10.4857 12.1241C10.2369 12.5582 9.99312 13.0025 9.76465 13.4519C9.44472 12.691 9.17559 11.9453 8.95215 11.2253L8.95204 11.2253ZM10.3434 14.7439C10.6785 14.0392 11.0442 13.3497 11.4302 12.6705C11.8161 11.9913 12.2325 11.3325 12.6692 10.684C13.4309 10.6278 14.2079 10.5971 15.0001 10.5971C15.7922 10.5971 16.5743 10.6278 17.3309 10.684C17.7626 11.3274 18.1739 11.9862 18.5649 12.6603C18.9559 13.3344 19.3233 14.0222 19.6669 14.7235C19.3266 15.4282 18.961 16.1228 18.57 16.8071C18.1841 17.4863 17.7727 18.1451 17.3411 18.7988C16.5845 18.8549 15.7973 18.8805 14.9999 18.8805C14.2026 18.8805 13.4307 18.8549 12.6843 18.809C12.2425 18.1604 11.8261 17.4965 11.4351 16.8173C11.0441 16.1381 10.6836 15.4487 10.3433 14.7439H10.3434ZM19.5145 17.3586C19.7735 16.9092 20.0173 16.4547 20.2559 15.9951C20.5802 16.734 20.8666 17.4891 21.1141 18.2574C20.3265 18.437 19.5297 18.5734 18.7274 18.666C19.0016 18.237 19.2606 17.7978 19.5145 17.3586ZM20.2458 13.4519C20.0071 13.0025 19.7633 12.553 19.5094 12.1138C19.2606 11.6798 19.0017 11.2508 18.7325 10.8269C19.5158 10.9234 20.2938 11.0598 21.0634 11.2355C20.8295 11.9881 20.5566 12.7279 20.2458 13.4519ZM15.0102 7.70663C15.543 8.28895 16.0447 8.89922 16.5133 9.53488C15.5079 9.48891 14.4973 9.48891 13.4919 9.53488C13.9895 8.87609 14.5024 8.26327 15.0102 7.70663V7.70663ZM9.11961 4.57613C9.97273 4.07564 11.8669 4.79061 13.8626 6.5678C13.9895 6.68015 14.1165 6.80273 14.2486 6.92528C13.4628 7.77906 12.7349 8.68501 12.07 9.63702C10.9224 9.74002 9.78245 9.91742 8.65751 10.1681C8.5915 9.90768 8.53569 9.64213 8.47983 9.37657C8.00247 6.90485 8.31727 5.04085 9.11961 4.57613V4.57613ZM7.87548 18.0378C7.66219 17.9765 7.454 17.9102 7.24579 17.8387C6.09572 17.4978 5.01325 16.9586 4.04659 16.2453C3.79302 16.0689 3.57767 15.8427 3.41357 15.5803C3.24948 15.3178 3.14005 15.0246 3.0919 14.7183C3.0919 13.7838 4.69659 12.5887 7.0122 11.7767C7.30167 11.6746 7.59619 11.5827 7.89071 11.4959C8.23594 12.6042 8.6515 13.6891 9.13485 14.7439C8.6464 15.8141 8.22577 16.9142 7.87548 18.0379V18.0378ZM13.7965 23.0426C12.9593 23.8144 11.9886 24.4254 10.9324 24.8453C10.6542 24.9795 10.3514 25.0547 10.043 25.0661C9.73463 25.0776 9.42719 25.025 9.13987 24.9117C8.33244 24.4418 7.99728 22.6391 8.45433 20.2134C8.51018 19.9274 8.57113 19.6413 8.64222 19.3605C9.77882 19.6064 10.9309 19.7737 12.0902 19.8609C12.7618 20.8169 13.4947 21.7279 14.284 22.5881C14.1216 22.7464 13.959 22.8995 13.7965 23.0426V23.0426ZM15.0406 21.8016C14.5227 21.2398 14.0047 20.6168 13.502 19.9478C13.9895 19.9682 14.4922 19.9784 15 19.9784C15.523 19.9784 16.036 19.9682 16.5439 19.9426C16.0767 20.5893 15.5749 21.2099 15.0407 21.8016H15.0406ZM21.6778 23.3337C21.6544 23.6436 21.5679 23.9454 21.4238 24.2203C21.2797 24.4953 21.0809 24.7376 20.8399 24.9321C20.0324 25.4019 18.311 24.7891 16.4524 23.1856C16.2391 23.0017 16.0258 22.8025 15.8075 22.5982C16.5836 21.7365 17.2996 20.8219 17.9504 19.861C19.1159 19.7638 20.2731 19.5846 21.4137 19.3247C21.4645 19.5341 21.5102 19.7435 21.5508 19.9478C21.7987 21.0591 21.8417 22.2067 21.6778 23.3337V23.3337ZM22.602 17.8437C22.4598 17.8897 22.3177 17.9357 22.1703 17.9765C21.8123 16.8623 21.3797 15.7738 20.8754 14.7183C21.3609 13.6767 21.7765 12.6036 22.1196 11.5061C22.3836 11.5828 22.6375 11.6644 22.8813 11.7461C25.2477 12.5632 26.9082 13.7787 26.9082 14.7081C26.9083 15.7091 25.136 17.0012 22.602 17.8438L22.602 17.8437ZM15 17.0777C15.46 17.0777 15.9097 16.9405 16.2922 16.6835C16.6746 16.4265 16.9727 16.0612 17.1488 15.6338C17.3248 15.2064 17.3708 14.7362 17.2811 14.2824C17.1913 13.8287 16.9698 13.412 16.6446 13.0849C16.3193 12.7578 15.9049 12.535 15.4538 12.4448C15.0026 12.3545 14.535 12.4009 14.11 12.5779C13.685 12.7549 13.3218 13.0547 13.0662 13.4393C12.8106 13.8239 12.6742 14.2762 12.6742 14.7388C12.6742 15.0459 12.7343 15.3501 12.8512 15.6339C12.968 15.9177 13.1394 16.1756 13.3554 16.3928C13.5713 16.61 13.8277 16.7822 14.1099 16.8998C14.3921 17.0173 14.6946 17.0777 15 17.0777V17.0777Z" fill="#56CCF2"/>
</svg>
