<svg width="940" height="869" viewBox="0 0 940 869" fill="none" xmlns="http://www.w3.org/2000/svg">
<mask id="mask0_6149_85383" style="mask-type:alpha" maskUnits="userSpaceOnUse" x="107" y="0" width="797" height="869">
<path d="M107 869L904 869L840 570L787 533L408 0H144L107 869Z" fill="#C4C4C4"/>
</mask>
<g mask="url(#mask0_6149_85383)">
<path d="M868.799 342.921C868.888 340.283 868.948 337.637 868.978 334.984L868.478 334.979C868.492 333.654 868.5 332.328 868.5 331C868.5 329.672 868.492 328.345 868.478 327.021L868.978 327.015C868.948 324.362 868.888 321.717 868.799 319.079L868.299 319.095C868.209 316.455 868.09 313.821 867.942 311.196L868.441 311.168C868.292 308.516 868.112 305.873 867.903 303.238L867.404 303.278C867.196 300.646 866.957 298.023 866.69 295.409L867.187 295.358C866.917 292.716 866.617 290.082 866.288 287.457L865.792 287.52C865.462 284.898 865.104 282.285 864.717 279.682L865.211 279.608C864.821 276.985 864.401 274.372 863.952 271.768L863.46 271.853C863.011 269.247 862.532 266.651 862.025 264.066L862.516 263.969C862.006 261.37 861.467 258.781 860.9 256.203L860.411 256.31C859.843 253.727 859.245 251.154 858.619 248.592L859.104 248.473C858.476 245.903 857.819 243.343 857.134 240.794L856.651 240.924C855.964 238.369 855.248 235.825 854.504 233.293L854.984 233.152C854.238 230.615 853.464 228.089 852.663 225.575L852.186 225.727C851.382 223.206 850.55 220.697 849.69 218.201L850.162 218.038C849.301 215.538 848.412 213.051 847.495 210.576L847.026 210.75C846.107 208.269 845.16 205.801 844.186 203.346L844.651 203.162C843.675 200.703 842.672 198.258 841.643 195.827L841.182 196.022C840.151 193.587 839.092 191.166 838.007 188.76L838.463 188.554C837.376 186.142 836.261 183.745 835.121 181.362L834.67 181.578C833.529 179.194 832.361 176.825 831.167 174.471L831.613 174.245C830.417 171.885 829.194 169.54 827.945 167.211L827.505 167.448C826.256 165.119 824.982 162.806 823.683 160.509L824.118 160.263C822.815 157.96 821.487 155.673 820.133 153.402L819.703 153.658C818.351 151.39 816.973 149.137 815.571 146.901L815.995 146.636C814.589 144.394 813.158 142.17 811.703 139.962L811.285 140.237C809.831 138.033 808.353 135.845 806.851 133.675L807.262 133.39C805.757 131.215 804.227 129.057 802.673 126.917L802.269 127.211C800.717 125.074 799.142 122.955 797.543 120.854L797.941 120.551C796.339 118.446 794.714 116.36 793.066 114.292L792.675 114.603C791.029 112.538 789.36 110.492 787.668 108.465L788.052 108.144C786.358 106.114 784.641 104.102 782.901 102.11L782.525 102.439C780.788 100.45 779.029 98.4804 777.248 96.5305L777.617 96.1933C775.833 94.241 774.028 92.3085 772.202 90.3963L771.84 90.7416C770.016 88.8322 768.171 86.9429 766.304 85.0742L766.658 84.7209C764.789 82.8503 762.9 81.0004 760.99 79.1714L760.644 79.5325C758.737 77.7065 756.809 75.9014 754.861 74.1176L755.198 73.7488C753.249 71.9634 751.278 70.1994 749.288 68.457L748.959 68.8332C746.973 67.0942 744.967 65.3768 742.941 63.6813L743.262 63.2979C741.234 61.6011 739.188 59.9262 737.122 58.2737L736.809 58.6642C734.748 57.0156 732.668 55.3892 730.569 53.7855L730.872 53.3882C728.771 51.7831 726.652 50.2005 724.514 48.6411L724.219 49.045C722.087 47.4901 719.937 45.958 717.769 44.4493L718.055 44.0389C715.885 42.5284 713.696 41.0413 711.49 39.5778L711.214 39.9944C709.016 38.5363 706.8 37.1016 704.568 35.6909L704.835 35.2682C702.599 33.8556 700.347 32.4669 698.077 31.1025L697.82 31.531C695.56 30.1722 693.283 28.8376 690.99 27.5276L691.238 27.0934C688.942 25.7818 686.63 24.4947 684.303 23.2325L684.064 23.6721C681.746 22.415 679.412 21.1827 677.062 19.9755L677.291 19.5308C674.94 18.3229 672.574 17.1401 670.192 15.9827L669.974 16.4324C667.602 15.2795 665.214 14.1519 662.813 13.0499L663.021 12.5955C660.62 11.4938 658.204 10.4177 655.774 9.36755L655.575 9.82654C653.154 8.77997 650.718 7.75922 648.268 6.76471L648.456 6.30139C646.009 5.30811 643.549 4.34094 641.075 3.40021L640.898 3.86755C638.431 2.92938 635.95 2.01746 633.457 1.13232L633.624 0.661133C631.137 -0.221741 628.638 -1.078 626.126 -1.90747L625.969 -1.43274C623.461 -2.2608 620.941 -3.06207 618.408 -3.83618L618.554 -4.31433C616.033 -5.08502 613.5 -5.82892 610.955 -6.54553L610.819 -6.06421C608.278 -6.77985 605.725 -7.46826 603.16 -8.12915L603.285 -8.61334C600.732 -9.27142 598.167 -9.90222 595.591 -10.5054L595.477 -10.0186C592.909 -10.6203 590.329 -11.1945 587.739 -11.7409L587.842 -12.2301C585.26 -12.7747 582.668 -13.2917 580.066 -13.7808L579.974 -13.2894C577.383 -13.7764 574.783 -14.2355 572.173 -14.6667L572.254 -15.16C569.649 -15.5904 567.033 -15.9929 564.409 -16.3672L564.338 -15.8722C561.732 -16.2439 559.116 -16.5877 556.492 -16.9033L556.552 -17.3997C553.926 -17.7155 551.292 -18.0031 548.649 -18.2621L548.6 -17.7645C545.984 -18.021 543.359 -18.2495 540.727 -18.4497L540.765 -18.9483C538.128 -19.1488 535.484 -19.321 532.832 -19.4645L532.805 -18.9653C530.179 -19.1074 527.546 -19.2215 524.906 -19.3071L524.922 -19.8069C522.283 -19.8925 519.637 -19.9498 516.984 -19.9785L516.979 -19.4785C515.654 -19.4928 514.328 -19.5 513 -19.5C511.672 -19.5 510.345 -19.4928 509.02 -19.4785L509.015 -19.9785C506.362 -19.9498 503.716 -19.8925 501.078 -19.8069L501.094 -19.3071C498.453 -19.2215 495.82 -19.1074 493.195 -18.9653L493.168 -19.4645C490.516 -19.321 487.871 -19.1487 485.235 -18.9482L485.273 -18.4497C482.64 -18.2495 480.016 -18.0209 477.399 -17.7645L477.351 -18.2621C474.708 -18.003 472.073 -17.7154 469.448 -17.3997L469.507 -16.9033C466.883 -16.5876 464.268 -16.2438 461.661 -15.8721L461.591 -16.3671C458.966 -15.9929 456.351 -15.5903 453.745 -15.1599L453.827 -14.6666C451.217 -14.2355 448.616 -13.7762 446.026 -13.2894L445.933 -13.7808C443.331 -13.2917 440.739 -12.7747 438.158 -12.23L438.261 -11.7408C435.671 -11.1945 433.091 -10.6202 430.522 -10.0186L430.408 -10.5054C427.833 -9.90216 425.268 -9.27136 422.715 -8.61328L422.839 -8.12909C420.275 -7.4682 417.722 -6.77979 415.181 -6.06415L415.045 -6.54541C412.5 -5.8288 409.967 -5.08496 407.445 -4.31427L407.591 -3.83612C405.059 -3.06201 402.539 -2.26074 400.031 -1.43262L399.874 -1.90741C397.362 -1.07794 394.862 -0.221619 392.376 0.661194L392.543 1.13239C390.05 2.01758 387.569 2.92944 385.102 3.86768L384.924 3.40033C382.451 4.34106 379.99 5.30823 377.544 6.30151L377.732 6.76477C375.282 7.75928 372.846 8.78003 370.424 9.8266L370.226 9.36761C367.796 10.4177 365.38 11.4938 362.979 12.5956L363.187 13.05C360.786 14.152 358.398 15.2795 356.026 16.4325L355.807 15.9828C353.426 17.1401 351.06 18.3229 348.709 19.5309L348.937 19.9756C346.588 21.1828 344.254 22.4151 341.935 23.6722L341.697 23.2326C339.369 24.4948 337.057 25.7819 334.762 27.0935L335.01 27.5276C332.717 28.8377 330.44 30.1723 328.18 31.5311L327.923 31.1025C325.653 32.4669 323.401 33.8556 321.165 35.2682L321.432 35.691C319.2 37.1016 316.984 38.5363 314.786 39.9944L314.51 39.5778C312.304 41.0413 310.115 42.5285 307.945 44.039L308.23 44.4494C306.063 45.9581 303.913 47.4901 301.781 49.045L301.486 48.6411C299.348 50.2005 297.228 51.7831 295.127 53.3882L295.431 53.7856C293.332 55.3892 291.252 57.0156 289.191 58.6642L288.878 58.2737C286.812 59.9262 284.765 61.6011 282.738 63.2979L283.059 63.6813C281.033 65.3768 279.027 67.0942 277.041 68.8332L276.712 68.457C274.722 70.1993 272.751 71.9634 270.802 73.7487L271.139 74.1175C269.191 75.9014 267.263 77.7065 265.356 79.5325L265.01 79.1713C263.1 81.0004 261.211 82.8503 259.342 84.7208L259.696 85.0742C257.829 86.9429 255.984 88.8322 254.16 90.7416L253.798 90.3963C251.972 92.3085 250.167 94.241 248.383 96.1933L248.752 96.5305C246.971 98.4804 245.212 100.45 243.475 102.439L243.099 102.11C241.359 104.102 239.642 106.114 237.948 108.144L238.332 108.465C236.64 110.492 234.971 112.538 233.325 114.603L232.934 114.292C231.286 116.36 229.66 118.446 228.059 120.551L228.457 120.854C226.858 122.955 225.283 125.074 223.731 127.211L223.327 126.917C221.773 129.057 220.243 131.215 218.738 133.39L219.149 133.675C217.647 135.845 216.168 138.033 214.715 140.237L214.297 139.962C212.842 142.17 211.411 144.394 210.005 146.636L210.429 146.901C209.027 149.137 207.649 151.39 206.296 153.658L205.867 153.402C204.513 155.673 203.185 157.96 201.882 160.263L202.317 160.509C201.018 162.806 199.744 165.119 198.495 167.448L198.055 167.211C196.806 169.541 195.583 171.885 194.387 174.245L194.833 174.471C193.639 176.825 192.471 179.194 191.33 181.578L190.879 181.362C189.738 183.745 188.624 186.143 187.537 188.554L187.993 188.76C186.907 191.166 185.849 193.587 184.818 196.022L184.357 195.827C183.327 198.258 182.324 200.703 181.349 203.162L181.814 203.346C180.84 205.801 179.893 208.269 178.974 210.75L178.505 210.577C177.588 213.051 176.699 215.538 175.838 218.038L176.31 218.201C175.45 220.697 174.618 223.206 173.814 225.728L173.337 225.576C172.536 228.089 171.762 230.615 171.016 233.153L171.496 233.293C170.752 235.826 170.036 238.369 169.349 240.925L168.866 240.795C168.181 243.343 167.524 245.903 166.895 248.474L167.381 248.592C166.755 251.154 166.157 253.727 165.589 256.311L165.1 256.203C164.533 258.782 163.994 261.371 163.484 263.97L163.975 264.066C163.468 266.652 162.989 269.248 162.54 271.853L162.048 271.768C161.599 274.372 161.179 276.986 160.789 279.609L161.283 279.682C160.896 282.286 160.537 284.898 160.208 287.52L159.712 287.458C159.383 290.082 159.083 292.716 158.813 295.358L159.31 295.409C159.043 298.024 158.804 300.647 158.596 303.278L158.097 303.239C157.888 305.874 157.708 308.517 157.559 311.168L158.058 311.196C157.91 313.822 157.791 316.455 157.701 319.096L157.201 319.079C157.112 321.717 157.052 324.363 157.022 327.016L157.522 327.021C157.507 328.346 157.5 329.672 157.5 331C157.5 332.328 157.507 333.655 157.522 334.979L157.022 334.985C157.052 337.638 157.112 340.283 157.201 342.921L157.701 342.905C157.791 345.545 157.91 348.179 158.058 350.804L157.559 350.832C157.708 353.484 157.888 356.127 158.097 358.762L158.596 358.722C158.804 361.354 159.043 363.977 159.31 366.591L158.813 366.642C159.083 369.284 159.383 371.918 159.712 374.543L160.209 374.48C160.538 377.102 160.896 379.715 161.283 382.318L160.789 382.392C161.179 385.015 161.599 387.628 162.048 390.232L162.54 390.147C162.989 392.753 163.468 395.349 163.975 397.934L163.484 398.031C163.994 400.63 164.533 403.219 165.1 405.797L165.589 405.69C166.157 408.273 166.755 410.846 167.381 413.408L166.896 413.527C167.524 416.097 168.181 418.657 168.866 421.206L169.349 421.076C170.036 423.631 170.752 426.175 171.496 428.707L171.016 428.848C171.762 431.385 172.536 433.911 173.337 436.425L173.814 436.273C174.618 438.794 175.45 441.303 176.31 443.799L175.838 443.962C176.699 446.462 177.588 448.949 178.505 451.424L178.974 451.25C179.893 453.731 180.84 456.199 181.814 458.654L181.349 458.838C182.325 461.297 183.327 463.742 184.357 466.173L184.818 465.978C185.849 468.413 186.908 470.834 187.993 473.24L187.537 473.446C188.624 475.858 189.739 478.255 190.879 480.638L191.33 480.422C192.471 482.806 193.639 485.175 194.833 487.529L194.387 487.755C195.583 490.115 196.806 492.46 198.055 494.789L198.496 494.552C199.744 496.881 201.018 499.194 202.317 501.491L201.882 501.737C203.185 504.04 204.513 506.327 205.867 508.598L206.297 508.342C207.649 510.61 209.027 512.863 210.429 515.099L210.005 515.364C211.411 517.606 212.842 519.83 214.297 522.038L214.715 521.763C216.169 523.967 217.647 526.155 219.149 528.325L218.738 528.61C220.243 530.785 221.773 532.943 223.327 535.083L223.731 534.789C225.283 536.926 226.858 539.045 228.457 541.146L228.059 541.449C229.661 543.554 231.286 545.64 232.934 547.708L233.325 547.397C234.971 549.462 236.64 551.508 238.332 553.535L237.948 553.856C239.642 555.886 241.359 557.898 243.099 559.89L243.475 559.561C245.212 561.55 246.971 563.52 248.752 565.47L248.383 565.807C250.166 567.759 251.972 569.691 253.798 571.604L254.16 571.258C255.984 573.168 257.829 575.057 259.696 576.926L259.342 577.279C261.211 579.15 263.1 581 265.01 582.829L265.356 582.467C267.263 584.294 269.191 586.099 271.139 587.882L270.802 588.251C272.751 590.037 274.722 591.801 276.712 593.543L277.041 593.167C279.027 594.906 281.033 596.623 283.059 598.319L282.738 598.702C284.765 600.399 286.812 602.074 288.878 603.726L289.191 603.336C291.252 604.984 293.332 606.611 295.431 608.214L295.128 608.612C297.228 610.217 299.348 611.799 301.486 613.359L301.781 612.955C303.913 614.51 306.063 616.042 308.231 617.551L307.945 617.961C310.115 619.472 312.304 620.959 314.51 622.422L314.786 622.006C316.984 623.464 319.2 624.898 321.432 626.309L321.165 626.732C323.401 628.144 325.653 629.533 327.923 630.897L328.18 630.469C330.44 631.828 332.717 633.162 335.01 634.472L334.762 634.907C337.058 636.218 339.369 637.505 341.697 638.767L341.936 638.328C344.254 639.585 346.588 640.817 348.938 642.024L348.709 642.469C351.06 643.677 353.426 644.86 355.808 646.017L356.026 645.568C358.398 646.721 360.786 647.848 363.187 648.95L362.979 649.405C365.38 650.506 367.796 651.582 370.226 652.632L370.425 652.173C372.846 653.22 375.282 654.241 377.732 655.235L377.544 655.699C379.991 656.692 382.451 657.659 384.925 658.6L385.102 658.132C387.569 659.071 390.05 659.983 392.543 660.868L392.376 661.339C394.863 662.222 397.362 663.078 399.874 663.908L400.031 663.433C402.539 664.261 405.059 665.062 407.592 665.836L407.446 666.314C409.967 667.085 412.5 667.829 415.045 668.546L415.181 668.064C417.722 668.78 420.275 669.468 422.84 670.129L422.715 670.613C425.268 671.271 427.833 671.902 430.408 672.505L430.523 672.019C433.091 672.62 435.671 673.195 438.261 673.741L438.158 674.23C440.74 674.775 443.332 675.292 445.934 675.781L446.026 675.289C448.617 675.776 451.217 676.236 453.827 676.667L453.746 677.16C456.351 677.59 458.967 677.993 461.591 678.367L461.662 677.872C464.268 678.244 466.884 678.588 469.508 678.903L469.448 679.4C472.074 679.715 474.708 680.003 477.351 680.262L477.4 679.765C480.016 680.021 482.641 680.249 485.273 680.45L485.235 680.948C487.872 681.149 490.516 681.321 493.168 681.465L493.195 680.965C495.821 681.107 498.454 681.221 501.094 681.307L501.078 681.807C503.717 681.892 506.363 681.95 509.016 681.978L509.021 681.478C510.346 681.493 511.672 681.5 513 681.5C514.328 681.5 515.655 681.493 516.98 681.478L516.985 681.978C519.638 681.95 522.284 681.892 524.922 681.807L524.906 681.307C527.547 681.221 530.18 681.107 532.805 680.965L532.832 681.465C535.484 681.321 538.129 681.149 540.765 680.948L540.727 680.45C543.36 680.249 545.984 680.021 548.601 679.764L548.649 680.262C551.292 680.003 553.927 679.715 556.552 679.4L556.493 678.903C559.117 678.588 561.732 678.244 564.339 677.872L564.409 678.367C567.034 677.993 569.649 677.59 572.255 677.16L572.173 676.667C574.783 676.235 577.384 675.776 579.974 675.289L580.067 675.781C582.669 675.292 585.261 674.775 587.842 674.23L587.739 673.741C590.329 673.194 592.909 672.62 595.478 672.019L595.592 672.505C598.167 671.902 600.732 671.271 603.285 670.613L603.161 670.129C605.725 669.468 608.278 668.78 610.819 668.064L610.955 668.545C613.5 667.829 616.033 667.085 618.555 666.314L618.409 665.836C620.941 665.062 623.461 664.261 625.969 663.433L626.126 663.907C628.638 663.078 631.138 662.222 633.624 661.339L633.457 660.868C635.95 659.982 638.431 659.071 640.898 658.132L641.076 658.6C643.549 657.659 646.01 656.692 648.456 655.699L648.268 655.235C650.718 654.241 653.154 653.22 655.576 652.173L655.774 652.632C658.204 651.582 660.62 650.506 663.021 649.404L662.813 648.95C665.215 647.848 667.602 646.72 669.974 645.567L670.193 646.017C672.574 644.86 674.94 643.677 677.291 642.469L677.063 642.024C679.412 640.817 681.746 639.585 684.065 638.328L684.303 638.767C686.631 637.505 688.943 636.218 691.238 634.906L690.99 634.472C693.283 633.162 695.56 631.828 697.82 630.469L698.077 630.897C700.347 629.533 702.599 628.144 704.835 626.732L704.568 626.309C706.8 624.898 709.016 623.464 711.214 622.006L711.49 622.422C713.696 620.959 715.885 619.472 718.055 617.961L717.77 617.551C719.937 616.042 722.087 614.51 724.219 612.955L724.514 613.359C726.652 611.799 728.772 610.217 730.872 608.612L730.569 608.214C732.668 606.611 734.748 604.984 736.809 603.336L737.122 603.726C739.188 602.074 741.234 600.399 743.262 598.702L742.941 598.319C744.967 596.623 746.973 594.906 748.959 593.167L749.288 593.543C751.278 591.801 753.248 590.037 755.198 588.251L754.861 587.882C756.809 586.099 758.737 584.294 760.644 582.468L760.99 582.829C762.9 581 764.789 579.15 766.658 577.279L766.304 576.926C768.171 575.057 770.016 573.168 771.84 571.258L772.202 571.604C774.028 569.691 775.833 567.759 777.617 565.807L777.248 565.47C779.029 563.52 780.788 561.55 782.525 559.561L782.901 559.89C784.641 557.898 786.358 555.886 788.052 553.856L787.668 553.535C789.36 551.508 791.029 549.462 792.675 547.397L793.066 547.708C794.714 545.64 796.339 543.554 797.941 541.449L797.543 541.146C799.142 539.045 800.717 536.926 802.269 534.789L802.673 535.083C804.227 532.943 805.757 530.785 807.262 528.61L806.851 528.325C808.353 526.155 809.832 523.967 811.285 521.763L811.703 522.038C813.158 519.83 814.589 517.606 815.995 515.364L815.571 515.099C816.973 512.863 818.351 510.61 819.704 508.342L820.133 508.598C821.487 506.327 822.815 504.04 824.118 501.737L823.683 501.491C824.982 499.194 826.256 496.881 827.505 494.552L827.945 494.789C829.194 492.459 830.417 490.115 831.613 487.755L831.167 487.529C832.361 485.175 833.529 482.806 834.67 480.422L835.121 480.638C836.261 478.255 837.376 475.857 838.463 473.446L838.007 473.24C839.093 470.834 840.151 468.413 841.182 465.978L841.643 466.173C842.673 463.742 843.676 461.297 844.651 458.838L844.186 458.654C845.16 456.199 846.107 453.731 847.026 451.25L847.495 451.423C848.412 448.949 849.301 446.462 850.162 443.962L849.69 443.799C850.55 441.303 851.382 438.794 852.186 436.272L852.663 436.424C853.464 433.911 854.238 431.385 854.984 428.847L854.504 428.707C855.248 426.174 855.964 423.631 856.651 421.075L857.134 421.205C857.819 418.657 858.476 416.097 859.104 413.526L858.619 413.408C859.245 410.846 859.843 408.273 860.411 405.689L860.9 405.797C861.467 403.218 862.006 400.629 862.516 398.03L862.025 397.934C862.532 395.348 863.011 392.752 863.46 390.147L863.953 390.232C864.401 387.628 864.821 385.014 865.211 382.391L864.717 382.318C865.104 379.714 865.463 377.102 865.792 374.48L866.288 374.542C866.617 371.918 866.917 369.284 867.187 366.642L866.69 366.591C866.957 363.976 867.196 361.353 867.404 358.722L867.903 358.761C868.112 356.126 868.292 353.483 868.441 350.832L867.942 350.804C868.09 348.178 868.209 345.545 868.299 342.904L868.799 342.921Z" stroke="#2F2B38" stroke-dasharray="8 8"/>
</g>
<mask id="mask1_6149_85383" style="mask-type:alpha" maskUnits="userSpaceOnUse" x="302" y="268" width="408" height="395">
<path d="M329 596L422 662L709 324L572 269L329 302L303 464L329 596Z" fill="#C4C4C4" stroke="black"/>
</mask>
<g mask="url(#mask1_6149_85383)">
<path d="M760.571 483.689C760.761 486.295 760.888 488.916 760.952 491.55L760.452 491.562C760.484 492.871 760.5 494.184 760.5 495.5C760.5 496.816 760.484 498.129 760.452 499.438L760.952 499.45C760.888 502.084 760.761 504.705 760.571 507.311L760.073 507.275C759.882 509.893 759.628 512.496 759.312 515.083L759.809 515.144C759.49 517.758 759.108 520.355 758.665 522.936L758.172 522.851C757.728 525.437 757.221 528.005 756.654 530.555L757.142 530.664C756.571 533.231 755.939 535.779 755.247 538.307L754.765 538.175C754.073 540.702 753.321 543.208 752.511 545.694L752.986 545.849C752.172 548.346 751.299 550.821 750.368 553.274L749.9 553.097C748.971 555.544 747.985 557.968 746.943 560.369L747.401 560.568C746.356 562.975 745.255 565.359 744.098 567.717L743.649 567.497C742.498 569.845 741.292 572.168 740.033 574.466L740.471 574.706C739.211 577.005 737.898 579.278 736.533 581.524L736.106 581.264C734.749 583.497 733.34 585.704 731.881 587.882L732.297 588.16C730.839 590.338 729.331 592.487 727.775 594.607L727.372 594.311C725.826 596.418 724.232 598.496 722.591 600.543L722.981 600.856C721.343 602.901 719.658 604.916 717.928 606.9L717.552 606.572C715.836 608.54 714.075 610.478 712.271 612.385L712.634 612.728C710.835 614.629 708.994 616.499 707.111 618.336L706.761 617.978C704.893 619.802 702.983 621.593 701.033 623.351L701.368 623.722C699.424 625.475 697.44 627.196 695.418 628.882L695.098 628.498C693.092 630.171 691.048 631.811 688.968 633.416L689.274 633.812C687.2 635.412 685.091 636.977 682.947 638.508L682.656 638.101C680.532 639.616 678.374 641.097 676.183 642.543L676.458 642.96C674.274 644.401 672.058 645.806 669.809 647.175L669.549 646.747C667.319 648.105 665.057 649.427 662.765 650.712L663.01 651.148C660.727 652.429 658.413 653.673 656.071 654.88L655.842 654.435C653.52 655.632 651.17 656.791 648.792 657.913L649.005 658.365C646.641 659.481 644.249 660.559 641.832 661.599L641.634 661.14C639.237 662.172 636.814 663.166 634.367 664.121L634.548 664.587C632.111 665.539 629.648 666.453 627.163 667.327L626.997 666.856C624.532 667.723 622.044 668.553 619.535 669.342L619.685 669.819C617.191 670.604 614.677 671.35 612.141 672.057L612.007 671.575C609.494 672.275 606.96 672.937 604.407 673.559L604.526 674.044C601.984 674.663 599.422 675.243 596.843 675.783L596.741 675.293C594.183 675.828 591.607 676.324 589.014 676.779L589.1 677.272C586.527 677.723 583.938 678.136 581.332 678.507L581.261 678.012C578.679 678.381 576.081 678.709 573.468 678.997L573.523 679.494C570.923 679.781 568.307 680.028 565.679 680.233L565.64 679.735C563.036 679.939 560.419 680.102 557.789 680.225L557.813 680.725C555.205 680.847 552.584 680.928 549.952 680.969L549.944 680.469C548.632 680.49 547.318 680.5 546 680.5C544.682 680.5 543.368 680.49 542.056 680.469L542.048 680.969C539.416 680.928 536.795 680.847 534.187 680.725L534.211 680.225C531.581 680.102 528.964 679.939 526.36 679.735L526.321 680.233C523.693 680.028 521.077 679.781 518.477 679.494L518.532 678.997C515.919 678.709 513.321 678.381 510.739 678.012L510.668 678.507C508.062 678.136 505.473 677.723 502.9 677.272L502.986 676.779C500.393 676.324 497.817 675.828 495.259 675.293L495.157 675.783C492.578 675.243 490.016 674.663 487.474 674.044L487.593 673.559C485.04 672.937 482.506 672.275 479.993 671.575L479.859 672.057C477.323 671.35 474.809 670.604 472.315 669.819L472.465 669.342C469.956 668.553 467.468 667.723 465.003 666.856L464.837 667.327C462.352 666.453 459.889 665.539 457.452 664.587L457.633 664.121C455.186 663.166 452.763 662.172 450.366 661.14L450.168 661.599C447.751 660.559 445.359 659.481 442.995 658.365L443.208 657.913C440.83 656.791 438.48 655.632 436.158 654.435L435.929 654.88C433.587 653.673 431.274 652.429 428.99 651.148L429.235 650.712C426.943 649.427 424.681 648.105 422.451 646.747L422.191 647.175C419.942 645.806 417.726 644.401 415.542 642.96L415.817 642.543C413.626 641.097 411.468 639.616 409.344 638.101L409.053 638.508C406.909 636.977 404.8 635.412 402.726 633.812L403.032 633.416C400.952 631.811 398.908 630.171 396.902 628.498L396.582 628.882C394.56 627.196 392.576 625.475 390.632 623.722L390.967 623.351C389.017 621.593 387.107 619.802 385.239 617.978L384.889 618.336C383.006 616.499 381.165 614.629 379.366 612.728L379.729 612.385C377.925 610.478 376.165 608.54 374.448 606.572L374.072 606.9C372.342 604.916 370.657 602.901 369.019 600.856L369.409 600.544C367.768 598.496 366.174 596.418 364.628 594.311L364.225 594.607C362.669 592.487 361.161 590.338 359.703 588.16L360.119 587.882C358.66 585.704 357.251 583.497 355.894 581.264L355.467 581.524C354.102 579.278 352.789 577.005 351.529 574.706L351.967 574.466C350.708 572.169 349.502 569.845 348.351 567.497L347.902 567.717C346.745 565.359 345.644 562.975 344.599 560.568L345.057 560.369C344.015 557.968 343.029 555.544 342.1 553.097L341.632 553.274C340.701 550.821 339.828 548.346 339.014 545.849L339.489 545.694C338.679 543.208 337.927 540.702 337.235 538.175L336.753 538.307C336.061 535.779 335.429 533.231 334.858 530.664L335.346 530.555C334.779 528.005 334.272 525.437 333.828 522.851L333.335 522.936C332.892 520.355 332.51 517.758 332.191 515.144L332.688 515.083C332.372 512.496 332.118 509.893 331.927 507.275L331.429 507.311C331.239 504.705 331.112 502.084 331.048 499.45L331.548 499.438C331.516 498.129 331.5 496.816 331.5 495.5C331.5 494.184 331.516 492.871 331.548 491.562L331.048 491.55C331.112 488.916 331.239 486.295 331.429 483.689L331.927 483.725C332.118 481.107 332.372 478.504 332.688 475.917L332.191 475.856C332.51 473.242 332.892 470.645 333.335 468.064L333.828 468.149C334.272 465.563 334.779 462.995 335.346 460.445L334.858 460.336C335.429 457.769 336.061 455.221 336.753 452.693L337.235 452.825C337.927 450.298 338.679 447.792 339.489 445.306L339.014 445.151C339.828 442.654 340.701 440.179 341.632 437.726L342.1 437.903C343.029 435.456 344.015 433.032 345.057 430.631L344.599 430.432C345.644 428.025 346.745 425.641 347.902 423.283L348.351 423.503C349.502 421.155 350.708 418.831 351.967 416.534L351.529 416.294C352.789 413.995 354.102 411.722 355.467 409.476L355.894 409.736C357.251 407.503 358.66 405.296 360.119 403.118L359.703 402.84C361.161 400.662 362.669 398.513 364.225 396.393L364.628 396.689C366.174 394.582 367.768 392.504 369.409 390.457L369.019 390.144C370.657 388.099 372.342 386.084 374.072 384.1L374.448 384.428C376.165 382.46 377.925 380.522 379.729 378.615L379.366 378.272C381.165 376.371 383.006 374.501 384.889 372.664L385.239 373.022C387.107 371.198 389.017 369.407 390.967 367.649L390.632 367.278C392.576 365.525 394.56 363.804 396.582 362.118L396.902 362.502C398.908 360.829 400.951 359.189 403.032 357.584L402.726 357.188C404.8 355.588 406.909 354.023 409.053 352.492L409.344 352.899C411.468 351.384 413.626 349.903 415.817 348.457L415.542 348.04C417.726 346.599 419.942 345.194 422.191 343.825L422.451 344.253C424.681 342.895 426.943 341.573 429.235 340.288L428.99 339.852C431.274 338.571 433.587 337.327 435.929 336.12L436.158 336.565C438.48 335.369 440.83 334.209 443.208 333.087L442.995 332.635C445.359 331.519 447.751 330.441 450.168 329.401L450.366 329.86C452.763 328.828 455.186 327.834 457.633 326.879L457.452 326.413C459.889 325.461 462.352 324.547 464.837 323.673L465.003 324.144C467.468 323.277 469.956 322.447 472.465 321.657L472.315 321.181C474.808 320.396 477.323 319.65 479.859 318.943L479.993 319.425C482.506 318.725 485.04 318.063 487.593 317.441L487.474 316.956C490.016 316.337 492.578 315.757 495.157 315.217L495.259 315.707C497.817 315.172 500.393 314.676 502.986 314.221L502.9 313.728C505.473 313.277 508.062 312.864 510.668 312.493L510.739 312.988C513.321 312.619 515.919 312.291 518.532 312.003L518.477 311.506C521.077 311.219 523.693 310.972 526.321 310.767L526.36 311.265C528.964 311.061 531.581 310.898 534.211 310.775L534.187 310.275C536.795 310.153 539.416 310.072 542.048 310.031L542.056 310.531C543.368 310.51 544.682 310.5 546 310.5C547.318 310.5 548.632 310.51 549.944 310.531L549.952 310.031C552.584 310.072 555.205 310.153 557.813 310.275L557.789 310.775C560.419 310.898 563.036 311.061 565.64 311.265L565.679 310.767C568.307 310.972 570.923 311.219 573.523 311.506L573.468 312.003C576.081 312.291 578.679 312.619 581.261 312.988L581.332 312.493C583.938 312.864 586.527 313.277 589.1 313.728L589.014 314.221C591.607 314.676 594.183 315.172 596.741 315.707L596.843 315.217C599.422 315.757 601.984 316.337 604.526 316.956L604.407 317.441C606.96 318.063 609.494 318.725 612.007 319.425L612.141 318.943C614.677 319.65 617.191 320.396 619.685 321.181L619.535 321.657C622.044 322.447 624.532 323.277 626.997 324.144L627.163 323.673C629.648 324.547 632.111 325.461 634.548 326.413L634.367 326.879C636.814 327.834 639.237 328.828 641.634 329.86L641.832 329.401C644.249 330.441 646.641 331.519 649.005 332.635L648.792 333.087C651.17 334.209 653.52 335.368 655.842 336.565L656.071 336.12C658.413 337.327 660.726 338.571 663.01 339.852L662.765 340.288C665.057 341.573 667.319 342.895 669.549 344.253L669.809 343.825C672.058 345.194 674.274 346.599 676.458 348.04L676.183 348.457C678.374 349.903 680.532 351.384 682.656 352.899L682.947 352.492C685.091 354.023 687.2 355.588 689.274 357.188L688.968 357.584C691.048 359.189 693.092 360.829 695.098 362.502L695.418 362.118C697.44 363.804 699.424 365.525 701.368 367.278L701.033 367.649C702.983 369.407 704.893 371.198 706.761 373.022L707.111 372.664C708.994 374.501 710.835 376.371 712.634 378.272L712.271 378.615C714.075 380.522 715.835 382.46 717.552 384.428L717.928 384.1C719.658 386.084 721.343 388.099 722.981 390.144L722.591 390.456C724.232 392.504 725.826 394.582 727.372 396.689L727.775 396.393C729.331 398.513 730.839 400.662 732.297 402.84L731.881 403.118C733.34 405.296 734.749 407.503 736.106 409.736L736.533 409.476C737.898 411.722 739.211 413.995 740.471 416.294L740.033 416.534C741.292 418.831 742.498 421.155 743.649 423.503L744.098 423.282C745.255 425.641 746.356 428.025 747.401 430.432L746.943 430.631C747.985 433.032 748.971 435.456 749.9 437.903L750.368 437.726C751.299 440.179 752.172 442.654 752.986 445.151L752.511 445.306C753.321 447.792 754.073 450.298 754.765 452.825L755.247 452.693C755.939 455.221 756.571 457.769 757.142 460.336L756.654 460.445C757.221 462.995 757.728 465.563 758.172 468.149L758.665 468.064C759.108 470.645 759.49 473.242 759.809 475.856L759.312 475.917C759.628 478.504 759.882 481.107 760.073 483.725L760.571 483.689Z" stroke="#2F2B38" stroke-dasharray="8 8"/>
</g>
<path d="M336.318 636.622L330.65 624.88L322.414 634.988L336.318 636.622Z" fill="#2F2B38"/>
<path d="M636.989 668.963L644.411 658.243L631.557 656.06L636.989 668.963Z" fill="#2F2B38"/>
<path d="M614.945 320.568L624.443 329.5L628.512 317.112L614.945 320.568Z" fill="#2F2B38"/>
<path d="M328.527 457.276L333.195 469.45L342.246 460.065L328.527 457.276Z" fill="#2F2B38"/>
<path d="M166.692 229.708L168.325 242.644L179.352 235.685L166.692 229.708Z" fill="#2F2B38"/>
</svg>
