<svg class="highcharts-root" style="font-family:Signika,serif;font-size:12px" xmlns="http://www.w3.org/2000/svg" width="600" height="400" aria-label="Interactive chart" aria-hidden="false"><rect fill="none" class="highcharts-background" width="600" height="400" rx="0" ry="0" aria-hidden="true"/><g stroke-linejoin="round" class="highcharts-3d-frame highcharts-3d-frame-bottom" data-z-index="-1000" aria-hidden="true" fill="none"><path d="m125.352 264.964 417.853 38.732L540.576 319l-431.99-41.602Zm417.858 39.221-2.68 15.626.046-.811 2.629-15.304Z"/><path d="m540.53 319.81-432.62-41.743.676-.668L540.577 319Z"/></g><g stroke-linejoin="round" class="highcharts-3d-frame highcharts-3d-frame-left" data-z-index="-1000" aria-hidden="true" fill="none"><path d="m115.102 67.141.381.145-18.012 5.919-.75-.033Z"/><path d="m115.483 67.286 9.87 197.678-16.766 12.434L97.47 73.205Z"/><path d="M107.911 278.066 96.721 73.172l.75.033 11.116 204.193Z"/></g><g stroke-linejoin="round" class="highcharts-3d-frame highcharts-3d-frame-back" data-z-index="-1000" aria-hidden="true" fill="none"><path d="m115.102 67.141 440.93 18.51-.043.142-440.506-18.507Zm440.931 18.51-12.824 218.534-.004-.489 12.784-217.903Z"/><path d="M115.483 67.286 555.99 85.793l-12.784 217.903-417.853-38.732Z"/></g><path fill="none" class="highcharts-plot-background" aria-hidden="true" d="M47 56h543v263H47z"/><g class="highcharts-grid highcharts-xaxis-grid" data-z-index="1" aria-hidden="true" fill="none" stroke="#e6e6e6"><path data-z-index="1" class="highcharts-grid-line" d="m154.857 68.94 8.032 199.503m-15.626 12.68 15.626-12.68m33.288-197.767 6.064 201.415m-14.405 12.939 14.405-12.94m35.36-199.674 4.05 203.328M228.5 288.946l13.152-13.202M279.9 74.193l1.952 205.277m-11.846 13.473 11.846-13.473m42.059-203.428-.276 207.301m-10.456 13.758 10.456-13.758m44.429-205.446-2.558 209.327m-9.032 14.046 9.032-14.046M413.18 79.793l-4.937 211.393m-7.545 14.343 7.545-14.343M459.291 81.73l-7.418 213.5m-5.992 14.65 5.992-14.65m55.441-211.482-10.056 215.689m-4.34 14.973 4.34-14.973M556.44 85.812l-12.81 217.924m-2.612 15.307 2.613-15.307M115.119 67.27l9.886 197.661m-16.776 12.432 16.776-12.432"/></g><g class="highcharts-grid highcharts-yaxis-grid" data-z-index="1" aria-hidden="true" fill="none" stroke="#e6e6e6"><path data-z-index="1" class="highcharts-grid-line" d="m125.37 265.321 417.812 38.767m-434.575-26.321 16.763-12.446m-3.193-63.956 425.125 32.486m-442.287-22.07 17.162-10.416m-3.262-65.343 432.613 25.811M101.34 144.288l17.574-8.266m-3.451-69.132 440.552 18.465M97.449 72.796l18.014-5.905"/></g><path fill="none" class="highcharts-plot-border" data-z-index="1" aria-hidden="true" d="M47 56h543v263H47z"/><g class="highcharts-series-group" data-z-index="3" aria-hidden="false"><g class="highcharts-markers highcharts-series-0 highcharts-column-series highcharts-tracker" data-z-index="10" aria-hidden="false" stroke-linejoin="round"><g data-z-index="13602205" stroke="#f45b5b" class="highcharts-point highcharts-color-0" tabindex="-1" aria-label="Toyota, 1,318." style="outline:0"><path fill="#f45b5b" d="m118.634 278.442 19.506 1.879-8.393-179.322-20.366-1.028Z" class="highcharts-3d-front" data-z-index="0"/><path fill="#FF7474" d="m129.747 101 8.596-3.51-20.048-.993-8.914 3.474Z" class="highcharts-3d-top" data-z-index="0"/><path fill="#DB4242" d="m129.747 101 8.393 179.32 8.078-6.414-7.875-176.416Z" class="highcharts-3d-side" data-z-index="0"/></g><g data-z-index="67601775" stroke="#8085e9" class="highcharts-point highcharts-color-1" tabindex="-1" aria-label="BMW, 1,073." style="outline:0"><path fill="#8085e9" d="m157.844 282.219 19.903 1.917-5.34-146.066-20.627-1.225Z" class="highcharts-3d-front" data-z-index="0"/><path fill="#999EFF" d="m172.406 138.07 7.85-4.179-20.3-1.181-8.176 4.135Z" class="highcharts-3d-top" data-z-index="0"/><path fill="#676CD0" d="m172.406 138.07 5.341 146.066 7.476-6.544-4.967-143.7Z" class="highcharts-3d-side" data-z-index="0"/></g><g data-z-index="122601755" stroke="#8d4654" class="highcharts-point highcharts-color-2" tabindex="-1" aria-label="Volvo, 1,060." style="outline:0"><path fill="#8d4654" d="m198.602 286.144 20.32 1.958-3.777-145.869-21.067-1.26Z" class="highcharts-3d-front" data-z-index="0"/><path fill="#A65F6D" d="m215.145 142.233 7.158-4.296-20.725-1.214-7.5 4.25Z" class="highcharts-3d-top" data-z-index="0"/><path fill="#742D3B" d="m215.145 142.233 3.777 145.869 6.836-6.68-3.455-143.485Z" class="highcharts-3d-side" data-z-index="0"/></g><g data-z-index="176601325" stroke="#7798BF" class="highcharts-point highcharts-color-3" tabindex="-1" aria-label="Audi, 813." style="outline:0"><path fill="#7798BF" d="m239.451 290.08 20.742 1.997-1.704-112.24-21.335-1.46Z" class="highcharts-3d-front" data-z-index="0"/><path fill="#90B1D8" d="m258.49 179.837 6.388-4.984-20.985-1.409-6.74 4.932Z" class="highcharts-3d-top" data-z-index="0"/><path fill="#5E7FA6" d="m258.49 179.837 1.703 112.24 6.18-6.818-1.495-110.406Z" class="highcharts-3d-side" data-z-index="0"/></g><g data-z-index="230601255" stroke="#aee" class="highcharts-point highcharts-color-4" tabindex="-1" aria-label="Peugeot, 775." style="outline:0"><path fill="#aee" d="m281.15 294.096 21.178 2.04-.454-107.626-21.765-1.521Z" class="highcharts-3d-front" data-z-index="0"/><path fill="#C3FFFF" d="m301.874 188.51 5.655-5.188-21.4-1.466-6.02 5.133Z" class="highcharts-3d-top" data-z-index="0"/><path fill="#91D5D5" d="m301.874 188.51.454 107.626 5.495-6.96-.294-105.854Z" class="highcharts-3d-side" data-z-index="0"/></g><g data-z-index="285601205" stroke="#f06" class="highcharts-point highcharts-color-5" tabindex="-1" aria-label="Mercedes-Benz, 745." style="outline:0"><path fill="#f06" d="m324.524 298.274 21.635 2.084.754-104.594-22.225-1.575Z" class="highcharts-3d-front" data-z-index="0"/><path fill="#FF197F" d="m346.913 195.764 4.881-5.372-21.844-1.518-5.262 5.315Z" class="highcharts-3d-top" data-z-index="0"/><path fill="#E6004D" d="m346.913 195.764-.754 104.594 4.767-7.11.868-102.856Z" class="highcharts-3d-side" data-z-index="0"/></g><g data-z-index="339600835" stroke="#eae" class="highcharts-point highcharts-color-6" tabindex="-1" aria-label="Volkswagen, 537." style="outline:0"><path fill="#eae" d="m368.023 302.464 22.098 2.128 1.407-75.206-22.537-1.762Z" class="highcharts-3d-front" data-z-index="0"/><path fill="#FFC3FF" d="m391.528 229.386 4.072-6.01-22.145-1.699-4.464 5.947Z" class="highcharts-3d-top" data-z-index="0"/><path fill="#D591D5" d="m391.528 229.386-1.407 75.206 4.02-7.26 1.459-73.957Z" class="highcharts-3d-side" data-z-index="0"/></g><g data-z-index="393600675" stroke="#55BF3B" class="highcharts-point highcharts-color-7" tabindex="-1" aria-label="Polestar, 444." style="outline:0"><path fill="#55BF3B" d="m412.457 306.744 22.577 2.174 1.914-62.809-22.957-1.867Z" class="highcharts-3d-front" data-z-index="0"/><path fill="#6ED854" d="m436.948 246.11 3.256-6.368-22.549-1.798-3.664 6.298Z" class="highcharts-3d-top" data-z-index="0"/><path fill="#3CA622" d="m436.948 246.11-1.914 62.808 3.24-7.417 1.93-61.759Z" class="highcharts-3d-side" data-z-index="0"/></g><g data-z-index="448600625" stroke="#DF5353" class="highcharts-point highcharts-color-8" tabindex="-1" aria-label="Kia, 416." style="outline:0"><path fill="#DF5353" d="m458.706 311.199 23.08 2.223 2.536-59.315-23.451-1.93Z" class="highcharts-3d-front" data-z-index="0"/><path fill="#F86C6C" d="m484.322 254.107 2.398-6.581-23.025-1.859-2.824 6.51Z" class="highcharts-3d-top" data-z-index="0"/><path fill="#C63A3A" d="m484.322 254.107-2.535 59.315 2.409-7.582 2.524-58.314Z" class="highcharts-3d-side" data-z-index="0"/></g><g data-z-index="502600585" stroke="#7798BF" class="highcharts-point highcharts-color-9" tabindex="-1" aria-label="Nissan, 395." style="outline:0"><path fill="#7798BF" d="m505.121 315.67 23.592 2.272 3.117-56.578-23.957-1.99Z" class="highcharts-3d-front" data-z-index="0"/><path fill="#90B1D8" d="m531.83 261.364 1.52-6.786-23.513-1.916-1.964 6.711Z" class="highcharts-3d-top" data-z-index="0"/><path fill="#5E7FA6" d="m531.83 261.364-3.117 56.578 1.556-7.748 3.08-55.616Z" class="highcharts-3d-side" data-z-index="0"/></g></g></g><text x="300" text-anchor="middle" class="highcharts-title" data-z-index="4" style="color:#000;font-size:16px;font-weight:700;fill:#000" y="22" aria-hidden="true">Sold passenger cars in Norway by brand, January 2021</text><text x="300" text-anchor="middle" class="highcharts-subtitle" data-z-index="4" style="color:#000;fill:#000" y="42" aria-hidden="true">Source: <a target="_blank"><tspan>OFV</tspan></a></text><g class="highcharts-axis-labels highcharts-xaxis-labels" data-z-index="7" aria-hidden="true" text-anchor="end"><text x="129.993" transform="rotate(-45 129.993 292.027)" style="color:#6e6e70;cursor:default;font-size:11px;fill:#6e6e70" y="292.027">Toyota</text><text x="169.691" transform="rotate(-45 169.69 295.978)" style="color:#6e6e70;cursor:default;font-size:11px;fill:#6e6e70" y="295.978">BMW</text><text x="210.205" transform="rotate(-45 210.205 300.01)" style="color:#6e6e70;cursor:default;font-size:11px;fill:#6e6e70" y="300.01">Volvo</text><text x="251.563" transform="rotate(-45 251.563 304.127)" style="color:#6e6e70;cursor:default;font-size:11px;fill:#6e6e70" y="304.127">Audi</text><text x="293.789" transform="rotate(-45 293.789 308.33)" style="color:#6e6e70;cursor:default;font-size:11px;fill:#6e6e70" y="308.329">Peugeot</text><text x="336.912" transform="rotate(-45 336.912 312.621)" style="color:#6e6e70;cursor:default;font-size:11px;fill:#6e6e70" y="312.621">Mercedes-Benz</text><text x="380.961" transform="rotate(-45 380.961 317.006)" style="color:#6e6e70;cursor:default;font-size:11px;fill:#6e6e70" y="317.006">Volkswagen</text><text x="425.966" transform="rotate(-45 425.966 321.485)" style="color:#6e6e70;cursor:default;font-size:11px;fill:#6e6e70" y="321.485">Polestar</text><text x="471.958" transform="rotate(-45 471.958 326.062)" style="color:#6e6e70;cursor:default;font-size:11px;fill:#6e6e70" y="326.062">Kia</text><text x="518.971" transform="rotate(-45 518.97 330.741)" style="color:#6e6e70;cursor:default;font-size:11px;fill:#6e6e70" y="330.741">Nissan</text></g><g class="highcharts-axis-labels highcharts-yaxis-labels" data-z-index="7" aria-hidden="true" text-anchor="end"><text x="97.081" style="color:#6e6e70;cursor:default;font-size:11px;fill:#6e6e70" y="281.081">0</text><text x="93.295" style="color:#6e6e70;cursor:default;font-size:11px;fill:#6e6e70" y="215.21">500</text><text x="89.378" style="color:#6e6e70;cursor:default;font-size:11px;fill:#6e6e70" y="147.048">1000</text><text x="85.368" style="color:#6e6e70;cursor:default;font-size:11px;fill:#6e6e70" y="77.288">1500</text></g></svg>