<svg class="highcharts-root" style="font-family:Signika,serif;font-size:12px" xmlns="http://www.w3.org/2000/svg" width="600" height="420" aria-label="Interactive chart" aria-hidden="false"><defs aria-hidden="true"><clipPath id="a"><path fill="none" d="M0 0h531v256H0z"/></clipPath></defs><rect fill="none" class="highcharts-background" width="600" height="420" rx="0" ry="0" aria-hidden="true"/><path fill="none" class="highcharts-plot-background" aria-hidden="true" d="M59 56h531v256H59z"/><g class="highcharts-grid highcharts-xaxis-grid" data-z-index="1" aria-hidden="true" fill="none"><path data-z-index="1" class="highcharts-grid-line" d="M147.5 56v256m88-256v256m89-256v256m88-256v256m89-256v256m88-256v256M58.5 56v256"/></g><g class="highcharts-grid highcharts-yaxis-grid" data-z-index="1" aria-hidden="true" fill="none" stroke="#e6e6e6"><path data-z-index="1" class="highcharts-grid-line" d="M59 312.5h531m-531-64h531m-531-64h531m-531-64h531m-531-65h531"/></g><path fill="none" class="highcharts-plot-border" data-z-index="1" aria-hidden="true" d="M59 56h531v256H59z"/><g class="highcharts-axis highcharts-xaxis" data-z-index="2" aria-hidden="true"><text x="324.5" data-z-index="7" text-anchor="middle" class="highcharts-axis-title" style="color:#666;fill:#666" y="349.5">Time</text><path fill="none" class="highcharts-axis-line" stroke="#ccd6eb" data-z-index="7" d="M59 312.5h531"/></g><g class="highcharts-axis highcharts-yaxis" data-z-index="2" aria-hidden="true"><text x="23" data-z-index="7" text-anchor="middle" transform="rotate(-90 23 184)" class="highcharts-axis-title" style="color:#666;fill:#666" y="184">Percentage usage</text><path fill="none" class="highcharts-axis-line" data-z-index="7" d="M59 56v256"/></g><g class="highcharts-series-group" data-z-index="3" aria-hidden="false"><g class="highcharts-series highcharts-series-0 highcharts-spline-series" data-z-index=".1" clip-path="url(#a)" aria-hidden="true" fill="none" stroke-linejoin="round" stroke-linecap="round" transform="translate(59 56)"><path d="m45.25 145.64 88.5-26.24c35.4-10.496 53.1-26.24 88.5-26.24s53.1 31.36 88.5 31.36 53.1-55.36 88.5-75.2c35.4-19.84 88.5-24 88.5-24" class="highcharts-graph highcharts-shadow" data-z-index="1" stroke="#000" stroke-width="5" stroke-opacity=".05"/><path d="m45.25 145.64 88.5-26.24c35.4-10.496 53.1-26.24 88.5-26.24s53.1 31.36 88.5 31.36 53.1-55.36 88.5-75.2c35.4-19.84 88.5-24 88.5-24" class="highcharts-graph highcharts-shadow" data-z-index="1" stroke="#000" stroke-width="3" stroke-opacity=".1"/><path d="m45.25 145.64 88.5-26.24c35.4-10.496 53.1-26.24 88.5-26.24s53.1 31.36 88.5 31.36 53.1-55.36 88.5-75.2c35.4-19.84 88.5-24 88.5-24" class="highcharts-graph highcharts-shadow" data-z-index="1" stroke="#000" stroke-opacity=".15"/><path d="m44.25 144.64 88.5-26.24c35.4-10.496 53.1-26.24 88.5-26.24s53.1 31.36 88.5 31.36 53.1-55.36 88.5-75.2c35.4-19.84 88.5-24 88.5-24" class="highcharts-graph" data-z-index="1" stroke="#8d4654" stroke-width="2"/><path d="m44.25 144.64 88.5-26.24c35.4-10.496 53.1-26.24 88.5-26.24s53.1 31.36 88.5 31.36 53.1-55.36 88.5-75.2c35.4-19.84 88.5-24 88.5-24" data-z-index="2" class="highcharts-tracker-line" stroke="rgba(192,192,192,0.0001)" stroke-width="22" style="cursor:pointer"/></g><g class="highcharts-markers highcharts-series-0 highcharts-spline-series highcharts-tracker" data-z-index=".1" style="cursor:pointer;outline:0" aria-hidden="false" tabindex="-1" aria-label="NVDA, line 1 of 6 with 6 data points. This is the most used screen reader in 2019." fill="#8d4654"><path d="M44 149a4 4 0 1 1 .004 0Z" class="highcharts-point" tabindex="-1" aria-label="December 2010, 34.8%. NVDA." style="outline:0" transform="translate(59 56)"/><path d="M132 122a4 4 0 1 1 .004 0Z" class="highcharts-point" tabindex="-1" aria-label="May 2012, 43%. NVDA." style="outline:0" transform="translate(59 56)"/><path d="M221 96a4 4 0 1 1 .004 0Z" class="highcharts-point" tabindex="-1" aria-label="January 2014, 51.2%. NVDA." style="outline:0" transform="translate(59 56)"/><path d="M309 128a4 4 0 1 1 .004 0Z" class="highcharts-point" tabindex="-1" aria-label="July 2015, 41.4%. NVDA." style="outline:0" transform="translate(59 56)"/><path d="M398 52a4 4 0 1 1 .004 0Z" class="highcharts-point" tabindex="-1" aria-label="October 2017, 64.9%. NVDA." style="outline:0" transform="translate(59 56)"/><path d="M486 28a4 4 0 1 1 .004 0Z" class="highcharts-point" tabindex="-1" aria-label="September 2019, 72.4%. NVDA." style="outline:0" transform="translate(59 56)"/></g><g class="highcharts-series highcharts-series-1 highcharts-spline-series" data-z-index=".1" clip-path="url(#a)" aria-hidden="true" fill="none" transform="translate(59 56)"><path d="M45.25 34.28s53.1 18.88 88.5 18.88 53.1-.64 88.5-.64 53.1 64.64 88.5 64.64 53.1-71.36 88.5-71.36 88.5 13.76 88.5 13.76" class="highcharts-graph highcharts-shadow" data-z-index="1" stroke="#000" stroke-width="5" stroke-dasharray="6,2,2,2" stroke-opacity=".05"/><path d="M45.25 34.28s53.1 18.88 88.5 18.88 53.1-.64 88.5-.64 53.1 64.64 88.5 64.64 53.1-71.36 88.5-71.36 88.5 13.76 88.5 13.76" class="highcharts-graph highcharts-shadow" data-z-index="1" stroke="#000" stroke-width="3" stroke-dasharray="6,2,2,2" stroke-opacity=".1"/><path d="M45.25 34.28s53.1 18.88 88.5 18.88 53.1-.64 88.5-.64 53.1 64.64 88.5 64.64 53.1-71.36 88.5-71.36 88.5 13.76 88.5 13.76" class="highcharts-graph highcharts-shadow" data-z-index="1" stroke="#000" stroke-dasharray="6,2,2,2" stroke-opacity=".15"/><path d="M44.25 33.28s53.1 18.88 88.5 18.88 53.1-.64 88.5-.64 53.1 64.64 88.5 64.64 53.1-71.36 88.5-71.36 88.5 13.76 88.5 13.76" class="highcharts-graph" data-z-index="1" stroke="#f45b5b" stroke-width="2" stroke-dasharray="6,2,2,2"/><path d="M44.25 33.28s53.1 18.88 88.5 18.88 53.1-.64 88.5-.64 53.1 64.64 88.5 64.64 53.1-71.36 88.5-71.36 88.5 13.76 88.5 13.76" data-z-index="2" class="highcharts-tracker-line" stroke-linecap="round" stroke-linejoin="round" stroke="rgba(192,192,192,0.0001)" stroke-width="22" style="cursor:pointer"/></g><g class="highcharts-markers highcharts-series-1 highcharts-spline-series highcharts-tracker" data-z-index=".1" style="cursor:pointer;outline:0" aria-hidden="false" tabindex="-1" aria-label="JAWS, line 2 of 6 with 6 data points." fill="#f45b5b"><path d="m44 29 4 4-4 4-4-4Z" class="highcharts-point" tabindex="-1" aria-label="December 2010, 69.6%. JAWS." style="outline:0" transform="translate(59 56)"/><path d="m132 48 4 4-4 4-4-4Z" class="highcharts-point" tabindex="-1" aria-label="May 2012, 63.7%. JAWS." style="outline:0" transform="translate(59 56)"/><path d="m221 48 4 4-4 4-4-4Z" class="highcharts-point" tabindex="-1" aria-label="January 2014, 63.9%. JAWS." style="outline:0" transform="translate(59 56)"/><path d="m309 112 4 4-4 4-4-4Z" class="highcharts-point" tabindex="-1" aria-label="July 2015, 43.7%. JAWS." style="outline:0" transform="translate(59 56)"/><path d="m398 41 4 4-4 4-4-4Z" class="highcharts-point" tabindex="-1" aria-label="October 2017, 66%. JAWS." style="outline:0" transform="translate(59 56)"/><path d="m486 55 4 4-4 4-4-4Z" class="highcharts-point" tabindex="-1" aria-label="September 2019, 61.7%. JAWS." style="outline:0" transform="translate(59 56)"/></g><g class="highcharts-series highcharts-series-2 highcharts-spline-series" data-z-index=".1" clip-path="url(#a)" aria-hidden="true" fill="none" transform="translate(59 56)"><path d="M45.25 192.36s53.1-22.976 88.5-33.6c35.4-10.624 53.1-19.52 88.5-19.52s53.1 18.88 88.5 18.88 53.1-17.472 88.5-27.84c35.4-10.368 88.5-24 88.5-24" class="highcharts-graph highcharts-shadow" data-z-index="1" stroke="#000" stroke-width="5" stroke-dasharray="2,2" stroke-opacity=".05"/><path d="M45.25 192.36s53.1-22.976 88.5-33.6c35.4-10.624 53.1-19.52 88.5-19.52s53.1 18.88 88.5 18.88 53.1-17.472 88.5-27.84c35.4-10.368 88.5-24 88.5-24" class="highcharts-graph highcharts-shadow" data-z-index="1" stroke="#000" stroke-width="3" stroke-dasharray="2,2" stroke-opacity=".1"/><path d="M45.25 192.36s53.1-22.976 88.5-33.6c35.4-10.624 53.1-19.52 88.5-19.52s53.1 18.88 88.5 18.88 53.1-17.472 88.5-27.84c35.4-10.368 88.5-24 88.5-24" class="highcharts-graph highcharts-shadow" data-z-index="1" stroke="#000" stroke-dasharray="2,2" stroke-opacity=".15"/><path d="M44.25 191.36s53.1-22.976 88.5-33.6c35.4-10.624 53.1-19.52 88.5-19.52s53.1 18.88 88.5 18.88 53.1-17.472 88.5-27.84c35.4-10.368 88.5-24 88.5-24" class="highcharts-graph" data-z-index="1" stroke="#8085e9" stroke-width="2" stroke-dasharray="2,2"/><path d="M44.25 191.36s53.1-22.976 88.5-33.6c35.4-10.624 53.1-19.52 88.5-19.52s53.1 18.88 88.5 18.88 53.1-17.472 88.5-27.84c35.4-10.368 88.5-24 88.5-24" data-z-index="2" class="highcharts-tracker-line" stroke-linecap="round" stroke-linejoin="round" stroke="rgba(192,192,192,0.0001)" stroke-width="22" style="cursor:pointer"/></g><g class="highcharts-markers highcharts-series-2 highcharts-spline-series highcharts-tracker" data-z-index=".1" style="cursor:pointer;outline:0" aria-hidden="false" tabindex="-1" aria-label="VoiceOver, line 3 of 6 with 6 data points." fill="#8085e9"><path d="M40 187h8v8h-8Z" class="highcharts-point" tabindex="-1" aria-label="December 2010, 20.2%. VoiceOver." style="outline:0" transform="translate(59 56)"/><path d="M128 154h8v8h-8Z" class="highcharts-point" tabindex="-1" aria-label="May 2012, 30.7%. VoiceOver." style="outline:0" transform="translate(59 56)"/><path d="M217 134h8v8h-8Z" class="highcharts-point" tabindex="-1" aria-label="January 2014, 36.8%. VoiceOver." style="outline:0" transform="translate(59 56)"/><path d="M305 153h8v8h-8Z" class="highcharts-point" tabindex="-1" aria-label="July 2015, 30.9%. VoiceOver." style="outline:0" transform="translate(59 56)"/><path d="M394 125h8v8h-8Z" class="highcharts-point" tabindex="-1" aria-label="October 2017, 39.6%. VoiceOver." style="outline:0" transform="translate(59 56)"/><path d="M482 101h8v8h-8Z" class="highcharts-point" tabindex="-1" aria-label="September 2019, 47.1%. VoiceOver." style="outline:0" transform="translate(59 56)"/></g><g class="highcharts-series highcharts-series-3 highcharts-spline-series" data-z-index=".1" clip-path="url(#a)" aria-hidden="true" fill="none" transform="translate(59 56)"><path d="m399.25 188.52 88.5-28.48" class="highcharts-graph highcharts-shadow" data-z-index="1" stroke="#000" stroke-width="5" stroke-dasharray="8,6" stroke-opacity=".05"/><path d="m399.25 188.52 88.5-28.48" class="highcharts-graph highcharts-shadow" data-z-index="1" stroke="#000" stroke-width="3" stroke-dasharray="8,6" stroke-opacity=".1"/><path d="m399.25 188.52 88.5-28.48" class="highcharts-graph highcharts-shadow" data-z-index="1" stroke="#000" stroke-dasharray="8,6" stroke-opacity=".15"/><path d="m398.25 187.52 88.5-28.48" class="highcharts-graph" data-z-index="1" stroke="#7798BF" stroke-width="2" stroke-dasharray="8,6"/><path d="m398.25 187.52 88.5-28.48" data-z-index="2" class="highcharts-tracker-line" stroke-linecap="round" stroke-linejoin="round" stroke="rgba(192,192,192,0.0001)" stroke-width="22" style="cursor:pointer"/></g><g class="highcharts-markers highcharts-series-3 highcharts-spline-series highcharts-tracker" data-z-index=".1" style="cursor:pointer;outline:0" aria-hidden="false" tabindex="-1" aria-label="Narrator, line 4 of 6 with 6 data points." fill="#7798BF"><path d="m398 184 4 8h-8Z" class="highcharts-point" tabindex="-1" aria-label="October 2017, 21.4%. Narrator." style="outline:0" transform="translate(59 56)"/><path d="m486 155 4 8h-8Z" class="highcharts-point" tabindex="-1" aria-label="September 2019, 30.3%. Narrator." style="outline:0" transform="translate(59 56)"/></g><g class="highcharts-series highcharts-series-4 highcharts-spline-series" data-z-index=".1" clip-path="url(#a)" aria-hidden="true" fill="none" transform="translate(59 56)"><path d="M45.25 237.48s53.1-2.24 88.5-2.24 53.1 4.8 88.5 4.8 53.1-71.04 88.5-71.04 53.1 67.2 88.5 68.8c35.4 1.6 88.5 1.6 88.5 1.6" class="highcharts-graph highcharts-shadow" data-z-index="1" stroke="#000" stroke-width="5" stroke-dasharray="2,2" stroke-opacity=".05"/><path d="M45.25 237.48s53.1-2.24 88.5-2.24 53.1 4.8 88.5 4.8 53.1-71.04 88.5-71.04 53.1 67.2 88.5 68.8c35.4 1.6 88.5 1.6 88.5 1.6" class="highcharts-graph highcharts-shadow" data-z-index="1" stroke="#000" stroke-width="3" stroke-dasharray="2,2" stroke-opacity=".1"/><path d="M45.25 237.48s53.1-2.24 88.5-2.24 53.1 4.8 88.5 4.8 53.1-71.04 88.5-71.04 53.1 67.2 88.5 68.8c35.4 1.6 88.5 1.6 88.5 1.6" class="highcharts-graph highcharts-shadow" data-z-index="1" stroke="#000" stroke-dasharray="2,2" stroke-opacity=".15"/><path d="M44.25 236.48s53.1-2.24 88.5-2.24 53.1 4.8 88.5 4.8 53.1-71.04 88.5-71.04 53.1 67.2 88.5 68.8c35.4 1.6 88.5 1.6 88.5 1.6" class="highcharts-graph" data-z-index="1" stroke="#f06" stroke-width="2" stroke-dasharray="2,2"/><path d="M44.25 236.48s53.1-2.24 88.5-2.24 53.1 4.8 88.5 4.8 53.1-71.04 88.5-71.04 53.1 67.2 88.5 68.8c35.4 1.6 88.5 1.6 88.5 1.6" data-z-index="2" class="highcharts-tracker-line" stroke-linecap="round" stroke-linejoin="round" stroke="rgba(192,192,192,0.0001)" stroke-width="22" style="cursor:pointer"/></g><g class="highcharts-markers highcharts-series-4 highcharts-spline-series highcharts-tracker" data-z-index=".1" style="cursor:pointer;outline:0" aria-hidden="false" tabindex="-1" aria-label="ZoomText/Fusion, line 5 of 6 with 6 data points." fill="#f06"><path d="M40 232h8l-4 8Z" class="highcharts-point" tabindex="-1" aria-label="December 2010, 6.1%. ZoomText/Fusion." style="outline:0" transform="translate(59 56)"/><path d="M128 230h8l-4 8Z" class="highcharts-point" tabindex="-1" aria-label="May 2012, 6.8%. ZoomText/Fusion." style="outline:0" transform="translate(59 56)"/><path d="M217 235h8l-4 8Z" class="highcharts-point" tabindex="-1" aria-label="January 2014, 5.3%. ZoomText/Fusion." style="outline:0" transform="translate(59 56)"/><path d="M305 164h8l-4 8Z" class="highcharts-point" tabindex="-1" aria-label="July 2015, 27.5%. ZoomText/Fusion." style="outline:0" transform="translate(59 56)"/><path d="M394 233h8l-4 8Z" class="highcharts-point" tabindex="-1" aria-label="October 2017, 6%. ZoomText/Fusion." style="outline:0" transform="translate(59 56)"/><path d="M482 234h8l-4 8Z" class="highcharts-point" tabindex="-1" aria-label="September 2019, 5.5%. ZoomText/Fusion." style="outline:0" transform="translate(59 56)"/></g><g class="highcharts-series highcharts-series-5 highcharts-spline-series" data-z-index=".1" clip-path="url(#a)" aria-hidden="true" fill="none" transform="translate(59 56)"><path d="M45.25 120.68s53.1-21.056 88.5-28.48c35.4-7.424 53.1-8.64 88.5-8.64s53.1 5.12 88.5 26.88c35.4 21.76 53.1 66.56 88.5 81.92s88.5 15.36 88.5 15.36" class="highcharts-graph highcharts-shadow" data-z-index="1" stroke="#000" stroke-width="5" stroke-dasharray="6,2" stroke-opacity=".05"/><path d="M45.25 120.68s53.1-21.056 88.5-28.48c35.4-7.424 53.1-8.64 88.5-8.64s53.1 5.12 88.5 26.88c35.4 21.76 53.1 66.56 88.5 81.92s88.5 15.36 88.5 15.36" class="highcharts-graph highcharts-shadow" data-z-index="1" stroke="#000" stroke-width="3" stroke-dasharray="6,2" stroke-opacity=".1"/><path d="M45.25 120.68s53.1-21.056 88.5-28.48c35.4-7.424 53.1-8.64 88.5-8.64s53.1 5.12 88.5 26.88c35.4 21.76 53.1 66.56 88.5 81.92s88.5 15.36 88.5 15.36" class="highcharts-graph highcharts-shadow" data-z-index="1" stroke="#000" stroke-dasharray="6,2" stroke-opacity=".15"/><path d="M44.25 119.68s53.1-21.056 88.5-28.48c35.4-7.424 53.1-8.64 88.5-8.64s53.1 5.12 88.5 26.88c35.4 21.76 53.1 66.56 88.5 81.92s88.5 15.36 88.5 15.36" class="highcharts-graph" data-z-index="1" stroke="#7798BF" stroke-width="2" stroke-dasharray="6,2"/><path d="M44.25 119.68s53.1-21.056 88.5-28.48c35.4-7.424 53.1-8.64 88.5-8.64s53.1 5.12 88.5 26.88c35.4 21.76 53.1 66.56 88.5 81.92s88.5 15.36 88.5 15.36" data-z-index="2" class="highcharts-tracker-line" stroke-linecap="round" stroke-linejoin="round" stroke="rgba(192,192,192,0.0001)" stroke-width="22" style="cursor:pointer"/></g><g class="highcharts-markers highcharts-series-5 highcharts-spline-series highcharts-tracker" data-z-index=".1" style="cursor:pointer;outline:0" aria-hidden="false" tabindex="-1" aria-label="Other, line 6 of 6 with 6 data points." fill="#7798BF"><path d="M44 124a4 4 0 1 1 .004 0Z" class="highcharts-point" tabindex="-1" aria-label="December 2010, 42.6%. Other." style="outline:0" transform="translate(59 56)"/><path d="M132 95a4 4 0 1 1 .004 0Z" class="highcharts-point" tabindex="-1" aria-label="May 2012, 51.5%. Other." style="outline:0" transform="translate(59 56)"/><path d="M221 87a4 4 0 1 1 .004 0Z" class="highcharts-point" tabindex="-1" aria-label="January 2014, 54.2%. Other." style="outline:0" transform="translate(59 56)"/><path d="M309 113a4 4 0 1 1 .004 0Z" class="highcharts-point" tabindex="-1" aria-label="July 2015, 45.8%. Other." style="outline:0" transform="translate(59 56)"/><path d="M398 195a4 4 0 1 1 .004 0Z" class="highcharts-point" tabindex="-1" aria-label="October 2017, 20.2%. Other." style="outline:0" transform="translate(59 56)"/><path d="M486 211a4 4 0 1 1 .004 0Z" class="highcharts-point" tabindex="-1" aria-label="September 2019, 15.4%. Other." style="outline:0" transform="translate(59 56)"/></g></g><g data-z-index="3" aria-hidden="true"><text data-z-index="1" y="12" style="color:#8d4654;font-weight:700;fill:#8d4654" transform="translate(508 64)" class="highcharts-label highcharts-series-label highcharts-series-label-0 highcharts-color-none">NVDA</text></g><g data-z-index="3" aria-hidden="true"><text data-z-index="1" y="12" style="color:#f45b5b;font-weight:700;fill:#f45b5b" transform="translate(428 85)" class="highcharts-label highcharts-series-label highcharts-series-label-1 highcharts-color-none">JAWS</text></g><g data-z-index="3" aria-hidden="true"><text data-z-index="1" y="12" style="color:#8085e9;font-weight:700;fill:#8085e9" transform="translate(226 207)" class="highcharts-label highcharts-series-label highcharts-series-label-2 highcharts-color-none">VoiceOver</text></g><g data-z-index="3" aria-hidden="true"><text data-z-index="1" y="12" style="color:#7798bf;font-weight:700;fill:#7798bf" transform="translate(496 199)" class="highcharts-label highcharts-series-label highcharts-series-label-3 highcharts-color-none">Narrator</text></g><g data-z-index="3" aria-hidden="true"><text data-z-index="1" y="12" style="color:#f06;font-weight:700;fill:#f06" transform="translate(234 295)" class="highcharts-label highcharts-series-label highcharts-series-label-4 highcharts-color-none">ZoomText/Fusion</text></g><g data-z-index="3" aria-hidden="true"><text data-z-index="1" y="12" style="color:#7798bf;font-weight:700;fill:#7798bf" transform="translate(512 266)" class="highcharts-label highcharts-series-label highcharts-series-label-5 highcharts-color-none">Other</text></g><text x="300" text-anchor="middle" class="highcharts-title" data-z-index="4" style="color:#000;font-size:16px;font-weight:700;fill:#000" y="22" aria-hidden="true">Most common desktop screen readers</text><text x="300" text-anchor="middle" class="highcharts-subtitle" data-z-index="4" style="color:#000;fill:#000" y="42" aria-hidden="true">Source: WebAIM. Click on points to visit official screen reader website</text><g class="highcharts-legend highcharts-no-tooltip" data-z-index="7" transform="translate(58 362)" aria-hidden="true"><rect fill="#E0E0E8" class="highcharts-legend-box" rx="0" ry="0" width="484" height="43"/><g data-z-index="1"><g class="highcharts-legend-item highcharts-spline-series highcharts-color-undefined highcharts-series-0" data-z-index="1"><path fill="none" d="M8 15h40" class="highcharts-graph" stroke-width="2" stroke="#8d4654"/><path fill="#8d4654" d="M28 19a4 4 0 1 1 .004 0Z" class="highcharts-point"/><text x="45" data-z-index="2" y="16" style="color:#333;cursor:pointer;font-size:13px;font-weight:700;fill:#333" transform="translate(8 3)">NVDA</text></g><g class="highcharts-legend-item highcharts-spline-series highcharts-color-undefined highcharts-series-1" data-z-index="1"><path fill="none" d="M170.766 15h40" class="highcharts-graph" stroke-width="2" stroke-dasharray="6,2,2,2" stroke="#f45b5b"/><path fill="#f45b5b" d="m190.766 11 4 4-4 4-4-4Z" class="highcharts-point"/><text x="45" y="16" data-z-index="2" style="color:#333;cursor:pointer;font-size:13px;font-weight:700;fill:#333" transform="translate(170.766 3)">JAWS</text></g><g class="highcharts-legend-item highcharts-spline-series highcharts-color-undefined highcharts-series-2" data-z-index="1"><path fill="none" d="M333.531 15h40" class="highcharts-graph" stroke-width="2" stroke-dasharray="2,2" stroke="#8085e9"/><path fill="#8085e9" d="M349.531 11h8v8h-8Z" class="highcharts-point"/><text x="45" y="16" data-z-index="2" style="color:#333;cursor:pointer;font-size:13px;font-weight:700;fill:#333" transform="translate(333.531 3)">VoiceOver</text></g><g class="highcharts-legend-item highcharts-spline-series highcharts-color-undefined highcharts-series-3" data-z-index="1"><path fill="none" d="M8 31h40" class="highcharts-graph" stroke-width="2" stroke-dasharray="8,6" stroke="#7798BF"/><path fill="#7798BF" d="m28 27 4 8h-8Z" class="highcharts-point"/><text x="45" y="16" data-z-index="2" style="color:#333;cursor:pointer;font-size:13px;font-weight:700;fill:#333" transform="translate(8 19)">Narrator</text></g><g class="highcharts-legend-item highcharts-spline-series highcharts-color-undefined highcharts-series-4" data-z-index="1"><path fill="none" d="M170.766 31h40" class="highcharts-graph" stroke-width="2" stroke-dasharray="2,2" stroke="#f06"/><path fill="#f06" d="M186.766 27h8l-4 8Z" class="highcharts-point"/><text x="45" y="16" data-z-index="2" style="color:#333;cursor:pointer;font-size:13px;font-weight:700;fill:#333" transform="translate(170.766 19)">ZoomText/Fusion</text></g><g class="highcharts-legend-item highcharts-spline-series highcharts-color-undefined highcharts-series-5" data-z-index="1"><path fill="none" d="M333.531 31h40" class="highcharts-graph" stroke-width="2" stroke-dasharray="6,2" stroke="#7798BF"/><path fill="#7798BF" d="M353.531 35a4 4 0 1 1 .004 0Z" class="highcharts-point"/><text x="45" y="16" data-z-index="2" style="color:#333;cursor:pointer;font-size:13px;font-weight:700;fill:#333" transform="translate(333.531 19)">Other</text></g></g></g><g class="highcharts-axis-labels highcharts-xaxis-labels" data-z-index="7" aria-hidden="true" text-anchor="middle"><text x="103.25" style="color:#6e6e70;cursor:default;font-size:11px;fill:#6e6e70" y="331">December 2010</text><text x="191.75" style="color:#6e6e70;cursor:default;font-size:11px;fill:#6e6e70" y="331">May 2012</text><text x="280.25" style="color:#6e6e70;cursor:default;font-size:11px;fill:#6e6e70" y="331">January 2014</text><text x="368.75" style="color:#6e6e70;cursor:default;font-size:11px;fill:#6e6e70" y="331">July 2015</text><text x="457.25" style="color:#6e6e70;cursor:default;font-size:11px;fill:#6e6e70" y="331">October 2017</text><text x="545.75" style="color:#6e6e70;cursor:default;font-size:11px;fill:#6e6e70" y="331">September 2019</text></g><g class="highcharts-axis-labels highcharts-yaxis-labels" data-z-index="7" aria-hidden="true" text-anchor="end"><text x="44" style="color:#6e6e70;cursor:default;font-size:11px;fill:#6e6e70" y="317">0</text><text x="44" style="color:#6e6e70;cursor:default;font-size:11px;fill:#6e6e70" y="253">20</text><text x="44" style="color:#6e6e70;cursor:default;font-size:11px;fill:#6e6e70" y="189">40</text><text x="44" style="color:#6e6e70;cursor:default;font-size:11px;fill:#6e6e70" y="125">60</text><text x="44" style="color:#6e6e70;cursor:default;font-size:11px;fill:#6e6e70" y="61">80</text></g></svg>