<svg class="highcharts-root" style="font-family:Signika,serif;font-size:12px" xmlns="http://www.w3.org/2000/svg" width="600" height="420" aria-label="Interactive chart" aria-hidden="false"><defs aria-hidden="true"><clipPath id="a"><path fill="none" d="M0 0h520v290H0z"/></clipPath></defs><rect fill="none" class="highcharts-background" width="600" height="420" rx="0" ry="0" aria-hidden="true"/><path fill="none" class="highcharts-plot-background" aria-hidden="true" d="M70 56h520v290H70z"/><g class="highcharts-grid highcharts-xaxis-grid" data-z-index="1" aria-hidden="true" fill="none"><path data-z-index="1" class="highcharts-grid-line" d="M143.5 56v290m75-290v290m74-290v290m74-290v290m74-290v290m75-290v290m74-290v290M69.5 56v290"/></g><g class="highcharts-grid highcharts-yaxis-grid" data-z-index="1" aria-hidden="true" fill="none" stroke="#e6e6e6"><path data-z-index="1" class="highcharts-grid-line" d="M70 346.5h520m-520-58h520m-520-58h520m-520-58h520m-520-58h520m-520-59h520"/></g><path fill="none" class="highcharts-plot-border" data-z-index="1" aria-hidden="true" d="M70 56h520v290H70z"/><g class="highcharts-axis highcharts-xaxis" data-z-index="2" aria-hidden="true"><path fill="none" class="highcharts-axis-line" stroke="#ccd6eb" data-z-index="7" d="M70 346.5h520"/></g><g class="highcharts-axis highcharts-yaxis" data-z-index="2" aria-hidden="true"><text x="22.936" data-z-index="7" text-anchor="middle" transform="rotate(-90 22.936 201)" class="highcharts-axis-title" style="color:#666;fill:#666" y="201">Monthly earnings (NOK)</text><path fill="none" class="highcharts-axis-line" data-z-index="7" d="M70 56v290"/></g><g class="highcharts-series-group" data-z-index="3" aria-hidden="false" fill="none"><g class="highcharts-series highcharts-series-0 highcharts-lowmedhigh-series highcharts-color-0 highcharts-tracker" data-z-index=".1" clip-path="url(#a)" aria-hidden="false" tabindex="-1" aria-label="Scientific research and development, series 1 of 3 with 7 data points." style="outline:0" stroke="#f45b5b" transform="translate(70 56)"><path d="M15.5 88.5h12m-12 37h12m-12 30h12m-5.5-67v67" tabindex="-1" aria-label="2015, low 46240, median 56720, high 69540" style="outline:0"/><path d="M90.5 93.5h12m-12 37h12m-12 25h12m-5.5-62v62" tabindex="-1" aria-label="2016, low 46360, median 55050, high 67710" style="outline:0"/><path d="M164.5 89.5h12m-12 35h12m-12 27h12m-5.5-62v62" tabindex="-1" aria-label="2017, low 47600, median 57040, high 69250" style="outline:0"/><path d="M238.5 80.5h12m-12 38h12m-12 31h12m-5.5-69v69" tabindex="-1" aria-label="2018, low 48610, median 59030, high 72070" style="outline:0"/><path d="M312.5 72.5h12m-12 41h12m-12 32h12m-5.5-73v73" tabindex="-1" aria-label="2019, low 49690, median 60770, high 75040" style="outline:0"/><path d="M387.5 70.5h12m-12 42h12m-12 33h12m-5.5-75v75" tabindex="-1" aria-label="2020, low 50000, median 61170, high 75660" style="outline:0"/><path d="M461.5 61.5h12m-12 46h12m-12 36h12m-5.5-82v82" tabindex="-1" aria-label="2021, low 50500, median 63020, high 78630" style="outline:0"/></g><g class="highcharts-series highcharts-series-1 highcharts-lowmedhigh-series highcharts-color-1 highcharts-tracker" data-z-index=".1" clip-path="url(#a)" aria-hidden="false" tabindex="-1" aria-label="Hospital activities, series 2 of 3 with 7 data points." style="outline:0" stroke="#8085e9" transform="translate(70 56)"><path d="M30.5 82.5h12m-12 52h12m-12 30h12m-5.5-82v82" tabindex="-1" aria-label="2015, low 43310, median 53510, high 71450" style="outline:0"/><path d="M104.5 98.5h12m-12 37h12m-12 26h12m-5.5-63v63" tabindex="-1" aria-label="2016, low 44280, median 53440, high 66040" style="outline:0"/><path d="M179.5 90.5h12m-12 40h12m-12 27h12m-5.5-67v67" tabindex="-1" aria-label="2017, low 45790, median 55080, high 68720" style="outline:0"/><path d="M253.5 84.5h12m-12 41h12m-12 27h12m-5.5-68v68" tabindex="-1" aria-label="2018, low 47500, median 56660, high 70850" style="outline:0"/><path d="M327.5 77.5h12m-12 44h12m-12 28h12m-5.5-72v72" tabindex="-1" aria-label="2019, low 48420, median 58250, high 73430" style="outline:0"/><path d="M402.5 75.5h12m-12 45h12m-12 29h12m-5.5-74v74" tabindex="-1" aria-label="2020, low 48560, median 58390, high 74060" style="outline:0"/><path d="M476.5 62.5h12m-12 45h12m-12 34h12m-5.5-79v79" tabindex="-1" aria-label="2021, low 51100, median 63050, high 78280" style="outline:0"/></g><g class="highcharts-series highcharts-series-2 highcharts-lowmedhigh-series highcharts-color-2 highcharts-tracker" data-z-index=".1" clip-path="url(#a)" aria-hidden="false" tabindex="-1" aria-label="Fire service activities, series 3 of 3 with 7 data points." style="outline:0" stroke="#8d4654" transform="translate(70 56)"><path d="M119.5 140.5h12m-12 20h12m-12 21h12m-5.5-41v41" tabindex="-1" aria-label="2016, low 37380, median 44560, high 51450" style="outline:0"/><path d="M194.5 129.5h12m-12 24h12m-12 26h12m-5.5-50v50" tabindex="-1" aria-label="2017, low 38020, median 47080, high 55230" style="outline:0"/><path d="M342.5 144.5h12m-12 15h12m-12 22h12m-5.5-37v37" tabindex="-1" aria-label="2019, low 37360, median 44940, high 50230" style="outline:0"/><path d="M416.5 127.5h12m-12 27h12m-12 18h12m-5.5-45v45" tabindex="-1" aria-label="2020, low 40560, median 46800, high 55880" style="outline:0"/><path d="M491.5 123.5h12m-12 29h12m-12 15h12m-5.5-44v44" tabindex="-1" aria-label="2021, low 42390, median 47450, high 57400" style="outline:0"/></g></g><text x="300" text-anchor="middle" class="highcharts-title" data-z-index="4" style="color:#000;font-size:16px;font-weight:700;fill:#000" y="22" aria-hidden="true">Monthly earnings, by level of education in Norway</text><text x="300" text-anchor="middle" class="highcharts-subtitle" data-z-index="4" style="color:#000;fill:#000" y="42" aria-hidden="true">Source: <a target="_blank"><tspan>SSB</tspan></a></text><g class="highcharts-legend highcharts-no-tooltip" data-z-index="7" transform="translate(33 378)" aria-hidden="true"><rect fill="#E0E0E8" class="highcharts-legend-box" rx="0" ry="0" width="534" height="27"/><g data-z-index="1"><g class="highcharts-legend-item highcharts-lowmedhigh-series highcharts-color-0 highcharts-series-0" data-z-index="1" transform="translate(8 3)"><text x="21" data-z-index="2" y="16" style="color:#333;cursor:pointer;font-size:13px;font-weight:700;fill:#333">Scientific research and development</text><rect x="1.5" y="4" width="13" height="13" fill="#f45b5b" rx="6.5" ry="6.5" class="highcharts-point" data-z-index="3"/></g><g class="highcharts-legend-item highcharts-lowmedhigh-series highcharts-color-1 highcharts-series-1" data-z-index="1" transform="translate(248.914 3)"><text x="21" y="16" data-z-index="2" style="color:#333;cursor:pointer;font-size:13px;font-weight:700;fill:#333">Hospital activities</text><rect x="1.5" y="4" width="13" height="13" fill="#8085e9" rx="6.5" ry="6.5" class="highcharts-point" data-z-index="3"/></g><g class="highcharts-legend-item highcharts-lowmedhigh-series highcharts-color-2 highcharts-series-2" data-z-index="1" transform="translate(389.21 3)"><text x="21" y="16" data-z-index="2" style="color:#333;cursor:pointer;font-size:13px;font-weight:700;fill:#333">Fire service activities</text><rect x="1.5" y="4" width="13" height="13" fill="#8d4654" rx="6.5" ry="6.5" class="highcharts-point" data-z-index="3"/></g></g></g><g class="highcharts-axis-labels highcharts-xaxis-labels" data-z-index="7" aria-hidden="true" text-anchor="middle"><text x="107.143" style="color:#6e6e70;cursor:default;font-size:11px;fill:#6e6e70" y="365">2015</text><text x="181.429" style="color:#6e6e70;cursor:default;font-size:11px;fill:#6e6e70" y="365">2016</text><text x="255.714" style="color:#6e6e70;cursor:default;font-size:11px;fill:#6e6e70" y="365">2017</text><text x="330" style="color:#6e6e70;cursor:default;font-size:11px;fill:#6e6e70" y="365">2018</text><text x="404.286" style="color:#6e6e70;cursor:default;font-size:11px;fill:#6e6e70" y="365">2019</text><text x="478.571" style="color:#6e6e70;cursor:default;font-size:11px;fill:#6e6e70" y="365">2020</text><text x="552.857" style="color:#6e6e70;cursor:default;font-size:11px;fill:#6e6e70" y="365">2021</text></g><g class="highcharts-axis-labels highcharts-yaxis-labels" data-z-index="7" aria-hidden="true" text-anchor="end"><text x="55" style="color:#6e6e70;cursor:default;font-size:11px;fill:#6e6e70" y="351">0</text><text x="55" style="color:#6e6e70;cursor:default;font-size:11px;fill:#6e6e70" y="293">20k</text><text x="55" style="color:#6e6e70;cursor:default;font-size:11px;fill:#6e6e70" y="235">40k</text><text x="55" style="color:#6e6e70;cursor:default;font-size:11px;fill:#6e6e70" y="177">60k</text><text x="55" style="color:#6e6e70;cursor:default;font-size:11px;fill:#6e6e70" y="119">80k</text><text x="55" style="color:#6e6e70;cursor:default;font-size:11px;fill:#6e6e70" y="61">100k</text></g></svg>