<svg class="highcharts-root" style="font-family:Signika,serif;font-size:12px" xmlns="http://www.w3.org/2000/svg" width="600" height="400" aria-label="Interactive chart" aria-hidden="false"><defs aria-hidden="true"><clipPath id="a"><path fill="none" d="M0 0h525v309H0z"/></clipPath></defs><rect fill="none" class="highcharts-background" width="600" height="400" rx="0" ry="0" aria-hidden="true"/><path fill="none" class="highcharts-plot-background" aria-hidden="true" d="M65 56h525v309H65z"/><g class="highcharts-plot-bands-0" data-z-index="0" aria-hidden="true"><path fill="rgba(68, 170, 213, .2)" class="highcharts-plot-band" d="M558.5 56v309h26V56Z"/></g><g class="highcharts-grid highcharts-xaxis-grid" data-z-index="1" aria-hidden="true" fill="none"><path data-z-index="1" class="highcharts-grid-line" d="M69.5 56v309m129-309v309m129-309v309m128-309v309m129-309v309"/></g><g class="highcharts-grid highcharts-yaxis-grid" data-z-index="1" aria-hidden="true" fill="none" stroke="#e6e6e6"><path data-z-index="1" class="highcharts-grid-line" d="M65 365.5h525m-525-51h525m-525-52h525m-525-51h525m-525-52h525m-525-51h525m-525-53h525"/></g><path fill="none" class="highcharts-plot-border" data-z-index="1" aria-hidden="true" d="M65 56h525v309H65z"/><g class="highcharts-axis highcharts-xaxis" data-z-index="2" aria-hidden="true" fill="none" stroke="#ccd6eb"><path class="highcharts-tick" d="M69.5 365v10m129-10v10m129-10v10m128-10v10m129-10v10"/><path class="highcharts-axis-line" data-z-index="7" d="M65 365.5h525"/></g><g class="highcharts-axis highcharts-yaxis" data-z-index="2" aria-hidden="true"><text x="23.436" data-z-index="7" text-anchor="middle" transform="rotate(-90 23.436 210.5)" class="highcharts-axis-title" style="color:#666;fill:#666" y="210.5">Quantity</text><path fill="none" class="highcharts-axis-line" data-z-index="7" d="M65 56v309"/></g><g class="highcharts-series-group" data-z-index="3" aria-hidden="false"><g class="highcharts-series highcharts-series-0 highcharts-areaspline-series highcharts-color-0" data-z-index=".1" clip-path="url(#a)" aria-hidden="true" transform="translate(65 56)"><path fill="rgba(244,91,91,0.5)" d="M5.147 113.3s15.441 3.605 25.735 3.605c10.294 0 15.442-1.747 25.736-3.049 10.294-1.302 15.44-3.46 25.735-3.46 10.294 0 15.441 6.624 25.735 9.239 10.294 2.614 15.441 1.985 25.736 3.831 10.294 1.846 15.44 5.397 25.735 5.397 10.294 0 15.441-3.497 25.735-3.497 10.294 0 15.441.191 25.735.191 10.295 0 15.442-.995 25.736-1.808 10.294-.812 15.44-2.121 25.735-2.255 10.294-.134 15.441-.134 25.735-.134 10.294 0 15.441 9.229 25.736 9.229 10.294 0 15.44-1.612 25.735-1.612 10.294 0 15.441 5.114 25.735 9.048 10.294 3.935 15.441 9.074 25.735 10.625 10.295 1.55 15.442 1.55 25.736 1.55s15.44-3.997 25.735-3.997c10.294 0 15.441 3.536 25.735 4.867 10.294 1.33 15.442 1.787 25.736 1.787s25.735-7.452 25.735-7.452V309H5.147Z" class="highcharts-area" data-z-index="0"/><path fill="none" d="M6.147 114.3s15.441 3.605 25.735 3.605c10.294 0 15.442-1.747 25.736-3.049 10.294-1.302 15.44-3.46 25.735-3.46 10.294 0 15.441 6.624 25.735 9.239 10.294 2.614 15.441 1.985 25.736 3.831 10.294 1.846 15.44 5.397 25.735 5.397 10.294 0 15.441-3.497 25.735-3.497 10.294 0 15.441.191 25.735.191 10.295 0 15.442-.995 25.736-1.808 10.294-.812 15.44-2.121 25.735-2.255 10.294-.134 15.441-.134 25.735-.134 10.294 0 15.441 9.229 25.736 9.229 10.294 0 15.44-1.612 25.735-1.612 10.294 0 15.441 5.114 25.735 9.048 10.294 3.935 15.441 9.074 25.735 10.625 10.295 1.55 15.442 1.55 25.736 1.55s15.44-3.997 25.735-3.997c10.294 0 15.441 3.536 25.735 4.867 10.294 1.33 15.442 1.787 25.736 1.787s25.735-7.452 25.735-7.452" class="highcharts-graph highcharts-shadow" data-z-index="1" stroke="#000" stroke-width="5" stroke-linejoin="round" stroke-linecap="round" stroke-opacity=".05"/><path fill="none" d="M6.147 114.3s15.441 3.605 25.735 3.605c10.294 0 15.442-1.747 25.736-3.049 10.294-1.302 15.44-3.46 25.735-3.46 10.294 0 15.441 6.624 25.735 9.239 10.294 2.614 15.441 1.985 25.736 3.831 10.294 1.846 15.44 5.397 25.735 5.397 10.294 0 15.441-3.497 25.735-3.497 10.294 0 15.441.191 25.735.191 10.295 0 15.442-.995 25.736-1.808 10.294-.812 15.44-2.121 25.735-2.255 10.294-.134 15.441-.134 25.735-.134 10.294 0 15.441 9.229 25.736 9.229 10.294 0 15.44-1.612 25.735-1.612 10.294 0 15.441 5.114 25.735 9.048 10.294 3.935 15.441 9.074 25.735 10.625 10.295 1.55 15.442 1.55 25.736 1.55s15.44-3.997 25.735-3.997c10.294 0 15.441 3.536 25.735 4.867 10.294 1.33 15.442 1.787 25.736 1.787s25.735-7.452 25.735-7.452" class="highcharts-graph highcharts-shadow" data-z-index="1" stroke="#000" stroke-width="3" stroke-linejoin="round" stroke-linecap="round" stroke-opacity=".1"/><path fill="none" d="M6.147 114.3s15.441 3.605 25.735 3.605c10.294 0 15.442-1.747 25.736-3.049 10.294-1.302 15.44-3.46 25.735-3.46 10.294 0 15.441 6.624 25.735 9.239 10.294 2.614 15.441 1.985 25.736 3.831 10.294 1.846 15.44 5.397 25.735 5.397 10.294 0 15.441-3.497 25.735-3.497 10.294 0 15.441.191 25.735.191 10.295 0 15.442-.995 25.736-1.808 10.294-.812 15.44-2.121 25.735-2.255 10.294-.134 15.441-.134 25.735-.134 10.294 0 15.441 9.229 25.736 9.229 10.294 0 15.44-1.612 25.735-1.612 10.294 0 15.441 5.114 25.735 9.048 10.294 3.935 15.441 9.074 25.735 10.625 10.295 1.55 15.442 1.55 25.736 1.55s15.44-3.997 25.735-3.997c10.294 0 15.441 3.536 25.735 4.867 10.294 1.33 15.442 1.787 25.736 1.787s25.735-7.452 25.735-7.452" class="highcharts-graph highcharts-shadow" data-z-index="1" stroke="#000" stroke-linejoin="round" stroke-linecap="round" stroke-opacity=".15"/><path fill="none" d="M5.147 113.3s15.441 3.605 25.735 3.605c10.294 0 15.442-1.747 25.736-3.049 10.294-1.302 15.44-3.46 25.735-3.46 10.294 0 15.441 6.624 25.735 9.239 10.294 2.614 15.441 1.985 25.736 3.831 10.294 1.846 15.44 5.397 25.735 5.397 10.294 0 15.441-3.497 25.735-3.497 10.294 0 15.441.191 25.735.191 10.295 0 15.442-.995 25.736-1.808 10.294-.812 15.44-2.121 25.735-2.255 10.294-.134 15.441-.134 25.735-.134 10.294 0 15.441 9.229 25.736 9.229 10.294 0 15.44-1.612 25.735-1.612 10.294 0 15.441 5.114 25.735 9.048 10.294 3.935 15.441 9.074 25.735 10.625 10.295 1.55 15.442 1.55 25.736 1.55s15.44-3.997 25.735-3.997c10.294 0 15.441 3.536 25.735 4.867 10.294 1.33 15.442 1.787 25.736 1.787s25.735-7.452 25.735-7.452" class="highcharts-graph" data-z-index="1" stroke="#f45b5b" stroke-width="2" stroke-linejoin="round" stroke-linecap="round"/><path fill="none" d="M5.147 113.3s15.441 3.605 25.735 3.605c10.294 0 15.442-1.747 25.736-3.049 10.294-1.302 15.44-3.46 25.735-3.46 10.294 0 15.441 6.624 25.735 9.239 10.294 2.614 15.441 1.985 25.736 3.831 10.294 1.846 15.44 5.397 25.735 5.397 10.294 0 15.441-3.497 25.735-3.497 10.294 0 15.441.191 25.735.191 10.295 0 15.442-.995 25.736-1.808 10.294-.812 15.44-2.121 25.735-2.255 10.294-.134 15.441-.134 25.735-.134 10.294 0 15.441 9.229 25.736 9.229 10.294 0 15.44-1.612 25.735-1.612 10.294 0 15.441 5.114 25.735 9.048 10.294 3.935 15.441 9.074 25.735 10.625 10.295 1.55 15.442 1.55 25.736 1.55s15.44-3.997 25.735-3.997c10.294 0 15.441 3.536 25.735 4.867 10.294 1.33 15.442 1.787 25.736 1.787s25.735-7.452 25.735-7.452" data-z-index="2" class="highcharts-tracker-line" stroke-linecap="round" stroke-linejoin="round" stroke="rgba(192,192,192,0.0001)" stroke-width="22"/></g><g class="highcharts-markers highcharts-series-0 highcharts-areaspline-series highcharts-color-0 highcharts-tracker" data-z-index=".1" aria-hidden="false" tabindex="-1" aria-label="Moose, series 1 of 2 with 21 data points." style="outline:0" fill="#f45b5b"><path d="M5 117a4 4 0 1 1 .004 0Z" class="highcharts-point highcharts-color-0" tabindex="-1" aria-label="x, 2000, 38,000. Moose." style="outline:0" transform="translate(65 56)"/><path d="M30 121a4 4 0 1 1 .004 0Z" class="highcharts-point highcharts-color-0" tabindex="-1" aria-label="x, 2001, 37,300. Moose." style="outline:0" transform="translate(65 56)"/><path d="M56 118a4 4 0 1 1 .004 0Z" class="highcharts-point highcharts-color-0" tabindex="-1" aria-label="x, 2002, 37,892. Moose." style="outline:0" transform="translate(65 56)"/><path d="M82 114a4 4 0 1 1 .004 0Z" class="highcharts-point highcharts-color-0" tabindex="-1" aria-label="x, 2003, 38,564. Moose." style="outline:0" transform="translate(65 56)"/><path d="M108 124a4 4 0 1 1 .004 0Z" class="highcharts-point highcharts-color-0" tabindex="-1" aria-label="x, 2004, 36,770. Moose." style="outline:0" transform="translate(65 56)"/><path d="M133 127a4 4 0 1 1 .004 0Z" class="highcharts-point highcharts-color-0" tabindex="-1" aria-label="x, 2005, 36,026. Moose." style="outline:0" transform="translate(65 56)"/><path d="M159 133a4 4 0 1 1 .004 0Z" class="highcharts-point highcharts-color-0" tabindex="-1" aria-label="x, 2006, 34,978. Moose." style="outline:0" transform="translate(65 56)"/><path d="M185 129a4 4 0 1 1 .004 0Z" class="highcharts-point highcharts-color-0" tabindex="-1" aria-label="x, 2007, 35,657. Moose." style="outline:0" transform="translate(65 56)"/><path d="M211 130a4 4 0 1 1 .004 0Z" class="highcharts-point highcharts-color-0" tabindex="-1" aria-label="x, 2008, 35,620. Moose." style="outline:0" transform="translate(65 56)"/><path d="M236 128a4 4 0 1 1 .004 0Z" class="highcharts-point highcharts-color-0" tabindex="-1" aria-label="x, 2009, 35,971. Moose." style="outline:0" transform="translate(65 56)"/><path d="M262 125a4 4 0 1 1 .004 0Z" class="highcharts-point highcharts-color-0" tabindex="-1" aria-label="x, 2010, 36,409. Moose." style="outline:0" transform="translate(65 56)"/><path d="M288 125a4 4 0 1 1 .004 0Z" class="highcharts-point highcharts-color-0" tabindex="-1" aria-label="x, 2011, 36,435. Moose." style="outline:0" transform="translate(65 56)"/><path d="M313 135a4 4 0 1 1 .004 0Z" class="highcharts-point highcharts-color-0" tabindex="-1" aria-label="x, 2012, 34,643. Moose." style="outline:0" transform="translate(65 56)"/><path d="M339 133a4 4 0 1 1 .004 0Z" class="highcharts-point highcharts-color-0" tabindex="-1" aria-label="x, 2013, 34,956. Moose." style="outline:0" transform="translate(65 56)"/><path d="M365 142a4 4 0 1 1 .004 0Z" class="highcharts-point highcharts-color-0" tabindex="-1" aria-label="x, 2014, 33,199. Moose." style="outline:0" transform="translate(65 56)"/><path d="M391 153a4 4 0 1 1 .004 0Z" class="highcharts-point highcharts-color-0" tabindex="-1" aria-label="x, 2015, 31,136. Moose." style="outline:0" transform="translate(65 56)"/><path d="M416 154a4 4 0 1 1 .004 0Z" class="highcharts-point highcharts-color-0" tabindex="-1" aria-label="x, 2016, 30,835. Moose." style="outline:0" transform="translate(65 56)"/><path d="M442 150a4 4 0 1 1 .004 0Z" class="highcharts-point highcharts-color-0" tabindex="-1" aria-label="x, 2017, 31,611. Moose." style="outline:0" transform="translate(65 56)"/><path d="M468 155a4 4 0 1 1 .004 0Z" class="highcharts-point highcharts-color-0" tabindex="-1" aria-label="x, 2018, 30,666. Moose." style="outline:0" transform="translate(65 56)"/><path d="M494 157a4 4 0 1 1 .004 0Z" class="highcharts-point highcharts-color-0" tabindex="-1" aria-label="x, 2019, 30,319. Moose." style="outline:0" transform="translate(65 56)"/><path d="M519 149a4 4 0 1 1 .004 0Z" class="highcharts-point highcharts-color-0" tabindex="-1" aria-label="x, 2020, 31,766. Moose." style="outline:0" transform="translate(65 56)"/></g><g class="highcharts-series highcharts-series-1 highcharts-areaspline-series highcharts-color-1" data-z-index=".1" clip-path="url(#a)" aria-hidden="true" transform="translate(65 56)"><path fill="rgba(128,133,233,0.5)" d="M5.147 192.95s15.441-3.426 25.735-5.485c10.294-2.059 15.442-3.166 25.736-4.81 10.294-1.644 15.44-2.005 25.735-3.41 10.294-1.403 15.441-1.096 25.735-3.61 10.294-2.513 15.441-5.58 25.736-8.955 10.294-3.376 15.44-2.76 25.735-7.921 10.294-5.161 15.441-11.178 25.735-17.886 10.294-6.708 15.441-10.441 25.735-15.656 10.295-5.215 15.442-6.858 25.736-10.418 10.294-3.561 15.44-7.385 25.735-7.385 10.294 0 15.441 7.681 25.735 11.917 10.294 4.235 15.441 9.26 25.736 9.26 10.294 0 15.44-6.031 25.735-6.031 10.294 0 15.441 2.91 25.735 5.469 10.294 2.559 15.441 7.323 25.735 7.323 10.295 0 15.442-11.78 25.736-20.883s15.44-18.404 25.735-24.632c10.294-6.229 15.441-2.504 25.735-6.51 10.294-4.006 15.442-7.104 25.736-13.519s25.735-18.555 25.735-18.555V309H5.147Z" class="highcharts-area" data-z-index="0"/><path fill="none" d="M6.147 193.95s15.441-3.426 25.735-5.485c10.294-2.059 15.442-3.166 25.736-4.81 10.294-1.644 15.44-2.005 25.735-3.41 10.294-1.403 15.441-1.096 25.735-3.61 10.294-2.513 15.441-5.58 25.736-8.955 10.294-3.376 15.44-2.76 25.735-7.921 10.294-5.161 15.441-11.178 25.735-17.886 10.294-6.708 15.441-10.441 25.735-15.656 10.295-5.215 15.442-6.858 25.736-10.418 10.294-3.561 15.44-7.385 25.735-7.385 10.294 0 15.441 7.681 25.735 11.917 10.294 4.235 15.441 9.26 25.736 9.26 10.294 0 15.44-6.031 25.735-6.031 10.294 0 15.441 2.91 25.735 5.469 10.294 2.559 15.441 7.323 25.735 7.323 10.295 0 15.442-11.78 25.736-20.883s15.44-18.404 25.735-24.632c10.294-6.229 15.441-2.504 25.735-6.51 10.294-4.006 15.442-7.104 25.736-13.519s25.735-18.555 25.735-18.555" class="highcharts-graph highcharts-shadow" data-z-index="1" stroke="#000" stroke-width="5" stroke-linejoin="round" stroke-linecap="round" stroke-opacity=".05"/><path fill="none" d="M6.147 193.95s15.441-3.426 25.735-5.485c10.294-2.059 15.442-3.166 25.736-4.81 10.294-1.644 15.44-2.005 25.735-3.41 10.294-1.403 15.441-1.096 25.735-3.61 10.294-2.513 15.441-5.58 25.736-8.955 10.294-3.376 15.44-2.76 25.735-7.921 10.294-5.161 15.441-11.178 25.735-17.886 10.294-6.708 15.441-10.441 25.735-15.656 10.295-5.215 15.442-6.858 25.736-10.418 10.294-3.561 15.44-7.385 25.735-7.385 10.294 0 15.441 7.681 25.735 11.917 10.294 4.235 15.441 9.26 25.736 9.26 10.294 0 15.44-6.031 25.735-6.031 10.294 0 15.441 2.91 25.735 5.469 10.294 2.559 15.441 7.323 25.735 7.323 10.295 0 15.442-11.78 25.736-20.883s15.44-18.404 25.735-24.632c10.294-6.229 15.441-2.504 25.735-6.51 10.294-4.006 15.442-7.104 25.736-13.519s25.735-18.555 25.735-18.555" class="highcharts-graph highcharts-shadow" data-z-index="1" stroke="#000" stroke-width="3" stroke-linejoin="round" stroke-linecap="round" stroke-opacity=".1"/><path fill="none" d="M6.147 193.95s15.441-3.426 25.735-5.485c10.294-2.059 15.442-3.166 25.736-4.81 10.294-1.644 15.44-2.005 25.735-3.41 10.294-1.403 15.441-1.096 25.735-3.61 10.294-2.513 15.441-5.58 25.736-8.955 10.294-3.376 15.44-2.76 25.735-7.921 10.294-5.161 15.441-11.178 25.735-17.886 10.294-6.708 15.441-10.441 25.735-15.656 10.295-5.215 15.442-6.858 25.736-10.418 10.294-3.561 15.44-7.385 25.735-7.385 10.294 0 15.441 7.681 25.735 11.917 10.294 4.235 15.441 9.26 25.736 9.26 10.294 0 15.44-6.031 25.735-6.031 10.294 0 15.441 2.91 25.735 5.469 10.294 2.559 15.441 7.323 25.735 7.323 10.295 0 15.442-11.78 25.736-20.883s15.44-18.404 25.735-24.632c10.294-6.229 15.441-2.504 25.735-6.51 10.294-4.006 15.442-7.104 25.736-13.519s25.735-18.555 25.735-18.555" class="highcharts-graph highcharts-shadow" data-z-index="1" stroke="#000" stroke-linejoin="round" stroke-linecap="round" stroke-opacity=".15"/><path fill="none" d="M5.147 192.95s15.441-3.426 25.735-5.485c10.294-2.059 15.442-3.166 25.736-4.81 10.294-1.644 15.44-2.005 25.735-3.41 10.294-1.403 15.441-1.096 25.735-3.61 10.294-2.513 15.441-5.58 25.736-8.955 10.294-3.376 15.44-2.76 25.735-7.921 10.294-5.161 15.441-11.178 25.735-17.886 10.294-6.708 15.441-10.441 25.735-15.656 10.295-5.215 15.442-6.858 25.736-10.418 10.294-3.561 15.44-7.385 25.735-7.385 10.294 0 15.441 7.681 25.735 11.917 10.294 4.235 15.441 9.26 25.736 9.26 10.294 0 15.44-6.031 25.735-6.031 10.294 0 15.441 2.91 25.735 5.469 10.294 2.559 15.441 7.323 25.735 7.323 10.295 0 15.442-11.78 25.736-20.883s15.44-18.404 25.735-24.632c10.294-6.229 15.441-2.504 25.735-6.51 10.294-4.006 15.442-7.104 25.736-13.519s25.735-18.555 25.735-18.555" class="highcharts-graph" data-z-index="1" stroke="#8085e9" stroke-width="2" stroke-linejoin="round" stroke-linecap="round"/><path fill="none" d="M5.147 192.95s15.441-3.426 25.735-5.485c10.294-2.059 15.442-3.166 25.736-4.81 10.294-1.644 15.44-2.005 25.735-3.41 10.294-1.403 15.441-1.096 25.735-3.61 10.294-2.513 15.441-5.58 25.736-8.955 10.294-3.376 15.44-2.76 25.735-7.921 10.294-5.161 15.441-11.178 25.735-17.886 10.294-6.708 15.441-10.441 25.735-15.656 10.295-5.215 15.442-6.858 25.736-10.418 10.294-3.561 15.44-7.385 25.735-7.385 10.294 0 15.441 7.681 25.735 11.917 10.294 4.235 15.441 9.26 25.736 9.26 10.294 0 15.44-6.031 25.735-6.031 10.294 0 15.441 2.91 25.735 5.469 10.294 2.559 15.441 7.323 25.735 7.323 10.295 0 15.442-11.78 25.736-20.883s15.44-18.404 25.735-24.632c10.294-6.229 15.441-2.504 25.735-6.51 10.294-4.006 15.442-7.104 25.736-13.519s25.735-18.555 25.735-18.555" data-z-index="2" class="highcharts-tracker-line" stroke-linecap="round" stroke-linejoin="round" stroke="rgba(192,192,192,0.0001)" stroke-width="22"/></g><g class="highcharts-markers highcharts-series-1 highcharts-areaspline-series highcharts-color-1 highcharts-tracker" data-z-index=".1" aria-hidden="false" tabindex="-1" aria-label="Deer, series 2 of 2 with 21 data points." style="outline:0" fill="#8085e9"><path d="m5 189 4 4-4 4-4-4Z" class="highcharts-point highcharts-color-1" tabindex="-1" aria-label="x, 2000, 22,534. Deer." style="outline:0" transform="translate(65 56)"/><path d="m30 183 4 4-4 4-4-4Z" class="highcharts-point highcharts-color-1" tabindex="-1" aria-label="x, 2001, 23,599. Deer." style="outline:0" transform="translate(65 56)"/><path d="m56 179 4 4-4 4-4-4Z" class="highcharts-point highcharts-color-1" tabindex="-1" aria-label="x, 2002, 24,533. Deer." style="outline:0" transform="translate(65 56)"/><path d="m82 175 4 4-4 4-4-4Z" class="highcharts-point highcharts-color-1" tabindex="-1" aria-label="x, 2003, 25,195. Deer." style="outline:0" transform="translate(65 56)"/><path d="m108 172 4 4-4 4-4-4Z" class="highcharts-point highcharts-color-1" tabindex="-1" aria-label="x, 2004, 25,896. Deer." style="outline:0" transform="translate(65 56)"/><path d="m133 163 4 4-4 4-4-4Z" class="highcharts-point highcharts-color-1" tabindex="-1" aria-label="x, 2005, 27,635. Deer." style="outline:0" transform="translate(65 56)"/><path d="m159 155 4 4-4 4-4-4Z" class="highcharts-point highcharts-color-1" tabindex="-1" aria-label="x, 2006, 29,173. Deer." style="outline:0" transform="translate(65 56)"/><path d="m185 137 4 4-4 4-4-4Z" class="highcharts-point highcharts-color-1" tabindex="-1" aria-label="x, 2007, 32,646. Deer." style="outline:0" transform="translate(65 56)"/><path d="m211 121 4 4-4 4-4-4Z" class="highcharts-point highcharts-color-1" tabindex="-1" aria-label="x, 2008, 35,686. Deer." style="outline:0" transform="translate(65 56)"/><path d="m236 111 4 4-4 4-4-4Z" class="highcharts-point highcharts-color-1" tabindex="-1" aria-label="x, 2009, 37,709. Deer." style="outline:0" transform="translate(65 56)"/><path d="m262 103 4 4-4 4-4-4Z" class="highcharts-point highcharts-color-1" tabindex="-1" aria-label="x, 2010, 39,143. Deer." style="outline:0" transform="translate(65 56)"/><path d="m288 115 4 4-4 4-4-4Z" class="highcharts-point highcharts-color-1" tabindex="-1" aria-label="x, 2011, 36,829. Deer." style="outline:0" transform="translate(65 56)"/><path d="m313 125 4 4-4 4-4-4Z" class="highcharts-point highcharts-color-1" tabindex="-1" aria-label="x, 2012, 35,031. Deer." style="outline:0" transform="translate(65 56)"/><path d="m339 119 4 4-4 4-4-4Z" class="highcharts-point highcharts-color-1" tabindex="-1" aria-label="x, 2013, 36,202. Deer." style="outline:0" transform="translate(65 56)"/><path d="m365 124 4 4-4 4-4-4Z" class="highcharts-point highcharts-color-1" tabindex="-1" aria-label="x, 2014, 35,140. Deer." style="outline:0" transform="translate(65 56)"/><path d="m391 131 4 4-4 4-4-4Z" class="highcharts-point highcharts-color-1" tabindex="-1" aria-label="x, 2015, 33,718. Deer." style="outline:0" transform="translate(65 56)"/><path d="m416 110 4 4-4 4-4-4Z" class="highcharts-point highcharts-color-1" tabindex="-1" aria-label="x, 2016, 37,773. Deer." style="outline:0" transform="translate(65 56)"/><path d="m442 86 4 4-4 4-4-4Z" class="highcharts-point highcharts-color-1" tabindex="-1" aria-label="x, 2017, 42,556. Deer." style="outline:0" transform="translate(65 56)"/><path d="m468 79 4 4-4 4-4-4Z" class="highcharts-point highcharts-color-1" tabindex="-1" aria-label="x, 2018, 43,820. Deer." style="outline:0" transform="translate(65 56)"/><path d="m494 66 4 4-4 4-4-4Z" class="highcharts-point highcharts-color-1" tabindex="-1" aria-label="x, 2019, 46,445. Deer." style="outline:0" transform="translate(65 56)"/><path d="m519 47 4 4-4 4-4-4Z" class="highcharts-point highcharts-color-1" tabindex="-1" aria-label="x, 2020, 50,048. Deer." style="outline:0" transform="translate(65 56)"/></g></g><text x="300" text-anchor="middle" class="highcharts-title" data-z-index="4" style="color:#000;font-size:16px;font-weight:700;fill:#000" y="22" aria-hidden="true">Moose and deer hunting in Norway, 2000 - 2021</text><text x="300" text-anchor="middle" class="highcharts-subtitle" data-z-index="4" style="color:#000;fill:#000" y="42" aria-hidden="true">Source: <a target="_blank"><tspan>SSB</tspan></a></text><g class="highcharts-legend highcharts-no-tooltip" data-z-index="7" transform="translate(130 80)" aria-hidden="true"><rect fill="#E0E0E8" class="highcharts-legend-box" rx="0" ry="0" stroke="#999" x=".5" y=".5" width="72" height="42"/><g data-z-index="1"><g class="highcharts-legend-item highcharts-areaspline-series highcharts-color-0 highcharts-series-0" data-z-index="1" transform="translate(8 3)"><text x="21" data-z-index="2" y="16" style="color:#333;cursor:pointer;font-size:13px;font-weight:700;fill:#333">Moose</text><rect x="1.5" y="4" width="13" height="13" fill="#f45b5b" rx="6.5" ry="6.5" class="highcharts-point" data-z-index="3"/></g><g class="highcharts-legend-item highcharts-areaspline-series highcharts-color-1 highcharts-series-1" data-z-index="1" transform="translate(8 19)"><text x="21" y="16" data-z-index="2" style="color:#333;cursor:pointer;font-size:13px;font-weight:700;fill:#333">Deer</text><rect x="1.5" y="4" width="13" height="13" fill="#8085e9" rx="6.5" ry="6.5" class="highcharts-point" data-z-index="3"/></g></g></g><g class="highcharts-axis-labels highcharts-xaxis-labels" data-z-index="7" aria-hidden="true" text-anchor="middle"><text x="70.147" style="color:#6e6e70;cursor:default;font-size:11px;fill:#6e6e70" y="384">2000</text><text x="198.824" style="color:#6e6e70;cursor:default;font-size:11px;fill:#6e6e70" y="384">2005</text><text x="327.5" style="color:#6e6e70;cursor:default;font-size:11px;fill:#6e6e70" y="384">2010</text><text x="456.176" style="color:#6e6e70;cursor:default;font-size:11px;fill:#6e6e70" y="384">2015</text><text x="579" style="color:#6e6e70;cursor:default;font-size:11px;fill:#6e6e70" y="384">2020</text></g><g class="highcharts-axis-labels highcharts-yaxis-labels" data-z-index="7" aria-hidden="true" text-anchor="end"><text x="50" style="color:#6e6e70;cursor:default;font-size:11px;fill:#6e6e70" y="370">0</text><text x="50" style="color:#6e6e70;cursor:default;font-size:11px;fill:#6e6e70" y="318">10k</text><text x="50" style="color:#6e6e70;cursor:default;font-size:11px;fill:#6e6e70" y="267">20k</text><text x="50" style="color:#6e6e70;cursor:default;font-size:11px;fill:#6e6e70" y="215">30k</text><text x="50" style="color:#6e6e70;cursor:default;font-size:11px;fill:#6e6e70" y="164">40k</text><text x="50" style="color:#6e6e70;cursor:default;font-size:11px;fill:#6e6e70" y="112">50k</text><text x="50" style="color:#6e6e70;cursor:default;font-size:11px;fill:#6e6e70" y="61">60k</text></g></svg>