<svg class="highcharts-root" style="font-family:Signika,serif;font-size:12px" xmlns="http://www.w3.org/2000/svg" width="600" height="400" aria-label="Interactive chart" aria-hidden="false"><defs aria-hidden="true"><clipPath id="a"><path fill="none" d="M0 0h554v270H0z"/></clipPath></defs><rect fill="none" class="highcharts-background" width="600" height="400" rx="0" ry="0" aria-hidden="true"/><path fill="none" class="highcharts-plot-background" aria-hidden="true" d="M36 56h554v270H36z"/><g class="highcharts-grid highcharts-xaxis-grid" data-z-index="1" aria-hidden="true" fill="none"><path data-z-index="1" class="highcharts-grid-line" d="M95.5 56v270m126-270v270m127-270v270m127-270v270"/></g><g class="highcharts-grid highcharts-yaxis-grid" data-z-index="1" aria-hidden="true" fill="none" stroke="#e6e6e6"><path data-z-index="1" class="highcharts-grid-line" d="M36 326.5h554m-554-45h554m-554-45h554m-554-45h554m-554-45h554m-554-45h554m-554-46h554"/></g><path fill="none" class="highcharts-plot-border" data-z-index="1" aria-hidden="true" d="M36 56h554v270H36z"/><g class="highcharts-axis highcharts-xaxis" data-z-index="2" aria-hidden="true" fill="none" stroke="#ccd6eb"><path class="highcharts-tick" d="M95.5 326v10m126-10v10m127-10v10m127-10v10"/><path class="highcharts-axis-line" data-z-index="7" d="M36 326.5h554"/></g><g class="highcharts-axis highcharts-yaxis" data-z-index="2" aria-hidden="true"><path fill="none" class="highcharts-axis-line" data-z-index="7" d="M36 56v270"/></g><g class="highcharts-series-group" data-z-index="3" aria-hidden="false"><g class="highcharts-series highcharts-series-1 highcharts-arearange-series" data-z-index=".1" clip-path="url(#a)" aria-hidden="true" transform="translate(36 56)"><path fill="rgba(244,91,91,0.3)" d="m5.431 146.7 18.105 3.6 18.105 18.9 18.104 29.7 18.105 27 18.104-1.8 18.105-37.8 18.104-16.2 18.105 19.8 18.105 38.7 18.104-62.1 18.105 26.1 18.104-10.8 18.105 15.3 18.104 19.8L277 229.5l18.105-39.6 18.104-19.8 18.105 28.8 18.104-72 18.105 9 18.104 48.6 18.105-18 18.105 26.1 18.104-38.7 18.105-6.3 18.104 36 18.105 9 18.104 9.9 18.105 18 18.105-44.1V79.2l-18.105-27.9-18.105-12.6-18.104 27-18.105-10.8-18.104 27-18.105-7.2-18.104 5.4-18.105-11.7L385.627 36l-18.104-13.5-18.105-9.9-18.104 17.1-18.105 41.4-18.104 20.7L277 88.2h-18.105l-18.104 18-18.105-36-18.104-10.8L186.477 36l-18.104 25.2-18.105 43.2-18.105-18.9-18.104-5.4-18.105 38.7L77.85 84.6l-18.105 29.7-18.104-23.4-18.105-17.1L5.43 39.6v107.1" class="highcharts-area" data-z-index="0"/><path fill="none" d="m6.431 147.7 18.105 3.6 18.105 18.9 18.104 29.7 18.105 27 18.104-1.8 18.105-37.8 18.104-16.2 18.105 19.8 18.105 38.7 18.104-62.1 18.105 26.1 18.104-10.8 18.105 15.3 18.104 19.8L278 230.5l18.105-39.6 18.104-19.8 18.105 28.8 18.104-72 18.105 9 18.104 48.6 18.105-18 18.105 26.1 18.104-38.7 18.105-6.3 18.104 36 18.105 9 18.104 9.9 18.105 18 18.105-44.1m0-97.2-18.105-27.9-18.105-12.6-18.104 27-18.105-10.8-18.104 27-18.105-7.2-18.104 5.4-18.105-11.7L386.627 37l-18.104-13.5-18.105-9.9-18.104 17.1-18.105 41.4-18.104 20.7L278 89.2h-18.105l-18.104 18-18.105-36-18.104-10.8L187.477 37l-18.104 25.2-18.105 43.2-18.105-18.9-18.104-5.4-18.105 38.7L78.85 85.6l-18.105 29.7-18.104-23.4-18.105-17.1L6.43 40.6" class="highcharts-graph highcharts-shadow" data-z-index="1" stroke="#000" stroke-width="5" stroke-linejoin="round" stroke-linecap="round" stroke-opacity=".05"/><path fill="none" d="m6.431 147.7 18.105 3.6 18.105 18.9 18.104 29.7 18.105 27 18.104-1.8 18.105-37.8 18.104-16.2 18.105 19.8 18.105 38.7 18.104-62.1 18.105 26.1 18.104-10.8 18.105 15.3 18.104 19.8L278 230.5l18.105-39.6 18.104-19.8 18.105 28.8 18.104-72 18.105 9 18.104 48.6 18.105-18 18.105 26.1 18.104-38.7 18.105-6.3 18.104 36 18.105 9 18.104 9.9 18.105 18 18.105-44.1m0-97.2-18.105-27.9-18.105-12.6-18.104 27-18.105-10.8-18.104 27-18.105-7.2-18.104 5.4-18.105-11.7L386.627 37l-18.104-13.5-18.105-9.9-18.104 17.1-18.105 41.4-18.104 20.7L278 89.2h-18.105l-18.104 18-18.105-36-18.104-10.8L187.477 37l-18.104 25.2-18.105 43.2-18.105-18.9-18.104-5.4-18.105 38.7L78.85 85.6l-18.105 29.7-18.104-23.4-18.105-17.1L6.43 40.6" class="highcharts-graph highcharts-shadow" data-z-index="1" stroke="#000" stroke-width="3" stroke-linejoin="round" stroke-linecap="round" stroke-opacity=".1"/><path fill="none" d="m6.431 147.7 18.105 3.6 18.105 18.9 18.104 29.7 18.105 27 18.104-1.8 18.105-37.8 18.104-16.2 18.105 19.8 18.105 38.7 18.104-62.1 18.105 26.1 18.104-10.8 18.105 15.3 18.104 19.8L278 230.5l18.105-39.6 18.104-19.8 18.105 28.8 18.104-72 18.105 9 18.104 48.6 18.105-18 18.105 26.1 18.104-38.7 18.105-6.3 18.104 36 18.105 9 18.104 9.9 18.105 18 18.105-44.1m0-97.2-18.105-27.9-18.105-12.6-18.104 27-18.105-10.8-18.104 27-18.105-7.2-18.104 5.4-18.105-11.7L386.627 37l-18.104-13.5-18.105-9.9-18.104 17.1-18.105 41.4-18.104 20.7L278 89.2h-18.105l-18.104 18-18.105-36-18.104-10.8L187.477 37l-18.104 25.2-18.105 43.2-18.105-18.9-18.104-5.4-18.105 38.7L78.85 85.6l-18.105 29.7-18.104-23.4-18.105-17.1L6.43 40.6" class="highcharts-graph highcharts-shadow" data-z-index="1" stroke="#000" stroke-linejoin="round" stroke-linecap="round" stroke-opacity=".15"/><path fill="none" d="m5.431 146.7 18.105 3.6 18.105 18.9 18.104 29.7 18.105 27 18.104-1.8 18.105-37.8 18.104-16.2 18.105 19.8 18.105 38.7 18.104-62.1 18.105 26.1 18.104-10.8 18.105 15.3 18.104 19.8L277 229.5l18.105-39.6 18.104-19.8 18.105 28.8 18.104-72 18.105 9 18.104 48.6 18.105-18 18.105 26.1 18.104-38.7 18.105-6.3 18.104 36 18.105 9 18.104 9.9 18.105 18 18.105-44.1m0-97.2-18.105-27.9-18.105-12.6-18.104 27-18.105-10.8-18.104 27-18.105-7.2-18.104 5.4-18.105-11.7L385.627 36l-18.104-13.5-18.105-9.9-18.104 17.1-18.105 41.4-18.104 20.7L277 88.2h-18.105l-18.104 18-18.105-36-18.104-10.8L186.477 36l-18.104 25.2-18.105 43.2-18.105-18.9-18.104-5.4-18.105 38.7L77.85 84.6l-18.105 29.7-18.104-23.4-18.105-17.1L5.43 39.6" class="highcharts-graph" data-z-index="1"/><path fill="rgba(192,192,192,0.0001)" d="m5.431 146.7 18.105 3.6 18.105 18.9 18.104 29.7 18.105 27 18.104-1.8 18.105-37.8 18.104-16.2 18.105 19.8 18.105 38.7 18.104-62.1 18.105 26.1 18.104-10.8 18.105 15.3 18.104 19.8L277 229.5l18.105-39.6 18.104-19.8 18.105 28.8 18.104-72 18.105 9 18.104 48.6 18.105-18 18.105 26.1 18.104-38.7 18.105-6.3 18.104 36 18.105 9 18.104 9.9 18.105 18 18.105-44.1V79.2l-18.105-27.9-18.105-12.6-18.104 27-18.105-10.8-18.104 27-18.105-7.2-18.104 5.4-18.105-11.7L385.627 36l-18.104-13.5-18.105-9.9-18.104 17.1-18.105 41.4-18.104 20.7L277 88.2h-18.105l-18.104 18-18.105-36-18.104-10.8L186.477 36l-18.104 25.2-18.105 43.2-18.105-18.9-18.104-5.4-18.105 38.7L77.85 84.6l-18.105 29.7-18.104-23.4-18.105-17.1L5.43 39.6v107.1" data-z-index="2" class="highcharts-tracker-area"/></g><g class="highcharts-series highcharts-series-0 highcharts-line-series highcharts-color-0" data-z-index="1" clip-path="url(#a)" aria-hidden="true" fill="none" stroke-linejoin="round" stroke-linecap="round" transform="translate(36 56)"><path d="m6.431 108.1 18.105 9 18.105 17.1 18.104 22.5 18.105-5.4 18.104 24.3 18.105-45 18.104-4.5 18.105 18.9 18.105-11.7 18.104-19.8h18.105l18.104 19.8 18.105 12.6 18.104 1.8 18.105-.9 18.105-1.8 18.104-16.2 18.105-25.2 18.104-26.1 18.105 15.3 18.104 19.8 18.105 7.2 18.105 10.8 18.104-9.9 18.105 3.6 18.104-8.1 18.105 10.8 18.104-8.1 18.105 7.2 18.105 14.4" class="highcharts-graph highcharts-shadow" data-z-index="1" stroke="#000" stroke-width="5" stroke-opacity=".05"/><path d="m6.431 108.1 18.105 9 18.105 17.1 18.104 22.5 18.105-5.4 18.104 24.3 18.105-45 18.104-4.5 18.105 18.9 18.105-11.7 18.104-19.8h18.105l18.104 19.8 18.105 12.6 18.104 1.8 18.105-.9 18.105-1.8 18.104-16.2 18.105-25.2 18.104-26.1 18.105 15.3 18.104 19.8 18.105 7.2 18.105 10.8 18.104-9.9 18.105 3.6 18.104-8.1 18.105 10.8 18.104-8.1 18.105 7.2 18.105 14.4" class="highcharts-graph highcharts-shadow" data-z-index="1" stroke="#000" stroke-width="3" stroke-opacity=".1"/><path d="m6.431 108.1 18.105 9 18.105 17.1 18.104 22.5 18.105-5.4 18.104 24.3 18.105-45 18.104-4.5 18.105 18.9 18.105-11.7 18.104-19.8h18.105l18.104 19.8 18.105 12.6 18.104 1.8 18.105-.9 18.105-1.8 18.104-16.2 18.105-25.2 18.104-26.1 18.105 15.3 18.104 19.8 18.105 7.2 18.105 10.8 18.104-9.9 18.105 3.6 18.104-8.1 18.105 10.8 18.104-8.1 18.105 7.2 18.105 14.4" class="highcharts-graph highcharts-shadow" data-z-index="1" stroke="#000" stroke-opacity=".15"/><path d="m5.431 107.1 18.105 9 18.105 17.1 18.104 22.5 18.105-5.4 18.104 24.3 18.105-45 18.104-4.5 18.105 18.9 18.105-11.7 18.104-19.8h18.105l18.104 19.8 18.105 12.6 18.104 1.8 18.105-.9 18.105-1.8 18.104-16.2 18.105-25.2 18.104-26.1 18.105 15.3 18.104 19.8 18.105 7.2 18.105 10.8 18.104-9.9 18.105 3.6 18.104-8.1 18.105 10.8 18.104-8.1 18.105 7.2 18.105 14.4" class="highcharts-graph" data-z-index="1" stroke="#f45b5b" stroke-width="2"/><path d="m5.431 107.1 18.105 9 18.105 17.1 18.104 22.5 18.105-5.4 18.104 24.3 18.105-45 18.104-4.5 18.105 18.9 18.105-11.7 18.104-19.8h18.105l18.104 19.8 18.105 12.6 18.104 1.8 18.105-.9 18.105-1.8 18.104-16.2 18.105-25.2 18.104-26.1 18.105 15.3 18.104 19.8 18.105 7.2 18.105 10.8 18.104-9.9 18.105 3.6 18.104-8.1 18.105 10.8 18.104-8.1 18.105 7.2 18.105 14.4" data-z-index="2" class="highcharts-tracker-line" stroke="rgba(192,192,192,0.0001)" stroke-width="22"/></g><g class="highcharts-markers highcharts-series-0 highcharts-line-series highcharts-color-0 highcharts-tracker" data-z-index="1" aria-hidden="false" tabindex="-1" aria-label="Temperature, series 1 of 2. Line with 31 data points." style="outline:0" fill="#fff" stroke="#f45b5b" stroke-width="2"><path d="M5 111a4 4 0 1 1 .004 0Z" class="highcharts-point highcharts-color-0" tabindex="-1" aria-label="Friday, Jul 1, 2022, 18.1°C. Temperature." style="outline:0" transform="translate(36 56)"/><path d="M23 120a4 4 0 1 1 .004 0Z" class="highcharts-point highcharts-color-0" tabindex="-1" aria-label="Saturday, Jul 2, 2022, 17.1°C. Temperature." style="outline:0" transform="translate(36 56)"/><path d="M41 137a4 4 0 1 1 .004 0Z" class="highcharts-point highcharts-color-0" tabindex="-1" aria-label="Sunday, Jul 3, 2022, 15.2°C. Temperature." style="outline:0" transform="translate(36 56)"/><path d="M59 160a4 4 0 1 1 .004 0Z" class="highcharts-point highcharts-color-0" tabindex="-1" aria-label="Monday, Jul 4, 2022, 12.7°C. Temperature." style="outline:0" transform="translate(36 56)"/><path d="M77 154a4 4 0 1 1 .004 0Z" class="highcharts-point highcharts-color-0" tabindex="-1" aria-label="Tuesday, Jul 5, 2022, 13.3°C. Temperature." style="outline:0" transform="translate(36 56)"/><path d="M95 179a4 4 0 1 1 .004 0Z" class="highcharts-point highcharts-color-0" tabindex="-1" aria-label="Wednesday, Jul 6, 2022, 10.6°C. Temperature." style="outline:0" transform="translate(36 56)"/><path d="M114 134a4 4 0 1 1 .004 0Z" class="highcharts-point highcharts-color-0" tabindex="-1" aria-label="Thursday, Jul 7, 2022, 15.6°C. Temperature." style="outline:0" transform="translate(36 56)"/><path d="M132 129a4 4 0 1 1 .004 0Z" class="highcharts-point highcharts-color-0" tabindex="-1" aria-label="Friday, Jul 8, 2022, 16.1°C. Temperature." style="outline:0" transform="translate(36 56)"/><path d="M150 148a4 4 0 1 1 .004 0Z" class="highcharts-point highcharts-color-0" tabindex="-1" aria-label="Saturday, Jul 9, 2022, 14°C. Temperature." style="outline:0" transform="translate(36 56)"/><path d="M168 136a4 4 0 1 1 .004 0Z" class="highcharts-point highcharts-color-0" tabindex="-1" aria-label="Sunday, Jul 10, 2022, 15.3°C. Temperature." style="outline:0" transform="translate(36 56)"/><path d="M186 117a4 4 0 1 1 .004 0Z" class="highcharts-point highcharts-color-0" tabindex="-1" aria-label="Monday, Jul 11, 2022, 17.5°C. Temperature." style="outline:0" transform="translate(36 56)"/><path d="M204 117a4 4 0 1 1 .004 0Z" class="highcharts-point highcharts-color-0" tabindex="-1" aria-label="Tuesday, Jul 12, 2022, 17.5°C. Temperature." style="outline:0" transform="translate(36 56)"/><path d="M222 136a4 4 0 1 1 .004 0Z" class="highcharts-point highcharts-color-0" tabindex="-1" aria-label="Wednesday, Jul 13, 2022, 15.3°C. Temperature." style="outline:0" transform="translate(36 56)"/><path d="M240 149a4 4 0 1 1 .004 0Z" class="highcharts-point highcharts-color-0" tabindex="-1" aria-label="Thursday, Jul 14, 2022, 13.9°C. Temperature." style="outline:0" transform="translate(36 56)"/><path d="M258 151a4 4 0 1 1 .004 0Z" class="highcharts-point highcharts-color-0" tabindex="-1" aria-label="Friday, Jul 15, 2022, 13.7°C. Temperature." style="outline:0" transform="translate(36 56)"/><path d="M277 150a4 4 0 1 1 .004 0Z" class="highcharts-point highcharts-color-0" tabindex="-1" aria-label="Saturday, Jul 16, 2022, 13.8°C. Temperature." style="outline:0" transform="translate(36 56)"/><path d="M295 148a4 4 0 1 1 .004 0Z" class="highcharts-point highcharts-color-0" tabindex="-1" aria-label="Sunday, Jul 17, 2022, 14°C. Temperature." style="outline:0" transform="translate(36 56)"/><path d="M313 132a4 4 0 1 1 .004 0Z" class="highcharts-point highcharts-color-0" tabindex="-1" aria-label="Monday, Jul 18, 2022, 15.8°C. Temperature." style="outline:0" transform="translate(36 56)"/><path d="M331 107a4 4 0 1 1 .004 0Z" class="highcharts-point highcharts-color-0" tabindex="-1" aria-label="Tuesday, Jul 19, 2022, 18.6°C. Temperature." style="outline:0" transform="translate(36 56)"/><path d="M349 81a4 4 0 1 1 .004 0Z" class="highcharts-point highcharts-color-0" tabindex="-1" aria-label="Wednesday, Jul 20, 2022, 21.5°C. Temperature." style="outline:0" transform="translate(36 56)"/><path d="M367 96a4 4 0 1 1 .004 0Z" class="highcharts-point highcharts-color-0" tabindex="-1" aria-label="Thursday, Jul 21, 2022, 19.8°C. Temperature." style="outline:0" transform="translate(36 56)"/><path d="M385 116a4 4 0 1 1 .004 0Z" class="highcharts-point highcharts-color-0" tabindex="-1" aria-label="Friday, Jul 22, 2022, 17.6°C. Temperature." style="outline:0" transform="translate(36 56)"/><path d="M403 123a4 4 0 1 1 .004 0Z" class="highcharts-point highcharts-color-0" tabindex="-1" aria-label="Saturday, Jul 23, 2022, 16.8°C. Temperature." style="outline:0" transform="translate(36 56)"/><path d="M421 134a4 4 0 1 1 .004 0Z" class="highcharts-point highcharts-color-0" tabindex="-1" aria-label="Sunday, Jul 24, 2022, 15.6°C. Temperature." style="outline:0" transform="translate(36 56)"/><path d="M439 124a4 4 0 1 1 .004 0Z" class="highcharts-point highcharts-color-0" tabindex="-1" aria-label="Monday, Jul 25, 2022, 16.7°C. Temperature." style="outline:0" transform="translate(36 56)"/><path d="M458 127a4 4 0 1 1 .004 0Z" class="highcharts-point highcharts-color-0" tabindex="-1" aria-label="Tuesday, Jul 26, 2022, 16.3°C. Temperature." style="outline:0" transform="translate(36 56)"/><path d="M476 119a4 4 0 1 1 .004 0Z" class="highcharts-point highcharts-color-0" tabindex="-1" aria-label="Wednesday, Jul 27, 2022, 17.2°C. Temperature." style="outline:0" transform="translate(36 56)"/><path d="M494 130a4 4 0 1 1 .004 0Z" class="highcharts-point highcharts-color-0" tabindex="-1" aria-label="Thursday, Jul 28, 2022, 16°C. Temperature." style="outline:0" transform="translate(36 56)"/><path d="M512 122a4 4 0 1 1 .004 0Z" class="highcharts-point highcharts-color-0" tabindex="-1" aria-label="Friday, Jul 29, 2022, 16.9°C. Temperature." style="outline:0" transform="translate(36 56)"/><path d="M530 129a4 4 0 1 1 .004 0Z" class="highcharts-point highcharts-color-0" tabindex="-1" aria-label="Saturday, Jul 30, 2022, 16.1°C. Temperature." style="outline:0" transform="translate(36 56)"/><path d="M548 144a4 4 0 1 1 .004 0Z" class="highcharts-point highcharts-color-0" tabindex="-1" aria-label="Sunday, Jul 31, 2022, 14.5°C. Temperature." style="outline:0" transform="translate(36 56)"/></g></g><text x="300" text-anchor="middle" class="highcharts-title" data-z-index="4" style="color:#000;font-size:16px;font-weight:700;fill:#000" y="22" aria-hidden="true">July temperatures in Nesbyen, 2022</text><text x="300" text-anchor="middle" class="highcharts-subtitle" data-z-index="4" style="color:#000;fill:#000" y="42" aria-hidden="true">Source: <a target="_blank"><tspan>YR</tspan></a></text><g class="highcharts-legend highcharts-no-tooltip" data-z-index="7" transform="translate(245 358)" aria-hidden="true"><rect fill="#E0E0E8" class="highcharts-legend-box" rx="0" ry="0" width="109" height="27"/><g class="highcharts-legend-item highcharts-line-series highcharts-color-0 highcharts-series-0" data-z-index="1"><path fill="none" d="M8 15h16" class="highcharts-graph" stroke-width="2" stroke="#f45b5b"/><path fill="#fff" d="M16 19a4 4 0 1 1 .004 0Z" class="highcharts-point" stroke="#f45b5b" stroke-width="2"/><text x="21" data-z-index="2" y="16" style="color:#333;cursor:pointer;font-size:13px;font-weight:700;fill:#333" transform="translate(8 3)">Temperature</text></g></g><g class="highcharts-axis-labels highcharts-xaxis-labels" data-z-index="7" aria-hidden="true" text-anchor="middle"><text x="95.745" style="color:#6e6e70;cursor:default;font-size:11px;fill:#6e6e70" y="345">4. Jul</text><text x="222.477" style="color:#6e6e70;cursor:default;font-size:11px;fill:#6e6e70" y="345">11. Jul</text><text x="349.209" style="color:#6e6e70;cursor:default;font-size:11px;fill:#6e6e70" y="345">18. Jul</text><text x="475.941" style="color:#6e6e70;cursor:default;font-size:11px;fill:#6e6e70" y="345">25. Jul</text></g><g class="highcharts-axis-labels highcharts-yaxis-labels" data-z-index="7" aria-hidden="true" text-anchor="end"><text x="21" style="color:#6e6e70;cursor:default;font-size:11px;fill:#6e6e70" y="331">0</text><text x="21" style="color:#6e6e70;cursor:default;font-size:11px;fill:#6e6e70" y="286">5</text><text x="21" style="color:#6e6e70;cursor:default;font-size:11px;fill:#6e6e70" y="241">10</text><text x="21" style="color:#6e6e70;cursor:default;font-size:11px;fill:#6e6e70" y="196">15</text><text x="21" style="color:#6e6e70;cursor:default;font-size:11px;fill:#6e6e70" y="151">20</text><text x="21" style="color:#6e6e70;cursor:default;font-size:11px;fill:#6e6e70" y="106">25</text><text x="21" style="color:#6e6e70;cursor:default;font-size:11px;fill:#6e6e70" y="61">30</text></g></svg>