<svg class="highcharts-root" style="font-family:Signika,serif;font-size:12px" xmlns="http://www.w3.org/2000/svg" width="600" height="400" aria-label="Interactive chart" aria-hidden="false"><defs aria-hidden="true"><clipPath id="a"><path fill="none" d="M0 0h290v527H0z"/></clipPath></defs><rect fill="none" class="highcharts-background" width="600" height="400" rx="0" ry="0" aria-hidden="true"/><path fill="none" class="highcharts-plot-background" aria-hidden="true" d="M63 56h527v290H63z"/><g class="highcharts-grid highcharts-xaxis-grid" data-z-index="1" aria-hidden="true" fill="none"><path data-z-index="1" class="highcharts-grid-line" d="M63 114.5h527m-527 58h527m-527 58h527m-527 58h527m-527 58h527M63 56.5h527"/></g><g class="highcharts-grid highcharts-yaxis-grid" data-z-index="1" aria-hidden="true" fill="none" stroke="#e6e6e6"><path data-z-index="1" class="highcharts-grid-line" d="M62.5 56v290m53-290v290m52-290v290m53-290v290m53-290v290m53-290v290m52-290v290m53-290v290m53-290v290m52-290v290m54-290v290"/></g><path fill="none" class="highcharts-plot-border" data-z-index="1" aria-hidden="true" d="M63 56h527v290H63z"/><g class="highcharts-axis highcharts-xaxis" data-z-index="2" aria-hidden="true"><path fill="none" class="highcharts-axis-line" stroke="#ccd6eb" data-z-index="7" d="M62.5 56v290"/></g><g class="highcharts-axis highcharts-yaxis" data-z-index="2" aria-hidden="true"><text x="590" data-z-index="7" text-anchor="end" class="highcharts-axis-title" style="color:#666;fill:#666" y="383.5">Population (millions)</text><path fill="none" class="highcharts-axis-line" data-z-index="7" d="M63 346h527"/></g><g class="highcharts-series-group" data-z-index="3" aria-hidden="false"><g class="highcharts-series highcharts-series-0 highcharts-bar-series highcharts-color-0 highcharts-tracker" data-z-index=".1" clip-path="url(#a)" aria-hidden="false" tabindex="-1" aria-label="Year 1990, bar series 1 of 4 with 5 bars." style="outline:0" transform="matrix(0 -1 -1 0 590 346)"><path fill="none" stroke="#000" stroke-width="5" stroke-opacity=".05" class="highcharts-shadow" d="M269.5 459.5h7v67h-7z"/><path fill="none" stroke="#000" stroke-width="3" stroke-opacity=".1" class="highcharts-shadow" d="M269.5 459.5h7v67h-7z"/><path fill="none" stroke="#000" stroke-opacity=".15" class="highcharts-shadow" d="M269.5 459.5h7v67h-7z"/><path fill="#f45b5b" stroke="#fff" class="highcharts-point highcharts-color-0" tabindex="-1" aria-label="Africa, 631 millions. Year 1990." style="outline:0" d="M270.5 460.5h7v67h-7z"/><path fill="none" stroke="#000" stroke-width="5" stroke-opacity=".05" class="highcharts-shadow" d="M211.5 449.5h7v77h-7z"/><path fill="none" stroke="#000" stroke-width="3" stroke-opacity=".1" class="highcharts-shadow" d="M211.5 449.5h7v77h-7z"/><path fill="none" stroke="#000" stroke-opacity=".15" class="highcharts-shadow" d="M211.5 449.5h7v77h-7z"/><path fill="#f45b5b" stroke="#fff" class="highcharts-point highcharts-color-0" tabindex="-1" aria-label="America, 727 millions. Year 1990." style="outline:0" d="M212.5 450.5h7v77h-7z"/><path fill="none" stroke="#000" stroke-width="5" stroke-opacity=".05" class="highcharts-shadow" d="M153.5 189.5h7v337h-7z"/><path fill="none" stroke="#000" stroke-width="3" stroke-opacity=".1" class="highcharts-shadow" d="M153.5 189.5h7v337h-7z"/><path fill="none" stroke="#000" stroke-opacity=".15" class="highcharts-shadow" d="M153.5 189.5h7v337h-7z"/><path fill="#f45b5b" stroke="#fff" class="highcharts-point highcharts-color-0" tabindex="-1" aria-label="Asia, 3,202 millions. Year 1990." style="outline:0" d="M154.5 190.5h7v337h-7z"/><path fill="none" stroke="#000" stroke-width="5" stroke-opacity=".05" class="highcharts-shadow" d="M95.5 450.5h7v76h-7z"/><path fill="none" stroke="#000" stroke-width="3" stroke-opacity=".1" class="highcharts-shadow" d="M95.5 450.5h7v76h-7z"/><path fill="none" stroke="#000" stroke-opacity=".15" class="highcharts-shadow" d="M95.5 450.5h7v76h-7z"/><path fill="#f45b5b" stroke="#fff" class="highcharts-point highcharts-color-0" tabindex="-1" aria-label="Europe, 721 millions. Year 1990." style="outline:0" d="M96.5 451.5h7v76h-7z"/><path fill="none" stroke="#000" stroke-width="5" stroke-opacity=".05" class="highcharts-shadow" d="M37.5 523.5h7v3h-7z"/><path fill="none" stroke="#000" stroke-width="3" stroke-opacity=".1" class="highcharts-shadow" d="M37.5 523.5h7v3h-7z"/><path fill="none" stroke="#000" stroke-opacity=".15" class="highcharts-shadow" d="M37.5 523.5h7v3h-7z"/><path fill="#f45b5b" stroke="#fff" class="highcharts-point highcharts-color-0" tabindex="-1" aria-label="Oceania, 26 millions. Year 1990." style="outline:0" d="M38.5 524.5h7v3h-7z"/></g><g class="highcharts-series highcharts-series-1 highcharts-bar-series highcharts-color-1 highcharts-tracker" data-z-index=".1" clip-path="url(#a)" aria-hidden="false" tabindex="-1" aria-label="Year 2000, bar series 2 of 4 with 5 bars." style="outline:0" transform="matrix(0 -1 -1 0 590 346)"><path fill="none" stroke="#000" stroke-width="5" stroke-opacity=".05" class="highcharts-shadow" d="M260.5 440.5h7v86h-7z"/><path fill="none" stroke="#000" stroke-width="3" stroke-opacity=".1" class="highcharts-shadow" d="M260.5 440.5h7v86h-7z"/><path fill="none" stroke="#000" stroke-opacity=".15" class="highcharts-shadow" d="M260.5 440.5h7v86h-7z"/><path fill="#8085e9" stroke="#fff" class="highcharts-point highcharts-color-1" tabindex="-1" aria-label="Africa, 814 millions. Year 2000." style="outline:0" d="M261.5 441.5h7v86h-7z"/><path fill="none" stroke="#000" stroke-width="5" stroke-opacity=".05" class="highcharts-shadow" d="M202.5 437.5h7v89h-7z"/><path fill="none" stroke="#000" stroke-width="3" stroke-opacity=".1" class="highcharts-shadow" d="M202.5 437.5h7v89h-7z"/><path fill="none" stroke="#000" stroke-opacity=".15" class="highcharts-shadow" d="M202.5 437.5h7v89h-7z"/><path fill="#8085e9" stroke="#fff" class="highcharts-point highcharts-color-1" tabindex="-1" aria-label="America, 841 millions. Year 2000." style="outline:0" d="M203.5 438.5h7v89h-7z"/><path fill="none" stroke="#000" stroke-width="5" stroke-opacity=".05" class="highcharts-shadow" d="M144.5 135.5h7v391h-7z"/><path fill="none" stroke="#000" stroke-width="3" stroke-opacity=".1" class="highcharts-shadow" d="M144.5 135.5h7v391h-7z"/><path fill="none" stroke="#000" stroke-opacity=".15" class="highcharts-shadow" d="M144.5 135.5h7v391h-7z"/><path fill="#8085e9" stroke="#fff" class="highcharts-point highcharts-color-1" tabindex="-1" aria-label="Asia, 3,714 millions. Year 2000." style="outline:0" d="M145.5 136.5h7v391h-7z"/><path fill="none" stroke="#000" stroke-width="5" stroke-opacity=".05" class="highcharts-shadow" d="M86.5 449.5h7v77h-7z"/><path fill="none" stroke="#000" stroke-width="3" stroke-opacity=".1" class="highcharts-shadow" d="M86.5 449.5h7v77h-7z"/><path fill="none" stroke="#000" stroke-opacity=".15" class="highcharts-shadow" d="M86.5 449.5h7v77h-7z"/><path fill="#8085e9" stroke="#fff" class="highcharts-point highcharts-color-1" tabindex="-1" aria-label="Europe, 726 millions. Year 2000." style="outline:0" d="M87.5 450.5h7v77h-7z"/><path fill="none" stroke="#000" stroke-width="5" stroke-opacity=".05" class="highcharts-shadow" d="M28.5 523.5h7v3h-7z"/><path fill="none" stroke="#000" stroke-width="3" stroke-opacity=".1" class="highcharts-shadow" d="M28.5 523.5h7v3h-7z"/><path fill="none" stroke="#000" stroke-opacity=".15" class="highcharts-shadow" d="M28.5 523.5h7v3h-7z"/><path fill="#8085e9" stroke="#fff" class="highcharts-point highcharts-color-1" tabindex="-1" aria-label="Oceania, 31 millions. Year 2000." style="outline:0" d="M29.5 524.5h7v3h-7z"/></g><g class="highcharts-series highcharts-series-2 highcharts-bar-series highcharts-color-2 highcharts-tracker" data-z-index=".1" clip-path="url(#a)" aria-hidden="false" tabindex="-1" aria-label="Year 2010, bar series 3 of 4 with 5 bars." style="outline:0" transform="matrix(0 -1 -1 0 590 346)"><path fill="none" stroke="#000" stroke-width="5" stroke-opacity=".05" class="highcharts-shadow" d="M251.5 416.5h7v110h-7z"/><path fill="none" stroke="#000" stroke-width="3" stroke-opacity=".1" class="highcharts-shadow" d="M251.5 416.5h7v110h-7z"/><path fill="none" stroke="#000" stroke-opacity=".15" class="highcharts-shadow" d="M251.5 416.5h7v110h-7z"/><path fill="#8d4654" stroke="#fff" class="highcharts-point highcharts-color-2" tabindex="-1" aria-label="Africa, 1,044 millions. Year 2010." style="outline:0" d="M252.5 417.5h7v110h-7z"/><path fill="none" stroke="#000" stroke-width="5" stroke-opacity=".05" class="highcharts-shadow" d="M193.5 427.5h7v99h-7z"/><path fill="none" stroke="#000" stroke-width="3" stroke-opacity=".1" class="highcharts-shadow" d="M193.5 427.5h7v99h-7z"/><path fill="none" stroke="#000" stroke-opacity=".15" class="highcharts-shadow" d="M193.5 427.5h7v99h-7z"/><path fill="#8d4654" stroke="#fff" class="highcharts-point highcharts-color-2" tabindex="-1" aria-label="America, 944 millions. Year 2010." style="outline:0" d="M194.5 428.5h7v99h-7z"/><path fill="none" stroke="#000" stroke-width="5" stroke-opacity=".05" class="highcharts-shadow" d="M135.5 86.5h7v440h-7z"/><path fill="none" stroke="#000" stroke-width="3" stroke-opacity=".1" class="highcharts-shadow" d="M135.5 86.5h7v440h-7z"/><path fill="none" stroke="#000" stroke-opacity=".15" class="highcharts-shadow" d="M135.5 86.5h7v440h-7z"/><path fill="#8d4654" stroke="#fff" class="highcharts-point highcharts-color-2" tabindex="-1" aria-label="Asia, 4,170 millions. Year 2010." style="outline:0" d="M136.5 87.5h7v440h-7z"/><path fill="none" stroke="#000" stroke-width="5" stroke-opacity=".05" class="highcharts-shadow" d="M77.5 449.5h7v77h-7z"/><path fill="none" stroke="#000" stroke-width="3" stroke-opacity=".1" class="highcharts-shadow" d="M77.5 449.5h7v77h-7z"/><path fill="none" stroke="#000" stroke-opacity=".15" class="highcharts-shadow" d="M77.5 449.5h7v77h-7z"/><path fill="#8d4654" stroke="#fff" class="highcharts-point highcharts-color-2" tabindex="-1" aria-label="Europe, 735 millions. Year 2010." style="outline:0" d="M78.5 450.5h7v77h-7z"/><path fill="none" stroke="#000" stroke-width="5" stroke-opacity=".05" class="highcharts-shadow" d="M19.5 522.5h7v4h-7z"/><path fill="none" stroke="#000" stroke-width="3" stroke-opacity=".1" class="highcharts-shadow" d="M19.5 522.5h7v4h-7z"/><path fill="none" stroke="#000" stroke-opacity=".15" class="highcharts-shadow" d="M19.5 522.5h7v4h-7z"/><path fill="#8d4654" stroke="#fff" class="highcharts-point highcharts-color-2" tabindex="-1" aria-label="Oceania, 40 millions. Year 2010." style="outline:0" d="M20.5 523.5h7v4h-7z"/></g><g class="highcharts-series highcharts-series-3 highcharts-bar-series highcharts-color-3 highcharts-tracker" data-z-index=".1" clip-path="url(#a)" aria-hidden="false" tabindex="-1" aria-label="Year 2018, bar series 4 of 4 with 5 bars." style="outline:0" transform="matrix(0 -1 -1 0 590 346)"><path fill="none" stroke="#000" stroke-width="5" stroke-opacity=".05" class="highcharts-shadow" d="M242.5 392.5h7v134h-7z"/><path fill="none" stroke="#000" stroke-width="3" stroke-opacity=".1" class="highcharts-shadow" d="M242.5 392.5h7v134h-7z"/><path fill="none" stroke="#000" stroke-opacity=".15" class="highcharts-shadow" d="M242.5 392.5h7v134h-7z"/><path fill="#7798BF" stroke="#fff" class="highcharts-point highcharts-color-3" tabindex="-1" aria-label="Africa, 1,276 millions. Year 2018." style="outline:0" d="M243.5 393.5h7v134h-7z"/><path fill="none" stroke="#000" stroke-width="5" stroke-opacity=".05" class="highcharts-shadow" d="M184.5 420.5h7v106h-7z"/><path fill="none" stroke="#000" stroke-width="3" stroke-opacity=".1" class="highcharts-shadow" d="M184.5 420.5h7v106h-7z"/><path fill="none" stroke="#000" stroke-opacity=".15" class="highcharts-shadow" d="M184.5 420.5h7v106h-7z"/><path fill="#7798BF" stroke="#fff" class="highcharts-point highcharts-color-3" tabindex="-1" aria-label="America, 1,007 millions. Year 2018." style="outline:0" d="M185.5 421.5h7v106h-7z"/><path fill="none" stroke="#000" stroke-width="5" stroke-opacity=".05" class="highcharts-shadow" d="M126.5 45.5h7v481h-7z"/><path fill="none" stroke="#000" stroke-width="3" stroke-opacity=".1" class="highcharts-shadow" d="M126.5 45.5h7v481h-7z"/><path fill="none" stroke="#000" stroke-opacity=".15" class="highcharts-shadow" d="M126.5 45.5h7v481h-7z"/><path fill="#7798BF" stroke="#fff" class="highcharts-point highcharts-color-3" tabindex="-1" aria-label="Asia, 4,561 millions. Year 2018." style="outline:0" d="M127.5 46.5h7v481h-7z"/><path fill="none" stroke="#000" stroke-width="5" stroke-opacity=".05" class="highcharts-shadow" d="M68.5 447.5h7v79h-7z"/><path fill="none" stroke="#000" stroke-width="3" stroke-opacity=".1" class="highcharts-shadow" d="M68.5 447.5h7v79h-7z"/><path fill="none" stroke="#000" stroke-opacity=".15" class="highcharts-shadow" d="M68.5 447.5h7v79h-7z"/><path fill="#7798BF" stroke="#fff" class="highcharts-point highcharts-color-3" tabindex="-1" aria-label="Europe, 746 millions. Year 2018." style="outline:0" d="M69.5 448.5h7v79h-7z"/><path fill="none" stroke="#000" stroke-width="5" stroke-opacity=".05" class="highcharts-shadow" d="M10.5 522.5h7v4h-7z"/><path fill="none" stroke="#000" stroke-width="3" stroke-opacity=".1" class="highcharts-shadow" d="M10.5 522.5h7v4h-7z"/><path fill="none" stroke="#000" stroke-opacity=".15" class="highcharts-shadow" d="M10.5 522.5h7v4h-7z"/><path fill="#7798BF" stroke="#fff" class="highcharts-point highcharts-color-3" tabindex="-1" aria-label="Oceania, 42 millions. Year 2018." style="outline:0" d="M11.5 523.5h7v4h-7z"/></g></g><text x="300" text-anchor="middle" class="highcharts-title" data-z-index="4" style="color:#000;font-size:16px;font-weight:700;fill:#000" y="22" aria-hidden="true">Historic World Population by Region</text><text x="300" text-anchor="middle" class="highcharts-subtitle" data-z-index="4" style="color:#000;fill:#000" y="42" aria-hidden="true">Source: <a target="_blank"><tspan>Wikipedia.org</tspan></a></text><g class="highcharts-data-labels highcharts-series-0 highcharts-bar-series highcharts-color-0 highcharts-tracker" data-z-index="6" aria-hidden="true"><text x="5" data-z-index="1" y="16" style="color:#fff;font-size:11px;font-weight:700;fill:#fff" transform="translate(130 61)" class="highcharts-label highcharts-data-label highcharts-data-label-color-0"><tspan class="highcharts-text-outline" fill="#000" stroke="#000" stroke-width="2" stroke-linejoin="round">631<tspan x="5" dy="0">​</tspan></tspan>631</text><text x="5" data-z-index="1" y="16" style="color:#fff;font-size:11px;font-weight:700;fill:#fff" transform="translate(400 177)" class="highcharts-label highcharts-data-label highcharts-data-label-color-0"><tspan class="highcharts-text-outline" fill="#000" stroke="#000" stroke-width="2" stroke-linejoin="round">3 202<tspan x="5" dy="0">​</tspan></tspan>3 202</text><text x="5" data-z-index="1" y="16" style="color:#fff;font-size:11px;font-weight:700;fill:#fff" transform="translate(66 293)" class="highcharts-label highcharts-data-label highcharts-data-label-color-0"><tspan class="highcharts-text-outline" fill="#000" stroke="#000" stroke-width="2" stroke-linejoin="round">26<tspan x="5" dy="0">​</tspan></tspan>26</text></g><g class="highcharts-data-labels highcharts-series-1 highcharts-bar-series highcharts-color-1 highcharts-tracker" data-z-index="6" aria-hidden="true"><text x="5" data-z-index="1" y="16" style="color:#fff;font-size:11px;font-weight:700;fill:#fff" transform="translate(149 70)" class="highcharts-label highcharts-data-label highcharts-data-label-color-1"><tspan class="highcharts-text-outline" fill="#000" stroke="#000" stroke-width="2" stroke-linejoin="round">814<tspan x="5" dy="0">​</tspan></tspan>814</text><text x="5" data-z-index="1" y="16" style="color:#fff;font-size:11px;font-weight:700;fill:#fff" transform="translate(152 128)" class="highcharts-label highcharts-data-label highcharts-data-label-color-1"><tspan class="highcharts-text-outline" fill="#000" stroke="#000" stroke-width="2" stroke-linejoin="round">841<tspan x="5" dy="0">​</tspan></tspan>841</text><text x="5" data-z-index="1" y="16" style="color:#fff;font-size:11px;font-weight:700;fill:#fff" transform="translate(454 186)" class="highcharts-label highcharts-data-label highcharts-data-label-color-1"><tspan class="highcharts-text-outline" fill="#000" stroke="#000" stroke-width="2" stroke-linejoin="round">3 714<tspan x="5" dy="0">​</tspan></tspan>3 714</text><text x="5" data-z-index="1" y="16" style="color:#fff;font-size:11px;font-weight:700;fill:#fff" transform="translate(140 244)" class="highcharts-label highcharts-data-label highcharts-data-label-color-1"><tspan class="highcharts-text-outline" fill="#000" stroke="#000" stroke-width="2" stroke-linejoin="round">726<tspan x="5" dy="0">​</tspan></tspan>726</text></g><g class="highcharts-data-labels highcharts-series-2 highcharts-bar-series highcharts-color-2 highcharts-tracker" data-z-index="6" aria-hidden="true"><text x="5" data-z-index="1" y="16" style="color:#fff;font-size:11px;font-weight:700;fill:#fff" transform="translate(503 195)" class="highcharts-label highcharts-data-label highcharts-data-label-color-2"><tspan class="highcharts-text-outline" fill="#000" stroke="#000" stroke-width="2" stroke-linejoin="round">4 170<tspan x="5" dy="0">​</tspan></tspan>4 170</text><text x="5" data-z-index="1" y="16" style="color:#fff;font-size:11px;font-weight:700;fill:#fff" transform="translate(67 311)" class="highcharts-label highcharts-data-label highcharts-data-label-color-2"><tspan class="highcharts-text-outline" fill="#000" stroke="#000" stroke-width="2" stroke-linejoin="round">40<tspan x="5" dy="0">​</tspan></tspan>40</text></g><g class="highcharts-data-labels highcharts-series-3 highcharts-bar-series highcharts-color-3 highcharts-tracker" data-z-index="6" aria-hidden="true"><text x="5" data-z-index="1" y="16" style="color:#fff;font-size:11px;font-weight:700;fill:#fff" transform="translate(197 88)" class="highcharts-label highcharts-data-label highcharts-data-label-color-3"><tspan class="highcharts-text-outline" fill="#000" stroke="#000" stroke-width="2" stroke-linejoin="round">1 276<tspan x="5" dy="0">​</tspan></tspan>1 276</text><text x="5" data-z-index="1" y="16" style="color:#fff;font-size:11px;font-weight:700;fill:#fff" transform="translate(169 146)" class="highcharts-label highcharts-data-label highcharts-data-label-color-3"><tspan class="highcharts-text-outline" fill="#000" stroke="#000" stroke-width="2" stroke-linejoin="round">1 007<tspan x="5" dy="0">​</tspan></tspan>1 007</text><text x="5" data-z-index="1" y="16" style="color:#fff;font-size:11px;font-weight:700;fill:#fff" transform="translate(544 204)" class="highcharts-label highcharts-data-label highcharts-data-label-color-3"><tspan class="highcharts-text-outline" fill="#000" stroke="#000" stroke-width="2" stroke-linejoin="round">4 561<tspan x="5" dy="0">​</tspan></tspan>4 561</text><text x="5" data-z-index="1" y="16" style="color:#fff;font-size:11px;font-weight:700;fill:#fff" transform="translate(142 262)" class="highcharts-label highcharts-data-label highcharts-data-label-color-3"><tspan class="highcharts-text-outline" fill="#000" stroke="#000" stroke-width="2" stroke-linejoin="round">746<tspan x="5" dy="0">​</tspan></tspan>746</text></g><g class="highcharts-legend highcharts-no-tooltip" data-z-index="7" transform="translate(458 90)" aria-hidden="true"><rect fill="none" class="highcharts-legend-box highcharts-shadow" rx="0" ry="0" stroke="#000" stroke-width="5" stroke-opacity=".05" transform="translate(1 1)" x=".5" y=".5" width="91" height="74"/><rect fill="none" class="highcharts-legend-box highcharts-shadow" rx="0" ry="0" stroke="#000" stroke-width="3" stroke-opacity=".1" transform="translate(1 1)" x=".5" y=".5" width="91" height="74"/><rect fill="none" class="highcharts-legend-box highcharts-shadow" rx="0" ry="0" stroke="#000" stroke-opacity=".15" transform="translate(1 1)" x=".5" y=".5" width="91" height="74"/><rect fill="#E0E0E8" class="highcharts-legend-box" rx="0" ry="0" stroke="#999" x=".5" y=".5" width="91" height="74"/><g data-z-index="1"><g class="highcharts-legend-item highcharts-bar-series highcharts-color-0 highcharts-series-0" data-z-index="1" transform="translate(8 3)"><text x="21" data-z-index="2" y="16" style="color:#333;cursor:pointer;font-size:13px;font-weight:700;fill:#333">Year 1990</text><rect x="1.5" y="4" width="13" height="13" fill="#f45b5b" rx="6.5" ry="6.5" class="highcharts-point" data-z-index="3"/></g><g class="highcharts-legend-item highcharts-bar-series highcharts-color-1 highcharts-series-1" data-z-index="1" transform="translate(8 19)"><text x="21" y="16" data-z-index="2" style="color:#333;cursor:pointer;font-size:13px;font-weight:700;fill:#333">Year 2000</text><rect x="1.5" y="4" width="13" height="13" fill="#8085e9" rx="6.5" ry="6.5" class="highcharts-point" data-z-index="3"/></g><g class="highcharts-legend-item highcharts-bar-series highcharts-color-2 highcharts-series-2" data-z-index="1" transform="translate(8 35)"><text x="21" y="16" data-z-index="2" style="color:#333;cursor:pointer;font-size:13px;font-weight:700;fill:#333">Year 2010</text><rect x="1.5" y="4" width="13" height="13" fill="#8d4654" rx="6.5" ry="6.5" class="highcharts-point" data-z-index="3"/></g><g class="highcharts-legend-item highcharts-bar-series highcharts-color-3 highcharts-series-3" data-z-index="1" transform="translate(8 51)"><text x="21" y="16" data-z-index="2" style="color:#333;cursor:pointer;font-size:13px;font-weight:700;fill:#333">Year 2018</text><rect x="1.5" y="4" width="13" height="13" fill="#7798BF" rx="6.5" ry="6.5" class="highcharts-point" data-z-index="3"/></g></g></g><g class="highcharts-axis-labels highcharts-xaxis-labels" data-z-index="7" aria-hidden="true" text-anchor="end"><text x="48" style="color:#6e6e70;cursor:default;font-size:11px;fill:#6e6e70" y="90">Africa</text><text x="48" style="color:#6e6e70;cursor:default;font-size:11px;fill:#6e6e70" y="148">America</text><text x="48" style="color:#6e6e70;cursor:default;font-size:11px;fill:#6e6e70" y="206">Asia</text><text x="48" style="color:#6e6e70;cursor:default;font-size:11px;fill:#6e6e70" y="264">Europe</text><text x="48" style="color:#6e6e70;cursor:default;font-size:11px;fill:#6e6e70" y="322">Oceania</text></g><g class="highcharts-axis-labels highcharts-yaxis-labels" data-z-index="7" aria-hidden="true" text-anchor="middle"><text x="63" style="color:#6e6e70;cursor:default;font-size:11px;fill:#6e6e70" y="365">0</text><text x="115.7" style="color:#6e6e70;cursor:default;font-size:11px;fill:#6e6e70" y="365">500</text><text x="168.4" style="color:#6e6e70;cursor:default;font-size:11px;fill:#6e6e70" y="365">1000</text><text x="221.1" style="color:#6e6e70;cursor:default;font-size:11px;fill:#6e6e70" y="365">1500</text><text x="273.8" style="color:#6e6e70;cursor:default;font-size:11px;fill:#6e6e70" y="365">2000</text><text x="326.5" style="color:#6e6e70;cursor:default;font-size:11px;fill:#6e6e70" y="365">2500</text><text x="379.2" style="color:#6e6e70;cursor:default;font-size:11px;fill:#6e6e70" y="365">3000</text><text x="431.9" style="color:#6e6e70;cursor:default;font-size:11px;fill:#6e6e70" y="365">3500</text><text x="484.6" style="color:#6e6e70;cursor:default;font-size:11px;fill:#6e6e70" y="365">4000</text><text x="537.3" style="color:#6e6e70;cursor:default;font-size:11px;fill:#6e6e70" y="365">4500</text><text x="579" style="color:#6e6e70;cursor:default;font-size:11px;fill:#6e6e70" y="365">5000</text></g></svg>