<svg class="highcharts-root" style="font-family:Signika,serif;font-size:12px" xmlns="http://www.w3.org/2000/svg" width="600" height="400" aria-label="Interactive chart" aria-hidden="false"><defs aria-hidden="true"><clipPath id="a"><path fill="none" d="M0 0h525v283H0z"/></clipPath></defs><rect fill="none" class="highcharts-background" width="600" height="400" rx="0" ry="0" aria-hidden="true"/><path fill="none" class="highcharts-plot-background" aria-hidden="true" d="M65 43h525v283H65z"/><g class="highcharts-grid highcharts-xaxis-grid" data-z-index="1" aria-hidden="true" fill="none"><path data-z-index="1" class="highcharts-grid-line" d="M169.5 43v283m105-283v283m105-283v283m105-283v283m105-283v283M64.5 43v283"/></g><g class="highcharts-grid highcharts-yaxis-grid" data-z-index="1" aria-hidden="true" fill="none" stroke="#e6e6e6"><path data-z-index="1" class="highcharts-grid-line" d="M65 326.5h525m-525-71h525m-525-70h525m-525-71h525m-525-72h525"/></g><path fill="none" class="highcharts-plot-border" data-z-index="1" aria-hidden="true" d="M65 43h525v283H65z"/><g class="highcharts-axis highcharts-xaxis" data-z-index="2" aria-hidden="true"><path fill="none" class="highcharts-axis-line" stroke="#ccd6eb" data-z-index="7" d="M65 326.5h525"/></g><g class="highcharts-axis highcharts-yaxis" data-z-index="2" aria-hidden="true"><text x="23.5" data-z-index="7" text-anchor="middle" transform="rotate(-90 23.5 184.5)" class="highcharts-axis-title" style="color:#666;fill:#666" y="184.5">Assists</text><path fill="none" class="highcharts-axis-line" data-z-index="7" d="M65 43v283"/></g><g class="highcharts-series-group" data-z-index="3" aria-hidden="false"><g class="highcharts-series highcharts-series-0 highcharts-column-series highcharts-color-0 highcharts-tracker" data-z-index=".1" clip-path="url(#a)" aria-hidden="false" tabindex="-1" aria-label="Kevin De Bruyne, bar series 1 of 3 with 5 bars." style="outline:0" transform="translate(65 43)"><path fill="none" stroke="#000" stroke-width="5" stroke-opacity=".05" class="highcharts-shadow" d="M27.5.5h51v222h-51z"/><path fill="none" stroke="#000" stroke-width="3" stroke-opacity=".1" class="highcharts-shadow" d="M27.5.5h51v224h-51z"/><path fill="none" stroke="#000" stroke-opacity=".15" class="highcharts-shadow" d="M27.5.5h51v226h-51z"/><path fill="#f45b5b" stroke="#fff" class="highcharts-point highcharts-color-0" tabindex="-1" aria-label="2021/22, 4. Kevin De Bruyne." style="outline:0" d="M26.5-.5h51v227h-51z"/><path fill="none" stroke="#000" stroke-width="5" stroke-opacity=".05" class="highcharts-shadow" d="M132.5.5h51v109h-51z"/><path fill="none" stroke="#000" stroke-width="3" stroke-opacity=".1" class="highcharts-shadow" d="M132.5.5h51v111h-51z"/><path fill="none" stroke="#000" stroke-opacity=".15" class="highcharts-shadow" d="M132.5.5h51v113h-51z"/><path fill="#f45b5b" stroke="#fff" class="highcharts-point highcharts-color-0" tabindex="-1" aria-label="2020/21, 4. Kevin De Bruyne." style="outline:0" d="M131.5-.5h51v114h-51z"/><path fill="none" stroke="#000" stroke-width="5" stroke-opacity=".05" class="highcharts-shadow" d="M237.5.5h51v77h-51z"/><path fill="none" stroke="#000" stroke-width="3" stroke-opacity=".1" class="highcharts-shadow" d="M237.5.5h51v79h-51z"/><path fill="none" stroke="#000" stroke-opacity=".15" class="highcharts-shadow" d="M237.5.5h51v81h-51z"/><path fill="#f45b5b" stroke="#fff" class="highcharts-point highcharts-color-0" tabindex="-1" aria-label="2019/20, 2. Kevin De Bruyne." style="outline:0" d="M236.5-.5h51v82h-51z"/><path fill="none" stroke="#000" stroke-width="5" stroke-opacity=".05" class="highcharts-shadow" d="M342.5.5h51v158h-51z"/><path fill="none" stroke="#000" stroke-width="3" stroke-opacity=".1" class="highcharts-shadow" d="M342.5.5h51v160h-51z"/><path fill="none" stroke="#000" stroke-opacity=".15" class="highcharts-shadow" d="M342.5.5h51v162h-51z"/><path fill="#f45b5b" stroke="#fff" class="highcharts-point highcharts-color-0" tabindex="-1" aria-label="2018/19, 4. Kevin De Bruyne." style="outline:0" d="M341.5-.5h51v163h-51z"/><path fill="none" stroke="#000" stroke-width="5" stroke-opacity=".05" class="highcharts-shadow" d="M447.5.5h51v122h-51z"/><path fill="none" stroke="#000" stroke-width="3" stroke-opacity=".1" class="highcharts-shadow" d="M447.5.5h51v124h-51z"/><path fill="none" stroke="#000" stroke-opacity=".15" class="highcharts-shadow" d="M447.5.5h51v126h-51z"/><path fill="#f45b5b" stroke="#fff" class="highcharts-point highcharts-color-0" tabindex="-1" aria-label="2017/18, 4. Kevin De Bruyne." style="outline:0" d="M446.5-.5h51v127h-51z"/></g><g class="highcharts-series highcharts-series-1 highcharts-column-series highcharts-color-1 highcharts-tracker" data-z-index=".1" clip-path="url(#a)" aria-hidden="false" tabindex="-1" aria-label="Joshua Kimmich, bar series 2 of 3 with 5 bars." style="outline:0" transform="translate(65 43)"><path fill="none" stroke="#000" stroke-width="5" stroke-opacity=".05" class="highcharts-shadow" d="M132.5 114.5h51v108h-51z"/><path fill="none" stroke="#000" stroke-width="3" stroke-opacity=".1" class="highcharts-shadow" d="M132.5 114.5h51v110h-51z"/><path fill="none" stroke="#000" stroke-opacity=".15" class="highcharts-shadow" d="M132.5 114.5h51v112h-51z"/><path fill="#8085e9" stroke="#fff" class="highcharts-point highcharts-color-1" tabindex="-1" aria-label="2020/21, 4. Joshua Kimmich." style="outline:0" d="M131.5 113.5h51v113h-51z"/><path fill="none" stroke="#000" stroke-width="5" stroke-opacity=".05" class="highcharts-shadow" d="M237.5 82.5h51v116h-51z"/><path fill="none" stroke="#000" stroke-width="3" stroke-opacity=".1" class="highcharts-shadow" d="M237.5 82.5h51v118h-51z"/><path fill="none" stroke="#000" stroke-opacity=".15" class="highcharts-shadow" d="M237.5 82.5h51v120h-51z"/><path fill="#8085e9" stroke="#fff" class="highcharts-point highcharts-color-1" tabindex="-1" aria-label="2019/20, 3. Joshua Kimmich." style="outline:0" d="M236.5 81.5h51v121h-51z"/><path fill="none" stroke="#000" stroke-width="5" stroke-opacity=".05" class="highcharts-shadow" d="M342.5 163.5h51v76h-51z"/><path fill="none" stroke="#000" stroke-width="3" stroke-opacity=".1" class="highcharts-shadow" d="M342.5 163.5h51v78h-51z"/><path fill="none" stroke="#000" stroke-opacity=".15" class="highcharts-shadow" d="M342.5 163.5h51v80h-51z"/><path fill="#8085e9" stroke="#fff" class="highcharts-point highcharts-color-1" tabindex="-1" aria-label="2018/19, 2. Joshua Kimmich." style="outline:0" d="M341.5 162.5h51v81h-51z"/><path fill="none" stroke="#000" stroke-width="5" stroke-opacity=".05" class="highcharts-shadow" d="M447.5 127.5h51v89h-51z"/><path fill="none" stroke="#000" stroke-width="3" stroke-opacity=".1" class="highcharts-shadow" d="M447.5 127.5h51v91h-51z"/><path fill="none" stroke="#000" stroke-opacity=".15" class="highcharts-shadow" d="M447.5 127.5h51v93h-51z"/><path fill="#8085e9" stroke="#fff" class="highcharts-point highcharts-color-1" tabindex="-1" aria-label="2017/18, 3. Joshua Kimmich." style="outline:0" d="M446.5 126.5h51v94h-51z"/></g><g class="highcharts-series highcharts-series-2 highcharts-column-series highcharts-color-2 highcharts-tracker" data-z-index=".1" clip-path="url(#a)" aria-hidden="false" tabindex="-1" aria-label="Sadio Mané, bar series 3 of 3 with 5 bars." style="outline:0" transform="translate(65 43)"><path fill="none" stroke="#000" stroke-width="5" stroke-opacity=".05" class="highcharts-shadow" d="M27.5 227.5h51v52h-51z"/><path fill="none" stroke="#000" stroke-width="3" stroke-opacity=".1" class="highcharts-shadow" d="M27.5 227.5h51v54h-51z"/><path fill="none" stroke="#000" stroke-opacity=".15" class="highcharts-shadow" d="M27.5 227.5h51v56h-51z"/><path fill="#8d4654" stroke="#fff" class="highcharts-point highcharts-color-2" tabindex="-1" aria-label="2021/22, 1. Sadio Mané." style="outline:0" d="M26.5 226.5h51v57h-51z"/><path fill="none" stroke="#000" stroke-width="5" stroke-opacity=".05" class="highcharts-shadow" d="M132.5 227.5h51v52h-51z"/><path fill="none" stroke="#000" stroke-width="3" stroke-opacity=".1" class="highcharts-shadow" d="M132.5 227.5h51v54h-51z"/><path fill="none" stroke="#000" stroke-opacity=".15" class="highcharts-shadow" d="M132.5 227.5h51v56h-51z"/><path fill="#8d4654" stroke="#fff" class="highcharts-point highcharts-color-2" tabindex="-1" aria-label="2020/21, 2. Sadio Mané." style="outline:0" d="M131.5 226.5h51v57h-51z"/><path fill="none" stroke="#000" stroke-width="5" stroke-opacity=".05" class="highcharts-shadow" d="M237.5 203.5h51v76h-51z"/><path fill="none" stroke="#000" stroke-width="3" stroke-opacity=".1" class="highcharts-shadow" d="M237.5 203.5h51v78h-51z"/><path fill="none" stroke="#000" stroke-opacity=".15" class="highcharts-shadow" d="M237.5 203.5h51v80h-51z"/><path fill="#8d4654" stroke="#fff" class="highcharts-point highcharts-color-2" tabindex="-1" aria-label="2019/20, 2. Sadio Mané." style="outline:0" d="M236.5 202.5h51v81h-51z"/><path fill="none" stroke="#000" stroke-width="5" stroke-opacity=".05" class="highcharts-shadow" d="M342.5 244.5h51v35h-51z"/><path fill="none" stroke="#000" stroke-width="3" stroke-opacity=".1" class="highcharts-shadow" d="M342.5 244.5h51v37h-51z"/><path fill="none" stroke="#000" stroke-opacity=".15" class="highcharts-shadow" d="M342.5 244.5h51v39h-51z"/><path fill="#8d4654" stroke="#fff" class="highcharts-point highcharts-color-2" tabindex="-1" aria-label="2018/19, 1. Sadio Mané." style="outline:0" d="M341.5 243.5h51v40h-51z"/><path fill="none" stroke="#000" stroke-width="5" stroke-opacity=".05" class="highcharts-shadow" d="M447.5 221.5h51v58h-51z"/><path fill="none" stroke="#000" stroke-width="3" stroke-opacity=".1" class="highcharts-shadow" d="M447.5 221.5h51v60h-51z"/><path fill="none" stroke="#000" stroke-opacity=".15" class="highcharts-shadow" d="M447.5 221.5h51v62h-51z"/><path fill="#8d4654" stroke="#fff" class="highcharts-point highcharts-color-2" tabindex="-1" aria-label="2017/18, 2. Sadio Mané." style="outline:0" d="M446.5 220.5h51v63h-51z"/></g></g><text x="300" text-anchor="middle" class="highcharts-title" data-z-index="4" style="color:#000;font-size:16px;font-weight:700;fill:#000" y="22" aria-hidden="true">UEFA CL most assists by season</text><g class="highcharts-legend highcharts-no-tooltip" data-z-index="7" transform="translate(112 358)" aria-hidden="true"><rect fill="#E0E0E8" class="highcharts-legend-box" rx="0" ry="0" width="375" height="27"/><g data-z-index="1"><g class="highcharts-legend-item highcharts-column-series highcharts-color-0 highcharts-series-0" data-z-index="1" transform="translate(8 3)"><text x="21" data-z-index="2" y="16" style="color:#333;cursor:pointer;font-size:13px;font-weight:700;fill:#333">Kevin De Bruyne</text><rect x="1.5" y="4" width="13" height="13" fill="#f45b5b" rx="6.5" ry="6.5" class="highcharts-point" data-z-index="3"/></g><g class="highcharts-legend-item highcharts-column-series highcharts-color-1 highcharts-series-1" data-z-index="1" transform="translate(145.055 3)"><text x="21" y="16" data-z-index="2" style="color:#333;cursor:pointer;font-size:13px;font-weight:700;fill:#333">Joshua Kimmich</text><rect x="1.5" y="4" width="13" height="13" fill="#8085e9" rx="6.5" ry="6.5" class="highcharts-point" data-z-index="3"/></g><g class="highcharts-legend-item highcharts-column-series highcharts-color-2 highcharts-series-2" data-z-index="1" transform="translate(280.32 3)"><text x="21" y="16" data-z-index="2" style="color:#333;cursor:pointer;font-size:13px;font-weight:700;fill:#333">Sadio Mané</text><rect x="1.5" y="4" width="13" height="13" fill="#8d4654" rx="6.5" ry="6.5" class="highcharts-point" data-z-index="3"/></g></g></g><g class="highcharts-axis-labels highcharts-xaxis-labels" data-z-index="7" aria-hidden="true" text-anchor="middle"><text x="117.5" style="color:#6e6e70;cursor:default;font-size:11px;fill:#6e6e70" y="345">2021/22</text><text x="222.5" style="color:#6e6e70;cursor:default;font-size:11px;fill:#6e6e70" y="345">2020/21</text><text x="327.5" style="color:#6e6e70;cursor:default;font-size:11px;fill:#6e6e70" y="345">2019/20</text><text x="432.5" style="color:#6e6e70;cursor:default;font-size:11px;fill:#6e6e70" y="345">2018/19</text><text x="537.5" style="color:#6e6e70;cursor:default;font-size:11px;fill:#6e6e70" y="345">2017/18</text></g><g class="highcharts-axis-labels highcharts-yaxis-labels" data-z-index="7" aria-hidden="true" text-anchor="end"><text x="50" style="color:#6e6e70;cursor:default;font-size:11px;fill:#6e6e70" y="331">0</text><text x="50" style="color:#6e6e70;cursor:default;font-size:11px;fill:#6e6e70" y="260">25</text><text x="50" style="color:#6e6e70;cursor:default;font-size:11px;fill:#6e6e70" y="189">50</text><text x="50" style="color:#6e6e70;cursor:default;font-size:11px;fill:#6e6e70" y="119">75</text><text x="50" style="color:#6e6e70;cursor:default;font-size:11px;fill:#6e6e70" y="48">100</text></g></svg>