<svg class="highcharts-root" style="font-family:Signika,serif;font-size:12px" xmlns="http://www.w3.org/2000/svg" width="600" height="400" aria-label="Interactive chart" aria-hidden="false"><defs aria-hidden="true"><clipPath id="a"><path fill="none" d="M0 0h525v302H0z"/></clipPath></defs><rect fill="none" class="highcharts-background" width="600" height="400" rx="0" ry="0" aria-hidden="true"/><path fill="none" class="highcharts-plot-background" aria-hidden="true" d="M65 43h525v302H65z"/><g class="highcharts-grid highcharts-xaxis-grid" data-z-index="1" aria-hidden="true" fill="none"><path data-z-index="1" class="highcharts-grid-line" d="M169.5 43v302m105-302v302m105-302v302m105-302v302m105-302v302M64.5 43v302"/></g><g class="highcharts-grid highcharts-yaxis-grid" data-z-index="1" aria-hidden="true" fill="none" stroke="#e6e6e6"><path data-z-index="1" class="highcharts-grid-line" d="M65 345.5h525m-525-50h525m-525-51h525m-525-50h525m-525-50h525m-525-51h525m-525-51h525"/></g><path fill="none" class="highcharts-plot-border" data-z-index="1" aria-hidden="true" d="M65 43h525v302H65z"/><g class="highcharts-axis highcharts-xaxis" data-z-index="2" aria-hidden="true"><path fill="none" class="highcharts-axis-line" stroke="#ccd6eb" data-z-index="7" d="M65 345.5h525"/></g><g class="highcharts-axis highcharts-yaxis" data-z-index="2" aria-hidden="true"><text x="23.5" data-z-index="7" text-anchor="middle" transform="rotate(-90 23.5 194)" class="highcharts-axis-title" style="color:#666;fill:#666" y="194">Height (m)</text><path fill="none" class="highcharts-axis-line" data-z-index="7" d="M65 43v302"/></g><g class="highcharts-series-group" data-z-index="3" aria-hidden="false"><g class="highcharts-series highcharts-series-0 highcharts-columnpyramid-series highcharts-tracker" data-z-index=".1" clip-path="url(#a)" aria-hidden="false" transform="translate(65 43)"><path fill="none" d="M53.8 23.55 79.3 303h-51Z" stroke="#000" stroke-width="5" stroke-opacity=".05" class="highcharts-shadow"/><path fill="none" d="M53.8 23.55 79.3 303h-51Z" stroke="#000" stroke-width="3" stroke-opacity=".1" class="highcharts-shadow"/><path fill="none" d="M53.8 23.55 79.3 303h-51Z" stroke="#000" stroke-opacity=".15" class="highcharts-shadow"/><path fill="#C79D6D" d="M52.8 22.55 78.3 302h-51Z" stroke="#fff" class="highcharts-point highcharts-color-0" tabindex="-1" aria-label="Pyramid of Khufu, 138.8 m. Height." style="outline:0"/><path fill="none" d="M158.8 28.381 184.3 303h-51Z" stroke="#000" stroke-width="5" stroke-opacity=".05" class="highcharts-shadow"/><path fill="none" d="M158.8 28.381 184.3 303h-51Z" stroke="#000" stroke-width="3" stroke-opacity=".1" class="highcharts-shadow"/><path fill="none" d="M158.8 28.381 184.3 303h-51Z" stroke="#000" stroke-opacity=".15" class="highcharts-shadow"/><path fill="#B5927B" d="M157.8 27.381 183.3 302h-51Z" stroke="#fff" class="highcharts-point highcharts-color-1" tabindex="-1" aria-label="Pyramid of Khafre, 136.4 m. Height." style="outline:0"/><path fill="none" d="M263.8 93.613 289.3 303h-51Z" stroke="#000" stroke-width="5" stroke-opacity=".05" class="highcharts-shadow"/><path fill="none" d="M263.8 93.613 289.3 303h-51Z" stroke="#000" stroke-width="3" stroke-opacity=".1" class="highcharts-shadow"/><path fill="none" d="M263.8 93.613 289.3 303h-51Z" stroke="#000" stroke-opacity=".15" class="highcharts-shadow"/><path fill="#CE9B84" d="M262.8 92.613 288.3 302h-51Z" stroke="#fff" class="highcharts-point highcharts-color-2" tabindex="-1" aria-label="Red Pyramid, 104 m. Height." style="outline:0"/><path fill="none" d="M368.8 99.452 394.3 303h-51Z" stroke="#000" stroke-width="5" stroke-opacity=".05" class="highcharts-shadow"/><path fill="none" d="M368.8 99.452 394.3 303h-51Z" stroke="#000" stroke-width="3" stroke-opacity=".1" class="highcharts-shadow"/><path fill="none" d="M368.8 99.452 394.3 303h-51Z" stroke="#000" stroke-opacity=".15" class="highcharts-shadow"/><path fill="#B7A58C" d="M367.8 98.452 393.3 302h-51Z" stroke="#fff" class="highcharts-point highcharts-color-3" tabindex="-1" aria-label="Bent Pyramid, 101.1 m. Height." style="outline:0"/><path fill="none" d="m473.8 152 25.5 151h-51Z" stroke="#000" stroke-width="5" stroke-opacity=".05" class="highcharts-shadow"/><path fill="none" d="m473.8 152 25.5 151h-51Z" stroke="#000" stroke-width="3" stroke-opacity=".1" class="highcharts-shadow"/><path fill="none" d="m473.8 152 25.5 151h-51Z" stroke="#000" stroke-opacity=".15" class="highcharts-shadow"/><path fill="#C7A58C" d="m472.8 151 25.5 151h-51Z" stroke="#fff" class="highcharts-point highcharts-color-4" tabindex="-1" aria-label="Pyramid of the Sun, 75 m. Height." style="outline:0"/></g></g><text x="300" text-anchor="middle" class="highcharts-title" data-z-index="4" style="color:#000;font-size:16px;font-weight:700;fill:#000" y="22" aria-hidden="true">The 5 highest pyramids in the World</text><g class="highcharts-axis-labels highcharts-xaxis-labels" data-z-index="7" aria-hidden="true" text-anchor="middle"><text x="117.5" style="color:#6e6e70;cursor:default;font-size:14px;fill:#6e6e70" y="367">Pyramid of<tspan dy="17" x="117.5">​</tspan>Khufu</text><text x="222.5" style="color:#6e6e70;cursor:default;font-size:14px;fill:#6e6e70" y="367">Pyramid of<tspan dy="17" x="222.5">​</tspan>Khafre</text><text x="327.5" style="color:#6e6e70;cursor:default;font-size:14px;fill:#6e6e70" y="367">Red Pyramid</text><text x="432.5" style="color:#6e6e70;cursor:default;font-size:14px;fill:#6e6e70" y="367">Bent Pyramid</text><text x="537.5" style="color:#6e6e70;cursor:default;font-size:14px;fill:#6e6e70" y="367">Pyramid of the<tspan dy="17" x="537.5">​</tspan>Sun</text></g><g class="highcharts-axis-labels highcharts-yaxis-labels" data-z-index="7" aria-hidden="true" text-anchor="end"><text x="50" style="color:#6e6e70;cursor:default;font-size:11px;fill:#6e6e70" y="350">0</text><text x="50" style="color:#6e6e70;cursor:default;font-size:11px;fill:#6e6e70" y="299">25</text><text x="50" style="color:#6e6e70;cursor:default;font-size:11px;fill:#6e6e70" y="249">50</text><text x="50" style="color:#6e6e70;cursor:default;font-size:11px;fill:#6e6e70" y="199">75</text><text x="50" style="color:#6e6e70;cursor:default;font-size:11px;fill:#6e6e70" y="148">100</text><text x="50" style="color:#6e6e70;cursor:default;font-size:11px;fill:#6e6e70" y="98">125</text><text x="50" style="color:#6e6e70;cursor:default;font-size:11px;fill:#6e6e70" y="48">150</text></g></svg>