<svg class="highcharts-root" style="font-family:Signika,serif;font-size:12px" xmlns="http://www.w3.org/2000/svg" width="600" height="480" aria-label="Interactive chart" aria-hidden="false"><defs aria-hidden="true"><clipPath id="a"><path fill="none" d="M0 0h531v363H0z"/></clipPath><clipPath id="b"><path fill="none" d="M0 0h531v363H0z"/></clipPath></defs><rect fill="none" class="highcharts-background" width="600" height="480" rx="0" ry="0" aria-hidden="true"/><path fill="none" class="highcharts-plot-background" aria-hidden="true" d="M10 43h531v363H10z"/><g class="highcharts-plot-bands-0" data-z-index="0" aria-hidden="true"><path fill="#EFFFFF" class="highcharts-plot-band" d="M22.5 43v363h103V43Z"/><path fill="#FFFFEF" class="highcharts-plot-band" d="M125.5 43v363h291V43Z"/><path fill="#FFEFFF" class="highcharts-plot-band" d="M416.5 43v363h119V43Z"/></g><text x="74" text-anchor="middle" class="highcharts-plot-band-label" data-z-index="0" style="color:#999;fill:#999" y="223" aria-hidden="true"><tspan style="font-style:italic">Offices:</tspan><tspan class="highcharts-br" dy="15" x="74">​</tspan>Torstein&apos;s basement</text><text x="271" text-anchor="middle" class="highcharts-plot-band-label" data-z-index="0" style="color:#999;fill:#999" y="73" aria-hidden="true"><tspan style="font-style:italic">Offices:</tspan><tspan class="highcharts-br" dy="15" x="271">​</tspan>Tomtebu</text><text x="476" text-anchor="middle" class="highcharts-plot-band-label" data-z-index="0" style="color:#999;fill:#999" y="73" aria-hidden="true"><tspan style="font-style:italic">Offices:</tspan><tspan class="highcharts-br" dy="15" x="476">​</tspan>VikØrsta</text><g class="highcharts-grid highcharts-xaxis-grid" data-z-index="1" aria-hidden="true" fill="none"><path data-z-index="1" class="highcharts-grid-line" d="M31.5 43v363m103-363v363m103-363v363m102-363v363m103-363v363"/></g><g class="highcharts-grid highcharts-yaxis-grid" data-z-index="1" aria-hidden="true" fill="none" stroke="rgba(0, 0, 0, 0.07)"><path data-z-index="1" class="highcharts-grid-line" d="M10 406.5h531m-531-60h531m-531-61h531m-531-60h531m-531-61h531m-531-60h531m-531-62h531"/></g><g class="highcharts-grid highcharts-yaxis-grid" data-z-index="1" aria-hidden="true" fill="none"><path data-z-index="1" class="highcharts-grid-line" d="M10 406.5h531m-531-60h531m-531-61h531m-531-60h531m-531-61h531m-531-60h531m-531-61h531"/></g><path fill="none" class="highcharts-plot-border" data-z-index="1" aria-hidden="true" d="M10 43h531v363H10z"/><g class="highcharts-axis highcharts-xaxis" data-z-index="2" aria-hidden="true" fill="none" stroke="#ccd6eb"><path class="highcharts-tick" d="M31.5 406v10m103-10v10m103-10v10m102-10v10m103-10v10"/><path class="highcharts-axis-line" data-z-index="7" d="M10 406.5h531"/></g><g class="highcharts-axis highcharts-yaxis" data-z-index="2" aria-hidden="true"><path fill="none" class="highcharts-axis-line" data-z-index="7" d="M10 43v363"/></g><g class="highcharts-axis highcharts-yaxis" data-z-index="2" aria-hidden="true"><text x="577" data-z-index="7" text-anchor="middle" transform="rotate(90 577 224.5)" class="highcharts-axis-title" style="color:#8d4654;fill:#8d4654" y="224.5">Employees</text><path fill="none" class="highcharts-axis-line" data-z-index="7" d="M541 43v363"/></g><g class="highcharts-series-group" data-z-index="3" aria-hidden="false"><g class="highcharts-series highcharts-series-0 highcharts-spline-series highcharts-color-0" data-z-index=".1" clip-path="url(#a)" aria-hidden="true" fill="none" transform="translate(10 43)"><path d="M10.399 364s5.151-10.922 8.585-15.125c3.486-4.267 5.228-6.05 8.714-6.05 3.317 0 4.975 6.05 8.292 6.05 3.322 0 4.983-1.236 8.304-3.025 3.42-1.841 5.13-3.03 8.55-6.05 3.43-3.03 5.144-9.075 8.574-9.075 3.429 0 5.144 6.05 8.573 6.05 3.43 0 5.144-6.675 8.573-9.075 3.486-2.44 5.229 0 8.714-3.025 3.43-3.025 5.144-12.1 8.574-12.1h8.573c3.43 0 5.144-1.211 8.574-3.025 3.434-1.816 5.15-6.05 8.585-6.05h8.714c3.317 0 4.975-13.92 8.292-21.175 3.322-7.265 4.982-15.125 8.304-15.125 3.42 0 5.13 9.075 8.55 9.075 3.43 0 5.144-15.125 8.573-15.125h8.574c3.43 0 5.144-.65 8.573-6.05 3.486-5.49 5.229-18.15 8.714-21.175 3.43-3.025 5.144-3.025 8.574-3.025 3.429 0 5.144 6.05 8.573 6.05 3.43 0 5.144-15.125 8.573-15.125 3.434 0 5.151 3.025 8.585 3.025 3.486 0 5.229-5.336 8.714-12.1 3.374-6.546 5.06-21.175 8.433-21.175 3.378 0 5.067 9.075 8.445 9.075 3.42 0 5.13-10.292 8.55-15.125 3.43-4.847 5.144-4.84 8.573-9.075 3.43-4.235 5.144-12.1 8.574-12.1 3.429 0 5.144 15.125 8.573 15.125 3.486 0 5.228-21.175 8.714-21.175 3.43 0 5.144 3.025 8.573 3.025 3.43 0 5.144-18.15 8.574-18.15 3.43 0 5.144 18.763 8.573 30.25 3.434 11.503 5.151 27.225 8.585 27.225 3.486 0 5.229-26.925 8.714-39.325 3.317-11.8 4.976-12.711 8.293-21.175 3.321-8.476 4.982-12.232 8.304-21.175 3.42-9.207 5.13-24.2 8.55-24.2 3.429 0 5.144 18.15 8.573 18.15 3.43 0 5.144-15.125 8.573-15.125 3.43 0 5.144 1.85 8.574 6.05 3.485 4.27 5.228 15.125 8.714 15.125 3.43 0 5.144 0 8.573-6.05 3.43-6.05 5.144-36.3 8.574-36.3 3.429 0 5.144 19.97 8.573 27.225 3.434 7.265 5.151 9.075 8.585 9.075 3.486 0 5.228-15.125 8.714-18.15 3.317-3.025 4.975-.002 8.292-3.025 3.322-3.027 4.983-6.138 8.304-12.1 3.42-6.138 5.13-18.15 8.55-18.15h8.574c3.429 0 5.144 3.025 8.573 3.025h8.573c3.486 0 5.229 18.15 8.714 18.15 3.43 0 5.144-9.075 8.574-12.1 3.43-3.025 8.573-3.025 8.573-3.025" class="highcharts-graph highcharts-shadow" data-z-index="1" stroke="#000" stroke-width="5" stroke-dasharray="8,6" stroke-opacity=".05"/><path d="M10.399 364s5.151-10.922 8.585-15.125c3.486-4.267 5.228-6.05 8.714-6.05 3.317 0 4.975 6.05 8.292 6.05 3.322 0 4.983-1.236 8.304-3.025 3.42-1.841 5.13-3.03 8.55-6.05 3.43-3.03 5.144-9.075 8.574-9.075 3.429 0 5.144 6.05 8.573 6.05 3.43 0 5.144-6.675 8.573-9.075 3.486-2.44 5.229 0 8.714-3.025 3.43-3.025 5.144-12.1 8.574-12.1h8.573c3.43 0 5.144-1.211 8.574-3.025 3.434-1.816 5.15-6.05 8.585-6.05h8.714c3.317 0 4.975-13.92 8.292-21.175 3.322-7.265 4.982-15.125 8.304-15.125 3.42 0 5.13 9.075 8.55 9.075 3.43 0 5.144-15.125 8.573-15.125h8.574c3.43 0 5.144-.65 8.573-6.05 3.486-5.49 5.229-18.15 8.714-21.175 3.43-3.025 5.144-3.025 8.574-3.025 3.429 0 5.144 6.05 8.573 6.05 3.43 0 5.144-15.125 8.573-15.125 3.434 0 5.151 3.025 8.585 3.025 3.486 0 5.229-5.336 8.714-12.1 3.374-6.546 5.06-21.175 8.433-21.175 3.378 0 5.067 9.075 8.445 9.075 3.42 0 5.13-10.292 8.55-15.125 3.43-4.847 5.144-4.84 8.573-9.075 3.43-4.235 5.144-12.1 8.574-12.1 3.429 0 5.144 15.125 8.573 15.125 3.486 0 5.228-21.175 8.714-21.175 3.43 0 5.144 3.025 8.573 3.025 3.43 0 5.144-18.15 8.574-18.15 3.43 0 5.144 18.763 8.573 30.25 3.434 11.503 5.151 27.225 8.585 27.225 3.486 0 5.229-26.925 8.714-39.325 3.317-11.8 4.976-12.711 8.293-21.175 3.321-8.476 4.982-12.232 8.304-21.175 3.42-9.207 5.13-24.2 8.55-24.2 3.429 0 5.144 18.15 8.573 18.15 3.43 0 5.144-15.125 8.573-15.125 3.43 0 5.144 1.85 8.574 6.05 3.485 4.27 5.228 15.125 8.714 15.125 3.43 0 5.144 0 8.573-6.05 3.43-6.05 5.144-36.3 8.574-36.3 3.429 0 5.144 19.97 8.573 27.225 3.434 7.265 5.151 9.075 8.585 9.075 3.486 0 5.228-15.125 8.714-18.15 3.317-3.025 4.975-.002 8.292-3.025 3.322-3.027 4.983-6.138 8.304-12.1 3.42-6.138 5.13-18.15 8.55-18.15h8.574c3.429 0 5.144 3.025 8.573 3.025h8.573c3.486 0 5.229 18.15 8.714 18.15 3.43 0 5.144-9.075 8.574-12.1 3.43-3.025 8.573-3.025 8.573-3.025" class="highcharts-graph highcharts-shadow" data-z-index="1" stroke="#000" stroke-width="3" stroke-dasharray="8,6" stroke-opacity=".1"/><path d="M10.399 364s5.151-10.922 8.585-15.125c3.486-4.267 5.228-6.05 8.714-6.05 3.317 0 4.975 6.05 8.292 6.05 3.322 0 4.983-1.236 8.304-3.025 3.42-1.841 5.13-3.03 8.55-6.05 3.43-3.03 5.144-9.075 8.574-9.075 3.429 0 5.144 6.05 8.573 6.05 3.43 0 5.144-6.675 8.573-9.075 3.486-2.44 5.229 0 8.714-3.025 3.43-3.025 5.144-12.1 8.574-12.1h8.573c3.43 0 5.144-1.211 8.574-3.025 3.434-1.816 5.15-6.05 8.585-6.05h8.714c3.317 0 4.975-13.92 8.292-21.175 3.322-7.265 4.982-15.125 8.304-15.125 3.42 0 5.13 9.075 8.55 9.075 3.43 0 5.144-15.125 8.573-15.125h8.574c3.43 0 5.144-.65 8.573-6.05 3.486-5.49 5.229-18.15 8.714-21.175 3.43-3.025 5.144-3.025 8.574-3.025 3.429 0 5.144 6.05 8.573 6.05 3.43 0 5.144-15.125 8.573-15.125 3.434 0 5.151 3.025 8.585 3.025 3.486 0 5.229-5.336 8.714-12.1 3.374-6.546 5.06-21.175 8.433-21.175 3.378 0 5.067 9.075 8.445 9.075 3.42 0 5.13-10.292 8.55-15.125 3.43-4.847 5.144-4.84 8.573-9.075 3.43-4.235 5.144-12.1 8.574-12.1 3.429 0 5.144 15.125 8.573 15.125 3.486 0 5.228-21.175 8.714-21.175 3.43 0 5.144 3.025 8.573 3.025 3.43 0 5.144-18.15 8.574-18.15 3.43 0 5.144 18.763 8.573 30.25 3.434 11.503 5.151 27.225 8.585 27.225 3.486 0 5.229-26.925 8.714-39.325 3.317-11.8 4.976-12.711 8.293-21.175 3.321-8.476 4.982-12.232 8.304-21.175 3.42-9.207 5.13-24.2 8.55-24.2 3.429 0 5.144 18.15 8.573 18.15 3.43 0 5.144-15.125 8.573-15.125 3.43 0 5.144 1.85 8.574 6.05 3.485 4.27 5.228 15.125 8.714 15.125 3.43 0 5.144 0 8.573-6.05 3.43-6.05 5.144-36.3 8.574-36.3 3.429 0 5.144 19.97 8.573 27.225 3.434 7.265 5.151 9.075 8.585 9.075 3.486 0 5.228-15.125 8.714-18.15 3.317-3.025 4.975-.002 8.292-3.025 3.322-3.027 4.983-6.138 8.304-12.1 3.42-6.138 5.13-18.15 8.55-18.15h8.574c3.429 0 5.144 3.025 8.573 3.025h8.573c3.486 0 5.229 18.15 8.714 18.15 3.43 0 5.144-9.075 8.574-12.1 3.43-3.025 8.573-3.025 8.573-3.025" class="highcharts-graph highcharts-shadow" data-z-index="1" stroke="#000" stroke-dasharray="8,6" stroke-opacity=".15"/><path d="M9.399 363s5.151-10.922 8.585-15.125c3.486-4.267 5.228-6.05 8.714-6.05 3.317 0 4.975 6.05 8.292 6.05 3.322 0 4.983-1.236 8.304-3.025 3.42-1.841 5.13-3.03 8.55-6.05 3.43-3.03 5.144-9.075 8.574-9.075 3.429 0 5.144 6.05 8.573 6.05 3.43 0 5.144-6.675 8.573-9.075 3.486-2.44 5.229 0 8.714-3.025 3.43-3.025 5.144-12.1 8.574-12.1h8.573c3.43 0 5.144-1.211 8.574-3.025 3.434-1.816 5.15-6.05 8.585-6.05h8.714c3.317 0 4.975-13.92 8.292-21.175 3.322-7.265 4.982-15.125 8.304-15.125 3.42 0 5.13 9.075 8.55 9.075 3.43 0 5.144-15.125 8.573-15.125h8.574c3.43 0 5.144-.65 8.573-6.05 3.486-5.49 5.229-18.15 8.714-21.175 3.43-3.025 5.144-3.025 8.574-3.025 3.429 0 5.144 6.05 8.573 6.05 3.43 0 5.144-15.125 8.573-15.125 3.434 0 5.151 3.025 8.585 3.025 3.486 0 5.229-5.336 8.714-12.1 3.374-6.546 5.06-21.175 8.433-21.175 3.378 0 5.067 9.075 8.445 9.075 3.42 0 5.13-10.292 8.55-15.125 3.43-4.847 5.144-4.84 8.573-9.075 3.43-4.235 5.144-12.1 8.574-12.1 3.429 0 5.144 15.125 8.573 15.125 3.486 0 5.228-21.175 8.714-21.175 3.43 0 5.144 3.025 8.573 3.025 3.43 0 5.144-18.15 8.574-18.15 3.43 0 5.144 18.763 8.573 30.25 3.434 11.503 5.151 27.225 8.585 27.225 3.486 0 5.229-26.925 8.714-39.325 3.317-11.8 4.976-12.711 8.293-21.175 3.321-8.476 4.982-12.232 8.304-21.175 3.42-9.207 5.13-24.2 8.55-24.2 3.429 0 5.144 18.15 8.573 18.15 3.43 0 5.144-15.125 8.573-15.125 3.43 0 5.144 1.85 8.574 6.05 3.485 4.27 5.228 15.125 8.714 15.125 3.43 0 5.144 0 8.573-6.05 3.43-6.05 5.144-36.3 8.574-36.3 3.429 0 5.144 19.97 8.573 27.225 3.434 7.265 5.151 9.075 8.585 9.075 3.486 0 5.228-15.125 8.714-18.15 3.317-3.025 4.975-.002 8.292-3.025 3.322-3.027 4.983-6.138 8.304-12.1 3.42-6.138 5.13-18.15 8.55-18.15h8.574c3.429 0 5.144 3.025 8.573 3.025h8.573c3.486 0 5.229 18.15 8.714 18.15 3.43 0 5.144-9.075 8.574-12.1 3.43-3.025 8.573-3.025 8.573-3.025" class="highcharts-graph" data-z-index="1" stroke="#f45b5b" stroke-width="2" stroke-dasharray="8,6"/><path d="M9.399 363s5.151-10.922 8.585-15.125c3.486-4.267 5.228-6.05 8.714-6.05 3.317 0 4.975 6.05 8.292 6.05 3.322 0 4.983-1.236 8.304-3.025 3.42-1.841 5.13-3.03 8.55-6.05 3.43-3.03 5.144-9.075 8.574-9.075 3.429 0 5.144 6.05 8.573 6.05 3.43 0 5.144-6.675 8.573-9.075 3.486-2.44 5.229 0 8.714-3.025 3.43-3.025 5.144-12.1 8.574-12.1h8.573c3.43 0 5.144-1.211 8.574-3.025 3.434-1.816 5.15-6.05 8.585-6.05h8.714c3.317 0 4.975-13.92 8.292-21.175 3.322-7.265 4.982-15.125 8.304-15.125 3.42 0 5.13 9.075 8.55 9.075 3.43 0 5.144-15.125 8.573-15.125h8.574c3.43 0 5.144-.65 8.573-6.05 3.486-5.49 5.229-18.15 8.714-21.175 3.43-3.025 5.144-3.025 8.574-3.025 3.429 0 5.144 6.05 8.573 6.05 3.43 0 5.144-15.125 8.573-15.125 3.434 0 5.151 3.025 8.585 3.025 3.486 0 5.229-5.336 8.714-12.1 3.374-6.546 5.06-21.175 8.433-21.175 3.378 0 5.067 9.075 8.445 9.075 3.42 0 5.13-10.292 8.55-15.125 3.43-4.847 5.144-4.84 8.573-9.075 3.43-4.235 5.144-12.1 8.574-12.1 3.429 0 5.144 15.125 8.573 15.125 3.486 0 5.228-21.175 8.714-21.175 3.43 0 5.144 3.025 8.573 3.025 3.43 0 5.144-18.15 8.574-18.15 3.43 0 5.144 18.763 8.573 30.25 3.434 11.503 5.151 27.225 8.585 27.225 3.486 0 5.229-26.925 8.714-39.325 3.317-11.8 4.976-12.711 8.293-21.175 3.321-8.476 4.982-12.232 8.304-21.175 3.42-9.207 5.13-24.2 8.55-24.2 3.429 0 5.144 18.15 8.573 18.15 3.43 0 5.144-15.125 8.573-15.125 3.43 0 5.144 1.85 8.574 6.05 3.485 4.27 5.228 15.125 8.714 15.125 3.43 0 5.144 0 8.573-6.05 3.43-6.05 5.144-36.3 8.574-36.3 3.429 0 5.144 19.97 8.573 27.225 3.434 7.265 5.151 9.075 8.585 9.075 3.486 0 5.228-15.125 8.714-18.15 3.317-3.025 4.975-.002 8.292-3.025 3.322-3.027 4.983-6.138 8.304-12.1 3.42-6.138 5.13-18.15 8.55-18.15h8.574c3.429 0 5.144 3.025 8.573 3.025h8.573c3.486 0 5.229 18.15 8.714 18.15 3.43 0 5.144-9.075 8.574-12.1 3.43-3.025 8.573-3.025 8.573-3.025" data-z-index="2" class="highcharts-tracker-line" stroke-linecap="round" stroke-linejoin="round" stroke="rgba(192,192,192,0.0001)" stroke-width="22"/></g><g class="highcharts-series highcharts-series-1 highcharts-area-series highcharts-color-1" data-z-index=".1" clip-path="url(#a)" aria-hidden="true" transform="translate(10 43)"><path fill="rgba(128,133,233,0.5)" d="m5.206 356.95 8.433-3.025 8.714 3.025 8.714-3.025 7.87-3.025h25.861l8.433-3.025 8.714-6.05 8.714 3.025 8.433-9.075 8.714-3.025 8.432 6.05 8.714-6.05 8.714-9.075 7.871-6.05 8.714 3.025 8.433-3.025 8.714-3.025 8.433-18.15 8.714 9.075 8.714-3.025 8.432-36.3 8.714-6.05 8.433-6.05 8.714 6.05 8.714-18.15 8.152 9.075 8.714 6.05L261.565 242l8.714 6.05 8.432-3.025 8.714-12.1 8.714-18.15 8.433 18.15 8.714-33.275 8.433 30.25 8.714 3.025h8.714l7.87-27.225h8.715l8.432-12.1 8.714-18.15 8.433-12.1 8.714 12.1 8.714-3.025 8.433 9.075h8.714l8.433 6.05 8.714-21.175 8.714 39.325 7.87-60.5 8.714 45.375 8.433-39.325 8.714 21.175 8.433-6.05h8.714l8.714-72.6 8.433-33.275V363H5.206Z" class="highcharts-area" data-z-index="0"/><path fill="none" d="m6.206 357.95 8.433-3.025 8.714 3.025 8.714-3.025 7.87-3.025h25.861l8.433-3.025 8.714-6.05 8.714 3.025 8.433-9.075 8.714-3.025 8.432 6.05 8.714-6.05 8.714-9.075 7.871-6.05 8.714 3.025 8.433-3.025 8.714-3.025 8.433-18.15 8.714 9.075 8.714-3.025 8.432-36.3 8.714-6.05 8.433-6.05 8.714 6.05 8.714-18.15 8.152 9.075 8.714 6.05L262.565 243l8.714 6.05 8.432-3.025 8.714-12.1 8.714-18.15 8.433 18.15 8.714-33.275 8.433 30.25 8.714 3.025h8.714l7.87-27.225h8.715l8.432-12.1 8.714-18.15 8.433-12.1 8.714 12.1 8.714-3.025 8.433 9.075h8.714l8.433 6.05 8.714-21.175 8.714 39.325 7.87-60.5 8.714 45.375 8.433-39.325 8.714 21.175 8.433-6.05h8.714l8.714-72.6 8.433-33.275" class="highcharts-graph highcharts-shadow" data-z-index="1" stroke="#000" stroke-width="5" stroke-linejoin="round" stroke-linecap="round" stroke-opacity=".05"/><path fill="none" d="m6.206 357.95 8.433-3.025 8.714 3.025 8.714-3.025 7.87-3.025h25.861l8.433-3.025 8.714-6.05 8.714 3.025 8.433-9.075 8.714-3.025 8.432 6.05 8.714-6.05 8.714-9.075 7.871-6.05 8.714 3.025 8.433-3.025 8.714-3.025 8.433-18.15 8.714 9.075 8.714-3.025 8.432-36.3 8.714-6.05 8.433-6.05 8.714 6.05 8.714-18.15 8.152 9.075 8.714 6.05L262.565 243l8.714 6.05 8.432-3.025 8.714-12.1 8.714-18.15 8.433 18.15 8.714-33.275 8.433 30.25 8.714 3.025h8.714l7.87-27.225h8.715l8.432-12.1 8.714-18.15 8.433-12.1 8.714 12.1 8.714-3.025 8.433 9.075h8.714l8.433 6.05 8.714-21.175 8.714 39.325 7.87-60.5 8.714 45.375 8.433-39.325 8.714 21.175 8.433-6.05h8.714l8.714-72.6 8.433-33.275" class="highcharts-graph highcharts-shadow" data-z-index="1" stroke="#000" stroke-width="3" stroke-linejoin="round" stroke-linecap="round" stroke-opacity=".1"/><path fill="none" d="m6.206 357.95 8.433-3.025 8.714 3.025 8.714-3.025 7.87-3.025h25.861l8.433-3.025 8.714-6.05 8.714 3.025 8.433-9.075 8.714-3.025 8.432 6.05 8.714-6.05 8.714-9.075 7.871-6.05 8.714 3.025 8.433-3.025 8.714-3.025 8.433-18.15 8.714 9.075 8.714-3.025 8.432-36.3 8.714-6.05 8.433-6.05 8.714 6.05 8.714-18.15 8.152 9.075 8.714 6.05L262.565 243l8.714 6.05 8.432-3.025 8.714-12.1 8.714-18.15 8.433 18.15 8.714-33.275 8.433 30.25 8.714 3.025h8.714l7.87-27.225h8.715l8.432-12.1 8.714-18.15 8.433-12.1 8.714 12.1 8.714-3.025 8.433 9.075h8.714l8.433 6.05 8.714-21.175 8.714 39.325 7.87-60.5 8.714 45.375 8.433-39.325 8.714 21.175 8.433-6.05h8.714l8.714-72.6 8.433-33.275" class="highcharts-graph highcharts-shadow" data-z-index="1" stroke="#000" stroke-linejoin="round" stroke-linecap="round" stroke-opacity=".15"/><path fill="none" d="m5.206 356.95 8.433-3.025 8.714 3.025 8.714-3.025 7.87-3.025h25.861l8.433-3.025 8.714-6.05 8.714 3.025 8.433-9.075 8.714-3.025 8.432 6.05 8.714-6.05 8.714-9.075 7.871-6.05 8.714 3.025 8.433-3.025 8.714-3.025 8.433-18.15 8.714 9.075 8.714-3.025 8.432-36.3 8.714-6.05 8.433-6.05 8.714 6.05 8.714-18.15 8.152 9.075 8.714 6.05L261.565 242l8.714 6.05 8.432-3.025 8.714-12.1 8.714-18.15 8.433 18.15 8.714-33.275 8.433 30.25 8.714 3.025h8.714l7.87-27.225h8.715l8.432-12.1 8.714-18.15 8.433-12.1 8.714 12.1 8.714-3.025 8.433 9.075h8.714l8.433 6.05 8.714-21.175 8.714 39.325 7.87-60.5 8.714 45.375 8.433-39.325 8.714 21.175 8.433-6.05h8.714l8.714-72.6 8.433-33.275" class="highcharts-graph" data-z-index="1" stroke="#8085e9" stroke-width="2" stroke-linejoin="round" stroke-linecap="round"/><path fill="none" d="m5.206 356.95 8.433-3.025 8.714 3.025 8.714-3.025 7.87-3.025h25.861l8.433-3.025 8.714-6.05 8.714 3.025 8.433-9.075 8.714-3.025 8.432 6.05 8.714-6.05 8.714-9.075 7.871-6.05 8.714 3.025 8.433-3.025 8.714-3.025 8.433-18.15 8.714 9.075 8.714-3.025 8.432-36.3 8.714-6.05 8.433-6.05 8.714 6.05 8.714-18.15 8.152 9.075 8.714 6.05L261.565 242l8.714 6.05 8.432-3.025 8.714-12.1 8.714-18.15 8.433 18.15 8.714-33.275 8.433 30.25 8.714 3.025h8.714l7.87-27.225h8.715l8.432-12.1 8.714-18.15 8.433-12.1 8.714 12.1 8.714-3.025 8.433 9.075h8.714l8.433 6.05 8.714-21.175 8.714 39.325 7.87-60.5 8.714 45.375 8.433-39.325 8.714 21.175 8.433-6.05h8.714l8.714-72.6 8.433-33.275" data-z-index="2" class="highcharts-tracker-line" stroke-linecap="round" stroke-linejoin="round" stroke="rgba(192,192,192,0.0001)" stroke-width="22"/></g><g class="highcharts-series highcharts-series-2 highcharts-area-series highcharts-color-2" data-z-index=".1" clip-path="url(#b)" aria-hidden="true" transform="translate(10 43)"><path fill="rgba(141,70,84,0.5)" d="M5.206 342.833h107.94v-20.166h37.105V302.5h34.294v-20.167h3.935v-20.166h81.799V242h25.86v20.167h3.936V242h30.358v-20.167h59.592v-20.166h5.341V181.5h11.806v-20.167h102.6v-20.166h16.022V363H5.206Z" class="highcharts-area" data-z-index="0"/><path fill="none" d="M6.206 343.833h107.94v-20.166h37.105V303.5h34.294v-20.167h3.935v-20.166h81.799V243h25.86v20.167h3.936V243h30.358v-20.167h59.592v-20.166h5.341V182.5h11.806v-20.167h102.6v-20.166h16.022" class="highcharts-graph highcharts-shadow" data-z-index="1" stroke="#000" stroke-width="5" stroke-linejoin="round" stroke-linecap="round" stroke-opacity=".05"/><path fill="none" d="M6.206 343.833h107.94v-20.166h37.105V303.5h34.294v-20.167h3.935v-20.166h81.799V243h25.86v20.167h3.936V243h30.358v-20.167h59.592v-20.166h5.341V182.5h11.806v-20.167h102.6v-20.166h16.022" class="highcharts-graph highcharts-shadow" data-z-index="1" stroke="#000" stroke-width="3" stroke-linejoin="round" stroke-linecap="round" stroke-opacity=".1"/><path fill="none" d="M6.206 343.833h107.94v-20.166h37.105V303.5h34.294v-20.167h3.935v-20.166h81.799V243h25.86v20.167h3.936V243h30.358v-20.167h59.592v-20.166h5.341V182.5h11.806v-20.167h102.6v-20.166h16.022" class="highcharts-graph highcharts-shadow" data-z-index="1" stroke="#000" stroke-linejoin="round" stroke-linecap="round" stroke-opacity=".15"/><path fill="none" d="M5.206 342.833h107.94v-20.166h37.105V302.5h34.294v-20.167h3.935v-20.166h81.799V242h25.86v20.167h3.936V242h30.358v-20.167h59.592v-20.166h5.341V181.5h11.806v-20.167h102.6v-20.166h16.022" class="highcharts-graph" data-z-index="1" stroke="#8d4654" stroke-width="2" stroke-linejoin="round" stroke-linecap="round"/><path fill="none" d="M5.206 342.833h107.94v-20.166h37.105V302.5h34.294v-20.167h3.935v-20.166h81.799V242h25.86v20.167h3.936V242h30.358v-20.167h59.592v-20.166h5.341V181.5h11.806v-20.167h102.6v-20.166h16.022" data-z-index="2" class="highcharts-tracker-line" stroke-linecap="round" stroke-linejoin="round" stroke="rgba(192,192,192,0.0001)" stroke-width="22"/></g><g class="highcharts-markers highcharts-series-3 highcharts-flags-series highcharts-tracker" data-z-index=".1" clip-path="url(#a)" aria-hidden="false" tabindex="-1" aria-label="Cloud, series 4 of 7 with 1 data point. Y axis, values." style="outline:0" transform="translate(10 43)"><g class="highcharts-label highcharts-point" tabindex="-1" aria-label="Thursday, May 1, 2014. Cloud: Highcharts Cloud Beta. Cloud." style="outline:0"><path fill="none" class="highcharts-label-box highcharts-shadow" d="M449.5 284.5h35v19h-35Zm17.5 19 .5 60.5m0 1a1 1 0 1 1 .001 0Z" stroke="#000" stroke-width="5" stroke-opacity=".05"/><path fill="none" class="highcharts-label-box highcharts-shadow" d="M449.5 284.5h35v19h-35Zm17.5 19 .5 60.5m0 1a1 1 0 1 1 .001 0Z" stroke="#000" stroke-width="3" stroke-opacity=".1"/><path fill="none" class="highcharts-label-box highcharts-shadow" d="M449.5 284.5h35v19h-35Zm17.5 19 .5 60.5m0 1a1 1 0 1 1 .001 0Z" stroke="#000" stroke-opacity=".15"/><path fill="#fff" class="highcharts-label-box" d="M448.5 283.5h35v19h-35Zm17.5 19 .5 60.5m0 1a1 1 0 1 1 .001 0Z" stroke="#333"/><text x="3" data-z-index="1" y="14" style="font-size:11px;font-weight:700" transform="translate(448 283)">Cloud</text></g></g><g class="highcharts-markers highcharts-series-4 highcharts-flags-series highcharts-tracker" data-z-index=".1" clip-path="url(#a)" aria-hidden="false" tabindex="-1" aria-label="Highmaps, series 5 of 7 with 1 data point. Y axis, values." style="outline:0" transform="translate(10 43)"><g class="highcharts-label highcharts-point" tabindex="-1" aria-label="Friday, Jun 13, 2014. Maps: Highmaps version 1.0 released. Highmaps." style="outline:0"><path fill="none" class="highcharts-label-box highcharts-shadow" d="M463.5 309.5h32v19h-32Zm16 19V364m0 1a1 1 0 1 1 .001 0Z" stroke="#000" stroke-width="5" stroke-opacity=".05"/><path fill="none" class="highcharts-label-box highcharts-shadow" d="M463.5 309.5h32v19h-32Zm16 19V364m0 1a1 1 0 1 1 .001 0Z" stroke="#000" stroke-width="3" stroke-opacity=".1"/><path fill="none" class="highcharts-label-box highcharts-shadow" d="M463.5 309.5h32v19h-32Zm16 19V364m0 1a1 1 0 1 1 .001 0Z" stroke="#000" stroke-opacity=".15"/><path fill="#fff" class="highcharts-label-box" d="M462.5 308.5h32v19h-32Zm16 19V363m0 1a1 1 0 1 1 .001 0Z" stroke="#333"/><text x="3" data-z-index="1" y="14" style="font-size:11px;font-weight:700" transform="translate(462 308)">Maps</text></g></g><g class="highcharts-markers highcharts-series-5 highcharts-flags-series highcharts-tracker" data-z-index=".1" clip-path="url(#a)" aria-hidden="false" tabindex="-1" aria-label="Highcharts, series 6 of 7 with 7 data points. Y axis, values." style="outline:0" transform="translate(10 43)"><g class="highcharts-label highcharts-point" tabindex="-1" aria-label="Friday, Nov 27, 2009. 1.0: Highcharts version 1.0 released. Highcharts." style="outline:0"><path fill="none" class="highcharts-label-box highcharts-shadow" d="M13.5 353.5a10 9.5 0 1 1 .01 0Zm0 0V364m0 1a1 1 0 1 1 .001 0Z" stroke="#000" stroke-width="5" stroke-opacity=".05"/><path fill="none" class="highcharts-label-box highcharts-shadow" d="M13.5 353.5a10 9.5 0 1 1 .01 0Zm0 0V364m0 1a1 1 0 1 1 .001 0Z" stroke="#000" stroke-width="3" stroke-opacity=".1"/><path fill="none" class="highcharts-label-box highcharts-shadow" d="M13.5 353.5a10 9.5 0 1 1 .01 0Zm0 0V364m0 1a1 1 0 1 1 .001 0Z" stroke="#000" stroke-opacity=".15"/><path fill="#fff" class="highcharts-label-box" d="M12.5 352.5a10 9.5 0 1 1 .01 0Zm0 0V363m0 1a1 1 0 1 1 .001 0Z" stroke="#333"/><text x="3" data-z-index="1" y="14" style="font-size:11px;font-weight:700" transform="translate(2 333)">1.0</text></g><g class="highcharts-label highcharts-point" tabindex="-1" aria-label="Tuesday, Jul 13, 2010. 2.0: Ported from canvas to SVG rendering. Highcharts." style="outline:0"><path fill="none" class="highcharts-label-box highcharts-shadow" d="M77.5 353.5a10 9.5 0 1 1 .01 0Zm0 0V364m0 1a1 1 0 1 1 .001 0Z" stroke="#000" stroke-width="5" stroke-opacity=".05"/><path fill="none" class="highcharts-label-box highcharts-shadow" d="M77.5 353.5a10 9.5 0 1 1 .01 0Zm0 0V364m0 1a1 1 0 1 1 .001 0Z" stroke="#000" stroke-width="3" stroke-opacity=".1"/><path fill="none" class="highcharts-label-box highcharts-shadow" d="M77.5 353.5a10 9.5 0 1 1 .01 0Zm0 0V364m0 1a1 1 0 1 1 .001 0Z" stroke="#000" stroke-opacity=".15"/><path fill="#fff" class="highcharts-label-box" d="M76.5 352.5a10 9.5 0 1 1 .01 0Zm0 0V363m0 1a1 1 0 1 1 .001 0Z" stroke="#333"/><text x="3" data-z-index="1" y="14" style="font-size:11px;font-weight:700" transform="translate(66 333)">2.0</text></g><g class="highcharts-label highcharts-point" tabindex="-1" aria-label="Tuesday, Nov 23, 2010. 2.1: Dynamically resize and scale to text labels. Highcharts." style="outline:0"><path fill="none" class="highcharts-label-box highcharts-shadow" d="M114.5 353.5a10 9.5 0 1 1 .01 0Zm0 0V364m0 1a1 1 0 1 1 .001 0Z" stroke="#000" stroke-width="5" stroke-opacity=".05"/><path fill="none" class="highcharts-label-box highcharts-shadow" d="M114.5 353.5a10 9.5 0 1 1 .01 0Zm0 0V364m0 1a1 1 0 1 1 .001 0Z" stroke="#000" stroke-width="3" stroke-opacity=".1"/><path fill="none" class="highcharts-label-box highcharts-shadow" d="M114.5 353.5a10 9.5 0 1 1 .01 0Zm0 0V364m0 1a1 1 0 1 1 .001 0Z" stroke="#000" stroke-opacity=".15"/><path fill="#fff" class="highcharts-label-box" d="M113.5 352.5a10 9.5 0 1 1 .01 0Zm0 0V363m0 1a1 1 0 1 1 .001 0Z" stroke="#333"/><text x="3" data-z-index="1" y="14" style="font-size:11px;font-weight:700" transform="translate(103 333)">2.1</text></g><g class="highcharts-label highcharts-point" tabindex="-1" aria-label="Tuesday, Oct 18, 2011. Stock: Highcharts Stock version 1.0 released. Highcharts." style="outline:0"><path fill="none" class="highcharts-label-box highcharts-shadow" d="M190.5 334.5h32v19h-32Zm16 19V364m0 1a1 1 0 1 1 .001 0Z" stroke="#000" stroke-width="5" stroke-opacity=".05"/><path fill="none" class="highcharts-label-box highcharts-shadow" d="M190.5 334.5h32v19h-32Zm16 19V364m0 1a1 1 0 1 1 .001 0Z" stroke="#000" stroke-width="3" stroke-opacity=".1"/><path fill="none" class="highcharts-label-box highcharts-shadow" d="M190.5 334.5h32v19h-32Zm16 19V364m0 1a1 1 0 1 1 .001 0Z" stroke="#000" stroke-opacity=".15"/><path fill="#fff" class="highcharts-label-box" d="M189.5 333.5h32v19h-32Zm16 19V363m0 1a1 1 0 1 1 .001 0Z" stroke="#333"/><text x="3" data-z-index="1" y="14" style="font-size:11px;font-weight:700" transform="translate(189 333)">Stock</text></g><g class="highcharts-label highcharts-point" tabindex="-1" aria-label="Friday, Aug 24, 2012. 2.3: Gauges, polar charts and range series. Highcharts." style="outline:0"><path fill="none" class="highcharts-label-box highcharts-shadow" d="M294.5 353.5a10 9.5 0 1 1 .01 0Zm0 0V364m0 1a1 1 0 1 1 .001 0Z" stroke="#000" stroke-width="5" stroke-opacity=".05"/><path fill="none" class="highcharts-label-box highcharts-shadow" d="M294.5 353.5a10 9.5 0 1 1 .01 0Zm0 0V364m0 1a1 1 0 1 1 .001 0Z" stroke="#000" stroke-width="3" stroke-opacity=".1"/><path fill="none" class="highcharts-label-box highcharts-shadow" d="M294.5 353.5a10 9.5 0 1 1 .01 0Zm0 0V364m0 1a1 1 0 1 1 .001 0Z" stroke="#000" stroke-opacity=".15"/><path fill="#fff" class="highcharts-label-box" d="M293.5 352.5a10 9.5 0 1 1 .01 0Zm0 0V363m0 1a1 1 0 1 1 .001 0Z" stroke="#333"/><text x="3" data-z-index="1" y="14" style="font-size:11px;font-weight:700" transform="translate(283 333)">2.3</text></g><g class="highcharts-label highcharts-point" tabindex="-1" aria-label="Friday, Mar 22, 2013. 3.0: Multitouch support, more series types. Highcharts." style="outline:0"><path fill="none" class="highcharts-label-box highcharts-shadow" d="M353.5 353.5a10 9.5 0 1 1 .01 0Zm0 0V364m0 1a1 1 0 1 1 .001 0Z" stroke="#000" stroke-width="5" stroke-opacity=".05"/><path fill="none" class="highcharts-label-box highcharts-shadow" d="M353.5 353.5a10 9.5 0 1 1 .01 0Zm0 0V364m0 1a1 1 0 1 1 .001 0Z" stroke="#000" stroke-width="3" stroke-opacity=".1"/><path fill="none" class="highcharts-label-box highcharts-shadow" d="M353.5 353.5a10 9.5 0 1 1 .01 0Zm0 0V364m0 1a1 1 0 1 1 .001 0Z" stroke="#000" stroke-opacity=".15"/><path fill="#fff" class="highcharts-label-box" d="M352.5 352.5a10 9.5 0 1 1 .01 0Zm0 0V363m0 1a1 1 0 1 1 .001 0Z" stroke="#333"/><text x="3" data-z-index="1" y="14" style="font-size:11px;font-weight:700" transform="translate(342 333)">3.0</text></g><g class="highcharts-label highcharts-point" tabindex="-1" aria-label="Tuesday, Apr 22, 2014. 4.0: 3D charts, heatmaps. Highcharts." style="outline:0"><path fill="none" class="highcharts-label-box highcharts-shadow" d="M464.5 353.5a10 9.5 0 1 1 .01 0Zm0 0V364m0 1a1 1 0 1 1 .001 0Z" stroke="#000" stroke-width="5" stroke-opacity=".05"/><path fill="none" class="highcharts-label-box highcharts-shadow" d="M464.5 353.5a10 9.5 0 1 1 .01 0Zm0 0V364m0 1a1 1 0 1 1 .001 0Z" stroke="#000" stroke-width="3" stroke-opacity=".1"/><path fill="none" class="highcharts-label-box highcharts-shadow" d="M464.5 353.5a10 9.5 0 1 1 .01 0Zm0 0V364m0 1a1 1 0 1 1 .001 0Z" stroke="#000" stroke-opacity=".15"/><path fill="#fff" class="highcharts-label-box" d="M463.5 352.5a10 9.5 0 1 1 .01 0Zm0 0V363m0 1a1 1 0 1 1 .001 0Z" stroke="#333"/><text x="3" data-z-index="1" y="14" style="font-size:11px;font-weight:700" transform="translate(453 333)">4.0</text></g></g><g class="highcharts-markers highcharts-series-6 highcharts-flags-series highcharts-tracker" data-z-index=".1" clip-path="url(#a)" aria-hidden="false" tabindex="-1" aria-label="Events, series 7 of 7 with 4 data points. Y axis, values." style="outline:0" transform="translate(10 43)"><g class="highcharts-label highcharts-point" tabindex="-1" aria-label="Thursday, Nov 1, 2012. Award: Highsoft won &quot;Entrepeneur of the Year&quot; in Sogn og Fjordane, Norway. Events." style="outline:0"><path fill="none" class="highcharts-label-box highcharts-shadow" d="M313.5 201.65a1 1 0 1 1 .001 0Zm0-1-36-10.15v-19h38v19h-38Z" stroke="#000" stroke-width="5" stroke-opacity=".05"/><path fill="none" class="highcharts-label-box highcharts-shadow" d="M313.5 201.65a1 1 0 1 1 .001 0Zm0-1-36-10.15v-19h38v19h-38Z" stroke="#000" stroke-width="3" stroke-opacity=".1"/><path fill="none" class="highcharts-label-box highcharts-shadow" d="M313.5 201.65a1 1 0 1 1 .001 0Zm0-1-36-10.15v-19h38v19h-38Z" stroke="#000" stroke-opacity=".15"/><path fill="rgba(255,255,255,0.8)" class="highcharts-label-box" d="M312.5 200.65a1 1 0 1 1 .001 0Zm0-1-36-10.15v-19h38v19h-38Z" stroke="#333"/><text x="3" data-z-index="1" y="14" style="font-size:11px;font-weight:700" transform="translate(276 170)">Award</text></g><g class="highcharts-label highcharts-point" tabindex="-1" aria-label="Tuesday, Dec 25, 2012. First book: Packt Publishing published Learning Highcharts by Example. Since then, many other books are written about Highcharts.. Events." style="outline:0"><path fill="none" class="highcharts-label-box highcharts-shadow" d="M328.5 234.242a1 1 0 1 1 .001 0Zm0-1-13-10.742v-19h55v19h-55Z" stroke="#000" stroke-width="5" stroke-opacity=".05"/><path fill="none" class="highcharts-label-box highcharts-shadow" d="M328.5 234.242a1 1 0 1 1 .001 0Zm0-1-13-10.742v-19h55v19h-55Z" stroke="#000" stroke-width="3" stroke-opacity=".1"/><path fill="none" class="highcharts-label-box highcharts-shadow" d="M328.5 234.242a1 1 0 1 1 .001 0Zm0-1-13-10.742v-19h55v19h-55Z" stroke="#000" stroke-opacity=".15"/><path fill="rgba(255,255,255,0.8)" class="highcharts-label-box" d="M327.5 233.242a1 1 0 1 1 .001 0Zm0-1-13-10.742v-19h55v19h-55Z" stroke="#333"/><text x="3" data-z-index="1" y="14" style="font-size:11px;font-weight:700" transform="translate(314 202)">First book</text></g><g class="highcharts-label highcharts-point" tabindex="-1" aria-label="Saturday, May 25, 2013. Award: Highsoft nominated Norway's Startup of the Year. Events." style="outline:0"><path fill="none" class="highcharts-label-box highcharts-shadow" d="M371.5 181.548a1 1 0 1 1 .001 0Zm0-1-2-10.048v-19h38v19h-38Z" stroke="#000" stroke-width="5" stroke-opacity=".05"/><path fill="none" class="highcharts-label-box highcharts-shadow" d="M371.5 181.548a1 1 0 1 1 .001 0Zm0-1-2-10.048v-19h38v19h-38Z" stroke="#000" stroke-width="3" stroke-opacity=".1"/><path fill="none" class="highcharts-label-box highcharts-shadow" d="M371.5 181.548a1 1 0 1 1 .001 0Zm0-1-2-10.048v-19h38v19h-38Z" stroke="#000" stroke-opacity=".15"/><path fill="rgba(255,255,255,0.8)" class="highcharts-label-box" d="M370.5 180.548a1 1 0 1 1 .001 0Zm0-1-2-10.048v-19h38v19h-38Z" stroke="#333"/><text x="3" data-z-index="1" y="14" style="font-size:11px;font-weight:700" transform="translate(368 150)">Award</text></g><g class="highcharts-label highcharts-point" tabindex="-1" aria-label="Sunday, May 25, 2014. Award: Highsoft nominated Best Startup in Nordic Startup Awards. Events." style="outline:0"><path fill="none" class="highcharts-label-box highcharts-shadow" d="M474.5 169.644a1 1 0 1 1 .001 0Zm0-1V139.5h38v19h-38Z" stroke="#000" stroke-width="5" stroke-opacity=".05"/><path fill="none" class="highcharts-label-box highcharts-shadow" d="M474.5 169.644a1 1 0 1 1 .001 0Zm0-1V139.5h38v19h-38Z" stroke="#000" stroke-width="3" stroke-opacity=".1"/><path fill="none" class="highcharts-label-box highcharts-shadow" d="M474.5 169.644a1 1 0 1 1 .001 0Zm0-1V139.5h38v19h-38Z" stroke="#000" stroke-opacity=".15"/><path fill="rgba(255,255,255,0.8)" class="highcharts-label-box" d="M473.5 168.644a1 1 0 1 1 .001 0Zm0-1V138.5h38v19h-38Z" stroke="#333"/><text x="3" data-z-index="1" y="14" style="font-size:11px;font-weight:700" transform="translate(473 138)">Award</text></g></g></g><text x="300" text-anchor="middle" class="highcharts-title" data-z-index="4" style="color:#000;font-size:16px;font-weight:700;fill:#000" y="22" aria-hidden="true">Highcharts and Highsoft timeline</text><text x="10" class="highcharts-caption" data-z-index="4" style="color:#666;fill:#666" y="477" aria-hidden="true">An advanced demo showing a combination of various Highcharts features, including flags and plot bands. The chart shows how Highcharts and Highsoft has evolved over time, with number of employees, revenue, search popularity, office locations, and various events of interest.</text><path fill="#C12828" d="M50 140h180v20H50zm0 10H30l10 10-10 10h30l-10-10 10 10v-10H50zm180 0h20l-10 10 10 10h-30l10-10-10 10v-10h10z" stroke="#FFF" data-z-index="5" aria-hidden="true"/><path fill="#C12828" d="m210 110 9.316 10.442-11.701 7.675 6.295 12.498L200.622 145l2.846 13.7-13.97.797-.797 13.971L175 170.622l-4.385 13.288-12.498-6.295-7.675 11.7L140 180l-10.442 9.316-7.675-11.701-12.498 6.295L105 170.622l-13.7 2.846-.797-13.97-13.971-.797L79.378 145l-13.288-4.385 6.295-12.498-11.7-7.675L70 110l-9.316-10.442 11.701-7.675-6.295-12.498L79.378 75l-2.846-13.7 13.97-.797.797-13.971L105 49.378l4.385-13.288 12.498 6.295 7.675-11.7L140 40l10.442-9.316 7.675 11.701 12.498-6.295L175 49.378l13.7-2.846.797 13.97 13.971.797L200.622 75l13.288 4.385-6.295 12.498 11.7 7.675L210 110z" data-z-index="6" aria-hidden="true"/><text x="105.863" data-z-index="6" y="124" aria-hidden="true" style="color:#fff;font-size:100px;font-style:italic;font-family:&quot;Brush Script MT&quot;,sans-serif;fill:#fff">5</text><text x="82.848" data-z-index="6" y="154" aria-hidden="true" style="color:#fff;fill:#fff">Highcharts Anniversary</text><text x="118.332" data-z-index="6" y="172" aria-hidden="true" style="color:#fff;font-style:italic;font-size:10px;fill:#fff">2009-2014</text><g class="highcharts-legend highcharts-no-tooltip" data-z-index="7" transform="translate(83 438)" aria-hidden="true"><rect fill="#E0E0E8" class="highcharts-legend-box" rx="0" ry="0" width="433" height="27"/><g data-z-index="1"><g class="highcharts-legend-item highcharts-spline-series highcharts-color-0 highcharts-series-0" data-z-index="1"><path fill="none" d="M8 15h16" class="highcharts-graph" stroke-width="2" stroke-dasharray="8,6" stroke="#f45b5b"/><text x="21" data-z-index="2" y="16" style="color:#333;cursor:pointer;font-size:13px;font-weight:700;fill:#333" transform="translate(8 3)">Google search for <tspan style="font-style:italic">highcharts</tspan></text></g><g class="highcharts-legend-item highcharts-area-series highcharts-color-1 highcharts-series-1" data-z-index="1" transform="translate(207.781 3)"><text x="21" y="16" data-z-index="2" style="color:#333;cursor:pointer;font-size:13px;font-weight:700;fill:#333">Revenue</text><rect x="1.5" y="4" width="13" height="13" fill="#8085e9" rx="6.5" ry="6.5" class="highcharts-point" data-z-index="3"/></g><g class="highcharts-legend-item highcharts-area-series highcharts-color-2 highcharts-series-2" data-z-index="1" transform="translate(296.445 3)"><text x="21" y="16" data-z-index="2" style="color:#333;cursor:pointer;font-size:13px;font-weight:700;fill:#333">Highsoft employees</text><rect x="1.5" y="4" width="13" height="13" fill="#8d4654" rx="6.5" ry="6.5" class="highcharts-point" data-z-index="3"/></g></g></g><g class="highcharts-axis-labels highcharts-xaxis-labels" data-z-index="7" aria-hidden="true"><text x="32.353" style="color:#6e6e70;cursor:default;font-size:11px;fill:#6e6e70" y="425">2010</text><text x="134.952" style="color:#6e6e70;cursor:default;font-size:11px;fill:#6e6e70" y="425">2011</text><text x="237.552" style="color:#6e6e70;cursor:default;font-size:11px;fill:#6e6e70" y="425">2012</text><text x="340.433" style="color:#6e6e70;cursor:default;font-size:11px;fill:#6e6e70" y="425">2013</text><text x="443.033" style="color:#6e6e70;cursor:default;font-size:11px;fill:#6e6e70" y="425">2014</text></g><g class="highcharts-axis-labels highcharts-yaxis-labels" data-z-index="7" aria-hidden="true"><text x="556" style="color:#8d4654;cursor:default;font-size:11px;fill:#8d4654" y="411">0</text><text x="556" style="color:#8d4654;cursor:default;font-size:11px;fill:#8d4654" y="350">3</text><text x="556" style="color:#8d4654;cursor:default;font-size:11px;fill:#8d4654" y="290">6</text><text x="556" style="color:#8d4654;cursor:default;font-size:11px;fill:#8d4654" y="229">9</text><text x="556" style="color:#8d4654;cursor:default;font-size:11px;fill:#8d4654" y="169">12</text><text x="556" style="color:#8d4654;cursor:default;font-size:11px;fill:#8d4654" y="108">15</text><text x="556" style="color:#8d4654;cursor:default;font-size:11px;fill:#8d4654" y="48">18</text></g></svg>