<svg class="highcharts-root" style="font-family:Signika,serif;font-size:12px" xmlns="http://www.w3.org/2000/svg" width="600" height="400" aria-label="Interactive chart" aria-hidden="false"><defs aria-hidden="true"><clipPath id="a"><path fill="none" d="M0 0h360v298H0z"/></clipPath><clipPath id="b"><path fill="none" d="M0 0h360v298H0z"/></clipPath><clipPath id="c"><path fill="none" d="M0 0h360v298H0z"/></clipPath></defs><rect fill="none" class="highcharts-background" width="600" height="400" rx="0" ry="0" aria-hidden="true"/><path fill="none" class="highcharts-plot-background" aria-hidden="true" d="M84 56h360v298H84z"/><g class="highcharts-grid highcharts-xaxis-grid" data-z-index="1" aria-hidden="true" fill="none"><path data-z-index="1" class="highcharts-grid-line" d="M113.5 56v298m30-298v298m30-298v298m30-298v298m30-298v298m30-298v298m30-298v298m30-298v298m30-298v298m30-298v298m30-298v298m30-298v298M83.5 56v298"/></g><g class="highcharts-grid highcharts-yaxis-grid" data-z-index="1" aria-hidden="true" fill="none" stroke="#e6e6e6"><path data-z-index="1" class="highcharts-grid-line" d="M84 354.5h360m-360-60h360m-360-59h360m-360-60h360m-360-59h360m-360-61h360"/></g><g class="highcharts-grid highcharts-yaxis-grid" data-z-index="1" aria-hidden="true" fill="none"><path data-z-index="1" class="highcharts-grid-line" d="M84 354.5h360m-360-60h360m-360-59h360m-360-60h360m-360-59h360m-360-60h360"/></g><g class="highcharts-grid highcharts-yaxis-grid" data-z-index="1" aria-hidden="true" fill="none"><path data-z-index="1" class="highcharts-grid-line" d="M84 354.5h360m-360-60h360m-360-59h360m-360-60h360m-360-59h360m-360-60h360"/></g><path fill="none" class="highcharts-plot-border" data-z-index="1" aria-hidden="true" d="M84 56h360v298H84z"/><g class="highcharts-axis highcharts-xaxis" data-z-index="2" aria-hidden="true"><path fill="none" class="highcharts-axis-line" stroke="#ccd6eb" data-z-index="7" d="M84 354.5h360"/></g><g class="highcharts-axis highcharts-yaxis" data-z-index="2" aria-hidden="true"><text x="491.742" data-z-index="7" text-anchor="middle" transform="rotate(90 491.742 205)" class="highcharts-axis-title" style="color:#8d4654;fill:#8d4654" y="205">Temperature</text><path fill="none" class="highcharts-axis-line" data-z-index="7" d="M444 56v298"/></g><g class="highcharts-axis highcharts-yaxis" data-z-index="2" aria-hidden="true"><text x="22.633" data-z-index="7" text-anchor="middle" transform="rotate(-90 22.633 205)" class="highcharts-axis-title" style="color:#f45b5b;fill:#f45b5b" y="205">Rainfall</text><path fill="none" class="highcharts-axis-line" data-z-index="7" d="M84 56v298"/></g><g class="highcharts-axis highcharts-yaxis" data-z-index="2" aria-hidden="true"><text x="576.871" data-z-index="7" text-anchor="middle" transform="rotate(90 576.871 205)" class="highcharts-axis-title" style="color:#8085e9;fill:#8085e9" y="205">Sea-Level Pressure</text><path fill="none" class="highcharts-axis-line" data-z-index="7" d="M505 56v298"/></g><g class="highcharts-series-group" data-z-index="3" aria-hidden="false"><g class="highcharts-series highcharts-series-0 highcharts-column-series highcharts-color-0 highcharts-tracker" data-z-index=".1" clip-path="url(#a)" aria-hidden="false" tabindex="-1" aria-label="Rainfall, series 1 of 3. Bar series with 12 bars. Y axis, Rainfall." style="outline:0" transform="translate(84 56)"><path fill="none" stroke="#000" stroke-width="5" stroke-opacity=".05" class="highcharts-shadow" d="M8.5 240.5h15v59h-15z"/><path fill="none" stroke="#000" stroke-width="3" stroke-opacity=".1" class="highcharts-shadow" d="M8.5 240.5h15v59h-15z"/><path fill="none" stroke="#000" stroke-opacity=".15" class="highcharts-shadow" d="M8.5 240.5h15v59h-15z"/><path fill="#f45b5b" stroke="#fff" class="highcharts-point highcharts-color-0" tabindex="-1" aria-label="Jan, 49.9 mm. Rainfall." style="outline:0" d="M7.5 239.5h15v59h-15z"/><path fill="none" stroke="#000" stroke-width="5" stroke-opacity=".05" class="highcharts-shadow" d="M38.5 214.5h15v85h-15z"/><path fill="none" stroke="#000" stroke-width="3" stroke-opacity=".1" class="highcharts-shadow" d="M38.5 214.5h15v85h-15z"/><path fill="none" stroke="#000" stroke-opacity=".15" class="highcharts-shadow" d="M38.5 214.5h15v85h-15z"/><path fill="#f45b5b" stroke="#fff" class="highcharts-point highcharts-color-0" tabindex="-1" aria-label="Feb, 71.5 mm. Rainfall." style="outline:0" d="M37.5 213.5h15v85h-15z"/><path fill="none" stroke="#000" stroke-width="5" stroke-opacity=".05" class="highcharts-shadow" d="M68.5 172.5h15v127h-15z"/><path fill="none" stroke="#000" stroke-width="3" stroke-opacity=".1" class="highcharts-shadow" d="M68.5 172.5h15v127h-15z"/><path fill="none" stroke="#000" stroke-opacity=".15" class="highcharts-shadow" d="M68.5 172.5h15v127h-15z"/><path fill="#f45b5b" stroke="#fff" class="highcharts-point highcharts-color-0" tabindex="-1" aria-label="Mar, 106.4 mm. Rainfall." style="outline:0" d="M67.5 171.5h15v127h-15z"/><path fill="none" stroke="#000" stroke-width="5" stroke-opacity=".05" class="highcharts-shadow" d="M98.5 145.5h15v154h-15z"/><path fill="none" stroke="#000" stroke-width="3" stroke-opacity=".1" class="highcharts-shadow" d="M98.5 145.5h15v154h-15z"/><path fill="none" stroke="#000" stroke-opacity=".15" class="highcharts-shadow" d="M98.5 145.5h15v154h-15z"/><path fill="#f45b5b" stroke="#fff" class="highcharts-point highcharts-color-0" tabindex="-1" aria-label="Apr, 129.2 mm. Rainfall." style="outline:0" d="M97.5 144.5h15v154h-15z"/><path fill="none" stroke="#000" stroke-width="5" stroke-opacity=".05" class="highcharts-shadow" d="M128.5 127.5h15v172h-15z"/><path fill="none" stroke="#000" stroke-width="3" stroke-opacity=".1" class="highcharts-shadow" d="M128.5 127.5h15v172h-15z"/><path fill="none" stroke="#000" stroke-opacity=".15" class="highcharts-shadow" d="M128.5 127.5h15v172h-15z"/><path fill="#f45b5b" stroke="#fff" class="highcharts-point highcharts-color-0" tabindex="-1" aria-label="May, 144 mm. Rainfall." style="outline:0" d="M127.5 126.5h15v172h-15z"/><path fill="none" stroke="#000" stroke-width="5" stroke-opacity=".05" class="highcharts-shadow" d="M158.5 89.5h15v210h-15z"/><path fill="none" stroke="#000" stroke-width="3" stroke-opacity=".1" class="highcharts-shadow" d="M158.5 89.5h15v210h-15z"/><path fill="none" stroke="#000" stroke-opacity=".15" class="highcharts-shadow" d="M158.5 89.5h15v210h-15z"/><path fill="#f45b5b" stroke="#fff" class="highcharts-point highcharts-color-0" tabindex="-1" aria-label="Jun, 176 mm. Rainfall." style="outline:0" d="M157.5 88.5h15v210h-15z"/><path fill="none" stroke="#000" stroke-width="5" stroke-opacity=".05" class="highcharts-shadow" d="M188.5 137.5h15v162h-15z"/><path fill="none" stroke="#000" stroke-width="3" stroke-opacity=".1" class="highcharts-shadow" d="M188.5 137.5h15v162h-15z"/><path fill="none" stroke="#000" stroke-opacity=".15" class="highcharts-shadow" d="M188.5 137.5h15v162h-15z"/><path fill="#f45b5b" stroke="#fff" class="highcharts-point highcharts-color-0" tabindex="-1" aria-label="Jul, 135.6 mm. Rainfall." style="outline:0" d="M187.5 136.5h15v162h-15z"/><path fill="none" stroke="#000" stroke-width="5" stroke-opacity=".05" class="highcharts-shadow" d="M218.5 122.5h15v177h-15z"/><path fill="none" stroke="#000" stroke-width="3" stroke-opacity=".1" class="highcharts-shadow" d="M218.5 122.5h15v177h-15z"/><path fill="none" stroke="#000" stroke-opacity=".15" class="highcharts-shadow" d="M218.5 122.5h15v177h-15z"/><path fill="#f45b5b" stroke="#fff" class="highcharts-point highcharts-color-0" tabindex="-1" aria-label="Aug, 148.5 mm. Rainfall." style="outline:0" d="M217.5 121.5h15v177h-15z"/><path fill="none" stroke="#000" stroke-width="5" stroke-opacity=".05" class="highcharts-shadow" d="M248.5 41.5h15v258h-15z"/><path fill="none" stroke="#000" stroke-width="3" stroke-opacity=".1" class="highcharts-shadow" d="M248.5 41.5h15v258h-15z"/><path fill="none" stroke="#000" stroke-opacity=".15" class="highcharts-shadow" d="M248.5 41.5h15v258h-15z"/><path fill="#f45b5b" stroke="#fff" class="highcharts-point highcharts-color-0" tabindex="-1" aria-label="Sep, 216.4 mm. Rainfall." style="outline:0" d="M247.5 40.5h15v258h-15z"/><path fill="none" stroke="#000" stroke-width="5" stroke-opacity=".05" class="highcharts-shadow" d="M278.5 68.5h15v231h-15z"/><path fill="none" stroke="#000" stroke-width="3" stroke-opacity=".1" class="highcharts-shadow" d="M278.5 68.5h15v231h-15z"/><path fill="none" stroke="#000" stroke-opacity=".15" class="highcharts-shadow" d="M278.5 68.5h15v231h-15z"/><path fill="#f45b5b" stroke="#fff" class="highcharts-point highcharts-color-0" tabindex="-1" aria-label="Oct, 194.1 mm. Rainfall." style="outline:0" d="M277.5 67.5h15v231h-15z"/><path fill="none" stroke="#000" stroke-width="5" stroke-opacity=".05" class="highcharts-shadow" d="M308.5 185.5h15v114h-15z"/><path fill="none" stroke="#000" stroke-width="3" stroke-opacity=".1" class="highcharts-shadow" d="M308.5 185.5h15v114h-15z"/><path fill="none" stroke="#000" stroke-opacity=".15" class="highcharts-shadow" d="M308.5 185.5h15v114h-15z"/><path fill="#f45b5b" stroke="#fff" class="highcharts-point highcharts-color-0" tabindex="-1" aria-label="Nov, 95.6 mm. Rainfall." style="outline:0" d="M307.5 184.5h15v114h-15z"/><path fill="none" stroke="#000" stroke-width="5" stroke-opacity=".05" class="highcharts-shadow" d="M338.5 234.5h15v65h-15z"/><path fill="none" stroke="#000" stroke-width="3" stroke-opacity=".1" class="highcharts-shadow" d="M338.5 234.5h15v65h-15z"/><path fill="none" stroke="#000" stroke-opacity=".15" class="highcharts-shadow" d="M338.5 234.5h15v65h-15z"/><path fill="#f45b5b" stroke="#fff" class="highcharts-point highcharts-color-0" tabindex="-1" aria-label="Dec, 54.4 mm. Rainfall." style="outline:0" d="M337.5 233.5h15v65h-15z"/></g><g class="highcharts-series highcharts-series-1 highcharts-spline-series highcharts-color-1" data-z-index=".1" clip-path="url(#b)" aria-hidden="true" fill="none" transform="translate(84 56)"><path d="M16 96.36h30c12 0 18 0 30 2.384s18 0 30 9.536 18 47.68 30 76.288c12 28.608 18 66.752 30 66.752s18 0 30-2.384 18 0 30-14.304 18-37.19 30-69.136c12-31.946 18-66.275 30-90.592 12-24.317 18-30.992 30-30.992s30 35.76 30 35.76" class="highcharts-graph highcharts-shadow" data-z-index="1" stroke="#000" stroke-width="5" stroke-dasharray="2,2" stroke-opacity=".05"/><path d="M16 96.36h30c12 0 18 0 30 2.384s18 0 30 9.536 18 47.68 30 76.288c12 28.608 18 66.752 30 66.752s18 0 30-2.384 18 0 30-14.304 18-37.19 30-69.136c12-31.946 18-66.275 30-90.592 12-24.317 18-30.992 30-30.992s30 35.76 30 35.76" class="highcharts-graph highcharts-shadow" data-z-index="1" stroke="#000" stroke-width="3" stroke-dasharray="2,2" stroke-opacity=".1"/><path d="M16 96.36h30c12 0 18 0 30 2.384s18 0 30 9.536 18 47.68 30 76.288c12 28.608 18 66.752 30 66.752s18 0 30-2.384 18 0 30-14.304 18-37.19 30-69.136c12-31.946 18-66.275 30-90.592 12-24.317 18-30.992 30-30.992s30 35.76 30 35.76" class="highcharts-graph highcharts-shadow" data-z-index="1" stroke="#000" stroke-dasharray="2,2" stroke-opacity=".15"/><path d="M15 95.36h30c12 0 18 0 30 2.384s18 0 30 9.536 18 47.68 30 76.288c12 28.608 18 66.752 30 66.752s18 0 30-2.384 18 0 30-14.304 18-37.19 30-69.136c12-31.946 18-66.275 30-90.592 12-24.317 18-30.992 30-30.992s30 35.76 30 35.76" class="highcharts-graph" data-z-index="1" stroke="#8085e9" stroke-width="2" stroke-dasharray="2,2"/><path d="M15 95.36h30c12 0 18 0 30 2.384s18 0 30 9.536 18 47.68 30 76.288c12 28.608 18 66.752 30 66.752s18 0 30-2.384 18 0 30-14.304 18-37.19 30-69.136c12-31.946 18-66.275 30-90.592 12-24.317 18-30.992 30-30.992s30 35.76 30 35.76" data-z-index="2" class="highcharts-tracker-line" stroke-linecap="round" stroke-linejoin="round" stroke="rgba(192,192,192,0.0001)" stroke-width="22"/></g><g class="highcharts-series highcharts-series-2 highcharts-spline-series highcharts-color-2" data-z-index=".1" clip-path="url(#c)" aria-hidden="true" fill="none" stroke-linejoin="round" stroke-linecap="round" transform="translate(84 56)"><path d="M16 275.16s18 1.192 30 1.192 18-12.874 30-30.992c12-18.118 18-38.86 30-59.6 12-20.74 18-27.416 30-44.104s18-22.648 30-39.336 18-32.184 30-44.104c12-11.92 18-15.496 30-15.496s18 18.595 30 38.144 18 37.19 30 59.6c12 22.41 18 31.707 30 52.448 12 20.74 30 51.256 30 51.256" class="highcharts-graph highcharts-shadow" data-z-index="1" stroke="#000" stroke-width="5" stroke-opacity=".05"/><path d="M16 275.16s18 1.192 30 1.192 18-12.874 30-30.992c12-18.118 18-38.86 30-59.6 12-20.74 18-27.416 30-44.104s18-22.648 30-39.336 18-32.184 30-44.104c12-11.92 18-15.496 30-15.496s18 18.595 30 38.144 18 37.19 30 59.6c12 22.41 18 31.707 30 52.448 12 20.74 30 51.256 30 51.256" class="highcharts-graph highcharts-shadow" data-z-index="1" stroke="#000" stroke-width="3" stroke-opacity=".1"/><path d="M16 275.16s18 1.192 30 1.192 18-12.874 30-30.992c12-18.118 18-38.86 30-59.6 12-20.74 18-27.416 30-44.104s18-22.648 30-39.336 18-32.184 30-44.104c12-11.92 18-15.496 30-15.496s18 18.595 30 38.144 18 37.19 30 59.6c12 22.41 18 31.707 30 52.448 12 20.74 30 51.256 30 51.256" class="highcharts-graph highcharts-shadow" data-z-index="1" stroke="#000" stroke-opacity=".15"/><path d="M15 274.16s18 1.192 30 1.192 18-12.874 30-30.992c12-18.118 18-38.86 30-59.6 12-20.74 18-27.416 30-44.104s18-22.648 30-39.336 18-32.184 30-44.104c12-11.92 18-15.496 30-15.496s18 18.595 30 38.144 18 37.19 30 59.6c12 22.41 18 31.707 30 52.448 12 20.74 30 51.256 30 51.256" class="highcharts-graph" data-z-index="1" stroke="#8d4654" stroke-width="2"/><path d="M15 274.16s18 1.192 30 1.192 18-12.874 30-30.992c12-18.118 18-38.86 30-59.6 12-20.74 18-27.416 30-44.104s18-22.648 30-39.336 18-32.184 30-44.104c12-11.92 18-15.496 30-15.496s18 18.595 30 38.144 18 37.19 30 59.6c12 22.41 18 31.707 30 52.448 12 20.74 30 51.256 30 51.256" data-z-index="2" class="highcharts-tracker-line" stroke="rgba(192,192,192,0.0001)" stroke-width="22"/></g><g class="highcharts-markers highcharts-series-2 highcharts-spline-series highcharts-color-2 highcharts-tracker" data-z-index=".1" aria-hidden="false" tabindex="-1" aria-label="Temperature, series 3 of 3. Line with 12 data points. Y axis, Temperature." style="outline:0" fill="#8d4654"><path d="m15 270 4 4-4 4-4-4Z" class="highcharts-point highcharts-color-2" tabindex="-1" aria-label="Jan, 7 °C. Temperature." style="outline:0" transform="translate(84 56)"/><path d="m45 271 4 4-4 4-4-4Z" class="highcharts-point highcharts-color-2" tabindex="-1" aria-label="Feb, 6.9 °C. Temperature." style="outline:0" transform="translate(84 56)"/><path d="m75 240 4 4-4 4-4-4Z" class="highcharts-point highcharts-color-2" tabindex="-1" aria-label="Mar, 9.5 °C. Temperature." style="outline:0" transform="translate(84 56)"/><path d="m105 181 4 4-4 4-4-4Z" class="highcharts-point highcharts-color-2" tabindex="-1" aria-label="Apr, 14.5 °C. Temperature." style="outline:0" transform="translate(84 56)"/><path d="m135 137 4 4-4 4-4-4Z" class="highcharts-point highcharts-color-2" tabindex="-1" aria-label="May, 18.2 °C. Temperature." style="outline:0" transform="translate(84 56)"/><path d="m165 97 4 4-4 4-4-4Z" class="highcharts-point highcharts-color-2" tabindex="-1" aria-label="Jun, 21.5 °C. Temperature." style="outline:0" transform="translate(84 56)"/><path d="m195 53 4 4-4 4-4-4Z" class="highcharts-point highcharts-color-2" tabindex="-1" aria-label="Jul, 25.2 °C. Temperature." style="outline:0" transform="translate(84 56)"/><path d="m225 38 4 4-4 4-4-4Z" class="highcharts-point highcharts-color-2" tabindex="-1" aria-label="Aug, 26.5 °C. Temperature." style="outline:0" transform="translate(84 56)"/><path d="m255 76 4 4-4 4-4-4Z" class="highcharts-point highcharts-color-2" tabindex="-1" aria-label="Sep, 23.3 °C. Temperature." style="outline:0" transform="translate(84 56)"/><path d="m285 135 4 4-4 4-4-4Z" class="highcharts-point highcharts-color-2" tabindex="-1" aria-label="Oct, 18.3 °C. Temperature." style="outline:0" transform="translate(84 56)"/><path d="m315 188 4 4-4 4-4-4Z" class="highcharts-point highcharts-color-2" tabindex="-1" aria-label="Nov, 13.9 °C. Temperature." style="outline:0" transform="translate(84 56)"/><path d="m345 239 4 4-4 4-4-4Z" class="highcharts-point highcharts-color-2" tabindex="-1" aria-label="Dec, 9.6 °C. Temperature." style="outline:0" transform="translate(84 56)"/></g></g><g data-z-index="3" aria-hidden="true"><text data-z-index="1" y="12" style="color:#8085e9;font-weight:700;fill:#8085e9" transform="translate(258 309)" class="highcharts-label highcharts-series-label highcharts-series-label-1 highcharts-color-1">Sea-Level Pressure</text></g><g data-z-index="3" aria-hidden="true"><text data-z-index="1" y="12" style="color:#8d4654;font-weight:700;fill:#8d4654" transform="translate(359 302)" class="highcharts-label highcharts-series-label highcharts-series-label-2 highcharts-color-2">Temperature</text></g><text x="10" class="highcharts-title" data-z-index="4" style="color:#000;font-size:16px;font-weight:700;fill:#000" y="22" aria-hidden="true">Average Monthly Weather Data for Tokyo</text><text x="10" class="highcharts-subtitle" data-z-index="4" style="color:#000;fill:#000" y="42" aria-hidden="true">Source: WorldClimate.com</text><g class="highcharts-legend highcharts-no-tooltip" data-z-index="7" transform="translate(90 65)" aria-hidden="true"><rect fill="#E0E0E8" class="highcharts-legend-box" rx="0" ry="0" width="142" height="59"/><g data-z-index="1"><g class="highcharts-legend-item highcharts-column-series highcharts-color-0 highcharts-series-0" data-z-index="1" transform="translate(8 3)"><text x="21" data-z-index="2" y="16" style="color:#333;cursor:pointer;font-size:13px;font-weight:700;fill:#333">Rainfall</text><rect x="1.5" y="4" width="13" height="13" fill="#f45b5b" rx="6.5" ry="6.5" class="highcharts-point" data-z-index="3"/></g><g class="highcharts-legend-item highcharts-spline-series highcharts-color-1 highcharts-series-1" data-z-index="1"><path fill="none" d="M8 31h16" class="highcharts-graph" stroke-width="2" stroke-dasharray="2,2" stroke="#8085e9"/><text x="21" y="16" data-z-index="2" style="color:#333;cursor:pointer;font-size:13px;font-weight:700;fill:#333" transform="translate(8 19)">Sea-Level Pressure</text></g><g class="highcharts-legend-item highcharts-spline-series highcharts-color-2 highcharts-series-2" data-z-index="1"><path fill="none" d="M8 47h16" class="highcharts-graph" stroke-width="2" stroke="#8d4654"/><path fill="#8d4654" d="m16 43 4 4-4 4-4-4Z" class="highcharts-point"/><text x="21" y="16" data-z-index="2" style="color:#333;cursor:pointer;font-size:13px;font-weight:700;fill:#333" transform="translate(8 35)">Temperature</text></g></g></g><g class="highcharts-axis-labels highcharts-xaxis-labels" data-z-index="7" aria-hidden="true" text-anchor="end"><text x="101.593" transform="rotate(-45 101.593 370)" style="color:#6e6e70;cursor:default;font-size:11px;fill:#6e6e70" y="370">Jan</text><text x="131.593" transform="rotate(-45 131.593 370)" style="color:#6e6e70;cursor:default;font-size:11px;fill:#6e6e70" y="370">Feb</text><text x="161.593" transform="rotate(-45 161.593 370)" style="color:#6e6e70;cursor:default;font-size:11px;fill:#6e6e70" y="370">Mar</text><text x="191.593" transform="rotate(-45 191.593 370)" style="color:#6e6e70;cursor:default;font-size:11px;fill:#6e6e70" y="370">Apr</text><text x="221.593" transform="rotate(-45 221.593 370)" style="color:#6e6e70;cursor:default;font-size:11px;fill:#6e6e70" y="370">May</text><text x="251.593" transform="rotate(-45 251.593 370)" style="color:#6e6e70;cursor:default;font-size:11px;fill:#6e6e70" y="370">Jun</text><text x="281.593" transform="rotate(-45 281.593 370)" style="color:#6e6e70;cursor:default;font-size:11px;fill:#6e6e70" y="370">Jul</text><text x="311.593" transform="rotate(-45 311.593 370)" style="color:#6e6e70;cursor:default;font-size:11px;fill:#6e6e70" y="370">Aug</text><text x="341.593" transform="rotate(-45 341.593 370)" style="color:#6e6e70;cursor:default;font-size:11px;fill:#6e6e70" y="370">Sep</text><text x="371.593" transform="rotate(-45 371.593 370)" style="color:#6e6e70;cursor:default;font-size:11px;fill:#6e6e70" y="370">Oct</text><text x="401.593" transform="rotate(-45 401.593 370)" style="color:#6e6e70;cursor:default;font-size:11px;fill:#6e6e70" y="370">Nov</text><text x="431.593" transform="rotate(-45 431.593 370)" style="color:#6e6e70;cursor:default;font-size:11px;fill:#6e6e70" y="370">Dec</text></g><g class="highcharts-axis-labels highcharts-yaxis-labels" data-z-index="7" aria-hidden="true"><text x="459" style="color:#8d4654;cursor:default;font-size:11px;fill:#8d4654" y="359">5°C</text><text x="459" style="color:#8d4654;cursor:default;font-size:11px;fill:#8d4654" y="299">10°C</text><text x="459" style="color:#8d4654;cursor:default;font-size:11px;fill:#8d4654" y="240">15°C</text><text x="459" style="color:#8d4654;cursor:default;font-size:11px;fill:#8d4654" y="180">20°C</text><text x="459" style="color:#8d4654;cursor:default;font-size:11px;fill:#8d4654" y="120">25°C</text><text x="459" style="color:#8d4654;cursor:default;font-size:11px;fill:#8d4654" y="61">30°C</text></g><g class="highcharts-axis-labels highcharts-yaxis-labels" data-z-index="7" aria-hidden="true" text-anchor="end"><text x="69" style="color:#f45b5b;cursor:default;font-size:11px;fill:#f45b5b" y="359">0 mm</text><text x="69" style="color:#f45b5b;cursor:default;font-size:11px;fill:#f45b5b" y="299">50 mm</text><text x="69" style="color:#f45b5b;cursor:default;font-size:11px;fill:#f45b5b" y="240">100 mm</text><text x="69" style="color:#f45b5b;cursor:default;font-size:11px;fill:#f45b5b" y="180">150 mm</text><text x="69" style="color:#f45b5b;cursor:default;font-size:11px;fill:#f45b5b" y="120">200 mm</text><text x="69" style="color:#f45b5b;cursor:default;font-size:11px;fill:#f45b5b" y="61">250 mm</text></g><g class="highcharts-axis-labels highcharts-yaxis-labels" data-z-index="7" aria-hidden="true"><text x="519.809" style="color:#8085e9;cursor:default;font-size:11px;fill:#8085e9" y="359">1007.5 mb</text><text x="519.809" style="color:#8085e9;cursor:default;font-size:11px;fill:#8085e9" y="299">1010 mb</text><text x="519.809" style="color:#8085e9;cursor:default;font-size:11px;fill:#8085e9" y="240">1012.5 mb</text><text x="519.809" style="color:#8085e9;cursor:default;font-size:11px;fill:#8085e9" y="180">1015 mb</text><text x="519.809" style="color:#8085e9;cursor:default;font-size:11px;fill:#8085e9" y="120">1017.5 mb</text><text x="519.809" style="color:#8085e9;cursor:default;font-size:11px;fill:#8085e9" y="61">1020 mb</text></g></svg>