<svg class="highcharts-root" style="font-family:Signika,serif;font-size:12px" xmlns="http://www.w3.org/2000/svg" width="600" height="400" aria-label="Interactive chart" aria-hidden="false"><defs aria-hidden="true"><clipPath id="a"><path fill="none" d="M0 0h536v283H0z"/></clipPath></defs><rect fill="none" class="highcharts-background" width="600" height="400" rx="0" ry="0" aria-hidden="true"/><path fill="none" class="highcharts-plot-background" aria-hidden="true" d="M54 43h536v283H54z"/><g class="highcharts-grid highcharts-xaxis-grid" data-z-index="1" aria-hidden="true" fill="none"><path data-z-index="1" class="highcharts-grid-line" d="M98.5 43v283m89-283v283m89-283v283m90-283v283m89-283v283m89-283v283"/></g><g class="highcharts-grid highcharts-yaxis-grid" data-z-index="1" aria-hidden="true" fill="none" stroke="#e6e6e6"><path data-z-index="1" class="highcharts-grid-line" d="M54 326.5h536m-536-57h536m-536-56h536m-536-57h536m-536-56h536m-536-58h536"/></g><path fill="none" class="highcharts-plot-border" data-z-index="1" aria-hidden="true" d="M54 43h536v283H54z"/><g class="highcharts-axis highcharts-xaxis" data-z-index="2" aria-hidden="true" fill="none" stroke="#ccd6eb"><path class="highcharts-tick" d="M98.5 326v10m89-10v10m89-10v10m90-10v10m89-10v10m89-10v10"/><path class="highcharts-axis-line" data-z-index="7" d="M54 326.5h536"/></g><g class="highcharts-axis highcharts-yaxis" data-z-index="2" aria-hidden="true"><text x="23.5" data-z-index="7" text-anchor="middle" transform="rotate(-90 23.5 184.5)" class="highcharts-axis-title" style="color:#666;fill:#666" y="184.5">Values</text><path fill="none" class="highcharts-axis-line" data-z-index="7" d="M54 43v283"/></g><g class="highcharts-series-group" data-z-index="3" aria-hidden="false"><g class="highcharts-series highcharts-series-0 highcharts-line-series highcharts-color-0" data-z-index=".1" clip-path="url(#a)" aria-hidden="true" fill="none" stroke-linejoin="round" stroke-linecap="round" transform="translate(54 43)"><path d="m45.667 221.174 446.666-192.44" class="highcharts-graph highcharts-shadow" data-z-index="1" stroke="#000" stroke-width="5" stroke-opacity=".05"/><path d="m45.667 221.174 446.666-192.44" class="highcharts-graph highcharts-shadow" data-z-index="1" stroke="#000" stroke-width="3" stroke-opacity=".1"/><path d="m45.667 221.174 446.666-192.44" class="highcharts-graph highcharts-shadow" data-z-index="1" stroke="#000" stroke-opacity=".15"/><path d="m44.667 220.174 446.666-192.44" class="highcharts-graph" data-z-index="1" stroke="#f45b5b" stroke-width="2"/></g><g class="highcharts-markers highcharts-series-1 highcharts-scatter-series highcharts-color-1 highcharts-tracker" data-z-index=".1" aria-hidden="false" tabindex="-1" aria-label="Observations, series 2 of 2, scatter plot with 6 points." style="outline:0" fill="#8085e9"><path d="m44 222 4 4-4 4-4-4Z" class="highcharts-point highcharts-color-1" tabindex="-1" aria-label="x, 0, 1. Observations." style="outline:0" transform="translate(54 43)"/><path d="m134 194 4 4-4 4-4-4Z" class="highcharts-point highcharts-color-1" tabindex="-1" aria-label="x, 1, 1.5. Observations." style="outline:0" transform="translate(54 43)"/><path d="m223 121 4 4-4 4-4-4Z" class="highcharts-point highcharts-color-1" tabindex="-1" aria-label="x, 2, 2.8. Observations." style="outline:0" transform="translate(54 43)"/><path d="m312 81 4 4-4 4-4-4Z" class="highcharts-point highcharts-color-1" tabindex="-1" aria-label="x, 3, 3.5. Observations." style="outline:0" transform="translate(54 43)"/><path d="m402 58 4 4-4 4-4-4Z" class="highcharts-point highcharts-color-1" tabindex="-1" aria-label="x, 4, 3.9. Observations." style="outline:0" transform="translate(54 43)"/><path d="m491 41 4 4-4 4-4-4Z" class="highcharts-point highcharts-color-1" tabindex="-1" aria-label="x, 5, 4.2. Observations." style="outline:0" transform="translate(54 43)"/></g></g><text x="300" text-anchor="middle" class="highcharts-title" data-z-index="4" style="color:#000;font-size:16px;font-weight:700;fill:#000" y="22" aria-hidden="true">Scatter plot with regression line</text><g class="highcharts-legend highcharts-no-tooltip" data-z-index="7" transform="translate(180 358)" aria-hidden="true"><rect fill="#E0E0E8" class="highcharts-legend-box" rx="0" ry="0" width="240" height="27"/><g data-z-index="1"><g class="highcharts-legend-item highcharts-line-series highcharts-color-0 highcharts-series-0" data-z-index="1"><path fill="none" d="M8 15h16" class="highcharts-graph" stroke-width="2" stroke="#f45b5b"/><text x="21" data-z-index="2" y="16" style="color:#333;cursor:pointer;font-size:13px;font-weight:700;fill:#333" transform="translate(8 3)">Regression Line</text></g><g class="highcharts-legend-item highcharts-scatter-series highcharts-color-1 highcharts-series-1" data-z-index="1"><path fill="none" d="M137.96 15h16" class="highcharts-graph"/><path fill="#8085e9" d="m145.96 11 4 4-4 4-4-4Z" class="highcharts-point"/><text x="21" y="16" data-z-index="2" style="color:#333;cursor:pointer;font-size:13px;font-weight:700;fill:#333" transform="translate(137.96 3)">Observations</text></g></g></g><g class="highcharts-axis-labels highcharts-xaxis-labels" data-z-index="7" aria-hidden="true" text-anchor="middle"><text x="98.667" style="color:#6e6e70;cursor:default;font-size:11px;fill:#6e6e70" y="345">0</text><text x="188" style="color:#6e6e70;cursor:default;font-size:11px;fill:#6e6e70" y="345">1</text><text x="277.333" style="color:#6e6e70;cursor:default;font-size:11px;fill:#6e6e70" y="345">2</text><text x="366.667" style="color:#6e6e70;cursor:default;font-size:11px;fill:#6e6e70" y="345">3</text><text x="456" style="color:#6e6e70;cursor:default;font-size:11px;fill:#6e6e70" y="345">4</text><text x="545.333" style="color:#6e6e70;cursor:default;font-size:11px;fill:#6e6e70" y="345">5</text></g><g class="highcharts-axis-labels highcharts-yaxis-labels" data-z-index="7" aria-hidden="true" text-anchor="end"><text x="39" style="color:#6e6e70;cursor:default;font-size:11px;fill:#6e6e70" y="331">0</text><text x="39" style="color:#6e6e70;cursor:default;font-size:11px;fill:#6e6e70" y="274">1</text><text x="39" style="color:#6e6e70;cursor:default;font-size:11px;fill:#6e6e70" y="218">2</text><text x="39" style="color:#6e6e70;cursor:default;font-size:11px;fill:#6e6e70" y="161">3</text><text x="39" style="color:#6e6e70;cursor:default;font-size:11px;fill:#6e6e70" y="104">4</text><text x="39" style="color:#6e6e70;cursor:default;font-size:11px;fill:#6e6e70" y="48">5</text></g></svg>