<svg class="highcharts-root" style="font-family:Signika,serif;font-size:12px" xmlns="http://www.w3.org/2000/svg" width="600" height="500" aria-label="Interactive chart" aria-hidden="false"><defs aria-hidden="true"><path fill="none" d="M290 1.05a219.95 219.95 0 0 1 49.034 5.535" id="b"/><path fill="none" d="M348.278 8.911A219.95 219.95 0 0 1 422.8 45.666" id="c"/><path fill="none" d="M427.868 49.622a219.95 219.95 0 0 1 63.459 82.803" id="d"/><path fill="none" d="M494.975 141.23a219.95 219.95 0 0 1 14.344 63.126" id="e"/><path fill="none" d="M486.932 318.957a219.95 219.95 0 0 0 22.977-102.2" id="f"/><path fill="none" d="M461.952 358.151a219.95 219.95 0 0 0 20.764-31.138" id="g"/><path fill="none" d="M376.368 423.284a219.95 219.95 0 0 0 38.21-21.016" id="h"/><path fill="none" d="M298.043 440.803a219.95 219.95 0 0 0 69.89-14.123" id="i"/><path fill="none" d="M207.022 424.697a219.95 219.95 0 0 0 81.93 16.25" id="j"/><path fill="none" d="M120.362 361.003a219.95 219.95 0 0 0 78.312 60.09" id="k"/><path fill="none" d="M71.778 248.517a219.95 219.95 0 0 0 42.943 105.356" id="l"/><path fill="none" d="M70.573 236.16a219.95 219.95 0 0 1 5.09-64.534" id="m"/><path fill="none" d="M78.004 162.385a219.95 219.95 0 0 1 73.515-112.268" id="n"/><path fill="none" d="M161.56 42.447a219.95 219.95 0 0 1 23.46-14.728" id="o"/><path fill="none" d="M193.494 23.352a219.95 219.95 0 0 1 83.308-21.906" id="p"/><clipPath id="a"><path fill="none" d="M0 0h580v442H0z"/></clipPath></defs><rect fill="none" class="highcharts-background" width="600" height="500" rx="0" ry="0" aria-hidden="true"/><path fill="none" class="highcharts-plot-background" aria-hidden="true" d="M10 43h580v442H10z"/><path fill="none" class="highcharts-plot-border" data-z-index="1" aria-hidden="true" d="M10 43h580v442H10z"/><g class="highcharts-series-group" data-z-index="3" aria-hidden="false"><g class="highcharts-series highcharts-series-0 highcharts-dependencywheel-series highcharts-tracker" data-z-index=".1" clip-path="url(#a)" aria-hidden="false" transform="translate(10 43)"><path fill="rgba(244,91,91,0.5)" d="M309.112 31.009a189.95 189.95 0 0 1 23.599 3.879c-1.091 4.754 6.59 6.69 7.883 1.987a189.95 189.95 0 0 1 22.618 7.768c-12.88 31.027-57.462 19.792-54.1-13.634" class="highcharts-link highcharts-point highcharts-color-0" tabindex="-1" aria-label="1. From Brazil to Portugal: 5. Dependency wheel series." style="outline:0"/><path fill="rgba(244,91,91,0.5)" d="M304.345 30.59a189.95 189.95 0 0 1 4.767.419c-6.619 65.798 59.127 92.735 100.578 41.209a189.95 189.95 0 0 1 3.691 3.046c-46.44 54.855-114.436 26.996-109.036-44.674" class="highcharts-link highcharts-point highcharts-color-1" tabindex="-1" aria-label="2. From Brazil to France: 1. Dependency wheel series." style="outline:0"/><path fill="rgba(244,91,91,0.5)" d="M299.568 30.29a189.95 189.95 0 0 1 4.777.3C295.738 144.836 361.18 193.3 467.95 151.748a189.95 189.95 0 0 1 1.68 4.482c-107.778 38.862-175.803-11.514-170.062-125.94" class="highcharts-link highcharts-point highcharts-color-2" tabindex="-1" aria-label="3. From Brazil to Spain: 1. Dependency wheel series." style="outline:0"/><path fill="rgba(244,91,91,0.5)" d="M294.786 30.11a189.95 189.95 0 0 1 4.782.18c-5.74 114.426 66.8 189.313 181.35 187.218a189.95 189.95 0 0 1 .028 4.786c-114.568-.776-189.032-77.65-186.16-192.184" class="highcharts-link highcharts-point highcharts-color-3" tabindex="-1" aria-label="4. From Brazil to England: 1. Dependency wheel series." style="outline:0"/><path fill="rgba(255,0,102,0.5)" d="M442.218 336.29a189.95 189.95 0 0 1-2.937 3.778c-89.569-71.44-104.96-181.273-38.477-274.582a189.95 189.95 0 0 1 3.862 2.826c-68.8 91.613-53.779 198.804 37.552 267.977" class="highcharts-link highcharts-point highcharts-color-4" tabindex="-1" aria-label="5. From Canada to Portugal: 1. Dependency wheel series." style="outline:0"/><path fill="rgba(255,0,102,0.5)" d="M454.851 317.364a189.95 189.95 0 0 1-13.338 19.85c-90.908-69.728-86.097-155.643 12.027-214.786a189.95 189.95 0 0 1 11.039 21.215c-99.1 43.912-103.306 119.02-9.728 173.721" class="highcharts-link highcharts-point highcharts-color-5" tabindex="-1" aria-label="6. From Canada to France: 5. Dependency wheel series." style="outline:0"/><path fill="rgba(255,0,102,0.5)" d="M457.214 313.202a189.95 189.95 0 0 1-2.363 4.162c-9.506-5.557-1.509-20.882 8.486-16.263a189.95 189.95 0 0 1-2.062 4.319c-4.725-2.33-8.673 5.239-4.06 7.782" class="highcharts-link highcharts-point highcharts-color-6" tabindex="-1" aria-label="7. From Canada to England: 1. Dependency wheel series." style="outline:0"/><path fill="rgba(238,170,238,0.5)" d="M410.46 369.16a189.95 189.95 0 0 1-3.75 2.972c-70.026-90.68-73.961-214.429-9.839-309.374a189.95 189.95 0 0 1 3.933 2.728c-66.483 93.309-62.62 214.778 9.656 303.673" class="highcharts-link highcharts-point highcharts-color-7" tabindex="-1" aria-label="8. From Mexico to Portugal: 1. Dependency wheel series." style="outline:0"/><path fill="rgba(238,170,238,0.5)" d="M413.71 366.457a189.95 189.95 0 0 1-3.684 3.054c-72.016-89.106-55.619-189.567 40.992-251.15a189.95 189.95 0 0 1 2.522 4.067c-98.124 59.143-114.056 156.755-39.83 244.029" class="highcharts-link highcharts-point highcharts-color-8" tabindex="-1" aria-label="9. From Mexico to France: 1. Dependency wheel series." style="outline:0"/><path fill="rgba(238,170,238,0.5)" d="M430.922 349.852a189.95 189.95 0 0 1-17.212 16.605c-74.226-87.274-48.854-160.636 63.431-183.405a189.95 189.95 0 0 1 3.276 23.69c-93.163 6.975-118.443 80.068-49.495 143.11" class="highcharts-link highcharts-point highcharts-color-9" tabindex="-1" aria-label="10. From Mexico to Spain: 5. Dependency wheel series." style="outline:0"/><path fill="rgba(238,170,238,0.5)" d="M434.107 346.28a189.95 189.95 0 0 1-3.185 3.572c-28.146-25.735-.642-68.246 34.368-53.12a189.95 189.95 0 0 1-1.953 4.369c-29.406-13.59-53.678 23.926-29.23 45.18" class="highcharts-link highcharts-point highcharts-color-10" tabindex="-1" aria-label="11. From Mexico to England: 1. Dependency wheel series." style="outline:0"/><path fill="rgba(85,191,59,0.5)" d="M369.358 394.678a189.95 189.95 0 0 1-4.378 1.935c-44.988-105.368-33.83-239.961 27.892-336.483a189.95 189.95 0 0 1 4 2.628c-64.123 94.945-75.129 227.713-27.514 331.92" class="highcharts-link highcharts-point highcharts-color-0" tabindex="-1" aria-label="12. From USA to Portugal: 1. Dependency wheel series." style="outline:0"/><path fill="rgba(85,191,59,0.5)" d="M373.183 392.88a189.95 189.95 0 0 1-4.334 2.03c-47.31-104.346-15.49-216.567 79.547-280.553a189.95 189.95 0 0 1 2.622 4.003c-96.61 61.584-127.745 171.392-77.835 274.52" class="highcharts-link highcharts-point highcharts-color-1" tabindex="-1" aria-label="13. From USA to France: 1. Dependency wheel series." style="outline:0"/><path fill="rgba(85,191,59,0.5)" d="M377.465 390.74a189.95 189.95 0 0 1-4.282 2.14c-49.91-103.128-8.656-188.604 103.134-213.69a189.95 189.95 0 0 1 .989 4.683c-112.384 22.276-152.32 105.023-99.841 206.867" class="highcharts-link highcharts-point highcharts-color-2" tabindex="-1" aria-label="14. From USA to Spain: 1. Dependency wheel series." style="outline:0"/><path fill="rgba(85,191,59,0.5)" d="M397.996 378.476a189.95 189.95 0 0 1-20.531 12.264c-42.64-82.749 6.517-142.462 95.917-116.513a189.95 189.95 0 0 1-8.092 22.504c-59.093-25.53-103.701 28.658-67.294 81.745" class="highcharts-link highcharts-point highcharts-color-3" tabindex="-1" aria-label="15. From USA to England: 5. Dependency wheel series." style="outline:0"/><path fill="rgba(128,133,233,0.5)" d="M384.682 55.177a189.95 189.95 0 0 1 8.19 4.953c-61.723 96.522-79.494 233.584-44.428 342.656a189.95 189.95 0 0 1-9.182 2.7c-29.557-110.691-11.39-250.815 45.42-350.309" class="highcharts-link highcharts-point highcharts-color-4" tabindex="-1" aria-label="16. From Portugal to Angola: 2. Dependency wheel series." style="outline:0"/><path fill="rgba(128,133,233,0.5)" d="M380.496 52.856a189.95 189.95 0 0 1 4.186 2.321c-56.81 99.494-104.666 241.548-119.642 355.135a189.95 189.95 0 0 1-4.736-.685c17.817-113.176 65.894-255.885 120.192-356.77" class="highcharts-link highcharts-point highcharts-color-5" tabindex="-1" aria-label="17. From Portugal to Senegal: 1. Dependency wheel series." style="outline:0"/><path fill="rgba(128,133,233,0.5)" d="M376.254 50.64a189.95 189.95 0 0 1 4.242 2.216C326.198 153.742 245.02 282.731 177.55 375.327a189.95 189.95 0 0 1-3.832-2.866C243.487 281.584 324.5 152.856 376.254 50.64" class="highcharts-link highcharts-point highcharts-color-6" tabindex="-1" aria-label="18. From Portugal to Morocco: 1. Dependency wheel series." style="outline:0"/><path fill="rgba(128,133,233,0.5)" d="M363.212 44.643a189.95 189.95 0 0 1 13.042 5.998C324.5 152.856 220.322 252.288 115.806 299.22a189.95 189.95 0 0 1-5.384-13.308c107.747-38.948 208.863-135.456 252.79-241.27" class="highcharts-link highcharts-point highcharts-color-7" tabindex="-1" aria-label="19. From Portugal to South Africa: 3. Dependency wheel series." style="outline:0"/><path fill="rgba(141,70,84,0.5)" d="M445.673 110.42a189.95 189.95 0 0 1 2.723 3.937c-95.038 63.986-133.203 178.749-95.414 286.907a189.95 189.95 0 0 1-4.538 1.522c-35.066-109.072 3.825-226.018 97.23-292.365" class="highcharts-link highcharts-point highcharts-color-8" tabindex="-1" aria-label="20. From France to Angola: 1. Dependency wheel series." style="outline:0"/><path fill="rgba(141,70,84,0.5)" d="M436.926 99.038a189.95 189.95 0 0 1 8.747 11.383c-93.404 66.347-159.94 186.84-166.34 301.23a189.95 189.95 0 0 1-14.293-1.34c14.976-113.586 83.73-238.096 171.886-311.273" class="highcharts-link highcharts-point highcharts-color-9" tabindex="-1" aria-label="21. From France to Senegal: 3. Dependency wheel series." style="outline:0"/><path fill="rgba(141,70,84,0.5)" d="M413.381 75.264a189.95 189.95 0 0 1 10.6 9.68c-80.389 81.634-210.18 141.32-324.477 149.217a189.95 189.95 0 0 1-.45-14.348c114.567.712 240.299-57.107 314.327-144.549" class="highcharts-link highcharts-point highcharts-color-10" tabindex="-1" aria-label="22. From France to Mali: 3. Dependency wheel series." style="outline:0"/><path fill="rgba(141,70,84,0.5)" d="M427.349 88.345a189.95 189.95 0 0 1 9.577 10.693c-88.156 73.177-187.141 186.898-247.465 284.3a189.95 189.95 0 0 1-11.911-8.01c67.47-92.597 167.39-207.39 249.799-286.983" class="highcharts-link highcharts-point highcharts-color-0" tabindex="-1" aria-label="23. From France to Morocco: 3. Dependency wheel series." style="outline:0"/><path fill="rgba(141,70,84,0.5)" d="M423.981 84.945a189.95 189.95 0 0 1 3.368 3.4c-82.41 79.593-206.22 165.68-309.528 215.217a189.95 189.95 0 0 1-2.015-4.342c104.516-46.932 227.786-132.642 308.175-214.275" class="highcharts-link highcharts-point highcharts-color-1" tabindex="-1" aria-label="24. From France to South Africa: 1. Dependency wheel series." style="outline:0"/><path fill="rgba(119,152,191,0.5)" d="M475.21 174.534a189.95 189.95 0 0 1 1.107 4.657c-111.79 25.085-188.671 118.153-192.203 232.668a189.95 189.95 0 0 1-4.781-.207c6.4-114.391 84.751-209.238 195.877-237.118" class="highcharts-link highcharts-point highcharts-color-2" tabindex="-1" aria-label="25. From Spain to Senegal: 1. Dependency wheel series." style="outline:0"/><path fill="rgba(119,152,191,0.5)" d="M471.196 160.752a189.95 189.95 0 0 1 4.014 13.782c-111.126 27.88-220.434 114.24-273.27 215.899a189.95 189.95 0 0 1-12.479-7.094C249.785 285.936 362.48 196.9 471.196 160.752" class="highcharts-link highcharts-point highcharts-color-3" tabindex="-1" aria-label="26. From Spain to Morocco: 3. Dependency wheel series." style="outline:0"/><path fill="rgba(119,152,191,0.5)" d="M469.63 156.23a189.95 189.95 0 0 1 1.566 4.522C362.48 196.901 221.978 255.74 119.945 307.851a189.95 189.95 0 0 1-2.124-4.29c103.308-49.536 244.03-108.47 351.808-147.331" class="highcharts-link highcharts-point highcharts-color-4" tabindex="-1" aria-label="27. From Spain to South Africa: 1. Dependency wheel series." style="outline:0"/><path fill="rgba(170,238,238,0.5)" d="M474.658 269.614a189.95 189.95 0 0 1-1.276 4.613c-102.01-29.609-153.44 26.036-115.902 125.402a189.95 189.95 0 0 1-4.498 1.635c-36.93-105.697 13.402-160.155 121.676-131.65" class="highcharts-link highcharts-point highcharts-color-5" tabindex="-1" aria-label="28. From England to Angola: 1. Dependency wheel series." style="outline:0"/><path fill="rgba(170,238,238,0.5)" d="M475.818 264.97a189.95 189.95 0 0 1-1.16 4.644C363.863 240.446 289.56 297.38 288.899 411.947a189.95 189.95 0 0 1-4.785-.088c3.532-114.515 80.213-173.27 191.704-146.888" class="highcharts-link highcharts-point highcharts-color-6" tabindex="-1" aria-label="29. From England to Senegal: 1. Dependency wheel series." style="outline:0"/><path fill="rgba(170,238,238,0.5)" d="M477.788 255.605a189.95 189.95 0 0 1-1.97 9.366c-111.49-26.383-217.601 25.482-265.276 129.662a189.95 189.95 0 0 1-8.601-4.2c52.835-101.66 163.174-155.591 275.847-134.828" class="highcharts-link highcharts-point highcharts-color-7" tabindex="-1" aria-label="30. From England to Morocco: 2. Dependency wheel series." style="outline:0"/><path fill="rgba(170,238,238,0.5)" d="M480.946 222.294a189.95 189.95 0 0 1-3.158 33.31c-112.673-20.762-248.702 11.477-340.072 80.597a189.95 189.95 0 0 1-17.771-28.35c102.033-52.11 246.433-86.333 361-85.557" class="highcharts-link highcharts-point highcharts-color-8" tabindex="-1" aria-label="31. From England to South Africa: 7. Dependency wheel series." style="outline:0"/><path fill="rgba(244,91,91,0.5)" d="M105.022 268.382a189.95 189.95 0 0 1-4.472-23.493c59.166-7.46 68.25-74.43 13.21-97.381a189.95 189.95 0 0 1 10.568-21.453c76.655 43.93 66.282 120.404-19.306 142.327" class="highcharts-link highcharts-point highcharts-color-9" tabindex="-1" aria-label="32. From South Africa to China: 5. Dependency wheel series." style="outline:0"/><path fill="rgba(244,91,91,0.5)" d="M106.053 272.24a189.95 189.95 0 0 1-1.226-4.627c111.104-27.968 142.139-109.716 77.587-204.37a189.95 189.95 0 0 1 3.988-2.647c62.159 96.243 30.02 180.9-80.349 211.643" class="highcharts-link highcharts-point highcharts-color-10" tabindex="-1" aria-label="33. From South Africa to India: 1. Dependency wheel series." style="outline:0"/><path fill="rgba(244,91,91,0.5)" d="M110.422 285.913a189.95 189.95 0 0 1-4.369-13.674c110.368-30.743 155.685-122.198 113.292-228.636a189.95 189.95 0 0 1 13.526-4.807c34.278 109.322-14.702 208.17-122.449 247.117" class="highcharts-link highcharts-point highcharts-color-0" tabindex="-1" aria-label="34. From South Africa to Japan: 3. Dependency wheel series." style="outline:0"/><path fill="rgba(223,83,83,0.5)" d="M320.78 409.453a189.95 189.95 0 0 1-23.797 2.37c-4.19-114.494-62.06-243.743-144.674-323.122a189.95 189.95 0 0 1 17.617-16.173C241.97 161.61 302.312 296.38 320.78 409.453" class="highcharts-link highcharts-point highcharts-color-1" tabindex="-1" aria-label="35. From Angola to China: 5. Dependency wheel series." style="outline:0"/><path fill="rgba(223,83,83,0.5)" d="M325.263 408.666a189.95 189.95 0 0 1-4.714.825c-18.33-113.095-68.721-254.648-125.98-353.884a189.95 189.95 0 0 1 4.176-2.34c54.753 100.64 105.36 242.8 126.518 355.399" class="highcharts-link highcharts-point highcharts-color-2" tabindex="-1" aria-label="36. From Angola to India: 1. Dependency wheel series." style="outline:0"/><path fill="rgba(223,83,83,0.5)" d="M339.262 405.486a189.95 189.95 0 0 1-13.999 3.18c-21.158-112.6-46.937-263.149-64.449-376.372a189.95 189.95 0 0 1 14.26-1.66c8.955 114.22 34.63 264.16 64.188 374.852" class="highcharts-link highcharts-point highcharts-color-3" tabindex="-1" aria-label="37. From Angola to Japan: 3. Dependency wheel series." style="outline:0"/><path fill="rgba(119,152,191,0.5)" d="M241.573 405.707a189.95 189.95 0 0 1-22.708-7.502c42.681-106.323 10.133-223.169-81.37-292.114a189.95 189.95 0 0 1 15.56-18.161c82.167 79.842 117.574 206.953 88.518 317.777" class="highcharts-link highcharts-point highcharts-color-4" tabindex="-1" aria-label="38. From Senegal to China: 5. Dependency wheel series." style="outline:0"/><path fill="rgba(119,152,191,0.5)" d="M246.217 406.863a189.95 189.95 0 0 1-4.644-1.156c29.056-110.824 8.609-249.887-51.118-347.657a189.95 189.95 0 0 1 4.115-2.443c57.258 99.236 77.917 239.738 51.647 351.256" class="highcharts-link highcharts-point highcharts-color-5" tabindex="-1" aria-label="39. From Senegal to India: 1. Dependency wheel series." style="outline:0"/><path fill="rgba(119,152,191,0.5)" d="M260.304 409.627a189.95 189.95 0 0 1-14.087-2.764c26.27-111.518 26.471-260.255.504-371.844a189.95 189.95 0 0 1 14.093-2.725c17.512 113.223 17.307 264.157-.51 377.333" class="highcharts-link highcharts-point highcharts-color-6" tabindex="-1" aria-label="40. From Senegal to Japan: 3. Dependency wheel series." style="outline:0"/><path fill="rgba(128,133,233,0.5)" d="M100.044 201.54a189.95 189.95 0 0 1 3.922-23.59c4.726 1.093 6.665-6.544 1.99-7.837a189.95 189.95 0 0 1 7.803-22.605c30.982 12.92 19.678 57.453-13.715 54.033" class="highcharts-link highcharts-point highcharts-color-7" tabindex="-1" aria-label="41. From Mali to China: 5. Dependency wheel series." style="outline:0"/><path fill="rgba(128,133,233,0.5)" d="M99.682 205.472a189.95 189.95 0 0 1 .45-4.765c95.777 10.237 134.61-56.524 78.363-134.718a189.95 189.95 0 0 1 3.92-2.746c57.506 84.324 18.996 150.529-82.733 142.229" class="highcharts-link highcharts-point highcharts-color-8" tabindex="-1" aria-label="42. From Mali to India: 1. Dependency wheel series." style="outline:0"/><path fill="rgba(128,133,233,0.5)" d="M99.054 219.813a189.95 189.95 0 0 1 .628-14.341c114.191 9.317 156.805-53.107 106.536-156.06a189.95 189.95 0 0 1 13.127-5.81c42.393 106.44-5.724 176.923-120.291 176.211" class="highcharts-link highcharts-point highcharts-color-9" tabindex="-1" aria-label="43. From Mali to Japan: 3. Dependency wheel series." style="outline:0"/><path fill="rgba(170,238,238,0.5)" d="M159.142 360.061a189.95 189.95 0 0 1-16.356-17.447c88.328-72.969 80.945-159.592-18.458-216.56a189.95 189.95 0 0 1 13.167-19.963c91.503 68.945 100.162 170.533 21.647 253.97" class="highcharts-link highcharts-point highcharts-color-10" tabindex="-1" aria-label="44. From Morocco to China: 5. Dependency wheel series." style="outline:0"/><path fill="rgba(170,238,238,0.5)" d="M162.668 363.297a189.95 189.95 0 0 1-3.526-3.236c78.515-83.437 89.419-203.222 27.26-299.465a189.95 189.95 0 0 1 4.053-2.546c59.727 97.77 48.612 219.869-27.787 305.247" class="highcharts-link highcharts-point highcharts-color-0" tabindex="-1" aria-label="45. From Morocco to India: 1. Dependency wheel series." style="outline:0"/><path fill="rgba(170,238,238,0.5)" d="M173.718 372.46a189.95 189.95 0 0 1-11.05-9.163c76.4-85.378 104.48-215.179 70.203-324.5a189.95 189.95 0 0 1 13.85-3.778c25.967 111.589-3.234 246.565-73.003 337.442" class="highcharts-link highcharts-point highcharts-color-1" tabindex="-1" aria-label="46. From Morocco to Japan: 3. Dependency wheel series." style="outline:0"/><path fill="rgba(170,238,238,0.5)" d="M273.96 30.725a189.95 189.95 0 0 1 4.773-.342c.4 6.752 11.267 6.431 11.267-.333a189.95 189.95 0 0 1 4.786.06c-.314 12.503-19.776 13.078-20.827.615" class="highcharts-link highcharts-point highcharts-color-2" tabindex="-1" aria-label="47. From Japan to Brazil: 1. Dependency wheel series." style="outline:0"/><path fill="none" d="M291 12.05a209.95 209.95 0 0 1 46.804 5.284l-4.458 19.496A189.95 189.95 0 0 0 291 32.05Z" stroke="#000" stroke-width="5" stroke-opacity=".05" class="highcharts-shadow"/><path fill="none" d="M291 12.05a209.95 209.95 0 0 1 46.804 5.284l-4.458 19.496A189.95 189.95 0 0 0 291 32.05Z" stroke="#000" stroke-width="3" stroke-opacity=".1" class="highcharts-shadow"/><path fill="none" d="M291 12.05a209.95 209.95 0 0 1 46.804 5.284l-4.458 19.496A189.95 189.95 0 0 0 291 32.05Z" stroke="#000" stroke-opacity=".15" class="highcharts-shadow"/><path fill="#f45b5b" d="M290 11.05a209.95 209.95 0 0 1 46.804 5.284l-4.458 19.496A189.95 189.95 0 0 0 290 31.05Z" class="highcharts-node highcharts-point highcharts-color-0"/><path fill="none" d="M346.628 19.554a209.95 209.95 0 0 1 71.135 35.084L405.687 70.58a189.95 189.95 0 0 0-64.358-31.742Z" stroke="#000" stroke-width="5" stroke-opacity=".05" class="highcharts-shadow"/><path fill="none" d="M346.628 19.554a209.95 209.95 0 0 1 71.135 35.084L405.687 70.58a189.95 189.95 0 0 0-64.358-31.742Z" stroke="#000" stroke-width="3" stroke-opacity=".1" class="highcharts-shadow"/><path fill="none" d="M346.628 19.554a209.95 209.95 0 0 1 71.135 35.084L405.687 70.58a189.95 189.95 0 0 0-64.358-31.742Z" stroke="#000" stroke-opacity=".15" class="highcharts-shadow"/><path fill="#8085e9" d="M345.628 18.554a209.95 209.95 0 0 1 71.135 35.084L404.687 69.58a189.95 189.95 0 0 0-64.358-31.742Z" class="highcharts-node highcharts-point highcharts-color-1"/><path fill="none" d="M422.6 58.414a209.95 209.95 0 0 1 60.573 79.038l-18.306 8.054a189.95 189.95 0 0 0-54.804-71.51Z" stroke="#000" stroke-width="5" stroke-opacity=".05" class="highcharts-shadow"/><path fill="none" d="M422.6 58.414a209.95 209.95 0 0 1 60.573 79.038l-18.306 8.054a189.95 189.95 0 0 0-54.804-71.51Z" stroke="#000" stroke-width="3" stroke-opacity=".1" class="highcharts-shadow"/><path fill="none" d="M422.6 58.414a209.95 209.95 0 0 1 60.573 79.038l-18.306 8.054a189.95 189.95 0 0 0-54.804-71.51Z" stroke="#000" stroke-opacity=".15" class="highcharts-shadow"/><path fill="#8d4654" d="M421.6 57.414a209.95 209.95 0 0 1 60.573 79.038l-18.306 8.054a189.95 189.95 0 0 0-54.804-71.51Z" class="highcharts-node highcharts-point highcharts-color-2"/><path fill="none" d="M486.656 145.858a209.95 209.95 0 0 1 13.692 60.255l-19.943 1.513a189.95 189.95 0 0 0-12.387-54.515Z" stroke="#000" stroke-width="5" stroke-opacity=".05" class="highcharts-shadow"/><path fill="none" d="M486.656 145.858a209.95 209.95 0 0 1 13.692 60.255l-19.943 1.513a189.95 189.95 0 0 0-12.387-54.515Z" stroke="#000" stroke-width="3" stroke-opacity=".1" class="highcharts-shadow"/><path fill="none" d="M486.656 145.858a209.95 209.95 0 0 1 13.692 60.255l-19.943 1.513a189.95 189.95 0 0 0-12.387-54.515Z" stroke="#000" stroke-opacity=".15" class="highcharts-shadow"/><path fill="#7798BF" d="M485.656 144.858a209.95 209.95 0 0 1 13.692 60.255l-19.943 1.513a189.95 189.95 0 0 0-12.387-54.515Z" class="highcharts-node highcharts-point highcharts-color-3"/><path fill="none" d="M500.915 218.16a209.95 209.95 0 0 1-21.843 97.156l-17.916-8.89a189.95 189.95 0 0 0 19.762-87.9Z" stroke="#000" stroke-width="5" stroke-opacity=".05" class="highcharts-shadow"/><path fill="none" d="M500.915 218.16a209.95 209.95 0 0 1-21.843 97.156l-17.916-8.89a189.95 189.95 0 0 0 19.762-87.9Z" stroke="#000" stroke-width="3" stroke-opacity=".1" class="highcharts-shadow"/><path fill="none" d="M500.915 218.16a209.95 209.95 0 0 1-21.843 97.156l-17.916-8.89a189.95 189.95 0 0 0 19.762-87.9Z" stroke="#000" stroke-opacity=".15" class="highcharts-shadow"/><path fill="#aee" d="M499.915 217.16a209.95 209.95 0 0 1-21.843 97.156l-17.916-8.89a189.95 189.95 0 0 0 19.762-87.9Z" class="highcharts-node highcharts-point highcharts-color-4"/><path fill="none" d="M474.853 323.377a209.95 209.95 0 0 1-19.588 29.374l-15.648-12.455a189.95 189.95 0 0 0 17.722-26.577Z" stroke="#000" stroke-width="5" stroke-opacity=".05" class="highcharts-shadow"/><path fill="none" d="M474.853 323.377a209.95 209.95 0 0 1-19.588 29.374l-15.648-12.455a189.95 189.95 0 0 0 17.722-26.577Z" stroke="#000" stroke-width="3" stroke-opacity=".1" class="highcharts-shadow"/><path fill="none" d="M474.853 323.377a209.95 209.95 0 0 1-19.588 29.374l-15.648-12.455a189.95 189.95 0 0 0 17.722-26.577Z" stroke="#000" stroke-opacity=".15" class="highcharts-shadow"/><path fill="#f06" d="M473.853 322.377a209.95 209.95 0 0 1-19.588 29.374l-15.648-12.455a189.95 189.95 0 0 0 17.722-26.577Z" class="highcharts-node highcharts-point highcharts-color-5"/><path fill="none" d="M449.446 359.746a209.95 209.95 0 0 1-29.958 28.296l-12.24-15.818a189.95 189.95 0 0 0 27.104-25.6Z" stroke="#000" stroke-width="5" stroke-opacity=".05" class="highcharts-shadow"/><path fill="none" d="M449.446 359.746a209.95 209.95 0 0 1-29.958 28.296l-12.24-15.818a189.95 189.95 0 0 0 27.104-25.6Z" stroke="#000" stroke-width="3" stroke-opacity=".1" class="highcharts-shadow"/><path fill="none" d="M449.446 359.746a209.95 209.95 0 0 1-29.958 28.296l-12.24-15.818a189.95 189.95 0 0 0 27.104-25.6Z" stroke="#000" stroke-opacity=".15" class="highcharts-shadow"/><path fill="#eae" d="M448.446 358.746a209.95 209.95 0 0 1-29.958 28.296l-12.24-15.818a189.95 189.95 0 0 0 27.104-25.6Z" class="highcharts-node highcharts-point highcharts-color-6"/><path fill="none" d="M409.742 395.146a209.95 209.95 0 0 1-36.108 19.858l-7.872-18.386a189.95 189.95 0 0 0 32.668-17.966Z" stroke="#000" stroke-width="5" stroke-opacity=".05" class="highcharts-shadow"/><path fill="none" d="M409.742 395.146a209.95 209.95 0 0 1-36.108 19.858l-7.872-18.386a189.95 189.95 0 0 0 32.668-17.966Z" stroke="#000" stroke-width="3" stroke-opacity=".1" class="highcharts-shadow"/><path fill="none" d="M409.742 395.146a209.95 209.95 0 0 1-36.108 19.858l-7.872-18.386a189.95 189.95 0 0 0 32.668-17.966Z" stroke="#000" stroke-opacity=".15" class="highcharts-shadow"/><path fill="#55BF3B" d="M408.742 394.146a209.95 209.95 0 0 1-36.108 19.858l-7.872-18.386a189.95 189.95 0 0 0 32.668-17.966Z" class="highcharts-node highcharts-point highcharts-color-7"/><path fill="none" d="M365.194 418.403a209.95 209.95 0 0 1-66.307 13.399l-.751-19.986a189.95 189.95 0 0 0 59.99-12.122Z" stroke="#000" stroke-width="5" stroke-opacity=".05" class="highcharts-shadow"/><path fill="none" d="M365.194 418.403a209.95 209.95 0 0 1-66.307 13.399l-.751-19.986a189.95 189.95 0 0 0 59.99-12.122Z" stroke="#000" stroke-width="3" stroke-opacity=".1" class="highcharts-shadow"/><path fill="none" d="M365.194 418.403a209.95 209.95 0 0 1-66.307 13.399l-.751-19.986a189.95 189.95 0 0 0 59.99-12.122Z" stroke="#000" stroke-opacity=".15" class="highcharts-shadow"/><path fill="#DF5353" d="M364.194 417.403a209.95 209.95 0 0 1-66.307 13.399l-.751-19.986a189.95 189.95 0 0 0 59.99-12.122Z" class="highcharts-node highcharts-point highcharts-color-8"/><path fill="none" d="M289.79 431.947a209.95 209.95 0 0 1-77.801-15.432l7.527-18.53a189.95 189.95 0 0 0 70.389 13.962Z" stroke="#000" stroke-width="5" stroke-opacity=".05" class="highcharts-shadow"/><path fill="none" d="M289.79 431.947a209.95 209.95 0 0 1-77.801-15.432l7.527-18.53a189.95 189.95 0 0 0 70.389 13.962Z" stroke="#000" stroke-width="3" stroke-opacity=".1" class="highcharts-shadow"/><path fill="none" d="M289.79 431.947a209.95 209.95 0 0 1-77.801-15.432l7.527-18.53a189.95 189.95 0 0 0 70.389 13.962Z" stroke="#000" stroke-opacity=".15" class="highcharts-shadow"/><path fill="#7798BF" d="M288.79 430.947a209.95 209.95 0 0 1-77.801-15.432l7.527-18.53a189.95 189.95 0 0 0 70.389 13.962Z" class="highcharts-node highcharts-point highcharts-color-9"/><path fill="none" d="M203.635 412.91a209.95 209.95 0 0 1-74.427-57.11l15.413-12.746a189.95 189.95 0 0 0 67.337 51.67Z" stroke="#000" stroke-width="5" stroke-opacity=".05" class="highcharts-shadow"/><path fill="none" d="M203.635 412.91a209.95 209.95 0 0 1-74.427-57.11l15.413-12.746a189.95 189.95 0 0 0 67.337 51.67Z" stroke="#000" stroke-width="3" stroke-opacity=".1" class="highcharts-shadow"/><path fill="none" d="M203.635 412.91a209.95 209.95 0 0 1-74.427-57.11l15.413-12.746a189.95 189.95 0 0 0 67.337 51.67Z" stroke="#000" stroke-opacity=".15" class="highcharts-shadow"/><path fill="#aee" d="M202.635 411.91a209.95 209.95 0 0 1-74.427-57.11l15.413-12.746a189.95 189.95 0 0 0 67.337 51.67Z" class="highcharts-node highcharts-point highcharts-color-10"/><path fill="none" d="M123.563 348.664a209.95 209.95 0 0 1-40.837-100.19l19.84-2.522a189.95 189.95 0 0 0 36.947 90.646Z" stroke="#000" stroke-width="5" stroke-opacity=".05" class="highcharts-shadow"/><path fill="none" d="M123.563 348.664a209.95 209.95 0 0 1-40.837-100.19l19.84-2.522a189.95 189.95 0 0 0 36.947 90.646Z" stroke="#000" stroke-width="3" stroke-opacity=".1" class="highcharts-shadow"/><path fill="none" d="M123.563 348.664a209.95 209.95 0 0 1-40.837-100.19l19.84-2.522a189.95 189.95 0 0 0 36.947 90.646Z" stroke="#000" stroke-opacity=".15" class="highcharts-shadow"/><path fill="#f45b5b" d="M122.563 347.664a209.95 209.95 0 0 1-40.837-100.19l19.84-2.522a189.95 189.95 0 0 0 36.947 90.646Z" class="highcharts-node highcharts-point highcharts-color-0"/><path fill="none" d="M81.55 236.47a209.95 209.95 0 0 1 4.858-61.6l19.49 4.49a189.95 189.95 0 0 0-4.396 55.732Z" stroke="#000" stroke-width="5" stroke-opacity=".05" class="highcharts-shadow"/><path fill="none" d="M81.55 236.47a209.95 209.95 0 0 1 4.858-61.6l19.49 4.49a189.95 189.95 0 0 0-4.396 55.732Z" stroke="#000" stroke-width="3" stroke-opacity=".1" class="highcharts-shadow"/><path fill="none" d="M81.55 236.47a209.95 209.95 0 0 1 4.858-61.6l19.49 4.49a189.95 189.95 0 0 0-4.396 55.732Z" stroke="#000" stroke-opacity=".15" class="highcharts-shadow"/><path fill="#8085e9" d="M80.55 235.47a209.95 209.95 0 0 1 4.858-61.6l19.49 4.49a189.95 189.95 0 0 0-4.396 55.732Z" class="highcharts-node highcharts-point highcharts-color-1"/><path fill="none" d="M88.642 166.05a209.95 209.95 0 0 1 70.173-107.164l12.592 15.539a189.95 189.95 0 0 0-63.488 96.955Z" stroke="#000" stroke-width="5" stroke-opacity=".05" class="highcharts-shadow"/><path fill="none" d="M88.642 166.05a209.95 209.95 0 0 1 70.173-107.164l12.592 15.539a189.95 189.95 0 0 0-63.488 96.955Z" stroke="#000" stroke-width="3" stroke-opacity=".1" class="highcharts-shadow"/><path fill="none" d="M88.642 166.05a209.95 209.95 0 0 1 70.173-107.164l12.592 15.539a189.95 189.95 0 0 0-63.488 96.955Z" stroke="#000" stroke-opacity=".15" class="highcharts-shadow"/><path fill="#8d4654" d="M87.642 165.05a209.95 209.95 0 0 1 70.173-107.164l12.592 15.539a189.95 189.95 0 0 0-63.488 96.955Z" class="highcharts-node highcharts-point highcharts-color-2"/><path fill="none" d="M168.4 51.565a209.95 209.95 0 0 1 22.394-14.058l9.545 17.575A189.95 189.95 0 0 0 180.08 67.8Z" stroke="#000" stroke-width="5" stroke-opacity=".05" class="highcharts-shadow"/><path fill="none" d="M168.4 51.565a209.95 209.95 0 0 1 22.394-14.058l9.545 17.575A189.95 189.95 0 0 0 180.08 67.8Z" stroke="#000" stroke-width="3" stroke-opacity=".1" class="highcharts-shadow"/><path fill="none" d="M168.4 51.565a209.95 209.95 0 0 1 22.394-14.058l9.545 17.575A189.95 189.95 0 0 0 180.08 67.8Z" stroke="#000" stroke-opacity=".15" class="highcharts-shadow"/><path fill="#7798BF" d="M167.4 50.565a209.95 209.95 0 0 1 22.394-14.058l9.545 17.575A189.95 189.95 0 0 0 179.08 66.8Z" class="highcharts-node highcharts-point highcharts-color-3"/><path fill="none" d="M198.881 33.338a209.95 209.95 0 0 1 79.521-20.91l1.2 19.964a189.95 189.95 0 0 0-71.945 18.919Z" stroke="#000" stroke-width="5" stroke-opacity=".05" class="highcharts-shadow"/><path fill="none" d="M198.881 33.338a209.95 209.95 0 0 1 79.521-20.91l1.2 19.964a189.95 189.95 0 0 0-71.945 18.919Z" stroke="#000" stroke-width="3" stroke-opacity=".1" class="highcharts-shadow"/><path fill="none" d="M198.881 33.338a209.95 209.95 0 0 1 79.521-20.91l1.2 19.964a189.95 189.95 0 0 0-71.945 18.919Z" stroke="#000" stroke-opacity=".15" class="highcharts-shadow"/><path fill="#aee" d="M197.881 32.338a209.95 209.95 0 0 1 79.521-20.91l1.2 19.964a189.95 189.95 0 0 0-71.945 18.919Z" class="highcharts-node highcharts-point highcharts-color-4"/></g></g><text x="300" text-anchor="middle" class="highcharts-title" data-z-index="4" style="color:#000;font-size:16px;font-weight:700;fill:#000" y="22" aria-hidden="true">Highcharts Dependency Wheel</text><g class="highcharts-data-labels highcharts-series-0 highcharts-dependencywheel-series highcharts-tracker" data-z-index="6" aria-hidden="true"><text data-z-index="1" dy="5" style="color:#333;font-size:11px;font-weight:700;fill:#333" class="highcharts-label highcharts-data-label highcharts-data-label-color-0" transform="translate(10 43)"><textPath startOffset="50%" text-anchor="middle" href="#b">Brazil</textPath></text><text data-z-index="1" dy="5" style="color:#333;font-size:11px;font-weight:700;fill:#333" class="highcharts-label highcharts-data-label highcharts-data-label-color-1" transform="translate(10 43)"><textPath startOffset="50%" text-anchor="middle" href="#c">Portugal</textPath></text><text data-z-index="1" dy="5" style="color:#333;font-size:11px;font-weight:700;fill:#333" class="highcharts-label highcharts-data-label highcharts-data-label-color-2" transform="translate(10 43)"><textPath startOffset="50%" text-anchor="middle" href="#d">France</textPath></text><text data-z-index="1" dy="5" style="color:#333;font-size:11px;font-weight:700;fill:#333" class="highcharts-label highcharts-data-label highcharts-data-label-color-3" transform="translate(10 43)"><textPath startOffset="50%" text-anchor="middle" href="#e">Spain</textPath></text><text data-z-index="1" dy="5" style="color:#333;font-size:11px;font-weight:700;fill:#333" class="highcharts-label highcharts-data-label highcharts-data-label-color-4" transform="translate(10 43)"><textPath startOffset="50%" text-anchor="middle" href="#f">England</textPath></text><text data-z-index="1" dy="5" style="color:#333;font-size:11px;font-weight:700;fill:#333" class="highcharts-label highcharts-data-label highcharts-data-label-color-5" transform="translate(10 43)"><textPath startOffset="50%" text-anchor="middle" href="#g">Canada</textPath></text><text data-z-index="1" dy="5" style="color:#333;font-size:11px;font-weight:700;fill:#333" class="highcharts-label highcharts-data-label highcharts-data-label-color-7" transform="translate(10 43)"><textPath startOffset="50%" text-anchor="middle" href="#h">USA</textPath></text><text data-z-index="1" dy="5" style="color:#333;font-size:11px;font-weight:700;fill:#333" class="highcharts-label highcharts-data-label highcharts-data-label-color-8" transform="translate(10 43)"><textPath startOffset="50%" text-anchor="middle" href="#i">Angola</textPath></text><text data-z-index="1" dy="5" style="color:#333;font-size:11px;font-weight:700;fill:#333" class="highcharts-label highcharts-data-label highcharts-data-label-color-9" transform="translate(10 43)"><textPath startOffset="50%" text-anchor="middle" href="#j">Senegal</textPath></text><text data-z-index="1" dy="5" style="color:#333;font-size:11px;font-weight:700;fill:#333" class="highcharts-label highcharts-data-label highcharts-data-label-color-10" transform="translate(10 43)"><textPath startOffset="50%" text-anchor="middle" href="#k">Morocco</textPath></text><text data-z-index="1" dy="5" style="color:#333;font-size:11px;font-weight:700;fill:#333" class="highcharts-label highcharts-data-label highcharts-data-label-color-0" transform="translate(10 43)"><textPath startOffset="50%" text-anchor="middle" href="#l">South Africa</textPath></text><text data-z-index="1" dy="5" style="color:#333;font-size:11px;font-weight:700;fill:#333" class="highcharts-label highcharts-data-label highcharts-data-label-color-1" transform="translate(10 43)"><textPath startOffset="50%" text-anchor="middle" href="#m">Mali</textPath></text><text data-z-index="1" dy="5" style="color:#333;font-size:11px;font-weight:700;fill:#333" class="highcharts-label highcharts-data-label highcharts-data-label-color-2" transform="translate(10 43)"><textPath startOffset="50%" text-anchor="middle" href="#n">China</textPath></text><text data-z-index="1" dy="5" style="color:#333;font-size:11px;font-weight:700;fill:#333" class="highcharts-label highcharts-data-label highcharts-data-label-color-3" transform="translate(10 43)"><textPath startOffset="50%" text-anchor="middle" href="#o">India</textPath></text><text data-z-index="1" dy="5" style="color:#333;font-size:11px;font-weight:700;fill:#333" class="highcharts-label highcharts-data-label highcharts-data-label-color-4" transform="translate(10 43)"><textPath startOffset="50%" text-anchor="middle" href="#p">Japan</textPath></text></g></svg>