<svg class="highcharts-root" style="font-family:Signika,serif;font-size:12px" xmlns="http://www.w3.org/2000/svg" width="500" height="400" aria-label="Interactive chart" aria-hidden="false"><defs aria-hidden="true"><radialGradient cx=".5" cy="-.4" r="1.9" id="b"><stop offset=".5" stop-color="#FFF" stop-opacity=".2"/><stop offset=".5" stop-color="#C8C8C8" stop-opacity=".2"/></radialGradient><linearGradient x1="0" y1="0" x2="0" y2="1" id="a"><stop offset="0" stop-color="#fff"/><stop offset="1" stop-color="#e6e6e6"/></linearGradient><clipPath id="c"><path fill="none" d="M0 0h480v342H0z"/></clipPath></defs><rect fill="none" class="highcharts-background" width="500" height="400" rx="0" ry="0" aria-hidden="true"/><path fill="none" class="highcharts-plot-background" aria-hidden="true" d="M10 43h480v342H10z"/><g class="highcharts-pane-group" data-z-index="0" aria-hidden="true" stroke="#ccc"><path fill="url(#a)" d="M250 61.382a152.618 152.618 0 1 1-.153 0M250 214" class="highcharts-pane"/><path fill="url(#b)" d="M250 61.382a152.618 152.618 0 1 1-.153 0M250 214" class="highcharts-pane"/></g><g class="highcharts-grid highcharts-yaxis-grid highcharts-radial-axis-grid" data-z-index="1" aria-hidden="true" fill="none"><path class="highcharts-minor-grid-line" d="M250 214V68.65M250 214l15.193-144.554M250 214l30.22-142.174M250 214l44.916-138.236M250 214l59.12-132.784M250 214l72.675-125.877M250 214l85.435-117.59M250 214l97.258-108.016M250 214l108.016-97.258M250 214l117.59-85.435M250 214l125.877-72.675M250 214l132.784-59.12M250 214l138.236-44.916M250 214l142.174-30.22M250 214l144.554-15.193M250 214h145.35M250 214l144.554 15.193M250 214l142.174 30.22M250 214l138.236 44.916M250 214l132.784 59.12M250 214l125.877 72.675M250 214l117.59 85.435M250 214l108.016 97.258M250 214l97.258 108.016M250 214l85.435 117.59M250 214l72.675 125.877M250 214l59.12 132.784M250 214l44.916 138.236M250 214l30.22 142.174M250 214l15.193 144.554M250 214v145.35M250 214l-15.193 144.554M250 214l-30.22 142.174M250 214l-44.916 138.236M250 214l-59.12 132.784M250 214l-72.675 125.877M250 214l-85.435 117.59M250 214l-97.258 108.016M250 214l-108.016 97.258M250 214l-117.59 85.435M250 214l-125.877 72.675M250 214l-132.784 59.12M250 214l-138.236 44.916M250 214l-142.174 30.22M250 214l-144.554 15.193M250 214H104.65M250 214l-144.554-15.193M250 214l-142.174-30.22M250 214l-138.236-44.916M250 214l-132.784-59.12M250 214l-125.877-72.675M250 214l-117.59-85.435M250 214l-108.016-97.258M250 214l-97.258-108.016M250 214 164.565 96.41M250 214 177.325 88.123M250 214 190.88 81.216M250 214 205.084 75.764M250 214 219.78 71.826M250 214 234.807 69.446M250 214V68.65"/><path data-z-index="1" class="highcharts-grid-line" d="M250 214V68.65M250 214l72.675-125.877M250 214l125.877-72.675M250 214h145.35M250 214l125.877 72.675M250 214l72.675 125.877M250 214v145.35M250 214l-72.675 125.877M250 214l-125.877 72.675M250 214H104.65M250 214l-125.877-72.675M250 214 177.325 88.123M250 214V68.65"/></g><path fill="none" class="highcharts-plot-border" data-z-index="1" aria-hidden="true" d="M10 43h480v342H10z"/><g class="highcharts-axis highcharts-yaxis highcharts-radial-axis" data-z-index="2" aria-hidden="true"><path fill="none" class="highcharts-minor-tick" stroke="#666" d="M250 68.65v5m15.193-4.204-.522 4.973m15.549-2.593-1.04 4.891m15.736-.953-1.545 4.755m15.749.697-2.035 4.568m15.59 2.339-2.5 4.33m15.26 3.957-2.94 4.044m14.763 5.53-3.346 3.716m14.104 7.042-3.716 3.346m13.29 8.477-4.044 2.94m12.331 9.82-4.33 2.5m11.237 11.055-4.568 2.035m10.02 12.169-4.755 1.545m8.693 13.151-4.891 1.04m7.271 13.987-4.973.522M395.35 214h-5m4.204 15.193-4.973-.522m2.593 15.549-4.891-1.04m.953 15.736-4.755-1.545m-.697 15.749-4.568-2.035m-2.339 15.59-4.33-2.5m-3.957 15.26-4.044-2.94m-5.53 14.763-3.716-3.346m-7.042 14.104-3.346-3.716m-8.477 13.29-2.94-4.044m-9.82 12.331-2.5-4.33m-11.055 11.237-2.035-4.568m-12.169 10.02-1.545-4.755m-13.151 8.693-1.04-4.891m-13.987 7.271-.522-4.973M250 359.35v-5m-15.193 4.204.522-4.973m-15.549 2.593 1.04-4.891m-15.736.953 1.545-4.755m-15.749-.697 2.035-4.568m-15.59-2.339 2.5-4.33m-15.26-3.957 2.94-4.044m-14.763-5.53 3.346-3.716m-14.104-7.042 3.716-3.346m-13.29-8.477 4.044-2.94m-12.331-9.82 4.33-2.5m-11.237-11.055 4.568-2.035m-10.02-12.169 4.755-1.545m-8.693-13.151 4.891-1.04m-7.271-13.987 4.973-.522M104.65 214h5m-4.204-15.193 4.973.522m-2.593-15.549 4.891 1.04m-.953-15.736 4.755 1.545m.697-15.749 4.568 2.035m2.339-15.59 4.33 2.5m3.957-15.26 4.044 2.94m5.53-14.763 3.716 3.346m7.042-14.104 3.346 3.716m8.477-13.29 2.94 4.044m9.82-12.331 2.5 4.33m11.055-11.237 2.035 4.568m12.169-10.02 1.545 4.755m13.151-8.693 1.04 4.891m13.987-7.271.522 4.973M250 68.65v5"/><path fill="none" class="highcharts-tick" stroke="#666" stroke-width="2" d="M250 68.65v10m72.675 9.473-5 8.66m58.202 44.542-8.66 5M395.35 214h-10m-9.473 72.675-8.66-5m-44.542 58.202-5-8.66M250 359.35v-10m-72.675-9.473 5-8.66m-58.202-44.542 8.66-5M104.65 214h10m9.473-72.675 8.66 5m44.542-58.202 5 8.66M250 68.65v10"/><text x="250" data-z-index="7" text-anchor="middle" class="highcharts-axis-title" style="color:#bbb;font-weight:400;font-size:8px;line-height:10px;fill:#bbb" y="151.325">Powered by<tspan class="highcharts-br" dy="10" x="250">​</tspan>Highcharts</text><path fill="none" class="highcharts-axis-line" data-z-index="7" d="M250 68.65a145.35 145.35 0 1 1-.145 0M250 214"/></g><g class="highcharts-series-group" data-z-index="3" aria-hidden="false"><g class="highcharts-series highcharts-series-0 highcharts-gauge-series highcharts-color-0 highcharts-tracker" data-z-index=".1" clip-path="url(#c)" aria-hidden="false" transform="translate(10 43)"><path d="M0-2h82.85l4.36 1.5v1L82.85 2H0Z" transform="rotate(158.5 103.767 108.283)" data-z-index="1" class="highcharts-dial" tabindex="-1" aria-label="8.283333333333333." style="outline:0"/><path d="M0-1.5h110.466l5.814 1v1l-5.814 1H0Z" transform="rotate(12.7 -648.302 1163.818)" data-z-index="1" class="highcharts-dial" tabindex="-1" aria-label="3.4233333333333333." style="outline:0"/><path d="M-29.07-.5h174.42v1H-29.07Z" transform="rotate(-48 312.036 -184.024)" data-z-index="1" class="highcharts-dial" tabindex="-1" aria-label="1.4." style="outline:0"/><circle r="5" data-z-index="2" class="highcharts-pivot" transform="translate(240 171)"/></g></g><text x="250" text-anchor="middle" class="highcharts-title" data-z-index="4" style="color:#000;font-size:16px;font-weight:700;fill:#000" y="22" aria-hidden="true">The Highcharts clock</text><g class="highcharts-axis-labels highcharts-yaxis-labels highcharts-radial-axis-labels" data-z-index="7" aria-hidden="true" text-anchor="middle"><text x="312.675" style="color:#6e6e70;cursor:default;font-size:11px;fill:#6e6e70" y="110.194">1</text><text x="358.556" style="color:#6e6e70;cursor:default;font-size:11px;fill:#6e6e70" y="156.075">2</text><text x="375.35" style="color:#6e6e70;cursor:default;font-size:11px;fill:#6e6e70" y="218.75">3</text><text x="358.556" style="color:#6e6e70;cursor:default;font-size:11px;fill:#6e6e70" y="281.425">4</text><text x="312.675" style="color:#6e6e70;cursor:default;font-size:11px;fill:#6e6e70" y="327.306">5</text><text x="250" style="color:#6e6e70;cursor:default;font-size:11px;fill:#6e6e70" y="344.1">6</text><text x="187.325" style="color:#6e6e70;cursor:default;font-size:11px;fill:#6e6e70" y="327.306">7</text><text x="141.444" style="color:#6e6e70;cursor:default;font-size:11px;fill:#6e6e70" y="281.425">8</text><text x="124.65" style="color:#6e6e70;cursor:default;font-size:11px;fill:#6e6e70" y="218.75">9</text><text x="141.444" style="color:#6e6e70;cursor:default;font-size:11px;fill:#6e6e70" y="156.075">10</text><text x="187.325" style="color:#6e6e70;cursor:default;font-size:11px;fill:#6e6e70" y="110.194">11</text><text x="250" style="color:#6e6e70;cursor:default;font-size:11px;fill:#6e6e70" y="93.4">12</text></g></svg>