<svg class="highcharts-root" style="font-family:Signika,serif;font-size:12px" xmlns="http://www.w3.org/2000/svg" width="500" height="400" aria-label="Interactive chart" aria-hidden="false"><defs aria-hidden="true"><linearGradient x1="0" y1="0" x2="0" y2="1" id="a"><stop offset="0" stop-color="#fff"/><stop offset="1" stop-color="#e6e6e6"/></linearGradient><linearGradient x1="0" y1="0" x2="0" y2="1" id="b"><stop offset="0" stop-color="#DDD"/><stop offset="1" stop-color="#FFF"/></linearGradient><clipPath id="c"><path fill="none" d="M0 0h480v342H0z"/></clipPath></defs><rect fill="none" class="highcharts-background" width="500" height="400" rx="0" ry="0" aria-hidden="true"/><path fill="none" class="highcharts-plot-background" aria-hidden="true" d="M10 43h480v342H10z"/><g class="highcharts-pane-group" data-z-index="0" aria-hidden="true"><path fill="url(#a)" d="M250 61.382a152.618 152.618 0 1 1-.153 0M250 214" class="highcharts-pane" stroke="#ccc"/></g><g class="highcharts-grid highcharts-yaxis-grid highcharts-radial-axis-grid" data-z-index="1" aria-hidden="true" fill="none"><path class="highcharts-minor-grid-line" d="m250 214-60.175 104.226M250 214l-73.264 95.48M250 214l-85.1 85.1M250 214l-95.48 73.264M250 214l-104.226 60.175M250 214l-111.189 46.056M250 214l-116.25 31.149M250 214l-119.32 15.709M250 214H129.65M250 214l-119.32-15.709M250 214l-116.25-31.149M250 214l-111.189-46.056M250 214l-104.226-60.175M250 214l-95.48-73.264M250 214l-85.1-85.1M250 214l-73.264-95.48M250 214l-60.175-104.226M250 214l-46.056-111.189M250 214 218.851 97.75M250 214 234.291 94.68M250 214V93.65M250 214l15.709-119.32M250 214l31.149-116.25M250 214l46.056-111.189M250 214l60.175-104.226M250 214l73.264-95.48M250 214l85.1-85.1M250 214l95.48-73.264M250 214l104.226-60.175M250 214l111.189-46.056M250 214l116.25-31.149M250 214l119.32-15.709M250 214h120.35M250 214l119.32 15.709M250 214l116.25 31.149M250 214l111.189 46.056M250 214l104.226 60.175M250 214l95.48 73.264M250 214l85.1 85.1M250 214l73.264 95.48M250 214l60.175 104.226"/><path data-z-index="1" class="highcharts-grid-line" d="m250 214-60.175 104.226M250 214l-111.189 46.056M250 214l-116.25-31.149M250 214l-73.264-95.48M250 214V93.65M250 214l73.264-95.48M250 214l116.25-31.149M250 214l111.189 46.056M250 214l60.175 104.226"/></g><g class="highcharts-grid highcharts-yaxis-grid highcharts-radial-axis-grid" data-z-index="1" aria-hidden="true" fill="none"><path class="highcharts-minor-grid-line" d="m250 214-62.675 108.556M250 214l-80.032 96.476M250 214l-95.11 81.65M250 214l-107.482 64.5M250 214l-116.795 45.514M250 214l-122.784 25.233M250 214l-125.278 4.234M250 214l-124.207-16.886M250 214l-119.601-37.525M250 214l-111.591-57.096M250 214l-100.405-75.042M250 214l-86.362-90.853M250 214l-69.86-104.077M250 214 198.629 99.66M250 214 218.58 92.652M250 214 239.427 89.097M250 214l10.573-124.903M250 214l31.42-121.348M250 214l51.371-114.34M250 214l69.86-104.077M250 214l86.362-90.853M250 214l100.405-75.042M250 214l111.591-57.096M250 214l119.601-37.525M250 214l124.207-16.886M250 214l125.278 4.234M250 214l122.784 25.233M250 214l116.795 45.514M250 214l107.482 64.5M250 214l95.11 81.65M250 214l80.032 96.476M250 214l62.675 108.556"/><path data-z-index="1" class="highcharts-grid-line" d="m250 214-62.675 108.556M250 214l-122.784 25.233M250 214l-100.405-75.042M250 214 239.427 89.097M250 214l86.362-90.853M250 214l125.278 4.234M250 214l80.032 96.476"/></g><path fill="none" class="highcharts-plot-border" data-z-index="1" aria-hidden="true" d="M10 43h480v342H10z"/><g class="highcharts-axis highcharts-yaxis highcharts-radial-axis" data-z-index="2" aria-hidden="true" fill="none" stroke="#339"><path class="highcharts-minor-tick" d="m189.825 318.226 2.5-4.33m-15.589-4.416 3.043-3.967M164.9 299.1l3.535-3.535m-13.915-8.301 3.967-3.043m-12.713-10.046 4.33-2.5m-11.293-11.619 4.62-1.913m-9.681-12.994 4.83-1.294m-7.9-14.146 4.957-.653M129.65 214h5m-3.97-15.709 4.957.653m-1.887-16.093 4.83 1.294m.231-16.201 4.62 1.913m2.343-16.032 4.33 2.5m4.416-15.589 3.967 3.043M164.9 128.9l3.535 3.535m8.301-13.915 3.043 3.967m10.046-12.713 2.5 4.33m11.619-11.293 1.913 4.62m12.994-9.681 1.294 4.83m14.146-7.9.653 4.957M250 93.65v5m15.709-3.97-.653 4.957m16.093-1.887-1.294 4.83m16.201.231-1.913 4.62m16.032 2.343-2.5 4.33m15.589 4.416-3.043 3.967M335.1 128.9l-3.535 3.535m13.915 8.301-3.967 3.043m12.713 10.046-4.33 2.5m11.293 11.619-4.62 1.913m9.681 12.994-4.83 1.294m7.9 14.146-4.957.653M370.35 214h-5m3.97 15.709-4.957-.653m1.887 16.093-4.83-1.294m-.231 16.201-4.62-1.913m-2.343 16.032-4.33-2.5m-4.416 15.589-3.967-3.043M335.1 299.1l-3.535-3.535m-8.301 13.915-3.043-3.967m-10.046 12.713-2.5-4.33"/><path class="highcharts-tick" stroke-width="2" d="m189.825 318.226 2.5-4.33m-53.514-53.84 4.62-1.913m-9.681-75.292 4.83 1.294m38.156-65.625 3.043 3.967M250 93.65v5m73.264 19.87-3.043 3.967m46.029 60.364-4.83 1.294m-.231 75.911-4.62-1.913m-46.394 60.083-2.5-4.33"/><path class="highcharts-axis-line" stroke-width="2" data-z-index="7" d="M189.825 318.226a120.35 120.35 0 1 1 120.454-.06M250 214"/></g><g class="highcharts-axis highcharts-yaxis highcharts-radial-axis" data-z-index="2" aria-hidden="true" fill="none" stroke="#933"><path class="highcharts-minor-tick" d="m187.325 322.556-2.5 4.33m-14.857-16.41-3.192 3.848M154.89 295.65l-3.794 3.256m-8.578-20.406-4.288 2.572m-5.025-21.558-4.659 1.815m-1.33-22.096-4.898 1.006m2.404-22.005-4.998.168m6.069-21.288-4.955-.674m9.561-19.965-4.771-1.497m12.781-18.074-4.452-2.278m15.638-15.668-4.005-2.994m18.048-12.817-3.445-3.624m19.947-9.6-2.787-4.152m21.276-6.111-2.05-4.56m22.001-2.448-1.253-4.84m22.1 1.285-.422-4.982m21.568 4.982.422-4.982m20.425 8.537 1.253-4.84m18.698 11.848 2.05-4.56m16.439 14.823 2.787-4.152m13.715 17.376 3.445-3.624m10.598 19.435 4.005-2.994m7.181 20.94 4.452-2.278m3.558 21.849 4.771-1.497m-.165 22.136 4.955-.674m-3.884 21.794 4.998.168m-7.492 20.831 4.898 1.006m-10.887 19.275 4.659 1.815M357.482 278.5l4.288 2.572m-16.66 14.578 3.794 3.256m-18.872 11.57 3.192 3.848m-20.549 8.232 2.5 4.33"/><path class="highcharts-tick" stroke-width="2" d="m187.325 322.556-2.5 4.33m-57.609-87.653-4.898 1.006m27.277-101.281-4.005-2.994m93.837-46.867-.422-4.982m97.357 39.032 3.445-3.624m35.471 98.711 4.998.168m-50.244 92.074 3.192 3.848"/><path class="highcharts-axis-line" stroke-width="2" data-z-index="7" d="M187.325 322.556a125.35 125.35 0 1 1 125.459-.062M250 214"/></g><g class="highcharts-data-labels highcharts-series-0 highcharts-gauge-series highcharts-color-0 highcharts-tracker" data-z-index="2" aria-hidden="true"><g class="highcharts-label highcharts-data-label highcharts-data-label-color-0" data-z-index="1" transform="translate(225 229)"><rect fill="url(#b)" class="highcharts-label-box highcharts-data-label-box" x=".5" y=".5" width="50" height="38" rx="3" ry="3" stroke="#ccc"/><text x="5" data-z-index="1" y="16" style="color:#fff;font-size:11px;font-weight:700;fill:#fff"><tspan class="highcharts-text-outline" fill="#000" stroke="#000" stroke-width="2" stroke-linejoin="round"><tspan style="color:#339;fill:#339">70 km/h</tspan><tspan class="highcharts-br" dy="14" x="5">​</tspan><tspan style="color:#933;fill:#933">43 mph</tspan><tspan x="5" dy="-14">​</tspan></tspan><tspan style="color:#339;fill:#339">70 km/h</tspan><tspan class="highcharts-br" dy="14" x="5">​</tspan><tspan style="color:#933;fill:#933">43 mph</tspan></text></g></g><g class="highcharts-series-group" data-z-index="3" aria-hidden="false"><g class="highcharts-series highcharts-series-0 highcharts-gauge-series highcharts-color-0 highcharts-tracker" data-z-index=".1" clip-path="url(#c)" aria-hidden="false" transform="translate(10 43)"><path d="M-11.628-1.5h93.024l34.884 1v1l-34.884 1h-93.024Z" transform="rotate(-135 155.415 35.794)" data-z-index="1" class="highcharts-dial" tabindex="-1" aria-label="70 km/h. Speed." style="outline:0"/><circle r="5" data-z-index="2" class="highcharts-pivot" transform="translate(240 171)"/></g></g><text x="250" text-anchor="middle" class="highcharts-title" data-z-index="4" style="color:#000;font-size:16px;font-weight:700;fill:#000" y="22" aria-hidden="true">Speedometer with dual axes</text><g class="highcharts-axis-labels highcharts-yaxis-labels highcharts-radial-axis-labels" data-z-index="7" aria-hidden="true" text-anchor="middle"><text x="199.825" style="color:#6e6e70;cursor:default;font-size:11px;fill:#6e6e70" transform="rotate(-150 199.825 300.906)" y="300.906">0</text><text x="157.289" style="color:#6e6e70;cursor:default;font-size:11px;fill:#6e6e70" transform="rotate(-112.5 157.289 252.402)" y="252.402">25</text><text x="153.069" style="color:#6e6e70;cursor:default;font-size:11px;fill:#6e6e70" transform="rotate(-75 153.07 188.028)" y="188.028">50</text><text x="188.911" style="color:#6e6e70;cursor:default;font-size:11px;fill:#6e6e70" transform="rotate(-37.5 188.91 134.387)" y="134.387">75</text><text x="250" style="color:#6e6e70;cursor:default;font-size:11px;fill:#6e6e70" y="113.65">100</text><text x="311.089" style="color:#6e6e70;cursor:default;font-size:11px;fill:#6e6e70" transform="rotate(37.5 311.09 134.387)" y="134.387">125</text><text x="346.931" style="color:#6e6e70;cursor:default;font-size:11px;fill:#6e6e70" transform="rotate(75 346.93 188.028)" y="188.028">150</text><text x="342.711" style="color:#6e6e70;cursor:default;font-size:11px;fill:#6e6e70" transform="rotate(112.5 342.711 252.402)" y="252.402">175</text><text x="300.175" style="color:#6e6e70;cursor:default;font-size:11px;fill:#6e6e70" transform="rotate(150 300.175 300.906)" y="300.906">200</text></g><g class="highcharts-axis-labels highcharts-yaxis-labels highcharts-radial-axis-labels" data-z-index="7" aria-hidden="true" text-anchor="middle"><text x="181.325" transform="rotate(-150 181.325 332.949)" y="332.949" style="color:#6e6e70;cursor:default;font-size:11px;fill:#6e6e70">0</text><text x="115.462" transform="rotate(-101.613 115.462 241.648)" y="241.648" style="color:#6e6e70;cursor:default;font-size:11px;fill:#6e6e70">20</text><text x="139.982" transform="rotate(-53.226 139.982 131.774)" y="131.774" style="color:#6e6e70;cursor:default;font-size:11px;fill:#6e6e70">40</text><text x="238.414" transform="rotate(-4.839 238.414 77.14)" y="77.14" style="color:#6e6e70;cursor:default;font-size:11px;fill:#6e6e70">60</text><text x="344.63" transform="rotate(43.548 344.63 114.45)" y="114.45" style="color:#6e6e70;cursor:default;font-size:11px;fill:#6e6e70">80</text><text x="387.272" transform="rotate(91.935 387.272 218.639)" y="218.639" style="color:#6e6e70;cursor:default;font-size:11px;fill:#6e6e70">100</text><text x="337.693" transform="rotate(140.323 337.693 319.712)" y="319.712" style="color:#6e6e70;cursor:default;font-size:11px;fill:#6e6e70">120</text></g></svg>