<svg class="highcharts-root" style="font-family:Signika,serif;font-size:12px" xmlns="http://www.w3.org/2000/svg" width="600" height="400" aria-label="Interactive chart" aria-hidden="false"><defs aria-hidden="true"><clipPath id="a"><path fill="none" d="M0 0h479v223H0z"/></clipPath></defs><rect fill="none" class="highcharts-background" width="600" height="400" rx="0" ry="0" aria-hidden="true"/><path fill="none" class="highcharts-plot-background" aria-hidden="true" d="M62 85h479v223H62z"/><g class="highcharts-grid highcharts-xaxis-grid" data-z-index="1" aria-hidden="true" fill="none"><path data-z-index="1" class="highcharts-grid-line" d="M66.5 85v223m78-223v223m79-223v223m79-223v223m79-223v223m79-223v223m78-223v223"/></g><g class="highcharts-grid highcharts-xaxis-grid" data-z-index="1" aria-hidden="true" fill="none"><path data-z-index="1" class="highcharts-grid-line" d="M65.5 85v223m98-223v223m98-223v223m98-223v223m98-223v223"/></g><g class="highcharts-grid highcharts-yaxis-grid" data-z-index="1" aria-hidden="true" fill="none" stroke="#e6e6e6"><path data-z-index="1" class="highcharts-grid-line" d="M62 308.5h479m-479-56h479m-479-55h479m-479-56h479m-479-57h479"/></g><g class="highcharts-grid highcharts-yaxis-grid" data-z-index="1" aria-hidden="true" fill="none" stroke="#e6e6e6"><path data-z-index="1" class="highcharts-grid-line" d="M62 308.5h479m-479-56h479m-479-55h479m-479-56h479m-479-57h479"/></g><path fill="none" class="highcharts-plot-border" data-z-index="1" aria-hidden="true" d="M62 85h479v223H62z"/><g class="highcharts-axis highcharts-xaxis" data-z-index="2" aria-hidden="true"><path fill="none" class="highcharts-tick" stroke="#ccd6eb" d="M66.5 308v10m78-10v10m79-10v10m79-10v10m79-10v10m79-10v10m78-10v10"/><text x="301.5" data-z-index="7" text-anchor="middle" class="highcharts-axis-title" style="color:#666;fill:#666" y="345.5">Data</text><path fill="none" class="highcharts-axis-line" stroke="#ccd6eb" data-z-index="7" d="M62 308.5h479"/></g><g class="highcharts-axis highcharts-xaxis" data-z-index="2" aria-hidden="true"><path fill="none" class="highcharts-tick" stroke="#ccd6eb" d="M65.5 85V75m98 10V75m98 10V75m98 10V75m98 10V75"/><text x="301.5" data-z-index="7" text-anchor="middle" class="highcharts-axis-title" style="color:#666;fill:#666" y="56.5">Histogram</text><path fill="none" class="highcharts-axis-line" stroke="#ccd6eb" data-z-index="7" d="M62 84.5h479"/></g><g class="highcharts-axis highcharts-yaxis" data-z-index="2" aria-hidden="true"><text x="23.25" data-z-index="7" text-anchor="middle" transform="rotate(-90 23.25 196.5)" class="highcharts-axis-title" style="color:#666;fill:#666" y="196.5">Data</text><path fill="none" class="highcharts-axis-line" data-z-index="7" d="M62 85v223"/></g><g class="highcharts-axis highcharts-yaxis" data-z-index="2" aria-hidden="true"><text x="577" data-z-index="7" text-anchor="middle" transform="rotate(90 577 196.5)" class="highcharts-axis-title" style="color:#666;fill:#666" y="196.5">Histogram</text><path fill="none" class="highcharts-axis-line" data-z-index="7" d="M541 85v223"/></g><g class="highcharts-series-group" data-z-index="3" aria-hidden="false"><g class="highcharts-series highcharts-series-0 highcharts-histogram-series highcharts-color-0 highcharts-tracker" data-z-index="-1" clip-path="url(#a)" aria-hidden="false" tabindex="-1" aria-label="Histogram, series 1 of 2 with 13 data points. Y axis, Histogram. X axis, Histogram." style="outline:0" transform="translate(62 85)"><path fill="none" stroke="#000" stroke-width="5" stroke-opacity=".05" class="highcharts-shadow" d="M4.5 218.5h37v6h-37z"/><path fill="none" stroke="#000" stroke-width="3" stroke-opacity=".1" class="highcharts-shadow" d="M4.5 218.5h37v6h-37z"/><path fill="none" stroke="#000" stroke-opacity=".15" class="highcharts-shadow" d="M4.5 218.5h37v6h-37z"/><path fill="#f45b5b" stroke="#fff" class="highcharts-point highcharts-color-0" tabindex="-1" aria-label="1. 2.000 to 2.185, 1. Histogram." style="outline:0" d="M3.5 217.5h37v6h-37z"/><path fill="none" stroke="#000" stroke-width="5" stroke-opacity=".05" class="highcharts-shadow" d="M41.5 185.5h36v39h-36z"/><path fill="none" stroke="#000" stroke-width="3" stroke-opacity=".1" class="highcharts-shadow" d="M41.5 185.5h36v39h-36z"/><path fill="none" stroke="#000" stroke-opacity=".15" class="highcharts-shadow" d="M41.5 185.5h36v39h-36z"/><path fill="#f45b5b" stroke="#fff" class="highcharts-point highcharts-color-0" tabindex="-1" aria-label="2. 2.185 to 2.369, 7. Histogram." style="outline:0" d="M40.5 184.5h36v39h-36z"/><path fill="none" stroke="#000" stroke-width="5" stroke-opacity=".05" class="highcharts-shadow" d="M77.5 163.5h36v61h-36z"/><path fill="none" stroke="#000" stroke-width="3" stroke-opacity=".1" class="highcharts-shadow" d="M77.5 163.5h36v61h-36z"/><path fill="none" stroke="#000" stroke-opacity=".15" class="highcharts-shadow" d="M77.5 163.5h36v61h-36z"/><path fill="#f45b5b" stroke="#fff" class="highcharts-point highcharts-color-0" tabindex="-1" aria-label="3. 2.369 to 2.554, 11. Histogram." style="outline:0" d="M76.5 162.5h36v61h-36z"/><path fill="none" stroke="#000" stroke-width="5" stroke-opacity=".05" class="highcharts-shadow" d="M113.5 146.5h36v78h-36z"/><path fill="none" stroke="#000" stroke-width="3" stroke-opacity=".1" class="highcharts-shadow" d="M113.5 146.5h36v78h-36z"/><path fill="none" stroke="#000" stroke-opacity=".15" class="highcharts-shadow" d="M113.5 146.5h36v78h-36z"/><path fill="#f45b5b" stroke="#fff" class="highcharts-point highcharts-color-0" tabindex="-1" aria-label="4. 2.554 to 2.738, 14. Histogram." style="outline:0" d="M112.5 145.5h36v78h-36z"/><path fill="none" stroke="#000" stroke-width="5" stroke-opacity=".05" class="highcharts-shadow" d="M149.5 90.5h36v134h-36z"/><path fill="none" stroke="#000" stroke-width="3" stroke-opacity=".1" class="highcharts-shadow" d="M149.5 90.5h36v134h-36z"/><path fill="none" stroke="#000" stroke-opacity=".15" class="highcharts-shadow" d="M149.5 90.5h36v134h-36z"/><path fill="#f45b5b" stroke="#fff" class="highcharts-point highcharts-color-0" tabindex="-1" aria-label="5. 2.738 to 2.923, 24. Histogram." style="outline:0" d="M148.5 89.5h36v134h-36z"/><path fill="none" stroke="#000" stroke-width="5" stroke-opacity=".05" class="highcharts-shadow" d="M185.5 18.5h36v206h-36z"/><path fill="none" stroke="#000" stroke-width="3" stroke-opacity=".1" class="highcharts-shadow" d="M185.5 18.5h36v206h-36z"/><path fill="none" stroke="#000" stroke-opacity=".15" class="highcharts-shadow" d="M185.5 18.5h36v206h-36z"/><path fill="#f45b5b" stroke="#fff" class="highcharts-point highcharts-color-0" tabindex="-1" aria-label="6. 2.923 to 3.108, 37. Histogram." style="outline:0" d="M184.5 17.5h36v206h-36z"/><path fill="none" stroke="#000" stroke-width="5" stroke-opacity=".05" class="highcharts-shadow" d="M221.5 152.5h37v72h-37z"/><path fill="none" stroke="#000" stroke-width="3" stroke-opacity=".1" class="highcharts-shadow" d="M221.5 152.5h37v72h-37z"/><path fill="none" stroke="#000" stroke-opacity=".15" class="highcharts-shadow" d="M221.5 152.5h37v72h-37z"/><path fill="#f45b5b" stroke="#fff" class="highcharts-point highcharts-color-0" tabindex="-1" aria-label="7. 3.108 to 3.292, 13. Histogram." style="outline:0" d="M220.5 151.5h37v72h-37z"/><path fill="none" stroke="#000" stroke-width="5" stroke-opacity=".05" class="highcharts-shadow" d="M258.5 124.5h36v100h-36z"/><path fill="none" stroke="#000" stroke-width="3" stroke-opacity=".1" class="highcharts-shadow" d="M258.5 124.5h36v100h-36z"/><path fill="none" stroke="#000" stroke-opacity=".15" class="highcharts-shadow" d="M258.5 124.5h36v100h-36z"/><path fill="#f45b5b" stroke="#fff" class="highcharts-point highcharts-color-0" tabindex="-1" aria-label="8. 3.292 to 3.477, 18. Histogram." style="outline:0" d="M257.5 123.5h36v100h-36z"/><path fill="none" stroke="#000" stroke-width="5" stroke-opacity=".05" class="highcharts-shadow" d="M294.5 168.5h36v56h-36z"/><path fill="none" stroke="#000" stroke-width="3" stroke-opacity=".1" class="highcharts-shadow" d="M294.5 168.5h36v56h-36z"/><path fill="none" stroke="#000" stroke-opacity=".15" class="highcharts-shadow" d="M294.5 168.5h36v56h-36z"/><path fill="#f45b5b" stroke="#fff" class="highcharts-point highcharts-color-0" tabindex="-1" aria-label="9. 3.477 to 3.662, 10. Histogram." style="outline:0" d="M293.5 167.5h36v56h-36z"/><path fill="none" stroke="#000" stroke-width="5" stroke-opacity=".05" class="highcharts-shadow" d="M330.5 174.5h36v50h-36z"/><path fill="none" stroke="#000" stroke-width="3" stroke-opacity=".1" class="highcharts-shadow" d="M330.5 174.5h36v50h-36z"/><path fill="none" stroke="#000" stroke-opacity=".15" class="highcharts-shadow" d="M330.5 174.5h36v50h-36z"/><path fill="#f45b5b" stroke="#fff" class="highcharts-point highcharts-color-0" tabindex="-1" aria-label="10. 3.662 to 3.846, 9. Histogram." style="outline:0" d="M329.5 173.5h36v50h-36z"/><path fill="none" stroke="#000" stroke-width="5" stroke-opacity=".05" class="highcharts-shadow" d="M366.5 207.5h36v17h-36z"/><path fill="none" stroke="#000" stroke-width="3" stroke-opacity=".1" class="highcharts-shadow" d="M366.5 207.5h36v17h-36z"/><path fill="none" stroke="#000" stroke-opacity=".15" class="highcharts-shadow" d="M366.5 207.5h36v17h-36z"/><path fill="#f45b5b" stroke="#fff" class="highcharts-point highcharts-color-0" tabindex="-1" aria-label="11. 3.846 to 4.031, 3. Histogram." style="outline:0" d="M365.5 206.5h36v17h-36z"/><path fill="none" stroke="#000" stroke-width="5" stroke-opacity=".05" class="highcharts-shadow" d="M402.5 213.5h36v11h-36z"/><path fill="none" stroke="#000" stroke-width="3" stroke-opacity=".1" class="highcharts-shadow" d="M402.5 213.5h36v11h-36z"/><path fill="none" stroke="#000" stroke-opacity=".15" class="highcharts-shadow" d="M402.5 213.5h36v11h-36z"/><path fill="#f45b5b" stroke="#fff" class="highcharts-point highcharts-color-0" tabindex="-1" aria-label="12. 4.031 to 4.215, 2. Histogram." style="outline:0" d="M401.5 212.5h36v11h-36z"/><path fill="none" stroke="#000" stroke-width="5" stroke-opacity=".05" class="highcharts-shadow" d="M438.5 218.5h37v6h-37z"/><path fill="none" stroke="#000" stroke-width="3" stroke-opacity=".1" class="highcharts-shadow" d="M438.5 218.5h37v6h-37z"/><path fill="none" stroke="#000" stroke-opacity=".15" class="highcharts-shadow" d="M438.5 218.5h37v6h-37z"/><path fill="#f45b5b" stroke="#fff" class="highcharts-point highcharts-color-0" tabindex="-1" aria-label="13. 4.215 to 4.400, 1. Histogram." style="outline:0" d="M437.5 217.5h37v6h-37z"/></g><g class="highcharts-markers highcharts-series-1 highcharts-scatter-series highcharts-color-1 highcharts-tracker" data-z-index=".1" aria-hidden="false" tabindex="-1" aria-label="Data, series 2 of 2, scatter plot with 150 points. Y axis, Data. X axis, Data." style="outline:0" fill="#8085e9"><path d="M4.5 92.094a1.5 1.5 0 1 1 .001 0Z" class="highcharts-point highcharts-color-1" tabindex="-1" aria-label="x, 0, 3.5. Data." style="outline:0" transform="translate(62 85)"/><path d="M7.5 126.938a1.5 1.5 0 1 1 .001 0Z" class="highcharts-point highcharts-color-1" tabindex="-1" aria-label="x, 1, 3. Data." style="outline:0" transform="translate(62 85)"/><path d="M10.5 113a1.5 1.5 0 1 1 .001 0Z" class="highcharts-point highcharts-color-1" tabindex="-1" aria-label="x, 2, 3.2. Data." style="outline:0" transform="translate(62 85)"/><path d="M13.5 119.969a1.5 1.5 0 1 1 .001 0Z" class="highcharts-point highcharts-color-1" tabindex="-1" aria-label="x, 3, 3.1. Data." style="outline:0" transform="translate(62 85)"/><path d="M16.5 85.125a1.5 1.5 0 1 1 .001 0Z" class="highcharts-point highcharts-color-1" tabindex="-1" aria-label="x, 4, 3.6. Data." style="outline:0" transform="translate(62 85)"/><path d="M19.5 64.219a1.5 1.5 0 1 1 .001 0Z" class="highcharts-point highcharts-color-1" tabindex="-1" aria-label="x, 5, 3.9. Data." style="outline:0" transform="translate(62 85)"/><path d="M23.5 99.063a1.5 1.5 0 1 1 .001 0Z" class="highcharts-point highcharts-color-1" tabindex="-1" aria-label="x, 6, 3.4. Data." style="outline:0" transform="translate(62 85)"/><path d="M26.5 99.063a1.5 1.5 0 1 1 .001 0Z" class="highcharts-point highcharts-color-1" tabindex="-1" aria-label="x, 7, 3.4. Data." style="outline:0" transform="translate(62 85)"/><path d="M29.5 133.906a1.5 1.5 0 1 1 .001 0Z" class="highcharts-point highcharts-color-1" tabindex="-1" aria-label="x, 8, 2.9. Data." style="outline:0" transform="translate(62 85)"/><path d="M32.5 119.969a1.5 1.5 0 1 1 .001 0Z" class="highcharts-point highcharts-color-1" tabindex="-1" aria-label="x, 9, 3.1. Data." style="outline:0" transform="translate(62 85)"/><path d="M35.5 78.156a1.5 1.5 0 1 1 .001 0Z" class="highcharts-point highcharts-color-1" tabindex="-1" aria-label="x, 10, 3.7. Data." style="outline:0" transform="translate(62 85)"/><path d="M38.5 99.063a1.5 1.5 0 1 1 .001 0Z" class="highcharts-point highcharts-color-1" tabindex="-1" aria-label="x, 11, 3.4. Data." style="outline:0" transform="translate(62 85)"/><path d="M42.5 126.938a1.5 1.5 0 1 1 .001 0Z" class="highcharts-point highcharts-color-1" tabindex="-1" aria-label="x, 12, 3. Data." style="outline:0" transform="translate(62 85)"/><path d="M45.5 126.938a1.5 1.5 0 1 1 .001 0Z" class="highcharts-point highcharts-color-1" tabindex="-1" aria-label="x, 13, 3. Data." style="outline:0" transform="translate(62 85)"/><path d="M48.5 57.25a1.5 1.5 0 1 1 .001 0Z" class="highcharts-point highcharts-color-1" tabindex="-1" aria-label="x, 14, 4. Data." style="outline:0" transform="translate(62 85)"/><path d="M51.5 29.375a1.5 1.5 0 1 1 .001 0Z" class="highcharts-point highcharts-color-1" tabindex="-1" aria-label="x, 15, 4.4. Data." style="outline:0" transform="translate(62 85)"/><path d="M54.5 64.219a1.5 1.5 0 1 1 .001 0Z" class="highcharts-point highcharts-color-1" tabindex="-1" aria-label="x, 16, 3.9. Data." style="outline:0" transform="translate(62 85)"/><path d="M57.5 92.094a1.5 1.5 0 1 1 .001 0Z" class="highcharts-point highcharts-color-1" tabindex="-1" aria-label="x, 17, 3.5. Data." style="outline:0" transform="translate(62 85)"/><path d="M60.5 71.188a1.5 1.5 0 1 1 .001 0Z" class="highcharts-point highcharts-color-1" tabindex="-1" aria-label="x, 18, 3.8. Data." style="outline:0" transform="translate(62 85)"/><path d="M64.5 71.188a1.5 1.5 0 1 1 .001 0Z" class="highcharts-point highcharts-color-1" tabindex="-1" aria-label="x, 19, 3.8. Data." style="outline:0" transform="translate(62 85)"/><path d="M67.5 99.063a1.5 1.5 0 1 1 .001 0Z" class="highcharts-point highcharts-color-1" tabindex="-1" aria-label="x, 20, 3.4. Data." style="outline:0" transform="translate(62 85)"/><path d="M70.5 78.156a1.5 1.5 0 1 1 .001 0Z" class="highcharts-point highcharts-color-1" tabindex="-1" aria-label="x, 21, 3.7. Data." style="outline:0" transform="translate(62 85)"/><path d="M73.5 85.125a1.5 1.5 0 1 1 .001 0Z" class="highcharts-point highcharts-color-1" tabindex="-1" aria-label="x, 22, 3.6. Data." style="outline:0" transform="translate(62 85)"/><path d="M76.5 106.031a1.5 1.5 0 1 1 .001 0Z" class="highcharts-point highcharts-color-1" tabindex="-1" aria-label="x, 23, 3.3. Data." style="outline:0" transform="translate(62 85)"/><path d="M79.5 99.063a1.5 1.5 0 1 1 .001 0Z" class="highcharts-point highcharts-color-1" tabindex="-1" aria-label="x, 24, 3.4. Data." style="outline:0" transform="translate(62 85)"/><path d="M82.5 126.938a1.5 1.5 0 1 1 .001 0Z" class="highcharts-point highcharts-color-1" tabindex="-1" aria-label="x, 25, 3. Data." style="outline:0" transform="translate(62 85)"/><path d="M86.5 99.063a1.5 1.5 0 1 1 .001 0Z" class="highcharts-point highcharts-color-1" tabindex="-1" aria-label="x, 26, 3.4. Data." style="outline:0" transform="translate(62 85)"/><path d="M89.5 92.094a1.5 1.5 0 1 1 .001 0Z" class="highcharts-point highcharts-color-1" tabindex="-1" aria-label="x, 27, 3.5. Data." style="outline:0" transform="translate(62 85)"/><path d="M92.5 99.063a1.5 1.5 0 1 1 .001 0Z" class="highcharts-point highcharts-color-1" tabindex="-1" aria-label="x, 28, 3.4. Data." style="outline:0" transform="translate(62 85)"/><path d="M95.5 113a1.5 1.5 0 1 1 .001 0Z" class="highcharts-point highcharts-color-1" tabindex="-1" aria-label="x, 29, 3.2. Data." style="outline:0" transform="translate(62 85)"/><path d="M98.5 119.969a1.5 1.5 0 1 1 .001 0Z" class="highcharts-point highcharts-color-1" tabindex="-1" aria-label="x, 30, 3.1. Data." style="outline:0" transform="translate(62 85)"/><path d="M101.5 99.063a1.5 1.5 0 1 1 .001 0Z" class="highcharts-point highcharts-color-1" tabindex="-1" aria-label="x, 31, 3.4. Data." style="outline:0" transform="translate(62 85)"/><path d="M105.5 50.281a1.5 1.5 0 1 1 .001 0Z" class="highcharts-point highcharts-color-1" tabindex="-1" aria-label="x, 32, 4.1. Data." style="outline:0" transform="translate(62 85)"/><path d="M108.5 43.313a1.5 1.5 0 1 1 .001 0Z" class="highcharts-point highcharts-color-1" tabindex="-1" aria-label="x, 33, 4.2. Data." style="outline:0" transform="translate(62 85)"/><path d="M111.5 119.969a1.5 1.5 0 1 1 .001 0Z" class="highcharts-point highcharts-color-1" tabindex="-1" aria-label="x, 34, 3.1. Data." style="outline:0" transform="translate(62 85)"/><path d="M114.5 113a1.5 1.5 0 1 1 .001 0Z" class="highcharts-point highcharts-color-1" tabindex="-1" aria-label="x, 35, 3.2. Data." style="outline:0" transform="translate(62 85)"/><path d="M117.5 92.094a1.5 1.5 0 1 1 .001 0Z" class="highcharts-point highcharts-color-1" tabindex="-1" aria-label="x, 36, 3.5. Data." style="outline:0" transform="translate(62 85)"/><path d="M120.5 85.125a1.5 1.5 0 1 1 .001 0Z" class="highcharts-point highcharts-color-1" tabindex="-1" aria-label="x, 37, 3.6. Data." style="outline:0" transform="translate(62 85)"/><path d="M123.5 126.938a1.5 1.5 0 1 1 .001 0Z" class="highcharts-point highcharts-color-1" tabindex="-1" aria-label="x, 38, 3. Data." style="outline:0" transform="translate(62 85)"/><path d="M127.5 99.063a1.5 1.5 0 1 1 .001 0Z" class="highcharts-point highcharts-color-1" tabindex="-1" aria-label="x, 39, 3.4. Data." style="outline:0" transform="translate(62 85)"/><path d="M130.5 92.094a1.5 1.5 0 1 1 .001 0Z" class="highcharts-point highcharts-color-1" tabindex="-1" aria-label="x, 40, 3.5. Data." style="outline:0" transform="translate(62 85)"/><path d="M133.5 175.719a1.5 1.5 0 1 1 .001 0Z" class="highcharts-point highcharts-color-1" tabindex="-1" aria-label="x, 41, 2.3. Data." style="outline:0" transform="translate(62 85)"/><path d="M136.5 113a1.5 1.5 0 1 1 .001 0Z" class="highcharts-point highcharts-color-1" tabindex="-1" aria-label="x, 42, 3.2. Data." style="outline:0" transform="translate(62 85)"/><path d="M139.5 92.094a1.5 1.5 0 1 1 .001 0Z" class="highcharts-point highcharts-color-1" tabindex="-1" aria-label="x, 43, 3.5. Data." style="outline:0" transform="translate(62 85)"/><path d="M142.5 71.188a1.5 1.5 0 1 1 .001 0Z" class="highcharts-point highcharts-color-1" tabindex="-1" aria-label="x, 44, 3.8. Data." style="outline:0" transform="translate(62 85)"/><path d="M146.5 126.938a1.5 1.5 0 1 1 .001 0Z" class="highcharts-point highcharts-color-1" tabindex="-1" aria-label="x, 45, 3. Data." style="outline:0" transform="translate(62 85)"/><path d="M149.5 71.188a1.5 1.5 0 1 1 .001 0Z" class="highcharts-point highcharts-color-1" tabindex="-1" aria-label="x, 46, 3.8. Data." style="outline:0" transform="translate(62 85)"/><path d="M152.5 113a1.5 1.5 0 1 1 .001 0Z" class="highcharts-point highcharts-color-1" tabindex="-1" aria-label="x, 47, 3.2. Data." style="outline:0" transform="translate(62 85)"/><path d="M155.5 78.156a1.5 1.5 0 1 1 .001 0Z" class="highcharts-point highcharts-color-1" tabindex="-1" aria-label="x, 48, 3.7. Data." style="outline:0" transform="translate(62 85)"/><path d="M158.5 106.031a1.5 1.5 0 1 1 .001 0Z" class="highcharts-point highcharts-color-1" tabindex="-1" aria-label="x, 49, 3.3. Data." style="outline:0" transform="translate(62 85)"/><path d="M161.5 113a1.5 1.5 0 1 1 .001 0Z" class="highcharts-point highcharts-color-1" tabindex="-1" aria-label="x, 50, 3.2. Data." style="outline:0" transform="translate(62 85)"/><path d="M164.5 113a1.5 1.5 0 1 1 .001 0Z" class="highcharts-point highcharts-color-1" tabindex="-1" aria-label="x, 51, 3.2. Data." style="outline:0" transform="translate(62 85)"/><path d="M168.5 119.969a1.5 1.5 0 1 1 .001 0Z" class="highcharts-point highcharts-color-1" tabindex="-1" aria-label="x, 52, 3.1. Data." style="outline:0" transform="translate(62 85)"/><path d="M171.5 175.719a1.5 1.5 0 1 1 .001 0Z" class="highcharts-point highcharts-color-1" tabindex="-1" aria-label="x, 53, 2.3. Data." style="outline:0" transform="translate(62 85)"/><path d="M174.5 140.875a1.5 1.5 0 1 1 .001 0Z" class="highcharts-point highcharts-color-1" tabindex="-1" aria-label="x, 54, 2.8. Data." style="outline:0" transform="translate(62 85)"/><path d="M177.5 140.875a1.5 1.5 0 1 1 .001 0Z" class="highcharts-point highcharts-color-1" tabindex="-1" aria-label="x, 55, 2.8. Data." style="outline:0" transform="translate(62 85)"/><path d="M180.5 106.031a1.5 1.5 0 1 1 .001 0Z" class="highcharts-point highcharts-color-1" tabindex="-1" aria-label="x, 56, 3.3. Data." style="outline:0" transform="translate(62 85)"/><path d="M183.5 168.75a1.5 1.5 0 1 1 .001 0Z" class="highcharts-point highcharts-color-1" tabindex="-1" aria-label="x, 57, 2.4. Data." style="outline:0" transform="translate(62 85)"/><path d="M186.5 133.906a1.5 1.5 0 1 1 .001 0Z" class="highcharts-point highcharts-color-1" tabindex="-1" aria-label="x, 58, 2.9. Data." style="outline:0" transform="translate(62 85)"/><path d="M190.5 147.844a1.5 1.5 0 1 1 .001 0Z" class="highcharts-point highcharts-color-1" tabindex="-1" aria-label="x, 59, 2.7. Data." style="outline:0" transform="translate(62 85)"/><path d="M193.5 196.625a1.5 1.5 0 1 1 .001 0Z" class="highcharts-point highcharts-color-1" tabindex="-1" aria-label="x, 60, 2. Data." style="outline:0" transform="translate(62 85)"/><path d="M196.5 126.938a1.5 1.5 0 1 1 .001 0Z" class="highcharts-point highcharts-color-1" tabindex="-1" aria-label="x, 61, 3. Data." style="outline:0" transform="translate(62 85)"/><path d="M199.5 182.688a1.5 1.5 0 1 1 .001 0Z" class="highcharts-point highcharts-color-1" tabindex="-1" aria-label="x, 62, 2.2. Data." style="outline:0" transform="translate(62 85)"/><path d="M202.5 133.906a1.5 1.5 0 1 1 .001 0Z" class="highcharts-point highcharts-color-1" tabindex="-1" aria-label="x, 63, 2.9. Data." style="outline:0" transform="translate(62 85)"/><path d="M205.5 133.906a1.5 1.5 0 1 1 .001 0Z" class="highcharts-point highcharts-color-1" tabindex="-1" aria-label="x, 64, 2.9. Data." style="outline:0" transform="translate(62 85)"/><path d="M209.5 119.969a1.5 1.5 0 1 1 .001 0Z" class="highcharts-point highcharts-color-1" tabindex="-1" aria-label="x, 65, 3.1. Data." style="outline:0" transform="translate(62 85)"/><path d="M212.5 126.938a1.5 1.5 0 1 1 .001 0Z" class="highcharts-point highcharts-color-1" tabindex="-1" aria-label="x, 66, 3. Data." style="outline:0" transform="translate(62 85)"/><path d="M215.5 147.844a1.5 1.5 0 1 1 .001 0Z" class="highcharts-point highcharts-color-1" tabindex="-1" aria-label="x, 67, 2.7. Data." style="outline:0" transform="translate(62 85)"/><path d="M218.5 182.688a1.5 1.5 0 1 1 .001 0Z" class="highcharts-point highcharts-color-1" tabindex="-1" aria-label="x, 68, 2.2. Data." style="outline:0" transform="translate(62 85)"/><path d="M221.5 161.781a1.5 1.5 0 1 1 .001 0Z" class="highcharts-point highcharts-color-1" tabindex="-1" aria-label="x, 69, 2.5. Data." style="outline:0" transform="translate(62 85)"/><path d="M224.5 113a1.5 1.5 0 1 1 .001 0Z" class="highcharts-point highcharts-color-1" tabindex="-1" aria-label="x, 70, 3.2. Data." style="outline:0" transform="translate(62 85)"/><path d="M227.5 140.875a1.5 1.5 0 1 1 .001 0Z" class="highcharts-point highcharts-color-1" tabindex="-1" aria-label="x, 71, 2.8. Data." style="outline:0" transform="translate(62 85)"/><path d="M231.5 161.781a1.5 1.5 0 1 1 .001 0Z" class="highcharts-point highcharts-color-1" tabindex="-1" aria-label="x, 72, 2.5. Data." style="outline:0" transform="translate(62 85)"/><path d="M234.5 140.875a1.5 1.5 0 1 1 .001 0Z" class="highcharts-point highcharts-color-1" tabindex="-1" aria-label="x, 73, 2.8. Data." style="outline:0" transform="translate(62 85)"/><path d="M237.5 133.906a1.5 1.5 0 1 1 .001 0Z" class="highcharts-point highcharts-color-1" tabindex="-1" aria-label="x, 74, 2.9. Data." style="outline:0" transform="translate(62 85)"/><path d="M240.5 126.938a1.5 1.5 0 1 1 .001 0Z" class="highcharts-point highcharts-color-1" tabindex="-1" aria-label="x, 75, 3. Data." style="outline:0" transform="translate(62 85)"/><path d="M243.5 140.875a1.5 1.5 0 1 1 .001 0Z" class="highcharts-point highcharts-color-1" tabindex="-1" aria-label="x, 76, 2.8. Data." style="outline:0" transform="translate(62 85)"/><path d="M246.5 126.938a1.5 1.5 0 1 1 .001 0Z" class="highcharts-point highcharts-color-1" tabindex="-1" aria-label="x, 77, 3. Data." style="outline:0" transform="translate(62 85)"/><path d="M250.5 133.906a1.5 1.5 0 1 1 .001 0Z" class="highcharts-point highcharts-color-1" tabindex="-1" aria-label="x, 78, 2.9. Data." style="outline:0" transform="translate(62 85)"/><path d="M253.5 154.813a1.5 1.5 0 1 1 .001 0Z" class="highcharts-point highcharts-color-1" tabindex="-1" aria-label="x, 79, 2.6. Data." style="outline:0" transform="translate(62 85)"/><path d="M256.5 168.75a1.5 1.5 0 1 1 .001 0Z" class="highcharts-point highcharts-color-1" tabindex="-1" aria-label="x, 80, 2.4. Data." style="outline:0" transform="translate(62 85)"/><path d="M259.5 168.75a1.5 1.5 0 1 1 .001 0Z" class="highcharts-point highcharts-color-1" tabindex="-1" aria-label="x, 81, 2.4. Data." style="outline:0" transform="translate(62 85)"/><path d="M262.5 147.844a1.5 1.5 0 1 1 .001 0Z" class="highcharts-point highcharts-color-1" tabindex="-1" aria-label="x, 82, 2.7. Data." style="outline:0" transform="translate(62 85)"/><path d="M265.5 147.844a1.5 1.5 0 1 1 .001 0Z" class="highcharts-point highcharts-color-1" tabindex="-1" aria-label="x, 83, 2.7. Data." style="outline:0" transform="translate(62 85)"/><path d="M268.5 126.938a1.5 1.5 0 1 1 .001 0Z" class="highcharts-point highcharts-color-1" tabindex="-1" aria-label="x, 84, 3. Data." style="outline:0" transform="translate(62 85)"/><path d="M272.5 99.063a1.5 1.5 0 1 1 .001 0Z" class="highcharts-point highcharts-color-1" tabindex="-1" aria-label="x, 85, 3.4. Data." style="outline:0" transform="translate(62 85)"/><path d="M275.5 119.969a1.5 1.5 0 1 1 .001 0Z" class="highcharts-point highcharts-color-1" tabindex="-1" aria-label="x, 86, 3.1. Data." style="outline:0" transform="translate(62 85)"/><path d="M278.5 175.719a1.5 1.5 0 1 1 .001 0Z" class="highcharts-point highcharts-color-1" tabindex="-1" aria-label="x, 87, 2.3. Data." style="outline:0" transform="translate(62 85)"/><path d="M281.5 126.938a1.5 1.5 0 1 1 .001 0Z" class="highcharts-point highcharts-color-1" tabindex="-1" aria-label="x, 88, 3. Data." style="outline:0" transform="translate(62 85)"/><path d="M284.5 161.781a1.5 1.5 0 1 1 .001 0Z" class="highcharts-point highcharts-color-1" tabindex="-1" aria-label="x, 89, 2.5. Data." style="outline:0" transform="translate(62 85)"/><path d="M287.5 154.813a1.5 1.5 0 1 1 .001 0Z" class="highcharts-point highcharts-color-1" tabindex="-1" aria-label="x, 90, 2.6. Data." style="outline:0" transform="translate(62 85)"/><path d="M291.5 126.938a1.5 1.5 0 1 1 .001 0Z" class="highcharts-point highcharts-color-1" tabindex="-1" aria-label="x, 91, 3. Data." style="outline:0" transform="translate(62 85)"/><path d="M294.5 154.813a1.5 1.5 0 1 1 .001 0Z" class="highcharts-point highcharts-color-1" tabindex="-1" aria-label="x, 92, 2.6. Data." style="outline:0" transform="translate(62 85)"/><path d="M297.5 175.719a1.5 1.5 0 1 1 .001 0Z" class="highcharts-point highcharts-color-1" tabindex="-1" aria-label="x, 93, 2.3. Data." style="outline:0" transform="translate(62 85)"/><path d="M300.5 147.844a1.5 1.5 0 1 1 .001 0Z" class="highcharts-point highcharts-color-1" tabindex="-1" aria-label="x, 94, 2.7. Data." style="outline:0" transform="translate(62 85)"/><path d="M303.5 126.938a1.5 1.5 0 1 1 .001 0Z" class="highcharts-point highcharts-color-1" tabindex="-1" aria-label="x, 95, 3. Data." style="outline:0" transform="translate(62 85)"/><path d="M306.5 133.906a1.5 1.5 0 1 1 .001 0Z" class="highcharts-point highcharts-color-1" tabindex="-1" aria-label="x, 96, 2.9. Data." style="outline:0" transform="translate(62 85)"/><path d="M309.5 133.906a1.5 1.5 0 1 1 .001 0Z" class="highcharts-point highcharts-color-1" tabindex="-1" aria-label="x, 97, 2.9. Data." style="outline:0" transform="translate(62 85)"/><path d="M313.5 161.781a1.5 1.5 0 1 1 .001 0Z" class="highcharts-point highcharts-color-1" tabindex="-1" aria-label="x, 98, 2.5. Data." style="outline:0" transform="translate(62 85)"/><path d="M316.5 140.875a1.5 1.5 0 1 1 .001 0Z" class="highcharts-point highcharts-color-1" tabindex="-1" aria-label="x, 99, 2.8. Data." style="outline:0" transform="translate(62 85)"/><path d="M319.5 106.031a1.5 1.5 0 1 1 .001 0Z" class="highcharts-point highcharts-color-1" tabindex="-1" aria-label="x, 100, 3.3. Data." style="outline:0" transform="translate(62 85)"/><path d="M322.5 147.844a1.5 1.5 0 1 1 .001 0Z" class="highcharts-point highcharts-color-1" tabindex="-1" aria-label="x, 101, 2.7. Data." style="outline:0" transform="translate(62 85)"/><path d="M325.5 126.938a1.5 1.5 0 1 1 .001 0Z" class="highcharts-point highcharts-color-1" tabindex="-1" aria-label="x, 102, 3. Data." style="outline:0" transform="translate(62 85)"/><path d="M328.5 133.906a1.5 1.5 0 1 1 .001 0Z" class="highcharts-point highcharts-color-1" tabindex="-1" aria-label="x, 103, 2.9. Data." style="outline:0" transform="translate(62 85)"/><path d="M331.5 126.938a1.5 1.5 0 1 1 .001 0Z" class="highcharts-point highcharts-color-1" tabindex="-1" aria-label="x, 104, 3. Data." style="outline:0" transform="translate(62 85)"/><path d="M335.5 126.938a1.5 1.5 0 1 1 .001 0Z" class="highcharts-point highcharts-color-1" tabindex="-1" aria-label="x, 105, 3. Data." style="outline:0" transform="translate(62 85)"/><path d="M338.5 161.781a1.5 1.5 0 1 1 .001 0Z" class="highcharts-point highcharts-color-1" tabindex="-1" aria-label="x, 106, 2.5. Data." style="outline:0" transform="translate(62 85)"/><path d="M341.5 133.906a1.5 1.5 0 1 1 .001 0Z" class="highcharts-point highcharts-color-1" tabindex="-1" aria-label="x, 107, 2.9. Data." style="outline:0" transform="translate(62 85)"/><path d="M344.5 161.781a1.5 1.5 0 1 1 .001 0Z" class="highcharts-point highcharts-color-1" tabindex="-1" aria-label="x, 108, 2.5. Data." style="outline:0" transform="translate(62 85)"/><path d="M347.5 85.125a1.5 1.5 0 1 1 .001 0Z" class="highcharts-point highcharts-color-1" tabindex="-1" aria-label="x, 109, 3.6. Data." style="outline:0" transform="translate(62 85)"/><path d="M350.5 113a1.5 1.5 0 1 1 .001 0Z" class="highcharts-point highcharts-color-1" tabindex="-1" aria-label="x, 110, 3.2. Data." style="outline:0" transform="translate(62 85)"/><path d="M354.5 147.844a1.5 1.5 0 1 1 .001 0Z" class="highcharts-point highcharts-color-1" tabindex="-1" aria-label="x, 111, 2.7. Data." style="outline:0" transform="translate(62 85)"/><path d="M357.5 126.938a1.5 1.5 0 1 1 .001 0Z" class="highcharts-point highcharts-color-1" tabindex="-1" aria-label="x, 112, 3. Data." style="outline:0" transform="translate(62 85)"/><path d="M360.5 161.781a1.5 1.5 0 1 1 .001 0Z" class="highcharts-point highcharts-color-1" tabindex="-1" aria-label="x, 113, 2.5. Data." style="outline:0" transform="translate(62 85)"/><path d="M363.5 140.875a1.5 1.5 0 1 1 .001 0Z" class="highcharts-point highcharts-color-1" tabindex="-1" aria-label="x, 114, 2.8. Data." style="outline:0" transform="translate(62 85)"/><path d="M366.5 113a1.5 1.5 0 1 1 .001 0Z" class="highcharts-point highcharts-color-1" tabindex="-1" aria-label="x, 115, 3.2. Data." style="outline:0" transform="translate(62 85)"/><path d="M369.5 126.938a1.5 1.5 0 1 1 .001 0Z" class="highcharts-point highcharts-color-1" tabindex="-1" aria-label="x, 116, 3. Data." style="outline:0" transform="translate(62 85)"/><path d="M372.5 71.188a1.5 1.5 0 1 1 .001 0Z" class="highcharts-point highcharts-color-1" tabindex="-1" aria-label="x, 117, 3.8. Data." style="outline:0" transform="translate(62 85)"/><path d="M376.5 154.813a1.5 1.5 0 1 1 .001 0Z" class="highcharts-point highcharts-color-1" tabindex="-1" aria-label="x, 118, 2.6. Data." style="outline:0" transform="translate(62 85)"/><path d="M379.5 182.688a1.5 1.5 0 1 1 .001 0Z" class="highcharts-point highcharts-color-1" tabindex="-1" aria-label="x, 119, 2.2. Data." style="outline:0" transform="translate(62 85)"/><path d="M382.5 113a1.5 1.5 0 1 1 .001 0Z" class="highcharts-point highcharts-color-1" tabindex="-1" aria-label="x, 120, 3.2. Data." style="outline:0" transform="translate(62 85)"/><path d="M385.5 140.875a1.5 1.5 0 1 1 .001 0Z" class="highcharts-point highcharts-color-1" tabindex="-1" aria-label="x, 121, 2.8. Data." style="outline:0" transform="translate(62 85)"/><path d="M388.5 140.875a1.5 1.5 0 1 1 .001 0Z" class="highcharts-point highcharts-color-1" tabindex="-1" aria-label="x, 122, 2.8. Data." style="outline:0" transform="translate(62 85)"/><path d="M391.5 147.844a1.5 1.5 0 1 1 .001 0Z" class="highcharts-point highcharts-color-1" tabindex="-1" aria-label="x, 123, 2.7. Data." style="outline:0" transform="translate(62 85)"/><path d="M395.5 106.031a1.5 1.5 0 1 1 .001 0Z" class="highcharts-point highcharts-color-1" tabindex="-1" aria-label="x, 124, 3.3. Data." style="outline:0" transform="translate(62 85)"/><path d="M398.5 113a1.5 1.5 0 1 1 .001 0Z" class="highcharts-point highcharts-color-1" tabindex="-1" aria-label="x, 125, 3.2. Data." style="outline:0" transform="translate(62 85)"/><path d="M401.5 140.875a1.5 1.5 0 1 1 .001 0Z" class="highcharts-point highcharts-color-1" tabindex="-1" aria-label="x, 126, 2.8. Data." style="outline:0" transform="translate(62 85)"/><path d="M404.5 126.938a1.5 1.5 0 1 1 .001 0Z" class="highcharts-point highcharts-color-1" tabindex="-1" aria-label="x, 127, 3. Data." style="outline:0" transform="translate(62 85)"/><path d="M407.5 140.875a1.5 1.5 0 1 1 .001 0Z" class="highcharts-point highcharts-color-1" tabindex="-1" aria-label="x, 128, 2.8. Data." style="outline:0" transform="translate(62 85)"/><path d="M410.5 126.938a1.5 1.5 0 1 1 .001 0Z" class="highcharts-point highcharts-color-1" tabindex="-1" aria-label="x, 129, 3. Data." style="outline:0" transform="translate(62 85)"/><path d="M413.5 140.875a1.5 1.5 0 1 1 .001 0Z" class="highcharts-point highcharts-color-1" tabindex="-1" aria-label="x, 130, 2.8. Data." style="outline:0" transform="translate(62 85)"/><path d="M417.5 71.188a1.5 1.5 0 1 1 .001 0Z" class="highcharts-point highcharts-color-1" tabindex="-1" aria-label="x, 131, 3.8. Data." style="outline:0" transform="translate(62 85)"/><path d="M420.5 140.875a1.5 1.5 0 1 1 .001 0Z" class="highcharts-point highcharts-color-1" tabindex="-1" aria-label="x, 132, 2.8. Data." style="outline:0" transform="translate(62 85)"/><path d="M423.5 140.875a1.5 1.5 0 1 1 .001 0Z" class="highcharts-point highcharts-color-1" tabindex="-1" aria-label="x, 133, 2.8. Data." style="outline:0" transform="translate(62 85)"/><path d="M426.5 154.813a1.5 1.5 0 1 1 .001 0Z" class="highcharts-point highcharts-color-1" tabindex="-1" aria-label="x, 134, 2.6. Data." style="outline:0" transform="translate(62 85)"/><path d="M429.5 126.938a1.5 1.5 0 1 1 .001 0Z" class="highcharts-point highcharts-color-1" tabindex="-1" aria-label="x, 135, 3. Data." style="outline:0" transform="translate(62 85)"/><path d="M432.5 99.063a1.5 1.5 0 1 1 .001 0Z" class="highcharts-point highcharts-color-1" tabindex="-1" aria-label="x, 136, 3.4. Data." style="outline:0" transform="translate(62 85)"/><path d="M435.5 119.969a1.5 1.5 0 1 1 .001 0Z" class="highcharts-point highcharts-color-1" tabindex="-1" aria-label="x, 137, 3.1. Data." style="outline:0" transform="translate(62 85)"/><path d="M439.5 126.938a1.5 1.5 0 1 1 .001 0Z" class="highcharts-point highcharts-color-1" tabindex="-1" aria-label="x, 138, 3. Data." style="outline:0" transform="translate(62 85)"/><path d="M442.5 119.969a1.5 1.5 0 1 1 .001 0Z" class="highcharts-point highcharts-color-1" tabindex="-1" aria-label="x, 139, 3.1. Data." style="outline:0" transform="translate(62 85)"/><path d="M445.5 119.969a1.5 1.5 0 1 1 .001 0Z" class="highcharts-point highcharts-color-1" tabindex="-1" aria-label="x, 140, 3.1. Data." style="outline:0" transform="translate(62 85)"/><path d="M448.5 119.969a1.5 1.5 0 1 1 .001 0Z" class="highcharts-point highcharts-color-1" tabindex="-1" aria-label="x, 141, 3.1. Data." style="outline:0" transform="translate(62 85)"/><path d="M451.5 147.844a1.5 1.5 0 1 1 .001 0Z" class="highcharts-point highcharts-color-1" tabindex="-1" aria-label="x, 142, 2.7. Data." style="outline:0" transform="translate(62 85)"/><path d="M454.5 113a1.5 1.5 0 1 1 .001 0Z" class="highcharts-point highcharts-color-1" tabindex="-1" aria-label="x, 143, 3.2. Data." style="outline:0" transform="translate(62 85)"/><path d="M458.5 106.031a1.5 1.5 0 1 1 .001 0Z" class="highcharts-point highcharts-color-1" tabindex="-1" aria-label="x, 144, 3.3. Data." style="outline:0" transform="translate(62 85)"/><path d="M461.5 126.938a1.5 1.5 0 1 1 .001 0Z" class="highcharts-point highcharts-color-1" tabindex="-1" aria-label="x, 145, 3. Data." style="outline:0" transform="translate(62 85)"/><path d="M464.5 161.781a1.5 1.5 0 1 1 .001 0Z" class="highcharts-point highcharts-color-1" tabindex="-1" aria-label="x, 146, 2.5. Data." style="outline:0" transform="translate(62 85)"/><path d="M467.5 126.938a1.5 1.5 0 1 1 .001 0Z" class="highcharts-point highcharts-color-1" tabindex="-1" aria-label="x, 147, 3. Data." style="outline:0" transform="translate(62 85)"/><path d="M470.5 99.063a1.5 1.5 0 1 1 .001 0Z" class="highcharts-point highcharts-color-1" tabindex="-1" aria-label="x, 148, 3.4. Data." style="outline:0" transform="translate(62 85)"/><path d="M473.5 126.938a1.5 1.5 0 1 1 .001 0Z" class="highcharts-point highcharts-color-1" tabindex="-1" aria-label="x, 149, 3. Data." style="outline:0" transform="translate(62 85)"/></g></g><text x="300" text-anchor="middle" class="highcharts-title" data-z-index="4" style="color:#000;font-size:16px;font-weight:700;fill:#000" y="22" aria-hidden="true">Highcharts Histogram</text><g class="highcharts-legend highcharts-no-tooltip" data-z-index="7" transform="translate(218 358)" aria-hidden="true"><rect fill="#E0E0E8" class="highcharts-legend-box" rx="0" ry="0" width="163" height="27"/><g data-z-index="1"><g class="highcharts-legend-item highcharts-histogram-series highcharts-color-0 highcharts-series-0" data-z-index="1" transform="translate(8 3)"><text x="21" data-z-index="2" y="16" style="color:#333;cursor:pointer;font-size:13px;font-weight:700;fill:#333">Histogram</text><rect x="1.5" y="4" width="13" height="13" fill="#f45b5b" rx="6.5" ry="6.5" class="highcharts-point" data-z-index="3"/></g><g class="highcharts-legend-item highcharts-scatter-series highcharts-color-1 highcharts-series-1" data-z-index="1"><path fill="none" d="M108.21 15h16" class="highcharts-graph"/><path fill="#8085e9" d="M116.71 17a1.5 1.5 0 1 1 .002 0Z" class="highcharts-point"/><text x="21" y="16" data-z-index="2" style="color:#333;cursor:pointer;font-size:13px;font-weight:700;fill:#333" transform="translate(108.21 3)">Data</text></g></g></g><g class="highcharts-axis-labels highcharts-xaxis-labels" data-z-index="7" aria-hidden="true" text-anchor="middle"><text x="66.696" style="color:#6e6e70;cursor:default;font-size:11px;fill:#6e6e70" y="327">0</text><text x="145.489" style="color:#6e6e70;cursor:default;font-size:11px;fill:#6e6e70" y="327">25</text><text x="224.283" style="color:#6e6e70;cursor:default;font-size:11px;fill:#6e6e70" y="327">50</text><text x="303.076" style="color:#6e6e70;cursor:default;font-size:11px;fill:#6e6e70" y="327">75</text><text x="381.869" style="color:#6e6e70;cursor:default;font-size:11px;fill:#6e6e70" y="327">100</text><text x="460.662" style="color:#6e6e70;cursor:default;font-size:11px;fill:#6e6e70" y="327">125</text><text x="539.456" style="color:#6e6e70;cursor:default;font-size:11px;fill:#6e6e70" y="327">150</text></g><g class="highcharts-axis-labels highcharts-xaxis-labels" data-z-index="7" aria-hidden="true" text-anchor="middle"><text x="66.341" style="color:#6e6e70;cursor:default;font-size:11px;fill:#6e6e70" y="73">2</text><text x="164.324" style="color:#6e6e70;cursor:default;font-size:11px;fill:#6e6e70" y="73">2.5</text><text x="262.307" style="color:#6e6e70;cursor:default;font-size:11px;fill:#6e6e70" y="73">3</text><text x="360.29" style="color:#6e6e70;cursor:default;font-size:11px;fill:#6e6e70" y="73">3.5</text><text x="458.272" style="color:#6e6e70;cursor:default;font-size:11px;fill:#6e6e70" y="73">4</text></g><g class="highcharts-axis-labels highcharts-yaxis-labels" data-z-index="7" aria-hidden="true" text-anchor="end"><text x="47" style="color:#6e6e70;cursor:default;font-size:11px;fill:#6e6e70" y="313">1.6</text><text x="47" style="color:#6e6e70;cursor:default;font-size:11px;fill:#6e6e70" y="257">2.4</text><text x="47" style="color:#6e6e70;cursor:default;font-size:11px;fill:#6e6e70" y="201">3.2</text><text x="47" style="color:#6e6e70;cursor:default;font-size:11px;fill:#6e6e70" y="146">4</text><text x="47" style="color:#6e6e70;cursor:default;font-size:11px;fill:#6e6e70" y="90">4.8</text></g><g class="highcharts-axis-labels highcharts-yaxis-labels" data-z-index="7" aria-hidden="true"><text x="556" style="color:#6e6e70;cursor:default;font-size:11px;fill:#6e6e70" y="313">0</text><text x="556" style="color:#6e6e70;cursor:default;font-size:11px;fill:#6e6e70" y="257">10</text><text x="556" style="color:#6e6e70;cursor:default;font-size:11px;fill:#6e6e70" y="201">20</text><text x="556" style="color:#6e6e70;cursor:default;font-size:11px;fill:#6e6e70" y="146">30</text><text x="556" style="color:#6e6e70;cursor:default;font-size:11px;fill:#6e6e70" y="90">40</text></g></svg>