<svg class="highcharts-root" style="font-family:Signika,serif;font-size:12px" xmlns="http://www.w3.org/2000/svg" width="600" height="480" aria-label="Interactive chart" aria-hidden="false"><defs aria-hidden="true"><clipPath id="a"><path fill="none" d="M0 0h370v580H0z"/></clipPath></defs><rect fill="none" class="highcharts-background" width="600" height="480" rx="0" ry="0" aria-hidden="true"/><path fill="none" class="highcharts-plot-background" aria-hidden="true" d="M10 56h580v370H10z"/><path fill="none" class="highcharts-plot-border" data-z-index="1" aria-hidden="true" d="M10 56h580v370H10z"/><g class="highcharts-series-group" data-z-index="3" aria-hidden="false"><g class="highcharts-series highcharts-series-0 highcharts-tilemap-series highcharts-color-0 highcharts-tracker" data-z-index=".1" clip-path="url(#a)" aria-hidden="false" transform="matrix(0 -1 -1 0 590 426)"><path fill="none" d="M119 229H98l-10.87-21L98 187h21l11.87 21Z" stroke="#000" stroke-width="5" stroke-opacity=".05" class="highcharts-shadow"/><path fill="none" d="M119 229H98l-10.87-21L98 187h21l11.87 21Z" stroke="#000" stroke-width="3" stroke-opacity=".1" class="highcharts-shadow"/><path fill="none" d="M119 229H98l-10.87-21L98 187h21l11.87 21Z" stroke="#000" stroke-opacity=".15" class="highcharts-shadow"/><path fill="#FFC428" d="M120 230H99l-10.87-21L99 188h21l11.87 21Z" class="highcharts-point" tabindex="-1" aria-label="1. Alabama, 4849377." style="outline:0"/><path fill="none" d="M343 552h-21l-10.87-21L322 510h21l11.87 21Z" stroke="#000" stroke-width="5" stroke-opacity=".05" class="highcharts-shadow"/><path fill="none" d="M343 552h-21l-10.87-21L322 510h21l11.87 21Z" stroke="#000" stroke-width="3" stroke-opacity=".1" class="highcharts-shadow"/><path fill="none" d="M343 552h-21l-10.87-21L322 510h21l11.87 21Z" stroke="#000" stroke-opacity=".15" class="highcharts-shadow"/><path fill="#F9EDB3" d="M344 553h-21l-10.87-21L323 511h21l11.87 21Z" class="highcharts-point" tabindex="-1" aria-label="2. Alaska, 737732." style="outline:0"/><path fill="none" d="M157 437h-21l-11.957-21L136 395h21l10.957 21Z" stroke="#000" stroke-width="5" stroke-opacity=".05" class="highcharts-shadow"/><path fill="none" d="M157 437h-21l-11.957-21L136 395h21l10.957 21Z" stroke="#000" stroke-width="3" stroke-opacity=".1" class="highcharts-shadow"/><path fill="none" d="M157 437h-21l-11.957-21L136 395h21l10.957 21Z" stroke="#000" stroke-opacity=".15" class="highcharts-shadow"/><path fill="#FF7987" d="M158 438h-21l-11.957-21L137 396h21l10.957 21Z" class="highcharts-point" tabindex="-1" aria-label="3. Arizona, 6745408." style="outline:0"/><path fill="none" d="M157 298h-21l-11.957-21L136 256h21l10.957 21Z" stroke="#000" stroke-width="5" stroke-opacity=".05" class="highcharts-shadow"/><path fill="none" d="M157 298h-21l-11.957-21L136 256h21l10.957 21Z" stroke="#000" stroke-width="3" stroke-opacity=".1" class="highcharts-shadow"/><path fill="none" d="M157 298h-21l-11.957-21L136 256h21l10.957 21Z" stroke="#000" stroke-opacity=".15" class="highcharts-shadow"/><path fill="#FFC428" d="M158 299h-21l-11.957-21L137 257h21l10.957 21Z" class="highcharts-point" tabindex="-1" aria-label="4. Arkansas, 2994079." style="outline:0"/><path fill="none" d="M157 483h-21l-11.957-21L136 441h21l10.957 21Z" stroke="#000" stroke-width="5" stroke-opacity=".05" class="highcharts-shadow"/><path fill="none" d="M157 483h-21l-11.957-21L136 441h21l10.957 21Z" stroke="#000" stroke-width="3" stroke-opacity=".1" class="highcharts-shadow"/><path fill="none" d="M157 483h-21l-11.957-21L136 441h21l10.957 21Z" stroke="#000" stroke-opacity=".15" class="highcharts-shadow"/><path fill="#FF2371" d="M158 484h-21l-11.957-21L137 442h21l10.957 21Z" class="highcharts-point" tabindex="-1" aria-label="5. California, 39250017." style="outline:0"/><path fill="none" d="M194 414h-21l-10.957-21L173 372h21l10.957 21Z" stroke="#000" stroke-width="5" stroke-opacity=".05" class="highcharts-shadow"/><path fill="none" d="M194 414h-21l-10.957-21L173 372h21l10.957 21Z" stroke="#000" stroke-width="3" stroke-opacity=".1" class="highcharts-shadow"/><path fill="none" d="M194 414h-21l-10.957-21L173 372h21l10.957 21Z" stroke="#000" stroke-opacity=".15" class="highcharts-shadow"/><path fill="#FF7987" d="M195 415h-21l-10.957-21L174 373h21l10.957 21Z" class="highcharts-point" tabindex="-1" aria-label="6. Colorado, 5540545." style="outline:0"/><path fill="none" d="M231 68h-21l-10.917-21L210 25h21l11.917 22Z" stroke="#000" stroke-width="5" stroke-opacity=".05" class="highcharts-shadow"/><path fill="none" d="M231 68h-21l-10.917-21L210 25h21l11.917 22Z" stroke="#000" stroke-width="3" stroke-opacity=".1" class="highcharts-shadow"/><path fill="none" d="M231 68h-21l-10.917-21L210 25h21l11.917 22Z" stroke="#000" stroke-opacity=".15" class="highcharts-shadow"/><path fill="#FFC428" d="M232 69h-21l-10.917-21L211 26h21l11.917 22Z" class="highcharts-point" tabindex="-1" aria-label="7. Connecticut, 3596677." style="outline:0"/><path fill="none" d="M194 137h-21l-10.957-21L173 95h21l10.957 21Z" stroke="#000" stroke-width="5" stroke-opacity=".05" class="highcharts-shadow"/><path fill="none" d="M194 137h-21l-10.957-21L173 95h21l10.957 21Z" stroke="#000" stroke-width="3" stroke-opacity=".1" class="highcharts-shadow"/><path fill="none" d="M194 137h-21l-10.957-21L173 95h21l10.957 21Z" stroke="#000" stroke-opacity=".15" class="highcharts-shadow"/><path fill="#F9EDB3" d="M195 138h-21l-10.957-21L174 96h21l10.957 21Z" class="highcharts-point" tabindex="-1" aria-label="8. Delaware, 935614." style="outline:0"/><path fill="none" d="M194 91h-21l-10.957-21L173 49h21l10.957 21Z" stroke="#000" stroke-width="5" stroke-opacity=".05" class="highcharts-shadow"/><path fill="none" d="M194 91h-21l-10.957-21L173 49h21l10.957 21Z" stroke="#000" stroke-width="3" stroke-opacity=".1" class="highcharts-shadow"/><path fill="none" d="M194 91h-21l-10.957-21L173 49h21l10.957 21Z" stroke="#000" stroke-opacity=".15" class="highcharts-shadow"/><path fill="#FF7987" d="M195 92h-21l-10.957-21L174 50h21l10.957 21Z" class="highcharts-point" tabindex="-1" aria-label="9. District of Columbia, 7288000." style="outline:0"/><path fill="none" d="M45 183H24l-11.957-21L24 141h21l10.957 21Z" stroke="#000" stroke-width="5" stroke-opacity=".05" class="highcharts-shadow"/><path fill="none" d="M45 183H24l-11.957-21L24 141h21l10.957 21Z" stroke="#000" stroke-width="3" stroke-opacity=".1" class="highcharts-shadow"/><path fill="none" d="M45 183H24l-11.957-21L24 141h21l10.957 21Z" stroke="#000" stroke-opacity=".15" class="highcharts-shadow"/><path fill="#FF2371" d="M46 184H25l-11.957-21L25 142h21l10.957 21Z" class="highcharts-point" tabindex="-1" aria-label="10. Florida, 20612439." style="outline:0"/><path fill="none" d="M82 206H61l-10.957-21L61 164h21l10.957 21Z" stroke="#000" stroke-width="5" stroke-opacity=".05" class="highcharts-shadow"/><path fill="none" d="M82 206H61l-10.957-21L61 164h21l10.957 21Z" stroke="#000" stroke-width="3" stroke-opacity=".1" class="highcharts-shadow"/><path fill="none" d="M82 206H61l-10.957-21L61 164h21l10.957 21Z" stroke="#000" stroke-opacity=".15" class="highcharts-shadow"/><path fill="#FF7987" d="M83 207H62l-10.957-21L62 165h21l10.957 21Z" class="highcharts-point" tabindex="-1" aria-label="11. Georgia, 10310371." style="outline:0"/><path fill="none" d="M45 552H24l-11.957-21L24 510h21l10.957 21Z" stroke="#000" stroke-width="5" stroke-opacity=".05" class="highcharts-shadow"/><path fill="none" d="M45 552H24l-11.957-21L24 510h21l10.957 21Z" stroke="#000" stroke-width="3" stroke-opacity=".1" class="highcharts-shadow"/><path fill="none" d="M45 552H24l-11.957-21L24 510h21l10.957 21Z" stroke="#000" stroke-opacity=".15" class="highcharts-shadow"/><path fill="#FFC428" d="M46 553H25l-11.957-21L25 511h21l10.957 21Z" class="highcharts-point" tabindex="-1" aria-label="12. Hawaii, 1419561." style="outline:0"/><path fill="none" d="M231 483h-21l-10.87-21L210 441h21l11.87 21Z" stroke="#000" stroke-width="5" stroke-opacity=".05" class="highcharts-shadow"/><path fill="none" d="M231 483h-21l-10.87-21L210 441h21l11.87 21Z" stroke="#000" stroke-width="3" stroke-opacity=".1" class="highcharts-shadow"/><path fill="none" d="M231 483h-21l-10.87-21L210 441h21l11.87 21Z" stroke="#000" stroke-opacity=".15" class="highcharts-shadow"/><path fill="#FFC428" d="M232 484h-21l-10.87-21L211 442h21l11.87 21Z" class="highcharts-point" tabindex="-1" aria-label="13. Idaho, 1634464." style="outline:0"/><path fill="none" d="M231 298h-21l-10.87-21L210 256h21l11.87 21Z" stroke="#000" stroke-width="5" stroke-opacity=".05" class="highcharts-shadow"/><path fill="none" d="M231 298h-21l-10.87-21L210 256h21l11.87 21Z" stroke="#000" stroke-width="3" stroke-opacity=".1" class="highcharts-shadow"/><path fill="none" d="M231 298h-21l-10.87-21L210 256h21l11.87 21Z" stroke="#000" stroke-opacity=".15" class="highcharts-shadow"/><path fill="#FF7987" d="M232 299h-21l-10.87-21L211 257h21l11.87 21Z" class="highcharts-point" tabindex="-1" aria-label="14. Illinois, 12801539." style="outline:0"/><path fill="none" d="M231 252h-21l-10.87-21L210 210h21l11.87 21Z" stroke="#000" stroke-width="5" stroke-opacity=".05" class="highcharts-shadow"/><path fill="none" d="M231 252h-21l-10.87-21L210 210h21l11.87 21Z" stroke="#000" stroke-width="3" stroke-opacity=".1" class="highcharts-shadow"/><path fill="none" d="M231 252h-21l-10.87-21L210 210h21l11.87 21Z" stroke="#000" stroke-opacity=".15" class="highcharts-shadow"/><path fill="#FF7987" d="M232 253h-21l-10.87-21L211 211h21l11.87 21Z" class="highcharts-point" tabindex="-1" aria-label="15. Indiana, 6596855." style="outline:0"/><path fill="none" d="M231 345h-21l-10.917-21L210 302h21l11.917 22Z" stroke="#000" stroke-width="5" stroke-opacity=".05" class="highcharts-shadow"/><path fill="none" d="M231 345h-21l-10.917-21L210 302h21l11.917 22Z" stroke="#000" stroke-width="3" stroke-opacity=".1" class="highcharts-shadow"/><path fill="none" d="M231 345h-21l-10.917-21L210 302h21l11.917 22Z" stroke="#000" stroke-opacity=".15" class="highcharts-shadow"/><path fill="#FFC428" d="M232 346h-21l-10.917-21L211 303h21l11.917 22Z" class="highcharts-point" tabindex="-1" aria-label="16. Iowa, 3107126." style="outline:0"/><path fill="none" d="M157 345h-21l-12-21 12-22h21l11 22Z" stroke="#000" stroke-width="5" stroke-opacity=".05" class="highcharts-shadow"/><path fill="none" d="M157 345h-21l-12-21 12-22h21l11 22Z" stroke="#000" stroke-width="3" stroke-opacity=".1" class="highcharts-shadow"/><path fill="none" d="M157 345h-21l-12-21 12-22h21l11 22Z" stroke="#000" stroke-opacity=".15" class="highcharts-shadow"/><path fill="#FFC428" d="M158 346h-21l-12-21 12-22h21l11 22Z" class="highcharts-point" tabindex="-1" aria-label="17. Kansas, 2904021." style="outline:0"/><path fill="none" d="M194 275h-21l-10.957-21L173 233h21l10.957 21Z" stroke="#000" stroke-width="5" stroke-opacity=".05" class="highcharts-shadow"/><path fill="none" d="M194 275h-21l-10.957-21L173 233h21l10.957 21Z" stroke="#000" stroke-width="3" stroke-opacity=".1" class="highcharts-shadow"/><path fill="none" d="M194 275h-21l-10.957-21L173 233h21l10.957 21Z" stroke="#000" stroke-opacity=".15" class="highcharts-shadow"/><path fill="#FFC428" d="M195 276h-21l-10.957-21L174 234h21l10.957 21Z" class="highcharts-point" tabindex="-1" aria-label="18. Kentucky, 4413457." style="outline:0"/><path fill="none" d="M119 322H98l-10.917-21L98 279h21l11.917 22Z" stroke="#000" stroke-width="5" stroke-opacity=".05" class="highcharts-shadow"/><path fill="none" d="M119 322H98l-10.917-21L98 279h21l11.917 22Z" stroke="#000" stroke-width="3" stroke-opacity=".1" class="highcharts-shadow"/><path fill="none" d="M119 322H98l-10.917-21L98 279h21l11.917 22Z" stroke="#000" stroke-opacity=".15" class="highcharts-shadow"/><path fill="#FFC428" d="M120 323H99l-10.917-21L99 280h21l11.917 22Z" class="highcharts-point" tabindex="-1" aria-label="19. Louisiana, 4649676." style="outline:0"/><path fill="none" d="M343 45h-21l-10.917-21L322 2h21l11.917 22Z" stroke="#000" stroke-width="5" stroke-opacity=".05" class="highcharts-shadow"/><path fill="none" d="M343 45h-21l-10.917-21L322 2h21l11.917 22Z" stroke="#000" stroke-width="3" stroke-opacity=".1" class="highcharts-shadow"/><path fill="none" d="M343 45h-21l-10.917-21L322 2h21l11.917 22Z" stroke="#000" stroke-opacity=".15" class="highcharts-shadow"/><path fill="#FFC428" d="M344 46h-21l-10.917-21L323 3h21l11.917 22Z" class="highcharts-point" tabindex="-1" aria-label="20. Maine, 1330089." style="outline:0"/><path fill="none" d="M194 183h-21l-10.957-21L173 141h21l10.957 21Z" stroke="#000" stroke-width="5" stroke-opacity=".05" class="highcharts-shadow"/><path fill="none" d="M194 183h-21l-10.957-21L173 141h21l10.957 21Z" stroke="#000" stroke-width="3" stroke-opacity=".1" class="highcharts-shadow"/><path fill="none" d="M194 183h-21l-10.957-21L173 141h21l10.957 21Z" stroke="#000" stroke-opacity=".15" class="highcharts-shadow"/><path fill="#FF7987" d="M195 184h-21l-10.957-21L174 142h21l10.957 21Z" class="highcharts-point" tabindex="-1" aria-label="21. Maryland, 6016447." style="outline:0"/><path fill="none" d="M269 91h-21l-11.957-21L248 49h21l10.957 21Z" stroke="#000" stroke-width="5" stroke-opacity=".05" class="highcharts-shadow"/><path fill="none" d="M269 91h-21l-11.957-21L248 49h21l10.957 21Z" stroke="#000" stroke-width="3" stroke-opacity=".1" class="highcharts-shadow"/><path fill="none" d="M269 91h-21l-11.957-21L248 49h21l10.957 21Z" stroke="#000" stroke-opacity=".15" class="highcharts-shadow"/><path fill="#FF7987" d="M270 92h-21l-11.957-21L249 50h21l10.957 21Z" class="highcharts-point" tabindex="-1" aria-label="22. Massachusetts, 6811779." style="outline:0"/><path fill="none" d="M269 229h-21l-11.957-21L248 187h21l10.957 21Z" stroke="#000" stroke-width="5" stroke-opacity=".05" class="highcharts-shadow"/><path fill="none" d="M269 229h-21l-11.957-21L248 187h21l10.957 21Z" stroke="#000" stroke-width="3" stroke-opacity=".1" class="highcharts-shadow"/><path fill="none" d="M269 229h-21l-11.957-21L248 187h21l10.957 21Z" stroke="#000" stroke-opacity=".15" class="highcharts-shadow"/><path fill="#FF7987" d="M270 230h-21l-11.957-21L249 188h21l10.957 21Z" class="highcharts-point" tabindex="-1" aria-label="23. Michigan, 9928301." style="outline:0"/><path fill="none" d="M269 368h-21l-11.957-21L248 326h21l10.957 21Z" stroke="#000" stroke-width="5" stroke-opacity=".05" class="highcharts-shadow"/><path fill="none" d="M269 368h-21l-11.957-21L248 326h21l10.957 21Z" stroke="#000" stroke-width="3" stroke-opacity=".1" class="highcharts-shadow"/><path fill="none" d="M269 368h-21l-11.957-21L248 326h21l10.957 21Z" stroke="#000" stroke-opacity=".15" class="highcharts-shadow"/><path fill="#FF7987" d="M270 369h-21l-11.957-21L249 327h21l10.957 21Z" class="highcharts-point" tabindex="-1" aria-label="24. Minnesota, 5519952." style="outline:0"/><path fill="none" d="M119 275H98l-10.87-21L98 233h21l11.87 21Z" stroke="#000" stroke-width="5" stroke-opacity=".05" class="highcharts-shadow"/><path fill="none" d="M119 275H98l-10.87-21L98 233h21l11.87 21Z" stroke="#000" stroke-width="3" stroke-opacity=".1" class="highcharts-shadow"/><path fill="none" d="M119 275H98l-10.87-21L98 233h21l11.87 21Z" stroke="#000" stroke-opacity=".15" class="highcharts-shadow"/><path fill="#FFC428" d="M120 276H99l-10.87-21L99 234h21l11.87 21Z" class="highcharts-point" tabindex="-1" aria-label="25. Mississippi, 2984926." style="outline:0"/><path fill="none" d="M194 322h-21l-11-21 11-22h21l11 22Z" stroke="#000" stroke-width="5" stroke-opacity=".05" class="highcharts-shadow"/><path fill="none" d="M194 322h-21l-11-21 11-22h21l11 22Z" stroke="#000" stroke-width="3" stroke-opacity=".1" class="highcharts-shadow"/><path fill="none" d="M194 322h-21l-11-21 11-22h21l11 22Z" stroke="#000" stroke-opacity=".15" class="highcharts-shadow"/><path fill="#FF7987" d="M195 323h-21l-11-21 11-22h21l11 22Z" class="highcharts-point" tabindex="-1" aria-label="26. Missouri, 6093000." style="outline:0"/><path fill="none" d="M269 460h-21l-11.957-21L248 418h21l10.957 21Z" stroke="#000" stroke-width="5" stroke-opacity=".05" class="highcharts-shadow"/><path fill="none" d="M269 460h-21l-11.957-21L248 418h21l10.957 21Z" stroke="#000" stroke-width="3" stroke-opacity=".1" class="highcharts-shadow"/><path fill="none" d="M269 460h-21l-11.957-21L248 418h21l10.957 21Z" stroke="#000" stroke-opacity=".15" class="highcharts-shadow"/><path fill="#FFC428" d="M270 461h-21l-11.957-21L249 419h21l10.957 21Z" class="highcharts-point" tabindex="-1" aria-label="27. Montana, 1023579." style="outline:0"/><path fill="none" d="M194 368h-21l-10.957-21L173 326h21l10.957 21Z" stroke="#000" stroke-width="5" stroke-opacity=".05" class="highcharts-shadow"/><path fill="none" d="M194 368h-21l-10.957-21L173 326h21l10.957 21Z" stroke="#000" stroke-width="3" stroke-opacity=".1" class="highcharts-shadow"/><path fill="none" d="M194 368h-21l-10.957-21L173 326h21l10.957 21Z" stroke="#000" stroke-opacity=".15" class="highcharts-shadow"/><path fill="#FFC428" d="M195 369h-21l-10.957-21L174 327h21l10.957 21Z" class="highcharts-point" tabindex="-1" aria-label="28. Nebraska, 1881503." style="outline:0"/><path fill="none" d="M194 460h-21l-10.957-21L173 418h21l10.957 21Z" stroke="#000" stroke-width="5" stroke-opacity=".05" class="highcharts-shadow"/><path fill="none" d="M194 460h-21l-10.957-21L173 418h21l10.957 21Z" stroke="#000" stroke-width="3" stroke-opacity=".1" class="highcharts-shadow"/><path fill="none" d="M194 460h-21l-10.957-21L173 418h21l10.957 21Z" stroke="#000" stroke-opacity=".15" class="highcharts-shadow"/><path fill="#FFC428" d="M195 461h-21l-10.957-21L174 419h21l10.957 21Z" class="highcharts-point" tabindex="-1" aria-label="29. Nevada, 2839099." style="outline:0"/><path fill="none" d="M306 68h-21l-11-21 11-22h21l11 22Z" stroke="#000" stroke-width="5" stroke-opacity=".05" class="highcharts-shadow"/><path fill="none" d="M306 68h-21l-11-21 11-22h21l11 22Z" stroke="#000" stroke-width="3" stroke-opacity=".1" class="highcharts-shadow"/><path fill="none" d="M306 68h-21l-11-21 11-22h21l11 22Z" stroke="#000" stroke-opacity=".15" class="highcharts-shadow"/><path fill="#FFC428" d="M307 69h-21l-11-21 11-22h21l11 22Z" class="highcharts-point" tabindex="-1" aria-label="30. New Hampshire, 1326813." style="outline:0"/><path fill="none" d="M231 114h-21l-10.87-21L210 72h21l11.87 21Z" stroke="#000" stroke-width="5" stroke-opacity=".05" class="highcharts-shadow"/><path fill="none" d="M231 114h-21l-10.87-21L210 72h21l11.87 21Z" stroke="#000" stroke-width="3" stroke-opacity=".1" class="highcharts-shadow"/><path fill="none" d="M231 114h-21l-10.87-21L210 72h21l11.87 21Z" stroke="#000" stroke-opacity=".15" class="highcharts-shadow"/><path fill="#FF7987" d="M232 115h-21l-10.87-21L211 73h21l11.87 21Z" class="highcharts-point" tabindex="-1" aria-label="31. New Jersey, 8944469." style="outline:0"/><path fill="none" d="M119 414H98l-10.87-21L98 372h21l11.87 21Z" stroke="#000" stroke-width="5" stroke-opacity=".05" class="highcharts-shadow"/><path fill="none" d="M119 414H98l-10.87-21L98 372h21l11.87 21Z" stroke="#000" stroke-width="3" stroke-opacity=".1" class="highcharts-shadow"/><path fill="none" d="M119 414H98l-10.87-21L98 372h21l11.87 21Z" stroke="#000" stroke-opacity=".15" class="highcharts-shadow"/><path fill="#FFC428" d="M120 415H99l-10.87-21L99 373h21l11.87 21Z" class="highcharts-point" tabindex="-1" aria-label="32. New Mexico, 2085572." style="outline:0"/><path fill="none" d="M269 137h-21l-11.957-21L248 95h21l10.957 21Z" stroke="#000" stroke-width="5" stroke-opacity=".05" class="highcharts-shadow"/><path fill="none" d="M269 137h-21l-11.957-21L248 95h21l10.957 21Z" stroke="#000" stroke-width="3" stroke-opacity=".1" class="highcharts-shadow"/><path fill="none" d="M269 137h-21l-11.957-21L248 95h21l10.957 21Z" stroke="#000" stroke-opacity=".15" class="highcharts-shadow"/><path fill="#FF7987" d="M270 138h-21l-11.957-21L249 96h21l10.957 21Z" class="highcharts-point" tabindex="-1" aria-label="33. New York, 19745289." style="outline:0"/><path fill="none" d="M157 160h-21l-11.957-21L136 118h21l10.957 21Z" stroke="#000" stroke-width="5" stroke-opacity=".05" class="highcharts-shadow"/><path fill="none" d="M157 160h-21l-11.957-21L136 118h21l10.957 21Z" stroke="#000" stroke-width="3" stroke-opacity=".1" class="highcharts-shadow"/><path fill="none" d="M157 160h-21l-11.957-21L136 118h21l10.957 21Z" stroke="#000" stroke-opacity=".15" class="highcharts-shadow"/><path fill="#FF7987" d="M158 161h-21l-11.957-21L137 119h21l10.957 21Z" class="highcharts-point" tabindex="-1" aria-label="34. North Carolina, 10146788." style="outline:0"/><path fill="none" d="M269 414h-21l-11.957-21L248 372h21l10.957 21Z" stroke="#000" stroke-width="5" stroke-opacity=".05" class="highcharts-shadow"/><path fill="none" d="M269 414h-21l-11.957-21L248 372h21l10.957 21Z" stroke="#000" stroke-width="3" stroke-opacity=".1" class="highcharts-shadow"/><path fill="none" d="M269 414h-21l-11.957-21L248 372h21l10.957 21Z" stroke="#000" stroke-opacity=".15" class="highcharts-shadow"/><path fill="#F9EDB3" d="M270 415h-21l-11.957-21L249 373h21l10.957 21Z" class="highcharts-point" tabindex="-1" aria-label="35. North Dakota, 739482." style="outline:0"/><path fill="none" d="M231 206h-21l-10.87-21L210 164h21l11.87 21Z" stroke="#000" stroke-width="5" stroke-opacity=".05" class="highcharts-shadow"/><path fill="none" d="M231 206h-21l-10.87-21L210 164h21l11.87 21Z" stroke="#000" stroke-width="3" stroke-opacity=".1" class="highcharts-shadow"/><path fill="none" d="M231 206h-21l-10.87-21L210 164h21l11.87 21Z" stroke="#000" stroke-opacity=".15" class="highcharts-shadow"/><path fill="#FF7987" d="M232 207h-21l-10.87-21L211 165h21l11.87 21Z" class="highcharts-point" tabindex="-1" aria-label="36. Ohio, 11614373." style="outline:0"/><path fill="none" d="M119 368H98l-10.87-21L98 326h21l11.87 21Z" stroke="#000" stroke-width="5" stroke-opacity=".05" class="highcharts-shadow"/><path fill="none" d="M119 368H98l-10.87-21L98 326h21l11.87 21Z" stroke="#000" stroke-width="3" stroke-opacity=".1" class="highcharts-shadow"/><path fill="none" d="M119 368H98l-10.87-21L98 326h21l11.87 21Z" stroke="#000" stroke-opacity=".15" class="highcharts-shadow"/><path fill="#FFC428" d="M120 369H99l-10.87-21L99 327h21l11.87 21Z" class="highcharts-point" tabindex="-1" aria-label="37. Oklahoma, 3878051." style="outline:0"/><path fill="none" d="M194 506h-21l-10.957-21L173 464h21l10.957 21Z" stroke="#000" stroke-width="5" stroke-opacity=".05" class="highcharts-shadow"/><path fill="none" d="M194 506h-21l-10.957-21L173 464h21l10.957 21Z" stroke="#000" stroke-width="3" stroke-opacity=".1" class="highcharts-shadow"/><path fill="none" d="M194 506h-21l-10.957-21L173 464h21l10.957 21Z" stroke="#000" stroke-opacity=".15" class="highcharts-shadow"/><path fill="#FFC428" d="M195 507h-21l-10.957-21L174 465h21l10.957 21Z" class="highcharts-point" tabindex="-1" aria-label="38. Oregon, 3970239." style="outline:0"/><path fill="none" d="M231 160h-21l-10.87-21L210 118h21l11.87 21Z" stroke="#000" stroke-width="5" stroke-opacity=".05" class="highcharts-shadow"/><path fill="none" d="M231 160h-21l-10.87-21L210 118h21l11.87 21Z" stroke="#000" stroke-width="3" stroke-opacity=".1" class="highcharts-shadow"/><path fill="none" d="M231 160h-21l-10.87-21L210 118h21l11.87 21Z" stroke="#000" stroke-opacity=".15" class="highcharts-shadow"/><path fill="#FF7987" d="M232 161h-21l-10.87-21L211 119h21l11.87 21Z" class="highcharts-point" tabindex="-1" aria-label="39. Pennsylvania, 12784227." style="outline:0"/><path fill="none" d="M269 45h-21l-12-21 12-22h21l11 22Z" stroke="#000" stroke-width="5" stroke-opacity=".05" class="highcharts-shadow"/><path fill="none" d="M269 45h-21l-12-21 12-22h21l11 22Z" stroke="#000" stroke-width="3" stroke-opacity=".1" class="highcharts-shadow"/><path fill="none" d="M269 45h-21l-12-21 12-22h21l11 22Z" stroke="#000" stroke-opacity=".15" class="highcharts-shadow"/><path fill="#FFC428" d="M270 46h-21l-12-21 12-22h21l11 22Z" class="highcharts-point" tabindex="-1" aria-label="40. Rhode Island, 1055173." style="outline:0"/><path fill="none" d="M119 183H98l-10.87-21L98 141h21l11.87 21Z" stroke="#000" stroke-width="5" stroke-opacity=".05" class="highcharts-shadow"/><path fill="none" d="M119 183H98l-10.87-21L98 141h21l11.87 21Z" stroke="#000" stroke-width="3" stroke-opacity=".1" class="highcharts-shadow"/><path fill="none" d="M119 183H98l-10.87-21L98 141h21l11.87 21Z" stroke="#000" stroke-opacity=".15" class="highcharts-shadow"/><path fill="#FFC428" d="M120 184H99l-10.87-21L99 142h21l11.87 21Z" class="highcharts-point" tabindex="-1" aria-label="41. South Carolina, 4832482." style="outline:0"/><path fill="none" d="M231 391h-21l-10.87-21L210 349h21l11.87 21Z" stroke="#000" stroke-width="5" stroke-opacity=".05" class="highcharts-shadow"/><path fill="none" d="M231 391h-21l-10.87-21L210 349h21l11.87 21Z" stroke="#000" stroke-width="3" stroke-opacity=".1" class="highcharts-shadow"/><path fill="none" d="M231 391h-21l-10.87-21L210 349h21l11.87 21Z" stroke="#000" stroke-opacity=".15" class="highcharts-shadow"/><path fill="#F9EDB3" d="M232 392h-21l-10.87-21L211 350h21l11.87 21Z" class="highcharts-point" tabindex="-1" aria-label="42. South Dakota, 853175." style="outline:0"/><path fill="none" d="M157 252h-21l-11.957-21L136 210h21l10.957 21Z" stroke="#000" stroke-width="5" stroke-opacity=".05" class="highcharts-shadow"/><path fill="none" d="M157 252h-21l-11.957-21L136 210h21l10.957 21Z" stroke="#000" stroke-width="3" stroke-opacity=".1" class="highcharts-shadow"/><path fill="none" d="M157 252h-21l-11.957-21L136 210h21l10.957 21Z" stroke="#000" stroke-opacity=".15" class="highcharts-shadow"/><path fill="#FF7987" d="M158 253h-21l-11.957-21L137 211h21l10.957 21Z" class="highcharts-point" tabindex="-1" aria-label="43. Tennessee, 6651194." style="outline:0"/><path fill="none" d="M82 391H61l-10.957-21L61 349h21l10.957 21Z" stroke="#000" stroke-width="5" stroke-opacity=".05" class="highcharts-shadow"/><path fill="none" d="M82 391H61l-10.957-21L61 349h21l10.957 21Z" stroke="#000" stroke-width="3" stroke-opacity=".1" class="highcharts-shadow"/><path fill="none" d="M82 391H61l-10.957-21L61 349h21l10.957 21Z" stroke="#000" stroke-opacity=".15" class="highcharts-shadow"/><path fill="#FF2371" d="M83 392H62l-10.957-21L62 350h21l10.957 21Z" class="highcharts-point" tabindex="-1" aria-label="44. Texas, 27862596." style="outline:0"/><path fill="none" d="M157 391h-21l-11.957-21L136 349h21l10.957 21Z" stroke="#000" stroke-width="5" stroke-opacity=".05" class="highcharts-shadow"/><path fill="none" d="M157 391h-21l-11.957-21L136 349h21l10.957 21Z" stroke="#000" stroke-width="3" stroke-opacity=".1" class="highcharts-shadow"/><path fill="none" d="M157 391h-21l-11.957-21L136 349h21l10.957 21Z" stroke="#000" stroke-opacity=".15" class="highcharts-shadow"/><path fill="#FFC428" d="M158 392h-21l-11.957-21L137 350h21l10.957 21Z" class="highcharts-point" tabindex="-1" aria-label="45. Utah, 2942902." style="outline:0"/><path fill="none" d="M306 114h-21l-10.957-21L285 72h21l10.957 21Z" stroke="#000" stroke-width="5" stroke-opacity=".05" class="highcharts-shadow"/><path fill="none" d="M306 114h-21l-10.957-21L285 72h21l10.957 21Z" stroke="#000" stroke-width="3" stroke-opacity=".1" class="highcharts-shadow"/><path fill="none" d="M306 114h-21l-10.957-21L285 72h21l10.957 21Z" stroke="#000" stroke-opacity=".15" class="highcharts-shadow"/><path fill="#F9EDB3" d="M307 115h-21l-10.957-21L286 73h21l10.957 21Z" class="highcharts-point" tabindex="-1" aria-label="46. Vermont, 626011." style="outline:0"/><path fill="none" d="M157 206h-21l-11.957-21L136 164h21l10.957 21Z" stroke="#000" stroke-width="5" stroke-opacity=".05" class="highcharts-shadow"/><path fill="none" d="M157 206h-21l-11.957-21L136 164h21l10.957 21Z" stroke="#000" stroke-width="3" stroke-opacity=".1" class="highcharts-shadow"/><path fill="none" d="M157 206h-21l-11.957-21L136 164h21l10.957 21Z" stroke="#000" stroke-opacity=".15" class="highcharts-shadow"/><path fill="#FF7987" d="M158 207h-21l-11.957-21L137 165h21l10.957 21Z" class="highcharts-point" tabindex="-1" aria-label="47. Virginia, 8411808." style="outline:0"/><path fill="none" d="M269 506h-21l-11.957-21L248 464h21l10.957 21Z" stroke="#000" stroke-width="5" stroke-opacity=".05" class="highcharts-shadow"/><path fill="none" d="M269 506h-21l-11.957-21L248 464h21l10.957 21Z" stroke="#000" stroke-width="3" stroke-opacity=".1" class="highcharts-shadow"/><path fill="none" d="M269 506h-21l-11.957-21L248 464h21l10.957 21Z" stroke="#000" stroke-opacity=".15" class="highcharts-shadow"/><path fill="#FF7987" d="M270 507h-21l-11.957-21L249 465h21l10.957 21Z" class="highcharts-point" tabindex="-1" aria-label="48. Washington, 7288000." style="outline:0"/><path fill="none" d="M194 229h-21l-10.957-21L173 187h21l10.957 21Z" stroke="#000" stroke-width="5" stroke-opacity=".05" class="highcharts-shadow"/><path fill="none" d="M194 229h-21l-10.957-21L173 187h21l10.957 21Z" stroke="#000" stroke-width="3" stroke-opacity=".1" class="highcharts-shadow"/><path fill="none" d="M194 229h-21l-10.957-21L173 187h21l10.957 21Z" stroke="#000" stroke-opacity=".15" class="highcharts-shadow"/><path fill="#FFC428" d="M195 230h-21l-10.957-21L174 188h21l10.957 21Z" class="highcharts-point" tabindex="-1" aria-label="49. West Virginia, 1850326." style="outline:0"/><path fill="none" d="M269 322h-21l-12-21 12-22h21l11 22Z" stroke="#000" stroke-width="5" stroke-opacity=".05" class="highcharts-shadow"/><path fill="none" d="M269 322h-21l-12-21 12-22h21l11 22Z" stroke="#000" stroke-width="3" stroke-opacity=".1" class="highcharts-shadow"/><path fill="none" d="M269 322h-21l-12-21 12-22h21l11 22Z" stroke="#000" stroke-opacity=".15" class="highcharts-shadow"/><path fill="#FF7987" d="M270 323h-21l-12-21 12-22h21l11 22Z" class="highcharts-point" tabindex="-1" aria-label="50. Wisconsin, 5778708." style="outline:0"/><path fill="none" d="M231 437h-21l-10.87-21L210 395h21l11.87 21Z" stroke="#000" stroke-width="5" stroke-opacity=".05" class="highcharts-shadow"/><path fill="none" d="M231 437h-21l-10.87-21L210 395h21l11.87 21Z" stroke="#000" stroke-width="3" stroke-opacity=".1" class="highcharts-shadow"/><path fill="none" d="M231 437h-21l-10.87-21L210 395h21l11.87 21Z" stroke="#000" stroke-opacity=".15" class="highcharts-shadow"/><path fill="#F9EDB3" d="M232 438h-21l-10.87-21L211 396h21l11.87 21Z" class="highcharts-point" tabindex="-1" aria-label="51. Wyoming, 584153." style="outline:0"/></g></g><text x="300" text-anchor="middle" class="highcharts-title" data-z-index="4" style="color:#000;font-size:16px;font-weight:700;fill:#000" y="22" aria-hidden="true">U.S. states by population in 2016</text><text x="300" text-anchor="middle" class="highcharts-subtitle" data-z-index="4" style="color:#000;fill:#000" y="42" aria-hidden="true">Source:<a><tspan>Wikipedia</tspan></a></text><g class="highcharts-data-labels highcharts-series-0 highcharts-tilemap-series highcharts-color-0 highcharts-tracker" data-z-index="6" aria-hidden="true"><text data-z-index="1" y="11" style="color:#000;font-size:11px;font-weight:700;fill:#000" transform="translate(373 311)" class="highcharts-label highcharts-data-label highcharts-data-label-color-undefined">AL</text><text data-z-index="1" y="11" style="color:#000;font-size:11px;font-weight:700;fill:#000" transform="translate(50 87)" class="highcharts-label highcharts-data-label highcharts-data-label-color-undefined">AK</text><text data-z-index="1" y="11" style="color:#000;font-size:11px;font-weight:700;fill:#000" transform="translate(165 273)" class="highcharts-label highcharts-data-label highcharts-data-label-color-undefined">AZ</text><text data-z-index="1" y="11" style="color:#000;font-size:11px;font-weight:700;fill:#000" transform="translate(304 273)" class="highcharts-label highcharts-data-label highcharts-data-label-color-undefined">AR</text><text data-z-index="1" y="11" style="color:#000;font-size:11px;font-weight:700;fill:#000" transform="translate(119 273)" class="highcharts-label highcharts-data-label highcharts-data-label-color-undefined">CA</text><text data-z-index="1" y="11" style="color:#000;font-size:11px;font-weight:700;fill:#000" transform="translate(188 236)" class="highcharts-label highcharts-data-label highcharts-data-label-color-undefined">CO</text><text data-z-index="1" y="11" style="color:#000;font-size:11px;font-weight:700;fill:#000" transform="translate(534 199)" class="highcharts-label highcharts-data-label highcharts-data-label-color-undefined">CT</text><text data-z-index="1" y="11" style="color:#000;font-size:11px;font-weight:700;fill:#000" transform="translate(465 236)" class="highcharts-label highcharts-data-label highcharts-data-label-color-undefined">DE</text><text data-z-index="1" y="11" style="color:#000;font-size:11px;font-weight:700;fill:#000" transform="translate(511 236)" class="highcharts-label highcharts-data-label highcharts-data-label-color-undefined">DC</text><text data-z-index="1" y="11" style="color:#000;font-size:11px;font-weight:700;fill:#000" transform="translate(420 385)" class="highcharts-label highcharts-data-label highcharts-data-label-color-undefined">FL</text><text data-z-index="1" y="11" style="color:#000;font-size:11px;font-weight:700;fill:#000" transform="translate(396 348)" class="highcharts-label highcharts-data-label highcharts-data-label-color-undefined">GA</text><text data-z-index="1" y="11" style="color:#000;font-size:11px;font-weight:700;fill:#000" transform="translate(52 385)" class="highcharts-label highcharts-data-label highcharts-data-label-color-undefined">HI</text><text data-z-index="1" y="11" style="color:#000;font-size:11px;font-weight:700;fill:#000" transform="translate(121 199)" class="highcharts-label highcharts-data-label highcharts-data-label-color-undefined">ID</text><text data-z-index="1" y="11" style="color:#000;font-size:11px;font-weight:700;fill:#000" transform="translate(306 199)" class="highcharts-label highcharts-data-label highcharts-data-label-color-undefined">IL</text><text data-z-index="1" y="11" style="color:#000;font-size:11px;font-weight:700;fill:#000" transform="translate(352 199)" class="highcharts-label highcharts-data-label highcharts-data-label-color-undefined">IN</text><text data-z-index="1" y="11" style="color:#000;font-size:11px;font-weight:700;fill:#000" transform="translate(259 199)" class="highcharts-label highcharts-data-label highcharts-data-label-color-undefined">IA</text><text data-z-index="1" y="11" style="color:#000;font-size:11px;font-weight:700;fill:#000" transform="translate(258 273)" class="highcharts-label highcharts-data-label highcharts-data-label-color-undefined">KS</text><text data-z-index="1" y="11" style="color:#000;font-size:11px;font-weight:700;fill:#000" transform="translate(327 236)" class="highcharts-label highcharts-data-label highcharts-data-label-color-undefined">KY</text><text data-z-index="1" y="11" style="color:#000;font-size:11px;font-weight:700;fill:#000" transform="translate(280 311)" class="highcharts-label highcharts-data-label highcharts-data-label-color-undefined">LA</text><text data-z-index="1" y="11" style="color:#000;font-size:11px;font-weight:700;fill:#000" transform="translate(556 87)" class="highcharts-label highcharts-data-label highcharts-data-label-color-undefined">ME</text><text data-z-index="1" y="11" style="color:#000;font-size:11px;font-weight:700;fill:#000" transform="translate(418 236)" class="highcharts-label highcharts-data-label highcharts-data-label-color-undefined">MD</text><text data-z-index="1" y="11" style="color:#000;font-size:11px;font-weight:700;fill:#000" transform="translate(510 161)" class="highcharts-label highcharts-data-label highcharts-data-label-color-undefined">MA</text><text data-z-index="1" y="11" style="color:#000;font-size:11px;font-weight:700;fill:#000" transform="translate(374 161)" class="highcharts-label highcharts-data-label highcharts-data-label-color-undefined">MI</text><text data-z-index="1" y="11" style="color:#000;font-size:11px;font-weight:700;fill:#000" transform="translate(233 161)" class="highcharts-label highcharts-data-label highcharts-data-label-color-undefined">MN</text><text data-z-index="1" y="11" style="color:#000;font-size:11px;font-weight:700;fill:#000" transform="translate(327 311)" class="highcharts-label highcharts-data-label highcharts-data-label-color-undefined">MS</text><text data-z-index="1" y="11" style="color:#000;font-size:11px;font-weight:700;fill:#000" transform="translate(279 236)" class="highcharts-label highcharts-data-label highcharts-data-label-color-undefined">MO</text><text data-z-index="1" y="11" style="color:#000;font-size:11px;font-weight:700;fill:#000" transform="translate(141 161)" class="highcharts-label highcharts-data-label highcharts-data-label-color-undefined">MT</text><text data-z-index="1" y="11" style="color:#000;font-size:11px;font-weight:700;fill:#000" transform="translate(234 236)" class="highcharts-label highcharts-data-label highcharts-data-label-color-undefined">NE</text><text data-z-index="1" y="11" style="color:#000;font-size:11px;font-weight:700;fill:#000" transform="translate(142 236)" class="highcharts-label highcharts-data-label highcharts-data-label-color-undefined">NV</text><text data-z-index="1" y="11" style="color:#000;font-size:11px;font-weight:700;fill:#000" transform="translate(534 124)" class="highcharts-label highcharts-data-label highcharts-data-label-color-undefined">NH</text><text data-z-index="1" y="11" style="color:#000;font-size:11px;font-weight:700;fill:#000" transform="translate(489 199)" class="highcharts-label highcharts-data-label highcharts-data-label-color-undefined">NJ</text><text data-z-index="1" y="11" style="color:#000;font-size:11px;font-weight:700;fill:#000" transform="translate(187 311)" class="highcharts-label highcharts-data-label highcharts-data-label-color-undefined">NM</text><text data-z-index="1" y="11" style="color:#000;font-size:11px;font-weight:700;fill:#000" transform="translate(465 161)" class="highcharts-label highcharts-data-label highcharts-data-label-color-undefined">NY</text><text data-z-index="1" y="11" style="color:#000;font-size:11px;font-weight:700;fill:#000" transform="translate(442 273)" class="highcharts-label highcharts-data-label highcharts-data-label-color-undefined">NC</text><text data-z-index="1" y="11" style="color:#000;font-size:11px;font-weight:700;fill:#000" transform="translate(188 161)" class="highcharts-label highcharts-data-label highcharts-data-label-color-undefined">ND</text><text data-z-index="1" y="11" style="color:#000;font-size:11px;font-weight:700;fill:#000" transform="translate(395 199)" class="highcharts-label highcharts-data-label highcharts-data-label-color-undefined">OH</text><text data-z-index="1" y="11" style="color:#000;font-size:11px;font-weight:700;fill:#000" transform="translate(233 311)" class="highcharts-label highcharts-data-label highcharts-data-label-color-undefined">OK</text><text data-z-index="1" y="11" style="color:#000;font-size:11px;font-weight:700;fill:#000" transform="translate(96 236)" class="highcharts-label highcharts-data-label highcharts-data-label-color-undefined">OR</text><text data-z-index="1" y="11" style="color:#000;font-size:11px;font-weight:700;fill:#000" transform="translate(443 199)" class="highcharts-label highcharts-data-label highcharts-data-label-color-undefined">PA</text><text data-z-index="1" y="11" style="color:#000;font-size:11px;font-weight:700;fill:#000" transform="translate(559 161)" class="highcharts-label highcharts-data-label highcharts-data-label-color-undefined">RI</text><text data-z-index="1" y="11" style="color:#000;font-size:11px;font-weight:700;fill:#000" transform="translate(420 311)" class="highcharts-label highcharts-data-label highcharts-data-label-color-undefined">SC</text><text data-z-index="1" y="11" style="color:#000;font-size:11px;font-weight:700;fill:#000" transform="translate(212 199)" class="highcharts-label highcharts-data-label highcharts-data-label-color-undefined">SD</text><text data-z-index="1" y="11" style="color:#000;font-size:11px;font-weight:700;fill:#000" transform="translate(350 273)" class="highcharts-label highcharts-data-label highcharts-data-label-color-undefined">TN</text><text data-z-index="1" y="11" style="color:#000;font-size:11px;font-weight:700;fill:#000" transform="translate(211 348)" class="highcharts-label highcharts-data-label highcharts-data-label-color-undefined">TX</text><text data-z-index="1" y="11" style="color:#000;font-size:11px;font-weight:700;fill:#000" transform="translate(211 273)" class="highcharts-label highcharts-data-label highcharts-data-label-color-undefined">UT</text><text data-z-index="1" y="11" style="color:#000;font-size:11px;font-weight:700;fill:#000" transform="translate(488 124)" class="highcharts-label highcharts-data-label highcharts-data-label-color-undefined">VT</text><text data-z-index="1" y="11" style="color:#000;font-size:11px;font-weight:700;fill:#000" transform="translate(397 273)" class="highcharts-label highcharts-data-label highcharts-data-label-color-undefined">VA</text><text data-z-index="1" y="11" style="color:#000;font-size:11px;font-weight:700;fill:#000" transform="translate(95 161)" class="highcharts-label highcharts-data-label highcharts-data-label-color-undefined">WA</text><text data-z-index="1" y="11" style="color:#000;font-size:11px;font-weight:700;fill:#000" transform="translate(372 236)" class="highcharts-label highcharts-data-label highcharts-data-label-color-undefined">WV</text><text data-z-index="1" y="11" style="color:#000;font-size:11px;font-weight:700;fill:#000" transform="translate(280 161)" class="highcharts-label highcharts-data-label highcharts-data-label-color-undefined">WI</text><text data-z-index="1" y="11" style="color:#000;font-size:11px;font-weight:700;fill:#000" transform="translate(164 199)" class="highcharts-label highcharts-data-label highcharts-data-label-color-undefined">WY</text></g><g class="highcharts-legend highcharts-no-tooltip" data-z-index="7" transform="translate(136 438)" aria-hidden="true"><rect fill="#E0E0E8" class="highcharts-legend-box" rx="0" ry="0" width="328" height="27"/><g data-z-index="1"><g class="highcharts-legend-item highcharts-undefined-series highcharts-color-undefined highcharts-series-undefined" data-z-index="1" transform="translate(8 3)"><text x="21" data-z-index="2" y="16" style="color:#333;cursor:pointer;font-size:13px;font-weight:700;fill:#333">&lt; 1M</text><rect x="1.5" y="4" width="13" height="13" fill="#F9EDB3" rx="6.5" ry="6.5" class="highcharts-point" data-z-index="3"/></g><g class="highcharts-legend-item highcharts-undefined-series highcharts-color-undefined highcharts-series-undefined" data-z-index="1" transform="translate(78.43 3)"><text x="21" y="16" data-z-index="2" style="color:#333;cursor:pointer;font-size:13px;font-weight:700;fill:#333">1M - 5M</text><rect x="1.5" y="4" width="13" height="13" fill="#FFC428" rx="6.5" ry="6.5" class="highcharts-point" data-z-index="3"/></g><g class="highcharts-legend-item highcharts-undefined-series highcharts-color-undefined highcharts-series-undefined" data-z-index="1" transform="translate(167.805 3)"><text x="21" y="16" data-z-index="2" style="color:#333;cursor:pointer;font-size:13px;font-weight:700;fill:#333">5M - 20M</text><rect x="1.5" y="4" width="13" height="13" fill="#FF7987" rx="6.5" ry="6.5" class="highcharts-point" data-z-index="3"/></g><g class="highcharts-legend-item highcharts-undefined-series highcharts-color-undefined highcharts-series-undefined" data-z-index="1" transform="translate(263.68 3)"><text x="21" y="16" data-z-index="2" style="color:#333;cursor:pointer;font-size:13px;font-weight:700;fill:#333">&gt; 20M</text><rect x="1.5" y="4" width="13" height="13" fill="#FF2371" rx="6.5" ry="6.5" class="highcharts-point" data-z-index="3"/></g></g></g></svg>