<svg class="highcharts-root" style="font-family:Signika,serif;font-size:12px" xmlns="http://www.w3.org/2000/svg" width="600" height="400" aria-label="Interactive chart" aria-hidden="false"><defs aria-hidden="true"><clipPath id="a"><path fill="none" d="M0 0h527v270H0z"/></clipPath></defs><rect fill="none" class="highcharts-background" width="600" height="400" rx="0" ry="0" aria-hidden="true"/><path fill="none" class="highcharts-plot-background" aria-hidden="true" d="M63 56h527v270H63z"/><g class="highcharts-grid highcharts-xaxis-grid" data-z-index="1" aria-hidden="true" fill="none"><path data-z-index="1" class="highcharts-grid-line" d="M106.5 56v270m44-270v270m44-270v270m44-270v270m44-270v270m44-270v270m43-270v270m44-270v270m44-270v270m44-270v270m44-270v270m44-270v270M62.5 56v270"/></g><g class="highcharts-grid highcharts-yaxis-grid" data-z-index="1" aria-hidden="true" fill="none" stroke="#e6e6e6"><path data-z-index="1" class="highcharts-grid-line" d="M63 326.5h527m-527-45h527m-527-45h527m-527-45h527m-527-45h527m-527-45h527m-527-46h527"/></g><path fill="none" class="highcharts-plot-border" data-z-index="1" aria-hidden="true" d="M63 56h527v270H63z"/><g class="highcharts-axis highcharts-xaxis" data-z-index="2" aria-hidden="true"><path fill="none" class="highcharts-axis-line" stroke="#ccd6eb" data-z-index="7" d="M63 326.5h527"/></g><g class="highcharts-axis highcharts-yaxis" data-z-index="2" aria-hidden="true"><text x="23.336" data-z-index="7" text-anchor="middle" transform="rotate(-90 23.336 191)" class="highcharts-axis-title" style="color:#666;fill:#666" y="191">Temperature (°C)</text><path fill="none" class="highcharts-axis-line" data-z-index="7" d="M63 56v270"/></g><g class="highcharts-series-group" data-z-index="3" aria-hidden="false"><g class="highcharts-series highcharts-series-0 highcharts-line-series highcharts-color-0" data-z-index=".1" clip-path="url(#a)" aria-hidden="true" fill="none" stroke-linejoin="round" stroke-linecap="round" transform="translate(63 56)"><path d="m22.958 154 43.917-9.9 43.917-22.05 43.916-21.6 43.917-19.35 43.917-18.9 43.916-15.3 43.917 6.3 43.917 13.05 43.916 28.35 43.917 32.4 43.917 18.9" class="highcharts-graph highcharts-shadow" data-z-index="1" stroke="#000" stroke-width="5" stroke-opacity=".05"/><path d="m22.958 154 43.917-9.9 43.917-22.05 43.916-21.6 43.917-19.35 43.917-18.9 43.916-15.3 43.917 6.3 43.917 13.05 43.916 28.35 43.917 32.4 43.917 18.9" class="highcharts-graph highcharts-shadow" data-z-index="1" stroke="#000" stroke-width="3" stroke-opacity=".1"/><path d="m22.958 154 43.917-9.9 43.917-22.05 43.916-21.6 43.917-19.35 43.917-18.9 43.916-15.3 43.917 6.3 43.917 13.05 43.916 28.35 43.917 32.4 43.917 18.9" class="highcharts-graph highcharts-shadow" data-z-index="1" stroke="#000" stroke-opacity=".15"/><path d="m21.958 153 43.917-9.9 43.917-22.05 43.916-21.6 43.917-19.35 43.917-18.9 43.916-15.3 43.917 6.3 43.917 13.05 43.916 28.35 43.917 32.4 43.917 18.9" class="highcharts-graph" data-z-index="1" stroke="#f45b5b" stroke-width="2"/></g><g class="highcharts-markers highcharts-series-0 highcharts-line-series highcharts-color-0" data-z-index=".1" aria-hidden="false" tabindex="-1" aria-label="Reggane, line 1 of 2 with 12 data points." style="outline:0" fill="#f45b5b"><path d="M21 157a4 4 0 1 1 .004 0Z" class="highcharts-point highcharts-color-0" tabindex="-1" aria-label="Jan, 16. Reggane." style="outline:0" transform="translate(63 56)"/><path d="M65 147.1a4 4 0 1 1 .004 0Z" class="highcharts-point highcharts-color-0" tabindex="-1" aria-label="Feb, 18.2. Reggane." style="outline:0" transform="translate(63 56)"/><path d="M109 125.05a4 4 0 1 1 .004 0Z" class="highcharts-point highcharts-color-0" tabindex="-1" aria-label="Mar, 23.1. Reggane." style="outline:0" transform="translate(63 56)"/><path d="M153 103.45a4 4 0 1 1 .004 0Z" class="highcharts-point highcharts-color-0" tabindex="-1" aria-label="Apr, 27.9. Reggane." style="outline:0" transform="translate(63 56)"/><path d="M197 84.1a4 4 0 1 1 .004 0Z" class="highcharts-point highcharts-color-0" tabindex="-1" aria-label="May, 32.2. Reggane." style="outline:0" transform="translate(63 56)"/><path d="M241 65.2a4 4 0 1 1 .004 0Z" class="highcharts-point highcharts-color-0" tabindex="-1" aria-label="Jun, 36.4. Reggane." style="outline:0" transform="translate(63 56)"/><path d="M285 49.9a4 4 0 1 1 .004 0Z" class="highcharts-point highcharts-color-0" tabindex="-1" aria-label="Jul, 39.8. Reggane." style="outline:0" transform="translate(63 56)"/><path d="M329 56.2a4 4 0 1 1 .004 0Z" class="highcharts-point highcharts-color-0" tabindex="-1" aria-label="Aug, 38.4. Reggane." style="outline:0" transform="translate(63 56)"/><path d="M373 69.25a4 4 0 1 1 .004 0Z" class="highcharts-point highcharts-color-0" tabindex="-1" aria-label="Sep, 35.5. Reggane." style="outline:0" transform="translate(63 56)"/><path d="M417 97.6a4 4 0 1 1 .004 0Z" class="highcharts-point highcharts-color-0" tabindex="-1" aria-label="Oct, 29.2. Reggane." style="outline:0" transform="translate(63 56)"/><path d="M461 130a4 4 0 1 1 .004 0Z" class="highcharts-point highcharts-color-0" tabindex="-1" aria-label="Nov, 22. Reggane." style="outline:0" transform="translate(63 56)"/><path d="M505 148.9a4 4 0 1 1 .004 0Z" class="highcharts-point highcharts-color-0" tabindex="-1" aria-label="Dec, 17.8. Reggane." style="outline:0" transform="translate(63 56)"/></g><g class="highcharts-series highcharts-series-1 highcharts-line-series highcharts-color-1" data-z-index=".1" clip-path="url(#a)" aria-hidden="true" fill="none" stroke-linejoin="round" stroke-linecap="round" transform="translate(63 56)"><path d="m22.958 239.05 43.917 3.15 43.917-13.5 43.916-24.3 43.917-24.3 43.917-19.35 43.916-13.95 43.917 4.95L374.292 172l43.916 24.75L462.125 217l43.917 13.05" class="highcharts-graph highcharts-shadow" data-z-index="1" stroke="#000" stroke-width="5" stroke-opacity=".05"/><path d="m22.958 239.05 43.917 3.15 43.917-13.5 43.916-24.3 43.917-24.3 43.917-19.35 43.916-13.95 43.917 4.95L374.292 172l43.916 24.75L462.125 217l43.917 13.05" class="highcharts-graph highcharts-shadow" data-z-index="1" stroke="#000" stroke-width="3" stroke-opacity=".1"/><path d="m22.958 239.05 43.917 3.15 43.917-13.5 43.916-24.3 43.917-24.3 43.917-19.35 43.916-13.95 43.917 4.95L374.292 172l43.916 24.75L462.125 217l43.917 13.05" class="highcharts-graph highcharts-shadow" data-z-index="1" stroke="#000" stroke-opacity=".15"/><path d="m21.958 238.05 43.917 3.15 43.917-13.5 43.916-24.3 43.917-24.3 43.917-19.35 43.916-13.95 43.917 4.95L373.292 171l43.916 24.75L461.125 216l43.917 13.05" class="highcharts-graph" data-z-index="1" stroke="#8085e9" stroke-width="2"/></g><g class="highcharts-markers highcharts-series-1 highcharts-line-series highcharts-color-1" data-z-index=".1" aria-hidden="false" tabindex="-1" aria-label="Tallinn, line 2 of 2 with 12 data points." style="outline:0" fill="#8085e9"><path d="m21 234.05 4 4-4 4-4-4Z" class="highcharts-point highcharts-negative highcharts-color-1" tabindex="-1" aria-label="Jan, -2.9. Tallinn." style="outline:0" transform="translate(63 56)"/><path d="m65 237.2 4 4-4 4-4-4Z" class="highcharts-point highcharts-negative highcharts-color-1" tabindex="-1" aria-label="Feb, -3.6. Tallinn." style="outline:0" transform="translate(63 56)"/><path d="m109 223.7 4 4-4 4-4-4Z" class="highcharts-point highcharts-negative highcharts-color-1" tabindex="-1" aria-label="Mar, -0.6. Tallinn." style="outline:0" transform="translate(63 56)"/><path d="m153 199.4 4 4-4 4-4-4Z" class="highcharts-point highcharts-color-1" tabindex="-1" aria-label="Apr, 4.8. Tallinn." style="outline:0" transform="translate(63 56)"/><path d="m197 175.1 4 4-4 4-4-4Z" class="highcharts-point highcharts-color-1" tabindex="-1" aria-label="May, 10.2. Tallinn." style="outline:0" transform="translate(63 56)"/><path d="m241 155.75 4 4-4 4-4-4Z" class="highcharts-point highcharts-color-1" tabindex="-1" aria-label="Jun, 14.5. Tallinn." style="outline:0" transform="translate(63 56)"/><path d="m285 141.8 4 4-4 4-4-4Z" class="highcharts-point highcharts-color-1" tabindex="-1" aria-label="Jul, 17.6. Tallinn." style="outline:0" transform="translate(63 56)"/><path d="m329 146.75 4 4-4 4-4-4Z" class="highcharts-point highcharts-color-1" tabindex="-1" aria-label="Aug, 16.5. Tallinn." style="outline:0" transform="translate(63 56)"/><path d="m373 167 4 4-4 4-4-4Z" class="highcharts-point highcharts-color-1" tabindex="-1" aria-label="Sep, 12. Tallinn." style="outline:0" transform="translate(63 56)"/><path d="m417 191.75 4 4-4 4-4-4Z" class="highcharts-point highcharts-color-1" tabindex="-1" aria-label="Oct, 6.5. Tallinn." style="outline:0" transform="translate(63 56)"/><path d="m461 212 4 4-4 4-4-4Z" class="highcharts-point highcharts-color-1" tabindex="-1" aria-label="Nov, 2. Tallinn." style="outline:0" transform="translate(63 56)"/><path d="m505 225.05 4 4-4 4-4-4Z" class="highcharts-point highcharts-negative highcharts-color-1" tabindex="-1" aria-label="Dec, -0.9. Tallinn." style="outline:0" transform="translate(63 56)"/></g></g><text x="300" text-anchor="middle" class="highcharts-title" data-z-index="4" style="color:#000;font-size:16px;font-weight:700;fill:#000" y="22" aria-hidden="true">Monthly Average Temperature</text><text x="300" text-anchor="middle" class="highcharts-subtitle" data-z-index="4" style="color:#000;fill:#000" y="42" aria-hidden="true">Source: <a target="_blank"><tspan>Wikipedia.com</tspan></a></text><g class="highcharts-data-labels highcharts-series-0 highcharts-line-series highcharts-color-0" data-z-index="6" aria-hidden="true"><text x="5" data-z-index="1" y="16" style="color:#fff;font-size:11px;font-weight:700;fill:#fff" transform="translate(74 187)" class="highcharts-label highcharts-data-label highcharts-data-label-color-0"><tspan class="highcharts-text-outline" fill="#000" stroke="#000" stroke-width="2" stroke-linejoin="round">16<tspan x="5" dy="0">​</tspan></tspan>16</text><text x="5" data-z-index="1" y="16" style="color:#fff;font-size:11px;font-weight:700;fill:#fff" transform="translate(114 177)" class="highcharts-label highcharts-data-label highcharts-data-label-color-0"><tspan class="highcharts-text-outline" fill="#000" stroke="#000" stroke-width="2" stroke-linejoin="round">18.2<tspan x="5" dy="0">​</tspan></tspan>18.2</text><text x="5" data-z-index="1" y="16" style="color:#fff;font-size:11px;font-weight:700;fill:#fff" transform="translate(158 155)" class="highcharts-label highcharts-data-label highcharts-data-label-color-0"><tspan class="highcharts-text-outline" fill="#000" stroke="#000" stroke-width="2" stroke-linejoin="round">23.1<tspan x="5" dy="0">​</tspan></tspan>23.1</text><text x="5" data-z-index="1" y="16" style="color:#fff;font-size:11px;font-weight:700;fill:#fff" transform="translate(202 133)" class="highcharts-label highcharts-data-label highcharts-data-label-color-0"><tspan class="highcharts-text-outline" fill="#000" stroke="#000" stroke-width="2" stroke-linejoin="round">27.9<tspan x="5" dy="0">​</tspan></tspan>27.9</text><text x="5" data-z-index="1" y="16" style="color:#fff;font-size:11px;font-weight:700;fill:#fff" transform="translate(246 114)" class="highcharts-label highcharts-data-label highcharts-data-label-color-0"><tspan class="highcharts-text-outline" fill="#000" stroke="#000" stroke-width="2" stroke-linejoin="round">32.2<tspan x="5" dy="0">​</tspan></tspan>32.2</text><text x="5" data-z-index="1" y="16" style="color:#fff;font-size:11px;font-weight:700;fill:#fff" transform="translate(290 95)" class="highcharts-label highcharts-data-label highcharts-data-label-color-0"><tspan class="highcharts-text-outline" fill="#000" stroke="#000" stroke-width="2" stroke-linejoin="round">36.4<tspan x="5" dy="0">​</tspan></tspan>36.4</text><text x="5" data-z-index="1" y="16" style="color:#fff;font-size:11px;font-weight:700;fill:#fff" transform="translate(334 80)" class="highcharts-label highcharts-data-label highcharts-data-label-color-0"><tspan class="highcharts-text-outline" fill="#000" stroke="#000" stroke-width="2" stroke-linejoin="round">39.8<tspan x="5" dy="0">​</tspan></tspan>39.8</text><text x="5" data-z-index="1" y="16" style="color:#fff;font-size:11px;font-weight:700;fill:#fff" transform="translate(378 86)" class="highcharts-label highcharts-data-label highcharts-data-label-color-0"><tspan class="highcharts-text-outline" fill="#000" stroke="#000" stroke-width="2" stroke-linejoin="round">38.4<tspan x="5" dy="0">​</tspan></tspan>38.4</text><text x="5" data-z-index="1" y="16" style="color:#fff;font-size:11px;font-weight:700;fill:#fff" transform="translate(422 99)" class="highcharts-label highcharts-data-label highcharts-data-label-color-0"><tspan class="highcharts-text-outline" fill="#000" stroke="#000" stroke-width="2" stroke-linejoin="round">35.5<tspan x="5" dy="0">​</tspan></tspan>35.5</text><text x="5" data-z-index="1" y="16" style="color:#fff;font-size:11px;font-weight:700;fill:#fff" transform="translate(466 128)" class="highcharts-label highcharts-data-label highcharts-data-label-color-0"><tspan class="highcharts-text-outline" fill="#000" stroke="#000" stroke-width="2" stroke-linejoin="round">29.2<tspan x="5" dy="0">​</tspan></tspan>29.2</text><text x="5" data-z-index="1" y="16" style="color:#fff;font-size:11px;font-weight:700;fill:#fff" transform="translate(514 160)" class="highcharts-label highcharts-data-label highcharts-data-label-color-0"><tspan class="highcharts-text-outline" fill="#000" stroke="#000" stroke-width="2" stroke-linejoin="round">22<tspan x="5" dy="0">​</tspan></tspan>22</text><text x="5" data-z-index="1" y="16" style="color:#fff;font-size:11px;font-weight:700;fill:#fff" transform="translate(553 179)" class="highcharts-label highcharts-data-label highcharts-data-label-color-0"><tspan class="highcharts-text-outline" fill="#000" stroke="#000" stroke-width="2" stroke-linejoin="round">17.8<tspan x="5" dy="0">​</tspan></tspan>17.8</text></g><g class="highcharts-data-labels highcharts-series-1 highcharts-line-series highcharts-color-1" data-z-index="6" aria-hidden="true"><text x="5" data-z-index="1" y="16" style="color:#fff;font-size:11px;font-weight:700;fill:#fff" transform="translate(71 272)" class="highcharts-label highcharts-data-label highcharts-data-label-color-1"><tspan class="highcharts-text-outline" fill="#000" stroke="#000" stroke-width="2" stroke-linejoin="round">-2.9<tspan x="5" dy="0">​</tspan></tspan>-2.9</text><text x="5" data-z-index="1" y="16" style="color:#fff;font-size:11px;font-weight:700;fill:#fff" transform="translate(115 275)" class="highcharts-label highcharts-data-label highcharts-data-label-color-1"><tspan class="highcharts-text-outline" fill="#000" stroke="#000" stroke-width="2" stroke-linejoin="round">-3.6<tspan x="5" dy="0">​</tspan></tspan>-3.6</text><text x="5" data-z-index="1" y="16" style="color:#fff;font-size:11px;font-weight:700;fill:#fff" transform="translate(159 262)" class="highcharts-label highcharts-data-label highcharts-data-label-color-1"><tspan class="highcharts-text-outline" fill="#000" stroke="#000" stroke-width="2" stroke-linejoin="round">-0.6<tspan x="5" dy="0">​</tspan></tspan>-0.6</text><text x="5" data-z-index="1" y="16" style="color:#fff;font-size:11px;font-weight:700;fill:#fff" transform="translate(205 237)" class="highcharts-label highcharts-data-label highcharts-data-label-color-1"><tspan class="highcharts-text-outline" fill="#000" stroke="#000" stroke-width="2" stroke-linejoin="round">4.8<tspan x="5" dy="0">​</tspan></tspan>4.8</text><text x="5" data-z-index="1" y="16" style="color:#fff;font-size:11px;font-weight:700;fill:#fff" transform="translate(246 213)" class="highcharts-label highcharts-data-label highcharts-data-label-color-1"><tspan class="highcharts-text-outline" fill="#000" stroke="#000" stroke-width="2" stroke-linejoin="round">10.2<tspan x="5" dy="0">​</tspan></tspan>10.2</text><text x="5" data-z-index="1" y="16" style="color:#fff;font-size:11px;font-weight:700;fill:#fff" transform="translate(290 194)" class="highcharts-label highcharts-data-label highcharts-data-label-color-1"><tspan class="highcharts-text-outline" fill="#000" stroke="#000" stroke-width="2" stroke-linejoin="round">14.5<tspan x="5" dy="0">​</tspan></tspan>14.5</text><text x="5" data-z-index="1" y="16" style="color:#fff;font-size:11px;font-weight:700;fill:#fff" transform="translate(334 180)" class="highcharts-label highcharts-data-label highcharts-data-label-color-1"><tspan class="highcharts-text-outline" fill="#000" stroke="#000" stroke-width="2" stroke-linejoin="round">17.6<tspan x="5" dy="0">​</tspan></tspan>17.6</text><text x="5" data-z-index="1" y="16" style="color:#fff;font-size:11px;font-weight:700;fill:#fff" transform="translate(378 185)" class="highcharts-label highcharts-data-label highcharts-data-label-color-1"><tspan class="highcharts-text-outline" fill="#000" stroke="#000" stroke-width="2" stroke-linejoin="round">16.5<tspan x="5" dy="0">​</tspan></tspan>16.5</text><text x="5" data-z-index="1" y="16" style="color:#fff;font-size:11px;font-weight:700;fill:#fff" transform="translate(426 205)" class="highcharts-label highcharts-data-label highcharts-data-label-color-1"><tspan class="highcharts-text-outline" fill="#000" stroke="#000" stroke-width="2" stroke-linejoin="round">12<tspan x="5" dy="0">​</tspan></tspan>12</text><text x="5" data-z-index="1" y="16" style="color:#fff;font-size:11px;font-weight:700;fill:#fff" transform="translate(468 230)" class="highcharts-label highcharts-data-label highcharts-data-label-color-1"><tspan class="highcharts-text-outline" fill="#000" stroke="#000" stroke-width="2" stroke-linejoin="round">6.5<tspan x="5" dy="0">​</tspan></tspan>6.5</text><text x="5" data-z-index="1" y="16" style="color:#fff;font-size:11px;font-weight:700;fill:#fff" transform="translate(516 250)" class="highcharts-label highcharts-data-label highcharts-data-label-color-1"><tspan class="highcharts-text-outline" fill="#000" stroke="#000" stroke-width="2" stroke-linejoin="round">2<tspan x="5" dy="0">​</tspan></tspan>2</text><text x="5" data-z-index="1" y="16" style="color:#fff;font-size:11px;font-weight:700;fill:#fff" transform="translate(554 263)" class="highcharts-label highcharts-data-label highcharts-data-label-color-1"><tspan class="highcharts-text-outline" fill="#000" stroke="#000" stroke-width="2" stroke-linejoin="round">-0.9<tspan x="5" dy="0">​</tspan></tspan>-0.9</text></g><g class="highcharts-legend highcharts-no-tooltip" data-z-index="7" transform="translate(218 358)" aria-hidden="true"><rect fill="#E0E0E8" class="highcharts-legend-box" rx="0" ry="0" width="164" height="27"/><g data-z-index="1"><g class="highcharts-legend-item highcharts-line-series highcharts-color-0 highcharts-series-0" data-z-index="1"><path fill="none" d="M8 15h16" class="highcharts-graph" stroke-width="2" stroke="#f45b5b"/><path fill="#f45b5b" d="M16 19a4 4 0 1 1 .004 0Z" class="highcharts-point"/><text x="21" data-z-index="2" y="16" style="color:#333;cursor:pointer;font-size:13px;font-weight:700;fill:#333" transform="translate(8 3)">Reggane</text></g><g class="highcharts-legend-item highcharts-line-series highcharts-color-1 highcharts-series-1" data-z-index="1"><path fill="none" d="M96.664 15h16" class="highcharts-graph" stroke-width="2" stroke="#8085e9"/><path fill="#8085e9" d="m104.664 11 4 4-4 4-4-4Z" class="highcharts-point"/><text x="21" y="16" data-z-index="2" style="color:#333;cursor:pointer;font-size:13px;font-weight:700;fill:#333" transform="translate(96.664 3)">Tallinn</text></g></g></g><g class="highcharts-axis-labels highcharts-xaxis-labels" data-z-index="7" aria-hidden="true" text-anchor="middle"><text x="84.958" style="color:#6e6e70;cursor:default;font-size:11px;fill:#6e6e70" y="345">Jan</text><text x="128.875" style="color:#6e6e70;cursor:default;font-size:11px;fill:#6e6e70" y="345">Feb</text><text x="172.792" style="color:#6e6e70;cursor:default;font-size:11px;fill:#6e6e70" y="345">Mar</text><text x="216.708" style="color:#6e6e70;cursor:default;font-size:11px;fill:#6e6e70" y="345">Apr</text><text x="260.625" style="color:#6e6e70;cursor:default;font-size:11px;fill:#6e6e70" y="345">May</text><text x="304.542" style="color:#6e6e70;cursor:default;font-size:11px;fill:#6e6e70" y="345">Jun</text><text x="348.458" style="color:#6e6e70;cursor:default;font-size:11px;fill:#6e6e70" y="345">Jul</text><text x="392.375" style="color:#6e6e70;cursor:default;font-size:11px;fill:#6e6e70" y="345">Aug</text><text x="436.292" style="color:#6e6e70;cursor:default;font-size:11px;fill:#6e6e70" y="345">Sep</text><text x="480.208" style="color:#6e6e70;cursor:default;font-size:11px;fill:#6e6e70" y="345">Oct</text><text x="524.125" style="color:#6e6e70;cursor:default;font-size:11px;fill:#6e6e70" y="345">Nov</text><text x="568.042" style="color:#6e6e70;cursor:default;font-size:11px;fill:#6e6e70" y="345">Dec</text></g><g class="highcharts-axis-labels highcharts-yaxis-labels" data-z-index="7" aria-hidden="true" text-anchor="end"><text x="48" style="color:#6e6e70;cursor:default;font-size:11px;fill:#6e6e70" y="331">-10</text><text x="48" style="color:#6e6e70;cursor:default;font-size:11px;fill:#6e6e70" y="286">0</text><text x="48" style="color:#6e6e70;cursor:default;font-size:11px;fill:#6e6e70" y="241">10</text><text x="48" style="color:#6e6e70;cursor:default;font-size:11px;fill:#6e6e70" y="196">20</text><text x="48" style="color:#6e6e70;cursor:default;font-size:11px;fill:#6e6e70" y="151">30</text><text x="48" style="color:#6e6e70;cursor:default;font-size:11px;fill:#6e6e70" y="106">40</text><text x="48" style="color:#6e6e70;cursor:default;font-size:11px;fill:#6e6e70" y="61">50</text></g></svg>