<svg class="highcharts-root" style="font-family:Signika,serif;font-size:12px" xmlns="http://www.w3.org/2000/svg" width="600" height="400" aria-label="Interactive chart" aria-hidden="false"><defs aria-hidden="true"><clipPath id="a"><path fill="none" d="M0 0h580v290H0z"/></clipPath></defs><rect fill="none" class="highcharts-background" width="600" height="400" rx="0" ry="0" aria-hidden="true"/><path fill="none" class="highcharts-plot-background" aria-hidden="true" d="M10 95h580v290H10z"/><g class="highcharts-grid highcharts-yaxis-grid" data-z-index="1" aria-hidden="true" fill="none" stroke="#e6e6e6"><path data-z-index="1" class="highcharts-grid-line" d="M10 385.5h580m-580-41h580m-580-42h580m-580-41h580m-580-42h580m-580-41h580m-580-42h580m-580-42h580"/></g><g class="highcharts-grid highcharts-yaxis-grid" data-z-index="1" aria-hidden="true" fill="none"><path data-z-index="1" class="highcharts-grid-line" d="M10 385.5h580m-580-41h580m-580-42h580m-580-41h580m-580-42h580m-580-41h580m-580-42h580m-580-41h580"/></g><path fill="none" class="highcharts-plot-border" data-z-index="1" aria-hidden="true" d="M10 95h580v290H10z"/><g class="highcharts-grid highcharts-xaxis-grid" data-z-index="1" aria-hidden="true" fill="none" stroke="#e6e6e6"><path data-z-index="1" class="highcharts-grid-line" d="M15.5 95v290m132-290v290m133-290v290m133-290v290m132-290v290"/></g><g class="highcharts-axis highcharts-yaxis" data-z-index="2" aria-hidden="true"><path fill="none" class="highcharts-axis-line" data-z-index="7" d="M10 95v290"/></g><g class="highcharts-axis highcharts-yaxis" data-z-index="2" aria-hidden="true"><path fill="none" class="highcharts-axis-line" data-z-index="7" d="M590 95v290"/></g><g class="highcharts-axis highcharts-xaxis" data-z-index="2" aria-hidden="true"><path fill="none" class="highcharts-axis-line" stroke="#ccd6eb" data-z-index="7" d="M10 385.5h580"/></g><g class="highcharts-series-group" data-z-index="3" aria-hidden="false"><g class="highcharts-series highcharts-series-0 highcharts-line-series highcharts-color-0 popup-on-click" data-z-index=".1" clip-path="url(#a)" aria-hidden="false" tabindex="-1" aria-label="All sessions, line 1 of 2 with 0 data points. Y axis, values." style="outline:0" fill="none" stroke-linejoin="round" stroke-linecap="round" transform="translate(10 95)"><path d="m6.686 120.439 18.955-20.334L44.595 84.47l18.954 30.409 18.954 36.556 18.955 65.366 18.954 23.548 18.954-19.222 18.954-35.248 18.955-24.874 18.954 16.845 18.954-7.482 18.954 44.428 18.955 22.388 18.954-14.88 18.954-59.5 18.954-23.955 18.954-27.193 18.955 11.41 18.954 61.496 18.954-5.916 18.954-47.784 18.955-29.994 18.954-10.208 18.954 18.568 18.954 8.07 18.955 72.815 18.954 27.02 18.954-67.628 18.954-36.457 18.955-3.008" class="highcharts-graph highcharts-shadow" data-z-index="1" stroke="#000" stroke-width="5" stroke-opacity=".05"/><path d="m6.686 120.439 18.955-20.334L44.595 84.47l18.954 30.409 18.954 36.556 18.955 65.366 18.954 23.548 18.954-19.222 18.954-35.248 18.955-24.874 18.954 16.845 18.954-7.482 18.954 44.428 18.955 22.388 18.954-14.88 18.954-59.5 18.954-23.955 18.954-27.193 18.955 11.41 18.954 61.496 18.954-5.916 18.954-47.784 18.955-29.994 18.954-10.208 18.954 18.568 18.954 8.07 18.955 72.815 18.954 27.02 18.954-67.628 18.954-36.457 18.955-3.008" class="highcharts-graph highcharts-shadow" data-z-index="1" stroke="#000" stroke-width="3" stroke-opacity=".1"/><path d="m6.686 120.439 18.955-20.334L44.595 84.47l18.954 30.409 18.954 36.556 18.955 65.366 18.954 23.548 18.954-19.222 18.954-35.248 18.955-24.874 18.954 16.845 18.954-7.482 18.954 44.428 18.955 22.388 18.954-14.88 18.954-59.5 18.954-23.955 18.954-27.193 18.955 11.41 18.954 61.496 18.954-5.916 18.954-47.784 18.955-29.994 18.954-10.208 18.954 18.568 18.954 8.07 18.955 72.815 18.954 27.02 18.954-67.628 18.954-36.457 18.955-3.008" class="highcharts-graph highcharts-shadow" data-z-index="1" stroke="#000" stroke-opacity=".15"/><path d="m5.686 119.439 18.955-20.334L43.595 83.47l18.954 30.409 18.954 36.556 18.955 65.366 18.954 23.548 18.954-19.222 18.954-35.248 18.955-24.874 18.954 16.845 18.954-7.482 18.954 44.428 18.955 22.388 18.954-14.88 18.954-59.5 18.954-23.955 18.954-27.193 18.955 11.41 18.954 61.496 18.954-5.916 18.954-47.784 18.955-29.994 18.954-10.208 18.954 18.568 18.954 8.07 18.955 72.815 18.954 27.02 18.954-67.628 18.954-36.457 18.955-3.008" class="highcharts-graph" data-z-index="1" stroke="#f45b5b" stroke-width="4"/><path d="m5.686 119.439 18.955-20.334L43.595 83.47l18.954 30.409 18.954 36.556 18.955 65.366 18.954 23.548 18.954-19.222 18.954-35.248 18.955-24.874 18.954 16.845 18.954-7.482 18.954 44.428 18.955 22.388 18.954-14.88 18.954-59.5 18.954-23.955 18.954-27.193 18.955 11.41 18.954 61.496 18.954-5.916 18.954-47.784 18.955-29.994 18.954-10.208 18.954 18.568 18.954 8.07 18.955 72.815 18.954 27.02 18.954-67.628 18.954-36.457 18.955-3.008" data-z-index="2" class="highcharts-tracker-line" stroke="rgba(192,192,192,0.0001)" stroke-width="24" style="cursor:pointer"/></g><g class="highcharts-markers highcharts-series-0 highcharts-line-series highcharts-color-0 popup-on-click highcharts-tracker" data-z-index=".1" aria-hidden="false" style="cursor:pointer;outline:0" tabindex="-1" aria-label="Users, line 1 of 2 with 31 data points. Y axis, values." fill="#f45b5b" stroke="#fff"><path d="M5 123.439a4 4 0 1 1 .004 0Z" class="highcharts-point highcharts-color-0" tabindex="-1" aria-label="Monday, Dec 18, 2017, 40.585. Users." style="outline:0" transform="translate(10 95)"/><path d="M24 103.105a4 4 0 1 1 .004 0Z" class="highcharts-point highcharts-color-0" tabindex="-1" aria-label="Tuesday, Dec 19, 2017, 43.039. Users." style="outline:0" transform="translate(10 95)"/><path d="M43 87.47a4 4 0 1 1 .004 0Z" class="highcharts-point highcharts-color-0" tabindex="-1" aria-label="Wednesday, Dec 20, 2017, 44.926. Users." style="outline:0" transform="translate(10 95)"/><path d="M62 117.879a4 4 0 1 1 .004 0Z" class="highcharts-point highcharts-color-0" tabindex="-1" aria-label="Thursday, Dec 21, 2017, 41.256. Users." style="outline:0" transform="translate(10 95)"/><path d="M81 154.435a4 4 0 1 1 .004 0Z" class="highcharts-point highcharts-color-0" tabindex="-1" aria-label="Friday, Dec 22, 2017, 36.844. Users." style="outline:0" transform="translate(10 95)"/><path d="M100 219.801a4 4 0 1 1 .004 0Z" class="highcharts-point highcharts-color-0" tabindex="-1" aria-label="Saturday, Dec 23, 2017, 28.955. Users." style="outline:0" transform="translate(10 95)"/><path d="M119 243.35a4 4 0 1 1 .004 0Z" class="highcharts-point highcharts-color-0" tabindex="-1" aria-label="Sunday, Dec 24, 2017, 26.113. Users." style="outline:0" transform="translate(10 95)"/><path d="M138 224.127a4 4 0 1 1 .004 0Z" class="highcharts-point highcharts-color-0" tabindex="-1" aria-label="Monday, Dec 25, 2017, 28.433. Users." style="outline:0" transform="translate(10 95)"/><path d="M157 188.88a4 4 0 1 1 .004 0Z" class="highcharts-point highcharts-color-0" tabindex="-1" aria-label="Tuesday, Dec 26, 2017, 32.687. Users." style="outline:0" transform="translate(10 95)"/><path d="M176 164.005a4 4 0 1 1 .004 0Z" class="highcharts-point highcharts-color-0" tabindex="-1" aria-label="Wednesday, Dec 27, 2017, 35.689. Users." style="outline:0" transform="translate(10 95)"/><path d="M195 180.85a4 4 0 1 1 .004 0Z" class="highcharts-point highcharts-color-0" tabindex="-1" aria-label="Thursday, Dec 28, 2017, 33.656. Users." style="outline:0" transform="translate(10 95)"/><path d="M214 173.368a4 4 0 1 1 .004 0Z" class="highcharts-point highcharts-color-0" tabindex="-1" aria-label="Friday, Dec 29, 2017, 34.559. Users." style="outline:0" transform="translate(10 95)"/><path d="M233 217.796a4 4 0 1 1 .004 0Z" class="highcharts-point highcharts-color-0" tabindex="-1" aria-label="Saturday, Dec 30, 2017, 29.197. Users." style="outline:0" transform="translate(10 95)"/><path d="M252 240.184a4 4 0 1 1 .004 0Z" class="highcharts-point highcharts-color-0" tabindex="-1" aria-label="Sunday, Dec 31, 2017, 26.495. Users." style="outline:0" transform="translate(10 95)"/><path d="M271 225.303a4 4 0 1 1 .004 0Z" class="highcharts-point highcharts-color-0" tabindex="-1" aria-label="Monday, Jan 1, 2018, 28.291. Users." style="outline:0" transform="translate(10 95)"/><path d="M290 165.803a4 4 0 1 1 .004 0Z" class="highcharts-point highcharts-color-0" tabindex="-1" aria-label="Tuesday, Jan 2, 2018, 35.472. Users." style="outline:0" transform="translate(10 95)"/><path d="M308 141.85a4 4 0 1 1 .004 0Z" class="highcharts-point highcharts-color-0" tabindex="-1" aria-label="Wednesday, Jan 3, 2018, 38.363. Users." style="outline:0" transform="translate(10 95)"/><path d="M327 114.656a4 4 0 1 1 .004 0Z" class="highcharts-point highcharts-color-0" tabindex="-1" aria-label="Thursday, Jan 4, 2018, 41.645. Users." style="outline:0" transform="translate(10 95)"/><path d="M346 126.065a4 4 0 1 1 .004 0Z" class="highcharts-point highcharts-color-0" tabindex="-1" aria-label="Friday, Jan 5, 2018, 40.268. Users." style="outline:0" transform="translate(10 95)"/><path d="M365 187.562a4 4 0 1 1 .004 0Z" class="highcharts-point highcharts-color-0" tabindex="-1" aria-label="Saturday, Jan 6, 2018, 32.846. Users." style="outline:0" transform="translate(10 95)"/><path d="M384 181.646a4 4 0 1 1 .004 0Z" class="highcharts-point highcharts-color-0" tabindex="-1" aria-label="Sunday, Jan 7, 2018, 33.56. Users." style="outline:0" transform="translate(10 95)"/><path d="M403 133.862a4 4 0 1 1 .004 0Z" class="highcharts-point highcharts-color-0" tabindex="-1" aria-label="Monday, Jan 8, 2018, 39.327. Users." style="outline:0" transform="translate(10 95)"/><path d="M422 103.868a4 4 0 1 1 .004 0Z" class="highcharts-point highcharts-color-0" tabindex="-1" aria-label="Tuesday, Jan 9, 2018, 42.947. Users." style="outline:0" transform="translate(10 95)"/><path d="M441 93.66a4 4 0 1 1 .004 0Z" class="highcharts-point highcharts-color-0" tabindex="-1" aria-label="Wednesday, Jan 10, 2018, 44.179. Users." style="outline:0" transform="translate(10 95)"/><path d="M460 112.228a4 4 0 1 1 .004 0Z" class="highcharts-point highcharts-color-0" tabindex="-1" aria-label="Thursday, Jan 11, 2018, 41.938. Users." style="outline:0" transform="translate(10 95)"/><path d="M479 120.298a4 4 0 1 1 .004 0Z" class="highcharts-point highcharts-color-0" tabindex="-1" aria-label="Friday, Jan 12, 2018, 40.964. Users." style="outline:0" transform="translate(10 95)"/><path d="M498 193.113a4 4 0 1 1 .004 0Z" class="highcharts-point highcharts-color-0" tabindex="-1" aria-label="Saturday, Jan 13, 2018, 32.176. Users." style="outline:0" transform="translate(10 95)"/><path d="M517 220.133a4 4 0 1 1 .004 0Z" class="highcharts-point highcharts-color-0" tabindex="-1" aria-label="Sunday, Jan 14, 2018, 28.915. Users." style="outline:0" transform="translate(10 95)"/><path d="M536 152.505a4 4 0 1 1 .004 0Z" class="highcharts-point highcharts-color-0" tabindex="-1" aria-label="Monday, Jan 15, 2018, 37.077. Users." style="outline:0" transform="translate(10 95)"/><path d="M555 116.048a4 4 0 1 1 .004 0Z" class="highcharts-point highcharts-color-0" tabindex="-1" aria-label="Tuesday, Jan 16, 2018, 41.477. Users." style="outline:0" transform="translate(10 95)"/><path d="M574 113.04a4 4 0 1 1 .004 0Z" class="highcharts-point highcharts-color-0" tabindex="-1" aria-label="Wednesday, Jan 17, 2018, 41.84. Users." style="outline:0" transform="translate(10 95)"/></g><g class="highcharts-series highcharts-series-1 highcharts-line-series highcharts-color-1 popup-on-click" data-z-index=".1" clip-path="url(#a)" aria-hidden="false" tabindex="-1" aria-label="New users, line 2 of 2 with 0 data points. Y axis, values." style="outline:0" fill="none" stroke-linejoin="round" stroke-linecap="round" transform="translate(10 95)"><path d="m6.686 56.092 18.955-26.084 18.954-15.411 18.954 35.968 18.954 47.113 18.955 82.136 18.954 28.163 18.954-26.208 18.954-46.391 18.955-31.353 18.954 21.493 18.954-3.663 18.954 56.75 18.955 23.423 18.954-17.267L291 108.043l18.954-29.588 18.954-32.48 18.955 13.555 18.954 86.147 18.954-8.186 18.954-68.938 18.955-36.78 18.954-16.232 18.954 20.814 18.954 13.978 18.955 98.932 18.954 32.214 18.954-90.927 18.954-44.909 18.955-5.576" class="highcharts-graph highcharts-shadow" data-z-index="1" stroke="#000" stroke-width="5" stroke-opacity=".05"/><path d="m6.686 56.092 18.955-26.084 18.954-15.411 18.954 35.968 18.954 47.113 18.955 82.136 18.954 28.163 18.954-26.208 18.954-46.391 18.955-31.353 18.954 21.493 18.954-3.663 18.954 56.75 18.955 23.423 18.954-17.267L291 108.043l18.954-29.588 18.954-32.48 18.955 13.555 18.954 86.147 18.954-8.186 18.954-68.938 18.955-36.78 18.954-16.232 18.954 20.814 18.954 13.978 18.955 98.932 18.954 32.214 18.954-90.927 18.954-44.909 18.955-5.576" class="highcharts-graph highcharts-shadow" data-z-index="1" stroke="#000" stroke-width="3" stroke-opacity=".1"/><path d="m6.686 56.092 18.955-26.084 18.954-15.411 18.954 35.968 18.954 47.113 18.955 82.136 18.954 28.163 18.954-26.208 18.954-46.391 18.955-31.353 18.954 21.493 18.954-3.663 18.954 56.75 18.955 23.423 18.954-17.267L291 108.043l18.954-29.588 18.954-32.48 18.955 13.555 18.954 86.147 18.954-8.186 18.954-68.938 18.955-36.78 18.954-16.232 18.954 20.814 18.954 13.978 18.955 98.932 18.954 32.214 18.954-90.927 18.954-44.909 18.955-5.576" class="highcharts-graph highcharts-shadow" data-z-index="1" stroke="#000" stroke-opacity=".15"/><path d="m5.686 55.092 18.955-26.084 18.954-15.411 18.954 35.968 18.954 47.113 18.955 82.136 18.954 28.163 18.954-26.208 18.954-46.391 18.955-31.353 18.954 21.493 18.954-3.663 18.954 56.75 18.955 23.423 18.954-17.267L290 107.043l18.954-29.588 18.954-32.48 18.955 13.555 18.954 86.147 18.954-8.186 18.954-68.938 18.955-36.78 18.954-16.232 18.954 20.814 18.954 13.978 18.955 98.932 18.954 32.214 18.954-90.927 18.954-44.909 18.955-5.576" class="highcharts-graph" data-z-index="1" stroke="#8085e9" stroke-width="2"/><path d="m5.686 55.092 18.955-26.084 18.954-15.411 18.954 35.968 18.954 47.113 18.955 82.136 18.954 28.163 18.954-26.208 18.954-46.391 18.955-31.353 18.954 21.493 18.954-3.663 18.954 56.75 18.955 23.423 18.954-17.267L290 107.043l18.954-29.588 18.954-32.48 18.955 13.555 18.954 86.147 18.954-8.186 18.954-68.938 18.955-36.78 18.954-16.232 18.954 20.814 18.954 13.978 18.955 98.932 18.954 32.214 18.954-90.927 18.954-44.909 18.955-5.576" data-z-index="2" class="highcharts-tracker-line" stroke="rgba(192,192,192,0.0001)" stroke-width="22" style="cursor:pointer"/></g><g class="highcharts-markers highcharts-series-1 highcharts-line-series highcharts-color-1 popup-on-click highcharts-tracker" data-z-index=".1" aria-hidden="false" style="cursor:pointer;outline:0" tabindex="-1" aria-label="Sessions, line 2 of 2 with 31 data points. Y axis, values." fill="#8085e9" stroke="#fff"><path d="m5 51.092 4 4-4 4-4-4Z" class="highcharts-point highcharts-color-1" tabindex="-1" aria-label="Monday, Dec 18, 2017, 48.351. Sessions." style="outline:0" transform="translate(10 95)"/><path d="m24 25.008 4 4-4 4-4-4Z" class="highcharts-point highcharts-color-1" tabindex="-1" aria-label="Tuesday, Dec 19, 2017, 51.499. Sessions." style="outline:0" transform="translate(10 95)"/><path d="m43 9.597 4 4-4 4-4-4Z" class="highcharts-point highcharts-color-1" tabindex="-1" aria-label="Wednesday, Dec 20, 2017, 53.359. Sessions." style="outline:0" transform="translate(10 95)"/><path d="m62 45.565 4 4-4 4-4-4Z" class="highcharts-point highcharts-color-1" tabindex="-1" aria-label="Thursday, Dec 21, 2017, 49.018. Sessions." style="outline:0" transform="translate(10 95)"/><path d="m81 92.678 4 4-4 4-4-4Z" class="highcharts-point highcharts-color-1" tabindex="-1" aria-label="Friday, Dec 22, 2017, 43.332. Sessions." style="outline:0" transform="translate(10 95)"/><path d="m100 174.814 4 4-4 4-4-4Z" class="highcharts-point highcharts-color-1" tabindex="-1" aria-label="Saturday, Dec 23, 2017, 33.419. Sessions." style="outline:0" transform="translate(10 95)"/><path d="m119 202.977 4 4-4 4-4-4Z" class="highcharts-point highcharts-color-1" tabindex="-1" aria-label="Sunday, Dec 24, 2017, 30.02. Sessions." style="outline:0" transform="translate(10 95)"/><path d="m138 176.77 4 4-4 4-4-4Z" class="highcharts-point highcharts-color-1" tabindex="-1" aria-label="Monday, Dec 25, 2017, 33.183. Sessions." style="outline:0" transform="translate(10 95)"/><path d="m157 130.378 4 4-4 4-4-4Z" class="highcharts-point highcharts-color-1" tabindex="-1" aria-label="Tuesday, Dec 26, 2017, 38.782. Sessions." style="outline:0" transform="translate(10 95)"/><path d="m176 99.025 4 4-4 4-4-4Z" class="highcharts-point highcharts-color-1" tabindex="-1" aria-label="Wednesday, Dec 27, 2017, 42.566. Sessions." style="outline:0" transform="translate(10 95)"/><path d="m195 120.518 4 4-4 4-4-4Z" class="highcharts-point highcharts-color-1" tabindex="-1" aria-label="Thursday, Dec 28, 2017, 39.972. Sessions." style="outline:0" transform="translate(10 95)"/><path d="m214 116.855 4 4-4 4-4-4Z" class="highcharts-point highcharts-color-1" tabindex="-1" aria-label="Friday, Dec 29, 2017, 40.414. Sessions." style="outline:0" transform="translate(10 95)"/><path d="m233 173.604 4 4-4 4-4-4Z" class="highcharts-point highcharts-color-1" tabindex="-1" aria-label="Saturday, Dec 30, 2017, 33.565. Sessions." style="outline:0" transform="translate(10 95)"/><path d="m252 197.028 4 4-4 4-4-4Z" class="highcharts-point highcharts-color-1" tabindex="-1" aria-label="Sunday, Dec 31, 2017, 30.738. Sessions." style="outline:0" transform="translate(10 95)"/><path d="m271 179.76 4 4-4 4-4-4Z" class="highcharts-point highcharts-color-1" tabindex="-1" aria-label="Monday, Jan 1, 2018, 32.822. Sessions." style="outline:0" transform="translate(10 95)"/><path d="m290 103.043 4 4-4 4-4-4Z" class="highcharts-point highcharts-color-1" tabindex="-1" aria-label="Tuesday, Jan 2, 2018, 42.081. Sessions." style="outline:0" transform="translate(10 95)"/><path d="m308 73.455 4 4-4 4-4-4Z" class="highcharts-point highcharts-color-1" tabindex="-1" aria-label="Wednesday, Jan 3, 2018, 45.652. Sessions." style="outline:0" transform="translate(10 95)"/><path d="m327 40.975 4 4-4 4-4-4Z" class="highcharts-point highcharts-color-1" tabindex="-1" aria-label="Thursday, Jan 4, 2018, 49.572. Sessions." style="outline:0" transform="translate(10 95)"/><path d="m346 54.53 4 4-4 4-4-4Z" class="highcharts-point highcharts-color-1" tabindex="-1" aria-label="Friday, Jan 5, 2018, 47.936. Sessions." style="outline:0" transform="translate(10 95)"/><path d="m365 140.677 4 4-4 4-4-4Z" class="highcharts-point highcharts-color-1" tabindex="-1" aria-label="Saturday, Jan 6, 2018, 37.539. Sessions." style="outline:0" transform="translate(10 95)"/><path d="m384 132.49 4 4-4 4-4-4Z" class="highcharts-point highcharts-color-1" tabindex="-1" aria-label="Sunday, Jan 7, 2018, 38.527. Sessions." style="outline:0" transform="translate(10 95)"/><path d="m403 63.553 4 4-4 4-4-4Z" class="highcharts-point highcharts-color-1" tabindex="-1" aria-label="Monday, Jan 8, 2018, 46.847. Sessions." style="outline:0" transform="translate(10 95)"/><path d="m422 26.773 4 4-4 4-4-4Z" class="highcharts-point highcharts-color-1" tabindex="-1" aria-label="Tuesday, Jan 9, 2018, 51.286. Sessions." style="outline:0" transform="translate(10 95)"/><path d="m441 10.541 4 4-4 4-4-4Z" class="highcharts-point highcharts-color-1" tabindex="-1" aria-label="Wednesday, Jan 10, 2018, 53.245. Sessions." style="outline:0" transform="translate(10 95)"/><path d="m460 31.355 4 4-4 4-4-4Z" class="highcharts-point highcharts-color-1" tabindex="-1" aria-label="Thursday, Jan 11, 2018, 50.733. Sessions." style="outline:0" transform="translate(10 95)"/><path d="m479 45.333 4 4-4 4-4-4Z" class="highcharts-point highcharts-color-1" tabindex="-1" aria-label="Friday, Jan 12, 2018, 49.046. Sessions." style="outline:0" transform="translate(10 95)"/><path d="m498 144.265 4 4-4 4-4-4Z" class="highcharts-point highcharts-color-1" tabindex="-1" aria-label="Saturday, Jan 13, 2018, 37.106. Sessions." style="outline:0" transform="translate(10 95)"/><path d="m517 176.48 4 4-4 4-4-4Z" class="highcharts-point highcharts-color-1" tabindex="-1" aria-label="Sunday, Jan 14, 2018, 33.218. Sessions." style="outline:0" transform="translate(10 95)"/><path d="m536 85.552 4 4-4 4-4-4Z" class="highcharts-point highcharts-color-1" tabindex="-1" aria-label="Monday, Jan 15, 2018, 44.192. Sessions." style="outline:0" transform="translate(10 95)"/><path d="m555 40.643 4 4-4 4-4-4Z" class="highcharts-point highcharts-color-1" tabindex="-1" aria-label="Tuesday, Jan 16, 2018, 49.612. Sessions." style="outline:0" transform="translate(10 95)"/><path d="m574 35.067 4 4-4 4-4-4Z" class="highcharts-point highcharts-color-1" tabindex="-1" aria-label="Wednesday, Jan 17, 2018, 50.285. Sessions." style="outline:0" transform="translate(10 95)"/></g></g><g data-z-index="3" aria-hidden="true"><text data-z-index="1" y="12" style="color:#f45b5b;font-weight:700;fill:#f45b5b" transform="translate(398 276)" class="highcharts-label highcharts-series-label highcharts-series-label-0 popup-on-click highcharts-color-0">Users</text></g><g data-z-index="3" aria-hidden="true"><text data-z-index="1" y="12" style="color:#8085e9;font-weight:700;fill:#8085e9" transform="translate(539 118)" class="highcharts-label highcharts-series-label highcharts-series-label-1 popup-on-click highcharts-color-1">Sessions</text></g><text x="300" text-anchor="middle" class="highcharts-title" data-z-index="4" style="color:#000;font-size:16px;font-weight:700;fill:#000" y="22" aria-hidden="true">Daily sessions at www.highcharts.com</text><text x="300" text-anchor="middle" class="highcharts-subtitle" data-z-index="4" style="color:#000;fill:#000" y="42" aria-hidden="true">Source: Google Analytics</text><g class="highcharts-legend highcharts-no-tooltip" data-z-index="7" transform="translate(10 56)" aria-hidden="true"><rect fill="#E0E0E8" class="highcharts-legend-box" rx="0" ry="0" width="154" height="27"/><g data-z-index="1"><g class="highcharts-legend-item highcharts-line-series highcharts-color-0 popup-on-click highcharts-series-0" data-z-index="1"><path fill="none" d="M8 15h16" class="highcharts-graph" stroke-width="4" stroke="#f45b5b"/><path fill="#f45b5b" d="M16 19a4 4 0 1 1 .004 0Z" class="highcharts-point" stroke="#fff"/><text x="21" y="16" data-z-index="2" style="color:#333;cursor:pointer;font-size:13px;font-weight:700;fill:#333" transform="translate(8 3)">Users</text></g><g class="highcharts-legend-item highcharts-line-series highcharts-color-1 popup-on-click highcharts-series-1" data-z-index="1"><path fill="none" d="M80.047 15h16" class="highcharts-graph" stroke-width="2" stroke="#8085e9"/><path fill="#8085e9" d="m88.047 11 4 4-4 4-4-4Z" class="highcharts-point" stroke="#fff"/><text x="21" y="16" data-z-index="2" style="color:#333;cursor:pointer;font-size:13px;font-weight:700;fill:#333" transform="translate(80.047 3)">Sessions</text></g></g></g><g class="highcharts-axis-labels highcharts-yaxis-labels" data-z-index="7" aria-hidden="true"><text x="13" style="color:#6e6e70;cursor:default;font-size:11px;fill:#6e6e70" y="360">25</text><text x="13" style="color:#6e6e70;cursor:default;font-size:11px;fill:#6e6e70" y="318">30</text><text x="13" style="color:#6e6e70;cursor:default;font-size:11px;fill:#6e6e70" y="277">35</text><text x="13" style="color:#6e6e70;cursor:default;font-size:11px;fill:#6e6e70" y="235">40</text><text x="13" style="color:#6e6e70;cursor:default;font-size:11px;fill:#6e6e70" y="194">45</text><text x="13" style="color:#6e6e70;cursor:default;font-size:11px;fill:#6e6e70" y="152">50</text><text x="13" style="color:#6e6e70;cursor:default;font-size:11px;fill:#6e6e70" y="111">55</text></g><g class="highcharts-axis-labels highcharts-yaxis-labels" data-z-index="7" aria-hidden="true" text-anchor="end"><text x="587" style="color:#6e6e70;cursor:default;font-size:11px;fill:#6e6e70" y="360">25</text><text x="587" style="color:#6e6e70;cursor:default;font-size:11px;fill:#6e6e70" y="318">30</text><text x="587" style="color:#6e6e70;cursor:default;font-size:11px;fill:#6e6e70" y="277">35</text><text x="587" style="color:#6e6e70;cursor:default;font-size:11px;fill:#6e6e70" y="235">40</text><text x="587" style="color:#6e6e70;cursor:default;font-size:11px;fill:#6e6e70" y="194">45</text><text x="587" style="color:#6e6e70;cursor:default;font-size:11px;fill:#6e6e70" y="152">50</text><text x="587" style="color:#6e6e70;cursor:default;font-size:11px;fill:#6e6e70" y="111">55</text></g><g class="highcharts-axis-labels highcharts-xaxis-labels" data-z-index="7" aria-hidden="true"><text x="18.686" style="color:#6e6e70;cursor:default;font-size:11px;fill:#6e6e70" y="382">18. Dec</text><text x="151.366" style="color:#6e6e70;cursor:default;font-size:11px;fill:#6e6e70" y="382">25. Dec</text><text x="284.046" style="color:#6e6e70;cursor:default;font-size:11px;fill:#6e6e70" y="382">1. Jan</text><text x="416.725" style="color:#6e6e70;cursor:default;font-size:11px;fill:#6e6e70" y="382">8. Jan</text><text x="549.405" style="color:#6e6e70;cursor:default;font-size:11px;fill:#6e6e70" y="382">15. Jan</text></g></svg>