<svg class="highcharts-root" style="font-family:Signika,serif;font-size:12px" xmlns="http://www.w3.org/2000/svg" width="600" height="400" aria-label="Interactive chart" aria-hidden="false"><defs aria-hidden="true"><clipPath id="a"><path fill="none" d="M0 0h533v283H0z"/></clipPath></defs><rect fill="none" class="highcharts-background" width="600" height="400" rx="0" ry="0" aria-hidden="true"/><path fill="none" class="highcharts-plot-background" aria-hidden="true" d="M57 43h533v283H57z"/><path fill="none" class="highcharts-plot-border" data-z-index="1" aria-hidden="true" d="M57 43h533v283H57z"/><g class="highcharts-grid highcharts-xaxis-grid" data-z-index="1" aria-hidden="true" fill="none"><path data-z-index="1" class="highcharts-grid-line" d="M95.5 43v283m116-283v283m116-283v283m116-283v283m116-283v283"/></g><g class="highcharts-grid highcharts-yaxis-grid" data-z-index="1" aria-hidden="true" fill="none" stroke="#e6e6e6"><path data-z-index="1" class="highcharts-grid-line" d="M57 326.5h533m-533-47h533m-533-47h533m-533-47h533m-533-48h533m-533-47h533m-533-48h533"/></g><g class="highcharts-axis highcharts-xaxis" data-z-index="2" aria-hidden="true" fill="none" stroke="#ccd6eb"><path class="highcharts-tick" d="M95.5 326v10m116-10v10m116-10v10m116-10v10m116-10v10"/><path class="highcharts-axis-line" data-z-index="7" d="M57 326.5h533"/></g><g class="highcharts-axis highcharts-yaxis" data-z-index="2" aria-hidden="true"><text x="22.836" data-z-index="7" text-anchor="middle" transform="rotate(-90 22.836 184.5)" class="highcharts-axis-title" style="color:#666;fill:#666" y="184.5">Values</text><path fill="none" class="highcharts-axis-line" data-z-index="7" d="M57 43v283"/></g><g class="highcharts-series-group" data-z-index="3" aria-hidden="false"><g class="highcharts-series highcharts-series-0 highcharts-spline-series highcharts-color-0" data-z-index=".1" clip-path="url(#a)" aria-hidden="true" fill="none" stroke-linejoin="round" stroke-linecap="round" transform="translate(57 43)"><path d="M6.225 99.958s34.837 79.177 58.061 107.57c23.225 28.392 34.837 34.39 58.061 34.39 23.225 0 34.837-23.382 58.061-23.382 23.225 0 34.837 39.869 58.061 39.869 23.225 0 34.837-220.011 58.062-220.011 23.224 0 34.836 0 58.06 4.922 23.225 4.922 34.837 61.111 58.062 95.142 23.224 34.03 34.836 75.01 58.06 75.01 23.225 0 58.062-1.423 58.062-1.423" class="highcharts-graph highcharts-shadow" data-z-index="1" stroke="#000" stroke-width="5" stroke-opacity=".05"/><path d="M6.225 99.958s34.837 79.177 58.061 107.57c23.225 28.392 34.837 34.39 58.061 34.39 23.225 0 34.837-23.382 58.061-23.382 23.225 0 34.837 39.869 58.061 39.869 23.225 0 34.837-220.011 58.062-220.011 23.224 0 34.836 0 58.06 4.922 23.225 4.922 34.837 61.111 58.062 95.142 23.224 34.03 34.836 75.01 58.06 75.01 23.225 0 58.062-1.423 58.062-1.423" class="highcharts-graph highcharts-shadow" data-z-index="1" stroke="#000" stroke-width="3" stroke-opacity=".1"/><path d="M6.225 99.958s34.837 79.177 58.061 107.57c23.225 28.392 34.837 34.39 58.061 34.39 23.225 0 34.837-23.382 58.061-23.382 23.225 0 34.837 39.869 58.061 39.869 23.225 0 34.837-220.011 58.062-220.011 23.224 0 34.836 0 58.06 4.922 23.225 4.922 34.837 61.111 58.062 95.142 23.224 34.03 34.836 75.01 58.06 75.01 23.225 0 58.062-1.423 58.062-1.423" class="highcharts-graph highcharts-shadow" data-z-index="1" stroke="#000" stroke-opacity=".15"/><path d="M5.225 98.958s34.837 79.177 58.061 107.57c23.225 28.392 34.837 34.39 58.061 34.39 23.225 0 34.837-23.382 58.061-23.382 23.225 0 34.837 39.869 58.061 39.869 23.225 0 34.837-220.011 58.062-220.011 23.224 0 34.836 0 58.06 4.922 23.225 4.922 34.837 61.111 58.062 95.142 23.224 34.03 34.836 75.01 58.06 75.01 23.225 0 58.062-1.423 58.062-1.423" class="highcharts-graph" data-z-index="1" stroke="#f45b5b" stroke-width="2"/><path d="M5.225 98.958s34.837 79.177 58.061 107.57c23.225 28.392 34.837 34.39 58.061 34.39 23.225 0 34.837-23.382 58.061-23.382 23.225 0 34.837 39.869 58.061 39.869 23.225 0 34.837-220.011 58.062-220.011 23.224 0 34.836 0 58.06 4.922 23.225 4.922 34.837 61.111 58.062 95.142 23.224 34.03 34.836 75.01 58.06 75.01 23.225 0 58.062-1.423 58.062-1.423" data-z-index="2" class="highcharts-tracker-line" stroke="rgba(192,192,192,0.0001)" stroke-width="22"/></g><g class="highcharts-markers highcharts-series-0 highcharts-spline-series highcharts-color-0 highcharts-tracker" data-z-index=".1" aria-hidden="false" fill="#f45b5b"><path d="M5 102.958a4 4 0 1 1 .004 0Z" class="highcharts-point highcharts-color-0" tabindex="-1" aria-label="Wednesday, Nov 30, 08:01:25.421, 1.8039197867172585. Value." style="outline:0" transform="translate(57 43)"/><path d="M63 210.528a4 4 0 1 1 .004 0Z" class="highcharts-point highcharts-negative highcharts-color-0" tabindex="-1" aria-label="Wednesday, Nov 30, 08:01:26.421, -2.7573519162142057. Value." style="outline:0" transform="translate(57 43)"/><path d="M121 244.918a4 4 0 1 1 .004 0Z" class="highcharts-point highcharts-negative highcharts-color-0" tabindex="-1" aria-label="Wednesday, Nov 30, 08:01:27.421, -4.215610739768721. Value." style="outline:0" transform="translate(57 43)"/><path d="M179 221.536a4 4 0 1 1 .004 0Z" class="highcharts-point highcharts-negative highcharts-color-0" tabindex="-1" aria-label="Wednesday, Nov 30, 08:01:28.421, -3.224152508557083. Value." style="outline:0" transform="translate(57 43)"/><path d="M237 261.405a4 4 0 1 1 .004 0Z" class="highcharts-point highcharts-negative highcharts-color-0" tabindex="-1" aria-label="Wednesday, Nov 30, 08:01:29.421, -4.914697202825465. Value." style="outline:0" transform="translate(57 43)"/><path d="M295 41.394a4 4 0 1 1 .004 0Z" class="highcharts-point highcharts-color-0" tabindex="-1" aria-label="Wednesday, Nov 30, 08:01:30.421, 4.414406389411408. Value." style="outline:0" transform="translate(57 43)"/><path d="M353 46.316a4 4 0 1 1 .004 0Z" class="highcharts-point highcharts-color-0" tabindex="-1" aria-label="Wednesday, Nov 30, 08:01:31.421, 4.205693160927613. Value." style="outline:0" transform="translate(57 43)"/><path d="M411 141.458a4 4 0 1 1 .004 0Z" class="highcharts-point highcharts-color-0" tabindex="-1" aria-label="Wednesday, Nov 30, 08:01:32.421, 0.17140687848280756. Value." style="outline:0" transform="translate(57 43)"/><path d="M469 216a4 4 0 1 1 .004 0Z" class="highcharts-point highcharts-negative highcharts-color-0" tabindex="-1" aria-label="Wednesday, Nov 30, 08:01:33.421, -3.0092341606553923. Value." style="outline:0" transform="translate(57 43)"/><path d="M527 215a4 4 0 1 1 .004 0Z" class="highcharts-point highcharts-negative highcharts-color-0" tabindex="-1" aria-label="Wednesday, Nov 30, 08:01:34.421, -2.9489032070707673. Value." style="outline:0" transform="translate(57 43)"/></g></g><text x="300" text-anchor="middle" class="highcharts-title" data-z-index="4" style="color:#000;font-size:16px;font-weight:700;fill:#000" y="22" aria-hidden="true">Live Data</text><g class="highcharts-legend highcharts-no-tooltip" data-z-index="7" transform="translate(266 358)" aria-hidden="true"><rect fill="#E0E0E8" class="highcharts-legend-box" rx="0" ry="0" width="68" height="27"/><g class="highcharts-legend-item highcharts-spline-series highcharts-color-0 highcharts-series-0" data-z-index="1"><path fill="none" d="M8 15h16" class="highcharts-graph" stroke-width="2" stroke="#f45b5b"/><path fill="#f45b5b" d="M16 19a4 4 0 1 1 .004 0Z" class="highcharts-point"/><text x="21" y="16" data-z-index="2" style="color:#333;cursor:pointer;font-size:13px;font-weight:700;fill:#333" transform="translate(8 3)">Value</text></g></g><g class="highcharts-axis-labels highcharts-xaxis-labels" data-z-index="7" aria-hidden="true" text-anchor="middle"><text x="95.843" style="color:#6e6e70;cursor:default;font-size:11px;fill:#6e6e70" y="345">08:01:26</text><text x="211.965" style="color:#6e6e70;cursor:default;font-size:11px;fill:#6e6e70" y="345">08:01:28</text><text x="328.087" style="color:#6e6e70;cursor:default;font-size:11px;fill:#6e6e70" y="345">08:01:30</text><text x="444.209" y="345" style="color:#6e6e70;cursor:default;font-size:11px;fill:#6e6e70">08:01:32</text><text x="560.331" y="345" style="color:#6e6e70;cursor:default;font-size:11px;fill:#6e6e70">08:01:34</text></g><g class="highcharts-axis-labels highcharts-yaxis-labels" data-z-index="7" aria-hidden="true" text-anchor="end"><text x="42" style="color:#6e6e70;cursor:default;font-size:11px;fill:#6e6e70" y="331">-6</text><text x="42" style="color:#6e6e70;cursor:default;font-size:11px;fill:#6e6e70" y="284">-4</text><text x="42" style="color:#6e6e70;cursor:default;font-size:11px;fill:#6e6e70" y="236">-2</text><text x="42" style="color:#6e6e70;cursor:default;font-size:11px;fill:#6e6e70" y="189">0</text><text x="42" style="color:#6e6e70;cursor:default;font-size:11px;fill:#6e6e70" y="142">2</text><text x="42" style="color:#6e6e70;cursor:default;font-size:11px;fill:#6e6e70" y="95">4</text><text x="42" style="color:#6e6e70;cursor:default;font-size:11px;fill:#6e6e70" y="48">6</text></g></svg>