<svg class="highcharts-root" style="font-family:Signika,serif;font-size:12px" xmlns="http://www.w3.org/2000/svg" width="600" height="600" aria-label="Interactive chart" aria-hidden="false"><defs aria-hidden="true"><clipPath id="a"><path fill="none" d="M0 0h580v503H0z"/></clipPath></defs><rect fill="none" class="highcharts-background" width="600" height="600" rx="0" ry="0" aria-hidden="true"/><path fill="none" class="highcharts-plot-background" aria-hidden="true" d="M10 43h580v503H10z"/><path fill="none" class="highcharts-plot-border" data-z-index="1" aria-hidden="true" d="M10 43h580v503H10z"/><g class="highcharts-series-group" data-z-index="3" aria-hidden="false" fill-opacity=".5"><g class="highcharts-series highcharts-series-0 highcharts-packedbubble-series highcharts-color-0 highcharts-tracker" data-z-index=".1" clip-path="url(#a)" aria-hidden="false" tabindex="-1" aria-label="Europe, series 1 of 6 with 36 data points." style="outline:0" fill="#f45b5b" stroke="#f45b5b" transform="translate(10 43)"><path d="M466.023 233.232a25.5 25.5 0 1 1 .026 0Z" class="highcharts-point highcharts-color-0" tabindex="-1" aria-label="Germany, value: 767.1. Europe." style="outline:0"/><path d="M374.753 380.942a10 10 0 1 1 .01 0Z" class="highcharts-point highcharts-color-0" tabindex="-1" aria-label="Croatia, value: 20.7. Europe." style="outline:0"/><path d="M201.597 366.414a13.5 13.5 0 1 1 .014 0Z" class="highcharts-point highcharts-color-0" tabindex="-1" aria-label="Belgium, value: 97.2. Europe." style="outline:0"/><path d="M111.76 231.173a14 14 0 1 1 .015 0Z" class="highcharts-point highcharts-color-0" tabindex="-1" aria-label="Czech Republic, value: 111.7. Europe." style="outline:0"/><path d="M207.128 132.116a15.5 15.5 0 1 1 .015 0Z" class="highcharts-point highcharts-color-0" tabindex="-1" aria-label="Netherlands, value: 158.1. Europe." style="outline:0"/><path d="M337.773 112.405a17.5 17.5 0 1 1 .017 0Z" class="highcharts-point highcharts-color-0" tabindex="-1" aria-label="Spain, value: 241.6. Europe." style="outline:0"/><path d="M425.14 200.333a17.5 17.5 0 1 1 .017 0Z" class="highcharts-point highcharts-color-0" tabindex="-1" aria-label="Ukraine, value: 249.1. Europe." style="outline:0"/><path d="M444.407 352.186a18.5 18.5 0 1 1 .019 0Z" class="highcharts-point highcharts-color-0" tabindex="-1" aria-label="Poland, value: 298.1. Europe." style="outline:0"/><path d="M168.357 389.345a19 19 0 1 1 .019 0Z" class="highcharts-point highcharts-color-0" tabindex="-1" aria-label="France, value: 323.7. Europe." style="outline:0"/><path d="M181.562 318.93a13 13 0 1 1 .013 0Z" class="highcharts-point highcharts-color-0" tabindex="-1" aria-label="Romania, value: 78.3. Europe." style="outline:0"/><path d="M172.76 159.291a20.5 20.5 0 1 1 .021 0Z" class="highcharts-point highcharts-color-0" tabindex="-1" aria-label="United Kingdom, value: 415.4. Europe." style="outline:0"/><path d="M298.86 99.083a19.5 19.5 0 1 1 .019 0Z" class="highcharts-point highcharts-color-0" tabindex="-1" aria-label="Turkey, value: 353.2. Europe." style="outline:0"/><path d="M377.039 128.593a19.5 19.5 0 1 1 .02 0Z" class="highcharts-point highcharts-color-0" tabindex="-1" aria-label="Italy, value: 337.6. Europe." style="outline:0"/><path d="M451.755 261.749a13 13 0 1 1 .013 0Z" class="highcharts-point highcharts-color-0" tabindex="-1" aria-label="Greece, value: 71.1. Europe." style="outline:0"/><path d="M333 400.237a13 13 0 1 1 .013 0Z" class="highcharts-point highcharts-color-0" tabindex="-1" aria-label="Austria, value: 69.8. Europe." style="outline:0"/><path d="M176.403 347.802a12.5 12.5 0 1 1 .013 0Z" class="highcharts-point highcharts-color-0" tabindex="-1" aria-label="Belarus, value: 67.7. Europe." style="outline:0"/><path d="M141.208 239.7a12.5 12.5 0 1 1 .012 0Z" class="highcharts-point highcharts-color-0" tabindex="-1" aria-label="Serbia, value: 59.3. Europe." style="outline:0"/><path d="M233.325 147.42a12 12 0 1 1 .012 0Z" class="highcharts-point highcharts-color-0" tabindex="-1" aria-label="Finland, value: 54.8. Europe." style="outline:0"/><path d="M320.188 162.131a12 12 0 1 1 .012 0Z" class="highcharts-point highcharts-color-0" tabindex="-1" aria-label="Bulgaria, value: 51.2. Europe." style="outline:0"/><path d="M426.897 235.32a12 12 0 1 1 .012 0Z" class="highcharts-point highcharts-color-0" tabindex="-1" aria-label="Portugal, value: 48.3. Europe." style="outline:0"/><path d="M382.744 357.428a11.5 11.5 0 1 1 .011 0Z" class="highcharts-point highcharts-color-0" tabindex="-1" aria-label="Norway, value: 44.4. Europe." style="outline:0"/><path d="M241.893 375.743a11.5 11.5 0 1 1 .011 0Z" class="highcharts-point highcharts-color-0" tabindex="-1" aria-label="Sweden, value: 44.3. Europe." style="outline:0"/><path d="M165.555 252.994a11.5 11.5 0 1 1 .012 0Z" class="highcharts-point highcharts-color-0" tabindex="-1" aria-label="Hungary, value: 43.7. Europe." style="outline:0"/><path d="M207.865 159.652a11.5 11.5 0 1 1 .011 0Z" class="highcharts-point highcharts-color-0" tabindex="-1" aria-label="Switzerland, value: 40.2. Europe." style="outline:0"/><path d="M380.421 155.966a11.5 11.5 0 1 1 .012 0Z" class="highcharts-point highcharts-color-0" tabindex="-1" aria-label="Denmark, value: 40. Europe." style="outline:0"/><path d="M423.474 261.772a11 11 0 1 1 .011 0Z" class="highcharts-point highcharts-color-0" tabindex="-1" aria-label="Slovakia, value: 34.7. Europe." style="outline:0"/><path d="M290.999 392.201a11 11 0 1 1 .01 0Z" class="highcharts-point highcharts-color-0" tabindex="-1" aria-label="Ireland, value: 34.6. Europe." style="outline:0"/><path d="M200.682 335.07a10 10 0 1 1 .01 0Z" class="highcharts-point highcharts-color-0" tabindex="-1" aria-label="Croatia, value: 20.7. Europe." style="outline:0"/><path d="M189.44 241.885a10 10 0 1 1 .01 0Z" class="highcharts-point highcharts-color-0" tabindex="-1" aria-label="Estonia, value: 19.4. Europe." style="outline:0"/><path d="M207.079 184.283a10 10 0 1 1 .01 0Z" class="highcharts-point highcharts-color-0" tabindex="-1" aria-label="Slovenia, value: 16.7. Europe." style="outline:0"/><path d="M258.95 139.843a9.5 9.5 0 1 1 .009 0Z" class="highcharts-point highcharts-color-0" tabindex="-1" aria-label="Lithuania, value: 12.3. Europe." style="outline:0"/><path d="M373.699 178.413a9.5 9.5 0 1 1 .01 0Z" class="highcharts-point highcharts-color-0" tabindex="-1" aria-label="Luxembourg, value: 10.4. Europe." style="outline:0"/><path d="M405.762 217.741a9.5 9.5 0 1 1 .01 0Z" class="highcharts-point highcharts-color-0" tabindex="-1" aria-label="Macedonia, value: 9.5. Europe." style="outline:0"/><path d="M346.693 324.48a9 9 0 1 1 .009 0Z" class="highcharts-point highcharts-color-0" tabindex="-1" aria-label="Moldova, value: 7.8. Europe." style="outline:0"/><path d="M190.314 290.488a9 9 0 1 1 .009 0Z" class="highcharts-point highcharts-color-0" tabindex="-1" aria-label="Latvia, value: 7.5. Europe." style="outline:0"/><path d="M244.154 236.68a9 9 0 1 1 .01 0Z" class="highcharts-point highcharts-color-0" tabindex="-1" aria-label="Cyprus, value: 7.2. Europe." style="outline:0"/></g><g class="highcharts-series highcharts-series-1 highcharts-packedbubble-series highcharts-color-1 highcharts-tracker" data-z-index=".1" clip-path="url(#a)" aria-hidden="false" tabindex="-1" aria-label="Africa, series 2 of 6 with 17 data points." style="outline:0" fill="#8085e9" stroke="#8085e9" transform="translate(10 43)"><path d="M258.093 354.009a9 9 0 1 1 .009 0Z" class="highcharts-point highcharts-color-1" tabindex="-1" aria-label="Senegal, value: 8.2. Africa." style="outline:0"/><path d="M363.026 309.38a9 9 0 1 1 .009 0Z" class="highcharts-point highcharts-color-1" tabindex="-1" aria-label="Cameroon, value: 9.2. Africa." style="outline:0"/><path d="M269.034 374.472a9.5 9.5 0 1 1 .01 0Z" class="highcharts-point highcharts-color-1" tabindex="-1" aria-label="Zimbabwe, value: 13.1. Africa." style="outline:0"/><path d="M262.106 257.128a9.5 9.5 0 1 1 .01 0Z" class="highcharts-point highcharts-color-1" tabindex="-1" aria-label="Ghana, value: 14.1. Africa." style="outline:0"/><path d="M265.845 234.862a9.5 9.5 0 1 1 .01 0Z" class="highcharts-point highcharts-color-1" tabindex="-1" aria-label="Kenya, value: 14.1. Africa." style="outline:0"/><path d="M252.889 163.543a10 10 0 1 1 .01 0Z" class="highcharts-point highcharts-color-1" tabindex="-1" aria-label="Sudan, value: 17.3. Africa." style="outline:0"/><path d="M398.337 173.936a10.5 10.5 0 1 1 .01 0Z" class="highcharts-point highcharts-color-1" tabindex="-1" aria-label="Tunisia, value: 24.3. Africa." style="outline:0"/><path d="M369.56 333.348a10.5 10.5 0 1 1 .01 0Z" class="highcharts-point highcharts-color-1" tabindex="-1" aria-label="Angola, value: 25. Africa." style="outline:0"/><path d="M280.892 346.5a12 12 0 1 1 .012 0Z" class="highcharts-point highcharts-color-1" tabindex="-1" aria-label="Libya, value: 50.6. Africa." style="outline:0"/><path d="M240.486 293.23a9 9 0 1 1 .009-.001Z" class="highcharts-point highcharts-color-1" tabindex="-1" aria-label="Ivory Coast, value: 7.3. Africa." style="outline:0"/><path d="M180.567 192.795a12.5 12.5 0 1 1 .012 0Z" class="highcharts-point highcharts-color-1" tabindex="-1" aria-label="Morocco, value: 60.7. Africa." style="outline:0"/><path d="M273.645 156.163a9 9 0 1 1 .009 0Z" class="highcharts-point highcharts-color-1" tabindex="-1" aria-label="Ethiopia, value: 8.9. Africa." style="outline:0"/><path d="M368.05 200.256a9 9 0 1 1 .009 0Z" class="highcharts-point highcharts-color-1" tabindex="-1" aria-label="United Republic of Tanzania, value: 9.1. Africa." style="outline:0"/><path d="M400.48 281.726a13.5 13.5 0 1 1 .014 0Z" class="highcharts-point highcharts-color-1" tabindex="-1" aria-label="Nigeria, value: 93.9. Africa." style="outline:0"/><path d="M366.683 425.757a20.5 20.5 0 1 1 .021 0Z" class="highcharts-point highcharts-color-1" tabindex="-1" aria-label="South Africa, value: 392.7. Africa." style="outline:0"/><path d="M230.348 350.238a17 17 0 1 1 .017 0Z" class="highcharts-point highcharts-color-1" tabindex="-1" aria-label="Egypt, value: 225.1. Africa." style="outline:0"/><path d="M168.786 225.647a15 15 0 1 1 .015 0Z" class="highcharts-point highcharts-color-1" tabindex="-1" aria-label="Algeria, value: 141.5. Africa." style="outline:0"/></g><g class="highcharts-series highcharts-series-2 highcharts-packedbubble-series highcharts-color-2 highcharts-tracker" data-z-index=".1" clip-path="url(#a)" aria-hidden="false" tabindex="-1" aria-label="Oceania, series 3 of 6 with 3 data points." style="outline:0" fill="#8d4654" stroke="#8d4654" transform="translate(10 43)"><path d="M156.83 297.52a20.5 20.5 0 1 1 .021 0Z" class="highcharts-point highcharts-color-2" tabindex="-1" aria-label="Australia, value: 409.4. Oceania." style="outline:0"/><path d="M312.899 378.112a11 11 0 1 1 .01 0Z" class="highcharts-point highcharts-color-2" tabindex="-1" aria-label="New Zealand, value: 34.1. Oceania." style="outline:0"/><path d="M258.258 331.804a9 9 0 1 1 .009 0Z" class="highcharts-point highcharts-color-2" tabindex="-1" aria-label="Papua New Guinea, value: 7.1. Oceania." style="outline:0"/></g><g class="highcharts-series highcharts-series-3 highcharts-packedbubble-series highcharts-color-3 highcharts-tracker" data-z-index=".1" clip-path="url(#a)" aria-hidden="false" tabindex="-1" aria-label="North America, series 4 of 6 with 10 data points." style="outline:0" fill="#7798BF" stroke="#7798BF" transform="translate(10 43)"><path d="M221.11 237.808a9 9 0 1 1 .01 0Z" class="highcharts-point highcharts-color-3" tabindex="-1" aria-label="Costa Rica, value: 7.6. North America." style="outline:0"/><path d="M274.931 319.715a9 9 0 1 1 .01 0Z" class="highcharts-point highcharts-color-3" tabindex="-1" aria-label="Honduras, value: 8.4. North America." style="outline:0"/><path d="M244.195 315.096a9 9 0 1 1 .01 0Z" class="highcharts-point highcharts-color-3" tabindex="-1" aria-label="Jamaica, value: 8.3. North America." style="outline:0"/><path d="M208.544 278.728a9.5 9.5 0 1 1 .01 0Z" class="highcharts-point highcharts-color-3" tabindex="-1" aria-label="Panama, value: 10.2. North America." style="outline:0"/><path d="M229.655 197.926a9.5 9.5 0 1 1 .01 0Z" class="highcharts-point highcharts-color-3" tabindex="-1" aria-label="Guatemala, value: 12. North America." style="outline:0"/><path d="M322.724 134.2a10.5 10.5 0 1 1 .01 0Z" class="highcharts-point highcharts-color-3" tabindex="-1" aria-label="Dominican Republic, value: 23.4. North America." style="outline:0"/><path d="M380.442 222.612a11 11 0 1 1 .011 0Z" class="highcharts-point highcharts-color-3" tabindex="-1" aria-label="Cuba, value: 30.2. North America." style="outline:0"/><path d="M416.89 405.067a28 28 0 1 1 .027 0Z" class="highcharts-point highcharts-color-3" tabindex="-1" aria-label="USA, value: 5,334.5. North America." style="outline:0"/><path d="M224.21 462.79a23 23 0 1 1 .023 0Z" class="highcharts-point highcharts-color-3" tabindex="-1" aria-label="Canada, value: 566. North America." style="outline:0"/><path d="M114.576 278.845a21.5 21.5 0 1 1 .021 0Z" class="highcharts-point highcharts-color-3" tabindex="-1" aria-label="Mexico, value: 456.3. North America." style="outline:0"/></g><g class="highcharts-series highcharts-series-4 highcharts-packedbubble-series highcharts-color-4 highcharts-tracker" data-z-index=".1" clip-path="url(#a)" aria-hidden="false" tabindex="-1" aria-label="South America, series 5 of 6 with 11 data points." style="outline:0" fill="#aee" stroke="#aee" transform="translate(10 43)"><path d="M207.214 254.9a9 9 0 1 1 .009 0Z" class="highcharts-point highcharts-color-4" tabindex="-1" aria-label="El Salvador, value: 7.2. South America." style="outline:0"/><path d="M290.405 366.096a9 9 0 1 1 .009 0Z" class="highcharts-point highcharts-color-4" tabindex="-1" aria-label="Uruguay, value: 8.1. South America." style="outline:0"/><path d="M262.299 301.832a10 10 0 1 1 .01 0Z" class="highcharts-point highcharts-color-4" tabindex="-1" aria-label="Bolivia, value: 17.8. South America." style="outline:0"/><path d="M187.025 268.475a11 11 0 1 1 .011 0Z" class="highcharts-point highcharts-color-4" tabindex="-1" aria-label="Trinidad and Tobago, value: 34. South America." style="outline:0"/><path d="M229.581 174.696a11.5 11.5 0 1 1 .012 0Z" class="highcharts-point highcharts-color-4" tabindex="-1" aria-label="Ecuador, value: 43. South America." style="outline:0"/><path d="M308.014 190.117a13 13 0 1 1 .013 0Z" class="highcharts-point highcharts-color-4" tabindex="-1" aria-label="Chile, value: 78.6. South America." style="outline:0"/><path d="M391.495 199.804a12 12 0 1 1 .012 0Z" class="highcharts-point highcharts-color-4" tabindex="-1" aria-label="Peru, value: 52. South America." style="outline:0"/><path d="M301.039 325.981a13 13 0 1 1 .013 0Z" class="highcharts-point highcharts-color-4" tabindex="-1" aria-label="Colombia, value: 74.1. South America." style="outline:0"/><path d="M208.378 414.407a22 22 0 1 1 .022 0Z" class="highcharts-point highcharts-color-4" tabindex="-1" aria-label="Brazil, value: 501.1. South America." style="outline:0"/><path d="M215.12 314.838a16.5 16.5 0 1 1 .017 0Z" class="highcharts-point highcharts-color-4" tabindex="-1" aria-label="Argentina, value: 199. South America." style="outline:0"/><path d="M203.543 221.098a16.5 16.5 0 1 1 .017 0Z" class="highcharts-point highcharts-color-4" tabindex="-1" aria-label="Venezuela, value: 195.2. South America." style="outline:0"/></g><g class="highcharts-series highcharts-series-5 highcharts-packedbubble-series highcharts-color-5 highcharts-tracker" data-z-index=".1" clip-path="url(#a)" aria-hidden="false" tabindex="-1" aria-label="Asia, series 6 of 6 with 40 data points." style="outline:0" fill="#f06" stroke="#f06" transform="translate(10 43)"><path d="M248.772 184.912a9 9 0 1 1 .009 0Z" class="highcharts-point highcharts-color-5" tabindex="-1" aria-label="Nepal, value: 6.5. Asia." style="outline:0"/><path d="M325.32 332.616a9 9 0 1 1 .01 0Z" class="highcharts-point highcharts-color-5" tabindex="-1" aria-label="Georgia, value: 6.5. Asia." style="outline:0"/><path d="M284.797 301.488a9 9 0 1 1 .01 0Z" class="highcharts-point highcharts-color-5" tabindex="-1" aria-label="Brunei Darussalam, value: 7.4. Asia." style="outline:0"/><path d="M257.359 279.45a9 9 0 1 1 .009 0Z" class="highcharts-point highcharts-color-5" tabindex="-1" aria-label="Kyrgyzstan, value: 7.4. Asia." style="outline:0"/><path d="M231.518 219.275a9 9 0 1 1 .009 0Z" class="highcharts-point highcharts-color-5" tabindex="-1" aria-label="Afghanistan, value: 7.9. Asia." style="outline:0"/><path d="M378.546 261.67a9 9 0 1 1 .01 0Z" class="highcharts-point highcharts-color-5" tabindex="-1" aria-label="Myanmar, value: 9.1. Asia." style="outline:0"/><path d="M295.032 163.307a10 10 0 1 1 .01 0Z" class="highcharts-point highcharts-color-5" tabindex="-1" aria-label="Mongolia, value: 14.7. Asia." style="outline:0"/><path d="M327.284 313.8a10 10 0 1 1 .01 0Z" class="highcharts-point highcharts-color-5" tabindex="-1" aria-label="Sri Lanka, value: 16.6. Asia." style="outline:0"/><path d="M311.635 238.828a10 10 0 1 1 .01 0Z" class="highcharts-point highcharts-color-5" tabindex="-1" aria-label="Bahrain, value: 20.5. Asia." style="outline:0"/><path d="M328.496 266.596a10.5 10.5 0 1 1 .01 0Z" class="highcharts-point highcharts-color-5" tabindex="-1" aria-label="Yemen, value: 22.6. Asia." style="outline:0"/><path d="M305.41 262.788a10.5 10.5 0 1 1 .01 0Z" class="highcharts-point highcharts-color-5" tabindex="-1" aria-label="Jordan, value: 22.3. Asia." style="outline:0"/><path d="M364.698 241.478a10.5 10.5 0 1 1 .01 0Z" class="highcharts-point highcharts-color-5" tabindex="-1" aria-label="Lebanon, value: 21.1. Asia." style="outline:0"/><path d="M351.707 219.394a11 11 0 1 1 .01 0Z" class="highcharts-point highcharts-color-5" tabindex="-1" aria-label="Azerbaijan, value: 31.7. Asia." style="outline:0"/><path d="M372.339 288.95a12 12 0 1 1 .012 0Z" class="highcharts-point highcharts-color-5" tabindex="-1" aria-label="Singapore, value: 47.8. Asia." style="outline:0"/><path d="M308.707 352.562a12 12 0 1 1 .012 0Z" class="highcharts-point highcharts-color-5" tabindex="-1" aria-label="Hong Kong, value: 49.9. Asia." style="outline:0"/><path d="M337.414 242.88a12 12 0 1 1 .012 0Z" class="highcharts-point highcharts-color-5" tabindex="-1" aria-label="Syria, value: 52.7. Asia." style="outline:0"/><path d="M286.293 250.757a12.5 12.5 0 1 1 .012 0Z" class="highcharts-point highcharts-color-5" tabindex="-1" aria-label="DPR Korea, value: 59.9. Asia." style="outline:0"/><path d="M324.149 217.45a12.5 12.5 0 1 1 .012 0Z" class="highcharts-point highcharts-color-5" tabindex="-1" aria-label="Israel, value: 64.8. Asia." style="outline:0"/><path d="M353.856 267.648a13 13 0 1 1 .013 0Z" class="highcharts-point highcharts-color-5" tabindex="-1" aria-label="Turkmenistan, value: 70.6. Asia." style="outline:0"/><path d="M408.188 345.105a13 13 0 1 1 .013 0Z" class="highcharts-point highcharts-color-5" tabindex="-1" aria-label="Oman, value: 74.3. Asia." style="outline:0"/><path d="M343.615 295.588a13.5 13.5 0 1 1 .014 0Z" class="highcharts-point highcharts-color-5" tabindex="-1" aria-label="Qatar, value: 88.8. Asia." style="outline:0"/><path d="M281.208 280.141a13.5 13.5 0 1 1 .013 0Z" class="highcharts-point highcharts-color-5" tabindex="-1" aria-label="Philippines, value: 96.9. Asia." style="outline:0"/><path d="M255.396 214.564a14 14 0 1 1 .014 0Z" class="highcharts-point highcharts-color-5" tabindex="-1" aria-label="Kuwait, value: 98.6. Asia." style="outline:0"/><path d="M275.842 188.895a14.5 14.5 0 1 1 .014 0Z" class="highcharts-point highcharts-color-5" tabindex="-1" aria-label="Uzbekistan, value: 122.6. Asia." style="outline:0"/><path d="M397.771 250.392a15 15 0 1 1 .015 0Z" class="highcharts-point highcharts-color-5" tabindex="-1" aria-label="Iraq, value: 139.9. Asia." style="outline:0"/><path d="M349.758 153.668a15.5 15.5 0 1 1 .016 0Z" class="highcharts-point highcharts-color-5" tabindex="-1" aria-label="Pakistan, value: 158.1. Asia." style="outline:0"/><path d="M393.351 318.425a16.5 16.5 0 1 1 .016 0Z" class="highcharts-point highcharts-color-5" tabindex="-1" aria-label="Vietnam, value: 190.2. Asia." style="outline:0"/><path d="M310.719 297.237a16.5 16.5 0 1 1 .016 0Z" class="highcharts-point highcharts-color-5" tabindex="-1" aria-label="United Arab Emirates, value: 201.1. Asia." style="outline:0"/><path d="M233.652 272.692a17 17 0 1 1 .017 0Z" class="highcharts-point highcharts-color-5" tabindex="-1" aria-label="Malaysia, value: 227.5. Asia." style="outline:0"/><path d="M290.404 223.51a17.5 17.5 0 1 1 .018 0Z" class="highcharts-point highcharts-color-5" tabindex="-1" aria-label="Kazakhstan, value: 236.2. Asia." style="outline:0"/><path d="M289.927 138.847a18 18 0 1 1 .018 0Z" class="highcharts-point highcharts-color-5" tabindex="-1" aria-label="Thailand, value: 272. Asia." style="outline:0"/><path d="M342.631 193.743a18 18 0 1 1 .018 0Z" class="highcharts-point highcharts-color-5" tabindex="-1" aria-label="Taiwan, value: 276.7. Asia." style="outline:0"/><path d="M345.56 371.929a21.5 21.5 0 1 1 .022 0Z" class="highcharts-point highcharts-color-5" tabindex="-1" aria-label="Indonesia, value: 453. Asia." style="outline:0"/><path d="M305.653 438.143a22 22 0 1 1 .022 0Z" class="highcharts-point highcharts-color-5" tabindex="-1" aria-label="Saudi Arabia, value: 494.8. Asia." style="outline:0"/><path d="M132.371 352.397a28 28 0 1 1 .028 0Z" class="highcharts-point highcharts-color-5" tabindex="-1" aria-label="Japan, value: 1,278.9. Asia." style="outline:0"/><path d="M135.265 204.692a28 28 0 1 1 .028 0Z" class="highcharts-point highcharts-color-5" tabindex="-1" aria-label="China, value: 10,540.8. Asia." style="outline:0"/><path d="M247.467 117.864a28 28 0 1 1 .028 0Z" class="highcharts-point highcharts-color-5" tabindex="-1" aria-label="India, value: 2,341.9. Asia." style="outline:0"/><path d="M425.294 157.792a28 28 0 1 1 .028 0Z" class="highcharts-point highcharts-color-5" tabindex="-1" aria-label="Russia, value: 1,766.4. Asia." style="outline:0"/><path d="M437.069 311.065a23.5 23.5 0 1 1 .023 0Z" class="highcharts-point highcharts-color-5" tabindex="-1" aria-label="Iran, value: 618.2. Asia." style="outline:0"/><path d="M257.662 424.464a23.5 23.5 0 1 1 .024 0Z" class="highcharts-point highcharts-color-5" tabindex="-1" aria-label="Korea, value: 610.1. Asia." style="outline:0"/></g></g><text x="300" text-anchor="middle" class="highcharts-title" data-z-index="4" style="color:#000;font-size:16px;font-weight:700;fill:#000" y="22" aria-hidden="true">Carbon emissions around the world (2014)</text><g class="highcharts-data-labels highcharts-series-0 highcharts-packedbubble-series highcharts-color-0 highcharts-tracker" data-z-index="6" aria-hidden="true"><g style="transition:opacity 2000ms ease 0s"><text data-z-index="1" y="11" style="color:#000;font-size:11px;font-weight:400;fill:#000" transform="translate(456 245)" class="highcharts-label highcharts-data-label highcharts-data-label-color-0">Germany</text></g><g style="transition:opacity 2000ms ease 0s"><text data-z-index="1" y="11" style="color:#000;font-size:11px;font-weight:400;fill:#000" transform="translate(439 371)" class="highcharts-label highcharts-data-label highcharts-data-label-color-0">Poland</text></g><g style="transition:opacity 2000ms ease 0s;pointer-events:auto"><text data-z-index="1" y="11" style="color:#000;font-size:11px;font-weight:400;fill:#000" transform="translate(163 407)" class="highcharts-label highcharts-data-label highcharts-data-label-color-0">France</text></g><g style="transition:opacity 2000ms ease 0s;pointer-events:auto"><text data-z-index="1" y="11" style="color:#000;font-size:11px;font-weight:400;fill:#000" transform="translate(146 176)" class="highcharts-label highcharts-data-label highcharts-data-label-color-0">United Kingdom</text></g><g style="transition:opacity 2000ms ease 0s"><text data-z-index="1" y="11" style="color:#000;font-size:11px;font-weight:400;fill:#000" transform="translate(293 117)" class="highcharts-label highcharts-data-label highcharts-data-label-color-0">Turkey</text></g><g style="transition:opacity 2000ms ease 0s;pointer-events:auto"><text data-z-index="1" y="11" style="color:#000;font-size:11px;font-weight:400;fill:#000" transform="translate(377 146)" class="highcharts-label highcharts-data-label highcharts-data-label-color-0">Italy</text></g></g><g style="transition:opacity 2000ms ease 0s" class="highcharts-data-labels highcharts-series-1 highcharts-packedbubble-series highcharts-color-1 highcharts-tracker" data-z-index="6" aria-hidden="true"><text data-z-index="1" y="11" style="color:#000;font-size:11px;font-weight:400;fill:#000" transform="translate(349 442)" class="highcharts-label highcharts-data-label highcharts-data-label-color-1">South Africa</text></g><g style="transition:opacity 2000ms ease 0s" class="highcharts-data-labels highcharts-series-2 highcharts-packedbubble-series highcharts-color-2 highcharts-tracker" data-z-index="6" aria-hidden="true"><text data-z-index="1" y="11" style="color:#000;font-size:11px;font-weight:400;fill:#000" transform="translate(147 314)" class="highcharts-label highcharts-data-label highcharts-data-label-color-2">Australia</text></g><g class="highcharts-data-labels highcharts-series-3 highcharts-packedbubble-series highcharts-color-3 highcharts-tracker" data-z-index="6" aria-hidden="true"><g style="transition:opacity 2000ms ease 0s"><text data-z-index="1" y="11" style="color:#000;font-size:11px;font-weight:400;fill:#000" transform="translate(416 414)" class="highcharts-label highcharts-data-label highcharts-data-label-color-3">USA</text></g><g style="transition:opacity 2000ms ease 0s;pointer-events:auto"><text data-z-index="1" y="11" style="color:#000;font-size:11px;font-weight:400;fill:#000" transform="translate(218 477)" class="highcharts-label highcharts-data-label highcharts-data-label-color-3">Canada</text></g><g style="transition:opacity 2000ms ease 0s"><text data-z-index="1" y="11" style="color:#000;font-size:11px;font-weight:400;fill:#000" transform="translate(108 294)" class="highcharts-label highcharts-data-label highcharts-data-label-color-3">Mexico</text></g></g><g style="transition:opacity 2000ms ease 0s" class="highcharts-data-labels highcharts-series-4 highcharts-packedbubble-series highcharts-color-4 highcharts-tracker" data-z-index="6" aria-hidden="true"><text data-z-index="1" y="11" style="color:#000;font-size:11px;font-weight:400;fill:#000" transform="translate(205 429)" class="highcharts-label highcharts-data-label highcharts-data-label-color-4">Brazil</text></g><g class="highcharts-data-labels highcharts-series-5 highcharts-packedbubble-series highcharts-color-5 highcharts-tracker" data-z-index="6" aria-hidden="true"><g style="transition:opacity 2000ms ease 0s"><text data-z-index="1" y="11" style="color:#000;font-size:11px;font-weight:400;fill:#000" transform="translate(280 158)" class="highcharts-label highcharts-data-label highcharts-data-label-color-5">Thailand</text></g><g style="transition:opacity 2000ms ease 0s;pointer-events:auto"><text data-z-index="1" y="11" style="color:#000;font-size:11px;font-weight:400;fill:#000" transform="translate(337 213)" class="highcharts-label highcharts-data-label highcharts-data-label-color-5">Taiwan</text></g><g style="transition:opacity 2000ms ease 0s"><text data-z-index="1" y="11" style="color:#000;font-size:11px;font-weight:400;fill:#000" transform="translate(334 387)" class="highcharts-label highcharts-data-label highcharts-data-label-color-5">Indonesia</text></g><g style="transition:opacity 2000ms ease 0s;pointer-events:auto"><text data-z-index="1" y="11" style="color:#000;font-size:11px;font-weight:400;fill:#000" transform="translate(287 453)" class="highcharts-label highcharts-data-label highcharts-data-label-color-5">Saudi Arabia</text></g><g style="transition:opacity 2000ms ease 0s;pointer-events:auto"><text data-z-index="1" y="11" style="color:#000;font-size:11px;font-weight:400;fill:#000" transform="translate(130 361)" class="highcharts-label highcharts-data-label highcharts-data-label-color-5">Japan</text></g><g style="transition:opacity 2000ms ease 0s;pointer-events:auto"><text data-z-index="1" y="11" style="color:#000;font-size:11px;font-weight:400;fill:#000" transform="translate(132 214)" class="highcharts-label highcharts-data-label highcharts-data-label-color-5">China</text></g><g style="transition:opacity 2000ms ease 0s;pointer-events:auto"><text data-z-index="1" y="11" style="color:#000;font-size:11px;font-weight:400;fill:#000" transform="translate(246 127)" class="highcharts-label highcharts-data-label highcharts-data-label-color-5">India</text></g><g style="transition:opacity 2000ms ease 0s;pointer-events:auto"><text data-z-index="1" y="11" style="color:#000;font-size:11px;font-weight:400;fill:#000" transform="translate(421 167)" class="highcharts-label highcharts-data-label highcharts-data-label-color-5">Russia</text></g><g style="transition:opacity 2000ms ease 0s;pointer-events:auto"><text data-z-index="1" y="11" style="color:#000;font-size:11px;font-weight:400;fill:#000" transform="translate(438 325)" class="highcharts-label highcharts-data-label highcharts-data-label-color-5">Iran</text></g><g style="transition:opacity 2000ms ease 0s;pointer-events:auto"><text data-z-index="1" y="11" style="color:#000;font-size:11px;font-weight:400;fill:#000" transform="translate(254 438)" class="highcharts-label highcharts-data-label highcharts-data-label-color-5">Korea</text></g></g><g class="highcharts-legend highcharts-no-tooltip" data-z-index="7" transform="translate(23 558)" aria-hidden="true"><rect fill="#E0E0E8" class="highcharts-legend-box" rx="0" ry="0" width="554" height="27"/><g data-z-index="1"><g class="highcharts-legend-item highcharts-packedbubble-series highcharts-color-0 highcharts-series-0" data-z-index="1"><path fill="none" d="M8 15h16" class="highcharts-graph"/><path fill="#f45b5b" d="M16.5 22a6.5 6.5 0 1 1 .006 0Z" class="highcharts-point" stroke="#f45b5b" fill-opacity=".5"/><text x="21" data-z-index="2" y="16" style="color:#333;cursor:pointer;font-size:13px;font-weight:700;fill:#333" transform="translate(8 3)">Europe</text></g><g class="highcharts-legend-item highcharts-packedbubble-series highcharts-color-1 highcharts-series-1" data-z-index="1"><path fill="none" d="M89.938 15h16" class="highcharts-graph"/><path fill="#8085e9" d="M98.438 22a6.5 6.5 0 1 1 .006 0Z" class="highcharts-point" stroke="#8085e9" fill-opacity=".5"/><text x="21" y="16" data-z-index="2" style="color:#333;cursor:pointer;font-size:13px;font-weight:700;fill:#333" transform="translate(89.938 3)">Africa</text></g><g class="highcharts-legend-item highcharts-packedbubble-series highcharts-color-2 highcharts-series-2" data-z-index="1"><path fill="none" d="M166.313 15h16" class="highcharts-graph"/><path fill="#8d4654" d="M174.813 22a6.5 6.5 0 1 1 .006 0Z" class="highcharts-point" stroke="#8d4654" fill-opacity=".5"/><text x="21" y="16" data-z-index="2" style="color:#333;cursor:pointer;font-size:13px;font-weight:700;fill:#333" transform="translate(166.313 3)">Oceania</text></g><g class="highcharts-legend-item highcharts-packedbubble-series highcharts-color-3 highcharts-series-3" data-z-index="1"><path fill="none" d="M252.813 15h16" class="highcharts-graph"/><path fill="#7798BF" d="M261.313 22a6.5 6.5 0 1 1 .006 0Z" class="highcharts-point" stroke="#7798BF" fill-opacity=".5"/><text x="21" y="16" data-z-index="2" style="color:#333;cursor:pointer;font-size:13px;font-weight:700;fill:#333" transform="translate(252.813 3)">North America</text></g><g class="highcharts-legend-item highcharts-packedbubble-series highcharts-color-4 highcharts-series-4" data-z-index="1"><path fill="none" d="M377.203 15h16" class="highcharts-graph"/><path fill="#aee" d="M385.703 22a6.5 6.5 0 1 1 .007 0Z" class="highcharts-point" stroke="#aee" fill-opacity=".5"/><text x="21" y="16" data-z-index="2" style="color:#333;cursor:pointer;font-size:13px;font-weight:700;fill:#333" transform="translate(377.203 3)">South America</text></g><g class="highcharts-legend-item highcharts-packedbubble-series highcharts-color-5 highcharts-series-5" data-z-index="1"><path fill="none" d="M500.898 15h16" class="highcharts-graph"/><path fill="#f06" d="M509.398 22a6.5 6.5 0 1 1 .007 0Z" class="highcharts-point" stroke="#f06" fill-opacity=".5"/><text x="21" y="16" data-z-index="2" style="color:#333;cursor:pointer;font-size:13px;font-weight:700;fill:#333" transform="translate(500.898 3)">Asia</text></g></g></g></svg>