<svg class="highcharts-root" style="font-family:Signika,serif;font-size:12px" xmlns="http://www.w3.org/2000/svg" width="600" height="400" aria-label="Interactive chart" aria-hidden="false"><defs aria-hidden="true"><clipPath id="b"><path fill="none" d="M0 0h507v235H0z"/></clipPath><clipPath id="a"><path fill="none" d="M0 0h507v235H0z"/></clipPath></defs><rect fill="none" class="highcharts-background" width="600" height="400" rx="0" ry="0" aria-hidden="true"/><path fill="none" class="highcharts-plot-background" aria-hidden="true" d="M42 43h507v235H42z"/><g class="highcharts-grid highcharts-xaxis-grid" data-z-index="1" aria-hidden="true" fill="none"><path data-z-index="1" class="highcharts-grid-line" d="M104.5 43v235m64-235v235m63-235v235m64-235v235m63-235v235m63-235v235m64-235v235m63-235v235M41.5 43v235"/></g><g class="highcharts-grid highcharts-yaxis-grid" data-z-index="1" aria-hidden="true" fill="none" stroke="#e6e6e6"><path data-z-index="1" class="highcharts-grid-line" d="M42 278.5h507m-507-59h507m-507-58h507m-507-59h507m-507-60h507"/></g><g class="highcharts-grid highcharts-yaxis-grid" data-z-index="1" aria-hidden="true" fill="none" stroke="#e6e6e6"><path data-z-index="1" class="highcharts-grid-line" d="M42 278.5h507m-507-59h507m-507-58h507m-507-59h507m-507-60h507"/></g><path fill="none" class="highcharts-plot-border" data-z-index="1" aria-hidden="true" d="M42 43h507v235H42z"/><g class="highcharts-axis highcharts-xaxis" data-z-index="2" aria-hidden="true"><path fill="none" class="highcharts-axis-line" stroke="#ccd6eb" data-z-index="7" d="M42 278.5h507"/></g><g class="highcharts-axis highcharts-yaxis" data-z-index="2" aria-hidden="true"><path fill="none" class="highcharts-axis-line" data-z-index="7" d="M42 43v235"/></g><g class="highcharts-axis highcharts-yaxis" data-z-index="2" aria-hidden="true"><path fill="none" class="highcharts-axis-line" data-z-index="7" d="M549 43v235"/></g><g class="highcharts-series-group" data-z-index="3" aria-hidden="false"><g class="highcharts-series highcharts-series-1 highcharts-column-series highcharts-color-1 highcharts-tracker" data-z-index="2" clip-path="url(#a)" aria-hidden="false" tabindex="-1" aria-label="Complaints, series 2 of 2. Bar series with 8 bars. Y axis, values." style="outline:0" transform="translate(42 43)"><path fill="none" stroke="#000" stroke-width="5" stroke-opacity=".05" class="highcharts-shadow" d="M16.5 14.5h31v222h-31z"/><path fill="none" stroke="#000" stroke-width="3" stroke-opacity=".1" class="highcharts-shadow" d="M16.5 14.5h31v222h-31z"/><path fill="none" stroke="#000" stroke-opacity=".15" class="highcharts-shadow" d="M16.5 14.5h31v222h-31z"/><path fill="#8085e9" stroke="#fff" class="highcharts-point highcharts-color-1" tabindex="-1" aria-label="Overpriced, 755. Complaints." style="outline:0" d="M15.5 13.5h31v222h-31z"/><path fill="none" stroke="#000" stroke-width="5" stroke-opacity=".05" class="highcharts-shadow" d="M80.5 171.5h31v65h-31z"/><path fill="none" stroke="#000" stroke-width="3" stroke-opacity=".1" class="highcharts-shadow" d="M80.5 171.5h31v65h-31z"/><path fill="none" stroke="#000" stroke-opacity=".15" class="highcharts-shadow" d="M80.5 171.5h31v65h-31z"/><path fill="#8085e9" stroke="#fff" class="highcharts-point highcharts-color-1" tabindex="-1" aria-label="Small portions, 222. Complaints." style="outline:0" d="M79.5 170.5h31v65h-31z"/><path fill="none" stroke="#000" stroke-width="5" stroke-opacity=".05" class="highcharts-shadow" d="M143.5 192.5h31v44h-31z"/><path fill="none" stroke="#000" stroke-width="3" stroke-opacity=".1" class="highcharts-shadow" d="M143.5 192.5h31v44h-31z"/><path fill="none" stroke="#000" stroke-opacity=".15" class="highcharts-shadow" d="M143.5 192.5h31v44h-31z"/><path fill="#8085e9" stroke="#fff" class="highcharts-point highcharts-color-1" tabindex="-1" aria-label="Wait time, 151. Complaints." style="outline:0" d="M142.5 191.5h31v44h-31z"/><path fill="none" stroke="#000" stroke-width="5" stroke-opacity=".05" class="highcharts-shadow" d="M207.5 211.5h31v25h-31z"/><path fill="none" stroke="#000" stroke-width="3" stroke-opacity=".1" class="highcharts-shadow" d="M207.5 211.5h31v25h-31z"/><path fill="none" stroke="#000" stroke-opacity=".15" class="highcharts-shadow" d="M207.5 211.5h31v25h-31z"/><path fill="#8085e9" stroke="#fff" class="highcharts-point highcharts-color-1" tabindex="-1" aria-label="Food is tasteless, 86. Complaints." style="outline:0" d="M206.5 210.5h31v25h-31z"/><path fill="none" stroke="#000" stroke-width="5" stroke-opacity=".05" class="highcharts-shadow" d="M270.5 215.5h31v21h-31z"/><path fill="none" stroke="#000" stroke-width="3" stroke-opacity=".1" class="highcharts-shadow" d="M270.5 215.5h31v21h-31z"/><path fill="none" stroke="#000" stroke-opacity=".15" class="highcharts-shadow" d="M270.5 215.5h31v21h-31z"/><path fill="#8085e9" stroke="#fff" class="highcharts-point highcharts-color-1" tabindex="-1" aria-label="No atmosphere, 72. Complaints." style="outline:0" d="M269.5 214.5h31v21h-31z"/><path fill="none" stroke="#000" stroke-width="5" stroke-opacity=".05" class="highcharts-shadow" d="M333.5 221.5h31v15h-31z"/><path fill="none" stroke="#000" stroke-width="3" stroke-opacity=".1" class="highcharts-shadow" d="M333.5 221.5h31v15h-31z"/><path fill="none" stroke="#000" stroke-opacity=".15" class="highcharts-shadow" d="M333.5 221.5h31v15h-31z"/><path fill="#8085e9" stroke="#fff" class="highcharts-point highcharts-color-1" tabindex="-1" aria-label="Not clean, 51. Complaints." style="outline:0" d="M332.5 220.5h31v15h-31z"/><path fill="none" stroke="#000" stroke-width="5" stroke-opacity=".05" class="highcharts-shadow" d="M397.5 225.5h31v11h-31z"/><path fill="none" stroke="#000" stroke-width="3" stroke-opacity=".1" class="highcharts-shadow" d="M397.5 225.5h31v11h-31z"/><path fill="none" stroke="#000" stroke-opacity=".15" class="highcharts-shadow" d="M397.5 225.5h31v11h-31z"/><path fill="#8085e9" stroke="#fff" class="highcharts-point highcharts-color-1" tabindex="-1" aria-label="Too noisy, 36. Complaints." style="outline:0" d="M396.5 224.5h31v11h-31z"/><path fill="none" stroke="#000" stroke-width="5" stroke-opacity=".05" class="highcharts-shadow" d="M460.5 233.5h31v3h-31z"/><path fill="none" stroke="#000" stroke-width="3" stroke-opacity=".1" class="highcharts-shadow" d="M460.5 233.5h31v3h-31z"/><path fill="none" stroke="#000" stroke-opacity=".15" class="highcharts-shadow" d="M460.5 233.5h31v3h-31z"/><path fill="#8085e9" stroke="#fff" class="highcharts-point highcharts-color-1" tabindex="-1" aria-label="Unfriendly staff, 10. Complaints." style="outline:0" d="M459.5 232.5h31v3h-31z"/></g><g class="highcharts-series highcharts-series-0 highcharts-pareto-series highcharts-color-0" data-z-index="10" clip-path="url(#b)" aria-hidden="true" fill="none" stroke-linejoin="round" stroke-linecap="round" transform="translate(42 43)"><path d="m32.688 107.71 63.374-37.722 63.376-25.658 63.375-14.613 63.375-12.235 63.375-8.666L412.938 2.7 476.313 1" class="highcharts-graph highcharts-shadow" data-z-index="1" stroke="#000" stroke-width="5" stroke-opacity=".05"/><path d="m32.688 107.71 63.374-37.722 63.376-25.658 63.375-14.613 63.375-12.235 63.375-8.666L412.938 2.7 476.313 1" class="highcharts-graph highcharts-shadow" data-z-index="1" stroke="#000" stroke-width="3" stroke-opacity=".1"/><path d="m32.688 107.71 63.374-37.722 63.376-25.658 63.375-14.613 63.375-12.235 63.375-8.666L412.938 2.7 476.313 1" class="highcharts-graph highcharts-shadow" data-z-index="1" stroke="#000" stroke-opacity=".15"/><path d="m31.688 106.71 63.374-37.722 63.376-25.658 63.375-14.613 63.375-12.235 63.375-8.666L411.938 1.7 475.313 0" class="highcharts-graph" data-z-index="1" stroke="#f45b5b" stroke-width="2"/><path d="m31.688 106.71 63.374-37.722 63.376-25.658 63.375-14.613 63.375-12.235 63.375-8.666L411.938 1.7 475.313 0" data-z-index="2" class="highcharts-tracker-line" stroke="rgba(192,192,192,0.0001)" stroke-width="22"/></g><g class="highcharts-markers highcharts-series-0 highcharts-pareto-series highcharts-color-0 highcharts-tracker" data-z-index="10" aria-hidden="false" tabindex="-1" aria-label="Pareto, series 1 of 2 with 8 data points. Y axis, values." style="outline:0" fill="#f45b5b"><path d="M31 110.71a4 4 0 1 1 .004 0Z" class="highcharts-point highcharts-color-0" tabindex="-1" aria-label="Overpriced, 54.59%. Pareto." style="outline:0" transform="translate(42 43)"/><path d="M95 72.988a4 4 0 1 1 .004 0Z" class="highcharts-point highcharts-color-0" tabindex="-1" aria-label="Small portions, 70.64%. Pareto." style="outline:0" transform="translate(42 43)"/><path d="M158 47.33a4 4 0 1 1 .004 0Z" class="highcharts-point highcharts-color-0" tabindex="-1" aria-label="Wait time, 81.56%. Pareto." style="outline:0" transform="translate(42 43)"/><path d="M221 32.717a4 4 0 1 1 .004 0Z" class="highcharts-point highcharts-color-0" tabindex="-1" aria-label="Food is tasteless, 87.78%. Pareto." style="outline:0" transform="translate(42 43)"/><path d="M285 20.482a4 4 0 1 1 .004 0Z" class="highcharts-point highcharts-color-0" tabindex="-1" aria-label="No atmosphere, 92.99%. Pareto." style="outline:0" transform="translate(42 43)"/><path d="M348 11.816a4 4 0 1 1 .004 0Z" class="highcharts-point highcharts-color-0" tabindex="-1" aria-label="Not clean, 96.67%. Pareto." style="outline:0" transform="translate(42 43)"/><path d="M411 5.7a4 4 0 1 1 .004 0Z" class="highcharts-point highcharts-color-0" tabindex="-1" aria-label="Too noisy, 99.28%. Pareto." style="outline:0" transform="translate(42 43)"/><path d="M475 4a4 4 0 1 1 .004 0Z" class="highcharts-point highcharts-color-0" tabindex="-1" aria-label="Unfriendly staff, 100.00%. Pareto." style="outline:0" transform="translate(42 43)"/></g></g><text x="300" text-anchor="middle" class="highcharts-title" data-z-index="4" style="color:#000;font-size:16px;font-weight:700;fill:#000" y="22" aria-hidden="true">Restaurants Complaints</text><g class="highcharts-legend highcharts-no-tooltip" data-z-index="7" transform="translate(211 358)" aria-hidden="true"><rect fill="#E0E0E8" class="highcharts-legend-box" rx="0" ry="0" width="178" height="27"/><g data-z-index="1"><g class="highcharts-legend-item highcharts-pareto-series highcharts-color-0 highcharts-series-0" data-z-index="1"><path fill="none" d="M8 15h16" class="highcharts-graph" stroke-width="2" stroke="#f45b5b"/><path fill="#f45b5b" d="M16 19a4 4 0 1 1 .004 0Z" class="highcharts-point"/><text x="21" data-z-index="2" y="16" style="color:#333;cursor:pointer;font-size:13px;font-weight:700;fill:#333" transform="translate(8 3)">Pareto</text></g><g class="highcharts-legend-item highcharts-column-series highcharts-color-1 highcharts-series-1" data-z-index="1" transform="translate(85.578 3)"><text x="21" y="16" data-z-index="2" style="color:#333;cursor:pointer;font-size:13px;font-weight:700;fill:#333">Complaints</text><rect x="1.5" y="4" width="13" height="13" fill="#8085e9" rx="6.5" ry="6.5" class="highcharts-point" data-z-index="3"/></g></g></g><g class="highcharts-axis-labels highcharts-xaxis-labels" data-z-index="7" aria-hidden="true" text-anchor="end"><text x="76.28" transform="rotate(-45 76.28 294)" style="color:#6e6e70;cursor:default;font-size:11px;fill:#6e6e70" y="294">Overpriced</text><text x="139.655" transform="rotate(-45 139.655 294)" style="color:#6e6e70;cursor:default;font-size:11px;fill:#6e6e70" y="294">Small portions</text><text x="203.03" transform="rotate(-45 203.03 294)" style="color:#6e6e70;cursor:default;font-size:11px;fill:#6e6e70" y="294">Wait time</text><text x="266.405" transform="rotate(-45 266.405 294)" style="color:#6e6e70;cursor:default;font-size:11px;fill:#6e6e70" y="294">Food is tasteless</text><text x="329.78" transform="rotate(-45 329.78 294)" style="color:#6e6e70;cursor:default;font-size:11px;fill:#6e6e70" y="294">No atmosphere</text><text x="393.155" transform="rotate(-45 393.155 294)" style="color:#6e6e70;cursor:default;font-size:11px;fill:#6e6e70" y="294">Not clean</text><text x="456.53" transform="rotate(-45 456.53 294)" style="color:#6e6e70;cursor:default;font-size:11px;fill:#6e6e70" y="294">Too noisy</text><text x="519.905" transform="rotate(-45 519.905 294)" style="color:#6e6e70;cursor:default;font-size:11px;fill:#6e6e70" y="294">Unfriendly staff</text></g><g class="highcharts-axis-labels highcharts-yaxis-labels" data-z-index="7" aria-hidden="true" text-anchor="end"><text x="27" style="color:#6e6e70;cursor:default;font-size:11px;fill:#6e6e70" y="283">0</text><text x="27" style="color:#6e6e70;cursor:default;font-size:11px;fill:#6e6e70" y="224">200</text><text x="27" style="color:#6e6e70;cursor:default;font-size:11px;fill:#6e6e70" y="165">400</text><text x="27" style="color:#6e6e70;cursor:default;font-size:11px;fill:#6e6e70" y="107">600</text><text x="27" style="color:#6e6e70;cursor:default;font-size:11px;fill:#6e6e70" y="48">800</text></g><g class="highcharts-axis-labels highcharts-yaxis-labels" data-z-index="7" aria-hidden="true"><text x="564" style="color:#6e6e70;cursor:default;font-size:11px;fill:#6e6e70" y="283">0%</text><text x="564" style="color:#6e6e70;cursor:default;font-size:11px;fill:#6e6e70" y="224">25%</text><text x="564" style="color:#6e6e70;cursor:default;font-size:11px;fill:#6e6e70" y="165">50%</text><text x="564" style="color:#6e6e70;cursor:default;font-size:11px;fill:#6e6e70" y="107">75%</text><text x="564" style="color:#6e6e70;cursor:default;font-size:11px;fill:#6e6e70" y="48">100%</text></g></svg>