<svg class="highcharts-root" style="font-family:Signika,serif;font-size:12px" xmlns="http://www.w3.org/2000/svg" width="600" height="400" aria-label="Interactive chart" aria-hidden="false"><defs aria-hidden="true"><clipPath id="a"><circle cx="240.5" cy="164.5" r="139.825"/></clipPath><clipPath id="b"><circle cx="240.5" cy="164.5" r="139.825"/></clipPath><clipPath id="c"><circle cx="240.5" cy="164.5" r="139.825"/></clipPath><clipPath id="d"><circle cx="240.5" cy="164.5" r="139.825"/></clipPath><clipPath id="e"><circle cx="240.5" cy="164.5" r="139.825"/></clipPath><clipPath id="f"><circle cx="240.5" cy="164.5" r="139.825"/></clipPath><clipPath id="g"><circle cx="240.5" cy="164.5" r="139.825"/></clipPath></defs><rect fill="none" class="highcharts-background" width="600" height="400" rx="0" ry="0" aria-hidden="true"/><path fill="none" class="highcharts-plot-background" aria-hidden="true" d="M10 56h481v329H10z"/><g class="highcharts-grid highcharts-xaxis-grid highcharts-radial-axis-grid" data-z-index="1" aria-hidden="true" fill="none" stroke="#e6e6e6"><path data-z-index="1" class="highcharts-grid-line" d="M250.5 220.5V80.675m0 139.825 53.509-129.181M250.5 220.5l98.871-98.871M250.5 220.5l129.181-53.509M250.5 220.5h139.825m-139.825 0 129.181 53.509M250.5 220.5l98.871 98.871M250.5 220.5l53.509 129.181M250.5 220.5v139.825m0-139.825-53.509 129.181M250.5 220.5l-98.871 98.871M250.5 220.5l-129.181 53.509M250.5 220.5H110.675m139.825 0-129.181-53.509M250.5 220.5l-98.871-98.871M250.5 220.5 196.991 91.319M250.5 220.5V80.675"/></g><g class="highcharts-grid highcharts-yaxis-grid highcharts-radial-axis-grid" data-z-index="1" aria-hidden="true" fill="none" stroke="#e6e6e6"><path data-z-index="1" class="highcharts-grid-line" d="M250.5 162.298a58.202 58.202 0 1 1-.058 0m.058 58.202"/><path data-z-index="1" class="highcharts-grid-line" d="M250.5 104.096a116.404 116.404 0 1 1-.116 0M250.5 220.5"/></g><path fill="none" class="highcharts-plot-border" data-z-index="1" aria-hidden="true" d="M10 56h481v329H10z"/><g class="highcharts-axis highcharts-xaxis highcharts-radial-axis" data-z-index="2" aria-hidden="true"><path fill="none" class="highcharts-axis-line" stroke="#ccd6eb" data-z-index="7" d="M250.5 80.675a139.825 139.825 0 1 1-.14 0m.14 139.825"/></g><g class="highcharts-axis highcharts-yaxis highcharts-radial-axis" data-z-index="2" aria-hidden="true"><text x="254.5" data-z-index="7" text-anchor="middle" transform="rotate(90 254.5 150.588)" class="highcharts-axis-title" style="color:#666;fill:#666" y="150.588">Frequency (%)</text><path fill="none" class="highcharts-axis-line" data-z-index="7" d="M250.5 220.5V80.675"/></g><g class="highcharts-series-group" data-z-index="3" aria-hidden="false"><g class="highcharts-series highcharts-series-0 highcharts-column-series highcharts-color-0 highcharts-tracker highcharts-dense-data" data-z-index=".1" clip-path="url(#a)" aria-hidden="false" tabindex="-1" aria-label="&amp;lt; 0.5 m/s, bar series 1 of 7 with 16 bars." style="outline:0" fill="#f45b5b" transform="translate(10 56)"><path d="M237.204 143.69a21.07 21.07 0 0 1 6.571-.003L240.5 164.5Z" class="highcharts-point highcharts-color-0" tabindex="-1" aria-label="N, 1.81%. &amp;lt; 0.5 m/s." style="outline:0"/><path d="M242.185 157.482a7.217 7.217 0 0 1 2.08.86L240.5 164.5Z" class="highcharts-point highcharts-color-0" tabindex="-1" aria-label="NNE, 0.62%. &amp;lt; 0.5 m/s." style="outline:0"/><path d="M246.11 156.778a9.545 9.545 0 0 1 2.107 2.104L240.5 164.5Z" class="highcharts-point highcharts-color-0" tabindex="-1" aria-label="NE, 0.82%. &amp;lt; 0.5 m/s." style="outline:0"/><path d="M246.356 160.912a6.868 6.868 0 0 1 .82 1.978l-6.676 1.61Z" class="highcharts-point highcharts-color-0" tabindex="-1" aria-label="ENE, 0.59%. &amp;lt; 0.5 m/s." style="outline:0"/><path d="M247.628 163.371a7.217 7.217 0 0 1 .001 2.25L240.5 164.5Z" class="highcharts-point highcharts-color-0" tabindex="-1" aria-label="E, 0.62%. &amp;lt; 0.5 m/s." style="outline:0"/><path d="M254.309 167.815a14.201 14.201 0 0 1-1.693 4.093L240.5 164.5Z" class="highcharts-point highcharts-color-0" tabindex="-1" aria-label="ESE, 1.22%. &amp;lt; 0.5 m/s." style="outline:0"/><path d="M255.662 175.516a18.741 18.741 0 0 1-4.131 4.135L240.5 164.5Z" class="highcharts-point highcharts-color-0" tabindex="-1" aria-label="SE, 1.61%. &amp;lt; 0.5 m/s." style="outline:0"/><path d="M252.908 184.747a23.747 23.747 0 0 1-6.841 2.838L240.5 164.5Z" class="highcharts-point highcharts-color-0" tabindex="-1" aria-label="SSE, 2.04%. &amp;lt; 0.5 m/s." style="outline:0"/><path d="M245.344 195.082a30.964 30.964 0 0 1-9.657.005L240.5 164.5Z" class="highcharts-point highcharts-color-0" tabindex="-1" aria-label="S, 2.66%. &amp;lt; 0.5 m/s." style="outline:0"/><path d="M232.456 198.004a34.456 34.456 0 0 1-9.93-4.108L240.5 164.5Z" class="highcharts-point highcharts-color-0" tabindex="-1" aria-label="SSW, 2.96%. &amp;lt; 0.5 m/s." style="outline:0"/><path d="M223.19 188.326a29.45 29.45 0 0 1-6.498-6.492L240.5 164.5Z" class="highcharts-point highcharts-color-0" tabindex="-1" aria-label="SW, 2.53%. &amp;lt; 0.5 m/s." style="outline:0"/><path d="M220.948 176.482a22.932 22.932 0 0 1-2.74-6.606L240.5 164.5Z" class="highcharts-point highcharts-color-0" tabindex="-1" aria-label="WSW, 1.97%. &amp;lt; 0.5 m/s." style="outline:0"/><path d="M221.645 167.486a19.09 19.09 0 0 1-.003-5.954L240.5 164.5Z" class="highcharts-point highcharts-color-0" tabindex="-1" aria-label="W, 1.64%. &amp;lt; 0.5 m/s." style="outline:0"/><path d="M225.56 160.913a15.365 15.365 0 0 1 1.83-4.428l13.11 8.015Z" class="highcharts-point highcharts-color-0" tabindex="-1" aria-label="WNW, 1.32%. &amp;lt; 0.5 m/s." style="outline:0"/><path d="M225.62 153.69a18.392 18.392 0 0 1 4.055-4.059L240.5 164.5Z" class="highcharts-point highcharts-color-0" tabindex="-1" aria-label="NW, 1.58%. &amp;lt; 0.5 m/s." style="outline:0"/><path d="M231.316 149.513a17.577 17.577 0 0 1 5.064-2.1l4.12 17.087Z" class="highcharts-point highcharts-color-0" tabindex="-1" aria-label="NNW, 1.51%. &amp;lt; 0.5 m/s." style="outline:0"/></g><g class="highcharts-series highcharts-series-1 highcharts-column-series highcharts-color-1 highcharts-tracker highcharts-dense-data" data-z-index=".1" clip-path="url(#b)" aria-hidden="false" tabindex="-1" aria-label="0.5-2 m/s, bar series 2 of 7 with 16 bars." style="outline:0" fill="#8085e9" transform="translate(10 56)"><path d="M233.963 123.225a41.79 41.79 0 0 1 13.033-.006l-3.22 20.468a21.07 21.07 0 0 0-6.572.003Z" class="highcharts-point highcharts-color-1" tabindex="-1" aria-label="N, 1.78%. 0.5-2 m/s." style="outline:0"/><path d="M245.147 145.145a19.905 19.905 0 0 1 5.736 2.373l-6.618 10.825a7.217 7.217 0 0 0-2.08-.86Z" class="highcharts-point highcharts-color-1" tabindex="-1" aria-label="NNE, 1.09%. 0.5-2 m/s." style="outline:0"/><path d="M251.721 149.056a19.09 19.09 0 0 1 4.212 4.208l-7.716 5.618a9.545 9.545 0 0 0-2.106-2.104Z" class="highcharts-point highcharts-color-1" tabindex="-1" aria-label="NE, 0.82%. 0.5-2 m/s." style="outline:0"/><path d="M258.464 153.491a21.07 21.07 0 0 1 2.518 6.07l-13.806 3.33a6.868 6.868 0 0 0-.82-1.98Z" class="highcharts-point highcharts-color-1" tabindex="-1" aria-label="ENE, 1.22%. 0.5-2 m/s." style="outline:0"/><path d="M272.922 159.365a32.826 32.826 0 0 1 .005 10.238l-25.298-3.981a7.217 7.217 0 0 0 0-2.251Z" class="highcharts-point highcharts-color-1" tabindex="-1" aria-label="E, 2.2%. 0.5-2 m/s." style="outline:0"/><path d="M277.06 173.277a37.599 37.599 0 0 1-4.482 10.836l-19.962-12.205a14.201 14.201 0 0 0 1.693-4.093Z" class="highcharts-point highcharts-color-1" tabindex="-1" aria-label="ESE, 2.01%. 0.5-2 m/s." style="outline:0"/><path d="M284.479 196.453a54.36 54.36 0 0 1-11.983 11.994l-20.965-28.796a18.741 18.741 0 0 0 4.13-4.135Z" class="highcharts-point highcharts-color-1" tabindex="-1" aria-label="SE, 3.06%. 0.5-2 m/s." style="outline:0"/><path d="M273.708 218.691a63.557 63.557 0 0 1-18.31 7.595l-9.331-38.701a23.747 23.747 0 0 0 6.84-2.838Z" class="highcharts-point highcharts-color-1" tabindex="-1" aria-label="SSE, 3.42%. 0.5-2 m/s." style="outline:0"/><path d="M253.975 249.579a86.14 86.14 0 0 1-26.865.013l8.577-54.505a30.964 30.964 0 0 0 9.657-.005Z" class="highcharts-point highcharts-color-1" tabindex="-1" aria-label="S, 4.74%. 0.5-2 m/s." style="outline:0"/><path d="M221.206 244.864a82.647 82.647 0 0 1-23.819-9.853l25.14-41.115a34.456 34.456 0 0 0 9.93 4.108Z" class="highcharts-point highcharts-color-1" tabindex="-1" aria-label="SSW, 4.14%. 0.5-2 m/s." style="outline:0"/><path d="M195.753 226.09a76.128 76.128 0 0 1-16.797-16.781l37.736-27.475a29.45 29.45 0 0 0 6.498 6.492Z" class="highcharts-point highcharts-color-1" tabindex="-1" aria-label="SW, 4.01%. 0.5-2 m/s." style="outline:0"/><path d="M194.547 192.66a53.895 53.895 0 0 1-6.44-15.526l30.1-7.258a22.932 22.932 0 0 0 2.74 6.606Z" class="highcharts-point highcharts-color-1" tabindex="-1" aria-label="WSW, 2.66%. 0.5-2 m/s." style="outline:0"/><path d="M201.985 170.6a38.995 38.995 0 0 1-.006-12.162l19.663 3.094a19.09 19.09 0 0 0 .003 5.954Z" class="highcharts-point highcharts-color-1" tabindex="-1" aria-label="W, 1.71%. 0.5-2 m/s." style="outline:0"/><path d="M198.394 154.391a43.302 43.302 0 0 1 5.162-12.48l23.835 14.574a15.365 15.365 0 0 0-1.832 4.428Z" class="highcharts-point highcharts-color-1" tabindex="-1" aria-label="WNW, 2.4%. 0.5-2 m/s." style="outline:0"/><path d="M185.315 124.405a68.213 68.213 0 0 1 15.035-15.05l29.325 40.276a18.392 18.392 0 0 0-4.054 4.059Z" class="highcharts-point highcharts-color-1" tabindex="-1" aria-label="NW, 4.28%. 0.5-2 m/s." style="outline:0"/><path d="M200.905 99.888a75.78 75.78 0 0 1 21.831-9.056l13.644 56.58a17.577 17.577 0 0 0-5.064 2.101Z" class="highcharts-point highcharts-color-1" tabindex="-1" aria-label="NNW, 5%. 0.5-2 m/s." style="outline:0"/></g><g class="highcharts-series highcharts-series-2 highcharts-column-series highcharts-color-2 highcharts-tracker highcharts-dense-data" data-z-index=".1" clip-path="url(#c)" aria-hidden="false" tabindex="-1" aria-label="2-4 m/s, bar series 3 of 7 with 16 bars." style="outline:0" fill="#8d4654" transform="translate(10 56)"><path d="M233.671 121.386a43.652 43.652 0 0 1 13.615-.007l-.29 1.84a41.79 41.79 0 0 0-13.033.006Z" class="highcharts-point highcharts-color-2" tabindex="-1" aria-label="N, 0.16%. 2-4 m/s." style="outline:0"/><path d="M245.147 145.145a19.905 19.905 0 0 1 5.736 2.373 19.905 19.905 0 0 0-5.736-2.373Z" class="highcharts-point highcharts-color-2" tabindex="-1" aria-label="NNE, 0%. 2-4 m/s." style="outline:0"/><path d="M252.2 148.396a19.905 19.905 0 0 1 4.392 4.388l-.659.48a19.09 19.09 0 0 0-4.212-4.208Z" class="highcharts-point highcharts-color-2" tabindex="-1" aria-label="NE, 0.07%. 2-4 m/s." style="outline:0"/><path d="M259.16 153.066a21.884 21.884 0 0 1 2.614 6.304l-.792.191a21.07 21.07 0 0 0-2.518-6.07Z" class="highcharts-point highcharts-color-2" tabindex="-1" aria-label="ENE, 0.07%. 2-4 m/s." style="outline:0"/><path d="M278.555 158.473a38.53 38.53 0 0 1 .007 12.016l-5.635-.886a32.826 32.826 0 0 0-.005-10.238Z" class="highcharts-point highcharts-color-2" tabindex="-1" aria-label="E, 0.49%. 2-4 m/s." style="outline:0"/><path d="M294.604 177.49a55.641 55.641 0 0 1-6.633 16.035l-15.393-9.412a37.599 37.599 0 0 0 4.482-10.836Z" class="highcharts-point highcharts-color-2" tabindex="-1" aria-label="ESE, 1.55%. 2-4 m/s." style="outline:0"/><path d="M306.798 212.668a81.949 81.949 0 0 1-18.063 18.082l-16.239-22.303a54.36 54.36 0 0 0 11.983-11.994Z" class="highcharts-point highcharts-color-2" tabindex="-1" aria-label="SE, 2.37%. 2-4 m/s." style="outline:0"/><path d="M285.69 238.244a86.488 86.488 0 0 1-24.916 10.335l-5.375-22.293a63.557 63.557 0 0 0 18.31-7.595Z" class="highcharts-point highcharts-color-2" tabindex="-1" aria-label="SSE, 1.97%. 2-4 m/s." style="outline:0"/><path d="M254.758 254.523a91.145 91.145 0 0 1-28.426.014l.778-4.945a86.14 86.14 0 0 0 26.865-.013Z" class="highcharts-point highcharts-color-2" tabindex="-1" aria-label="S, 0.43%. 2-4 m/s." style="outline:0"/><path d="M220.5 247.806a85.674 85.674 0 0 1-24.691-10.212l1.578-2.583a82.647 82.647 0 0 0 23.82 9.853Z" class="highcharts-point highcharts-color-2" tabindex="-1" aria-label="SSW, 0.26%. 2-4 m/s." style="outline:0"/><path d="M187.405 237.578a90.33 90.33 0 0 1-19.93-19.91l11.48-8.36a76.128 76.128 0 0 0 16.798 16.781Z" class="highcharts-point highcharts-color-2" tabindex="-1" aria-label="SW, 1.22%. 2-4 m/s." style="outline:0"/><path d="M174.994 204.642a76.827 76.827 0 0 1-9.18-22.132l22.292-5.376a53.895 53.895 0 0 0 6.44 15.526Z" class="highcharts-point highcharts-color-2" tabindex="-1" aria-label="WSW, 1.97%. 2-4 m/s." style="outline:0"/><path d="M191.407 172.276a49.705 49.705 0 0 1-.007-15.502l10.579 1.664a38.995 38.995 0 0 0 .006 12.162Z" class="highcharts-point highcharts-color-2" tabindex="-1" aria-label="W, 0.92%. 2-4 m/s." style="outline:0"/><path d="M187.188 151.701a54.826 54.826 0 0 1 6.536-15.801l9.832 6.011a43.302 43.302 0 0 0-5.162 12.48Z" class="highcharts-point highcharts-color-2" tabindex="-1" aria-label="WNW, 0.99%. 2-4 m/s." style="outline:0"/><path d="M173.26 115.648a83.113 83.113 0 0 1 18.32-18.339l8.77 12.046a68.213 68.213 0 0 0-15.035 15.05Z" class="highcharts-point highcharts-color-2" tabindex="-1" aria-label="NW, 1.28%. 2-4 m/s." style="outline:0"/><path d="M192.877 86.786a91.145 91.145 0 0 1 26.257-10.891l3.602 14.937a75.78 75.78 0 0 0-21.83 9.056Z" class="highcharts-point highcharts-color-2" tabindex="-1" aria-label="NNW, 1.32%. 2-4 m/s." style="outline:0"/></g><g class="highcharts-series highcharts-series-3 highcharts-column-series highcharts-color-3 highcharts-tracker highcharts-dense-data" data-z-index=".1" clip-path="url(#d)" aria-hidden="false" tabindex="-1" aria-label="4-6 m/s, bar series 4 of 7 with 16 bars." style="outline:0" fill="#7798BF" transform="translate(10 56)"><path d="M233.671 121.386a43.652 43.652 0 0 1 13.615-.007 43.652 43.652 0 0 0-13.615.007Z" class="highcharts-point highcharts-color-3" tabindex="-1" aria-label="N, 0%. 4-6 m/s." style="outline:0"/><path d="M245.147 145.145a19.905 19.905 0 0 1 5.736 2.373 19.905 19.905 0 0 0-5.736-2.373Z" class="highcharts-point highcharts-color-3" tabindex="-1" aria-label="NNE, 0%. 4-6 m/s." style="outline:0"/><path d="M252.2 148.396a19.905 19.905 0 0 1 4.392 4.388 19.905 19.905 0 0 0-4.392-4.388Z" class="highcharts-point highcharts-color-3" tabindex="-1" aria-label="NE, 0%. 4-6 m/s." style="outline:0"/><path d="M259.16 153.066a21.884 21.884 0 0 1 2.614 6.304 21.884 21.884 0 0 0-2.615-6.304Z" class="highcharts-point highcharts-color-3" tabindex="-1" aria-label="ENE, 0%. 4-6 m/s." style="outline:0"/><path d="M278.555 158.473a38.53 38.53 0 0 1 .007 12.016 38.53 38.53 0 0 0-.007-12.016Z" class="highcharts-point highcharts-color-3" tabindex="-1" aria-label="E, 0%. 4-6 m/s." style="outline:0"/><path d="M298 178.304a59.133 59.133 0 0 1-7.05 17.043l-2.979-1.822a55.641 55.641 0 0 0 6.633-16.036Z" class="highcharts-point highcharts-color-3" tabindex="-1" aria-label="ESE, 0.3%. 4-6 m/s." style="outline:0"/><path d="M326.951 227.31a106.86 106.86 0 0 1-23.554 23.578l-14.662-20.138a81.949 81.949 0 0 0 18.063-18.082Z" class="highcharts-point highcharts-color-3" tabindex="-1" aria-label="SE, 2.14%. 4-6 m/s." style="outline:0"/><path d="M290.92 246.78a96.5 96.5 0 0 1-27.799 11.53l-2.347-9.731a86.488 86.488 0 0 0 24.916-10.335Z" class="highcharts-point highcharts-color-3" tabindex="-1" aria-label="SSE, 0.86%. 4-6 m/s." style="outline:0"/><path d="M254.758 254.523a91.145 91.145 0 0 1-28.426.014 91.145 91.145 0 0 0 28.426-.014Z" class="highcharts-point highcharts-color-3" tabindex="-1" aria-label="S, 0%. 4-6 m/s." style="outline:0"/><path d="M220.5 247.806a85.674 85.674 0 0 1-24.691-10.212 85.674 85.674 0 0 0 24.69 10.212Z" class="highcharts-point highcharts-color-3" tabindex="-1" aria-label="SSW, 0%. 4-6 m/s." style="outline:0"/><path d="M184.053 242.193a96.034 96.034 0 0 1-21.19-21.168l4.612-3.357a90.33 90.33 0 0 0 19.93 19.91Z" class="highcharts-point highcharts-color-3" tabindex="-1" aria-label="SW, 0.49%. 4-6 m/s." style="outline:0"/><path d="M167.153 209.447a86.023 86.023 0 0 1-10.279-24.782l8.94-2.155a76.827 76.827 0 0 0 9.18 22.132Z" class="highcharts-point highcharts-color-3" tabindex="-1" aria-label="WSW, 0.79%. 4-6 m/s." style="outline:0"/><path d="M174.736 174.916a66.583 66.583 0 0 1-.01-20.766l16.674 2.624a49.705 49.705 0 0 0 .007 15.502Z" class="highcharts-point highcharts-color-3" tabindex="-1" aria-label="W, 1.45%. 4-6 m/s." style="outline:0"/><path d="M168.965 147.326a73.568 73.568 0 0 1 8.77-21.202l15.99 9.776a54.826 54.826 0 0 0-6.537 15.801Z" class="highcharts-point highcharts-color-3" tabindex="-1" aria-label="WNW, 1.61%. 4-6 m/s." style="outline:0"/><path d="M166.103 110.448a91.96 91.96 0 0 1 20.27-20.29l5.207 7.151a83.113 83.113 0 0 0-18.32 18.339Z" class="highcharts-point highcharts-color-3" tabindex="-1" aria-label="NW, 0.76%. 4-6 m/s." style="outline:0"/><path d="M192.086 85.496a92.658 92.658 0 0 1 26.693-11.072l.355 1.471a91.145 91.145 0 0 0-26.257 10.891Z" class="highcharts-point highcharts-color-3" tabindex="-1" aria-label="NNW, 0.13%. 4-6 m/s." style="outline:0"/></g><g class="highcharts-series highcharts-series-4 highcharts-column-series highcharts-color-4 highcharts-tracker highcharts-dense-data" data-z-index=".1" clip-path="url(#e)" aria-hidden="false" tabindex="-1" aria-label="6-8 m/s, bar series 5 of 7 with 16 bars." style="outline:0" fill="#aee" transform="translate(10 56)"><path d="M233.671 121.386a43.652 43.652 0 0 1 13.615-.007 43.652 43.652 0 0 0-13.615.007Z" class="highcharts-point highcharts-color-4" tabindex="-1" aria-label="N, 0%. 6-8 m/s." style="outline:0"/><path d="M245.147 145.145a19.905 19.905 0 0 1 5.736 2.373 19.905 19.905 0 0 0-5.736-2.373Z" class="highcharts-point highcharts-color-4" tabindex="-1" aria-label="NNE, 0%. 6-8 m/s." style="outline:0"/><path d="M252.2 148.396a19.905 19.905 0 0 1 4.392 4.388 19.905 19.905 0 0 0-4.392-4.388Z" class="highcharts-point highcharts-color-4" tabindex="-1" aria-label="NE, 0%. 6-8 m/s." style="outline:0"/><path d="M259.16 153.066a21.884 21.884 0 0 1 2.614 6.304 21.884 21.884 0 0 0-2.615-6.304Z" class="highcharts-point highcharts-color-4" tabindex="-1" aria-label="ENE, 0%. 6-8 m/s." style="outline:0"/><path d="M278.555 158.473a38.53 38.53 0 0 1 .007 12.016 38.53 38.53 0 0 0-.007-12.016Z" class="highcharts-point highcharts-color-4" tabindex="-1" aria-label="E, 0%. 6-8 m/s." style="outline:0"/><path d="M299.471 178.658a60.647 60.647 0 0 1-7.23 17.478l-1.29-.79A59.133 59.133 0 0 0 298 178.305Z" class="highcharts-point highcharts-color-4" tabindex="-1" aria-label="ESE, 0.13%. 6-8 m/s." style="outline:0"/><path d="M343.337 239.216a127.114 127.114 0 0 1-28.019 28.046l-11.921-16.374a106.86 106.86 0 0 0 23.554-23.578Z" class="highcharts-point highcharts-color-4" tabindex="-1" aria-label="SE, 1.74%. 6-8 m/s." style="outline:0"/><path d="M294.144 252.04a102.669 102.669 0 0 1-29.577 12.268l-1.446-5.998a96.5 96.5 0 0 0 27.8-11.53Z" class="highcharts-point highcharts-color-4" tabindex="-1" aria-label="SSE, 0.53%. 6-8 m/s." style="outline:0"/><path d="M254.758 254.523a91.145 91.145 0 0 1-28.426.014 91.145 91.145 0 0 0 28.426-.014Z" class="highcharts-point highcharts-color-4" tabindex="-1" aria-label="S, 0%. 6-8 m/s." style="outline:0"/><path d="M220.5 247.806a85.674 85.674 0 0 1-24.691-10.212 85.674 85.674 0 0 0 24.69 10.212Z" class="highcharts-point highcharts-color-4" tabindex="-1" aria-label="SSW, 0%. 6-8 m/s." style="outline:0"/><path d="M183.163 243.417a97.547 97.547 0 0 1-21.523-21.501l1.224-.891a96.034 96.034 0 0 0 21.189 21.168Z" class="highcharts-point highcharts-color-4" tabindex="-1" aria-label="SW, 0.13%. 6-8 m/s." style="outline:0"/><path d="M164.176 211.271a89.515 89.515 0 0 1-10.697-25.787l3.395-.819a86.023 86.023 0 0 0 10.28 24.782Z" class="highcharts-point highcharts-color-4" tabindex="-1" aria-label="WSW, 0.3%. 6-8 m/s." style="outline:0"/><path d="M171.747 175.39a69.61 69.61 0 0 1-.01-21.71l2.989.47a66.583 66.583 0 0 0 .01 20.766Z" class="highcharts-point highcharts-color-4" tabindex="-1" aria-label="W, 0.26%. 6-8 m/s." style="outline:0"/><path d="M165.23 146.43a77.409 77.409 0 0 1 9.228-22.31l3.277 2.004a73.568 73.568 0 0 0-8.77 21.202Z" class="highcharts-point highcharts-color-4" tabindex="-1" aria-label="WNW, 0.33%. 6-8 m/s." style="outline:0"/><path d="M159.888 105.932a99.642 99.642 0 0 1 21.963-21.986l4.522 6.211a91.96 91.96 0 0 0-20.27 20.29Z" class="highcharts-point highcharts-color-4" tabindex="-1" aria-label="NW, 0.66%. 6-8 m/s." style="outline:0"/><path d="M190.687 83.213a95.335 95.335 0 0 1 27.465-11.392l.627 2.603a92.658 92.658 0 0 0-26.693 11.072Z" class="highcharts-point highcharts-color-4" tabindex="-1" aria-label="NNW, 0.23%. 6-8 m/s." style="outline:0"/></g><g class="highcharts-series highcharts-series-5 highcharts-column-series highcharts-color-5 highcharts-tracker highcharts-dense-data" data-z-index=".1" clip-path="url(#f)" aria-hidden="false" tabindex="-1" aria-label="8-10 m/s, bar series 6 of 7 with 16 bars." style="outline:0" fill="#f06" transform="translate(10 56)"><path d="M233.671 121.386a43.652 43.652 0 0 1 13.615-.007 43.652 43.652 0 0 0-13.615.007Z" class="highcharts-point highcharts-color-5" tabindex="-1" aria-label="N, 0%. 8-10 m/s." style="outline:0"/><path d="M245.147 145.145a19.905 19.905 0 0 1 5.736 2.373 19.905 19.905 0 0 0-5.736-2.373Z" class="highcharts-point highcharts-color-5" tabindex="-1" aria-label="NNE, 0%. 8-10 m/s." style="outline:0"/><path d="M252.2 148.396a19.905 19.905 0 0 1 4.392 4.388 19.905 19.905 0 0 0-4.392-4.388Z" class="highcharts-point highcharts-color-5" tabindex="-1" aria-label="NE, 0%. 8-10 m/s." style="outline:0"/><path d="M259.16 153.066a21.884 21.884 0 0 1 2.614 6.304 21.884 21.884 0 0 0-2.615-6.304Z" class="highcharts-point highcharts-color-5" tabindex="-1" aria-label="ENE, 0%. 8-10 m/s." style="outline:0"/><path d="M278.555 158.473a38.53 38.53 0 0 1 .007 12.016 38.53 38.53 0 0 0-.007-12.016Z" class="highcharts-point highcharts-color-5" tabindex="-1" aria-label="E, 0%. 8-10 m/s." style="outline:0"/><path d="M299.471 178.658a60.647 60.647 0 0 1-7.23 17.478 60.647 60.647 0 0 0 7.23-17.478Z" class="highcharts-point highcharts-color-5" tabindex="-1" aria-label="ESE, 0%. 8-10 m/s." style="outline:0"/><path d="M347.01 241.884a131.653 131.653 0 0 1-29.02 29.048l-2.672-3.67a127.114 127.114 0 0 0 28.02-28.046Z" class="highcharts-point highcharts-color-5" tabindex="-1" aria-label="SE, 0.39%. 8-10 m/s." style="outline:0"/><path d="M297.124 256.903a108.373 108.373 0 0 1-31.22 12.95l-1.337-5.545a102.669 102.669 0 0 0 29.577-12.269Z" class="highcharts-point highcharts-color-5" tabindex="-1" aria-label="SSE, 0.49%. 8-10 m/s." style="outline:0"/><path d="M254.758 254.523a91.145 91.145 0 0 1-28.426.014 91.145 91.145 0 0 0 28.426-.014Z" class="highcharts-point highcharts-color-5" tabindex="-1" aria-label="S, 0%. 8-10 m/s." style="outline:0"/><path d="M220.5 247.806a85.674 85.674 0 0 1-24.691-10.212 85.674 85.674 0 0 0 24.69 10.212Z" class="highcharts-point highcharts-color-5" tabindex="-1" aria-label="SSW, 0%. 8-10 m/s." style="outline:0"/><path d="M183.163 243.417a97.547 97.547 0 0 1-21.523-21.501 97.547 97.547 0 0 0 21.523 21.501Z" class="highcharts-point highcharts-color-5" tabindex="-1" aria-label="SW, 0%. 8-10 m/s." style="outline:0"/><path d="M164.176 211.271a89.515 89.515 0 0 1-10.697-25.787 89.515 89.515 0 0 0 10.697 25.787Z" class="highcharts-point highcharts-color-5" tabindex="-1" aria-label="WSW, 0%. 8-10 m/s." style="outline:0"/><path d="M170.597 175.571a70.774 70.774 0 0 1-.01-22.073l1.15.181a69.61 69.61 0 0 0 .01 21.71Z" class="highcharts-point highcharts-color-5" tabindex="-1" aria-label="W, 0.1%. 8-10 m/s." style="outline:0"/><path d="M165.23 146.43a77.409 77.409 0 0 1 9.228-22.31 77.409 77.409 0 0 0-9.228 22.31Z" class="highcharts-point highcharts-color-5" tabindex="-1" aria-label="WNW, 0%. 8-10 m/s." style="outline:0"/><path d="M153.39 101.21a107.674 107.674 0 0 1 23.734-23.757l4.727 6.493a99.642 99.642 0 0 0-21.963 21.986Z" class="highcharts-point highcharts-color-5" tabindex="-1" aria-label="NW, 0.69%. 8-10 m/s." style="outline:0"/><path d="M189.897 81.923a96.848 96.848 0 0 1 27.9-11.573l.355 1.471a95.335 95.335 0 0 0-27.465 11.392Z" class="highcharts-point highcharts-color-5" tabindex="-1" aria-label="NNW, 0.13%. 8-10 m/s." style="outline:0"/></g><g class="highcharts-series highcharts-series-6 highcharts-column-series highcharts-color-6 highcharts-tracker highcharts-dense-data" data-z-index=".1" clip-path="url(#g)" aria-hidden="false" tabindex="-1" aria-label="&amp;gt; 10 m/s, bar series 7 of 7 with 16 bars." style="outline:0" fill="#eae" transform="translate(10 56)"><path d="M233.671 121.386a43.652 43.652 0 0 1 13.615-.007 43.652 43.652 0 0 0-13.615.007Z" class="highcharts-point highcharts-color-6" tabindex="-1" aria-label="N, 0%. &amp;gt; 10 m/s." style="outline:0"/><path d="M245.147 145.145a19.905 19.905 0 0 1 5.736 2.373 19.905 19.905 0 0 0-5.736-2.373Z" class="highcharts-point highcharts-color-6" tabindex="-1" aria-label="NNE, 0%. &amp;gt; 10 m/s." style="outline:0"/><path d="M252.2 148.396a19.905 19.905 0 0 1 4.392 4.388 19.905 19.905 0 0 0-4.392-4.388Z" class="highcharts-point highcharts-color-6" tabindex="-1" aria-label="NE, 0%. &amp;gt; 10 m/s." style="outline:0"/><path d="M259.16 153.066a21.884 21.884 0 0 1 2.614 6.304 21.884 21.884 0 0 0-2.615-6.304Z" class="highcharts-point highcharts-color-6" tabindex="-1" aria-label="ENE, 0%. &amp;gt; 10 m/s." style="outline:0"/><path d="M278.555 158.473a38.53 38.53 0 0 1 .007 12.016 38.53 38.53 0 0 0-.007-12.016Z" class="highcharts-point highcharts-color-6" tabindex="-1" aria-label="E, 0%. &amp;gt; 10 m/s." style="outline:0"/><path d="M299.471 178.658a60.647 60.647 0 0 1-7.23 17.478 60.647 60.647 0 0 0 7.23-17.478Z" class="highcharts-point highcharts-color-6" tabindex="-1" aria-label="ESE, 0%. &amp;gt; 10 m/s." style="outline:0"/><path d="M348.234 242.773a133.167 133.167 0 0 1-29.353 29.383l-.89-1.224a131.653 131.653 0 0 0 29.019-29.048Z" class="highcharts-point highcharts-color-6" tabindex="-1" aria-label="SE, 0.13%. &amp;gt; 10 m/s." style="outline:0"/><path d="M297.124 256.903a108.373 108.373 0 0 1-31.22 12.95 108.373 108.373 0 0 0 31.22-12.95Z" class="highcharts-point highcharts-color-6" tabindex="-1" aria-label="SSE, 0%. &amp;gt; 10 m/s." style="outline:0"/><path d="M254.758 254.523a91.145 91.145 0 0 1-28.426.014 91.145 91.145 0 0 0 28.426-.014Z" class="highcharts-point highcharts-color-6" tabindex="-1" aria-label="S, 0%. &amp;gt; 10 m/s." style="outline:0"/><path d="M220.5 247.806a85.674 85.674 0 0 1-24.691-10.212 85.674 85.674 0 0 0 24.69 10.212Z" class="highcharts-point highcharts-color-6" tabindex="-1" aria-label="SSW, 0%. &amp;gt; 10 m/s." style="outline:0"/><path d="M183.163 243.417a97.547 97.547 0 0 1-21.523-21.501 97.547 97.547 0 0 0 21.523 21.501Z" class="highcharts-point highcharts-color-6" tabindex="-1" aria-label="SW, 0%. &amp;gt; 10 m/s." style="outline:0"/><path d="M164.176 211.271a89.515 89.515 0 0 1-10.697-25.787 89.515 89.515 0 0 0 10.697 25.787Z" class="highcharts-point highcharts-color-6" tabindex="-1" aria-label="WSW, 0%. &amp;gt; 10 m/s." style="outline:0"/><path d="M170.597 175.571a70.774 70.774 0 0 1-.01-22.073 70.774 70.774 0 0 0 .01 22.073Z" class="highcharts-point highcharts-color-6" tabindex="-1" aria-label="W, 0%. &amp;gt; 10 m/s." style="outline:0"/><path d="M165.23 146.43a77.409 77.409 0 0 1 9.228-22.31 77.409 77.409 0 0 0-9.228 22.31Z" class="highcharts-point highcharts-color-6" tabindex="-1" aria-label="WNW, 0%. &amp;gt; 10 m/s." style="outline:0"/><path d="M153.107 101.005a108.023 108.023 0 0 1 23.811-23.834l.206.282a107.674 107.674 0 0 0-23.734 23.758Z" class="highcharts-point highcharts-color-6" tabindex="-1" aria-label="NW, 0.03%. &amp;gt; 10 m/s." style="outline:0"/><path d="M189.471 81.228a97.663 97.663 0 0 1 28.135-11.67l.191.792a96.848 96.848 0 0 0-27.9 11.573Z" class="highcharts-point highcharts-color-6" tabindex="-1" aria-label="NNW, 0.07%. &amp;gt; 10 m/s." style="outline:0"/></g></g><text x="10" class="highcharts-title" data-z-index="4" style="color:#000;font-size:16px;font-weight:700;fill:#000" y="22" aria-hidden="true">Wind rose for South Shore Met Station, Oregon</text><text x="10" class="highcharts-subtitle" data-z-index="4" style="color:#000;fill:#000" y="42" aria-hidden="true">Source: or.water.usgs.gov</text><g class="highcharts-legend highcharts-no-tooltip" data-z-index="7" transform="translate(503 110)" aria-hidden="true"><rect fill="#E0E0E8" class="highcharts-legend-box" rx="0" ry="0" width="86" height="123"/><g data-z-index="1"><g class="highcharts-legend-item highcharts-column-series highcharts-color-0 highcharts-series-0" data-z-index="1" transform="translate(8 3)"><text x="21" data-z-index="2" y="16" style="color:#333;cursor:pointer;font-size:13px;font-weight:700;fill:#333">&lt; 0.5 m/s</text><rect x="1.5" y="4" width="13" height="13" fill="#f45b5b" rx="6.5" ry="6.5" class="highcharts-point" data-z-index="3"/></g><g class="highcharts-legend-item highcharts-column-series highcharts-color-1 highcharts-series-1" data-z-index="1" transform="translate(8 19)"><text x="21" y="16" data-z-index="2" style="color:#333;cursor:pointer;font-size:13px;font-weight:700;fill:#333">0.5-2 m/s</text><rect x="1.5" y="4" width="13" height="13" fill="#8085e9" rx="6.5" ry="6.5" class="highcharts-point" data-z-index="3"/></g><g class="highcharts-legend-item highcharts-column-series highcharts-color-2 highcharts-series-2" data-z-index="1" transform="translate(8 35)"><text x="21" y="16" data-z-index="2" style="color:#333;cursor:pointer;font-size:13px;font-weight:700;fill:#333">2-4 m/s</text><rect x="1.5" y="4" width="13" height="13" fill="#8d4654" rx="6.5" ry="6.5" class="highcharts-point" data-z-index="3"/></g><g class="highcharts-legend-item highcharts-column-series highcharts-color-3 highcharts-series-3" data-z-index="1" transform="translate(8 51)"><text x="21" y="16" data-z-index="2" style="color:#333;cursor:pointer;font-size:13px;font-weight:700;fill:#333">4-6 m/s</text><rect x="1.5" y="4" width="13" height="13" fill="#7798BF" rx="6.5" ry="6.5" class="highcharts-point" data-z-index="3"/></g><g class="highcharts-legend-item highcharts-column-series highcharts-color-4 highcharts-series-4" data-z-index="1" transform="translate(8 67)"><text x="21" y="16" data-z-index="2" style="color:#333;cursor:pointer;font-size:13px;font-weight:700;fill:#333">6-8 m/s</text><rect x="1.5" y="4" width="13" height="13" fill="#aee" rx="6.5" ry="6.5" class="highcharts-point" data-z-index="3"/></g><g class="highcharts-legend-item highcharts-column-series highcharts-color-5 highcharts-series-5" data-z-index="1" transform="translate(8 83)"><text x="21" y="16" data-z-index="2" style="color:#333;cursor:pointer;font-size:13px;font-weight:700;fill:#333">8-10 m/s</text><rect x="1.5" y="4" width="13" height="13" fill="#f06" rx="6.5" ry="6.5" class="highcharts-point" data-z-index="3"/></g><g class="highcharts-legend-item highcharts-column-series highcharts-color-6 highcharts-series-6" data-z-index="1" transform="translate(8 99)"><text x="21" y="16" data-z-index="2" style="color:#333;cursor:pointer;font-size:13px;font-weight:700;fill:#333">&gt; 10 m/s</text><rect x="1.5" y="4" width="13" height="13" fill="#eae" rx="6.5" ry="6.5" class="highcharts-point" data-z-index="3"/></g></g></g><g class="highcharts-axis-labels highcharts-xaxis-labels highcharts-radial-axis-labels" data-z-index="7" aria-hidden="true"><text x="250.5" style="color:#6e6e70;cursor:default;font-size:11px;fill:#6e6e70" text-anchor="middle" y="70.425">N</text><text x="309.749" style="color:#6e6e70;cursor:default;font-size:11px;fill:#6e6e70" y="82.21">NNE</text><text x="359.978" style="color:#6e6e70;cursor:default;font-size:11px;fill:#6e6e70" y="115.772">NE</text><text x="393.54" style="color:#6e6e70;cursor:default;font-size:11px;fill:#6e6e70" y="166.001">ENE</text><text x="405.325" style="color:#6e6e70;cursor:default;font-size:11px;fill:#6e6e70" y="225.25">E</text><text x="393.54" style="color:#6e6e70;cursor:default;font-size:11px;fill:#6e6e70" y="284.499">ESE</text><text x="359.978" style="color:#6e6e70;cursor:default;font-size:11px;fill:#6e6e70" y="334.728">SE</text><text x="309.749" style="color:#6e6e70;cursor:default;font-size:11px;fill:#6e6e70" y="368.29">SSE</text><text x="250.5" style="color:#6e6e70;cursor:default;font-size:11px;fill:#6e6e70" text-anchor="middle" y="380.075">S</text><text x="191.251" style="color:#6e6e70;cursor:default;font-size:11px;fill:#6e6e70" text-anchor="end" y="368.29">SSW</text><text x="141.022" style="color:#6e6e70;cursor:default;font-size:11px;fill:#6e6e70" text-anchor="end" y="334.728">SW</text><text x="107.46" style="color:#6e6e70;cursor:default;font-size:11px;fill:#6e6e70" text-anchor="end" y="284.499">WSW</text><text x="95.675" style="color:#6e6e70;cursor:default;font-size:11px;fill:#6e6e70" text-anchor="end" y="225.25">W</text><text x="107.46" style="color:#6e6e70;cursor:default;font-size:11px;fill:#6e6e70" text-anchor="end" y="166.001">WNW</text><text x="141.022" style="color:#6e6e70;cursor:default;font-size:11px;fill:#6e6e70" text-anchor="end" y="115.772">NW</text><text x="191.251" style="color:#6e6e70;cursor:default;font-size:11px;fill:#6e6e70" text-anchor="end" y="82.21">NNW</text></g><g class="highcharts-axis-labels highcharts-yaxis-labels highcharts-radial-axis-labels" data-z-index="7" aria-hidden="true" text-anchor="end"><text x="247.5" style="color:#6e6e70;cursor:default;font-size:11px;fill:#6e6e70" y="218.5">0%</text><text x="247.5" style="color:#6e6e70;cursor:default;font-size:11px;fill:#6e6e70" y="160.298">5%</text><text x="247.5" style="color:#6e6e70;cursor:default;font-size:11px;fill:#6e6e70" y="102.096">10%</text></g></svg>