<svg class="highcharts-root" style="font-family:Signika,serif;font-size:12px" xmlns="http://www.w3.org/2000/svg" width="600" height="400" aria-label="Interactive chart" aria-hidden="false"><defs aria-hidden="true"><clipPath id="a"><circle cx="217.5" cy="171" r="136.8"/></clipPath><clipPath id="b"><circle cx="217.5" cy="171" r="136.8"/></clipPath></defs><rect fill="none" class="highcharts-background" width="600" height="400" rx="0" ry="0" aria-hidden="true"/><path fill="none" class="highcharts-plot-background" aria-hidden="true" d="M10 43h435v342H10z"/><g class="highcharts-grid highcharts-xaxis-grid highcharts-radial-axis-grid" data-z-index="1" aria-hidden="true" fill="none" stroke="#e6e6e6"><path data-z-index="1" class="highcharts-grid-line" d="M227.5 214V77.2m0 136.8 118.472-68.4M227.5 214l118.472 68.4M227.5 214v136.8m0-136.8-118.472 68.4M227.5 214l-118.472-68.4M227.5 214V77.2"/></g><g class="highcharts-grid highcharts-yaxis-grid highcharts-radial-axis-grid" data-z-index="1" aria-hidden="true" fill="none" stroke="#e6e6e6"><path data-z-index="1" class="highcharts-grid-line" d="m227.5 168.4 39.49 22.8v45.6l-39.49 22.8-39.49-22.8v-45.6l39.49-22.8"/><path data-z-index="1" class="highcharts-grid-line" d="m227.5 122.8 78.982 45.6v91.2L227.5 305.2l-78.982-45.6v-91.2l78.982-45.6"/><path data-z-index="1" class="highcharts-grid-line" d="m227.5 77.2 118.472 68.4v136.8L227.5 350.8l-118.472-68.4V145.6L227.5 77.2"/></g><path fill="none" class="highcharts-plot-border" data-z-index="1" aria-hidden="true" d="M10 43h435v342H10z"/><g class="highcharts-axis highcharts-xaxis highcharts-radial-axis" data-z-index="2" aria-hidden="true"><path fill="none" class="highcharts-axis-line" data-z-index="7" d="M227.5 77.2a136.8 136.8 0 1 1-.137 0M227.5 214"/></g><g class="highcharts-axis highcharts-yaxis highcharts-radial-axis" data-z-index="2" aria-hidden="true"><path fill="none" class="highcharts-axis-line" data-z-index="7" d="M227.5 214V77.2"/></g><g class="highcharts-series-group" data-z-index="3" aria-hidden="false"><g class="highcharts-series highcharts-series-0 highcharts-line-series highcharts-color-0" data-z-index=".1" clip-path="url(#a)" aria-hidden="true" fill="none" stroke-linejoin="round" stroke-linecap="round" transform="translate(10 43)"><path d="m218.5 93.568 30.013 61.104 64.765 72.048-94.778 9.12-26.854-48.336 11.058-24.624L218.5 93.568" class="highcharts-graph highcharts-shadow" data-z-index="1" stroke="#000" stroke-width="5" stroke-opacity=".05"/><path d="m218.5 93.568 30.013 61.104 64.765 72.048-94.778 9.12-26.854-48.336 11.058-24.624L218.5 93.568" class="highcharts-graph highcharts-shadow" data-z-index="1" stroke="#000" stroke-width="3" stroke-opacity=".1"/><path d="m218.5 93.568 30.013 61.104 64.765 72.048-94.778 9.12-26.854-48.336 11.058-24.624L218.5 93.568" class="highcharts-graph highcharts-shadow" data-z-index="1" stroke="#000" stroke-opacity=".15"/><path d="m217.5 92.568 30.013 61.104 64.765 72.048-94.778 9.12-26.854-48.336 11.058-24.624L217.5 92.568" class="highcharts-graph" data-z-index="1" stroke="#f45b5b" stroke-width="2"/><path d="m217.5 92.568 30.013 61.104 64.765 72.048-94.778 9.12-26.854-48.336 11.058-24.624L217.5 92.568" data-z-index="2" class="highcharts-tracker-line" stroke="rgba(192,192,192,0.0001)" stroke-width="22"/></g><g class="highcharts-markers highcharts-series-0 highcharts-line-series highcharts-color-0 highcharts-tracker" data-z-index=".1" aria-hidden="false" tabindex="-1" aria-label="Allocated Budget, line 1 of 2 with 6 data points." style="outline:0" fill="#f45b5b"><path d="M217 96.568a4 4 0 1 1 .004 0Z" class="highcharts-point highcharts-color-0" tabindex="-1" aria-label="Sales, 43,000. Allocated Budget." style="outline:0" transform="translate(10 43)"/><path d="M247 157.672a4 4 0 1 1 .004 0Z" class="highcharts-point highcharts-color-0" tabindex="-1" aria-label="Marketing, 19,000. Allocated Budget." style="outline:0" transform="translate(10 43)"/><path d="M312 229.72a4 4 0 1 1 .004 0Z" class="highcharts-point highcharts-color-0" tabindex="-1" aria-label="Development, 60,000. Allocated Budget." style="outline:0" transform="translate(10 43)"/><path d="M217 238.84a4 4 0 1 1 .004 0Z" class="highcharts-point highcharts-color-0" tabindex="-1" aria-label="Customer Support, 35,000. Allocated Budget." style="outline:0" transform="translate(10 43)"/><path d="M190 190.504a4 4 0 1 1 .004 0Z" class="highcharts-point highcharts-color-0" tabindex="-1" aria-label="Information Technology, 17,000. Allocated Budget." style="outline:0" transform="translate(10 43)"/><path d="M201 165.88a4 4 0 1 1 .004 0Z" class="highcharts-point highcharts-color-0" tabindex="-1" aria-label="Administration, 10,000. Allocated Budget." style="outline:0" transform="translate(10 43)"/></g><g class="highcharts-series highcharts-series-1 highcharts-line-series highcharts-color-1" data-z-index=".1" clip-path="url(#b)" aria-hidden="true" fill="none" stroke-linejoin="round" stroke-linecap="round" transform="translate(10 43)"><path d="m218.5 80.8 61.606 55.632 4.738 73.872-66.344 18.24-41.07-32.832 18.955-36.48L218.5 80.8" class="highcharts-graph highcharts-shadow" data-z-index="1" stroke="#000" stroke-width="5" stroke-opacity=".05"/><path d="m218.5 80.8 61.606 55.632 4.738 73.872-66.344 18.24-41.07-32.832 18.955-36.48L218.5 80.8" class="highcharts-graph highcharts-shadow" data-z-index="1" stroke="#000" stroke-width="3" stroke-opacity=".1"/><path d="m218.5 80.8 61.606 55.632 4.738 73.872-66.344 18.24-41.07-32.832 18.955-36.48L218.5 80.8" class="highcharts-graph highcharts-shadow" data-z-index="1" stroke="#000" stroke-opacity=".15"/><path d="m217.5 79.8 61.606 55.632 4.738 73.872-66.344 18.24-41.07-32.832 18.955-36.48L217.5 79.8" class="highcharts-graph" data-z-index="1" stroke="#8085e9" stroke-width="2"/><path d="m217.5 79.8 61.606 55.632 4.738 73.872-66.344 18.24-41.07-32.832 18.955-36.48L217.5 79.8" data-z-index="2" class="highcharts-tracker-line" stroke="rgba(192,192,192,0.0001)" stroke-width="22"/></g><g class="highcharts-markers highcharts-series-1 highcharts-line-series highcharts-color-1 highcharts-tracker" data-z-index=".1" aria-hidden="false" tabindex="-1" aria-label="Actual Spending, line 2 of 2 with 6 data points." style="outline:0" fill="#8085e9"><path d="m217 75.8 4 4-4 4-4-4Z" class="highcharts-point highcharts-color-1" tabindex="-1" aria-label="Sales, 50,000. Actual Spending." style="outline:0" transform="translate(10 43)"/><path d="m279 131.432 4 4-4 4-4-4Z" class="highcharts-point highcharts-color-1" tabindex="-1" aria-label="Marketing, 39,000. Actual Spending." style="outline:0" transform="translate(10 43)"/><path d="m283 205.304 4 4-4 4-4-4Z" class="highcharts-point highcharts-color-1" tabindex="-1" aria-label="Development, 42,000. Actual Spending." style="outline:0" transform="translate(10 43)"/><path d="m217 223.544 4 4-4 4-4-4Z" class="highcharts-point highcharts-color-1" tabindex="-1" aria-label="Customer Support, 31,000. Actual Spending." style="outline:0" transform="translate(10 43)"/><path d="m176 190.712 4 4-4 4-4-4Z" class="highcharts-point highcharts-color-1" tabindex="-1" aria-label="Information Technology, 26,000. Actual Spending." style="outline:0" transform="translate(10 43)"/><path d="m195 154.232 4 4-4 4-4-4Z" class="highcharts-point highcharts-color-1" tabindex="-1" aria-label="Administration, 14,000. Actual Spending." style="outline:0" transform="translate(10 43)"/></g></g><text x="220" text-anchor="middle" class="highcharts-title" data-z-index="4" style="color:#000;font-size:16px;font-weight:700;fill:#000" y="22" aria-hidden="true">Budget vs spending</text><g class="highcharts-legend highcharts-no-tooltip" data-z-index="7" transform="translate(457 176)" aria-hidden="true"><rect fill="#E0E0E8" class="highcharts-legend-box" rx="0" ry="0" width="132" height="43"/><g data-z-index="1"><g class="highcharts-legend-item highcharts-line-series highcharts-color-0 highcharts-series-0" data-z-index="1"><path fill="none" d="M8 15h16" class="highcharts-graph" stroke-width="2" stroke="#f45b5b"/><path fill="#f45b5b" d="M16 19a4 4 0 1 1 .004 0Z" class="highcharts-point"/><text x="21" data-z-index="2" y="16" style="color:#333;cursor:pointer;font-size:13px;font-weight:700;fill:#333" transform="translate(8 3)">Allocated Budget</text></g><g class="highcharts-legend-item highcharts-line-series highcharts-color-1 highcharts-series-1" data-z-index="1"><path fill="none" d="M8 31h16" class="highcharts-graph" stroke-width="2" stroke="#8085e9"/><path fill="#8085e9" d="m16 27 4 4-4 4-4-4Z" class="highcharts-point"/><text x="21" y="16" data-z-index="2" style="color:#333;cursor:pointer;font-size:13px;font-weight:700;fill:#333" transform="translate(8 19)">Actual Spending</text></g></g></g><g class="highcharts-axis-labels highcharts-xaxis-labels highcharts-radial-axis-labels" data-z-index="7" aria-hidden="true"><text x="227.5" style="color:#6e6e70;cursor:default;font-size:11px;fill:#6e6e70" text-anchor="middle" y="66.95">Sales</text><text x="358.963" style="color:#6e6e70;cursor:default;font-size:11px;fill:#6e6e70" y="142.85">Marketing</text><text x="358.963" style="color:#6e6e70;cursor:default;font-size:11px;fill:#6e6e70" y="294.65">Development</text><text x="227.5" style="color:#6e6e70;cursor:default;font-size:11px;fill:#6e6e70" text-anchor="middle" y="370.55">Customer Support</text><text x="96.037" style="color:#6e6e70;cursor:default;font-size:11px;fill:#6e6e70" text-anchor="end" y="294.15">Information<tspan dy="14" x="96.037">​</tspan>Technology</text><text x="96.037" style="color:#6e6e70;cursor:default;font-size:11px;fill:#6e6e70" text-anchor="end" y="142.85">Administration</text></g><g class="highcharts-axis-labels highcharts-yaxis-labels highcharts-radial-axis-labels" data-z-index="7" aria-hidden="true" text-anchor="end"><text x="224.5" style="color:#6e6e70;cursor:default;font-size:11px;fill:#6e6e70" y="212">0</text><text x="224.5" style="color:#6e6e70;cursor:default;font-size:11px;fill:#6e6e70" y="166.4">25k</text><text x="224.5" style="color:#6e6e70;cursor:default;font-size:11px;fill:#6e6e70" y="120.8">50k</text></g></svg>