<svg class="highcharts-root" style="font-family:Signika,serif;font-size:12px" xmlns="http://www.w3.org/2000/svg" width="600" height="400" aria-label="Interactive chart" aria-hidden="false"><rect fill="none" class="highcharts-background" width="600" height="400" rx="0" ry="0" aria-hidden="true"/><path fill="none" class="highcharts-plot-background" aria-hidden="true" d="M10 43h580v342H10z"/><path fill="none" class="highcharts-plot-border" data-z-index="1" aria-hidden="true" d="M10 43h580v342H10z"/><g class="highcharts-series-group" data-z-index="3" aria-hidden="false"><g class="highcharts-series highcharts-series-0 highcharts-pyramid-series highcharts-tracker" data-z-index=".1" aria-hidden="false" stroke-linejoin="round"><g class="highcharts-shadow" data-z-index="-1" fill="none" stroke="#000"><g class="highcharts-shadow"><path d="M11 386h464L320.636 158.446H165.364Z" stroke-width="5" stroke-opacity=".05" class="highcharts-shadow"/><path d="M11 386h464L320.636 158.446H165.364Z" stroke-width="3" stroke-opacity=".1" class="highcharts-shadow"/><path d="M11 386h464L320.636 158.446H165.364Z" stroke-opacity=".15" class="highcharts-shadow"/></g><g class="highcharts-shadow"><path d="M165.364 158.446h155.272L280.56 99.369h-75.122Z" stroke-width="5" stroke-opacity=".05" class="highcharts-shadow"/><path d="M165.364 158.446h155.272L280.56 99.369h-75.122Z" stroke-width="3" stroke-opacity=".1" class="highcharts-shadow"/><path d="M165.364 158.446h155.272L280.56 99.369h-75.122Z" stroke-opacity=".15" class="highcharts-shadow"/></g><g class="highcharts-shadow"><path d="M205.44 99.37h75.12l-19.593-28.885h-35.934Z" stroke-width="5" stroke-opacity=".05" class="highcharts-shadow"/><path d="M205.44 99.37h75.12l-19.593-28.885h-35.934Z" stroke-width="3" stroke-opacity=".1" class="highcharts-shadow"/><path d="M205.44 99.37h75.12l-19.593-28.885h-35.934Z" stroke-opacity=".15" class="highcharts-shadow"/></g><g class="highcharts-shadow"><path d="M225.033 70.485h35.934l-9.625-14.187h-16.684Z" stroke-width="5" stroke-opacity=".05" class="highcharts-shadow"/><path d="M225.033 70.485h35.934l-9.625-14.187h-16.684Z" stroke-width="3" stroke-opacity=".1" class="highcharts-shadow"/><path d="M225.033 70.485h35.934l-9.625-14.187h-16.684Z" stroke-opacity=".15" class="highcharts-shadow"/></g><g class="highcharts-shadow"><path d="M234.658 56.298h16.684L243 44Z" stroke-width="5" stroke-opacity=".05" class="highcharts-shadow"/><path d="M234.658 56.298h16.684L243 44Z" stroke-width="3" stroke-opacity=".1" class="highcharts-shadow"/><path d="M234.658 56.298h16.684L243 44Z" stroke-opacity=".15" class="highcharts-shadow"/></g></g><path fill="#f45b5b" d="M0 342h464L309.636 114.446H154.364Z" stroke="#fff" class="highcharts-point highcharts-color-0" tabindex="-1" aria-label="Website visits, 15,654. Unique users." style="outline:0" transform="translate(10 43)"/><path fill="#8085e9" d="M154.364 114.446h155.272L269.56 55.369h-75.122Z" stroke="#fff" class="highcharts-point highcharts-color-1" tabindex="-1" aria-label="Downloads, 4,064. Unique users." style="outline:0" transform="translate(10 43)"/><path fill="#8d4654" d="M194.44 55.37h75.12l-19.593-28.885h-35.934Z" stroke="#fff" class="highcharts-point highcharts-color-2" tabindex="-1" aria-label="Requested price list, 1,987. Unique users." style="outline:0" transform="translate(10 43)"/><path fill="#7798BF" d="M214.033 26.485h35.934l-9.625-14.187h-16.684Z" stroke="#fff" class="highcharts-point highcharts-color-3" tabindex="-1" aria-label="Invoice sent, 976. Unique users." style="outline:0" transform="translate(10 43)"/><path fill="#aee" d="M223.658 12.298h16.684L232 0Z" stroke="#fff" class="highcharts-point highcharts-color-4" tabindex="-1" aria-label="Finalized, 846. Unique users." style="outline:0" transform="translate(10 43)"/></g></g><text x="250" text-anchor="middle" class="highcharts-title" data-z-index="4" style="color:#000;font-size:16px;font-weight:700;fill:#000" y="22" aria-hidden="true">Sales pyramid</text><g class="highcharts-data-labels highcharts-series-0 highcharts-pyramid-series highcharts-tracker" data-z-index="6" aria-hidden="true"><path fill="none" class="highcharts-data-label-connector highcharts-color-0" stroke="#f45b5b" d="M426.818 271.223h-30"/><path fill="none" class="highcharts-data-label-connector highcharts-color-1" stroke="#8085e9" d="M329.598 127.908h-30"/><path fill="none" class="highcharts-data-label-connector highcharts-color-2" stroke="#8d4654" d="M303.23 89.038c-5 0-23.466-5.11-28.466-5.11h-5"/><path fill="none" class="highcharts-data-label-connector highcharts-color-3" stroke="#7798BF" d="M287.967 66.538c-5 0-22.812-4.146-27.812-4.146h-5"/><path fill="none" class="highcharts-data-label-connector highcharts-color-4" stroke="#aee" d="M276.171 44.038c-5 0-20 5.11-25 5.11h-5"/><text x="5" data-z-index="1" y="16" style="color:#fff;font-size:11px;font-weight:700;fill:#fff" transform="translate(432 261)" class="highcharts-label highcharts-data-label highcharts-data-label-color-0"><tspan class="highcharts-text-outline" fill="#000" stroke="#000" stroke-width="2" stroke-linejoin="round"><tspan style="font-weight:700">Website visits</tspan> (15 654)<tspan x="5" dy="0">​</tspan></tspan><tspan style="font-weight:700">Website visits</tspan> (15 654)</text><text x="5" data-z-index="1" y="16" style="color:#fff;font-size:11px;font-weight:700;fill:#fff" transform="translate(335 118)" class="highcharts-label highcharts-data-label highcharts-data-label-color-1"><tspan class="highcharts-text-outline" fill="#000" stroke="#000" stroke-width="2" stroke-linejoin="round"><tspan style="font-weight:700">Downloads</tspan> (4 064)<tspan x="5" dy="0">​</tspan></tspan><tspan style="font-weight:700">Downloads</tspan> (4 064)</text><text x="5" data-z-index="1" y="16" style="color:#fff;font-size:11px;font-weight:700;fill:#fff" transform="translate(308 79)" class="highcharts-label highcharts-data-label highcharts-data-label-color-2"><tspan class="highcharts-text-outline" fill="#000" stroke="#000" stroke-width="2" stroke-linejoin="round"><tspan style="font-weight:700">Requested price list</tspan> (1 987)<tspan x="5" dy="0">​</tspan></tspan><tspan style="font-weight:700">Requested price list</tspan> (1 987)</text><text x="5" data-z-index="1" y="16" style="color:#fff;font-size:11px;font-weight:700;fill:#fff" transform="translate(293 57)" class="highcharts-label highcharts-data-label highcharts-data-label-color-3"><tspan class="highcharts-text-outline" fill="#000" stroke="#000" stroke-width="2" stroke-linejoin="round"><tspan style="font-weight:700">Invoice sent</tspan> (976)<tspan x="5" dy="0">​</tspan></tspan><tspan style="font-weight:700">Invoice sent</tspan> (976)</text><text x="5" data-z-index="1" y="16" style="color:#fff;font-size:11px;font-weight:700;fill:#fff" transform="translate(281 34)" class="highcharts-label highcharts-data-label highcharts-data-label-color-4"><tspan class="highcharts-text-outline" fill="#000" stroke="#000" stroke-width="2" stroke-linejoin="round"><tspan style="font-weight:700">Finalized</tspan> (846)<tspan x="5" dy="0">​</tspan></tspan><tspan style="font-weight:700">Finalized</tspan> (846)</text></g></svg>