<svg class="highcharts-root" style="font-family:Signika,serif;font-size:12px" xmlns="http://www.w3.org/2000/svg" width="600" height="400" aria-label="Interactive chart" aria-hidden="false"><defs aria-hidden="true"><clipPath id="a"><path fill="none" d="M0 0h449v309H0z"/></clipPath></defs><rect fill="none" class="highcharts-background" width="600" height="400" rx="0" ry="0" aria-hidden="true"/><path fill="none" class="highcharts-plot-background" aria-hidden="true" d="M59 56h449v309H59z"/><g class="highcharts-grid highcharts-xaxis-grid" data-z-index="1" aria-hidden="true" fill="none"><path data-z-index="1" class="highcharts-grid-line" d="M208.5 56v309m149-309v309m150-309v309M58.5 56v309"/></g><g class="highcharts-grid highcharts-yaxis-grid" data-z-index="1" aria-hidden="true" fill="none" stroke="#e6e6e6"><path data-z-index="1" class="highcharts-grid-line" d="M59 365.5h449m-449-51h449m-449-52h449m-449-51h449m-449-52h449m-449-51h449m-449-53h449"/></g><path fill="none" class="highcharts-plot-border" data-z-index="1" aria-hidden="true" d="M59 56h449v309H59z"/><g class="highcharts-axis highcharts-xaxis" data-z-index="2" aria-hidden="true"><path fill="none" class="highcharts-axis-line" stroke="#ccd6eb" data-z-index="7" d="M59 365.5h449"/></g><g class="highcharts-axis highcharts-yaxis" data-z-index="2" aria-hidden="true"><text x="23" data-z-index="7" text-anchor="middle" transform="rotate(-90 23 210.5)" class="highcharts-axis-title" style="color:#666;fill:#666" y="210.5">Amount</text><path fill="none" class="highcharts-axis-line" data-z-index="7" d="M59 56v309"/></g><g class="highcharts-series-group" data-z-index="3" aria-hidden="false"><g class="highcharts-series highcharts-series-0 highcharts-column-series highcharts-color-0 highcharts-tracker" data-z-index=".1" clip-path="url(#a)" aria-hidden="false" tabindex="-1" aria-label="Ava, bar series 1 of 3 with 3 bars." style="outline:0" transform="translate(59 56)"><path fill="none" stroke="#000" stroke-width="5" stroke-opacity=".05" class="highcharts-shadow" d="M33.5 114.5h24v196h-24z"/><path fill="none" stroke="#000" stroke-width="3" stroke-opacity=".1" class="highcharts-shadow" d="M33.5 114.5h24v196h-24z"/><path fill="none" stroke="#000" stroke-opacity=".15" class="highcharts-shadow" d="M33.5 114.5h24v196h-24z"/><path fill="#f45b5b" stroke="#fff" class="highcharts-point highcharts-color-0" tabindex="-1" aria-label="2019, 38. Ava." style="outline:0" d="M32.5 113.5h24v196h-24z"/><path fill="none" stroke="#000" stroke-width="5" stroke-opacity=".05" class="highcharts-shadow" d="M183.5 47.5h24v263h-24z"/><path fill="none" stroke="#000" stroke-width="3" stroke-opacity=".1" class="highcharts-shadow" d="M183.5 47.5h24v263h-24z"/><path fill="none" stroke="#000" stroke-opacity=".15" class="highcharts-shadow" d="M183.5 47.5h24v263h-24z"/><path fill="#f45b5b" stroke="#fff" class="highcharts-point highcharts-color-0" tabindex="-1" aria-label="2020, 51. Ava." style="outline:0" d="M182.5 46.5h24v263h-24z"/><path fill="none" stroke="#000" stroke-width="5" stroke-opacity=".05" class="highcharts-shadow" d="M332.5 135.5h24v175h-24z"/><path fill="none" stroke="#000" stroke-width="3" stroke-opacity=".1" class="highcharts-shadow" d="M332.5 135.5h24v175h-24z"/><path fill="none" stroke="#000" stroke-opacity=".15" class="highcharts-shadow" d="M332.5 135.5h24v175h-24z"/><path fill="#f45b5b" stroke="#fff" class="highcharts-point highcharts-color-0" tabindex="-1" aria-label="2021, 34. Ava." style="outline:0" d="M331.5 134.5h24v175h-24z"/></g><g class="highcharts-series highcharts-series-1 highcharts-column-series highcharts-color-1 highcharts-tracker" data-z-index=".1" clip-path="url(#a)" aria-hidden="false" tabindex="-1" aria-label="Dina, bar series 2 of 3 with 3 bars." style="outline:0" transform="translate(59 56)"><path fill="none" stroke="#000" stroke-width="5" stroke-opacity=".05" class="highcharts-shadow" d="M63.5 150.5h24v160h-24z"/><path fill="none" stroke="#000" stroke-width="3" stroke-opacity=".1" class="highcharts-shadow" d="M63.5 150.5h24v160h-24z"/><path fill="none" stroke="#000" stroke-opacity=".15" class="highcharts-shadow" d="M63.5 150.5h24v160h-24z"/><path fill="#8085e9" stroke="#fff" class="highcharts-point highcharts-color-1" tabindex="-1" aria-label="2019, 31. Dina." style="outline:0" d="M62.5 149.5h24v160h-24z"/><path fill="none" stroke="#000" stroke-width="5" stroke-opacity=".05" class="highcharts-shadow" d="M213.5 176.5h24v134h-24z"/><path fill="none" stroke="#000" stroke-width="3" stroke-opacity=".1" class="highcharts-shadow" d="M213.5 176.5h24v134h-24z"/><path fill="none" stroke="#000" stroke-opacity=".15" class="highcharts-shadow" d="M213.5 176.5h24v134h-24z"/><path fill="#8085e9" stroke="#fff" class="highcharts-point highcharts-color-1" tabindex="-1" aria-label="2020, 26. Dina." style="outline:0" d="M212.5 175.5h24v134h-24z"/><path fill="none" stroke="#000" stroke-width="5" stroke-opacity=".05" class="highcharts-shadow" d="M362.5 171.5h24v139h-24z"/><path fill="none" stroke="#000" stroke-width="3" stroke-opacity=".1" class="highcharts-shadow" d="M362.5 171.5h24v139h-24z"/><path fill="none" stroke="#000" stroke-opacity=".15" class="highcharts-shadow" d="M362.5 171.5h24v139h-24z"/><path fill="#8085e9" stroke="#fff" class="highcharts-point highcharts-color-1" tabindex="-1" aria-label="2021, 27. Dina." style="outline:0" d="M361.5 170.5h24v139h-24z"/></g><g class="highcharts-series highcharts-series-2 highcharts-column-series highcharts-color-2 highcharts-tracker" data-z-index=".1" clip-path="url(#a)" aria-hidden="false" tabindex="-1" aria-label="Malin, bar series 3 of 3 with 3 bars." style="outline:0" transform="translate(59 56)"><path fill="none" stroke="#000" stroke-width="5" stroke-opacity=".05" class="highcharts-shadow" d="M93.5 114.5h24v196h-24z"/><path fill="none" stroke="#000" stroke-width="3" stroke-opacity=".1" class="highcharts-shadow" d="M93.5 114.5h24v196h-24z"/><path fill="none" stroke="#000" stroke-opacity=".15" class="highcharts-shadow" d="M93.5 114.5h24v196h-24z"/><path fill="#8d4654" stroke="#fff" class="highcharts-point highcharts-color-2" tabindex="-1" aria-label="2019, 38. Malin." style="outline:0" d="M92.5 113.5h24v196h-24z"/><path fill="none" stroke="#000" stroke-width="5" stroke-opacity=".05" class="highcharts-shadow" d="M242.5 94.5h24v216h-24z"/><path fill="none" stroke="#000" stroke-width="3" stroke-opacity=".1" class="highcharts-shadow" d="M242.5 94.5h24v216h-24z"/><path fill="none" stroke="#000" stroke-opacity=".15" class="highcharts-shadow" d="M242.5 94.5h24v216h-24z"/><path fill="#8d4654" stroke="#fff" class="highcharts-point highcharts-color-2" tabindex="-1" aria-label="2020, 42. Malin." style="outline:0" d="M241.5 93.5h24v216h-24z"/><path fill="none" stroke="#000" stroke-width="5" stroke-opacity=".05" class="highcharts-shadow" d="M392.5 99.5h24v211h-24z"/><path fill="none" stroke="#000" stroke-width="3" stroke-opacity=".1" class="highcharts-shadow" d="M392.5 99.5h24v211h-24z"/><path fill="none" stroke="#000" stroke-opacity=".15" class="highcharts-shadow" d="M392.5 99.5h24v211h-24z"/><path fill="#8d4654" stroke="#fff" class="highcharts-point highcharts-color-2" tabindex="-1" aria-label="2021, 41. Malin." style="outline:0" d="M391.5 98.5h24v211h-24z"/></g></g><text x="300" text-anchor="middle" class="highcharts-title" data-z-index="4" style="color:#000;font-size:16px;font-weight:700;fill:#000" y="22" aria-hidden="true">Born persons, by girls&apos; name</text><text x="300" text-anchor="middle" class="highcharts-subtitle" data-z-index="4" style="color:#000;fill:#000" y="42" aria-hidden="true">Resize the frame or click buttons to change appearance</text><g class="highcharts-legend highcharts-no-tooltip" data-z-index="7" transform="translate(520 168)" aria-hidden="true"><rect fill="#E0E0E8" class="highcharts-legend-box" rx="0" ry="0" width="70" height="59"/><g data-z-index="1"><g class="highcharts-legend-item highcharts-column-series highcharts-color-0 highcharts-series-0" data-z-index="1" transform="translate(8 3)"><text x="21" data-z-index="2" y="16" style="color:#333;cursor:pointer;font-size:13px;font-weight:700;fill:#333">Ava</text><rect x="1.5" y="4" width="13" height="13" fill="#f45b5b" rx="6.5" ry="6.5" class="highcharts-point" data-z-index="3"/></g><g class="highcharts-legend-item highcharts-column-series highcharts-color-1 highcharts-series-1" data-z-index="1" transform="translate(8 19)"><text x="21" y="16" data-z-index="2" style="color:#333;cursor:pointer;font-size:13px;font-weight:700;fill:#333">Dina</text><rect x="1.5" y="4" width="13" height="13" fill="#8085e9" rx="6.5" ry="6.5" class="highcharts-point" data-z-index="3"/></g><g class="highcharts-legend-item highcharts-column-series highcharts-color-2 highcharts-series-2" data-z-index="1" transform="translate(8 35)"><text x="21" y="16" data-z-index="2" style="color:#333;cursor:pointer;font-size:13px;font-weight:700;fill:#333">Malin</text><rect x="1.5" y="4" width="13" height="13" fill="#8d4654" rx="6.5" ry="6.5" class="highcharts-point" data-z-index="3"/></g></g></g><g class="highcharts-axis-labels highcharts-xaxis-labels" data-z-index="7" aria-hidden="true" text-anchor="middle"><text x="123.833" style="color:#6e6e70;cursor:default;font-size:11px;fill:#6e6e70" y="384">2019</text><text x="273.5" style="color:#6e6e70;cursor:default;font-size:11px;fill:#6e6e70" y="384">2020</text><text x="423.167" style="color:#6e6e70;cursor:default;font-size:11px;fill:#6e6e70" y="384">2021</text></g><g class="highcharts-axis-labels highcharts-yaxis-labels" data-z-index="7" aria-hidden="true" text-anchor="end"><text x="44" style="color:#6e6e70;cursor:default;font-size:11px;fill:#6e6e70" y="370">0</text><text x="44" style="color:#6e6e70;cursor:default;font-size:11px;fill:#6e6e70" y="318">10</text><text x="44" style="color:#6e6e70;cursor:default;font-size:11px;fill:#6e6e70" y="267">20</text><text x="44" style="color:#6e6e70;cursor:default;font-size:11px;fill:#6e6e70" y="215">30</text><text x="44" style="color:#6e6e70;cursor:default;font-size:11px;fill:#6e6e70" y="164">40</text><text x="44" style="color:#6e6e70;cursor:default;font-size:11px;fill:#6e6e70" y="112">50</text><text x="44" style="color:#6e6e70;cursor:default;font-size:11px;fill:#6e6e70" y="61">60</text></g></svg>