<svg class="highcharts-root" style="font-family:Signika,serif;font-size:12px" xmlns="http://www.w3.org/2000/svg" width="600" height="500" aria-label="Interactive chart" aria-hidden="false"><defs aria-hidden="true"><clipPath id="a"><path fill="none" d="M0 0h531v370H0z"/></clipPath></defs><rect fill="none" class="highcharts-background" width="600" height="500" rx="0" ry="0" aria-hidden="true"/><path fill="none" class="highcharts-plot-background" aria-hidden="true" d="M59 56h531v370H59z"/><g class="highcharts-plot-lines-0" data-z-index="0" aria-hidden="true"><path fill="none" class="highcharts-plot-line" stroke="#d33" stroke-dasharray="4,3" d="M284.5 56v370"/></g><g class="highcharts-grid highcharts-xaxis-grid" data-z-index="1" aria-hidden="true" fill="none"><path data-z-index="1" class="highcharts-grid-line" d="M162.5 56v370m113-370v370m114-370v370m115-370v370"/></g><g class="highcharts-grid highcharts-yaxis-grid" data-z-index="1" aria-hidden="true" fill="none" stroke="#e6e6e6"><path data-z-index="1" class="highcharts-grid-line" d="M59 426.5h531m-531-46h531m-531-46h531m-531-47h531m-531-46h531m-531-46h531m-531-46h531m-531-47h531m-531-47h531"/></g><path fill="none" class="highcharts-plot-border" data-z-index="1" aria-hidden="true" d="M59 56h531v370H59z"/><g class="highcharts-axis highcharts-xaxis" data-z-index="2" aria-hidden="true" fill="none" stroke="#ccd6eb"><path class="highcharts-tick" d="M162.5 426v10m113-10v10m114-10v10m115-10v10"/><path class="highcharts-axis-line" data-z-index="7" d="M59 426.5h531"/></g><g class="highcharts-axis highcharts-yaxis" data-z-index="2" aria-hidden="true"><text x="23" data-z-index="7" text-anchor="middle" transform="rotate(-90 23 241)" class="highcharts-axis-title" style="color:#666;fill:#666" y="241">Temperature (°F)</text><path fill="none" class="highcharts-axis-line" data-z-index="7" d="M59 56v370"/></g><g class="highcharts-series-group" data-z-index="3" aria-hidden="false" fill="none" stroke-linejoin="round" stroke-linecap="round"><g class="highcharts-series highcharts-series-0 highcharts-spline-series" data-z-index=".1" clip-path="url(#a)" aria-hidden="true" transform="translate(59 56)"><path d="M6.206 135.125H19.22c5.205 0 7.808 1.85 13.014 4.625 5.206 2.775 7.81 9.25 13.015 9.25 5.206 0 7.809-32.375 13.015-32.375s7.809 18.5 13.014 18.5c5.206 0 7.81-4.625 13.015-4.625 5.206 0 7.809 37 13.015 37s7.809-2.775 13.015-9.25c5.205-6.475 7.808-23.125 13.014-23.125 5.206 0 7.81 4.625 13.015 4.625 5.206 0 7.809-4.625 13.015-4.625s7.808 4.625 13.014 4.625c5.206 0 7.81-3.7 13.015-9.25 5.206-5.55 7.809-18.5 13.015-18.5s7.809 23.125 13.014 23.125c5.206 0 7.81-4.625 13.015-4.625h26.03c5.205 0 7.808-4.625 13.014-4.625H266.5c5.206 0 7.809-6.475 13.015-9.25 5.206-2.775 7.809-2.775 13.014-4.625 5.206-1.85 7.81-4.625 13.015-4.625 5.206 0 7.809 4.625 13.015 4.625s7.809 0 13.015-4.625c5.205-4.625 7.808-16.65 13.014-23.125 5.206-6.475 7.81-9.25 13.015-9.25 5.206 0 7.809 4.625 13.015 4.625s7.808-5.55 13.014-9.25c5.206-3.7 7.81-3.7 13.015-9.25 5.206-5.55 7.809-18.5 13.015-18.5s7.809 18.5 13.014 23.125c5.206 4.625 7.81 2.775 13.015 4.625 5.206 1.85 7.809 1.85 13.015 4.625s7.809 9.25 13.015 9.25h13.014c5.206 0 7.81 1.85 13.015 4.625 5.206 2.775 7.809 9.25 13.015 9.25s7.809-9.25 13.014-9.25c5.206 0 13.015 13.875 13.015 13.875" class="highcharts-graph highcharts-shadow" data-z-index="1" stroke="#000" stroke-width="5" stroke-opacity=".05"/><path d="M6.206 135.125H19.22c5.205 0 7.808 1.85 13.014 4.625 5.206 2.775 7.81 9.25 13.015 9.25 5.206 0 7.809-32.375 13.015-32.375s7.809 18.5 13.014 18.5c5.206 0 7.81-4.625 13.015-4.625 5.206 0 7.809 37 13.015 37s7.809-2.775 13.015-9.25c5.205-6.475 7.808-23.125 13.014-23.125 5.206 0 7.81 4.625 13.015 4.625 5.206 0 7.809-4.625 13.015-4.625s7.808 4.625 13.014 4.625c5.206 0 7.81-3.7 13.015-9.25 5.206-5.55 7.809-18.5 13.015-18.5s7.809 23.125 13.014 23.125c5.206 0 7.81-4.625 13.015-4.625h26.03c5.205 0 7.808-4.625 13.014-4.625H266.5c5.206 0 7.809-6.475 13.015-9.25 5.206-2.775 7.809-2.775 13.014-4.625 5.206-1.85 7.81-4.625 13.015-4.625 5.206 0 7.809 4.625 13.015 4.625s7.809 0 13.015-4.625c5.205-4.625 7.808-16.65 13.014-23.125 5.206-6.475 7.81-9.25 13.015-9.25 5.206 0 7.809 4.625 13.015 4.625s7.808-5.55 13.014-9.25c5.206-3.7 7.81-3.7 13.015-9.25 5.206-5.55 7.809-18.5 13.015-18.5s7.809 18.5 13.014 23.125c5.206 4.625 7.81 2.775 13.015 4.625 5.206 1.85 7.809 1.85 13.015 4.625s7.809 9.25 13.015 9.25h13.014c5.206 0 7.81 1.85 13.015 4.625 5.206 2.775 7.809 9.25 13.015 9.25s7.809-9.25 13.014-9.25c5.206 0 13.015 13.875 13.015 13.875" class="highcharts-graph highcharts-shadow" data-z-index="1" stroke="#000" stroke-width="3" stroke-opacity=".1"/><path d="M6.206 135.125H19.22c5.205 0 7.808 1.85 13.014 4.625 5.206 2.775 7.81 9.25 13.015 9.25 5.206 0 7.809-32.375 13.015-32.375s7.809 18.5 13.014 18.5c5.206 0 7.81-4.625 13.015-4.625 5.206 0 7.809 37 13.015 37s7.809-2.775 13.015-9.25c5.205-6.475 7.808-23.125 13.014-23.125 5.206 0 7.81 4.625 13.015 4.625 5.206 0 7.809-4.625 13.015-4.625s7.808 4.625 13.014 4.625c5.206 0 7.81-3.7 13.015-9.25 5.206-5.55 7.809-18.5 13.015-18.5s7.809 23.125 13.014 23.125c5.206 0 7.81-4.625 13.015-4.625h26.03c5.205 0 7.808-4.625 13.014-4.625H266.5c5.206 0 7.809-6.475 13.015-9.25 5.206-2.775 7.809-2.775 13.014-4.625 5.206-1.85 7.81-4.625 13.015-4.625 5.206 0 7.809 4.625 13.015 4.625s7.809 0 13.015-4.625c5.205-4.625 7.808-16.65 13.014-23.125 5.206-6.475 7.81-9.25 13.015-9.25 5.206 0 7.809 4.625 13.015 4.625s7.808-5.55 13.014-9.25c5.206-3.7 7.81-3.7 13.015-9.25 5.206-5.55 7.809-18.5 13.015-18.5s7.809 18.5 13.014 23.125c5.206 4.625 7.81 2.775 13.015 4.625 5.206 1.85 7.809 1.85 13.015 4.625s7.809 9.25 13.015 9.25h13.014c5.206 0 7.81 1.85 13.015 4.625 5.206 2.775 7.809 9.25 13.015 9.25s7.809-9.25 13.014-9.25c5.206 0 13.015 13.875 13.015 13.875" class="highcharts-graph highcharts-shadow" data-z-index="1" stroke="#000" stroke-opacity=".15"/><path d="M5.206 134.125H18.22c5.205 0 7.808 1.85 13.014 4.625 5.206 2.775 7.81 9.25 13.015 9.25 5.206 0 7.809-32.375 13.015-32.375s7.809 18.5 13.014 18.5c5.206 0 7.81-4.625 13.015-4.625 5.206 0 7.809 37 13.015 37s7.809-2.775 13.015-9.25c5.205-6.475 7.808-23.125 13.014-23.125 5.206 0 7.81 4.625 13.015 4.625 5.206 0 7.809-4.625 13.015-4.625s7.808 4.625 13.014 4.625c5.206 0 7.81-3.7 13.015-9.25 5.206-5.55 7.809-18.5 13.015-18.5s7.809 23.125 13.014 23.125c5.206 0 7.81-4.625 13.015-4.625h26.03c5.205 0 7.808-4.625 13.014-4.625H265.5c5.206 0 7.809-6.475 13.015-9.25 5.206-2.775 7.809-2.775 13.014-4.625 5.206-1.85 7.81-4.625 13.015-4.625 5.206 0 7.809 4.625 13.015 4.625s7.809 0 13.015-4.625c5.205-4.625 7.808-16.65 13.014-23.125 5.206-6.475 7.81-9.25 13.015-9.25 5.206 0 7.809 4.625 13.015 4.625s7.808-5.55 13.014-9.25c5.206-3.7 7.81-3.7 13.015-9.25 5.206-5.55 7.809-18.5 13.015-18.5s7.809 18.5 13.014 23.125c5.206 4.625 7.81 2.775 13.015 4.625 5.206 1.85 7.809 1.85 13.015 4.625s7.809 9.25 13.015 9.25h13.014c5.206 0 7.81 1.85 13.015 4.625 5.206 2.775 7.809 9.25 13.015 9.25s7.809-9.25 13.014-9.25c5.206 0 13.015 13.875 13.015 13.875" class="highcharts-graph" data-z-index="1" stroke="#f4b042" stroke-width="2"/><path d="M5.206 134.125H18.22c5.205 0 7.808 1.85 13.014 4.625 5.206 2.775 7.81 9.25 13.015 9.25 5.206 0 7.809-32.375 13.015-32.375s7.809 18.5 13.014 18.5c5.206 0 7.81-4.625 13.015-4.625 5.206 0 7.809 37 13.015 37s7.809-2.775 13.015-9.25c5.205-6.475 7.808-23.125 13.014-23.125 5.206 0 7.81 4.625 13.015 4.625 5.206 0 7.809-4.625 13.015-4.625s7.808 4.625 13.014 4.625c5.206 0 7.81-3.7 13.015-9.25 5.206-5.55 7.809-18.5 13.015-18.5s7.809 23.125 13.014 23.125c5.206 0 7.81-4.625 13.015-4.625h26.03c5.205 0 7.808-4.625 13.014-4.625H265.5c5.206 0 7.809-6.475 13.015-9.25 5.206-2.775 7.809-2.775 13.014-4.625 5.206-1.85 7.81-4.625 13.015-4.625 5.206 0 7.809 4.625 13.015 4.625s7.809 0 13.015-4.625c5.205-4.625 7.808-16.65 13.014-23.125 5.206-6.475 7.81-9.25 13.015-9.25 5.206 0 7.809 4.625 13.015 4.625s7.808-5.55 13.014-9.25c5.206-3.7 7.81-3.7 13.015-9.25 5.206-5.55 7.809-18.5 13.015-18.5s7.809 18.5 13.014 23.125c5.206 4.625 7.81 2.775 13.015 4.625 5.206 1.85 7.809 1.85 13.015 4.625s7.809 9.25 13.015 9.25h13.014c5.206 0 7.81 1.85 13.015 4.625 5.206 2.775 7.809 9.25 13.015 9.25s7.809-9.25 13.014-9.25c5.206 0 13.015 13.875 13.015 13.875" data-z-index="2" class="highcharts-tracker-line" stroke="rgba(192,192,192,0.0001)" stroke-width="22" style="cursor:pointer"/></g><g class="highcharts-series highcharts-series-1 highcharts-spline-series" data-z-index=".1" clip-path="url(#a)" aria-hidden="true" transform="translate(59 56)"><path d="M6.206 343.91s7.809-83.25 13.015-83.25c5.205 0 7.808 9.25 13.014 9.25 5.206 0 7.81-34.356 13.015-34.356 5.206 0 7.809 33.035 13.015 33.035s7.809-9.514 13.014-17.178c5.206-7.665 7.81-12.686 13.015-21.143 5.206-8.457 7.809-21.143 13.015-21.143s7.809 0 13.015 7.268c5.205 7.268 7.808 31.714 13.014 31.714h13.015c5.206 0 7.809-1.057 13.015-7.268 5.206-6.21 7.808-23.785 13.014-23.785 5.206 0 7.81 9.91 13.015 9.91 5.206 0 7.809-21.143 13.015-21.803 5.206-.661 7.809 0 13.014-.661 5.206-.66 7.81-18.368 13.015-33.696 5.206-15.329 7.809-42.947 13.015-42.947s7.809 19.16 13.015 19.16c5.205 0 7.808 0 13.014-7.928 5.206-7.928 7.81-35.018 13.015-35.018 5.206 0 7.809 8.458 13.015 11.893 5.206 3.436 7.809 5.286 13.014 5.286 5.206 0 7.81-14.271 13.015-21.143 5.206-6.871 7.809-7.136 13.015-13.214 5.206-6.079 7.809-12.422 13.015-17.179 5.205-4.757 7.808-6.607 13.014-6.607 5.206 0 7.81 5.286 13.015 6.607 5.206 1.322 7.809 1.322 13.015 1.322s7.808-5.55 13.014-7.929c5.206-2.378 7.81-1.718 13.015-3.964 5.206-2.247 7.809-7.268 13.015-7.268s7.809 3.7 13.014 9.25c5.206 5.55 7.81 18.5 13.015 18.5 5.206 0 7.809-24.446 13.015-24.446s7.809 7.267 13.015 15.196c5.205 7.929 7.808 24.446 13.014 24.446 5.206 0 7.81-3.303 13.015-3.303 5.206 0 7.809 21.803 13.015 21.803s7.809-11.232 13.014-11.232c5.206 0 13.015 19.161 13.015 19.161" class="highcharts-graph highcharts-shadow" data-z-index="1" stroke="#000" stroke-width="5" stroke-opacity=".05"/><path d="M6.206 343.91s7.809-83.25 13.015-83.25c5.205 0 7.808 9.25 13.014 9.25 5.206 0 7.81-34.356 13.015-34.356 5.206 0 7.809 33.035 13.015 33.035s7.809-9.514 13.014-17.178c5.206-7.665 7.81-12.686 13.015-21.143 5.206-8.457 7.809-21.143 13.015-21.143s7.809 0 13.015 7.268c5.205 7.268 7.808 31.714 13.014 31.714h13.015c5.206 0 7.809-1.057 13.015-7.268 5.206-6.21 7.808-23.785 13.014-23.785 5.206 0 7.81 9.91 13.015 9.91 5.206 0 7.809-21.143 13.015-21.803 5.206-.661 7.809 0 13.014-.661 5.206-.66 7.81-18.368 13.015-33.696 5.206-15.329 7.809-42.947 13.015-42.947s7.809 19.16 13.015 19.16c5.205 0 7.808 0 13.014-7.928 5.206-7.928 7.81-35.018 13.015-35.018 5.206 0 7.809 8.458 13.015 11.893 5.206 3.436 7.809 5.286 13.014 5.286 5.206 0 7.81-14.271 13.015-21.143 5.206-6.871 7.809-7.136 13.015-13.214 5.206-6.079 7.809-12.422 13.015-17.179 5.205-4.757 7.808-6.607 13.014-6.607 5.206 0 7.81 5.286 13.015 6.607 5.206 1.322 7.809 1.322 13.015 1.322s7.808-5.55 13.014-7.929c5.206-2.378 7.81-1.718 13.015-3.964 5.206-2.247 7.809-7.268 13.015-7.268s7.809 3.7 13.014 9.25c5.206 5.55 7.81 18.5 13.015 18.5 5.206 0 7.809-24.446 13.015-24.446s7.809 7.267 13.015 15.196c5.205 7.929 7.808 24.446 13.014 24.446 5.206 0 7.81-3.303 13.015-3.303 5.206 0 7.809 21.803 13.015 21.803s7.809-11.232 13.014-11.232c5.206 0 13.015 19.161 13.015 19.161" class="highcharts-graph highcharts-shadow" data-z-index="1" stroke="#000" stroke-width="3" stroke-opacity=".1"/><path d="M6.206 343.91s7.809-83.25 13.015-83.25c5.205 0 7.808 9.25 13.014 9.25 5.206 0 7.81-34.356 13.015-34.356 5.206 0 7.809 33.035 13.015 33.035s7.809-9.514 13.014-17.178c5.206-7.665 7.81-12.686 13.015-21.143 5.206-8.457 7.809-21.143 13.015-21.143s7.809 0 13.015 7.268c5.205 7.268 7.808 31.714 13.014 31.714h13.015c5.206 0 7.809-1.057 13.015-7.268 5.206-6.21 7.808-23.785 13.014-23.785 5.206 0 7.81 9.91 13.015 9.91 5.206 0 7.809-21.143 13.015-21.803 5.206-.661 7.809 0 13.014-.661 5.206-.66 7.81-18.368 13.015-33.696 5.206-15.329 7.809-42.947 13.015-42.947s7.809 19.16 13.015 19.16c5.205 0 7.808 0 13.014-7.928 5.206-7.928 7.81-35.018 13.015-35.018 5.206 0 7.809 8.458 13.015 11.893 5.206 3.436 7.809 5.286 13.014 5.286 5.206 0 7.81-14.271 13.015-21.143 5.206-6.871 7.809-7.136 13.015-13.214 5.206-6.079 7.809-12.422 13.015-17.179 5.205-4.757 7.808-6.607 13.014-6.607 5.206 0 7.81 5.286 13.015 6.607 5.206 1.322 7.809 1.322 13.015 1.322s7.808-5.55 13.014-7.929c5.206-2.378 7.81-1.718 13.015-3.964 5.206-2.247 7.809-7.268 13.015-7.268s7.809 3.7 13.014 9.25c5.206 5.55 7.81 18.5 13.015 18.5 5.206 0 7.809-24.446 13.015-24.446s7.809 7.267 13.015 15.196c5.205 7.929 7.808 24.446 13.014 24.446 5.206 0 7.81-3.303 13.015-3.303 5.206 0 7.809 21.803 13.015 21.803s7.809-11.232 13.014-11.232c5.206 0 13.015 19.161 13.015 19.161" class="highcharts-graph highcharts-shadow" data-z-index="1" stroke="#000" stroke-opacity=".15"/><path d="M5.206 342.91s7.809-83.25 13.015-83.25c5.205 0 7.808 9.25 13.014 9.25 5.206 0 7.81-34.356 13.015-34.356 5.206 0 7.809 33.035 13.015 33.035s7.809-9.514 13.014-17.178c5.206-7.665 7.81-12.686 13.015-21.143 5.206-8.457 7.809-21.143 13.015-21.143s7.809 0 13.015 7.268c5.205 7.268 7.808 31.714 13.014 31.714h13.015c5.206 0 7.809-1.057 13.015-7.268 5.206-6.21 7.808-23.785 13.014-23.785 5.206 0 7.81 9.91 13.015 9.91 5.206 0 7.809-21.143 13.015-21.803 5.206-.661 7.809 0 13.014-.661 5.206-.66 7.81-18.368 13.015-33.696 5.206-15.329 7.809-42.947 13.015-42.947s7.809 19.16 13.015 19.16c5.205 0 7.808 0 13.014-7.928 5.206-7.928 7.81-35.018 13.015-35.018 5.206 0 7.809 8.458 13.015 11.893 5.206 3.436 7.809 5.286 13.014 5.286 5.206 0 7.81-14.271 13.015-21.143 5.206-6.871 7.809-7.136 13.015-13.214 5.206-6.079 7.809-12.422 13.015-17.179 5.205-4.757 7.808-6.607 13.014-6.607 5.206 0 7.81 5.286 13.015 6.607 5.206 1.322 7.809 1.322 13.015 1.322s7.808-5.55 13.014-7.929c5.206-2.378 7.81-1.718 13.015-3.964 5.206-2.247 7.809-7.268 13.015-7.268s7.809 3.7 13.014 9.25c5.206 5.55 7.81 18.5 13.015 18.5 5.206 0 7.809-24.446 13.015-24.446s7.809 7.267 13.015 15.196c5.205 7.929 7.808 24.446 13.014 24.446 5.206 0 7.81-3.303 13.015-3.303 5.206 0 7.809 21.803 13.015 21.803s7.809-11.232 13.014-11.232c5.206 0 13.015 19.161 13.015 19.161" class="highcharts-graph" data-z-index="1" stroke="#41aff4" stroke-width="2"/><path d="M5.206 342.91s7.809-83.25 13.015-83.25c5.205 0 7.808 9.25 13.014 9.25 5.206 0 7.81-34.356 13.015-34.356 5.206 0 7.809 33.035 13.015 33.035s7.809-9.514 13.014-17.178c5.206-7.665 7.81-12.686 13.015-21.143 5.206-8.457 7.809-21.143 13.015-21.143s7.809 0 13.015 7.268c5.205 7.268 7.808 31.714 13.014 31.714h13.015c5.206 0 7.809-1.057 13.015-7.268 5.206-6.21 7.808-23.785 13.014-23.785 5.206 0 7.81 9.91 13.015 9.91 5.206 0 7.809-21.143 13.015-21.803 5.206-.661 7.809 0 13.014-.661 5.206-.66 7.81-18.368 13.015-33.696 5.206-15.329 7.809-42.947 13.015-42.947s7.809 19.16 13.015 19.16c5.205 0 7.808 0 13.014-7.928 5.206-7.928 7.81-35.018 13.015-35.018 5.206 0 7.809 8.458 13.015 11.893 5.206 3.436 7.809 5.286 13.014 5.286 5.206 0 7.81-14.271 13.015-21.143 5.206-6.871 7.809-7.136 13.015-13.214 5.206-6.079 7.809-12.422 13.015-17.179 5.205-4.757 7.808-6.607 13.014-6.607 5.206 0 7.81 5.286 13.015 6.607 5.206 1.322 7.809 1.322 13.015 1.322s7.808-5.55 13.014-7.929c5.206-2.378 7.81-1.718 13.015-3.964 5.206-2.247 7.809-7.268 13.015-7.268s7.809 3.7 13.014 9.25c5.206 5.55 7.81 18.5 13.015 18.5 5.206 0 7.809-24.446 13.015-24.446s7.809 7.267 13.015 15.196c5.205 7.929 7.808 24.446 13.014 24.446 5.206 0 7.81-3.303 13.015-3.303 5.206 0 7.809 21.803 13.015 21.803s7.809-11.232 13.014-11.232c5.206 0 13.015 19.161 13.015 19.161" data-z-index="2" class="highcharts-tracker-line" stroke="rgba(192,192,192,0.0001)" stroke-width="22" style="cursor:pointer"/></g></g><text x="300" text-anchor="middle" class="highcharts-title" data-z-index="4" style="color:#000;font-size:16px;font-weight:700;fill:#000" y="22" aria-hidden="true">Play chart as sound</text><text x="300" text-anchor="middle" class="highcharts-subtitle" data-z-index="4" style="color:#000;fill:#000" y="42" aria-hidden="true">Weekly temperature averages</text><g class="highcharts-legend highcharts-no-tooltip" data-z-index="7" transform="translate(206 458)" aria-hidden="true"><rect fill="#E0E0E8" class="highcharts-legend-box" rx="0" ry="0" width="188" height="27"/><g data-z-index="1"><g class="highcharts-legend-item highcharts-spline-series highcharts-color-undefined highcharts-series-0" data-z-index="1"><path fill="none" d="M8 15h16" class="highcharts-graph" stroke-width="2" stroke="#f4b042"/><text x="21" data-z-index="2" y="16" style="color:#333;cursor:pointer;font-size:13px;font-weight:700;fill:#333" transform="translate(8 3)">San Diego</text></g><g class="highcharts-legend-item highcharts-spline-series highcharts-color-undefined highcharts-series-1" data-z-index="1"><path fill="none" d="M104.984 15h16" class="highcharts-graph" stroke-width="2" stroke="#41aff4"/><text x="21" y="16" data-z-index="2" style="color:#333;cursor:pointer;font-size:13px;font-weight:700;fill:#333" transform="translate(104.984 3)">New York</text></g></g></g><g class="highcharts-axis-labels highcharts-xaxis-labels" data-z-index="7" aria-hidden="true" text-anchor="middle"><text x="162.746" style="color:#6e6e70;cursor:default;font-size:11px;fill:#6e6e70" y="445">Mar &apos;18</text><text x="276.16" style="color:#6e6e70;cursor:default;font-size:11px;fill:#6e6e70" y="445">May &apos;18</text><text x="389.574" style="color:#6e6e70;cursor:default;font-size:11px;fill:#6e6e70" y="445">Jul &apos;18</text><text x="504.847" style="color:#6e6e70;cursor:default;font-size:11px;fill:#6e6e70" y="445">Sep &apos;18</text></g><g class="highcharts-axis-labels highcharts-yaxis-labels" data-z-index="7" aria-hidden="true" text-anchor="end"><text x="44" style="color:#6e6e70;cursor:default;font-size:11px;fill:#6e6e70" y="431">10</text><text x="44" style="color:#6e6e70;cursor:default;font-size:11px;fill:#6e6e70" y="385">20</text><text x="44" style="color:#6e6e70;cursor:default;font-size:11px;fill:#6e6e70" y="338">30</text><text x="44" style="color:#6e6e70;cursor:default;font-size:11px;fill:#6e6e70" y="292">40</text><text x="44" style="color:#6e6e70;cursor:default;font-size:11px;fill:#6e6e70" y="246">50</text><text x="44" style="color:#6e6e70;cursor:default;font-size:11px;fill:#6e6e70" y="200">60</text><text x="44" style="color:#6e6e70;cursor:default;font-size:11px;fill:#6e6e70" y="153">70</text><text x="44" style="color:#6e6e70;cursor:default;font-size:11px;fill:#6e6e70" y="107">80</text><text x="44" style="color:#6e6e70;cursor:default;font-size:11px;fill:#6e6e70" y="61">90</text></g></svg>