<svg class="highcharts-root" style="font-family:Signika,serif;font-size:12px" xmlns="http://www.w3.org/2000/svg" width="600" height="400" aria-label="Interactive chart" aria-hidden="false"><defs aria-hidden="true"><clipPath id="a"><path fill="none" d="M0 0h534v270H0z"/></clipPath></defs><rect fill="none" class="highcharts-background" width="600" height="400" rx="0" ry="0" aria-hidden="true"/><path fill="none" class="highcharts-plot-background" aria-hidden="true" d="M56 56h534v270H56z"/><g class="highcharts-plot-bands-0" data-z-index="0" aria-hidden="true"><path fill="rgba(68, 170, 213, 0.1)" class="highcharts-plot-band" d="M56 313.5h534v-54H56Z"/><path fill="rgba(0, 0, 0, 0)" class="highcharts-plot-band" d="M56 259.5h534v-81H56Z"/><path fill="rgba(68, 170, 213, 0.1)" class="highcharts-plot-band" d="M56 178.5h534v-99H56Z"/><path fill="rgba(0, 0, 0, 0)" class="highcharts-plot-band" d="M56 79.5h534v-23H56Z"/><path fill="rgba(68, 170, 213, 0.1)" class="highcharts-plot-band" d="M56 56.5h534H56Z"/><path fill="rgba(0, 0, 0, 0)" class="highcharts-plot-band" d="M56 56.5h534H56Z"/><path fill="rgba(68, 170, 213, 0.1)" class="highcharts-plot-band" d="M56 56.5h534H56Z"/></g><text x="66" class="highcharts-plot-band-label" data-z-index="0" y="293" style="color:#606060;fill:#606060" aria-hidden="true">Light air</text><text x="66" class="highcharts-plot-band-label" data-z-index="0" y="225" style="color:#606060;fill:#606060" aria-hidden="true">Light breeze</text><text x="66" class="highcharts-plot-band-label" data-z-index="0" y="135" style="color:#606060;fill:#606060" aria-hidden="true">Gentle breeze</text><text x="66" class="highcharts-plot-band-label" data-z-index="0" y="74" style="color:#606060;fill:#606060" aria-hidden="true">Moderate breeze</text><g class="highcharts-grid highcharts-xaxis-grid" data-z-index="1" aria-hidden="true" fill="none"><path data-z-index="1" class="highcharts-grid-line" d="M60.5 56v270m87-270v270m88-270v270m87-270v270m87-270v270m88-270v270m87-270v270"/></g><g class="highcharts-grid highcharts-yaxis-grid" data-z-index="1" aria-hidden="true" fill="none"><path data-z-index="1" class="highcharts-grid-line" d="M56 326.5h534m-534-45h534m-534-45h534m-534-45h534m-534-45h534m-534-45h534m-534-45h534"/></g><path fill="none" class="highcharts-plot-border" data-z-index="1" aria-hidden="true" d="M56 56h534v270H56z"/><g class="highcharts-axis highcharts-xaxis" data-z-index="2" aria-hidden="true" fill="none" stroke="#ccd6eb"><path class="highcharts-tick" d="M60.5 326v10m87-10v10m88-10v10m87-10v10m87-10v10m88-10v10m87-10v10"/><path class="highcharts-axis-line" data-z-index="7" d="M56 326.5h534"/></g><g class="highcharts-axis highcharts-yaxis" data-z-index="2" aria-hidden="true"><text x="25.5" data-z-index="7" text-anchor="middle" transform="rotate(-90 25.5 191)" class="highcharts-axis-title" style="color:#666;fill:#666" y="191">Wind speed (m/s)</text><path fill="none" class="highcharts-axis-line" data-z-index="7" d="M56 56v270"/></g><g class="highcharts-series-group" data-z-index="3" aria-hidden="false" fill="none" stroke-linejoin="round" stroke-linecap="round"><g class="highcharts-series highcharts-series-0 highcharts-spline-series highcharts-color-0" data-z-index=".1" clip-path="url(#a)" aria-hidden="true" transform="translate(56 56)"><path d="M6.235 68.5s13.089-27 21.814-27c8.726 0 13.088 18.9 21.814 31.5 8.725 12.6 13.088 31.5 21.813 31.5 8.726 0 13.089-22.5 21.814-22.5 8.726 0 13.088 22.5 21.814 22.5 8.725 0 13.088-27 21.814-27 8.725 0 13.088 13.5 21.813 13.5 8.726 0 13.089-45 21.814-45 8.726 0 13.088 2.7 21.814 4.5 8.725 1.8 13.088 1.8 21.814 4.5 8.725 2.7 13.088.9 21.813 9 8.726 8.1 13.089 27 21.814 31.5s13.088 0 21.814 4.5c8.725 4.5 13.088 49.5 21.813 49.5 8.726 0 13.089-18 21.814-18 8.726 0 13.088 22.5 21.814 22.5 8.725 0 13.088-20.7 21.814-31.5 8.725-10.8 13.088-15.3 21.813-22.5 8.726-7.2 13.089-13.5 21.814-13.5 8.726 0 13.088 139.5 21.814 139.5 8.725 0 13.088-20.7 21.814-40.5 8.725-19.8 13.088-41.4 21.813-58.5 8.726-17.1 13.088-18 21.814-27 8.725-9 21.814-18 21.814-18" class="highcharts-graph highcharts-shadow" data-z-index="1" stroke="#000" stroke-width="5" stroke-opacity=".05"/><path d="M6.235 68.5s13.089-27 21.814-27c8.726 0 13.088 18.9 21.814 31.5 8.725 12.6 13.088 31.5 21.813 31.5 8.726 0 13.089-22.5 21.814-22.5 8.726 0 13.088 22.5 21.814 22.5 8.725 0 13.088-27 21.814-27 8.725 0 13.088 13.5 21.813 13.5 8.726 0 13.089-45 21.814-45 8.726 0 13.088 2.7 21.814 4.5 8.725 1.8 13.088 1.8 21.814 4.5 8.725 2.7 13.088.9 21.813 9 8.726 8.1 13.089 27 21.814 31.5s13.088 0 21.814 4.5c8.725 4.5 13.088 49.5 21.813 49.5 8.726 0 13.089-18 21.814-18 8.726 0 13.088 22.5 21.814 22.5 8.725 0 13.088-20.7 21.814-31.5 8.725-10.8 13.088-15.3 21.813-22.5 8.726-7.2 13.089-13.5 21.814-13.5 8.726 0 13.088 139.5 21.814 139.5 8.725 0 13.088-20.7 21.814-40.5 8.725-19.8 13.088-41.4 21.813-58.5 8.726-17.1 13.088-18 21.814-27 8.725-9 21.814-18 21.814-18" class="highcharts-graph highcharts-shadow" data-z-index="1" stroke="#000" stroke-width="3" stroke-opacity=".1"/><path d="M6.235 68.5s13.089-27 21.814-27c8.726 0 13.088 18.9 21.814 31.5 8.725 12.6 13.088 31.5 21.813 31.5 8.726 0 13.089-22.5 21.814-22.5 8.726 0 13.088 22.5 21.814 22.5 8.725 0 13.088-27 21.814-27 8.725 0 13.088 13.5 21.813 13.5 8.726 0 13.089-45 21.814-45 8.726 0 13.088 2.7 21.814 4.5 8.725 1.8 13.088 1.8 21.814 4.5 8.725 2.7 13.088.9 21.813 9 8.726 8.1 13.089 27 21.814 31.5s13.088 0 21.814 4.5c8.725 4.5 13.088 49.5 21.813 49.5 8.726 0 13.089-18 21.814-18 8.726 0 13.088 22.5 21.814 22.5 8.725 0 13.088-20.7 21.814-31.5 8.725-10.8 13.088-15.3 21.813-22.5 8.726-7.2 13.089-13.5 21.814-13.5 8.726 0 13.088 139.5 21.814 139.5 8.725 0 13.088-20.7 21.814-40.5 8.725-19.8 13.088-41.4 21.813-58.5 8.726-17.1 13.088-18 21.814-27 8.725-9 21.814-18 21.814-18" class="highcharts-graph highcharts-shadow" data-z-index="1" stroke="#000" stroke-opacity=".15"/><path d="M5.235 67.5s13.089-27 21.814-27c8.726 0 13.088 18.9 21.814 31.5 8.725 12.6 13.088 31.5 21.813 31.5 8.726 0 13.089-22.5 21.814-22.5 8.726 0 13.088 22.5 21.814 22.5 8.725 0 13.088-27 21.814-27 8.725 0 13.088 13.5 21.813 13.5 8.726 0 13.089-45 21.814-45 8.726 0 13.088 2.7 21.814 4.5 8.725 1.8 13.088 1.8 21.814 4.5 8.725 2.7 13.088.9 21.813 9 8.726 8.1 13.089 27 21.814 31.5s13.088 0 21.814 4.5c8.725 4.5 13.088 49.5 21.813 49.5 8.726 0 13.089-18 21.814-18 8.726 0 13.088 22.5 21.814 22.5 8.725 0 13.088-20.7 21.814-31.5 8.725-10.8 13.088-15.3 21.813-22.5 8.726-7.2 13.089-13.5 21.814-13.5 8.726 0 13.088 139.5 21.814 139.5 8.725 0 13.088-20.7 21.814-40.5 8.725-19.8 13.088-41.4 21.813-58.5 8.726-17.1 13.088-18 21.814-27 8.725-9 21.814-18 21.814-18" class="highcharts-graph" data-z-index="1" stroke="#f45b5b" stroke-width="4"/><path d="M5.235 67.5s13.089-27 21.814-27c8.726 0 13.088 18.9 21.814 31.5 8.725 12.6 13.088 31.5 21.813 31.5 8.726 0 13.089-22.5 21.814-22.5 8.726 0 13.088 22.5 21.814 22.5 8.725 0 13.088-27 21.814-27 8.725 0 13.088 13.5 21.813 13.5 8.726 0 13.089-45 21.814-45 8.726 0 13.088 2.7 21.814 4.5 8.725 1.8 13.088 1.8 21.814 4.5 8.725 2.7 13.088.9 21.813 9 8.726 8.1 13.089 27 21.814 31.5s13.088 0 21.814 4.5c8.725 4.5 13.088 49.5 21.813 49.5 8.726 0 13.089-18 21.814-18 8.726 0 13.088 22.5 21.814 22.5 8.725 0 13.088-20.7 21.814-31.5 8.725-10.8 13.088-15.3 21.813-22.5 8.726-7.2 13.089-13.5 21.814-13.5 8.726 0 13.088 139.5 21.814 139.5 8.725 0 13.088-20.7 21.814-40.5 8.725-19.8 13.088-41.4 21.813-58.5 8.726-17.1 13.088-18 21.814-27 8.725-9 21.814-18 21.814-18" data-z-index="2" class="highcharts-tracker-line" stroke="rgba(192,192,192,0.0001)" stroke-width="24"/></g><g class="highcharts-series highcharts-series-1 highcharts-spline-series highcharts-color-1" data-z-index=".1" clip-path="url(#a)" aria-hidden="true" transform="translate(56 56)"><path d="M6.235 266.5h43.628c8.725 0 13.088-1.8 21.813-4.5 8.726-2.7 13.089-9 21.814-9h21.814c8.725 0 13.088 4.5 21.814 4.5 8.725 0 13.088-4.5 21.813-4.5 8.726 0 13.089 9.9 21.814 13.5 8.726 3.6 13.088 4.5 21.814 4.5 8.725 0 13.088-6.3 21.814-9 8.725-2.7 13.088-4.5 21.813-4.5 8.726 0 13.089 13.5 21.814 13.5h87.255c8.725 0 13.088-4.5 21.814-4.5h43.627c8.726 0 13.088 4.5 21.814 4.5 8.725 0 13.088-4.5 21.814-4.5 8.725 0 13.088 4.5 21.813 4.5h43.628" class="highcharts-graph highcharts-shadow" data-z-index="1" stroke="#000" stroke-width="5" stroke-opacity=".05"/><path d="M6.235 266.5h43.628c8.725 0 13.088-1.8 21.813-4.5 8.726-2.7 13.089-9 21.814-9h21.814c8.725 0 13.088 4.5 21.814 4.5 8.725 0 13.088-4.5 21.813-4.5 8.726 0 13.089 9.9 21.814 13.5 8.726 3.6 13.088 4.5 21.814 4.5 8.725 0 13.088-6.3 21.814-9 8.725-2.7 13.088-4.5 21.813-4.5 8.726 0 13.089 13.5 21.814 13.5h87.255c8.725 0 13.088-4.5 21.814-4.5h43.627c8.726 0 13.088 4.5 21.814 4.5 8.725 0 13.088-4.5 21.814-4.5 8.725 0 13.088 4.5 21.813 4.5h43.628" class="highcharts-graph highcharts-shadow" data-z-index="1" stroke="#000" stroke-width="3" stroke-opacity=".1"/><path d="M6.235 266.5h43.628c8.725 0 13.088-1.8 21.813-4.5 8.726-2.7 13.089-9 21.814-9h21.814c8.725 0 13.088 4.5 21.814 4.5 8.725 0 13.088-4.5 21.813-4.5 8.726 0 13.089 9.9 21.814 13.5 8.726 3.6 13.088 4.5 21.814 4.5 8.725 0 13.088-6.3 21.814-9 8.725-2.7 13.088-4.5 21.813-4.5 8.726 0 13.089 13.5 21.814 13.5h87.255c8.725 0 13.088-4.5 21.814-4.5h43.627c8.726 0 13.088 4.5 21.814 4.5 8.725 0 13.088-4.5 21.814-4.5 8.725 0 13.088 4.5 21.813 4.5h43.628" class="highcharts-graph highcharts-shadow" data-z-index="1" stroke="#000" stroke-opacity=".15"/><path d="M5.235 265.5h43.628c8.725 0 13.088-1.8 21.813-4.5 8.726-2.7 13.089-9 21.814-9h21.814c8.725 0 13.088 4.5 21.814 4.5 8.725 0 13.088-4.5 21.813-4.5 8.726 0 13.089 9.9 21.814 13.5 8.726 3.6 13.088 4.5 21.814 4.5 8.725 0 13.088-6.3 21.814-9 8.725-2.7 13.088-4.5 21.813-4.5 8.726 0 13.089 13.5 21.814 13.5h87.255c8.725 0 13.088-4.5 21.814-4.5h43.627c8.726 0 13.088 4.5 21.814 4.5 8.725 0 13.088-4.5 21.814-4.5 8.725 0 13.088 4.5 21.813 4.5h43.628" class="highcharts-graph" data-z-index="1" stroke="#8085e9" stroke-width="4"/><path d="M5.235 265.5h43.628c8.725 0 13.088-1.8 21.813-4.5 8.726-2.7 13.089-9 21.814-9h21.814c8.725 0 13.088 4.5 21.814 4.5 8.725 0 13.088-4.5 21.813-4.5 8.726 0 13.089 9.9 21.814 13.5 8.726 3.6 13.088 4.5 21.814 4.5 8.725 0 13.088-6.3 21.814-9 8.725-2.7 13.088-4.5 21.813-4.5 8.726 0 13.089 13.5 21.814 13.5h87.255c8.725 0 13.088-4.5 21.814-4.5h43.627c8.726 0 13.088 4.5 21.814 4.5 8.725 0 13.088-4.5 21.814-4.5 8.725 0 13.088 4.5 21.813 4.5h43.628" data-z-index="2" class="highcharts-tracker-line" stroke="rgba(192,192,192,0.0001)" stroke-width="24"/></g></g><g data-z-index="3" aria-hidden="true"><text data-z-index="1" y="12" style="color:#f45b5b;font-weight:700;fill:#f45b5b" transform="translate(249 86)" class="highcharts-label highcharts-series-label highcharts-series-label-0 highcharts-color-0">Hestavollane</text></g><g data-z-index="3" aria-hidden="true"><text data-z-index="1" y="12" style="color:#8085e9;font-weight:700;fill:#8085e9" transform="translate(564 310)" class="highcharts-label highcharts-series-label highcharts-series-label-1 highcharts-color-1">Vik</text></g><text x="10" class="highcharts-title" data-z-index="4" style="color:#000;font-size:16px;font-weight:700;fill:#000" y="22" aria-hidden="true">Wind speed during two days</text><text x="10" class="highcharts-subtitle" data-z-index="4" style="color:#000;fill:#000" y="42" aria-hidden="true">13th &amp; 14th of June, 2022 at two locations in Vik i Sogn, Norway</text><g class="highcharts-legend highcharts-no-tooltip" data-z-index="7" transform="translate(215 358)" aria-hidden="true"><rect fill="#E0E0E8" class="highcharts-legend-box" rx="0" ry="0" width="169" height="27"/><g data-z-index="1"><g class="highcharts-legend-item highcharts-spline-series highcharts-color-0 highcharts-series-0" data-z-index="1"><path fill="none" d="M8 15h16" class="highcharts-graph" stroke-width="4" stroke="#f45b5b"/><text x="21" data-z-index="2" y="16" style="color:#333;cursor:pointer;font-size:13px;font-weight:700;fill:#333" transform="translate(8 3)">Hestavollane</text></g><g class="highcharts-legend-item highcharts-spline-series highcharts-color-1 highcharts-series-1" data-z-index="1"><path fill="none" d="M120.5 15h16" class="highcharts-graph" stroke-width="4" stroke="#8085e9"/><text x="21" y="16" data-z-index="2" style="color:#333;cursor:pointer;font-size:13px;font-weight:700;fill:#333" transform="translate(120.5 3)">Vik</text></g></g></g><g class="highcharts-axis-labels highcharts-xaxis-labels" data-z-index="7" aria-hidden="true" text-anchor="middle"><text x="61.235" style="color:#6e6e70;cursor:default;font-size:11px;fill:#6e6e70" y="345">13. Jun</text><text x="148.49" style="color:#6e6e70;cursor:default;font-size:11px;fill:#6e6e70" y="345">04:00</text><text x="235.745" style="color:#6e6e70;cursor:default;font-size:11px;fill:#6e6e70" y="345">08:00</text><text x="323" style="color:#6e6e70;cursor:default;font-size:11px;fill:#6e6e70" y="345">12:00</text><text x="410.255" style="color:#6e6e70;cursor:default;font-size:11px;fill:#6e6e70" y="345">16:00</text><text x="497.51" style="color:#6e6e70;cursor:default;font-size:11px;fill:#6e6e70" y="345">20:00</text><text x="574.109" style="color:#6e6e70;cursor:default;font-size:11px;fill:#6e6e70" y="345">14. Jun</text></g><g class="highcharts-axis-labels highcharts-yaxis-labels" data-z-index="7" aria-hidden="true" text-anchor="end"><text x="41" style="color:#6e6e70;cursor:default;font-size:11px;fill:#6e6e70" y="331">0</text><text x="41" style="color:#6e6e70;cursor:default;font-size:11px;fill:#6e6e70" y="286">1</text><text x="41" style="color:#6e6e70;cursor:default;font-size:11px;fill:#6e6e70" y="241">2</text><text x="41" style="color:#6e6e70;cursor:default;font-size:11px;fill:#6e6e70" y="196">3</text><text x="41" style="color:#6e6e70;cursor:default;font-size:11px;fill:#6e6e70" y="151">4</text><text x="41" style="color:#6e6e70;cursor:default;font-size:11px;fill:#6e6e70" y="106">5</text><text x="41" style="color:#6e6e70;cursor:default;font-size:11px;fill:#6e6e70" y="61">6</text></g></svg>