<svg class="highcharts-root" style="font-family:Signika,serif;font-size:12px" xmlns="http://www.w3.org/2000/svg" width="600" height="400" aria-label="Interactive chart" aria-hidden="false"><defs aria-hidden="true"><clipPath id="a"><path fill="none" d="M1 0h289v514H1z"/></clipPath></defs><rect fill="none" class="highcharts-background" width="600" height="400" rx="0" ry="0" aria-hidden="true"/><path fill="none" class="highcharts-plot-background" aria-hidden="true" d="M76 56h514v290H76z"/><g class="highcharts-grid highcharts-xaxis-grid" data-z-index="1" aria-hidden="true" fill="none"><path data-z-index="1" class="highcharts-grid-line" d="M76 343.5h514m-514-85h514m-514-86h514m-514-85h514"/></g><g class="highcharts-grid highcharts-yaxis-grid" data-z-index="1" aria-hidden="true" fill="none" stroke="#e6e6e6"><path data-z-index="1" class="highcharts-grid-line" d="M75.5 56v290m47-290v290m46-290v290m47-290v290m47-290v290m47-290v290m46-290v290m47-290v290m47-290v290m47-290v290m46-290v290m48-290v290"/></g><path fill="none" class="highcharts-plot-border" data-z-index="1" aria-hidden="true" d="M76 56h514v290H76z"/><g class="highcharts-axis highcharts-xaxis" data-z-index="2" aria-hidden="true"><path fill="none" class="highcharts-tick" stroke="#ccd6eb" d="M76 343.5H66m10-85H66m10-86H66m10-85H66"/><text x="23.188" data-z-index="7" text-anchor="middle" transform="rotate(-90 23.188 201)" class="highcharts-axis-title" style="color:#666;fill:#666" y="201">Altitude</text><path fill="none" class="highcharts-axis-line" stroke="#ccd6eb" data-z-index="7" d="M75.5 56v290"/></g><g class="highcharts-axis highcharts-yaxis" data-z-index="2" aria-hidden="true"><text x="333" data-z-index="7" text-anchor="middle" class="highcharts-axis-title" style="color:#666;fill:#666" y="383.5">Temperature</text><path fill="none" class="highcharts-axis-line" stroke="#ccd6eb" stroke-width="2" data-z-index="7" d="M76 346h514"/></g><g class="highcharts-series-group" data-z-index="3" aria-hidden="false"><g class="highcharts-series highcharts-series-0 highcharts-spline-series highcharts-color-0" data-z-index=".1" clip-path="url(#a)" aria-hidden="true" fill="none" stroke-linejoin="round" stroke-linecap="round" transform="matrix(0 -1 -1 0 590 346)"><path d="M1.736 22.364S22.255 295.718 35.934 326.09c13.68 30.373 20.519 30.373 34.198 30.373 13.68 0 20.519-14.58 34.198-46.728 13.68-32.148 20.52-72.894 34.198-114.014 13.68-41.12 20.52-91.586 34.198-91.586 13.68 0 20.52 68.035 34.199 117.753 13.679 49.718 20.518 85.23 34.198 130.836 13.679 45.606 34.198 97.193 34.198 97.193" class="highcharts-graph highcharts-shadow" data-z-index="1" stroke="#000" stroke-width="5" stroke-opacity=".05"/><path d="M1.736 22.364S22.255 295.718 35.934 326.09c13.68 30.373 20.519 30.373 34.198 30.373 13.68 0 20.519-14.58 34.198-46.728 13.68-32.148 20.52-72.894 34.198-114.014 13.68-41.12 20.52-91.586 34.198-91.586 13.68 0 20.52 68.035 34.199 117.753 13.679 49.718 20.518 85.23 34.198 130.836 13.679 45.606 34.198 97.193 34.198 97.193" class="highcharts-graph highcharts-shadow" data-z-index="1" stroke="#000" stroke-width="3" stroke-opacity=".1"/><path d="M1.736 22.364S22.255 295.718 35.934 326.09c13.68 30.373 20.519 30.373 34.198 30.373 13.68 0 20.519-14.58 34.198-46.728 13.68-32.148 20.52-72.894 34.198-114.014 13.68-41.12 20.52-91.586 34.198-91.586 13.68 0 20.52 68.035 34.199 117.753 13.679 49.718 20.518 85.23 34.198 130.836 13.679 45.606 34.198 97.193 34.198 97.193" class="highcharts-graph highcharts-shadow" data-z-index="1" stroke="#000" stroke-opacity=".15"/><path d="M2.736 23.364S23.255 296.718 36.934 327.09c13.68 30.373 20.519 30.373 34.198 30.373 13.68 0 20.519-14.58 34.198-46.728 13.68-32.148 20.52-72.894 34.198-114.014 13.68-41.12 20.52-91.586 34.198-91.586 13.68 0 20.52 68.035 34.199 117.753 13.679 49.718 20.518 85.23 34.198 130.836 13.679 45.606 34.198 97.193 34.198 97.193" class="highcharts-graph" data-z-index="1" stroke="#f45b5b" stroke-width="2"/><path d="M2.736 23.364S23.255 296.718 36.934 327.09c13.68 30.373 20.519 30.373 34.198 30.373 13.68 0 20.519-14.58 34.198-46.728 13.68-32.148 20.52-72.894 34.198-114.014 13.68-41.12 20.52-91.586 34.198-91.586 13.68 0 20.52 68.035 34.199 117.753 13.679 49.718 20.518 85.23 34.198 130.836 13.679 45.606 34.198 97.193 34.198 97.193" data-z-index="2" class="highcharts-tracker-line" stroke="rgba(192,192,192,0.0001)" stroke-width="22"/></g><g class="highcharts-markers highcharts-series-0 highcharts-spline-series highcharts-color-0 highcharts-tracker" data-z-index=".1" aria-hidden="false" fill="#f45b5b"><path d="M2 27.364a4 4 0 1 1 .004 0Z" class="highcharts-point highcharts-color-0" tabindex="-1" aria-label="x, 0, 15. Temperature." style="outline:0" transform="matrix(0 -1 -1 0 590 346)"/><path d="M36 331.09a4 4 0 1 1 .004 0Z" class="highcharts-point highcharts-negative highcharts-color-0" tabindex="-1" aria-label="x, 10, -50. Temperature." style="outline:0" transform="matrix(0 -1 -1 0 590 346)"/><path d="M71 361.464a4 4 0 1 1 .004 0Z" class="highcharts-point highcharts-negative highcharts-color-0" tabindex="-1" aria-label="x, 20, -56.5. Temperature." style="outline:0" transform="matrix(0 -1 -1 0 590 346)"/><path d="M105 314.736a4 4 0 1 1 .004 0Z" class="highcharts-point highcharts-negative highcharts-color-0" tabindex="-1" aria-label="x, 30, -46.5. Temperature." style="outline:0" transform="matrix(0 -1 -1 0 590 346)"/><path d="M139 200.722a4 4 0 1 1 .004 0Z" class="highcharts-point highcharts-negative highcharts-color-0" tabindex="-1" aria-label="x, 40, -22.1. Temperature." style="outline:0" transform="matrix(0 -1 -1 0 590 346)"/><path d="M173 109.136a4 4 0 1 1 .004 0Z" class="highcharts-point highcharts-negative highcharts-color-0" tabindex="-1" aria-label="x, 50, -2.5. Temperature." style="outline:0" transform="matrix(0 -1 -1 0 590 346)"/><path d="M207 226.89a4 4 0 1 1 .004 0Z" class="highcharts-point highcharts-negative highcharts-color-0" tabindex="-1" aria-label="x, 60, -27.7. Temperature." style="outline:0" transform="matrix(0 -1 -1 0 590 346)"/><path d="M242 357.725a4 4 0 1 1 .004 0Z" class="highcharts-point highcharts-negative highcharts-color-0" tabindex="-1" aria-label="x, 70, -55.7. Temperature." style="outline:0" transform="matrix(0 -1 -1 0 590 346)"/><path d="M276 454.918a4 4 0 1 1 .004 0Z" class="highcharts-point highcharts-negative highcharts-color-0" tabindex="-1" aria-label="x, 80, -76.5. Temperature." style="outline:0" transform="matrix(0 -1 -1 0 590 346)"/></g></g><text x="300" text-anchor="middle" class="highcharts-title" data-z-index="4" style="color:#000;font-size:16px;font-weight:700;fill:#000" y="22" aria-hidden="true">Atmosphere Temperature by Altitude</text><text x="300" text-anchor="middle" class="highcharts-subtitle" data-z-index="4" style="color:#000;fill:#000" y="42" aria-hidden="true">According to the Standard Atmosphere Model</text><g class="highcharts-axis-labels highcharts-xaxis-labels" data-z-index="7" aria-hidden="true" text-anchor="end"><text x="61" style="color:#6e6e70;cursor:default;font-size:11px;fill:#6e6e70" y="348">0 km</text><text x="61" style="color:#6e6e70;cursor:default;font-size:11px;fill:#6e6e70" y="263">25 km</text><text x="61" style="color:#6e6e70;cursor:default;font-size:11px;fill:#6e6e70" y="177">50 km</text><text x="61" style="color:#6e6e70;cursor:default;font-size:11px;fill:#6e6e70" y="92">75 km</text></g><g class="highcharts-axis-labels highcharts-yaxis-labels" data-z-index="7" aria-hidden="true" text-anchor="middle"><text x="76" style="color:#6e6e70;cursor:default;font-size:11px;fill:#6e6e70" y="365">-90°</text><text x="122.727" style="color:#6e6e70;cursor:default;font-size:11px;fill:#6e6e70" y="365">-80°</text><text x="169.455" style="color:#6e6e70;cursor:default;font-size:11px;fill:#6e6e70" y="365">-70°</text><text x="216.182" style="color:#6e6e70;cursor:default;font-size:11px;fill:#6e6e70" y="365">-60°</text><text x="262.909" style="color:#6e6e70;cursor:default;font-size:11px;fill:#6e6e70" y="365">-50°</text><text x="309.636" style="color:#6e6e70;cursor:default;font-size:11px;fill:#6e6e70" y="365">-40°</text><text x="356.364" style="color:#6e6e70;cursor:default;font-size:11px;fill:#6e6e70" y="365">-30°</text><text x="403.091" style="color:#6e6e70;cursor:default;font-size:11px;fill:#6e6e70" y="365">-20°</text><text x="449.818" style="color:#6e6e70;cursor:default;font-size:11px;fill:#6e6e70" y="365">-10°</text><text x="496.545" style="color:#6e6e70;cursor:default;font-size:11px;fill:#6e6e70" y="365">0°</text><text x="543.273" style="color:#6e6e70;cursor:default;font-size:11px;fill:#6e6e70" y="365">10°</text><text x="582.297" style="color:#6e6e70;cursor:default;font-size:11px;fill:#6e6e70" y="365">20°</text></g></svg>