<svg class="highcharts-root" style="font-family:Signika,serif;font-size:12px" xmlns="http://www.w3.org/2000/svg" width="600" height="500" aria-label="Interactive chart" aria-hidden="false"><defs aria-hidden="true"><clipPath id="a"><path fill="none" d="M0 0h531v360H0z"/></clipPath></defs><rect fill="none" class="highcharts-background" width="600" height="500" rx="0" ry="0" aria-hidden="true"/><path fill="none" class="highcharts-plot-background" aria-hidden="true" d="M59 56h531v360H59z"/><g class="highcharts-grid highcharts-xaxis-grid" data-z-index="1" aria-hidden="true" fill="none"><path data-z-index="1" class="highcharts-grid-line" d="M88.5 56v360m29-360v360m30-360v360m29-360v360m30-360v360m29-360v360m30-360v360m29-360v360m30-360v360m29-360v360m30-360v360m29-360v360m30-360v360m29-360v360m30-360v360m29-360v360m30-360v360m29-360v360M58.5 56v360"/></g><g class="highcharts-grid highcharts-yaxis-grid" data-z-index="1" aria-hidden="true" fill="none" stroke="#e6e6e6"><path data-z-index="1" class="highcharts-grid-line" d="M59 416.5h531m-531-60h531m-531-60h531m-531-60h531m-531-60h531m-531-60h531m-531-61h531"/></g><path fill="none" class="highcharts-plot-border" data-z-index="1" aria-hidden="true" d="M59 56h531v360H59z"/><g class="highcharts-axis highcharts-xaxis" data-z-index="2" aria-hidden="true"><path fill="none" class="highcharts-axis-line" stroke="#ccd6eb" data-z-index="7" d="M59 416.5h531"/></g><g class="highcharts-axis highcharts-yaxis" data-z-index="2" aria-hidden="true"><text x="23" data-z-index="7" text-anchor="middle" transform="rotate(-90 23 236)" class="highcharts-axis-title" style="color:#666;fill:#666" y="236">Values</text><path fill="none" class="highcharts-axis-line" data-z-index="7" d="M59 56v360"/></g><g class="highcharts-series-group" data-z-index="3" aria-hidden="false"><g class="highcharts-series highcharts-series-0 highcharts-variwide-series highcharts-tracker" data-z-index=".1" clip-path="url(#a)" aria-hidden="false" transform="translate(59 56)"><path fill="none" stroke="#000" stroke-width="5" stroke-opacity=".05" class="highcharts-shadow" d="M.5 60.5h12v301H.5z"/><path fill="none" stroke="#000" stroke-width="3" stroke-opacity=".1" class="highcharts-shadow" d="M.5 60.5h12v301H.5z"/><path fill="none" stroke="#000" stroke-opacity=".15" class="highcharts-shadow" d="M.5 60.5h12v301H.5z"/><path fill="#f45b5b" stroke="#fff" class="highcharts-point highcharts-color-0" tabindex="-1" aria-label="Norway, y: 50.2, z: 335,504. Labor Costs." style="outline:0" d="M-.5 59.5h12v301h-12z"/><path fill="none" stroke="#000" stroke-width="5" stroke-opacity=".05" class="highcharts-shadow" d="M12.5 109.5h10v252h-10z"/><path fill="none" stroke="#000" stroke-width="3" stroke-opacity=".1" class="highcharts-shadow" d="M12.5 109.5h10v252h-10z"/><path fill="none" stroke="#000" stroke-opacity=".15" class="highcharts-shadow" d="M12.5 109.5h10v252h-10z"/><path fill="#8085e9" stroke="#fff" class="highcharts-point highcharts-color-1" tabindex="-1" aria-label="Denmark, y: 42, z: 277,339. Labor Costs." style="outline:0" d="M11.5 108.5h10v252h-10z"/><path fill="none" stroke="#000" stroke-width="5" stroke-opacity=".05" class="highcharts-shadow" d="M22.5 126.5h15v235h-15z"/><path fill="none" stroke="#000" stroke-width="3" stroke-opacity=".1" class="highcharts-shadow" d="M22.5 126.5h15v235h-15z"/><path fill="none" stroke="#000" stroke-opacity=".15" class="highcharts-shadow" d="M22.5 126.5h15v235h-15z"/><path fill="#8d4654" stroke="#fff" class="highcharts-point highcharts-color-2" tabindex="-1" aria-label="Belgium, y: 39.2, z: 421,611. Labor Costs." style="outline:0" d="M21.5 125.5h15v235h-15z"/><path fill="none" stroke="#000" stroke-width="5" stroke-opacity=".05" class="highcharts-shadow" d="M37.5 133.5h17v228h-17z"/><path fill="none" stroke="#000" stroke-width="3" stroke-opacity=".1" class="highcharts-shadow" d="M37.5 133.5h17v228h-17z"/><path fill="none" stroke="#000" stroke-opacity=".15" class="highcharts-shadow" d="M37.5 133.5h17v228h-17z"/><path fill="#7798BF" stroke="#fff" class="highcharts-point highcharts-color-3" tabindex="-1" aria-label="Sweden, y: 38, z: 462,057. Labor Costs." style="outline:0" d="M36.5 132.5h17v228h-17z"/><path fill="none" stroke="#000" stroke-width="5" stroke-opacity=".05" class="highcharts-shadow" d="M54.5 147.5h81v214h-81z"/><path fill="none" stroke="#000" stroke-width="3" stroke-opacity=".1" class="highcharts-shadow" d="M54.5 147.5h81v214h-81z"/><path fill="none" stroke="#000" stroke-opacity=".15" class="highcharts-shadow" d="M54.5 147.5h81v214h-81z"/><path fill="#aee" stroke="#fff" class="highcharts-point highcharts-color-4" tabindex="-1" aria-label="France, y: 35.6, z: 2,228,857. Labor Costs." style="outline:0" d="M53.5 146.5h81v214h-81z"/><path fill="none" stroke="#000" stroke-width="5" stroke-opacity=".05" class="highcharts-shadow" d="M135.5 155.5h25v206h-25z"/><path fill="none" stroke="#000" stroke-width="3" stroke-opacity=".1" class="highcharts-shadow" d="M135.5 155.5h25v206h-25z"/><path fill="none" stroke="#000" stroke-opacity=".15" class="highcharts-shadow" d="M135.5 155.5h25v206h-25z"/><path fill="#f06" stroke="#fff" class="highcharts-point highcharts-color-5" tabindex="-1" aria-label="Netherlands, y: 34.3, z: 702,641. Labor Costs." style="outline:0" d="M134.5 154.5h25v206h-25z"/><path fill="none" stroke="#000" stroke-width="5" stroke-opacity=".05" class="highcharts-shadow" d="M160.5 162.5h8v199h-8z"/><path fill="none" stroke="#000" stroke-width="3" stroke-opacity=".1" class="highcharts-shadow" d="M160.5 162.5h8v199h-8z"/><path fill="none" stroke="#000" stroke-opacity=".15" class="highcharts-shadow" d="M160.5 162.5h8v199h-8z"/><path fill="#eae" stroke="#fff" class="highcharts-point highcharts-color-6" tabindex="-1" aria-label="Finland, y: 33.2, z: 215,615. Labor Costs." style="outline:0" d="M159.5 161.5h8v199h-8z"/><path fill="none" stroke="#000" stroke-width="5" stroke-opacity=".05" class="highcharts-shadow" d="M168.5 163.5h113v198h-113z"/><path fill="none" stroke="#000" stroke-width="3" stroke-opacity=".1" class="highcharts-shadow" d="M168.5 163.5h113v198h-113z"/><path fill="none" stroke="#000" stroke-opacity=".15" class="highcharts-shadow" d="M168.5 163.5h113v198h-113z"/><path fill="#55BF3B" stroke="#fff" class="highcharts-point highcharts-color-7" tabindex="-1" aria-label="Germany, y: 33, z: 3,144,050. Labor Costs." style="outline:0" d="M167.5 162.5h113v198h-113z"/><path fill="none" stroke="#000" stroke-width="5" stroke-opacity=".05" class="highcharts-shadow" d="M281.5 165.5h13v196h-13z"/><path fill="none" stroke="#000" stroke-width="3" stroke-opacity=".1" class="highcharts-shadow" d="M281.5 165.5h13v196h-13z"/><path fill="none" stroke="#000" stroke-opacity=".15" class="highcharts-shadow" d="M281.5 165.5h13v196h-13z"/><path fill="#DF5353" stroke="#fff" class="highcharts-point highcharts-color-8" tabindex="-1" aria-label="Austria, y: 32.7, z: 349,344. Labor Costs." style="outline:0" d="M280.5 164.5h13v196h-13z"/><path fill="none" stroke="#000" stroke-width="5" stroke-opacity=".05" class="highcharts-shadow" d="M294.5 179.5h10v182h-10z"/><path fill="none" stroke="#000" stroke-width="3" stroke-opacity=".1" class="highcharts-shadow" d="M294.5 179.5h10v182h-10z"/><path fill="none" stroke="#000" stroke-opacity=".15" class="highcharts-shadow" d="M294.5 179.5h10v182h-10z"/><path fill="#7798BF" stroke="#fff" class="highcharts-point highcharts-color-9" tabindex="-1" aria-label="Ireland, y: 30.4, z: 275,567. Labor Costs." style="outline:0" d="M293.5 178.5h10v182h-10z"/><path fill="none" stroke="#000" stroke-width="5" stroke-opacity=".05" class="highcharts-shadow" d="M304.5 194.5h60v167h-60z"/><path fill="none" stroke="#000" stroke-width="3" stroke-opacity=".1" class="highcharts-shadow" d="M304.5 194.5h60v167h-60z"/><path fill="none" stroke="#000" stroke-opacity=".15" class="highcharts-shadow" d="M304.5 194.5h60v167h-60z"/><path fill="#aee" stroke="#fff" class="highcharts-point highcharts-color-10" tabindex="-1" aria-label="Italy, y: 27.8, z: 1,672,438. Labor Costs." style="outline:0" d="M303.5 193.5h60v167h-60z"/><path fill="none" stroke="#000" stroke-width="5" stroke-opacity=".05" class="highcharts-shadow" d="M364.5 201.5h86v160h-86z"/><path fill="none" stroke="#000" stroke-width="3" stroke-opacity=".1" class="highcharts-shadow" d="M364.5 201.5h86v160h-86z"/><path fill="none" stroke="#000" stroke-opacity=".15" class="highcharts-shadow" d="M364.5 201.5h86v160h-86z"/><path fill="#f45b5b" stroke="#fff" class="highcharts-point highcharts-color-0" tabindex="-1" aria-label="United Kingdom, y: 26.7, z: 2,366,911. Labor Costs." style="outline:0" d="M363.5 200.5h86v160h-86z"/><path fill="none" stroke="#000" stroke-width="5" stroke-opacity=".05" class="highcharts-shadow" d="M450.5 233.5h40v128h-40z"/><path fill="none" stroke="#000" stroke-width="3" stroke-opacity=".1" class="highcharts-shadow" d="M450.5 233.5h40v128h-40z"/><path fill="none" stroke="#000" stroke-opacity=".15" class="highcharts-shadow" d="M450.5 233.5h40v128h-40z"/><path fill="#8085e9" stroke="#fff" class="highcharts-point highcharts-color-1" tabindex="-1" aria-label="Spain, y: 21.3, z: 1,113,851. Labor Costs." style="outline:0" d="M449.5 232.5h40v128h-40z"/><path fill="none" stroke="#000" stroke-width="5" stroke-opacity=".05" class="highcharts-shadow" d="M490.5 276.5h6v85h-6z"/><path fill="none" stroke="#000" stroke-width="3" stroke-opacity=".1" class="highcharts-shadow" d="M490.5 276.5h6v85h-6z"/><path fill="none" stroke="#000" stroke-opacity=".15" class="highcharts-shadow" d="M490.5 276.5h6v85h-6z"/><path fill="#8d4654" stroke="#fff" class="highcharts-point highcharts-color-2" tabindex="-1" aria-label="Greece, y: 14.2, z: 175,887. Labor Costs." style="outline:0" d="M489.5 275.5h6v85h-6z"/><path fill="none" stroke="#000" stroke-width="5" stroke-opacity=".05" class="highcharts-shadow" d="M496.5 279.5h7v82h-7z"/><path fill="none" stroke="#000" stroke-width="3" stroke-opacity=".1" class="highcharts-shadow" d="M496.5 279.5h7v82h-7z"/><path fill="none" stroke="#000" stroke-opacity=".15" class="highcharts-shadow" d="M496.5 279.5h7v82h-7z"/><path fill="#7798BF" stroke="#fff" class="highcharts-point highcharts-color-3" tabindex="-1" aria-label="Portugal, y: 13.7, z: 184,933. Labor Costs." style="outline:0" d="M495.5 278.5h7v82h-7z"/><path fill="none" stroke="#000" stroke-width="5" stroke-opacity=".05" class="highcharts-shadow" d="M503.5 300.5h7v61h-7z"/><path fill="none" stroke="#000" stroke-width="3" stroke-opacity=".1" class="highcharts-shadow" d="M503.5 300.5h7v61h-7z"/><path fill="none" stroke="#000" stroke-opacity=".15" class="highcharts-shadow" d="M503.5 300.5h7v61h-7z"/><path fill="#aee" stroke="#fff" class="highcharts-point highcharts-color-4" tabindex="-1" aria-label="Czech Republic, y: 10.2, z: 176,564. Labor Costs." style="outline:0" d="M502.5 299.5h7v61h-7z"/><path fill="none" stroke="#000" stroke-width="5" stroke-opacity=".05" class="highcharts-shadow" d="M510.5 309.5h15v52h-15z"/><path fill="none" stroke="#000" stroke-width="3" stroke-opacity=".1" class="highcharts-shadow" d="M510.5 309.5h15v52h-15z"/><path fill="none" stroke="#000" stroke-opacity=".15" class="highcharts-shadow" d="M510.5 309.5h15v52h-15z"/><path fill="#f06" stroke="#fff" class="highcharts-point highcharts-color-5" tabindex="-1" aria-label="Poland, y: 8.6, z: 424,269. Labor Costs." style="outline:0" d="M509.5 308.5h15v52h-15z"/><path fill="none" stroke="#000" stroke-width="5" stroke-opacity=".05" class="highcharts-shadow" d="M525.5 328.5h6v33h-6z"/><path fill="none" stroke="#000" stroke-width="3" stroke-opacity=".1" class="highcharts-shadow" d="M525.5 328.5h6v33h-6z"/><path fill="none" stroke="#000" stroke-opacity=".15" class="highcharts-shadow" d="M525.5 328.5h6v33h-6z"/><path fill="#eae" stroke="#fff" class="highcharts-point highcharts-color-6" tabindex="-1" aria-label="Romania, y: 5.5, z: 169,578. Labor Costs." style="outline:0" d="M524.5 327.5h6v33h-6z"/></g></g><text x="300" text-anchor="middle" class="highcharts-title" data-z-index="4" style="color:#000;font-size:16px;font-weight:700;fill:#000" y="22" aria-hidden="true">Labor Costs in Europe, 2016</text><text x="300" text-anchor="middle" class="highcharts-subtitle" data-z-index="4" style="color:#000;fill:#000" y="42" aria-hidden="true">Source: <a><tspan>eurostat</tspan></a></text><text x="10" class="highcharts-caption" data-z-index="4" style="color:#666;fill:#666" y="497" aria-hidden="true">Column widths are proportional to GDP</text><g class="highcharts-data-labels highcharts-series-0 highcharts-variwide-series highcharts-tracker" data-z-index="6" aria-hidden="true"><text x="5" data-z-index="1" y="16" style="color:#fff;font-size:11px;font-weight:700;fill:#fff" transform="translate(54 93)" class="highcharts-label highcharts-data-label highcharts-data-label-color-0"><tspan class="highcharts-text-outline" fill="#000" stroke="#000" stroke-width="2" stroke-linejoin="round">€50<tspan x="5" dy="0">​</tspan></tspan>€50</text><text x="5" data-z-index="1" y="16" style="color:#fff;font-size:11px;font-weight:700;fill:#fff" transform="translate(62 142)" class="highcharts-label highcharts-data-label highcharts-data-label-color-1"><tspan class="highcharts-text-outline" fill="#000" stroke="#000" stroke-width="2" stroke-linejoin="round">€42<tspan x="5" dy="0">​</tspan></tspan>€42</text><text x="5" data-z-index="1" y="16" style="color:#fff;font-size:11px;font-weight:700;fill:#fff" transform="translate(75 159)" class="highcharts-label highcharts-data-label highcharts-data-label-color-2"><tspan class="highcharts-text-outline" fill="#000" stroke="#000" stroke-width="2" stroke-linejoin="round">€39<tspan x="5" dy="0">​</tspan></tspan>€39</text><text x="5" data-z-index="1" y="16" style="color:#fff;font-size:11px;font-weight:700;fill:#fff" transform="translate(140 180)" class="highcharts-label highcharts-data-label highcharts-data-label-color-4"><tspan class="highcharts-text-outline" fill="#000" stroke="#000" stroke-width="2" stroke-linejoin="round">€36<tspan x="5" dy="0">​</tspan></tspan>€36</text><text x="5" data-z-index="1" y="16" style="color:#fff;font-size:11px;font-weight:700;fill:#fff" transform="translate(193 188)" class="highcharts-label highcharts-data-label highcharts-data-label-color-5"><tspan class="highcharts-text-outline" fill="#000" stroke="#000" stroke-width="2" stroke-linejoin="round">€34<tspan x="5" dy="0">​</tspan></tspan>€34</text><text x="5" data-z-index="1" y="16" style="color:#fff;font-size:11px;font-weight:700;fill:#fff" transform="translate(270 196)" class="highcharts-label highcharts-data-label highcharts-data-label-color-7"><tspan class="highcharts-text-outline" fill="#000" stroke="#000" stroke-width="2" stroke-linejoin="round">€33<tspan x="5" dy="0">​</tspan></tspan>€33</text><text x="5" data-z-index="1" y="16" style="color:#fff;font-size:11px;font-weight:700;fill:#fff" transform="translate(333 198)" class="highcharts-label highcharts-data-label highcharts-data-label-color-8"><tspan class="highcharts-text-outline" fill="#000" stroke="#000" stroke-width="2" stroke-linejoin="round">€33<tspan x="5" dy="0">​</tspan></tspan>€33</text><text x="5" data-z-index="1" y="16" style="color:#fff;font-size:11px;font-weight:700;fill:#fff" transform="translate(344 212)" class="highcharts-label highcharts-data-label highcharts-data-label-color-9"><tspan class="highcharts-text-outline" fill="#000" stroke="#000" stroke-width="2" stroke-linejoin="round">€30<tspan x="5" dy="0">​</tspan></tspan>€30</text><text x="5" data-z-index="1" y="16" style="color:#fff;font-size:11px;font-weight:700;fill:#fff" transform="translate(379 227)" class="highcharts-label highcharts-data-label highcharts-data-label-color-10"><tspan class="highcharts-text-outline" fill="#000" stroke="#000" stroke-width="2" stroke-linejoin="round">€28<tspan x="5" dy="0">​</tspan></tspan>€28</text><text x="5" data-z-index="1" y="16" style="color:#fff;font-size:11px;font-weight:700;fill:#fff" transform="translate(452 234)" class="highcharts-label highcharts-data-label highcharts-data-label-color-0"><tspan class="highcharts-text-outline" fill="#000" stroke="#000" stroke-width="2" stroke-linejoin="round">€27<tspan x="5" dy="0">​</tspan></tspan>€27</text><text x="5" data-z-index="1" y="16" style="color:#fff;font-size:11px;font-weight:700;fill:#fff" transform="translate(515 266)" class="highcharts-label highcharts-data-label highcharts-data-label-color-1"><tspan class="highcharts-text-outline" fill="#000" stroke="#000" stroke-width="2" stroke-linejoin="round">€21<tspan x="5" dy="0">​</tspan></tspan>€21</text><text x="5" data-z-index="1" y="16" style="color:#fff;font-size:11px;font-weight:700;fill:#fff" transform="translate(538 309)" class="highcharts-label highcharts-data-label highcharts-data-label-color-2"><tspan class="highcharts-text-outline" fill="#000" stroke="#000" stroke-width="2" stroke-linejoin="round">€14<tspan x="5" dy="0">​</tspan></tspan>€14</text><text x="5" data-z-index="1" y="16" style="color:#fff;font-size:11px;font-weight:700;fill:#fff" transform="translate(552 333)" class="highcharts-label highcharts-data-label highcharts-data-label-color-4"><tspan class="highcharts-text-outline" fill="#000" stroke="#000" stroke-width="2" stroke-linejoin="round">€10<tspan x="5" dy="0">​</tspan></tspan>€10</text><text x="5" data-z-index="1" y="16" style="color:#fff;font-size:11px;font-weight:700;fill:#fff" transform="translate(574 361)" class="highcharts-label highcharts-data-label highcharts-data-label-color-6"><tspan class="highcharts-text-outline" fill="#000" stroke="#000" stroke-width="2" stroke-linejoin="round">€6<tspan x="5" dy="0">​</tspan></tspan>€6</text></g><g class="highcharts-axis-labels highcharts-xaxis-labels" data-z-index="7" aria-hidden="true" text-anchor="end"><text x="66.126" transform="rotate(-45 66.126 432)" style="color:#6e6e70;cursor:default;font-size:11px;fill:#6e6e70" y="432">Norway</text><text x="77.012" transform="rotate(-45 77.012 432)" style="color:#6e6e70;cursor:default;font-size:11px;fill:#6e6e70" y="432">Denmark</text><text x="90.097" transform="rotate(-45 90.097 432)" style="color:#6e6e70;cursor:default;font-size:11px;fill:#6e6e70" y="432">Belgium</text><text x="106.189" transform="rotate(-45 106.189 432)" style="color:#6e6e70;cursor:default;font-size:11px;fill:#6e6e70" y="432">Sweden</text><text x="160.41" transform="rotate(-45 160.41 432)" style="color:#6e6e70;cursor:default;font-size:11px;fill:#6e6e70" y="432">France</text><text x="208.521" transform="rotate(-45 208.521 432)" style="color:#6e6e70;cursor:default;font-size:11px;fill:#6e6e70" y="432">Netherlands</text><text x="223.563" transform="rotate(-45 223.563 432)" style="color:#6e6e70;cursor:default;font-size:11px;fill:#6e6e70" y="432">Finland</text><text x="293.554" transform="rotate(-45 293.554 432)" style="color:#6e6e70;cursor:default;font-size:11px;fill:#6e6e70" y="432">Germany</text><text x="347.787" transform="rotate(-45 347.787 432)" style="color:#6e6e70;cursor:default;font-size:11px;fill:#6e6e70" y="432">Austria</text><text x="358.842" transform="rotate(-45 358.842 432)" style="color:#6e6e70;cursor:default;font-size:11px;fill:#6e6e70" y="432">Ireland</text><text x="398.468" transform="rotate(-45 398.468 432)" style="color:#6e6e70;cursor:default;font-size:11px;fill:#6e6e70" y="432">Italy</text><text x="473.644" transform="rotate(-45 473.644 432)" style="color:#6e6e70;cursor:default;font-size:11px;fill:#6e6e70" y="432">United Kingdom</text><text x="532.544" transform="rotate(-45 532.544 432)" style="color:#6e6e70;cursor:default;font-size:11px;fill:#6e6e70" y="432">Spain</text><text x="552.865" transform="rotate(-45 552.865 432)" style="color:#6e6e70;cursor:default;font-size:11px;fill:#6e6e70" y="432">Greece</text><text x="559.412" transform="rotate(-45 559.412 432)" style="color:#6e6e70;cursor:default;font-size:11px;fill:#6e6e70" y="432">Portugal</text><text x="565.915" transform="rotate(-45 565.915 432)" style="color:#6e6e70;cursor:default;font-size:11px;fill:#6e6e70" y="432">Czech Republic</text><text x="577.556" transform="rotate(-45 577.556 432)" style="color:#6e6e70;cursor:default;font-size:11px;fill:#6e6e70" y="432">Poland</text><text x="587.475" transform="rotate(-45 587.475 432)" style="color:#6e6e70;cursor:default;font-size:11px;fill:#6e6e70" y="432">Romania</text></g><g class="highcharts-axis-labels highcharts-yaxis-labels" data-z-index="7" aria-hidden="true" text-anchor="end"><text x="44" style="color:#6e6e70;cursor:default;font-size:11px;fill:#6e6e70" y="421">0</text><text x="44" style="color:#6e6e70;cursor:default;font-size:11px;fill:#6e6e70" y="361">10</text><text x="44" style="color:#6e6e70;cursor:default;font-size:11px;fill:#6e6e70" y="301">20</text><text x="44" style="color:#6e6e70;cursor:default;font-size:11px;fill:#6e6e70" y="241">30</text><text x="44" style="color:#6e6e70;cursor:default;font-size:11px;fill:#6e6e70" y="181">40</text><text x="44" style="color:#6e6e70;cursor:default;font-size:11px;fill:#6e6e70" y="121">50</text><text x="44" style="color:#6e6e70;cursor:default;font-size:11px;fill:#6e6e70" y="61">60</text></g></svg>