<svg width="480" height="480" viewBox="0 0 480 480" fill="none" xmlns="http://www.w3.org/2000/svg">
<path d="M480 0H0V480H480V0Z" fill="#8087E8"/>
<path d="M240 0H0V480H240V0Z" fill="#46465C"/>
<mask id="mask0_5535:29277" style="mask-type:alpha" maskUnits="userSpaceOnUse" x="23" y="268" width="434" height="213">
<path d="M456 480L344 292L239 269L136 292L24 480" fill="#993D20"/>
<path d="M456 480L344 292L239 269L136 292L24 480" stroke="#78758C"/>
</mask>
<g mask="url(#mask0_5535:29277)">
<path d="M48 0V480" stroke="#78758C" stroke-miterlimit="10"/>
<path d="M72 0V480" stroke="#78758C" stroke-miterlimit="10"/>
<path d="M96 0V480" stroke="#78758C" stroke-miterlimit="10"/>
<path d="M120 0V480" stroke="#78758C" stroke-miterlimit="10"/>
<path d="M144 0V480" stroke="#78758C" stroke-miterlimit="10"/>
<path d="M168 0V480" stroke="#78758C" stroke-miterlimit="10"/>
<path d="M192 0V480" stroke="#78758C" stroke-miterlimit="10"/>
<path d="M216 0V480" stroke="#78758C" stroke-miterlimit="10"/>
<path d="M264 0V480" stroke="#78758C" stroke-miterlimit="10"/>
<path d="M288 0V480" stroke="#78758C" stroke-miterlimit="10"/>
<path d="M312 0V480" stroke="#78758C" stroke-miterlimit="10"/>
<path d="M336 0V480" stroke="#78758C" stroke-miterlimit="10"/>
<path d="M360 0V480" stroke="#78758C" stroke-miterlimit="10"/>
<path d="M384 0V480" stroke="#78758C" stroke-miterlimit="10"/>
<path d="M408 0V480" stroke="#78758C" stroke-miterlimit="10"/>
<path d="M432 0V480" stroke="#78758C" stroke-miterlimit="10"/>
</g>
<path d="M121.264 206.384L88 158L95.152 197.888L121.264 206.384Z" fill="#6699A1"/>
<path d="M88 329.928L109.264 336.84L102.064 297L88 329.928Z" fill="#8087E8"/>
<path d="M195 345.648L199.176 368.832L217.8 336L195 345.648Z" fill="#6699A1"/>
<path d="M336 102L355.584 157.68L374.112 114.384L336 102Z" fill="#A3EDBA"/>
<path d="M408.056 342.056L404.792 323.912L383.528 317L365 360.248L408.056 342.056Z" fill="#78758C"/>
<path d="M251.264 171.144L274.112 161.496L248 153L251.264 171.144Z" fill="#30426B"/>
<circle cx="192.5" cy="249.5" r="13.5" fill="#2F2B38"/>
<circle cx="287.5" cy="249.5" r="13.5" fill="#2F2B38"/>
<path d="M289.056 259.865C287.317 259.865 285.617 259.348 284.171 258.38C282.725 257.412 281.599 256.035 280.933 254.425C280.268 252.815 280.094 251.043 280.433 249.333C280.772 247.624 281.609 246.054 282.839 244.821C284.069 243.589 285.635 242.749 287.34 242.409C289.046 242.069 290.814 242.244 292.42 242.911C294.027 243.578 295.4 244.707 296.366 246.157C297.332 247.606 297.847 249.31 297.847 251.053C297.847 253.39 296.921 255.631 295.272 257.284C293.624 258.937 291.387 259.865 289.056 259.865ZM191.944 259.865C190.206 259.865 188.506 259.348 187.06 258.38C185.614 257.412 184.487 256.035 183.822 254.425C183.156 252.815 182.982 251.043 183.322 249.333C183.661 247.624 184.498 246.054 185.728 244.821C186.957 243.589 188.524 242.749 190.229 242.409C191.935 242.069 193.702 242.244 195.309 242.911C196.915 243.578 198.288 244.707 199.254 246.157C200.22 247.606 200.736 249.31 200.736 251.053C200.736 253.39 199.81 255.631 198.161 257.284C196.512 258.937 194.276 259.865 191.944 259.865ZM292.206 206.814L309.767 176.337C310.047 175.92 310.238 175.449 310.328 174.955C310.419 174.461 310.407 173.953 310.294 173.463C310.181 172.974 309.969 172.512 309.671 172.108C309.373 171.704 308.995 171.366 308.561 171.114C308.127 170.862 307.646 170.702 307.148 170.644C306.65 170.586 306.145 170.631 305.665 170.777C305.185 170.922 304.74 171.165 304.358 171.49C303.975 171.814 303.663 172.215 303.441 172.665V172.665L285.66 203.535C271.457 197.149 256.066 193.848 240.5 193.848C224.934 193.848 209.543 197.149 195.34 203.535L177.559 172.665C177.337 172.215 177.025 171.814 176.642 171.49C176.26 171.165 175.815 170.922 175.335 170.777C174.855 170.631 174.35 170.586 173.852 170.644C173.354 170.702 172.873 170.862 172.439 171.114C172.005 171.366 171.627 171.704 171.329 172.108C171.031 172.512 170.819 172.974 170.706 173.463C170.593 173.953 170.581 174.461 170.672 174.955C170.762 175.449 170.953 175.92 171.233 176.337L188.794 206.814C158.639 223.253 138.018 253.85 135 290H346C342.982 253.85 322.358 223.253 292.206 206.814" fill="#A3EDBA"/>
</svg>
