<svg enable-background="new 0 0 240 240" viewBox="0 0 240 240" xmlns="http://www.w3.org/2000/svg"><path d="m220 240h-200l-20-20v-200l20-20h200l20 20v200z" fill="#f0f0f0"/><g fill="#181228"><path d="m39.1 13.2h6.3c4.4 0 7.4 2.8 7.4 8.4s-3 8.4-7.4 8.4h-6.3zm6.3 13.6c2.2 0 3.5-1.2 3.5-3.8v-2.6c0-2.7-1.3-3.8-3.5-3.8h-2.7v10.3h2.7z"/><path d="m64.9 30c-.6 0-1.2-.2-1.6-.6s-.7-1-.8-1.6h-.1c-.4 1.6-1.8 2.5-3.7 2.5-2.5 0-3.9-1.5-3.9-3.7 0-2.7 2.1-3.9 5.4-3.9h2v-.8c0-1.2-.6-2-2.1-2-.5 0-1.1.1-1.6.4s-.9.6-1.2 1.1l-2.1-1.9c1-1.5 2.4-2.4 5.1-2.4 3.6 0 5.4 1.6 5.4 4.6v5.5h1.2v2.8zm-2.8-3.8v-1.5h-1.7c-1.4 0-2.1.5-2.1 1.4v.4c0 .9.6 1.3 1.7 1.3 1.2 0 2.1-.5 2.1-1.6z"/><path d="m69.2 30v-12.6h3.6v2.7h.1c.1-.8.5-1.5 1.1-2s1.4-.8 2.1-.8h.6v3.3h-.9c-2.1 0-3.1.5-3.1 1.9v7.5z"/><path d="m78.9 12.2h3.6v10.5h.1l1.6-2.3 2.5-3h3.9l-4.2 4.8 4.7 7.8h-4.2l-2.8-5.3-1.6 1.8v3.5h-3.6z"/></g><path d="m220 240h-200l-20-20v-200l20-20h200l20 20v200z" fill="#f0f0f0"/><path d="m187.2 168.1v-115.6h-131.6v115.6z" fill="#bbbac5"/><path d="m171.5 190.5v-71.8h-24.8v71.8z" fill="#8087e8"/><path d="m135.2 190.5v-55.7h-25.7v55.7z" fill="#a3edba"/><path d="m98.1 190.2v-79.4h-26.8v79.4z" fill="#8087e8"/><path d="m89.1 59.5h-40.9v7h40.9z" fill="#30426b"/><path d="m89.1 71.8h-40.9v7h40.9z" fill="#30426b"/><path d="m89.1 84.2h-40.9v7h40.9z" fill="#30426b"/></svg>