<svg width="242" height="240" viewBox="0 0 242 240" fill="none" xmlns="http://www.w3.org/2000/svg">
<path d="M222 240H22L2 220V20L22 0H222L242 20V220L222 240Z" fill="#F0F0F0"/>
<path d="M132.229 171.923V77.1072H116.923V171.923H132.229Z" fill="#8087E8"/>
<path d="M187.954 54.2085H59.4805V156.047H187.954V54.2085Z" fill="#201836"/>
<path d="M176.275 79.6401H164.596V143.317H176.275V79.6401Z" fill="#A3EDBA"/>
<path d="M152.916 66.9382H141.236V143.317H152.916V66.9382Z" fill="#A3EDBA"/>
<path d="M129.556 105.1H117.877V143.289H129.556V105.1Z" fill="#A3EDBA"/>
<path d="M106.199 79.6401H94.5195V143.289H106.199V79.6401Z" fill="#A3EDBA"/>
<path d="M82.8396 105.1H71.1602V143.289H82.8396V105.1Z" fill="#A3EDBA"/>
<path d="M124.575 205.407L150.035 170.369H99.1152L124.575 205.407Z" fill="#8087E8"/>
</svg>
