<svg width="240" height="240" viewBox="0 0 240 240" fill="none" xmlns="http://www.w3.org/2000/svg">
<path d="M220 240H20L0 220V20L20 0H220L240 20V220L220 240Z" fill="#2F2B38"/>
<path d="M130.229 171.923V77.1072H114.923V171.923H130.229Z" fill="#A3EDBA"/>
<path d="M185.954 54.2085H57.4805V156.047H185.954V54.2085Z" fill="#8087E8"/>
<path d="M174.275 79.6401H162.596V143.317H174.275V79.6401Z" fill="#F0F0F0"/>
<path d="M150.916 66.9382H139.236V143.317H150.916V66.9382Z" fill="#F0F0F0"/>
<path d="M127.556 105.1H115.877V143.289H127.556V105.1Z" fill="#F0F0F0"/>
<path d="M104.199 79.6401H92.5195V143.289H104.199V79.6401Z" fill="#F0F0F0"/>
<path d="M80.8396 105.1H69.1602V143.289H80.8396V105.1Z" fill="#F0F0F0"/>
<path d="M122.575 205.407L148.035 170.369H97.1152L122.575 205.407Z" fill="#A3EDBA"/>
</svg>
