<svg xmlns="http://www.w3.org/2000/svg" viewBox="0 0 1000 1000"><defs><style>.cls-1{fill:#46465c;}.cls-2{fill:#181228;}.cls-3{fill:none;stroke:#a3edba;stroke-miterlimit:10;stroke-width:2px;}.cls-4{fill:#8087e8;}.cls-5{fill:#f0f0f0;}.cls-6{fill:#a3edba;}.cls-7{fill:#e5e5e5;}.cls-8{fill:#6699a1;}.cls-9{fill:#78758c;}</style></defs><g id="bg"><rect class="cls-1" width="1000" height="1000" transform="translate(0 1000) rotate(-90)"/><rect class="cls-2" x="300" y="300" width="400" height="1000" transform="translate(-300 1300) rotate(-90)"/><line class="cls-3" x1="1000" y1="600" y2="600"/><line class="cls-3" x1="1000" y1="650" y2="650"/><line class="cls-3" x1="1000" y1="700" y2="700"/><line class="cls-3" x1="1000" y1="750" y2="750"/><line class="cls-3" x1="1000" y1="800" y2="800"/></g><g id="icon"><rect class="cls-4" x="349.72" y="600.45" width="200" height="50"/><rect class="cls-5" x="299.72" y="650.45" width="200" height="50"/><rect class="cls-4" x="249.72" y="700.45" width="200" height="50"/><rect class="cls-5" x="199.72" y="750.45" width="200" height="50"/><polygon class="cls-6" points="799.72 400.45 549.72 400.45 549.72 200.45 799.72 200.45 750.19 300.45 799.72 400.45"/><rect class="cls-7" x="499.72" y="200.45" width="50" height="400"/></g><g id="top"><polygon class="cls-8" points="463.17 200 393.85 99.25 408.82 182.29 463.17 200"/><polygon class="cls-9" points="428.51 272.84 421.7 235.06 421.7 235.06 377.35 220.61 338.75 310.76 428.51 272.84 428.51 272.84"/><polygon class="cls-8" points="525.94 119.33 534.65 167.61 573.49 99.25 525.94 119.33"/><polygon class="cls-4" points="427.54 406.53 471.89 420.98 456.92 337.93 427.54 406.53 427.54 406.53 427.54 406.53"/></g></svg>