<svg width="100%" height="100%" viewBox="0 0 30 30" fill="none" xmlns="http://www.w3.org/2000/svg">
<g clip-path="url(#clip0_8570_120158)">
<mask id="mask0_8570_120158" style="mask-type:luminance" maskUnits="userSpaceOnUse" x="11" y="11" width="5" height="9">
<path d="M11.631 12.044C12.5053 14.7186 12.8369 19.49 15.3945 19.49C15.5891 19.49 15.7858 19.4709 15.9835 19.4333C13.6584 18.8913 13.3825 14.1717 11.9639 11.7278C11.8507 11.8309 11.7397 11.9363 11.6309 12.044" fill="white"/>
</mask>
<g mask="url(#mask0_8570_120158)">
<mask id="mask1_8570_120158" style="mask-type:luminance" maskUnits="userSpaceOnUse" x="11" y="11" width="5" height="9">
<path d="M15.9747 19.4917H11.6222V11.7295H15.9747V19.4917Z" fill="white"/>
</mask>
<g mask="url(#mask1_8570_120158)">
<mask id="mask2_8570_120158" style="mask-type:luminance" maskUnits="userSpaceOnUse" x="11" y="11" width="5" height="9">
<path d="M15.9747 11.7294V19.4917H11.6222V11.7295L15.9747 11.7294Z" fill="white"/>
</mask>
<g mask="url(#mask2_8570_120158)">
<path d="M15.9747 19.4917H11.6222V11.7295H15.9747V19.4917Z" fill="url(#paint0_linear_8570_120158)"/>
</g>
</g>
</g>
<mask id="mask3_8570_120158" style="mask-type:luminance" maskUnits="userSpaceOnUse" x="11" y="11" width="6" height="9">
<path d="M11.9641 11.7279C13.3828 14.1718 13.6584 18.8913 15.9837 19.4333C16.1661 19.3997 16.3495 19.3491 16.5329 19.2848C14.4458 18.2622 13.8689 13.6798 12.2579 11.4734C12.1602 11.5546 12.0608 11.6393 11.9643 11.7277" fill="white"/>
</mask>
<g mask="url(#mask3_8570_120158)">
<mask id="mask4_8570_120158" style="mask-type:luminance" maskUnits="userSpaceOnUse" x="11" y="11" width="6" height="9">
<path d="M16.5466 19.4438H11.9783V11.4839H16.5466V19.4438Z" fill="white"/>
</mask>
<g mask="url(#mask4_8570_120158)">
<mask id="mask5_8570_120158" style="mask-type:luminance" maskUnits="userSpaceOnUse" x="11" y="11" width="6" height="9">
<path d="M16.5466 11.4839V19.4438H11.9783V11.4839H16.5466Z" fill="white"/>
</mask>
<g mask="url(#mask5_8570_120158)">
<path d="M16.5466 19.4438H11.9783V11.4839H16.5466V19.4438Z" fill="url(#paint1_linear_8570_120158)"/>
</g>
</g>
</g>
<path d="M14.0082 10.2756C13.8139 10.2756 13.6165 10.2946 13.4189 10.3324C12.9015 10.4299 12.3756 10.6525 11.8456 10.9898C11.9905 11.1329 12.1281 11.2961 12.2575 11.4749C12.7965 11.0262 13.3318 10.6969 13.8657 10.4982C14.0605 10.4253 14.2612 10.3695 14.4657 10.3314C14.3161 10.2938 14.1624 10.2751 14.0082 10.2756Z" fill="#14559A"/>
<path d="M18.1166 18.9083C18.0159 18.812 17.9204 18.707 17.8263 18.593C17.3934 18.8998 16.9615 19.1326 16.5325 19.2837C16.6855 19.3588 16.8475 19.414 17.0146 19.448C17.146 19.4752 17.2813 19.4887 17.4269 19.4887C17.908 19.4887 18.2883 19.4314 18.6122 19.2765C18.434 19.18 18.2703 19.0551 18.1175 18.9071" fill="#1969BC"/>
<mask id="mask6_8570_120158" style="mask-type:luminance" maskUnits="userSpaceOnUse" x="13" y="10" width="6" height="9">
<path d="M13.8659 10.4974C15.9671 11.5963 16.1496 16.5732 17.8264 18.5942C17.9386 18.5151 18.05 18.4311 18.1599 18.3426C17.1105 16.0176 16.8101 10.9127 14.4646 10.3302C14.2642 10.3675 14.0645 10.4212 13.8644 10.4974" fill="white"/>
</mask>
<g mask="url(#mask6_8570_120158)">
<mask id="mask7_8570_120158" style="mask-type:luminance" maskUnits="userSpaceOnUse" x="13" y="10" width="6" height="9">
<path d="M18.1722 18.6045H13.8767V10.34H18.1722V18.6045Z" fill="white"/>
</mask>
<g mask="url(#mask7_8570_120158)">
<mask id="mask8_8570_120158" style="mask-type:luminance" maskUnits="userSpaceOnUse" x="13" y="10" width="6" height="9">
<path d="M18.1722 10.34V18.6045H13.8767V10.34H18.1722Z" fill="white"/>
</mask>
<g mask="url(#mask8_8570_120158)">
<path d="M18.1722 18.6045H13.8767V10.34H18.1722V18.6045Z" fill="url(#paint2_linear_8570_120158)"/>
</g>
</g>
</g>
<mask id="mask9_8570_120158" style="mask-type:luminance" maskUnits="userSpaceOnUse" x="12" y="10" width="6" height="10">
<path d="M12.2577 11.4737C13.8689 13.68 14.4456 18.264 16.5327 19.2852C16.9616 19.1339 17.3933 18.9014 17.8264 18.5945C16.1495 16.5733 15.9671 11.5965 13.8658 10.4976C13.3323 10.6959 12.7967 11.0263 12.2592 11.4737" fill="white"/>
</mask>
<g mask="url(#mask9_8570_120158)">
<mask id="mask10_8570_120158" style="mask-type:luminance" maskUnits="userSpaceOnUse" x="12" y="10" width="6" height="10">
<path d="M17.8237 19.2876H12.255V10.4996H17.8237V19.2876Z" fill="white"/>
</mask>
<g mask="url(#mask10_8570_120158)">
<mask id="mask11_8570_120158" style="mask-type:luminance" maskUnits="userSpaceOnUse" x="12" y="10" width="6" height="10">
<path d="M17.8234 10.4998V19.2878H12.2548V10.4998H17.8234Z" fill="white"/>
</mask>
<g mask="url(#mask11_8570_120158)">
<path d="M17.8237 19.2876H12.255V10.4996H17.8237V19.2876Z" fill="url(#paint3_linear_8570_120158)"/>
</g>
</g>
</g>
<path d="M11.5809 11.165L11.3574 11.3297C11.4554 11.5436 11.546 11.7838 11.6307 12.0451L11.9642 11.7289C11.845 11.5244 11.7188 11.3353 11.581 11.1663" fill="#2B74B1"/>
<path d="M11.8456 10.9885L11.5809 11.165C11.7183 11.3341 11.8448 11.5233 11.9641 11.7276L12.2575 11.4733C12.1278 11.2947 11.9905 11.1314 11.8456 10.9883" fill="#125A9E"/>
<path d="M10.6001 11.98C10.8528 11.7391 11.1057 11.5222 11.3575 11.3301L11.1756 10.9817C10.9723 11.2283 10.7868 11.5538 10.5989 11.9801" fill="#0D82CA"/>
<path d="M10.7825 10.4916C10.928 10.6133 11.0578 10.7808 11.1766 10.9815L11.2912 10.8529C11.1263 10.6989 10.948 10.5724 10.754 10.4771L10.778 10.4884C10.7792 10.49 10.7807 10.4909 10.7823 10.4915" fill="#0D82CA"/>
<mask id="mask12_8570_120158" style="mask-type:luminance" maskUnits="userSpaceOnUse" x="4" y="10" width="6" height="8">
<path d="M4.66785 17.5056C6.69433 13.6007 7.65452 11.1291 9.34892 10.4607C7.60193 11.1445 5.63547 13.7237 4.66785 17.5056Z" fill="white"/>
</mask>
<g mask="url(#mask12_8570_120158)">
<mask id="mask13_8570_120158" style="mask-type:luminance" maskUnits="userSpaceOnUse" x="4" y="10" width="6" height="8">
<path d="M4.66553 10.4653H9.34675V17.5107H4.66553V10.4655V10.4653Z" fill="white"/>
</mask>
<g mask="url(#mask13_8570_120158)">
<mask id="mask14_8570_120158" style="mask-type:luminance" maskUnits="userSpaceOnUse" x="4" y="10" width="6" height="8">
<path d="M4.66553 17.5105V10.4655H9.34675V17.5105H4.66553Z" fill="white"/>
</mask>
<g mask="url(#mask14_8570_120158)">
<path d="M4.66553 10.4653H9.34675V17.5107H4.66553V10.4655V10.4653Z" fill="url(#paint4_linear_8570_120158)"/>
</g>
</g>
</g>
<path d="M11.2913 10.8528L11.1768 10.9813C11.2404 11.0878 11.2996 11.2038 11.3586 11.3297L11.5822 11.165C11.493 11.0543 11.3962 10.95 11.2924 10.8528" fill="#127BCA"/>
<mask id="mask15_8570_120158" style="mask-type:luminance" maskUnits="userSpaceOnUse" x="1" y="11" width="11" height="13">
<mask id="mask16_8570_120158" style="mask-type:luminance" maskUnits="userSpaceOnUse" x="-4" y="6" width="21" height="22">
<path d="M-3.90906 6.72733H16.648V27.553H-3.90906V6.72733Z" fill="white"/>
</mask>
<g mask="url(#mask16_8570_120158)">
<mask id="mask17_8570_120158" style="mask-type:luminance" maskUnits="userSpaceOnUse" x="-5" y="6" width="22" height="22">
<path d="M-4.06067 6.5758H16.7995V27.7046H-4.06067V6.5758Z" fill="white"/>
</mask>
<g mask="url(#mask17_8570_120158)">
<mask id="mask18_8570_120158" style="mask-type:luminance" maskUnits="userSpaceOnUse" x="1" y="11" width="11" height="13">
<path d="M1.23254 23.1621H11.4935V11.0775H1.23254V23.1621Z" fill="white"/>
</mask>
<g mask="url(#mask18_8570_120158)">
<mask id="mask19_8570_120158" style="mask-type:luminance" maskUnits="userSpaceOnUse" x="-4" y="6" width="21" height="22">
<path d="M-3.90906 6.72709H16.648V27.5527H-3.90906V6.72709Z" fill="white"/>
</mask>
<g mask="url(#mask19_8570_120158)">
<mask id="mask20_8570_120158" style="mask-type:luminance" maskUnits="userSpaceOnUse" x="1" y="11" width="11" height="13">
<path d="M1.23254 23.1619H11.4935V11.0772H1.23254V23.1619Z" fill="white"/>
</mask>
<g mask="url(#mask20_8570_120158)">
<mask id="mask21_8570_120158" style="mask-type:luminance" maskUnits="userSpaceOnUse" x="1" y="11" width="11" height="13">
<path d="M1.23474 20.4131L6.1465 23.1604L11.4969 13.8237L6.5856 11.0755L1.2361 20.4129L1.23474 20.4131Z" fill="white"/>
</mask>
<g mask="url(#mask21_8570_120158)">
<mask id="mask22_8570_120158" style="mask-type:luminance" maskUnits="userSpaceOnUse" x="-4" y="6" width="21" height="22">
<path d="M16.648 13.9771L9.05529 27.554L-3.90906 20.3038L3.68351 6.72694L16.648 13.9771Z" fill="white"/>
</mask>
<g mask="url(#mask22_8570_120158)">
<mask id="mask23_8570_120158" style="mask-type:luminance" maskUnits="userSpaceOnUse" x="-4" y="6" width="21" height="22">
<path d="M16.648 13.9771L9.05544 27.554L-3.90906 20.3038L3.68351 6.72694L16.648 13.9771Z" fill="white"/>
</mask>
<g mask="url(#mask23_8570_120158)">
<path d="M16.648 13.9771L9.05529 27.554L-3.90906 20.3038L3.68351 6.72694L16.648 13.9771Z" fill="url(#paint5_linear_8570_120158)"/>
</g>
</g>
</g>
</g>
</g>
</g>
</g>
</g>
</mask>
<g mask="url(#mask15_8570_120158)">
<mask id="mask24_8570_120158" style="mask-type:luminance" maskUnits="userSpaceOnUse" x="5" y="14" width="5" height="6">
<path d="M5.42566 14.281H9.77904V19.7314H5.42566V14.2795V14.281Z" fill="white"/>
</mask>
<g mask="url(#mask24_8570_120158)">
<mask id="mask25_8570_120158" style="mask-type:luminance" maskUnits="userSpaceOnUse" x="5" y="14" width="5" height="6">
<path d="M5.427 19.7314H9.77705V14.2795H5.427V19.7314Z" fill="white"/>
</mask>
<g mask="url(#mask25_8570_120158)">
<mask id="mask26_8570_120158" style="mask-type:luminance" maskUnits="userSpaceOnUse" x="5" y="14" width="5" height="6">
<path d="M5.58799 19.7191L5.55131 19.7233C5.54828 19.7239 5.54646 19.7239 5.54419 19.7244L5.51296 19.7274C5.51145 19.7274 5.50948 19.7278 5.50796 19.7278L5.43324 19.7332H5.42566C7.4767 19.6756 8.41431 18.6488 8.87917 17.1595L9.77798 14.2797C8.91888 15.4888 8.05584 16.9297 7.18811 18.5449C6.76978 19.3232 6.13319 19.6483 5.58799 19.7175" fill="white"/>
</mask>
<g mask="url(#mask26_8570_120158)">
<mask id="mask27_8570_120158" style="mask-type:luminance" maskUnits="userSpaceOnUse" x="5" y="14" width="5" height="6">
<path d="M5.42688 14.2814H9.77905V19.7334H5.42688V14.2814Z" fill="white"/>
</mask>
<g mask="url(#mask27_8570_120158)">
<mask id="mask28_8570_120158" style="mask-type:luminance" maskUnits="userSpaceOnUse" x="5" y="14" width="5" height="6">
<path d="M5.42688 19.7336V14.2817H9.77905V19.7336H5.42688Z" fill="white"/>
</mask>
<g mask="url(#mask28_8570_120158)">
<path d="M5.42688 14.2814H9.77905V19.7334H5.42688V14.2814Z" fill="url(#paint6_linear_8570_120158)"/>
</g>
</g>
</g>
</g>
</g>
</g>
<mask id="mask29_8570_120158" style="mask-type:luminance" maskUnits="userSpaceOnUse" x="5" y="11" width="6" height="9">
<path d="M5.58801 19.7182V19.719C6.13336 19.6496 6.76995 19.3249 7.18813 18.5463C8.05587 16.9321 8.91936 15.4902 9.77724 14.2811C10.0898 13.3008 10.3471 12.5507 10.6003 11.98C8.88965 13.6082 7.17207 16.3158 5.58801 19.7182Z" fill="white"/>
</mask>
<g mask="url(#mask29_8570_120158)">
<mask id="mask30_8570_120158" style="mask-type:luminance" maskUnits="userSpaceOnUse" x="5" y="11" width="6" height="9">
<path d="M5.59888 11.9911H10.611V19.7302H5.59888V11.9911Z" fill="white"/>
</mask>
<g mask="url(#mask30_8570_120158)">
<mask id="mask31_8570_120158" style="mask-type:luminance" maskUnits="userSpaceOnUse" x="5" y="11" width="6" height="9">
<path d="M5.59888 19.7302V11.9911H10.611V19.7302H5.59888Z" fill="white"/>
</mask>
<g mask="url(#mask31_8570_120158)">
<path d="M5.59888 11.9911H10.611V19.7302H5.59888V11.9911Z" fill="url(#paint7_linear_8570_120158)"/>
</g>
</g>
</g>
<path d="M4.66796 17.5056C4.30419 18.2047 3.90854 18.9494 3.46753 19.7365L4.2409 19.7362C4.34312 18.9546 4.48826 18.209 4.6682 17.5057" fill="#05A1E6"/>
<mask id="mask32_8570_120158" style="mask-type:luminance" maskUnits="userSpaceOnUse" x="4" y="10" width="8" height="10">
<path d="M10.0053 10.2915C9.99928 10.2927 9.99474 10.293 9.99019 10.2934C9.98109 10.2952 9.97124 10.2969 9.96169 10.2977L9.94457 10.2995L9.91425 10.3048C9.9094 10.3051 9.9047 10.306 9.90091 10.3063L9.83498 10.318C9.83225 10.3184 9.82952 10.3192 9.8274 10.3192L9.79709 10.3253L9.78102 10.3298L9.74995 10.3359L9.7354 10.3393L9.62673 10.3675C9.62369 10.3688 9.61869 10.3697 9.61414 10.3713C9.60353 10.3739 9.59292 10.3777 9.58141 10.3813L9.56655 10.3854L9.53397 10.3953C9.53002 10.3963 9.52639 10.3983 9.5226 10.3983L9.44727 10.4244L9.41089 10.4374L9.39634 10.4435C9.38543 10.4465 9.37421 10.4511 9.36603 10.4548C9.36254 10.4567 9.35814 10.4582 9.35542 10.4601C7.66087 11.1289 6.70083 13.6004 4.67434 17.5051C4.48707 18.2393 4.34439 18.9842 4.24707 19.7356H4.35574L5.36565 19.7341H5.3752L5.43962 19.7326L5.51434 19.7273C5.51586 19.7273 5.51783 19.7268 5.51889 19.7268C5.5295 19.7253 5.54011 19.7245 5.55011 19.7238C5.55284 19.7233 5.55436 19.7233 5.55769 19.7227C5.56876 19.7217 5.58194 19.7203 5.59437 19.7185V19.7177C7.17827 16.3153 8.89586 13.6076 10.6065 11.9795C10.7947 11.5531 10.9799 11.2277 11.1832 10.9814C11.0642 10.7804 10.9343 10.6131 10.7891 10.4909C10.7876 10.4902 10.7861 10.4897 10.7849 10.4882C10.777 10.4849 10.769 10.4811 10.7609 10.4768C10.753 10.4725 10.7451 10.4684 10.737 10.4645C10.7294 10.4615 10.7209 10.4574 10.7136 10.4532C10.7041 10.4501 10.695 10.446 10.6863 10.4411C10.6788 10.4386 10.6723 10.435 10.6651 10.432C10.65 10.4261 10.635 10.4199 10.6201 10.4133L10.601 10.4057C10.5897 10.4019 10.5785 10.3975 10.5677 10.3925C10.5619 10.391 10.5558 10.3886 10.5495 10.3868C10.5334 10.3815 10.5183 10.3757 10.5034 10.3707C10.5008 10.37 10.4999 10.37 10.4993 10.3692C10.4811 10.3636 10.4637 10.3591 10.4455 10.3541C10.4413 10.3521 10.4379 10.3513 10.4334 10.3501C10.4173 10.3459 10.4031 10.3413 10.3885 10.3374C10.3847 10.3369 10.3809 10.3359 10.3779 10.335C10.3407 10.3252 10.303 10.3169 10.2651 10.3102C10.2616 10.3099 10.2571 10.3087 10.2533 10.3078L10.2045 10.3002C10.2015 10.2987 10.1984 10.2987 10.195 10.2981L10.1369 10.2905C10.1339 10.2901 10.1305 10.2893 10.1268 10.2893C10.1116 10.2869 10.097 10.2858 10.0825 10.2845C10.0578 10.2863 10.0346 10.2886 10.0113 10.2908" fill="white"/>
</mask>
<g mask="url(#mask32_8570_120158)">
<mask id="mask33_8570_120158" style="mask-type:luminance" maskUnits="userSpaceOnUse" x="2" y="9" width="11" height="12">
<path d="M4.42948 20.921L2.60413 10.5688L10.9471 9.09782L12.7725 19.45L4.42948 20.9211V20.921Z" fill="white"/>
</mask>
<g mask="url(#mask33_8570_120158)">
<mask id="mask34_8570_120158" style="mask-type:luminance" maskUnits="userSpaceOnUse" x="2" y="9" width="11" height="12">
<path d="M4.42948 20.9211L2.60413 10.5689L10.947 9.09782L12.7723 19.45L4.42933 20.9211H4.42948Z" fill="white"/>
</mask>
<g mask="url(#mask34_8570_120158)">
<path d="M4.42948 20.921L2.60413 10.5688L10.9471 9.09782L12.7725 19.45L4.42948 20.9211V20.921Z" fill="url(#paint8_linear_8570_120158)"/>
</g>
</g>
</g>
<mask id="mask35_8570_120158" style="mask-type:luminance" maskUnits="userSpaceOnUse" x="20" y="10" width="4" height="6">
<path d="M21.5363 12.608L20.5559 15.7349C21.626 14.2625 22.6797 12.4109 23.6828 10.2734C22.5127 10.6412 21.8882 11.4823 21.5361 12.6078" fill="white"/>
</mask>
<g mask="url(#mask35_8570_120158)">
<mask id="mask36_8570_120158" style="mask-type:luminance" maskUnits="userSpaceOnUse" x="20" y="10" width="4" height="6">
<path d="M20.5615 10.272H23.6884V15.7334H20.5615V10.272Z" fill="white"/>
</mask>
<g mask="url(#mask36_8570_120158)">
<mask id="mask37_8570_120158" style="mask-type:luminance" maskUnits="userSpaceOnUse" x="20" y="10" width="4" height="6">
<path d="M20.5615 15.7334V10.2719H23.6884V15.7334H20.5615Z" fill="white"/>
</mask>
<g mask="url(#mask37_8570_120158)">
<path d="M20.5615 10.272H23.6884V15.7334H20.5615V10.272Z" fill="url(#paint9_linear_8570_120158)"/>
</g>
</g>
</g>
<mask id="mask38_8570_120158" style="mask-type:luminance" maskUnits="userSpaceOnUse" x="17" y="9" width="15" height="5">
<mask id="mask39_8570_120158" style="mask-type:luminance" maskUnits="userSpaceOnUse" x="17" y="9" width="15" height="5">
<path d="M17.7423 9.23886H31.307V13.9675H17.7423V9.23886Z" fill="white"/>
</mask>
<g mask="url(#mask39_8570_120158)">
<mask id="mask40_8570_120158" style="mask-type:luminance" maskUnits="userSpaceOnUse" x="17" y="9" width="15" height="6">
<path d="M17.5944 9.08716H31.4584V14.1155H17.5944V9.08701V9.08716Z" fill="white"/>
</mask>
<g mask="url(#mask40_8570_120158)">
<mask id="mask41_8570_120158" style="mask-type:luminance" maskUnits="userSpaceOnUse" x="17" y="9" width="15" height="5">
<path d="M17.7423 13.9673H31.3048V9.24196H17.7423V13.9673Z" fill="white"/>
</mask>
<g mask="url(#mask41_8570_120158)">
<mask id="mask42_8570_120158" style="mask-type:luminance" maskUnits="userSpaceOnUse" x="17" y="9" width="15" height="5">
<path d="M17.7423 9.23862H31.307V13.9673H17.7423V9.23862Z" fill="white"/>
</mask>
<g mask="url(#mask42_8570_120158)">
<mask id="mask43_8570_120158" style="mask-type:luminance" maskUnits="userSpaceOnUse" x="17" y="9" width="15" height="5">
<path d="M17.7423 13.9673H31.3048V9.24196H17.7423V13.9673Z" fill="white"/>
</mask>
<g mask="url(#mask43_8570_120158)">
<mask id="mask44_8570_120158" style="mask-type:luminance" maskUnits="userSpaceOnUse" x="17" y="9" width="15" height="5">
<path d="M17.7423 9.24196H31.3035V13.9673H17.7423V9.24196Z" fill="white"/>
</mask>
<g mask="url(#mask44_8570_120158)">
<mask id="mask45_8570_120158" style="mask-type:luminance" maskUnits="userSpaceOnUse" x="17" y="9" width="15" height="5">
<path d="M31.3069 13.9636H17.746V9.23829H31.3069V13.9636Z" fill="white"/>
</mask>
<g mask="url(#mask45_8570_120158)">
<mask id="mask46_8570_120158" style="mask-type:luminance" maskUnits="userSpaceOnUse" x="17" y="9" width="15" height="5">
<path d="M31.3069 9.23845V13.9636H17.746V9.23829H31.3069V9.23845Z" fill="white"/>
</mask>
<g mask="url(#mask46_8570_120158)">
<path d="M31.3069 13.9636H17.746V9.23829H31.3069V13.9636Z" fill="url(#paint10_linear_8570_120158)"/>
</g>
</g>
</g>
</g>
</g>
</g>
</g>
</g>
</mask>
<g mask="url(#mask38_8570_120158)">
<mask id="mask47_8570_120158" style="mask-type:luminance" maskUnits="userSpaceOnUse" x="18" y="9" width="10" height="12">
<path d="M18.8502 9.0734H27.7474V20.2332H18.8502V9.0734Z" fill="white"/>
</mask>
<g mask="url(#mask47_8570_120158)">
<mask id="mask48_8570_120158" style="mask-type:luminance" maskUnits="userSpaceOnUse" x="20" y="10" width="7" height="10">
<path d="M20.4259 19.2632H26.179V10.0708H20.4259V19.2632Z" fill="white"/>
</mask>
<g mask="url(#mask48_8570_120158)">
<mask id="mask49_8570_120158" style="mask-type:luminance" maskUnits="userSpaceOnUse" x="20" y="10" width="7" height="10">
<path d="M20.5896 19.1851L20.4265 19.2632C22.5076 18.3351 24.99 14.6537 26.1786 10.0708H25.9361C23.2057 14.9483 22.3275 18.2131 20.5882 19.1851" fill="white"/>
</mask>
<g mask="url(#mask49_8570_120158)">
<mask id="mask50_8570_120158" style="mask-type:luminance" maskUnits="userSpaceOnUse" x="18" y="9" width="10" height="12">
<path d="M27.7459 10.3342L26.0004 20.2317L18.8501 18.9709L20.5956 9.07345L27.7459 10.3342Z" fill="white"/>
</mask>
<g mask="url(#mask50_8570_120158)">
<mask id="mask51_8570_120158" style="mask-type:luminance" maskUnits="userSpaceOnUse" x="18" y="9" width="10" height="12">
<path d="M27.7459 10.3342L26.0004 20.2317L18.8501 18.9709L20.5956 9.07345L27.7459 10.3342Z" fill="white"/>
</mask>
<g mask="url(#mask51_8570_120158)">
<path d="M27.7459 10.3342L26.0004 20.2317L18.8501 18.9709L20.5956 9.07345L27.7459 10.3342Z" fill="url(#paint11_linear_8570_120158)"/>
</g>
</g>
</g>
</g>
</g>
</g>
<path d="M19.231 18.7756C19.6838 18.2227 20.0529 17.2832 20.5559 15.7351C19.9754 16.533 19.3918 17.2184 18.8057 17.7778C18.8049 17.7795 18.8049 17.7809 18.8037 17.783C18.9314 18.1649 19.0714 18.503 19.231 18.7756Z" fill="#079AE1"/>
<path d="M19.2309 18.7758C19.0769 18.9639 18.9139 19.1068 18.732 19.213L18.6113 19.2779C18.8083 19.3843 19.0237 19.4522 19.2461 19.4779H19.2477L19.3514 19.4872H19.3579L19.4064 19.4896H19.4132L19.4645 19.4903L19.5197 19.4896L19.5366 19.4884L19.5754 19.4872L19.5945 19.4847L19.6308 19.4823C19.6328 19.4823 19.6339 19.4823 19.6351 19.4811C19.6399 19.4811 19.6445 19.4804 19.6492 19.4804L19.6897 19.4761C19.6909 19.4761 19.6915 19.4756 19.6933 19.4756C19.6969 19.4748 19.7014 19.4742 19.7054 19.4737L19.7491 19.4674C19.7534 19.4674 19.7572 19.4662 19.7619 19.4656L19.8108 19.4576H19.8136C19.8148 19.4567 19.817 19.4567 19.8179 19.4564L19.9153 19.4357C19.6469 19.3387 19.4222 19.1053 19.2284 18.7754" fill="#1969BC"/>
<path d="M15.3947 19.4904C15.5923 19.4901 15.7896 19.4711 15.9837 19.4338C16.1661 19.4002 16.3494 19.3495 16.533 19.2854C16.6854 19.3601 16.8456 19.4151 17.0151 19.4501C17.1466 19.4767 17.2819 19.4906 17.4274 19.4906H15.3959L15.3947 19.4904Z" fill="#1E5CB3"/>
<path d="M17.4261 19.4903C17.9073 19.4903 18.288 19.4336 18.6115 19.2781C18.8084 19.3848 19.0239 19.4527 19.2463 19.4781H19.2479L19.3516 19.4874H19.3581L19.4066 19.4898H19.4134L19.4647 19.4905H17.4247L17.4261 19.4903Z" fill="#1E5CB3"/>
<path d="M19.4659 19.4901L19.5211 19.4894L19.5381 19.4882L19.5769 19.487L19.5959 19.4845L19.6323 19.4821C19.6342 19.4821 19.635 19.4821 19.6365 19.4814C19.6414 19.4814 19.6459 19.4802 19.6511 19.4802L19.6911 19.4759C19.6923 19.4759 19.6929 19.4754 19.6947 19.4754C19.6984 19.4746 19.7029 19.474 19.7069 19.4735L19.7505 19.4672C19.7549 19.4671 19.7592 19.4665 19.7634 19.4654L19.8122 19.4574H19.8147C19.8165 19.4565 19.8183 19.4565 19.8195 19.4562L19.917 19.4355C20.0123 19.4706 20.1131 19.4883 20.2147 19.4877L19.4647 19.4896L19.4659 19.4901Z" fill="#1D60B5"/>
<path d="M18.8026 17.7832C18.8026 17.7823 18.8019 17.7812 18.8019 17.7805L18.1592 18.3429L17.824 18.5946L18.1143 18.9099C18.267 19.0578 18.4295 19.1827 18.609 19.2794L18.7296 19.2145C18.9115 19.1083 19.0747 18.9654 19.2286 18.7772C19.0693 18.5044 18.9291 18.1667 18.8013 17.7846" fill="#175FAB"/>
<mask id="mask52_8570_120158" style="mask-type:luminance" maskUnits="userSpaceOnUse" x="19" y="10" width="7" height="10">
<path d="M25.175 10.0708H24.1628C24.1287 10.0708 24.0954 10.0716 24.062 10.072L23.9668 10.0731H23.9646L23.7725 10.0822L23.6816 10.2734C22.6782 12.4109 21.6245 14.2628 20.5547 15.735C20.0515 17.2831 19.6826 18.2227 19.23 18.7754C19.4237 19.1054 19.6483 19.3375 19.9166 19.4363C19.9245 19.4337 19.9305 19.4326 19.9374 19.4313C19.9389 19.4302 19.9404 19.4302 19.9419 19.4302C19.9465 19.4295 19.9515 19.4275 19.9563 19.4272C19.9674 19.4246 19.979 19.4222 19.9896 19.4184L20.01 19.4131C20.0198 19.4104 20.0306 19.4078 20.04 19.4055C20.046 19.4028 20.0521 19.4014 20.0588 19.3999C20.0744 19.3949 20.0883 19.3916 20.1033 19.3867C20.11 19.3837 20.1174 19.3813 20.1255 19.3794C20.1338 19.3764 20.1426 19.374 20.1502 19.3703C20.1593 19.3676 20.168 19.3658 20.1759 19.3623C20.1829 19.3605 20.1905 19.3573 20.1971 19.3543C20.2146 19.3482 20.2317 19.3429 20.2497 19.3361C20.2543 19.3346 20.2588 19.3318 20.2638 19.3309C20.2744 19.3264 20.2855 19.3234 20.2941 19.3182C20.2984 19.3167 20.3029 19.3147 20.3093 19.3132C20.3471 19.2979 20.3846 19.282 20.4218 19.2653C20.4221 19.2653 20.424 19.2646 20.4253 19.2638C20.4794 19.2398 20.5338 19.2135 20.5879 19.1857C22.3276 18.2139 23.2058 14.9491 25.9362 10.0714H25.1735L25.175 10.0708Z" fill="white"/>
</mask>
<g mask="url(#mask52_8570_120158)">
<mask id="mask53_8570_120158" style="mask-type:luminance" maskUnits="userSpaceOnUse" x="19" y="10" width="7" height="10">
<path d="M25.9333 19.4373H19.2263V10.0703H25.9333V19.4373Z" fill="white"/>
</mask>
<g mask="url(#mask53_8570_120158)">
<mask id="mask54_8570_120158" style="mask-type:luminance" maskUnits="userSpaceOnUse" x="19" y="10" width="7" height="10">
<path d="M25.9333 10.0715V19.4385H19.2263V10.0715H25.9333Z" fill="white"/>
</mask>
<g mask="url(#mask54_8570_120158)">
<path d="M25.9333 19.4373H19.2263V10.0703H25.9333V19.4373Z" fill="url(#paint12_linear_8570_120158)"/>
</g>
</g>
</g>
<mask id="mask55_8570_120158" style="mask-type:luminance" maskUnits="userSpaceOnUse" x="8" y="9" width="6" height="3">
<mask id="mask56_8570_120158" style="mask-type:luminance" maskUnits="userSpaceOnUse" x="8" y="9" width="6" height="3">
<path d="M8.10559 9.89613H13.8631V11.2239H8.10559V9.89613Z" fill="white"/>
</mask>
<g mask="url(#mask56_8570_120158)">
<mask id="mask57_8570_120158" style="mask-type:luminance" maskUnits="userSpaceOnUse" x="7" y="9" width="8" height="3">
<path d="M7.95398 9.74582H14.0131V11.3755H7.95398V9.74582Z" fill="white"/>
</mask>
<g mask="url(#mask57_8570_120158)">
<mask id="mask58_8570_120158" style="mask-type:luminance" maskUnits="userSpaceOnUse" x="8" y="9" width="6" height="3">
<path d="M8.10583 11.2229H13.8624V9.89621H8.10583V11.2229Z" fill="white"/>
</mask>
<g mask="url(#mask58_8570_120158)">
<mask id="mask59_8570_120158" style="mask-type:luminance" maskUnits="userSpaceOnUse" x="8" y="9" width="6" height="3">
<path d="M8.10559 9.89589H13.8631V11.2236H8.10559V9.89589Z" fill="white"/>
</mask>
<g mask="url(#mask59_8570_120158)">
<mask id="mask60_8570_120158" style="mask-type:luminance" maskUnits="userSpaceOnUse" x="8" y="9" width="6" height="3">
<path d="M8.10583 11.2229H13.8624V9.89621H8.10583V11.2229Z" fill="white"/>
</mask>
<g mask="url(#mask60_8570_120158)">
<mask id="mask61_8570_120158" style="mask-type:luminance" maskUnits="userSpaceOnUse" x="8" y="9" width="6" height="3">
<path d="M13.8629 11.2229H8.10693V9.89621H13.8629V11.2229Z" fill="white"/>
</mask>
<g mask="url(#mask61_8570_120158)">
<mask id="mask62_8570_120158" style="mask-type:luminance" maskUnits="userSpaceOnUse" x="8" y="9" width="6" height="3">
<path d="M8.10559 9.89719H13.8616V11.2239H8.10559V9.89719Z" fill="white"/>
</mask>
<g mask="url(#mask62_8570_120158)">
<mask id="mask63_8570_120158" style="mask-type:luminance" maskUnits="userSpaceOnUse" x="8" y="9" width="6" height="3">
<path d="M8.10559 11.2239V9.89734H13.8616V11.2239H8.10559Z" fill="white"/>
</mask>
<g mask="url(#mask63_8570_120158)">
<path d="M8.10559 9.89719H13.8616V11.2239H8.10559V9.89719Z" fill="url(#paint13_linear_8570_120158)"/>
</g>
</g>
</g>
</g>
</g>
</g>
</g>
</g>
</mask>
<g mask="url(#mask55_8570_120158)">
<mask id="mask64_8570_120158" style="mask-type:luminance" maskUnits="userSpaceOnUse" x="9" y="9" width="6" height="3">
<path d="M9.71863 9.18183H14.2778V11.9355H9.71863V9.18183Z" fill="white"/>
</mask>
<g mask="url(#mask64_8570_120158)">
<mask id="mask65_8570_120158" style="mask-type:luminance" maskUnits="userSpaceOnUse" x="9" y="10" width="6" height="2">
<path d="M9.86487 11.1648H14.0098V10.2742H9.86487V11.1648Z" fill="white"/>
</mask>
<g mask="url(#mask65_8570_120158)">
<path d="M10.0751 10.2847L10.0878 10.2862C10.0984 10.2867 10.1089 10.2878 10.1193 10.2897C10.1231 10.2897 10.1264 10.2905 10.1295 10.2909L10.1875 10.2985C10.1909 10.2993 10.194 10.2993 10.1971 10.3003L10.2459 10.3084C10.2498 10.3096 10.2539 10.3104 10.258 10.3108L10.3705 10.3355L10.3808 10.3379L10.4263 10.3506C10.4308 10.3519 10.4343 10.3526 10.4384 10.3546L10.4922 10.3697C10.4928 10.3706 10.4937 10.3706 10.4958 10.3713L10.5413 10.3873L10.5595 10.3934L10.5928 10.4085C10.5989 10.4101 10.6054 10.4125 10.6119 10.4151L10.6565 10.4337L10.6782 10.4431L10.7054 10.4546C10.713 10.4589 10.7217 10.4625 10.7291 10.466L10.753 10.4781C10.9467 10.5733 11.1251 10.6997 11.29 10.854C11.3492 10.7918 11.4127 10.7339 11.4803 10.6809C11.1195 10.4252 10.7103 10.2793 10.2386 10.2793C10.1836 10.2791 10.1286 10.2814 10.0739 10.2862" fill="#7DCBEC"/>
<path d="M11.2913 10.8526C11.3924 10.9468 11.4893 11.0516 11.5793 11.1648L11.844 10.9884C11.7285 10.8729 11.6065 10.7692 11.4799 10.6795C11.4141 10.731 11.3508 10.7886 11.2897 10.8526" fill="#5EC5ED"/>
<mask id="mask66_8570_120158" style="mask-type:luminance" maskUnits="userSpaceOnUse" x="9" y="10" width="4" height="1">
<path d="M10.075 10.2848L10.2398 10.2778C10.7115 10.2778 11.1189 10.4237 11.4814 10.6794C11.8626 10.3793 12.3231 10.2741 12.9627 10.2741H9.86511C9.93635 10.2741 10.0064 10.2781 10.075 10.2848Z" fill="white"/>
</mask>
<g mask="url(#mask66_8570_120158)">
<mask id="mask67_8570_120158" style="mask-type:luminance" maskUnits="userSpaceOnUse" x="9" y="9" width="5" height="3">
<path d="M10.3168 9.18173L13.1034 10.3375L12.5051 11.7798L9.71851 10.6239L10.3168 9.18173Z" fill="white"/>
</mask>
<g mask="url(#mask67_8570_120158)">
<mask id="mask68_8570_120158" style="mask-type:luminance" maskUnits="userSpaceOnUse" x="9" y="9" width="5" height="3">
<path d="M10.3168 9.18158L13.1034 10.3375L12.5051 11.7798L9.71851 10.6239L10.3168 9.18158Z" fill="white"/>
</mask>
<g mask="url(#mask68_8570_120158)">
<path d="M10.3168 9.18173L13.1034 10.3375L12.5051 11.7798L9.71851 10.6239L10.3168 9.18173Z" fill="url(#paint14_linear_8570_120158)"/>
</g>
</g>
</g>
<mask id="mask69_8570_120158" style="mask-type:luminance" maskUnits="userSpaceOnUse" x="11" y="10" width="4" height="1">
<path d="M12.963 10.2741C12.3234 10.2741 11.8629 10.3791 11.4817 10.6794C11.6082 10.7691 11.7303 10.8728 11.8458 10.9883C12.3758 10.6509 12.9011 10.4278 13.4191 10.3305C13.6168 10.2932 13.814 10.2744 14.0084 10.2744H12.963V10.2741Z" fill="white"/>
</mask>
<g mask="url(#mask69_8570_120158)">
<mask id="mask70_8570_120158" style="mask-type:luminance" maskUnits="userSpaceOnUse" x="11" y="9" width="4" height="3">
<path d="M11.2142 10.3911L13.5787 9.31948L14.2781 10.862L11.9136 11.9336L11.2142 10.3911Z" fill="white"/>
</mask>
<g mask="url(#mask70_8570_120158)">
<mask id="mask71_8570_120158" style="mask-type:luminance" maskUnits="userSpaceOnUse" x="11" y="9" width="4" height="3">
<path d="M11.2142 10.3911L13.5787 9.31917L14.2779 10.8617L11.9134 11.9336L11.2142 10.3911Z" fill="white"/>
</mask>
<g mask="url(#mask71_8570_120158)">
<path d="M11.2142 10.3911L13.5787 9.31948L14.2781 10.862L11.9136 11.9336L11.2142 10.3911Z" fill="url(#paint15_linear_8570_120158)"/>
</g>
</g>
</g>
</g>
</g>
</g>
<mask id="mask72_8570_120158" style="mask-type:luminance" maskUnits="userSpaceOnUse" x="14" y="10" width="15" height="9">
<mask id="mask73_8570_120158" style="mask-type:luminance" maskUnits="userSpaceOnUse" x="14" y="10" width="15" height="9">
<path d="M14.62 10.7912H28.1855V18.2383H14.62V10.7912Z" fill="white"/>
</mask>
<g mask="url(#mask73_8570_120158)">
<mask id="mask74_8570_120158" style="mask-type:luminance" maskUnits="userSpaceOnUse" x="14" y="10" width="15" height="9">
<path d="M14.4733 10.6453H28.3373V18.3899H14.4733V10.6453Z" fill="white"/>
</mask>
<g mask="url(#mask74_8570_120158)">
<mask id="mask75_8570_120158" style="mask-type:luminance" maskUnits="userSpaceOnUse" x="14" y="10" width="15" height="9">
<path d="M14.62 18.2327H28.1827V10.7912H14.62V18.2327Z" fill="white"/>
</mask>
<g mask="url(#mask75_8570_120158)">
<mask id="mask76_8570_120158" style="mask-type:luminance" maskUnits="userSpaceOnUse" x="14" y="10" width="15" height="9">
<path d="M14.62 10.791H28.1855V18.238H14.62V10.791Z" fill="white"/>
</mask>
<g mask="url(#mask76_8570_120158)">
<mask id="mask77_8570_120158" style="mask-type:luminance" maskUnits="userSpaceOnUse" x="14" y="10" width="15" height="9">
<path d="M14.62 18.2327H28.1827V10.7912H14.62V18.2327Z" fill="white"/>
</mask>
<g mask="url(#mask77_8570_120158)">
<mask id="mask78_8570_120158" style="mask-type:luminance" maskUnits="userSpaceOnUse" x="14" y="10" width="15" height="9">
<path d="M28.1817 18.2327H14.6207V10.7912H28.1817V18.2327Z" fill="white"/>
</mask>
<g mask="url(#mask78_8570_120158)">
<mask id="mask79_8570_120158" style="mask-type:luminance" maskUnits="userSpaceOnUse" x="14" y="10" width="15" height="9">
<path d="M14.6245 10.7966H28.1854V18.238H14.6245V10.7967V10.7966Z" fill="white"/>
</mask>
<g mask="url(#mask79_8570_120158)">
<mask id="mask80_8570_120158" style="mask-type:luminance" maskUnits="userSpaceOnUse" x="14" y="10" width="15" height="9">
<path d="M14.6248 18.238V10.7967H28.1857V18.238H14.6248Z" fill="white"/>
</mask>
<g mask="url(#mask80_8570_120158)">
<path d="M14.6245 10.7966H28.1854V18.238H14.6245V10.7967V10.7966Z" fill="url(#paint16_linear_8570_120158)"/>
</g>
</g>
</g>
</g>
</g>
</g>
</g>
</g>
</mask>
<g mask="url(#mask72_8570_120158)">
<mask id="mask81_8570_120158" style="mask-type:luminance" maskUnits="userSpaceOnUse" x="18" y="10" width="6" height="8">
<path d="M18.8062 10.0801H23.794V17.7778H18.8062V10.0801Z" fill="white"/>
</mask>
<g mask="url(#mask81_8570_120158)">
<mask id="mask82_8570_120158" style="mask-type:luminance" maskUnits="userSpaceOnUse" x="18" y="10" width="6" height="8">
<path d="M18.8064 17.7778H23.7708V10.0823H18.8064V17.7778Z" fill="white"/>
</mask>
<g mask="url(#mask82_8570_120158)">
<mask id="mask83_8570_120158" style="mask-type:luminance" maskUnits="userSpaceOnUse" x="18" y="10" width="6" height="8">
<path d="M20.5546 15.7359L21.5358 12.6081C21.8874 11.4822 22.5108 10.6412 23.6817 10.2736L23.7716 10.0823C21.8618 10.1965 20.9716 11.1676 20.5227 12.6048C19.7378 15.1145 19.2625 16.7414 18.8049 17.7778C19.3895 17.2188 19.9738 16.5328 20.5546 15.7359Z" fill="white"/>
</mask>
<g mask="url(#mask83_8570_120158)">
<mask id="mask84_8570_120158" style="mask-type:luminance" maskUnits="userSpaceOnUse" x="18" y="10" width="6" height="8">
<path d="M23.794 17.7756H18.827V10.0801H23.794V17.7756Z" fill="white"/>
</mask>
<g mask="url(#mask84_8570_120158)">
<mask id="mask85_8570_120158" style="mask-type:luminance" maskUnits="userSpaceOnUse" x="18" y="10" width="6" height="8">
<path d="M23.794 10.0805V17.7756H18.827V10.0805H23.794Z" fill="white"/>
</mask>
<g mask="url(#mask85_8570_120158)">
<path d="M23.794 17.7756H18.827V10.0801H23.794V17.7756Z" fill="url(#paint17_linear_8570_120158)"/>
</g>
</g>
</g>
</g>
</g>
</g>
</g>
<defs>
<linearGradient id="paint0_linear_8570_120158" x1="799.963" y1="-3194.73" x2="799.963" y2="-2601.87" gradientUnits="userSpaceOnUse">
<stop stop-color="#0994DC"/>
<stop offset="0.11" stop-color="#0994DC"/>
<stop offset="0.35" stop-color="#66CEF5"/>
<stop offset="0.45" stop-color="#66CEF5"/>
<stop offset="0.846" stop-color="#127BCA"/>
<stop offset="1" stop-color="#127BCA"/>
</linearGradient>
<linearGradient id="paint1_linear_8570_120158" x1="853.405" y1="-3291.61" x2="853.405" y2="-2668.15" gradientUnits="userSpaceOnUse">
<stop stop-color="#0E76BC"/>
<stop offset="0.176" stop-color="#0E76BC"/>
<stop offset="0.36" stop-color="#36AEE8"/>
<stop offset="0.52" stop-color="#36AEE8"/>
<stop offset="0.846" stop-color="#00ADEF"/>
<stop offset="1" stop-color="#00ADEF"/>
</linearGradient>
<linearGradient id="paint2_linear_8570_120158" x1="854.987" y1="-3484.71" x2="854.987" y2="-2812.63" gradientUnits="userSpaceOnUse">
<stop stop-color="#166AB8"/>
<stop offset="0.099" stop-color="#166AB8"/>
<stop offset="0.4" stop-color="#36AEE8"/>
<stop offset="0.516" stop-color="#36AEE8"/>
<stop offset="0.846" stop-color="#0798DD"/>
<stop offset="1" stop-color="#0798DD"/>
</linearGradient>
<linearGradient id="paint3_linear_8570_120158" x1="1066.48" y1="-3702.65" x2="1066.48" y2="-2942.72" gradientUnits="userSpaceOnUse">
<stop stop-color="#124379"/>
<stop offset="0.11" stop-color="#124379"/>
<stop offset="0.39" stop-color="#1487CB"/>
<stop offset="0.52" stop-color="#1487CB"/>
<stop offset="0.78" stop-color="#165197"/>
<stop offset="1" stop-color="#165197"/>
</linearGradient>
<linearGradient id="paint4_linear_8570_120158" x1="642.777" y1="-2481.14" x2="642.777" y2="-2919.11" gradientUnits="userSpaceOnUse">
<stop stop-color="#318ED5"/>
<stop offset="0.675" stop-color="#38A7E4"/>
<stop offset="1" stop-color="#38A7E4"/>
</linearGradient>
<linearGradient id="paint5_linear_8570_120158" x1="3005.13" y1="-8176.21" x2="1784.5" y2="-6021.83" gradientUnits="userSpaceOnUse">
<stop stop-color="#231F20"/>
<stop offset="0.129" stop-color="white"/>
<stop offset="0.4" stop-color="white"/>
<stop offset="1" stop-color="white"/>
</linearGradient>
<linearGradient id="paint6_linear_8570_120158" x1="615.818" y1="-1912.78" x2="615.818" y2="-2242.22" gradientUnits="userSpaceOnUse">
<stop stop-color="#05A1E6"/>
<stop offset="1" stop-color="#05A1E6"/>
</linearGradient>
<linearGradient id="paint7_linear_8570_120158" x1="725.151" y1="-2699.08" x2="725.151" y2="-3094.24" gradientUnits="userSpaceOnUse">
<stop stop-color="#1959A6"/>
<stop offset="0.154" stop-color="#1959A6"/>
<stop offset="0.484" stop-color="#05A1E6"/>
<stop offset="0.5" stop-color="#05A1E6"/>
<stop offset="0.918" stop-color="#7EC5EA"/>
<stop offset="1" stop-color="#7EC5EA"/>
</linearGradient>
<linearGradient id="paint8_linear_8570_120158" x1="1480.2" y1="-4172.22" x2="1347.39" y2="-4819.93" gradientUnits="userSpaceOnUse">
<stop stop-color="#165096"/>
<stop offset="0.104" stop-color="#165096"/>
<stop offset="1" stop-color="#0D82CA"/>
</linearGradient>
<linearGradient id="paint9_linear_8570_120158" x1="758.702" y1="-2092.15" x2="758.702" y2="-2250.16" gradientUnits="userSpaceOnUse">
<stop stop-color="#05A1E6"/>
<stop offset="0.649" stop-color="#05A1E6"/>
<stop offset="0.874" stop-color="#0495D6"/>
<stop offset="1" stop-color="#0495D6"/>
</linearGradient>
<linearGradient id="paint10_linear_8570_120158" x1="3433.82" y1="-1973.16" x2="3433.82" y2="-1825.84" gradientUnits="userSpaceOnUse">
<stop stop-color="#231F20"/>
<stop offset="1" stop-color="white"/>
</linearGradient>
<linearGradient id="paint11_linear_8570_120158" x1="2239.18" y1="-4640.01" x2="2077.33" y2="-3908.22" gradientUnits="userSpaceOnUse">
<stop stop-color="#38A7E4"/>
<stop offset="0.357" stop-color="#38A7E4"/>
<stop offset="0.962" stop-color="#0E88D3"/>
<stop offset="1" stop-color="#0E88D3"/>
</linearGradient>
<linearGradient id="paint12_linear_8570_120158" x1="1622.61" y1="-3869.86" x2="1622.61" y2="-3278.62" gradientUnits="userSpaceOnUse">
<stop stop-color="#168CD4"/>
<stop offset="0.5" stop-color="#1C87CC"/>
<stop offset="1" stop-color="#154B8D"/>
</linearGradient>
<linearGradient id="paint13_linear_8570_120158" x1="943.773" y1="-529.305" x2="943.773" y2="-540.918" gradientUnits="userSpaceOnUse">
<stop stop-color="white"/>
<stop offset="0.363" stop-color="white"/>
<stop offset="1" stop-color="#918F90"/>
</linearGradient>
<linearGradient id="paint14_linear_8570_120158" x1="546.431" y1="-1070.31" x2="591.072" y2="-1046.19" gradientUnits="userSpaceOnUse">
<stop stop-color="#97D6EE"/>
<stop offset="0.703" stop-color="#55C1EA"/>
<stop offset="1" stop-color="#55C1EA"/>
</linearGradient>
<linearGradient id="paint15_linear_8570_120158" x1="522.861" y1="-1058.04" x2="555.936" y2="-1075.61" gradientUnits="userSpaceOnUse">
<stop stop-color="#7ACCEC"/>
<stop offset="0.335" stop-color="#7ACCEC"/>
<stop offset="0.841" stop-color="#3FB7ED"/>
<stop offset="1" stop-color="#3FB7ED"/>
</linearGradient>
<linearGradient id="paint16_linear_8570_120158" x1="3151.44" y1="-2669.24" x2="3151.44" y2="-3034.6" gradientUnits="userSpaceOnUse">
<stop stop-color="#231F20"/>
<stop offset="1" stop-color="white"/>
</linearGradient>
<linearGradient id="paint17_linear_8570_120158" x1="1164.64" y1="-3150.79" x2="1164.64" y2="-2675.7" gradientUnits="userSpaceOnUse">
<stop stop-color="#1DA7E7"/>
<stop offset="1" stop-color="#37ABE7"/>
</linearGradient>
<clipPath id="clip0_8570_120158">
<rect width="26" height="26" fill="white" transform="translate(2 2)"/>
</clipPath>
</defs>
</svg>
