<svg width="100%" height="100%" viewBox="0 0 30 30" fill="none" xmlns="http://www.w3.org/2000/svg">
<path d="M20.0627 17.9709C19.8814 17.9709 19.7041 17.9189 19.5534 17.8216C19.4027 17.7242 19.2852 17.5859 19.2158 17.424C19.1464 17.2622 19.1282 17.0841 19.1636 16.9122C19.199 16.7404 19.2863 16.5826 19.4145 16.4587C19.5427 16.3348 19.706 16.2504 19.8838 16.2162C20.0617 16.1821 20.246 16.1996 20.4135 16.2666C20.581 16.3337 20.7241 16.4472 20.8249 16.5929C20.9256 16.7386 20.9793 16.9098 20.9793 17.085C20.9793 17.32 20.8828 17.5453 20.7109 17.7114C20.5389 17.8775 20.3058 17.9709 20.0627 17.9709ZM9.93733 17.9709C9.75603 17.9709 9.5788 17.9189 9.42805 17.8216C9.27731 17.7242 9.15982 17.5859 9.09044 17.424C9.02106 17.2622 9.0029 17.0841 9.03827 16.9122C9.07364 16.7404 9.16095 16.5826 9.28914 16.4587C9.41734 16.3348 9.58068 16.2504 9.75849 16.2162C9.93631 16.1821 10.1206 16.1996 10.2881 16.2666C10.4556 16.3337 10.5988 16.4472 10.6995 16.5929C10.8002 16.7386 10.854 16.9098 10.854 17.085C10.854 17.32 10.7574 17.5453 10.5855 17.7114C10.4136 17.8775 10.1804 17.9709 9.93733 17.9709ZM20.3911 12.6382L22.2222 9.57475C22.2513 9.53279 22.2712 9.48551 22.2807 9.43581C22.2901 9.38612 22.2889 9.33508 22.2771 9.28586C22.2653 9.23664 22.2432 9.19028 22.2121 9.14965C22.181 9.10903 22.1417 9.075 22.0964 9.04968C22.0512 9.02437 22.001 9.00829 21.9491 9.00246C21.8972 8.99664 21.8445 9.00117 21.7945 9.01579C21.7444 9.03042 21.698 9.05481 21.6581 9.08747C21.6183 9.12013 21.5857 9.16035 21.5626 9.20566V9.20566L19.7086 12.3086C18.2277 11.6668 16.623 11.335 15 11.335C13.377 11.335 11.7723 11.6668 10.2914 12.3086L8.43743 9.20566C8.41428 9.16035 8.38175 9.12013 8.34186 9.08747C8.30196 9.05481 8.25556 9.03042 8.20551 9.01579C8.15546 9.00117 8.10284 8.99664 8.05091 9.00246C7.99897 9.00829 7.94883 9.02437 7.90358 9.04968C7.85834 9.075 7.81895 9.10903 7.78787 9.14965C7.75678 9.19028 7.73466 9.23664 7.72287 9.28586C7.71108 9.33508 7.70987 9.38612 7.71932 9.43581C7.72877 9.48551 7.74868 9.53279 7.77781 9.57475L9.60885 12.6382C6.46469 14.2906 4.31472 17.3663 4 21H26C25.6853 17.3663 23.5349 14.2906 20.3911 12.6382" fill="#A3EDBA"/>
</svg>
