<svg width="100%" height="100%" viewBox="0 0 30 31" fill="none" xmlns="http://www.w3.org/2000/svg">
<g clip-path="url(#clip0_8570_120166)">
<path d="M14.7888 3.08185C13.8671 3.08284 12.947 3.16272 12.0385 3.32065C9.60294 3.75822 9.16072 4.67422 9.16072 6.36336V8.59427H14.9162V9.3379H7.00075C6.15359 9.3221 5.32821 9.61123 4.67031 10.1543C4.01241 10.6973 3.56432 11.4593 3.40517 12.3056C2.86494 14.2506 2.86494 16.3097 3.40517 18.2546C3.8143 19.9876 4.79133 21.2224 6.4641 21.2224H8.44315V18.548C8.46415 17.5868 8.85033 16.6712 9.52067 15.9933C10.191 15.3153 11.0934 14.9277 12.0386 14.9118H17.7873C18.1684 14.9088 18.5451 14.8295 18.896 14.6784C19.2469 14.5273 19.5651 14.3073 19.8324 14.0311C20.0996 13.7548 20.3107 13.4277 20.4536 13.0684C20.5965 12.7092 20.6684 12.3248 20.6651 11.9372V6.36336C20.6167 5.59196 20.3011 4.86296 19.7742 4.30589C19.2473 3.74881 18.5434 3.39973 17.7873 3.32065C16.7962 3.15584 15.7931 3.07596 14.7888 3.08185V3.08185ZM11.6762 4.876C11.8937 4.87259 12.1073 4.93503 12.2898 5.05537C12.4724 5.17572 12.6156 5.34854 12.7013 5.55187C12.787 5.75519 12.8113 5.97985 12.7712 6.19728C12.7311 6.41471 12.6283 6.61509 12.4759 6.77296C12.3235 6.93083 12.1284 7.03906 11.9154 7.08388C11.7024 7.12871 11.4811 7.10811 11.2796 7.02471C11.0782 6.94131 10.9056 6.79887 10.7839 6.61549C10.6622 6.43211 10.5969 6.21608 10.5962 5.99486C10.5941 5.70101 10.7066 5.41827 10.909 5.20858C11.1114 4.99889 11.3873 4.87933 11.6762 4.87609V4.876Z" fill="url(#paint0_linear_8570_120166)"/>
<path d="M21.3835 9.33789V11.9372C21.3728 12.9088 20.9922 13.8383 20.3217 14.5304C19.6512 15.2225 18.743 15.6232 17.788 15.6484H12.0391C11.2725 15.6639 10.5423 15.9838 10.0046 16.5396C9.46681 17.0955 9.16419 17.8432 9.16138 18.623V24.1973C9.16138 25.7836 10.5177 26.7166 12.0391 27.1717C13.9107 27.7671 15.9164 27.7671 17.788 27.1717C19.2369 26.7451 20.6657 25.8864 20.6657 24.1973V21.9664H14.9169V21.2227H23.5434C25.2162 21.2227 25.8392 20.0361 26.4212 18.255C27.0118 16.3175 27.0118 14.2435 26.4212 12.306C26.0079 10.6124 25.2183 9.33822 23.5434 9.33822L21.3835 9.33789ZM18.1501 23.4536C18.3679 23.4502 18.5818 23.5128 18.7644 23.6335C18.9471 23.7541 19.0903 23.9273 19.1759 24.1311C19.2614 24.3348 19.2853 24.5598 19.2446 24.7774C19.204 24.9951 19.1005 25.1954 18.9474 25.353C18.7944 25.5106 18.5986 25.6183 18.3852 25.6624C18.1717 25.7064 17.9502 25.6848 17.7488 25.6004C17.5475 25.5159 17.3754 25.3724 17.2545 25.1881C17.1337 25.0038 17.0695 24.7871 17.0702 24.5656C17.0692 24.4204 17.0964 24.2764 17.1502 24.1419C17.2039 24.0074 17.2833 23.885 17.3836 23.7817C17.4839 23.6784 17.6033 23.5962 17.7349 23.5399C17.8665 23.4835 18.0077 23.4541 18.1505 23.4533L18.1501 23.4536Z" fill="url(#paint1_linear_8570_120166)"/>
</g>
<defs>
<linearGradient id="paint0_linear_8570_120166" x1="2.328" y1="3.75093" x2="15.7881" y2="15.0273" gradientUnits="userSpaceOnUse">
<stop stop-color="#5A9FD4"/>
<stop offset="1" stop-color="#306998"/>
</linearGradient>
<linearGradient id="paint1_linear_8570_120166" x1="20.5808" y1="22.421" x2="15.7119" y2="15.7133" gradientUnits="userSpaceOnUse">
<stop stop-color="#FFD43B"/>
<stop offset="1" stop-color="#FFE873"/>
</linearGradient>
<clipPath id="clip0_8570_120166">
<rect width="30" height="30.303" fill="white"/>
</clipPath>
</defs>
</svg>
