<svg width="240" height="240" viewBox="0 0 240 240" fill="none" xmlns="http://www.w3.org/2000/svg">
<path d="M220 240H20L0 220V20L20 0H220L240 20V220L220 240Z" fill="#2F2B38"/>
<path d="M190 190L166.7 131.7L120 155L190 190Z" fill="#8087E8"/>
<path d="M166.701 131.7H73.3008L120.001 155L166.701 131.7Z" fill="#78758C"/>
<path d="M120 155L50 190H190L120 155Z" fill="white"/>
<path d="M73.3 131.7L50 190L120 155L73.3 131.7Z" fill="#8087E8"/>
<path d="M119.899 50C96.1992 49.5 78.6992 74.6 86.8992 96.7C88.5992 104 115.599 136.7 119.899 143.4C124.399 136.5 151.099 104.2 152.899 96.7C161.099 74.6 143.599 49.5 119.899 50Z" fill="#A3EDBA"/>
<path d="M119.899 96.7C126.361 96.7 131.599 91.4618 131.599 85C131.599 78.5383 126.361 73.3 119.899 73.3C113.437 73.3 108.199 78.5383 108.199 85C108.199 91.4618 113.437 96.7 119.899 96.7Z" fill="#30426B" stroke="#30426B" stroke-width="0.0894931" stroke-miterlimit="10" stroke-linecap="round"/>
</svg>
