<svg width="480" height="480" viewBox="0 0 480 480" fill="none" xmlns="http://www.w3.org/2000/svg">
<g clip-path="url(#clip0_8726_118644)">
<path d="M480 0H0V480H480V0Z" fill="#8087E8"/>
<path d="M240 0H0V480H240V0Z" fill="#5749AD"/>
<g clip-path="url(#clip1_8726_118644)">
<path d="M238.284 305C237.584 305 236.89 304.817 236.276 304.463L229.885 300.674C228.93 300.14 229.396 299.951 229.711 299.842C230.983 299.395 231.242 299.295 232.6 298.522C232.743 298.441 232.93 298.469 233.076 298.556L237.987 301.473C238.164 301.569 238.415 301.569 238.58 301.473L257.725 290.408C257.903 290.307 258.018 290.101 258.018 289.89V267.77C258.018 267.549 257.903 267.352 257.721 267.242L238.584 256.187C238.406 256.081 238.171 256.081 237.994 256.187L218.86 267.242C218.675 267.348 218.557 267.554 218.557 267.765V289.885C218.557 290.096 218.672 290.298 218.854 290.399L224.097 293.431C226.943 294.856 228.683 293.177 228.683 291.488V269.656C228.683 269.344 228.928 269.104 229.239 269.104H231.664C231.966 269.104 232.215 269.344 232.215 269.656V291.497C232.215 295.298 230.145 297.481 226.546 297.481C225.439 297.481 224.566 297.481 222.132 296.281L217.11 293.383C215.868 292.663 215.102 291.32 215.102 289.885V267.765C215.102 266.325 215.868 264.982 217.11 264.272L236.274 253.202C237.487 252.516 239.097 252.516 240.3 253.202L259.44 264.277C260.677 264.992 261.448 266.33 261.448 267.77V289.89C261.448 291.325 260.677 292.663 259.44 293.383L240.3 304.453C239.686 304.808 238.991 304.99 238.282 304.99" fill="#7FC578"/>
<path d="M244.196 289.758C235.819 289.758 234.062 285.908 234.062 282.679C234.062 282.372 234.31 282.127 234.617 282.127H237.09C237.363 282.127 237.593 282.326 237.636 282.596C238.01 285.119 239.122 286.392 244.187 286.392C248.222 286.392 249.938 285.479 249.938 283.337C249.938 282.103 249.449 281.187 243.181 280.573C237.938 280.055 234.698 278.898 234.698 274.7C234.698 270.832 237.957 268.529 243.416 268.529C249.545 268.529 252.584 270.659 252.967 275.237C252.981 275.395 252.924 275.549 252.818 275.664C252.713 275.774 252.564 275.842 252.411 275.842H249.924C249.665 275.842 249.44 275.659 249.387 275.41C248.788 272.756 247.341 271.907 243.406 271.907C239.002 271.907 238.489 273.443 238.489 274.594C238.489 275.99 239.093 276.398 245.036 277.185C250.921 277.967 253.715 279.071 253.715 283.212C253.715 287.386 250.235 289.781 244.168 289.781M267.488 266.322H268.13C268.657 266.322 268.758 265.952 268.758 265.736C268.758 265.17 268.37 265.17 268.154 265.17H267.493L267.488 266.322ZM266.707 264.508H268.13C268.619 264.508 269.577 264.508 269.577 265.602C269.577 266.365 269.088 266.523 268.796 266.619C269.366 266.658 269.405 267.032 269.481 267.56C269.52 267.891 269.582 268.462 269.697 268.654H268.82C268.796 268.462 268.662 267.406 268.662 267.349C268.604 267.114 268.523 266.998 268.231 266.998H267.507V268.659H266.707V264.508ZM264.996 266.571C264.996 268.289 266.381 269.681 268.082 269.681C269.798 269.681 271.183 268.26 271.183 266.571C271.183 264.849 269.778 263.481 268.077 263.481C266.4 263.481 264.991 264.83 264.991 266.567M271.777 266.581C271.777 268.615 270.114 270.276 268.087 270.276C266.074 270.276 264.397 268.635 264.397 266.581C264.397 264.489 266.112 262.886 268.087 262.886C270.076 262.886 271.772 264.494 271.772 266.581" fill="#7FC578"/>
<path fill-rule="evenodd" clip-rule="evenodd" d="M178.997 218.449C178.997 217.566 178.532 216.755 177.771 216.316L157.472 204.622C157.13 204.421 156.746 204.315 156.357 204.301H156.147C155.758 204.315 155.374 204.421 155.025 204.622L134.728 216.316C133.972 216.757 133.5 217.568 133.5 218.451L133.545 249.947C133.545 250.384 133.77 250.792 134.153 251.007C134.527 251.238 134.997 251.238 135.37 251.007L147.438 244.088C148.2 243.634 148.664 242.832 148.664 241.958V227.244C148.664 226.366 149.129 225.555 149.889 225.118L155.026 222.156C155.408 221.935 155.827 221.826 156.253 221.826C156.673 221.826 157.101 221.934 157.472 222.155L162.607 225.117C163.367 225.553 163.834 226.364 163.834 227.242V241.955C163.834 242.829 164.305 243.635 165.063 244.086L177.123 251C177.502 251.226 177.973 251.226 178.35 251C178.722 250.784 178.957 250.376 178.957 249.94L178.997 218.449ZM274.781 234.847C274.781 235.067 274.664 235.269 274.474 235.378L267.502 239.402C267.313 239.511 267.079 239.511 266.89 239.402L259.917 235.378C259.725 235.269 259.61 235.066 259.61 234.847V226.788C259.61 226.568 259.725 226.366 259.912 226.255L266.88 222.225C267.072 222.114 267.307 222.114 267.499 222.225L274.471 226.255C274.663 226.366 274.778 226.568 274.778 226.788L274.781 234.847ZM276.664 175.155C276.283 174.943 275.821 174.949 275.445 175.168C275.071 175.389 274.84 175.792 274.84 176.229V207.418C274.84 207.725 274.677 208.008 274.412 208.161C274.148 208.315 273.82 208.315 273.554 208.161L268.469 205.229C267.712 204.791 266.779 204.791 266.019 205.229L245.714 216.963C244.955 217.399 244.487 218.21 244.487 219.083V242.557C244.487 243.435 244.955 244.241 245.714 244.682L266.019 256.424C266.777 256.86 267.711 256.86 268.471 256.424L288.777 244.678C289.534 244.236 290.004 243.43 290.004 242.552V184.051C290.004 183.16 289.519 182.341 288.743 181.906L276.664 175.155ZM344.281 226.576C345.035 226.137 345.499 225.327 345.499 224.454V218.765C345.499 217.89 345.035 217.082 344.279 216.642L324.103 204.915C323.341 204.473 322.407 204.473 321.645 204.915L301.344 216.647C300.582 217.088 300.117 217.894 300.117 218.772V242.236C300.117 243.119 300.592 243.935 301.354 244.371L321.525 255.883C322.268 256.31 323.178 256.314 323.931 255.897L336.132 249.107C336.515 248.891 336.76 248.484 336.76 248.042C336.76 247.601 336.525 247.188 336.141 246.972L315.716 235.235C315.333 235.019 315.098 234.612 315.098 234.175V226.814C315.098 226.375 315.328 225.97 315.712 225.751L322.066 222.08C322.445 221.86 322.91 221.86 323.288 222.08L329.648 225.751C330.026 225.967 330.261 226.375 330.261 226.812V232.598C330.261 233.035 330.496 233.443 330.875 233.663C331.253 233.879 331.723 233.879 332.101 233.659L344.281 226.576Z" fill="white"/>
<path fill-rule="evenodd" clip-rule="evenodd" d="M322.579 225.478C322.722 225.393 322.903 225.393 323.048 225.478L326.945 227.729C327.09 227.813 327.179 227.969 327.179 228.137V232.642C327.179 232.81 327.09 232.966 326.945 233.05L323.048 235.3C322.903 235.385 322.722 235.385 322.579 235.3L318.685 233.05C318.536 232.966 318.445 232.81 318.445 232.642V228.137C318.445 227.969 318.532 227.813 318.68 227.729L322.579 225.478Z" fill="#7FC578"/>
<mask id="mask0_8726_118644" style="mask-type:luminance" maskUnits="userSpaceOnUse" x="189" y="204" width="46" height="53">
<path d="M210.524 205.032L190.333 216.7C189.577 217.137 189.113 217.943 189.113 218.815V242.167C189.113 243.039 189.577 243.844 190.333 244.281L210.525 255.958C211.28 256.393 212.211 256.393 212.964 255.958L233.153 244.281C233.905 243.844 234.37 243.038 234.37 242.167V218.815C234.37 217.943 233.905 217.137 233.148 216.7L212.962 205.032C212.584 204.815 212.162 204.706 211.74 204.706C211.319 204.706 210.897 204.815 210.518 205.032" fill="white"/>
</mask>
<g mask="url(#mask0_8726_118644)">
<path d="M254.774 214.719L197.882 186.798L168.711 246.38L225.602 274.303L254.774 214.719Z" fill="url(#paint0_linear_8726_118644)"/>
</g>
<mask id="mask1_8726_118644" style="mask-type:luminance" maskUnits="userSpaceOnUse" x="189" y="204" width="45" height="53">
<path d="M189.613 243.649C189.806 243.9 190.048 244.118 190.332 244.281L207.652 254.297L210.537 255.957C210.968 256.207 211.46 256.313 211.943 256.277C212.104 256.264 212.265 256.233 212.422 256.189L233.716 217.15C233.553 216.972 233.363 216.823 233.149 216.699L219.929 209.055L212.941 205.029C212.742 204.914 212.527 204.832 212.308 204.775L189.613 243.649Z" fill="white"/>
</mask>
<g mask="url(#mask1_8726_118644)">
<path d="M165.016 222.977L205.188 277.416L258.316 238.115L218.141 183.678L165.016 222.977Z" fill="url(#paint1_linear_8726_118644)"/>
</g>
<mask id="mask2_8726_118644" style="mask-type:luminance" maskUnits="userSpaceOnUse" x="190" y="204" width="45" height="53">
<path d="M211.502 204.719C211.164 204.753 210.833 204.858 210.527 205.032L190.395 216.666L212.104 256.257C212.406 256.214 212.703 256.113 212.971 255.958L233.162 244.281C233.785 243.919 234.211 243.307 234.34 242.613L212.209 204.759C212.046 204.727 211.883 204.71 211.716 204.71C211.649 204.71 211.582 204.713 211.514 204.72" fill="white"/>
</mask>
<g mask="url(#mask2_8726_118644)">
<path d="M190.395 204.71V256.258H234.332V204.71H190.395Z" fill="url(#paint2_linear_8726_118644)"/>
</g>
</g>
<path d="M121.264 206.384L88 158L95.152 197.888L121.264 206.384Z" fill="#6699A1"/>
<path d="M88 329.928L109.264 336.84L102.064 297L88 329.928Z" fill="#8087E8"/>
<path d="M192 369.648L196.176 392.832L214.8 360L192 369.648Z" fill="#6699A1"/>
<path d="M336 102L355.584 157.68L374.112 114.384L336 102Z" fill="#A3EDBA"/>
<path d="M408.056 342.056L404.792 323.912L383.528 317L365 360.248L408.056 342.056Z" fill="#78758C"/>
<path d="M254.264 120.144L277.112 110.496L251 102L254.264 120.144Z" fill="#30426B"/>
</g>
<defs>
<linearGradient id="paint0_linear_8726_118644" x1="226.311" y1="200.715" x2="197.084" y2="260.264" gradientUnits="userSpaceOnUse">
<stop offset="0.3" stop-color="#3E863D"/>
<stop offset="0.5" stop-color="#55934F"/>
<stop offset="0.8" stop-color="#5AAD45"/>
</linearGradient>
<linearGradient id="paint1_linear_8726_118644" x1="185.342" y1="250.508" x2="238.519" y2="211.266" gradientUnits="userSpaceOnUse">
<stop offset="0.57" stop-color="#3E863D"/>
<stop offset="0.72" stop-color="#619857"/>
<stop offset="1" stop-color="#76AC64"/>
</linearGradient>
<linearGradient id="paint2_linear_8726_118644" x1="190.409" y1="230.485" x2="234.341" y2="230.485" gradientUnits="userSpaceOnUse">
<stop offset="0.16" stop-color="#80E057"/>
<stop offset="0.38" stop-color="#8ACA71"/>
<stop offset="0.47" stop-color="#89C676"/>
<stop offset="0.7" stop-color="#7EC271"/>
<stop offset="0.9" stop-color="#55B653"/>
</linearGradient>
<clipPath id="clip0_8726_118644">
<rect width="480" height="480" fill="white"/>
</clipPath>
<clipPath id="clip1_8726_118644">
<rect width="212" height="130" fill="white" transform="translate(133.5 175)"/>
</clipPath>
</defs>
</svg>
