<svg width="480" height="495" viewBox="0 0 480 495" fill="none" xmlns="http://www.w3.org/2000/svg">
<g clip-path="url(#clip0_8445_93044)">
<path d="M0.121183 -0.0239258L0.121094 479.976L480.025 479.976L480.025 -0.0238367L0.121183 -0.0239258Z" fill="#46465C"/>
<path d="M4.45382e-05 240L0 480L480 480L480 240L4.45382e-05 240Z" fill="#2F2B38"/>
<g clip-path="url(#clip1_8445_93044)">
<path d="M238.357 100.002C226.976 100.055 216.108 101.025 206.545 102.715C178.373 107.686 173.259 118.092 173.259 137.282V162.627H239.831V171.075H173.259H148.275C128.927 171.075 111.986 182.691 106.687 204.79C100.574 230.119 100.303 245.926 106.687 272.374C111.419 292.061 122.72 306.089 142.068 306.089H164.957V275.707C164.957 253.758 183.968 234.397 206.545 234.397H273.039C291.549 234.397 306.325 219.173 306.325 200.604V137.282C306.325 119.261 291.105 105.723 273.039 102.715C261.603 100.813 249.737 99.9495 238.357 100.002ZM202.355 120.386C209.231 120.386 214.847 126.087 214.847 133.097C214.847 140.082 209.231 145.73 202.355 145.73C195.454 145.73 189.863 140.082 189.863 133.097C189.863 126.087 195.454 120.386 202.355 120.386Z" fill="#F0F0F0"/>
<path d="M314.627 171.075V200.604C314.627 223.498 295.196 242.767 273.038 242.767H206.544C188.33 242.767 173.258 258.339 173.258 276.56V339.881C173.258 357.903 188.946 368.503 206.544 373.674C227.617 379.863 247.825 380.982 273.038 373.674C289.798 368.827 306.325 359.071 306.325 339.881V314.537H239.83V306.089H306.325H339.611C358.958 306.089 366.168 292.608 372.897 272.374C379.847 251.544 379.551 231.511 372.897 204.79C368.115 185.55 358.983 171.075 339.611 171.075H314.627ZM277.228 331.433C284.129 331.433 289.72 337.082 289.72 344.067C289.72 351.077 284.129 356.778 277.228 356.778C270.352 356.778 264.736 351.077 264.736 344.067C264.736 337.082 270.352 331.433 277.228 331.433Z" fill="#F0F0F0"/>
<mask id="mask0_8445_93044" style="mask-type:alpha" maskUnits="userSpaceOnUse" x="102" y="100" width="276" height="279">
<path fill-rule="evenodd" clip-rule="evenodd" d="M206.545 102.715C216.108 101.025 226.976 100.055 238.357 100.002C249.737 99.9495 261.603 100.813 273.039 102.715C291.105 105.723 306.325 119.261 306.325 137.282L306.325 200.604C306.325 219.173 291.549 234.397 273.039 234.397L206.545 234.397C183.968 234.397 164.957 253.758 164.957 275.707L164.957 306.089L142.068 306.089C122.72 306.089 111.419 292.061 106.687 272.374C100.303 245.926 100.574 230.119 106.687 204.79C111.986 182.691 128.927 171.075 148.275 171.075L173.259 171.075L239.831 171.075L239.831 162.627L173.259 162.627L173.259 137.282C173.259 118.092 178.373 107.686 206.545 102.715ZM214.847 133.097C214.847 126.087 209.231 120.386 202.355 120.386C195.454 120.386 189.863 126.087 189.863 133.097C189.863 140.082 195.454 145.73 202.355 145.73C209.231 145.73 214.847 140.082 214.847 133.097ZM314.627 200.604L314.627 171.075L339.611 171.075C358.983 171.075 368.115 185.55 372.897 204.79C379.551 231.511 379.847 251.544 372.897 272.374C366.168 292.608 358.958 306.089 339.611 306.089L306.325 306.089L239.83 306.089L239.83 314.537L306.325 314.537L306.325 339.881C306.325 359.071 289.798 368.827 273.038 373.674C247.825 380.982 227.617 379.863 206.544 373.674C188.946 368.503 173.258 357.903 173.258 339.881L173.258 276.559C173.258 258.339 188.33 242.767 206.544 242.767L273.038 242.767C295.196 242.767 314.627 223.498 314.627 200.604ZM289.72 344.067C289.72 337.082 284.129 331.433 277.228 331.433C270.352 331.433 264.736 337.082 264.736 344.067C264.736 351.077 270.352 356.778 277.228 356.778C284.129 356.778 289.72 351.077 289.72 344.067Z" fill="#F3F3F3"/>
</mask>
<g mask="url(#mask0_8445_93044)">
<path d="M218.476 208.146L-15.3815 551.786L218.476 208.146Z" fill="#8087E8"/>
<path d="M358.551 304.439L570.55 422.224L358.551 304.439Z" fill="#78758C"/>
<path d="M-199.996 -724.821L-13.5731 552.622L565.576 -299.07L-199.996 -724.821Z" fill="#A3EDBA"/>
<path d="M388.966 467.204L391.546 304.44L218.476 208.146L-15.3815 551.786L388.966 467.204Z" fill="#78758C"/>
<path d="M388.963 467.204L603.473 422.576L391.543 304.44L388.963 467.204Z" fill="#30426B"/>
<path d="M172 306L172 272L150 306L172 306Z" fill="#A3EDBA"/>
<path d="M603.545 422.224L396.773 -53.2168L391.546 304.44L603.545 422.224Z" fill="#6699A1"/>
<path d="M172.996 260L172.996 275L192 275L202 242L188 242L172.996 260Z" fill="#78758C"/>
<path d="M198.002 240L393 332L347 -40.9998L198.002 240Z" fill="#8087E8"/>
</g>
</g>
</g>
<defs>
<clipPath id="clip0_8445_93044">
<rect width="480" height="480" fill="white"/>
</clipPath>
<clipPath id="clip1_8445_93044">
<rect width="480" height="480" fill="white"/>
</clipPath>
</defs>
</svg>
