<svg width="480" height="480" viewBox="0 0 480 480" fill="none" xmlns="http://www.w3.org/2000/svg">
<g clip-path="url(#clip0_8726_123495)">
<path d="M480 0H0V480H480V0Z" fill="#8087E8"/>
<path d="M240 0H0V480H240V0Z" fill="#5749AD"/>
<path d="M314.582 201.266C312.082 200.436 309.582 199.651 307.082 198.912C307.498 197.204 307.869 195.497 308.239 193.789C313.932 166.278 310.183 144.169 297.546 136.876C285.372 129.906 265.514 137.153 245.425 154.6C243.434 156.308 241.49 158.109 239.639 159.909C238.389 158.709 237.093 157.508 235.797 156.354C214.735 137.707 193.627 129.86 180.99 137.199C168.863 144.215 165.252 165.033 170.344 191.065C170.853 193.65 171.409 196.189 172.057 198.774C169.094 199.605 166.178 200.528 163.447 201.497C138.729 210.036 121 223.515 121 237.455C121 251.856 139.886 266.304 165.577 275.074C167.66 275.767 169.743 276.458 171.872 277.058C171.177 279.828 170.576 282.551 170.021 285.367C165.16 310.985 168.956 331.294 181.084 338.264C193.582 345.465 214.597 338.08 235.056 320.216C236.676 318.785 238.297 317.308 239.917 315.739C241.953 317.724 244.082 319.616 246.212 321.463C266.024 338.449 285.604 345.327 297.686 338.356C310.184 331.156 314.257 309.323 308.98 282.736C308.564 280.705 308.1 278.628 307.591 276.505C309.072 276.089 310.508 275.628 311.943 275.166C338.651 266.35 358 252.087 358 237.455C358 223.469 339.762 209.898 314.582 201.266ZM251.952 162.078C269.172 147.123 285.234 141.26 292.548 145.462C300.37 149.939 303.379 168.033 298.473 191.804C298.149 193.374 297.825 194.897 297.408 196.42C287.144 194.101 276.737 192.466 266.255 191.527C260.243 182.924 253.655 174.736 246.537 167.017C248.342 165.309 250.101 163.694 251.952 162.078ZM198.396 261.411C200.757 265.427 203.164 269.442 205.71 273.366C198.495 272.583 191.326 271.428 184.232 269.904C186.397 262.934 188.915 256.079 191.777 249.364C193.906 253.425 196.081 257.441 198.396 261.411ZM184.37 205.882C191.036 204.405 198.118 203.205 205.479 202.282C203.026 206.113 200.619 210.037 198.351 214.006C196.083 217.93 193.86 221.946 191.778 226.008C188.861 219.13 186.408 212.391 184.372 205.883L184.37 205.882ZM197.054 237.686C200.108 231.316 203.442 225.084 206.959 218.945C210.477 212.806 214.273 206.852 218.254 200.99C225.197 200.482 232.28 200.205 239.501 200.205C246.722 200.205 253.85 200.482 260.747 200.99C264.682 206.806 268.432 212.76 271.996 218.853C275.56 224.946 278.908 231.162 282.04 237.501C278.939 243.871 275.606 250.148 272.042 256.333C268.524 262.472 264.774 268.427 260.84 274.335C253.943 274.843 246.767 275.074 239.499 275.074C232.232 275.074 225.195 274.843 218.392 274.427C214.365 268.565 210.569 262.565 207.005 256.426C203.44 250.287 200.154 244.055 197.053 237.686H197.054ZM280.652 261.319C283.013 257.257 285.234 253.148 287.41 248.994C290.365 255.673 292.976 262.498 295.233 269.442C288.053 271.065 280.79 272.298 273.477 273.135C275.976 269.258 278.337 265.288 280.652 261.319ZM287.317 226.008C285.142 221.946 282.92 217.883 280.605 213.914C278.337 209.99 275.977 206.113 273.523 202.282C280.664 203.154 287.755 204.387 294.77 205.974C292.638 212.777 290.15 219.464 287.317 226.008ZM239.593 174.079C244.449 179.342 249.023 184.858 253.295 190.604C244.129 190.188 234.918 190.188 225.753 190.604C230.289 184.649 234.964 179.11 239.593 174.079ZM185.898 145.784C193.675 141.261 210.94 147.723 229.132 163.786C230.289 164.801 231.447 165.909 232.65 167.017C225.487 174.734 218.853 182.922 212.792 191.527C202.331 192.458 191.94 194.061 181.686 196.327C181.084 193.973 180.575 191.573 180.066 189.173C175.715 166.832 178.584 149.985 185.898 145.784ZM174.557 267.457C172.613 266.903 170.715 266.304 168.817 265.657C158.334 262.576 148.467 257.703 139.655 251.256C137.344 249.662 135.381 247.617 133.885 245.245C132.389 242.872 131.392 240.222 130.953 237.454C130.953 229.007 145.58 218.206 166.688 210.867C169.327 209.944 172.011 209.113 174.696 208.328C177.843 218.345 181.631 228.151 186.037 237.685C181.585 247.358 177.75 257.302 174.557 267.458V267.457ZM228.53 312.692C220.899 319.669 212.05 325.191 202.423 328.986C199.886 330.2 197.127 330.879 194.315 330.982C191.504 331.086 188.702 330.61 186.083 329.586C178.723 325.34 175.668 309.046 179.834 287.121C180.343 284.536 180.898 281.951 181.546 279.412C191.907 281.635 202.408 283.147 212.976 283.935C219.098 292.576 225.778 300.81 232.974 308.584C231.493 310.015 230.011 311.399 228.53 312.692ZM239.87 301.476C235.149 296.399 230.427 290.767 225.845 284.721C230.289 284.905 234.871 284.997 239.5 284.997C244.268 284.997 248.943 284.905 253.573 284.674C249.315 290.518 244.74 296.128 239.871 301.476H239.87ZM300.37 315.323C300.157 318.125 299.369 320.852 298.055 323.338C296.742 325.823 294.93 328.013 292.733 329.771C285.373 334.018 269.681 328.479 252.739 313.985C250.795 312.323 248.851 310.523 246.86 308.676C253.935 300.887 260.462 292.621 266.394 283.936C277.018 283.058 287.567 281.438 297.963 279.089C298.427 280.981 298.843 282.874 299.213 284.721C301.473 294.765 301.865 305.138 300.37 315.323ZM308.795 265.703C307.499 266.119 306.204 266.534 304.86 266.903C301.597 256.832 297.653 246.994 293.057 237.454C297.482 228.039 301.27 218.34 304.397 208.421C306.805 209.114 309.119 209.852 311.341 210.59C332.912 217.975 348.048 228.961 348.048 237.362C348.048 246.409 331.894 258.087 308.795 265.704L308.795 265.703ZM239.5 258.779C243.693 258.779 247.792 257.539 251.278 255.216C254.765 252.893 257.482 249.592 259.087 245.729C260.691 241.866 261.111 237.615 260.293 233.514C259.475 229.414 257.456 225.647 254.491 222.69C251.526 219.734 247.749 217.72 243.636 216.905C239.524 216.089 235.261 216.508 231.387 218.108C227.513 219.708 224.202 222.417 221.873 225.894C219.543 229.37 218.3 233.458 218.3 237.639C218.299 240.415 218.847 243.164 219.913 245.729C220.978 248.294 222.54 250.625 224.509 252.588C226.477 254.552 228.814 256.109 231.387 257.171C233.959 258.233 236.716 258.78 239.5 258.779Z" fill="#56CCF2"/>
<path d="M121.264 206.384L88 158L95.152 197.888L121.264 206.384Z" fill="#6699A1"/>
<path d="M88 329.928L109.264 336.84L102.064 297L88 329.928Z" fill="#8087E8"/>
<path d="M192 369.648L196.176 392.832L214.8 360L192 369.648Z" fill="#6699A1"/>
<path d="M336 102L355.584 157.68L374.112 114.384L336 102Z" fill="#A3EDBA"/>
<path d="M408.056 342.056L404.792 323.912L383.528 317L365 360.248L408.056 342.056Z" fill="#78758C"/>
<path d="M254.264 120.144L277.112 110.496L251 102L254.264 120.144Z" fill="#30426B"/>
</g>
<defs>
<clipPath id="clip0_8726_123495">
<rect width="480" height="480" fill="white"/>
</clipPath>
</defs>
</svg>
