<svg width="480" height="480" viewBox="0 0 480 480" fill="none" xmlns="http://www.w3.org/2000/svg">
<g clip-path="url(#clip0_8726_125567)">
<path d="M480 0H0V480H480V0Z" fill="#8087E8"/>
<path d="M240 0H0V480H240V0Z" fill="#5749AD"/>
<rect width="202" height="201" transform="translate(134.5 139.5)" fill="#3178C6"/>
<path fill-rule="evenodd" clip-rule="evenodd" d="M259.542 299.446V319.099C262.753 320.736 266.55 321.964 270.934 322.783C275.318 323.602 279.939 324.012 284.796 324.012C289.53 324.012 294.027 323.561 298.288 322.66C302.548 321.76 306.284 320.276 309.495 318.208C312.705 316.141 315.247 313.438 317.12 310.101C318.993 306.764 319.93 302.639 319.93 297.726C319.93 294.164 319.395 291.042 318.324 288.361C317.254 285.679 315.711 283.294 313.693 281.206C311.676 279.118 309.258 277.244 306.438 275.586C303.619 273.928 300.439 272.362 296.899 270.888C294.305 269.823 291.98 268.79 289.921 267.787C287.863 266.783 286.114 265.76 284.673 264.716C283.232 263.672 282.121 262.566 281.339 261.399C280.557 260.232 280.165 258.912 280.165 257.438C280.165 256.087 280.515 254.869 281.215 253.784C281.915 252.699 282.903 251.768 284.179 250.989C285.455 250.212 287.019 249.608 288.871 249.178C290.724 248.748 292.782 248.533 295.046 248.533C296.693 248.533 298.432 248.656 300.263 248.901C302.095 249.147 303.937 249.526 305.79 250.037C307.642 250.549 309.443 251.194 311.193 251.972C312.942 252.75 314.558 253.651 316.04 254.675V236.311C313.035 235.165 309.752 234.315 306.191 233.763C302.631 233.21 298.545 232.934 293.935 232.934C289.242 232.934 284.796 233.435 280.598 234.438C276.399 235.441 272.705 237.007 269.514 239.136C266.324 241.266 263.803 243.978 261.951 247.274C260.098 250.57 259.172 254.51 259.172 259.096C259.172 264.951 260.87 269.946 264.266 274.082C267.662 278.217 272.818 281.717 279.733 284.584C282.45 285.689 284.982 286.774 287.328 287.838C289.674 288.903 291.702 290.009 293.41 291.155C295.118 292.301 296.466 293.55 297.454 294.901C298.442 296.252 298.936 297.787 298.936 299.507C298.936 300.777 298.627 301.954 298.01 303.039C297.392 304.124 296.456 305.065 295.2 305.864C293.945 306.662 292.381 307.286 290.508 307.737C288.635 308.187 286.443 308.412 283.932 308.412C279.651 308.412 275.411 307.665 271.212 306.171C267.014 304.676 263.123 302.435 259.542 299.446ZM226.339 251.024H251.676V234.896H181.055V251.024H206.268V322.834H226.339V251.024Z" fill="white"/>
<path d="M121.264 206.384L88 158L95.152 197.888L121.264 206.384Z" fill="#6699A1"/>
<path d="M88 329.928L109.264 336.84L102.064 297L88 329.928Z" fill="#8087E8"/>
<path d="M192 369.648L196.176 392.832L214.8 360L192 369.648Z" fill="#6699A1"/>
<path d="M336 102L355.584 157.68L374.112 114.384L336 102Z" fill="#A3EDBA"/>
<path d="M408.056 342.056L404.792 323.912L383.528 317L365 360.248L408.056 342.056Z" fill="#78758C"/>
<path d="M254.264 120.144L277.112 110.496L251 102L254.264 120.144Z" fill="#30426B"/>
</g>
<defs>
<clipPath id="clip0_8726_125567">
<rect width="480" height="480" fill="white"/>
</clipPath>
</defs>
</svg>
