<svg class="highcharts-root" style="font-family:&quot;IBM Plex Sans&quot;,sans-serif;font-size:12px" xmlns="http://www.w3.org/2000/svg" width="600" height="400" aria-label="Interactive chart" aria-hidden="false"><defs aria-hidden="true"><linearGradient x1="0" y1="0" x2="0" y2="1" id="a"><stop offset="0" stop-color="#1f1836"/><stop offset="1" stop-color="#45445d"/></linearGradient></defs><rect fill="url(#a)" class="highcharts-background" width="600" height="400" rx="0" ry="0" aria-hidden="true"/><g stroke-linejoin="round" class="highcharts-3d-frame highcharts-3d-frame-bottom" data-z-index="-1000" aria-hidden="true" fill="none"><path d="m136.032 258.588 400.155 35.328L533.61 308l-413.76-37.958Z"/><path d="m536.192 294.405-2.629 14.382.046-.787 2.578-14.084Z"/><path d="m533.563 308.787-414.367-38.092.654-.653L533.609 308Z"/></g><g stroke-linejoin="round" class="highcharts-3d-frame highcharts-3d-frame-left" data-z-index="-1000" aria-hidden="true" fill="none"><path d="m127.97 102.93.368.155-17.158 6.33-.72-.036Z"/><path d="m128.338 103.085 7.694 155.503-16.182 11.454-8.67-160.628Z"/><path d="m119.196 270.695-8.736-161.316.72.035 8.67 160.628Z"/></g><g stroke-linejoin="round" class="highcharts-3d-frame highcharts-3d-frame-back" data-z-index="-1000" aria-hidden="true" fill="none"><path d="m127.97 102.93 418.213 19.584-.044.15-417.801-19.579Z"/><path d="m546.183 122.514-9.99 171.891-.006-.49 9.952-171.25Z"/><path d="m128.338 103.085 417.8 19.58-9.95 171.25-400.156-35.327Z"/></g><path fill="none" class="highcharts-plot-background" aria-hidden="true" d="M52 93h538v215H52z"/><g class="highcharts-grid highcharts-xaxis-grid" data-z-index="1" aria-hidden="true" fill="none" stroke="#707073"><path data-z-index="1" class="highcharts-grid-line" d="m166.085 104.854 6.247 156.939m-15.075 11.68 15.075-11.68m32.634-155.117 4.725 158.415m-13.908 11.917 13.908-11.917m34.223-156.589 3.17 159.89m-12.714 12.156 12.714-12.156M284.423 110.4l1.52 161.423m-11.445 12.406 11.445-12.406m39.851-159.484-.202 162.985m-10.12 12.664 10.12-12.664m42.46-161.005-1.994 164.577m-8.737 12.932 8.737-12.932m45.17-162.554-3.864 166.2m-7.293 13.207 7.293-13.206m47.162-164.172-5.777 167.825m-5.814 13.486 5.814-13.486m50.861-165.712-7.81 169.513m-4.238 13.779 4.238-13.779m54.77-167.312-9.97 171.267m-2.563 14.087 2.563-14.087M127.988 103.069l7.708 155.49m-16.192 11.451 16.192-11.451"/></g><g class="highcharts-grid highcharts-yaxis-grid" data-z-index="1" aria-hidden="true" fill="none" stroke="#707073"><path data-z-index="1" class="highcharts-grid-line" d="m136.049 258.935 400.116 35.361M119.869 270.4l16.18-11.465m-2.507-50.664 405.855 30.399m-422.35-20.552 16.495-9.847m-2.539-51.323 411.679 25.207m-428.496-17.05 16.817-8.157m-2.684-54.239 417.844 19.539m-435.004-13.223 17.16-6.316"/></g><path fill="none" class="highcharts-plot-border" data-z-index="1" aria-hidden="true" d="M52 93h538v215H52z"/><g class="highcharts-axis highcharts-yaxis" data-z-index="2" aria-hidden="true" fill="none" stroke="#707073"><path class="highcharts-tick" d="M119.87 270.4h-7.554m4.731-52.282h-7.658m4.797-53.013h-7.766m4.74-56.08h-7.88"/></g><g class="highcharts-series-group" data-z-index="3" aria-hidden="false"><g class="highcharts-markers highcharts-series-0 highcharts-column-series highcharts-tracker" data-z-index="10" aria-hidden="false" stroke-linejoin="round"><g data-z-index="13601785" stroke="#8087E8" class="highcharts-point highcharts-color-0" tabindex="-1" aria-label="Toyota, 1,318." style="outline:0"><path fill="#8087E8" d="m129.566 271.022 18.165 1.667-6.576-141.33-18.817-1.021Z" class="highcharts-3d-front" data-z-index="0"/><path fill="#99A0FF" d="m141.155 131.358 8.212-3.616-18.525-.984-8.504 3.58Z" class="highcharts-3d-top" data-z-index="0"/><path fill="#676ECF" d="m141.155 131.358 6.576 141.331 7.804-5.907-6.168-139.04Z" class="highcharts-3d-side" data-z-index="0"/></g><g data-z-index="67601435" stroke="#A3EDBA" class="highcharts-point highcharts-color-1" tabindex="-1" aria-label="BMW, 1,073." style="outline:0"><path fill="#A3EDBA" d="m167.491 274.502 18.536 1.701-4.188-115.447-19.087-1.173Z" class="highcharts-3d-front" data-z-index="0"/><path fill="#BCFFD3" d="m181.839 160.756 7.514-4.153-18.785-1.13-7.816 4.11Z" class="highcharts-3d-top" data-z-index="0"/><path fill="#8AD4A1" d="m181.839 160.756 4.188 115.447 7.22-6.027-3.894-113.573Z" class="highcharts-3d-side" data-z-index="0"/></g><g data-z-index="121601415" stroke="#F19E53" class="highcharts-point highcharts-color-2" tabindex="-1" aria-label="Volvo, 1,060." style="outline:0"><path fill="#F19E53" d="m206.193 278.054 18.919 1.736-2.967-115-19.486-1.206Z" class="highcharts-3d-front" data-z-index="0"/><path fill="#FFB76C" d="m222.145 164.79 6.864-4.267-19.171-1.162-7.179 4.223Z" class="highcharts-3d-top" data-z-index="0"/><path fill="#D8853A" d="m222.145 164.79 2.967 115 6.61-6.151-2.713-113.116Z" class="highcharts-3d-side" data-z-index="0"/></g><g data-z-index="174601065" stroke="#6699A1" class="highcharts-point highcharts-color-3" tabindex="-1" aria-label="Audi, 813." style="outline:0"><path fill="#6699A1" d="m244.957 281.61 19.306 1.772-1.355-88.727-19.758-1.36Z" class="highcharts-3d-front" data-z-index="0"/><path fill="#7FB2BA" d="m262.908 194.655 6.15-4.82-19.434-1.312-6.474 4.771Z" class="highcharts-3d-top" data-z-index="0"/><path fill="#4D8088" d="m262.908 194.655 1.355 88.727 5.985-6.276-1.19-87.27Z" class="highcharts-3d-side" data-z-index="0"/></g><g data-z-index="228601005" stroke="#E1D369" class="highcharts-point highcharts-color-4" tabindex="-1" aria-label="Peugeot, 775." style="outline:0"><path fill="#E1D369" d="m285.272 285.31 19.713 1.81-.367-84.893-20.16-1.413Z" class="highcharts-3d-front" data-z-index="0"/><path fill="#FAEC82" d="m304.618 202.227 5.446-5.004-19.821-1.362-5.784 4.953Z" class="highcharts-3d-top" data-z-index="0"/><path fill="#C8BA50" d="m304.618 202.227.367 84.892 5.32-6.408-.24-83.488Z" class="highcharts-3d-side" data-z-index="0"/></g><g data-z-index="282600965" stroke="#87B4E7" class="highcharts-point highcharts-color-5" tabindex="-1" aria-label="Mercedes-Benz, 745." style="outline:0"><path fill="#87B4E7" d="m326.439 289.088 20.133 1.847.57-82.569-20.583-1.459Z" class="highcharts-3d-front" data-z-index="0"/><path fill="#A0CDFF" d="m347.141 208.366 4.717-5.165-20.23-1.406-5.069 5.112Z" class="highcharts-3d-top" data-z-index="0"/><path fill="#6E9BCE" d="m347.141 208.366-.57 82.57 4.626-6.544.66-81.191Z" class="highcharts-3d-side" data-z-index="0"/></g><g data-z-index="336600665" stroke="#DA6D85" class="highcharts-point highcharts-color-6" tabindex="-1" aria-label="Volkswagen, 537." style="outline:0"><path fill="#DA6D85" d="m368.485 292.946 20.566 1.887 1.097-59.631-20.902-1.606Z" class="highcharts-3d-front" data-z-index="0"/><path fill="#F3869E" d="m390.148 235.202 3.942-5.686-20.538-1.547-4.306 5.627Z" class="highcharts-3d-top" data-z-index="0"/><path fill="#C1546C" d="m390.148 235.202-1.097 59.631 3.901-6.683 1.138-58.634Z" class="highcharts-3d-side" data-z-index="0"/></g><g data-z-index="390600535" stroke="#BBBAC5" class="highcharts-point highcharts-color-7" tabindex="-1" aria-label="Polestar, 444." style="outline:0"><path fill="#BBBAC5" d="m411.44 296.888 21.014 1.928 1.504-49.92-21.304-1.69Z" class="highcharts-3d-front" data-z-index="0"/><path fill="#D4D3DE" d="m433.958 248.897 3.157-5.988-20.926-1.628-3.535 5.924Z" class="highcharts-3d-top" data-z-index="0"/><path fill="#A2A1AC" d="m433.958 248.897-1.504 49.92 3.143-6.829 1.518-49.079Z" class="highcharts-3d-side" data-z-index="0"/></g><g data-z-index="443600495" stroke="#8087E8" class="highcharts-point highcharts-color-0" tabindex="-1" aria-label="Kia, 416." style="outline:0"><path fill="#8087E8" d="m454.51 300.84 21.468 1.97 1.98-47.219-21.75-1.744Z" class="highcharts-3d-front" data-z-index="0"/><path fill="#99A0FF" d="m477.959 255.591 2.359-6.172-21.356-1.68-2.755 6.108Z" class="highcharts-3d-top" data-z-index="0"/><path fill="#676ECF" d="m477.959 255.591-1.981 47.219 2.367-6.974 1.973-46.417Z" class="highcharts-3d-side" data-z-index="0"/></g><g data-z-index="497600465" stroke="#A3EDBA" class="highcharts-point highcharts-color-1" tabindex="-1" aria-label="Nissan, 395." style="outline:0"><path fill="#A3EDBA" d="m499.353 304.955 21.945 2.014 2.458-45.282-22.226-1.795Z" class="highcharts-3d-front" data-z-index="0"/><path fill="#BCFFD3" d="m523.756 261.687 1.512-6.352-21.814-1.728-1.924 6.285Z" class="highcharts-3d-top" data-z-index="0"/><path fill="#8AD4A1" d="m523.756 261.687-2.458 45.282 1.54-7.129 2.43-44.505Z" class="highcharts-3d-side" data-z-index="0"/></g></g></g><text x="300" text-anchor="middle" class="highcharts-title" data-z-index="4" style="color:#fff;font-size:22px;font-weight:500;fill:#fff" y="27" aria-hidden="true">Sold passenger cars in Norway by brand, January<tspan dy="25" x="300">​</tspan>2021</text><text x="300" text-anchor="middle" class="highcharts-subtitle" data-z-index="4" style="color:#fff;font-size:16px;font-weight:400;fill:#fff" y="77" aria-hidden="true">Source: <a target="_blank"><tspan>OFV</tspan></a></text><g class="highcharts-axis-labels highcharts-xaxis-labels" data-z-index="7" aria-hidden="true" text-anchor="end"><text x="140.544" transform="rotate(-45 140.544 284.093)" style="color:#fff;cursor:default;font-size:12px;fill:#fff" y="284.093">Toyota</text><text x="178.584" transform="rotate(-45 178.584 287.706)" style="color:#fff;cursor:default;font-size:12px;fill:#fff" y="287.706">BMW</text><text x="217.404" transform="rotate(-45 217.404 291.393)" style="color:#fff;cursor:default;font-size:12px;fill:#fff" y="291.393">Volvo</text><text x="257.028" transform="rotate(-45 257.028 295.157)" style="color:#fff;cursor:default;font-size:12px;fill:#fff" y="295.157">Audi</text><text x="297.481" transform="rotate(-45 297.48 298.999)" style="color:#fff;cursor:default;font-size:12px;fill:#fff" y="298.999">Peugeot</text><text x="338.789" transform="rotate(-45 338.789 302.922)" style="color:#fff;cursor:default;font-size:12px;fill:#fff" y="302.922">Mercedes-Benz</text><text x="380.98" transform="rotate(-45 380.98 306.93)" style="color:#fff;cursor:default;font-size:12px;fill:#fff" y="306.93">Volkswagen</text><text x="424.083" transform="rotate(-45 424.083 311.024)" style="color:#fff;cursor:default;font-size:12px;fill:#fff" y="311.024">Polestar</text><text x="468.127" transform="rotate(-45 468.127 315.207)" style="color:#fff;cursor:default;font-size:12px;fill:#fff" y="315.207">Kia</text><text x="513.144" transform="rotate(-45 513.144 319.483)" style="color:#fff;cursor:default;font-size:12px;fill:#fff" y="319.483">Nissan</text></g><g class="highcharts-axis-labels highcharts-yaxis-labels" data-z-index="7" aria-hidden="true" text-anchor="end"><text x="108.724" style="color:#fff;cursor:default;font-size:12px;fill:#fff" y="273.62">0</text><text x="105.79" style="color:#fff;cursor:default;font-size:12px;fill:#fff" y="222.163">500</text><text x="102.731" style="color:#fff;cursor:default;font-size:12px;fill:#fff" y="168.509">1000</text><text x="99.584" style="color:#fff;cursor:default;font-size:12px;fill:#fff" y="113.307">1500</text></g></svg>