<svg class="highcharts-root" style="font-family:&quot;IBM Plex Sans&quot;,sans-serif;font-size:12px" xmlns="http://www.w3.org/2000/svg" width="600" height="450" aria-label="Interactive chart" aria-hidden="false"><defs aria-hidden="true"><linearGradient x1="0" y1="0" x2="0" y2="1" id="a"><stop offset="0" stop-color="#1f1836"/><stop offset="1" stop-color="#45445d"/></linearGradient><clipPath id="b"><path fill="none" d="M0 0h522v308H0z"/></clipPath></defs><rect fill="url(#a)" class="highcharts-background" width="600" height="450" rx="0" ry="0" aria-hidden="true"/><path fill="none" class="highcharts-plot-background" aria-hidden="true" d="M68 68h522v308H68z"/><g class="highcharts-grid highcharts-xaxis-grid" data-z-index="1" aria-hidden="true" fill="none"><path data-z-index="1" class="highcharts-grid-line" d="M72.5 68v308m125-308v308m125-308v308m125-308v308m124-308v308"/></g><g class="highcharts-grid highcharts-yaxis-grid" data-z-index="1" aria-hidden="true" fill="none" stroke="#707073"><path data-z-index="1" class="highcharts-grid-line" d="M68 376.5h522m-522-62h522m-522-61h522m-522-62h522m-522-61h522m-522-63h522"/></g><path fill="none" class="highcharts-plot-border" data-z-index="1" aria-hidden="true" d="M68 68h522v308H68z"/><g class="highcharts-axis highcharts-xaxis" data-z-index="2" aria-hidden="true" fill="none" stroke="#707073"><path class="highcharts-tick" d="M72.5 376v10m125-10v10m125-10v10m125-10v10m124-10v10"/><path class="highcharts-axis-line" data-z-index="7" d="M68 376.5h522"/></g><g class="highcharts-axis highcharts-yaxis" data-z-index="2" aria-hidden="true"><path fill="none" class="highcharts-tick" stroke="#707073" d="M68 376.5H58m10-62H58m10-61H58m10-62H58m10-61H58m10-63H58"/><text x="23.648" data-z-index="7" text-anchor="middle" transform="rotate(-90 23.648 222)" class="highcharts-axis-title" style="color:#fff;font-weight:300;fill:#fff" y="222">Nuclear weapon states</text><path fill="none" class="highcharts-axis-line" data-z-index="7" d="M68 68v308"/></g><g class="highcharts-series-group" data-z-index="3" aria-hidden="false"><g class="highcharts-series highcharts-series-0 highcharts-area-series highcharts-color-0" data-z-index=".1" clip-path="url(#b)" aria-hidden="true" transform="translate(68 68)"><path fill="rgba(128,135,232,0.75)" d="M36.323 308v-.012l6.24-.043 6.242-.025 6.24-.228 6.242-.74 6.241-.794 6.241-.856 6.241-2.483 6.241-2.02 6.241-3.29 6.241-4.429 6.241-7.823 6.241-11.402 6.241-11.1 6.241-30.51 6.241-39.055 6.241-22.12 6.241-20.396 6.241-15.973 6.241-8.193 6.241-10.324 6.242-.222 6.24-.493 6.242 10.435 6.24 12.376 6.242 9.51 6.24 1.097 6.242-4.226 6.24-8.125 6.242-4.324 6.24 6.271 6.242 9.887 6.24 2.291 6.242 6.924 6.24 1.725 6.242.21 6.241 5.519 6.241 1.983 6.241-2.58 6.241-.95 6.241.561 6.241.314 6.241-1.589 6.241 2.28 6.241 6.085 6.241 5.082 6.241 14.686 6.241 32.648 6.241 13.533 6.241 3.277 6.241.462 6.241-.659 6.242.666 6.24 1.053 6.242.29 6.24.665 6.242.314 6.24.425 6.242 2.649 6.24 8.975 6.242 1.293 6.24 3.124 6.242 13.207 6.24 2.685 6.242.986 6.241.29 6.241 1.04 6.241.099 6.241.474 6.241.536 6.241.9 6.241 3.406 6.241 1.207 6.241.228 6.241-.123 6.241.339 6.241.259h6.241V308H36.323Z" class="highcharts-area" data-z-index="0"/><path fill="none" d="m36.323 307.988 6.24-.043 6.242-.025 6.24-.228 6.242-.74 6.241-.794 6.241-.856 6.241-2.483 6.241-2.02 6.241-3.29 6.241-4.429 6.241-7.823 6.241-11.402 6.241-11.1 6.241-30.51 6.241-39.055 6.241-22.12 6.241-20.396 6.241-15.973 6.241-8.193 6.241-10.324 6.242-.222 6.24-.493 6.242 10.435 6.24 12.376 6.242 9.51 6.24 1.097 6.242-4.226 6.24-8.125 6.242-4.324 6.24 6.271 6.242 9.887 6.24 2.291 6.242 6.924 6.24 1.725 6.242.21 6.241 5.519 6.241 1.983 6.241-2.58 6.241-.95 6.241.561 6.241.314 6.241-1.589 6.241 2.28 6.241 6.085 6.241 5.082 6.241 14.686 6.241 32.648 6.241 13.533 6.241 3.277 6.241.462 6.241-.659 6.242.666 6.24 1.053 6.242.29 6.24.665 6.242.314 6.24.425 6.242 2.649 6.24 8.975 6.242 1.293 6.24 3.124 6.242 13.207 6.24 2.685 6.242.986 6.241.29 6.241 1.04 6.241.099 6.241.474 6.241.536 6.241.9 6.241 3.406 6.241 1.207 6.241.228 6.241-.123 6.241.339 6.241.259h6.241" class="highcharts-graph" data-z-index="1" stroke="#8087E8" stroke-width="2" stroke-linejoin="round" stroke-linecap="round"/><path fill="none" d="m36.323 307.988 6.24-.043 6.242-.025 6.24-.228 6.242-.74 6.241-.794 6.241-.856 6.241-2.483 6.241-2.02 6.241-3.29 6.241-4.429 6.241-7.823 6.241-11.402 6.241-11.1 6.241-30.51 6.241-39.055 6.241-22.12 6.241-20.396 6.241-15.973 6.241-8.193 6.241-10.324 6.242-.222 6.24-.493 6.242 10.435 6.24 12.376 6.242 9.51 6.24 1.097 6.242-4.226 6.24-8.125 6.242-4.324 6.24 6.271 6.242 9.887 6.24 2.291 6.242 6.924 6.24 1.725 6.242.21 6.241 5.519 6.241 1.983 6.241-2.58 6.241-.95 6.241.561 6.241.314 6.241-1.589 6.241 2.28 6.241 6.085 6.241 5.082 6.241 14.686 6.241 32.648 6.241 13.533 6.241 3.277 6.241.462 6.241-.659 6.242.666 6.24 1.053 6.242.29 6.24.665 6.242.314 6.24.425 6.242 2.649 6.24 8.975 6.242 1.293 6.24 3.124 6.242 13.207 6.24 2.685 6.242.986 6.241.29 6.241 1.04 6.241.099 6.241.474 6.241.536 6.241.9 6.241 3.406 6.241 1.207 6.241.228 6.241-.123 6.241.339 6.241.259h6.241" data-z-index="2" class="highcharts-tracker-line" stroke-linecap="round" stroke-linejoin="round" stroke="rgba(192,192,192,0.0001)" stroke-width="22"/></g><g class="highcharts-series highcharts-series-1 highcharts-area-series highcharts-color-1" data-z-index=".1" clip-path="url(#b)" aria-hidden="true" transform="translate(68 68)"><path fill="rgba(163,237,186,0.75)" d="M61.287 308v-.006l6.241-.025 6.241-.123 6.241-.154 6.241-.431 6.241-.185 6.241-.308 6.241-1.392 6.241-1.442 6.241-1.25 6.241-1.14 6.241-3.566 6.241-5.329 6.241-5.26 6.241-5.624 6.241-6.056 6.241-5.556 6.242-5.834 6.24-8.063 6.242-6.714 6.24-7.275 6.242-6.56 6.24-9.506 6.242-8.137 6.24-7.872 6.242-8.674 6.24-12.006 6.242-18.048 6.24-13.035 6.242-11.63 6.24-12.868 6.242-14.827L261 109.98l6.241-8.255 6.241-10.127 6.241-10.441 6.241-10.823 6.241-9.714 6.241 12.64 6.241 9.665 6.241 8.994 6.241 12.923 6.241 23.568 6.241 14.908 6.241 14.359 6.241 18.874 6.241 19.465 6.241 13.78 6.242 3.08 6.24 6.616 6.242 7.269 6.24 6.16 6.242 6.382 6.24 6.394 6.242 6.394 6.24 6.394 6.242 6.394 6.24 2.2 6.242 2.198 6.24 2.2 6.242 2.476 6.241 1.922 6.241 2.199 6.241.665 6.241.616 6.241.308 6.241.616 6.241.062 6.241 1.17 6.241-.308 6.241.123 6.241.123 6.241-1.14 6.241.112V308H61.287Z" class="highcharts-area" data-z-index="0"/><path fill="none" d="m61.287 307.994 6.241-.025 6.241-.123 6.241-.154 6.241-.431 6.241-.185 6.241-.308 6.241-1.392 6.241-1.442 6.241-1.25 6.241-1.14 6.241-3.566 6.241-5.329 6.241-5.26 6.241-5.624 6.241-6.056 6.241-5.556 6.242-5.834 6.24-8.063 6.242-6.714 6.24-7.275 6.242-6.56 6.24-9.506 6.242-8.137 6.24-7.872 6.242-8.674 6.24-12.006 6.242-18.048 6.24-13.035 6.242-11.63 6.24-12.868 6.242-14.827L261 109.98l6.241-8.255 6.241-10.127 6.241-10.441 6.241-10.823 6.241-9.714 6.241 12.64 6.241 9.665 6.241 8.994 6.241 12.923 6.241 23.568 6.241 14.908 6.241 14.359 6.241 18.874 6.241 19.465 6.241 13.78 6.242 3.08 6.24 6.616 6.242 7.269 6.24 6.16 6.242 6.382 6.24 6.394 6.242 6.394 6.24 6.394 6.242 6.394 6.24 2.2 6.242 2.198 6.24 2.2 6.242 2.476 6.241 1.922 6.241 2.199 6.241.665 6.241.616 6.241.308 6.241.616 6.241.062 6.241 1.17 6.241-.308 6.241.123 6.241.123 6.241-1.14 6.241.112" class="highcharts-graph" data-z-index="1" stroke="#A3EDBA" stroke-width="2" stroke-linejoin="round" stroke-linecap="round"/><path fill="none" d="m61.287 307.994 6.241-.025 6.241-.123 6.241-.154 6.241-.431 6.241-.185 6.241-.308 6.241-1.392 6.241-1.442 6.241-1.25 6.241-1.14 6.241-3.566 6.241-5.329 6.241-5.26 6.241-5.624 6.241-6.056 6.241-5.556 6.242-5.834 6.24-8.063 6.242-6.714 6.24-7.275 6.242-6.56 6.24-9.506 6.242-8.137 6.24-7.872 6.242-8.674 6.24-12.006 6.242-18.048 6.24-13.035 6.242-11.63 6.24-12.868 6.242-14.827L261 109.98l6.241-8.255 6.241-10.127 6.241-10.441 6.241-10.823 6.241-9.714 6.241 12.64 6.241 9.665 6.241 8.994 6.241 12.923 6.241 23.568 6.241 14.908 6.241 14.359 6.241 18.874 6.241 19.465 6.241 13.78 6.242 3.08 6.24 6.616 6.242 7.269 6.24 6.16 6.242 6.382 6.24 6.394 6.242 6.394 6.24 6.394 6.242 6.394 6.24 2.2 6.242 2.198 6.24 2.2 6.242 2.476 6.241 1.922 6.241 2.199 6.241.665 6.241.616 6.241.308 6.241.616 6.241.062 6.241 1.17 6.241-.308 6.241.123 6.241.123 6.241-1.14 6.241.112" data-z-index="2" class="highcharts-tracker-line" stroke-linecap="round" stroke-linejoin="round" stroke="rgba(192,192,192,0.0001)" stroke-width="22"/></g></g><text x="300" text-anchor="middle" class="highcharts-title" data-z-index="4" style="color:#fff;font-size:22px;font-weight:500;fill:#fff" y="27" aria-hidden="true">US and USSR nuclear stockpiles</text><text x="300" text-anchor="middle" class="highcharts-subtitle" data-z-index="4" style="color:#fff;font-size:16px;font-weight:400;fill:#fff" y="52" aria-hidden="true">Source: <a target="_blank"><tspan>FAS</tspan></a></text><g class="highcharts-legend highcharts-no-tooltip" data-z-index="7" transform="translate(212 409)" aria-hidden="true"><rect fill="transparent" class="highcharts-legend-box" rx="0" ry="0" width="176" height="26"/><g data-z-index="1"><g class="highcharts-legend-item highcharts-area-series highcharts-color-0 highcharts-series-0" data-z-index="1" transform="translate(8 3)"><text x="21" data-z-index="2" y="15" style="color:#fff;cursor:pointer;font-size:12px;font-weight:400;fill:#fff">USA</text><rect x="2" y="4" width="12" height="12" fill="#8087E8" rx="6" ry="6" class="highcharts-point" data-z-index="3"/></g><g class="highcharts-legend-item highcharts-area-series highcharts-color-1 highcharts-series-1" data-z-index="1" transform="translate(73.691 3)"><text x="21" y="15" data-z-index="2" style="color:#fff;cursor:pointer;font-size:12px;font-weight:400;fill:#fff">USSR/Russia</text><rect x="2" y="4" width="12" height="12" fill="#A3EDBA" rx="6" ry="6" class="highcharts-point" data-z-index="3"/></g></g></g><g class="highcharts-axis-labels highcharts-xaxis-labels" data-z-index="7" aria-hidden="true" text-anchor="middle"><text x="73.118" style="color:#fff;cursor:default;font-size:12px;fill:#fff" y="396">1940</text><text x="197.938" style="color:#fff;cursor:default;font-size:12px;fill:#fff" y="396">1960</text><text x="322.759" style="color:#fff;cursor:default;font-size:12px;fill:#fff" y="396">1980</text><text x="447.58" style="color:#fff;cursor:default;font-size:12px;fill:#fff" y="396">2000</text><text x="572.4" style="color:#fff;cursor:default;font-size:12px;fill:#fff" y="396">2020</text></g><g class="highcharts-axis-labels highcharts-yaxis-labels" data-z-index="7" aria-hidden="true" text-anchor="end"><text x="53" style="color:#fff;cursor:default;font-size:12px;fill:#fff" y="381">0k</text><text x="53" style="color:#fff;cursor:default;font-size:12px;fill:#fff" y="320">10k</text><text x="53" style="color:#fff;cursor:default;font-size:12px;fill:#fff" y="258">20k</text><text x="53" style="color:#fff;cursor:default;font-size:12px;fill:#fff" y="196">30k</text><text x="53" style="color:#fff;cursor:default;font-size:12px;fill:#fff" y="135">40k</text><text x="53" style="color:#fff;cursor:default;font-size:12px;fill:#fff" y="73">50k</text></g></svg>