<svg class="highcharts-root" style="font-family:&quot;IBM Plex Sans&quot;,sans-serif;font-size:12px" xmlns="http://www.w3.org/2000/svg" width="600" height="400" aria-label="Interactive chart" aria-hidden="false"><defs aria-hidden="true"><linearGradient x1="0" y1="0" x2="0" y2="1" id="a"><stop offset="0" stop-color="#1f1836"/><stop offset="1" stop-color="#45445d"/></linearGradient><clipPath id="b"><path fill="none" d="M0 0h515v295H0z"/></clipPath></defs><rect fill="url(#a)" class="highcharts-background" width="600" height="400" rx="0" ry="0" aria-hidden="true"/><path fill="none" class="highcharts-plot-background" aria-hidden="true" d="M75 50h515v295H75z"/><g class="highcharts-plot-lines-0" data-z-index="0" aria-hidden="true"><path fill="none" class="highcharts-plot-line" stroke="red" d="M75 182.5h515"/></g><text x="343" text-anchor="middle" class="highcharts-plot-line-label" data-z-index="0" y="179" style="color:gray;fill:gray" aria-hidden="true">Theoretical mean: 932</text><g class="highcharts-grid highcharts-xaxis-grid" data-z-index="1" aria-hidden="true" fill="none"><path data-z-index="1" class="highcharts-grid-line" d="M177.5 50v295m103-295v295m103-295v295m103-295v295m103-295v295M74.5 50v295"/></g><g class="highcharts-grid highcharts-yaxis-grid" data-z-index="1" aria-hidden="true" fill="none" stroke="#707073"><path data-z-index="1" class="highcharts-grid-line" d="M75 345.5h515m-515-49h515m-515-49h515m-515-49h515m-515-50h515m-515-49h515m-515-50h515"/></g><path fill="none" class="highcharts-plot-border" data-z-index="1" aria-hidden="true" d="M75 50h515v295H75z"/><g class="highcharts-axis highcharts-xaxis" data-z-index="2" aria-hidden="true"><text x="332.5" data-z-index="7" text-anchor="middle" class="highcharts-axis-title" style="color:#fff;fill:#fff" y="383.5">Experiment No.</text><path fill="none" class="highcharts-axis-line" stroke="#707073" data-z-index="7" d="M75 345.5h515"/></g><g class="highcharts-axis highcharts-yaxis" data-z-index="2" aria-hidden="true"><path fill="none" class="highcharts-tick" stroke="#707073" d="M75 345.5H65m10-49H65m10-49H65m10-49H65m10-50H65m10-49H65m10-50H65"/><text x="23.305" data-z-index="7" text-anchor="middle" transform="rotate(-90 23.305 197.5)" class="highcharts-axis-title" style="color:#fff;font-weight:300;fill:#fff" y="197.5">Observations</text><path fill="none" class="highcharts-axis-line" data-z-index="7" d="M75 50v295"/></g><g class="highcharts-series-group" data-z-index="3" aria-hidden="false" stroke="#8087E8"><g class="highcharts-series highcharts-series-0 highcharts-boxplot-series highcharts-color-0 highcharts-tracker" data-z-index=".1" clip-path="url(#b)" aria-hidden="false" tabindex="-1" aria-label="Observations, series 1 of 2. Boxplot with 5 boxes." style="outline:0" transform="translate(75 50)"><g class="highcharts-point" tabindex="-1" aria-label="1, low: 760, q1: 801, median: 848, q3: 895, high: 965. Observations." style="outline:0"><path fill="none" class="highcharts-boxplot-stem" d="M51.5 149v-34m0 81v20"/><path fill="none" class="highcharts-boxplot-whisker" stroke-width="2" d="M39 115h25M39 216h25"/><path fill="#505053" class="highcharts-boxplot-box" d="M26.5 149.5v47h50v-47h-50Z"/><path fill="none" class="highcharts-boxplot-median" stroke-width="2" d="M26.5 173h50"/></g><g class="highcharts-point" tabindex="-1" aria-label="2, low: 733, q1: 853, median: 939, q3: 980, high: 1,080. Observations." style="outline:0"><path fill="none" class="highcharts-boxplot-stem" d="M154.5 108V59m0 111v59"/><path fill="none" class="highcharts-boxplot-whisker" stroke-width="2" d="M142 59h25m-25 170h25"/><path fill="#505053" class="highcharts-boxplot-box" d="M129.5 108.5v62h50v-62h-50Z"/><path fill="none" class="highcharts-boxplot-median" stroke-width="2" d="M129.5 128h50"/></g><g class="highcharts-point" tabindex="-1" aria-label="3, low: 714, q1: 762, median: 817, q3: 870, high: 918. Observations." style="outline:0"><path fill="none" class="highcharts-boxplot-stem" d="M257.5 162v-24m0 77v23"/><path fill="none" class="highcharts-boxplot-whisker" stroke-width="2" d="M245 138h25m-25 100h25"/><path fill="#505053" class="highcharts-boxplot-box" d="M232.5 162.5v53h50v-53h-50Z"/><path fill="none" class="highcharts-boxplot-median" stroke-width="2" d="M232.5 188h50"/></g><g class="highcharts-point" tabindex="-1" aria-label="4, low: 724, q1: 802, median: 806, q3: 871, high: 950. Observations." style="outline:0"><path fill="none" class="highcharts-boxplot-stem" d="M360.5 161v-39m0 73v39"/><path fill="none" class="highcharts-boxplot-whisker" stroke-width="2" d="M348 122h25m-25 112h25"/><path fill="#505053" class="highcharts-boxplot-box" d="M335.5 161.5v34h50v-34h-50Z"/><path fill="none" class="highcharts-boxplot-median" stroke-width="2" d="M335.5 194h50"/></g><g class="highcharts-point" tabindex="-1" aria-label="5, low: 834, q1: 836, median: 864, q3: 882, high: 910. Observations." style="outline:0"><path fill="none" class="highcharts-boxplot-stem" d="M463.5 156v-14m0 36v1"/><path fill="none" class="highcharts-boxplot-whisker" stroke-width="2" d="M451 142h25m-25 37h25"/><path fill="#505053" class="highcharts-boxplot-box" d="M438.5 156.5v22h50v-22h-50Z"/><path fill="none" class="highcharts-boxplot-median" stroke-width="2" d="M438.5 165h50"/></g></g><g class="highcharts-markers highcharts-series-1 highcharts-scatter-series highcharts-tracker" data-z-index=".1" aria-hidden="false" tabindex="-1" aria-label="Outliers, series 2 of 2, scatter plot with 4 points." style="outline:0" fill="#fff"><path d="M51 277a4 4 0 1 1 .004 0Z" class="highcharts-point" tabindex="-1" aria-label="1, 644. Outliers." style="outline:0" transform="translate(75 50)"/><path d="M463 241a4 4 0 1 1 .004 0Z" class="highcharts-point" tabindex="-1" aria-label="5, 718. Outliers." style="outline:0" transform="translate(75 50)"/><path d="M463 126a4 4 0 1 1 .004 0Z" class="highcharts-point" tabindex="-1" aria-label="5, 951. Outliers." style="outline:0" transform="translate(75 50)"/><path d="M463 118a4 4 0 1 1 .004 0Z" class="highcharts-point" tabindex="-1" aria-label="5, 969. Outliers." style="outline:0" transform="translate(75 50)"/></g></g><text x="300" text-anchor="middle" class="highcharts-title" data-z-index="4" style="color:#fff;font-size:22px;font-weight:500;fill:#fff" y="27" aria-hidden="true">Highcharts Box Plot Example</text><g class="highcharts-axis-labels highcharts-xaxis-labels" data-z-index="7" aria-hidden="true" text-anchor="middle"><text x="126.5" style="color:#fff;cursor:default;font-size:12px;fill:#fff" y="365">1</text><text x="229.5" style="color:#fff;cursor:default;font-size:12px;fill:#fff" y="365">2</text><text x="332.5" style="color:#fff;cursor:default;font-size:12px;fill:#fff" y="365">3</text><text x="435.5" style="color:#fff;cursor:default;font-size:12px;fill:#fff" y="365">4</text><text x="538.5" style="color:#fff;cursor:default;font-size:12px;fill:#fff" y="365">5</text></g><g class="highcharts-axis-labels highcharts-yaxis-labels" data-z-index="7" aria-hidden="true" text-anchor="end"><text x="60" style="color:#fff;cursor:default;font-size:12px;fill:#fff" y="350">600</text><text x="60" style="color:#fff;cursor:default;font-size:12px;fill:#fff" y="301">700</text><text x="60" style="color:#fff;cursor:default;font-size:12px;fill:#fff" y="252">800</text><text x="60" style="color:#fff;cursor:default;font-size:12px;fill:#fff" y="203">900</text><text x="60" style="color:#fff;cursor:default;font-size:12px;fill:#fff" y="154">1000</text><text x="60" style="color:#fff;cursor:default;font-size:12px;fill:#fff" y="104">1100</text><text x="60" style="color:#fff;cursor:default;font-size:12px;fill:#fff" y="55">1200</text></g></svg>