<svg class="highcharts-root" style="font-family:&quot;IBM Plex Sans&quot;,sans-serif;font-size:12px" xmlns="http://www.w3.org/2000/svg" width="600" height="400" aria-label="Interactive chart" aria-hidden="false"><defs aria-hidden="true"><linearGradient x1="0" y1="0" x2="0" y2="1" id="a"><stop offset="0" stop-color="#1f1836"/><stop offset="1" stop-color="#45445d"/></linearGradient><clipPath id="b"><path fill="none" d="M0 0h521v251H0z"/></clipPath></defs><rect fill="url(#a)" class="highcharts-background" width="600" height="400" rx="0" ry="0" aria-hidden="true"/><path fill="none" class="highcharts-plot-background" aria-hidden="true" d="M69 75h521v251H69z"/><g class="highcharts-grid highcharts-xaxis-grid" data-z-index="1" aria-hidden="true" fill="none"><path data-z-index="1" class="highcharts-grid-line" d="M242.5 75v251m173-251v251m174-251v251M68.5 75v251"/></g><g class="highcharts-grid highcharts-yaxis-grid" data-z-index="1" aria-hidden="true" fill="none" stroke="#707073"><path data-z-index="1" class="highcharts-grid-line" d="M69 326.5h521m-521-84h521m-521-83h521m-521-85h521"/></g><path fill="none" class="highcharts-plot-border" data-z-index="1" aria-hidden="true" d="M69 75h521v251H69z"/><g class="highcharts-axis highcharts-xaxis" data-z-index="2" aria-hidden="true"><path fill="none" class="highcharts-axis-line" stroke="#707073" data-z-index="7" d="M69 326.5h521"/></g><g class="highcharts-axis highcharts-yaxis" data-z-index="2" aria-hidden="true"><path fill="none" class="highcharts-tick" stroke="#707073" d="M69 326.5H59m10-84H59m10-83H59m10-85H59"/><text x="23.977" data-z-index="7" text-anchor="middle" transform="rotate(-90 23.977 200.5)" class="highcharts-axis-title" style="color:#fff;font-weight:300;fill:#fff" y="200.5">Count medals</text><path fill="none" class="highcharts-axis-line" data-z-index="7" d="M69 75v251"/></g><g class="highcharts-series-group" data-z-index="3" aria-hidden="false" stroke="#fff"><g class="highcharts-series highcharts-series-0 highcharts-column-series highcharts-color-0 highcharts-tracker" data-z-index=".1" clip-path="url(#b)" aria-hidden="false" tabindex="-1" aria-label="Norway, bar series 1 of 4 with 3 bars." style="outline:0" fill="#8087E8" transform="translate(69 75)"><path class="highcharts-point highcharts-color-0" tabindex="-1" aria-label="Gold, 148. Norway." style="outline:0" d="M39.5 42.5h42v124h-42z"/><path class="highcharts-point highcharts-color-0" tabindex="-1" aria-label="Silver, 133. Norway." style="outline:0" d="M213.5 58.5h42v111h-42z"/><path class="highcharts-point highcharts-color-0" tabindex="-1" aria-label="Bronze, 124. Norway." style="outline:0" d="M386.5 93.5h42v104h-42z"/></g><g class="highcharts-series highcharts-series-1 highcharts-column-series highcharts-color-1 highcharts-tracker" data-z-index=".1" clip-path="url(#b)" aria-hidden="false" tabindex="-1" aria-label="Germany, bar series 2 of 4 with 3 bars." style="outline:0" fill="#A3EDBA" transform="translate(69 75)"><path class="highcharts-point highcharts-color-1" tabindex="-1" aria-label="Gold, 102. Germany." style="outline:0" d="M39.5 166.5h42v85h-42z"/><path class="highcharts-point highcharts-color-1" tabindex="-1" aria-label="Silver, 98. Germany." style="outline:0" d="M213.5 169.5h42v82h-42z"/><path class="highcharts-point highcharts-color-1" tabindex="-1" aria-label="Bronze, 65. Germany." style="outline:0" d="M386.5 197.5h42v54h-42z"/></g><g class="highcharts-series highcharts-series-2 highcharts-column-series highcharts-color-2 highcharts-tracker" data-z-index=".1" clip-path="url(#b)" aria-hidden="false" tabindex="-1" aria-label="United States, bar series 3 of 4 with 3 bars." style="outline:0" fill="#F19E53" transform="translate(69 75)"><path class="highcharts-point highcharts-color-2" tabindex="-1" aria-label="Gold, 113. United States." style="outline:0" d="M91.5 92.5h42v95h-42z"/><path class="highcharts-point highcharts-color-2" tabindex="-1" aria-label="Silver, 122. United States." style="outline:0" d="M265.5 89.5h42v102h-42z"/><path class="highcharts-point highcharts-color-2" tabindex="-1" aria-label="Bronze, 95. United States." style="outline:0" d="M438.5 105.5h42v79h-42z"/></g><g class="highcharts-series highcharts-series-3 highcharts-column-series highcharts-color-3 highcharts-tracker" data-z-index=".1" clip-path="url(#b)" aria-hidden="false" tabindex="-1" aria-label="Canada, bar series 4 of 4 with 3 bars." style="outline:0" fill="#6699A1" transform="translate(69 75)"><path class="highcharts-point highcharts-color-3" tabindex="-1" aria-label="Gold, 77. Canada." style="outline:0" d="M91.5 187.5h42v64h-42z"/><path class="highcharts-point highcharts-color-3" tabindex="-1" aria-label="Silver, 72. Canada." style="outline:0" d="M265.5 191.5h42v60h-42z"/><path class="highcharts-point highcharts-color-3" tabindex="-1" aria-label="Bronze, 80. Canada." style="outline:0" d="M438.5 184.5h42v67h-42z"/></g></g><text x="300" text-anchor="middle" class="highcharts-title" data-z-index="4" style="color:#fff;font-size:22px;font-weight:500;fill:#fff" y="27" aria-hidden="true">Olympic Games all-time medal table, grouped by<tspan dy="25" x="300">​</tspan>continent</text><g class="highcharts-legend highcharts-no-tooltip" data-z-index="7" transform="translate(118 359)" aria-hidden="true"><rect fill="transparent" class="highcharts-legend-box" rx="0" ry="0" width="364" height="26"/><g data-z-index="1"><g class="highcharts-legend-item highcharts-column-series highcharts-color-0 highcharts-series-0" data-z-index="1" transform="translate(8 3)"><text x="21" data-z-index="2" y="15" style="color:#fff;cursor:pointer;font-size:12px;font-weight:400;fill:#fff">Norway</text><rect x="2" y="4" width="12" height="12" fill="#8087E8" rx="6" ry="6" class="highcharts-point" data-z-index="3"/></g><g class="highcharts-legend-item highcharts-column-series highcharts-color-1 highcharts-series-1" data-z-index="1" transform="translate(89.68 3)"><text x="21" y="15" data-z-index="2" style="color:#fff;cursor:pointer;font-size:12px;font-weight:400;fill:#fff">Germany</text><rect x="2" y="4" width="12" height="12" fill="#A3EDBA" rx="6" ry="6" class="highcharts-point" data-z-index="3"/></g><g class="highcharts-legend-item highcharts-column-series highcharts-color-2 highcharts-series-2" data-z-index="1" transform="translate(180.031 3)"><text x="21" y="15" data-z-index="2" style="color:#fff;cursor:pointer;font-size:12px;font-weight:400;fill:#fff">United States</text><rect x="2" y="4" width="12" height="12" fill="#F19E53" rx="6" ry="6" class="highcharts-point" data-z-index="3"/></g><g class="highcharts-legend-item highcharts-column-series highcharts-color-3 highcharts-series-3" data-z-index="1" transform="translate(293.078 3)"><text x="21" y="15" data-z-index="2" style="color:#fff;cursor:pointer;font-size:12px;font-weight:400;fill:#fff">Canada</text><rect x="2" y="4" width="12" height="12" fill="#6699A1" rx="6" ry="6" class="highcharts-point" data-z-index="3"/></g></g></g><g class="highcharts-axis-labels highcharts-xaxis-labels" data-z-index="7" aria-hidden="true" text-anchor="middle"><text x="155.833" style="color:#fff;cursor:default;font-size:12px;fill:#fff" y="346">Gold</text><text x="329.5" style="color:#fff;cursor:default;font-size:12px;fill:#fff" y="346">Silver</text><text x="503.167" style="color:#fff;cursor:default;font-size:12px;fill:#fff" y="346">Bronze</text></g><g class="highcharts-axis-labels highcharts-yaxis-labels" data-z-index="7" aria-hidden="true" text-anchor="end"><text x="54" style="color:#fff;cursor:default;font-size:12px;fill:#fff" y="331">0</text><text x="54" style="color:#fff;cursor:default;font-size:12px;fill:#fff" y="248">100</text><text x="54" style="color:#fff;cursor:default;font-size:12px;fill:#fff" y="164">200</text><text x="54" style="color:#fff;cursor:default;font-size:12px;fill:#fff" y="80">300</text></g></svg>