<svg class="highcharts-root" style="font-family:&quot;IBM Plex Sans&quot;,sans-serif;font-size:12px" xmlns="http://www.w3.org/2000/svg" width="600" height="480" aria-label="Interactive chart" aria-hidden="false"><defs aria-hidden="true"><clipPath id="b"><path fill="none" d="M0 0h518v356H0z"/></clipPath><clipPath id="c"><path fill="none" d="M0 0h518v356H0z"/></clipPath><linearGradient x1="0" y1="0" x2="0" y2="1" id="a"><stop offset="0" stop-color="#1f1836"/><stop offset="1" stop-color="#45445d"/></linearGradient></defs><rect fill="url(#a)" class="highcharts-background" width="600" height="480" rx="0" ry="0" aria-hidden="true"/><path fill="none" class="highcharts-plot-background" aria-hidden="true" d="M20 50h518v356H20z"/><g class="highcharts-plot-bands-0" data-z-index="0" aria-hidden="true"><path fill="#EFFFFF" class="highcharts-plot-band" d="M31.5 50v356h101V50Z"/><path fill="#FFFFEF" class="highcharts-plot-band" d="M132.5 50v356h284V50Z"/><path fill="#FFEFFF" class="highcharts-plot-band" d="M416.5 50v356h116V50Z"/></g><text x="82" text-anchor="middle" class="highcharts-plot-band-label" data-z-index="0" style="color:#999;fill:#999" y="230" aria-hidden="true"><tspan style="font-style:italic">Offices:</tspan><tspan class="highcharts-br" dy="15" x="82">​</tspan>Torstein&apos;s basement</text><text x="275" text-anchor="middle" class="highcharts-plot-band-label" data-z-index="0" style="color:#999;fill:#999" y="80" aria-hidden="true"><tspan style="font-style:italic">Offices:</tspan><tspan class="highcharts-br" dy="15" x="275">​</tspan>Tomtebu</text><text x="475" text-anchor="middle" class="highcharts-plot-band-label" data-z-index="0" style="color:#999;fill:#999" y="80" aria-hidden="true"><tspan style="font-style:italic">Offices:</tspan><tspan class="highcharts-br" dy="15" x="475">​</tspan>VikØrsta</text><g class="highcharts-grid highcharts-xaxis-grid" data-z-index="1" aria-hidden="true" fill="none"><path data-z-index="1" class="highcharts-grid-line" d="M41.5 50v356m100-356v356m100-356v356m100-356v356m100-356v356"/></g><g class="highcharts-grid highcharts-yaxis-grid" data-z-index="1" aria-hidden="true" fill="none" stroke="rgba(0, 0, 0, 0.07)"><path data-z-index="1" class="highcharts-grid-line" d="M20 406.5h518m-518-71h518m-518-71h518m-518-72h518m-518-71h518m-518-72h518"/></g><g class="highcharts-grid highcharts-yaxis-grid" data-z-index="1" aria-hidden="true" fill="none"><path data-z-index="1" class="highcharts-grid-line" d="M20 406.5h518m-518-71h518m-518-71h518m-518-72h518m-518-71h518m-518-71h518"/></g><path fill="none" class="highcharts-plot-border" data-z-index="1" aria-hidden="true" d="M20 50h518v356H20z"/><g class="highcharts-axis highcharts-xaxis" data-z-index="2" aria-hidden="true" fill="none" stroke="#707073"><path class="highcharts-tick" d="M41.5 406v10m100-10v10m100-10v10m100-10v10m100-10v10"/><path class="highcharts-axis-line" data-z-index="7" d="M20 406.5h518"/></g><g class="highcharts-axis highcharts-yaxis" data-z-index="2" aria-hidden="true" fill="none"><path class="highcharts-tick" stroke="#707073" d="M20 406.5H10m10-71H10m10-71H10m10-72H10m10-71H10m10-72H10"/><path class="highcharts-axis-line" data-z-index="7" d="M20 50v356"/></g><g class="highcharts-axis highcharts-yaxis" data-z-index="2" aria-hidden="true"><path fill="none" class="highcharts-tick" stroke="#707073" d="M538 406.5h10m-10-71h10m-10-71h10m-10-72h10m-10-71h10m-10-72h10"/><text x="576.352" data-z-index="7" text-anchor="middle" transform="rotate(90 576.352 228)" class="highcharts-axis-title" style="color:#f19e53;font-weight:300;fill:#f19e53" y="228">Employees</text><path fill="none" class="highcharts-axis-line" data-z-index="7" d="M538 50v356"/></g><g class="highcharts-series-group" data-z-index="3" aria-hidden="false"><g class="highcharts-series highcharts-series-0 highcharts-spline-series highcharts-color-0" data-z-index=".1" clip-path="url(#b)" aria-hidden="true" fill="none" transform="translate(20 50)"><path d="M9.169 356s5.025-12.853 8.375-17.8c3.4-5.021 5.1-7.12 8.5-7.12 3.236 0 4.854 7.12 8.09 7.12 3.24 0 4.86-1.455 8.1-3.56 3.337-2.167 5.005-3.565 8.341-7.12 3.345-3.565 5.018-10.68 8.364-10.68 3.345 0 5.018 7.12 8.363 7.12 3.345 0 5.018-7.855 8.364-10.68 3.4-2.871 5.1 0 8.5-3.56 3.346-3.56 5.018-14.24 8.364-14.24h8.363c3.346 0 5.018-1.425 8.364-3.56 3.35-2.137 5.025-7.12 8.375-7.12h8.5c3.236 0 4.854-16.382 8.09-24.92 3.24-8.55 4.86-17.8 8.1-17.8 3.336 0 5.005 10.68 8.34 10.68 3.346 0 5.019-17.8 8.364-17.8h8.364c3.345 0 5.018-.764 8.363-7.12 3.4-6.46 5.1-21.36 8.501-24.92 3.345-3.56 5.018-3.56 8.364-3.56 3.345 0 5.018 7.12 8.363 7.12 3.345 0 5.018-17.8 8.364-17.8 3.35 0 5.024 3.56 8.374 3.56 3.4 0 5.1-6.28 8.501-14.24 3.29-7.704 4.936-24.92 8.226-24.92 3.296 0 4.943 10.68 8.238 10.68 3.337 0 5.005-12.112 8.341-17.8 3.345-5.704 5.018-5.696 8.363-10.68 3.346-4.984 5.019-14.24 8.364-14.24 3.345 0 5.018 17.8 8.363 17.8 3.4 0 5.1-24.92 8.501-24.92 3.346 0 5.018 3.56 8.364 3.56 3.345 0 5.018-21.36 8.363-21.36 3.346 0 5.018 22.081 8.364 35.6 3.35 13.537 5.025 32.04 8.375 32.04 3.4 0 5.1-31.687 8.5-46.28 3.236-13.887 4.854-14.959 8.09-24.92 3.24-9.975 4.86-14.396 8.1-24.92 3.336-10.836 5.005-28.48 8.34-28.48 3.346 0 5.019 21.36 8.364 21.36 3.346 0 5.018-17.8 8.364-17.8 3.345 0 5.018 2.177 8.363 7.12 3.4 5.025 5.1 17.8 8.501 17.8 3.345 0 5.018 0 8.363-7.12 3.346-7.12 5.019-42.72 8.364-42.72 3.345 0 5.018 23.502 8.363 32.04 3.35 8.55 5.025 10.68 8.375 10.68 3.4 0 5.1-17.8 8.501-21.36 3.236-3.56 4.854-.003 8.09-3.56 3.24-3.563 4.86-7.224 8.1-14.24C446.196 14.136 447.864 0 451.2 0h8.364c3.346 0 5.018 3.56 8.364 3.56h8.363c3.4 0 5.1 21.36 8.5 21.36 3.346 0 5.019-10.68 8.364-14.24 3.346-3.56 8.364-3.56 8.364-3.56" class="highcharts-graph" data-z-index="1" stroke="#8087E8" stroke-width="2" stroke-dasharray="8,6"/><path d="M9.169 356s5.025-12.853 8.375-17.8c3.4-5.021 5.1-7.12 8.5-7.12 3.236 0 4.854 7.12 8.09 7.12 3.24 0 4.86-1.455 8.1-3.56 3.337-2.167 5.005-3.565 8.341-7.12 3.345-3.565 5.018-10.68 8.364-10.68 3.345 0 5.018 7.12 8.363 7.12 3.345 0 5.018-7.855 8.364-10.68 3.4-2.871 5.1 0 8.5-3.56 3.346-3.56 5.018-14.24 8.364-14.24h8.363c3.346 0 5.018-1.425 8.364-3.56 3.35-2.137 5.025-7.12 8.375-7.12h8.5c3.236 0 4.854-16.382 8.09-24.92 3.24-8.55 4.86-17.8 8.1-17.8 3.336 0 5.005 10.68 8.34 10.68 3.346 0 5.019-17.8 8.364-17.8h8.364c3.345 0 5.018-.764 8.363-7.12 3.4-6.46 5.1-21.36 8.501-24.92 3.345-3.56 5.018-3.56 8.364-3.56 3.345 0 5.018 7.12 8.363 7.12 3.345 0 5.018-17.8 8.364-17.8 3.35 0 5.024 3.56 8.374 3.56 3.4 0 5.1-6.28 8.501-14.24 3.29-7.704 4.936-24.92 8.226-24.92 3.296 0 4.943 10.68 8.238 10.68 3.337 0 5.005-12.112 8.341-17.8 3.345-5.704 5.018-5.696 8.363-10.68 3.346-4.984 5.019-14.24 8.364-14.24 3.345 0 5.018 17.8 8.363 17.8 3.4 0 5.1-24.92 8.501-24.92 3.346 0 5.018 3.56 8.364 3.56 3.345 0 5.018-21.36 8.363-21.36 3.346 0 5.018 22.081 8.364 35.6 3.35 13.537 5.025 32.04 8.375 32.04 3.4 0 5.1-31.687 8.5-46.28 3.236-13.887 4.854-14.959 8.09-24.92 3.24-9.975 4.86-14.396 8.1-24.92 3.336-10.836 5.005-28.48 8.34-28.48 3.346 0 5.019 21.36 8.364 21.36 3.346 0 5.018-17.8 8.364-17.8 3.345 0 5.018 2.177 8.363 7.12 3.4 5.025 5.1 17.8 8.501 17.8 3.345 0 5.018 0 8.363-7.12 3.346-7.12 5.019-42.72 8.364-42.72 3.345 0 5.018 23.502 8.363 32.04 3.35 8.55 5.025 10.68 8.375 10.68 3.4 0 5.1-17.8 8.501-21.36 3.236-3.56 4.854-.003 8.09-3.56 3.24-3.563 4.86-7.224 8.1-14.24C446.196 14.136 447.864 0 451.2 0h8.364c3.346 0 5.018 3.56 8.364 3.56h8.363c3.4 0 5.1 21.36 8.5 21.36 3.346 0 5.019-10.68 8.364-14.24 3.346-3.56 8.364-3.56 8.364-3.56" data-z-index="2" class="highcharts-tracker-line" stroke-linecap="round" stroke-linejoin="round" stroke="rgba(192,192,192,0.0001)" stroke-width="22"/></g><g class="highcharts-series highcharts-series-1 highcharts-area-series highcharts-color-1" data-z-index=".1" clip-path="url(#b)" aria-hidden="true" transform="translate(20 50)"><path fill="rgba(163,237,186,0.5)" d="m5.078 348.88 8.227-3.56 8.5 3.56 8.501-3.56 7.678-3.56h25.227l8.227-3.56 8.5-7.12 8.501 3.56 8.227-10.68 8.5-3.56 8.227 7.12 8.5-7.12 8.5-10.68 7.679-7.12 8.5 3.56 8.227-3.56 8.5-3.56 8.227-21.36 8.5 10.68 8.501-3.56 8.227-42.72 8.5-7.12 8.227-7.12 8.5 7.12 8.5-21.36 7.953 10.68 8.5 7.12 8.227-17.8 8.5 7.12 8.227-3.56 8.5-14.24 8.501-21.36 8.227 21.36 8.5-39.16 8.227 35.6 8.5 3.56h8.5l7.679-32.04h8.5l8.227-14.24 8.5-21.36 8.227-14.24 8.5 14.24 8.501-3.56 8.227 10.68h8.5l8.227 7.12 8.5-24.92 8.5 46.28 7.679-71.2 8.5 53.4 8.227-46.28 8.5 24.92 8.227-7.12h8.5l8.501-85.44L497.291 0v356H5.078Z" class="highcharts-area" data-z-index="0"/><path fill="none" d="m5.078 348.88 8.227-3.56 8.5 3.56 8.501-3.56 7.678-3.56h25.227l8.227-3.56 8.5-7.12 8.501 3.56 8.227-10.68 8.5-3.56 8.227 7.12 8.5-7.12 8.5-10.68 7.679-7.12 8.5 3.56 8.227-3.56 8.5-3.56 8.227-21.36 8.5 10.68 8.501-3.56 8.227-42.72 8.5-7.12 8.227-7.12 8.5 7.12 8.5-21.36 7.953 10.68 8.5 7.12 8.227-17.8 8.5 7.12 8.227-3.56 8.5-14.24 8.501-21.36 8.227 21.36 8.5-39.16 8.227 35.6 8.5 3.56h8.5l7.679-32.04h8.5l8.227-14.24 8.5-21.36 8.227-14.24 8.5 14.24 8.501-3.56 8.227 10.68h8.5l8.227 7.12 8.5-24.92 8.5 46.28 7.679-71.2 8.5 53.4 8.227-46.28 8.5 24.92 8.227-7.12h8.5l8.501-85.44L497.291 0" class="highcharts-graph" data-z-index="1" stroke="#A3EDBA" stroke-width="2" stroke-linejoin="round" stroke-linecap="round"/><path fill="none" d="m5.078 348.88 8.227-3.56 8.5 3.56 8.501-3.56 7.678-3.56h25.227l8.227-3.56 8.5-7.12 8.501 3.56 8.227-10.68 8.5-3.56 8.227 7.12 8.5-7.12 8.5-10.68 7.679-7.12 8.5 3.56 8.227-3.56 8.5-3.56 8.227-21.36 8.5 10.68 8.501-3.56 8.227-42.72 8.5-7.12 8.227-7.12 8.5 7.12 8.5-21.36 7.953 10.68 8.5 7.12 8.227-17.8 8.5 7.12 8.227-3.56 8.5-14.24 8.501-21.36 8.227 21.36 8.5-39.16 8.227 35.6 8.5 3.56h8.5l7.679-32.04h8.5l8.227-14.24 8.5-21.36 8.227-14.24 8.5 14.24 8.501-3.56 8.227 10.68h8.5l8.227 7.12 8.5-24.92 8.5 46.28 7.679-71.2 8.5 53.4 8.227-46.28 8.5 24.92 8.227-7.12h8.5l8.501-85.44L497.291 0" data-z-index="2" class="highcharts-tracker-line" stroke-linecap="round" stroke-linejoin="round" stroke="rgba(192,192,192,0.0001)" stroke-width="22"/></g><g class="highcharts-series highcharts-series-2 highcharts-area-series highcharts-color-2" data-z-index=".1" clip-path="url(#c)" aria-hidden="true" transform="translate(20 50)"><path fill="rgba(241,158,83,0.5)" d="M5.078 332.267h105.298v-23.734h36.197V284.8h33.454v-23.733h3.839v-23.734h79.796V213.6h25.227v23.733h3.84V213.6h29.614v-23.733h58.134v-23.734h5.21V142.4h11.517v-23.733H497.29V94.933h15.63V356H5.079Z" class="highcharts-area" data-z-index="0"/><path fill="none" d="M5.078 332.267h105.298v-23.734h36.197V284.8h33.454v-23.733h3.839v-23.734h79.796V213.6h25.227v23.733h3.84V213.6h29.614v-23.733h58.134v-23.734h5.21V142.4h11.517v-23.733H497.29V94.933h15.63" class="highcharts-graph" data-z-index="1" stroke="#F19E53" stroke-width="2" stroke-linejoin="round" stroke-linecap="round"/><path fill="none" d="M5.078 332.267h105.298v-23.734h36.197V284.8h33.454v-23.733h3.839v-23.734h79.796V213.6h25.227v23.733h3.84V213.6h29.614v-23.733h58.134v-23.734h5.21V142.4h11.517v-23.733H497.29V94.933h15.63" data-z-index="2" class="highcharts-tracker-line" stroke-linecap="round" stroke-linejoin="round" stroke="rgba(192,192,192,0.0001)" stroke-width="22"/></g><g class="highcharts-markers highcharts-series-3 highcharts-flags-series highcharts-tracker" data-z-index=".1" clip-path="url(#b)" aria-hidden="false" tabindex="-1" aria-label="Cloud, series 4 of 7 with 1 data point. Y axis, values." style="outline:0" transform="translate(20 50)"><g class="highcharts-label highcharts-point" tabindex="-1" aria-label="Thursday, May 1, 2014. Cloud: Highcharts Cloud Beta. Cloud." style="outline:0"><path fill="#fff" class="highcharts-label-box" d="M436.5 276.5h37v19h-37Zm18.5 19-.5 60.5m0 1a1 1 0 1 1 .001 0Z" stroke="#333"/><text x="3" data-z-index="1" y="14" style="font-size:11px;font-weight:700" transform="translate(436 276)">Cloud</text></g></g><g class="highcharts-markers highcharts-series-4 highcharts-flags-series highcharts-tracker" data-z-index=".1" clip-path="url(#b)" aria-hidden="false" tabindex="-1" aria-label="Highmaps, series 5 of 7 with 1 data point. Y axis, values." style="outline:0" transform="translate(20 50)"><g class="highcharts-label highcharts-point" tabindex="-1" aria-label="Friday, Jun 13, 2014. Maps: Highmaps version 1.0 released. Highmaps." style="outline:0"><path fill="#fff" class="highcharts-label-box" d="M449.5 301.5h34v19h-34Zm17 19V356m0 1a1 1 0 1 1 .001 0Z" stroke="#333"/><text x="3" data-z-index="1" y="14" style="font-size:11px;font-weight:700" transform="translate(449 301)">Maps</text></g></g><g class="highcharts-markers highcharts-series-5 highcharts-flags-series highcharts-tracker" data-z-index=".1" clip-path="url(#b)" aria-hidden="false" tabindex="-1" aria-label="Highcharts, series 6 of 7 with 7 data points. Y axis, values." style="outline:0" transform="translate(20 50)"><g class="highcharts-label highcharts-point" tabindex="-1" aria-label="Friday, Nov 27, 2009. 1.0: Highcharts version 1.0 released. Highcharts." style="outline:0"><path fill="#fff" class="highcharts-label-box" d="M12 345.5a10.5 9.5 0 1 1 .01 0Zm0 0-.5 10.5m0 1a1 1 0 1 1 .001 0Z" stroke="#333"/><text x="3" data-z-index="1" y="14" style="font-size:11px;font-weight:700" transform="translate(1 326)">1.0</text></g><g class="highcharts-label highcharts-point" tabindex="-1" aria-label="Tuesday, Jul 13, 2010. 2.0: Ported from canvas to SVG rendering. Highcharts." style="outline:0"><path fill="#fff" class="highcharts-label-box" d="M74 345.5a10.5 9.5 0 1 1 .01 0Zm0 0 .5 10.5m0 1a1 1 0 1 1 .001 0Z" stroke="#333"/><text x="3" data-z-index="1" y="14" style="font-size:11px;font-weight:700" transform="translate(63 326)">2.0</text></g><g class="highcharts-label highcharts-point" tabindex="-1" aria-label="Tuesday, Nov 23, 2010. 2.1: Dynamically resize and scale to text labels. Highcharts." style="outline:0"><path fill="#fff" class="highcharts-label-box" d="M111 345.5a10.5 9.5 0 1 1 .01 0Zm0 0-.5 10.5m0 1a1 1 0 1 1 .001 0Z" stroke="#333"/><text x="3" data-z-index="1" y="14" style="font-size:11px;font-weight:700" transform="translate(100 326)">2.1</text></g><g class="highcharts-label highcharts-point" tabindex="-1" aria-label="Tuesday, Oct 18, 2011. Stock: Highcharts Stock version 1.0 released. Highcharts." style="outline:0"><path fill="#fff" class="highcharts-label-box" d="M182.5 326.5h36v19h-36Zm18 19V356m0 1a1 1 0 1 1 .001 0Z" stroke="#333"/><text x="3" data-z-index="1" y="14" style="font-size:11px;font-weight:700" transform="translate(182 326)">Stock</text></g><g class="highcharts-label highcharts-point" tabindex="-1" aria-label="Friday, Aug 24, 2012. 2.3: Gauges, polar charts and range series. Highcharts." style="outline:0"><path fill="#fff" class="highcharts-label-box" d="M286 345.5a10.5 9.5 0 1 1 .01 0Zm0 0 .5 10.5m0 1a1 1 0 1 1 .001 0Z" stroke="#333"/><text x="3" data-z-index="1" y="14" style="font-size:11px;font-weight:700" transform="translate(275 326)">2.3</text></g><g class="highcharts-label highcharts-point" tabindex="-1" aria-label="Friday, Mar 22, 2013. 3.0: Multitouch support, more series types. Highcharts." style="outline:0"><path fill="#fff" class="highcharts-label-box" d="M344 345.5a10.5 9.5 0 1 1 .01 0Zm0 0-.5 10.5m0 1a1 1 0 1 1 .001 0Z" stroke="#333"/><text x="3" data-z-index="1" y="14" style="font-size:11px;font-weight:700" transform="translate(333 326)">3.0</text></g><g class="highcharts-label highcharts-point" tabindex="-1" aria-label="Tuesday, Apr 22, 2014. 4.0: 3D charts, heatmaps. Highcharts." style="outline:0"><path fill="#fff" class="highcharts-label-box" d="M452 345.5a10.5 9.5 0 1 1 .01 0Zm0 0 .5 10.5m0 1a1 1 0 1 1 .001 0Z" stroke="#333"/><text x="3" data-z-index="1" y="14" style="font-size:11px;font-weight:700" transform="translate(441 326)">4.0</text></g></g><g class="highcharts-markers highcharts-series-6 highcharts-flags-series highcharts-tracker" data-z-index=".1" clip-path="url(#b)" aria-hidden="false" tabindex="-1" aria-label="Events, series 7 of 7 with 4 data points. Y axis, values." style="outline:0" transform="translate(20 50)"><g class="highcharts-label highcharts-point" tabindex="-1" aria-label="Thursday, Nov 1, 2012. Award: Highsoft won &quot;Entrepeneur of the Year&quot; in Sogn og Fjordane, Norway. Events." style="outline:0"><path fill="rgba(255,255,255,0.8)" class="highcharts-label-box" d="M305.5 164.76a1 1 0 1 1 .001 0Zm0-1-41-10.26v-19h39v19h-39Z" stroke="#333"/><text x="3" data-z-index="1" y="14" style="font-size:11px;font-weight:700" transform="translate(264 134)">Award</text></g><g class="highcharts-label highcharts-point" tabindex="-1" aria-label="Tuesday, Dec 25, 2012. First book: Packt Publishing published Learning Highcharts by Example. Since then, many other books are written about Highcharts.. Events." style="outline:0"><path fill="rgba(255,255,255,0.8)" class="highcharts-label-box" d="M319.5 203.116a1 1 0 1 1 .001 0Zm0-1-16-10.616v-19h59v19h-59Z" stroke="#333"/><text x="3" data-z-index="1" y="14" style="font-size:11px;font-weight:700" transform="translate(303 172)">First book</text></g><g class="highcharts-label highcharts-point" tabindex="-1" aria-label="Saturday, May 25, 2013. Award: Highsoft nominated Norway's Startup of the Year. Events." style="outline:0"><path fill="rgba(255,255,255,0.8)" class="highcharts-label-box" d="M361.5 141.103a1 1 0 1 1 .001 0Zm0-1 1-10.603v-19h39v19h-39Z" stroke="#333"/><text x="3" data-z-index="1" y="14" style="font-size:11px;font-weight:700" transform="translate(362 110)">Award</text></g><g class="highcharts-label highcharts-point" tabindex="-1" aria-label="Sunday, May 25, 2014. Award: Highsoft nominated Best Startup in Nordic Startup Awards. Events." style="outline:0"><path fill="rgba(255,255,255,0.8)" class="highcharts-label-box" d="M461.5 127.093a1 1 0 1 1 .001 0Zm0-1V96.5h39v19h-39Z" stroke="#333"/><text x="3" data-z-index="1" y="14" style="font-size:11px;font-weight:700" transform="translate(461 96)">Award</text></g></g></g><text x="300" text-anchor="middle" class="highcharts-title" data-z-index="4" style="color:#fff;font-size:22px;font-weight:500;fill:#fff" y="27" aria-hidden="true">Highcharts and Highsoft timeline</text><text x="10" class="highcharts-caption" data-z-index="4" style="color:#f0f0f0;fill:#f0f0f0" y="477" aria-hidden="true">An advanced demo showing a combination of various Highcharts features, including flags and plot bands. The chart shows how Highcharts and Highsoft has evolved over time, with number of employees, revenue, search popularity, office locations, and various events of interest.</text><path fill="#4D54B5" d="M50 140h180v20H50zm0 10H30l10 10-10 10h30l-10-10 10 10v-10H50zm180 0h20l-10 10 10 10h-30l10-10-10 10v-10h10z" stroke="#FFF" data-z-index="5" aria-hidden="true"/><path fill="#4D54B5" d="m210 110 9.316 10.442-11.701 7.675 6.295 12.498L200.622 145l2.846 13.7-13.97.797-.797 13.971L175 170.622l-4.385 13.288-12.498-6.295-7.675 11.7L140 180l-10.442 9.316-7.675-11.701-12.498 6.295L105 170.622l-13.7 2.846-.797-13.97-13.971-.797L79.378 145l-13.288-4.385 6.295-12.498-11.7-7.675L70 110l-9.316-10.442 11.701-7.675-6.295-12.498L79.378 75l-2.846-13.7 13.97-.797.797-13.971L105 49.378l4.385-13.288 12.498 6.295 7.675-11.7L140 40l10.442-9.316 7.675 11.701 12.498-6.295L175 49.378l13.7-2.846.797 13.97 13.971.797L200.622 75l13.288 4.385-6.295 12.498 11.7 7.675L210 110z" data-z-index="6" aria-hidden="true"/><text x="105.863" data-z-index="6" y="124" aria-hidden="true" style="color:#fff;font-size:100px;font-style:italic;font-family:&quot;Brush Script MT&quot;,sans-serif;fill:#fff">5</text><text x="78.305" data-z-index="6" y="154" aria-hidden="true" style="color:#fff;fill:#fff">Highcharts Anniversary</text><text x="116.086" data-z-index="6" y="172" aria-hidden="true" style="color:#fff;font-style:italic;font-size:10px;fill:#fff">2009-2014</text><g class="highcharts-legend highcharts-no-tooltip" data-z-index="7" transform="translate(87 439)" aria-hidden="true"><rect fill="transparent" class="highcharts-legend-box" rx="0" ry="0" width="426" height="26"/><g data-z-index="1"><g class="highcharts-legend-item highcharts-spline-series highcharts-color-0 highcharts-series-0" data-z-index="1"><path fill="none" d="M8 14h16" class="highcharts-graph" stroke-width="2" stroke-dasharray="8,6" stroke="#8087E8"/><text x="21" data-z-index="2" y="15" style="color:#fff;cursor:pointer;font-size:12px;font-weight:400;fill:#fff" transform="translate(8 3)">Google search for <tspan style="font-style:italic">highcharts</tspan></text></g><g class="highcharts-legend-item highcharts-area-series highcharts-color-1 highcharts-series-1" data-z-index="1" transform="translate(203.102 3)"><text x="21" y="15" data-z-index="2" style="color:#fff;cursor:pointer;font-size:12px;font-weight:400;fill:#fff">Revenue</text><rect x="2" y="4" width="12" height="12" fill="#A3EDBA" rx="6" ry="6" class="highcharts-point" data-z-index="3"/></g><g class="highcharts-legend-item highcharts-area-series highcharts-color-2 highcharts-series-2" data-z-index="1" transform="translate(292.14 3)"><text x="21" y="15" data-z-index="2" style="color:#fff;cursor:pointer;font-size:12px;font-weight:400;fill:#fff">Highsoft employees</text><rect x="2" y="4" width="12" height="12" fill="#F19E53" rx="6" ry="6" class="highcharts-point" data-z-index="3"/></g></g></g><g class="highcharts-axis-labels highcharts-xaxis-labels" data-z-index="7" aria-hidden="true"><text x="41.805" style="color:#fff;cursor:default;font-size:12px;fill:#fff" y="426">2010</text><text x="141.893" style="color:#fff;cursor:default;font-size:12px;fill:#fff" y="426">2011</text><text x="241.981" style="color:#fff;cursor:default;font-size:12px;fill:#fff" y="426">2012</text><text x="342.343" style="color:#fff;cursor:default;font-size:12px;fill:#fff" y="426">2013</text><text x="442.431" style="color:#fff;cursor:default;font-size:12px;fill:#fff" y="426">2014</text></g><g class="highcharts-axis-labels highcharts-yaxis-labels" data-z-index="7" aria-hidden="true"><text x="553" style="color:#f19e53;cursor:default;font-size:12px;fill:#f19e53" y="411">0</text><text x="553" style="color:#f19e53;cursor:default;font-size:12px;fill:#f19e53" y="340">3</text><text x="553" style="color:#f19e53;cursor:default;font-size:12px;fill:#f19e53" y="269">6</text><text x="553" style="color:#f19e53;cursor:default;font-size:12px;fill:#f19e53" y="198">9</text><text x="553" style="color:#f19e53;cursor:default;font-size:12px;fill:#f19e53" y="126">12</text><text x="553" style="color:#f19e53;cursor:default;font-size:12px;fill:#f19e53" y="55">15</text></g></svg>