<svg class="highcharts-root" style="font-family:&quot;IBM Plex Sans&quot;,sans-serif;font-size:12px" xmlns="http://www.w3.org/2000/svg" width="600" height="400" aria-label="Interactive chart" aria-hidden="false"><defs aria-hidden="true"><linearGradient x1="0" y1="0" x2="0" y2="1" id="a"><stop offset="0" stop-color="#1f1836"/><stop offset="1" stop-color="#45445d"/></linearGradient></defs><rect fill="url(#a)" class="highcharts-background" width="600" height="400" rx="0" ry="0" aria-hidden="true"/><path fill="none" class="highcharts-plot-background" aria-hidden="true" d="M87 68h503v277H87z"/><g class="highcharts-grid highcharts-xaxis-grid" data-z-index="1" aria-hidden="true" fill="none"><path data-z-index="1" class="highcharts-grid-line" d="M87 88.5h503m-503 20h503m-503 19h503m-503 20h503m-503 20h503m-503 20h503m-503 19h503m-503 20h503m-503 20h503m-503 20h503m-503 20h503m-503 19h503m-503 20h503m-503 20h503M87 68.5h503"/></g><g class="highcharts-grid highcharts-yaxis-grid" data-z-index="1" aria-hidden="true" fill="none" stroke="#707073"><path data-z-index="1" class="highcharts-grid-line" d="M86.5 68v277m46-277v277m45-277v277m46-277v277m46-277v277m46-277v277m45-277v277m46-277v277m46-277v277m46-277v277m45-277v277m47-277v277"/></g><path fill="none" class="highcharts-plot-border" data-z-index="1" aria-hidden="true" d="M87 68h503v277H87z"/><g class="highcharts-axis highcharts-xaxis" data-z-index="2" aria-hidden="true"><path fill="none" class="highcharts-axis-line" stroke="#707073" data-z-index="7" d="M86.5 68v277"/></g><g class="highcharts-axis highcharts-yaxis" data-z-index="2" aria-hidden="true"><path fill="none" class="highcharts-tick" stroke="#707073" d="M86.5 345v10m46-10v10m45-10v10m46-10v10m46-10v10m46-10v10m45-10v10m46-10v10m46-10v10m46-10v10m45-10v10m47-10v10"/><text x="338.5" data-z-index="7" text-anchor="middle" class="highcharts-axis-title" style="color:#fff;font-weight:300;fill:#fff" y="383.5">Life Expectancy (years)</text><path fill="none" class="highcharts-axis-line" data-z-index="7" d="M87 345h503"/></g><g class="highcharts-series-group" data-z-index="3" aria-hidden="false"><g class="highcharts-markers highcharts-series-0 highcharts-dumbbell-series highcharts-color-0 highcharts-tracker" data-z-index=".1" aria-hidden="false"><path fill="none" class="highcharts-lollipop-stem" data-z-index="-1" d="M226.468 77.5h256.073m-235.496 20H496.26m-281.224 20h178.337m-160.046 20h148.614m-70.877 20h148.613m-253.787 19h121.178m-16.004 20h214.918m-276.65 20h77.736m-4.573 20h203.487m-377.25 19h331.523m-297.228 20h107.46m-70.877 20h114.317m-2.287 20h194.342m-228.637 20h246.928" stroke="#8087E8"/><path fill="#f0f0f0" d="M267 367a4 4 0 1 1 .004 0Z" class="highcharts-point highcharts-color-0 highcharts-lollipop-low" tabindex="-1" aria-label="Austria, low: 70.1, high: 81.3. Life expectancy change." style="outline:0" transform="matrix(0 -1 -1 0 590 345)"/><path fill="#f0f0f0" d="M247 346a4 4 0 1 1 .004 0Z" class="highcharts-point highcharts-color-0 highcharts-lollipop-low" tabindex="-1" aria-label="Belgium, low: 71, high: 81.9. Life expectancy change." style="outline:0" transform="matrix(0 -1 -1 0 590 345)"/><path fill="#f0f0f0" d="M227 378a4 4 0 1 1 .004 0Z" class="highcharts-point highcharts-color-0 highcharts-lollipop-low" tabindex="-1" aria-label="Czechia, low: 69.6, high: 77.4. Life expectancy change." style="outline:0" transform="matrix(0 -1 -1 0 590 345)"/><path fill="#f0f0f0" d="M207 360a4 4 0 1 1 .004 0Z" class="highcharts-point highcharts-color-0 highcharts-lollipop-low" tabindex="-1" aria-label="Estonia, low: 70.4, high: 76.9. Life expectancy change." style="outline:0" transform="matrix(0 -1 -1 0 590 345)"/><path fill="#f0f0f0" d="M187 282a4 4 0 1 1 .004 0Z" class="highcharts-point highcharts-color-0 highcharts-lollipop-low" tabindex="-1" aria-label="Greece, low: 73.8, high: 80.3. Life expectancy change." style="outline:0" transform="matrix(0 -1 -1 0 590 345)"/><path fill="#f0f0f0" d="M168 388a4 4 0 1 1 .004 0Z" class="highcharts-point highcharts-color-0 highcharts-lollipop-low" tabindex="-1" aria-label="Hungary, low: 69.2, high: 74.5. Life expectancy change." style="outline:0" transform="matrix(0 -1 -1 0 590 345)"/><path fill="#f0f0f0" d="M148 282a4 4 0 1 1 .004 0Z" class="highcharts-point highcharts-color-0 highcharts-lollipop-low" tabindex="-1" aria-label="Iceland, low: 73.8, high: 83.2. Life expectancy change." style="outline:0" transform="matrix(0 -1 -1 0 590 345)"/><path fill="#f0f0f0" d="M128 344a4 4 0 1 1 .004 0Z" class="highcharts-point highcharts-color-0 highcharts-lollipop-low" tabindex="-1" aria-label="Lithuania, low: 71.1, high: 74.5. Life expectancy change." style="outline:0" transform="matrix(0 -1 -1 0 590 345)"/><path fill="#f0f0f0" d="M108 271a4 4 0 1 1 .004 0Z" class="highcharts-point highcharts-color-0 highcharts-lollipop-low" tabindex="-1" aria-label="Norway, low: 74.3, high: 83.2. Life expectancy change." style="outline:0" transform="matrix(0 -1 -1 0 590 345)"/><path fill="#f0f0f0" d="M89 445a4 4 0 1 1 .004 0Z" class="highcharts-point highcharts-color-0 highcharts-lollipop-low" tabindex="-1" aria-label="Portugal, low: 66.7, high: 81.2. Life expectancy change." style="outline:0" transform="matrix(0 -1 -1 0 590 345)"/><path fill="#f0f0f0" d="M69 410a4 4 0 1 1 .004 0Z" class="highcharts-point highcharts-color-0 highcharts-lollipop-low" tabindex="-1" aria-label="Romania, low: 68.2, high: 72.9. Life expectancy change." style="outline:0" transform="matrix(0 -1 -1 0 590 345)"/><path fill="#f0f0f0" d="M49 374a4 4 0 1 1 .004 0Z" class="highcharts-point highcharts-color-0 highcharts-lollipop-low" tabindex="-1" aria-label="Slovakia, low: 69.8, high: 74.8. Life expectancy change." style="outline:0" transform="matrix(0 -1 -1 0 590 345)"/><path fill="#f0f0f0" d="M29 262a4 4 0 1 1 .004 0Z" class="highcharts-point highcharts-color-0 highcharts-lollipop-low" tabindex="-1" aria-label="Sweden, low: 74.7, high: 83.2. Life expectancy change." style="outline:0" transform="matrix(0 -1 -1 0 590 345)"/><path fill="#f0f0f0" d="M9 296a4 4 0 1 1 .004 0Z" class="highcharts-point highcharts-color-0 highcharts-lollipop-low" tabindex="-1" aria-label="Switzerland, low: 73.2, high: 84. Life expectancy change." style="outline:0" transform="matrix(0 -1 -1 0 590 345)"/><path fill="#8087E8" d="M479 78a4 4 0 1 0 0-.004Zm14 20a4 4 0 1 0 0-.004Zm-103 20a4 4 0 1 0 0-.004Zm-12 20a4 4 0 1 0 0-.004Zm78 20a4 4 0 1 0 0-.004Zm-132 19a4 4 0 1 0 0-.004Zm198 20a4 4 0 1 0 0-.004Zm-198 20a4 4 0 1 0 0-.004Zm198 20a4 4 0 1 0 0-.004Zm-45 19a4 4 0 1 0 0-.004Zm-190 20a4 4 0 1 0 0-.004Zm43 20a4 4 0 1 0 0-.004Zm192 20a4 4 0 1 0 0-.004Zm19 20a4 4 0 1 0 0-.004Z" class="highcharts-point highcharts-color-0 highcharts-lollipop-high"/></g></g><text x="300" text-anchor="middle" class="highcharts-title" data-z-index="4" style="color:#fff;font-size:22px;font-weight:500;fill:#fff" y="27" aria-hidden="true">Change in Life Expectancy</text><text x="300" text-anchor="middle" class="highcharts-subtitle" data-z-index="4" style="color:#fff;font-size:16px;font-weight:400;fill:#fff" y="52" aria-hidden="true">1970 vs 2021 Source: <a target="_blank"><tspan>Eurostat</tspan></a></text><g class="highcharts-axis-labels highcharts-xaxis-labels" data-z-index="7" aria-hidden="true" text-anchor="end"><text x="72" style="color:#fff;cursor:default;font-size:12px;fill:#fff" y="83">Austria</text><text x="72" style="color:#fff;cursor:default;font-size:12px;fill:#fff" y="103">Belgium</text><text x="72" style="color:#fff;cursor:default;font-size:12px;fill:#fff" y="123">Czechia</text><text x="72" style="color:#fff;cursor:default;font-size:12px;fill:#fff" y="143">Estonia</text><text x="72" style="color:#fff;cursor:default;font-size:12px;fill:#fff" y="162">Greece</text><text x="72" style="color:#fff;cursor:default;font-size:12px;fill:#fff" y="182">Hungary</text><text x="72" style="color:#fff;cursor:default;font-size:12px;fill:#fff" y="202">Iceland</text><text x="72" style="color:#fff;cursor:default;font-size:12px;fill:#fff" y="222">Lithuania</text><text x="72" style="color:#fff;cursor:default;font-size:12px;fill:#fff" y="241">Norway</text><text x="72" style="color:#fff;cursor:default;font-size:12px;fill:#fff" y="261">Portugal</text><text x="72" style="color:#fff;cursor:default;font-size:12px;fill:#fff" y="281">Romania</text><text x="72" style="color:#fff;cursor:default;font-size:12px;fill:#fff" y="301">Slovakia</text><text x="72" style="color:#fff;cursor:default;font-size:12px;fill:#fff" y="321">Sweden</text><text x="72" style="color:#fff;cursor:default;font-size:12px;fill:#fff" y="340">Switzerland</text></g><g class="highcharts-axis-labels highcharts-yaxis-labels" data-z-index="7" aria-hidden="true" text-anchor="middle"><text x="87" style="color:#fff;cursor:default;font-size:12px;fill:#fff" y="365">64</text><text x="132.727" style="color:#fff;cursor:default;font-size:12px;fill:#fff" y="365">66</text><text x="178.455" style="color:#fff;cursor:default;font-size:12px;fill:#fff" y="365">68</text><text x="224.182" style="color:#fff;cursor:default;font-size:12px;fill:#fff" y="365">70</text><text x="269.909" style="color:#fff;cursor:default;font-size:12px;fill:#fff" y="365">72</text><text x="315.636" style="color:#fff;cursor:default;font-size:12px;fill:#fff" y="365">74</text><text x="361.364" style="color:#fff;cursor:default;font-size:12px;fill:#fff" y="365">76</text><text x="407.091" style="color:#fff;cursor:default;font-size:12px;fill:#fff" y="365">78</text><text x="452.818" style="color:#fff;cursor:default;font-size:12px;fill:#fff" y="365">80</text><text x="498.545" style="color:#fff;cursor:default;font-size:12px;fill:#fff" y="365">82</text><text x="544.273" style="color:#fff;cursor:default;font-size:12px;fill:#fff" y="365">84</text><text x="583.324" style="color:#fff;cursor:default;font-size:12px;fill:#fff" y="365">86</text></g></svg>