<svg class="highcharts-root" style="font-family:&quot;IBM Plex Sans&quot;,sans-serif;font-size:12px" xmlns="http://www.w3.org/2000/svg" width="600" height="400" aria-label="Interactive chart" aria-hidden="false"><defs aria-hidden="true"><linearGradient x1="0" y1="0" x2="0" y2="1" id="a"><stop offset="0" stop-color="#1f1836"/><stop offset="1" stop-color="#45445d"/></linearGradient><clipPath id="b"><path fill="none" d="M0 0h525v314H0z"/></clipPath></defs><rect fill="url(#a)" class="highcharts-background" width="600" height="400" rx="0" ry="0" aria-hidden="true"/><path fill="none" class="highcharts-plot-background" aria-hidden="true" d="M65 50h525v314H65z"/><g class="highcharts-plot-lines-0" data-z-index="0" aria-hidden="true"><path fill="none" class="highcharts-plot-line" stroke="gray" d="M65 364.5h525"/></g><g class="highcharts-grid highcharts-xaxis-grid" data-z-index="1" aria-hidden="true" fill="none"><path data-z-index="1" class="highcharts-grid-line" d="M190.5 50v314m135-314v314m134-314v314"/></g><g class="highcharts-grid highcharts-yaxis-grid" data-z-index="1" aria-hidden="true" fill="none" stroke="#707073"><path data-z-index="1" class="highcharts-grid-line" d="M65 364.5h525m-525-63h525m-525-63h525m-525-62h525m-525-63h525m-525-64h525"/></g><path fill="none" class="highcharts-plot-border" data-z-index="1" aria-hidden="true" d="M65 50h525v314H65z"/><g class="highcharts-axis highcharts-xaxis" data-z-index="2" aria-hidden="true" fill="none" stroke="#707073"><path class="highcharts-tick" d="M190.5 364v10m135-10v10m134-10v10"/><path class="highcharts-axis-line" data-z-index="7" d="M65 364.5h525"/></g><g class="highcharts-axis highcharts-yaxis" data-z-index="2" aria-hidden="true"><path fill="none" class="highcharts-tick" stroke="#707073" d="M65 364.5H55m10-63H55m10-63H55m10-62H55m10-63H55m10-64H55"/><text x="23.313" data-z-index="7" text-anchor="middle" transform="rotate(-90 23.313 207)" class="highcharts-axis-title" style="color:#fff;font-weight:300;fill:#fff" y="207">Value</text><path fill="none" class="highcharts-axis-line" data-z-index="7" d="M65 50v314"/></g><g class="highcharts-series-group" data-z-index="3" aria-hidden="false"><g class="highcharts-series highcharts-series-0 highcharts-spline-series highcharts-color-0" data-z-index=".1" clip-path="url(#b)" aria-hidden="true" fill="none" stroke-linejoin="round" stroke-linecap="round" transform="translate(65 50)"><path d="M5.147 84.317s16.156 1.254 26.927 33.109C42.844 149.28 48.23 243.59 59 243.59S75.156 28.28 85.926 28.28c10.771 0 16.157 162.554 26.927 201.142 10.771 38.588 16.156 38.588 26.927 38.588 10.77 0 16.156-17.309 26.927-17.309 10.77 0 16.156 47.97 26.927 47.97 10.77 0 16.156-51.172 26.927-95.35 10.77-44.178 16.156-125.54 26.926-125.54 10.771 0 16.156 92.746 26.927 136.157 10.77 43.411 16.156 80.9 26.927 80.9 10.77 0 16.156 0 26.927-17.97 10.77-17.97 16.156-155.368 26.927-163.927 10.77-8.559 16.156-8.559 26.926-8.559 10.771 0 16.156 81.533 26.927 81.533 12.106 0 18.16-6.798 30.266-29.867 10.749-20.483 16.124-79.014 26.873-79.014 10.857 0 16.285 146.102 27.142 146.102 10.61 0 26.523-123.103 26.523-123.103" class="highcharts-graph" data-z-index="1" stroke="#8087E8" stroke-width="2"/><path d="M5.147 84.317s16.156 1.254 26.927 33.109C42.844 149.28 48.23 243.59 59 243.59S75.156 28.28 85.926 28.28c10.771 0 16.157 162.554 26.927 201.142 10.771 38.588 16.156 38.588 26.927 38.588 10.77 0 16.156-17.309 26.927-17.309 10.77 0 16.156 47.97 26.927 47.97 10.77 0 16.156-51.172 26.927-95.35 10.77-44.178 16.156-125.54 26.926-125.54 10.771 0 16.156 92.746 26.927 136.157 10.77 43.411 16.156 80.9 26.927 80.9 10.77 0 16.156 0 26.927-17.97 10.77-17.97 16.156-155.368 26.927-163.927 10.77-8.559 16.156-8.559 26.926-8.559 10.771 0 16.156 81.533 26.927 81.533 12.106 0 18.16-6.798 30.266-29.867 10.749-20.483 16.124-79.014 26.873-79.014 10.857 0 16.285 146.102 27.142 146.102 10.61 0 26.523-123.103 26.523-123.103" data-z-index="2" class="highcharts-tracker-line" stroke="rgba(192,192,192,0.0001)" stroke-width="22"/></g><g class="highcharts-markers highcharts-series-0 highcharts-spline-series highcharts-color-0 highcharts-tracker" data-z-index=".1" aria-hidden="false" fill="#8087E8"><path d="M5 88.317a4 4 0 1 1 .004 0Z" class="highcharts-point highcharts-color-0" tabindex="-1" aria-label="Wednesday, Nov 30, 08:16:40.508, 0.7314745291740681. Random data." style="outline:0" transform="translate(65 50)"/><path d="M32 121.426a4 4 0 1 1 .004 0Z" class="highcharts-point highcharts-color-0" tabindex="-1" aria-label="Wednesday, Nov 30, 08:16:41.508, 0.6260330697499825. Random data." style="outline:0" transform="translate(65 50)"/><path d="M59 247.59a4 4 0 1 1 .004 0Z" class="highcharts-point highcharts-color-0" tabindex="-1" aria-label="Wednesday, Nov 30, 08:16:42.508, 0.22423721961570053. Random data." style="outline:0" transform="translate(65 50)"/><path d="M85 32.28a4 4 0 1 1 .004 0Z" class="highcharts-point highcharts-color-0" tabindex="-1" aria-label="Wednesday, Nov 30, 08:16:43.508, 0.9099364810790305. Random data." style="outline:0" transform="translate(65 50)"/><path d="M112 233.422a4 4 0 1 1 .004 0Z" class="highcharts-point highcharts-color-0" tabindex="-1" aria-label="Wednesday, Nov 30, 08:16:44.508, 0.26935536665056836. Random data." style="outline:0" transform="translate(65 50)"/><path d="M139 272.01a4 4 0 1 1 .004 0Z" class="highcharts-point highcharts-color-0" tabindex="-1" aria-label="Wednesday, Nov 30, 08:16:45.508, 0.146463815812359. Random data." style="outline:0" transform="translate(65 50)"/><path d="M166 254.701a4 4 0 1 1 .004 0Z" class="highcharts-point highcharts-color-0" tabindex="-1" aria-label="Wednesday, Nov 30, 08:16:46.508, 0.2015878344276154. Random data." style="outline:0" transform="translate(65 50)"/><path d="M193 302.671a4 4 0 1 1 .004 0Z" class="highcharts-point highcharts-color-0" tabindex="-1" aria-label="Wednesday, Nov 30, 08:16:47.508, 0.04881717013386555. Random data." style="outline:0" transform="translate(65 50)"/><path d="M220 207.321a4 4 0 1 1 .004 0Z" class="highcharts-point highcharts-color-0" tabindex="-1" aria-label="Wednesday, Nov 30, 08:16:48.508, 0.3524808165825253. Random data." style="outline:0" transform="translate(65 50)"/><path d="M247 81.782a4 4 0 1 1 .004 0Z" class="highcharts-point highcharts-color-0" tabindex="-1" aria-label="Wednesday, Nov 30, 08:16:49.508, 0.7522873388782818. Random data." style="outline:0" transform="translate(65 50)"/><path d="M274 217.938a4 4 0 1 1 .004 0Z" class="highcharts-point highcharts-color-0" tabindex="-1" aria-label="Wednesday, Nov 30, 08:16:50.508, 0.31866893695733056. Random data." style="outline:0" transform="translate(65 50)"/><path d="M301 298.838a4 4 0 1 1 .004 0Z" class="highcharts-point highcharts-color-0" tabindex="-1" aria-label="Wednesday, Nov 30, 08:16:51.508, 0.061023905230549236. Random data." style="outline:0" transform="translate(65 50)"/><path d="M328 280.869a4 4 0 1 1 .004 0Z" class="highcharts-point highcharts-color-0" tabindex="-1" aria-label="Wednesday, Nov 30, 08:16:52.508, 0.11825266494801068. Random data." style="outline:0" transform="translate(65 50)"/><path d="M355 116.941a4 4 0 1 1 .004 0Z" class="highcharts-point highcharts-color-0" tabindex="-1" aria-label="Wednesday, Nov 30, 08:16:53.508, 0.6403145427778028. Random data." style="outline:0" transform="translate(65 50)"/><path d="M382 108.382a4 4 0 1 1 .004 0Z" class="highcharts-point highcharts-color-0" tabindex="-1" aria-label="Wednesday, Nov 30, 08:16:54.508, 0.6675727475817097. Random data." style="outline:0" transform="translate(65 50)"/><path d="M409 189.915a4 4 0 1 1 .004 0Z" class="highcharts-point highcharts-color-0" tabindex="-1" aria-label="Wednesday, Nov 30, 08:16:55.508, 0.40791408781775207. Random data." style="outline:0" transform="translate(65 50)"/><path d="M439 160.048a4 4 0 1 1 .004 0Z" class="highcharts-point highcharts-color-0" tabindex="-1" aria-label="Wednesday, Nov 30, 08:16:56.632, 0.5030319999456707. Random data." style="outline:0" transform="translate(65 50)"/><path d="M466 81.034a4 4 0 1 1 .004 0Z" class="highcharts-point highcharts-color-0" tabindex="-1" aria-label="Wednesday, Nov 30, 08:16:57.630, 0.7546674206863342. Random data." style="outline:0" transform="translate(65 50)"/><path d="M493 227.136a4 4 0 1 1 .004 0Z" class="highcharts-point highcharts-color-0" tabindex="-1" aria-label="Wednesday, Nov 30, 08:16:58.638, 0.2893747146645185. Random data." style="outline:0" transform="translate(65 50)"/><path d="M519 104a4 4 0 1 1 .004 0Z" class="highcharts-point highcharts-color-0" tabindex="-1" aria-label="Wednesday, Nov 30, 08:16:59.623, 0.6814233238475504. Random data." style="outline:0" transform="translate(65 50)"/></g></g><text x="300" text-anchor="middle" class="highcharts-title" data-z-index="4" style="color:#fff;font-size:22px;font-weight:500;fill:#fff" y="27" aria-hidden="true">Live random data</text><g class="highcharts-axis-labels highcharts-xaxis-labels" data-z-index="7" aria-hidden="true" text-anchor="middle"><text x="191.102" style="color:#fff;cursor:default;font-size:12px;fill:#fff" y="384">08:16:45</text><text x="325.736" style="color:#fff;cursor:default;font-size:12px;fill:#fff" y="384">08:16:50</text><text x="460.37" style="color:#fff;cursor:default;font-size:12px;fill:#fff" y="384">08:16:55</text></g><g class="highcharts-axis-labels highcharts-yaxis-labels" data-z-index="7" aria-hidden="true" text-anchor="end"><text x="50" style="color:#fff;cursor:default;font-size:12px;fill:#fff" y="369">0</text><text x="50" style="color:#fff;cursor:default;font-size:12px;fill:#fff" y="306">0.2</text><text x="50" style="color:#fff;cursor:default;font-size:12px;fill:#fff" y="244">0.4</text><text x="50" style="color:#fff;cursor:default;font-size:12px;fill:#fff" y="181">0.6</text><text x="50" style="color:#fff;cursor:default;font-size:12px;fill:#fff" y="118">0.8</text><text x="50" style="color:#fff;cursor:default;font-size:12px;fill:#fff" y="55">1</text></g></svg>