<svg class="highcharts-root" style="font-family:&quot;IBM Plex Sans&quot;,sans-serif;font-size:12px" xmlns="http://www.w3.org/2000/svg" width="600" height="400" aria-label="Interactive chart" aria-hidden="false"><defs aria-hidden="true"><linearGradient x1="0" y1="0" x2="0" y2="1" id="a"><stop offset="0" stop-color="#1f1836"/><stop offset="1" stop-color="#45445d"/></linearGradient><clipPath id="b"><path fill="none" d="M0 0h473v214H0z"/></clipPath></defs><rect fill="url(#a)" class="highcharts-background" width="600" height="400" rx="0" ry="0" aria-hidden="true"/><path fill="none" class="highcharts-plot-background" aria-hidden="true" d="M65 93h473v214H65z"/><g class="highcharts-grid highcharts-xaxis-grid" data-z-index="1" aria-hidden="true" fill="none"><path data-z-index="1" class="highcharts-grid-line" d="M69.5 93v214m77-214v214m78-214v214m78-214v214m78-214v214m78-214v214m77-214v214"/></g><g class="highcharts-grid highcharts-xaxis-grid" data-z-index="1" aria-hidden="true" fill="none"><path data-z-index="1" class="highcharts-grid-line" d="M68.5 93v214m97-214v214m97-214v214m97-214v214m96-214v214"/></g><g class="highcharts-grid highcharts-yaxis-grid" data-z-index="1" aria-hidden="true" fill="none" stroke="#707073"><path data-z-index="1" class="highcharts-grid-line" d="M65 307.5h473m-473-71h473m-473-72h473m-473-72h473"/></g><g class="highcharts-grid highcharts-yaxis-grid" data-z-index="1" aria-hidden="true" fill="none" stroke="#707073"><path data-z-index="1" class="highcharts-grid-line" d="M65 307.5h473m-473-71h473m-473-72h473m-473-72h473"/></g><path fill="none" class="highcharts-plot-border" data-z-index="1" aria-hidden="true" d="M65 93h473v214H65z"/><g class="highcharts-axis highcharts-xaxis" data-z-index="2" aria-hidden="true"><path fill="none" class="highcharts-tick" stroke="#707073" d="M69.5 307v10m77-10v10m78-10v10m78-10v10m78-10v10m78-10v10m77-10v10"/><text x="301.5" data-z-index="7" text-anchor="middle" class="highcharts-axis-title" style="color:#fff;fill:#fff" y="345.5">Data</text><path fill="none" class="highcharts-axis-line" stroke="#707073" data-z-index="7" d="M65 307.5h473"/></g><g class="highcharts-axis highcharts-xaxis" data-z-index="2" aria-hidden="true"><path fill="none" class="highcharts-tick" stroke="#707073" d="M68.5 93V83m97 10V83m97 10V83m97 10V83m96 10V83"/><text x="301.5" data-z-index="7" text-anchor="middle" class="highcharts-axis-title" style="color:#fff;fill:#fff" y="63.5">Histogram</text><path fill="none" class="highcharts-axis-line" stroke="#707073" data-z-index="7" d="M65 92.5h473"/></g><g class="highcharts-axis highcharts-yaxis" data-z-index="2" aria-hidden="true"><path fill="none" class="highcharts-tick" stroke="#707073" d="M65 307.5H55m10-71H55m10-72H55m10-72H55"/><text x="23.313" data-z-index="7" text-anchor="middle" transform="rotate(-90 23.313 200)" class="highcharts-axis-title" style="color:#fff;font-weight:300;fill:#fff" y="200">Data</text><path fill="none" class="highcharts-axis-line" data-z-index="7" d="M65 93v214"/></g><g class="highcharts-axis highcharts-yaxis" data-z-index="2" aria-hidden="true"><path fill="none" class="highcharts-tick" stroke="#707073" d="M538 307.5h10m-10-71h10m-10-72h10m-10-72h10"/><text x="576.352" data-z-index="7" text-anchor="middle" transform="rotate(90 576.352 200)" class="highcharts-axis-title" style="color:#fff;font-weight:300;fill:#fff" y="200">Histogram</text><path fill="none" class="highcharts-axis-line" data-z-index="7" d="M538 93v214"/></g><g class="highcharts-series-group" data-z-index="3" aria-hidden="false"><g class="highcharts-series highcharts-series-0 highcharts-histogram-series highcharts-color-0 highcharts-tracker" data-z-index="-1" clip-path="url(#b)" aria-hidden="false" tabindex="-1" aria-label="Histogram, series 1 of 2 with 13 data points. Y axis, Histogram. X axis, Histogram." style="outline:0" fill="#8087E8" stroke="#fff" transform="translate(65 93)"><path class="highcharts-point highcharts-color-0" tabindex="-1" aria-label="1. 2.000 to 2.185, 1. Histogram." style="outline:0" d="M3.5 209.5h36v5h-36z"/><path class="highcharts-point highcharts-color-0" tabindex="-1" aria-label="2. 2.185 to 2.369, 7. Histogram." style="outline:0" d="M39.5 181.5h36v33h-36z"/><path class="highcharts-point highcharts-color-0" tabindex="-1" aria-label="3. 2.369 to 2.554, 11. Histogram." style="outline:0" d="M75.5 162.5h35v52h-35z"/><path class="highcharts-point highcharts-color-0" tabindex="-1" aria-label="4. 2.554 to 2.738, 14. Histogram." style="outline:0" d="M110.5 147.5h36v67h-36z"/><path class="highcharts-point highcharts-color-0" tabindex="-1" aria-label="5. 2.738 to 2.923, 24. Histogram." style="outline:0" d="M146.5 100.5h36v114h-36z"/><path class="highcharts-point highcharts-color-0" tabindex="-1" aria-label="6. 2.923 to 3.108, 37. Histogram." style="outline:0" d="M182.5 38.5h36v176h-36z"/><path class="highcharts-point highcharts-color-0" tabindex="-1" aria-label="7. 3.108 to 3.292, 13. Histogram." style="outline:0" d="M218.5 152.5h35v62h-35z"/><path class="highcharts-point highcharts-color-0" tabindex="-1" aria-label="8. 3.292 to 3.477, 18. Histogram." style="outline:0" d="M253.5 128.5h36v86h-36z"/><path class="highcharts-point highcharts-color-0" tabindex="-1" aria-label="9. 3.477 to 3.662, 10. Histogram." style="outline:0" d="M289.5 166.5h36v48h-36z"/><path class="highcharts-point highcharts-color-0" tabindex="-1" aria-label="10. 3.662 to 3.846, 9. Histogram." style="outline:0" d="M325.5 171.5h36v43h-36z"/><path class="highcharts-point highcharts-color-0" tabindex="-1" aria-label="11. 3.846 to 4.031, 3. Histogram." style="outline:0" d="M361.5 200.5h35v14h-35z"/><path class="highcharts-point highcharts-color-0" tabindex="-1" aria-label="12. 4.031 to 4.215, 2. Histogram." style="outline:0" d="M396.5 204.5h36v10h-36z"/><path class="highcharts-point highcharts-color-0" tabindex="-1" aria-label="13. 4.215 to 4.400, 1. Histogram." style="outline:0" d="M432.5 209.5h36v5h-36z"/></g><g class="highcharts-markers highcharts-series-1 highcharts-scatter-series highcharts-color-1 highcharts-tracker" data-z-index=".1" aria-hidden="false" tabindex="-1" aria-label="Data, series 2 of 2, scatter plot with 150 points. Y axis, Data. X axis, Data." style="outline:0" fill="#A3EDBA"><path d="M4.5 78.778a1.5 1.5 0 1 1 .001 0Z" class="highcharts-point highcharts-color-1" tabindex="-1" aria-label="x, 0, 3.5. Data." style="outline:0" transform="translate(65 93)"/><path d="M7.5 108.5a1.5 1.5 0 1 1 .001 0Z" class="highcharts-point highcharts-color-1" tabindex="-1" aria-label="x, 1, 3. Data." style="outline:0" transform="translate(65 93)"/><path d="M10.5 96.611a1.5 1.5 0 1 1 .001 0Z" class="highcharts-point highcharts-color-1" tabindex="-1" aria-label="x, 2, 3.2. Data." style="outline:0" transform="translate(65 93)"/><path d="M13.5 102.556a1.5 1.5 0 1 1 .001 0Z" class="highcharts-point highcharts-color-1" tabindex="-1" aria-label="x, 3, 3.1. Data." style="outline:0" transform="translate(65 93)"/><path d="M16.5 72.833a1.5 1.5 0 1 1 .001 0Z" class="highcharts-point highcharts-color-1" tabindex="-1" aria-label="x, 4, 3.6. Data." style="outline:0" transform="translate(65 93)"/><path d="M19.5 55a1.5 1.5 0 1 1 .001 0Z" class="highcharts-point highcharts-color-1" tabindex="-1" aria-label="x, 5, 3.9. Data." style="outline:0" transform="translate(65 93)"/><path d="M22.5 84.722a1.5 1.5 0 1 1 .001 0Z" class="highcharts-point highcharts-color-1" tabindex="-1" aria-label="x, 6, 3.4. Data." style="outline:0" transform="translate(65 93)"/><path d="M25.5 84.722a1.5 1.5 0 1 1 .001 0Z" class="highcharts-point highcharts-color-1" tabindex="-1" aria-label="x, 7, 3.4. Data." style="outline:0" transform="translate(65 93)"/><path d="M29.5 114.444a1.5 1.5 0 1 1 .001 0Z" class="highcharts-point highcharts-color-1" tabindex="-1" aria-label="x, 8, 2.9. Data." style="outline:0" transform="translate(65 93)"/><path d="M32.5 102.556a1.5 1.5 0 1 1 .001 0Z" class="highcharts-point highcharts-color-1" tabindex="-1" aria-label="x, 9, 3.1. Data." style="outline:0" transform="translate(65 93)"/><path d="M35.5 66.889a1.5 1.5 0 1 1 .001 0Z" class="highcharts-point highcharts-color-1" tabindex="-1" aria-label="x, 10, 3.7. Data." style="outline:0" transform="translate(65 93)"/><path d="M38.5 84.722a1.5 1.5 0 1 1 .001 0Z" class="highcharts-point highcharts-color-1" tabindex="-1" aria-label="x, 11, 3.4. Data." style="outline:0" transform="translate(65 93)"/><path d="M41.5 108.5a1.5 1.5 0 1 1 .001 0Z" class="highcharts-point highcharts-color-1" tabindex="-1" aria-label="x, 12, 3. Data." style="outline:0" transform="translate(65 93)"/><path d="M44.5 108.5a1.5 1.5 0 1 1 .001 0Z" class="highcharts-point highcharts-color-1" tabindex="-1" aria-label="x, 13, 3. Data." style="outline:0" transform="translate(65 93)"/><path d="M47.5 49.056a1.5 1.5 0 1 1 .001 0Z" class="highcharts-point highcharts-color-1" tabindex="-1" aria-label="x, 14, 4. Data." style="outline:0" transform="translate(65 93)"/><path d="M50.5 25.278a1.5 1.5 0 1 1 .001 0Z" class="highcharts-point highcharts-color-1" tabindex="-1" aria-label="x, 15, 4.4. Data." style="outline:0" transform="translate(65 93)"/><path d="M53.5 55a1.5 1.5 0 1 1 .001 0Z" class="highcharts-point highcharts-color-1" tabindex="-1" aria-label="x, 16, 3.9. Data." style="outline:0" transform="translate(65 93)"/><path d="M57.5 78.778a1.5 1.5 0 1 1 .001 0Z" class="highcharts-point highcharts-color-1" tabindex="-1" aria-label="x, 17, 3.5. Data." style="outline:0" transform="translate(65 93)"/><path d="M60.5 60.944a1.5 1.5 0 1 1 .001 0Z" class="highcharts-point highcharts-color-1" tabindex="-1" aria-label="x, 18, 3.8. Data." style="outline:0" transform="translate(65 93)"/><path d="M63.5 60.944a1.5 1.5 0 1 1 .001 0Z" class="highcharts-point highcharts-color-1" tabindex="-1" aria-label="x, 19, 3.8. Data." style="outline:0" transform="translate(65 93)"/><path d="M66.5 84.722a1.5 1.5 0 1 1 .001 0Z" class="highcharts-point highcharts-color-1" tabindex="-1" aria-label="x, 20, 3.4. Data." style="outline:0" transform="translate(65 93)"/><path d="M69.5 66.889a1.5 1.5 0 1 1 .001 0Z" class="highcharts-point highcharts-color-1" tabindex="-1" aria-label="x, 21, 3.7. Data." style="outline:0" transform="translate(65 93)"/><path d="M72.5 72.833a1.5 1.5 0 1 1 .001 0Z" class="highcharts-point highcharts-color-1" tabindex="-1" aria-label="x, 22, 3.6. Data." style="outline:0" transform="translate(65 93)"/><path d="M75.5 90.667a1.5 1.5 0 1 1 .001 0Z" class="highcharts-point highcharts-color-1" tabindex="-1" aria-label="x, 23, 3.3. Data." style="outline:0" transform="translate(65 93)"/><path d="M78.5 84.722a1.5 1.5 0 1 1 .001 0Z" class="highcharts-point highcharts-color-1" tabindex="-1" aria-label="x, 24, 3.4. Data." style="outline:0" transform="translate(65 93)"/><path d="M81.5 108.5a1.5 1.5 0 1 1 .001 0Z" class="highcharts-point highcharts-color-1" tabindex="-1" aria-label="x, 25, 3. Data." style="outline:0" transform="translate(65 93)"/><path d="M85.5 84.722a1.5 1.5 0 1 1 .001 0Z" class="highcharts-point highcharts-color-1" tabindex="-1" aria-label="x, 26, 3.4. Data." style="outline:0" transform="translate(65 93)"/><path d="M88.5 78.778a1.5 1.5 0 1 1 .001 0Z" class="highcharts-point highcharts-color-1" tabindex="-1" aria-label="x, 27, 3.5. Data." style="outline:0" transform="translate(65 93)"/><path d="M91.5 84.722a1.5 1.5 0 1 1 .001 0Z" class="highcharts-point highcharts-color-1" tabindex="-1" aria-label="x, 28, 3.4. Data." style="outline:0" transform="translate(65 93)"/><path d="M94.5 96.611a1.5 1.5 0 1 1 .001 0Z" class="highcharts-point highcharts-color-1" tabindex="-1" aria-label="x, 29, 3.2. Data." style="outline:0" transform="translate(65 93)"/><path d="M97.5 102.556a1.5 1.5 0 1 1 .001 0Z" class="highcharts-point highcharts-color-1" tabindex="-1" aria-label="x, 30, 3.1. Data." style="outline:0" transform="translate(65 93)"/><path d="M100.5 84.722a1.5 1.5 0 1 1 .001 0Z" class="highcharts-point highcharts-color-1" tabindex="-1" aria-label="x, 31, 3.4. Data." style="outline:0" transform="translate(65 93)"/><path d="M103.5 43.111a1.5 1.5 0 1 1 .001 0Z" class="highcharts-point highcharts-color-1" tabindex="-1" aria-label="x, 32, 4.1. Data." style="outline:0" transform="translate(65 93)"/><path d="M106.5 37.167a1.5 1.5 0 1 1 .001 0Z" class="highcharts-point highcharts-color-1" tabindex="-1" aria-label="x, 33, 4.2. Data." style="outline:0" transform="translate(65 93)"/><path d="M109.5 102.556a1.5 1.5 0 1 1 .001 0Z" class="highcharts-point highcharts-color-1" tabindex="-1" aria-label="x, 34, 3.1. Data." style="outline:0" transform="translate(65 93)"/><path d="M113.5 96.611a1.5 1.5 0 1 1 .001 0Z" class="highcharts-point highcharts-color-1" tabindex="-1" aria-label="x, 35, 3.2. Data." style="outline:0" transform="translate(65 93)"/><path d="M116.5 78.778a1.5 1.5 0 1 1 .001 0Z" class="highcharts-point highcharts-color-1" tabindex="-1" aria-label="x, 36, 3.5. Data." style="outline:0" transform="translate(65 93)"/><path d="M119.5 72.833a1.5 1.5 0 1 1 .001 0Z" class="highcharts-point highcharts-color-1" tabindex="-1" aria-label="x, 37, 3.6. Data." style="outline:0" transform="translate(65 93)"/><path d="M122.5 108.5a1.5 1.5 0 1 1 .001 0Z" class="highcharts-point highcharts-color-1" tabindex="-1" aria-label="x, 38, 3. Data." style="outline:0" transform="translate(65 93)"/><path d="M125.5 84.722a1.5 1.5 0 1 1 .001 0Z" class="highcharts-point highcharts-color-1" tabindex="-1" aria-label="x, 39, 3.4. Data." style="outline:0" transform="translate(65 93)"/><path d="M128.5 78.778a1.5 1.5 0 1 1 .001 0Z" class="highcharts-point highcharts-color-1" tabindex="-1" aria-label="x, 40, 3.5. Data." style="outline:0" transform="translate(65 93)"/><path d="M131.5 150.111a1.5 1.5 0 1 1 .001 0Z" class="highcharts-point highcharts-color-1" tabindex="-1" aria-label="x, 41, 2.3. Data." style="outline:0" transform="translate(65 93)"/><path d="M134.5 96.611a1.5 1.5 0 1 1 .001 0Z" class="highcharts-point highcharts-color-1" tabindex="-1" aria-label="x, 42, 3.2. Data." style="outline:0" transform="translate(65 93)"/><path d="M137.5 78.778a1.5 1.5 0 1 1 .001 0Z" class="highcharts-point highcharts-color-1" tabindex="-1" aria-label="x, 43, 3.5. Data." style="outline:0" transform="translate(65 93)"/><path d="M141.5 60.944a1.5 1.5 0 1 1 .001 0Z" class="highcharts-point highcharts-color-1" tabindex="-1" aria-label="x, 44, 3.8. Data." style="outline:0" transform="translate(65 93)"/><path d="M144.5 108.5a1.5 1.5 0 1 1 .001 0Z" class="highcharts-point highcharts-color-1" tabindex="-1" aria-label="x, 45, 3. Data." style="outline:0" transform="translate(65 93)"/><path d="M147.5 60.944a1.5 1.5 0 1 1 .001 0Z" class="highcharts-point highcharts-color-1" tabindex="-1" aria-label="x, 46, 3.8. Data." style="outline:0" transform="translate(65 93)"/><path d="M150.5 96.611a1.5 1.5 0 1 1 .001 0Z" class="highcharts-point highcharts-color-1" tabindex="-1" aria-label="x, 47, 3.2. Data." style="outline:0" transform="translate(65 93)"/><path d="M153.5 66.889a1.5 1.5 0 1 1 .001 0Z" class="highcharts-point highcharts-color-1" tabindex="-1" aria-label="x, 48, 3.7. Data." style="outline:0" transform="translate(65 93)"/><path d="M156.5 90.667a1.5 1.5 0 1 1 .001 0Z" class="highcharts-point highcharts-color-1" tabindex="-1" aria-label="x, 49, 3.3. Data." style="outline:0" transform="translate(65 93)"/><path d="M159.5 96.611a1.5 1.5 0 1 1 .001 0Z" class="highcharts-point highcharts-color-1" tabindex="-1" aria-label="x, 50, 3.2. Data." style="outline:0" transform="translate(65 93)"/><path d="M162.5 96.611a1.5 1.5 0 1 1 .001 0Z" class="highcharts-point highcharts-color-1" tabindex="-1" aria-label="x, 51, 3.2. Data." style="outline:0" transform="translate(65 93)"/><path d="M165.5 102.556a1.5 1.5 0 1 1 .001 0Z" class="highcharts-point highcharts-color-1" tabindex="-1" aria-label="x, 52, 3.1. Data." style="outline:0" transform="translate(65 93)"/><path d="M169.5 150.111a1.5 1.5 0 1 1 .001 0Z" class="highcharts-point highcharts-color-1" tabindex="-1" aria-label="x, 53, 2.3. Data." style="outline:0" transform="translate(65 93)"/><path d="M172.5 120.389a1.5 1.5 0 1 1 .001 0Z" class="highcharts-point highcharts-color-1" tabindex="-1" aria-label="x, 54, 2.8. Data." style="outline:0" transform="translate(65 93)"/><path d="M175.5 120.389a1.5 1.5 0 1 1 .001 0Z" class="highcharts-point highcharts-color-1" tabindex="-1" aria-label="x, 55, 2.8. Data." style="outline:0" transform="translate(65 93)"/><path d="M178.5 90.667a1.5 1.5 0 1 1 .001 0Z" class="highcharts-point highcharts-color-1" tabindex="-1" aria-label="x, 56, 3.3. Data." style="outline:0" transform="translate(65 93)"/><path d="M181.5 144.167a1.5 1.5 0 1 1 .001 0Z" class="highcharts-point highcharts-color-1" tabindex="-1" aria-label="x, 57, 2.4. Data." style="outline:0" transform="translate(65 93)"/><path d="M184.5 114.444a1.5 1.5 0 1 1 .001 0Z" class="highcharts-point highcharts-color-1" tabindex="-1" aria-label="x, 58, 2.9. Data." style="outline:0" transform="translate(65 93)"/><path d="M187.5 126.333a1.5 1.5 0 1 1 .001 0Z" class="highcharts-point highcharts-color-1" tabindex="-1" aria-label="x, 59, 2.7. Data." style="outline:0" transform="translate(65 93)"/><path d="M190.5 167.944a1.5 1.5 0 1 1 .001 0Z" class="highcharts-point highcharts-color-1" tabindex="-1" aria-label="x, 60, 2. Data." style="outline:0" transform="translate(65 93)"/><path d="M193.5 108.5a1.5 1.5 0 1 1 .001 0Z" class="highcharts-point highcharts-color-1" tabindex="-1" aria-label="x, 61, 3. Data." style="outline:0" transform="translate(65 93)"/><path d="M197.5 156.056a1.5 1.5 0 1 1 .001 0Z" class="highcharts-point highcharts-color-1" tabindex="-1" aria-label="x, 62, 2.2. Data." style="outline:0" transform="translate(65 93)"/><path d="M200.5 114.444a1.5 1.5 0 1 1 .001 0Z" class="highcharts-point highcharts-color-1" tabindex="-1" aria-label="x, 63, 2.9. Data." style="outline:0" transform="translate(65 93)"/><path d="M203.5 114.444a1.5 1.5 0 1 1 .001 0Z" class="highcharts-point highcharts-color-1" tabindex="-1" aria-label="x, 64, 2.9. Data." style="outline:0" transform="translate(65 93)"/><path d="M206.5 102.556a1.5 1.5 0 1 1 .001 0Z" class="highcharts-point highcharts-color-1" tabindex="-1" aria-label="x, 65, 3.1. Data." style="outline:0" transform="translate(65 93)"/><path d="M209.5 108.5a1.5 1.5 0 1 1 .001 0Z" class="highcharts-point highcharts-color-1" tabindex="-1" aria-label="x, 66, 3. Data." style="outline:0" transform="translate(65 93)"/><path d="M212.5 126.333a1.5 1.5 0 1 1 .001 0Z" class="highcharts-point highcharts-color-1" tabindex="-1" aria-label="x, 67, 2.7. Data." style="outline:0" transform="translate(65 93)"/><path d="M215.5 156.056a1.5 1.5 0 1 1 .001 0Z" class="highcharts-point highcharts-color-1" tabindex="-1" aria-label="x, 68, 2.2. Data." style="outline:0" transform="translate(65 93)"/><path d="M218.5 138.222a1.5 1.5 0 1 1 .001 0Z" class="highcharts-point highcharts-color-1" tabindex="-1" aria-label="x, 69, 2.5. Data." style="outline:0" transform="translate(65 93)"/><path d="M221.5 96.611a1.5 1.5 0 1 1 .001 0Z" class="highcharts-point highcharts-color-1" tabindex="-1" aria-label="x, 70, 3.2. Data." style="outline:0" transform="translate(65 93)"/><path d="M225.5 120.389a1.5 1.5 0 1 1 .001 0Z" class="highcharts-point highcharts-color-1" tabindex="-1" aria-label="x, 71, 2.8. Data." style="outline:0" transform="translate(65 93)"/><path d="M228.5 138.222a1.5 1.5 0 1 1 .001 0Z" class="highcharts-point highcharts-color-1" tabindex="-1" aria-label="x, 72, 2.5. Data." style="outline:0" transform="translate(65 93)"/><path d="M231.5 120.389a1.5 1.5 0 1 1 .001 0Z" class="highcharts-point highcharts-color-1" tabindex="-1" aria-label="x, 73, 2.8. Data." style="outline:0" transform="translate(65 93)"/><path d="M234.5 114.444a1.5 1.5 0 1 1 .001 0Z" class="highcharts-point highcharts-color-1" tabindex="-1" aria-label="x, 74, 2.9. Data." style="outline:0" transform="translate(65 93)"/><path d="M237.5 108.5a1.5 1.5 0 1 1 .001 0Z" class="highcharts-point highcharts-color-1" tabindex="-1" aria-label="x, 75, 3. Data." style="outline:0" transform="translate(65 93)"/><path d="M240.5 120.389a1.5 1.5 0 1 1 .001 0Z" class="highcharts-point highcharts-color-1" tabindex="-1" aria-label="x, 76, 2.8. Data." style="outline:0" transform="translate(65 93)"/><path d="M243.5 108.5a1.5 1.5 0 1 1 .001 0Z" class="highcharts-point highcharts-color-1" tabindex="-1" aria-label="x, 77, 3. Data." style="outline:0" transform="translate(65 93)"/><path d="M246.5 114.444a1.5 1.5 0 1 1 .001 0Z" class="highcharts-point highcharts-color-1" tabindex="-1" aria-label="x, 78, 2.9. Data." style="outline:0" transform="translate(65 93)"/><path d="M250.5 132.278a1.5 1.5 0 1 1 .001 0Z" class="highcharts-point highcharts-color-1" tabindex="-1" aria-label="x, 79, 2.6. Data." style="outline:0" transform="translate(65 93)"/><path d="M253.5 144.167a1.5 1.5 0 1 1 .001 0Z" class="highcharts-point highcharts-color-1" tabindex="-1" aria-label="x, 80, 2.4. Data." style="outline:0" transform="translate(65 93)"/><path d="M256.5 144.167a1.5 1.5 0 1 1 .001 0Z" class="highcharts-point highcharts-color-1" tabindex="-1" aria-label="x, 81, 2.4. Data." style="outline:0" transform="translate(65 93)"/><path d="M259.5 126.333a1.5 1.5 0 1 1 .001 0Z" class="highcharts-point highcharts-color-1" tabindex="-1" aria-label="x, 82, 2.7. Data." style="outline:0" transform="translate(65 93)"/><path d="M262.5 126.333a1.5 1.5 0 1 1 .001 0Z" class="highcharts-point highcharts-color-1" tabindex="-1" aria-label="x, 83, 2.7. Data." style="outline:0" transform="translate(65 93)"/><path d="M265.5 108.5a1.5 1.5 0 1 1 .001 0Z" class="highcharts-point highcharts-color-1" tabindex="-1" aria-label="x, 84, 3. Data." style="outline:0" transform="translate(65 93)"/><path d="M268.5 84.722a1.5 1.5 0 1 1 .001 0Z" class="highcharts-point highcharts-color-1" tabindex="-1" aria-label="x, 85, 3.4. Data." style="outline:0" transform="translate(65 93)"/><path d="M271.5 102.556a1.5 1.5 0 1 1 .001 0Z" class="highcharts-point highcharts-color-1" tabindex="-1" aria-label="x, 86, 3.1. Data." style="outline:0" transform="translate(65 93)"/><path d="M274.5 150.111a1.5 1.5 0 1 1 .001 0Z" class="highcharts-point highcharts-color-1" tabindex="-1" aria-label="x, 87, 2.3. Data." style="outline:0" transform="translate(65 93)"/><path d="M278.5 108.5a1.5 1.5 0 1 1 .001 0Z" class="highcharts-point highcharts-color-1" tabindex="-1" aria-label="x, 88, 3. Data." style="outline:0" transform="translate(65 93)"/><path d="M281.5 138.222a1.5 1.5 0 1 1 .001 0Z" class="highcharts-point highcharts-color-1" tabindex="-1" aria-label="x, 89, 2.5. Data." style="outline:0" transform="translate(65 93)"/><path d="M284.5 132.278a1.5 1.5 0 1 1 .001 0Z" class="highcharts-point highcharts-color-1" tabindex="-1" aria-label="x, 90, 2.6. Data." style="outline:0" transform="translate(65 93)"/><path d="M287.5 108.5a1.5 1.5 0 1 1 .001 0Z" class="highcharts-point highcharts-color-1" tabindex="-1" aria-label="x, 91, 3. Data." style="outline:0" transform="translate(65 93)"/><path d="M290.5 132.278a1.5 1.5 0 1 1 .001 0Z" class="highcharts-point highcharts-color-1" tabindex="-1" aria-label="x, 92, 2.6. Data." style="outline:0" transform="translate(65 93)"/><path d="M293.5 150.111a1.5 1.5 0 1 1 .001 0Z" class="highcharts-point highcharts-color-1" tabindex="-1" aria-label="x, 93, 2.3. Data." style="outline:0" transform="translate(65 93)"/><path d="M296.5 126.333a1.5 1.5 0 1 1 .001 0Z" class="highcharts-point highcharts-color-1" tabindex="-1" aria-label="x, 94, 2.7. Data." style="outline:0" transform="translate(65 93)"/><path d="M299.5 108.5a1.5 1.5 0 1 1 .001 0Z" class="highcharts-point highcharts-color-1" tabindex="-1" aria-label="x, 95, 3. Data." style="outline:0" transform="translate(65 93)"/><path d="M302.5 114.444a1.5 1.5 0 1 1 .001 0Z" class="highcharts-point highcharts-color-1" tabindex="-1" aria-label="x, 96, 2.9. Data." style="outline:0" transform="translate(65 93)"/><path d="M306.5 114.444a1.5 1.5 0 1 1 .001 0Z" class="highcharts-point highcharts-color-1" tabindex="-1" aria-label="x, 97, 2.9. Data." style="outline:0" transform="translate(65 93)"/><path d="M309.5 138.222a1.5 1.5 0 1 1 .001 0Z" class="highcharts-point highcharts-color-1" tabindex="-1" aria-label="x, 98, 2.5. Data." style="outline:0" transform="translate(65 93)"/><path d="M312.5 120.389a1.5 1.5 0 1 1 .001 0Z" class="highcharts-point highcharts-color-1" tabindex="-1" aria-label="x, 99, 2.8. Data." style="outline:0" transform="translate(65 93)"/><path d="M315.5 90.667a1.5 1.5 0 1 1 .001 0Z" class="highcharts-point highcharts-color-1" tabindex="-1" aria-label="x, 100, 3.3. Data." style="outline:0" transform="translate(65 93)"/><path d="M318.5 126.333a1.5 1.5 0 1 1 .001 0Z" class="highcharts-point highcharts-color-1" tabindex="-1" aria-label="x, 101, 2.7. Data." style="outline:0" transform="translate(65 93)"/><path d="M321.5 108.5a1.5 1.5 0 1 1 .001 0Z" class="highcharts-point highcharts-color-1" tabindex="-1" aria-label="x, 102, 3. Data." style="outline:0" transform="translate(65 93)"/><path d="M324.5 114.444a1.5 1.5 0 1 1 .001 0Z" class="highcharts-point highcharts-color-1" tabindex="-1" aria-label="x, 103, 2.9. Data." style="outline:0" transform="translate(65 93)"/><path d="M327.5 108.5a1.5 1.5 0 1 1 .001 0Z" class="highcharts-point highcharts-color-1" tabindex="-1" aria-label="x, 104, 3. Data." style="outline:0" transform="translate(65 93)"/><path d="M330.5 108.5a1.5 1.5 0 1 1 .001 0Z" class="highcharts-point highcharts-color-1" tabindex="-1" aria-label="x, 105, 3. Data." style="outline:0" transform="translate(65 93)"/><path d="M334.5 138.222a1.5 1.5 0 1 1 .001 0Z" class="highcharts-point highcharts-color-1" tabindex="-1" aria-label="x, 106, 2.5. Data." style="outline:0" transform="translate(65 93)"/><path d="M337.5 114.444a1.5 1.5 0 1 1 .001 0Z" class="highcharts-point highcharts-color-1" tabindex="-1" aria-label="x, 107, 2.9. Data." style="outline:0" transform="translate(65 93)"/><path d="M340.5 138.222a1.5 1.5 0 1 1 .001 0Z" class="highcharts-point highcharts-color-1" tabindex="-1" aria-label="x, 108, 2.5. Data." style="outline:0" transform="translate(65 93)"/><path d="M343.5 72.833a1.5 1.5 0 1 1 .001 0Z" class="highcharts-point highcharts-color-1" tabindex="-1" aria-label="x, 109, 3.6. Data." style="outline:0" transform="translate(65 93)"/><path d="M346.5 96.611a1.5 1.5 0 1 1 .001 0Z" class="highcharts-point highcharts-color-1" tabindex="-1" aria-label="x, 110, 3.2. Data." style="outline:0" transform="translate(65 93)"/><path d="M349.5 126.333a1.5 1.5 0 1 1 .001 0Z" class="highcharts-point highcharts-color-1" tabindex="-1" aria-label="x, 111, 2.7. Data." style="outline:0" transform="translate(65 93)"/><path d="M352.5 108.5a1.5 1.5 0 1 1 .001 0Z" class="highcharts-point highcharts-color-1" tabindex="-1" aria-label="x, 112, 3. Data." style="outline:0" transform="translate(65 93)"/><path d="M355.5 138.222a1.5 1.5 0 1 1 .001 0Z" class="highcharts-point highcharts-color-1" tabindex="-1" aria-label="x, 113, 2.5. Data." style="outline:0" transform="translate(65 93)"/><path d="M358.5 120.389a1.5 1.5 0 1 1 .001 0Z" class="highcharts-point highcharts-color-1" tabindex="-1" aria-label="x, 114, 2.8. Data." style="outline:0" transform="translate(65 93)"/><path d="M362.5 96.611a1.5 1.5 0 1 1 .001 0Z" class="highcharts-point highcharts-color-1" tabindex="-1" aria-label="x, 115, 3.2. Data." style="outline:0" transform="translate(65 93)"/><path d="M365.5 108.5a1.5 1.5 0 1 1 .001 0Z" class="highcharts-point highcharts-color-1" tabindex="-1" aria-label="x, 116, 3. Data." style="outline:0" transform="translate(65 93)"/><path d="M368.5 60.944a1.5 1.5 0 1 1 .001 0Z" class="highcharts-point highcharts-color-1" tabindex="-1" aria-label="x, 117, 3.8. Data." style="outline:0" transform="translate(65 93)"/><path d="M371.5 132.278a1.5 1.5 0 1 1 .001 0Z" class="highcharts-point highcharts-color-1" tabindex="-1" aria-label="x, 118, 2.6. Data." style="outline:0" transform="translate(65 93)"/><path d="M374.5 156.056a1.5 1.5 0 1 1 .001 0Z" class="highcharts-point highcharts-color-1" tabindex="-1" aria-label="x, 119, 2.2. Data." style="outline:0" transform="translate(65 93)"/><path d="M377.5 96.611a1.5 1.5 0 1 1 .001 0Z" class="highcharts-point highcharts-color-1" tabindex="-1" aria-label="x, 120, 3.2. Data." style="outline:0" transform="translate(65 93)"/><path d="M380.5 120.389a1.5 1.5 0 1 1 .001 0Z" class="highcharts-point highcharts-color-1" tabindex="-1" aria-label="x, 121, 2.8. Data." style="outline:0" transform="translate(65 93)"/><path d="M383.5 120.389a1.5 1.5 0 1 1 .001 0Z" class="highcharts-point highcharts-color-1" tabindex="-1" aria-label="x, 122, 2.8. Data." style="outline:0" transform="translate(65 93)"/><path d="M386.5 126.333a1.5 1.5 0 1 1 .001 0Z" class="highcharts-point highcharts-color-1" tabindex="-1" aria-label="x, 123, 2.7. Data." style="outline:0" transform="translate(65 93)"/><path d="M390.5 90.667a1.5 1.5 0 1 1 .001 0Z" class="highcharts-point highcharts-color-1" tabindex="-1" aria-label="x, 124, 3.3. Data." style="outline:0" transform="translate(65 93)"/><path d="M393.5 96.611a1.5 1.5 0 1 1 .001 0Z" class="highcharts-point highcharts-color-1" tabindex="-1" aria-label="x, 125, 3.2. Data." style="outline:0" transform="translate(65 93)"/><path d="M396.5 120.389a1.5 1.5 0 1 1 .001 0Z" class="highcharts-point highcharts-color-1" tabindex="-1" aria-label="x, 126, 2.8. Data." style="outline:0" transform="translate(65 93)"/><path d="M399.5 108.5a1.5 1.5 0 1 1 .001 0Z" class="highcharts-point highcharts-color-1" tabindex="-1" aria-label="x, 127, 3. Data." style="outline:0" transform="translate(65 93)"/><path d="M402.5 120.389a1.5 1.5 0 1 1 .001 0Z" class="highcharts-point highcharts-color-1" tabindex="-1" aria-label="x, 128, 2.8. Data." style="outline:0" transform="translate(65 93)"/><path d="M405.5 108.5a1.5 1.5 0 1 1 .001 0Z" class="highcharts-point highcharts-color-1" tabindex="-1" aria-label="x, 129, 3. Data." style="outline:0" transform="translate(65 93)"/><path d="M408.5 120.389a1.5 1.5 0 1 1 .001 0Z" class="highcharts-point highcharts-color-1" tabindex="-1" aria-label="x, 130, 2.8. Data." style="outline:0" transform="translate(65 93)"/><path d="M411.5 60.944a1.5 1.5 0 1 1 .001 0Z" class="highcharts-point highcharts-color-1" tabindex="-1" aria-label="x, 131, 3.8. Data." style="outline:0" transform="translate(65 93)"/><path d="M414.5 120.389a1.5 1.5 0 1 1 .001 0Z" class="highcharts-point highcharts-color-1" tabindex="-1" aria-label="x, 132, 2.8. Data." style="outline:0" transform="translate(65 93)"/><path d="M418.5 120.389a1.5 1.5 0 1 1 .001 0Z" class="highcharts-point highcharts-color-1" tabindex="-1" aria-label="x, 133, 2.8. Data." style="outline:0" transform="translate(65 93)"/><path d="M421.5 132.278a1.5 1.5 0 1 1 .001 0Z" class="highcharts-point highcharts-color-1" tabindex="-1" aria-label="x, 134, 2.6. Data." style="outline:0" transform="translate(65 93)"/><path d="M424.5 108.5a1.5 1.5 0 1 1 .001 0Z" class="highcharts-point highcharts-color-1" tabindex="-1" aria-label="x, 135, 3. Data." style="outline:0" transform="translate(65 93)"/><path d="M427.5 84.722a1.5 1.5 0 1 1 .001 0Z" class="highcharts-point highcharts-color-1" tabindex="-1" aria-label="x, 136, 3.4. Data." style="outline:0" transform="translate(65 93)"/><path d="M430.5 102.556a1.5 1.5 0 1 1 .001 0Z" class="highcharts-point highcharts-color-1" tabindex="-1" aria-label="x, 137, 3.1. Data." style="outline:0" transform="translate(65 93)"/><path d="M433.5 108.5a1.5 1.5 0 1 1 .001 0Z" class="highcharts-point highcharts-color-1" tabindex="-1" aria-label="x, 138, 3. Data." style="outline:0" transform="translate(65 93)"/><path d="M436.5 102.556a1.5 1.5 0 1 1 .001 0Z" class="highcharts-point highcharts-color-1" tabindex="-1" aria-label="x, 139, 3.1. Data." style="outline:0" transform="translate(65 93)"/><path d="M439.5 102.556a1.5 1.5 0 1 1 .001 0Z" class="highcharts-point highcharts-color-1" tabindex="-1" aria-label="x, 140, 3.1. Data." style="outline:0" transform="translate(65 93)"/><path d="M442.5 102.556a1.5 1.5 0 1 1 .001 0Z" class="highcharts-point highcharts-color-1" tabindex="-1" aria-label="x, 141, 3.1. Data." style="outline:0" transform="translate(65 93)"/><path d="M446.5 126.333a1.5 1.5 0 1 1 .001 0Z" class="highcharts-point highcharts-color-1" tabindex="-1" aria-label="x, 142, 2.7. Data." style="outline:0" transform="translate(65 93)"/><path d="M449.5 96.611a1.5 1.5 0 1 1 .001 0Z" class="highcharts-point highcharts-color-1" tabindex="-1" aria-label="x, 143, 3.2. Data." style="outline:0" transform="translate(65 93)"/><path d="M452.5 90.667a1.5 1.5 0 1 1 .001 0Z" class="highcharts-point highcharts-color-1" tabindex="-1" aria-label="x, 144, 3.3. Data." style="outline:0" transform="translate(65 93)"/><path d="M455.5 108.5a1.5 1.5 0 1 1 .001 0Z" class="highcharts-point highcharts-color-1" tabindex="-1" aria-label="x, 145, 3. Data." style="outline:0" transform="translate(65 93)"/><path d="M458.5 138.222a1.5 1.5 0 1 1 .001 0Z" class="highcharts-point highcharts-color-1" tabindex="-1" aria-label="x, 146, 2.5. Data." style="outline:0" transform="translate(65 93)"/><path d="M461.5 108.5a1.5 1.5 0 1 1 .001 0Z" class="highcharts-point highcharts-color-1" tabindex="-1" aria-label="x, 147, 3. Data." style="outline:0" transform="translate(65 93)"/><path d="M464.5 84.722a1.5 1.5 0 1 1 .001 0Z" class="highcharts-point highcharts-color-1" tabindex="-1" aria-label="x, 148, 3.4. Data." style="outline:0" transform="translate(65 93)"/><path d="M467.5 108.5a1.5 1.5 0 1 1 .001 0Z" class="highcharts-point highcharts-color-1" tabindex="-1" aria-label="x, 149, 3. Data." style="outline:0" transform="translate(65 93)"/></g></g><text x="300" text-anchor="middle" class="highcharts-title" data-z-index="4" style="color:#fff;font-size:22px;font-weight:500;fill:#fff" y="27" aria-hidden="true">Highcharts Histogram</text><g class="highcharts-legend highcharts-no-tooltip" data-z-index="7" transform="translate(221 359)" aria-hidden="true"><rect fill="transparent" class="highcharts-legend-box" rx="0" ry="0" width="158" height="26"/><g data-z-index="1"><g class="highcharts-legend-item highcharts-histogram-series highcharts-color-0 highcharts-series-0" data-z-index="1" transform="translate(8 3)"><text x="21" data-z-index="2" y="15" style="color:#fff;cursor:pointer;font-size:12px;font-weight:400;fill:#fff">Histogram</text><rect x="2" y="4" width="12" height="12" fill="#8087E8" rx="6" ry="6" class="highcharts-point" data-z-index="3"/></g><g class="highcharts-legend-item highcharts-scatter-series highcharts-color-1 highcharts-series-1" data-z-index="1"><path fill="none" d="M103.68 14h16" class="highcharts-graph"/><path fill="#A3EDBA" d="M112.18 16a1.5 1.5 0 1 1 .001 0Z" class="highcharts-point"/><text x="21" y="15" data-z-index="2" style="color:#fff;cursor:pointer;font-size:12px;font-weight:400;fill:#fff" transform="translate(103.68 3)">Data</text></g></g></g><g class="highcharts-axis-labels highcharts-xaxis-labels" data-z-index="7" aria-hidden="true" text-anchor="middle"><text x="69.637" style="color:#fff;cursor:default;font-size:12px;fill:#fff" y="327">0</text><text x="147.444" style="color:#fff;cursor:default;font-size:12px;fill:#fff" y="327">25</text><text x="225.25" style="color:#fff;cursor:default;font-size:12px;fill:#fff" y="327">50</text><text x="303.056" style="color:#fff;cursor:default;font-size:12px;fill:#fff" y="327">75</text><text x="380.862" style="color:#fff;cursor:default;font-size:12px;fill:#fff" y="327">100</text><text x="458.669" style="color:#fff;cursor:default;font-size:12px;fill:#fff" y="327">125</text><text x="536.475" style="color:#fff;cursor:default;font-size:12px;fill:#fff" y="327">150</text></g><g class="highcharts-axis-labels highcharts-xaxis-labels" data-z-index="7" aria-hidden="true" text-anchor="middle"><text x="69.287" style="color:#fff;cursor:default;font-size:12px;fill:#fff" y="80">2</text><text x="166.042" style="color:#fff;cursor:default;font-size:12px;fill:#fff" y="80">2.5</text><text x="262.798" style="color:#fff;cursor:default;font-size:12px;fill:#fff" y="80">3</text><text x="359.553" style="color:#fff;cursor:default;font-size:12px;fill:#fff" y="80">3.5</text><text x="456.309" style="color:#fff;cursor:default;font-size:12px;fill:#fff" y="80">4</text></g><g class="highcharts-axis-labels highcharts-yaxis-labels" data-z-index="7" aria-hidden="true" text-anchor="end"><text x="50" style="color:#fff;cursor:default;font-size:12px;fill:#fff" y="241">2.4</text><text x="50" style="color:#fff;cursor:default;font-size:12px;fill:#fff" y="98">4.8</text><text x="50" style="color:#fff;cursor:default;font-size:12px;fill:#fff" y="312">1.2</text><text x="50" style="color:#fff;cursor:default;font-size:12px;fill:#fff" y="170">3.6</text></g><g class="highcharts-axis-labels highcharts-yaxis-labels" data-z-index="7" aria-hidden="true"><text x="553" style="color:#fff;cursor:default;font-size:12px;fill:#fff" y="312">0</text><text x="553" style="color:#fff;cursor:default;font-size:12px;fill:#fff" y="170">30</text><text x="553" style="color:#fff;cursor:default;font-size:12px;fill:#fff" y="241">15</text><text x="553" style="color:#fff;cursor:default;font-size:12px;fill:#fff" y="98">45</text></g></svg>