<svg class="highcharts-root" style="font-family:&quot;IBM Plex Sans&quot;,sans-serif;font-size:12px" xmlns="http://www.w3.org/2000/svg" width="600" height="480" aria-label="Interactive chart" aria-hidden="false"><defs aria-hidden="true"><linearGradient x1="0" y1="0" x2="0" y2="1" id="a"><stop offset="0" stop-color="#1f1836"/><stop offset="1" stop-color="#45445d"/></linearGradient><clipPath id="b"><path fill="none" d="M0 0h359v580H0z"/></clipPath></defs><rect fill="url(#a)" class="highcharts-background" width="600" height="480" rx="0" ry="0" aria-hidden="true"/><path fill="none" class="highcharts-plot-background" aria-hidden="true" d="M10 68h580v359H10z"/><path fill="none" class="highcharts-plot-border" data-z-index="1" aria-hidden="true" d="M10 68h580v359H10z"/><g class="highcharts-series-group" data-z-index="3" aria-hidden="false"><g class="highcharts-series highcharts-series-0 highcharts-tilemap-series highcharts-color-0 highcharts-tracker" data-z-index=".1" clip-path="url(#b)" aria-hidden="false" transform="matrix(0 -1 -1 0 590 427)"><path fill="#FFC428" d="M116 230H96l-10.87-21L96 188h20l11.87 21Z" class="highcharts-point" tabindex="-1" aria-label="1. Alabama, 4849377." style="outline:0"/><path fill="#F9EDB3" d="M335 553h-21l-10.957-21L314 511h21l10.957 21Z" class="highcharts-point" tabindex="-1" aria-label="2. Alaska, 737732." style="outline:0"/><path fill="#FF7987" d="M153 438h-20l-11.957-21L133 396h20l10.957 21Z" class="highcharts-point" tabindex="-1" aria-label="3. Arizona, 6745408." style="outline:0"/><path fill="#FFC428" d="M153 299h-20l-11.957-21L133 257h20l10.957 21Z" class="highcharts-point" tabindex="-1" aria-label="4. Arkansas, 2994079." style="outline:0"/><path fill="#FF2371" d="M153 484h-20l-11.957-21L133 442h20l10.957 21Z" class="highcharts-point" tabindex="-1" aria-label="5. California, 39250017." style="outline:0"/><path fill="#FF7987" d="M189 415h-20l-10.957-21L169 373h20l10.957 21Z" class="highcharts-point" tabindex="-1" aria-label="6. Colorado, 5540545." style="outline:0"/><path fill="#FFC428" d="M225 69h-20l-10.917-21L205 26h20l11.917 22Z" class="highcharts-point" tabindex="-1" aria-label="7. Connecticut, 3596677." style="outline:0"/><path fill="#F9EDB3" d="M189 138h-20l-10.957-21L169 96h20l10.957 21Z" class="highcharts-point" tabindex="-1" aria-label="8. Delaware, 935614." style="outline:0"/><path fill="#FF7987" d="M189 92h-20l-10.957-21L169 50h20l10.957 21Z" class="highcharts-point" tabindex="-1" aria-label="9. District of Columbia, 7288000." style="outline:0"/><path fill="#FF2371" d="M44 184H23l-10.957-21L23 142h21l10.957 21Z" class="highcharts-point" tabindex="-1" aria-label="10. Florida, 20612439." style="outline:0"/><path fill="#FF7987" d="M80 207H60l-10.957-21L60 165h20l10.957 21Z" class="highcharts-point" tabindex="-1" aria-label="11. Georgia, 10310371." style="outline:0"/><path fill="#FFC428" d="M44 553H23l-10.957-21L23 511h21l10.957 21Z" class="highcharts-point" tabindex="-1" aria-label="12. Hawaii, 1419561." style="outline:0"/><path fill="#FFC428" d="M225 484h-20l-10.87-21L205 442h20l11.87 21Z" class="highcharts-point" tabindex="-1" aria-label="13. Idaho, 1634464." style="outline:0"/><path fill="#FF7987" d="M225 299h-20l-10.87-21L205 257h20l11.87 21Z" class="highcharts-point" tabindex="-1" aria-label="14. Illinois, 12801539." style="outline:0"/><path fill="#FF7987" d="M225 253h-20l-10.87-21L205 211h20l11.87 21Z" class="highcharts-point" tabindex="-1" aria-label="15. Indiana, 6596855." style="outline:0"/><path fill="#FFC428" d="M225 346h-20l-10.917-21L205 303h20l11.917 22Z" class="highcharts-point" tabindex="-1" aria-label="16. Iowa, 3107126." style="outline:0"/><path fill="#FFC428" d="M153 346h-20l-12-21 12-22h20l11 22Z" class="highcharts-point" tabindex="-1" aria-label="17. Kansas, 2904021." style="outline:0"/><path fill="#FFC428" d="M189 276h-20l-10.957-21L169 234h20l10.957 21Z" class="highcharts-point" tabindex="-1" aria-label="18. Kentucky, 4413457." style="outline:0"/><path fill="#FFC428" d="M116 323H96l-10.917-21L96 280h20l11.917 22Z" class="highcharts-point" tabindex="-1" aria-label="19. Louisiana, 4649676." style="outline:0"/><path fill="#FFC428" d="M335 46h-21l-11-21 11-22h21l11 22Z" class="highcharts-point" tabindex="-1" aria-label="20. Maine, 1330089." style="outline:0"/><path fill="#FF7987" d="M189 184h-20l-10.957-21L169 142h20l10.957 21Z" class="highcharts-point" tabindex="-1" aria-label="21. Maryland, 6016447." style="outline:0"/><path fill="#FF7987" d="M262 92h-20l-11.957-21L242 50h20l10.957 21Z" class="highcharts-point" tabindex="-1" aria-label="22. Massachusetts, 6811779." style="outline:0"/><path fill="#FF7987" d="M262 230h-20l-11.957-21L242 188h20l10.957 21Z" class="highcharts-point" tabindex="-1" aria-label="23. Michigan, 9928301." style="outline:0"/><path fill="#FF7987" d="M262 369h-20l-11.957-21L242 327h20l10.957 21Z" class="highcharts-point" tabindex="-1" aria-label="24. Minnesota, 5519952." style="outline:0"/><path fill="#FFC428" d="M116 276H96l-10.87-21L96 234h20l11.87 21Z" class="highcharts-point" tabindex="-1" aria-label="25. Mississippi, 2984926." style="outline:0"/><path fill="#FF7987" d="M189 323h-20l-11-21 11-22h20l11 22Z" class="highcharts-point" tabindex="-1" aria-label="26. Missouri, 6093000." style="outline:0"/><path fill="#FFC428" d="M262 461h-20l-11.957-21L242 419h20l10.957 21Z" class="highcharts-point" tabindex="-1" aria-label="27. Montana, 1023579." style="outline:0"/><path fill="#FFC428" d="M189 369h-20l-10.957-21L169 327h20l10.957 21Z" class="highcharts-point" tabindex="-1" aria-label="28. Nebraska, 1881503." style="outline:0"/><path fill="#FFC428" d="M189 461h-20l-10.957-21L169 419h20l10.957 21Z" class="highcharts-point" tabindex="-1" aria-label="29. Nevada, 2839099." style="outline:0"/><path fill="#FFC428" d="M298 69h-20l-11-21 11-22h20l11 22Z" class="highcharts-point" tabindex="-1" aria-label="30. New Hampshire, 1326813." style="outline:0"/><path fill="#FF7987" d="M225 115h-20l-10.87-21L205 73h20l11.87 21Z" class="highcharts-point" tabindex="-1" aria-label="31. New Jersey, 8944469." style="outline:0"/><path fill="#FFC428" d="M116 415H96l-10.87-21L96 373h20l11.87 21Z" class="highcharts-point" tabindex="-1" aria-label="32. New Mexico, 2085572." style="outline:0"/><path fill="#FF7987" d="M262 138h-20l-11.957-21L242 96h20l10.957 21Z" class="highcharts-point" tabindex="-1" aria-label="33. New York, 19745289." style="outline:0"/><path fill="#FF7987" d="M153 161h-20l-11.957-21L133 119h20l10.957 21Z" class="highcharts-point" tabindex="-1" aria-label="34. North Carolina, 10146788." style="outline:0"/><path fill="#F9EDB3" d="M262 415h-20l-11.957-21L242 373h20l10.957 21Z" class="highcharts-point" tabindex="-1" aria-label="35. North Dakota, 739482." style="outline:0"/><path fill="#FF7987" d="M225 207h-20l-10.87-21L205 165h20l11.87 21Z" class="highcharts-point" tabindex="-1" aria-label="36. Ohio, 11614373." style="outline:0"/><path fill="#FFC428" d="M116 369H96l-10.87-21L96 327h20l11.87 21Z" class="highcharts-point" tabindex="-1" aria-label="37. Oklahoma, 3878051." style="outline:0"/><path fill="#FFC428" d="M189 507h-20l-10.957-21L169 465h20l10.957 21Z" class="highcharts-point" tabindex="-1" aria-label="38. Oregon, 3970239." style="outline:0"/><path fill="#FF7987" d="M225 161h-20l-10.87-21L205 119h20l11.87 21Z" class="highcharts-point" tabindex="-1" aria-label="39. Pennsylvania, 12784227." style="outline:0"/><path fill="#FFC428" d="M262 46h-20l-12-21 12-22h20l11 22Z" class="highcharts-point" tabindex="-1" aria-label="40. Rhode Island, 1055173." style="outline:0"/><path fill="#FFC428" d="M116 184H96l-10.87-21L96 142h20l11.87 21Z" class="highcharts-point" tabindex="-1" aria-label="41. South Carolina, 4832482." style="outline:0"/><path fill="#F9EDB3" d="M225 392h-20l-10.87-21L205 350h20l11.87 21Z" class="highcharts-point" tabindex="-1" aria-label="42. South Dakota, 853175." style="outline:0"/><path fill="#FF7987" d="M153 253h-20l-11.957-21L133 211h20l10.957 21Z" class="highcharts-point" tabindex="-1" aria-label="43. Tennessee, 6651194." style="outline:0"/><path fill="#FF2371" d="M80 392H60l-10.957-21L60 350h20l10.957 21Z" class="highcharts-point" tabindex="-1" aria-label="44. Texas, 27862596." style="outline:0"/><path fill="#FFC428" d="M153 392h-20l-11.957-21L133 350h20l10.957 21Z" class="highcharts-point" tabindex="-1" aria-label="45. Utah, 2942902." style="outline:0"/><path fill="#F9EDB3" d="M298 115h-20l-10.957-21L278 73h20l10.957 21Z" class="highcharts-point" tabindex="-1" aria-label="46. Vermont, 626011." style="outline:0"/><path fill="#FF7987" d="M153 207h-20l-11.957-21L133 165h20l10.957 21Z" class="highcharts-point" tabindex="-1" aria-label="47. Virginia, 8411808." style="outline:0"/><path fill="#FF7987" d="M262 507h-20l-11.957-21L242 465h20l10.957 21Z" class="highcharts-point" tabindex="-1" aria-label="48. Washington, 7288000." style="outline:0"/><path fill="#FFC428" d="M189 230h-20l-10.957-21L169 188h20l10.957 21Z" class="highcharts-point" tabindex="-1" aria-label="49. West Virginia, 1850326." style="outline:0"/><path fill="#FF7987" d="M262 323h-20l-12-21 12-22h20l11 22Z" class="highcharts-point" tabindex="-1" aria-label="50. Wisconsin, 5778708." style="outline:0"/><path fill="#F9EDB3" d="M225 438h-20l-10.87-21L205 396h20l11.87 21Z" class="highcharts-point" tabindex="-1" aria-label="51. Wyoming, 584153." style="outline:0"/></g></g><text x="300" text-anchor="middle" class="highcharts-title" data-z-index="4" style="color:#fff;font-size:22px;font-weight:500;fill:#fff" y="27" aria-hidden="true">U.S. states by population in 2016</text><text x="300" text-anchor="middle" class="highcharts-subtitle" data-z-index="4" style="color:#fff;font-size:16px;font-weight:400;fill:#fff" y="52" aria-hidden="true">Source:<a><tspan>Wikipedia</tspan></a></text><g class="highcharts-data-labels highcharts-series-0 highcharts-tilemap-series highcharts-color-0 highcharts-tracker" data-z-index="6" aria-hidden="true"><text data-z-index="1" y="13" style="color:#000;font-size:13px;font-weight:700;fill:#000" transform="translate(372 314)" class="highcharts-label highcharts-data-label highcharts-data-label-color-undefined">AL</text><text data-z-index="1" y="13" style="color:#000;font-size:13px;font-weight:700;fill:#000" transform="translate(49 96)" class="highcharts-label highcharts-data-label highcharts-data-label-color-undefined">AK</text><text data-z-index="1" y="13" style="color:#000;font-size:13px;font-weight:700;fill:#000" transform="translate(164 277)" class="highcharts-label highcharts-data-label highcharts-data-label-color-undefined">AZ</text><text data-z-index="1" y="13" style="color:#000;font-size:13px;font-weight:700;fill:#000" transform="translate(303 277)" class="highcharts-label highcharts-data-label highcharts-data-label-color-undefined">AR</text><text data-z-index="1" y="13" style="color:#000;font-size:13px;font-weight:700;fill:#000" transform="translate(118 277)" class="highcharts-label highcharts-data-label highcharts-data-label-color-undefined">CA</text><text data-z-index="1" y="13" style="color:#000;font-size:13px;font-weight:700;fill:#000" transform="translate(186 241)" class="highcharts-label highcharts-data-label highcharts-data-label-color-undefined">CO</text><text data-z-index="1" y="13" style="color:#000;font-size:13px;font-weight:700;fill:#000" transform="translate(533 205)" class="highcharts-label highcharts-data-label highcharts-data-label-color-undefined">CT</text><text data-z-index="1" y="13" style="color:#000;font-size:13px;font-weight:700;fill:#000" transform="translate(464 241)" class="highcharts-label highcharts-data-label highcharts-data-label-color-undefined">DE</text><text data-z-index="1" y="13" style="color:#000;font-size:13px;font-weight:700;fill:#000" transform="translate(510 241)" class="highcharts-label highcharts-data-label highcharts-data-label-color-undefined">DC</text><text data-z-index="1" y="13" style="color:#000;font-size:13px;font-weight:700;fill:#000" transform="translate(419 387)" class="highcharts-label highcharts-data-label highcharts-data-label-color-undefined">FL</text><text data-z-index="1" y="13" style="color:#000;font-size:13px;font-weight:700;fill:#000" transform="translate(394 350)" class="highcharts-label highcharts-data-label highcharts-data-label-color-undefined">GA</text><text data-z-index="1" y="13" style="color:#000;font-size:13px;font-weight:700;fill:#000" transform="translate(52 387)" class="highcharts-label highcharts-data-label highcharts-data-label-color-undefined">HI</text><text data-z-index="1" y="13" style="color:#000;font-size:13px;font-weight:700;fill:#000" transform="translate(121 205)" class="highcharts-label highcharts-data-label highcharts-data-label-color-undefined">ID</text><text data-z-index="1" y="13" style="color:#000;font-size:13px;font-weight:700;fill:#000" transform="translate(306 205)" class="highcharts-label highcharts-data-label highcharts-data-label-color-undefined">IL</text><text data-z-index="1" y="13" style="color:#000;font-size:13px;font-weight:700;fill:#000" transform="translate(352 205)" class="highcharts-label highcharts-data-label highcharts-data-label-color-undefined">IN</text><text data-z-index="1" y="13" style="color:#000;font-size:13px;font-weight:700;fill:#000" transform="translate(259 205)" class="highcharts-label highcharts-data-label highcharts-data-label-color-undefined">IA</text><text data-z-index="1" y="13" style="color:#000;font-size:13px;font-weight:700;fill:#000" transform="translate(256 277)" class="highcharts-label highcharts-data-label highcharts-data-label-color-undefined">KS</text><text data-z-index="1" y="13" style="color:#000;font-size:13px;font-weight:700;fill:#000" transform="translate(326 241)" class="highcharts-label highcharts-data-label highcharts-data-label-color-undefined">KY</text><text data-z-index="1" y="13" style="color:#000;font-size:13px;font-weight:700;fill:#000" transform="translate(279 314)" class="highcharts-label highcharts-data-label highcharts-data-label-color-undefined">LA</text><text data-z-index="1" y="13" style="color:#000;font-size:13px;font-weight:700;fill:#000" transform="translate(555 96)" class="highcharts-label highcharts-data-label highcharts-data-label-color-undefined">ME</text><text data-z-index="1" y="13" style="color:#000;font-size:13px;font-weight:700;fill:#000" transform="translate(417 241)" class="highcharts-label highcharts-data-label highcharts-data-label-color-undefined">MD</text><text data-z-index="1" y="13" style="color:#000;font-size:13px;font-weight:700;fill:#000" transform="translate(509 168)" class="highcharts-label highcharts-data-label highcharts-data-label-color-undefined">MA</text><text data-z-index="1" y="13" style="color:#000;font-size:13px;font-weight:700;fill:#000" transform="translate(374 168)" class="highcharts-label highcharts-data-label highcharts-data-label-color-undefined">MI</text><text data-z-index="1" y="13" style="color:#000;font-size:13px;font-weight:700;fill:#000" transform="translate(232 168)" class="highcharts-label highcharts-data-label highcharts-data-label-color-undefined">MN</text><text data-z-index="1" y="13" style="color:#000;font-size:13px;font-weight:700;fill:#000" transform="translate(325 314)" class="highcharts-label highcharts-data-label highcharts-data-label-color-undefined">MS</text><text data-z-index="1" y="13" style="color:#000;font-size:13px;font-weight:700;fill:#000" transform="translate(278 241)" class="highcharts-label highcharts-data-label highcharts-data-label-color-undefined">MO</text><text data-z-index="1" y="13" style="color:#000;font-size:13px;font-weight:700;fill:#000" transform="translate(141 168)" class="highcharts-label highcharts-data-label highcharts-data-label-color-undefined">MT</text><text data-z-index="1" y="13" style="color:#000;font-size:13px;font-weight:700;fill:#000" transform="translate(233 241)" class="highcharts-label highcharts-data-label highcharts-data-label-color-undefined">NE</text><text data-z-index="1" y="13" style="color:#000;font-size:13px;font-weight:700;fill:#000" transform="translate(141 241)" class="highcharts-label highcharts-data-label highcharts-data-label-color-undefined">NV</text><text data-z-index="1" y="13" style="color:#000;font-size:13px;font-weight:700;fill:#000" transform="translate(533 132)" class="highcharts-label highcharts-data-label highcharts-data-label-color-undefined">NH</text><text data-z-index="1" y="13" style="color:#000;font-size:13px;font-weight:700;fill:#000" transform="translate(488 205)" class="highcharts-label highcharts-data-label highcharts-data-label-color-undefined">NJ</text><text data-z-index="1" y="13" style="color:#000;font-size:13px;font-weight:700;fill:#000" transform="translate(186 314)" class="highcharts-label highcharts-data-label highcharts-data-label-color-undefined">NM</text><text data-z-index="1" y="13" style="color:#000;font-size:13px;font-weight:700;fill:#000" transform="translate(464 168)" class="highcharts-label highcharts-data-label highcharts-data-label-color-undefined">NY</text><text data-z-index="1" y="13" style="color:#000;font-size:13px;font-weight:700;fill:#000" transform="translate(441 277)" class="highcharts-label highcharts-data-label highcharts-data-label-color-undefined">NC</text><text data-z-index="1" y="13" style="color:#000;font-size:13px;font-weight:700;fill:#000" transform="translate(187 168)" class="highcharts-label highcharts-data-label highcharts-data-label-color-undefined">ND</text><text data-z-index="1" y="13" style="color:#000;font-size:13px;font-weight:700;fill:#000" transform="translate(394 205)" class="highcharts-label highcharts-data-label highcharts-data-label-color-undefined">OH</text><text data-z-index="1" y="13" style="color:#000;font-size:13px;font-weight:700;fill:#000" transform="translate(232 314)" class="highcharts-label highcharts-data-label highcharts-data-label-color-undefined">OK</text><text data-z-index="1" y="13" style="color:#000;font-size:13px;font-weight:700;fill:#000" transform="translate(94 241)" class="highcharts-label highcharts-data-label highcharts-data-label-color-undefined">OR</text><text data-z-index="1" y="13" style="color:#000;font-size:13px;font-weight:700;fill:#000" transform="translate(441 205)" class="highcharts-label highcharts-data-label highcharts-data-label-color-undefined">PA</text><text data-z-index="1" y="13" style="color:#000;font-size:13px;font-weight:700;fill:#000" transform="translate(559 168)" class="highcharts-label highcharts-data-label highcharts-data-label-color-undefined">RI</text><text data-z-index="1" y="13" style="color:#000;font-size:13px;font-weight:700;fill:#000" transform="translate(418 314)" class="highcharts-label highcharts-data-label highcharts-data-label-color-undefined">SC</text><text data-z-index="1" y="13" style="color:#000;font-size:13px;font-weight:700;fill:#000" transform="translate(210 205)" class="highcharts-label highcharts-data-label highcharts-data-label-color-undefined">SD</text><text data-z-index="1" y="13" style="color:#000;font-size:13px;font-weight:700;fill:#000" transform="translate(349 277)" class="highcharts-label highcharts-data-label highcharts-data-label-color-undefined">TN</text><text data-z-index="1" y="13" style="color:#000;font-size:13px;font-weight:700;fill:#000" transform="translate(211 350)" class="highcharts-label highcharts-data-label highcharts-data-label-color-undefined">TX</text><text data-z-index="1" y="13" style="color:#000;font-size:13px;font-weight:700;fill:#000" transform="translate(210 277)" class="highcharts-label highcharts-data-label highcharts-data-label-color-undefined">UT</text><text data-z-index="1" y="13" style="color:#000;font-size:13px;font-weight:700;fill:#000" transform="translate(488 132)" class="highcharts-label highcharts-data-label highcharts-data-label-color-undefined">VT</text><text data-z-index="1" y="13" style="color:#000;font-size:13px;font-weight:700;fill:#000" transform="translate(395 277)" class="highcharts-label highcharts-data-label highcharts-data-label-color-undefined">VA</text><text data-z-index="1" y="13" style="color:#000;font-size:13px;font-weight:700;fill:#000" transform="translate(94 168)" class="highcharts-label highcharts-data-label highcharts-data-label-color-undefined">WA</text><text data-z-index="1" y="13" style="color:#000;font-size:13px;font-weight:700;fill:#000" transform="translate(371 241)" class="highcharts-label highcharts-data-label highcharts-data-label-color-undefined">WV</text><text data-z-index="1" y="13" style="color:#000;font-size:13px;font-weight:700;fill:#000" transform="translate(280 168)" class="highcharts-label highcharts-data-label highcharts-data-label-color-undefined">WI</text><text data-z-index="1" y="13" style="color:#000;font-size:13px;font-weight:700;fill:#000" transform="translate(163 205)" class="highcharts-label highcharts-data-label highcharts-data-label-color-undefined">WY</text></g><g class="highcharts-legend highcharts-no-tooltip" data-z-index="7" transform="translate(142 439)" aria-hidden="true"><rect fill="transparent" class="highcharts-legend-box" rx="0" ry="0" width="315" height="26"/><g data-z-index="1"><g class="highcharts-legend-item highcharts-undefined-series highcharts-color-undefined highcharts-series-undefined" data-z-index="1" transform="translate(8 3)"><text x="21" data-z-index="2" y="15" style="color:#fff;cursor:pointer;font-size:12px;font-weight:400;fill:#fff">&lt; 1M</text><rect x="2" y="4" width="12" height="12" fill="#F9EDB3" rx="6" ry="6" class="highcharts-point" data-z-index="3"/></g><g class="highcharts-legend-item highcharts-undefined-series highcharts-color-undefined highcharts-series-undefined" data-z-index="1" transform="translate(76.016 3)"><text x="21" y="15" data-z-index="2" style="color:#fff;cursor:pointer;font-size:12px;font-weight:400;fill:#fff">1M - 5M</text><rect x="2" y="4" width="12" height="12" fill="#FFC428" rx="6" ry="6" class="highcharts-point" data-z-index="3"/></g><g class="highcharts-legend-item highcharts-undefined-series highcharts-color-undefined highcharts-series-undefined" data-z-index="1" transform="translate(161.023 3)"><text x="21" y="15" data-z-index="2" style="color:#fff;cursor:pointer;font-size:12px;font-weight:400;fill:#fff">5M - 20M</text><rect x="2" y="4" width="12" height="12" fill="#FF7987" rx="6" ry="6" class="highcharts-point" data-z-index="3"/></g><g class="highcharts-legend-item highcharts-undefined-series highcharts-color-undefined highcharts-series-undefined" data-z-index="1" transform="translate(252.703 3)"><text x="21" y="15" data-z-index="2" style="color:#fff;cursor:pointer;font-size:12px;font-weight:400;fill:#fff">&gt; 20M</text><rect x="2" y="4" width="12" height="12" fill="#FF2371" rx="6" ry="6" class="highcharts-point" data-z-index="3"/></g></g></g></svg>