<svg class="highcharts-root" style="font-family:&quot;IBM Plex Sans&quot;,sans-serif;font-size:12px" xmlns="http://www.w3.org/2000/svg" width="600" height="400" aria-label="Interactive chart" aria-hidden="false"><defs aria-hidden="true"><linearGradient x1="0" y1="0" x2="0" y2="1" id="a"><stop offset="0" stop-color="#1f1836"/><stop offset="1" stop-color="#45445d"/></linearGradient><clipPath id="b"><path fill="none" d="M0 0h531v276H0z"/></clipPath></defs><rect fill="url(#a)" class="highcharts-background" width="600" height="400" rx="0" ry="0" aria-hidden="true"/><path fill="none" class="highcharts-plot-background" aria-hidden="true" d="M59 50h531v276H59z"/><path fill="none" class="highcharts-plot-border" data-z-index="1" aria-hidden="true" d="M59 50h531v276H59z"/><g class="highcharts-grid highcharts-xaxis-grid" data-z-index="1" aria-hidden="true" fill="none"><path data-z-index="1" class="highcharts-grid-line" d="M97.5 50v276m115-276v276m116-276v276m116-276v276m115-276v276"/></g><g class="highcharts-grid highcharts-yaxis-grid" data-z-index="1" aria-hidden="true" fill="none" stroke="#707073"><path data-z-index="1" class="highcharts-grid-line" d="M59 326.5h531m-531-46h531m-531-46h531m-531-46h531m-531-46h531m-531-46h531m-531-47h531"/></g><g class="highcharts-axis highcharts-xaxis" data-z-index="2" aria-hidden="true" fill="none" stroke="#707073"><path class="highcharts-tick" d="M97.5 326v10m115-10v10m116-10v10m116-10v10m115-10v10"/><path class="highcharts-axis-line" data-z-index="7" d="M59 326.5h531"/></g><g class="highcharts-axis highcharts-yaxis" data-z-index="2" aria-hidden="true"><path fill="none" class="highcharts-tick" stroke="#707073" d="M59 326.5H49m10-46H49m10-46H49m10-46H49m10-46H49m10-46H49m10-47H49"/><text x="23.328" data-z-index="7" text-anchor="middle" transform="rotate(-90 23.328 188)" class="highcharts-axis-title" style="color:#fff;font-weight:300;fill:#fff" y="188">Values</text><path fill="none" class="highcharts-axis-line" data-z-index="7" d="M59 50v276"/></g><g class="highcharts-series-group" data-z-index="3" aria-hidden="false"><g class="highcharts-series highcharts-series-0 highcharts-spline-series highcharts-color-0" data-z-index=".1" clip-path="url(#b)" aria-hidden="true" fill="none" stroke-linejoin="round" stroke-linecap="round" transform="translate(59 50)"><path d="M5.206 191.34S39.912 87.967 63.049 87.967s34.706 0 57.843 8.544 34.706 77.22 57.843 104.91c23.138 27.689 34.706 33.539 57.843 33.539 23.138 0 34.706-22.803 57.844-22.803 23.137 0 34.705 38.882 57.843 38.882 23.137 0 34.706-214.57 57.843-214.57s34.706 0 57.843 4.801c23.137 4.8 57.843 92.789 57.843 92.789" class="highcharts-graph" data-z-index="1" stroke="#8087E8" stroke-width="2"/><path d="M5.206 191.34S39.912 87.967 63.049 87.967s34.706 0 57.843 8.544 34.706 77.22 57.843 104.91c23.138 27.689 34.706 33.539 57.843 33.539 23.138 0 34.706-22.803 57.844-22.803 23.137 0 34.705 38.882 57.843 38.882 23.137 0 34.706-214.57 57.843-214.57s34.706 0 57.843 4.801c23.137 4.8 57.843 92.789 57.843 92.789" data-z-index="2" class="highcharts-tracker-line" stroke="rgba(192,192,192,0.0001)" stroke-width="22"/></g><g class="highcharts-markers highcharts-series-0 highcharts-spline-series highcharts-color-0 highcharts-tracker" data-z-index=".1" aria-hidden="false" fill="#8087E8"><path d="M5 195.34a4 4 0 1 1 .004 0Z" class="highcharts-point highcharts-negative highcharts-color-0" tabindex="-1" aria-label="Wednesday, Nov 30, 08:01:23.421, -2.3191571384996816. Value." style="outline:0" transform="translate(59 50)"/><path d="M63 91.966a4 4 0 1 1 .004 0Z" class="highcharts-point highcharts-color-0" tabindex="-1" aria-label="Wednesday, Nov 30, 08:01:24.421, 2.1753907123288196. Value." style="outline:0" transform="translate(59 50)"/><path d="M120 100.51a4 4 0 1 1 .004 0Z" class="highcharts-point highcharts-color-0" tabindex="-1" aria-label="Wednesday, Nov 30, 08:01:25.421, 1.8039197867172585. Value." style="outline:0" transform="translate(59 50)"/><path d="M178 205.42a4 4 0 1 1 .004 0Z" class="highcharts-point highcharts-negative highcharts-color-0" tabindex="-1" aria-label="Wednesday, Nov 30, 08:01:26.421, -2.7573519162142057. Value." style="outline:0" transform="translate(59 50)"/><path d="M236 238.959a4 4 0 1 1 .004 0Z" class="highcharts-point highcharts-negative highcharts-color-0" tabindex="-1" aria-label="Wednesday, Nov 30, 08:01:27.421, -4.215610739768721. Value." style="outline:0" transform="translate(59 50)"/><path d="M294 216.156a4 4 0 1 1 .004 0Z" class="highcharts-point highcharts-negative highcharts-color-0" tabindex="-1" aria-label="Wednesday, Nov 30, 08:01:28.421, -3.224152508557083. Value." style="outline:0" transform="translate(59 50)"/><path d="M352 255.038a4 4 0 1 1 .004 0Z" class="highcharts-point highcharts-negative highcharts-color-0" tabindex="-1" aria-label="Wednesday, Nov 30, 08:01:29.421, -4.914697202825465. Value." style="outline:0" transform="translate(59 50)"/><path d="M410 40.469a4 4 0 1 1 .004 0Z" class="highcharts-point highcharts-color-0" tabindex="-1" aria-label="Wednesday, Nov 30, 08:01:30.421, 4.414406389411408. Value." style="outline:0" transform="translate(59 50)"/><path d="M467 45.27a4 4 0 1 1 .004 0Z" class="highcharts-point highcharts-color-0" tabindex="-1" aria-label="Wednesday, Nov 30, 08:01:31.421, 4.205693160927613. Value." style="outline:0" transform="translate(59 50)"/><path d="M525 138.058a4 4 0 1 1 .004 0Z" class="highcharts-point highcharts-color-0" tabindex="-1" aria-label="Wednesday, Nov 30, 08:01:32.421, 0.17140687848280756. Value." style="outline:0" transform="translate(59 50)"/></g></g><text x="300" text-anchor="middle" class="highcharts-title" data-z-index="4" style="color:#fff;font-size:22px;font-weight:500;fill:#fff" y="27" aria-hidden="true">Live Data</text><g class="highcharts-legend highcharts-no-tooltip" data-z-index="7" transform="translate(267 359)" aria-hidden="true"><rect fill="transparent" class="highcharts-legend-box" rx="0" ry="0" width="66" height="26"/><g class="highcharts-legend-item highcharts-spline-series highcharts-color-0 highcharts-series-0" data-z-index="1"><path fill="none" d="M8 14h16" class="highcharts-graph" stroke-width="2" stroke="#8087E8"/><path fill="#8087E8" d="M16 18a4 4 0 1 1 .004 0Z" class="highcharts-point"/><text x="21" y="15" data-z-index="2" style="color:#fff;cursor:pointer;font-size:12px;font-weight:400;fill:#fff" transform="translate(8 3)">Value</text></g></g><g class="highcharts-axis-labels highcharts-xaxis-labels" data-z-index="7" aria-hidden="true" text-anchor="middle"><text x="97.697" style="color:#fff;cursor:default;font-size:12px;fill:#fff" y="346">08:01:24</text><text x="213.383" style="color:#fff;cursor:default;font-size:12px;fill:#fff" y="346">08:01:26</text><text x="329.07" style="color:#fff;cursor:default;font-size:12px;fill:#fff" y="346">08:01:28</text><text x="444.756" y="346" style="color:#fff;cursor:default;font-size:12px;fill:#fff">08:01:30</text><text x="560.442" y="346" style="color:#fff;cursor:default;font-size:12px;fill:#fff">08:01:32</text></g><g class="highcharts-axis-labels highcharts-yaxis-labels" data-z-index="7" aria-hidden="true" text-anchor="end"><text x="44" style="color:#fff;cursor:default;font-size:12px;fill:#fff" y="331">-6</text><text x="44" style="color:#fff;cursor:default;font-size:12px;fill:#fff" y="285">-4</text><text x="44" style="color:#fff;cursor:default;font-size:12px;fill:#fff" y="239">-2</text><text x="44" style="color:#fff;cursor:default;font-size:12px;fill:#fff" y="193">0</text><text x="44" style="color:#fff;cursor:default;font-size:12px;fill:#fff" y="147">2</text><text x="44" style="color:#fff;cursor:default;font-size:12px;fill:#fff" y="101">4</text><text x="44" style="color:#fff;cursor:default;font-size:12px;fill:#fff" y="55">6</text></g></svg>