<svg class="highcharts-root" style="font-family:&quot;IBM Plex Sans&quot;,sans-serif;font-size:12px" xmlns="http://www.w3.org/2000/svg" width="600" height="600" aria-label="Interactive chart" aria-hidden="false"><defs aria-hidden="true"><linearGradient x1="0" y1="0" x2="0" y2="1" id="a"><stop offset="0" stop-color="#1f1836"/><stop offset="1" stop-color="#45445d"/></linearGradient><clipPath id="b"><path fill="none" d="M0 0h580v497H0z"/></clipPath></defs><rect fill="url(#a)" class="highcharts-background" width="600" height="600" rx="0" ry="0" aria-hidden="true"/><path fill="none" class="highcharts-plot-background" aria-hidden="true" d="M10 50h580v497H10z"/><path fill="none" class="highcharts-plot-border" data-z-index="1" aria-hidden="true" d="M10 50h580v497H10z"/><g class="highcharts-series-group" data-z-index="3" aria-hidden="false" stroke="#333" fill-opacity=".5"><g class="highcharts-series highcharts-series-0 highcharts-packedbubble-series highcharts-color-0 highcharts-tracker" data-z-index=".1" clip-path="url(#b)" aria-hidden="false" tabindex="-1" aria-label="Europe, series 1 of 6 with 36 data points." style="outline:0" fill="#8087E8" transform="translate(10 50)"><path d="M470.25 268.867a25.5 25.5 0 1 1 .026 0Z" class="highcharts-point highcharts-color-0" tabindex="-1" aria-label="Germany, value: 767.1. Europe." style="outline:0"/><path d="M382.838 366.104a10 10 0 1 1 .01 0Z" class="highcharts-point highcharts-color-0" tabindex="-1" aria-label="Croatia, value: 20.7. Europe." style="outline:0"/><path d="M202.24 375.067a13.5 13.5 0 1 1 .013 0Z" class="highcharts-point highcharts-color-0" tabindex="-1" aria-label="Belgium, value: 97.2. Europe." style="outline:0"/><path d="M145.274 245.79a14 14 0 1 1 .014 0Z" class="highcharts-point highcharts-color-0" tabindex="-1" aria-label="Czech Republic, value: 111.7. Europe." style="outline:0"/><path d="M206.984 138.534a15.5 15.5 0 1 1 .016 0Z" class="highcharts-point highcharts-color-0" tabindex="-1" aria-label="Netherlands, value: 158.1. Europe." style="outline:0"/><path d="M341.51 102.772a17.5 17.5 0 1 1 .017 0Z" class="highcharts-point highcharts-color-0" tabindex="-1" aria-label="Spain, value: 241.6. Europe." style="outline:0"/><path d="M435.218 228.231a17.5 17.5 0 1 1 .018 0Z" class="highcharts-point highcharts-color-0" tabindex="-1" aria-label="Ukraine, value: 249.1. Europe." style="outline:0"/><path d="M449.032 334.197a18.5 18.5 0 1 1 .018 0Z" class="highcharts-point highcharts-color-0" tabindex="-1" aria-label="Poland, value: 298.1. Europe." style="outline:0"/><path d="M204.402 417.698a19 19 0 1 1 .019 0Z" class="highcharts-point highcharts-color-0" tabindex="-1" aria-label="France, value: 323.7. Europe." style="outline:0"/><path d="M150.757 334.696a13 13 0 1 1 .013 0Z" class="highcharts-point highcharts-color-0" tabindex="-1" aria-label="Romania, value: 78.3. Europe." style="outline:0"/><path d="M163.97 154.926a20.5 20.5 0 1 1 .02 0Z" class="highcharts-point highcharts-color-0" tabindex="-1" aria-label="United Kingdom, value: 415.4. Europe." style="outline:0"/><path d="M301.795 118.124a19.5 19.5 0 1 1 .02 0Z" class="highcharts-point highcharts-color-0" tabindex="-1" aria-label="Turkey, value: 353.2. Europe." style="outline:0"/><path d="M396.918 137.612a19 19 0 1 1 .019 0Z" class="highcharts-point highcharts-color-0" tabindex="-1" aria-label="Italy, value: 337.6. Europe." style="outline:0"/><path d="M447.505 292.294a12.5 12.5 0 1 1 .013 0Z" class="highcharts-point highcharts-color-0" tabindex="-1" aria-label="Greece, value: 71.1. Europe." style="outline:0"/><path d="M355.586 382.464a12.5 12.5 0 1 1 .013 0Z" class="highcharts-point highcharts-color-0" tabindex="-1" aria-label="Austria, value: 69.8. Europe." style="outline:0"/><path d="M181.002 337.322a12.5 12.5 0 1 1 .013 0Z" class="highcharts-point highcharts-color-0" tabindex="-1" aria-label="Belarus, value: 67.7. Europe." style="outline:0"/><path d="M162.138 218.445a12 12 0 1 1 .012 0Z" class="highcharts-point highcharts-color-0" tabindex="-1" aria-label="Serbia, value: 59.3. Europe." style="outline:0"/><path d="M247.127 168.401a12 12 0 1 1 .012 0Z" class="highcharts-point highcharts-color-0" tabindex="-1" aria-label="Finland, value: 54.8. Europe." style="outline:0"/><path d="M334.454 130.597a12 12 0 1 1 .012 0Z" class="highcharts-point highcharts-color-0" tabindex="-1" aria-label="Bulgaria, value: 51.2. Europe." style="outline:0"/><path d="M406.311 198.01a11.5 11.5 0 1 1 .011 0Z" class="highcharts-point highcharts-color-0" tabindex="-1" aria-label="Portugal, value: 48.3. Europe." style="outline:0"/><path d="M361.187 353.291a11.5 11.5 0 1 1 .012 0Z" class="highcharts-point highcharts-color-0" tabindex="-1" aria-label="Norway, value: 44.4. Europe." style="outline:0"/><path d="M228.723 360.32a11.5 11.5 0 1 1 .011 0Z" class="highcharts-point highcharts-color-0" tabindex="-1" aria-label="Sweden, value: 44.3. Europe." style="outline:0"/><path d="M175.65 242.097a11.5 11.5 0 1 1 .012 0Z" class="highcharts-point highcharts-color-0" tabindex="-1" aria-label="Hungary, value: 43.7. Europe." style="outline:0"/><path d="M244.403 122.919a11.5 11.5 0 1 1 .011 0Z" class="highcharts-point highcharts-color-0" tabindex="-1" aria-label="Switzerland, value: 40.2. Europe." style="outline:0"/><path d="M362.057 123.694a11.5 11.5 0 1 1 .012 0Z" class="highcharts-point highcharts-color-0" tabindex="-1" aria-label="Denmark, value: 40. Europe." style="outline:0"/><path d="M401.376 164.247a11 11 0 1 1 .011 0Z" class="highcharts-point highcharts-color-0" tabindex="-1" aria-label="Slovakia, value: 34.7. Europe." style="outline:0"/><path d="M336.213 361.595a11 11 0 1 1 .011 0Z" class="highcharts-point highcharts-color-0" tabindex="-1" aria-label="Ireland, value: 34.6. Europe." style="outline:0"/><path d="M206.688 344.325a10 10 0 1 1 .01 0Z" class="highcharts-point highcharts-color-0" tabindex="-1" aria-label="Croatia, value: 20.7. Europe." style="outline:0"/><path d="M163.967 263.35a10 10 0 1 1 .01 0Z" class="highcharts-point highcharts-color-0" tabindex="-1" aria-label="Estonia, value: 19.4. Europe." style="outline:0"/><path d="M193.692 163.111a10 10 0 1 1 .01 0Z" class="highcharts-point highcharts-color-0" tabindex="-1" aria-label="Slovenia, value: 16.7. Europe." style="outline:0"/><path d="M306.675 165.654a9.5 9.5 0 1 1 .01 0Z" class="highcharts-point highcharts-color-0" tabindex="-1" aria-label="Lithuania, value: 12.3. Europe." style="outline:0"/><path d="M354.253 145.496a9.5 9.5 0 1 1 .01 0Z" class="highcharts-point highcharts-color-0" tabindex="-1" aria-label="Luxembourg, value: 10.4. Europe." style="outline:0"/><path d="M361.727 196.814a9 9 0 1 1 .009 0Z" class="highcharts-point highcharts-color-0" tabindex="-1" aria-label="Macedonia, value: 9.5. Europe." style="outline:0"/><path d="M396.78 292.538a9 9 0 1 1 .01 0Z" class="highcharts-point highcharts-color-0" tabindex="-1" aria-label="Moldova, value: 7.8. Europe." style="outline:0"/><path d="M227.543 333.607a9 9 0 1 1 .009 0Z" class="highcharts-point highcharts-color-0" tabindex="-1" aria-label="Latvia, value: 7.5. Europe." style="outline:0"/><path d="M221.328 231.374a9 9 0 1 1 .01 0Z" class="highcharts-point highcharts-color-0" tabindex="-1" aria-label="Cyprus, value: 7.2. Europe." style="outline:0"/></g><g class="highcharts-series highcharts-series-1 highcharts-packedbubble-series highcharts-color-1 highcharts-tracker" data-z-index=".1" clip-path="url(#b)" aria-hidden="false" tabindex="-1" aria-label="Africa, series 2 of 6 with 17 data points." style="outline:0" fill="#A3EDBA" transform="translate(10 50)"><path d="M250.238 345.393a9 9 0 1 1 .009 0Z" class="highcharts-point highcharts-color-1" tabindex="-1" aria-label="Senegal, value: 8.2. Africa." style="outline:0"/><path d="M328.985 382.744a9 9 0 1 1 .009 0Z" class="highcharts-point highcharts-color-1" tabindex="-1" aria-label="Cameroon, value: 9.2. Africa." style="outline:0"/><path d="M226.95 383.708a9.5 9.5 0 1 1 .01 0Z" class="highcharts-point highcharts-color-1" tabindex="-1" aria-label="Zimbabwe, value: 13.1. Africa." style="outline:0"/><path d="M200.666 241.422a9.5 9.5 0 1 1 .01 0Z" class="highcharts-point highcharts-color-1" tabindex="-1" aria-label="Ghana, value: 14.1. Africa." style="outline:0"/><path d="M271.337 172.216a9.5 9.5 0 1 1 .01 0Z" class="highcharts-point highcharts-color-1" tabindex="-1" aria-label="Kenya, value: 14.1. Africa." style="outline:0"/><path d="M270.533 123.09a10 10 0 1 1 .01 0Z" class="highcharts-point highcharts-color-1" tabindex="-1" aria-label="Sudan, value: 17.3. Africa." style="outline:0"/><path d="M376.54 156.321a10.5 10.5 0 1 1 .01 0Z" class="highcharts-point highcharts-color-1" tabindex="-1" aria-label="Tunisia, value: 24.3. Africa." style="outline:0"/><path d="M361.41 326.46a10.5 10.5 0 1 1 .01 0Z" class="highcharts-point highcharts-color-1" tabindex="-1" aria-label="Angola, value: 25. Africa." style="outline:0"/><path d="M267.367 329.757a12 12 0 1 1 .012 0Z" class="highcharts-point highcharts-color-1" tabindex="-1" aria-label="Libya, value: 50.6. Africa." style="outline:0"/><path d="M236.204 306.09a9 9 0 1 1 .009 0Z" class="highcharts-point highcharts-color-1" tabindex="-1" aria-label="Ivory Coast, value: 7.3. Africa." style="outline:0"/><path d="M219.035 164.818a12 12 0 1 1 .012 0Z" class="highcharts-point highcharts-color-1" tabindex="-1" aria-label="Morocco, value: 60.7. Africa." style="outline:0"/><path d="M257.44 142.141a9 9 0 1 1 .01 0Z" class="highcharts-point highcharts-color-1" tabindex="-1" aria-label="Ethiopia, value: 8.9. Africa." style="outline:0"/><path d="M382.678 205.052a9 9 0 1 1 .01 0Z" class="highcharts-point highcharts-color-1" tabindex="-1" aria-label="United Republic of Tanzania, value: 9.1. Africa." style="outline:0"/><path d="M400.001 228.747a13.5 13.5 0 1 1 .013 0Z" class="highcharts-point highcharts-color-1" tabindex="-1" aria-label="Nigeria, value: 93.9. Africa." style="outline:0"/><path d="M385.923 411.466a20 20 0 1 1 .02 0Z" class="highcharts-point highcharts-color-1" tabindex="-1" aria-label="South Africa, value: 392.7. Africa." style="outline:0"/><path d="M256.732 383.337a17 17 0 1 1 .017 0Z" class="highcharts-point highcharts-color-1" tabindex="-1" aria-label="Egypt, value: 225.1. Africa." style="outline:0"/><path d="M193.443 220.137a15 15 0 1 1 .015 0Z" class="highcharts-point highcharts-color-1" tabindex="-1" aria-label="Algeria, value: 141.5. Africa." style="outline:0"/></g><g class="highcharts-series highcharts-series-2 highcharts-packedbubble-series highcharts-color-2 highcharts-tracker" data-z-index=".1" clip-path="url(#b)" aria-hidden="false" tabindex="-1" aria-label="Oceania, series 3 of 6 with 3 data points." style="outline:0" fill="#F19E53" transform="translate(10 50)"><path d="M128.405 287.837a20.5 20.5 0 1 1 .02 0Z" class="highcharts-point highcharts-color-2" tabindex="-1" aria-label="Australia, value: 409.4. Oceania." style="outline:0"/><path d="M342.741 308.95a11 11 0 1 1 .011 0Z" class="highcharts-point highcharts-color-2" tabindex="-1" aria-label="New Zealand, value: 34.1. Oceania." style="outline:0"/><path d="M245.885 323.511a9 9 0 1 1 .009 0Z" class="highcharts-point highcharts-color-2" tabindex="-1" aria-label="Papua New Guinea, value: 7.1. Oceania." style="outline:0"/></g><g class="highcharts-series highcharts-series-3 highcharts-packedbubble-series highcharts-color-3 highcharts-tracker" data-z-index=".1" clip-path="url(#b)" aria-hidden="false" tabindex="-1" aria-label="North America, series 4 of 6 with 10 data points." style="outline:0" fill="#6699A1" transform="translate(10 50)"><path d="M223.32 289.277a9 9 0 1 1 .009 0Z" class="highcharts-point highcharts-color-3" tabindex="-1" aria-label="Costa Rica, value: 7.6. North America." style="outline:0"/><path d="M272.44 350.224a9 9 0 1 1 .008 0Z" class="highcharts-point highcharts-color-3" tabindex="-1" aria-label="Honduras, value: 8.4. North America." style="outline:0"/><path d="M258.5 303.229a9 9 0 1 1 .009 0Z" class="highcharts-point highcharts-color-3" tabindex="-1" aria-label="Jamaica, value: 8.3. North America." style="outline:0"/><path d="M201.65 283.629a9 9 0 1 1 .01 0Z" class="highcharts-point highcharts-color-3" tabindex="-1" aria-label="Panama, value: 10.2. North America." style="outline:0"/><path d="M234.757 143.447a9.5 9.5 0 1 1 .01 0Z" class="highcharts-point highcharts-color-3" tabindex="-1" aria-label="Guatemala, value: 12. North America." style="outline:0"/><path d="M311.022 142.163a10.5 10.5 0 1 1 .01 0Z" class="highcharts-point highcharts-color-3" tabindex="-1" aria-label="Dominican Republic, value: 23.4. North America." style="outline:0"/><path d="M365.415 221.451a10.5 10.5 0 1 1 .01 0Z" class="highcharts-point highcharts-color-3" tabindex="-1" aria-label="Cuba, value: 30.2. North America." style="outline:0"/><path d="M431.018 391.861a28 28 0 1 1 .028 0Z" class="highcharts-point highcharts-color-3" tabindex="-1" aria-label="USA, value: 5,334.5. North America." style="outline:0"/><path d="M288.047 462.368a22.5 22.5 0 1 1 .023 0Z" class="highcharts-point highcharts-color-3" tabindex="-1" aria-label="Canada, value: 566. North America." style="outline:0"/><path d="M169.427 309.02a21 21 0 1 1 .021 0Z" class="highcharts-point highcharts-color-3" tabindex="-1" aria-label="Mexico, value: 456.3. North America." style="outline:0"/></g><g class="highcharts-series highcharts-series-4 highcharts-packedbubble-series highcharts-color-4 highcharts-tracker" data-z-index=".1" clip-path="url(#b)" aria-hidden="false" tabindex="-1" aria-label="South America, series 5 of 6 with 11 data points." style="outline:0" fill="#E1D369" transform="translate(10 50)"><path d="M247.96 245.387a9 9 0 1 1 .01 0Z" class="highcharts-point highcharts-color-4" tabindex="-1" aria-label="El Salvador, value: 7.2. South America." style="outline:0"/><path d="M291.496 361.434a9 9 0 1 1 .01 0Z" class="highcharts-point highcharts-color-4" tabindex="-1" aria-label="Uruguay, value: 8.1. South America." style="outline:0"/><path d="M267.437 282.494a10 10 0 1 1 .01 0Z" class="highcharts-point highcharts-color-4" tabindex="-1" aria-label="Bolivia, value: 17.8. South America." style="outline:0"/><path d="M189.538 265.095a11 11 0 1 1 .011 0Z" class="highcharts-point highcharts-color-4" tabindex="-1" aria-label="Trinidad and Tobago, value: 34. South America." style="outline:0"/><path d="M205.142 188.356a11.5 11.5 0 1 1 .011 0Z" class="highcharts-point highcharts-color-4" tabindex="-1" aria-label="Ecuador, value: 43. South America." style="outline:0"/><path d="M355.467 175.982a13 13 0 1 1 .013 0Z" class="highcharts-point highcharts-color-4" tabindex="-1" aria-label="Chile, value: 78.6. South America." style="outline:0"/><path d="M382.041 184.197a12 12 0 1 1 .012 0Z" class="highcharts-point highcharts-color-4" tabindex="-1" aria-label="Peru, value: 52. South America." style="outline:0"/><path d="M372.313 305.2a13 13 0 1 1 .013 0Z" class="highcharts-point highcharts-color-4" tabindex="-1" aria-label="Colombia, value: 74.1. South America." style="outline:0"/><path d="M249.006 431.397a22 22 0 1 1 .022 0Z" class="highcharts-point highcharts-color-4" tabindex="-1" aria-label="Brazil, value: 501.1. South America." style="outline:0"/><path d="M207.275 320.322a16.5 16.5 0 1 1 .017 0Z" class="highcharts-point highcharts-color-4" tabindex="-1" aria-label="Argentina, value: 199. South America." style="outline:0"/><path d="M172.65 191.898a16.5 16.5 0 1 1 .016 0Z" class="highcharts-point highcharts-color-4" tabindex="-1" aria-label="Venezuela, value: 195.2. South America." style="outline:0"/></g><g class="highcharts-series highcharts-series-5 highcharts-packedbubble-series highcharts-color-5 highcharts-tracker" data-z-index=".1" clip-path="url(#b)" aria-hidden="false" tabindex="-1" aria-label="Asia, series 6 of 6 with 40 data points." style="outline:0" fill="#87B4E7" transform="translate(10 50)"><path d="M229.617 183.573a9 9 0 1 1 .009 0Z" class="highcharts-point highcharts-color-5" tabindex="-1" aria-label="Nepal, value: 6.5. Asia." style="outline:0"/><path d="M312.971 367.04a9 9 0 1 1 .01 0Z" class="highcharts-point highcharts-color-5" tabindex="-1" aria-label="Georgia, value: 6.5. Asia." style="outline:0"/><path d="M250.34 266.81a9 9 0 1 1 .01 0Z" class="highcharts-point highcharts-color-5" tabindex="-1" aria-label="Brunei Darussalam, value: 7.4. Asia." style="outline:0"/><path d="M244.87 285.994a9 9 0 1 1 .008 0Z" class="highcharts-point highcharts-color-5" tabindex="-1" aria-label="Kyrgyzstan, value: 7.4. Asia." style="outline:0"/><path d="M242.35 224.56a9 9 0 1 1 .009 0Z" class="highcharts-point highcharts-color-5" tabindex="-1" aria-label="Afghanistan, value: 7.9. Asia." style="outline:0"/><path d="M381.497 276.444a9 9 0 1 1 .009 0Z" class="highcharts-point highcharts-color-5" tabindex="-1" aria-label="Myanmar, value: 9.1. Asia." style="outline:0"/><path d="M294.622 223.308a9.5 9.5 0 1 1 .01 0Z" class="highcharts-point highcharts-color-5" tabindex="-1" aria-label="Mongolia, value: 14.7. Asia." style="outline:0"/><path d="M316.062 346.303a10 10 0 1 1 .01 0Z" class="highcharts-point highcharts-color-5" tabindex="-1" aria-label="Sri Lanka, value: 16.6. Asia." style="outline:0"/><path d="M312.674 238.09a10 10 0 1 1 .01 0Z" class="highcharts-point highcharts-color-5" tabindex="-1" aria-label="Bahrain, value: 20.5. Asia." style="outline:0"/><path d="M291.08 247.145a10.5 10.5 0 1 1 .01 0Z" class="highcharts-point highcharts-color-5" tabindex="-1" aria-label="Yemen, value: 22.6. Asia." style="outline:0"/><path d="M269.83 257.9a10 10 0 1 1 .01 0Z" class="highcharts-point highcharts-color-5" tabindex="-1" aria-label="Jordan, value: 22.3. Asia." style="outline:0"/><path d="M343.037 210.899a10 10 0 1 1 .01 0Z" class="highcharts-point highcharts-color-5" tabindex="-1" aria-label="Lebanon, value: 21.1. Asia." style="outline:0"/><path d="M318.355 216.458a11 11 0 1 1 .01 0Z" class="highcharts-point highcharts-color-5" tabindex="-1" aria-label="Azerbaijan, value: 31.7. Asia." style="outline:0"/><path d="M339.17 336.473a11.5 11.5 0 1 1 .01 0Z" class="highcharts-point highcharts-color-5" tabindex="-1" aria-label="Singapore, value: 47.8. Asia." style="outline:0"/><path d="M293.175 338.947a12 12 0 1 1 .012 0Z" class="highcharts-point highcharts-color-5" tabindex="-1" aria-label="Hong Kong, value: 49.9. Asia." style="outline:0"/><path d="M319.449 263.867a12 12 0 1 1 .012 0Z" class="highcharts-point highcharts-color-5" tabindex="-1" aria-label="Syria, value: 52.7. Asia." style="outline:0"/><path d="M223.706 210.018a12 12 0 1 1 .012 0Z" class="highcharts-point highcharts-color-5" tabindex="-1" aria-label="DPR Korea, value: 59.9. Asia." style="outline:0"/><path d="M331.238 159.662a12.5 12.5 0 1 1 .012 0Z" class="highcharts-point highcharts-color-5" tabindex="-1" aria-label="Israel, value: 64.8. Asia." style="outline:0"/><path d="M318.946 292.689a12.5 12.5 0 1 1 .012 0Z" class="highcharts-point highcharts-color-5" tabindex="-1" aria-label="Turkmenistan, value: 70.6. Asia." style="outline:0"/><path d="M420.748 306.427a13 13 0 1 1 .013 0Z" class="highcharts-point highcharts-color-5" tabindex="-1" aria-label="Oman, value: 74.3. Asia." style="outline:0"/><path d="M316.663 322.91a13.5 13.5 0 1 1 .014 0Z" class="highcharts-point highcharts-color-5" tabindex="-1" aria-label="Qatar, value: 88.8. Asia." style="outline:0"/><path d="M293.47 276.419a13.5 13.5 0 1 1 .013 0Z" class="highcharts-point highcharts-color-5" tabindex="-1" aria-label="Philippines, value: 96.9. Asia." style="outline:0"/><path d="M268.917 233.642a13.5 13.5 0 1 1 .014 0Z" class="highcharts-point highcharts-color-5" tabindex="-1" aria-label="Kuwait, value: 98.6. Asia." style="outline:0"/><path d="M284.146 152.93a14.5 14.5 0 1 1 .014 0Z" class="highcharts-point highcharts-color-5" tabindex="-1" aria-label="Uzbekistan, value: 122.6. Asia." style="outline:0"/><path d="M327.505 192.193a15 15 0 1 1 .015 0Z" class="highcharts-point highcharts-color-5" tabindex="-1" aria-label="Iraq, value: 139.9. Asia." style="outline:0"/><path d="M341.505 244.966a15.5 15.5 0 1 1 .016 0Z" class="highcharts-point highcharts-color-5" tabindex="-1" aria-label="Pakistan, value: 158.1. Asia." style="outline:0"/><path d="M376.01 254.873a16 16 0 1 1 .017 0Z" class="highcharts-point highcharts-color-5" tabindex="-1" aria-label="Vietnam, value: 190.2. Asia." style="outline:0"/><path d="M288.467 310.623a16.5 16.5 0 1 1 .017 0Z" class="highcharts-point highcharts-color-5" tabindex="-1" aria-label="United Arab Emirates, value: 201.1. Asia." style="outline:0"/><path d="M222.13 269.215a17 17 0 1 1 .017 0Z" class="highcharts-point highcharts-color-5" tabindex="-1" aria-label="Malaysia, value: 227.5. Asia." style="outline:0"/><path d="M255.103 205.966a17 17 0 1 1 .017 0Z" class="highcharts-point highcharts-color-5" tabindex="-1" aria-label="Kazakhstan, value: 236.2. Asia." style="outline:0"/><path d="M292.664 202.412a18 18 0 1 1 .018 0Z" class="highcharts-point highcharts-color-5" tabindex="-1" aria-label="Thailand, value: 272. Asia." style="outline:0"/><path d="M350.084 283.608a18 18 0 1 1 .018 0Z" class="highcharts-point highcharts-color-5" tabindex="-1" aria-label="Taiwan, value: 276.7. Asia." style="outline:0"/><path d="M396.315 343.828a21 21 0 1 1 .021 0Z" class="highcharts-point highcharts-color-5" tabindex="-1" aria-label="Indonesia, value: 453. Asia." style="outline:0"/><path d="M342.085 428.039a21.5 21.5 0 1 1 .022 0Z" class="highcharts-point highcharts-color-5" tabindex="-1" aria-label="Saudi Arabia, value: 494.8. Asia." style="outline:0"/><path d="M156.28 395.165a28 28 0 1 1 .027 0Z" class="highcharts-point highcharts-color-5" tabindex="-1" aria-label="Japan, value: 1,278.9. Asia." style="outline:0"/><path d="M123.834 211.19a28 28 0 1 1 .028 0Z" class="highcharts-point highcharts-color-5" tabindex="-1" aria-label="China, value: 10,540.8. Asia." style="outline:0"/><path d="M258.238 97.435a28 28 0 1 1 .028 0Z" class="highcharts-point highcharts-color-5" tabindex="-1" aria-label="India, value: 2,341.9. Asia." style="outline:0"/><path d="M444.338 189.229a28 28 0 1 1 .028 0Z" class="highcharts-point highcharts-color-5" tabindex="-1" aria-label="Russia, value: 1,766.4. Asia." style="outline:0"/><path d="M417.28 276.269a23.5 23.5 0 1 1 .024 0Z" class="highcharts-point highcharts-color-5" tabindex="-1" aria-label="Iran, value: 618.2. Asia." style="outline:0"/><path d="M295.22 413.272a23.5 23.5 0 1 1 .024 0Z" class="highcharts-point highcharts-color-5" tabindex="-1" aria-label="Korea, value: 610.1. Asia." style="outline:0"/></g></g><text x="300" text-anchor="middle" class="highcharts-title" data-z-index="4" style="color:#fff;font-size:22px;font-weight:500;fill:#fff" y="27" aria-hidden="true">Carbon emissions around the world (2014)</text><g class="highcharts-data-labels highcharts-series-0 highcharts-packedbubble-series highcharts-color-0 highcharts-tracker" data-z-index="6" aria-hidden="true"><g style="transition:opacity 2000ms ease 0s"><text data-z-index="1" y="13" style="color:#46465c;font-size:13px;font-weight:400;fill:#46465c" transform="translate(454 286)" class="highcharts-label highcharts-data-label highcharts-data-label-color-0">Germany</text></g><g style="transition:opacity 2000ms ease 0s;pointer-events:auto"><text data-z-index="1" y="13" style="color:#46465c;font-size:13px;font-weight:400;fill:#46465c" transform="translate(439 359)" class="highcharts-label highcharts-data-label highcharts-data-label-color-0">Poland</text></g><g style="transition:opacity 2000ms ease 0s"><text data-z-index="1" y="13" style="color:#46465c;font-size:13px;font-weight:400;fill:#46465c" transform="translate(194 442)" class="highcharts-label highcharts-data-label highcharts-data-label-color-0">France</text></g><g style="transition:opacity 2000ms ease 0s;pointer-events:auto"><text data-z-index="1" y="13" style="color:#46465c;font-size:13px;font-weight:400;fill:#46465c" transform="translate(128 177)" class="highcharts-label highcharts-data-label highcharts-data-label-color-0">United Kingdom</text></g><g style="transition:opacity 2000ms ease 0s"><text data-z-index="1" y="13" style="color:#46465c;font-size:13px;font-weight:400;fill:#46465c" transform="translate(292 142)" class="highcharts-label highcharts-data-label highcharts-data-label-color-0">Turkey</text></g><g style="transition:opacity 2000ms ease 0s;pointer-events:auto"><text data-z-index="1" y="13" style="color:#46465c;font-size:13px;font-weight:400;fill:#46465c" transform="translate(395 162)" class="highcharts-label highcharts-data-label highcharts-data-label-color-0">Italy</text></g></g><g style="transition:opacity 2000ms ease 0s" class="highcharts-data-labels highcharts-series-1 highcharts-packedbubble-series highcharts-color-1 highcharts-tracker" data-z-index="6" aria-hidden="true"><text data-z-index="1" y="13" style="color:#46465c;font-size:13px;font-weight:400;fill:#46465c" transform="translate(361 434)" class="highcharts-label highcharts-data-label highcharts-data-label-color-1">South Africa</text></g><g style="transition:opacity 2000ms ease 0s" class="highcharts-data-labels highcharts-series-2 highcharts-packedbubble-series highcharts-color-2 highcharts-tracker" data-z-index="6" aria-hidden="true"><text data-z-index="1" y="13" style="color:#46465c;font-size:13px;font-weight:400;fill:#46465c" transform="translate(113 310)" class="highcharts-label highcharts-data-label highcharts-data-label-color-2">Australia</text></g><g class="highcharts-data-labels highcharts-series-3 highcharts-packedbubble-series highcharts-color-3 highcharts-tracker" data-z-index="6" aria-hidden="true"><g style="transition:opacity 2000ms ease 0s"><text data-z-index="1" y="13" style="color:#46465c;font-size:13px;font-weight:400;fill:#46465c" transform="translate(428 407)" class="highcharts-label highcharts-data-label highcharts-data-label-color-3">USA</text></g><g style="transition:opacity 2000ms ease 0s;pointer-events:auto"><text data-z-index="1" y="13" style="color:#46465c;font-size:13px;font-weight:400;fill:#46465c" transform="translate(275 483)" class="highcharts-label highcharts-data-label highcharts-data-label-color-3">Canada</text></g><g style="transition:opacity 2000ms ease 0s;pointer-events:auto"><text data-z-index="1" y="13" style="color:#46465c;font-size:13px;font-weight:400;fill:#46465c" transform="translate(159 331)" class="highcharts-label highcharts-data-label highcharts-data-label-color-3">Mexico</text></g></g><g style="transition:opacity 2000ms ease 0s" class="highcharts-data-labels highcharts-series-4 highcharts-packedbubble-series highcharts-color-4 highcharts-tracker" data-z-index="6" aria-hidden="true"><text data-z-index="1" y="13" style="color:#46465c;font-size:13px;font-weight:400;fill:#46465c" transform="translate(243 452)" class="highcharts-label highcharts-data-label highcharts-data-label-color-4">Brazil</text></g><g class="highcharts-data-labels highcharts-series-5 highcharts-packedbubble-series highcharts-color-5 highcharts-tracker" data-z-index="6" aria-hidden="true"><g style="transition:opacity 2000ms ease 0s"><text data-z-index="1" y="13" style="color:#46465c;font-size:13px;font-weight:400;fill:#46465c" transform="translate(278 227)" class="highcharts-label highcharts-data-label highcharts-data-label-color-5">Thailand</text></g><g style="transition:opacity 2000ms ease 0s;pointer-events:auto"><text data-z-index="1" y="13" style="color:#46465c;font-size:13px;font-weight:400;fill:#46465c" transform="translate(340 309)" class="highcharts-label highcharts-data-label highcharts-data-label-color-5">Taiwan</text></g><g style="transition:opacity 2000ms ease 0s"><text data-z-index="1" y="13" style="color:#46465c;font-size:13px;font-weight:400;fill:#46465c" transform="translate(378 366)" class="highcharts-label highcharts-data-label highcharts-data-label-color-5">Indonesia</text></g><g style="transition:opacity 2000ms ease 0s;pointer-events:auto"><text data-z-index="1" y="13" style="color:#46465c;font-size:13px;font-weight:400;fill:#46465c" transform="translate(315 450)" class="highcharts-label highcharts-data-label highcharts-data-label-color-5">Saudi Arabia</text></g><g style="transition:opacity 2000ms ease 0s;pointer-events:auto"><text data-z-index="1" y="13" style="color:#46465c;font-size:13px;font-weight:400;fill:#46465c" transform="translate(149 410)" class="highcharts-label highcharts-data-label highcharts-data-label-color-5">Japan</text></g><g style="transition:opacity 2000ms ease 0s;pointer-events:auto"><text data-z-index="1" y="13" style="color:#46465c;font-size:13px;font-weight:400;fill:#46465c" transform="translate(117 226)" class="highcharts-label highcharts-data-label highcharts-data-label-color-5">China</text></g><g style="transition:opacity 2000ms ease 0s;pointer-events:auto"><text data-z-index="1" y="13" style="color:#46465c;font-size:13px;font-weight:400;fill:#46465c" transform="translate(254 112)" class="highcharts-label highcharts-data-label highcharts-data-label-color-5">India</text></g><g style="transition:opacity 2000ms ease 0s;pointer-events:auto"><text data-z-index="1" y="13" style="color:#46465c;font-size:13px;font-weight:400;fill:#46465c" transform="translate(434 204)" class="highcharts-label highcharts-data-label highcharts-data-label-color-5">Russia</text></g><g style="transition:opacity 2000ms ease 0s;pointer-events:auto"><text data-z-index="1" y="13" style="color:#46465c;font-size:13px;font-weight:400;fill:#46465c" transform="translate(416 296)" class="highcharts-label highcharts-data-label highcharts-data-label-color-5">Iran</text></g><g style="transition:opacity 2000ms ease 0s;pointer-events:auto"><text data-z-index="1" y="13" style="color:#46465c;font-size:13px;font-weight:400;fill:#46465c" transform="translate(288 433)" class="highcharts-label highcharts-data-label highcharts-data-label-color-5">Korea</text></g></g><g class="highcharts-legend highcharts-no-tooltip" data-z-index="7" transform="translate(33 559)" aria-hidden="true"><rect fill="transparent" class="highcharts-legend-box" rx="0" ry="0" width="533" height="26"/><g data-z-index="1"><g class="highcharts-legend-item highcharts-packedbubble-series highcharts-color-0 highcharts-series-0" data-z-index="1"><path fill="none" d="M8 14h16" class="highcharts-graph"/><path fill="#8087E8" d="M16 20a6 6 0 1 1 .006 0Z" class="highcharts-point" stroke="#333" fill-opacity=".5"/><text x="21" data-z-index="2" y="15" style="color:#fff;cursor:pointer;font-size:12px;font-weight:400;fill:#fff" transform="translate(8 3)">Europe</text></g><g class="highcharts-legend-item highcharts-packedbubble-series highcharts-color-1 highcharts-series-1" data-z-index="1"><path fill="none" d="M87.695 14h16" class="highcharts-graph"/><path fill="#A3EDBA" d="M95.695 20a6 6 0 1 1 .006 0Z" class="highcharts-point" stroke="#333" fill-opacity=".5"/><text x="21" y="15" data-z-index="2" style="color:#fff;cursor:pointer;font-size:12px;font-weight:400;fill:#fff" transform="translate(87.695 3)">Africa</text></g><g class="highcharts-legend-item highcharts-packedbubble-series highcharts-color-2 highcharts-series-2" data-z-index="1"><path fill="none" d="M159.393 14h16" class="highcharts-graph"/><path fill="#F19E53" d="M167.393 20a6 6 0 1 1 .006 0Z" class="highcharts-point" stroke="#333" fill-opacity=".5"/><text x="21" y="15" data-z-index="2" style="color:#fff;cursor:pointer;font-size:12px;font-weight:400;fill:#fff" transform="translate(159.393 3)">Oceania</text></g><g class="highcharts-legend-item highcharts-packedbubble-series highcharts-color-3 highcharts-series-3" data-z-index="1"><path fill="none" d="M245.088 14h16" class="highcharts-graph"/><path fill="#6699A1" d="M253.088 20a6 6 0 1 1 .006 0Z" class="highcharts-point" stroke="#333" fill-opacity=".5"/><text x="21" y="15" data-z-index="2" style="color:#fff;cursor:pointer;font-size:12px;font-weight:400;fill:#fff" transform="translate(245.088 3)">North America</text></g><g class="highcharts-legend-item highcharts-packedbubble-series highcharts-color-4 highcharts-series-4" data-z-index="1"><path fill="none" d="M362.12 14h16" class="highcharts-graph"/><path fill="#E1D369" d="M370.12 20a6 6 0 1 1 .005 0Z" class="highcharts-point" stroke="#333" fill-opacity=".5"/><text x="21" y="15" data-z-index="2" style="color:#fff;cursor:pointer;font-size:12px;font-weight:400;fill:#fff" transform="translate(362.12 3)">South America</text></g><g class="highcharts-legend-item highcharts-packedbubble-series highcharts-color-5 highcharts-series-5" data-z-index="1"><path fill="none" d="M481.166 14h16" class="highcharts-graph"/><path fill="#87B4E7" d="M489.166 20a6 6 0 1 1 .006 0Z" class="highcharts-point" stroke="#333" fill-opacity=".5"/><text x="21" y="15" data-z-index="2" style="color:#fff;cursor:pointer;font-size:12px;font-weight:400;fill:#fff" transform="translate(481.166 3)">Asia</text></g></g></g></svg>