<svg class="highcharts-root" style="font-family:&quot;IBM Plex Sans&quot;,sans-serif;font-size:12px" xmlns="http://www.w3.org/2000/svg" width="600" height="400" aria-label="Interactive chart" aria-hidden="false"><defs aria-hidden="true"><linearGradient x1="0" y1="0" x2="0" y2="1" id="a"><stop offset="0" stop-color="#1f1836"/><stop offset="1" stop-color="#45445d"/></linearGradient></defs><rect fill="url(#a)" class="highcharts-background" width="600" height="400" rx="0" ry="0" aria-hidden="true"/><path fill="none" class="highcharts-plot-background" aria-hidden="true" d="M69 50h521v314H69z"/><g class="highcharts-grid highcharts-xaxis-grid" data-z-index="1" aria-hidden="true" fill="none"><path data-z-index="1" class="highcharts-grid-line" d="M172.5 50v314m104-314v314m105-314v314m104-314v314m104-314v314M68.5 50v314"/></g><g class="highcharts-grid highcharts-yaxis-grid" data-z-index="1" aria-hidden="true" fill="none" stroke="#707073"><path data-z-index="1" class="highcharts-grid-line" d="M69 364.5h521m-521-45h521m-521-45h521m-521-45h521m-521-44h521m-521-45h521m-521-45h521m-521-46h521"/></g><path fill="none" class="highcharts-plot-border" data-z-index="1" aria-hidden="true" d="M69 50h521v314H69z"/><g class="highcharts-axis highcharts-xaxis" data-z-index="2" aria-hidden="true"><path fill="none" class="highcharts-axis-line" stroke="#707073" data-z-index="7" d="M69 364.5h521"/></g><g class="highcharts-axis highcharts-yaxis" data-z-index="2" aria-hidden="true"><path fill="none" class="highcharts-tick" stroke="#707073" d="M69 364.5H59m10-45H59m10-45H59m10-45H59m10-44H59m10-45H59m10-45H59m10-46H59"/><text x="23.32" data-z-index="7" text-anchor="middle" transform="rotate(-90 23.32 207)" class="highcharts-axis-title" style="color:#fff;font-weight:300;fill:#fff" y="207">Measurements</text><path fill="none" class="highcharts-axis-line" data-z-index="7" d="M69 50v314"/></g><g class="highcharts-series-group" data-z-index="3" aria-hidden="false"><g class="highcharts-markers highcharts-series-0 highcharts-scatter-series highcharts-color-0 highcharts-tracker" data-z-index=".1" aria-hidden="false" tabindex="-1" aria-label="Run 1, scatter plot 1 of 5 with 200 points." style="outline:0" fill="rgba(128,135,232,0.5)"><path d="M27 190.28a2 2 0 1 1 .002 0Zm35-30.6a2 2 0 1 1 .002 0Zm13 19.55a2 2 0 1 1 .002 0Zm-38-10.846a2 2 0 1 1 .002 0Zm38-4.891a2 2 0 1 1 .002 0Zm-11 48.458a2 2 0 1 1 .002 0Zm5-34.988a2 2 0 1 1 .002 0Zm1-32.26a2 2 0 1 1 .002 0Zm-14 56.174a2 2 0 1 1 .002 0Zm-20-13.995a2 2 0 1 1 .002 0Zm30 54.236a2 2 0 1 1 .002 0Zm-35-23.442a2 2 0 1 1 .002 0Zm9-26.645a2 2 0 1 1 .002 0Zm20 54.783a2 2 0 1 1 .002 0Zm-30-66.776a2 2 0 1 1 .002 0Zm41 55.917a2 2 0 1 1 .002 0Zm4-102.665a2 2 0 1 1 .002 0Zm-47 63.988a2 2 0 1 1 .002 0Zm5-21.125a2 2 0 1 1 .002 0Zm32 31.698a2 2 0 1 1 .002 0Zm-16 3.938a2 2 0 1 1 .002 0Zm5-20.591a2 2 0 1 1 .002 0Zm-3 7.784a2 2 0 1 1 .002 0Z" class="highcharts-point highcharts-color-0" tabindex="-1" aria-hidden="true" style="outline:0" transform="translate(69 50)"/><path d="M66 177.895a2 2 0 1 1 .002 0Zm-29-8.98a2 2 0 1 1 .002 0Zm14 42.875a2 2 0 1 1 .002 0Zm5 12.793a2 2 0 1 1 .002 0Zm9 9.765a2 2 0 1 1 .002 0ZM29 179.03a2 2 0 1 1 .002 0Zm31-1.431a2 2 0 1 1 .002 0Zm1 39.513a2 2 0 1 1 .002 0Zm-3-111.806a2 2 0 1 1 .002 0ZM40 240.343a2 2 0 1 1 .002 0Zm-7-48.487a2 2 0 1 1 .002 0Z" class="highcharts-point highcharts-color-0" tabindex="-1" aria-hidden="true" style="outline:0" transform="translate(69 50)"/><path d="M68 179.348a2 2 0 1 1 .002 0Zm-33 63.385a2 2 0 1 1 .002 0Zm2-49.155a2 2 0 1 1 .002 0Zm21-10.588a2 2 0 1 1 .002 0Zm3-6.508a2 2 0 1 1 .002 0Zm13 51.969a2 2 0 1 1 .002 0Zm-41-32.816a2 2 0 1 1 .002 0Zm32-28.189a2 2 0 1 1 .002 0Zm1-45.787a2 2 0 1 1 .002 0Zm-27-16.043a2 2 0 1 1 .002 0Zm-11 61.55a2 2 0 1 1 .002 0Zm0 13.324a2 2 0 1 1 .002 0Zm43-37.742a2 2 0 1 1 .002 0Zm-8 56.119a2 2 0 1 1 .002 0Zm-14-35.152a2 2 0 1 1 .002 0Zm1-29.23a2 2 0 1 1 .002 0Zm-11 24.784a2 2 0 1 1 .002 0Z" class="highcharts-point highcharts-color-0" tabindex="-1" aria-hidden="true" style="outline:0" transform="translate(69 50)"/><path d="M41 156.196a2 2 0 1 1 .002 0Zm-1-13.974a2 2 0 1 1 .002 0Z" class="highcharts-point highcharts-color-0" tabindex="-1" aria-hidden="true" style="outline:0" transform="translate(69 50)"/><path d="M39 156.636a2 2 0 1 1 .002 0Zm-7 46.9a2 2 0 1 1 .002 0Zm17-34.413a2 2 0 1 1 .002 0Zm2 43.146a2 2 0 1 1 .002 0Zm8 24.779a2 2 0 1 1 .002 0Zm4-98.406a2 2 0 1 1 .002 0ZM46 247.345a2 2 0 1 1 .002 0Zm25-71.197a2 2 0 1 1 .002 0Zm-3-22.909a2 2 0 1 1 .002 0Zm-32 44.873a2 2 0 1 1 .002 0Zm18 29.808a2 2 0 1 1 .002 0Zm-14-64.675a2 2 0 1 1 .002 0Zm1-11.367a2 2 0 1 1 .002 0Zm10 53.5a2 2 0 1 1 .002 0Z" class="highcharts-point highcharts-color-0" tabindex="-1" aria-hidden="true" style="outline:0" transform="translate(69 50)"/><path d="M67 176.567a2 2 0 1 1 .002 0Zm-4-21.553a2 2 0 1 1 .002 0Zm-29-40.347a2 2 0 1 1 .002 0Zm38 73.965a2 2 0 1 1 .002 0Zm-18 5.738a2 2 0 1 1 .002 0Zm-16 59.875a2 2 0 1 1 .002 0Zm3-121.259a2 2 0 1 1 .002 0ZM53 243.83a2 2 0 1 1 .002 0Zm-17-80.31a2 2 0 1 1 .002 0Zm-6-76.827a2 2 0 1 1 .002 0Zm7 98.085a2 2 0 1 1 .002 0Zm29-3.469a2 2 0 1 1 .002 0Zm4 48.805a2 2 0 1 1 .002 0Zm-38-73.373a2 2 0 1 1 .002 0Zm1 14.646a2 2 0 1 1 .002 0Zm8-19.694a2 2 0 1 1 .002 0Zm18 33.905a2 2 0 1 1 .002 0Z" class="highcharts-point highcharts-color-0" tabindex="-1" aria-hidden="true" style="outline:0" transform="translate(69 50)"/><path d="M72 192.927a2 2 0 1 1 .002 0Zm-33-48.849a2 2 0 1 1 .002 0Zm8 36.411a2 2 0 1 1 .002 0Zm21 27.079a2 2 0 1 1 .002 0Zm8-40.632a2 2 0 1 1 .002 0Zm-15-38.122a2 2 0 1 1 .002 0Zm14 20.148a2 2 0 1 1 .002 0Zm-5 26.283a2 2 0 1 1 .002 0Zm-26 48.348a2 2 0 1 1 .002 0Zm-8-26.886a2 2 0 1 1 .002 0Zm15-72.945a2 2 0 1 1 .002 0Zm6 52.827a2 2 0 1 1 .002 0Zm13 3.889a2 2 0 1 1 .002 0Zm-40 13.157a2 2 0 1 1 .002 0Zm6-11.332a2 2 0 1 1 .002 0Zm37-64.093a2 2 0 1 1 .002 0Z" class="highcharts-point highcharts-color-0" tabindex="-1" aria-hidden="true" style="outline:0" transform="translate(69 50)"/><path d="M44 178.133a2 2 0 1 1 .002 0Zm-5-13.328a2 2 0 1 1 .002 0Zm1-22.865a2 2 0 1 1 .002 0Zm31 33.165a2 2 0 1 1 .002 0Zm-6 4.502a2 2 0 1 1 .002 0Zm-6-38.729a2 2 0 1 1 .002 0Zm-4 100.037a2 2 0 1 1 .002 0Zm12-105.241a2 2 0 1 1 .002 0Zm-31 55.338a2 2 0 1 1 .002 0Zm12 71.722a2 2 0 1 1 .002 0Zm7-81.169a2 2 0 1 1 .002 0Zm-4 65.966a2 2 0 1 1 .002 0Zm-22-67.912a2 2 0 1 1 .002 0Zm7 48.008a2 2 0 1 1 .002 0Zm31-73.755a2 2 0 1 1 .002 0ZM44 255.659a2 2 0 1 1 .002 0Zm13-88.213a2 2 0 1 1 .002 0ZM28 189.81a2 2 0 1 1 .002 0Zm23 40.12a2 2 0 1 1 .002 0Zm24-41.342a2 2 0 1 1 .002 0Z" class="highcharts-point highcharts-color-0" tabindex="-1" aria-hidden="true" style="outline:0" transform="translate(69 50)"/><path d="M32 190.434a2 2 0 1 1 .002 0Zm2-7.94a2 2 0 1 1 .002 0Zm-1-45.304a2 2 0 1 1 .002 0Zm42 19.351a2 2 0 1 1 .002 0Zm-42 21.596a2 2 0 1 1 .002 0Zm23 23.236a2 2 0 1 1 .002 0Zm16 36.517a2 2 0 1 1 .002 0Zm-30-13.993a2 2 0 1 1 .002 0Zm3-98.474a2 2 0 1 1 .002 0Zm-5 18.987a2 2 0 1 1 .002 0Zm34 57.127a2 2 0 1 1 .002 0Zm1 23.113a2 2 0 1 1 .002 0Zm-7-41.393a2 2 0 1 1 .002 0Zm-9-75.413a2 2 0 1 1 .002 0ZM39 247.377a2 2 0 1 1 .002 0Zm22-52.93a2 2 0 1 1 .002 0ZM60 130.2a2 2 0 1 1 .002 0Zm9 66.85a2 2 0 1 1 .002 0Zm-19-31.287a2 2 0 1 1 .002 0Zm17 71.535a2 2 0 1 1 .002 0Zm-21-48.874a2 2 0 1 1 .002 0Zm16-63.684a2 2 0 1 1 .002 0Zm-33 36.356a2 2 0 1 1 .002 0Zm25 23.41a2 2 0 1 1 .002 0Z" class="highcharts-point highcharts-color-0" tabindex="-1" aria-hidden="true" style="outline:0" transform="translate(69 50)"/><path d="M66 194.737a2 2 0 1 1 .002 0Zm-17 4.146a2 2 0 1 1 .002 0Zm12-75.171a2 2 0 1 1 .002 0ZM49 168.42a2 2 0 1 1 .002 0Zm11-83.548a2 2 0 1 1 .002 0Zm-8 92.782a2 2 0 1 1 .002 0ZM38 156.55a2 2 0 1 1 .002 0Zm14 38.19a2 2 0 1 1 .002 0Z" class="highcharts-point highcharts-color-0" tabindex="-1" aria-hidden="true" style="outline:0" transform="translate(69 50)"/><path d="M37 155.063a2 2 0 1 1 .002 0Zm-10 57.269a2 2 0 1 1 .002 0Zm39-63.035a2 2 0 1 1 .002 0Zm5-2.743a2 2 0 1 1 .002 0ZM34 168.16a2 2 0 1 1 .002 0Zm18-4.373a2 2 0 1 1 .002 0Z" class="highcharts-point highcharts-color-0" tabindex="-1" aria-hidden="true" style="outline:0" transform="translate(69 50)"/><path d="M39 153.785a2 2 0 1 1 .002 0Zm-3 49.44a2 2 0 1 1 .002 0Zm3-25.015a2 2 0 1 1 .002 0Zm34 45.367a2 2 0 1 1 .002 0Zm-22-19.041a2 2 0 1 1 .002 0Zm21-37.093a2 2 0 1 1 .002 0Zm-29-2.635a2 2 0 1 1 .002 0Zm32 6.272a2 2 0 1 1 .002 0Zm-3 15.56a2 2 0 1 1 .002 0Zm-20-7.25a2 2 0 1 1 .002 0Z" class="highcharts-point highcharts-color-0" tabindex="-1" aria-hidden="true" style="outline:0" transform="translate(69 50)"/><path d="M40 181.614a2 2 0 1 1 .002 0Zm-13-3.876a2 2 0 1 1 .002 0Zm24 12.466a2 2 0 1 1 .002 0Zm21-64.556a2 2 0 1 1 .002 0ZM56 189.08a2 2 0 1 1 .002 0Zm15 24.69a2 2 0 1 1 .002 0Zm-25-32.101a2 2 0 1 1 .002 0Zm13-32.154a2 2 0 1 1 .002 0Zm-6 35.336a2 2 0 1 1 .002 0Zm19 8.156a2 2 0 1 1 .002 0Zm-8-14.14a2 2 0 1 1 .002 0Zm-26-1.405a2 2 0 1 1 .002 0Zm12-7.602a2 2 0 1 1 .002 0Zm1 28.167a2 2 0 1 1 .002 0Zm-15 2.108a2 2 0 1 1 .002 0ZM67 82.339a2 2 0 1 1 .002 0Z" class="highcharts-point highcharts-color-0" tabindex="-1" aria-hidden="true" style="outline:0" transform="translate(69 50)"/><path d="M69 192.048a2 2 0 1 1 .002 0Zm-32 65.211a2 2 0 1 1 .002 0Zm28-103.602a2 2 0 1 1 .002 0Zm-24 70.526a2 2 0 1 1 .002 0Zm24-55.787a2 2 0 1 1 .002 0Zm-29 17.3a2 2 0 1 1 .002 0Zm40 27.066a2 2 0 1 1 .002 0Zm-45-82.788a2 2 0 1 1 .002 0Zm26 5.34a2 2 0 1 1 .002 0Zm-9 74.562a2 2 0 1 1 .002 0Z" class="highcharts-point highcharts-color-0" tabindex="-1" aria-hidden="true" style="outline:0" transform="translate(69 50)"/><path d="M33 188.635a2 2 0 1 1 .002 0Zm21 6.301a2 2 0 1 1 .002 0Zm-12-55.057a2 2 0 1 1 .002 0Zm-12-4.866a2 2 0 1 1 .002 0Zm7 35.49a2 2 0 1 1 .002 0Zm-10 43.55a2 2 0 1 1 .002 0Z" class="highcharts-point highcharts-color-0" tabindex="-1" aria-hidden="true" style="outline:0" transform="translate(69 50)"/></g><g class="highcharts-markers highcharts-series-1 highcharts-scatter-series highcharts-color-1 highcharts-tracker" data-z-index=".1" aria-hidden="false" tabindex="-1" aria-label="Run 2, scatter plot 2 of 5 with 200 points." style="outline:0" fill="rgba(163,237,186,0.5)"><path d="M131 80.377a2 2 0 1 1 .002 0Zm35 25.483a2 2 0 1 1 .002 0Zm14-4.53a2 2 0 1 1 .002 0Zm-39 49.036a2 2 0 1 1 .002 0Zm39 13.471a2 2 0 1 1 .002 0Zm-11-50.44a2 2 0 1 1 .002 0Zm4 22.626a2 2 0 1 1 .002 0Zm1 40.117a2 2 0 1 1 .002 0Zm-14-63.927a2 2 0 1 1 .002 0Z" class="highcharts-point highcharts-color-1" tabindex="-1" aria-hidden="true" style="outline:0" transform="translate(69 50)"/><path d="M140 153.55a2 2 0 1 1 .002 0Zm30-40.17a2 2 0 1 1 .002 0Zm-34 14.252a2 2 0 1 1 .002 0Zm8-31.311a2 2 0 1 1 .002 0Zm20-2.527a2 2 0 1 1 .002 0Zm-30-16.785a2 2 0 1 1 .002 0Zm41 36.376a2 2 0 1 1 .002 0Zm4-25.908a2 2 0 1 1 .002 0Zm-47 29.138a2 2 0 1 1 .002 0Zm5-33.653a2 2 0 1 1 .002 0Zm32-35.972a2 2 0 1 1 .002 0Zm-16 66.622a2 2 0 1 1 .002 0Zm6-52.624a2 2 0 1 1 .002 0Zm-4-12.371a2 2 0 1 1 .002 0Zm16 85.321a2 2 0 1 1 .002 0Zm-29-15.261a2 2 0 1 1 .002 0Zm13-.363a2 2 0 1 1 .002 0Zm5 18.444a2 2 0 1 1 .002 0Zm9 51.557a2 2 0 1 1 .002 0Zm-35-65.693a2 2 0 1 1 .002 0Zm30 52.876a2 2 0 1 1 .002 0Zm1-66.843a2 2 0 1 1 .002 0Zm-3 49.855a2 2 0 1 1 .002 0Zm-18 26.078a2 2 0 1 1 .002 0Z" class="highcharts-point highcharts-color-1" tabindex="-1" aria-hidden="true" style="outline:0" transform="translate(69 50)"/><path d="M137 153.106a2 2 0 1 1 .002 0Zm35-39.093a2 2 0 1 1 .002 0Zm-33-17.498a2 2 0 1 1 .002 0Zm2-4.93a2 2 0 1 1 .002 0Zm21 17.702a2 2 0 1 1 .002 0Zm3 6.979a2 2 0 1 1 .002 0Zm14-4.335a2 2 0 1 1 .002 0Zm-42-7.681a2 2 0 1 1 .002 0Zm32 36.657a2 2 0 1 1 .002 0Z" class="highcharts-point highcharts-color-1" tabindex="-1" aria-hidden="true" style="outline:0" transform="translate(69 50)"/><path d="M170 138.253a2 2 0 1 1 .002 0Zm-27-.885a2 2 0 1 1 .002 0Zm-11-48.295a2 2 0 1 1 .002 0Z" class="highcharts-point highcharts-color-1" tabindex="-1" aria-hidden="true" style="outline:0" transform="translate(69 50)"/><path d="M133 89.26a2 2 0 1 1 .002 0Zm42 39.882a2 2 0 1 1 .002 0Zm-8 52.638a2 2 0 1 1 .002 0Zm-14-76.666a2 2 0 1 1 .002 0Zm1 46.828a2 2 0 1 1 .002 0Zm-11-28.559a2 2 0 1 1 .002 0Zm2 30.81a2 2 0 1 1 .002 0Zm0-22.749a2 2 0 1 1 .002 0Z" class="highcharts-point highcharts-color-1" tabindex="-1" aria-hidden="true" style="outline:0" transform="translate(69 50)"/><path d="M143 119.125a2 2 0 1 1 .002 0Zm-7 16.555a2 2 0 1 1 .002 0Zm17-24.142a2 2 0 1 1 .002 0Zm2 38.619a2 2 0 1 1 .002 0Zm8-69.548a2 2 0 1 1 .002 0Zm4-37.287a2 2 0 1 1 .002 0Zm-17 43.897a2 2 0 1 1 .002 0Zm25-18.269a2 2 0 1 1 .002 0Zm-3 43.663a2 2 0 1 1 .002 0Zm-32-10.968a2 2 0 1 1 .002 0Zm19-.263a2 2 0 1 1 .002 0Zm-15 8.632a2 2 0 1 1 .002 0Zm1-16.484a2 2 0 1 1 .002 0Zm10 22.084a2 2 0 1 1 .002 0Zm16 34.476a2 2 0 1 1 .002 0Zm-4-60.907a2 2 0 1 1 .002 0Zm-29 26.614a2 2 0 1 1 .002 0Zm38 41.174a2 2 0 1 1 .002 0Zm-18-96.693a2 2 0 1 1 .002 0Zm-16 98.015a2 2 0 1 1 .002 0Z" class="highcharts-point highcharts-color-1" tabindex="-1" aria-hidden="true" style="outline:0" transform="translate(69 50)"/><path d="M145 110.523a2 2 0 1 1 .002 0Zm13 10.324a2 2 0 1 1 .002 0ZM140 98.11a2 2 0 1 1 .002 0Zm-5 21.76a2 2 0 1 1 .002 0Zm6-2.441a2 2 0 1 1 .002 0Zm29-15.993a2 2 0 1 1 .002 0Zm4 6.344a2 2 0 1 1 .002 0Zm-38-5.224a2 2 0 1 1 .002 0Zm1-33.274a2 2 0 1 1 .002 0Zm8 90.652a2 2 0 1 1 .002 0Zm18-8.21a2 2 0 1 1 .002 0Zm13-48.427a2 2 0 1 1 .002 0Zm-33 19.846a2 2 0 1 1 .002 0Zm9-60.356a2 2 0 1 1 .002 0Zm20-45.01a2 2 0 1 1 .002 0Zm8 113.573a2 2 0 1 1 .002 0Zm-14-6.81a2 2 0 1 1 .002 0Zm13-10.823a2 2 0 1 1 .002 0Zm-4 31.072a2 2 0 1 1 .002 0Zm-27-17.886a2 2 0 1 1 .002 0Zm-8-.073a2 2 0 1 1 .002 0Zm15 48.789a2 2 0 1 1 .002 0Zm7-102.518a2 2 0 1 1 .002 0Zm13-36.439a2 2 0 1 1 .002 0Z" class="highcharts-point highcharts-color-1" tabindex="-1" aria-hidden="true" style="outline:0" transform="translate(69 50)"/><path d="M135 118.613a2 2 0 1 1 .002 0Zm5 10.109a2 2 0 1 1 .002 0Zm37 6.974a2 2 0 1 1 .002 0Zm-29-1.832a2 2 0 1 1 .002 0Zm-4-25.272a2 2 0 1 1 .002 0Zm0 78.547a2 2 0 1 1 .002 0Zm31-115.475a2 2 0 1 1 .002 0Zm-5 147.296a2 2 0 1 1 .002 0Zm-7-114.664a2 2 0 1 1 .002 0Zm-3-8.153a2 2 0 1 1 .002 0Zm12 17.57a2 2 0 1 1 .002 0Zm-32 .359a2 2 0 1 1 .002 0Zm12-32.405a2 2 0 1 1 .002 0Zm7-39.947a2 2 0 1 1 .002 0Zm-4 45.565a2 2 0 1 1 .002 0Zm-22 4.975a2 2 0 1 1 .002 0Zm7 67.817a2 2 0 1 1 .002 0Zm31-51.223a2 2 0 1 1 .002 0Zm-23 5.236a2 2 0 1 1 .002 0Zm13 44.544a2 2 0 1 1 .002 0Zm-29-21.999a2 2 0 1 1 .002 0Zm23-86.768a2 2 0 1 1 .002 0Zm24 120.537a2 2 0 1 1 .002 0Z" class="highcharts-point highcharts-color-1" tabindex="-1" aria-hidden="true" style="outline:0" transform="translate(69 50)"/><path d="M136 121.953a2 2 0 1 1 .002 0Zm2 5.766a2 2 0 1 1 .002 0Zm-1-12.936a2 2 0 1 1 .002 0Zm42-55.951a2 2 0 1 1 .002 0Zm-42 34.392a2 2 0 1 1 .002 0Zm24-13.149a2 2 0 1 1 .002 0Zm15 51.77a2 2 0 1 1 .002 0Zm-30-26.786a2 2 0 1 1 .002 0Zm4 1.808a2 2 0 1 1 .002 0Zm-6-35.437a2 2 0 1 1 .002 0Zm34-27.9a2 2 0 1 1 .002 0Zm1 63.29a2 2 0 1 1 .002 0Zm-6-36.698a2 2 0 1 1 .002 0Zm-9 52.98a2 2 0 1 1 .002 0Z" class="highcharts-point highcharts-color-1" tabindex="-1" aria-hidden="true" style="outline:0" transform="translate(69 50)"/><path d="M143 103.639a2 2 0 1 1 .002 0Zm22-51.565a2 2 0 1 1 .002 0Zm-1 93.206a2 2 0 1 1 .002 0Zm10-31.818a2 2 0 1 1 .002 0Zm-19-46.468a2 2 0 1 1 .002 0Zm16-22.352a2 2 0 1 1 .002 0Zm-20 71.802a2 2 0 1 1 .002 0Zm15-18.264a2 2 0 1 1 .002 0Zm-33 47.966a2 2 0 1 1 .002 0Zm25-38.298a2 2 0 1 1 .002 0Zm12 39.13a2 2 0 1 1 .002 0Zm-17 21.954a2 2 0 1 1 .002 0Zm12-92.155a2 2 0 1 1 .002 0Zm-12 50.975a2 2 0 1 1 .002 0Zm11-35.549a2 2 0 1 1 .002 0Zm-8-40.811a2 2 0 1 1 .002 0Zm-13 69.079a2 2 0 1 1 .002 0Zm13-36.576a2 2 0 1 1 .002 0Zm-15 68.278a2 2 0 1 1 .002 0Zm-10-40.383a2 2 0 1 1 .002 0Zm40 19.234a2 2 0 1 1 .002 0Zm4 2.8a2 2 0 1 1 .002 0Zm-37-38.06a2 2 0 1 1 .002 0Zm19 56.668a2 2 0 1 1 .002 0Zm-14-40.536a2 2 0 1 1 .002 0Z" class="highcharts-point highcharts-color-1" tabindex="-1" aria-hidden="true" style="outline:0" transform="translate(69 50)"/><path d="M141 110.83a2 2 0 1 1 .002 0Z" class="highcharts-point highcharts-color-1" tabindex="-1" aria-hidden="true" style="outline:0" transform="translate(69 50)"/><path d="M143 112.389a2 2 0 1 1 .002 0Zm34-69.079a2 2 0 1 1 .002 0Zm-21 80.99a2 2 0 1 1 .002 0Zm20-51.814a2 2 0 1 1 .002 0Zm-29 47.193a2 2 0 1 1 .002 0Zm32 31.635a2 2 0 1 1 .002 0Zm-2-51.238a2 2 0 1 1 .002 0Zm-21 17.754a2 2 0 1 1 .002 0Zm-12-86.907a2 2 0 1 1 .002 0ZM131 82.71a2 2 0 1 1 .002 0Zm25 115.08a2 2 0 1 1 .002 0Zm20-73.398a2 2 0 1 1 .002 0Z" class="highcharts-point highcharts-color-1" tabindex="-1" aria-hidden="true" style="outline:0" transform="translate(69 50)"/><path d="M160 124.404a2 2 0 1 1 .002 0Zm16 21.921a2 2 0 1 1 .002 0Zm-26 25.661a2 2 0 1 1 .002 0Zm14-67.652a2 2 0 1 1 .002 0Zm-7-17.389a2 2 0 1 1 .002 0Zm19 24.618a2 2 0 1 1 .002 0Zm-8-61.004a2 2 0 1 1 .002 0Zm-26 106.526a2 2 0 1 1 .002 0Zm12-61.407a2 2 0 1 1 .002 0Zm1 51.958a2 2 0 1 1 .002 0ZM140 86.95a2 2 0 1 1 .002 0Zm31 14.117a2 2 0 1 1 .002 0Z" class="highcharts-point highcharts-color-1" tabindex="-1" aria-hidden="true" style="outline:0" transform="translate(69 50)"/><path d="M173 98.502a2 2 0 1 1 .002 0Zm-32 110.504a2 2 0 1 1 .002 0Zm28-74.639a2 2 0 1 1 .002 0Zm-24 52.508a2 2 0 1 1 .002 0Zm24-156.371a2 2 0 1 1 .002 0Zm-29 44.31a2 2 0 1 1 .002 0Zm40 85.189a2 2 0 1 1 .002 0Zm-45-49.133a2 2 0 1 1 .002 0Zm27 7.58a2 2 0 1 1 .002 0Zm-9-47.56a2 2 0 1 1 .002 0Z" class="highcharts-point highcharts-color-1" tabindex="-1" aria-hidden="true" style="outline:0" transform="translate(69 50)"/><path d="M138 76.352a2 2 0 1 1 .002 0Zm20 10.45a2 2 0 1 1 .002 0Zm-12-31.881a2 2 0 1 1 .002 0Zm-12 34.071a2 2 0 1 1 .002 0Zm7-58.815a2 2 0 1 1 .002 0Zm-10 91.544a2 2 0 1 1 .002 0Z" class="highcharts-point highcharts-color-1" tabindex="-1" aria-hidden="true" style="outline:0" transform="translate(69 50)"/></g><g class="highcharts-markers highcharts-series-2 highcharts-scatter-series highcharts-color-2 highcharts-tracker" data-z-index=".1" aria-hidden="false" tabindex="-1" aria-label="Run 3, scatter plot 3 of 5 with 200 points." style="outline:0" fill="rgba(241,158,83,0.5)"><path d="M235 197.612a2 2 0 1 1 .002 0Zm35-56.833a2 2 0 1 1 .002 0Zm14 .841a2 2 0 1 1 .002 0Zm-39-54.057a2 2 0 1 1 .002 0Zm39 71.46a2 2 0 1 1 .002 0Zm-11-11.831a2 2 0 1 1 .002 0Zm4-24.397a2 2 0 1 1 .002 0Zm1 113.093a2 2 0 1 1 .002 0Zm-14-89.769a2 2 0 1 1 .002 0Zm-20 87.268a2 2 0 1 1 .002 0Zm30-66.987a2 2 0 1 1 .002 0Zm-34-14.743a2 2 0 1 1 .002 0Zm9 77.713a2 2 0 1 1 .002 0Z" class="highcharts-point highcharts-color-2" tabindex="-1" aria-hidden="true" style="outline:0" transform="translate(69 50)"/><path d="M269 143.218a2 2 0 1 1 .002 0Zm-30 84.086a2 2 0 1 1 .002 0Zm40-62.087a2 2 0 1 1 .002 0Zm4-36.034a2 2 0 1 1 .002 0Zm-47 .213a2 2 0 1 1 .002 0Zm5 21.367a2 2 0 1 1 .002 0Zm33-22.528a2 2 0 1 1 .002 0Zm-16 .055a2 2 0 1 1 .002 0Zm5 37.2a2 2 0 1 1 .002 0Zm-4 60.593a2 2 0 1 1 .002 0Zm16-77.408a2 2 0 1 1 .002 0Zm-29-6.668a2 2 0 1 1 .002 0Zm13-76.227a2 2 0 1 1 .002 0Zm5 88.04a2 2 0 1 1 .002 0Z" class="highcharts-point highcharts-color-2" tabindex="-1" aria-hidden="true" style="outline:0" transform="translate(69 50)"/><path d="M273 131.49a2 2 0 1 1 .002 0Zm-35 36.849a2 2 0 1 1 .002 0Zm30-27.888a2 2 0 1 1 .002 0Zm1 27.203a2 2 0 1 1 .002 0Zm-3-48.582a2 2 0 1 1 .002 0Zm-18 24.063a2 2 0 1 1 .002 0Zm-7 1.844a2 2 0 1 1 .002 0Zm35-3.511a2 2 0 1 1 .002 0Zm-32 67.107a2 2 0 1 1 .002 0Zm2-75.885a2 2 0 1 1 .002 0Zm20 48.42a2 2 0 1 1 .002 0Z" class="highcharts-point highcharts-color-2" tabindex="-1" aria-hidden="true" style="outline:0" transform="translate(69 50)"/><path d="M269 120.342a2 2 0 1 1 .002 0Zm14 23.069a2 2 0 1 1 .002 0Zm-41-1.011a2 2 0 1 1 .002 0Zm32-42.274a2 2 0 1 1 .002 0Z" class="highcharts-point highcharts-color-2" tabindex="-1" aria-hidden="true" style="outline:0" transform="translate(69 50)"/><path d="M274 99.815a2 2 0 1 1 .002 0Zm-26 31.708a2 2 0 1 1 .002 0Zm-12 14.27a2 2 0 1 1 .002 0Zm1-61.829a2 2 0 1 1 .002 0Zm42 12.966a2 2 0 1 1 .002 0Zm-7 99.23a2 2 0 1 1 .002 0Zm-14-65.595a2 2 0 1 1 .002 0Zm1 33.484a2 2 0 1 1 .002 0Z" class="highcharts-point highcharts-color-2" tabindex="-1" aria-hidden="true" style="outline:0" transform="translate(69 50)"/><path d="M248 129.348a2 2 0 1 1 .002 0Zm2 13.948a2 2 0 1 1 .002 0Zm-1-57.543a2 2 0 1 1 .002 0Z" class="highcharts-point highcharts-color-2" tabindex="-1" aria-hidden="true" style="outline:0" transform="translate(69 50)"/><path d="M248 141.678a2 2 0 1 1 .002 0Zm-8-39.77a2 2 0 1 1 .002 0Zm17 45.504a2 2 0 1 1 .002 0Z" class="highcharts-point highcharts-color-2" tabindex="-1" aria-hidden="true" style="outline:0" transform="translate(69 50)"/><path d="M259 145.22a2 2 0 1 1 .002 0Zm8 53.043a2 2 0 1 1 .002 0Zm4-67.588a2 2 0 1 1 .002 0Zm-17 14.412a2 2 0 1 1 .002 0Zm26 14.397a2 2 0 1 1 .002 0Zm-4 55.332a2 2 0 1 1 .002 0Zm-31-56.346a2 2 0 1 1 .002 0Zm18-19.699a2 2 0 1 1 .002 0Zm-15-5.024a2 2 0 1 1 .002 0Zm1 6.97a2 2 0 1 1 .002 0Zm10 36.935a2 2 0 1 1 .002 0ZM275 31.84a2 2 0 1 1 .002 0Zm-4 107.157a2 2 0 1 1 .002 0Zm-28 7.298a2 2 0 1 1 .002 0Zm37-21.01a2 2 0 1 1 .002 0Zm-18-82.619a2 2 0 1 1 .002 0Zm-15 105.76a2 2 0 1 1 .002 0Z" class="highcharts-point highcharts-color-2" tabindex="-1" aria-hidden="true" style="outline:0" transform="translate(69 50)"/><path d="M249 160.021a2 2 0 1 1 .002 0Zm13-88.949a2 2 0 1 1 .002 0Zm-18 58.587a2 2 0 1 1 .002 0Zm-5-24.684a2 2 0 1 1 .002 0Zm6-5.108a2 2 0 1 1 .002 0Zm29 137.035a2 2 0 1 1 .002 0Zm5-95.022a2 2 0 1 1 .002 0Zm-38-.607a2 2 0 1 1 .002 0Z" class="highcharts-point highcharts-color-2" tabindex="-1" aria-hidden="true" style="outline:0" transform="translate(69 50)"/><path d="M241 131.265a2 2 0 1 1 .002 0Zm8 41.691a2 2 0 1 1 .002 0Zm18 5.859a2 2 0 1 1 .002 0Zm13-41.869a2 2 0 1 1 .002 0Zm-33-.458a2 2 0 1 1 .002 0Zm9 13.009a2 2 0 1 1 .002 0Zm20 9.106a2 2 0 1 1 .002 0Zm8 24.354a2 2 0 1 1 .002 0Zm-14-48.899a2 2 0 1 1 .002 0Zm13 107.352a2 2 0 1 1 .002 0Zm-4-171.973a2 2 0 1 1 .002 0Zm-27-.509a2 2 0 1 1 .002 0Zm-8 80.618a2 2 0 1 1 .002 0Zm15-45.438a2 2 0 1 1 .002 0Zm7 58.124a2 2 0 1 1 .002 0Zm13-111.299a2 2 0 1 1 .002 0Zm-40 104.138a2 2 0 1 1 .002 0Zm5-41.319a2 2 0 1 1 .002 0Z" class="highcharts-point highcharts-color-2" tabindex="-1" aria-hidden="true" style="outline:0" transform="translate(69 50)"/><path d="M282 136.657a2 2 0 1 1 .002 0Zm-30-7.384a2 2 0 1 1 .002 0Zm-4-29.999a2 2 0 1 1 .002 0Zm0 104.93a2 2 0 1 1 .002 0Zm31-5.787a2 2 0 1 1 .002 0Zm-5-93.546a2 2 0 1 1 .002 0Zm-7 23.772a2 2 0 1 1 .002 0Zm-3 45.347a2 2 0 1 1 .002 0Zm12-32.067a2 2 0 1 1 .002 0Zm-32 4.297a2 2 0 1 1 .002 0Zm12 42.15a2 2 0 1 1 .002 0Zm8 .14a2 2 0 1 1 .002 0Zm-5-76.419a2 2 0 1 1 .002 0Zm-22 26.214a2 2 0 1 1 .002 0Zm7-7.605a2 2 0 1 1 .002 0Zm31-8.903a2 2 0 1 1 .002 0Zm-22 51.671a2 2 0 1 1 .002 0Z" class="highcharts-point highcharts-color-2" tabindex="-1" aria-hidden="true" style="outline:0" transform="translate(69 50)"/><path d="M266 189.951a2 2 0 1 1 .002 0Zm-30-42.421a2 2 0 1 1 .002 0Zm23-11.051a2 2 0 1 1 .002 0Zm24 5.651a2 2 0 1 1 .002 0Zm-42 18.503a2 2 0 1 1 .002 0Z" class="highcharts-point highcharts-color-2" tabindex="-1" aria-hidden="true" style="outline:0" transform="translate(69 50)"/><path d="M243 159.095a2 2 0 1 1 .002 0Zm-1-17.553a2 2 0 1 1 .002 0Zm41 13.733a2 2 0 1 1 .002 0Zm-41-53.289a2 2 0 1 1 .002 0Zm23 43.644a2 2 0 1 1 .002 0Zm15-34.921a2 2 0 1 1 .002 0Zm-30 115.99a2 2 0 1 1 .002 0Zm4-97.146a2 2 0 1 1 .002 0Zm-6 9.426a2 2 0 1 1 .002 0Zm34-4.409a2 2 0 1 1 .002 0Zm1 12.873a2 2 0 1 1 .002 0Zm-6-85.707a2 2 0 1 1 .002 0Zm-9 19.289a2 2 0 1 1 .002 0Zm-21 70.658a2 2 0 1 1 .002 0Zm22-11.714a2 2 0 1 1 .002 0Z" class="highcharts-point highcharts-color-2" tabindex="-1" aria-hidden="true" style="outline:0" transform="translate(69 50)"/><path d="M268 143.47a2 2 0 1 1 .002 0Zm10-15.971a2 2 0 1 1 .002 0Zm-19 54.406a2 2 0 1 1 .002 0Zm16 27.749a2 2 0 1 1 .002 0Zm-20-106.372a2 2 0 1 1 .002 0Zm16 54.253a2 2 0 1 1 .002 0Zm-34-29.295a2 2 0 1 1 .002 0Zm25 .023a2 2 0 1 1 .002 0Zm12 13.697a2 2 0 1 1 .002 0Zm-16-20.092a2 2 0 1 1 .002 0Zm12 42.423a2 2 0 1 1 .002 0Zm-13 38.679a2 2 0 1 1 .002 0Zm11-68.391a2 2 0 1 1 .002 0Zm-7 13.137a2 2 0 1 1 .002 0Zm-14-50.988a2 2 0 1 1 .002 0Z" class="highcharts-point highcharts-color-2" tabindex="-1" aria-hidden="true" style="outline:0" transform="translate(69 50)"/><path d="M260 180.854a2 2 0 1 1 .002 0Zm-15-50.423a2 2 0 1 1 .002 0Zm-10-6.886a2 2 0 1 1 .002 0Zm40 7.648a2 2 0 1 1 .002 0Zm4 11.557a2 2 0 1 1 .002 0Zm-36-22.859a2 2 0 1 1 .002 0Zm18 35.269a2 2 0 1 1 .002 0Zm-14-11.659a2 2 0 1 1 .002 0Zm-2 5.279a2 2 0 1 1 .002 0Zm3 36.956a2 2 0 1 1 .002 0Zm33-16.026a2 2 0 1 1 .002 0Zm-21 31.57a2 2 0 1 1 .002 0Zm20-67.946a2 2 0 1 1 .002 0Z" class="highcharts-point highcharts-color-2" tabindex="-1" aria-hidden="true" style="outline:0" transform="translate(69 50)"/><path d="M251 183.527a2 2 0 1 1 .002 0Zm33-69.914a2 2 0 1 1 .002 0Zm-3 21.442a2 2 0 1 1 .002 0Zm-21-79.66a2 2 0 1 1 .002 0Zm-12 180.789a2 2 0 1 1 .002 0Zm-13-20.759a2 2 0 1 1 .002 0Zm25-58.771a2 2 0 1 1 .002 0Zm20-53.99a2 2 0 1 1 .002 0Zm-15 35.417a2 2 0 1 1 .002 0Zm15 38.006a2 2 0 1 1 .002 0Zm-26-50.417a2 2 0 1 1 .002 0Zm14 21.821a2 2 0 1 1 .002 0Zm-7 1.569a2 2 0 1 1 .002 0Zm19-33.188a2 2 0 1 1 .002 0Zm-7 46.159a2 2 0 1 1 .002 0Zm-27 11.104a2 2 0 1 1 .002 0Z" class="highcharts-point highcharts-color-2" tabindex="-1" aria-hidden="true" style="outline:0" transform="translate(69 50)"/><path d="M259 155.218a2 2 0 1 1 .002 0Zm0-46.551a2 2 0 1 1 .002 0Zm-15 52.885a2 2 0 1 1 .002 0Zm31-26.956a2 2 0 1 1 .002 0Zm2-19.256a2 2 0 1 1 .002 0Zm-31 37.358a2 2 0 1 1 .002 0Zm27 23.246a2 2 0 1 1 .002 0Zm-24-.951a2 2 0 1 1 .002 0Zm24-48.198a2 2 0 1 1 .002 0Zm-29 9.255a2 2 0 1 1 .002 0Zm41 31.293a2 2 0 1 1 .002 0Zm-46-94.522a2 2 0 1 1 .002 0Zm27 4.051a2 2 0 1 1 .002 0Z" class="highcharts-point highcharts-color-2" tabindex="-1" aria-hidden="true" style="outline:0" transform="translate(69 50)"/><path d="M257 155.69a2 2 0 1 1 .002 0Zm-15-65.792a2 2 0 1 1 .002 0Zm20-12.696a2 2 0 1 1 .002 0Zm-12 56.07a2 2 0 1 1 .002 0Zm-12 8.113a2 2 0 1 1 .002 0Zm8-96.42a2 2 0 1 1 .002 0Zm-10 57.515a2 2 0 1 1 .002 0Z" class="highcharts-point highcharts-color-2" tabindex="-1" aria-hidden="true" style="outline:0" transform="translate(69 50)"/></g><g class="highcharts-markers highcharts-series-3 highcharts-scatter-series highcharts-color-3 highcharts-tracker" data-z-index=".1" aria-hidden="false" tabindex="-1" aria-label="Run 4, scatter plot 4 of 5 with 200 points." style="outline:0" fill="rgba(102,153,161,0.5)"><path d="M339 120.527a2 2 0 1 1 .002 0Zm36 27.133a2 2 0 1 1 .002 0Zm13 67.231a2 2 0 1 1 .002 0Zm-39 20.226a2 2 0 1 1 .002 0Zm39-96.867a2 2 0 1 1 .002 0Zm-11 59.32a2 2 0 1 1 .002 0Zm4-20.01a2 2 0 1 1 .002 0Zm2-24.35a2 2 0 1 1 .002 0Zm-15-21.847a2 2 0 1 1 .002 0Zm-20 48.722a2 2 0 1 1 .002 0Zm31-83.845a2 2 0 1 1 .002 0Zm-35 143.689a2 2 0 1 1 .002 0Zm9-65.841a2 2 0 1 1 .002 0Zm20-3.052a2 2 0 1 1 .002 0Zm-30 8.273a2 2 0 1 1 .002 0Zm40-52.49a2 2 0 1 1 .002 0Zm5 53.376a2 2 0 1 1 .002 0Zm-48 9.525a2 2 0 1 1 .002 0Zm6-26.453a2 2 0 1 1 .002 0Zm32 69.379a2 2 0 1 1 .002 0Zm-16-55.65a2 2 0 1 1 .002 0Zm5 48.967a2 2 0 1 1 .002 0Zm-3-8.247a2 2 0 1 1 .002 0Z" class="highcharts-point highcharts-color-3" tabindex="-1" aria-hidden="true" style="outline:0" transform="translate(69 50)"/><path d="M379 176.007a2 2 0 1 1 .002 0Zm-29 31.011a2 2 0 1 1 .002 0ZM363 99.52a2 2 0 1 1 .002 0Zm5 67.52a2 2 0 1 1 .002 0Zm9 15.47a2 2 0 1 1 .002 0Zm-35 35.388a2 2 0 1 1 .002 0Zm30-37.02a2 2 0 1 1 .002 0Zm1 7.29a2 2 0 1 1 .002 0Zm-3-48.123a2 2 0 1 1 .002 0Zm-17 77.239a2 2 0 1 1 .002 0Zm-8-26.733a2 2 0 1 1 .002 0Zm36-25.607a2 2 0 1 1 .002 0Zm-33 14.961a2 2 0 1 1 .002 0Z" class="highcharts-point highcharts-color-3" tabindex="-1" aria-hidden="true" style="outline:0" transform="translate(69 50)"/><path d="M350 203.354a2 2 0 1 1 .002 0Zm20-36.052a2 2 0 1 1 .002 0Zm3 16.548a2 2 0 1 1 .002 0Zm14-36.42a2 2 0 1 1 .002 0Zm-41 49.892a2 2 0 1 1 .002 0Zm32-64.371a2 2 0 1 1 .002 0Z" class="highcharts-point highcharts-color-3" tabindex="-1" aria-hidden="true" style="outline:0" transform="translate(69 50)"/><path d="M378 272.524a2 2 0 1 1 .002 0Z" class="highcharts-point highcharts-negative highcharts-color-3" tabindex="-1" aria-hidden="true" style="outline:0" transform="translate(69 50)"/><path d="M352 164.925a2 2 0 1 1 .002 0Zm-12-35.265a2 2 0 1 1 .002 0Zm1 49.485a2 2 0 1 1 .002 0Zm42 59.769a2 2 0 1 1 .002 0Zm-7-19.88a2 2 0 1 1 .002 0Zm-14-42.244a2 2 0 1 1 .002 0Zm1 35.377a2 2 0 1 1 .002 0Z" class="highcharts-point highcharts-color-3" tabindex="-1" aria-hidden="true" style="outline:0" transform="translate(69 50)"/><path d="M352 271.769a2 2 0 1 1 .002 0Z" class="highcharts-point highcharts-negative highcharts-color-3" tabindex="-1" aria-hidden="true" style="outline:0" transform="translate(69 50)"/><path d="M354 95.89a2 2 0 1 1 .002 0Zm-1 136.142a2 2 0 1 1 .002 0Zm-1-28.037a2 2 0 1 1 .002 0Zm-7-84.866a2 2 0 1 1 .002 0Zm17 73.421a2 2 0 1 1 .002 0Zm2-11.448a2 2 0 1 1 .002 0Zm8-37.634a2 2 0 1 1 .002 0Zm4 42.051a2 2 0 1 1 .002 0Zm-18-4.661a2 2 0 1 1 .002 0Zm26 5.835a2 2 0 1 1 .002 0Zm-4 42.277a2 2 0 1 1 .002 0Zm-31-33.703a2 2 0 1 1 .002 0Zm18 5.679a2 2 0 1 1 .002 0Z" class="highcharts-point highcharts-color-3" tabindex="-1" aria-hidden="true" style="outline:0" transform="translate(69 50)"/><path d="M352 200.266a2 2 0 1 1 .002 0Zm2-43.907a2 2 0 1 1 .002 0Zm10 38.792a2 2 0 1 1 .002 0Zm15-34.749a2 2 0 1 1 .002 0Zm-4 36.526a2 2 0 1 1 .002 0Zm-28-16.545a2 2 0 1 1 .002 0Zm38-.685a2 2 0 1 1 .002 0Zm-18-4.774a2 2 0 1 1 .002 0ZM351 145.6a2 2 0 1 1 .002 0Zm2-11.684a2 2 0 1 1 .002 0Zm13 68.141a2 2 0 1 1 .002 0Z" class="highcharts-point highcharts-color-3" tabindex="-1" aria-hidden="true" style="outline:0" transform="translate(69 50)"/><path d="M348 181.82a2 2 0 1 1 .002 0Zm-5 6.127a2 2 0 1 1 .002 0Zm6-24.308a2 2 0 1 1 .002 0Zm29-8.399a2 2 0 1 1 .002 0Zm5-36.308a2 2 0 1 1 .002 0Zm-38 39.435a2 2 0 1 1 .002 0Z" class="highcharts-point highcharts-color-3" tabindex="-1" aria-hidden="true" style="outline:0" transform="translate(69 50)"/><path d="M345 159.966a2 2 0 1 1 .002 0Zm9 10.602a2 2 0 1 1 .002 0Zm17-30.585a2 2 0 1 1 .002 0Zm13 1.688a2 2 0 1 1 .002 0Zm-33 35.149a2 2 0 1 1 .002 0Zm9 25.038a2 2 0 1 1 .002 0Zm20 68.232a2 2 0 1 1 .002 0Zm8-77.61a2 2 0 1 1 .002 0Zm-14-15.515a2 2 0 1 1 .002 0Z" class="highcharts-point highcharts-color-3" tabindex="-1" aria-hidden="true" style="outline:0" transform="translate(69 50)"/><path d="M388 196.033a2 2 0 1 1 .002 0Zm-5-20.248a2 2 0 1 1 .002 0Zm-27 70.279a2 2 0 1 1 .002 0Zm-8-105.311a2 2 0 1 1 .002 0Zm15 93.937a2 2 0 1 1 .002 0Zm7-58.929a2 2 0 1 1 .002 0Zm13-37.425a2 2 0 1 1 .002 0Zm-40 120.123a2 2 0 1 1 .002 0Zm5-53.861a2 2 0 1 1 .002 0Zm38 13.775a2 2 0 1 1 .002 0Zm-30-29.904a2 2 0 1 1 .002 0Zm-4-15.039a2 2 0 1 1 .002 0Zm1 8.008a2 2 0 1 1 .002 0Zm31 55.18a2 2 0 1 1 .002 0Zm-6-37.607a2 2 0 1 1 .002 0Zm-6-43.906a2 2 0 1 1 .002 0Zm-4 5.13a2 2 0 1 1 .002 0Zm12 64.352a2 2 0 1 1 .002 0Zm-32 39.264a2 2 0 1 1 .002 0Zm13-107.711a2 2 0 1 1 .002 0Zm7-46.15a2 2 0 1 1 .002 0Zm-5 57.374a2 2 0 1 1 .002 0Zm-22-51.124a2 2 0 1 1 .002 0Z" class="highcharts-point highcharts-color-3" tabindex="-1" aria-hidden="true" style="outline:0" transform="translate(69 50)"/><path d="M348 139.347a2 2 0 1 1 .002 0Zm31 38.183a2 2 0 1 1 .002 0Zm-22-34.647a2 2 0 1 1 .002 0Zm13 30.947a2 2 0 1 1 .002 0Zm-30-24.355a2 2 0 1 1 .002 0Zm23-1.89a2 2 0 1 1 .002 0Zm24 30.318a2 2 0 1 1 .002 0Zm-42-22.318a2 2 0 1 1 .002 0Zm2 34.433a2 2 0 1 1 .002 0Zm-1-25.78a2 2 0 1 1 .002 0Zm41-30.545a2 2 0 1 1 .002 0Zm-41 116.459a2 2 0 1 1 .002 0Zm23-86.778a2 2 0 1 1 .002 0Z" class="highcharts-point highcharts-color-3" tabindex="-1" aria-hidden="true" style="outline:0" transform="translate(69 50)"/><path d="M385 178.833a2 2 0 1 1 .002 0Zm-31 7.385a2 2 0 1 1 .002 0Z" class="highcharts-point highcharts-color-3" tabindex="-1" aria-hidden="true" style="outline:0" transform="translate(69 50)"/><path d="M358 187.068a2 2 0 1 1 .002 0Zm-5 25.758a2 2 0 1 1 .002 0Zm33-106.766a2 2 0 1 1 .002 0Zm2 101.294a2 2 0 1 1 .002 0Zm-7-5.518a2 2 0 1 1 .002 0Zm-9-8.658a2 2 0 1 1 .002 0Zm-20-55.679a2 2 0 1 1 .002 0Zm22 108.232a2 2 0 1 1 .002 0Zm-1-142.071a2 2 0 1 1 .002 0Zm9 150.737a2 2 0 1 1 .002 0Zm-19-21.225a2 2 0 1 1 .002 0Zm16-48.316a2 2 0 1 1 .002 0Zm-20-68.07a2 2 0 1 1 .002 0Z" class="highcharts-point highcharts-color-3" tabindex="-1" aria-hidden="true" style="outline:0" transform="translate(69 50)"/><path d="M375 185.39a2 2 0 1 1 .002 0Zm-33 .623a2 2 0 1 1 .002 0Zm25 69.307a2 2 0 1 1 .002 0Zm11-117.067a2 2 0 1 1 .002 0Zm-16 49.007a2 2 0 1 1 .002 0Zm12 19.922a2 2 0 1 1 .002 0Zm-13 20.566a2 2 0 1 1 .002 0Zm12-37.233a2 2 0 1 1 .002 0Zm-8-29.032a2 2 0 1 1 .002 0Zm-14-23.46a2 2 0 1 1 .002 0Zm13-15.492a2 2 0 1 1 .002 0Zm-15 118.678a2 2 0 1 1 .002 0Zm-10-39.115a2 2 0 1 1 .002 0Zm40-41.394a2 2 0 1 1 .002 0Zm4 100.965a2 2 0 1 1 .002 0Zm-36-66.56a2 2 0 1 1 .002 0Zm18 47.334a2 2 0 1 1 .002 0Zm-14-121.172a2 2 0 1 1 .002 0Zm-2 70.09a2 2 0 1 1 .002 0Zm3-46.812a2 2 0 1 1 .002 0Zm33 44.452a2 2 0 1 1 .002 0Z" class="highcharts-point highcharts-color-3" tabindex="-1" aria-hidden="true" style="outline:0" transform="translate(69 50)"/><path d="M364 188.284a2 2 0 1 1 .002 0Zm20 25.072a2 2 0 1 1 .002 0Zm-28-59.788a2 2 0 1 1 .002 0Zm32 26.142a2 2 0 1 1 .002 0Zm-3-10.513a2 2 0 1 1 .002 0Zm-21-7.897a2 2 0 1 1 .002 0Zm-11-16.066a2 2 0 1 1 .002 0Zm-14-6.043a2 2 0 1 1 .002 0Zm25 34.492a2 2 0 1 1 .002 0Zm21-48.583a2 2 0 1 1 .002 0Zm-16 60.357a2 2 0 1 1 .002 0Zm15-52.699a2 2 0 1 1 .002 0Zm-26-7.806a2 2 0 1 1 .002 0Zm14 46.524a2 2 0 1 1 .002 0Zm-7-47.118a2 2 0 1 1 .002 0Z" class="highcharts-point highcharts-color-3" tabindex="-1" aria-hidden="true" style="outline:0" transform="translate(69 50)"/><path d="M384 180.247a2 2 0 1 1 .002 0Zm-7-50.194a2 2 0 1 1 .002 0Zm-27 5.422a2 2 0 1 1 .002 0Zm13 52.411a2 2 0 1 1 .002 0Zm0 12.811a2 2 0 1 1 .002 0Zm-14 7.84a2 2 0 1 1 .002 0Zm30-10.898a2 2 0 1 1 .002 0Zm2-65.173a2 2 0 1 1 .002 0Zm-31 25.147a2 2 0 1 1 .002 0Z" class="highcharts-point highcharts-color-3" tabindex="-1" aria-hidden="true" style="outline:0" transform="translate(69 50)"/><path d="M377 279.522a2 2 0 1 1 .002 0Z" class="highcharts-point highcharts-negative highcharts-color-3" tabindex="-1" aria-hidden="true" style="outline:0" transform="translate(69 50)"/><path d="M354 200.85a2 2 0 1 1 .002 0Zm23-99.492a2 2 0 1 1 .002 0Zm-29 77.48a2 2 0 1 1 .002 0Zm41-4.178a2 2 0 1 1 .002 0Zm-46 29.168a2 2 0 1 1 .002 0Zm27-74.368a2 2 0 1 1 .002 0Zm-9 111.084a2 2 0 1 1 .002 0Zm-15-132.3a2 2 0 1 1 .002 0Zm21 62.551a2 2 0 1 1 .002 0Zm-13 11.589a2 2 0 1 1 .002 0Zm-12-16.204a2 2 0 1 1 .002 0Zm8 21.036a2 2 0 1 1 .002 0ZM340 81.662a2 2 0 1 1 .002 0Z" class="highcharts-point highcharts-color-3" tabindex="-1" aria-hidden="true" style="outline:0" transform="translate(69 50)"/></g><g class="highcharts-markers highcharts-series-4 highcharts-scatter-series highcharts-color-4 highcharts-tracker" data-z-index=".1" aria-hidden="false" tabindex="-1" aria-label="Run 5, scatter plot 5 of 5 with 200 points." style="outline:0" fill="rgba(225,211,105,0.5)"><path d="M443 156.24a2 2 0 1 1 .002 0Zm36 57.966a2 2 0 1 1 .002 0Zm13-10.109a2 2 0 1 1 .002 0Zm-39 13.094a2 2 0 1 1 .002 0Zm39-42.522a2 2 0 1 1 .002 0Zm-11-31.333a2 2 0 1 1 .002 0Zm5 28.839a2 2 0 1 1 .002 0Zm1-15.109a2 2 0 1 1 .002 0Zm-14-17.582a2 2 0 1 1 .002 0Zm-20 96.196a2 2 0 1 1 .002 0Zm30-42.643a2 2 0 1 1 .002 0Zm-35-52.4a2 2 0 1 1 .002 0Zm9-86.819a2 2 0 1 1 .002 0ZM477 158.1a2 2 0 1 1 .002 0Zm-30-10.919a2 2 0 1 1 .002 0Zm40-.688a2 2 0 1 1 .002 0Zm5-16.15a2 2 0 1 1 .002 0Zm-47-8.715a2 2 0 1 1 .002 0Zm5-7.461a2 2 0 1 1 .002 0Zm32-44.754a2 2 0 1 1 .002 0Zm-16-3.561a2 2 0 1 1 .002 0Zm5 55.284a2 2 0 1 1 .002 0Zm-3 14.427a2 2 0 1 1 .002 0Zm15 46.164a2 2 0 1 1 .002 0Zm-29-7.103a2 2 0 1 1 .002 0Zm14-.812a2 2 0 1 1 .002 0Zm5-29.735a2 2 0 1 1 .002 0Z" class="highcharts-point highcharts-color-4" tabindex="-1" aria-hidden="true" style="outline:0" transform="translate(69 50)"/><path d="M481 147.403a2 2 0 1 1 .002 0Zm-35-74.958a2 2 0 1 1 .002 0Zm30 30.464a2 2 0 1 1 .002 0Zm2 24.594a2 2 0 1 1 .002 0Zm-3 8.669a2 2 0 1 1 .002 0Zm-18 30.125a2 2 0 1 1 .002 0Zm-8-119.162a2 2 0 1 1 .002 0Zm36 145.494a2 2 0 1 1 .002 0Zm-33-55.766a2 2 0 1 1 .002 0Zm2 18.641a2 2 0 1 1 .002 0Zm20-33.849a2 2 0 1 1 .002 0Zm4 20.105a2 2 0 1 1 .002 0Zm13 9.336a2 2 0 1 1 .002 0Zm-41 54.368a2 2 0 1 1 .002 0Zm32-50.298a2 2 0 1 1 .002 0Zm1 10.636a2 2 0 1 1 .002 0Zm-27 42.892a2 2 0 1 1 .002 0Zm-12-33.474a2 2 0 1 1 .002 0Zm1 21.275a2 2 0 1 1 .002 0Zm43-131.5a2 2 0 1 1 .002 0Zm-8 72.909a2 2 0 1 1 .002 0Zm-14 34.586a2 2 0 1 1 .002 0Zm1-32.539a2 2 0 1 1 .002 0Zm-11 3.511a2 2 0 1 1 .002 0Zm2 30.228a2 2 0 1 1 .002 0Zm-1-23.727a2 2 0 1 1 .002 0Z" class="highcharts-point highcharts-color-4" tabindex="-1" aria-hidden="true" style="outline:0" transform="translate(69 50)"/><path d="M456 156.038a2 2 0 1 1 .002 0Zm-7-26.021a2 2 0 1 1 .002 0Zm17 28.852a2 2 0 1 1 .002 0Zm2-12.639a2 2 0 1 1 .002 0Zm8 27.664a2 2 0 1 1 .002 0Zm4-22.182a2 2 0 1 1 .002 0Zm-18-6.365a2 2 0 1 1 .002 0Zm26 9.989a2 2 0 1 1 .002 0Zm-3 27.561a2 2 0 1 1 .002 0Zm-32 18.454a2 2 0 1 1 .002 0Zm18-127.729a2 2 0 1 1 .002 0Zm-15 71.673a2 2 0 1 1 .002 0Z" class="highcharts-point highcharts-color-4" tabindex="-1" aria-hidden="true" style="outline:0" transform="translate(69 50)"/><path d="M458 146.248a2 2 0 1 1 .002 0Zm10-23.333a2 2 0 1 1 .002 0Zm15-30.54a2 2 0 1 1 .002 0Zm-3 14.696a2 2 0 1 1 .002 0Zm-29 30.808a2 2 0 1 1 .002 0Zm38 7.043a2 2 0 1 1 .002 0Zm-18 1.585a2 2 0 1 1 .002 0Zm-16 75.506a2 2 0 1 1 .002 0Zm2-86.084a2 2 0 1 1 .002 0Zm13 20.478a2 2 0 1 1 .002 0Zm-17-8.102a2 2 0 1 1 .002 0Zm-6-19.443a2 2 0 1 1 .002 0Zm6 13.748a2 2 0 1 1 .002 0Zm30 2.386a2 2 0 1 1 .002 0Zm4 56.488a2 2 0 1 1 .002 0Zm-38-40.428a2 2 0 1 1 .002 0Zm0-4.444a2 2 0 1 1 .002 0Zm9 23.418a2 2 0 1 1 .002 0Zm18-75.11a2 2 0 1 1 .002 0Zm13 26.614a2 2 0 1 1 .002 0Z" class="highcharts-point highcharts-color-4" tabindex="-1" aria-hidden="true" style="outline:0" transform="translate(69 50)"/><path d="M456 138.886a2 2 0 1 1 .002 0Zm8 2.24a2 2 0 1 1 .002 0Zm20-66.951a2 2 0 1 1 .002 0Zm9 115.172a2 2 0 1 1 .002 0Zm-15-31.567a2 2 0 1 1 .002 0Zm14-21.07a2 2 0 1 1 .002 0Zm-5 26.228a2 2 0 1 1 .002 0Zm-27-27.606a2 2 0 1 1 .002 0Zm-8-10.958a2 2 0 1 1 .002 0Zm15 24.923a2 2 0 1 1 .002 0Zm7-3.573a2 2 0 1 1 .002 0Zm13 35.326a2 2 0 1 1 .002 0Zm-40 30.666a2 2 0 1 1 .002 0Z" class="highcharts-point highcharts-color-4" tabindex="-1" aria-hidden="true" style="outline:0" transform="translate(69 50)"/><path d="M452 127.193a2 2 0 1 1 .002 0Zm38 48.701a2 2 0 1 1 .002 0Zm-29-5.074a2 2 0 1 1 .002 0Zm-5 13.206a2 2 0 1 1 .002 0Z" class="highcharts-point highcharts-color-4" tabindex="-1" aria-hidden="true" style="outline:0" transform="translate(69 50)"/><path d="M457 182.87a2 2 0 1 1 .002 0Zm31 33.537a2 2 0 1 1 .002 0ZM482 64.26a2 2 0 1 1 .002 0Zm-6 117.63a2 2 0 1 1 .002 0Zm-4-91.21a2 2 0 1 1 .002 0Zm12 41.69a2 2 0 1 1 .002 0Zm-31 39.15a2 2 0 1 1 .002 0Zm12-36.268a2 2 0 1 1 .002 0Zm7 75.715a2 2 0 1 1 .002 0Zm-4-135.995a2 2 0 1 1 .002 0Zm-22 138.455a2 2 0 1 1 .002 0Zm6-84.831a2 2 0 1 1 .002 0Zm32 71.94a2 2 0 1 1 .002 0Zm-23-46.412a2 2 0 1 1 .002 0Zm13 46.851a2 2 0 1 1 .002 0Zm-30-58.597a2 2 0 1 1 .002 0Zm23 26.427a2 2 0 1 1 .002 0Zm24-47.588a2 2 0 1 1 .002 0Zm-42 29.694a2 2 0 1 1 .002 0Z" class="highcharts-point highcharts-color-4" tabindex="-1" aria-hidden="true" style="outline:0" transform="translate(69 50)"/><path d="M451 170.987a2 2 0 1 1 .002 0Zm-1-67.921a2 2 0 1 1 .002 0Zm42 80.174a2 2 0 1 1 .002 0ZM450 78.109a2 2 0 1 1 .002 0Zm23 99.131a2 2 0 1 1 .002 0Zm16-46.276a2 2 0 1 1 .002 0Zm-31 37.98a2 2 0 1 1 .002 0Zm4-28.667a2 2 0 1 1 .002 0Zm-5 18.746a2 2 0 1 1 .002 0Zm33-8.811a2 2 0 1 1 .002 0Z" class="highcharts-point highcharts-color-4" tabindex="-1" aria-hidden="true" style="outline:0" transform="translate(69 50)"/><path d="M492 184.853a2 2 0 1 1 .002 0Zm-7-96.889a2 2 0 1 1 .002 0Zm-9 66.332a2 2 0 1 1 .002 0ZM456 136.2a2 2 0 1 1 .002 0Zm22-33.204a2 2 0 1 1 .002 0Zm-1 44.163a2 2 0 1 1 .002 0Zm9 .631a2 2 0 1 1 .002 0Zm-19 18.187a2 2 0 1 1 .002 0Zm16-60.495a2 2 0 1 1 .002 0Zm-20 26.625a2 2 0 1 1 .002 0Zm16 81.589a2 2 0 1 1 .002 0Zm-33-86.149a2 2 0 1 1 .002 0Zm25 26.883a2 2 0 1 1 .002 0Zm12-13.786a2 2 0 1 1 .002 0Zm-17 5.29a2 2 0 1 1 .002 0Zm12 51.826a2 2 0 1 1 .002 0Z" class="highcharts-point highcharts-color-4" tabindex="-1" aria-hidden="true" style="outline:0" transform="translate(69 50)"/><path d="M465 149.004a2 2 0 1 1 .002 0Zm12-7.396a2 2 0 1 1 .002 0Zm-8-14.301a2 2 0 1 1 .002 0Zm-14 27.076a2 2 0 1 1 .002 0Zm13 21.216a2 2 0 1 1 .002 0Z" class="highcharts-point highcharts-color-4" tabindex="-1" aria-hidden="true" style="outline:0" transform="translate(69 50)"/><path d="M454 155.754a2 2 0 1 1 .002 0Zm-10 7.353a2 2 0 1 1 .002 0Zm39-51.232a2 2 0 1 1 .002 0Zm4 32.891a2 2 0 1 1 .002 0Zm-36-19.441a2 2 0 1 1 .002 0Zm18-3.059a2 2 0 1 1 .002 0ZM455 89.21a2 2 0 1 1 .002 0Zm-2 99.985a2 2 0 1 1 .002 0Zm3-68.947a2 2 0 1 1 .002 0Z" class="highcharts-point highcharts-color-4" tabindex="-1" aria-hidden="true" style="outline:0" transform="translate(69 50)"/><path d="M490 143.87a2 2 0 1 1 .002 0Zm-22 30.956a2 2 0 1 1 .002 0Zm20-10.31a2 2 0 1 1 .002 0Zm-28-8.555a2 2 0 1 1 .002 0Zm32 27.114a2 2 0 1 1 .002 0Zm-3-4.449a2 2 0 1 1 .002 0Zm-21-26.82a2 2 0 1 1 .002 0Zm-11-65.49a2 2 0 1 1 .002 0Zm-14 51.535a2 2 0 1 1 .002 0Zm25 25.013a2 2 0 1 1 .002 0Zm21 40.062a2 2 0 1 1 .002 0ZM473 95.019a2 2 0 1 1 .002 0Z" class="highcharts-point highcharts-color-4" tabindex="-1" aria-hidden="true" style="outline:0" transform="translate(69 50)"/><path d="M488 142.71a2 2 0 1 1 .002 0Zm-26-36.262a2 2 0 1 1 .002 0Zm14-35.522a2 2 0 1 1 .002 0Zm-6 138.282a2 2 0 1 1 .002 0Zm18 31.112a2 2 0 1 1 .002 0Zm-7-40.11a2 2 0 1 1 .002 0ZM454 96.952a2 2 0 1 1 .002 0Zm13 77.386a2 2 0 1 1 .002 0Zm1-25.213a2 2 0 1 1 .002 0Zm-15 2.553a2 2 0 1 1 .002 0Zm31 23.638a2 2 0 1 1 .002 0Zm2 10.196a2 2 0 1 1 .002 0Zm-32-56.299a2 2 0 1 1 .002 0Zm27 61.395a2 2 0 1 1 .002 0Zm-23-79.244a2 2 0 1 1 .002 0Zm24-3.429a2 2 0 1 1 .002 0Zm-30 100.741a2 2 0 1 1 .002 0Zm41-112.458a2 2 0 1 1 .002 0Zm-45 33.672a2 2 0 1 1 .002 0Zm26 74.114a2 2 0 1 1 .002 0Zm-9-76.5a2 2 0 1 1 .002 0Zm-15 65.076a2 2 0 1 1 .002 0Zm21-35.402a2 2 0 1 1 .002 0Zm-13-12.203a2 2 0 1 1 .002 0Zm-12-23.472a2 2 0 1 1 .002 0Zm8 40.845a2 2 0 1 1 .002 0Zm-10-16.836a2 2 0 1 1 .002 0Z" class="highcharts-point highcharts-color-4" tabindex="-1" aria-hidden="true" style="outline:0" transform="translate(69 50)"/></g></g><text x="300" text-anchor="middle" class="highcharts-title" data-z-index="4" style="color:#fff;font-size:22px;font-weight:500;fill:#fff" y="27" aria-hidden="true">Scatter chart with jitter</text><g class="highcharts-axis-labels highcharts-xaxis-labels" data-z-index="7" aria-hidden="true" text-anchor="middle"><text x="121.1" style="color:#fff;cursor:default;font-size:12px;fill:#fff" y="384">Run 1</text><text x="225.3" style="color:#fff;cursor:default;font-size:12px;fill:#fff" y="384">Run 2</text><text x="329.5" style="color:#fff;cursor:default;font-size:12px;fill:#fff" y="384">Run 3</text><text x="433.7" style="color:#fff;cursor:default;font-size:12px;fill:#fff" y="384">Run 4</text><text x="537.9" style="color:#fff;cursor:default;font-size:12px;fill:#fff" y="384">Run 5</text></g><g class="highcharts-axis-labels highcharts-yaxis-labels" data-z-index="7" aria-hidden="true" text-anchor="end"><text x="54" style="color:#fff;cursor:default;font-size:12px;fill:#fff" y="369">-0.1</text><text x="54" style="color:#fff;cursor:default;font-size:12px;fill:#fff" y="324">0</text><text x="54" style="color:#fff;cursor:default;font-size:12px;fill:#fff" y="280">0.1</text><text x="54" style="color:#fff;cursor:default;font-size:12px;fill:#fff" y="235">0.2</text><text x="54" style="color:#fff;cursor:default;font-size:12px;fill:#fff" y="190">0.3</text><text x="54" style="color:#fff;cursor:default;font-size:12px;fill:#fff" y="145">0.4</text><text x="54" style="color:#fff;cursor:default;font-size:12px;fill:#fff" y="100">0.5</text><text x="54" style="color:#fff;cursor:default;font-size:12px;fill:#fff" y="55">0.6</text></g></svg>