<svg class="highcharts-root" style="font-family:&quot;IBM Plex Sans&quot;,sans-serif;font-size:12px" xmlns="http://www.w3.org/2000/svg" width="600" height="400" aria-label="Interactive chart" aria-hidden="false"><defs aria-hidden="true"><linearGradient x1="0" y1="0" x2="0" y2="1" id="a"><stop offset="0" stop-color="#1f1836"/><stop offset="1" stop-color="#45445d"/></linearGradient><clipPath id="b"><path fill="none" d="M0 0h580v317H0z"/></clipPath></defs><rect fill="url(#a)" class="highcharts-background" width="600" height="400" rx="0" ry="0" aria-hidden="true"/><path fill="none" class="highcharts-plot-background" aria-hidden="true" d="M10 68h580v317H10z"/><path fill="none" class="highcharts-plot-border" data-z-index="1" aria-hidden="true" d="M10 68h580v317H10z"/><g class="highcharts-axis highcharts-xaxis" data-z-index="2" aria-hidden="true"><path fill="none" class="highcharts-axis-line" data-z-index="7" d="M10 385h580"/></g><g class="highcharts-axis highcharts-yaxis" data-z-index="2" aria-hidden="true"><path fill="none" class="highcharts-axis-line" data-z-index="7" d="M10 68v317"/></g><g class="highcharts-series-group" data-z-index="3" aria-hidden="false"><g class="highcharts-series highcharts-series-0 highcharts-treemap-series highcharts-color-0 highcharts-tracker" data-z-index=".1" clip-path="url(#b)" aria-hidden="false" stroke="#e6e6e6" transform="translate(10 68)"><g class="highcharts-level-group-3" data-z-index="997" aria-hidden="true"><path fill="#8087E8" class="highcharts-point" tabindex="-1" aria-hidden="true" style="outline:0" d="M426.5 244.5h18v18h-18zm18-18h4v36h-4zm-18 0h18v18h-18zm51 83h2v3h-2zm0-8h2v3h-2zm0 7h2v1h-2zm0-4h2v4h-2zm-59-26h8v25h-8zm0 25h8v13h-8zm-40-25h40v38h-40zm75-91h2v39h-2zm-27 34h27v5h-27zm0-34h27v34h-27zm18 75h4v27h-4zm-18 17h18v10h-18zm0-17h18v17h-18zm42 47h8v1h-8zm8-9h1v10h-1zm-8 0h8v9h-8zm9-1h2v2h-2zm0-9h2v9h-2zm-9-2h9v1h-9zm0-12h9v12h-9zm8 13h1v11h-1zm-8 9h8v2h-8zm0-9h8v9h-8zm-42 23h21v4h-21zm21-23h1v27h-1zm-21 0h21v23h-21zm51-3h2v2h-2zm0 2h2v2h-2zm0-12h2v10h-2zm-99-33h44v35h-44zm44-56h4v91h-4zm-44 0h44v56h-44zm99 128h2v1h-2zm0-3h2v3h-2zm-15-3h6v7h-6zm0-10h6v10h-6zm-14 0h14v17h-14zm0-43h18v17h-18zm18 0h2v22h-2zm-18 17h18v5h-18zm0 5h18v15h-18zm18 0h2v21h-2zm-18 15h18v6h-18zm7-84h21v17h-21zm21-22h3v39h-3zm-21 0h21v22h-21zm10 68h14v1h-14zm0-15h14v15h-14zm0-14h14v14h-14zm3 48h11v2h-11zm0-18h11v18h-11zm7 59h2v1h-2zm0-5h2v5h-2zm-7 0h7v6h-7zm-20-63h14v9h-14zm14-21h3v30h-3zm-14 0h14v21h-14z"/><path fill="#A3EDBA" class="highcharts-point" tabindex="-1" aria-hidden="true" style="outline:0" d="M572.5 310.5h5v1h-5zm5-5h1v6h-1zm-5 0h5v5h-5zm5-8h1v8h-1zm-5 0h5v8h-5zm-17-1h9v1h-9zm0-10h9v10h-9zm0 20h9v1h-9zm0-9h9v9h-9zm-1-34h1v14h-1zm-12 13h12v1h-12zm0-13h12v13h-12zm13-21h11v1h-11zm11-11h1v12h-1zm-11 0h11v11h-11zm17 22h7v8h-7zm-5-22h12v12h-12zm-3 21h8v1h-8zm0-9h8v9h-8zm14 52h1v7h-1zm-25 9h2v6h-2zm0 6h2v6h-2zm-11-6h11v12h-11zm22-43h8v1h-8zm0-8h8v8h-8zm14 28h1v14h-1zm-6-29h7v1h-7zm0-9h7v9h-7zm-54 1h22v2h-22zm22-30h2v32h-2zm-22 0h22v30h-22zm46 64h8v1h-8zm0-8h8v8h-8zm-50-10h4v17h-4zm0 17h4v15h-4zm-35-17h35v32h-35zm63 43h12v1h-12zm12-12h1v13h-1zm-12 0h12v12h-12zm12-14h1v14h-1zm-12 13h12v1h-12zm0-13h12v13h-12zm36 37h1v2h-1zm-6-25h5v1h-5zm5-7h1v8h-1zm-5 0h5v7h-5zm-1 12h1v5h-1zm0 5h1v3h-1zm-7-5h7v8h-7zm-17-107h3v14h-3zm0 14h3v13h-3zm-29-14h29v27h-29zm36 44h1v16h-1zm-12 14h12v2h-12zm0-14h12v14h-12zm30 50h5v1h-5zm5-9h1v10h-1zm-5 0h5v9h-5zm5 18h1v7h-1zm-5 0h5v7h-5zm-8 12h8v7h-8zm14 6h1v3h-1zm0 3h1v3h-1zm0-9h1v6h-1zm-36-40h12v1h-12zm12-15h1v16h-1zm-12 0h12v15h-12zm30 24h5v1h-5zm5-10h1v11h-1zm-5 0h5v10h-5zm-33 46h3v9h-3zm0-13h3v13h-3zm-21 0h21v22h-21zm37-23h9v2h-9zm0-13h9v13h-9zm9 29h8v7h-8zm-2-73h1v9h-1zm0 9h1v8h-1zm-20-9h20v17h-20zm-27-27h3v73h-3zm-36 66h36v7h-36zm0-66h36v66h-36zm76 56h9v15h-9zm9 19h8v8h-8zm13 49h1v5h-1zm-5 0h5v5h-5zm-32-40h2v13h-2zm0 13h2v10h-2zm-22-13h22v23h-22zm37 14h9v1h-9zm0-12h9v12h-9zm0 42h9v1h-9zm0-8h9v8h-9zm9-23h8v3h-8zm0-5h8v5h-8zm14 1h1v1h-1zm0-19h1v19h-1zm-38-15h2v25h-2zm-22 23h22v2h-22zm0-23h22v23h-22zm53 63h1v5h-1zm0 5h1v2h-1zm-7-5h7v7h-7zm-50-2h4v9h-4zm0-15h4v15h-4zm-35 0h35v24h-35zm97-105h3v18h-3zm0 18h3v9h-3zm-26-18h26v27h-26zm13 41h15v3h-15zm15-14h1v17h-1zm-15 0h15v14h-15z"/><path fill="#F19E53" class="highcharts-point" tabindex="-1" aria-hidden="true" style="outline:0" d="M327.5 277.5h14v3h-14zm14-17h1v20h-1zm-14 0h14v17h-14zm-20-15h18v17h-18zm18 0h2v25h-2zm-18 17h18v8h-18zm48 4h10v8h-10zm10 0h1v14h-1zm-10 8h10v6h-10zm18 21h4v3h-4zm0 3h4v3h-4zm-31-47h12v12h-12zm12 0h1v18h-1zm-12 12h12v6h-12zm26-12h9v10h-9zm9 0h1v15h-1zm-9 10h9v5h-9zm-5-48h14v15h-14zm14 0h1v24h-1zm-14 15h14v9h-14zm14 83h1v2h-1zm0-2h1v2h-1zm-11-43h7v8h-7zm7 6h5v2h-5zm0-6h5v6h-5zm-46 14h14v13h-14zm14 0h1v18h-1zm-14 13h14v5h-14zm50 9h1v4h-1zm0 6h1v1h-1zm0-2h1v2h-1zm-11-11h6v5h-6zm6 0h1v8h-1zm-6 5h6v3h-6zm-21-87h16v15h-16zm16 0h2v24h-2zm-16 15h16v9h-16zm-72 56h30v21h-30zm30 0h4v32h-4zm-30 21h30v11h-30zm104-12h1v5h-1zm0 8h1v1h-1zm0-3h1v3h-1zm-11 5h6v3h-6zm6 0h1v6h-1zm-6 3h6v3h-6zm-59-119h20v26h-20zm20 20h21v6h-21zm0-20h21v20h-21zm46 120h4v2h-4zm0 2h4v3h-4zm0-8h4v4h-4zm0 4h4v2h-4zm-46-68h14v12h-14zm14 0h1v23h-1zm-14 12h14v11h-14zm15 53h12v9h-12zm12 0h1v14h-1zm-12 9h12v5h-12zm31-29h4v4h-4zm0 4h4v3h-4zm-66-16h18v15h-18zm18 0h2v24h-2zm-18 15h18v9h-18zm66-11h5v5h-5zm0 5h5v3h-5zm-7 8h6v5h-6zm6 0h1v8h-1zm-6 5h6v3h-6zm-5-55h8v14h-8zm8 11h9v3h-9zm0-11h9v11h-9zm-27 32h12v12h-12zm12 0h1v18h-1zm-12 12h12v6h-12zm-15 17h14v12h-14zm14 0h1v18h-1zm-14 12h14v6h-14zm39-1h6v4h-6zm6 0h1v7h-1zm-6 4h6v3h-6zm11-21h1v1h-1zm0-10h1v10h-1zm-50-69h17v16h-17zm17 0h1v24h-1zm-17 16h17v8h-17zm46 60h4v3h-4zm0 3h4v3h-4zm-31-55h12v14h-12zm12 10h7v4h-7zm0-10h7v10h-7zm-81-50h31v69h-31zm31 0h3v97h-3zm-31 69h31v28h-31zm82 55h9v5h-9zm9-5h2v10h-2zm-9 0h9v5h-9zm22 7h1v1h-1zm0 1h1v1h-1zm-22-34h10v7h-10zm10 0h1v13h-1zm-10 7h10v6h-10zm22 28h1v1h-1zm-22-22h10v8h-10zm10 0h1v13h-1zm-10 8h10v5h-10zm8-114h15v22h-15zm0 22h15v4h-15zm-15-22h15v26h-15zm25 125h4v2h-4zm0 2h4v2h-4zm-7-40h6v8h-6zm6 0h1v13h-1zm-6 8h6v5h-6zm-59 12h18v13h-18zm18 0h2v22h-2zm-18 13h18v9h-18zm0-94h18v20h-18zm18 0h2v32h-2zm-18 20h18v12h-18zm35 54h12v10h-12zm12 0h1v15h-1zm-12 10h12v5h-12zm13-46h13v10h-13zm0 10h13v5h-13z"/><path fill="#6699A1" class="highcharts-point" tabindex="-1" aria-hidden="true" style="outline:0" d="M556.5 26.5h21v4h-21zm21-27h2v31h-2zm-21 0h21v27h-21zm22 176h1v4h-1zm0-5h1v5h-1zm0 9h1v2h-1zm-8-68h7v6h-7zm7-14h1v20h-1zm-7 0h7v14h-7zm-64 56h44v8h-44zm44-44h6v52h-6zm-44 0h44v44h-44zm63-79h1v37h-1zm-13 35h13v2h-13zm0-35h13v35h-13zm0 141h13v2h-13zm13-14h1v16h-1zm-13 0h13v14h-13zm13-90h1v38h-1zm-13 31h13v7h-13zm0-31h13v31h-13zm21 114h1v3h-1zm0 3h1v3h-1zm-7-3h7v6h-7zm-14 5h13v1h-13zm13-13h1v14h-1zm-13 0h13v13h-13zm14-43h7v4h-7zm7-13h1v17h-1zm-7 0h7v13h-7zm0-24h7v4h-7zm7-18h1v22h-1zm-7 0h7v18h-7zm7 59h1v11h-1zm-7 9h7v2h-7zm0-9h7v9h-7zm8 47h1v2h-1zm-8-113h6v7h-6zm6-17h2v24h-2zm-6 0h6v17h-6zm8 107h1v2h-1zm0 2h1v2h-1zm0-9h1v7h-1zm-8-107h8v7h-8zm8-14h1v21h-1zm-8 0h8v14h-8zm7 115h1v9h-1zm-7 7h7v2h-7zm0-7h7v7h-7zm8-27h1v4h-1zm0 4h1v4h-1zm0-33h1v29h-1zm-32 85h10v13h-10zm0-13h10v13h-10zm-40 0h40v26h-40zm64 19h7v1h-7zm7-7h1v8h-1zm-7 0h7v7h-7zm8-93h1v6h-1zm0 6h1v3h-1zm0-35h1v29h-1zm-8 111h7v2h-7zm7-8h1v10h-1zm-7 0h7v8h-7zm-14-4h13v7h-13zm13-19h1v26h-1zm-13 0h13v19h-13zm22 52h1v2h-1zm0 2h1v2h-1zm0-17h1v2h-1zm0-6h1v6h-1zm0-15h1v2h-1zm0 2h1v2h-1zm0-23h1v21h-1zm-24-127h2v110h-2zm-48 103h48v7h-48zm0-103h48v103h-48zm64 173h7v1h-7zm7-8h1v9h-1zm-7 0h7v8h-7zm-1-59h1v26h-1zm-13 20h13v6h-13zm0-20h13v20h-13z"/><path fill="#E1D369" class="highcharts-point" tabindex="-1" aria-hidden="true" style="outline:0" d="M505.5 71.5h1v30h-1zm-16 28h16v2h-16zm0-28h16v28h-16zm0 83h12v7h-12zm12-16h1v23h-1zm-12 0h12v16h-12zm-50-139h7v188h-7zm-166 174h166v14h-166zm0-174h166v174h-166zm229 184h4v1h-4zm0-5h4v5h-4zm-56-116h57v9h-57zm57-63h3v72h-3zm-57 0h57v63h-57zm50 176h6v9h-6zm0 9h6v3h-6zm-7-9h7v12h-7zm0-45h12v8h-12zm12-29h1v37h-1zm-12 0h12v29h-12zm13 74h3v3h-3zm3-17h1v20h-1zm-3 0h3v17h-3zm0-30h4v1h-4zm0-27h4v27h-4zm-13 69h12v5h-12zm12-9h1v14h-1zm-12 0h12v9h-12zm-43-52h40v14h-40zm40-38h3v52h-3zm-40 0h40v38h-40zm34 106h9v10h-9zm0-12h9v12h-9zm-34 0h34v22h-34zm56-15h4v7h-4zm0 7h4v1h-4zm0-28h4v21h-4zm3 55h1v3h-1zm-3 0h3v3h-3zm-56-25h38v6h-38zm38-36h5v42h-5zm-38 0h38v36h-38z"/><path fill="#87B4E7" class="highcharts-point" tabindex="-1" aria-hidden="true" style="outline:0" d="M225.5 81.5h44v31h-44zm44-82h4v113h-4zm-44 0h44v82h-44zm0 312h35v5h-35zm35-34h2v39h-2zm-35 0h35v34h-35zm-226-96h201v84H-.5zm201-182h25v266h-25zm-201 0h201v182H-.5zm164 266h49v51h-49zm49 0h13v51h-13zm-213 0h164v51H-.5zm226-7h34v19h-34zm34-54h3v73h-3zm-34 0h34v54h-34zm37-20h11v26h-11zm0 26h11v13h-11zm0-98h11v72h-11zm0 192h11v6h-11zm0-11h11v11h-11zm0-70h11v70h-11zm-37-38h33v19h-33zm33-73h4v92h-4zm-33 0h33v73h-33zm37 198h5v6h-5zm9 0h2v6h-2zm-4 0h4v6h-4z"/></g><g class="highcharts-level-group-2" data-z-index="998" aria-hidden="false" tabindex="-1" aria-label="Regions, series 1 of 1 with 738 data points." style="outline:0" cursor="pointer"><path fill="rgba(128,135,232,0.15)" class="highcharts-point highcharts-internal-node-interactive" tabindex="-1" aria-hidden="true" style="outline:0" d="M426.5 226.5h22v36h-22zm51 83h2v3h-2zm0-8h2v8h-2zm-99-23h48v38h-48zm48-91h29v39h-29zm0 75h22v27h-22zm42 38h9v10h-9zm9-10h2v11h-2zm-9-14h9v13h-9zm0 13h9v11h-9zm-42 0h22v27h-22zm51-13h2v14h-2zm-99-89h48v91h-48zm99 125h2v4h-2zm-29-13h20v17h-20zm0-43h20v22h-20zm0 22h20v21h-20zm7-91h24v39h-24zm10 39h14v30h-14zm3 30h11v20h-11zm0 54h9v6h-9zm-20-84h17v30h-17z"/><path fill="rgba(163,237,186,0.15)" class="highcharts-point highcharts-internal-node-interactive" tabindex="-1" aria-hidden="true" style="outline:0" d="M572.5 305.5h6v6h-6zm0-8h6v8h-6zm-17-11h9v11h-9zm0 11h9v10h-9zm-13-34h13v14h-13zm13-32h12v12h-12zm17 22h7v8h-7zm-5-22h12v12h-12zm-3 12h8v10h-8zm14 52h1v7h-1zm-36 9h13v12h-13zm22-51h8v9h-8zm14 28h1v14h-1zm-6-38h7v10h-7zm-54-29h24v32h-24zm46 56h8v9h-8zm-85-10h39v32h-39zm63 31h13v13h-13zm0-14h13v14h-13zm36 37h1v2h-1zm-6-32h6v8h-6zm-8 12h8v8h-8zm-46-107h32v27h-32zm24 44h13v16h-13zm30 41h6v10h-6zm0 18h6v7h-6zm-8 12h8v7h-8zm14 6h1v3h-1zm0 3h1v3h-1zm0-9h1v6h-1zm-36-55h13v16h-13zm30 14h6v11h-6zm-54 33h24v22h-24zm37-36h9v15h-9zm9 29h8v7h-8zm-22-73h21v17h-21zm-63-27h39v73h-39zm76 56h9v15h-9zm9 19h8v8h-8zm8 49h6v5h-6zm-54-40h24v23h-24zm37 2h9v13h-9zm0 34h9v9h-9zm9-28h8v8h-8zm14-18h1v20h-1zm-60-15h24v25h-24zm46 63h8v7h-8zm-85-17h39v24h-39zm71-105h29v27h-29zm13 27h16v17h-16z"/><path fill="rgba(241,158,83,0.15)" class="highcharts-point highcharts-internal-node-interactive" tabindex="-1" aria-hidden="true" style="outline:0" d="M327.5 260.5h15v20h-15zm-20-15h20v25h-20zm48 21h11v14h-11zm18 29h4v6h-4zm-31-44h13v18h-13zm26 0h10v15h-10zm-5-38h15v24h-15zm14 96h1v4h-1zm-11-43h12v8h-12zm-39 14h15v18h-15zm50 22h1v7h-1zm-11-7h7v8h-7zm-21-82h18v24h-18zm-72 71h34v32h-34zm104 9h1v9h-1zm-11 10h7v6h-7zm-59-116h41v26h-41zm66 120h4v5h-4zm0-6h4v6h-4zm-46-64h15v23h-15zm15 65h13v14h-13zm31-20h4v7h-4zm-66-12h20v24h-20zm66 4h5v8h-5zm-7 13h7v8h-7zm-5-50h17v14h-17zm-19 32h13v18h-13zm-15 29h15v18h-15zm39 11h7v7h-7zm11-27h1v11h-1zm-50-69h18v24h-18zm46 76h4v6h-4zm-31-52h19v14h-19zm-69-50h34v97h-34zm82 119h11v10h-11zm22 7h1v2h-1zm-22-33h11v13h-11zm22 35h1v1h-1zm-22-22h11v13h-11zm-7-106h30v26h-30zm25 125h4v4h-4zm-7-38h7v13h-7zm-59 20h20v22h-20zm0-81h20v32h-20zm35 74h13v15h-13zm13-36h13v15h-13z"/><path fill="rgba(102,153,161,0.15)" class="highcharts-point highcharts-internal-node-interactive" tabindex="-1" aria-hidden="true" style="outline:0" d="M556.5-.5h23v31h-23zm22 176h1v4h-1zm0-5h1v5h-1zm0 9h1v2h-1zm-8-82h8v20h-8zm-64 12h50v52h-50zm50-79h14v37h-14zm0 127h14v16h-14zm0-90h14v38h-14zm14 114h8v6h-8zm-14-8h14v14h-14zm14-56h8v17h-8zm0-42h8v22h-8zm0 59h8v11h-8zm8 47h1v2h-1zm-8-130h8v24h-8zm8 100h1v11h-1zm-8-121h9v21h-9zm0 115h8v9h-8zm8-56h1v37h-1zm-72 72h50v26h-50zm64 12h8v8h-8zm8-122h1v38h-1zm-8 103h8v10h-8zm-14-23h14v26h-14zm22 52h1v2h-1zm0 2h1v2h-1zm0-23h1v8h-1zm0-36h1v25h-1zm-72-127h50v110h-50zm64 165h8v9h-8zm-14-59h14v26h-14z"/><path fill="rgba(225,211,105,0.15)" class="highcharts-point highcharts-internal-node-interactive" tabindex="-1" aria-hidden="true" style="outline:0" d="M489.5 71.5h17v30h-17zm0 67h13v23h-13zm-216-139h173v188h-173zm229 179h4v6h-4zm-56-179h60v72h-60zm43 176h13v12h-13zm0-74h13v37h-13zm13 57h4v20h-4zm0-57h4v28h-4zm-13 60h13v14h-13zm-43-90h43v52h-43zm0 94h43v22h-43zm56-36h4v29h-4zm0 55h4v3h-4zm-56-61h43v42h-43z"/><path fill="rgba(135,180,231,0.15)" class="highcharts-point highcharts-internal-node-interactive" tabindex="-1" aria-hidden="true" style="outline:0" d="M225.5-.5h48v113h-48zm0 278h37v39h-37zM-.5-.5h226v266H-.5zm0 266h226v51H-.5zm226-61h37v73h-37zm37-92h11v111h-11zm0 111h11v87h-11zm-37-111h37v92h-37zm37 198h11v6h-11z"/></g><g class="highcharts-level-group-1" data-z-index="999" aria-hidden="true" stroke-width="3" cursor="pointer"><path fill="rgba(128,135,232,0.15)" class="highcharts-point highcharts-internal-node-interactive" tabindex="-1" aria-hidden="true" style="outline:0" d="M378.5 187.5h101v129h-101z"/><path fill="rgba(163,237,186,0.15)" class="highcharts-point highcharts-internal-node-interactive" tabindex="-1" aria-hidden="true" style="outline:0" d="M479.5 187.5h100v129h-100z"/><path fill="rgba(241,158,83,0.15)" class="highcharts-point highcharts-internal-node-interactive" tabindex="-1" aria-hidden="true" style="outline:0" d="M273.5 187.5h105v129h-105z"/><path fill="rgba(102,153,161,0.15)" class="highcharts-point highcharts-internal-node-interactive" tabindex="-1" aria-hidden="true" style="outline:0" d="M506.5-.5h73v188h-73z"/><path fill="rgba(225,211,105,0.15)" class="highcharts-point highcharts-internal-node-interactive" tabindex="-1" aria-hidden="true" style="outline:0" d="M273.5-.5h233v188h-233z"/><path fill="rgba(135,180,231,0.15)" class="highcharts-point highcharts-internal-node-interactive" tabindex="-1" aria-hidden="true" style="outline:0" d="M-.5-.5h274v317H-.5z"/></g></g></g><text x="300" text-anchor="middle" class="highcharts-title" data-z-index="4" style="color:#fff;font-size:22px;font-weight:500;fill:#fff" y="27" aria-hidden="true">Global Mortality Rate 2012, per 100 000 population</text><text x="300" text-anchor="middle" class="highcharts-subtitle" data-z-index="4" style="color:#fff;font-size:16px;font-weight:400;fill:#fff" y="52" aria-hidden="true">Click points to drill down. Source: <a><tspan>WHO</tspan></a>.</text><g class="highcharts-data-labels highcharts-series-0 highcharts-treemap-series highcharts-color-0 highcharts-tracker" data-z-index="6" aria-hidden="true"><text x="5" data-z-index="1" y="19" style="color:#46465c;font-size:14px;font-weight:700;fill:#46465c" transform="translate(385 307)" class="highcharts-label highcharts-data-label highcharts-data-label-color-undefined"><tspan class="highcharts-text-outline" fill="#FFF" stroke="#FFF" stroke-width="2" stroke-linejoin="round">Eastern Med…<tspan x="5" dy="0">​</tspan></tspan>Eastern Med…</text><text x="5" data-z-index="1" y="19" style="color:#46465c;font-size:14px;font-weight:700;fill:#46465c" transform="translate(510 307)" class="highcharts-label highcharts-data-label highcharts-data-label-color-undefined"><tspan class="highcharts-text-outline" fill="#FFF" stroke="#FFF" stroke-width="2" stroke-linejoin="round">Europe<tspan x="5" dy="0">​</tspan></tspan>Europe</text><text x="5" data-z-index="1" y="19" style="color:#46465c;font-size:14px;font-weight:700;fill:#46465c" transform="translate(311 307)" class="highcharts-label highcharts-data-label highcharts-data-label-color-undefined"><tspan class="highcharts-text-outline" fill="#FFF" stroke="#FFF" stroke-width="2" stroke-linejoin="round">Africa<tspan x="5" dy="0">​</tspan></tspan>Africa</text><text x="5" data-z-index="1" y="19" style="color:#46465c;font-size:14px;font-weight:700;fill:#46465c" transform="translate(516 149)" class="highcharts-label highcharts-data-label highcharts-data-label-color-undefined"><tspan class="highcharts-text-outline" fill="#FFF" stroke="#FFF" stroke-width="2" stroke-linejoin="round">Americas<tspan x="5" dy="0">​</tspan></tspan>Americas</text><text x="5" data-z-index="1" y="19" style="color:#46465c;font-size:14px;font-weight:700;fill:#46465c" transform="translate(343 149)" class="highcharts-label highcharts-data-label highcharts-data-label-color-undefined"><tspan class="highcharts-text-outline" fill="#FFF" stroke="#FFF" stroke-width="2" stroke-linejoin="round">Western Pacific<tspan x="5" dy="0">​</tspan></tspan>Western Pacific</text><text x="5" data-z-index="1" y="19" style="color:#46465c;font-size:14px;font-weight:700;fill:#46465c" transform="translate(88 214)" class="highcharts-label highcharts-data-label highcharts-data-label-color-undefined"><tspan class="highcharts-text-outline" fill="#FFF" stroke="#FFF" stroke-width="2" stroke-linejoin="round">South-East Asia<tspan x="5" dy="0">​</tspan></tspan>South-East Asia</text></g></svg>