<svg class="highcharts-root" style="font-family:Dosis,sans-serif;font-size:12px" xmlns="http://www.w3.org/2000/svg" width="600" height="400" aria-label="Interactive chart" aria-hidden="false"><rect fill="none" class="highcharts-background" width="600" height="400" rx="0" ry="0" aria-hidden="true"/><path d="M42.654 292.533h514.692l6.917 66.358H35.737Zm521.538 66.966H34.897l.84-.608h528.526Z" class="highcharts-3d-frame highcharts-3d-frame-bottom" data-z-index="-1000" aria-hidden="true" fill="none"/><g stroke-linejoin="round" class="highcharts-3d-frame highcharts-3d-frame-left" data-z-index="-1000" aria-hidden="true" fill="none"><path d="m17.594 73.462.89.644-8.299 66.335h-1Z"/><path d="m18.484 74.106 24.17 218.427-6.917 66.358-25.552-218.45Z"/><path d="M34.897 359.499 9.186 140.44h1l25.551 218.45Z"/></g><g stroke-linejoin="round" class="highcharts-3d-frame highcharts-3d-frame-back" data-z-index="-1000" aria-hidden="true" fill="none"><path d="M17.594 73.462h563.841l.081.644H18.484Z"/><path d="M18.484 74.106h563.032l-24.17 218.427H42.654Z"/></g><path fill="none" class="highcharts-plot-background" aria-hidden="true" d="M10 57h580v328H10z"/><path fill="none" class="highcharts-plot-border" data-z-index="1" aria-hidden="true" d="M10 57h580v328H10z"/><g class="highcharts-series-group" data-z-index="3" aria-hidden="false"><g class="highcharts-series highcharts-series-0 highcharts-pie-series highcharts-tracker" data-z-index=".1" aria-hidden="false"><path fill="#639CD3" d="M451.648 202.04v23.864L349.236 238.71v-23.865Z" data-z-index="20.164" class="highcharts-point highcharts-color-0"/><path fill="#C63A3A" d="M260.203 115.804v23.865l26.876 71.041v-23.864Z" data-z-index="39.499" class="highcharts-point highcharts-color-8"/><path fill="#C63A3A" d="M299.939 112.106v23.864l.041 73.54v-23.865Z" data-z-index="25877.509" class="highcharts-point highcharts-color-8"/><path fill="#3CA622" d="M211.73 131.77v23.864l59.61 60.26v-23.865Z" data-z-index="25878.499" class="highcharts-point highcharts-color-7"/><path fill="#C63A3A" d="M260.203 115.804c13.651-2.582 25.604-3.694 39.736-3.698v23.864c-14.132.004-26.085 1.117-39.736 3.7Zm26.876 71.042c4.432-.839 8.313-1.2 12.901-1.201v23.865c-4.588 0-8.469.362-12.901 1.2Z" data-z-index="26138.898" class="highcharts-point highcharts-color-8"/><path fill="#3CA622" d="M260.201 115.805v23.865l26.877 71.04v-23.864Z" data-z-index="60428.509" class="highcharts-point highcharts-color-7"/><path fill="#D591D5" d="M155.305 183.721v23.865l97.716 25.175v-23.865Z" data-z-index="60429.499" class="highcharts-point highcharts-color-6"/><path fill="#3CA622" d="M211.73 131.77c15.483-7.66 30.217-12.512 48.471-15.965v23.865c-18.254 3.453-32.988 8.305-48.472 15.964Zm59.61 60.259c5.028-2.487 9.812-4.062 15.738-5.183v23.865c-5.926 1.12-10.71 2.696-15.737 5.183Z" data-z-index="61038.898" class="highcharts-point highcharts-color-7"/><path fill="#D591D5" d="M211.728 131.77v23.865l59.612 60.259v-23.865Z" data-z-index="120917.509" class="highcharts-point highcharts-color-6"/><path fill="#E6004D" d="M148.341 239.916v23.865l102.42-12.775v-23.865Z" data-z-index="120918.499" class="highcharts-point highcharts-color-5"/><path fill="#D591D5" d="M155.305 183.721c11.326-21.98 29.315-38.543 56.423-51.951v23.865c-27.108 13.408-45.097 29.971-56.423 51.95Zm97.716 25.175c3.677-7.136 9.518-12.513 18.32-16.867v23.865c-8.802 4.353-14.643 9.731-18.32 16.867Z" data-z-index="122138.898" class="highcharts-point highcharts-color-6"/><path fill="#639CD3" d="M299.969 112.106v23.864l.02 73.54v-23.865Z" data-z-index="138182.846" class="highcharts-point highcharts-color-0"/><path fill="#DE8A43" d="M398.95 304.44v23.866l-66.823-56.35v-23.865Z" data-z-index="138183.836" class="highcharts-point highcharts-color-1"/><path fill="#639CD3" d="M299.969 112.106c75.586-.011 138.518 37.302 151.679 89.934v23.864c-13.161-52.631-76.093-89.944-151.68-89.934Zm.021 73.539c24.541-.004 44.973 12.11 49.246 29.199v23.865c-4.273-17.088-24.705-29.203-49.246-29.2Z" data-z-index="139578.633" class="highcharts-point highcharts-color-0"/><path fill="#E6004D" d="M155.305 183.722v23.865l97.716 25.175v-23.865Z" data-z-index="172793.509" class="highcharts-point highcharts-color-5"/><path fill="#91D5D5" d="M201.002 304.413v23.865l66.856-56.331v-23.865Z" data-z-index="172794.499" class="highcharts-point highcharts-color-4"/><path fill="#E6004D" d="M148.341 239.916C146.7 233.333 146 227.685 146 221v23.865c0-13.377 2.828-24.71 9.305-37.278v-23.865C148.828 196.291 146 207.622 146 221v23.865c0 6.684.7 12.333 2.341 18.916Zm102.419-12.775c-1.6-6.414-.892-12.124 2.261-18.244v23.865c-3.153 6.12-3.861 11.83-2.26 18.244Z" data-z-index="174538.898" class="highcharts-point highcharts-color-5"/><path fill="#91D5D5" d="M148.341 239.917v23.865l102.42-12.775v-23.865Z" data-z-index="241895.509" class="highcharts-point highcharts-color-4"/><path fill="#5E7FA6" d="M299.969 329.894v23.865l.02-73.539v-23.865Z" data-z-index="241896.499" class="highcharts-point highcharts-color-3"/><path fill="#DE8A43" d="M451.648 202.04v23.865L349.236 238.71v-23.865Z" data-z-index="241934.846" class="highcharts-point highcharts-color-1"/><path fill="#77D565" d="M299.97 329.894v23.865l.02-73.539v-23.865Z" data-z-index="241935.836" class="highcharts-point highcharts-color-2"/><path fill="#91D5D5" d="M201.002 304.413c-28.95-17.18-46.095-38.179-52.66-64.496v23.865c6.565 26.317 23.71 47.317 52.66 64.496Zm66.856-56.331c-9.4-5.578-14.966-12.396-17.098-20.94v23.865c2.132 8.544 7.699 15.362 17.098 20.94Z" data-z-index="244338.898" class="highcharts-point highcharts-color-4"/><path fill="#DE8A43" d="M454 221c0 33.424-18.83 61.965-55.05 83.44v23.866c36.22-21.477 55.05-50.017 55.05-83.441Zm-104.764-6.156c3.208 12.829-2.992 24.877-17.11 33.247v23.865c14.118-8.37 20.318-20.418 17.11-33.247Z" data-z-index="244378.633" class="highcharts-point highcharts-color-1"/><path fill="#5E7FA6" d="M201.003 304.414v23.864l66.855-56.33v-23.866Z" data-z-index="310997.509" class="highcharts-point highcharts-color-3"/><path fill="#77D565" d="M398.95 304.441v23.865l-66.823-56.35v-23.865Z" data-z-index="310998.499" class="highcharts-point highcharts-color-2"/><path fill="#5E7FA6" d="M299.969 329.894c-37.794-.005-70.016-8.301-98.966-25.48v23.864c28.95 17.18 61.172 25.476 98.966 25.481Zm.021-73.539c-12.27-.001-22.732-2.695-32.132-8.273v23.865c9.4 5.578 19.861 8.271 32.132 8.273Z" data-z-index="314138.898" class="highcharts-point highcharts-color-3"/><path fill="#77D565" d="M398.95 304.441c-28.96 17.171-61.187 25.459-98.98 25.453v23.865c37.793.005 70.02-8.282 98.98-25.453Zm-66.823-56.35c-9.403 5.575-19.866 8.266-32.137 8.264v23.865c12.27.002 22.734-2.689 32.137-8.264Z" data-z-index="314139.898" class="highcharts-point highcharts-color-2"/><g data-z-index="31416026.536" stroke="#7cb5ec" stroke-linejoin="round" tabindex="-1" aria-label="Norway, 16. Medals." style="outline:0"><path fill="#7cb5ec" d="M299.969 112.106c75.586-.011 138.518 37.302 151.679 89.934l-102.412 12.804c-4.273-17.088-24.705-29.203-49.246-29.2Z" data-z-index="314160.265" class="highcharts-point highcharts-color-0"/></g><g data-z-index="31416026.536" stroke="#f7a35c" stroke-linejoin="round" tabindex="-1" aria-label="Germany, 12. Medals." style="outline:0"><path fill="#f7a35c" d="M451.648 202.04c9.88 39.512-9.217 76.62-52.697 102.4l-66.824-56.349c14.117-8.37 20.317-20.418 17.11-33.247Z" data-z-index="314160.265" class="highcharts-point highcharts-color-1"/></g><g data-z-index="31416026.536" stroke="#90ee7e" stroke-linejoin="round" tabindex="-1" aria-label="USA, 8. Medals." style="outline:0"><path fill="#90ee7e" d="M398.95 304.441c-28.96 17.171-61.187 25.459-98.98 25.453l.02-73.539c12.27.002 22.734-2.689 32.137-8.264Z" data-z-index="314160.265" class="highcharts-point highcharts-color-2"/></g><g data-z-index="31416026.536" stroke="#7798BF" stroke-linejoin="round" tabindex="-1" aria-label="Sweden, 8. Medals." style="outline:0"><path fill="#7798BF" d="M299.969 329.894c-37.794-.005-70.016-8.301-98.966-25.48l66.855-56.332c9.4 5.578 19.861 8.272 32.132 8.273Z" data-z-index="314160.265" class="highcharts-point highcharts-color-3"/></g><g data-z-index="31416026.536" stroke="#aee" stroke-linejoin="round" tabindex="-1" aria-label="Netherlands, 8. Medals." style="outline:0"><path fill="#aee" d="M201.002 304.413c-28.95-17.18-46.095-38.179-52.66-64.496l102.418-12.775c2.132 8.544 7.699 15.362 17.098 20.94Z" data-z-index="314160.265" class="highcharts-point highcharts-color-4"/></g><g data-z-index="31416026.536" stroke="#f06" stroke-linejoin="round" tabindex="-1" aria-label="ROC, 6. Medals." style="outline:0"><path fill="#f06" d="M148.341 239.916c-4.928-19.757-2.749-37.344 6.964-56.194l97.716 25.175c-3.153 6.12-3.861 11.83-2.26 18.244Z" data-z-index="314160.265" class="highcharts-point highcharts-color-5"/></g><g data-z-index="31416026.536" stroke="#eae" stroke-linejoin="round" tabindex="-1" aria-label="Austria, 7. Medals." style="outline:0"><path fill="#eae" d="M155.305 183.721c11.326-21.98 29.315-38.543 56.423-51.951l59.612 60.26c-8.801 4.353-14.642 9.73-18.319 16.866Z" data-z-index="314160.265" class="highcharts-point highcharts-color-6"/></g><g data-z-index="31416026.536" stroke="#55BF3B" stroke-linejoin="round" tabindex="-1" aria-label="Canada, 4. Medals." style="outline:0"><path fill="#55BF3B" d="M211.73 131.77c15.483-7.66 30.217-12.512 48.471-15.965l26.877 71.04c-5.926 1.122-10.71 2.697-15.737 5.184Z" data-z-index="314160.265" class="highcharts-point highcharts-color-7"/></g><g data-z-index="31416026.536" stroke="#DF5353" stroke-linejoin="round" tabindex="-1" aria-label="Japan, 3. Medals." style="outline:0"><path fill="#DF5353" d="M260.203 115.804c13.651-2.582 25.604-3.694 39.736-3.698l.041 73.539c-4.588.001-8.469.362-12.901 1.2Z" data-z-index="314160.265" class="highcharts-point highcharts-color-8"/></g></g></g><text x="300" text-anchor="middle" class="highcharts-title" data-z-index="4" style="color:#333;font-size:16px;font-weight:700;text-transform:uppercase;fill:#333" y="22" aria-hidden="true">Beijing 2022 gold medals by country</text><text x="300" text-anchor="middle" class="highcharts-subtitle" data-z-index="4" style="color:#666;fill:#666" y="42" aria-hidden="true">3D donut in Highcharts</text><g class="highcharts-data-labels highcharts-series-0 highcharts-pie-series highcharts-tracker" data-z-index="6" aria-hidden="true"><path fill="none" class="highcharts-data-label-connector highcharts-color-0" stroke="#7cb5ec" d="M455.124 114.61c-5 0-48.421 13.79-52.278 18.385l-3.857 4.597"/><path fill="none" class="highcharts-data-label-connector highcharts-color-1" stroke="#f7a35c" d="M482.761 268.507c-5 0-26.772-6.156-32.41-8.208l-5.638-2.052"/><path fill="none" class="highcharts-data-label-connector highcharts-color-2" stroke="#90ee7e" d="M434.7 351.514c-5 0-77.925-16.915-79.977-22.553l-2.052-5.638"/><path fill="none" class="highcharts-data-label-connector highcharts-color-3" stroke="#7798BF" d="M165.306 351.52c5 0 77.919-16.914 79.97-22.552l2.053-5.639"/><path fill="none" class="highcharts-data-label-connector highcharts-color-4" stroke="#aee" d="M124.61 290.447c5 0 31.63-9 36.826-12l5.196-3"/><path fill="none" class="highcharts-data-label-connector highcharts-color-5" stroke="#f06" d="M111.398 208.9c5 0 23.234 1.57 29.21 2.093l5.978.523"/><path fill="none" class="highcharts-data-label-connector highcharts-color-6" stroke="#eae" d="M131.57 136.461c5 0 36.733 10.958 41.493 14.61l4.76 3.653"/><path fill="none" class="highcharts-data-label-connector highcharts-color-7" stroke="#55BF3B" d="M155.981 100.46c5 0 73.864 10.98 76.4 16.419l2.536 5.438"/><path fill="none" class="highcharts-data-label-connector highcharts-color-8" stroke="#DF5353" d="M179.26 77.96c5 0 99.073 23.18 99.856 29.129l.783 5.948"/><text x="5" data-z-index="1" y="16" style="color:#fff;font-size:11px;font-weight:700;fill:#fff" transform="translate(460 105)" class="highcharts-label highcharts-data-label highcharts-data-label-color-0"><tspan class="highcharts-text-outline" fill="#000" stroke="#000" stroke-width="2" stroke-linejoin="round">Norway<tspan x="5" dy="0">​</tspan></tspan>Norway</text><text x="5" data-z-index="1" y="16" style="color:#fff;font-size:11px;font-weight:700;fill:#fff" transform="translate(488 259)" class="highcharts-label highcharts-data-label highcharts-data-label-color-1"><tspan class="highcharts-text-outline" fill="#000" stroke="#000" stroke-width="2" stroke-linejoin="round">Germany<tspan x="5" dy="0">​</tspan></tspan>Germany</text><text x="5" data-z-index="1" y="16" style="color:#fff;font-size:11px;font-weight:700;fill:#fff" transform="translate(440 342)" class="highcharts-label highcharts-data-label highcharts-data-label-color-2"><tspan class="highcharts-text-outline" fill="#000" stroke="#000" stroke-width="2" stroke-linejoin="round">USA<tspan x="5" dy="0">​</tspan></tspan>USA</text><text x="5" data-z-index="1" y="16" style="color:#fff;font-size:11px;font-weight:700;fill:#fff" transform="translate(109 342)" class="highcharts-label highcharts-data-label highcharts-data-label-color-3"><tspan class="highcharts-text-outline" fill="#000" stroke="#000" stroke-width="2" stroke-linejoin="round">Sweden<tspan x="5" dy="0">​</tspan></tspan>Sweden</text><text x="5" data-z-index="1" y="16" style="color:#fff;font-size:11px;font-weight:700;fill:#fff" transform="translate(46 280)" class="highcharts-label highcharts-data-label highcharts-data-label-color-4"><tspan class="highcharts-text-outline" fill="#000" stroke="#000" stroke-width="2" stroke-linejoin="round">Netherlands<tspan x="5" dy="0">​</tspan></tspan>Netherlands</text><text x="5" data-z-index="1" y="16" style="color:#fff;font-size:11px;font-weight:700;fill:#fff" transform="translate(72 199)" class="highcharts-label highcharts-data-label highcharts-data-label-color-5"><tspan class="highcharts-text-outline" fill="#000" stroke="#000" stroke-width="2" stroke-linejoin="round">ROC<tspan x="5" dy="0">​</tspan></tspan>ROC</text><text x="5" data-z-index="1" y="16" style="color:#fff;font-size:11px;font-weight:700;fill:#fff" transform="translate(79 126)" class="highcharts-label highcharts-data-label highcharts-data-label-color-6"><tspan class="highcharts-text-outline" fill="#000" stroke="#000" stroke-width="2" stroke-linejoin="round">Austria<tspan x="5" dy="0">​</tspan></tspan>Austria</text><text x="5" data-z-index="1" y="16" style="color:#fff;font-size:11px;font-weight:700;fill:#fff" transform="translate(101 90)" class="highcharts-label highcharts-data-label highcharts-data-label-color-7"><tspan class="highcharts-text-outline" fill="#000" stroke="#000" stroke-width="2" stroke-linejoin="round">Canada<tspan x="5" dy="0">​</tspan></tspan>Canada</text><text x="5" data-z-index="1" y="16" style="color:#fff;font-size:11px;font-weight:700;fill:#fff" transform="translate(132 68)" class="highcharts-label highcharts-data-label highcharts-data-label-color-8"><tspan class="highcharts-text-outline" fill="#000" stroke="#000" stroke-width="2" stroke-linejoin="round">Japan<tspan x="5" dy="0">​</tspan></tspan>Japan</text></g></svg>