<svg class="highcharts-root" style="font-family:Dosis,sans-serif;font-size:12px" xmlns="http://www.w3.org/2000/svg" width="600" height="400" aria-label="Interactive chart" aria-hidden="false"><rect fill="none" class="highcharts-background" width="600" height="400" rx="0" ry="0" aria-hidden="true"/><g stroke-linejoin="round" class="highcharts-3d-frame highcharts-3d-frame-bottom" data-z-index="-1000" aria-hidden="true" fill="none"><path d="m152.837 291.167 398.712 37.867L548.21 345l-412.157-40.665Zm398.733 38.359-3.404 16.3.044-.826 3.339-15.966Z"/><path d="m548.166 345.827-412.814-40.808.7-.684L548.21 345Z"/></g><g stroke-linejoin="round" class="highcharts-3d-frame highcharts-3d-frame-left" data-z-index="-1000" aria-hidden="true" fill="none"><path d="m142.035 67.555.407.141-18.143 5.777-.78-.032Z"/><path d="m142.442 67.696 10.395 223.47-16.784 13.17-11.754-230.863Z"/><path d="M135.352 305.02 123.518 73.44l.78.032 11.755 230.862Z"/></g><g stroke-linejoin="round" class="highcharts-3d-frame highcharts-3d-frame-back" data-z-index="-1000" aria-hidden="true" fill="none"><path d="m142.035 67.555 422.89 16.677-.057.137-422.426-16.673Zm422.891 16.677L551.57 329.526l-.021-.492 13.319-244.665Z"/><path d="M142.442 67.696 564.868 84.37l-13.32 244.665-398.711-37.867Z"/></g><path fill="none" class="highcharts-plot-background" aria-hidden="true" d="M85 57h505v288H85z"/><g class="highcharts-grid highcharts-xaxis-grid" data-z-index="1" aria-hidden="true" fill="none" stroke="#e6e6e6"><path data-z-index="1" class="highcharts-grid-line" d="m181.025 69.22 8.414 225.423m-15.667 13.414 15.667-13.414m30.525-223.887 6.379 227.392m-14.518 13.663 14.518-13.663m34.12-225.794 4.22 229.435m-13.298 13.925 13.297-13.925m36.272-227.836 2.02 231.473m-12.052 14.189 12.052-14.19m40.108-229.81-.312 233.59m-10.731 14.467 10.731-14.467m42.45-231.927-2.69 235.704m-9.383 14.746 9.384-14.746M429.077 79.01l-5.21 237.898m-7.951 15.04 7.952-15.04m49.095-236.167-7.78 240.09m-6.491 15.337 6.491-15.337M518.66 82.545l-10.508 242.367m-4.94 15.648 4.94-15.648M565.33 84.387l-13.347 244.688m-3.323 15.97 3.323-15.97M142.063 67.681l10.414 223.451M135.683 304.3l16.794-13.167"/></g><g class="highcharts-grid highcharts-yaxis-grid" data-z-index="1" aria-hidden="true" fill="none"><path stroke="#f2f2f2" class="highcharts-minor-grid-line" d="m152.854 291.534 398.673 37.9m-415.455-24.72 16.782-13.18m-.48-10.309 399.764 36.982m-416.607-24.123 16.843-12.86m-.516-11.104 400.939 35.988m-417.85-23.477 16.91-12.511m-.484-10.42 402.042 35.047M134.4 271.881l16.973-12.182m-.523-11.225 403.232 34.03M133.81 260.298l17.04-11.825m-.49-10.533 404.348 33.067m-421.45-21.578 17.103-11.49m-.493-10.589 405.47 32.094M132.7 238.499l17.167-11.15m-.53-11.407 406.679 31.038M132.1 226.722l17.236-10.78m-.496-10.706 407.813 30.041m-425.115-19.609 17.301-10.432m-.536-11.534 409.037 28.96m-426.408-18.905 17.37-10.055m-.502-10.824 410.184 27.939m-427.621-18.24 17.436-9.7m-.506-10.881 411.34 26.906M129.79 181.334l17.503-9.338m-.545-11.724 412.584 25.785M129.174 169.22l17.574-8.948m-.512-11.002 413.753 24.726m-431.394-16.148 17.641-8.579m-.551-11.855 415.012 23.58m-432.726-15.4 17.714-8.18m-.518-11.126 416.194 22.495M127.385 134.09l17.782-7.802m-.52-11.186L562.03 136.5m-435.234-13.978 17.85-7.42m-.56-12.052 418.665 20.207m-436.59-13.202 17.925-7.006m-.526-11.313 419.868 19.085M125.565 98.35l17.995-6.615m-.567-12.188 421.165 17.865M124.923 85.738l18.07-6.19m-.57-12.261 422.47 16.63M124.276 73.05l18.146-5.762"/><path stroke="#e6e6e6" data-z-index="1" class="highcharts-grid-line" d="m152.854 291.534 398.673 37.9m-415.455-24.72 16.782-13.18m-2.494-53.594 404.348 33.067m-421.45-21.578 17.103-11.49m-2.561-55.061 410.184 27.939m-427.621-18.24 17.436-9.7m-2.632-56.589 416.194 22.495M127.385 134.09l17.782-7.802m-2.744-59.001 422.47 16.63M124.276 73.05l18.146-5.762"/></g><path fill="none" class="highcharts-plot-border" data-z-index="1" aria-hidden="true" d="M85 57h505v288H85z"/><g class="highcharts-axis highcharts-xaxis" data-z-index="2" aria-hidden="true"><text x="332.039" data-z-index="7" text-anchor="middle" class="highcharts-axis-title" style="color:#666;fill:#666" y="356.166">Age groups</text></g><g class="highcharts-axis highcharts-yaxis" data-z-index="2" aria-hidden="true"><text x="79.85" data-z-index="7" text-anchor="middle" transform="rotate(-90 79.85 192.176)" class="highcharts-axis-title" style="color:#666;text-transform:uppercase;fill:#666" y="192.176">Reported cases</text></g><g class="highcharts-series-group" data-z-index="3" aria-hidden="false"><g class="highcharts-markers highcharts-series-0 highcharts-cylinder-series highcharts-tracker" data-z-index="10" aria-hidden="false" stroke-linejoin="round"><g data-z-index="12601265" stroke="#7cb5ec" class="highcharts-point highcharts-color-0" tabindex="-1" aria-label="0-9, 95,321. Cases." style="outline:0"><path fill="#639CD3" d="M169.158 302.868c-.83 1.939-6.035 3.527-11.61 3.527-5.573 0-9.338-1.588-8.41-3.527.92-1.92 6.105-3.465 11.581-3.465 5.476 0 9.26 1.545 8.439 3.465" class="highcharts-3d-bottom" data-z-index="0"/><path fill="#7cb5ec" d="M144.09 196.79c.97-1.44 6.313-2.598 11.934-2.598 5.621 0 9.488 1.158 8.622 2.598l4.512 106.078c.821-1.92-2.963-3.465-8.439-3.465s-10.661 1.545-11.58 3.465Z" class="highcharts-3d-back" data-z-index="1"/><path fill="#7cb5ec" d="M164.646 196.79c-.875 1.454-6.24 2.646-11.964 2.646-5.725 0-9.57-1.192-8.592-2.646l5.048 106.078c-.928 1.939 2.837 3.527 8.41 3.527 5.575 0 10.78-1.588 11.61-3.527Z" class="highcharts-3d-front" data-z-index="2"/><path fill="#95CEFF" d="M164.646 196.79c-.875 1.454-6.24 2.646-11.964 2.646-5.725 0-9.57-1.192-8.592-2.646.97-1.44 6.313-2.598 11.934-2.598 5.621 0 9.488 1.158 8.622 2.598" class="highcharts-3d-top" data-z-index="3"/></g><g data-z-index="63602335" stroke="#f7a35c" class="highcharts-point highcharts-color-1" tabindex="-1" aria-label="10-19, 169,339. Cases." style="outline:0"><path fill="#DE8A43" d="M207.384 306.595c-.647 1.976-5.746 3.594-11.374 3.594-5.627 0-9.583-1.618-8.835-3.594.741-1.957 5.825-3.531 11.352-3.531s9.498 1.574 8.857 3.53" class="highcharts-3d-bottom" data-z-index="0"/><path fill="#f7a35c" d="M179.774 111.894c.815-1.046 6.177-1.887 11.974-1.887 5.797 0 9.936.841 9.23 1.887l6.406 194.7c.641-1.956-3.33-3.53-8.857-3.53-5.527 0-10.611 1.574-11.352 3.53Z" class="highcharts-3d-back" data-z-index="1"/><path fill="#f7a35c" d="M200.978 111.894c-.713 1.057-6.093 1.923-12 1.923s-10.028-.866-9.204-1.923l7.401 194.7c-.748 1.977 3.208 3.595 8.835 3.595 5.628 0 10.727-1.618 11.374-3.594Z" class="highcharts-3d-front" data-z-index="2"/><path fill="#FFBC75" d="M200.978 111.894c-.713 1.057-6.093 1.923-12 1.923s-10.028-.866-9.204-1.923c.815-1.046 6.177-1.887 11.974-1.887 5.797 0 9.936.841 9.23 1.887" class="highcharts-3d-top" data-z-index="3"/></g><g data-z-index="113601635" stroke="#90ee7e" class="highcharts-point highcharts-color-2" tabindex="-1" aria-label="20-29, 121,105. Cases." style="outline:0"><path fill="#77D565" d="M245.571 310.317c-.461 2.014-5.452 3.663-11.132 3.663s-9.83-1.65-9.266-3.663c.558-1.993 5.537-3.597 11.116-3.597 5.578 0 9.74 1.604 9.282 3.597" class="highcharts-3d-bottom" data-z-index="0"/><path fill="#90ee7e" d="M221.246 172.21c.598-1.353 5.766-2.44 11.537-2.44 5.772 0 10.064 1.087 9.575 2.44l3.213 138.107c.458-1.993-3.704-3.597-9.282-3.597-5.579 0-10.558 1.604-11.116 3.597Z" class="highcharts-3d-back" data-z-index="1"/><path fill="#90ee7e" d="M242.358 172.21c-.495 1.365-5.675 2.485-11.556 2.485-5.88 0-10.16-1.12-9.556-2.486l3.927 138.108c-.564 2.014 3.585 3.663 9.266 3.663 5.68 0 10.67-1.65 11.132-3.663Z" class="highcharts-3d-front" data-z-index="2"/><path fill="#A9FF97" d="M242.358 172.21c-.495 1.365-5.675 2.485-11.556 2.485-5.88 0-10.16-1.12-9.556-2.486.598-1.352 5.766-2.44 11.537-2.44 5.772 0 10.064 1.088 9.575 2.44" class="highcharts-3d-top" data-z-index="3"/></g><g data-z-index="164601855" stroke="#7798BF" class="highcharts-point highcharts-color-3" tabindex="-1" aria-label="30-39, 136,046. Cases." style="outline:0"><path fill="#5E7FA6" d="M285.267 314.187c-.265 2.053-5.14 3.735-10.875 3.735-5.736 0-10.09-1.682-9.72-3.735.365-2.032 5.232-3.666 10.864-3.666 5.631 0 9.993 1.634 9.73 3.666" class="highcharts-3d-bottom" data-z-index="0"/><path fill="#7798BF" d="M261.762 156.512c.395-1.29 5.467-2.327 11.322-2.327 5.854 0 10.38 1.038 10.096 2.327l2.087 157.675c.262-2.032-4.1-3.666-9.731-3.666-5.632 0-10.499 1.634-10.865 3.666Z" class="highcharts-3d-back" data-z-index="1"/><path fill="#7798BF" d="M283.18 156.512c-.286 1.303-5.366 2.371-11.333 2.371-5.967 0-10.485-1.068-10.085-2.37l2.91 157.674c-.37 2.053 3.984 3.735 9.72 3.735 5.736 0 10.61-1.682 10.875-3.735Z" class="highcharts-3d-front" data-z-index="2"/><path fill="#90B1D8" d="M283.18 156.512c-.286 1.303-5.366 2.371-11.333 2.371-5.967 0-10.485-1.068-10.085-2.37.395-1.29 5.467-2.328 11.322-2.328 5.854 0 10.38 1.038 10.096 2.327" class="highcharts-3d-top" data-z-index="3"/></g><g data-z-index="214601435" stroke="#aee" class="highcharts-point highcharts-color-4" tabindex="-1" aria-label="40-49, 106,800. Cases." style="outline:0"><path fill="#91D5D5" d="M324.935 318.055c-.064 2.092-4.819 3.806-10.61 3.806-5.79 0-10.353-1.714-10.182-3.806.169-2.071 4.921-3.737 10.606-3.737s10.25 1.666 10.186 3.737" class="highcharts-3d-bottom" data-z-index="0"/><path fill="#aee" d="M303.095 194.13c.18-1.489 5.084-2.685 10.946-2.685s10.567 1.196 10.5 2.684l.394 123.926c.064-2.071-4.5-3.737-10.186-3.737-5.685 0-10.437 1.666-10.606 3.737Z" class="highcharts-3d-back" data-z-index="1"/><path fill="#aee" d="M324.54 194.13c-.068 1.503-4.975 2.735-10.95 2.735s-10.677-1.232-10.495-2.736l1.048 123.926c-.17 2.092 4.391 3.806 10.182 3.806s10.546-1.714 10.61-3.806Z" class="highcharts-3d-front" data-z-index="2"/><path fill="#C3FFFF" d="M324.54 194.13c-.068 1.503-4.975 2.735-10.95 2.735s-10.677-1.232-10.495-2.736c.18-1.488 5.084-2.684 10.946-2.684s10.567 1.196 10.5 2.684" class="highcharts-3d-top" data-z-index="3"/></g><g data-z-index="265600735" stroke="#f06" class="highcharts-point highcharts-color-5" tabindex="-1" aria-label="50-59, 58,041. Cases." style="outline:0"><path fill="#E6004D" d="M366.186 322.076c.148 2.134-4.479 3.882-10.328 3.882-5.848 0-10.63-1.748-10.67-3.882-.039-2.112 4.59-3.81 10.331-3.81 5.74 0 10.52 1.698 10.667 3.81" class="highcharts-3d-bottom" data-z-index="0"/><path fill="#f06" d="M345.32 254.834c-.04-1.797 4.666-3.243 10.504-3.243 5.838 0 10.7 1.446 10.851 3.243l-.49 67.242c-.146-2.112-4.925-3.81-10.666-3.81-5.74 0-10.37 1.698-10.33 3.81Z" class="highcharts-3d-back" data-z-index="1"/><path fill="#f06" d="M366.675 254.834c.154 1.816-4.55 3.305-10.5 3.305s-10.814-1.489-10.855-3.305l-.131 67.242c.04 2.134 4.82 3.882 10.67 3.882 5.848 0 10.475-1.748 10.327-3.882Z" class="highcharts-3d-front" data-z-index="2"/><path fill="#FF197F" d="M366.675 254.834c.154 1.816-4.55 3.305-10.5 3.305s-10.814-1.489-10.855-3.305c-.04-1.797 4.666-3.243 10.504-3.243 5.838 0 10.7 1.446 10.851 3.243" class="highcharts-3d-top" data-z-index="3"/></g><g data-z-index="315600285" stroke="#eae" class="highcharts-point highcharts-color-6" tabindex="-1" aria-label="60-69, 26,766. Cases." style="outline:0"><path fill="#D591D5" d="M407.423 326.096c.366 2.176-4.13 3.959-10.037 3.959-5.906 0-10.91-1.783-11.164-3.959-.252-2.152 4.252-3.884 10.048-3.884s10.792 1.732 11.153 3.884" class="highcharts-3d-bottom" data-z-index="0"/><path fill="#eae" d="M386.608 294.888c-.255-2.008 4.282-3.622 10.123-3.622 5.842 0 10.88 1.614 11.247 3.622l-.555 31.208c-.36-2.152-5.357-3.884-11.153-3.884s-10.3 1.732-10.048 3.884Z" class="highcharts-3d-back" data-z-index="1"/><path fill="#eae" d="M407.978 294.888c.37 2.028-4.159 3.691-10.112 3.691-5.954 0-11-1.663-11.258-3.691l-.386 31.208c.254 2.176 5.258 3.959 11.164 3.959s10.403-1.783 10.037-3.959Z" class="highcharts-3d-front" data-z-index="2"/><path fill="#FFC3FF" d="M407.978 294.888c.37 2.028-4.159 3.691-10.112 3.691-5.954 0-11-1.663-11.258-3.691-.255-2.008 4.282-3.622 10.123-3.622 5.842 0 10.88 1.614 11.247 3.622" class="highcharts-3d-top" data-z-index="3"/></g><g data-z-index="366600105" stroke="#55BF3B" class="highcharts-point highcharts-color-7" tabindex="-1" aria-label="70-79, 14,291. Cases." style="outline:0"><path fill="#3CA622" d="M450.322 330.279c.595 2.219-3.76 4.038-9.727 4.038-5.966 0-11.205-1.819-11.687-4.038-.477-2.197 3.892-3.963 9.745-3.963 5.854 0 11.08 1.766 11.67 3.963" class="highcharts-3d-bottom" data-z-index="0"/><path fill="#55BF3B" d="M429.3 313.384c-.48-2.117 3.905-3.82 9.784-3.82 5.879 0 11.13 1.703 11.723 3.82l-.485 16.895c-.589-2.197-5.815-3.963-11.669-3.963-5.853 0-10.222 1.766-9.745 3.963Z" class="highcharts-3d-back" data-z-index="1"/><path fill="#55BF3B" d="M450.807 313.384c.6 2.14-3.773 3.894-9.765 3.894-5.991 0-11.255-1.754-11.741-3.894l-.393 16.895c.482 2.219 5.721 4.038 11.687 4.038 5.966 0 10.322-1.819 9.727-4.038Z" class="highcharts-3d-front" data-z-index="2"/><path fill="#6ED854" d="M450.807 313.384c.6 2.14-3.773 3.894-9.765 3.894-5.991 0-11.255-1.754-11.741-3.894-.482-2.117 3.904-3.82 9.783-3.82s11.13 1.703 11.723 3.82" class="highcharts-3d-top" data-z-index="3"/></g><g data-z-index="416599995" stroke="#DF5353" class="highcharts-point highcharts-color-8" tabindex="-1" aria-label="80-89, 7,065. Cases." style="outline:0"><path fill="#C63A3A" d="M493.224 334.461c.83 2.264-3.383 4.12-9.409 4.12-6.026 0-11.504-1.856-12.218-4.12-.707-2.24 3.524-4.041 9.435-4.041 5.912 0 11.371 1.801 12.192 4.041" class="highcharts-3d-bottom" data-z-index="0"/><path fill="#DF5353" d="M471.873 326.363c-.71-2.202 3.53-3.972 9.453-3.972s11.395 1.77 12.22 3.972l-.322 8.098c-.82-2.24-6.28-4.041-12.192-4.041-5.91 0-10.142 1.801-9.435 4.041Z" class="highcharts-3d-back" data-z-index="1"/><path fill="#DF5353" d="M493.545 326.363c.833 2.225-3.387 4.05-9.425 4.05s-11.53-1.825-12.247-4.05l-.276 8.098c.714 2.264 6.192 4.12 12.218 4.12s10.239-1.856 9.41-4.12Z" class="highcharts-3d-front" data-z-index="2"/><path fill="#F86C6C" d="M493.545 326.363c.833 2.225-3.387 4.05-9.425 4.05s-11.53-1.825-12.247-4.05c-.71-2.202 3.53-3.972 9.453-3.972s11.395 1.77 12.22 3.972" class="highcharts-3d-top" data-z-index="3"/></g><g data-z-index="467599945" stroke="#7798BF" class="highcharts-point highcharts-color-9" tabindex="-1" aria-label="90+, 3,283. Cases." style="outline:0"><path fill="#5E7FA6" d="M537.872 338.814c1.078 2.31-2.98 4.205-9.069 4.205-6.088 0-11.82-1.895-12.78-4.205-.95-2.286 3.133-4.124 9.105-4.124 5.97 0 11.677 1.838 12.744 4.124" class="highcharts-3d-bottom" data-z-index="0"/><path fill="#7798BF" d="M516.209 334.732c-.953-2.267 3.135-4.09 9.112-4.09s11.69 1.823 12.76 4.09l-.21 4.082c-1.066-2.286-6.772-4.124-12.743-4.124-5.972 0-10.055 1.838-9.105 4.124Z" class="highcharts-3d-back" data-z-index="1"/><path fill="#7798BF" d="M538.08 334.732c1.081 2.291-2.981 4.17-9.076 4.17-6.095 0-11.832-1.879-12.795-4.17l-.186 4.082c.96 2.31 6.692 4.205 12.78 4.205 6.088 0 10.147-1.895 9.069-4.205Z" class="highcharts-3d-front" data-z-index="2"/><path fill="#90B1D8" d="M538.08 334.732c1.081 2.291-2.981 4.17-9.076 4.17-6.095 0-11.832-1.879-12.795-4.17-.953-2.267 3.135-4.09 9.112-4.09s11.69 1.823 12.76 4.09" class="highcharts-3d-top" data-z-index="3"/></g></g></g><text x="300" text-anchor="middle" class="highcharts-title" data-z-index="4" style="color:#333;font-size:16px;font-weight:700;text-transform:uppercase;fill:#333" y="22" aria-hidden="true">Number of confirmed COVID-19</text><text x="300" text-anchor="middle" class="highcharts-subtitle" data-z-index="4" style="color:#666;fill:#666" y="42" aria-hidden="true">Source: <a target="_blank"><tspan>FHI</tspan></a></text><g class="highcharts-axis-labels highcharts-xaxis-labels" data-z-index="7" aria-hidden="true" text-anchor="middle"><text x="154.824" style="color:#666;cursor:default;font-size:12px;fill:#666" y="322.355">0-9</text><text x="192.9" style="color:#666;cursor:default;font-size:12px;fill:#666" y="326.265">10-19</text><text x="231.704" style="color:#666;cursor:default;font-size:12px;fill:#666" y="330.249">20-29</text><text x="271.257" style="color:#666;cursor:default;font-size:12px;fill:#666" y="334.311">30-39</text><text x="311.581" style="color:#666;cursor:default;font-size:12px;fill:#666" y="338.451">40-49</text><text x="352.698" style="color:#666;cursor:default;font-size:12px;fill:#666" y="342.674">50-59</text><text x="394.634" style="color:#666;cursor:default;font-size:12px;fill:#666" y="346.98">60-69</text><text x="437.411" style="color:#666;cursor:default;font-size:12px;fill:#666" y="351.372">70-79</text><text x="481.057" style="color:#666;cursor:default;font-size:12px;fill:#666" y="355.854">80-89</text><text x="525.596" style="color:#666;cursor:default;font-size:12px;fill:#666" y="360.427">90+</text></g><g class="highcharts-axis-labels highcharts-yaxis-labels" data-z-index="7" aria-hidden="true" text-anchor="end"><text x="124.188" style="color:#666;cursor:default;font-size:12px;fill:#666" y="308.119">0</text><text x="121.209" style="color:#666;cursor:default;font-size:12px;fill:#666" y="252.929">50k</text><text x="118.147" style="color:#666;cursor:default;font-size:12px;fill:#666" y="196.177">100k</text><text x="114.996" style="color:#666;cursor:default;font-size:12px;fill:#666" y="137.795">150k</text><text x="111.754" style="color:#666;cursor:default;font-size:12px;fill:#666" y="77.711">200k</text></g></svg>