<svg class="highcharts-root" style="font-family:Dosis,sans-serif;font-size:12px" xmlns="http://www.w3.org/2000/svg" width="500" height="400" aria-label="Interactive chart" aria-hidden="false"><defs aria-hidden="true"><clipPath id="a"><path fill="none" d="M0 0h480v342H0z"/></clipPath></defs><rect fill="none" class="highcharts-background" width="500" height="400" rx="0" ry="0" aria-hidden="true"/><path fill="none" class="highcharts-plot-background" aria-hidden="true" d="M10 43h480v342H10z"/><g class="highcharts-plot-bands-0" data-z-index="0" aria-hidden="true"><path fill="#55BF3B" class="highcharts-plot-band" d="M61.9 299.5a188.1 188.1 0 0 1 245.86-179.012l-6.142 19.033A168.1 168.1 0 0 0 81.9 299.5Z"/><path fill="#DDDF0D" class="highcharts-plot-band" d="M307.939 120.545a188.1 188.1 0 0 1 93.972 68.028l-16.152 11.795a168.1 168.1 0 0 0-83.98-60.795Z"/><path fill="#DF5353" class="highcharts-plot-band" d="M402.022 188.725a188.1 188.1 0 0 1 36.077 110.259l-20 .055a168.1 168.1 0 0 0-32.241-98.535Z"/></g><g class="highcharts-grid highcharts-yaxis-grid highcharts-radial-axis-grid" data-z-index="1" aria-hidden="true" fill="none"><path data-z-index="1" class="highcharts-grid-line" d="M250 299.5H61.9m188.1 0L76.203 227.555M250 299.5 116.935 166.551M250 299.5l-72.096-173.735M250 299.5l-.164-188.1M250 299.5l71.793-173.86M250 299.5l132.833-133.18M250 299.5l173.672-72.248M250 299.5l188.1-.328"/></g><path fill="none" class="highcharts-plot-border" data-z-index="1" aria-hidden="true" d="M10 43h480v342H10z"/><g class="highcharts-axis highcharts-yaxis highcharts-radial-axis" data-z-index="2" aria-hidden="true" fill="none"><path class="highcharts-tick" stroke="#FFF" stroke-width="2" d="M61.9 299.5h20m-5.697-71.945 18.479 7.65m22.253-68.654 14.148 14.136m46.821-54.922 7.665 18.473m64.267-32.838.017 20m71.94-5.76-7.633 18.486m68.673 22.194-14.124 14.16m54.963 46.772-18.466 7.682m32.894 64.238-20 .035"/><path class="highcharts-axis-line" stroke="#ccd6eb" data-z-index="7" d="M61.9 299.5a188.1 188.1 0 0 1 376.2-.516M250 299.5"/></g><g class="highcharts-data-labels highcharts-series-0 highcharts-gauge-series highcharts-color-0 highcharts-tracker" data-z-index="2" aria-hidden="true"><text x="5" data-z-index="1" y="20" style="color:#333;font-size:16px;font-weight:700;fill:#333" transform="translate(215 315)" class="highcharts-label highcharts-data-label highcharts-data-label-color-0"><tspan class="highcharts-text-outline" fill="#FFF" stroke="#FFF" stroke-width="2" stroke-linejoin="round">80 km/h<tspan x="5" dy="0">​</tspan></tspan>80 km/h</text></g><g class="highcharts-series-group" data-z-index="3" aria-hidden="false"><g class="highcharts-series highcharts-series-0 highcharts-gauge-series highcharts-color-0 highcharts-tracker" data-z-index=".1" clip-path="url(#a)" aria-hidden="false" fill="gray" transform="translate(10 43)"><path d="M0-6 150.48-.5v1L0 6Z" transform="rotate(-108.04 213.11 41.129)" data-z-index="1" class="highcharts-dial" tabindex="-1" aria-label="80 km/h. Speed." style="outline:0"/><circle r="6" data-z-index="2" class="highcharts-pivot" transform="translate(240 256.5)"/></g></g><text x="250" text-anchor="middle" class="highcharts-title" data-z-index="4" style="color:#333;font-size:16px;font-weight:700;text-transform:uppercase;fill:#333" y="22" aria-hidden="true">Speedometer</text><g class="highcharts-axis-labels highcharts-yaxis-labels highcharts-radial-axis-labels" data-z-index="7" aria-hidden="true" text-anchor="middle"><text x="41.9" style="color:#666;cursor:default;font-size:14px;fill:#666" y="305.75">0</text><text x="57.723" style="color:#666;cursor:default;font-size:14px;fill:#666" y="226.156">25</text><text x="102.787" style="color:#666;cursor:default;font-size:14px;fill:#666" y="158.665">50</text><text x="170.238" style="color:#666;cursor:default;font-size:14px;fill:#666" y="113.543">75</text><text x="249.818" style="color:#666;cursor:default;font-size:14px;fill:#666" y="97.65">100</text><text x="329.427" style="color:#666;cursor:default;font-size:14px;fill:#666" y="113.404">125</text><text x="396.956" style="color:#666;cursor:default;font-size:14px;fill:#666" y="158.409">150</text><text x="442.137" style="color:#666;cursor:default;font-size:14px;fill:#666" y="225.82">175</text><text x="458.1" style="color:#666;cursor:default;font-size:14px;fill:#666" y="305.387">200</text></g></svg>