<svg class="highcharts-root" style="font-family:Dosis,sans-serif;font-size:12px" xmlns="http://www.w3.org/2000/svg" width="600" height="480" aria-label="Interactive chart" aria-hidden="false"><defs aria-hidden="true"><clipPath id="a"><path fill="none" d="M0 0h369v580H0z"/></clipPath></defs><rect fill="none" class="highcharts-background" width="600" height="480" rx="0" ry="0" aria-hidden="true"/><path fill="none" class="highcharts-plot-background" aria-hidden="true" d="M10 57h580v369H10z"/><path fill="none" class="highcharts-plot-border" data-z-index="1" aria-hidden="true" d="M10 57h580v369H10z"/><g class="highcharts-series-group" data-z-index="3" aria-hidden="false"><g class="highcharts-series highcharts-series-0 highcharts-tilemap-series highcharts-color-0 highcharts-tracker" data-z-index=".1" clip-path="url(#a)" aria-hidden="false" transform="matrix(0 -1 -1 0 590 426)"><path fill="#FFC428" d="M120 230H99l-11.957-21L99 188h21l10.957 21Z" class="highcharts-point" tabindex="-1" aria-label="1. Alabama, 4849377." style="outline:0"/><path fill="#F9EDB3" d="M344 553h-21l-10.87-21L323 511h21l11.87 21Z" class="highcharts-point" tabindex="-1" aria-label="2. Alaska, 737732." style="outline:0"/><path fill="#FF7987" d="M157 438h-21l-10.87-21L136 396h21l11.87 21Z" class="highcharts-point" tabindex="-1" aria-label="3. Arizona, 6745408." style="outline:0"/><path fill="#FFC428" d="M157 299h-21l-10.87-21L136 257h21l11.87 21Z" class="highcharts-point" tabindex="-1" aria-label="4. Arkansas, 2994079." style="outline:0"/><path fill="#FF2371" d="M157 484h-21l-10.87-21L136 442h21l11.87 21Z" class="highcharts-point" tabindex="-1" aria-label="5. California, 39250017." style="outline:0"/><path fill="#FF7987" d="M194 415h-20l-11.87-21L174 373h20l11.87 21Z" class="highcharts-point" tabindex="-1" aria-label="6. Colorado, 5540545." style="outline:0"/><path fill="#FFC428" d="M232 69h-21l-12-21 12-22h21l11 22Z" class="highcharts-point" tabindex="-1" aria-label="7. Connecticut, 3596677." style="outline:0"/><path fill="#F9EDB3" d="M194 138h-20l-11.87-21L174 96h20l11.87 21Z" class="highcharts-point" tabindex="-1" aria-label="8. Delaware, 935614." style="outline:0"/><path fill="#FF7987" d="M194 92h-20l-11.87-21L174 50h20l11.87 21Z" class="highcharts-point" tabindex="-1" aria-label="9. District of Columbia, 7288000." style="outline:0"/><path fill="#FF2371" d="M45 184H24l-11.957-21L24 142h21l10.957 21Z" class="highcharts-point" tabindex="-1" aria-label="10. Florida, 20612439." style="outline:0"/><path fill="#FF7987" d="M82 207H61l-10.87-21L61 165h21l11.87 21Z" class="highcharts-point" tabindex="-1" aria-label="11. Georgia, 10310371." style="outline:0"/><path fill="#FFC428" d="M45 553H24l-11.957-21L24 511h21l10.957 21Z" class="highcharts-point" tabindex="-1" aria-label="12. Hawaii, 1419561." style="outline:0"/><path fill="#FFC428" d="M232 484h-21l-11.957-21L211 442h21l10.957 21Z" class="highcharts-point" tabindex="-1" aria-label="13. Idaho, 1634464." style="outline:0"/><path fill="#FF7987" d="M232 299h-21l-11.957-21L211 257h21l10.957 21Z" class="highcharts-point" tabindex="-1" aria-label="14. Illinois, 12801539." style="outline:0"/><path fill="#FF7987" d="M232 253h-21l-11.957-21L211 211h21l10.957 21Z" class="highcharts-point" tabindex="-1" aria-label="15. Indiana, 6596855." style="outline:0"/><path fill="#FFC428" d="M232 346h-21l-12-21 12-22h21l11 22Z" class="highcharts-point" tabindex="-1" aria-label="16. Iowa, 3107126." style="outline:0"/><path fill="#FFC428" d="M157 346h-21l-10.917-21L136 303h21l11.917 22Z" class="highcharts-point" tabindex="-1" aria-label="17. Kansas, 2904021." style="outline:0"/><path fill="#FFC428" d="M194 276h-20l-11.87-21L174 234h20l11.87 21Z" class="highcharts-point" tabindex="-1" aria-label="18. Kentucky, 4413457." style="outline:0"/><path fill="#FFC428" d="M120 323H99l-12-21 12-22h21l11 22Z" class="highcharts-point" tabindex="-1" aria-label="19. Louisiana, 4649676." style="outline:0"/><path fill="#FFC428" d="M344 46h-21l-10.917-21L323 3h21l11.917 22Z" class="highcharts-point" tabindex="-1" aria-label="20. Maine, 1330089." style="outline:0"/><path fill="#FF7987" d="M194 184h-20l-11.87-21L174 142h20l11.87 21Z" class="highcharts-point" tabindex="-1" aria-label="21. Maryland, 6016447." style="outline:0"/><path fill="#FF7987" d="M269 92h-21l-10.87-21L248 50h21l11.87 21Z" class="highcharts-point" tabindex="-1" aria-label="22. Massachusetts, 6811779." style="outline:0"/><path fill="#FF7987" d="M269 230h-21l-10.87-21L248 188h21l11.87 21Z" class="highcharts-point" tabindex="-1" aria-label="23. Michigan, 9928301." style="outline:0"/><path fill="#FF7987" d="M269 369h-21l-10.87-21L248 327h21l11.87 21Z" class="highcharts-point" tabindex="-1" aria-label="24. Minnesota, 5519952." style="outline:0"/><path fill="#FFC428" d="M120 276H99l-11.957-21L99 234h21l10.957 21Z" class="highcharts-point" tabindex="-1" aria-label="25. Mississippi, 2984926." style="outline:0"/><path fill="#FF7987" d="M194 323h-20l-11.917-21L174 280h20l11.917 22Z" class="highcharts-point" tabindex="-1" aria-label="26. Missouri, 6093000." style="outline:0"/><path fill="#FFC428" d="M269 461h-21l-10.87-21L248 419h21l11.87 21Z" class="highcharts-point" tabindex="-1" aria-label="27. Montana, 1023579." style="outline:0"/><path fill="#FFC428" d="M194 369h-20l-11.87-21L174 327h20l11.87 21Z" class="highcharts-point" tabindex="-1" aria-label="28. Nebraska, 1881503." style="outline:0"/><path fill="#FFC428" d="M194 461h-20l-11.87-21L174 419h20l11.87 21Z" class="highcharts-point" tabindex="-1" aria-label="29. Nevada, 2839099." style="outline:0"/><path fill="#FFC428" d="M307 69h-21l-12-21 12-22h21l11 22Z" class="highcharts-point" tabindex="-1" aria-label="30. New Hampshire, 1326813." style="outline:0"/><path fill="#FF7987" d="M232 115h-21l-11.957-21L211 73h21l10.957 21Z" class="highcharts-point" tabindex="-1" aria-label="31. New Jersey, 8944469." style="outline:0"/><path fill="#FFC428" d="M120 415H99l-11.957-21L99 373h21l10.957 21Z" class="highcharts-point" tabindex="-1" aria-label="32. New Mexico, 2085572." style="outline:0"/><path fill="#FF7987" d="M269 138h-21l-10.87-21L248 96h21l11.87 21Z" class="highcharts-point" tabindex="-1" aria-label="33. New York, 19745289." style="outline:0"/><path fill="#FF7987" d="M157 161h-21l-10.87-21L136 119h21l11.87 21Z" class="highcharts-point" tabindex="-1" aria-label="34. North Carolina, 10146788." style="outline:0"/><path fill="#F9EDB3" d="M269 415h-21l-10.87-21L248 373h21l11.87 21Z" class="highcharts-point" tabindex="-1" aria-label="35. North Dakota, 739482." style="outline:0"/><path fill="#FF7987" d="M232 207h-21l-11.957-21L211 165h21l10.957 21Z" class="highcharts-point" tabindex="-1" aria-label="36. Ohio, 11614373." style="outline:0"/><path fill="#FFC428" d="M120 369H99l-11.957-21L99 327h21l10.957 21Z" class="highcharts-point" tabindex="-1" aria-label="37. Oklahoma, 3878051." style="outline:0"/><path fill="#FFC428" d="M194 507h-20l-11.87-21L174 465h20l11.87 21Z" class="highcharts-point" tabindex="-1" aria-label="38. Oregon, 3970239." style="outline:0"/><path fill="#FF7987" d="M232 161h-21l-11.957-21L211 119h21l10.957 21Z" class="highcharts-point" tabindex="-1" aria-label="39. Pennsylvania, 12784227." style="outline:0"/><path fill="#FFC428" d="M269 46h-21l-10.917-21L248 3h21l11.917 22Z" class="highcharts-point" tabindex="-1" aria-label="40. Rhode Island, 1055173." style="outline:0"/><path fill="#FFC428" d="M120 184H99l-11.957-21L99 142h21l10.957 21Z" class="highcharts-point" tabindex="-1" aria-label="41. South Carolina, 4832482." style="outline:0"/><path fill="#F9EDB3" d="M232 392h-21l-11.957-21L211 350h21l10.957 21Z" class="highcharts-point" tabindex="-1" aria-label="42. South Dakota, 853175." style="outline:0"/><path fill="#FF7987" d="M157 253h-21l-10.87-21L136 211h21l11.87 21Z" class="highcharts-point" tabindex="-1" aria-label="43. Tennessee, 6651194." style="outline:0"/><path fill="#FF2371" d="M82 392H61l-10.87-21L61 350h21l11.87 21Z" class="highcharts-point" tabindex="-1" aria-label="44. Texas, 27862596." style="outline:0"/><path fill="#FFC428" d="M157 392h-21l-10.87-21L136 350h21l11.87 21Z" class="highcharts-point" tabindex="-1" aria-label="45. Utah, 2942902." style="outline:0"/><path fill="#F9EDB3" d="M307 115h-21l-11.957-21L286 73h21l10.957 21Z" class="highcharts-point" tabindex="-1" aria-label="46. Vermont, 626011." style="outline:0"/><path fill="#FF7987" d="M157 207h-21l-10.87-21L136 165h21l11.87 21Z" class="highcharts-point" tabindex="-1" aria-label="47. Virginia, 8411808." style="outline:0"/><path fill="#FF7987" d="M269 507h-21l-10.87-21L248 465h21l11.87 21Z" class="highcharts-point" tabindex="-1" aria-label="48. Washington, 7288000." style="outline:0"/><path fill="#FFC428" d="M194 230h-20l-11.87-21L174 188h20l11.87 21Z" class="highcharts-point" tabindex="-1" aria-label="49. West Virginia, 1850326." style="outline:0"/><path fill="#FF7987" d="M269 323h-21l-10.917-21L248 280h21l11.917 22Z" class="highcharts-point" tabindex="-1" aria-label="50. Wisconsin, 5778708." style="outline:0"/><path fill="#F9EDB3" d="M232 438h-21l-11.957-21L211 396h21l10.957 21Z" class="highcharts-point" tabindex="-1" aria-label="51. Wyoming, 584153." style="outline:0"/></g></g><text x="300" text-anchor="middle" class="highcharts-title" data-z-index="4" style="color:#333;font-size:16px;font-weight:700;text-transform:uppercase;fill:#333" y="22" aria-hidden="true">U.S. states by population in 2016</text><text x="300" text-anchor="middle" class="highcharts-subtitle" data-z-index="4" style="color:#666;fill:#666" y="42" aria-hidden="true">Source:<a><tspan>Wikipedia</tspan></a></text><g class="highcharts-data-labels highcharts-series-0 highcharts-tilemap-series highcharts-color-0 highcharts-tracker" data-z-index="6" aria-hidden="true"><text data-z-index="1" y="11" style="color:#000;font-size:11px;font-weight:700;fill:#000" transform="translate(374 311)" class="highcharts-label highcharts-data-label highcharts-data-label-color-undefined">AL</text><text data-z-index="1" y="11" style="color:#000;font-size:11px;font-weight:700;fill:#000" transform="translate(50 87)" class="highcharts-label highcharts-data-label highcharts-data-label-color-undefined">AK</text><text data-z-index="1" y="11" style="color:#000;font-size:11px;font-weight:700;fill:#000" transform="translate(166 274)" class="highcharts-label highcharts-data-label highcharts-data-label-color-undefined">AZ</text><text data-z-index="1" y="11" style="color:#000;font-size:11px;font-weight:700;fill:#000" transform="translate(304 274)" class="highcharts-label highcharts-data-label highcharts-data-label-color-undefined">AR</text><text data-z-index="1" y="11" style="color:#000;font-size:11px;font-weight:700;fill:#000" transform="translate(119 274)" class="highcharts-label highcharts-data-label highcharts-data-label-color-undefined">CA</text><text data-z-index="1" y="11" style="color:#000;font-size:11px;font-weight:700;fill:#000" transform="translate(188 236)" class="highcharts-label highcharts-data-label highcharts-data-label-color-undefined">CO</text><text data-z-index="1" y="11" style="color:#000;font-size:11px;font-weight:700;fill:#000" transform="translate(535 199)" class="highcharts-label highcharts-data-label highcharts-data-label-color-undefined">CT</text><text data-z-index="1" y="11" style="color:#000;font-size:11px;font-weight:700;fill:#000" transform="translate(465 236)" class="highcharts-label highcharts-data-label highcharts-data-label-color-undefined">DE</text><text data-z-index="1" y="11" style="color:#000;font-size:11px;font-weight:700;fill:#000" transform="translate(511 236)" class="highcharts-label highcharts-data-label highcharts-data-label-color-undefined">DC</text><text data-z-index="1" y="11" style="color:#000;font-size:11px;font-weight:700;fill:#000" transform="translate(420 386)" class="highcharts-label highcharts-data-label highcharts-data-label-color-undefined">FL</text><text data-z-index="1" y="11" style="color:#000;font-size:11px;font-weight:700;fill:#000" transform="translate(396 349)" class="highcharts-label highcharts-data-label highcharts-data-label-color-undefined">GA</text><text data-z-index="1" y="11" style="color:#000;font-size:11px;font-weight:700;fill:#000" transform="translate(53 386)" class="highcharts-label highcharts-data-label highcharts-data-label-color-undefined">HI</text><text data-z-index="1" y="11" style="color:#000;font-size:11px;font-weight:700;fill:#000" transform="translate(122 199)" class="highcharts-label highcharts-data-label highcharts-data-label-color-undefined">ID</text><text data-z-index="1" y="11" style="color:#000;font-size:11px;font-weight:700;fill:#000" transform="translate(307 199)" class="highcharts-label highcharts-data-label highcharts-data-label-color-undefined">IL</text><text data-z-index="1" y="11" style="color:#000;font-size:11px;font-weight:700;fill:#000" transform="translate(353 199)" class="highcharts-label highcharts-data-label highcharts-data-label-color-undefined">IN</text><text data-z-index="1" y="11" style="color:#000;font-size:11px;font-weight:700;fill:#000" transform="translate(260 199)" class="highcharts-label highcharts-data-label highcharts-data-label-color-undefined">IA</text><text data-z-index="1" y="11" style="color:#000;font-size:11px;font-weight:700;fill:#000" transform="translate(257 274)" class="highcharts-label highcharts-data-label highcharts-data-label-color-undefined">KS</text><text data-z-index="1" y="11" style="color:#000;font-size:11px;font-weight:700;fill:#000" transform="translate(327 236)" class="highcharts-label highcharts-data-label highcharts-data-label-color-undefined">KY</text><text data-z-index="1" y="11" style="color:#000;font-size:11px;font-weight:700;fill:#000" transform="translate(281 311)" class="highcharts-label highcharts-data-label highcharts-data-label-color-undefined">LA</text><text data-z-index="1" y="11" style="color:#000;font-size:11px;font-weight:700;fill:#000" transform="translate(557 87)" class="highcharts-label highcharts-data-label highcharts-data-label-color-undefined">ME</text><text data-z-index="1" y="11" style="color:#000;font-size:11px;font-weight:700;fill:#000" transform="translate(418 236)" class="highcharts-label highcharts-data-label highcharts-data-label-color-undefined">MD</text><text data-z-index="1" y="11" style="color:#000;font-size:11px;font-weight:700;fill:#000" transform="translate(510 162)" class="highcharts-label highcharts-data-label highcharts-data-label-color-undefined">MA</text><text data-z-index="1" y="11" style="color:#000;font-size:11px;font-weight:700;fill:#000" transform="translate(375 162)" class="highcharts-label highcharts-data-label highcharts-data-label-color-undefined">MI</text><text data-z-index="1" y="11" style="color:#000;font-size:11px;font-weight:700;fill:#000" transform="translate(233 162)" class="highcharts-label highcharts-data-label highcharts-data-label-color-undefined">MN</text><text data-z-index="1" y="11" style="color:#000;font-size:11px;font-weight:700;fill:#000" transform="translate(327 311)" class="highcharts-label highcharts-data-label highcharts-data-label-color-undefined">MS</text><text data-z-index="1" y="11" style="color:#000;font-size:11px;font-weight:700;fill:#000" transform="translate(279 236)" class="highcharts-label highcharts-data-label highcharts-data-label-color-undefined">MO</text><text data-z-index="1" y="11" style="color:#000;font-size:11px;font-weight:700;fill:#000" transform="translate(142 162)" class="highcharts-label highcharts-data-label highcharts-data-label-color-undefined">MT</text><text data-z-index="1" y="11" style="color:#000;font-size:11px;font-weight:700;fill:#000" transform="translate(234 236)" class="highcharts-label highcharts-data-label highcharts-data-label-color-undefined">NE</text><text data-z-index="1" y="11" style="color:#000;font-size:11px;font-weight:700;fill:#000" transform="translate(142 236)" class="highcharts-label highcharts-data-label highcharts-data-label-color-undefined">NV</text><text data-z-index="1" y="11" style="color:#000;font-size:11px;font-weight:700;fill:#000" transform="translate(534 124)" class="highcharts-label highcharts-data-label highcharts-data-label-color-undefined">NH</text><text data-z-index="1" y="11" style="color:#000;font-size:11px;font-weight:700;fill:#000" transform="translate(489 199)" class="highcharts-label highcharts-data-label highcharts-data-label-color-undefined">NJ</text><text data-z-index="1" y="11" style="color:#000;font-size:11px;font-weight:700;fill:#000" transform="translate(187 311)" class="highcharts-label highcharts-data-label highcharts-data-label-color-undefined">NM</text><text data-z-index="1" y="11" style="color:#000;font-size:11px;font-weight:700;fill:#000" transform="translate(465 162)" class="highcharts-label highcharts-data-label highcharts-data-label-color-undefined">NY</text><text data-z-index="1" y="11" style="color:#000;font-size:11px;font-weight:700;fill:#000" transform="translate(442 274)" class="highcharts-label highcharts-data-label highcharts-data-label-color-undefined">NC</text><text data-z-index="1" y="11" style="color:#000;font-size:11px;font-weight:700;fill:#000" transform="translate(188 162)" class="highcharts-label highcharts-data-label highcharts-data-label-color-undefined">ND</text><text data-z-index="1" y="11" style="color:#000;font-size:11px;font-weight:700;fill:#000" transform="translate(396 199)" class="highcharts-label highcharts-data-label highcharts-data-label-color-undefined">OH</text><text data-z-index="1" y="11" style="color:#000;font-size:11px;font-weight:700;fill:#000" transform="translate(234 311)" class="highcharts-label highcharts-data-label highcharts-data-label-color-undefined">OK</text><text data-z-index="1" y="11" style="color:#000;font-size:11px;font-weight:700;fill:#000" transform="translate(96 236)" class="highcharts-label highcharts-data-label highcharts-data-label-color-undefined">OR</text><text data-z-index="1" y="11" style="color:#000;font-size:11px;font-weight:700;fill:#000" transform="translate(443 199)" class="highcharts-label highcharts-data-label highcharts-data-label-color-undefined">PA</text><text data-z-index="1" y="11" style="color:#000;font-size:11px;font-weight:700;fill:#000" transform="translate(560 162)" class="highcharts-label highcharts-data-label highcharts-data-label-color-undefined">RI</text><text data-z-index="1" y="11" style="color:#000;font-size:11px;font-weight:700;fill:#000" transform="translate(419 311)" class="highcharts-label highcharts-data-label highcharts-data-label-color-undefined">SC</text><text data-z-index="1" y="11" style="color:#000;font-size:11px;font-weight:700;fill:#000" transform="translate(211 199)" class="highcharts-label highcharts-data-label highcharts-data-label-color-undefined">SD</text><text data-z-index="1" y="11" style="color:#000;font-size:11px;font-weight:700;fill:#000" transform="translate(351 274)" class="highcharts-label highcharts-data-label highcharts-data-label-color-undefined">TN</text><text data-z-index="1" y="11" style="color:#000;font-size:11px;font-weight:700;fill:#000" transform="translate(212 349)" class="highcharts-label highcharts-data-label highcharts-data-label-color-undefined">TX</text><text data-z-index="1" y="11" style="color:#000;font-size:11px;font-weight:700;fill:#000" transform="translate(212 274)" class="highcharts-label highcharts-data-label highcharts-data-label-color-undefined">UT</text><text data-z-index="1" y="11" style="color:#000;font-size:11px;font-weight:700;fill:#000" transform="translate(489 124)" class="highcharts-label highcharts-data-label highcharts-data-label-color-undefined">VT</text><text data-z-index="1" y="11" style="color:#000;font-size:11px;font-weight:700;fill:#000" transform="translate(397 274)" class="highcharts-label highcharts-data-label highcharts-data-label-color-undefined">VA</text><text data-z-index="1" y="11" style="color:#000;font-size:11px;font-weight:700;fill:#000" transform="translate(95 162)" class="highcharts-label highcharts-data-label highcharts-data-label-color-undefined">WA</text><text data-z-index="1" y="11" style="color:#000;font-size:11px;font-weight:700;fill:#000" transform="translate(372 236)" class="highcharts-label highcharts-data-label highcharts-data-label-color-undefined">WV</text><text data-z-index="1" y="11" style="color:#000;font-size:11px;font-weight:700;fill:#000" transform="translate(281 162)" class="highcharts-label highcharts-data-label highcharts-data-label-color-undefined">WI</text><text data-z-index="1" y="11" style="color:#000;font-size:11px;font-weight:700;fill:#000" transform="translate(164 199)" class="highcharts-label highcharts-data-label highcharts-data-label-color-undefined">WY</text></g><g class="highcharts-legend highcharts-no-tooltip" data-z-index="7" transform="translate(136 438)" aria-hidden="true"><rect fill="#F0F0EA" class="highcharts-legend-box" rx="0" ry="0" width="328" height="27"/><g data-z-index="1"><g class="highcharts-legend-item highcharts-undefined-series highcharts-color-undefined highcharts-series-undefined" data-z-index="1" transform="translate(8 3)"><text x="21" data-z-index="2" y="16" style="color:#333;cursor:pointer;font-size:13px;font-weight:700;fill:#333">&lt; 1M</text><rect x="1.5" y="4" width="13" height="13" fill="#F9EDB3" rx="6.5" ry="6.5" class="highcharts-point" data-z-index="3"/></g><g class="highcharts-legend-item highcharts-undefined-series highcharts-color-undefined highcharts-series-undefined" data-z-index="1" transform="translate(78.266 3)"><text x="21" y="16" data-z-index="2" style="color:#333;cursor:pointer;font-size:13px;font-weight:700;fill:#333">1M - 5M</text><rect x="1.5" y="4" width="13" height="13" fill="#FFC428" rx="6.5" ry="6.5" class="highcharts-point" data-z-index="3"/></g><g class="highcharts-legend-item highcharts-undefined-series highcharts-color-undefined highcharts-series-undefined" data-z-index="1" transform="translate(166.938 3)"><text x="21" y="16" data-z-index="2" style="color:#333;cursor:pointer;font-size:13px;font-weight:700;fill:#333">5M - 20M</text><rect x="1.5" y="4" width="13" height="13" fill="#FF7987" rx="6.5" ry="6.5" class="highcharts-point" data-z-index="3"/></g><g class="highcharts-legend-item highcharts-undefined-series highcharts-color-undefined highcharts-series-undefined" data-z-index="1" transform="translate(262.844 3)"><text x="21" y="16" data-z-index="2" style="color:#333;cursor:pointer;font-size:13px;font-weight:700;fill:#333">&gt; 20M</text><rect x="1.5" y="4" width="13" height="13" fill="#FF2371" rx="6.5" ry="6.5" class="highcharts-point" data-z-index="3"/></g></g></g></svg>