<svg class="highcharts-root" style="font-family:Dosis,sans-serif;font-size:12px" xmlns="http://www.w3.org/2000/svg" width="600" height="600" aria-label="Interactive chart" aria-hidden="false"><defs aria-hidden="true"><clipPath id="a"><path fill="none" d="M0 0h580v487H0z"/></clipPath></defs><rect fill="none" class="highcharts-background" width="600" height="600" rx="0" ry="0" aria-hidden="true"/><path fill="none" class="highcharts-plot-background" aria-hidden="true" d="M10 43h580v487H10z"/><path fill="none" class="highcharts-plot-border" data-z-index="1" aria-hidden="true" d="M10 43h580v487H10z"/><g class="highcharts-series-group" data-z-index="3" aria-hidden="false" fill-opacity=".5"><g class="highcharts-series highcharts-series-0 highcharts-packedbubble-series highcharts-color-0 highcharts-tracker" data-z-index=".1" clip-path="url(#a)" aria-hidden="false" tabindex="-1" aria-label="Europe, series 1 of 6 with 36 data points." style="outline:0" fill="#7cb5ec" stroke="#7cb5ec" transform="translate(10 43)"><path d="M474.666 298.9a24.5 24.5 0 1 1 .024 0Z" class="highcharts-point highcharts-color-0" tabindex="-1" aria-label="Germany, value: 767.1. Europe." style="outline:0"/><path d="M388.98 333.927a10 10 0 1 1 .01 0Z" class="highcharts-point highcharts-color-0" tabindex="-1" aria-label="Croatia, value: 20.7. Europe." style="outline:0"/><path d="M174.637 380.081a13.5 13.5 0 1 1 .013 0Z" class="highcharts-point highcharts-color-0" tabindex="-1" aria-label="Belgium, value: 97.2. Europe." style="outline:0"/><path d="M166.307 215.174a14 14 0 1 1 .014 0Z" class="highcharts-point highcharts-color-0" tabindex="-1" aria-label="Czech Republic, value: 111.7. Europe." style="outline:0"/><path d="M225.603 109.79a15 15 0 1 1 .015 0Z" class="highcharts-point highcharts-color-0" tabindex="-1" aria-label="Netherlands, value: 158.1. Europe." style="outline:0"/><path d="M356.384 120.015a17 17 0 1 1 .017 0Z" class="highcharts-point highcharts-color-0" tabindex="-1" aria-label="Spain, value: 241.6. Europe." style="outline:0"/><path d="M453.795 229.399a17 17 0 1 1 .017 0Z" class="highcharts-point highcharts-color-0" tabindex="-1" aria-label="Ukraine, value: 249.1. Europe." style="outline:0"/><path d="M445.002 329.351a18 18 0 1 1 .018 0Z" class="highcharts-point highcharts-color-0" tabindex="-1" aria-label="Poland, value: 298.1. Europe." style="outline:0"/><path d="M207.741 401.145a18.5 18.5 0 1 1 .019 0Z" class="highcharts-point highcharts-color-0" tabindex="-1" aria-label="France, value: 323.7. Europe." style="outline:0"/><path d="M115.744 268.1a12.5 12.5 0 1 1 .012 0Z" class="highcharts-point highcharts-color-0" tabindex="-1" aria-label="Romania, value: 78.3. Europe." style="outline:0"/><path d="M183.223 146.393a20 20 0 1 1 .02 0Z" class="highcharts-point highcharts-color-0" tabindex="-1" aria-label="United Kingdom, value: 415.4. Europe." style="outline:0"/><path d="M321.656 100.595a19 19 0 1 1 .019 0Z" class="highcharts-point highcharts-color-0" tabindex="-1" aria-label="Turkey, value: 353.2. Europe." style="outline:0"/><path d="M391.446 142.847a19 19 0 1 1 .019 0Z" class="highcharts-point highcharts-color-0" tabindex="-1" aria-label="Italy, value: 337.6. Europe." style="outline:0"/><path d="M418.612 300.818a12.5 12.5 0 1 1 .013 0Z" class="highcharts-point highcharts-color-0" tabindex="-1" aria-label="Greece, value: 71.1. Europe." style="outline:0"/><path d="M382.163 362.664a12.5 12.5 0 1 1 .013 0Z" class="highcharts-point highcharts-color-0" tabindex="-1" aria-label="Austria, value: 69.8. Europe." style="outline:0"/><path d="M168.2 321.497a12.5 12.5 0 1 1 .013 0Z" class="highcharts-point highcharts-color-0" tabindex="-1" aria-label="Belarus, value: 67.7. Europe." style="outline:0"/><path d="M191.261 196.295a12 12 0 1 1 .012 0Z" class="highcharts-point highcharts-color-0" tabindex="-1" aria-label="Serbia, value: 59.3. Europe." style="outline:0"/><path d="M241.636 154.795a11.5 11.5 0 1 1 .011 0Z" class="highcharts-point highcharts-color-0" tabindex="-1" aria-label="Finland, value: 54.8. Europe." style="outline:0"/><path d="M325.925 128.07a11.5 11.5 0 1 1 .011 0Z" class="highcharts-point highcharts-color-0" tabindex="-1" aria-label="Bulgaria, value: 51.2. Europe." style="outline:0"/><path d="M410.284 226.516a11.5 11.5 0 1 1 .012 0Z" class="highcharts-point highcharts-color-0" tabindex="-1" aria-label="Portugal, value: 48.3. Europe." style="outline:0"/><path d="M372.773 388.549a11.5 11.5 0 1 1 .012 0Z" class="highcharts-point highcharts-color-0" tabindex="-1" aria-label="Norway, value: 44.4. Europe." style="outline:0"/><path d="M173.716 348.476a11.5 11.5 0 1 1 .011 0Z" class="highcharts-point highcharts-color-0" tabindex="-1" aria-label="Sweden, value: 44.3. Europe." style="outline:0"/><path d="M173.152 267.837a11 11 0 1 1 .01 0Z" class="highcharts-point highcharts-color-0" tabindex="-1" aria-label="Hungary, value: 43.7. Europe." style="outline:0"/><path d="M249.897 128.285a11 11 0 1 1 .01 0Z" class="highcharts-point highcharts-color-0" tabindex="-1" aria-label="Switzerland, value: 40.2. Europe." style="outline:0"/><path d="M366.937 160.053a11 11 0 1 1 .01 0Z" class="highcharts-point highcharts-color-0" tabindex="-1" aria-label="Denmark, value: 40. Europe." style="outline:0"/><path d="M427.028 204.692a11 11 0 1 1 .011 0Z" class="highcharts-point highcharts-color-0" tabindex="-1" aria-label="Slovakia, value: 34.7. Europe." style="outline:0"/><path d="M354.666 367.605a11 11 0 1 1 .01 0Z" class="highcharts-point highcharts-color-0" tabindex="-1" aria-label="Ireland, value: 34.6. Europe." style="outline:0"/><path d="M196.943 359.332a10 10 0 1 1 .01 0Z" class="highcharts-point highcharts-color-0" tabindex="-1" aria-label="Croatia, value: 20.7. Europe." style="outline:0"/><path d="M208.5 243.077a10 10 0 1 1 .01 0Z" class="highcharts-point highcharts-color-0" tabindex="-1" aria-label="Estonia, value: 19.4. Europe." style="outline:0"/><path d="M225.632 133.252a9.5 9.5 0 1 1 .01 0Z" class="highcharts-point highcharts-color-0" tabindex="-1" aria-label="Slovenia, value: 16.7. Europe." style="outline:0"/><path d="M279.97 129.265a9.5 9.5 0 1 1 .01 0Z" class="highcharts-point highcharts-color-0" tabindex="-1" aria-label="Lithuania, value: 12.3. Europe." style="outline:0"/><path d="M325.549 150.23a9 9 0 1 1 .009 0Z" class="highcharts-point highcharts-color-0" tabindex="-1" aria-label="Luxembourg, value: 10.4. Europe." style="outline:0"/><path d="M368.075 241.645a9 9 0 1 1 .01 0Z" class="highcharts-point highcharts-color-0" tabindex="-1" aria-label="Macedonia, value: 9.5. Europe." style="outline:0"/><path d="M396.314 310.837a9 9 0 1 1 .01 0Z" class="highcharts-point highcharts-color-0" tabindex="-1" aria-label="Moldova, value: 7.8. Europe." style="outline:0"/><path d="M236.48 279.268a9 9 0 1 1 .009 0Z" class="highcharts-point highcharts-color-0" tabindex="-1" aria-label="Latvia, value: 7.5. Europe." style="outline:0"/><path d="M210.907 178.352a8.5 8.5 0 1 1 .009 0Z" class="highcharts-point highcharts-color-0" tabindex="-1" aria-label="Cyprus, value: 7.2. Europe." style="outline:0"/></g><g class="highcharts-series highcharts-series-1 highcharts-packedbubble-series highcharts-color-1 highcharts-tracker" data-z-index=".1" clip-path="url(#a)" aria-hidden="false" tabindex="-1" aria-label="Africa, series 2 of 6 with 17 data points." style="outline:0" fill="#f7a35c" stroke="#f7a35c" transform="translate(10 43)"><path d="M239.797 388.255a9 9 0 1 1 .009 0Z" class="highcharts-point highcharts-color-1" tabindex="-1" aria-label="Senegal, value: 8.2. Africa." style="outline:0"/><path d="M342.953 344.64a9 9 0 1 1 .009 0Z" class="highcharts-point highcharts-color-1" tabindex="-1" aria-label="Cameroon, value: 9.2. Africa." style="outline:0"/><path d="M284.929 337.907a9.5 9.5 0 1 1 .009 0Z" class="highcharts-point highcharts-color-1" tabindex="-1" aria-label="Zimbabwe, value: 13.1. Africa." style="outline:0"/><path d="M184.55 244.495a9.5 9.5 0 1 1 .01 0Z" class="highcharts-point highcharts-color-1" tabindex="-1" aria-label="Ghana, value: 14.1. Africa." style="outline:0"/><path d="M284.481 152.334a9.5 9.5 0 1 1 .01 0Z" class="highcharts-point highcharts-color-1" tabindex="-1" aria-label="Kenya, value: 14.1. Africa." style="outline:0"/><path d="M304.784 140.934a9.5 9.5 0 1 1 .01 0Z" class="highcharts-point highcharts-color-1" tabindex="-1" aria-label="Sudan, value: 17.3. Africa." style="outline:0"/><path d="M411.56 176.04a10 10 0 1 1 .01 0Z" class="highcharts-point highcharts-color-1" tabindex="-1" aria-label="Tunisia, value: 24.3. Africa." style="outline:0"/><path d="M412.821 327.745a10 10 0 1 1 .01 0Z" class="highcharts-point highcharts-color-1" tabindex="-1" aria-label="Angola, value: 25. Africa." style="outline:0"/><path d="M253.88 325.503a11.5 11.5 0 1 1 .01 0Z" class="highcharts-point highcharts-color-1" tabindex="-1" aria-label="Libya, value: 50.6. Africa." style="outline:0"/><path d="M215.443 301.83a8.5 8.5 0 1 1 .008 0Z" class="highcharts-point highcharts-color-1" tabindex="-1" aria-label="Ivory Coast, value: 7.3. Africa." style="outline:0"/><path d="M214.182 158.267a12 12 0 1 1 .012 0Z" class="highcharts-point highcharts-color-1" tabindex="-1" aria-label="Morocco, value: 60.7. Africa." style="outline:0"/><path d="M264.645 145.465a9 9 0 1 1 .009 0Z" class="highcharts-point highcharts-color-1" tabindex="-1" aria-label="Ethiopia, value: 8.9. Africa." style="outline:0"/><path d="M390.45 165.289a9 9 0 1 1 .008 0Z" class="highcharts-point highcharts-color-1" tabindex="-1" aria-label="United Republic of Tanzania, value: 9.1. Africa." style="outline:0"/><path d="M381.368 222.778a13 13 0 1 1 .013 0Z" class="highcharts-point highcharts-color-1" tabindex="-1" aria-label="Nigeria, value: 93.9. Africa." style="outline:0"/><path d="M297.13 431.237a19.5 19.5 0 1 1 .02 0Z" class="highcharts-point highcharts-color-1" tabindex="-1" aria-label="South Africa, value: 392.7. Africa." style="outline:0"/><path d="M200.126 335.029a16.5 16.5 0 1 1 .017 0Z" class="highcharts-point highcharts-color-1" tabindex="-1" aria-label="Egypt, value: 225.1. Africa." style="outline:0"/><path d="M165.077 182.308a14.5 14.5 0 1 1 .015 0Z" class="highcharts-point highcharts-color-1" tabindex="-1" aria-label="Algeria, value: 141.5. Africa." style="outline:0"/></g><g class="highcharts-series highcharts-series-2 highcharts-packedbubble-series highcharts-color-2 highcharts-tracker" data-z-index=".1" clip-path="url(#a)" aria-hidden="false" tabindex="-1" aria-label="Oceania, series 3 of 6 with 3 data points." style="outline:0" fill="#90ee7e" stroke="#90ee7e" transform="translate(10 43)"><path d="M146.123 254.002a20 20 0 1 1 .02 0Z" class="highcharts-point highcharts-color-2" tabindex="-1" aria-label="Australia, value: 409.4. Oceania." style="outline:0"/><path d="M364.87 340.511a10.5 10.5 0 1 1 .01 0Z" class="highcharts-point highcharts-color-2" tabindex="-1" aria-label="New Zealand, value: 34.1. Oceania." style="outline:0"/><path d="M264.852 343.937a8.5 8.5 0 1 1 .009 0Z" class="highcharts-point highcharts-color-2" tabindex="-1" aria-label="Papua New Guinea, value: 7.1. Oceania." style="outline:0"/></g><g class="highcharts-series highcharts-series-3 highcharts-packedbubble-series highcharts-color-3 highcharts-tracker" data-z-index=".1" clip-path="url(#a)" aria-hidden="false" tabindex="-1" aria-label="North America, series 4 of 6 with 10 data points." style="outline:0" fill="#7798BF" stroke="#7798BF" transform="translate(10 43)"><path d="M222.893 260.715a9 9 0 1 1 .009 0Z" class="highcharts-point highcharts-color-3" tabindex="-1" aria-label="Costa Rica, value: 7.6. North America." style="outline:0"/><path d="M347.708 323.08a9 9 0 1 1 .009 0Z" class="highcharts-point highcharts-color-3" tabindex="-1" aria-label="Honduras, value: 8.4. North America." style="outline:0"/><path d="M228.763 320.536a9 9 0 1 1 .01 0Z" class="highcharts-point highcharts-color-3" tabindex="-1" aria-label="Jamaica, value: 8.3. North America." style="outline:0"/><path d="M257.416 272.223a9 9 0 1 1 .01 0Z" class="highcharts-point highcharts-color-3" tabindex="-1" aria-label="Panama, value: 10.2. North America." style="outline:0"/><path d="M192.049 168.024a9 9 0 1 1 .009 0Z" class="highcharts-point highcharts-color-3" tabindex="-1" aria-label="Guatemala, value: 12. North America." style="outline:0"/><path d="M300.996 118.327a10 10 0 1 1 .01 0Z" class="highcharts-point highcharts-color-3" tabindex="-1" aria-label="Dominican Republic, value: 23.4. North America." style="outline:0"/><path d="M346.762 144.143a10.5 10.5 0 1 1 .01 0Z" class="highcharts-point highcharts-color-3" tabindex="-1" aria-label="Cuba, value: 30.2. North America." style="outline:0"/><path d="M426.092 385.59a27.5 27.5 0 1 1 .028 0Z" class="highcharts-point highcharts-color-3" tabindex="-1" aria-label="USA, value: 5,334.5. North America." style="outline:0"/><path d="M250.705 435.26a22 22 0 1 1 .022 0Z" class="highcharts-point highcharts-color-3" tabindex="-1" aria-label="Canada, value: 566. North America." style="outline:0"/><path d="M145.05 299.906a20.5 20.5 0 1 1 .021 0Z" class="highcharts-point highcharts-color-3" tabindex="-1" aria-label="Mexico, value: 456.3. North America." style="outline:0"/></g><g class="highcharts-series highcharts-series-4 highcharts-packedbubble-series highcharts-color-4 highcharts-tracker" data-z-index=".1" clip-path="url(#a)" aria-hidden="false" tabindex="-1" aria-label="South America, series 5 of 6 with 11 data points." style="outline:0" fill="#aee" stroke="#aee" transform="translate(10 43)"><path d="M262.562 222.161a8.5 8.5 0 1 1 .009 0Z" class="highcharts-point highcharts-color-4" tabindex="-1" aria-label="El Salvador, value: 7.2. South America." style="outline:0"/><path d="M327.78 361.282a9 9 0 1 1 .01 0Z" class="highcharts-point highcharts-color-4" tabindex="-1" aria-label="Uruguay, value: 8.1. South America." style="outline:0"/><path d="M236.011 301.948a9.5 9.5 0 1 1 .01 0Z" class="highcharts-point highcharts-color-4" tabindex="-1" aria-label="Bolivia, value: 17.8. South America." style="outline:0"/><path d="M199.209 265.425a10.5 10.5 0 1 1 .01 0Z" class="highcharts-point highcharts-color-4" tabindex="-1" aria-label="Trinidad and Tobago, value: 34. South America." style="outline:0"/><path d="M234.06 179.334a11 11 0 1 1 .011 0Z" class="highcharts-point highcharts-color-4" tabindex="-1" aria-label="Ecuador, value: 43. South America." style="outline:0"/><path d="M353.948 212.112a12.5 12.5 0 1 1 .013 0Z" class="highcharts-point highcharts-color-4" tabindex="-1" aria-label="Chile, value: 78.6. South America." style="outline:0"/><path d="M401.082 200.838a11.5 11.5 0 1 1 .012 0Z" class="highcharts-point highcharts-color-4" tabindex="-1" aria-label="Peru, value: 52. South America." style="outline:0"/><path d="M370.691 316.407a12.5 12.5 0 1 1 .013 0Z" class="highcharts-point highcharts-color-4" tabindex="-1" aria-label="Colombia, value: 74.1. South America." style="outline:0"/><path d="M232.644 366.942a21.5 21.5 0 1 1 .022 0Z" class="highcharts-point highcharts-color-4" tabindex="-1" aria-label="Brazil, value: 501.1. South America." style="outline:0"/><path d="M188.56 299.595a16 16 0 1 1 .015 0Z" class="highcharts-point highcharts-color-4" tabindex="-1" aria-label="Argentina, value: 199. South America." style="outline:0"/><path d="M221.674 211.429a16 16 0 1 1 .016 0Z" class="highcharts-point highcharts-color-4" tabindex="-1" aria-label="Venezuela, value: 195.2. South America." style="outline:0"/></g><g class="highcharts-series highcharts-series-5 highcharts-packedbubble-series highcharts-color-5 highcharts-tracker" data-z-index=".1" clip-path="url(#a)" aria-hidden="false" tabindex="-1" aria-label="Asia, series 6 of 6 with 40 data points." style="outline:0" fill="#f06" stroke="#f06" transform="translate(10 43)"><path d="M313.145 190.899a8.5 8.5 0 1 1 .008 0Z" class="highcharts-point highcharts-color-5" tabindex="-1" aria-label="Nepal, value: 6.5. Asia." style="outline:0"/><path d="M311.084 375.527a8.5 8.5 0 1 1 .009 0Z" class="highcharts-point highcharts-color-5" tabindex="-1" aria-label="Georgia, value: 6.5. Asia." style="outline:0"/><path d="M243.855 259.148a8.5 8.5 0 1 1 .009 0Z" class="highcharts-point highcharts-color-5" tabindex="-1" aria-label="Brunei Darussalam, value: 7.4. Asia." style="outline:0"/><path d="M215.013 280.554a8.5 8.5 0 1 1 .008 0Z" class="highcharts-point highcharts-color-5" tabindex="-1" aria-label="Kyrgyzstan, value: 7.4. Asia." style="outline:0"/><path d="M251.493 203.487a9 9 0 1 1 .01 0Z" class="highcharts-point highcharts-color-5" tabindex="-1" aria-label="Afghanistan, value: 7.9. Asia." style="outline:0"/><path d="M327.173 317.283a9 9 0 1 1 .009 0Z" class="highcharts-point highcharts-color-5" tabindex="-1" aria-label="Myanmar, value: 9.1. Asia." style="outline:0"/><path d="M291.217 189.546a9.5 9.5 0 1 1 .01 0Z" class="highcharts-point highcharts-color-5" tabindex="-1" aria-label="Mongolia, value: 14.7. Asia." style="outline:0"/><path d="M322.618 339.203a9.5 9.5 0 1 1 .01 0Z" class="highcharts-point highcharts-color-5" tabindex="-1" aria-label="Sri Lanka, value: 16.6. Asia." style="outline:0"/><path d="M275.226 206.005a10 10 0 1 1 .01 0Z" class="highcharts-point highcharts-color-5" tabindex="-1" aria-label="Bahrain, value: 20.5. Asia." style="outline:0"/><path d="M305.248 325.682a10 10 0 1 1 .01 0Z" class="highcharts-point highcharts-color-5" tabindex="-1" aria-label="Yemen, value: 22.6. Asia." style="outline:0"/><path d="M293.207 250.99a10 10 0 1 1 .01 0Z" class="highcharts-point highcharts-color-5" tabindex="-1" aria-label="Jordan, value: 22.3. Asia." style="outline:0"/><path d="M299.748 210.673a10 10 0 1 1 .01 0Z" class="highcharts-point highcharts-color-5" tabindex="-1" aria-label="Lebanon, value: 21.1. Asia." style="outline:0"/><path d="M285.062 228.862a10.5 10.5 0 1 1 .01 0Z" class="highcharts-point highcharts-color-5" tabindex="-1" aria-label="Azerbaijan, value: 31.7. Asia." style="outline:0"/><path d="M392.38 246.884a11.5 11.5 0 1 1 .01 0Z" class="highcharts-point highcharts-color-5" tabindex="-1" aria-label="Singapore, value: 47.8. Asia." style="outline:0"/><path d="M303.91 355.565a11.5 11.5 0 1 1 .012 0Z" class="highcharts-point highcharts-color-5" tabindex="-1" aria-label="Hong Kong, value: 49.9. Asia." style="outline:0"/><path d="M310.663 235.446a11.5 11.5 0 1 1 .011 0Z" class="highcharts-point highcharts-color-5" tabindex="-1" aria-label="Syria, value: 52.7. Asia." style="outline:0"/><path d="M194.585 223.932a12 12 0 1 1 .012 0Z" class="highcharts-point highcharts-color-5" tabindex="-1" aria-label="DPR Korea, value: 59.9. Asia." style="outline:0"/><path d="M325.624 212.996a12 12 0 1 1 .012 0Z" class="highcharts-point highcharts-color-5" tabindex="-1" aria-label="Israel, value: 64.8. Asia." style="outline:0"/><path d="M258.267 298.86a12.5 12.5 0 1 1 .012 0Z" class="highcharts-point highcharts-color-5" tabindex="-1" aria-label="Turkmenistan, value: 70.6. Asia." style="outline:0"/><path d="M353.928 266.703a12.5 12.5 0 1 1 .012 0Z" class="highcharts-point highcharts-color-5" tabindex="-1" aria-label="Oman, value: 74.3. Asia." style="outline:0"/><path d="M310.713 302.007a13 13 0 1 1 .013 0Z" class="highcharts-point highcharts-color-5" tabindex="-1" aria-label="Qatar, value: 88.8. Asia." style="outline:0"/><path d="M282.432 315.364a13.5 13.5 0 1 1 .014 0Z" class="highcharts-point highcharts-color-5" tabindex="-1" aria-label="Philippines, value: 96.9. Asia." style="outline:0"/><path d="M267.614 252.951a13.5 13.5 0 1 1 .013 0Z" class="highcharts-point highcharts-color-5" tabindex="-1" aria-label="Kuwait, value: 98.6. Asia." style="outline:0"/><path d="M305.472 172.627a14 14 0 1 1 .014 0Z" class="highcharts-point highcharts-color-5" tabindex="-1" aria-label="Uzbekistan, value: 122.6. Asia." style="outline:0"/><path d="M374.406 192.636a14.5 14.5 0 1 1 .014 0Z" class="highcharts-point highcharts-color-5" tabindex="-1" aria-label="Iraq, value: 139.9. Asia." style="outline:0"/><path d="M340.635 241.891a15 15 0 1 1 .015 0Z" class="highcharts-point highcharts-color-5" tabindex="-1" aria-label="Pakistan, value: 158.1. Asia." style="outline:0"/><path d="M344.15 300.964a16 16 0 1 1 .015 0Z" class="highcharts-point highcharts-color-5" tabindex="-1" aria-label="Vietnam, value: 190.2. Asia." style="outline:0"/><path d="M285.346 284.8a16 16 0 1 1 .016 0Z" class="highcharts-point highcharts-color-5" tabindex="-1" aria-label="United Arab Emirates, value: 201.1. Asia." style="outline:0"/><path d="M237.512 241.77a16.5 16.5 0 1 1 .017 0Z" class="highcharts-point highcharts-color-5" tabindex="-1" aria-label="Malaysia, value: 227.5. Asia." style="outline:0"/><path d="M265.116 183.792a17 17 0 1 1 .017 0Z" class="highcharts-point highcharts-color-5" tabindex="-1" aria-label="Kazakhstan, value: 236.2. Asia." style="outline:0"/><path d="M339.814 185.9a17.5 17.5 0 1 1 .017 0Z" class="highcharts-point highcharts-color-5" tabindex="-1" aria-label="Thailand, value: 272. Asia." style="outline:0"/><path d="M320.387 273.752a17.5 17.5 0 1 1 .017 0Z" class="highcharts-point highcharts-color-5" tabindex="-1" aria-label="Taiwan, value: 276.7. Asia." style="outline:0"/><path d="M385.57 290.876a20.5 20.5 0 1 1 .02 0Z" class="highcharts-point highcharts-color-5" tabindex="-1" aria-label="Indonesia, value: 453. Asia." style="outline:0"/><path d="M337.158 411.006a21.5 21.5 0 1 1 .022 0Z" class="highcharts-point highcharts-color-5" tabindex="-1" aria-label="Saudi Arabia, value: 494.8. Asia." style="outline:0"/><path d="M129.987 359.785a27.5 27.5 0 1 1 .027 0Z" class="highcharts-point highcharts-color-5" tabindex="-1" aria-label="Japan, value: 1,278.9. Asia." style="outline:0"/><path d="M122.202 214.703a27.5 27.5 0 1 1 .028 0Z" class="highcharts-point highcharts-color-5" tabindex="-1" aria-label="China, value: 10,540.8. Asia." style="outline:0"/><path d="M270.33 106.546a27.5 27.5 0 1 1 .028 0Z" class="highcharts-point highcharts-color-5" tabindex="-1" aria-label="India, value: 2,341.9. Asia." style="outline:0"/><path d="M453.243 186.563a27.5 27.5 0 1 1 .028 0Z" class="highcharts-point highcharts-color-5" tabindex="-1" aria-label="Russia, value: 1,766.4. Asia." style="outline:0"/><path d="M428.782 272.448a23 23 0 1 1 .023 0Z" class="highcharts-point highcharts-color-5" tabindex="-1" aria-label="Iran, value: 618.2. Asia." style="outline:0"/><path d="M275.208 392.963a23 23 0 1 1 .023 0Z" class="highcharts-point highcharts-color-5" tabindex="-1" aria-label="Korea, value: 610.1. Asia." style="outline:0"/></g></g><text x="300" text-anchor="middle" class="highcharts-title" data-z-index="4" style="color:#333;font-size:16px;font-weight:700;text-transform:uppercase;fill:#333" y="22" aria-hidden="true">Carbon emissions around the world (2014)</text><g class="highcharts-data-labels highcharts-series-0 highcharts-packedbubble-series highcharts-color-0 highcharts-tracker" data-z-index="6" aria-hidden="true"><g style="transition:opacity 2000ms ease 0s"><text data-z-index="1" y="11" style="color:#000;font-size:11px;font-weight:400;fill:#000" transform="translate(462 311)" class="highcharts-label highcharts-data-label highcharts-data-label-color-0">Germany</text></g><g style="transition:opacity 2000ms ease 0s"><text data-z-index="1" y="11" style="color:#000;font-size:11px;font-weight:400;fill:#000" transform="translate(438 348)" class="highcharts-label highcharts-data-label highcharts-data-label-color-0">Poland</text></g><g style="transition:opacity 2000ms ease 0s;pointer-events:auto"><text data-z-index="1" y="11" style="color:#000;font-size:11px;font-weight:400;fill:#000" transform="translate(201 420)" class="highcharts-label highcharts-data-label highcharts-data-label-color-0">France</text></g><g style="transition:opacity 2000ms ease 0s;pointer-events:auto"><text data-z-index="1" y="11" style="color:#000;font-size:11px;font-weight:400;fill:#000" transform="translate(154 163)" class="highcharts-label highcharts-data-label highcharts-data-label-color-0">United Kingdom</text></g><g style="transition:opacity 2000ms ease 0s"><text data-z-index="1" y="11" style="color:#000;font-size:11px;font-weight:400;fill:#000" transform="translate(315 119)" class="highcharts-label highcharts-data-label highcharts-data-label-color-0">Turkey</text></g><g style="transition:opacity 2000ms ease 0s;pointer-events:auto"><text data-z-index="1" y="11" style="color:#000;font-size:11px;font-weight:400;fill:#000" transform="translate(391 161)" class="highcharts-label highcharts-data-label highcharts-data-label-color-0">Italy</text></g></g><g style="transition:opacity 2000ms ease 0s" class="highcharts-data-labels highcharts-series-1 highcharts-packedbubble-series highcharts-color-1 highcharts-tracker" data-z-index="6" aria-hidden="true"><text data-z-index="1" y="11" style="color:#000;font-size:11px;font-weight:400;fill:#000" transform="translate(277 449)" class="highcharts-label highcharts-data-label highcharts-data-label-color-1">South Africa</text></g><g style="transition:opacity 2000ms ease 0s" class="highcharts-data-labels highcharts-series-2 highcharts-packedbubble-series highcharts-color-2 highcharts-tracker" data-z-index="6" aria-hidden="true"><text data-z-index="1" y="11" style="color:#000;font-size:11px;font-weight:400;fill:#000" transform="translate(135 271)" class="highcharts-label highcharts-data-label highcharts-data-label-color-2">Australia</text></g><g class="highcharts-data-labels highcharts-series-3 highcharts-packedbubble-series highcharts-color-3 highcharts-tracker" data-z-index="6" aria-hidden="true"><g style="transition:opacity 2000ms ease 0s"><text data-z-index="1" y="11" style="color:#000;font-size:11px;font-weight:400;fill:#000" transform="translate(425 395)" class="highcharts-label highcharts-data-label highcharts-data-label-color-3">USA</text></g><g style="transition:opacity 2000ms ease 0s;pointer-events:auto"><text data-z-index="1" y="11" style="color:#000;font-size:11px;font-weight:400;fill:#000" transform="translate(241 450)" class="highcharts-label highcharts-data-label highcharts-data-label-color-3">Canada</text></g><g style="transition:opacity 2000ms ease 0s"><text data-z-index="1" y="11" style="color:#000;font-size:11px;font-weight:400;fill:#000" transform="translate(138 316)" class="highcharts-label highcharts-data-label highcharts-data-label-color-3">Mexico</text></g></g><g style="transition:opacity 2000ms ease 0s" class="highcharts-data-labels highcharts-series-4 highcharts-packedbubble-series highcharts-color-4 highcharts-tracker" data-z-index="6" aria-hidden="true"><text data-z-index="1" y="11" style="color:#000;font-size:11px;font-weight:400;fill:#000" transform="translate(229 382)" class="highcharts-label highcharts-data-label highcharts-data-label-color-4">Brazil</text></g><g class="highcharts-data-labels highcharts-series-5 highcharts-packedbubble-series highcharts-color-5 highcharts-tracker" data-z-index="6" aria-hidden="true"><g style="transition:opacity 2000ms ease 0s"><text data-z-index="1" y="11" style="color:#000;font-size:11px;font-weight:400;fill:#000" transform="translate(329 205)" class="highcharts-label highcharts-data-label highcharts-data-label-color-5">Thailand</text></g><g style="transition:opacity 2000ms ease 0s;pointer-events:auto"><text data-z-index="1" y="11" style="color:#000;font-size:11px;font-weight:400;fill:#000" transform="translate(313 293)" class="highcharts-label highcharts-data-label highcharts-data-label-color-5">Taiwan</text></g><g style="transition:opacity 2000ms ease 0s"><text data-z-index="1" y="11" style="color:#000;font-size:11px;font-weight:400;fill:#000" transform="translate(372 307)" class="highcharts-label highcharts-data-label highcharts-data-label-color-5">Indonesia</text></g><g style="transition:opacity 2000ms ease 0s;pointer-events:auto"><text data-z-index="1" y="11" style="color:#000;font-size:11px;font-weight:400;fill:#000" transform="translate(316 427)" class="highcharts-label highcharts-data-label highcharts-data-label-color-5">Saudi Arabia</text></g><g style="transition:opacity 2000ms ease 0s;pointer-events:auto"><text data-z-index="1" y="11" style="color:#000;font-size:11px;font-weight:400;fill:#000" transform="translate(125 369)" class="highcharts-label highcharts-data-label highcharts-data-label-color-5">Japan</text></g><g style="transition:opacity 2000ms ease 0s;pointer-events:auto"><text data-z-index="1" y="11" style="color:#000;font-size:11px;font-weight:400;fill:#000" transform="translate(118 224)" class="highcharts-label highcharts-data-label highcharts-data-label-color-5">China</text></g><g style="transition:opacity 2000ms ease 0s;pointer-events:auto"><text data-z-index="1" y="11" style="color:#000;font-size:11px;font-weight:400;fill:#000" transform="translate(268 116)" class="highcharts-label highcharts-data-label highcharts-data-label-color-5">India</text></g><g style="transition:opacity 2000ms ease 0s;pointer-events:auto"><text data-z-index="1" y="11" style="color:#000;font-size:11px;font-weight:400;fill:#000" transform="translate(446 196)" class="highcharts-label highcharts-data-label highcharts-data-label-color-5">Russia</text></g><g style="transition:opacity 2000ms ease 0s;pointer-events:auto"><text data-z-index="1" y="11" style="color:#000;font-size:11px;font-weight:400;fill:#000" transform="translate(429 286)" class="highcharts-label highcharts-data-label highcharts-data-label-color-5">Iran</text></g><g style="transition:opacity 2000ms ease 0s;pointer-events:auto"><text data-z-index="1" y="11" style="color:#000;font-size:11px;font-weight:400;fill:#000" transform="translate(271 407)" class="highcharts-label highcharts-data-label highcharts-data-label-color-5">Korea</text></g></g><g class="highcharts-legend highcharts-no-tooltip" data-z-index="7" transform="translate(37 542)" aria-hidden="true"><rect fill="#F0F0EA" class="highcharts-legend-box" rx="0" ry="0" width="525" height="43"/><g data-z-index="1"><g class="highcharts-legend-item highcharts-packedbubble-series highcharts-color-0 highcharts-series-0" data-z-index="1"><path fill="none" d="M8 15h16" class="highcharts-graph"/><path fill="#7cb5ec" d="M16.5 22a6.5 6.5 0 1 1 .006 0Z" class="highcharts-point" stroke="#7cb5ec" fill-opacity=".5"/><text x="21" data-z-index="2" y="16" style="color:#333;cursor:pointer;font-size:13px;font-weight:700;fill:#333" transform="translate(8 3)">Europe</text></g><g class="highcharts-legend-item highcharts-packedbubble-series highcharts-color-1 highcharts-series-1" data-z-index="1"><path fill="none" d="M140.266 15h16" class="highcharts-graph"/><path fill="#f7a35c" d="M148.766 22a6.5 6.5 0 1 1 .006 0Z" class="highcharts-point" stroke="#f7a35c" fill-opacity=".5"/><text x="21" y="16" data-z-index="2" style="color:#333;cursor:pointer;font-size:13px;font-weight:700;fill:#333" transform="translate(140.266 3)">Africa</text></g><g class="highcharts-legend-item highcharts-packedbubble-series highcharts-color-2 highcharts-series-2" data-z-index="1"><path fill="none" d="M272.531 15h16" class="highcharts-graph"/><path fill="#90ee7e" d="M281.031 22a6.5 6.5 0 1 1 .007 0Z" class="highcharts-point" stroke="#90ee7e" fill-opacity=".5"/><text x="21" y="16" data-z-index="2" style="color:#333;cursor:pointer;font-size:13px;font-weight:700;fill:#333" transform="translate(272.531 3)">Oceania</text></g><g class="highcharts-legend-item highcharts-packedbubble-series highcharts-color-3 highcharts-series-3" data-z-index="1"><path fill="none" d="M404.797 15h16" class="highcharts-graph"/><path fill="#7798BF" d="M413.297 22a6.5 6.5 0 1 1 .006 0Z" class="highcharts-point" stroke="#7798BF" fill-opacity=".5"/><text x="21" y="16" data-z-index="2" style="color:#333;cursor:pointer;font-size:13px;font-weight:700;fill:#333" transform="translate(404.797 3)">North America</text></g><g class="highcharts-legend-item highcharts-packedbubble-series highcharts-color-4 highcharts-series-4" data-z-index="1"><path fill="none" d="M8 31h16" class="highcharts-graph"/><path fill="#aee" d="M16.5 38a6.5 6.5 0 1 1 .006 0Z" class="highcharts-point" stroke="#aee" fill-opacity=".5"/><text x="21" y="16" data-z-index="2" style="color:#333;cursor:pointer;font-size:13px;font-weight:700;fill:#333" transform="translate(8 19)">South America</text></g><g class="highcharts-legend-item highcharts-packedbubble-series highcharts-color-5 highcharts-series-5" data-z-index="1"><path fill="none" d="M140.266 31h16" class="highcharts-graph"/><path fill="#f06" d="M148.766 38a6.5 6.5 0 1 1 .006 0Z" class="highcharts-point" stroke="#f06" fill-opacity=".5"/><text x="21" y="16" data-z-index="2" style="color:#333;cursor:pointer;font-size:13px;font-weight:700;fill:#333" transform="translate(140.266 19)">Asia</text></g></g></g></svg>