<svg class="highcharts-root" style="font-family:Dosis,sans-serif;font-size:12px" xmlns="http://www.w3.org/2000/svg" width="600" height="400" aria-label="Interactive chart" aria-hidden="false"><defs aria-hidden="true"><radialGradient cx="290" cy="128.3" r="203.7" gradientUnits="userSpaceOnUse" id="a"><stop offset="0" stop-color="#7cb5ec"/><stop offset="1" stop-color="#3069A0"/></radialGradient><radialGradient cx="290" cy="128.3" r="203.7" gradientUnits="userSpaceOnUse" id="b"><stop offset="0" stop-color="#f7a35c"/><stop offset="1" stop-color="#AB5710"/></radialGradient><radialGradient cx="290" cy="128.3" r="203.7" gradientUnits="userSpaceOnUse" id="c"><stop offset="0" stop-color="#90ee7e"/><stop offset="1" stop-color="#44A232"/></radialGradient><radialGradient cx="290" cy="128.3" r="203.7" gradientUnits="userSpaceOnUse" id="d"><stop offset="0" stop-color="#7798BF"/><stop offset="1" stop-color="#2B4C73"/></radialGradient><radialGradient cx="290" cy="128.3" r="203.7" gradientUnits="userSpaceOnUse" id="e"><stop offset="0" stop-color="#aee"/><stop offset="1" stop-color="#5EA2A2"/></radialGradient><radialGradient cx="290" cy="128.3" r="203.7" gradientUnits="userSpaceOnUse" id="f"><stop offset="0" stop-color="#f06"/><stop offset="1" stop-color="#B3001A"/></radialGradient></defs><rect fill="none" class="highcharts-background" width="600" height="400" rx="0" ry="0" aria-hidden="true"/><path fill="none" class="highcharts-plot-background" aria-hidden="true" d="M10 43h580v342H10z"/><path fill="none" class="highcharts-plot-border" data-z-index="1" aria-hidden="true" d="M10 43h580v342H10z"/><g class="highcharts-series-group" data-z-index="3" aria-hidden="false"><g class="highcharts-series highcharts-series-0 highcharts-pie-series highcharts-tracker" data-z-index=".1" style="cursor:pointer" aria-hidden="false" stroke="#fff" stroke-linejoin="round"><path fill="url(#a)" d="M289.97 41a145.5 145.5 0 1 1-144.58 161.558L290 186.5Z" transform="translate(10 43)" class="highcharts-point highcharts-color-0" tabindex="-1" aria-label="Chrome, 73.24%. Share." style="outline:0"/><path fill="url(#b)" d="M145.373 202.414A145.5 145.5 0 0 1 178.94 92.499L290 186.5Z" transform="translate(10 43)" class="highcharts-point highcharts-color-1" tabindex="-1" aria-label="Edge, 12.93%. Share." style="outline:0"/><path fill="url(#c)" d="M179.035 92.388a145.5 145.5 0 0 1 32.278-28.275L290 186.5Z" transform="translate(10 43)" class="highcharts-point highcharts-color-2" tabindex="-1" aria-label="Firefox, 4.73%. Share." style="outline:0"/><path fill="url(#d)" d="M211.436 64.034a145.5 145.5 0 0 1 19.981-10.72L290 186.5Z" transform="translate(10 43)" class="highcharts-point highcharts-color-3" tabindex="-1" aria-label="Safari, 2.5%. Share." style="outline:0"/><path fill="url(#e)" d="M231.55 53.256a145.5 145.5 0 0 1 14.01-5.303L290 186.5Z" transform="translate(10 43)" class="highcharts-point highcharts-color-4" tabindex="-1" aria-label="Internet Explorer, 1.65%. Share." style="outline:0"/><path fill="url(#f)" d="M245.699 47.908A145.5 145.5 0 0 1 289.798 41L290 186.5Z" transform="translate(10 43)" class="highcharts-point highcharts-color-5" tabindex="-1" aria-label="Other, 4.93%. Share." style="outline:0"/></g></g><text x="300" text-anchor="middle" class="highcharts-title" data-z-index="4" style="color:#333;font-size:16px;font-weight:700;text-transform:uppercase;fill:#333" y="22" aria-hidden="true">Browser market shares in April, 2022</text><g class="highcharts-data-labels highcharts-series-0 highcharts-pie-series highcharts-tracker" data-z-index="6" style="cursor:pointer" aria-hidden="true"><path fill="none" class="highcharts-data-label-connector highcharts-color-0" stroke="silver" d="M435.712 346.61c-5 0-18.407-12.012-22.875-16.015l-4.47-4.004"/><path fill="none" class="highcharts-data-label-connector highcharts-color-1" stroke="silver" d="M127.164 178.202c5 0 22.214 5.262 27.952 7.015l5.738 1.754"/><path fill="none" class="highcharts-data-label-connector highcharts-color-2" stroke="silver" d="M156.666 121.5c5 0 39.57-10.487 43.522-5.973l3.953 4.514"/><path fill="none" class="highcharts-data-label-connector highcharts-color-3" stroke="silver" d="M177.654 99c5 0 47.935-8.314 50.77-3.025l2.834 5.288"/><path fill="none" class="highcharts-data-label-connector highcharts-color-4" stroke="silver" d="M209.028 76.5c5 0 35.243 5.69 37.366 11.3l2.123 5.613"/><path fill="none" class="highcharts-data-label-connector highcharts-color-5" stroke="silver" d="M267.922 54c5 0 7.777 19.886 8.703 25.814l.925 5.928"/><g style="cursor:pointer"><text x="5" data-z-index="1" y="16" style="color:#fff;font-size:11px;font-weight:700;fill:#fff" transform="translate(441 337)" class="highcharts-label highcharts-data-label highcharts-data-label-color-0"><tspan class="highcharts-text-outline" fill="#000" stroke="#000" stroke-width="2" stroke-linejoin="round"><tspan style="font-weight:700">Chrome</tspan>: 73.3 %<tspan x="5" dy="0">​</tspan></tspan><tspan style="font-weight:700">Chrome</tspan>: 73.3 %</text></g><g style="cursor:pointer"><text x="5" data-z-index="1" y="16" style="color:#fff;font-size:11px;font-weight:700;fill:#fff" transform="translate(44 168)" class="highcharts-label highcharts-data-label highcharts-data-label-color-1"><tspan class="highcharts-text-outline" fill="#000" stroke="#000" stroke-width="2" stroke-linejoin="round"><tspan style="font-weight:700">Edge</tspan>: 12.9 %<tspan x="5" dy="0">​</tspan></tspan><tspan style="font-weight:700">Edge</tspan>: 12.9 %</text></g><g style="cursor:pointer"><text x="5" data-z-index="1" y="16" style="color:#fff;font-size:11px;font-weight:700;fill:#fff" transform="translate(70 112)" class="highcharts-label highcharts-data-label highcharts-data-label-color-2"><tspan class="highcharts-text-outline" fill="#000" stroke="#000" stroke-width="2" stroke-linejoin="round"><tspan style="font-weight:700">Firefox</tspan>: 4.7 %<tspan x="5" dy="0">​</tspan></tspan><tspan style="font-weight:700">Firefox</tspan>: 4.7 %</text></g><g style="cursor:pointer"><text x="5" data-z-index="1" y="16" style="color:#fff;font-size:11px;font-weight:700;fill:#fff" transform="translate(97 89)" class="highcharts-label highcharts-data-label highcharts-data-label-color-3"><tspan class="highcharts-text-outline" fill="#000" stroke="#000" stroke-width="2" stroke-linejoin="round"><tspan style="font-weight:700">Safari</tspan>: 2.5 %<tspan x="5" dy="0">​</tspan></tspan><tspan style="font-weight:700">Safari</tspan>: 2.5 %</text></g><g style="cursor:pointer"><text x="5" data-z-index="1" y="16" style="color:#fff;font-size:11px;font-weight:700;fill:#fff" transform="translate(71 67)" class="highcharts-label highcharts-data-label highcharts-data-label-color-4"><tspan class="highcharts-text-outline" fill="#000" stroke="#000" stroke-width="2" stroke-linejoin="round"><tspan style="font-weight:700">Internet Explorer</tspan>: 1.7 %<tspan x="5" dy="0">​</tspan></tspan><tspan style="font-weight:700">Internet Explorer</tspan>: 1.7 %</text></g><g style="cursor:pointer"><text x="5" data-z-index="1" y="16" style="color:#fff;font-size:11px;font-weight:700;fill:#fff" transform="translate(189 44)" class="highcharts-label highcharts-data-label highcharts-data-label-color-5"><tspan class="highcharts-text-outline" fill="#000" stroke="#000" stroke-width="2" stroke-linejoin="round"><tspan style="font-weight:700">Other</tspan>: 4.9 %<tspan x="5" dy="0">​</tspan></tspan><tspan style="font-weight:700">Other</tspan>: 4.9 %</text></g></g></svg>