<svg class="highcharts-root" style="font-family:Dosis,sans-serif;font-size:12px" xmlns="http://www.w3.org/2000/svg" width="600" height="400" aria-label="Interactive chart" aria-hidden="false"><defs aria-hidden="true"><clipPath id="a"><circle cx="237.5" cy="164" r="139.4"/></clipPath><clipPath id="b"><circle cx="237.5" cy="164" r="139.4"/></clipPath><clipPath id="c"><circle cx="237.5" cy="164" r="139.4"/></clipPath><clipPath id="d"><circle cx="237.5" cy="164" r="139.4"/></clipPath><clipPath id="e"><circle cx="237.5" cy="164" r="139.4"/></clipPath><clipPath id="f"><circle cx="237.5" cy="164" r="139.4"/></clipPath><clipPath id="g"><circle cx="237.5" cy="164" r="139.4"/></clipPath></defs><rect fill="none" class="highcharts-background" width="600" height="400" rx="0" ry="0" aria-hidden="true"/><path fill="none" class="highcharts-plot-background" aria-hidden="true" d="M10 57h475v328H10z"/><g class="highcharts-grid highcharts-xaxis-grid highcharts-radial-axis-grid" data-z-index="1" aria-hidden="true" fill="none" stroke="#e6e6e6"><path data-z-index="1" class="highcharts-grid-line" d="M247.5 221V81.6m0 139.4 53.346-128.789M247.5 221l98.57-98.57M247.5 221l128.789-53.346M247.5 221h139.4m-139.4 0 128.789 53.346M247.5 221l98.57 98.57M247.5 221l53.346 128.789M247.5 221v139.4m0-139.4-53.346 128.789M247.5 221l-98.57 98.57M247.5 221l-128.789 53.346M247.5 221H108.1m139.4 0-128.789-53.346M247.5 221l-98.57-98.57M247.5 221 194.154 92.211M247.5 221V81.6"/></g><g class="highcharts-grid highcharts-yaxis-grid highcharts-radial-axis-grid" data-z-index="1" aria-hidden="true" fill="none"><path stroke="#f2f2f2" class="highcharts-minor-grid-line" d="M247.5 209.395a11.605 11.605 0 1 1-.012 0M247.5 221"/><path stroke="#f2f2f2" class="highcharts-minor-grid-line" d="M247.5 197.79a23.21 23.21 0 1 1-.023 0M247.5 221"/><path stroke="#f2f2f2" class="highcharts-minor-grid-line" d="M247.5 186.185a34.815 34.815 0 1 1-.035 0M247.5 221"/><path stroke="#f2f2f2" class="highcharts-minor-grid-line" d="M247.5 174.58a46.42 46.42 0 1 1-.046 0M247.5 221"/><path stroke="#f2f2f2" class="highcharts-minor-grid-line" d="M247.5 162.975a58.025 58.025 0 1 1-.058 0M247.5 221"/><path stroke="#f2f2f2" class="highcharts-minor-grid-line" d="M247.5 151.37a69.63 69.63 0 1 1-.07 0m.07 69.63"/><path stroke="#f2f2f2" class="highcharts-minor-grid-line" d="M247.5 139.765a81.235 81.235 0 1 1-.081 0M247.5 221"/><path stroke="#f2f2f2" class="highcharts-minor-grid-line" d="M247.5 128.16a92.84 92.84 0 1 1-.093 0M247.5 221"/><path stroke="#f2f2f2" class="highcharts-minor-grid-line" d="M247.5 116.554a104.446 104.446 0 1 1-.104 0M247.5 221"/><path stroke="#f2f2f2" class="highcharts-minor-grid-line" d="M247.5 104.95a116.05 116.05 0 1 1-.116 0M247.5 221"/><path stroke="#f2f2f2" class="highcharts-minor-grid-line" d="M247.5 93.344a127.656 127.656 0 1 1-.128 0M247.5 221"/><path stroke="#f2f2f2" class="highcharts-minor-grid-line" d="M247.5 81.74a139.26 139.26 0 1 1-.14 0M247.5 221"/><path stroke="#e6e6e6" data-z-index="1" class="highcharts-grid-line" d="M247.5 162.975a58.025 58.025 0 1 1-.058 0M247.5 221"/><path stroke="#e6e6e6" data-z-index="1" class="highcharts-grid-line" d="M247.5 104.95a116.05 116.05 0 1 1-.116 0M247.5 221"/></g><path fill="none" class="highcharts-plot-border" data-z-index="1" aria-hidden="true" d="M10 57h475v328H10z"/><g class="highcharts-axis highcharts-xaxis highcharts-radial-axis" data-z-index="2" aria-hidden="true"><path fill="none" class="highcharts-axis-line" stroke="#ccd6eb" data-z-index="7" d="M247.5 81.6a139.4 139.4 0 1 1-.14 0m.14 139.4"/></g><g class="highcharts-axis highcharts-yaxis highcharts-radial-axis" data-z-index="2" aria-hidden="true"><text x="251.5" data-z-index="7" text-anchor="middle" transform="rotate(90 251.5 151.3)" class="highcharts-axis-title" style="color:#666;text-transform:uppercase;fill:#666" y="151.3">Frequency (%)</text><path fill="none" class="highcharts-axis-line" data-z-index="7" d="M247.5 221V81.6"/></g><g class="highcharts-series-group" data-z-index="3" aria-hidden="false"><g class="highcharts-series highcharts-series-0 highcharts-column-series highcharts-color-0 highcharts-tracker highcharts-dense-data" data-z-index=".1" clip-path="url(#a)" aria-hidden="false" tabindex="-1" aria-label="&amp;lt; 0.5 m/s, bar series 1 of 7 with 16 bars." style="outline:0" fill="#7cb5ec" transform="translate(10 57)"><path d="M234.214 143.253a21.005 21.005 0 0 1 6.551-.003L237.5 164Z" class="highcharts-point highcharts-color-0" tabindex="-1" aria-label="N, 1.81%. &amp;lt; 0.5 m/s." style="outline:0"/><path d="M239.18 157.004a7.195 7.195 0 0 1 2.073.857L237.5 164Z" class="highcharts-point highcharts-color-0" tabindex="-1" aria-label="NNE, 0.62%. &amp;lt; 0.5 m/s." style="outline:0"/><path d="M243.093 156.301a9.516 9.516 0 0 1 2.1 2.098L237.5 164Z" class="highcharts-point highcharts-color-0" tabindex="-1" aria-label="NE, 0.82%. &amp;lt; 0.5 m/s." style="outline:0"/><path d="M243.338 160.422a6.847 6.847 0 0 1 .818 1.973L237.5 164Z" class="highcharts-point highcharts-color-0" tabindex="-1" aria-label="ENE, 0.59%. &amp;lt; 0.5 m/s." style="outline:0"/><path d="M244.607 162.874a7.195 7.195 0 0 1 0 2.244L237.5 164Z" class="highcharts-point highcharts-color-0" tabindex="-1" aria-label="E, 0.62%. &amp;lt; 0.5 m/s." style="outline:0"/><path d="M251.267 167.305a14.158 14.158 0 0 1-1.688 4.08L237.5 164Z" class="highcharts-point highcharts-color-0" tabindex="-1" aria-label="ESE, 1.22%. &amp;lt; 0.5 m/s." style="outline:0"/><path d="M252.616 174.982a18.684 18.684 0 0 1-4.119 4.123L237.5 164Z" class="highcharts-point highcharts-color-0" tabindex="-1" aria-label="SE, 1.61%. &amp;lt; 0.5 m/s." style="outline:0"/><path d="M249.87 184.186a23.674 23.674 0 0 1-6.82 2.829L237.5 164Z" class="highcharts-point highcharts-color-0" tabindex="-1" aria-label="SSE, 2.04%. &amp;lt; 0.5 m/s." style="outline:0"/><path d="M242.329 194.49a30.87 30.87 0 0 1-9.628.004L237.5 164Z" class="highcharts-point highcharts-color-0" tabindex="-1" aria-label="S, 2.66%. &amp;lt; 0.5 m/s." style="outline:0"/><path d="M229.48 197.402a34.351 34.351 0 0 1-9.899-4.095L237.5 164Z" class="highcharts-point highcharts-color-0" tabindex="-1" aria-label="SSW, 2.96%. &amp;lt; 0.5 m/s." style="outline:0"/><path d="M220.242 187.753a29.36 29.36 0 0 1-6.478-6.471L237.5 164Z" class="highcharts-point highcharts-color-0" tabindex="-1" aria-label="SW, 2.53%. &amp;lt; 0.5 m/s." style="outline:0"/><path d="M218.007 175.945a22.862 22.862 0 0 1-2.732-6.586L237.5 164Z" class="highcharts-point highcharts-color-0" tabindex="-1" aria-label="WSW, 1.97%. &amp;lt; 0.5 m/s." style="outline:0"/><path d="M218.702 166.977a19.032 19.032 0 0 1-.003-5.936L237.5 164Z" class="highcharts-point highcharts-color-0" tabindex="-1" aria-label="W, 1.64%. &amp;lt; 0.5 m/s." style="outline:0"/><path d="M222.605 160.424a15.319 15.319 0 0 1 1.826-4.415L237.5 164Z" class="highcharts-point highcharts-color-0" tabindex="-1" aria-label="WNW, 1.32%. &amp;lt; 0.5 m/s." style="outline:0"/><path d="M222.666 153.222a18.336 18.336 0 0 1 4.042-4.045L237.5 164Z" class="highcharts-point highcharts-color-0" tabindex="-1" aria-label="NW, 1.58%. &amp;lt; 0.5 m/s." style="outline:0"/><path d="M228.344 149.059a17.524 17.524 0 0 1 5.048-2.094L237.5 164Z" class="highcharts-point highcharts-color-0" tabindex="-1" aria-label="NNW, 1.51%. &amp;lt; 0.5 m/s." style="outline:0"/></g><g class="highcharts-series highcharts-series-1 highcharts-column-series highcharts-color-1 highcharts-tracker highcharts-dense-data" data-z-index=".1" clip-path="url(#b)" aria-hidden="false" tabindex="-1" aria-label="0.5-2 m/s, bar series 2 of 7 with 16 bars." style="outline:0" fill="#f7a35c" transform="translate(10 57)"><path d="M230.983 122.85a41.662 41.662 0 0 1 12.993-.006l-3.21 20.406a21.005 21.005 0 0 0-6.552.003Z" class="highcharts-point highcharts-color-1" tabindex="-1" aria-label="N, 1.78%. 0.5-2 m/s." style="outline:0"/><path d="M242.133 144.704a19.845 19.845 0 0 1 5.719 2.365l-6.599 10.792a7.195 7.195 0 0 0-2.073-.857Z" class="highcharts-point highcharts-color-1" tabindex="-1" aria-label="NNE, 1.09%. 0.5-2 m/s." style="outline:0"/><path d="M248.687 148.603a19.032 19.032 0 0 1 4.2 4.195l-7.694 5.6a9.516 9.516 0 0 0-2.1-2.097Z" class="highcharts-point highcharts-color-1" tabindex="-1" aria-label="NE, 0.82%. 0.5-2 m/s." style="outline:0"/><path d="M255.41 153.025a21.005 21.005 0 0 1 2.51 6.051l-13.764 3.319a6.847 6.847 0 0 0-.818-1.973Z" class="highcharts-point highcharts-color-1" tabindex="-1" aria-label="ENE, 1.22%. 0.5-2 m/s." style="outline:0"/><path d="M269.823 158.88a32.726 32.726 0 0 1 .005 10.207l-25.22-3.969a7.195 7.195 0 0 0-.001-2.244Z" class="highcharts-point highcharts-color-1" tabindex="-1" aria-label="E, 2.2%. 0.5-2 m/s." style="outline:0"/><path d="M273.949 172.75a37.484 37.484 0 0 1-4.469 10.804l-19.9-12.168a14.158 14.158 0 0 0 1.687-4.08Z" class="highcharts-point highcharts-color-1" tabindex="-1" aria-label="ESE, 2.01%. 0.5-2 m/s." style="outline:0"/><path d="M281.345 195.855a54.196 54.196 0 0 1-11.946 11.958l-20.902-28.708a18.684 18.684 0 0 0 4.119-4.123Z" class="highcharts-point highcharts-color-1" tabindex="-1" aria-label="SE, 3.06%. 0.5-2 m/s." style="outline:0"/><path d="M270.607 218.026a63.364 63.364 0 0 1-18.253 7.572l-9.304-38.583a23.674 23.674 0 0 0 6.82-2.83Z" class="highcharts-point highcharts-color-1" tabindex="-1" aria-label="SSE, 3.42%. 0.5-2 m/s." style="outline:0"/><path d="M250.934 248.82a85.877 85.877 0 0 1-26.783.014l8.55-54.34a30.87 30.87 0 0 0 9.628-.005Z" class="highcharts-point highcharts-color-1" tabindex="-1" aria-label="S, 4.74%. 0.5-2 m/s." style="outline:0"/><path d="M218.265 244.12a82.396 82.396 0 0 1-23.746-9.823l25.062-40.99a34.351 34.351 0 0 0 9.9 4.095Z" class="highcharts-point highcharts-color-1" tabindex="-1" aria-label="SSW, 4.14%. 0.5-2 m/s." style="outline:0"/><path d="M192.889 225.402a75.897 75.897 0 0 1-16.746-16.73l37.62-27.39a29.36 29.36 0 0 0 6.48 6.471Z" class="highcharts-point highcharts-color-1" tabindex="-1" aria-label="SW, 4.01%. 0.5-2 m/s." style="outline:0"/><path d="M191.686 192.075a53.731 53.731 0 0 1-6.42-15.48l30.01-7.236a22.862 22.862 0 0 0 2.731 6.586Z" class="highcharts-point highcharts-color-1" tabindex="-1" aria-label="WSW, 2.66%. 0.5-2 m/s." style="outline:0"/><path d="M199.102 170.082a38.877 38.877 0 0 1-.006-12.125l19.603 3.084a19.032 19.032 0 0 0 .003 5.936Z" class="highcharts-point highcharts-color-1" tabindex="-1" aria-label="W, 1.71%. 0.5-2 m/s." style="outline:0"/><path d="M195.522 153.922a43.17 43.17 0 0 1 5.146-12.442l23.763 14.53a15.319 15.319 0 0 0-1.826 4.414Z" class="highcharts-point highcharts-color-1" tabindex="-1" aria-label="WNW, 2.4%. 0.5-2 m/s." style="outline:0"/><path d="M182.482 124.027a68.006 68.006 0 0 1 14.99-15.005l29.236 40.155a18.336 18.336 0 0 0-4.042 4.045Z" class="highcharts-point highcharts-color-1" tabindex="-1" aria-label="NW, 4.28%. 0.5-2 m/s." style="outline:0"/><path d="M198.026 99.584a75.549 75.549 0 0 1 21.764-9.028l13.602 56.409a17.524 17.524 0 0 0-5.048 2.094Z" class="highcharts-point highcharts-color-1" tabindex="-1" aria-label="NNW, 5%. 0.5-2 m/s." style="outline:0"/></g><g class="highcharts-series highcharts-series-2 highcharts-column-series highcharts-color-2 highcharts-tracker highcharts-dense-data" data-z-index=".1" clip-path="url(#c)" aria-hidden="false" tabindex="-1" aria-label="2-4 m/s, bar series 3 of 7 with 16 bars." style="outline:0" fill="#90ee7e" transform="translate(10 57)"><path d="M230.692 121.017a43.519 43.519 0 0 1 13.573-.007l-.289 1.834a41.662 41.662 0 0 0-12.993.007Z" class="highcharts-point highcharts-color-2" tabindex="-1" aria-label="N, 0.16%. 2-4 m/s." style="outline:0"/><path d="M242.133 144.704a19.845 19.845 0 0 1 5.719 2.365 19.845 19.845 0 0 0-5.72-2.365Z" class="highcharts-point highcharts-color-2" tabindex="-1" aria-label="NNE, 0%. 2-4 m/s." style="outline:0"/><path d="M249.164 147.945a19.845 19.845 0 0 1 4.379 4.375l-.657.478a19.032 19.032 0 0 0-4.2-4.195Z" class="highcharts-point highcharts-color-2" tabindex="-1" aria-label="NE, 0.07%. 2-4 m/s." style="outline:0"/><path d="M256.102 152.6a21.818 21.818 0 0 1 2.608 6.286l-.79.19a21.005 21.005 0 0 0-2.51-6.051Z" class="highcharts-point highcharts-color-2" tabindex="-1" aria-label="ENE, 0.07%. 2-4 m/s." style="outline:0"/><path d="M275.44 157.99a38.413 38.413 0 0 1 .006 11.981l-5.618-.884a32.726 32.726 0 0 0-.005-10.207Z" class="highcharts-point highcharts-color-2" tabindex="-1" aria-label="E, 0.49%. 2-4 m/s." style="outline:0"/><path d="M291.44 176.95a55.472 55.472 0 0 1-6.613 15.987l-15.347-9.383a37.484 37.484 0 0 0 4.469-10.803Z" class="highcharts-point highcharts-color-2" tabindex="-1" aria-label="ESE, 1.55%. 2-4 m/s." style="outline:0"/><path d="M303.596 212.022a81.7 81.7 0 0 1-18.008 18.026l-16.189-22.235a54.196 54.196 0 0 0 11.946-11.958Z" class="highcharts-point highcharts-color-2" tabindex="-1" aria-label="SE, 2.37%. 2-4 m/s." style="outline:0"/><path d="M282.553 237.52a86.226 86.226 0 0 1-24.84 10.303l-5.36-22.225a63.364 63.364 0 0 0 18.254-7.572Z" class="highcharts-point highcharts-color-2" tabindex="-1" aria-label="SSE, 1.97%. 2-4 m/s." style="outline:0"/><path d="M251.715 253.749a90.868 90.868 0 0 1-28.34.014l.776-4.93a85.877 85.877 0 0 0 26.783-.013Z" class="highcharts-point highcharts-color-2" tabindex="-1" aria-label="S, 0.43%. 2-4 m/s." style="outline:0"/><path d="M217.56 247.053a85.413 85.413 0 0 1-24.615-10.182l1.574-2.574a82.396 82.396 0 0 0 23.746 9.822Z" class="highcharts-point highcharts-color-2" tabindex="-1" aria-label="SSW, 0.26%. 2-4 m/s." style="outline:0"/><path d="M184.567 236.856a90.055 90.055 0 0 1-19.87-19.85l11.446-8.333a75.897 75.897 0 0 0 16.746 16.729Z" class="highcharts-point highcharts-color-2" tabindex="-1" aria-label="SW, 1.22%. 2-4 m/s." style="outline:0"/><path d="M172.193 204.02a76.593 76.593 0 0 1-9.152-22.065l22.225-5.36a53.731 53.731 0 0 0 6.42 15.48Z" class="highcharts-point highcharts-color-2" tabindex="-1" aria-label="WSW, 1.97%. 2-4 m/s." style="outline:0"/><path d="M188.556 171.752a49.554 49.554 0 0 1-.007-15.455l10.547 1.66a38.877 38.877 0 0 0 .006 12.125Z" class="highcharts-point highcharts-color-2" tabindex="-1" aria-label="W, 0.92%. 2-4 m/s." style="outline:0"/><path d="M184.35 151.24a54.66 54.66 0 0 1 6.516-15.753l9.802 5.993a43.17 43.17 0 0 0-5.146 12.442Z" class="highcharts-point highcharts-color-2" tabindex="-1" aria-label="WNW, 0.99%. 2-4 m/s." style="outline:0"/><path d="M170.465 115.296a82.86 82.86 0 0 1 18.264-18.283l8.743 12.01a68.006 68.006 0 0 0-14.99 15.004Z" class="highcharts-point highcharts-color-2" tabindex="-1" aria-label="NW, 1.28%. 2-4 m/s." style="outline:0"/><path d="M190.022 86.523a90.868 90.868 0 0 1 26.177-10.859l3.591 14.892a75.549 75.549 0 0 0-21.764 9.028Z" class="highcharts-point highcharts-color-2" tabindex="-1" aria-label="NNW, 1.32%. 2-4 m/s." style="outline:0"/></g><g class="highcharts-series highcharts-series-3 highcharts-column-series highcharts-color-3 highcharts-tracker highcharts-dense-data" data-z-index=".1" clip-path="url(#d)" aria-hidden="false" tabindex="-1" aria-label="4-6 m/s, bar series 4 of 7 with 16 bars." style="outline:0" fill="#7798BF" transform="translate(10 57)"><path d="M230.692 121.017a43.519 43.519 0 0 1 13.573-.007 43.519 43.519 0 0 0-13.573.007Z" class="highcharts-point highcharts-color-3" tabindex="-1" aria-label="N, 0%. 4-6 m/s." style="outline:0"/><path d="M242.133 144.704a19.845 19.845 0 0 1 5.719 2.365 19.845 19.845 0 0 0-5.72-2.365Z" class="highcharts-point highcharts-color-3" tabindex="-1" aria-label="NNE, 0%. 4-6 m/s." style="outline:0"/><path d="M249.164 147.945a19.845 19.845 0 0 1 4.379 4.375 19.845 19.845 0 0 0-4.379-4.375Z" class="highcharts-point highcharts-color-3" tabindex="-1" aria-label="NE, 0%. 4-6 m/s." style="outline:0"/><path d="M256.102 152.6a21.818 21.818 0 0 1 2.608 6.286 21.818 21.818 0 0 0-2.608-6.286Z" class="highcharts-point highcharts-color-3" tabindex="-1" aria-label="ENE, 0%. 4-6 m/s." style="outline:0"/><path d="M275.44 157.99a38.413 38.413 0 0 1 .006 11.981 38.413 38.413 0 0 0-.006-11.98Z" class="highcharts-point highcharts-color-3" tabindex="-1" aria-label="E, 0%. 4-6 m/s." style="outline:0"/><path d="M294.825 177.762a58.954 58.954 0 0 1-7.028 16.99l-2.97-1.815a55.472 55.472 0 0 0 6.612-15.987Z" class="highcharts-point highcharts-color-3" tabindex="-1" aria-label="ESE, 0.3%. 4-6 m/s." style="outline:0"/><path d="M323.688 226.62a106.534 106.534 0 0 1-23.482 23.506l-14.618-20.078a81.7 81.7 0 0 0 18.008-18.026Z" class="highcharts-point highcharts-color-3" tabindex="-1" aria-label="SE, 2.14%. 4-6 m/s." style="outline:0"/><path d="M287.767 246.03a96.206 96.206 0 0 1-27.715 11.495l-2.34-9.702a86.226 86.226 0 0 0 24.84-10.304Z" class="highcharts-point highcharts-color-3" tabindex="-1" aria-label="SSE, 0.86%. 4-6 m/s." style="outline:0"/><path d="M251.715 253.749a90.868 90.868 0 0 1-28.34.014 90.868 90.868 0 0 0 28.34-.014Z" class="highcharts-point highcharts-color-3" tabindex="-1" aria-label="S, 0%. 4-6 m/s." style="outline:0"/><path d="M217.56 247.053a85.413 85.413 0 0 1-24.615-10.182 85.413 85.413 0 0 0 24.616 10.182Z" class="highcharts-point highcharts-color-3" tabindex="-1" aria-label="SSW, 0%. 4-6 m/s." style="outline:0"/><path d="M181.224 241.457a95.742 95.742 0 0 1-21.124-21.104l4.597-3.347a90.055 90.055 0 0 0 19.87 19.85Z" class="highcharts-point highcharts-color-3" tabindex="-1" aria-label="SW, 0.49%. 4-6 m/s." style="outline:0"/><path d="M164.376 208.81a85.761 85.761 0 0 1-10.248-24.706l8.913-2.15a76.593 76.593 0 0 0 9.152 22.066Z" class="highcharts-point highcharts-color-3" tabindex="-1" aria-label="WSW, 0.79%. 4-6 m/s." style="outline:0"/><path d="M171.936 174.384a66.381 66.381 0 0 1-.01-20.703l16.623 2.616a49.554 49.554 0 0 0 .007 15.455Z" class="highcharts-point highcharts-color-3" tabindex="-1" aria-label="W, 1.45%. 4-6 m/s." style="outline:0"/><path d="M166.183 146.878a73.344 73.344 0 0 1 8.743-21.138l15.94 9.747a54.66 54.66 0 0 0-6.516 15.753Z" class="highcharts-point highcharts-color-3" tabindex="-1" aria-label="WNW, 1.61%. 4-6 m/s." style="outline:0"/><path d="M163.33 110.112a91.68 91.68 0 0 1 20.208-20.229l5.191 7.13a82.86 82.86 0 0 0-18.264 18.283Z" class="highcharts-point highcharts-color-3" tabindex="-1" aria-label="NW, 0.76%. 4-6 m/s." style="outline:0"/><path d="M189.234 85.236a92.376 92.376 0 0 1 26.611-11.038l.354 1.466a90.868 90.868 0 0 0-26.177 10.859Z" class="highcharts-point highcharts-color-3" tabindex="-1" aria-label="NNW, 0.13%. 4-6 m/s." style="outline:0"/></g><g class="highcharts-series highcharts-series-4 highcharts-column-series highcharts-color-4 highcharts-tracker highcharts-dense-data" data-z-index=".1" clip-path="url(#e)" aria-hidden="false" tabindex="-1" aria-label="6-8 m/s, bar series 5 of 7 with 16 bars." style="outline:0" fill="#aee" transform="translate(10 57)"><path d="M230.692 121.017a43.519 43.519 0 0 1 13.573-.007 43.519 43.519 0 0 0-13.573.007Z" class="highcharts-point highcharts-color-4" tabindex="-1" aria-label="N, 0%. 6-8 m/s." style="outline:0"/><path d="M242.133 144.704a19.845 19.845 0 0 1 5.719 2.365 19.845 19.845 0 0 0-5.72-2.365Z" class="highcharts-point highcharts-color-4" tabindex="-1" aria-label="NNE, 0%. 6-8 m/s." style="outline:0"/><path d="M249.164 147.945a19.845 19.845 0 0 1 4.379 4.375 19.845 19.845 0 0 0-4.379-4.375Z" class="highcharts-point highcharts-color-4" tabindex="-1" aria-label="NE, 0%. 6-8 m/s." style="outline:0"/><path d="M256.102 152.6a21.818 21.818 0 0 1 2.608 6.286 21.818 21.818 0 0 0-2.608-6.286Z" class="highcharts-point highcharts-color-4" tabindex="-1" aria-label="ENE, 0%. 6-8 m/s." style="outline:0"/><path d="M275.44 157.99a38.413 38.413 0 0 1 .006 11.981 38.413 38.413 0 0 0-.006-11.98Z" class="highcharts-point highcharts-color-4" tabindex="-1" aria-label="E, 0%. 6-8 m/s." style="outline:0"/><path d="M296.292 178.115a60.462 60.462 0 0 1-7.208 17.425l-1.287-.787a58.954 58.954 0 0 0 7.028-16.99Z" class="highcharts-point highcharts-color-4" tabindex="-1" aria-label="ESE, 0.13%. 6-8 m/s." style="outline:0"/><path d="M340.025 238.488a126.727 126.727 0 0 1-27.934 27.962l-11.885-16.324a106.534 106.534 0 0 0 23.482-23.507Z" class="highcharts-point highcharts-color-4" tabindex="-1" aria-label="SE, 1.74%. 6-8 m/s." style="outline:0"/><path d="M290.981 251.273a102.357 102.357 0 0 1-29.487 12.232l-1.442-5.98a96.206 96.206 0 0 0 27.715-11.496Z" class="highcharts-point highcharts-color-4" tabindex="-1" aria-label="SSE, 0.53%. 6-8 m/s." style="outline:0"/><path d="M251.715 253.749a90.868 90.868 0 0 1-28.34.014 90.868 90.868 0 0 0 28.34-.014Z" class="highcharts-point highcharts-color-4" tabindex="-1" aria-label="S, 0%. 6-8 m/s." style="outline:0"/><path d="M217.56 247.053a85.413 85.413 0 0 1-24.615-10.182 85.413 85.413 0 0 0 24.616 10.182Z" class="highcharts-point highcharts-color-4" tabindex="-1" aria-label="SSW, 0%. 6-8 m/s." style="outline:0"/><path d="M180.338 242.677a97.25 97.25 0 0 1-21.458-21.436l1.22-.888a95.742 95.742 0 0 0 21.124 21.104Z" class="highcharts-point highcharts-color-4" tabindex="-1" aria-label="SW, 0.13%. 6-8 m/s." style="outline:0"/><path d="M161.408 210.63a89.243 89.243 0 0 1-10.664-25.71l3.384-.816a85.761 85.761 0 0 0 10.248 24.706Z" class="highcharts-point highcharts-color-4" tabindex="-1" aria-label="WSW, 0.3%. 6-8 m/s." style="outline:0"/><path d="M168.956 174.856a69.398 69.398 0 0 1-.01-21.644l2.98.47a66.381 66.381 0 0 0 .01 20.702Z" class="highcharts-point highcharts-color-4" tabindex="-1" aria-label="W, 0.26%. 6-8 m/s." style="outline:0"/><path d="M162.459 145.984a77.174 77.174 0 0 1 9.2-22.241l3.267 1.997a73.344 73.344 0 0 0-8.743 21.138Z" class="highcharts-point highcharts-color-4" tabindex="-1" aria-label="WNW, 0.33%. 6-8 m/s." style="outline:0"/><path d="M157.133 105.61a99.34 99.34 0 0 1 21.896-21.919l4.509 6.192a91.68 91.68 0 0 0-20.209 20.229Z" class="highcharts-point highcharts-color-4" tabindex="-1" aria-label="NW, 0.66%. 6-8 m/s." style="outline:0"/><path d="M187.839 82.96a95.045 95.045 0 0 1 27.38-11.357l.626 2.595a92.376 92.376 0 0 0-26.611 11.038Z" class="highcharts-point highcharts-color-4" tabindex="-1" aria-label="NNW, 0.23%. 6-8 m/s." style="outline:0"/></g><g class="highcharts-series highcharts-series-5 highcharts-column-series highcharts-color-5 highcharts-tracker highcharts-dense-data" data-z-index=".1" clip-path="url(#f)" aria-hidden="false" tabindex="-1" aria-label="8-10 m/s, bar series 6 of 7 with 16 bars." style="outline:0" fill="#f06" transform="translate(10 57)"><path d="M230.692 121.017a43.519 43.519 0 0 1 13.573-.007 43.519 43.519 0 0 0-13.573.007Z" class="highcharts-point highcharts-color-5" tabindex="-1" aria-label="N, 0%. 8-10 m/s." style="outline:0"/><path d="M242.133 144.704a19.845 19.845 0 0 1 5.719 2.365 19.845 19.845 0 0 0-5.72-2.365Z" class="highcharts-point highcharts-color-5" tabindex="-1" aria-label="NNE, 0%. 8-10 m/s." style="outline:0"/><path d="M249.164 147.945a19.845 19.845 0 0 1 4.379 4.375 19.845 19.845 0 0 0-4.379-4.375Z" class="highcharts-point highcharts-color-5" tabindex="-1" aria-label="NE, 0%. 8-10 m/s." style="outline:0"/><path d="M256.102 152.6a21.818 21.818 0 0 1 2.608 6.286 21.818 21.818 0 0 0-2.608-6.286Z" class="highcharts-point highcharts-color-5" tabindex="-1" aria-label="ENE, 0%. 8-10 m/s." style="outline:0"/><path d="M275.44 157.99a38.413 38.413 0 0 1 .006 11.981 38.413 38.413 0 0 0-.006-11.98Z" class="highcharts-point highcharts-color-5" tabindex="-1" aria-label="E, 0%. 8-10 m/s." style="outline:0"/><path d="M296.292 178.115a60.462 60.462 0 0 1-7.208 17.425 60.462 60.462 0 0 0 7.208-17.425Z" class="highcharts-point highcharts-color-5" tabindex="-1" aria-label="ESE, 0%. 8-10 m/s." style="outline:0"/><path d="M343.686 241.149a131.253 131.253 0 0 1-28.931 28.96l-2.664-3.659a126.727 126.727 0 0 0 27.934-27.962Z" class="highcharts-point highcharts-color-5" tabindex="-1" aria-label="SE, 0.39%. 8-10 m/s." style="outline:0"/><path d="M293.952 256.122a108.043 108.043 0 0 1-31.125 12.91l-1.333-5.527a102.357 102.357 0 0 0 29.487-12.232Z" class="highcharts-point highcharts-color-5" tabindex="-1" aria-label="SSE, 0.49%. 8-10 m/s." style="outline:0"/><path d="M251.715 253.749a90.868 90.868 0 0 1-28.34.014 90.868 90.868 0 0 0 28.34-.014Z" class="highcharts-point highcharts-color-5" tabindex="-1" aria-label="S, 0%. 8-10 m/s." style="outline:0"/><path d="M217.56 247.053a85.413 85.413 0 0 1-24.615-10.182 85.413 85.413 0 0 0 24.616 10.182Z" class="highcharts-point highcharts-color-5" tabindex="-1" aria-label="SSW, 0%. 8-10 m/s." style="outline:0"/><path d="M180.338 242.677a97.25 97.25 0 0 1-21.458-21.436 97.25 97.25 0 0 0 21.458 21.436Z" class="highcharts-point highcharts-color-5" tabindex="-1" aria-label="SW, 0%. 8-10 m/s." style="outline:0"/><path d="M161.408 210.63a89.243 89.243 0 0 1-10.664-25.71 89.243 89.243 0 0 0 10.664 25.71Z" class="highcharts-point highcharts-color-5" tabindex="-1" aria-label="WSW, 0%. 8-10 m/s." style="outline:0"/><path d="M167.81 175.038a70.559 70.559 0 0 1-.011-22.006l1.146.18a69.398 69.398 0 0 0 .011 21.644Z" class="highcharts-point highcharts-color-5" tabindex="-1" aria-label="W, 0.1%. 8-10 m/s." style="outline:0"/><path d="M162.459 145.984a77.174 77.174 0 0 1 9.2-22.241 77.174 77.174 0 0 0-9.2 22.241Z" class="highcharts-point highcharts-color-5" tabindex="-1" aria-label="WNW, 0%. 8-10 m/s." style="outline:0"/><path d="M150.655 100.903a107.347 107.347 0 0 1 23.661-23.685l4.713 6.473a99.34 99.34 0 0 0-21.896 21.919Z" class="highcharts-point highcharts-color-5" tabindex="-1" aria-label="NW, 0.69%. 8-10 m/s." style="outline:0"/><path d="M187.05 81.674a96.554 96.554 0 0 1 27.816-11.538l.354 1.467a95.045 95.045 0 0 0-27.381 11.357Z" class="highcharts-point highcharts-color-5" tabindex="-1" aria-label="NNW, 0.13%. 8-10 m/s." style="outline:0"/></g><g class="highcharts-series highcharts-series-6 highcharts-column-series highcharts-color-6 highcharts-tracker highcharts-dense-data" data-z-index=".1" clip-path="url(#g)" aria-hidden="false" tabindex="-1" aria-label="&amp;gt; 10 m/s, bar series 7 of 7 with 16 bars." style="outline:0" fill="#eae" transform="translate(10 57)"><path d="M230.692 121.017a43.519 43.519 0 0 1 13.573-.007 43.519 43.519 0 0 0-13.573.007Z" class="highcharts-point highcharts-color-6" tabindex="-1" aria-label="N, 0%. &amp;gt; 10 m/s." style="outline:0"/><path d="M242.133 144.704a19.845 19.845 0 0 1 5.719 2.365 19.845 19.845 0 0 0-5.72-2.365Z" class="highcharts-point highcharts-color-6" tabindex="-1" aria-label="NNE, 0%. &amp;gt; 10 m/s." style="outline:0"/><path d="M249.164 147.945a19.845 19.845 0 0 1 4.379 4.375 19.845 19.845 0 0 0-4.379-4.375Z" class="highcharts-point highcharts-color-6" tabindex="-1" aria-label="NE, 0%. &amp;gt; 10 m/s." style="outline:0"/><path d="M256.102 152.6a21.818 21.818 0 0 1 2.608 6.286 21.818 21.818 0 0 0-2.608-6.286Z" class="highcharts-point highcharts-color-6" tabindex="-1" aria-label="ENE, 0%. &amp;gt; 10 m/s." style="outline:0"/><path d="M275.44 157.99a38.413 38.413 0 0 1 .006 11.981 38.413 38.413 0 0 0-.006-11.98Z" class="highcharts-point highcharts-color-6" tabindex="-1" aria-label="E, 0%. &amp;gt; 10 m/s." style="outline:0"/><path d="M296.292 178.115a60.462 60.462 0 0 1-7.208 17.425 60.462 60.462 0 0 0 7.208-17.425Z" class="highcharts-point highcharts-color-6" tabindex="-1" aria-label="ESE, 0%. &amp;gt; 10 m/s." style="outline:0"/><path d="M344.907 242.035a132.762 132.762 0 0 1-29.264 29.294l-.888-1.22a131.253 131.253 0 0 0 28.931-28.96Z" class="highcharts-point highcharts-color-6" tabindex="-1" aria-label="SE, 0.13%. &amp;gt; 10 m/s." style="outline:0"/><path d="M293.952 256.122a108.043 108.043 0 0 1-31.125 12.91 108.043 108.043 0 0 0 31.125-12.91Z" class="highcharts-point highcharts-color-6" tabindex="-1" aria-label="SSE, 0%. &amp;gt; 10 m/s." style="outline:0"/><path d="M251.715 253.749a90.868 90.868 0 0 1-28.34.014 90.868 90.868 0 0 0 28.34-.014Z" class="highcharts-point highcharts-color-6" tabindex="-1" aria-label="S, 0%. &amp;gt; 10 m/s." style="outline:0"/><path d="M217.56 247.053a85.413 85.413 0 0 1-24.615-10.182 85.413 85.413 0 0 0 24.616 10.182Z" class="highcharts-point highcharts-color-6" tabindex="-1" aria-label="SSW, 0%. &amp;gt; 10 m/s." style="outline:0"/><path d="M180.338 242.677a97.25 97.25 0 0 1-21.458-21.436 97.25 97.25 0 0 0 21.458 21.436Z" class="highcharts-point highcharts-color-6" tabindex="-1" aria-label="SW, 0%. &amp;gt; 10 m/s." style="outline:0"/><path d="M161.408 210.63a89.243 89.243 0 0 1-10.664-25.71 89.243 89.243 0 0 0 10.664 25.71Z" class="highcharts-point highcharts-color-6" tabindex="-1" aria-label="WSW, 0%. &amp;gt; 10 m/s." style="outline:0"/><path d="M167.81 175.038a70.559 70.559 0 0 1-.011-22.006 70.559 70.559 0 0 0 .01 22.006Z" class="highcharts-point highcharts-color-6" tabindex="-1" aria-label="W, 0%. &amp;gt; 10 m/s." style="outline:0"/><path d="M162.459 145.984a77.174 77.174 0 0 1 9.2-22.241 77.174 77.174 0 0 0-9.2 22.241Z" class="highcharts-point highcharts-color-6" tabindex="-1" aria-label="WNW, 0%. &amp;gt; 10 m/s." style="outline:0"/><path d="M150.373 100.698a107.695 107.695 0 0 1 23.738-23.762l.205.282a107.347 107.347 0 0 0-23.661 23.685Z" class="highcharts-point highcharts-color-6" tabindex="-1" aria-label="NW, 0.03%. &amp;gt; 10 m/s." style="outline:0"/><path d="M186.626 80.981a97.366 97.366 0 0 1 28.05-11.634l.19.79a96.554 96.554 0 0 0-27.815 11.537Z" class="highcharts-point highcharts-color-6" tabindex="-1" aria-label="NNW, 0.07%. &amp;gt; 10 m/s." style="outline:0"/></g></g><text x="10" class="highcharts-title" data-z-index="4" style="color:#333;font-size:16px;font-weight:700;text-transform:uppercase;fill:#333" y="22" aria-hidden="true">Wind rose for South Shore Met Station, Oregon</text><text x="10" class="highcharts-subtitle" data-z-index="4" style="color:#666;fill:#666" y="42" aria-hidden="true">Source: or.water.usgs.gov</text><g class="highcharts-legend highcharts-no-tooltip" data-z-index="7" transform="translate(497 110)" aria-hidden="true"><rect fill="#F0F0EA" class="highcharts-legend-box" rx="0" ry="0" width="92" height="123"/><g data-z-index="1"><g class="highcharts-legend-item highcharts-column-series highcharts-color-0 highcharts-series-0" data-z-index="1" transform="translate(8 3)"><text x="21" data-z-index="2" y="16" style="color:#333;cursor:pointer;font-size:13px;font-weight:700;fill:#333">&lt; 0.5 m/s</text><rect x="1.5" y="4" width="13" height="13" fill="#7cb5ec" rx="6.5" ry="6.5" class="highcharts-point" data-z-index="3"/></g><g class="highcharts-legend-item highcharts-column-series highcharts-color-1 highcharts-series-1" data-z-index="1" transform="translate(8 19)"><text x="21" y="16" data-z-index="2" style="color:#333;cursor:pointer;font-size:13px;font-weight:700;fill:#333">0.5-2 m/s</text><rect x="1.5" y="4" width="13" height="13" fill="#f7a35c" rx="6.5" ry="6.5" class="highcharts-point" data-z-index="3"/></g><g class="highcharts-legend-item highcharts-column-series highcharts-color-2 highcharts-series-2" data-z-index="1" transform="translate(8 35)"><text x="21" y="16" data-z-index="2" style="color:#333;cursor:pointer;font-size:13px;font-weight:700;fill:#333">2-4 m/s</text><rect x="1.5" y="4" width="13" height="13" fill="#90ee7e" rx="6.5" ry="6.5" class="highcharts-point" data-z-index="3"/></g><g class="highcharts-legend-item highcharts-column-series highcharts-color-3 highcharts-series-3" data-z-index="1" transform="translate(8 51)"><text x="21" y="16" data-z-index="2" style="color:#333;cursor:pointer;font-size:13px;font-weight:700;fill:#333">4-6 m/s</text><rect x="1.5" y="4" width="13" height="13" fill="#7798BF" rx="6.5" ry="6.5" class="highcharts-point" data-z-index="3"/></g><g class="highcharts-legend-item highcharts-column-series highcharts-color-4 highcharts-series-4" data-z-index="1" transform="translate(8 67)"><text x="21" y="16" data-z-index="2" style="color:#333;cursor:pointer;font-size:13px;font-weight:700;fill:#333">6-8 m/s</text><rect x="1.5" y="4" width="13" height="13" fill="#aee" rx="6.5" ry="6.5" class="highcharts-point" data-z-index="3"/></g><g class="highcharts-legend-item highcharts-column-series highcharts-color-5 highcharts-series-5" data-z-index="1" transform="translate(8 83)"><text x="21" y="16" data-z-index="2" style="color:#333;cursor:pointer;font-size:13px;font-weight:700;fill:#333">8-10 m/s</text><rect x="1.5" y="4" width="13" height="13" fill="#f06" rx="6.5" ry="6.5" class="highcharts-point" data-z-index="3"/></g><g class="highcharts-legend-item highcharts-column-series highcharts-color-6 highcharts-series-6" data-z-index="1" transform="translate(8 99)"><text x="21" y="16" data-z-index="2" style="color:#333;cursor:pointer;font-size:13px;font-weight:700;fill:#333">&gt; 10 m/s</text><rect x="1.5" y="4" width="13" height="13" fill="#eae" rx="6.5" ry="6.5" class="highcharts-point" data-z-index="3"/></g></g></g><g class="highcharts-axis-labels highcharts-xaxis-labels highcharts-radial-axis-labels" data-z-index="7" aria-hidden="true"><text x="247.5" style="color:#666;cursor:default;font-size:12px;fill:#666" text-anchor="middle" y="71.85">N</text><text x="306.586" style="color:#666;cursor:default;font-size:12px;fill:#666" y="83.603">NNE</text><text x="356.677" style="color:#666;cursor:default;font-size:12px;fill:#666" y="117.073">NE</text><text x="390.147" style="color:#666;cursor:default;font-size:12px;fill:#666" y="167.164">ENE</text><text x="401.9" style="color:#666;cursor:default;font-size:12px;fill:#666" y="226.25">E</text><text x="390.147" style="color:#666;cursor:default;font-size:12px;fill:#666" y="285.336">ESE</text><text x="356.677" style="color:#666;cursor:default;font-size:12px;fill:#666" y="335.427">SE</text><text x="306.586" style="color:#666;cursor:default;font-size:12px;fill:#666" y="368.897">SSE</text><text x="247.5" style="color:#666;cursor:default;font-size:12px;fill:#666" text-anchor="middle" y="380.65">S</text><text x="188.414" style="color:#666;cursor:default;font-size:12px;fill:#666" text-anchor="end" y="368.897">SSW</text><text x="138.323" style="color:#666;cursor:default;font-size:12px;fill:#666" text-anchor="end" y="335.427">SW</text><text x="104.853" style="color:#666;cursor:default;font-size:12px;fill:#666" text-anchor="end" y="285.336">WSW</text><text x="93.1" style="color:#666;cursor:default;font-size:12px;fill:#666" text-anchor="end" y="226.25">W</text><text x="104.853" style="color:#666;cursor:default;font-size:12px;fill:#666" text-anchor="end" y="167.164">WNW</text><text x="138.323" style="color:#666;cursor:default;font-size:12px;fill:#666" text-anchor="end" y="117.073">NW</text><text x="188.414" style="color:#666;cursor:default;font-size:12px;fill:#666" text-anchor="end" y="83.603">NNW</text></g><g class="highcharts-axis-labels highcharts-yaxis-labels highcharts-radial-axis-labels" data-z-index="7" aria-hidden="true" text-anchor="end"><text x="244.5" style="color:#666;cursor:default;font-size:12px;fill:#666" y="219">0%</text><text x="244.5" style="color:#666;cursor:default;font-size:12px;fill:#666" y="160.975">5%</text><text x="244.5" style="color:#666;cursor:default;font-size:12px;fill:#666" y="102.949">10%</text></g></svg>