<svg class="highcharts-root" style="font-family:Dosis,sans-serif;font-size:12px" xmlns="http://www.w3.org/2000/svg" width="600" height="500" aria-label="Interactive chart" aria-hidden="false"><rect fill="none" class="highcharts-background" width="600" height="500" rx="0" ry="0" aria-hidden="true"/><path fill="none" class="highcharts-plot-background" aria-hidden="true" d="M10 62h580v423H10z"/><path fill="none" class="highcharts-plot-border" data-z-index="1" aria-hidden="true" d="M10 62h580v423H10z"/><g class="highcharts-series-group" data-z-index="3" aria-hidden="false"><g class="highcharts-series highcharts-series-0 highcharts-variablepie-series highcharts-tracker" data-z-index=".1" aria-hidden="false" stroke="#fff" stroke-linejoin="round"><path fill="#7cb5ec" d="M289.97 66.5a145 145 0 0 1 144.417 131.679l-104.257 9.619a40.3 40.3 0 0 0-40.138-36.598Z" transform="translate(10 62)" class="highcharts-point highcharts-color-0" tabindex="-1" aria-label="Spain, y: 505,992, z: 92. countries." style="outline:0"/><path fill="#f7a35c" d="M447.346 197.142a158 158 0 0 1-149.481 172.162l-5.859-117.554a40.3 40.3 0 0 0 38.127-43.912Z" transform="translate(10 62)" class="highcharts-point highcharts-color-1" tabindex="-1" aria-label="France, y: 551,695, z: 119. countries." style="outline:0"/><path fill="#90ee7e" d="M297.756 370.31a159 159 0 0 1-128.688-55.58l90.28-77.065a40.3 40.3 0 0 0 32.618 14.087Z" transform="translate(10 62)" class="highcharts-point highcharts-color-2" tabindex="-1" aria-label="Poland, y: 312,679, z: 121. countries." style="outline:0"/><path fill="#7798BF" d="M164.017 318.824a165.5 165.5 0 0 1-21.074-31.4l111.248-57.436a40.3 40.3 0 0 0 5.132 7.646Z" transform="translate(10 62)" class="highcharts-point highcharts-color-3" tabindex="-1" aria-label="Czech Republic, y: 78,865, z: 136. countries." style="outline:0"/><path fill="#aee" d="M121.086 298.494a190 190 0 0 1-5.685-161.929l137.566 59.041a40.3 40.3 0 0 0 1.205 34.346Z" transform="translate(10 62)" class="highcharts-point highcharts-color-4" tabindex="-1" aria-label="Italy, y: 301,336, z: 200. countries." style="outline:0"/><path fill="#f06" d="M111.343 134.612a194.5 194.5 0 0 1 10.391-20.666l133.402 77.34a40.3 40.3 0 0 0-2.153 4.283Z" transform="translate(10 62)" class="highcharts-point highcharts-color-5" tabindex="-1" aria-label="Switzerland, y: 41,284, z: 213. countries." style="outline:0"/><path fill="#eae" d="M115.78 110.26A201.5 201.5 0 0 1 289.72 10l.224 161.2a40.3 40.3 0 0 0-34.788 20.052Z" transform="translate(10 62)" class="highcharts-point highcharts-color-6" tabindex="-1" aria-label="Germany, y: 357,114, z: 235. countries." style="outline:0"/></g></g><text x="300" text-anchor="middle" class="highcharts-title" data-z-index="4" style="color:#333;font-size:16px;font-weight:700;text-transform:uppercase;fill:#333" y="22" aria-hidden="true">Countries compared by population density and total<tspan dy="19" x="300">​</tspan>area, 2022.</text><g class="highcharts-data-labels highcharts-series-0 highcharts-variablepie-series highcharts-tracker" data-z-index="6" aria-hidden="true"><path fill="none" class="highcharts-data-label-connector highcharts-color-0" stroke="#7cb5ec" d="M422.963 144.234c-5 0-17.133 13.296-21.177 17.728l-4.045 4.432"/><path fill="none" class="highcharts-data-label-connector highcharts-color-1" stroke="#f7a35c" d="M446.938 396.779c-5 0-18.59-11.803-23.12-15.738l-4.53-3.934"/><path fill="none" class="highcharts-data-label-connector highcharts-color-2" stroke="#90ee7e" d="M220.01 446.986c5 0 12.141-16.522 14.522-22.03l2.38-5.507"/><path fill="none" class="highcharts-data-label-connector highcharts-color-3" stroke="#7798BF" d="M132.594 382.332c5 0 19.953-10.02 24.937-13.36l4.985-3.34"/><path fill="none" class="highcharts-data-label-connector highcharts-color-4" stroke="#aee" d="M75.131 281.105c5 0 22.99-.623 28.986-.83l5.997-.207"/><path fill="none" class="highcharts-data-label-connector highcharts-color-5" stroke="#f06" d="M94.469 172.567c5 0 21.078 8.093 26.437 10.79l5.36 2.698"/><path fill="none" class="highcharts-data-label-connector highcharts-color-6" stroke="#eae" d="M179.557 72.838c5 0 13.976 15.602 16.968 20.803l2.992 5.2"/><text x="5" data-z-index="1" y="16" style="color:#fff;font-size:11px;font-weight:700;fill:#fff" transform="translate(428 134)" class="highcharts-label highcharts-data-label highcharts-data-label-color-0"><tspan class="highcharts-text-outline" fill="#000" stroke="#000" stroke-width="2" stroke-linejoin="round">Spain<tspan x="5" dy="0">​</tspan></tspan>Spain</text><text x="5" data-z-index="1" y="16" style="color:#fff;font-size:11px;font-weight:700;fill:#fff" transform="translate(452 387)" class="highcharts-label highcharts-data-label highcharts-data-label-color-1"><tspan class="highcharts-text-outline" fill="#000" stroke="#000" stroke-width="2" stroke-linejoin="round">France<tspan x="5" dy="0">​</tspan></tspan>France</text><text x="5" data-z-index="1" y="16" style="color:#fff;font-size:11px;font-weight:700;fill:#fff" transform="translate(168 437)" class="highcharts-label highcharts-data-label highcharts-data-label-color-2"><tspan class="highcharts-text-outline" fill="#000" stroke="#000" stroke-width="2" stroke-linejoin="round">Poland<tspan x="5" dy="0">​</tspan></tspan>Poland</text><text x="5" data-z-index="1" y="16" style="color:#fff;font-size:11px;font-weight:700;fill:#fff" transform="translate(36 372)" class="highcharts-label highcharts-data-label highcharts-data-label-color-3"><tspan class="highcharts-text-outline" fill="#000" stroke="#000" stroke-width="2" stroke-linejoin="round">Czech Republic<tspan x="5" dy="0">​</tspan></tspan>Czech Republic</text><text x="5" data-z-index="1" y="16" style="color:#fff;font-size:11px;font-weight:700;fill:#fff" transform="translate(38 271)" class="highcharts-label highcharts-data-label highcharts-data-label-color-4"><tspan class="highcharts-text-outline" fill="#000" stroke="#000" stroke-width="2" stroke-linejoin="round">Italy<tspan x="5" dy="0">​</tspan></tspan>Italy</text><text x="5" data-z-index="1" y="16" style="color:#fff;font-size:11px;font-weight:700;fill:#fff" transform="translate(18 163)" class="highcharts-label highcharts-data-label highcharts-data-label-color-5"><tspan class="highcharts-text-outline" fill="#000" stroke="#000" stroke-width="2" stroke-linejoin="round">Switzerland<tspan x="5" dy="0">​</tspan></tspan>Switzerland</text><text x="5" data-z-index="1" y="16" style="color:#fff;font-size:11px;font-weight:700;fill:#fff" transform="translate(117 63)" class="highcharts-label highcharts-data-label highcharts-data-label-color-6"><tspan class="highcharts-text-outline" fill="#000" stroke="#000" stroke-width="2" stroke-linejoin="round">Germany<tspan x="5" dy="0">​</tspan></tspan>Germany</text></g></svg>