<svg class="highcharts-root" style="font-family:Dosis,sans-serif;font-size:12px" xmlns="http://www.w3.org/2000/svg" width="600" height="370" aria-label="Interactive chart" aria-hidden="false"><defs aria-hidden="true"><linearGradient x1="0" x2="0" y1="0" y2="1" id="b"><stop offset="0" stop-color="#7cb5ec"/><stop offset="1" stop-color="#7CB5EC" stop-opacity=".25"/></linearGradient><clipPath id="a"><path fill="none" d="M0 0h535v198H0z"/></clipPath></defs><rect fill="none" class="highcharts-background" width="600" height="370" rx="0" ry="0" aria-hidden="true"/><path fill="none" class="highcharts-plot-background" aria-hidden="true" d="M55 57h535v198H55z"/><g class="highcharts-grid highcharts-xaxis-grid" data-z-index="1" aria-hidden="true" fill="none" stroke="#e6e6e6"><path data-z-index="1" class="highcharts-grid-line" d="M70.5 57v198m87-198v198m88-198v198m87-198v198m88-198v198m87-198v198"/></g><g class="highcharts-grid highcharts-yaxis-grid" data-z-index="1" aria-hidden="true" fill="none"><path stroke="#f2f2f2" class="highcharts-minor-grid-line" d="M55 255.5h535m-535-13h535m-535-13h535m-535-14h535m-535-13h535m-535-13h535m-535-13h535m-535-13h535m-535-14h535m-535-13h535m-535-13h535m-535-13h535m-535-13h535m-535-14h535m-535-13h535"/><path stroke="#e6e6e6" data-z-index="1" class="highcharts-grid-line" d="M55 255.5h535m-535-66h535m-535-66h535m-535-67h535"/></g><path fill="none" class="highcharts-plot-border" data-z-index="1" aria-hidden="true" d="M55 57h535v198H55z"/><g class="highcharts-axis highcharts-xaxis" data-z-index="2" aria-hidden="true" fill="none" stroke="#ccd6eb"><path class="highcharts-tick" d="M70.5 295v10m87-10v10m88-10v10m87-10v10m88-10v10m87-10v10"/><path class="highcharts-axis-line" data-z-index="7" d="M55 295.5h535"/></g><g class="highcharts-axis highcharts-yaxis" data-z-index="2" aria-hidden="true"><text x="23.32" data-z-index="7" text-anchor="middle" transform="rotate(-90 23.32 156)" class="highcharts-axis-title" style="color:#666;text-transform:uppercase;fill:#666" y="156">Wind speed (m/s)</text><path fill="none" class="highcharts-axis-line" data-z-index="7" d="M55 57v198"/></g><g class="highcharts-series-group" data-z-index="3" aria-hidden="false"><g class="highcharts-markers highcharts-series-0 highcharts-windbarb-series highcharts-tracker" data-z-index=".1" aria-hidden="false" tabindex="-1" aria-label="Wind, series 1 of 2 with 24 data points." style="outline:0" fill="none" stroke="#f7a35c" stroke-width="2"><path class="highcharts-point highcharts-color-undefined" d="M0 7h-1.5L0 10l1.5-3H0v-17h4" transform="rotate(-114 124.777 114.457)" tabindex="-1" aria-label="Saturday, Jul 30, 00:00, value: 4.9 m/s, direction: 246 m/s. Wind." style="outline:0"/><path class="highcharts-point highcharts-color-undefined" d="M0 7h-1.5L0 10l1.5-3H0v-17h4" transform="rotate(-118 129.038 109.608)" tabindex="-1" aria-label="Saturday, Jul 30, 01:00, value: 4.1 m/s, direction: 242 m/s. Wind." style="outline:0"/><path class="highcharts-point highcharts-color-undefined" d="M0 7h-1.5L0 10l1.5-3H0v-17h4" transform="rotate(-98 176.883 87.641)" tabindex="-1" aria-label="Saturday, Jul 30, 02:00, value: 3.2 m/s, direction: 262 m/s. Wind." style="outline:0"/><path class="highcharts-point highcharts-color-undefined" d="M0 7h-1.5L0 10l1.5-3H0v-17" transform="rotate(-76 244.284 50.09)" tabindex="-1" aria-label="Saturday, Jul 30, 03:00, value: 1.5 m/s, direction: 284 m/s. Wind." style="outline:0"/><path class="highcharts-point highcharts-color-undefined" d="M0 7h-1.5L0 10l1.5-3H0v-17" transform="rotate(-66 290.96 15.5)" tabindex="-1" aria-label="Saturday, Jul 30, 04:00, value: 1.1 m/s, direction: 294 m/s. Wind." style="outline:0"/><path class="highcharts-point highcharts-color-undefined" d="M0 7h-1.5L0 10l1.5-3H0v-17" transform="rotate(-168 104.616 128.023)" tabindex="-1" aria-label="Saturday, Jul 30, 05:00, value: 0.4 m/s, direction: 192 m/s. Wind." style="outline:0"/><path class="highcharts-point highcharts-color-undefined" d="M0 10a10 10 0 1 1 .01 0Z" transform="rotate(30 -412.056 514.813)" tabindex="-1" aria-label="Saturday, Jul 30, 06:00, value: 0.2 m/s, direction: 30 m/s. Wind." style="outline:0"/><path class="highcharts-point highcharts-color-undefined" d="M0 7h-1.5L0 10l1.5-3H0v-17" transform="rotate(110 15.758 215.95)" tabindex="-1" aria-label="Saturday, Jul 30, 07:00, value: 1.1 m/s, direction: 110 m/s. Wind." style="outline:0"/><path class="highcharts-point highcharts-color-undefined" d="M0 7h-1.5L0 10l1.5-3H0v-17" transform="rotate(112 30.228 220.446)" tabindex="-1" aria-label="Saturday, Jul 30, 08:00, value: 1.4 m/s, direction: 112 m/s. Wind." style="outline:0"/><path class="highcharts-point highcharts-color-undefined" d="M0 7h-1.5L0 10l1.5-3H0v-17" transform="rotate(132 72.69 197.12)" tabindex="-1" aria-label="Saturday, Jul 30, 09:00, value: 2.1 m/s, direction: 132 m/s. Wind." style="outline:0"/><path class="highcharts-point highcharts-color-undefined" d="M0 7h-1.5L0 10l1.5-3H0v-17" transform="rotate(134 86.48 198.983)" tabindex="-1" aria-label="Saturday, Jul 30, 10:00, value: 1.6 m/s, direction: 134 m/s. Wind." style="outline:0"/><path class="highcharts-point highcharts-color-undefined" d="M0 7h-1.5L0 10l1.5-3H0v-17" transform="rotate(128 88.719 213.48)" tabindex="-1" aria-label="Saturday, Jul 30, 11:00, value: 1.5 m/s, direction: 128 m/s. Wind." style="outline:0"/><path class="highcharts-point highcharts-color-undefined" d="M0 7h-1.5L0 10l1.5-3H0v-17" transform="rotate(91 31.597 301.333)" tabindex="-1" aria-label="Saturday, Jul 30, 12:00, value: 0.7 m/s, direction: 91 m/s. Wind." style="outline:0"/><path class="highcharts-point highcharts-color-undefined" d="M0 7h-1.5L0 10l1.5-3H0v-17" transform="rotate(-85 327.71 -56.376)" tabindex="-1" aria-label="Saturday, Jul 30, 13:00, value: 0.7 m/s, direction: 275 m/s. Wind." style="outline:0"/><path class="highcharts-point highcharts-color-undefined" d="M0 7h-1.5L0 10l1.5-3H0v-17" transform="rotate(-19 1010.258 -989.473)" tabindex="-1" aria-label="Saturday, Jul 30, 14:00, value: 0.6 m/s, direction: 341 m/s. Wind." style="outline:0"/><path class="highcharts-point highcharts-color-undefined" d="M0 7h-1.5L0 10l1.5-3H0v-17h4" transform="rotate(-124 272.637 31.41)" tabindex="-1" aria-label="Saturday, Jul 30, 15:00, value: 4.5 m/s, direction: 236 m/s. Wind." style="outline:0"/><path class="highcharts-point highcharts-color-undefined" d="M0 7h-1.5L0 10l1.5-3H0v-17h4" transform="rotate(-119 291.457 13.528)" tabindex="-1" aria-label="Saturday, Jul 30, 16:00, value: 4.9 m/s, direction: 241 m/s. Wind." style="outline:0"/><path class="highcharts-point highcharts-color-undefined" d="M0 7h-1.5L0 10l1.5-3H0v-17h4" transform="rotate(-126 291.459 24.691)" tabindex="-1" aria-label="Saturday, Jul 30, 17:00, value: 3.4 m/s, direction: 234 m/s. Wind." style="outline:0"/><path class="highcharts-point highcharts-color-undefined" d="M0 7h-1.5L0 10l1.5-3H0v-17" transform="rotate(-100 347.712 -57.453)" tabindex="-1" aria-label="Saturday, Jul 30, 18:00, value: 0.7 m/s, direction: 260 m/s. Wind." style="outline:0"/><path class="highcharts-point highcharts-color-undefined" d="M0 7h-1.5L0 10l1.5-3H0v-17" transform="rotate(-86 390.722 -123.377)" tabindex="-1" aria-label="Saturday, Jul 30, 19:00, value: 1.1 m/s, direction: 274 m/s. Wind." style="outline:0"/><path class="highcharts-point highcharts-color-undefined" d="M0 7h-1.5L0 10l1.5-3H0v-17" transform="rotate(-33 718.4 -720.691)" tabindex="-1" aria-label="Saturday, Jul 30, 20:00, value: 0.9 m/s, direction: 327 m/s. Wind." style="outline:0"/><path class="highcharts-point highcharts-color-undefined" d="M0 7h-1.5L0 10l1.5-3H0v-17" transform="rotate(-24 912.03 -1109.905)" tabindex="-1" aria-label="Saturday, Jul 30, 21:00, value: 0.5 m/s, direction: 336 m/s. Wind." style="outline:0"/><path class="highcharts-point highcharts-color-undefined" d="M0 7h-1.5L0 10l1.5-3H0v-17" transform="rotate(-29 807.753 -930.023)" tabindex="-1" aria-label="Saturday, Jul 30, 22:00, value: 0.4 m/s, direction: 331 m/s. Wind." style="outline:0"/><path class="highcharts-point highcharts-color-undefined" d="M0 7h-1.5L0 10l1.5-3H0v-17" transform="rotate(157 259.042 195.894)" tabindex="-1" aria-label="Saturday, Jul 30, 23:00, value: 1.4 m/s, direction: 157 m/s. Wind." style="outline:0"/></g><g class="highcharts-series highcharts-series-1 highcharts-area-series" data-z-index=".1" clip-path="url(#a)" aria-hidden="true" transform="translate(55 57)"><path fill="url(#b)" d="m15.967 36.3 21.872 26.4 21.873 29.7 21.872 56.1 21.873 13.2 21.872 23.1 21.873 6.6 21.872-29.7 21.872-9.9 21.873-23.1 21.872 16.5 21.873 3.3 21.872 26.4h21.873l21.872 3.3 21.873-128.7 21.872-13.2 21.872 49.5 21.873 89.1 21.872-13.2 21.873 6.6 21.872 13.2 21.873 3.3 21.872-33V198H15.967Z" class="highcharts-area" data-z-index="0"/><path fill="none" d="m15.967 36.3 21.872 26.4 21.873 29.7 21.872 56.1 21.873 13.2 21.872 23.1 21.873 6.6 21.872-29.7 21.872-9.9 21.873-23.1 21.872 16.5 21.873 3.3 21.872 26.4h21.873l21.872 3.3 21.873-128.7 21.872-13.2 21.872 49.5 21.873 89.1 21.872-13.2 21.873 6.6 21.872 13.2 21.873 3.3 21.872-33" class="highcharts-graph" data-z-index="1" stroke="#7cb5ec" stroke-width="2" stroke-linejoin="round" stroke-linecap="round"/><path fill="none" d="m15.967 36.3 21.872 26.4 21.873 29.7 21.872 56.1 21.873 13.2 21.872 23.1 21.873 6.6 21.872-29.7 21.872-9.9 21.873-23.1 21.872 16.5 21.873 3.3 21.872 26.4h21.873l21.872 3.3 21.873-128.7 21.872-13.2 21.872 49.5 21.873 89.1 21.872-13.2 21.873 6.6 21.872 13.2 21.873 3.3 21.872-33" data-z-index="2" class="highcharts-tracker-line" stroke-linecap="round" stroke-linejoin="round" stroke="rgba(192,192,192,0.0001)" stroke-width="22"/></g><g class="highcharts-markers highcharts-series-1 highcharts-area-series highcharts-tracker" data-z-index=".1" aria-hidden="false" tabindex="-1" aria-label="Wind speed, series 2 of 2 with 24 data points." style="outline:0" fill="#7cb5ec"><path d="M15 40a4 4 0 1 1 .004 0Z" class="highcharts-point" tabindex="-1" aria-label="Saturday, Jul 30, 00:00, 4.9 m/s. Wind speed." style="outline:0" transform="translate(55 57)"/><path d="M37 67a4 4 0 1 1 .004 0Z" class="highcharts-point" tabindex="-1" aria-label="Saturday, Jul 30, 01:00, 4.1 m/s. Wind speed." style="outline:0" transform="translate(55 57)"/><path d="M59 96a4 4 0 1 1 .004 0Z" class="highcharts-point" tabindex="-1" aria-label="Saturday, Jul 30, 02:00, 3.2 m/s. Wind speed." style="outline:0" transform="translate(55 57)"/><path d="M81 153a4 4 0 1 1 .004 0Z" class="highcharts-point" tabindex="-1" aria-label="Saturday, Jul 30, 03:00, 1.5 m/s. Wind speed." style="outline:0" transform="translate(55 57)"/><path d="M103 166a4 4 0 1 1 .004 0Z" class="highcharts-point" tabindex="-1" aria-label="Saturday, Jul 30, 04:00, 1.1 m/s. Wind speed." style="outline:0" transform="translate(55 57)"/><path d="M125 189a4 4 0 1 1 .004 0Z" class="highcharts-point" tabindex="-1" aria-label="Saturday, Jul 30, 05:00, 0.4 m/s. Wind speed." style="outline:0" transform="translate(55 57)"/><path d="M147 195a4 4 0 1 1 .004 0Z" class="highcharts-point" tabindex="-1" aria-label="Saturday, Jul 30, 06:00, 0.2 m/s. Wind speed." style="outline:0" transform="translate(55 57)"/><path d="M169 166a4 4 0 1 1 .004 0Z" class="highcharts-point" tabindex="-1" aria-label="Saturday, Jul 30, 07:00, 1.1 m/s. Wind speed." style="outline:0" transform="translate(55 57)"/><path d="M190 156a4 4 0 1 1 .004 0Z" class="highcharts-point" tabindex="-1" aria-label="Saturday, Jul 30, 08:00, 1.4 m/s. Wind speed." style="outline:0" transform="translate(55 57)"/><path d="M212 133a4 4 0 1 1 .004 0Z" class="highcharts-point" tabindex="-1" aria-label="Saturday, Jul 30, 09:00, 2.1 m/s. Wind speed." style="outline:0" transform="translate(55 57)"/><path d="M234 149a4 4 0 1 1 .004 0Z" class="highcharts-point" tabindex="-1" aria-label="Saturday, Jul 30, 10:00, 1.6 m/s. Wind speed." style="outline:0" transform="translate(55 57)"/><path d="M256 153a4 4 0 1 1 .004 0Z" class="highcharts-point" tabindex="-1" aria-label="Saturday, Jul 30, 11:00, 1.5 m/s. Wind speed." style="outline:0" transform="translate(55 57)"/><path d="M278 179a4 4 0 1 1 .004 0Z" class="highcharts-point" tabindex="-1" aria-label="Saturday, Jul 30, 12:00, 0.7 m/s. Wind speed." style="outline:0" transform="translate(55 57)"/><path d="M300 179a4 4 0 1 1 .004 0Z" class="highcharts-point" tabindex="-1" aria-label="Saturday, Jul 30, 13:00, 0.7 m/s. Wind speed." style="outline:0" transform="translate(55 57)"/><path d="M322 182a4 4 0 1 1 .004 0Z" class="highcharts-point" tabindex="-1" aria-label="Saturday, Jul 30, 14:00, 0.6 m/s. Wind speed." style="outline:0" transform="translate(55 57)"/><path d="M344 54a4 4 0 1 1 .004 0Z" class="highcharts-point" tabindex="-1" aria-label="Saturday, Jul 30, 15:00, 4.5 m/s. Wind speed." style="outline:0" transform="translate(55 57)"/><path d="M365 40a4 4 0 1 1 .004 0Z" class="highcharts-point" tabindex="-1" aria-label="Saturday, Jul 30, 16:00, 4.9 m/s. Wind speed." style="outline:0" transform="translate(55 57)"/><path d="M387 90a4 4 0 1 1 .004 0Z" class="highcharts-point" tabindex="-1" aria-label="Saturday, Jul 30, 17:00, 3.4 m/s. Wind speed." style="outline:0" transform="translate(55 57)"/><path d="M409 179a4 4 0 1 1 .004 0Z" class="highcharts-point" tabindex="-1" aria-label="Saturday, Jul 30, 18:00, 0.7 m/s. Wind speed." style="outline:0" transform="translate(55 57)"/><path d="M431 166a4 4 0 1 1 .004 0Z" class="highcharts-point" tabindex="-1" aria-label="Saturday, Jul 30, 19:00, 1.1 m/s. Wind speed." style="outline:0" transform="translate(55 57)"/><path d="M453 172a4 4 0 1 1 .004 0Z" class="highcharts-point" tabindex="-1" aria-label="Saturday, Jul 30, 20:00, 0.9 m/s. Wind speed." style="outline:0" transform="translate(55 57)"/><path d="M475 186a4 4 0 1 1 .004 0Z" class="highcharts-point" tabindex="-1" aria-label="Saturday, Jul 30, 21:00, 0.5 m/s. Wind speed." style="outline:0" transform="translate(55 57)"/><path d="M497 189a4 4 0 1 1 .004 0Z" class="highcharts-point" tabindex="-1" aria-label="Saturday, Jul 30, 22:00, 0.4 m/s. Wind speed." style="outline:0" transform="translate(55 57)"/><path d="M519 156a4 4 0 1 1 .004 0Z" class="highcharts-point" tabindex="-1" aria-label="Saturday, Jul 30, 23:00, 1.4 m/s. Wind speed." style="outline:0" transform="translate(55 57)"/></g></g><text x="300" text-anchor="middle" class="highcharts-title" data-z-index="4" style="color:#333;font-size:16px;font-weight:700;text-transform:uppercase;fill:#333" y="22" aria-hidden="true">Observed wind in Vik, 30. July 2022</text><text x="300" text-anchor="middle" class="highcharts-subtitle" data-z-index="4" style="color:#666;fill:#666" y="42" aria-hidden="true">Source: <a target="_blank"><tspan>YR</tspan></a></text><g class="highcharts-legend highcharts-no-tooltip" data-z-index="7" transform="translate(245 328)" aria-hidden="true"><rect fill="#F0F0EA" class="highcharts-legend-box" rx="0" ry="0" width="109" height="27"/><g class="highcharts-legend-item highcharts-area-series highcharts-color-undefined highcharts-series-1" data-z-index="1" transform="translate(8 3)"><text x="21" data-z-index="2" y="16" style="color:#333;cursor:pointer;font-size:13px;font-weight:700;fill:#333">Wind speed</text><rect x="1.5" y="4" width="13" height="13" fill="#7cb5ec" rx="6.5" ry="6.5" class="highcharts-point" data-z-index="3"/></g></g><g class="highcharts-axis-labels highcharts-xaxis-labels" data-z-index="7" aria-hidden="true" text-anchor="middle"><text x="70.967" style="color:#666;cursor:default;font-size:12px;fill:#666" y="315">30. Jul</text><text x="158.457" style="color:#666;cursor:default;font-size:12px;fill:#666" y="315">04:00</text><text x="245.946" style="color:#666;cursor:default;font-size:12px;fill:#666" y="315">08:00</text><text x="333.436" style="color:#666;cursor:default;font-size:12px;fill:#666" y="315">12:00</text><text x="420.926" style="color:#666;cursor:default;font-size:12px;fill:#666" y="315">16:00</text><text x="508.416" style="color:#666;cursor:default;font-size:12px;fill:#666" y="315">20:00</text></g><g class="highcharts-axis-labels highcharts-yaxis-labels" data-z-index="7" aria-hidden="true" text-anchor="end"><text x="40" style="color:#666;cursor:default;font-size:12px;fill:#666" y="260">0</text><text x="40" style="color:#666;cursor:default;font-size:12px;fill:#666" y="194">2</text><text x="40" style="color:#666;cursor:default;font-size:12px;fill:#666" y="128">4</text><text x="40" style="color:#666;cursor:default;font-size:12px;fill:#666" y="62">6</text></g></svg>