<svg class="highcharts-root" style="font-family:Dosis,sans-serif;font-size:12px" xmlns="http://www.w3.org/2000/svg" width="600" height="400" aria-label="Interactive chart" aria-hidden="false"><rect fill="none" class="highcharts-background" width="600" height="400" rx="0" ry="0" aria-hidden="true"/><g stroke-linejoin="round" class="highcharts-3d-frame highcharts-3d-frame-bottom" data-z-index="-1000" aria-hidden="true" fill="none"><path d="m187.363 209.214 341.803 35.505L512.208 257l-351.286-38.062Z"/><path d="m529.38 245.315-17.19 12.478.018-.793 16.958-12.281Z"/><path d="m512.19 257.793-351.869-38.215.601-.64L512.208 257Z"/></g><path d="m184.384 69.392.24.104-27.032 5.167-.628-.036Zm.24.104 2.739 139.718-26.44 9.724-3.33-144.275Zm-24.303 150.082-3.357-144.951.628.036 3.33 144.275Z" class="highcharts-3d-frame highcharts-3d-frame-left" data-z-index="-1000" aria-hidden="true" fill="none"/><g stroke-linejoin="round" class="highcharts-3d-frame highcharts-3d-frame-back" data-z-index="-1000" aria-hidden="true" fill="none"><path d="m184.384 69.392 348.948 18.91-.236.09-348.472-18.896Z"/><path d="m533.332 88.301-3.952 157.014-.214-.596 3.93-156.328Z"/><path d="m184.624 69.496 348.472 18.895-3.93 156.328-341.803-35.505Z"/></g><path fill="none" class="highcharts-plot-background" aria-hidden="true" d="M85 57h505v200H85z"/><g class="highcharts-grid highcharts-xaxis-grid" data-z-index="1" aria-hidden="true" fill="none" stroke="#e6e6e6"><path data-z-index="1" class="highcharts-grid-line" d="m210.333 70.89 2.299 140.95m-25.837 9.9 25.837-9.9m24.203-139.513 1.836 142.217m-25.198 10.088 25.198-10.088m25.167-140.752 1.356 143.507m-24.532 10.279 24.532-10.279m26.161-142.015.858 144.822m-23.835 10.475 23.835-10.475m27.189-143.302.34 146.161m-23.107 10.677 23.107-10.677m28.252-144.61-.199 147.524m-22.345 10.885 22.345-10.885m30.053-145.906-.772 148.948m-21.53 11.104 21.53-11.104m30.516-147.335L406.24 231.95m-20.697 11.326 20.697-11.326m31.692-148.719-1.958 151.808m-19.827 11.553 19.827-11.553M468.885 84.91l-2.587 153.278m-18.916 11.788 18.916-11.788m34.173-151.566-3.241 154.78m-17.965 12.029 17.965-12.03m36.254-152.989-3.938 156.346M512.6 257.042l16.946-12.284M184.317 69.48l2.744 139.703m-26.448 9.721 26.448-9.72"/></g><g class="highcharts-grid highcharts-yaxis-grid" data-z-index="1" aria-hidden="true" fill="none"><path stroke="#f2f2f2" class="highcharts-minor-grid-line" d="m187.37 209.558 341.787 35.544m-368.227-25.81 26.44-9.734m-.176-8.929 342.213 34.504m-368.69-25.056 26.477-9.448m-.188-9.639 342.672 33.377m-369.19-24.238 26.518-9.139m-.176-8.972 343.1 32.326m-369.656-23.476 26.556-8.85m-.177-8.993 343.53 31.27m-370.123-22.71 26.593-8.56m-.19-9.708 343.992 30.125m-370.626-21.88 26.634-8.245m-.177-9.037 344.423 29.057m-371.096-21.104 26.673-7.953m-.178-9.058 344.856 27.983M159.398 152.88l26.71-7.658m-.191-9.778 345.322 26.82m-372.075-19.481 26.753-7.34m-.179-9.102 345.757 25.737m-372.548-18.695 26.791-7.042m-.178-9.123 346.192 24.646M158.73 123.96l26.83-6.742m-.194-9.85 346.663 23.466m-373.534-17.047 26.871-6.419m-.179-9.168 347.1 22.363m-374.01-16.247 26.91-6.117m-.18-9.189 347.54 21.255m-374.49-15.443 26.95-5.813m-.195-9.921 348.014 20.057M157.821 84.572l26.991-5.484m-.195-9.948 348.49 18.852M157.583 74.295l27.033-5.154"/><path stroke="#e6e6e6" data-z-index="1" class="highcharts-grid-line" d="m187.37 209.558 341.787 35.544m-368.227-25.81 26.44-9.734m-.907-46.241 343.992 30.125m-370.626-21.88 26.634-8.245m-.903-46.099 346.192 24.646M158.73 123.96l26.83-6.742m-.943-48.078 348.49 18.852M157.583 74.295l27.033-5.154"/></g><path fill="none" class="highcharts-plot-border" data-z-index="1" aria-hidden="true" d="M85 57h505v200H85z"/><g class="highcharts-axis highcharts-yaxis" data-z-index="2" aria-hidden="true"><text x="114.632" data-z-index="7" text-anchor="middle" transform="rotate(-90 114.632 147.474)" class="highcharts-axis-title" style="color:#666;text-transform:uppercase;fill:#666" y="147.474">NOK (million)</text></g><g class="highcharts-series-group" data-z-index="3" aria-hidden="false"><g class="highcharts-markers highcharts-series-0 highcharts-column-series highcharts-color-0 highcharts-tracker" data-z-index="10" aria-hidden="false" stroke-linejoin="round" stroke="#7cb5ec"><g data-z-index="10600105" class="highcharts-point highcharts-color-0" tabindex="-1" aria-label="Belgium, 16,076 MNOK. Total imports." style="outline:0"><path fill="#7cb5ec" d="m167.819 219.852 13.088 1.42-.307-14.99-13.112-1.352Z" class="highcharts-3d-front" data-z-index="0"/><path fill="#95CEFF" d="m180.6 206.281 9.49-3.425-13-1.32-9.602 3.394Z" class="highcharts-3d-top" data-z-index="0"/><path fill="#639CD3" d="m180.6 206.281.307 14.99 9.469-3.596-.285-14.82Z" class="highcharts-3d-side" data-z-index="0"/></g><g data-z-index="52601395" class="highcharts-point highcharts-color-0" tabindex="-1" aria-label="China, 112,688 MNOK. Total imports." style="outline:0"><path fill="#7cb5ec" d="m194.119 222.704 13.336 1.446-1.86-109.376-13.518-.944Z" class="highcharts-3d-front" data-z-index="0"/><path fill="#95CEFF" d="m205.595 114.774 9.393-2.392-13.4-.921-9.51 2.37Z" class="highcharts-3d-top" data-z-index="0"/><path fill="#639CD3" d="m205.595 114.774 1.86 109.376 9.24-3.665-1.707-108.103Z" class="highcharts-3d-side" data-z-index="0"/></g><g data-z-index="94600425" class="highcharts-point highcharts-color-0" tabindex="-1" aria-label="Denmark, 39,452 MNOK. Total imports." style="outline:0"><path fill="#7cb5ec" d="m220.919 225.61 13.592 1.473-.52-38.645-13.659-1.296Z" class="highcharts-3d-front" data-z-index="0"/><path fill="#95CEFF" d="m233.99 188.438 9.053-3.285-13.536-1.265-9.175 3.254Z" class="highcharts-3d-top" data-z-index="0"/><path fill="#639CD3" d="m233.99 188.438.521 38.645 9.001-3.735-.47-38.195Z" class="highcharts-3d-side" data-z-index="0"/></g><g data-z-index="136599895" class="highcharts-point highcharts-color-0" tabindex="-1" aria-label="Fiji, 0 MNOK. Total imports." style="outline:0"><path fill="#7cb5ec" d="m248.234 228.57 13.855 1.502-13.855-1.502Z" class="highcharts-3d-front" data-z-index="0"/><path fill="#95CEFF" d="m262.089 230.072 8.751-3.806-13.729-1.466-8.877 3.77Z" class="highcharts-3d-top" data-z-index="0"/><path fill="#7CB5EC" d="m262.089 230.072 8.751-3.806Z" class="highcharts-3d-side" data-z-index="0"/></g><g data-z-index="178601155" class="highcharts-point highcharts-color-0" tabindex="-1" aria-label="Germany, 94,352 MNOK. Total imports." style="outline:0"><path fill="#7cb5ec" d="m276.078 231.589 14.126 1.531-.584-94.267-14.296-1.087Z" class="highcharts-3d-front" data-z-index="0"/><path fill="#95CEFF" d="m289.62 138.853 8.601-2.755-14.161-1.061-8.736 2.729Z" class="highcharts-3d-top" data-z-index="0"/><path fill="#639CD3" d="m289.62 138.853.584 94.267 8.49-3.88-.473-93.142Z" class="highcharts-3d-side" data-z-index="0"/></g><g data-z-index="220600305" class="highcharts-point highcharts-color-0" tabindex="-1" aria-label="Netherlands, 30,495 MNOK. Total imports." style="outline:0"><path fill="#7cb5ec" d="m304.468 234.667 14.404 1.561-.075-30.709-14.461-1.416Z" class="highcharts-3d-front" data-z-index="0"/><path fill="#95CEFF" d="m318.797 205.52 8.251-3.59-14.322-1.382-8.39 3.555Z" class="highcharts-3d-top" data-z-index="0"/><path fill="#639CD3" d="m318.797 205.52.075 30.708 8.217-3.956-.041-30.342Z" class="highcharts-3d-side" data-z-index="0"/></g><g data-z-index="262600185" class="highcharts-point highcharts-color-0" tabindex="-1" aria-label="Russia, 21,813 MNOK. Total imports." style="outline:0"><path fill="#7cb5ec" d="m333.419 237.805 14.691 1.593.03-21.902-14.733-1.489Z" class="highcharts-3d-front" data-z-index="0"/><path fill="#95CEFF" d="m348.14 217.496 7.954-3.772-14.588-1.451-8.099 3.734Z" class="highcharts-3d-top" data-z-index="0"/><path fill="#639CD3" d="m348.14 217.496-.03 21.902 7.932-4.035.052-21.639Z" class="highcharts-3d-side" data-z-index="0"/></g><g data-z-index="305601175" class="highcharts-point highcharts-color-0" tabindex="-1" aria-label="Sweden, 95,908 MNOK. Total imports." style="outline:0"><path fill="#7cb5ec" d="m363.659 241.084 14.994 1.625.532-98.603-15.19-1.148Z" class="highcharts-3d-front" data-z-index="0"/><path fill="#95CEFF" d="m379.185 144.106 7.716-2.907-15.035-1.119-7.871 2.878Z" class="highcharts-3d-top" data-z-index="0"/><path fill="#639CD3" d="m379.185 144.106-.532 98.603 7.625-4.118.623-97.392Z" class="highcharts-3d-side" data-z-index="0"/></g><g data-z-index="347600045" class="highcharts-point highcharts-color-0" tabindex="-1" aria-label="Turkey, 11,596 MNOK. Total imports." style="outline:0"><path fill="#7cb5ec" d="m393.798 244.351 15.299 1.659.108-11.536-15.322-1.603Z" class="highcharts-3d-front" data-z-index="0"/><path fill="#95CEFF" d="m409.205 234.474 7.323-4.06-15.164-1.562-7.481 4.02Z" class="highcharts-3d-top" data-z-index="0"/><path fill="#639CD3" d="m409.205 234.474-.108 11.536 7.313-4.202.118-11.394Z" class="highcharts-3d-side" data-z-index="0"/></g><g data-z-index="389600615" class="highcharts-point highcharts-color-0" tabindex="-1" aria-label="United States, 53,771 MNOK. Total imports." style="outline:0"><path fill="#7cb5ec" d="m424.552 247.685 15.613 1.693.758-56.242-15.732-1.416Z" class="highcharts-3d-front" data-z-index="0"/><path fill="#95CEFF" d="m440.923 193.136 7.027-3.587-15.564-1.38-7.195 3.551Z" class="highcharts-3d-top" data-z-index="0"/><path fill="#639CD3" d="m440.923 193.136-.758 56.242 6.986-4.287.799-55.542Z" class="highcharts-3d-side" data-z-index="0"/></g><g data-z-index="473600005" class="highcharts-point highcharts-color-0" tabindex="-1" aria-label="Vietnam, 8,270 MNOK. Total imports." style="outline:0"><path fill="#7cb5ec" d="m487.98 254.562 16.27 1.764.191-8.71-16.29-1.721Z" class="highcharts-3d-front" data-z-index="0"/><path fill="#95CEFF" d="m504.441 247.616 6.29-4.358-16.109-1.676-6.472 4.313Z" class="highcharts-3d-top" data-z-index="0"/><path fill="#639CD3" d="m504.441 247.616-.19 8.71 6.285-4.468.196-8.6Z" class="highcharts-3d-side" data-z-index="0"/></g></g></g><text x="300" text-anchor="middle" class="highcharts-title" data-z-index="4" style="color:#333;font-size:16px;font-weight:700;text-transform:uppercase;fill:#333" y="22" aria-hidden="true">External trade in goods by country, Norway 2021</text><text x="300" text-anchor="middle" class="highcharts-subtitle" data-z-index="4" style="color:#666;fill:#666" y="42" aria-hidden="true">Source: <a target="_blank"><tspan>SSB</tspan></a></text><g class="highcharts-legend highcharts-no-tooltip" data-z-index="7" transform="translate(241 358)" aria-hidden="true"><rect fill="#F0F0EA" class="highcharts-legend-box" rx="0" ry="0" width="118" height="27"/><g class="highcharts-legend-item highcharts-column-series highcharts-color-0 highcharts-series-0" data-z-index="1" transform="translate(8 3)"><text x="21" data-z-index="2" y="16" style="color:#333;cursor:pointer;font-size:13px;font-weight:700;fill:#333">Total imports</text><rect x="1.5" y="4" width="13" height="13" fill="#7cb5ec" rx="6.5" ry="6.5" class="highcharts-point" data-z-index="3"/></g></g><g class="highcharts-axis-labels highcharts-xaxis-labels" data-z-index="7" aria-hidden="true" text-anchor="end"><text x="176.187" transform="matrix(.44167 -.46526 .44167 .56534 -5.175 183.873)" style="color:#666;cursor:default;font-size:16px;fill:#666" y="234.438">Belgium</text><text x="202.716" transform="matrix(.45008 -.46919 .45008 .57117 4.607 196.934)" style="color:#666;cursor:default;font-size:16px;fill:#666" y="237.443">China</text><text x="229.753" transform="matrix(.45874 -.47318 .45874 .57713 14.027 210.418)" style="color:#666;cursor:default;font-size:16px;fill:#666" y="240.506">Denmark</text><text x="257.312" transform="matrix(.46764 -.47724 .46764 .5832 23.05 224.343)" style="color:#666;cursor:default;font-size:16px;fill:#666" y="243.629">Fiji</text><text x="285.408" transform="matrix(.4768 -.48138 .4768 .58942 31.64 238.725)" style="color:#666;cursor:default;font-size:16px;fill:#666" y="246.812">Germany</text><text x="314.058" transform="matrix(.48625 -.48558 .48625 .59576 39.758 253.584)" style="color:#666;cursor:default;font-size:16px;fill:#666" y="250.058">Netherlands</text><text x="343.278" transform="matrix(.49597 -.48986 .49597 .60224 47.359 268.937)" style="color:#666;cursor:default;font-size:16px;fill:#666" y="253.369">Russia</text><text x="373.086" transform="matrix(.50599 -.4942 .50599 .60886 54.399 284.805)" style="color:#666;cursor:default;font-size:16px;fill:#666" y="256.746">Sweden</text><text x="403.498" transform="matrix(.51631 -.49864 .51631 .61563 60.828 301.208)" style="color:#666;cursor:default;font-size:16px;fill:#666" y="260.191">Turkey</text><text x="434.533" transform="matrix(.52695 -.50314 .52695 .62255 66.593 318.17)" style="color:#666;cursor:default;font-size:16px;fill:#666" y="263.707">United States</text><text x="466.212" transform="matrix(.53793 -.50773 .53793 .62962 71.637 335.71)" style="color:#666;cursor:default;font-size:16px;fill:#666" y="267.297">Unspecified</text><text x="498.554" transform="matrix(.54925 -.5124 .54925 .63685 75.898 353.856)" style="color:#666;cursor:default;font-size:16px;fill:#666" y="270.961">Vietnam</text></g><g class="highcharts-axis-labels highcharts-yaxis-labels" data-z-index="7" aria-hidden="true" text-anchor="end"><text x="150.138" style="color:#666;cursor:default;font-size:12px;fill:#666" y="222.476">0</text><text x="148.987" style="color:#666;cursor:default;font-size:12px;fill:#666" y="175.503">50k</text><text x="147.804" style="color:#666;cursor:default;font-size:12px;fill:#666" y="127.224">100k</text><text x="146.606" style="color:#666;cursor:default;font-size:12px;fill:#666" y="78.336">150k</text></g></svg>