<svg class="highcharts-root" style="font-family:Dosis,sans-serif;font-size:12px" xmlns="http://www.w3.org/2000/svg" width="600" height="400" aria-label="Interactive chart" aria-hidden="false"><rect fill="none" class="highcharts-background" width="600" height="400" rx="0" ry="0" aria-hidden="true"/><path d="M42.654 292.533h514.692l6.917 66.358H35.737Zm521.538 66.966H34.897l.84-.608h528.526Z" class="highcharts-3d-frame highcharts-3d-frame-bottom" data-z-index="-1000" aria-hidden="true" fill="none"/><g stroke-linejoin="round" class="highcharts-3d-frame highcharts-3d-frame-left" data-z-index="-1000" aria-hidden="true" fill="none"><path d="m17.594 73.462.89.644-8.299 66.335h-1Z"/><path d="m18.484 74.106 24.17 218.427-6.917 66.358-25.552-218.45Z"/><path d="M34.897 359.499 9.186 140.44h1l25.551 218.45Z"/></g><g stroke-linejoin="round" class="highcharts-3d-frame highcharts-3d-frame-back" data-z-index="-1000" aria-hidden="true" fill="none"><path d="M17.594 73.462h563.841l.081.644H18.484Z"/><path d="M18.484 74.106h563.032l-24.17 218.427H42.654Z"/></g><path fill="none" class="highcharts-plot-background" aria-hidden="true" d="M10 57h580v328H10z"/><path fill="none" class="highcharts-plot-border" data-z-index="1" aria-hidden="true" d="M10 57h580v328H10z"/><g class="highcharts-series-group" data-z-index="3" aria-hidden="false"><g class="highcharts-series highcharts-series-0 highcharts-pie-series highcharts-tracker" data-z-index=".1" style="cursor:pointer" aria-hidden="false"><path fill="#639CD3" d="M452.779 207.314v18.562L300 239.562V221Z" data-z-index="20.164" class="highcharts-point highcharts-color-0"/><path fill="#E6004D" d="M153.558 254.695v18.562L300 239.562V221Z" data-z-index="39.499" class="highcharts-point highcharts-color-5"/><path fill="#639CD3" d="M299.969 112.106v18.561L300 239.562V221Z" data-z-index="143033.846" class="highcharts-point highcharts-color-0"/><path fill="#DE8A43" d="M382.559 312.924v18.562L300 239.562V221Z" data-z-index="143034.836" class="highcharts-point highcharts-color-1"/><path fill="#639CD3" d="M299.969 112.106c78.24-.012 142.977 40.323 152.81 95.208v18.562c-9.833-54.885-74.57-95.22-152.81-95.209ZM300 221v18.562Z" data-z-index="144478.633" class="highcharts-point highcharts-color-0"/><path fill="#E6004D" d="M299.939 112.106v18.561L300 239.562V221Z" data-z-index="186653.509" class="highcharts-point highcharts-color-5"/><path fill="#91D5D5" d="M194.555 300.364v18.562L300 239.562V221Z" data-z-index="186654.499" class="highcharts-point highcharts-color-4"/><path fill="#E6004D" d="M153.558 254.695C148.288 243.241 146 233.045 146 221v18.562c0-60.126 68.908-108.87 153.939-108.895v-18.561C214.909 112.13 146 160.875 146 221v18.562c0 12.044 2.287 22.241 7.558 33.695ZM300 221v18.562Z" data-z-index="188538.898" class="highcharts-point highcharts-color-5"/><path fill="#91D5D5" d="M153.558 254.696v18.562L300 239.562V221Z" data-z-index="236351.509" class="highcharts-point highcharts-color-4"/><path fill="#5E7FA6" d="M271.187 327.972v18.561L300 239.562V221Z" data-z-index="236352.499" class="highcharts-point highcharts-color-3"/><path fill="#91D5D5" d="M194.555 300.364c-19.81-13.16-32.586-27.392-40.997-45.668v18.562c8.411 18.276 21.187 32.508 40.997 45.668ZM300 221v18.562Z" data-z-index="238738.898" class="highcharts-point highcharts-color-4"/><path fill="#DE8A43" d="M452.78 207.316v18.561L300 239.562V221Z" data-z-index="255002.846" class="highcharts-point highcharts-color-1"/><path fill="#77D565" d="M272.189 334.972v18.561L301 246.562V228Z" data-z-index="255003.836" class="highcharts-point highcharts-point-select highcharts-color-2"/><path fill="#DE8A43" d="M454 221c0 38.478-25.506 71.296-71.441 91.924v18.562C428.494 310.858 454 278.039 454 239.562Zm-154 0v18.562Z" data-z-index="257578.633" class="highcharts-point highcharts-color-1"/><path fill="#5E7FA6" d="M194.556 300.365v18.561L300 239.562V221Z" data-z-index="292385.509" class="highcharts-point highcharts-color-3"/><path fill="#77D565" d="M383.558 319.925v18.561L301 246.562V228Z" data-z-index="292386.499" class="highcharts-point highcharts-point-select highcharts-color-2"/><path fill="#5E7FA6" d="M271.187 327.972c-30.104-4.055-54.296-12.77-76.631-27.607v18.561c22.335 14.838 46.527 23.553 76.631 27.607ZM300 221v18.562Z" data-z-index="295338.898" class="highcharts-point highcharts-color-3"/><path fill="#77D565" d="M383.558 319.925c-34.464 15.475-71.265 20.448-111.37 15.047v18.561c40.105 5.401 76.906.429 111.37-15.047ZM301 228v18.562Z" data-z-index="295339.898" class="highcharts-point highcharts-point-select highcharts-color-2"/><g data-z-index="31416026.536" stroke="#7cb5ec" stroke-linejoin="round" tabindex="-1" aria-label="Samsung, 23%. Share." style="outline:0"><path fill="#7cb5ec" d="M299.969 112.106c78.24-.012 142.977 40.323 152.81 95.208L300 221Z" data-z-index="314160.265" class="highcharts-point highcharts-color-0"/></g><g data-z-index="31416026.536" stroke="#f7a35c" stroke-linejoin="round" tabindex="-1" aria-label="Apple, 18%. Share." style="outline:0"><path fill="#f7a35c" d="M452.78 207.316c7.695 42.958-18.526 82.394-70.221 105.608L300 221Z" data-z-index="314160.265" class="highcharts-point highcharts-color-1"/></g><g data-z-index="31416026.536" stroke="#90ee7e" stroke-linejoin="round" tabindex="-1" aria-label="Xiaomi, 12%. Share." style="outline:0"><path fill="#90ee7e" d="M383.558 319.925c-34.464 15.475-71.265 20.448-111.37 15.047L301 228Z" data-z-index="314160.265" class="highcharts-point highcharts-point-select highcharts-color-2"/></g><g data-z-index="31416026.536" stroke="#7798BF" stroke-linejoin="round" tabindex="-1" aria-label="Oppo*, 9%. Share." style="outline:0"><path fill="#7798BF" d="M271.187 327.972c-30.104-4.055-54.296-12.77-76.631-27.607L300 221Z" data-z-index="314160.265" class="highcharts-point highcharts-color-3"/></g><g data-z-index="31416026.536" stroke="#aee" stroke-linejoin="round" tabindex="-1" aria-label="Vivo, 8%. Share." style="outline:0"><path fill="#aee" d="M194.555 300.364c-19.81-13.16-32.586-27.392-40.997-45.668L300 221Z" data-z-index="314160.265" class="highcharts-point highcharts-color-4"/></g><g data-z-index="31416026.536" stroke="#f06" stroke-linejoin="round" tabindex="-1" aria-label="Others, 30%. Share." style="outline:0"><path fill="#f06" d="M153.558 254.695c-26.318-57.19 17.912-118.636 98.79-137.245 16.177-3.722 30.578-5.34 47.59-5.344L300 221Z" data-z-index="314160.265" class="highcharts-point highcharts-color-5"/></g></g></g><text x="300" text-anchor="middle" class="highcharts-title" data-z-index="4" style="color:#333;font-size:16px;font-weight:700;text-transform:uppercase;fill:#333" y="22" aria-hidden="true">Global smartphone shipments market share, Q1 2022</text><text x="300" text-anchor="middle" class="highcharts-subtitle" data-z-index="4" style="color:#666;fill:#666" y="42" aria-hidden="true">Source: <a target="_blank"><tspan>Counterpoint Research</tspan></a></text><g class="highcharts-data-labels highcharts-series-0 highcharts-pie-series highcharts-tracker" data-z-index="6" aria-hidden="true" style="cursor:pointer"><path fill="none" class="highcharts-data-label-connector highcharts-color-0" stroke="#7cb5ec" d="M456.667 116.822c-5 0-46.89 13.502-50.857 18.002l-3.968 4.501"/><path fill="none" class="highcharts-data-label-connector highcharts-color-1" stroke="#f7a35c" d="M479.233 280.152c-5 0-29.032-7.664-34.46-10.22l-5.43-2.554"/><path fill="none" class="highcharts-data-label-connector highcharts-color-2" stroke="#90ee7e" d="M428.454 357.437c-5 0-97.349-17.681-98.473-23.575l-1.124-5.894"/><path fill="none" class="highcharts-data-label-connector highcharts-color-3" stroke="#7798BF" d="M158.836 344.755c5 0 65.802-16.038 68.526-21.384l2.723-5.346"/><path fill="none" class="highcharts-data-label-connector highcharts-color-4" stroke="#aee" d="M126.721 295.42c5 0 33.12-9.646 38.187-12.86l5.065-3.215"/><path fill="none" class="highcharts-data-label-connector highcharts-color-5" stroke="#f06" d="M130.11 139.345c5 0 35.593 10.58 40.447 14.107l4.854 3.526"/><g style="cursor:pointer"><text x="5" data-z-index="1" y="16" style="color:#fff;font-size:11px;font-weight:700;fill:#fff" transform="translate(462 107)" class="highcharts-label highcharts-data-label highcharts-data-label-color-0"><tspan class="highcharts-text-outline" fill="#000" stroke="#000" stroke-width="2" stroke-linejoin="round">Samsung<tspan x="5" dy="0">​</tspan></tspan>Samsung</text></g><g style="cursor:pointer"><text x="5" data-z-index="1" y="16" style="color:#fff;font-size:11px;font-weight:700;fill:#fff" transform="translate(484 270)" class="highcharts-label highcharts-data-label highcharts-data-label-color-1"><tspan class="highcharts-text-outline" fill="#000" stroke="#000" stroke-width="2" stroke-linejoin="round">Apple<tspan x="5" dy="0">​</tspan></tspan>Apple</text></g><g style="cursor:pointer"><text x="5" data-z-index="1" y="16" style="color:#fff;font-size:11px;font-weight:700;fill:#fff" transform="translate(433 347)" class="highcharts-label highcharts-data-label highcharts-data-label-color-2"><tspan class="highcharts-text-outline" fill="#000" stroke="#000" stroke-width="2" stroke-linejoin="round">Xiaomi<tspan x="5" dy="0">​</tspan></tspan>Xiaomi</text></g><g style="cursor:pointer"><text x="5" data-z-index="1" y="16" style="color:#fff;font-size:11px;font-weight:700;fill:#fff" transform="translate(111 335)" class="highcharts-label highcharts-data-label highcharts-data-label-color-3"><tspan class="highcharts-text-outline" fill="#000" stroke="#000" stroke-width="2" stroke-linejoin="round">Oppo*<tspan x="5" dy="0">​</tspan></tspan>Oppo*</text></g><g style="cursor:pointer"><text x="5" data-z-index="1" y="16" style="color:#fff;font-size:11px;font-weight:700;fill:#fff" transform="translate(89 285)" class="highcharts-label highcharts-data-label highcharts-data-label-color-4"><tspan class="highcharts-text-outline" fill="#000" stroke="#000" stroke-width="2" stroke-linejoin="round">Vivo<tspan x="5" dy="0">​</tspan></tspan>Vivo</text></g><g style="cursor:pointer"><text x="5" data-z-index="1" y="16" style="color:#fff;font-size:11px;font-weight:700;fill:#fff" transform="translate(80 129)" class="highcharts-label highcharts-data-label highcharts-data-label-color-5"><tspan class="highcharts-text-outline" fill="#000" stroke="#000" stroke-width="2" stroke-linejoin="round">Others<tspan x="5" dy="0">​</tspan></tspan>Others</text></g></g></svg>