<svg class="highcharts-root" style="font-family:Dosis,sans-serif;font-size:12px" xmlns="http://www.w3.org/2000/svg" width="600" height="400" aria-label="Interactive chart" aria-hidden="false"><defs aria-hidden="true"><clipPath id="a"><path fill="none" d="M0 0h528v292H0z"/></clipPath></defs><rect fill="none" class="highcharts-background" width="600" height="400" rx="0" ry="0" aria-hidden="true"/><path fill="none" class="highcharts-plot-background" aria-hidden="true" d="M62 43h528v292H62z"/><g class="highcharts-grid highcharts-xaxis-grid" data-z-index="1" aria-hidden="true" fill="none" stroke="#e6e6e6"><path data-z-index="1" class="highcharts-grid-line" d="M66.5 43v292m74-292v292m74-292v292m74-292v292m74-292v292m74-292v292m74-292v292m74-292v292"/></g><g class="highcharts-grid highcharts-yaxis-grid" data-z-index="1" aria-hidden="true" fill="none"><path stroke="#f2f2f2" class="highcharts-minor-grid-line" d="M62 335.5h528m-528-19h528m-528-20h528m-528-19h528m-528-20h528m-528-19h528m-528-20h528m-528-19h528m-528-20h528m-528-19h528m-528-20h528m-528-19h528m-528-20h528m-528-19h528m-528-20h528m-528-20h528"/><path stroke="#e6e6e6" data-z-index="1" class="highcharts-grid-line" d="M62 335.5h528m-528-97h528m-528-98h528m-528-98h528"/></g><path fill="none" class="highcharts-plot-border" data-z-index="1" aria-hidden="true" d="M62 43h528v292H62z"/><g class="highcharts-axis highcharts-xaxis" data-z-index="2" aria-hidden="true" fill="none" stroke="#ccd6eb"><path class="highcharts-tick" d="M66.5 335v10m74-10v10m74-10v10m74-10v10m74-10v10m74-10v10m74-10v10m74-10v10"/><path class="highcharts-axis-line" data-z-index="7" d="M62 335.5h528"/></g><g class="highcharts-axis highcharts-yaxis" data-z-index="2" aria-hidden="true"><text x="23.648" data-z-index="7" text-anchor="middle" transform="rotate(-90 23.648 189)" class="highcharts-axis-title" style="color:#666;text-transform:uppercase;fill:#666" y="189">Amount</text><path fill="none" class="highcharts-axis-line" data-z-index="7" d="M62 43v292"/></g><g class="highcharts-series-group" data-z-index="3" aria-hidden="false"><g class="highcharts-series highcharts-series-0 highcharts-area-series highcharts-color-0" data-z-index=".1" clip-path="url(#a)" aria-hidden="true" transform="translate(62 43)"><path fill="rgba(124,181,236,0.5)" d="m5.176 97.333 73.95 19.467 73.95-38.933h73.95l73.949 58.4 73.95-97.334L448.873 58.4l73.95-38.933V292H5.176Z" class="highcharts-area" data-z-index="0"/><path fill="none" d="m5.176 97.333 73.95 19.467 73.95-38.933h73.95l73.949 58.4 73.95-97.334L448.873 58.4l73.95-38.933" class="highcharts-graph" data-z-index="1" stroke="#7cb5ec" stroke-width="2" stroke-linejoin="round" stroke-linecap="round"/><path fill="none" d="m5.176 97.333 73.95 19.467 73.95-38.933h73.95l73.949 58.4 73.95-97.334L448.873 58.4l73.95-38.933" data-z-index="2" class="highcharts-tracker-line" stroke-linecap="round" stroke-linejoin="round" stroke="rgba(192,192,192,0.0001)" stroke-width="22"/></g><g class="highcharts-markers highcharts-series-0 highcharts-area-series highcharts-color-0 highcharts-tracker" data-z-index=".1" aria-hidden="false" tabindex="-1" aria-label="Arvid, series 1 of 2 with 8 data points." style="outline:0" fill="#7cb5ec"><path d="M5 101a4 4 0 1 1 .004 0Z" class="highcharts-point highcharts-color-0" tabindex="-1" aria-label="x, 2014, 10. Arvid." style="outline:0" transform="translate(62 43)"/><path d="M79 121a4 4 0 1 1 .004 0Z" class="highcharts-point highcharts-color-0" tabindex="-1" aria-label="x, 2015, 9. Arvid." style="outline:0" transform="translate(62 43)"/><path d="M153 82a4 4 0 1 1 .004 0Z" class="highcharts-point highcharts-color-0" tabindex="-1" aria-label="x, 2016, 11. Arvid." style="outline:0" transform="translate(62 43)"/><path d="M227 82a4 4 0 1 1 .004 0Z" class="highcharts-point highcharts-color-0" tabindex="-1" aria-label="x, 2017, 11. Arvid." style="outline:0" transform="translate(62 43)"/><path d="M300 140a4 4 0 1 1 .004 0Z" class="highcharts-point highcharts-color-0" tabindex="-1" aria-label="x, 2018, 8. Arvid." style="outline:0" transform="translate(62 43)"/><path d="M374 43a4 4 0 1 1 .004 0Z" class="highcharts-point highcharts-color-0" tabindex="-1" aria-label="x, 2019, 13. Arvid." style="outline:0" transform="translate(62 43)"/><path d="M448 62a4 4 0 1 1 .004 0Z" class="highcharts-point highcharts-color-0" tabindex="-1" aria-label="x, 2020, 12. Arvid." style="outline:0" transform="translate(62 43)"/><path d="M522 23a4 4 0 1 1 .004 0Z" class="highcharts-point highcharts-color-0" tabindex="-1" aria-label="x, 2021, 14. Arvid." style="outline:0" transform="translate(62 43)"/></g><g class="highcharts-series highcharts-series-1 highcharts-area-series highcharts-color-1" data-z-index=".1" clip-path="url(#a)" aria-hidden="true" transform="translate(62 43)"><path fill="rgba(247,163,92,0.5)" d="m5.176 38.933 73.95 77.867 73.95-19.467h73.95l73.949 38.934V292h147.899V136.267l73.95 38.933V292H5.176Z" class="highcharts-area" data-z-index="0"/><path fill="none" d="m5.176 38.933 73.95 77.867 73.95-19.467h73.95l73.949 38.934m147.899 0 73.95 38.933" class="highcharts-graph" data-z-index="1" stroke="#f7a35c" stroke-width="2" stroke-linejoin="round" stroke-linecap="round"/><path fill="none" d="m5.176 38.933 73.95 77.867 73.95-19.467h73.95l73.949 38.934m147.899 0 73.95 38.933" data-z-index="2" class="highcharts-tracker-line" stroke-linecap="round" stroke-linejoin="round" stroke="rgba(192,192,192,0.0001)" stroke-width="22"/></g><g class="highcharts-markers highcharts-series-1 highcharts-area-series highcharts-color-1 highcharts-tracker" data-z-index=".1" aria-hidden="false" tabindex="-1" aria-label="Yasin, series 2 of 2 with 8 data points." style="outline:0" fill="#f7a35c"><path d="m5 35 4 4-4 4-4-4Z" class="highcharts-point highcharts-color-1" tabindex="-1" aria-label="x, 2014, 13. Yasin." style="outline:0" transform="translate(62 43)"/><path d="m79 113 4 4-4 4-4-4Z" class="highcharts-point highcharts-color-1" tabindex="-1" aria-label="x, 2015, 9. Yasin." style="outline:0" transform="translate(62 43)"/><path d="m153 93 4 4-4 4-4-4Z" class="highcharts-point highcharts-color-1" tabindex="-1" aria-label="x, 2016, 10. Yasin." style="outline:0" transform="translate(62 43)"/><path d="m227 93 4 4-4 4-4-4Z" class="highcharts-point highcharts-color-1" tabindex="-1" aria-label="x, 2017, 10. Yasin." style="outline:0" transform="translate(62 43)"/><path d="m300 132 4 4-4 4-4-4Z" class="highcharts-point highcharts-color-1" tabindex="-1" aria-label="x, 2018, 8. Yasin." style="outline:0" transform="translate(62 43)"/><path d="m448 132 4 4-4 4-4-4Z" class="highcharts-point highcharts-color-1" tabindex="-1" aria-label="x, 2020, 8. Yasin." style="outline:0" transform="translate(62 43)"/><path d="m522 171 4 4-4 4-4-4Z" class="highcharts-point highcharts-color-1" tabindex="-1" aria-label="x, 2021, 6. Yasin." style="outline:0" transform="translate(62 43)"/></g></g><text x="300" text-anchor="middle" class="highcharts-title" data-z-index="4" style="color:#333;font-size:16px;font-weight:700;text-transform:uppercase;fill:#333" y="22" aria-hidden="true">Born persons, by boys&apos; name</text><text x="590" text-anchor="end" class="highcharts-subtitle" data-z-index="4" style="color:#666;fill:#666" y="383" aria-hidden="true">* Missing data for Yasin in 2019</text><g class="highcharts-legend highcharts-no-tooltip" data-z-index="7" transform="translate(160 70)" aria-hidden="true"><rect fill="#F0F0EA" class="highcharts-legend-box" rx="0" ry="0" stroke="#999" x=".5" y=".5" width="69" height="42"/><g data-z-index="1"><g class="highcharts-legend-item highcharts-area-series highcharts-color-0 highcharts-series-0" data-z-index="1" transform="translate(8 3)"><text x="21" data-z-index="2" y="16" style="color:#333;cursor:pointer;font-size:13px;font-weight:700;fill:#333">Arvid</text><rect x="1.5" y="4" width="13" height="13" fill="#7cb5ec" rx="6.5" ry="6.5" class="highcharts-point" data-z-index="3"/></g><g class="highcharts-legend-item highcharts-area-series highcharts-color-1 highcharts-series-1" data-z-index="1" transform="translate(8 19)"><text x="21" y="16" data-z-index="2" style="color:#333;cursor:pointer;font-size:13px;font-weight:700;fill:#333">Yasin</text><rect x="1.5" y="4" width="13" height="13" fill="#f7a35c" rx="6.5" ry="6.5" class="highcharts-point" data-z-index="3"/></g></g></g><g class="highcharts-axis-labels highcharts-xaxis-labels" data-z-index="7" aria-hidden="true" text-anchor="middle"><text x="67.176" style="color:#666;cursor:default;font-size:12px;fill:#666" y="355">2014</text><text x="141.126" style="color:#666;cursor:default;font-size:12px;fill:#666" y="355">2015</text><text x="215.076" style="color:#666;cursor:default;font-size:12px;fill:#666" y="355">2016</text><text x="289.025" style="color:#666;cursor:default;font-size:12px;fill:#666" y="355">2017</text><text x="362.975" style="color:#666;cursor:default;font-size:12px;fill:#666" y="355">2018</text><text x="436.924" style="color:#666;cursor:default;font-size:12px;fill:#666" y="355">2019</text><text x="510.874" style="color:#666;cursor:default;font-size:12px;fill:#666" y="355">2020</text><text x="576.652" style="color:#666;cursor:default;font-size:12px;fill:#666" y="355">2021</text></g><g class="highcharts-axis-labels highcharts-yaxis-labels" data-z-index="7" aria-hidden="true" text-anchor="end"><text x="47" style="color:#666;cursor:default;font-size:12px;fill:#666" y="340">0</text><text x="47" style="color:#666;cursor:default;font-size:12px;fill:#666" y="243">5</text><text x="47" style="color:#666;cursor:default;font-size:12px;fill:#666" y="146">10</text><text x="47" style="color:#666;cursor:default;font-size:12px;fill:#666" y="48">15</text></g></svg>