<svg class="highcharts-root" style="font-family:Dosis,sans-serif;font-size:12px" xmlns="http://www.w3.org/2000/svg" width="600" height="900" aria-label="World population by country"><defs><clipPath id="a"><path fill="none" d="M0 0h817v440H0z"/></clipPath></defs><rect fill="none" class="highcharts-background" width="600" height="900" rx="0" ry="0"/><path fill="none" class="highcharts-plot-background" d="M110 68h440v817H110z"/><g class="highcharts-grid highcharts-xaxis-grid" data-z-index="1" fill="none" stroke="#e6e6e6"><path data-z-index="1" class="highcharts-grid-line" d="M110 111.5h440m-440 43h440m-440 43h440m-440 43h440m-440 43h440m-440 43h440m-440 43h440m-440 43h440m-440 43h440m-440 43h440m-440 43h440m-440 43h440m-440 43h440m-440 43h440m-440 43h440m-440 43h440m-440 43h440m-440 43h440m-440 43h440m-440-818h440"/></g><g class="highcharts-grid highcharts-yaxis-grid" data-z-index="1" fill="none"><path stroke="#f2f2f2" class="highcharts-minor-grid-line" d="M109.5 68v817m29-817v817m30-817v817m29-817v817m29-817v817m30-817v817m29-817v817m29-817v817m30-817v817m29-817v817m29-817v817m30-817v817m29-817v817m29-817v817m30-817v817m30-817v817"/><path stroke="#e6e6e6" data-z-index="1" class="highcharts-grid-line" d="M109.5 68v817m147-817v817m146-817v817m148-817v817"/></g><path fill="none" class="highcharts-plot-border" data-z-index="1" d="M110 68h440v817H110z"/><g class="highcharts-axis highcharts-xaxis" data-z-index="2"><path fill="none" class="highcharts-axis-line" stroke="#ccd6eb" data-z-index="7" d="M109.5 68v817"/></g><g class="highcharts-axis highcharts-yaxis" data-z-index="2"><path fill="none" class="highcharts-axis-line" data-z-index="7" d="M110 68h440"/></g><g class="highcharts-series-group" data-z-index="3"><g class="highcharts-series highcharts-series-0 highcharts-bar-series highcharts-tracker" data-z-index=".1" clip-path="url(#a)" transform="matrix(0 -1 -1 0 550 885)"><path fill="#7cb5ec" class="highcharts-point highcharts-color-0" d="M778 50h35v391h-35z"/><path fill="#f7a35c" class="highcharts-point highcharts-color-1" d="M735 177h35v264h-35z"/><path fill="#90ee7e" class="highcharts-point highcharts-color-2" d="M692 335h35v106h-35z"/><path fill="#7798BF" class="highcharts-point highcharts-color-3" d="M649 387h35v54h-35z"/><path fill="#aee" class="highcharts-point highcharts-color-4" d="M606 390h35v51h-35z"/><path fill="#f06" class="highcharts-point highcharts-color-5" d="M563 398h35v43h-35z"/><path fill="#eae" class="highcharts-point highcharts-color-6" d="M520 399h35v42h-35z"/><path fill="#55BF3B" class="highcharts-point highcharts-color-7" d="M477 410h35v31h-35z"/><path fill="#DF5353" class="highcharts-point highcharts-color-8" d="M434 412h35v29h-35z"/><path fill="#7798BF" class="highcharts-point highcharts-color-9" d="M391 413h35v28h-35z"/><path fill="#aee" class="highcharts-point highcharts-color-10" d="M348 414h35v27h-35z"/><path fill="#7cb5ec" class="highcharts-point highcharts-color-0" d="M305 415h35v26h-35z"/><path fill="#f7a35c" class="highcharts-point highcharts-color-1" d="M262 415h35v26h-35z"/><path fill="#90ee7e" class="highcharts-point highcharts-color-2" d="M219 416h35v25h-35z"/><path fill="#7798BF" class="highcharts-point highcharts-color-3" d="M176 419h35v22h-35z"/><path fill="#aee" class="highcharts-point highcharts-color-4" d="M133 422h35v19h-35z"/><path fill="#f06" class="highcharts-point highcharts-color-5" d="M90 423h35v18H90z"/><path fill="#eae" class="highcharts-point highcharts-color-6" d="M47 424h35v17H47z"/><path fill="#55BF3B" class="highcharts-point highcharts-color-7" d="M4 425h35v16H4z"/></g></g><text x="10" class="highcharts-title" data-z-index="4" style="color:#333;font-size:16px;font-weight:700;text-transform:uppercase;fill:#333" y="22">World population by country</text><text x="490" text-anchor="end" class="highcharts-subtitle" data-z-index="4" style="color:#666;fill:#666" y="382"><tspan style="font-size:80px">1960</tspan>
        <tspan class="highcharts-br" dy="15" x="490">​</tspan>
<tspan style="font-size:22px">
            Total: <tspan style="font-weight:700">: 3.03</tspan> billion
        </tspan></text><g class="highcharts-data-labels highcharts-series-0 highcharts-bar-series highcharts-tracker" data-z-index="6"><text x="5" data-z-index="1" y="16" style="color:#fff;font-size:11px;font-weight:700;fill:#fff" transform="translate(500 78)" class="highcharts-label highcharts-data-label highcharts-data-label-color-0"><tspan class="highcharts-text-outline" fill="#000" stroke="#000" stroke-width="2" stroke-linejoin="round">667 070 000<tspan x="5" dy="0">​</tspan></tspan>667 070 000</text><text x="5" data-z-index="1" y="16" style="color:#fff;font-size:11px;font-weight:700;fill:#fff" transform="translate(373 121)" class="highcharts-label highcharts-data-label highcharts-data-label-color-1"><tspan class="highcharts-text-outline" fill="#000" stroke="#000" stroke-width="2" stroke-linejoin="round">450 547 679<tspan x="5" dy="0">​</tspan></tspan>450 547 679</text><text x="5" data-z-index="1" y="16" style="color:#fff;font-size:11px;font-weight:700;fill:#fff" transform="translate(215 164)" class="highcharts-label highcharts-data-label highcharts-data-label-color-2"><tspan class="highcharts-text-outline" fill="#000" stroke="#000" stroke-width="2" stroke-linejoin="round">180 671 000<tspan x="5" dy="0">​</tspan></tspan>180 671 000</text><text x="5" data-z-index="1" y="16" style="color:#fff;font-size:11px;font-weight:700;fill:#fff" transform="translate(163 207)" class="highcharts-label highcharts-data-label highcharts-data-label-color-3"><tspan class="highcharts-text-outline" fill="#000" stroke="#000" stroke-width="2" stroke-linejoin="round">92 500 572<tspan x="5" dy="0">​</tspan></tspan>92 500 572</text><text x="5" data-z-index="1" y="16" style="color:#fff;font-size:11px;font-weight:700;fill:#fff" transform="translate(160 250)" class="highcharts-label highcharts-data-label highcharts-data-label-color-4"><tspan class="highcharts-text-outline" fill="#000" stroke="#000" stroke-width="2" stroke-linejoin="round">87 751 068<tspan x="5" dy="0">​</tspan></tspan>87 751 068</text><text x="5" data-z-index="1" y="16" style="color:#fff;font-size:11px;font-weight:700;fill:#fff" transform="translate(152 293)" class="highcharts-label highcharts-data-label highcharts-data-label-color-5"><tspan class="highcharts-text-outline" fill="#000" stroke="#000" stroke-width="2" stroke-linejoin="round">72 814 900<tspan x="5" dy="0">​</tspan></tspan>72 814 900</text><text x="5" data-z-index="1" y="16" style="color:#fff;font-size:11px;font-weight:700;fill:#fff" transform="translate(151 336)" class="highcharts-label highcharts-data-label highcharts-data-label-color-6"><tspan class="highcharts-text-outline" fill="#000" stroke="#000" stroke-width="2" stroke-linejoin="round">72 179 226<tspan x="5" dy="0">​</tspan></tspan>72 179 226</text><text x="5" data-z-index="1" y="16" style="color:#fff;font-size:11px;font-weight:700;fill:#fff" transform="translate(140 379)" class="highcharts-label highcharts-data-label highcharts-data-label-color-7"><tspan class="highcharts-text-outline" fill="#000" stroke="#000" stroke-width="2" stroke-linejoin="round">52 400 000<tspan x="5" dy="0">​</tspan></tspan>52 400 000</text><text x="5" data-z-index="1" y="16" style="color:#fff;font-size:11px;font-weight:700;fill:#fff" transform="translate(138 422)" class="highcharts-label highcharts-data-label highcharts-data-label-color-8"><tspan class="highcharts-text-outline" fill="#000" stroke="#000" stroke-width="2" stroke-linejoin="round">50 199 700<tspan x="5" dy="0">​</tspan></tspan>50 199 700</text><text x="5" data-z-index="1" y="16" style="color:#fff;font-size:11px;font-weight:700;fill:#fff" transform="translate(137 465)" class="highcharts-label highcharts-data-label highcharts-data-label-color-9"><tspan class="highcharts-text-outline" fill="#000" stroke="#000" stroke-width="2" stroke-linejoin="round">48 013 504<tspan x="5" dy="0">​</tspan></tspan>48 013 504</text><text x="5" data-z-index="1" y="16" style="color:#fff;font-size:11px;font-weight:700;fill:#fff" transform="translate(136 508)" class="highcharts-label highcharts-data-label highcharts-data-label-color-10"><tspan class="highcharts-text-outline" fill="#000" stroke="#000" stroke-width="2" stroke-linejoin="round">46 621 669<tspan x="5" dy="0">​</tspan></tspan>46 621 669</text><text x="5" data-z-index="1" y="16" style="color:#fff;font-size:11px;font-weight:700;fill:#fff" transform="translate(135 551)" class="highcharts-label highcharts-data-label highcharts-data-label-color-0"><tspan class="highcharts-text-outline" fill="#000" stroke="#000" stroke-width="2" stroke-linejoin="round">45 138 458<tspan x="5" dy="0">​</tspan></tspan>45 138 458</text><text x="5" data-z-index="1" y="16" style="color:#fff;font-size:11px;font-weight:700;fill:#fff" transform="translate(135 594)" class="highcharts-label highcharts-data-label highcharts-data-label-color-1"><tspan class="highcharts-text-outline" fill="#000" stroke="#000" stroke-width="2" stroke-linejoin="round">44 988 690<tspan x="5" dy="0">​</tspan></tspan>44 988 690</text><text x="5" data-z-index="1" y="16" style="color:#fff;font-size:11px;font-weight:700;fill:#fff" transform="translate(134 637)" class="highcharts-label highcharts-data-label highcharts-data-label-color-2"><tspan class="highcharts-text-outline" fill="#000" stroke="#000" stroke-width="2" stroke-linejoin="round">42 664 652<tspan x="5" dy="0">​</tspan></tspan>42 664 652</text><text x="5" data-z-index="1" y="16" style="color:#fff;font-size:11px;font-weight:700;fill:#fff" transform="translate(131 680)" class="highcharts-label highcharts-data-label highcharts-data-label-color-3"><tspan class="highcharts-text-outline" fill="#000" stroke="#000" stroke-width="2" stroke-linejoin="round">37 771 859<tspan x="5" dy="0">​</tspan></tspan>37 771 859</text><text x="5" data-z-index="1" y="16" style="color:#fff;font-size:11px;font-weight:700;fill:#fff" transform="translate(128 723)" class="highcharts-label highcharts-data-label highcharts-data-label-color-4"><tspan class="highcharts-text-outline" fill="#000" stroke="#000" stroke-width="2" stroke-linejoin="round">32 670 039<tspan x="5" dy="0">​</tspan></tspan>32 670 039</text><text x="5" data-z-index="1" y="16" style="color:#fff;font-size:11px;font-weight:700;fill:#fff" transform="translate(127 766)" class="highcharts-label highcharts-data-label highcharts-data-label-color-5"><tspan class="highcharts-text-outline" fill="#000" stroke="#000" stroke-width="2" stroke-linejoin="round">30 455 000<tspan x="5" dy="0">​</tspan></tspan>30 455 000</text><text x="5" data-z-index="1" y="16" style="color:#fff;font-size:11px;font-weight:700;fill:#fff" transform="translate(126 809)" class="highcharts-label highcharts-data-label highcharts-data-label-color-6"><tspan class="highcharts-text-outline" fill="#000" stroke="#000" stroke-width="2" stroke-linejoin="round">29 637 450<tspan x="5" dy="0">​</tspan></tspan>29 637 450</text><text x="5" data-z-index="1" y="16" style="color:#fff;font-size:11px;font-weight:700;fill:#fff" transform="translate(125 852)" class="highcharts-label highcharts-data-label highcharts-data-label-color-7"><tspan class="highcharts-text-outline" fill="#000" stroke="#000" stroke-width="2" stroke-linejoin="round">27 472 345<tspan x="5" dy="0">​</tspan></tspan>27 472 345</text></g><g class="highcharts-axis-labels highcharts-xaxis-labels" data-z-index="7" text-anchor="end"><text x="95" style="color:#666;cursor:default;font-size:12px;fill:#666" y="95">China</text><text x="95" style="color:#666;cursor:default;font-size:12px;fill:#666" y="138">India</text><text x="95" style="color:#666;cursor:default;font-size:12px;fill:#666" y="181">United States</text><text x="95" style="color:#666;cursor:default;font-size:12px;fill:#666" y="224">Japan</text><text x="95" style="color:#666;cursor:default;font-size:12px;fill:#666" y="267">Indonesia</text><text x="95" style="color:#666;cursor:default;font-size:12px;fill:#666" y="310">Germany</text><text x="95" style="color:#666;cursor:default;font-size:12px;fill:#666" y="353">Brazil</text><text x="95" style="color:#666;cursor:default;font-size:12px;fill:#666" y="396">United Kingdom</text><text x="95" style="color:#666;cursor:default;font-size:12px;fill:#666" y="439">Italy</text><text x="95" style="color:#666;cursor:default;font-size:12px;fill:#666" y="482">Bangladesh</text><text x="95" style="color:#666;cursor:default;font-size:12px;fill:#666" y="525">France</text><text x="95" style="color:#666;cursor:default;font-size:12px;fill:#666" y="568">Nigeria</text><text x="95" style="color:#666;cursor:default;font-size:12px;fill:#666" y="611">Pakistan</text><text x="95" style="color:#666;cursor:default;font-size:12px;fill:#666" y="654">Ukraine</text><text x="95" style="color:#666;cursor:default;font-size:12px;fill:#666" y="697">Mexico</text><text x="95" style="color:#666;cursor:default;font-size:12px;fill:#666" y="740">Vietnam</text><text x="95" style="color:#666;cursor:default;font-size:12px;fill:#666" y="783">Spain</text><text x="95" style="color:#666;cursor:default;font-size:12px;fill:#666" y="826">Poland</text><text x="95" style="color:#666;cursor:default;font-size:12px;fill:#666" y="869">Turkey</text></g><g class="highcharts-axis-labels highcharts-yaxis-labels" data-z-index="7" text-anchor="middle"><text x="110" style="color:#666;cursor:default;font-size:12px;fill:#666" y="55">0</text><text x="256.667" y="55" style="color:#666;cursor:default;font-size:12px;fill:#666">250M</text><text x="403.333" y="55" style="color:#666;cursor:default;font-size:12px;fill:#666">500M</text><text x="550" y="55" style="color:#666;cursor:default;font-size:12px;fill:#666">750M</text></g></svg>