<svg class="highcharts-root" style="font-family:Dosis,sans-serif;font-size:12px" xmlns="http://www.w3.org/2000/svg" width="600" height="200" aria-label="Interactive chart" aria-hidden="false"><defs aria-hidden="true"><linearGradient x1="0" y1="0" x2="0" y2="1" id="a"><stop offset="0" stop-color="#FFF4C6"/><stop offset=".3" stop-color="#FFF"/><stop offset="1" stop-color="#FFF4C6"/></linearGradient><clipPath id="b"><path fill="none" d="M0 0h580v142H0z"/></clipPath></defs><rect fill="none" class="highcharts-background" width="600" height="200" rx="0" ry="0" aria-hidden="true"/><path fill="url(#a)" class="highcharts-plot-background" aria-hidden="true" d="M10 43h580v142H10z"/><g class="highcharts-plot-bands-0" data-z-index="0" aria-hidden="true"><path fill="#C02316" class="highcharts-plot-band" d="M219.64 105.276a157.5 157.5 0 0 1 46.618 32.143l-5.298 5.309a150 150 0 0 0-44.398-30.613Z"/></g><g class="highcharts-plot-bands-0" data-z-index="0" aria-hidden="true"><path fill="#C02316" class="highcharts-plot-band" d="M509.64 105.276a157.5 157.5 0 0 1 46.618 32.143l-5.298 5.309a150 150 0 0 0-44.398-30.613Z"/></g><g class="highcharts-grid highcharts-yaxis-grid highcharts-radial-axis-grid" data-z-index="1" aria-hidden="true" fill="none"><path class="highcharts-minor-grid-line" d="M155 248.9 48.934 142.834M155 248.9 62.492 130.822M155 248.9 77.4 120.533M155 248.9 93.438 112.115M155 248.9l-44.625-143.208M155 248.9l-27.038-147.543M155 248.9l-9.057-149.726M155 248.9l9.057-149.726M155 248.9l27.038-147.543M155 248.9l44.625-143.208M155 248.9l61.562-136.785M155 248.9l77.6-128.367M155 248.9l92.508-118.078M155 248.9l106.066-106.066"/><path data-z-index="1" class="highcharts-grid-line" d="M155 248.9 48.934 142.834M155 248.9l-27.038-147.543M155 248.9l61.562-136.785"/></g><g class="highcharts-grid highcharts-yaxis-grid highcharts-radial-axis-grid" data-z-index="1" aria-hidden="true" fill="none"><path class="highcharts-minor-grid-line" d="M445 248.9 338.934 142.834M445 248.9l-92.508-118.078M445 248.9l-77.6-128.367M445 248.9l-61.562-136.785M445 248.9l-44.625-143.208M445 248.9l-27.038-147.543M445 248.9l-9.057-149.726M445 248.9l9.057-149.726M445 248.9l27.038-147.543M445 248.9l44.625-143.208M445 248.9l61.562-136.785M445 248.9l77.6-128.367M445 248.9l92.508-118.078M445 248.9l106.066-106.066"/><path data-z-index="1" class="highcharts-grid-line" d="M445 248.9 338.934 142.834M445 248.9l-27.038-147.543M445 248.9l61.562-136.785"/></g><path fill="none" class="highcharts-plot-border" data-z-index="1" stroke="#ccc" aria-hidden="true" d="M9.5 42.5h581v143H9.5z"/><g class="highcharts-axis highcharts-yaxis highcharts-radial-axis" data-z-index="2" aria-hidden="true"><path fill="none" class="highcharts-minor-tick" stroke="#999" d="m48.934 142.834-7.071-7.071m20.629-4.941-6.167-7.871m21.075-2.418-5.174-8.558m21.212.14-4.104-9.119m21.041 2.696-2.975-9.547m20.562 5.212-1.803-9.836m19.784 7.653-.604-9.982m18.718 9.982.604-9.982m17.377 12.165 1.803-9.836m15.784 14.171 2.975-9.547m13.962 15.97 4.104-9.119m11.934 17.537 5.174-8.558m9.734 18.847 6.167-7.871m7.391 19.883 7.071-7.071"/><path fill="none" class="highcharts-tick" stroke="#ccd6eb" stroke-width="2" d="m48.934 142.834-7.071-7.071m86.099-34.406-1.803-9.836m90.403 20.594 4.104-9.119"/><text x="155" data-z-index="7" text-anchor="middle" class="highcharts-axis-title" style="color:#666;text-transform:uppercase;fill:#666" y="133.9">VU<tspan class="highcharts-br" dy="11" x="155">​</tspan><tspan style="font-size:8px">Channel A</tspan></text><path fill="none" class="highcharts-axis-line" stroke="#ccd6eb" data-z-index="7" d="M48.934 142.834a150 150 0 0 1 212.026-.106M155 248.9"/></g><g class="highcharts-axis highcharts-yaxis highcharts-radial-axis" data-z-index="2" aria-hidden="true"><path fill="none" class="highcharts-minor-tick" stroke="#999" d="m338.934 142.834-7.071-7.071m20.629-4.941-6.167-7.871m21.075-2.418-5.174-8.558m21.212.14-4.104-9.119m21.041 2.696-2.975-9.547m20.562 5.212-1.803-9.836m19.784 7.653-.604-9.982m18.718 9.982.604-9.982m17.377 12.165 1.803-9.836m15.784 14.171 2.975-9.547m13.962 15.97 4.104-9.119m11.934 17.537 5.174-8.558m9.734 18.847 6.167-7.871m7.391 19.883 7.071-7.071"/><path fill="none" class="highcharts-tick" stroke="#ccd6eb" stroke-width="2" d="m338.934 142.834-7.071-7.071m86.099-34.406-1.803-9.836m90.403 20.594 4.104-9.119"/><text x="445" data-z-index="7" text-anchor="middle" class="highcharts-axis-title" style="color:#666;text-transform:uppercase;fill:#666" y="133.9">VU<tspan class="highcharts-br" dy="11" x="445">​</tspan><tspan style="font-size:8px">Channel B</tspan></text><path fill="none" class="highcharts-axis-line" stroke="#ccd6eb" data-z-index="7" d="M338.934 142.834a150 150 0 0 1 212.026-.106M445 248.9"/></g><g class="highcharts-series-group" data-z-index="3" aria-hidden="false"><g class="highcharts-series highcharts-series-0 highcharts-gauge-series highcharts-color-0 highcharts-tracker" data-z-index=".1" clip-path="url(#b)" aria-hidden="false" tabindex="-1" aria-label="Channel A, series 1 of 2 with 1 data point. Y axis, VUChannel A." style="outline:0" transform="translate(10 43)"><path d="M-15-1.5h120l45 1v1l-45 1H-15Z" transform="rotate(-124.838 126.278 65.078)" data-z-index="1" class="highcharts-dial" tabindex="-1" aria-label="-17.064286142148738. Channel A." style="outline:0"/><circle r="5" data-z-index="2" class="highcharts-pivot" transform="translate(145 205.9)"/></g><g class="highcharts-series highcharts-series-1 highcharts-gauge-series highcharts-color-1 highcharts-tracker" data-z-index=".1" clip-path="url(#b)" aria-hidden="false" tabindex="-1" aria-label="Channel B, series 2 of 2 with 1 data point. Y axis, VUChannel B." style="outline:0" transform="translate(10 43)"><path d="M-15-1.5h120l45 1v1l-45 1H-15Z" transform="rotate(-123.861 272.4 -13.035)" data-z-index="1" class="highcharts-dial" tabindex="-1" aria-label="-16.782102728422913. Channel B." style="outline:0"/><circle r="5" data-z-index="2" class="highcharts-pivot" transform="translate(435 205.9)"/></g></g><text x="300" text-anchor="middle" class="highcharts-title" data-z-index="4" style="color:#333;font-size:16px;font-weight:700;text-transform:uppercase;fill:#333" y="22" aria-hidden="true">VU meter</text><g class="highcharts-axis-labels highcharts-yaxis-labels highcharts-radial-axis-labels" data-z-index="7" aria-hidden="true" text-anchor="middle"><text x="34.792" style="color:#666;cursor:default;font-size:12px;fill:#666" transform="rotate(-45 34.792 128.692)" y="128.692">-20</text><text x="124.357" style="color:#666;cursor:default;font-size:12px;fill:#666" transform="rotate(-10.385 124.357 81.685)" y="81.685">-10</text><text x="224.77" style="color:#666;cursor:default;font-size:12px;fill:#666" transform="rotate(24.231 224.77 93.877)" y="93.877">0</text></g><g class="highcharts-axis-labels highcharts-yaxis-labels highcharts-radial-axis-labels" data-z-index="7" aria-hidden="true" text-anchor="middle"><text x="324.792" style="color:#666;cursor:default;font-size:12px;fill:#666" transform="rotate(-45 324.792 128.692)" y="128.692">-20</text><text x="414.357" style="color:#666;cursor:default;font-size:12px;fill:#666" transform="rotate(-10.385 414.357 81.685)" y="81.685">-10</text><text x="514.77" style="color:#666;cursor:default;font-size:12px;fill:#666" transform="rotate(24.231 514.77 93.877)" y="93.877">0</text></g></svg>