<svg class="highcharts-root" style="font-family:Dosis,sans-serif;font-size:12px" xmlns="http://www.w3.org/2000/svg" width="600" height="660" aria-label="Interactive chart" aria-hidden="false"><defs aria-hidden="true"><clipPath id="a"><path fill="none" d="M0 0h580v593H0z"/></clipPath></defs><rect fill="none" class="highcharts-background" width="600" height="660" rx="0" ry="0" aria-hidden="true"/><path fill="none" class="highcharts-plot-background" aria-hidden="true" d="M10 52h580v593H10z"/><g class="highcharts-pane-group" data-z-index="0" aria-hidden="true"><path fill="rgba(124,181,236,0.3)" d="M300 72.42a276.08 276.08 0 1 1-.276 0m.06 59.16a216.92 216.92 0 1 0 .216 0" class="highcharts-pane"/><path fill="rgba(247,163,92,0.3)" d="M300 134.045a214.455 214.455 0 1 1-.214 0m.059 59.16a155.295 155.295 0 1 0 .155 0" class="highcharts-pane"/><path fill="rgba(144,238,126,0.3)" d="M300 195.67a152.83 152.83 0 1 1-.153 0m.06 59.16a93.67 93.67 0 1 0 .093 0" class="highcharts-pane"/></g><path fill="none" class="highcharts-plot-border" data-z-index="1" aria-hidden="true" d="M10 52h580v593H10z"/><g class="highcharts-axis highcharts-yaxis highcharts-radial-axis" data-z-index="2" aria-hidden="true"><path fill="none" class="highcharts-axis-line" data-z-index="7" d="M300 102a246.5 246.5 0 1 1-.246 0M300 348.5"/></g><g class="highcharts-series-group" data-z-index="3" aria-hidden="false"><g class="highcharts-series highcharts-series-0 highcharts-solidgauge-series highcharts-tracker" data-z-index=".1" clip-path="url(#a)" aria-hidden="false" tabindex="-1" aria-label="Move, series 1 of 3 with 1 data point." style="outline:0" transform="translate(10 52)"><path fill="#7cb5ec" d="M290 20.42A276.08 276.08 0 1 1 27.347 211.45a29.58 29.58 0 1 1 56.283 18.224A216.92 216.92 0 1 0 290 79.58a29.58 29.58 0 1 1 0-59.16" class="highcharts-point highcharts-color-0" tabindex="-1" aria-label="80%. Move." style="outline:0"/></g><g class="highcharts-series highcharts-series-1 highcharts-solidgauge-series highcharts-tracker" data-z-index=".1" clip-path="url(#a)" aria-hidden="false" tabindex="-1" aria-label="Exercise, series 2 of 3 with 1 data point." style="outline:0" transform="translate(10 52)"><path fill="#f7a35c" d="M290 82.045a214.455 214.455 0 1 1-173.372 340.682 29.58 29.58 0 1 1 47.827-34.821A155.295 155.295 0 1 0 290 141.205a29.58 29.58 0 1 1 0-59.16" class="highcharts-point highcharts-color-0" tabindex="-1" aria-label="65%. Exercise." style="outline:0"/></g><g class="highcharts-series highcharts-series-2 highcharts-solidgauge-series highcharts-tracker" data-z-index=".1" clip-path="url(#a)" aria-hidden="false" tabindex="-1" aria-label="Stand, series 3 of 3 with 1 data point." style="outline:0" transform="translate(10 52)"><path fill="#90ee7e" d="M290 143.67a152.83 152.83 0 0 1 .153 305.66 29.58 29.58 0 1 1-.06-59.16A93.67 93.67 0 0 0 290 202.83a29.58 29.58 0 1 1 0-59.16" class="highcharts-point highcharts-color-0" tabindex="-1" aria-label="50%. Stand." style="outline:0"/><path fill="none" d="M282 50h16m-8-8 8 8-8 8" stroke="#303030" stroke-linecap="round" stroke-linejoin="round" stroke-width="2" data-z-index="10"/><path fill="none" d="M282 111.625h16m-8-8 8 8-8 8m8-16 8 8-8 8" stroke="#fff" stroke-linecap="round" stroke-linejoin="round" stroke-width="2" data-z-index="10"/><path fill="none" d="M290 181.25v-16m-8 8 8-8 8 8" stroke="#303030" stroke-linecap="round" stroke-linejoin="round" stroke-width="2" data-z-index="10"/></g></g><text x="300" text-anchor="middle" class="highcharts-title" data-z-index="4" style="color:#333;font-size:24px;font-weight:700;text-transform:uppercase;fill:#333" y="30" aria-hidden="true">Activity</text></svg>