<svg class="highcharts-root" style="font-family:Dosis,sans-serif;font-size:12px" xmlns="http://www.w3.org/2000/svg" width="600" height="400" aria-label="Interactive chart" aria-hidden="false"><rect fill="none" class="highcharts-background" width="600" height="400" rx="0" ry="0" aria-hidden="true"/><path fill="none" class="highcharts-plot-background" aria-hidden="true" d="M10 43h580v342H10z"/><path fill="none" class="highcharts-plot-border" data-z-index="1" aria-hidden="true" d="M10 43h580v342H10z"/><g class="highcharts-series-group" data-z-index="3" aria-hidden="false"><g class="highcharts-series highcharts-series-0 highcharts-pie-series highcharts-tracker" data-z-index=".1" style="cursor:pointer" aria-hidden="false" stroke="#fff" stroke-linejoin="round"><path fill="#7cb5ec" d="M289.97 41a145.5 145.5 0 1 1-140.406 183.55L290 186.5Z" transform="translate(18 49)" class="highcharts-point highcharts-point-select highcharts-color-0" tabindex="-1" aria-label="Chrome, 70.67%. Brands." style="outline:0"/><path fill="#f7a35c" d="M149.526 224.41A145.5 145.5 0 0 1 175.54 96.671L290 186.5Z" transform="translate(10 43)" class="highcharts-point highcharts-color-1" tabindex="-1" aria-label="Edge, 14.77%. Brands." style="outline:0"/><path fill="#90ee7e" d="M175.63 96.557a145.5 145.5 0 0 1 32.288-30.194L290 186.5Z" transform="translate(10 43)" class="highcharts-point highcharts-color-2" tabindex="-1" aria-label="Firefox, 4.86%. Brands." style="outline:0"/><path fill="#7798BF" d="M208.038 66.281a145.5 145.5 0 0 1 20.727-11.768L290 186.5Z" transform="translate(10 43)" class="highcharts-point highcharts-color-3" tabindex="-1" aria-label="Safari, 2.63%. Brands." style="outline:0"/><path fill="#aee" d="M228.897 54.452a145.5 145.5 0 0 1 12.939-5.249L290 186.5Z" transform="translate(10 43)" class="highcharts-point highcharts-color-4" tabindex="-1" aria-label="Internet Explorer, 1.53%. Brands." style="outline:0"/><path fill="#f06" d="M241.973 49.155A145.5 145.5 0 0 1 254.09 45.5l35.91 141Z" transform="translate(10 43)" class="highcharts-point highcharts-color-5" tabindex="-1" aria-label="Opera, 1.4%. Brands." style="outline:0"/><path fill="#eae" d="M254.23 45.465a145.5 145.5 0 0 1 7.379-1.668L290 186.5Z" transform="translate(10 43)" class="highcharts-point highcharts-color-6" tabindex="-1" aria-label="Sogou Explorer, 0.84%. Brands." style="outline:0"/><path fill="#55BF3B" d="M261.751 43.769a145.5 145.5 0 0 1 4.438-.807L290 186.5Z" transform="translate(10 43)" class="highcharts-point highcharts-color-7" tabindex="-1" aria-label="QQ, 0.51%. Brands." style="outline:0"/><path fill="#DF5353" d="M266.333 42.938A145.5 145.5 0 0 1 289.798 41L290 186.5Z" transform="translate(10 43)" class="highcharts-point highcharts-color-8" tabindex="-1" aria-label="Other, 2.6%. Brands." style="outline:0"/></g></g><text x="300" text-anchor="middle" class="highcharts-title" data-z-index="4" style="color:#333;font-size:16px;font-weight:700;text-transform:uppercase;fill:#333" y="22" aria-hidden="true">Browser market shares in May, 2020</text><g class="highcharts-data-labels highcharts-series-0 highcharts-pie-series highcharts-tracker" data-z-index="6" style="cursor:pointer" aria-hidden="true"><path fill="none" class="highcharts-data-label-connector highcharts-color-0" stroke="#7cb5ec" d="M444.33 336.212c-5 0-19.29-10.945-24.054-14.593l-4.763-3.649"/><path fill="none" class="highcharts-data-label-connector highcharts-color-1" stroke="#f7a35c" d="M123.043 194.412c5 0 22.637 3.599 28.516 4.798l5.879 1.2"/><path fill="none" class="highcharts-data-label-connector highcharts-color-2" stroke="#90ee7e" d="M131.198 166.5c5 0 61.255-52.065 65.352-47.681l4.097 4.383"/><path fill="none" class="highcharts-data-label-connector highcharts-color-3" stroke="#7798BF" d="M141.736 144c5 0 80.568-51.502 83.528-46.283l2.96 5.219"/><path fill="none" class="highcharts-data-label-connector highcharts-color-4" stroke="#aee" d="M156.666 121.5c5 0 84.191-37.974 86.444-32.413l2.253 5.561"/><path fill="none" class="highcharts-data-label-connector highcharts-color-5" stroke="#f06" d="M177.654 99c5 0 76.898-20.3 78.629-14.555l1.731 5.744"/><path fill="none" class="highcharts-data-label-connector highcharts-color-6" stroke="#eae" d="M209.028 76.5c5 0 56.26-.627 57.582 5.225l1.323 5.853"/><path fill="none" class="highcharts-data-label-connector highcharts-color-8" stroke="#DF5353" d="M280.654 54c5 0 6.471 18.527 6.962 24.507l.49 5.98"/><g style="cursor:pointer"><text x="5" data-z-index="1" y="16" style="color:#fff;font-size:11px;font-weight:700;fill:#fff" transform="translate(449 326)" class="highcharts-label highcharts-data-label highcharts-data-label-color-0"><tspan class="highcharts-text-outline" fill="#000" stroke="#000" stroke-width="2" stroke-linejoin="round"><tspan style="font-weight:700">Chrome</tspan>: 70.8 %<tspan x="5" dy="0">​</tspan></tspan><tspan style="font-weight:700">Chrome</tspan>: 70.8 %</text></g><g style="cursor:pointer"><text x="5" data-z-index="1" y="16" style="color:#fff;font-size:11px;font-weight:700;fill:#fff" transform="translate(40 184)" class="highcharts-label highcharts-data-label highcharts-data-label-color-1"><tspan class="highcharts-text-outline" fill="#000" stroke="#000" stroke-width="2" stroke-linejoin="round"><tspan style="font-weight:700">Edge</tspan>: 14.8 %<tspan x="5" dy="0">​</tspan></tspan><tspan style="font-weight:700">Edge</tspan>: 14.8 %</text></g><g style="cursor:pointer"><text x="5" data-z-index="1" y="16" style="color:#fff;font-size:11px;font-weight:700;fill:#fff" transform="translate(45 157)" class="highcharts-label highcharts-data-label highcharts-data-label-color-2"><tspan class="highcharts-text-outline" fill="#000" stroke="#000" stroke-width="2" stroke-linejoin="round"><tspan style="font-weight:700">Firefox</tspan>: 4.9 %<tspan x="5" dy="0">​</tspan></tspan><tspan style="font-weight:700">Firefox</tspan>: 4.9 %</text></g><g style="cursor:pointer"><text x="5" data-z-index="1" y="16" style="color:#fff;font-size:11px;font-weight:700;fill:#fff" transform="translate(61 134)" class="highcharts-label highcharts-data-label highcharts-data-label-color-3"><tspan class="highcharts-text-outline" fill="#000" stroke="#000" stroke-width="2" stroke-linejoin="round"><tspan style="font-weight:700">Safari</tspan>: 2.6 %<tspan x="5" dy="0">​</tspan></tspan><tspan style="font-weight:700">Safari</tspan>: 2.6 %</text></g><g style="cursor:pointer"><text x="5" data-z-index="1" y="16" style="color:#fff;font-size:11px;font-weight:700;fill:#fff" transform="translate(19 112)" class="highcharts-label highcharts-data-label highcharts-data-label-color-4"><tspan class="highcharts-text-outline" fill="#000" stroke="#000" stroke-width="2" stroke-linejoin="round"><tspan style="font-weight:700">Internet Explorer</tspan>: 1.5 %<tspan x="5" dy="0">​</tspan></tspan><tspan style="font-weight:700">Internet Explorer</tspan>: 1.5 %</text></g><g style="cursor:pointer"><text x="5" data-z-index="1" y="16" style="color:#fff;font-size:11px;font-weight:700;fill:#fff" transform="translate(96 89)" class="highcharts-label highcharts-data-label highcharts-data-label-color-5"><tspan class="highcharts-text-outline" fill="#000" stroke="#000" stroke-width="2" stroke-linejoin="round"><tspan style="font-weight:700">Opera</tspan>: 1.4 %<tspan x="5" dy="0">​</tspan></tspan><tspan style="font-weight:700">Opera</tspan>: 1.4 %</text></g><g style="cursor:pointer"><text x="5" data-z-index="1" y="16" style="color:#fff;font-size:11px;font-weight:700;fill:#fff" transform="translate(77 67)" class="highcharts-label highcharts-data-label highcharts-data-label-color-6"><tspan class="highcharts-text-outline" fill="#000" stroke="#000" stroke-width="2" stroke-linejoin="round"><tspan style="font-weight:700">Sogou Explorer</tspan>: 0.8 %<tspan x="5" dy="0">​</tspan></tspan><tspan style="font-weight:700">Sogou Explorer</tspan>: 0.8 %</text></g><g style="cursor:pointer"><text x="5" data-z-index="1" y="16" style="color:#fff;font-size:11px;font-weight:700;fill:#fff" transform="translate(201 44)" class="highcharts-label highcharts-data-label highcharts-data-label-color-8"><tspan class="highcharts-text-outline" fill="#000" stroke="#000" stroke-width="2" stroke-linejoin="round"><tspan style="font-weight:700">Other</tspan>: 2.6 %<tspan x="5" dy="0">​</tspan></tspan><tspan style="font-weight:700">Other</tspan>: 2.6 %</text></g></g></svg>