<svg class="highcharts-root" style="font-family:Dosis,sans-serif;font-size:12px" xmlns="http://www.w3.org/2000/svg" width="600" height="400" aria-label="Interactive chart" aria-hidden="false"><rect fill="none" class="highcharts-background" width="600" height="400" rx="0" ry="0" aria-hidden="true"/><path fill="none" class="highcharts-plot-background" aria-hidden="true" d="M10 57h580v328H10z"/><path fill="none" class="highcharts-plot-border" data-z-index="1" aria-hidden="true" d="M10 57h580v328H10z"/><g class="highcharts-series-group" data-z-index="3" aria-hidden="false"><g class="highcharts-series highcharts-series-0 highcharts-pie-series highcharts-tracker" data-z-index=".1" aria-hidden="false" stroke="#fff" stroke-linejoin="round"><path fill="#7cb5ec" d="M289.97 31a143.5 143.5 0 1 1-95.794 250.317L290 174.5Z" transform="translate(10 57)" class="highcharts-point highcharts-color-0 highcharts-drilldown-point" style="cursor:pointer;outline:0" tabindex="-1" aria-label="Chrome, 61.04%. Browsers."/><path fill="#f7a35c" d="M194.069 281.221a143.5 143.5 0 0 1-43.504-72.807L290 174.5Z" transform="translate(10 57)" class="highcharts-point highcharts-color-1 highcharts-drilldown-point" style="cursor:pointer;outline:0" tabindex="-1" aria-label="Safari, 9.47%. Browsers."/><path fill="#90ee7e" d="M150.531 208.275a143.5 143.5 0 0 1 4.837-83.44L290 174.5Z" transform="translate(10 57)" class="highcharts-point highcharts-color-2 highcharts-drilldown-point" style="cursor:pointer;outline:0" tabindex="-1" aria-label="Edge, 9.32%. Browsers."/><path fill="#7798BF" d="M155.418 124.7a143.5 143.5 0 0 1 42.094-59.919L290 174.5Z" transform="translate(10 57)" class="highcharts-point highcharts-color-3 highcharts-drilldown-point" style="cursor:pointer;outline:0" tabindex="-1" aria-label="Firefox, 8.15%. Browsers."/><path fill="#aee" d="M197.622 64.689A143.5 143.5 0 0 1 289.8 31l.2 143.5Z" transform="translate(10 57)" class="highcharts-point highcharts-color-4" tabindex="-1" aria-label="Other, 11.02%. Browsers." style="outline:0"/></g></g><text x="300" text-anchor="middle" class="highcharts-title" data-z-index="4" style="color:#333;font-size:16px;font-weight:700;text-transform:uppercase;fill:#333" y="22" aria-hidden="true">Browser market shares. January, 2022</text><text x="300" text-anchor="middle" class="highcharts-subtitle" data-z-index="4" style="color:#666;fill:#666" y="42" aria-hidden="true">Click the slices to view versions. Source: <a target="_blank"><tspan>statcounter.com</tspan></a></text><g class="highcharts-data-labels highcharts-series-0 highcharts-pie-series highcharts-tracker" data-z-index="6" aria-hidden="true"><path fill="none" class="highcharts-data-label-connector highcharts-color-0" stroke="#7cb5ec" d="M466.996 293.625c-5 0-21.807-6.445-27.409-8.593l-5.602-2.149"/><path fill="none" class="highcharts-data-label-connector highcharts-color-1" stroke="#f7a35c" d="M145.999 320.387c5 0 20.458-9.222 25.61-12.296l5.154-3.074"/><path fill="none" class="highcharts-data-label-connector highcharts-color-2" stroke="#90ee7e" d="M121.796 221.375c5 0 22.969 1.05 28.959 1.4l5.99.35"/><path fill="none" class="highcharts-data-label-connector highcharts-color-3" stroke="#7798BF" d="M153.067 131.714c5 0 19.725 10.352 24.633 13.803l4.909 3.451"/><path fill="none" class="highcharts-data-label-connector highcharts-color-4" stroke="#aee" d="M235.556 68.501c5 0 11.167 16.91 13.223 22.547l2.056 5.637"/><g style="cursor:pointer"><text x="5" data-z-index="1" y="16" style="color:#039;font-size:11px;font-weight:700;fill:#039;text-decoration:underline" transform="translate(472 284)" class="highcharts-label highcharts-data-label highcharts-data-label-color-0 highcharts-drilldown-data-label"><tspan class="highcharts-text-outline" fill="#FFF" stroke="#FFF" stroke-width="2" stroke-linejoin="round">Chrome: 61.0%<tspan x="5" dy="0">​</tspan></tspan>Chrome: 61.0%</text></g><g style="cursor:pointer"><text x="5" data-z-index="1" y="16" style="color:#039;font-size:11px;font-weight:700;fill:#039;text-decoration:underline" transform="translate(69 310)" class="highcharts-label highcharts-data-label highcharts-data-label-color-1 highcharts-drilldown-data-label"><tspan class="highcharts-text-outline" fill="#FFF" stroke="#FFF" stroke-width="2" stroke-linejoin="round">Safari: 9.5%<tspan x="5" dy="0">​</tspan></tspan>Safari: 9.5%</text></g><g style="cursor:pointer"><text x="5" data-z-index="1" y="16" style="color:#039;font-size:11px;font-weight:700;fill:#039;text-decoration:underline" transform="translate(48 211)" class="highcharts-label highcharts-data-label highcharts-data-label-color-2 highcharts-drilldown-data-label"><tspan class="highcharts-text-outline" fill="#FFF" stroke="#FFF" stroke-width="2" stroke-linejoin="round">Edge: 9.3%<tspan x="5" dy="0">​</tspan></tspan>Edge: 9.3%</text></g><g style="cursor:pointer"><text x="5" data-z-index="1" y="16" style="color:#039;font-size:11px;font-weight:700;fill:#039;text-decoration:underline" transform="translate(70 122)" class="highcharts-label highcharts-data-label highcharts-data-label-color-3 highcharts-drilldown-data-label"><tspan class="highcharts-text-outline" fill="#FFF" stroke="#FFF" stroke-width="2" stroke-linejoin="round">Firefox: 8.2%<tspan x="5" dy="0">​</tspan></tspan>Firefox: 8.2%</text></g><text x="5" data-z-index="1" y="16" style="color:#fff;font-size:11px;font-weight:700;fill:#fff" transform="translate(154 59)" class="highcharts-label highcharts-data-label highcharts-data-label-color-4"><tspan class="highcharts-text-outline" fill="#000" stroke="#000" stroke-width="2" stroke-linejoin="round">Other: 11.0%<tspan x="5" dy="0">​</tspan></tspan>Other: 11.0%</text></g></svg>