<svg class="highcharts-root" style="font-family:Dosis,sans-serif;font-size:12px" xmlns="http://www.w3.org/2000/svg" width="600" height="400" aria-label="Interactive chart" aria-hidden="false"><defs aria-hidden="true"><linearGradient x1="119.11" x2="460.89" y1="331.052" y2="331.052" id="b" gradientUnits="userSpaceOnUse"><stop offset="0" stop-color="#4982B9"/><stop offset=".5" stop-color="#7cb5ec"/><stop offset="1" stop-color="#4982B9"/></linearGradient><linearGradient x1="232.212" x2="347.788" y1="123.159" y2="123.159" id="c" gradientUnits="userSpaceOnUse"><stop offset="0" stop-color="#C47029"/><stop offset=".5" stop-color="#f7a35c"/><stop offset="1" stop-color="#C47029"/></linearGradient><linearGradient x1="261.956" x2="318.044" y1="71.472" y2="71.472" id="d" gradientUnits="userSpaceOnUse"><stop offset="0" stop-color="#5DBB4B"/><stop offset=".5" stop-color="#90ee7e"/><stop offset="1" stop-color="#5DBB4B"/></linearGradient><linearGradient x1="276.564" x2="303.436" y1="46.528" y2="46.528" id="e" gradientUnits="userSpaceOnUse"><stop offset="0" stop-color="#44658C"/><stop offset=".5" stop-color="#7798BF"/><stop offset="1" stop-color="#44658C"/></linearGradient><linearGradient x1="283.85" x2="296.15" y1="34.342" y2="34.342" id="f" gradientUnits="userSpaceOnUse"><stop offset="0" stop-color="#7BB"/><stop offset=".5" stop-color="#aee"/><stop offset="1" stop-color="#7BB"/></linearGradient><filter id="a"><feComponentTransfer><feFuncA type="table" tableValues="0 1"/></feComponentTransfer></filter></defs><rect fill="none" class="highcharts-background" width="600" height="400" rx="0" ry="0" aria-hidden="true"/><path d="M22.213 371.151h555.574l5.406 11.538H16.807Zm560.96 12.488H15.85l.957-.95h566.386Z" class="highcharts-3d-frame highcharts-3d-frame-bottom" data-z-index="-1000" aria-hidden="true" fill="none"/><g stroke-linejoin="round" class="highcharts-3d-frame highcharts-3d-frame-left" data-z-index="-1000" aria-hidden="true" fill="none"><path d="m14.798 44.528.869.104L10 49.94H9Z"/><path d="m15.667 44.632 6.546 326.52-5.406 11.537L10 49.939Z"/><path d="M15.85 383.639 9 49.939h1l6.807 332.75Z"/></g><path d="M14.798 44.528h569.424l.111.104H15.667Zm.869.104h568.666l-6.546 326.52H22.213Z" class="highcharts-3d-frame highcharts-3d-frame-back" data-z-index="-1000" aria-hidden="true" fill="none"/><path fill="none" class="highcharts-plot-background" aria-hidden="true" d="M10 43h580v342H10z"/><g class="highcharts-grid highcharts-yaxis-grid" data-z-index="1" aria-hidden="true" fill="none"><path stroke="#f2f2f2" class="highcharts-minor-grid-line" d="M22.223 371.618h555.554m-560.96 11.546 5.406-11.546m-.187-9.333h555.928M16.622 373.657l5.414-11.372m-.188-9.346h556.304M16.428 364.137l5.42-11.198m-.168-8.422h556.64m-562.068 11.04 5.427-11.04m-.188-9.37H578.51M16.057 346.012l5.434-10.865m-.188-9.382h557.394M15.86 336.455l5.442-10.69m-.187-9.395h557.77m-563.22 10.513 5.45-10.513m-.17-8.467h558.11M15.489 318.257l5.456-10.354m-.189-9.419h558.488M15.293 308.661l5.463-10.177m-.189-9.432h558.866m-564.337 10 5.471-10m-.189-9.445h559.244M14.9 289.428l5.479-9.82m-.172-8.512h559.586m-565.071 9.66 5.485-9.66m-.19-9.469h559.966m-565.459 9.481 5.493-9.481m-.19-9.482h560.346m-565.846 9.302 5.5-9.302m-.19-9.495h560.726M14.13 251.772l5.508-9.122m-.192-9.508h561.108M13.93 242.083l5.515-8.94m-.17-8.569h561.45m-566.973 8.778 5.523-8.778m-.192-9.532h561.834m-567.364 8.596 5.53-8.596m-.191-9.546h562.216m-567.754 8.415 5.538-8.415m-.192-9.558h562.6M13.155 204.17l5.545-8.232m-.172-8.614h562.944m-568.496 8.067 5.552-8.067m-.192-9.584h563.328m-568.888 7.884 5.56-7.883m-.193-9.597h563.714m-569.281 7.7 5.567-7.7m-.193-9.609h564.1M12.375 166.05l5.575-7.515m-.192-9.623h564.484m-570.067 7.33 5.583-7.33m-.174-8.672h564.832m-570.422 7.164 5.59-7.163m-.194-9.648h565.22M11.793 137.57l5.597-6.977m-.193-9.661h565.606m-571.212 6.79 5.606-6.79m-.194-9.674h565.994M11.39 117.861l5.614-6.603m-.176-8.718h566.344m-571.964 6.434 5.62-6.434m-.195-9.7h566.734M11.005 99.088l5.628-6.246m-.194-9.714H583.56M10.803 89.185l5.636-6.057m-.195-9.726h567.512M10.6 79.27l5.644-5.868m-.176-8.765h567.864M10.417 70.335l5.65-5.698m-.195-9.751h568.256M10.214 60.393l5.658-5.507m-.215-10.742h568.686M9.99 49.44l5.667-5.297"/><path data-z-index="1" class="highcharts-grid-line" d="M22.223 371.618h555.554m-560.96 11.546 5.406-11.546m-.92-45.853h557.394M15.86 336.455l5.442-10.69m-.924-46.158h559.244M14.9 289.428l5.479-9.82m-.933-46.466h561.108M13.93 242.083l5.515-8.94m-.917-45.819h562.944m-568.496 8.067 5.552-8.067m-.944-47.084h564.832m-570.422 7.164 5.59-7.163m-.951-47.401h566.734M11.005 99.088l5.628-6.246m-.956-47.722h568.646M10.01 50.438l5.667-5.316"/></g><path fill="none" class="highcharts-plot-border" data-z-index="1" aria-hidden="true" d="M10 43h580v342H10z"/><g class="highcharts-series-group" data-z-index="3" aria-hidden="false"><g class="highcharts-markers highcharts-series-0 highcharts-pyramid3d-series highcharts-tracker" data-z-index="10" aria-hidden="false" stroke-linejoin="round" stroke-width="0"><g data-z-index="290102233" stroke="#7cb5ec" class="highcharts-point highcharts-color-0" tabindex="-1" aria-label="Website visits, 15,654. Unique users." style="outline:0"><path fill="#4982B9" d="M465.903 327.085c23.04 20.785-35.805 42.162-134.182 46.285-99.76 4.182-191.007-11.374-201.585-33.183-9.816-20.238 54.586-38.251 142.122-41.447 86.474-3.156 172.227 9.023 193.645 28.345" class="highcharts-3d-bottom" data-z-index="0" stroke="none"/><g class="highcharts-funnel3d-lower-group" data-z-index="0" filter="url(#a)" transform="translate(10 43)"/><g class="highcharts-funnel3d-upper-group" data-z-index="2" filter="url(#a)" fill="url(#b)" stroke="none" transform="translate(10 43)"><path d="M232.887 115.748c-4.78-4.72 16.519-9.12 47.305-9.92 30.654-.798 60.323 2.245 66.467 6.89l109.244 171.367c-21.418-19.322-107.171-31.501-193.645-28.345-87.536 3.196-151.938 21.209-142.122 41.447Z" class="highcharts-3d-backUpper" data-z-index="1"/><path d="M346.659 112.719c6.298 4.763-14.368 9.425-46.396 10.299-32.173.877-62.474-2.43-67.376-7.27L120.136 297.187c10.578 21.81 101.825 37.365 201.585 33.183 98.377-4.123 157.222-25.5 134.182-46.285Z" class="highcharts-3d-frontUpper" data-z-index="2"/><path d="M347.113 115.748c-4.902 4.84-35.203 8.147-67.376 7.27-32.028-.874-52.694-5.536-46.396-10.3L124.097 284.086c-23.04 20.785 35.805 42.162 134.182 46.285 99.76 4.182 191.007-11.374 201.585-33.183Z" class="highcharts-3d-rightUpper" data-z-index="2"/></g><path fill="#95CEFF" d="M356.659 155.719c6.298 4.763-14.368 9.425-46.396 10.299-32.173.877-62.474-2.43-67.376-7.27-4.78-4.72 16.519-9.12 47.305-9.92 30.654-.798 60.323 2.245 66.467 6.89" class="highcharts-3d-top" data-z-index="3" stroke="none"/></g><g data-z-index="290102706" stroke="#f7a35c" class="highcharts-point highcharts-color-1" tabindex="-1" aria-label="Downloads, 4,064. Unique users." style="outline:0"><path fill="#C47029" d="M356.659 155.719c6.298 4.763-14.368 9.425-46.396 10.299-32.173.877-62.474-2.43-67.376-7.27-4.78-4.72 16.519-9.12 47.305-9.92 30.654-.798 60.323 2.245 66.467 6.89" class="highcharts-3d-bottom" data-z-index="0" stroke="none"/><g class="highcharts-funnel3d-lower-group" data-z-index="0" filter="url(#a)" transform="translate(10 43)"/><g class="highcharts-funnel3d-upper-group" data-z-index="2" filter="url(#a)" fill="url(#c)" stroke="none" transform="translate(10 43)"><path d="M262.334 68.361c-2.509-2.014 7.756-3.915 22.85-4.264 15.063-.348 29.543.975 32.375 2.974l29.1 45.648c-6.144-4.646-35.813-7.69-66.467-6.892-30.786.801-52.086 5.201-47.305 9.921Z" class="highcharts-3d-backUpper" data-z-index="1"/><path d="M317.559 67.071c2.866 2.024-7.25 3.98-22.636 4.343-15.42.364-30.05-1.013-32.589-3.053l-29.447 47.387c4.902 4.84 35.203 8.147 67.376 7.27 32.028-.874 52.694-5.536 46.396-10.3Z" class="highcharts-3d-frontUpper" data-z-index="2"/><path d="M317.666 68.361c-2.54 2.04-17.169 3.417-32.589 3.053-15.387-.364-25.502-2.32-22.636-4.343l-29.1 45.648c-6.298 4.763 14.368 9.425 46.396 10.299 32.173.877 62.474-2.43 67.376-7.27Z" class="highcharts-3d-rightUpper" data-z-index="2"/></g><path fill="#FFBC75" d="M327.559 110.071c2.866 2.024-7.25 3.98-22.636 4.343-15.42.364-30.05-1.013-32.589-3.053-2.509-2.014 7.756-3.915 22.85-4.264 15.063-.348 29.543.975 32.375 2.974" class="highcharts-3d-top" data-z-index="3" stroke="none"/></g><g data-z-index="290102937" stroke="#90ee7e" class="highcharts-point highcharts-color-2" tabindex="-1" aria-label="Requested price list, 1,987. Unique users." style="outline:0"><path fill="#5DBB4B" d="M327.559 110.071c2.866 2.024-7.25 3.98-22.636 4.343-15.42.364-30.05-1.013-32.589-3.053-2.509-2.014 7.756-3.915 22.85-4.264 15.063-.348 29.543.975 32.375 2.974" class="highcharts-3d-bottom" data-z-index="0" stroke="none"/><g class="highcharts-funnel3d-lower-group" data-z-index="0" filter="url(#a)" transform="translate(10 43)"/><g class="highcharts-funnel3d-upper-group" data-z-index="2" filter="url(#a)" fill="url(#d)" stroke="none" transform="translate(10 43)"><path d="M276.758 45.15c-1.246-.9 3.654-1.754 10.922-1.912 7.26-.157 14.216.44 15.537 1.336l14.342 22.497c-2.832-1.999-17.312-3.322-32.375-2.974-15.094.349-25.359 2.25-22.85 4.264Z" class="highcharts-3d-backUpper" data-z-index="1"/><path d="M303.217 44.574c1.329.902-3.537 1.768-10.872 1.929-7.343.16-14.333-.448-15.587-1.353l-14.424 23.21c2.54 2.04 17.169 3.417 32.589 3.053 15.387-.364 25.502-2.32 22.636-4.343Z" class="highcharts-3d-frontUpper" data-z-index="2"/><path d="M303.242 45.15c-1.254.905-8.244 1.513-15.587 1.353-7.335-.16-12.2-1.027-10.872-1.929L262.44 67.071c-2.866 2.024 7.25 3.98 22.636 4.343 15.42.364 30.05-1.013 32.589-3.053Z" class="highcharts-3d-rightUpper" data-z-index="2"/></g><path fill="#A9FF97" d="M313.217 87.574c1.329.902-3.537 1.768-10.872 1.929-7.343.16-14.333-.448-15.587-1.353-1.246-.9 3.654-1.754 10.922-1.912 7.26-.157 14.216.44 15.537 1.336" class="highcharts-3d-top" data-z-index="3" stroke="none"/></g><g data-z-index="290103051" stroke="#7798BF" class="highcharts-point highcharts-color-3" tabindex="-1" aria-label="Invoice sent, 976. Unique users." style="outline:0"><path fill="#44658C" d="M313.217 87.574c1.329.902-3.537 1.768-10.872 1.929-7.343.16-14.333-.448-15.587-1.353-1.246-.9 3.654-1.754 10.922-1.912 7.26-.157 14.216.44 15.537 1.336" class="highcharts-3d-bottom" data-z-index="0" stroke="none"/><g class="highcharts-funnel3d-lower-group" data-z-index="0" filter="url(#a)" transform="translate(10 43)"/><g class="highcharts-funnel3d-upper-group" data-z-index="2" filter="url(#a)" fill="url(#e)" stroke="none" transform="translate(10 43)"><path d="m283.85 33.738 5.069-.858 7.226.6 7.072 11.094c-1.32-.896-8.277-1.493-15.537-1.336-7.268.158-12.168 1.012-10.922 1.912Z" class="highcharts-3d-backUpper" data-z-index="1"/><path d="m296.145 33.48-5.058.862-7.237-.604-7.092 11.412c1.254.905 8.244 1.513 15.587 1.353 7.335-.16 12.2-1.027 10.872-1.929Z" class="highcharts-3d-frontUpper" data-z-index="2"/><path d="m296.15 33.738-7.237.604-5.058-.861-7.072 11.093c-1.329.902 3.537 1.768 10.872 1.929 7.343.16 14.333-.448 15.587-1.353Z" class="highcharts-3d-rightUpper" data-z-index="2"/></g><path fill="#90B1D8" d="m306.145 76.48-5.058.862-7.237-.604 5.069-.858Z" class="highcharts-3d-top" data-z-index="3" stroke="none"/></g><g data-z-index="290103149" stroke="#aee" class="highcharts-point highcharts-color-4" tabindex="-1" aria-label="Finalized, 846. Unique users." style="outline:0"><path fill="#7BB" d="m306.145 76.48-5.058.862-7.237-.604 5.069-.858Z" class="highcharts-3d-bottom" data-z-index="0" stroke="none"/><g class="highcharts-funnel3d-lower-group" data-z-index="0" filter="url(#a)" transform="translate(10 43)"/><g class="highcharts-funnel3d-upper-group" data-z-index="2" filter="url(#a)" fill="url(#f)" stroke="none" transform="translate(10 43)"><path d="m290 23.841 6.145 9.64-7.226-.6-5.07.857Z" class="highcharts-3d-backUpper" data-z-index="1"/><path d="m290 23.841-6.15 9.897 7.237.604 5.058-.861Z" class="highcharts-3d-frontUpper" data-z-index="2"/><path d="m290 23.841-6.145 9.64 5.058.861 7.237-.604Z" class="highcharts-3d-rightUpper" data-z-index="2"/></g><path fill="#C3FFFF" d="M300 66.841Z" class="highcharts-3d-top" data-z-index="3" stroke="none"/></g></g></g><text x="300" text-anchor="middle" class="highcharts-title" data-z-index="4" style="color:#333;font-size:16px;font-weight:700;text-transform:uppercase;fill:#333" y="22" aria-hidden="true">Highcharts Pyramid3D Chart</text><g class="highcharts-data-labels highcharts-series-0 highcharts-pyramid3d-series highcharts-tracker" data-z-index="6" aria-hidden="true"><text x="5" data-z-index="1" y="16" style="color:#fff;font-size:11px;font-weight:700;fill:#fff" transform="translate(368 151)" class="highcharts-label highcharts-data-label highcharts-data-label-color-0"><tspan class="highcharts-text-outline" fill="#000" stroke="#000" stroke-width="2" stroke-linejoin="round"><tspan style="font-weight:700">Website visits</tspan> (15 654)<tspan x="5" dy="0">​</tspan></tspan><tspan style="font-weight:700">Website visits</tspan> (15 654)</text><text x="5" data-z-index="1" y="16" style="color:#fff;font-size:11px;font-weight:700;fill:#fff" transform="translate(338 104)" class="highcharts-label highcharts-data-label highcharts-data-label-color-1"><tspan class="highcharts-text-outline" fill="#000" stroke="#000" stroke-width="2" stroke-linejoin="round"><tspan style="font-weight:700">Downloads</tspan> (4 064)<tspan x="5" dy="0">​</tspan></tspan><tspan style="font-weight:700">Downloads</tspan> (4 064)</text><text x="5" data-z-index="1" y="16" style="color:#fff;font-size:11px;font-weight:700;fill:#fff" transform="translate(323 81)" class="highcharts-label highcharts-data-label highcharts-data-label-color-2"><tspan class="highcharts-text-outline" fill="#000" stroke="#000" stroke-width="2" stroke-linejoin="round"><tspan style="font-weight:700">Requested price list</tspan> (1 987)<tspan x="5" dy="0">​</tspan></tspan><tspan style="font-weight:700">Requested price list</tspan> (1 987)</text><text x="5" data-z-index="1" y="16" style="color:#fff;font-size:11px;font-weight:700;fill:#fff" transform="translate(316 70)" class="highcharts-label highcharts-data-label highcharts-data-label-color-3"><tspan class="highcharts-text-outline" fill="#000" stroke="#000" stroke-width="2" stroke-linejoin="round"><tspan style="font-weight:700">Invoice sent</tspan> (976)<tspan x="5" dy="0">​</tspan></tspan><tspan style="font-weight:700">Invoice sent</tspan> (976)</text><text x="5" data-z-index="1" y="16" style="color:#fff;font-size:11px;font-weight:700;fill:#fff" transform="translate(310 61)" class="highcharts-label highcharts-data-label highcharts-data-label-color-4"><tspan class="highcharts-text-outline" fill="#000" stroke="#000" stroke-width="2" stroke-linejoin="round"><tspan style="font-weight:700">Finalized</tspan> (846)<tspan x="5" dy="0">​</tspan></tspan><tspan style="font-weight:700">Finalized</tspan> (846)</text></g></svg>