<svg class="highcharts-root" style="font-family:Dosis,sans-serif;font-size:12px" xmlns="http://www.w3.org/2000/svg" width="600" height="400" aria-label="Interactive chart" aria-hidden="false"><defs aria-hidden="true"><clipPath id="a"><path fill="none" d="M0 0h503v259H0z"/></clipPath></defs><rect fill="none" class="highcharts-background" width="600" height="400" rx="0" ry="0" aria-hidden="true"/><path fill="none" class="highcharts-plot-background" aria-hidden="true" d="M87 43h503v259H87z"/><g class="highcharts-grid highcharts-xaxis-grid" data-z-index="1" aria-hidden="true" fill="none" stroke="#e6e6e6"><path data-z-index="1" class="highcharts-grid-line" d="M158.5 43v259m72-259v259m72-259v259m71-259v259m72-259v259m72-259v259m73-259v259M86.5 43v259"/></g><g class="highcharts-grid highcharts-yaxis-grid" data-z-index="1" aria-hidden="true" fill="none"><path stroke="#f2f2f2" class="highcharts-minor-grid-line" d="M87 302.5h503m-503-52h503m-503-52h503m-503-51h503m-503-52h503m-503-53h503m-503 247h503m-503-13h503m-503-13h503m-503-26h503m-503-13h503m-503-13h503m-503-26h503m-503-12h503m-503-13h503m-503-26h503m-503-13h503m-503-13h503m-503-26h503m-503-13h503m-503-13h503"/><path stroke="#e6e6e6" data-z-index="1" class="highcharts-grid-line" d="M87 302.5h503M87 42.5h503m-503 195h503m-503-64h503m-503-65h503"/></g><path fill="none" class="highcharts-plot-border" data-z-index="1" aria-hidden="true" d="M87 43h503v259H87z"/><g class="highcharts-axis highcharts-xaxis" data-z-index="2" aria-hidden="true"><path fill="none" class="highcharts-axis-line" stroke="#ccd6eb" data-z-index="7" d="M87 302.5h503"/></g><g class="highcharts-axis highcharts-yaxis" data-z-index="2" aria-hidden="true"><text x="25.969" data-z-index="7" text-anchor="middle" transform="rotate(-90 25.969 172.5)" class="highcharts-axis-title" style="color:#666;text-transform:uppercase;fill:#666" y="172.5">USD</text><path fill="none" class="highcharts-axis-line" data-z-index="7" d="M87 43v259"/></g><g class="highcharts-series-group" data-z-index="3" aria-hidden="false"><g class="highcharts-series highcharts-series-0 highcharts-waterfall-series highcharts-tracker" data-z-index=".1" clip-path="url(#a)" aria-hidden="false" stroke="#333" transform="translate(87 43)"><path fill="#90ee7e" class="highcharts-point" tabindex="-1" aria-label="Start, 120,000." style="outline:0" d="M13.5 227.5h43v31h-43z"/><path fill="#90ee7e" class="highcharts-point" tabindex="-1" aria-label="Product Revenue, 569,000." style="outline:0" d="M85.5 80.5h43v147h-43z"/><path fill="#90ee7e" class="highcharts-point" tabindex="-1" aria-label="Service Revenue, 231,000." style="outline:0" d="M157.5 20.5h43v60h-43z"/><path fill="#f7a35c" class="highcharts-point highcharts-intermediate-sum" tabindex="-1" aria-label="Positive Balance, 920,000." style="outline:0" d="M229.5 20.5h43v238h-43z"/><path fill="#7798BF" class="highcharts-point highcharts-negative" tabindex="-1" aria-label="Fixed Costs, -342,000." style="outline:0" d="M301.5 20.5h43v89h-43z"/><path fill="#7798BF" class="highcharts-point highcharts-negative" tabindex="-1" aria-label="Variable Costs, -233,000." style="outline:0" d="M373.5 108.5h43v60h-43z"/><path fill="#f7a35c" class="highcharts-point highcharts-sum" tabindex="-1" aria-label="Balance, 345,000." style="outline:0" d="M445.5 169.5h43v89h-43z"/><path fill="none" d="M56.5 227.5h29m43-147h29m43-60h29m43 0h29m43 89h29m43 59h29" class="highcharts-graph" data-z-index="1" stroke-dasharray="1,3"/></g></g><text x="300" text-anchor="middle" class="highcharts-title" data-z-index="4" style="color:#333;font-size:16px;font-weight:700;text-transform:uppercase;fill:#333" y="22" aria-hidden="true">Highcharts Waterfall</text><g class="highcharts-data-labels highcharts-series-0 highcharts-waterfall-series highcharts-tracker" data-z-index="6" aria-hidden="true"><text x="5" data-z-index="1" y="16" style="color:#000;font-size:11px;font-weight:700;fill:#000" transform="translate(105 275)" class="highcharts-label highcharts-data-label highcharts-data-label-color-undefined"><tspan class="highcharts-text-outline" fill="#FFF" stroke="#FFF" stroke-width="2" stroke-linejoin="round">120k<tspan x="5" dy="0">​</tspan></tspan>120k</text><text x="5" data-z-index="1" y="16" style="color:#000;font-size:11px;font-weight:700;fill:#000" transform="translate(177 186)" class="highcharts-label highcharts-data-label highcharts-data-label-color-undefined"><tspan class="highcharts-text-outline" fill="#FFF" stroke="#FFF" stroke-width="2" stroke-linejoin="round">569k<tspan x="5" dy="0">​</tspan></tspan>569k</text><text x="5" data-z-index="1" y="16" style="color:#000;font-size:11px;font-weight:700;fill:#000" transform="translate(249 82)" class="highcharts-label highcharts-data-label highcharts-data-label-color-undefined"><tspan class="highcharts-text-outline" fill="#FFF" stroke="#FFF" stroke-width="2" stroke-linejoin="round">231k<tspan x="5" dy="0">​</tspan></tspan>231k</text><text x="5" data-z-index="1" y="16" style="color:#000;font-size:11px;font-weight:700;fill:#000" transform="translate(321 171)" class="highcharts-label highcharts-data-label highcharts-data-label-color-undefined"><tspan class="highcharts-text-outline" fill="#FFF" stroke="#FFF" stroke-width="2" stroke-linejoin="round">920k<tspan x="5" dy="0">​</tspan></tspan>920k</text><text x="5" data-z-index="1" y="16" style="color:#000;font-size:11px;font-weight:700;fill:#000" transform="translate(391 97)" class="highcharts-label highcharts-data-label highcharts-data-label-color-undefined"><tspan class="highcharts-text-outline" fill="#FFF" stroke="#FFF" stroke-width="2" stroke-linejoin="round">-342k<tspan x="5" dy="0">​</tspan></tspan>-342k</text><text x="5" data-z-index="1" y="16" style="color:#000;font-size:11px;font-weight:700;fill:#000" transform="translate(463 170)" class="highcharts-label highcharts-data-label highcharts-data-label-color-undefined"><tspan class="highcharts-text-outline" fill="#FFF" stroke="#FFF" stroke-width="2" stroke-linejoin="round">-233k<tspan x="5" dy="0">​</tspan></tspan>-233k</text><text x="5" data-z-index="1" y="16" style="color:#000;font-size:11px;font-weight:700;fill:#000" transform="translate(537 246)" class="highcharts-label highcharts-data-label highcharts-data-label-color-undefined"><tspan class="highcharts-text-outline" fill="#FFF" stroke="#FFF" stroke-width="2" stroke-linejoin="round">345k<tspan x="5" dy="0">​</tspan></tspan>345k</text></g><g class="highcharts-axis-labels highcharts-xaxis-labels" data-z-index="7" aria-hidden="true" text-anchor="end"><text x="125.757" transform="rotate(-45 125.757 318)" style="color:#666;cursor:default;font-size:12px;fill:#666" y="318">Start</text><text x="197.614" transform="rotate(-45 197.614 318)" style="color:#666;cursor:default;font-size:12px;fill:#666" y="318">Product Revenue</text><text x="269.471" transform="rotate(-45 269.471 318)" style="color:#666;cursor:default;font-size:12px;fill:#666" y="318">Service Revenue</text><text x="341.328" transform="rotate(-45 341.328 318)" style="color:#666;cursor:default;font-size:12px;fill:#666" y="318">Positive Balance</text><text x="413.186" transform="rotate(-45 413.186 318)" style="color:#666;cursor:default;font-size:12px;fill:#666" y="318">Fixed Costs</text><text x="485.043" transform="rotate(-45 485.043 318)" style="color:#666;cursor:default;font-size:12px;fill:#666" y="318">Variable Costs</text><text x="556.9" transform="rotate(-45 556.9 318)" style="color:#666;cursor:default;font-size:12px;fill:#666" y="318">Balance</text></g><g class="highcharts-axis-labels highcharts-yaxis-labels" data-z-index="7" aria-hidden="true" text-anchor="end"><text x="72" style="color:#666;cursor:default;font-size:12px;fill:#666" y="307">0</text><text x="72" style="color:#666;cursor:default;font-size:12px;fill:#666" y="48">1 000k</text><text x="72" style="color:#666;cursor:default;font-size:12px;fill:#666" y="243">250k</text><text x="72" style="color:#666;cursor:default;font-size:12px;fill:#666" y="178">500k</text><text x="72" style="color:#666;cursor:default;font-size:12px;fill:#666" y="113">750k</text></g></svg>