<svg class="highcharts-root" style="font-family:&quot;Unica One&quot;,sans-serif;font-size:12px" xmlns="http://www.w3.org/2000/svg" width="600" height="400" aria-label="Interactive chart" aria-hidden="false"><defs aria-hidden="true"><linearGradient x1="0" y1="0" x2="1" y2="1" id="a"><stop offset="0" stop-color="#2a2a2b"/><stop offset="1" stop-color="#3e3e40"/></linearGradient></defs><rect fill="url(#a)" class="highcharts-background" width="600" height="400" rx="0" ry="0" aria-hidden="true"/><path d="m152.167 269.534 394.484 38.388-.857 13.078-407.792-41.22Zm393.571 52.278-408.392-41.377.656-.655L545.794 321Z" class="highcharts-3d-frame highcharts-3d-frame-bottom" data-z-index="-1000" aria-hidden="true" fill="none"/><g stroke-linejoin="round" class="highcharts-3d-frame highcharts-3d-frame-left" data-z-index="-1000" aria-hidden="true" fill="none"><path d="m140.814 81.671.347.126-15.454 4.107-.743-.028Z"/><path d="m141.161 81.797 11.006 187.737-14.165 10.246-12.295-193.876Zm-3.815 198.638-12.382-194.56.743.03 12.295 193.875Z"/></g><g stroke-linejoin="round" class="highcharts-3d-frame highcharts-3d-frame-back" data-z-index="-1000" aria-hidden="true" fill="none"><path d="m140.814 81.671 420.543 15.475-.007.128-420.19-15.477Z"/><path d="M141.161 81.797 561.35 97.274l-14.7 210.648-394.483-38.388Z"/></g><path fill="none" class="highcharts-plot-background" aria-hidden="true" d="M77 70h513v251H77z"/><g class="highcharts-grid highcharts-xaxis-grid" data-z-index="1" aria-hidden="true" fill="none" stroke="#707073"><path data-z-index="1" class="highcharts-grid-line" d="m180.959 83.263 8.835 189.933m-13.049 10.5 13.049-10.5m67.698-187.114 4.503 194.14M251.18 291.22l10.815-10.998m75.871-191.18-.265 198.537m-8.35 11.532 8.35-11.532M421.52 92.123l-5.466 203.09m-5.655 12.101 5.655-12.1m94.397-199.815-11.26 207.905m-2.645 12.718 2.645-12.718"/></g><g class="highcharts-grid highcharts-yaxis-grid" data-z-index="1" aria-hidden="true" fill="none" stroke="#707073"><path data-z-index="1" class="highcharts-grid-line" d="m152.188 269.887 394.435 38.427m-408.598-28.171 14.163-10.256m-1.753-29.897 398.514 35M136.07 249.322l14.365-9.332m-1.786-30.48 402.676 31.419M134.077 217.88l14.572-8.37m-1.779-30.333 406.827 27.77M132.09 186.568l14.78-7.392m-1.857-31.683 411.167 23.866m-426.165-17.52 14.998-6.346m-1.895-32.322 415.602 19.79m-430.823-14.533 15.22-5.257M141.138 81.4 561.38 96.825m-435.7-11.331 15.457-4.094"/></g><path fill="none" class="highcharts-plot-border" data-z-index="1" aria-hidden="true" d="M77 70h513v251H77z"/><g class="highcharts-axis highcharts-yaxis" data-z-index="2" aria-hidden="true"><path fill="none" class="highcharts-tick" stroke="#707073" d="M138.025 280.143h-7.728m5.773-30.82h-7.805m5.812-31.442h-7.885m5.898-31.312h-7.962m5.887-32.729h-8.045m5.927-33.412h-8.13m5.914-34.934h-8.216"/><text x="92.635" data-z-index="7" text-anchor="middle" transform="matrix(-.0585 -.7715 .79648 0 -49.93 257.266)" class="highcharts-axis-title" style="color:#a0a0a3;font-size:16px;fill:#a0a0a3" y="185.797">TWh</text></g><g class="highcharts-series-group" data-z-index="3" aria-hidden="false"><g class="highcharts-markers highcharts-series-0 highcharts-column-series highcharts-color-0 highcharts-tracker" data-z-index="10" aria-hidden="false" stroke-linejoin="round"><g data-z-index="26600515" stroke="#f45b5b" class="highcharts-point highcharts-color-2" tabindex="-1" aria-label="x, 2016, 368. Saudi Arabia." style="outline:0"><path fill="#f45b5b" d="m157.093 281.769 17.852 1.805-2.378-46.172-18.104-1.564Z" class="highcharts-3d-front" data-z-index="0"/><path fill="#FF7474" d="m172.567 237.402 13.357-9.076-17.573-1.46-13.888 8.972Z" class="highcharts-3d-top" data-z-index="0"/><path fill="#DB4242" d="m172.567 237.402 2.378 46.172 13.087-10.48-2.108-44.768Z" class="highcharts-3d-side" data-z-index="0"/></g><g data-z-index="26601455" stroke="#2b908f" class="highcharts-point highcharts-color-0" tabindex="-1" aria-label="x, 2016, 563. South Korea." style="outline:0"><path fill="#2b908f" d="m154.463 235.838 18.104 1.564-3.744-72.706-18.5-1.168Z" class="highcharts-3d-front" data-z-index="0"/><path fill="#44A9A8" d="m168.823 164.696 13.786-6.774-17.946-1.089-14.34 6.695Z" class="highcharts-3d-top" data-z-index="0"/><path fill="#127776" d="m168.823 164.696 3.744 72.706 13.357-9.076-3.315-70.404Z" class="highcharts-3d-side" data-z-index="0"/></g><g data-z-index="57600835" stroke="#7798BF" class="highcharts-point highcharts-color-3" tabindex="-1" aria-label="x, 2016, 564. France." style="outline:0"><path fill="#7798BF" d="m179.26 284.01 18.11 1.83-3.143-71.015-18.506-1.454Z" class="highcharts-3d-front" data-z-index="0"/><path fill="#90B1D8" d="m194.227 214.825 12.813-8.436-17.95-1.357-13.37 8.34Z" class="highcharts-3d-top" data-z-index="0"/><path fill="#5E7FA6" d="m194.227 214.825 3.142 71.016 12.428-10.628-2.757-68.824Z" class="highcharts-3d-side" data-z-index="0"/></g><g data-z-index="57601925" stroke="#90ee7e" class="highcharts-point highcharts-color-1" tabindex="-1" aria-label="x, 2016, 650. Germany." style="outline:0"><path fill="#90ee7e" d="m175.72 213.371 18.507 1.454-3.83-86.565-18.989-.97Z" class="highcharts-3d-front" data-z-index="0"/><path fill="#A9FF97" d="m190.397 128.26 13.287-5.621-18.404-.904-13.872 5.555Z" class="highcharts-3d-top" data-z-index="0"/><path fill="#77D565" d="m190.397 128.26 3.83 86.565 12.813-8.436-3.356-83.75Z" class="highcharts-3d-side" data-z-index="0"/></g><g data-z-index="127600525" stroke="#f45b5b" class="highcharts-point highcharts-color-2" tabindex="-1" aria-label="x, 2017, 378. Saudi Arabia." style="outline:0"><path fill="#f45b5b" d="m230.5 289.19 18.71 1.892-1.316-47.945-18.992-1.636Z" class="highcharts-3d-front" data-z-index="0"/><path fill="#FF7474" d="m247.894 243.137 11.073-9.487-18.404-1.526-11.661 9.377Z" class="highcharts-3d-top" data-z-index="0"/><path fill="#DB4242" d="m247.894 243.137 1.316 47.945 10.864-10.976-1.107-46.456Z" class="highcharts-3d-side" data-z-index="0"/></g><g data-z-index="127601475" stroke="#2b908f" class="highcharts-point highcharts-color-0" tabindex="-1" aria-label="x, 2017, 567. South Korea." style="outline:0"><path fill="#2b908f" d="m228.902 241.5 18.992 1.637-2.064-75.198-19.434-1.217Z" class="highcharts-3d-front" data-z-index="0"/><path fill="#44A9A8" d="m245.83 167.94 11.404-7.054-18.82-1.133-12.018 6.97Z" class="highcharts-3d-top" data-z-index="0"/><path fill="#127776" d="m245.83 167.94 2.064 75.197 11.073-9.487-1.733-72.764Z" class="highcharts-3d-side" data-z-index="0"/></g><g data-z-index="158600835" stroke="#7798BF" class="highcharts-point highcharts-color-3" tabindex="-1" aria-label="x, 2017, 562. France." style="outline:0"><path fill="#7798BF" d="m253.733 291.54 18.985 1.919-1.437-72.578-19.423-1.527Z" class="highcharts-3d-front" data-z-index="0"/><path fill="#90B1D8" d="m271.28 220.88 10.42-8.848-18.808-1.421-11.034 8.743Z" class="highcharts-3d-top" data-z-index="0"/><path fill="#5E7FA6" d="m271.28 220.88 1.438 72.579 10.137-11.135-1.156-70.292Z" class="highcharts-3d-side" data-z-index="0"/></g><g data-z-index="158601925" stroke="#90ee7e" class="highcharts-point highcharts-color-1" tabindex="-1" aria-label="x, 2017, 654. Germany." style="outline:0"><path fill="#90ee7e" d="m251.858 219.354 19.423 1.527-1.754-88.58-19.957-1.019Z" class="highcharts-3d-front" data-z-index="0"/><path fill="#A9FF97" d="m269.527 132.302 10.764-5.904-19.307-.948-11.414 5.832Z" class="highcharts-3d-top" data-z-index="0"/><path fill="#77D565" d="m269.527 132.302 1.754 88.579 10.418-8.849-1.408-85.634Z" class="highcharts-3d-side" data-z-index="0"/></g><g data-z-index="228600525" stroke="#f45b5b" class="highcharts-point highcharts-color-2" tabindex="-1" aria-label="x, 2018, 378. Saudi Arabia." style="outline:0"><path fill="#f45b5b" d="m307.466 296.972 19.63 1.984-.102-49.007-19.942-1.717Z" class="highcharts-3d-front" data-z-index="0"/><path fill="#FF7474" d="m326.994 249.95 8.544-9.955-19.292-1.599-9.194 9.836Z" class="highcharts-3d-top" data-z-index="0"/><path fill="#DB4242" d="m326.994 249.95.102 49.006 8.41-11.507.032-47.454Z" class="highcharts-3d-side" data-z-index="0"/></g><g data-z-index="228601515" stroke="#2b908f" class="highcharts-point highcharts-color-0" tabindex="-1" aria-label="x, 2018, 590. South Korea." style="outline:0"><path fill="#2b908f" d="m307.052 248.232 19.942 1.717-.168-80.26-20.452-1.26Z" class="highcharts-3d-front" data-z-index="0"/><path fill="#44A9A8" d="m326.826 169.689 8.763-7.297-19.77-1.17-9.445 7.207Z" class="highcharts-3d-top" data-z-index="0"/><path fill="#127776" d="m326.826 169.689.168 80.26 8.544-9.954.05-77.603Z" class="highcharts-3d-side" data-z-index="0"/></g><g data-z-index="259600865" stroke="#7798BF" class="highcharts-point highcharts-color-3" tabindex="-1" aria-label="x, 2018, 582. France." style="outline:0"><path fill="#7798BF" d="m331.843 299.436 19.926 2.015.458-76.638-20.426-1.59Z" class="highcharts-3d-front" data-z-index="0"/><path fill="#90B1D8" d="m352.227 224.813 7.774-9.211-19.743-1.479-8.457 9.1Z" class="highcharts-3d-top" data-z-index="0"/><path fill="#5E7FA6" d="m352.227 224.813-.458 76.638 7.608-11.679.624-74.17Z" class="highcharts-3d-side" data-z-index="0"/></g><g data-z-index="259601945" stroke="#90ee7e" class="highcharts-point highcharts-color-1" tabindex="-1" aria-label="x, 2018, 643. Germany." style="outline:0"><path fill="#90ee7e" d="m331.801 223.223 20.426 1.59.536-89.974-21.01-1.062Z" class="highcharts-3d-front" data-z-index="0"/><path fill="#A9FF97" d="m352.763 134.84 7.97-6.149-20.29-.985-8.69 6.07Z" class="highcharts-3d-top" data-z-index="0"/><path fill="#77D565" d="m352.763 134.84-.536 89.973 7.774-9.211.732-86.91Z" class="highcharts-3d-side" data-z-index="0"/></g><g data-z-index="329600505" stroke="#f45b5b" class="highcharts-point highcharts-color-2" tabindex="-1" aria-label="x, 2019, 367. Saudi Arabia." style="outline:0"><path fill="#f45b5b" d="m388.254 305.14 20.621 2.084 1.196-48.5-20.953-1.815Z" class="highcharts-3d-front" data-z-index="0"/><path fill="#FF7474" d="m410.071 258.724 5.745-10.51-20.235-1.686-6.463 10.381Z" class="highcharts-3d-top" data-z-index="0"/><path fill="#DB4242" d="m410.071 258.724-1.196 48.5 5.7-12.08 1.241-46.93Z" class="highcharts-3d-side" data-z-index="0"/></g><g data-z-index="329601485" stroke="#2b908f" class="highcharts-point highcharts-color-0" tabindex="-1" aria-label="x, 2019, 582. South Korea." style="outline:0"><path fill="#2b908f" d="m389.118 256.91 20.953 1.814 2.004-81.226-21.51-1.342Z" class="highcharts-3d-front" data-z-index="0"/><path fill="#44A9A8" d="m412.075 177.498 5.815-7.764-20.754-1.244-6.572 7.666Z" class="highcharts-3d-top" data-z-index="0"/><path fill="#127776" d="m412.075 177.498-2.004 81.226 5.745-10.51 2.074-78.48Z" class="highcharts-3d-side" data-z-index="0"/></g><g data-z-index="360600855" stroke="#7798BF" class="highcharts-point highcharts-color-3" tabindex="-1" aria-label="x, 2019, 571. France." style="outline:0"><path fill="#7798BF" d="m413.862 307.728 20.94 2.117 2.574-77.573-21.485-1.678Z" class="highcharts-3d-front" data-z-index="0"/><path fill="#90B1D8" d="m437.376 232.272 4.836-9.712-20.73-1.557-5.59 9.591Z" class="highcharts-3d-top" data-z-index="0"/><path fill="#5E7FA6" d="m437.376 232.272-2.574 77.573 4.812-12.263 2.598-75.022Z" class="highcharts-3d-side" data-z-index="0"/></g><g data-z-index="360601875" stroke="#90ee7e" class="highcharts-point highcharts-color-1" tabindex="-1" aria-label="x, 2019, 612. Germany." style="outline:0"><path fill="#90ee7e" d="m415.891 230.594 21.485 1.678 2.882-86.861-22.096-1.158Z" class="highcharts-3d-front" data-z-index="0"/><path fill="#A9FF97" d="m440.258 145.41 4.856-6.692-21.297-1.071-5.655 6.606Z" class="highcharts-3d-top" data-z-index="0"/><path fill="#77D565" d="m440.258 145.41-2.882 86.862 4.836-9.712 2.902-83.842Z" class="highcharts-3d-side" data-z-index="0"/></g><g data-z-index="430600505" stroke="#f45b5b" class="highcharts-point highcharts-color-2" tabindex="-1" aria-label="x, 2020, 363. Saudi Arabia." style="outline:0"><path fill="#f45b5b" d="m473.158 313.723 21.688 2.193 2.628-49.622-22.056-1.91Z" class="highcharts-3d-front" data-z-index="0"/><path fill="#FF7474" d="m497.474 266.294 2.648-11.054-21.259-1.772-3.445 10.916Z" class="highcharts-3d-top" data-z-index="0"/><path fill="#DB4242" d="m497.474 266.294-2.628 49.622 2.704-12.695 2.572-47.981Z" class="highcharts-3d-side" data-z-index="0"/></g><g data-z-index="430601455" stroke="#2b908f" class="highcharts-point highcharts-color-0" tabindex="-1" aria-label="x, 2020, 571. South Korea." style="outline:0"><path fill="#2b908f" d="m475.418 264.384 22.056 1.91 4.268-80.582-22.654-1.43Z" class="highcharts-3d-front" data-z-index="0"/><path fill="#44A9A8" d="m501.742 185.712 2.552-8.27-21.815-1.323-3.391 8.163Z" class="highcharts-3d-top" data-z-index="0"/><path fill="#127776" d="m501.742 185.712-4.268 80.582 2.648-11.054 4.172-77.797Z" class="highcharts-3d-side" data-z-index="0"/></g><g data-z-index="460600785" stroke="#7798BF" class="highcharts-point highcharts-color-3" tabindex="-1" aria-label="x, 2020, 533. France." style="outline:0"><path fill="#7798BF" d="m499.217 316.358 22.02 2.226 4.53-73.453-22.577-1.802Z" class="highcharts-3d-front" data-z-index="0"/><path fill="#90B1D8" d="m525.768 245.131 1.623-10.423-21.744-1.669-2.457 10.29Z" class="highcharts-3d-top" data-z-index="0"/><path fill="#5E7FA6" d="m525.768 245.131-4.53 73.453 1.753-12.887 4.4-70.989Z" class="highcharts-3d-side" data-z-index="0"/></g><g data-z-index="460601745" stroke="#90ee7e" class="highcharts-point highcharts-color-1" tabindex="-1" aria-label="x, 2020, 572. Germany." style="outline:0"><path fill="#90ee7e" d="m503.19 243.33 22.578 1.801 5.138-83.31-23.212-1.294Z" class="highcharts-3d-front" data-z-index="0"/><path fill="#A9FF97" d="m530.906 161.82 1.467-7.475-22.332-1.196-2.347 7.378Z" class="highcharts-3d-top" data-z-index="0"/><path fill="#77D565" d="m530.906 161.82-5.138 83.311 1.623-10.423 4.982-80.363Z" class="highcharts-3d-side" data-z-index="0"/></g></g></g><text x="300" text-anchor="middle" class="highcharts-title" data-z-index="4" style="color:#e0e0e3;font-size:20px;text-transform:uppercase;fill:#e0e0e3" y="25" aria-hidden="true">Electricity production in countries, grouped<tspan dy="23" x="300">​</tspan>by continent</text><g class="highcharts-legend highcharts-no-tooltip" data-z-index="7" transform="translate(102 359)" aria-hidden="true"><rect fill="rgba(0, 0, 0, 0.5)" class="highcharts-legend-box" rx="0" ry="0" width="395" height="26"/><g data-z-index="1"><g class="highcharts-legend-item highcharts-column-series highcharts-color-0 highcharts-series-0" data-z-index="1" transform="translate(8 3)"><text x="21" data-z-index="2" y="15" style="color:#e0e0e3;cursor:pointer;font-size:12px;font-weight:700;fill:#e0e0e3">South Korea</text><rect x="2" y="4" width="12" height="12" fill="#2b908f" rx="6" ry="6" class="highcharts-point" data-z-index="3"/></g><g class="highcharts-legend-item highcharts-column-series highcharts-color-1 highcharts-series-1" data-z-index="1" transform="translate(120.344 3)"><text x="21" y="15" data-z-index="2" style="color:#e0e0e3;cursor:pointer;font-size:12px;font-weight:700;fill:#e0e0e3">Germany</text><rect x="2" y="4" width="12" height="12" fill="#90ee7e" rx="6" ry="6" class="highcharts-point" data-z-index="3"/></g><g class="highcharts-legend-item highcharts-column-series highcharts-color-2 highcharts-series-2" data-z-index="1" transform="translate(213.375 3)"><text x="21" y="15" data-z-index="2" style="color:#e0e0e3;cursor:pointer;font-size:12px;font-weight:700;fill:#e0e0e3">Saudi Arabia</text><rect x="2" y="4" width="12" height="12" fill="#f45b5b" rx="6" ry="6" class="highcharts-point" data-z-index="3"/></g><g class="highcharts-legend-item highcharts-column-series highcharts-color-3 highcharts-series-3" data-z-index="1" transform="translate(327.29 3)"><text x="21" y="15" data-z-index="2" style="color:#e0e0e3;cursor:pointer;font-size:12px;font-weight:700;fill:#e0e0e3">France</text><rect x="2" y="4" width="12" height="12" fill="#7798BF" rx="6" ry="6" class="highcharts-point" data-z-index="3"/></g></g></g><g class="highcharts-axis-labels highcharts-xaxis-labels" data-z-index="7" aria-hidden="true" text-anchor="middle"><text x="176.768" transform="matrix(.72 .07693 0 .78263 49.496 51.981)" style="color:#e0e0e3;cursor:default;font-size:16px;fill:#e0e0e3" y="301.699">2016</text><text x="251.192" transform="matrix(.75473 .08064 0 .80129 61.609 41.275)" style="color:#e0e0e3;cursor:default;font-size:16px;fill:#e0e0e3" y="309.651">2017</text><text x="329.251" transform="matrix(.79205 .08463 0 .82086 68.468 29.102)" style="color:#e0e0e3;cursor:default;font-size:16px;fill:#e0e0e3" y="317.991">2018</text><text x="411.218" transform="matrix(.8322 .08892 0 .8414 69 15.257)" style="color:#e0e0e3;cursor:default;font-size:16px;fill:#e0e0e3" y="326.749">2019</text><text x="497.394" transform="matrix(.87549 .09354 0 .863 61.93 -.504)" style="color:#e0e0e3;cursor:default;font-size:16px;fill:#e0e0e3" y="335.957">2020</text></g><g class="highcharts-axis-labels highcharts-yaxis-labels" data-z-index="7" aria-hidden="true" text-anchor="end"><text x="126.652" style="color:#e0e0e3;cursor:default;font-size:11px;fill:#e0e0e3" y="283.409">0</text><text x="124.586" style="color:#e0e0e3;cursor:default;font-size:11px;fill:#e0e0e3" y="252.655">250</text><text x="122.478" style="color:#e0e0e3;cursor:default;font-size:11px;fill:#e0e0e3" y="221.28">500</text><text x="120.328" style="color:#e0e0e3;cursor:default;font-size:11px;fill:#e0e0e3" y="189.266">750</text><text x="118.133" style="color:#e0e0e3;cursor:default;font-size:11px;fill:#e0e0e3" y="156.593">1000</text><text x="115.946" style="color:#e0e0e3;cursor:default;font-size:11px;fill:#e0e0e3" y="124.041">1250</text><text x="113.66" style="color:#e0e0e3;cursor:default;font-size:11px;fill:#e0e0e3" y="90.004">1500</text></g></svg>