<svg class="highcharts-root" style="font-family:&quot;Unica One&quot;,sans-serif;font-size:12px" xmlns="http://www.w3.org/2000/svg" width="600" height="400" aria-label="Interactive chart" aria-hidden="false"><defs aria-hidden="true"><linearGradient x1="0" y1="0" x2="1" y2="1" id="a"><stop offset="0" stop-color="#2a2a2b"/><stop offset="1" stop-color="#3e3e40"/></linearGradient></defs><rect fill="url(#a)" class="highcharts-background" width="600" height="400" rx="0" ry="0" aria-hidden="true"/><g stroke-linejoin="round" class="highcharts-3d-frame highcharts-3d-frame-bottom" data-z-index="-1000" aria-hidden="true" fill="none"><path d="m131.356 263.024 407.056 36.5L535.84 314l-420.874-39.213Z"/><path d="m538.417 300.014-2.624 14.781.046-.795 2.573-14.476Z"/><path d="m535.793 314.795-421.489-39.35.66-.658L535.84 314Z"/></g><path d="m122.603 94.38.371.152-17.451 6.21-.73-.034Zm.371.152 8.382 168.492-16.391 11.763-9.442-174.045Zm-8.67 180.913-9.512-174.737.73.034 9.443 174.045Z" class="highcharts-3d-frame highcharts-3d-frame-left" data-z-index="-1000" aria-hidden="true" fill="none"/><g stroke-linejoin="round" class="highcharts-3d-frame highcharts-3d-frame-back" data-z-index="-1000" aria-hidden="true" fill="none"><path d="m122.603 94.38 426.704 19.337-.043.148-426.29-19.333Zm426.704 19.337-10.89 186.297-.005-.49 10.852-185.659Z"/><path d="m122.974 94.532 426.29 19.333-10.852 185.659-407.056-36.5Z"/></g><path fill="none" class="highcharts-plot-background" aria-hidden="true" d="M49 84h541v230H49z"/><g class="highcharts-grid highcharts-xaxis-grid" data-z-index="1" aria-hidden="true" fill="none" stroke="#707073"><path data-z-index="1" class="highcharts-grid-line" d="m161.246 96.268 6.815 170.048m-15.273 11.995 15.273-11.995m32.609-168.26 5.167 171.647M191.74 281.94l14.097-12.237M240.913 99.88l3.452 173.278m-12.869 12.486 12.869-12.486m37.64-171.414 1.663 174.938m-11.587 12.744 11.587-12.744m41.088-172.999-.235 176.662m-10.225 13.014 10.225-13.014m43.121-174.717-2.18 178.388m-8.827 13.288 8.827-13.288m45.998-176.401-4.207 180.148m-7.368 13.57 7.368-13.57m48.989-178.117L449.92 291.59m-5.844 13.861 5.844-13.86m52.099-179.869-8.528 183.774m-4.252 14.162 4.252-14.162m56.211-181.611-10.873 185.676m-2.558 14.48 2.558-14.48M122.62 94.516l8.396 168.478m-16.401 11.76 16.401-11.76"/></g><g class="highcharts-grid highcharts-yaxis-grid" data-z-index="1" aria-hidden="true" fill="none" stroke="#707073"><path data-z-index="1" class="highcharts-grid-line" d="m131.374 263.375 407.016 36.533m-423.406-24.76 16.39-11.773m-2.725-54.775 413.257 31.15m-429.988-21.122 16.73-10.027m-2.768-55.642 419.609 25.487M108.8 161.156l17.08-8.197m-2.925-58.809 426.333 19.291m-443.787-13.095 17.454-6.197"/></g><path fill="none" class="highcharts-plot-border" data-z-index="1" aria-hidden="true" d="M49 84h541v230H49z"/><g class="highcharts-axis highcharts-yaxis" data-z-index="2" aria-hidden="true" fill="none" stroke="#707073"><path class="highcharts-tick" d="M114.984 275.149h-7.638m4.572-56.521h-7.753m4.635-57.473h-7.87m4.571-60.809H97.51"/></g><g class="highcharts-series-group" data-z-index="3" aria-hidden="false"><g class="highcharts-markers highcharts-series-0 highcharts-column-series highcharts-tracker" data-z-index="10" aria-hidden="false" stroke-linejoin="round"><g data-z-index="13601915" stroke="#2b908f" class="highcharts-point highcharts-color-0" tabindex="-1" aria-label="Toyota, 1,318." style="outline:0"><path fill="#2b908f" d="m124.79 275.787 18.366 1.712-7.158-152.932-19.072-1.013Z" class="highcharts-3d-front" data-z-index="0"/><path fill="#44A9A8" d="m135.998 124.567 8.35-3.588-18.777-.977-8.645 3.552Z" class="highcharts-3d-top" data-z-index="0"/><path fill="#127776" d="m135.998 124.567 7.158 152.932 7.907-6.066-6.716-150.454Z" class="highcharts-3d-side" data-z-index="0"/></g><g data-z-index="67601545" stroke="#90ee7e" class="highcharts-point highcharts-color-1" tabindex="-1" aria-label="BMW, 1,073." style="outline:0"><path fill="#90ee7e" d="m163.135 279.361 18.742 1.747-4.578-125.182-19.338-1.174Z" class="highcharts-3d-front" data-z-index="0"/><path fill="#A9FF97" d="m177.3 155.926 7.637-4.158-19.033-1.133-7.943 4.117Z" class="highcharts-3d-top" data-z-index="0"/><path fill="#77D565" d="m177.3 155.926 4.577 125.182 7.316-6.19-4.256-123.15Z" class="highcharts-3d-side" data-z-index="0"/></g><g data-z-index="121601525" stroke="#f45b5b" class="highcharts-point highcharts-color-2" tabindex="-1" aria-label="Volvo, 1,060." style="outline:0"><path fill="#f45b5b" d="m202.266 283.008 19.127 1.782-3.256-124.805-19.743-1.206Z" class="highcharts-3d-front" data-z-index="0"/><path fill="#FF7474" d="m218.137 159.985 6.978-4.273-19.423-1.163-7.298 4.23Z" class="highcharts-3d-top" data-z-index="0"/><path fill="#DB4242" d="m218.137 159.985 3.256 124.805 6.701-6.316-2.979-122.762Z" class="highcharts-3d-side" data-z-index="0"/></g><g data-z-index="175601145" stroke="#7798BF" class="highcharts-point highcharts-color-3" tabindex="-1" aria-label="Audi, 813." style="outline:0"><path fill="#7798BF" d="m242.205 286.73 19.526 1.82-1.475-95.891-20.014-1.377Z" class="highcharts-3d-front" data-z-index="0"/><path fill="#90B1D8" d="m260.256 192.659 6.237-4.876-19.686-1.327-6.565 4.826Z" class="highcharts-3d-top" data-z-index="0"/><path fill="#5E7FA6" d="m260.256 192.659 1.475 95.89 6.058-6.446-1.296-94.32Z" class="highcharts-3d-side" data-z-index="0"/></g><g data-z-index="229601085" stroke="#aee" class="highcharts-point highcharts-color-4" tabindex="-1" aria-label="Peugeot, 775." style="outline:0"><path fill="#aee" d="m282.978 290.53 19.937 1.857-.407-92.062-20.421-1.429Z" class="highcharts-3d-front" data-z-index="0"/><path fill="#C3FFFF" d="m302.508 200.325 5.524-5.06-20.078-1.378-5.867 5.01Z" class="highcharts-3d-top" data-z-index="0"/><path fill="#91D5D5" d="m302.508 200.325.407 92.062 5.387-6.581-.27-90.542Z" class="highcharts-3d-side" data-z-index="0"/></g><g data-z-index="284601035" stroke="#f06" class="highcharts-point highcharts-color-5" tabindex="-1" aria-label="Mercedes-Benz, 745." style="outline:0"><path fill="#f06" d="m325.391 294.482 20.369 1.898.623-88.983-20.853-1.48Z" class="highcharts-3d-front" data-z-index="0"/><path fill="#FF197F" d="m346.383 207.397 4.77-5.24-20.495-1.427-5.128 5.187Z" class="highcharts-3d-top" data-z-index="0"/><path fill="#E6004D" d="m346.383 207.397-.623 88.983 4.673-6.723.72-87.5Z" class="highcharts-3d-side" data-z-index="0"/></g><g data-z-index="338600715" stroke="#eae" class="highcharts-point highcharts-color-6" tabindex="-1" aria-label="Volkswagen, 537." style="outline:0"><path fill="#eae" d="m367.93 298.446 20.806 1.94 1.188-64.207-21.168-1.637Z" class="highcharts-3d-front" data-z-index="0"/><path fill="#FFC3FF" d="m389.924 236.179 3.985-5.795-20.8-1.577-4.353 5.735Z" class="highcharts-3d-top" data-z-index="0"/><path fill="#D591D5" d="m389.924 236.179-1.188 64.206 3.941-6.867 1.232-63.134Z" class="highcharts-3d-side" data-z-index="0"/></g><g data-z-index="392600575" stroke="#55BF3B" class="highcharts-point highcharts-color-7" tabindex="-1" aria-label="Polestar, 444." style="outline:0"><path fill="#55BF3B" d="m411.386 302.496 21.259 1.981 1.621-53.614-21.57-1.727Z" class="highcharts-3d-front" data-z-index="0"/><path fill="#6ED854" d="m434.266 250.863 3.19-6.114-21.187-1.664-3.573 6.051Z" class="highcharts-3d-top" data-z-index="0"/><path fill="#3CA622" d="m434.266 250.863-1.621 53.614 3.175-7.015 1.636-52.713Z" class="highcharts-3d-side" data-z-index="0"/></g><g data-z-index="446600535" stroke="#DF5353" class="highcharts-point highcharts-color-8" tabindex="-1" aria-label="Kia, 416." style="outline:0"><path fill="#DF5353" d="m455.789 306.634 21.726 2.025 2.154-50.92-22.033-1.782Z" class="highcharts-3d-front" data-z-index="0"/><path fill="#F86C6C" d="m479.669 257.738 2.367-6.305-21.632-1.715-2.768 6.239Z" class="highcharts-3d-top" data-z-index="0"/><path fill="#C63A3A" d="m479.669 257.738-2.154 50.92 2.376-7.168 2.145-50.057Z" class="highcharts-3d-side" data-z-index="0"/></g><g data-z-index="500600505" stroke="#7798BF" class="highcharts-point highcharts-color-9" tabindex="-1" aria-label="Nissan, 395." style="outline:0"><path fill="#7798BF" d="m501.17 310.863 22.21 2.07 2.676-48.991-22.513-1.833Z" class="highcharts-3d-front" data-z-index="0"/><path fill="#90B1D8" d="m526.056 263.942 1.51-6.489-22.096-1.764-1.927 6.42Z" class="highcharts-3d-top" data-z-index="0"/><path fill="#5E7FA6" d="m526.056 263.942-2.676 48.991 1.54-7.326 2.645-48.154Z" class="highcharts-3d-side" data-z-index="0"/></g></g></g><text x="300" text-anchor="middle" class="highcharts-title" data-z-index="4" style="color:#e0e0e3;font-size:20px;text-transform:uppercase;fill:#e0e0e3" y="25" aria-hidden="true">Sold passenger cars in Norway by brand,<tspan dy="23" x="300">​</tspan>January 2021</text><text x="300" text-anchor="middle" class="highcharts-subtitle" data-z-index="4" style="color:#e0e0e3;text-transform:uppercase;fill:#e0e0e3" y="69" aria-hidden="true">Source: <a target="_blank"><tspan>OFV</tspan></a></text><g class="highcharts-axis-labels highcharts-xaxis-labels" data-z-index="7" aria-hidden="true" text-anchor="end"><text x="135.828" transform="rotate(-45 135.828 289.02)" style="color:#e0e0e3;cursor:default;font-size:11px;fill:#e0e0e3" y="289.021">Toyota</text><text x="174.505" transform="rotate(-45 174.505 292.75)" style="color:#e0e0e3;cursor:default;font-size:11px;fill:#e0e0e3" y="292.749">BMW</text><text x="213.979" transform="rotate(-45 213.979 296.555)" style="color:#e0e0e3;cursor:default;font-size:11px;fill:#e0e0e3" y="296.555">Volvo</text><text x="254.272" transform="rotate(-45 254.272 300.44)" style="color:#e0e0e3;cursor:default;font-size:11px;fill:#e0e0e3" y="300.439">Audi</text><text x="295.413" transform="rotate(-45 295.413 304.406)" style="color:#e0e0e3;cursor:default;font-size:11px;fill:#e0e0e3" y="304.406">Peugeot</text><text x="337.427" transform="rotate(-45 337.427 308.456)" style="color:#e0e0e3;cursor:default;font-size:11px;fill:#e0e0e3" y="308.456">Mercedes-Benz</text><text x="380.342" transform="rotate(-45 380.342 312.593)" style="color:#e0e0e3;cursor:default;font-size:11px;fill:#e0e0e3" y="312.593">Volkswagen</text><text x="424.189" transform="rotate(-45 424.189 316.82)" style="color:#e0e0e3;cursor:default;font-size:11px;fill:#e0e0e3" y="316.82">Polestar</text><text x="468.997" transform="rotate(-45 468.997 321.14)" style="color:#e0e0e3;cursor:default;font-size:11px;fill:#e0e0e3" y="321.14">Kia</text><text x="514.798" transform="rotate(-45 514.798 325.556)" style="color:#e0e0e3;cursor:default;font-size:11px;fill:#e0e0e3" y="325.556">Nissan</text></g><g class="highcharts-axis-labels highcharts-yaxis-labels" data-z-index="7" aria-hidden="true" text-anchor="end"><text x="103.713" style="color:#e0e0e3;cursor:default;font-size:11px;fill:#e0e0e3" y="278.4">0</text><text x="100.481" style="color:#e0e0e3;cursor:default;font-size:11px;fill:#e0e0e3" y="221.978">500</text><text x="97.15" style="color:#e0e0e3;cursor:default;font-size:11px;fill:#e0e0e3" y="163.84">1000</text><text x="93.762" style="color:#e0e0e3;cursor:default;font-size:11px;fill:#e0e0e3" y="104.697">1500</text></g></svg>