<svg class="highcharts-root" style="font-family:&quot;Unica One&quot;,sans-serif;font-size:12px" xmlns="http://www.w3.org/2000/svg" width="600" height="400" aria-label="Interactive chart" aria-hidden="false"><defs aria-hidden="true"><linearGradient x1="0" y1="0" x2="1" y2="1" id="a"><stop offset="0" stop-color="#2a2a2b"/><stop offset="1" stop-color="#3e3e40"/></linearGradient></defs><rect fill="url(#a)" class="highcharts-background" width="600" height="400" rx="0" ry="0" aria-hidden="true"/><path d="M40.618 298.061h518.764l6.998 66.666H33.62Zm525.69 67.281H32.774l.846-.615h532.76Z" class="highcharts-3d-frame highcharts-3d-frame-bottom" data-z-index="-1000" aria-hidden="true" fill="none"/><g stroke-linejoin="round" class="highcharts-3d-frame highcharts-3d-frame-left" data-z-index="-1000" aria-hidden="true" fill="none"><path d="m17.457 96.159.89.647-8.27 66.649h-.999Zm.891.647 22.27 201.255-6.998 66.666-23.542-201.272Z"/><path d="M32.774 365.342 9.078 163.455h1L33.62 364.727Z"/></g><g stroke-linejoin="round" class="highcharts-3d-frame highcharts-3d-frame-back" data-z-index="-1000" aria-hidden="true" fill="none"><path d="M17.457 96.159h564.115l.08.647H18.348Z"/><path d="M18.348 96.806h563.304l-22.27 201.255H40.618Z"/></g><path fill="none" class="highcharts-plot-background" aria-hidden="true" d="M10 84h580v301H10z"/><path fill="none" class="highcharts-plot-border" data-z-index="1" aria-hidden="true" d="M10 84h580v301H10z"/><g class="highcharts-series-group" data-z-index="3" aria-hidden="false"><g class="highcharts-series highcharts-series-0 highcharts-pie-series highcharts-tracker" data-z-index=".1" style="cursor:pointer" aria-hidden="false"><path fill="#127776" d="M439.386 222.014v18.562L300 253.062V234.5Z" data-z-index="20.164" class="highcharts-point highcharts-color-0"/><path fill="#E6004D" d="M166.395 265.241v18.562L300 253.062V234.5Z" data-z-index="39.499" class="highcharts-point highcharts-color-5"/><path fill="#127776" d="M299.971 135.151v18.562l.029 99.349V234.5Z" data-z-index="143033.846" class="highcharts-point highcharts-color-0"/><path fill="#77D565" d="M375.322 318.366v18.561L300 253.062V234.5Z" data-z-index="143034.836" class="highcharts-point highcharts-color-1"/><path fill="#127776" d="M299.971 135.151c71.382-.01 130.444 36.79 139.415 86.863v18.562c-8.971-50.074-68.033-86.873-139.415-86.863ZM300 234.5v18.562Z" data-z-index="144478.633" class="highcharts-point highcharts-color-0"/><path fill="#E6004D" d="M299.944 135.152v18.561l.056 99.349V234.5Z" data-z-index="186653.509" class="highcharts-point highcharts-color-5"/><path fill="#91D5D5" d="M203.798 306.907v18.561L300 253.062V234.5Z" data-z-index="186654.499" class="highcharts-point highcharts-color-4"/><path fill="#E6004D" d="M166.395 265.241c-4.808-10.45-6.895-19.752-6.895-30.741v18.562c0-54.855 62.868-99.327 140.444-99.349v-18.561c-77.576.021-140.444 44.493-140.444 99.348v18.562c0 10.988 2.087 20.291 6.895 30.74ZM300 234.5v18.562Z" data-z-index="188538.898" class="highcharts-point highcharts-color-5"/><path fill="#91D5D5" d="M166.396 265.242v18.562L300 253.062V234.5Z" data-z-index="236351.509" class="highcharts-point highcharts-color-4"/><path fill="#5E7FA6" d="M273.713 332.094v18.562L300 253.062V234.5Z" data-z-index="236352.499" class="highcharts-point highcharts-color-3"/><path fill="#91D5D5" d="M203.798 306.907c-18.073-12.006-29.729-24.99-37.402-41.665v18.562c7.673 16.674 19.33 29.658 37.402 41.664ZM300 234.5v18.562Z" data-z-index="238738.898" class="highcharts-point highcharts-color-4"/><path fill="#77D565" d="M439.386 222.015v18.562L300 253.062V234.5Z" data-z-index="255002.846" class="highcharts-point highcharts-color-1"/><path fill="#DB4242" d="M274.715 339.094v18.562L301 260.062V241.5Z" data-z-index="255003.836" class="highcharts-point highcharts-point-select highcharts-color-2"/><path fill="#77D565" d="M440.5 234.5c0 35.105-23.27 65.046-65.178 83.866v18.561c41.908-18.82 65.178-48.76 65.178-83.865Zm-140.5 0v18.562Z" data-z-index="257578.633" class="highcharts-point highcharts-color-1"/><path fill="#5E7FA6" d="M203.8 306.908v18.561l96.2-72.407V234.5Z" data-z-index="292385.509" class="highcharts-point highcharts-color-3"/><path fill="#DB4242" d="M376.32 325.366v18.562L301 260.062V241.5Z" data-z-index="292386.499" class="highcharts-point highcharts-point-select highcharts-color-2"/><path fill="#5E7FA6" d="M273.713 332.094c-27.466-3.699-49.536-11.65-69.914-25.186v18.561c20.378 13.537 42.448 21.488 69.914 25.187ZM300 234.5v18.562Z" data-z-index="295338.898" class="highcharts-point highcharts-color-3"/><path fill="#DB4242" d="M376.32 325.366c-31.442 14.12-65.017 18.656-101.605 13.728v18.562c36.588 4.927 70.163.39 101.605-13.728ZM301 241.5v18.562Z" data-z-index="295339.898" class="highcharts-point highcharts-point-select highcharts-color-2"/><g data-z-index="31416026.536" stroke="#2b908f" stroke-linejoin="round" tabindex="-1" aria-label="Samsung, 23%. Share." style="outline:0"><path fill="#2b908f" d="M299.971 135.151c71.382-.01 130.444 36.79 139.415 86.863L300 234.5Z" data-z-index="314160.265" class="highcharts-point highcharts-color-0"/></g><g data-z-index="31416026.536" stroke="#90ee7e" stroke-linejoin="round" tabindex="-1" aria-label="Apple, 18%. Share." style="outline:0"><path fill="#90ee7e" d="M439.386 222.015c7.021 39.193-16.901 75.172-64.064 96.35L300 234.5Z" data-z-index="314160.265" class="highcharts-point highcharts-color-1"/></g><g data-z-index="31416026.536" stroke="#f45b5b" stroke-linejoin="round" tabindex="-1" aria-label="Xiaomi, 12%. Share." style="outline:0"><path fill="#f45b5b" d="M376.32 325.366c-31.442 14.12-65.017 18.656-101.605 13.728L301 241.5Z" data-z-index="314160.265" class="highcharts-point highcharts-point-select highcharts-color-2"/></g><g data-z-index="31416026.536" stroke="#7798BF" stroke-linejoin="round" tabindex="-1" aria-label="Oppo*, 9%. Share." style="outline:0"><path fill="#7798BF" d="M273.713 332.094c-27.466-3.699-49.536-11.65-69.914-25.186L300 234.5Z" data-z-index="314160.265" class="highcharts-point highcharts-color-3"/></g><g data-z-index="31416026.536" stroke="#aee" stroke-linejoin="round" tabindex="-1" aria-label="Vivo, 8%. Share." style="outline:0"><path fill="#aee" d="M203.798 306.907c-18.073-12.006-29.729-24.99-37.402-41.665L300 234.5Z" data-z-index="314160.265" class="highcharts-point highcharts-color-4"/></g><g data-z-index="31416026.536" stroke="#f06" stroke-linejoin="round" tabindex="-1" aria-label="Others, 30%. Share." style="outline:0"><path fill="#f06" d="M166.395 265.241c-24.01-52.176 16.342-108.236 90.13-125.214 14.76-3.396 27.898-4.871 43.419-4.875L300 234.5Z" data-z-index="314160.265" class="highcharts-point highcharts-color-5"/></g></g></g><text x="300" text-anchor="middle" class="highcharts-title" data-z-index="4" style="color:#e0e0e3;font-size:20px;text-transform:uppercase;fill:#e0e0e3" y="25" aria-hidden="true">Global smartphone shipments market share,<tspan dy="23" x="300">​</tspan>Q1 2022</text><text x="300" text-anchor="middle" class="highcharts-subtitle" data-z-index="4" style="color:#e0e0e3;text-transform:uppercase;fill:#e0e0e3" y="69" aria-hidden="true">Source: <a target="_blank"><tspan>Counterpoint Research</tspan></a></text><g class="highcharts-data-labels highcharts-series-0 highcharts-pie-series highcharts-tracker" data-z-index="6" aria-hidden="true" style="cursor:pointer"><path fill="none" class="highcharts-data-label-connector highcharts-color-0" stroke="#2b908f" d="M445.206 137.482c-5 0-44.356 13.502-48.324 18.002l-3.968 4.5"/><path fill="none" class="highcharts-data-label-connector highcharts-color-1" stroke="#90ee7e" d="M466.356 289.586c-5 0-28.37-7.664-33.799-10.219l-5.429-2.554"/><path fill="none" class="highcharts-data-label-connector highcharts-color-2" stroke="#f45b5b" d="M418.693 361.56c-5 0-90.117-17.681-91.242-23.575l-1.124-5.894"/><path fill="none" class="highcharts-data-label-connector highcharts-color-3" stroke="#7798BF" d="M169.35 349.75c5 0 61.416-16.038 64.14-21.384l2.724-5.346"/><path fill="none" class="highcharts-data-label-connector highcharts-color-4" stroke="#aee" d="M139.221 303.805c5 0 32.019-9.645 37.085-12.86l5.066-3.215"/><path fill="none" class="highcharts-data-label-connector highcharts-color-5" stroke="#f06" d="M142.397 158.457c5 0 34.228 10.58 39.082 14.107l4.854 3.527"/><g style="cursor:pointer"><text x="5" data-z-index="1" y="18" style="color:#f0f0f3;font-size:13px;font-weight:700;fill:#f0f0f3" transform="translate(450 127)" class="highcharts-label highcharts-data-label highcharts-data-label-color-0"><tspan class="highcharts-text-outline" fill="#000" stroke="#000" stroke-width="2" stroke-linejoin="round">Samsung<tspan x="5" dy="0">​</tspan></tspan>Samsung</text></g><g style="cursor:pointer"><text x="5" data-z-index="1" y="18" style="color:#f0f0f3;font-size:13px;font-weight:700;fill:#f0f0f3" transform="translate(471 280)" class="highcharts-label highcharts-data-label highcharts-data-label-color-1"><tspan class="highcharts-text-outline" fill="#000" stroke="#000" stroke-width="2" stroke-linejoin="round">Apple<tspan x="5" dy="0">​</tspan></tspan>Apple</text></g><g style="cursor:pointer"><text x="5" data-z-index="1" y="18" style="color:#f0f0f3;font-size:13px;font-weight:700;fill:#f0f0f3" transform="translate(424 352)" class="highcharts-label highcharts-data-label highcharts-data-label-color-2"><tspan class="highcharts-text-outline" fill="#000" stroke="#000" stroke-width="2" stroke-linejoin="round">Xiaomi<tspan x="5" dy="0">​</tspan></tspan>Xiaomi</text></g><g style="cursor:pointer"><text x="5" data-z-index="1" y="18" style="color:#f0f0f3;font-size:13px;font-weight:700;fill:#f0f0f3" transform="translate(115 340)" class="highcharts-label highcharts-data-label highcharts-data-label-color-3"><tspan class="highcharts-text-outline" fill="#000" stroke="#000" stroke-width="2" stroke-linejoin="round">Oppo*<tspan x="5" dy="0">​</tspan></tspan>Oppo*</text></g><g style="cursor:pointer"><text x="5" data-z-index="1" y="18" style="color:#f0f0f3;font-size:13px;font-weight:700;fill:#f0f0f3" transform="translate(97 294)" class="highcharts-label highcharts-data-label highcharts-data-label-color-4"><tspan class="highcharts-text-outline" fill="#000" stroke="#000" stroke-width="2" stroke-linejoin="round">Vivo<tspan x="5" dy="0">​</tspan></tspan>Vivo</text></g><g style="cursor:pointer"><text x="5" data-z-index="1" y="18" style="color:#f0f0f3;font-size:13px;font-weight:700;fill:#f0f0f3" transform="translate(85 148)" class="highcharts-label highcharts-data-label highcharts-data-label-color-5"><tspan class="highcharts-text-outline" fill="#000" stroke="#000" stroke-width="2" stroke-linejoin="round">Others<tspan x="5" dy="0">​</tspan></tspan>Others</text></g></g></svg>