<svg class="highcharts-root" style="font-family:&quot;Unica One&quot;,sans-serif;font-size:12px" xmlns="http://www.w3.org/2000/svg" width="600" height="400" aria-label="Interactive chart" aria-hidden="false"><defs aria-hidden="true"><radialGradient cx=".4" cy=".3" r=".5" id="i"><stop offset="0" stop-color="#2b908f"/><stop offset="1" stop-color="#005D5C"/></radialGradient><radialGradient cx=".4" cy=".3" r=".5" id="c"><stop offset="0" stop-color="#90ee7e"/><stop offset="1" stop-color="#5DBB4B"/></radialGradient><radialGradient cx=".4" cy=".3" r=".5" id="j"><stop offset="0" stop-color="#f45b5b"/><stop offset="1" stop-color="#C12828"/></radialGradient><radialGradient cx=".4" cy=".3" r=".5" id="d"><stop offset="0" stop-color="#7798BF"/><stop offset="1" stop-color="#44658C"/></radialGradient><radialGradient cx=".4" cy=".3" r=".5" id="e"><stop offset="0" stop-color="#aee"/><stop offset="1" stop-color="#7BB"/></radialGradient><radialGradient cx=".4" cy=".3" r=".5" id="f"><stop offset="0" stop-color="#f06"/><stop offset="1" stop-color="#C03"/></radialGradient><radialGradient cx=".4" cy=".3" r=".5" id="g"><stop offset="0" stop-color="#eae"/><stop offset="1" stop-color="#B7B"/></radialGradient><radialGradient cx=".4" cy=".3" r=".5" id="h"><stop offset="0" stop-color="#55BF3B"/><stop offset="1" stop-color="#228C08"/></radialGradient><radialGradient cx=".4" cy=".3" r=".5" id="b"><stop offset="0" stop-color="#DF5353"/><stop offset="1" stop-color="#AC2020"/></radialGradient><linearGradient x1="0" y1="0" x2="1" y2="1" id="a"><stop offset="0" stop-color="#2a2a2b"/><stop offset="1" stop-color="#3e3e40"/></linearGradient></defs><rect fill="url(#a)" class="highcharts-background" width="600" height="400" rx="0" ry="0" aria-hidden="true"/><g stroke-linejoin="round" class="highcharts-3d-frame highcharts-3d-frame-bottom" data-z-index="-1000" aria-hidden="true"><path fill="rgba(25,25,25,0.02)" d="m213.374 248.764 297.003 37.855-93.823 55.138-329.401-51.532Z"/><path fill="rgba(0,0,0,0.02)" d="m510.669 287.3-94.132 55.473.017-1.016 93.823-55.138Zm-94.132 55.473L86.473 290.992l.68-.767 329.4 51.532Z"/></g><g stroke-linejoin="round" class="highcharts-3d-frame highcharts-3d-frame-left" data-z-index="-1000" aria-hidden="true"><path fill="rgba(25,25,25,0.06)" d="m211.232 92.204.217.097-129.774 17.807-.722-.047Z"/><path fill="rgba(0,0,0,0.06)" d="m211.449 92.3 1.925 156.464-126.221 41.46-5.478-180.116ZM86.473 290.992l-5.52-180.931.722.047 5.478 180.117Z"/></g><g stroke-linejoin="round" class="highcharts-3d-frame highcharts-3d-frame-back" data-z-index="-1000" aria-hidden="true"><path fill="rgba(25,25,25,0.04)" d="m211.232 92.204 304.817 16.27-.322.08-304.278-16.253Z"/><path fill="rgba(0,0,0,0.04)" d="M516.05 108.474 510.668 287.3l-.292-.68 5.35-178.065Z"/><path fill="rgba(0,0,0,0.04)" d="m211.449 92.3 304.278 16.255-5.35 178.064-297.003-37.855Z"/></g><path fill="none" class="highcharts-plot-background" aria-hidden="true" d="M100 100h400v200H100z"/><g class="highcharts-grid highcharts-xaxis-grid" data-z-index="1" aria-hidden="true" fill="none" stroke="#707073"><path data-z-index="1" class="highcharts-grid-line" d="m211.116 92.283 1.932 156.439M86.8 290.169l126.25-41.447m52.61-153.525.765 160.328m-121.485 43.74 121.485-43.74m56.673-157.26-.528 164.417m-115.982 46.227 115.982-46.227m61.1-161.182-1.965 168.719m-109.633 48.935 109.633-48.935m65.931-165.301-3.56 173.25M341.76 330.056l102.314-51.888m72.088-169.59L510.8 286.673m-93.766 55.159 93.766-55.159"/></g><g class="highcharts-grid highcharts-zaxis-grid" data-z-index="1" aria-hidden="true" fill="none" stroke="#707073"><path data-z-index="1" class="highcharts-grid-line" d="m81.374 110.15 5.487 180.17m0 0 329.471 51.567M151.054 100.588l3.47 167.506m0 0 312.62 43.932M211.673 92.27l1.92 156.422m0 0 296.943 37.834"/></g><g class="highcharts-grid highcharts-yaxis-grid" data-z-index="1" aria-hidden="true" fill="none" stroke="#707073"><path data-z-index="1" class="highcharts-grid-line" d="m213.379 249.146 296.985 37.907m-423.198 3.61 126.213-41.517m-.952-77.363 300.578 27.367m-428.543 2.61 127.965-29.977m-.983-79.883 304.296 16.198m-434.08 1.548 129.784-17.745"/></g><path fill="none" class="highcharts-plot-border" data-z-index="1" aria-hidden="true" d="M100 100h400v200H100z"/><g class="highcharts-axis highcharts-yaxis" data-z-index="2" aria-hidden="true" fill="none" stroke="#707073"><path class="highcharts-tick" d="M87.166 290.664h-9.03m6.326-88.904h-9.144m6.342-92.114h-9.262"/></g><g class="highcharts-series-group" data-z-index="3" aria-hidden="false"><g class="highcharts-markers highcharts-series-0 highcharts-scatter3d-series highcharts-tracker" data-z-index=".1" aria-hidden="false" tabindex="-1" aria-label="Data, series 1 of 1 with 100 data points." style="outline:0"><path fill="url(#b)" d="M101 94a4 4 0 1 1 .004 0Z" data-z-index="1191.887" class="highcharts-point highcharts-color-8" tabindex="-1" aria-hidden="true" style="outline:0" transform="translate(100 100)"/><path fill="url(#b)" d="M78 148a4 4 0 1 1 .004 0Z" data-z-index="1226.768" class="highcharts-point highcharts-color-8" tabindex="-1" aria-hidden="true" style="outline:0" transform="translate(100 100)"/><path fill="url(#c)" d="M183 86a4 4 0 1 1 .004 0Z" data-z-index="1250.558" class="highcharts-point highcharts-color-1" tabindex="-1" aria-hidden="true" style="outline:0" transform="translate(100 100)"/><path fill="url(#d)" d="M183 86a4 4 0 1 1 .004 0Z" data-z-index="1250.558" class="highcharts-point highcharts-color-9" tabindex="-1" aria-hidden="true" style="outline:0" transform="translate(100 100)"/><path fill="url(#e)" d="M133 122a4 4 0 1 1 .004 0Z" data-z-index="1268.196" class="highcharts-point highcharts-color-10" tabindex="-1" aria-hidden="true" style="outline:0" transform="translate(100 100)"/><path fill="url(#d)" d="M173 105a4 4 0 1 1 .004 0Z" data-z-index="1268.454" class="highcharts-point highcharts-color-3" tabindex="-1" aria-hidden="true" style="outline:0" transform="translate(100 100)"/><path fill="url(#f)" d="M54 156a4 4 0 1 1 .004 0Z" data-z-index="1272.038" class="highcharts-point highcharts-color-5" tabindex="-1" aria-hidden="true" style="outline:0" transform="translate(100 100)"/><path fill="url(#d)" d="M162 159a4 4 0 1 1 .004 0Z" data-z-index="1280.793" class="highcharts-point highcharts-color-3" tabindex="-1" aria-hidden="true" style="outline:0" transform="translate(100 100)"/><path fill="url(#e)" d="M172 38a4 4 0 1 1 .004 0Z" data-z-index="1284.036" class="highcharts-point highcharts-color-10" tabindex="-1" aria-hidden="true" style="outline:0" transform="translate(100 100)"/><path fill="url(#d)" d="M122 159a4 4 0 1 1 .004 0Z" data-z-index="1284.234" class="highcharts-point highcharts-color-9" tabindex="-1" aria-hidden="true" style="outline:0" transform="translate(100 100)"/><path fill="url(#c)" d="M122 142a4 4 0 1 1 .004 0Z" data-z-index="1287.105" class="highcharts-point highcharts-color-1" tabindex="-1" aria-hidden="true" style="outline:0" transform="translate(100 100)"/><path fill="url(#b)" d="M172 21a4 4 0 1 1 .004 0Z" data-z-index="1288.484" class="highcharts-point highcharts-color-8" tabindex="-1" aria-hidden="true" style="outline:0" transform="translate(100 100)"/><path fill="url(#d)" d="M202 74a4 4 0 1 1 .004 0Z" data-z-index="1295.152" class="highcharts-point highcharts-color-3" tabindex="-1" aria-hidden="true" style="outline:0" transform="translate(100 100)"/><path fill="url(#g)" d="M41 143a4 4 0 1 1 .004 0Z" data-z-index="1297.751" class="highcharts-point highcharts-color-6" tabindex="-1" aria-hidden="true" style="outline:0" transform="translate(100 100)"/><path fill="url(#g)" d="M191 162a4 4 0 1 1 .004 0Z" data-z-index="1300.107" class="highcharts-point highcharts-color-6" tabindex="-1" aria-hidden="true" style="outline:0" transform="translate(100 100)"/><path fill="url(#h)" d="M161 58a4 4 0 1 1 .004 0Z" data-z-index="1301.299" class="highcharts-point highcharts-color-7" tabindex="-1" aria-hidden="true" style="outline:0" transform="translate(100 100)"/><path fill="url(#g)" d="M151 163a4 4 0 1 1 .004 0Z" data-z-index="1302.639" class="highcharts-point highcharts-color-6" tabindex="-1" aria-hidden="true" style="outline:0" transform="translate(100 100)"/><path fill="url(#d)" d="M243 40a4 4 0 1 1 .004 0Z" data-z-index="1302.415" class="highcharts-point highcharts-color-9" tabindex="-1" aria-hidden="true" style="outline:0" transform="translate(100 100)"/><path fill="url(#i)" d="M80 75a4 4 0 1 1 .004 0Z" data-z-index="1305.485" class="highcharts-point highcharts-color-0" tabindex="-1" aria-hidden="true" style="outline:0" transform="translate(100 100)"/><path fill="url(#i)" d="M161 40a4 4 0 1 1 .004 0Z" data-z-index="1305.493" class="highcharts-point highcharts-color-0" tabindex="-1" aria-hidden="true" style="outline:0" transform="translate(100 100)"/><path fill="url(#d)" d="M120 41a4 4 0 1 1 .004 0Z" data-z-index="1308.938" class="highcharts-point highcharts-color-9" tabindex="-1" aria-hidden="true" style="outline:0" transform="translate(100 100)"/><path fill="url(#h)" d="M69 163a4 4 0 1 1 .004 0Z" data-z-index="1311.509" class="highcharts-point highcharts-color-7" tabindex="-1" aria-hidden="true" style="outline:0" transform="translate(100 100)"/><path fill="url(#f)" d="M109 129a4 4 0 1 1 .004 0Z" data-z-index="1312.307" class="highcharts-point highcharts-color-5" tabindex="-1" aria-hidden="true" style="outline:0" transform="translate(100 100)"/><path fill="url(#g)" d="M191 77a4 4 0 1 1 .004 0Z" data-z-index="1316.432" class="highcharts-point highcharts-color-6" tabindex="-1" aria-hidden="true" style="outline:0" transform="translate(100 100)"/><path fill="url(#e)" d="M191 77a4 4 0 1 1 .004 0Z" data-z-index="1316.432" class="highcharts-point highcharts-color-10" tabindex="-1" aria-hidden="true" style="outline:0" transform="translate(100 100)"/><path fill="url(#j)" d="M68 129a4 4 0 1 1 .004 0Z" data-z-index="1317.386" class="highcharts-point highcharts-color-2" tabindex="-1" aria-hidden="true" style="outline:0" transform="translate(100 100)"/><path fill="url(#e)" d="M304 149a4 4 0 1 1 .004 0Z" data-z-index="1323.544" class="highcharts-point highcharts-color-4" tabindex="-1" aria-hidden="true" style="outline:0" transform="translate(100 100)"/><path fill="url(#c)" d="M274 25a4 4 0 1 1 .004 0Z" data-z-index="1327.739" class="highcharts-point highcharts-color-1" tabindex="-1" aria-hidden="true" style="outline:0" transform="translate(100 100)"/><path fill="url(#e)" d="M274 25a4 4 0 1 1 .004 0Z" data-z-index="1327.739" class="highcharts-point highcharts-color-4" tabindex="-1" aria-hidden="true" style="outline:0" transform="translate(100 100)"/><path fill="url(#i)" d="M263 114a4 4 0 1 1 .004 0Z" data-z-index="1328.812" class="highcharts-point highcharts-color-0" tabindex="-1" aria-hidden="true" style="outline:0" transform="translate(100 100)"/><path fill="url(#j)" d="M191 25a4 4 0 1 1 .004 0Z" data-z-index="1328.92" class="highcharts-point highcharts-color-2" tabindex="-1" aria-hidden="true" style="outline:0" transform="translate(100 100)"/><path fill="url(#j)" d="M150 25a4 4 0 1 1 .004 0Z" data-z-index="1331.442" class="highcharts-point highcharts-color-2" tabindex="-1" aria-hidden="true" style="outline:0" transform="translate(100 100)"/><path fill="url(#e)" d="M222 62a4 4 0 1 1 .004 0Z" data-z-index="1340.131" class="highcharts-point highcharts-color-4" tabindex="-1" aria-hidden="true" style="outline:0" transform="translate(100 100)"/><path fill="url(#d)" d="M138 80a4 4 0 1 1 .004 0Z" data-z-index="1340.694" class="highcharts-point highcharts-color-9" tabindex="-1" aria-hidden="true" style="outline:0" transform="translate(100 100)"/><path fill="url(#d)" d="M305 62a4 4 0 1 1 .004 0Z" data-z-index="1340.864" class="highcharts-point highcharts-color-3" tabindex="-1" aria-hidden="true" style="outline:0" transform="translate(100 100)"/><path fill="url(#b)" d="M85 171a4 4 0 1 1 .004 0Z" data-z-index="1351.231" class="highcharts-point highcharts-color-8" tabindex="-1" aria-hidden="true" style="outline:0" transform="translate(100 100)"/><path fill="url(#h)" d="M84 137a4 4 0 1 1 .004 0Z" data-z-index="1356.905" class="highcharts-point highcharts-color-7" tabindex="-1" aria-hidden="true" style="outline:0" transform="translate(100 100)"/><path fill="url(#i)" d="M84 137a4 4 0 1 1 .004 0Z" data-z-index="1356.905" class="highcharts-point highcharts-color-0" tabindex="-1" aria-hidden="true" style="outline:0" transform="translate(100 100)"/><path fill="url(#b)" d="M253 83a4 4 0 1 1 .004 0Z" data-z-index="1356.746" class="highcharts-point highcharts-color-8" tabindex="-1" aria-hidden="true" style="outline:0" transform="translate(100 100)"/><path fill="url(#f)" d="M12 81a4 4 0 1 1 .004 0Z" data-z-index="1357.143" class="highcharts-point highcharts-color-5" tabindex="-1" aria-hidden="true" style="outline:0" transform="translate(100 100)"/><path fill="url(#d)" d="M242 175a4 4 0 1 1 .004 0Z" data-z-index="1361.972" class="highcharts-point highcharts-color-9" tabindex="-1" aria-hidden="true" style="outline:0" transform="translate(100 100)"/><path fill="url(#c)" d="M337 65a4 4 0 1 1 .004 0Z" data-z-index="1363.324" class="highcharts-point highcharts-color-1" tabindex="-1" aria-hidden="true" style="outline:0" transform="translate(100 100)"/><path fill="url(#e)" d="M284 157a4 4 0 1 1 .004 0Z" data-z-index="1364.989" class="highcharts-point highcharts-color-10" tabindex="-1" aria-hidden="true" style="outline:0" transform="translate(100 100)"/><path fill="url(#c)" d="M338 47a4 4 0 1 1 .004 0Z" data-z-index="1367.442" class="highcharts-point highcharts-color-1" tabindex="-1" aria-hidden="true" style="outline:0" transform="translate(100 100)"/><path fill="url(#b)" d="M83 66a4 4 0 1 1 .004 0Z" data-z-index="1370.985" class="highcharts-point highcharts-color-8" tabindex="-1" aria-hidden="true" style="outline:0" transform="translate(100 100)"/><path fill="url(#i)" d="M338 29a4 4 0 1 1 .004 0Z" data-z-index="1371.793" class="highcharts-point highcharts-color-0" tabindex="-1" aria-hidden="true" style="outline:0" transform="translate(100 100)"/><path fill="url(#d)" d="M157 104a4 4 0 1 1 .004 0Z" data-z-index="1377.294" class="highcharts-point highcharts-color-9" tabindex="-1" aria-hidden="true" style="outline:0" transform="translate(100 100)"/><path fill="url(#f)" d="M114 105a4 4 0 1 1 .004 0Z" data-z-index="1380.926" class="highcharts-point highcharts-color-5" tabindex="-1" aria-hidden="true" style="outline:0" transform="translate(100 100)"/><path fill="url(#h)" d="M231 161a4 4 0 1 1 .004 0Z" data-z-index="1385.824" class="highcharts-point highcharts-color-7" tabindex="-1" aria-hidden="true" style="outline:0" transform="translate(100 100)"/><path fill="url(#i)" d="M40 30a4 4 0 1 1 .004 0Z" data-z-index="1385.326" class="highcharts-point highcharts-color-0" tabindex="-1" aria-hidden="true" style="outline:0" transform="translate(100 100)"/><path fill="url(#c)" d="M102 198a4 4 0 1 1 .004 0Z" data-z-index="1388.831" class="highcharts-point highcharts-color-1" tabindex="-1" aria-hidden="true" style="outline:0" transform="translate(100 100)"/><path fill="url(#f)" d="M243 31a4 4 0 1 1 .004 0Z" data-z-index="1389.834" class="highcharts-point highcharts-color-5" tabindex="-1" aria-hidden="true" style="outline:0" transform="translate(100 100)"/><path fill="url(#e)" d="M371 49a4 4 0 1 1 .004 0Z" data-z-index="1390.676" class="highcharts-point highcharts-color-4" tabindex="-1" aria-hidden="true" style="outline:0" transform="translate(100 100)"/><path fill="url(#b)" d="M113 50a4 4 0 1 1 .004 0Z" data-z-index="1392.403" class="highcharts-point highcharts-color-8" tabindex="-1" aria-hidden="true" style="outline:0" transform="translate(100 100)"/><path fill="url(#e)" d="M156 32a4 4 0 1 1 .004 0Z" data-z-index="1393.064" class="highcharts-point highcharts-color-10" tabindex="-1" aria-hidden="true" style="outline:0" transform="translate(100 100)"/><path fill="url(#e)" d="M58 181a4 4 0 1 1 .004 0Z" data-z-index="1396.57" class="highcharts-point highcharts-color-10" tabindex="-1" aria-hidden="true" style="outline:0" transform="translate(100 100)"/><path fill="url(#g)" d="M264 201a4 4 0 1 1 .004 0Z" data-z-index="1401.881" class="highcharts-point highcharts-color-6" tabindex="-1" aria-hidden="true" style="outline:0" transform="translate(100 100)"/><path fill="url(#f)" d="M100 90a4 4 0 1 1 .004 0Z" data-z-index="1406.613" class="highcharts-point highcharts-color-5" tabindex="-1" aria-hidden="true" style="outline:0" transform="translate(100 100)"/><path fill="url(#h)" d="M232 52a4 4 0 1 1 .004 0Z" data-z-index="1406.434" class="highcharts-point highcharts-color-7" tabindex="-1" aria-hidden="true" style="outline:0" transform="translate(100 100)"/><path fill="url(#j)" d="M-17 69a4 4 0 1 1 .004 0Z" data-z-index="1407.288" class="highcharts-point highcharts-color-2" tabindex="-1" aria-hidden="true" style="outline:0" transform="translate(100 100)"/><path fill="url(#i)" d="M319 52a4 4 0 1 1 .004 0Z" data-z-index="1407.916" class="highcharts-point highcharts-color-0" tabindex="-1" aria-hidden="true" style="outline:0" transform="translate(100 100)"/><path fill="url(#d)" d="M232 34a4 4 0 1 1 .004 0Z" data-z-index="1410.705" class="highcharts-point highcharts-color-3" tabindex="-1" aria-hidden="true" style="outline:0" transform="translate(100 100)"/><path fill="url(#e)" d="M56 90a4 4 0 1 1 .004 0Z" data-z-index="1412.003" class="highcharts-point highcharts-color-4" tabindex="-1" aria-hidden="true" style="outline:0" transform="translate(100 100)"/><path fill="url(#d)" d="M176 129a4 4 0 1 1 .004 0Z" data-z-index="1414.593" class="highcharts-point highcharts-color-3" tabindex="-1" aria-hidden="true" style="outline:0" transform="translate(100 100)"/><path fill="url(#e)" d="M132 130a4 4 0 1 1 .004 0Z" data-z-index="1417.643" class="highcharts-point highcharts-color-4" tabindex="-1" aria-hidden="true" style="outline:0" transform="translate(100 100)"/><path fill="url(#g)" d="M265 92a4 4 0 1 1 .004 0Z" data-z-index="1419.405" class="highcharts-point highcharts-color-6" tabindex="-1" aria-hidden="true" style="outline:0" transform="translate(100 100)"/><path fill="url(#j)" d="M209 189a4 4 0 1 1 .004 0Z" data-z-index="1425.988" class="highcharts-point highcharts-color-2" tabindex="-1" aria-hidden="true" style="outline:0" transform="translate(100 100)"/><path fill="url(#j)" d="M164 189a4 4 0 1 1 .004 0Z" data-z-index="1428.043" class="highcharts-point highcharts-color-2" tabindex="-1" aria-hidden="true" style="outline:0" transform="translate(100 100)"/><path fill="url(#j)" d="M265 36a4 4 0 1 1 .004 0Z" data-z-index="1431.4" class="highcharts-point highcharts-color-2" tabindex="-1" aria-hidden="true" style="outline:0" transform="translate(100 100)"/><path fill="url(#d)" d="M120 189a4 4 0 1 1 .004 0Z" data-z-index="1431.484" class="highcharts-point highcharts-color-9" tabindex="-1" aria-hidden="true" style="outline:0" transform="translate(100 100)"/><path fill="url(#e)" d="M131 55a4 4 0 1 1 .004 0Z" data-z-index="1432.142" class="highcharts-point highcharts-color-4" tabindex="-1" aria-hidden="true" style="outline:0" transform="translate(100 100)"/><path fill="url(#d)" d="M354 36a4 4 0 1 1 .004 0Z" data-z-index="1434.99" class="highcharts-point highcharts-color-3" tabindex="-1" aria-hidden="true" style="outline:0" transform="translate(100 100)"/><path fill="url(#c)" d="M164 133a4 4 0 1 1 .004 0Z" data-z-index="1436.237" class="highcharts-point highcharts-color-1" tabindex="-1" aria-hidden="true" style="outline:0" transform="translate(100 100)"/><path fill="url(#g)" d="M164 133a4 4 0 1 1 .004 0Z" data-z-index="1436.237" class="highcharts-point highcharts-color-6" tabindex="-1" aria-hidden="true" style="outline:0" transform="translate(100 100)"/><path fill="url(#g)" d="M209 77a4 4 0 1 1 .004 0Z" data-z-index="1444.571" class="highcharts-point highcharts-color-6" tabindex="-1" aria-hidden="true" style="outline:0" transform="translate(100 100)"/><path fill="url(#i)" d="M74 134a4 4 0 1 1 .004 0Z" data-z-index="1444.531" class="highcharts-point highcharts-color-0" tabindex="-1" aria-hidden="true" style="outline:0" transform="translate(100 100)"/><path fill="url(#h)" d="M197 212a4 4 0 1 1 .004 0Z" data-z-index="1445.351" class="highcharts-point highcharts-color-7" tabindex="-1" aria-hidden="true" style="outline:0" transform="translate(100 100)"/><path fill="url(#b)" d="M197 212a4 4 0 1 1 .004 0Z" data-z-index="1445.351" class="highcharts-point highcharts-color-8" tabindex="-1" aria-hidden="true" style="outline:0" transform="translate(100 100)"/><path fill="url(#i)" d="M344 76a4 4 0 1 1 .004 0Z" data-z-index="1446.871" class="highcharts-point highcharts-color-0" tabindex="-1" aria-hidden="true" style="outline:0" transform="translate(100 100)"/><path fill="url(#e)" d="M209 58a4 4 0 1 1 .004 0Z" data-z-index="1448.524" class="highcharts-point highcharts-color-4" tabindex="-1" aria-hidden="true" style="outline:0" transform="translate(100 100)"/><path fill="url(#d)" d="M287 155a4 4 0 1 1 .004 0Z" data-z-index="1452.035" class="highcharts-point highcharts-color-3" tabindex="-1" aria-hidden="true" style="outline:0" transform="translate(100 100)"/><path fill="url(#e)" d="M106 157a4 4 0 1 1 .004 0Z" data-z-index="1458.941" class="highcharts-point highcharts-color-4" tabindex="-1" aria-hidden="true" style="outline:0" transform="translate(100 100)"/><path fill="url(#g)" d="M322 198a4 4 0 1 1 .004 0Z" data-z-index="1469.301" class="highcharts-point highcharts-color-6" tabindex="-1" aria-hidden="true" style="outline:0" transform="translate(100 100)"/><path fill="url(#h)" d="M184 161a4 4 0 1 1 .004 0Z" data-z-index="1474.204" class="highcharts-point highcharts-color-7" tabindex="-1" aria-hidden="true" style="outline:0" transform="translate(100 100)"/><path fill="url(#f)" d="M277 141a4 4 0 1 1 .004 0Z" data-z-index="1475.744" class="highcharts-point highcharts-color-5" tabindex="-1" aria-hidden="true" style="outline:0" transform="translate(100 100)"/><path fill="url(#c)" d="M138 123a4 4 0 1 1 .004 0Z" data-z-index="1483.004" class="highcharts-point highcharts-color-1" tabindex="-1" aria-hidden="true" style="outline:0" transform="translate(100 100)"/><path fill="url(#f)" d="M324 83a4 4 0 1 1 .004 0Z" data-z-index="1487.408" class="highcharts-point highcharts-color-5" tabindex="-1" aria-hidden="true" style="outline:0" transform="translate(100 100)"/><path fill="url(#e)" d="M184 64a4 4 0 1 1 .004 0Z" data-z-index="1491.024" class="highcharts-point highcharts-color-10" tabindex="-1" aria-hidden="true" style="outline:0" transform="translate(100 100)"/><path fill="url(#d)" d="M278 44a4 4 0 1 1 .004 0Z" data-z-index="1493.902" class="highcharts-point highcharts-color-9" tabindex="-1" aria-hidden="true" style="outline:0" transform="translate(100 100)"/><path fill="url(#h)" d="M265 165a4 4 0 1 1 .004 0Z" data-z-index="1493.798" class="highcharts-point highcharts-color-7" tabindex="-1" aria-hidden="true" style="outline:0" transform="translate(100 100)"/><path fill="url(#e)" d="M184 44a4 4 0 1 1 .004 0Z" data-z-index="1495.157" class="highcharts-point highcharts-color-10" tabindex="-1" aria-hidden="true" style="outline:0" transform="translate(100 100)"/><path fill="url(#d)" d="M266 106a4 4 0 1 1 .004 0Z" data-z-index="1503" class="highcharts-point highcharts-color-3" tabindex="-1" aria-hidden="true" style="outline:0" transform="translate(100 100)"/><path fill="url(#f)" d="M267 46a4 4 0 1 1 .004 0Z" data-z-index="1514.529" class="highcharts-point highcharts-color-5" tabindex="-1" aria-hidden="true" style="outline:0" transform="translate(100 100)"/><path fill="url(#i)" d="M206 90a4 4 0 1 1 .004 0Z" data-z-index="1528.026" class="highcharts-point highcharts-color-0" tabindex="-1" aria-hidden="true" style="outline:0" transform="translate(100 100)"/><path fill="url(#c)" d="M242 234a4 4 0 1 1 .004 0Z" data-z-index="1529.463" class="highcharts-point highcharts-color-1" tabindex="-1" aria-hidden="true" style="outline:0" transform="translate(100 100)"/><path fill="url(#b)" d="M290 174a4 4 0 1 1 .004 0Z" data-z-index="1536.421" class="highcharts-point highcharts-color-8" tabindex="-1" aria-hidden="true" style="outline:0" transform="translate(100 100)"/><path fill="url(#j)" d="M291 154a4 4 0 1 1 .004 0Z" data-z-index="1539.116" class="highcharts-point highcharts-color-2" tabindex="-1" aria-hidden="true" style="outline:0" transform="translate(100 100)"/><path fill="url(#h)" d="M291 114a4 4 0 1 1 .004 0Z" data-z-index="1545.296" class="highcharts-point highcharts-color-7" tabindex="-1" aria-hidden="true" style="outline:0" transform="translate(100 100)"/><path fill="url(#e)" d="M279 220a4 4 0 1 1 .004 0Z" data-z-index="1552.84" class="highcharts-point highcharts-color-10" tabindex="-1" aria-hidden="true" style="outline:0" transform="translate(100 100)"/><path fill="url(#j)" d="M280 55a4 4 0 1 1 .004 0Z" data-z-index="1577.122" class="highcharts-point highcharts-color-2" tabindex="-1" aria-hidden="true" style="outline:0" transform="translate(100 100)"/></g></g><text x="300" text-anchor="middle" class="highcharts-title" data-z-index="4" style="color:#e0e0e3;font-size:20px;text-transform:uppercase;fill:#e0e0e3" y="25" aria-hidden="true">Draggable box</text><text x="300" text-anchor="middle" class="highcharts-subtitle" data-z-index="4" style="color:#e0e0e3;text-transform:uppercase;fill:#e0e0e3" y="46" aria-hidden="true">Click and drag the plot area to rotate in space</text><g class="highcharts-axis-labels highcharts-xaxis-labels" data-z-index="7" aria-hidden="true" text-anchor="middle"><text x="87.153" style="color:#e0e0e3;cursor:default;font-size:11px;fill:#e0e0e3" y="307.382">0</text><text x="145.314" style="color:#e0e0e3;cursor:default;font-size:11px;fill:#e0e0e3" y="316.984">2</text><text x="206.985" style="color:#e0e0e3;cursor:default;font-size:11px;fill:#e0e0e3" y="327.165">4</text><text x="272.494" style="color:#e0e0e3;cursor:default;font-size:11px;fill:#e0e0e3" y="337.979">6</text><text x="342.211" style="color:#e0e0e3;cursor:default;font-size:11px;fill:#e0e0e3" y="349.488">8</text><text x="416.554" style="color:#e0e0e3;cursor:default;font-size:11px;fill:#e0e0e3" y="361.761">10</text></g><g class="highcharts-axis-labels highcharts-zaxis-labels" data-z-index="7" aria-hidden="true" text-anchor="middle"><text x="467.331" style="color:#e0e0e3;cursor:default;font-size:11px;fill:#e0e0e3" y="330.272">5</text><text x="510.377" style="color:#e0e0e3;cursor:default;font-size:11px;fill:#e0e0e3" y="303.578">10</text></g><g class="highcharts-axis-labels highcharts-yaxis-labels" data-z-index="7" aria-hidden="true" text-anchor="end"><text x="73.749" style="color:#e0e0e3;cursor:default;font-size:11px;fill:#e0e0e3" y="294.612">0</text><text x="70.877" style="color:#e0e0e3;cursor:default;font-size:11px;fill:#e0e0e3" y="205.81">5</text><text x="67.93" style="color:#e0e0e3;cursor:default;font-size:11px;fill:#e0e0e3" y="114.724">10</text></g></svg>