<svg class="highcharts-root" style="font-family:&quot;Unica One&quot;,sans-serif;font-size:12px" xmlns="http://www.w3.org/2000/svg" width="600" height="400" aria-label="Interactive chart" aria-hidden="false"><defs aria-hidden="true"><linearGradient x1="0" y1="0" x2="1" y2="1" id="a"><stop offset="0" stop-color="#2a2a2b"/><stop offset="1" stop-color="#3e3e40"/></linearGradient><clipPath id="b"><path fill="none" d="M0 0h524v228H0z"/></clipPath></defs><rect fill="url(#a)" class="highcharts-background" width="600" height="400" rx="0" ry="0" aria-hidden="true"/><path fill="none" class="highcharts-plot-background" aria-hidden="true" d="M66 84h524v228H66z"/><g class="highcharts-grid highcharts-xaxis-grid" data-z-index="1" aria-hidden="true" fill="none"><path data-z-index="1" class="highcharts-grid-line" d="M70.5 84v228m129-228v228m128-228v228m128-228v228m129-228v228"/></g><g class="highcharts-grid highcharts-yaxis-grid" data-z-index="1" aria-hidden="true" fill="none" stroke="#707073"><path data-z-index="1" class="highcharts-grid-line" d="M66 312.5h524m-524-57h524m-524-57h524m-524-57h524m-524-58h524"/></g><path fill="none" class="highcharts-plot-border" data-z-index="1" aria-hidden="true" d="M66 84h524v228H66z"/><g class="highcharts-axis highcharts-xaxis" data-z-index="2" aria-hidden="true" fill="none" stroke="#707073"><path class="highcharts-tick" d="M70.5 312v10m129-10v10m128-10v10m128-10v10m129-10v10"/><path class="highcharts-axis-line" data-z-index="7" d="M66 312.5h524"/></g><g class="highcharts-axis highcharts-yaxis" data-z-index="2" aria-hidden="true"><path fill="none" class="highcharts-tick" stroke="#707073" d="M66 312.5H56m10-57H56m10-57H56m10-57H56m10-58H56"/><text x="23.258" data-z-index="7" text-anchor="middle" transform="rotate(-90 23.258 198)" class="highcharts-axis-title" style="color:#a0a0a3;fill:#a0a0a3" y="198">Million tonnes CO<tspan>2</tspan>-equivalents</text><path fill="none" class="highcharts-axis-line" data-z-index="7" d="M66 84v228"/></g><g class="highcharts-series-group" data-z-index="3" aria-hidden="false"><g class="highcharts-series highcharts-series-0 highcharts-area-series highcharts-color-0" data-z-index=".1" clip-path="url(#b)" aria-hidden="true" transform="translate(66 84)"><path fill="rgba(43,144,143,0.75)" d="m5.137 57.832 64.216.228 64.216 5.512 64.215-37.574L262 72.858l64.216-12.085 64.215-16.832 64.216-3.602 64.216 17.22v92.42l-64.216-17.323-64.216-.462-64.215 1.602-64.216-1.67-64.216-4.68-64.215 1.864-64.216 1.305-64.216 2.651Z" class="highcharts-area" data-z-index="0"/><path fill="none" d="m5.137 57.832 64.216.228 64.216 5.512 64.215-37.574L262 72.858l64.216-12.085 64.215-16.832 64.216-3.602 64.216 17.22" class="highcharts-graph" data-z-index="1" stroke="#666" stroke-linejoin="round" stroke-linecap="round"/><path fill="none" d="m5.137 57.832 64.216.228 64.216 5.512 64.215-37.574L262 72.858l64.216-12.085 64.215-16.832 64.216-3.602 64.216 17.22" data-z-index="2" class="highcharts-tracker-line" stroke-linecap="round" stroke-linejoin="round" stroke="rgba(192,192,192,0.0001)" stroke-width="21"/></g><g class="highcharts-markers highcharts-series-0 highcharts-area-series highcharts-color-0 highcharts-tracker" data-z-index=".1" aria-hidden="false" tabindex="-1" aria-label="Ocean transport, series 1 of 5 with 9 data points." style="outline:0" fill="#2b908f" stroke="#666"><path d="M5 62a4 4 0 1 1 .004 0Z" class="highcharts-point highcharts-color-0" tabindex="-1" aria-label="x, 2012, 13,234. Ocean transport." style="outline:0" transform="translate(66 84)"/><path d="M69 62a4 4 0 1 1 .004 0Z" class="highcharts-point highcharts-color-0" tabindex="-1" aria-label="x, 2013, 12,729. Ocean transport." style="outline:0" transform="translate(66 84)"/><path d="M133 68a4 4 0 1 1 .004 0Z" class="highcharts-point highcharts-color-0" tabindex="-1" aria-label="x, 2014, 11,533. Ocean transport." style="outline:0" transform="translate(66 84)"/><path d="M197 30a4 4 0 1 1 .004 0Z" class="highcharts-point highcharts-color-0" tabindex="-1" aria-label="x, 2015, 17,798. Ocean transport." style="outline:0" transform="translate(66 84)"/><path d="M262 77a4 4 0 1 1 .004 0Z" class="highcharts-point highcharts-color-0" tabindex="-1" aria-label="x, 2016, 10,398. Ocean transport." style="outline:0" transform="translate(66 84)"/><path d="M326 65a4 4 0 1 1 .004 0Z" class="highcharts-point highcharts-color-0" tabindex="-1" aria-label="x, 2017, 12,811. Ocean transport." style="outline:0" transform="translate(66 84)"/><path d="M390 48a4 4 0 1 1 .004 0Z" class="highcharts-point highcharts-color-0" tabindex="-1" aria-label="x, 2018, 15,483. Ocean transport." style="outline:0" transform="translate(66 84)"/><path d="M454 44a4 4 0 1 1 .004 0Z" class="highcharts-point highcharts-color-0" tabindex="-1" aria-label="x, 2019, 16,196. Ocean transport." style="outline:0" transform="translate(66 84)"/><path d="M518 62a4 4 0 1 1 .004 0Z" class="highcharts-point highcharts-color-0" tabindex="-1" aria-label="x, 2020, 16,214. Ocean transport." style="outline:0" transform="translate(66 84)"/></g><g class="highcharts-series highcharts-series-1 highcharts-area-series highcharts-color-1" data-z-index=".1" clip-path="url(#b)" aria-hidden="true" transform="translate(66 84)"><path fill="rgba(144,238,126,0.75)" d="m5.137 133.266 64.216-2.65 64.216-1.306 64.215-1.864 64.216 4.68 64.216 1.67 64.215-1.602 64.216.462 64.216 17.322v28.723l-64.216-17.277-64.216 2.867-64.215 2.138L262 167.757l-64.216-3.922-64.215 1.892-64.216 2.138-64.216 3.505Z" class="highcharts-area" data-z-index="0"/><path fill="none" d="m5.137 133.266 64.216-2.65 64.216-1.306 64.215-1.864 64.216 4.68 64.216 1.67 64.215-1.602 64.216.462 64.216 17.322" class="highcharts-graph" data-z-index="1" stroke="#666" stroke-linejoin="round" stroke-linecap="round"/><path fill="none" d="m5.137 133.266 64.216-2.65 64.216-1.306 64.215-1.864 64.216 4.68 64.216 1.67 64.215-1.602 64.216.462 64.216 17.322" data-z-index="2" class="highcharts-tracker-line" stroke-linecap="round" stroke-linejoin="round" stroke="rgba(192,192,192,0.0001)" stroke-width="21"/></g><g class="highcharts-markers highcharts-series-1 highcharts-area-series highcharts-color-1 highcharts-tracker" data-z-index=".1" aria-hidden="false" tabindex="-1" aria-label="Households, series 2 of 5 with 9 data points." style="outline:0" fill="#90ee7e" stroke="#666"><path d="m5 129 4 4-4 4-4-4Z" class="highcharts-point highcharts-color-1" tabindex="-1" aria-label="x, 2012, 6,685. Households." style="outline:0" transform="translate(66 84)"/><path d="m69 127 4 4-4 4-4-4Z" class="highcharts-point highcharts-color-1" tabindex="-1" aria-label="x, 2013, 6,535. Households." style="outline:0" transform="translate(66 84)"/><path d="m133 125 4 4-4 4-4-4Z" class="highcharts-point highcharts-color-1" tabindex="-1" aria-label="x, 2014, 6,389. Households." style="outline:0" transform="translate(66 84)"/><path d="m197 123 4 4-4 4-4-4Z" class="highcharts-point highcharts-color-1" tabindex="-1" aria-label="x, 2015, 6,384. Households." style="outline:0" transform="translate(66 84)"/><path d="m262 128 4 4-4 4-4-4Z" class="highcharts-point highcharts-color-1" tabindex="-1" aria-label="x, 2016, 6,251. Households." style="outline:0" transform="translate(66 84)"/><path d="m326 130 4 4-4 4-4-4Z" class="highcharts-point highcharts-color-1" tabindex="-1" aria-label="x, 2017, 5,725. Households." style="outline:0" transform="translate(66 84)"/><path d="m390 128 4 4-4 4-4-4Z" class="highcharts-point highcharts-color-1" tabindex="-1" aria-label="x, 2018, 5,631. Households." style="outline:0" transform="translate(66 84)"/><path d="m454 129 4 4-4 4-4-4Z" class="highcharts-point highcharts-color-1" tabindex="-1" aria-label="x, 2019, 5,047. Households." style="outline:0" transform="translate(66 84)"/><path d="m518 146 4 4-4 4-4-4Z" class="highcharts-point highcharts-color-1" tabindex="-1" aria-label="x, 2020, 5,039. Households." style="outline:0" transform="translate(66 84)"/></g><g class="highcharts-series highcharts-series-2 highcharts-area-series highcharts-color-2" data-z-index=".1" clip-path="url(#b)" aria-hidden="true" transform="translate(66 84)"><path fill="rgba(244,91,91,0.75)" d="m5.137 171.37 64.216-3.505 64.216-2.138 64.215-1.892L262 167.757l64.216-1.328 64.215-2.138 64.216-2.867 64.216 17.277v28.004l-64.216-17.288-64.216 3.066-64.215 2.309L262 196.29l-64.216-4.383-64.215 1.618-64.216 1.813-64.216 3.118Z" class="highcharts-area" data-z-index="0"/><path fill="none" d="m5.137 171.37 64.216-3.505 64.216-2.138 64.215-1.892L262 167.757l64.216-1.328 64.215-2.138 64.216-2.867 64.216 17.277" class="highcharts-graph" data-z-index="1" stroke="#666" stroke-linejoin="round" stroke-linecap="round"/><path fill="none" d="m5.137 171.37 64.216-3.505 64.216-2.138 64.215-1.892L262 167.757l64.216-1.328 64.215-2.138 64.216-2.867 64.216 17.277" data-z-index="2" class="highcharts-tracker-line" stroke-linecap="round" stroke-linejoin="round" stroke="rgba(192,192,192,0.0001)" stroke-width="21"/></g><g class="highcharts-markers highcharts-series-2 highcharts-area-series highcharts-color-2 highcharts-tracker" data-z-index=".1" aria-hidden="false" tabindex="-1" aria-label="Agriculture and hunting, series 3 of 5 with 9 data points." style="outline:0" fill="#f45b5b" stroke="#666"><path d="M1 167h8v8H1Z" class="highcharts-point highcharts-color-2" tabindex="-1" aria-label="x, 2012, 4,752. Agriculture and hunting." style="outline:0" transform="translate(66 84)"/><path d="M65 164h8v8h-8Z" class="highcharts-point highcharts-color-2" tabindex="-1" aria-label="x, 2013, 4,820. Agriculture and hunting." style="outline:0" transform="translate(66 84)"/><path d="M129 162h8v8h-8Z" class="highcharts-point highcharts-color-2" tabindex="-1" aria-label="x, 2014, 4,877. Agriculture and hunting." style="outline:0" transform="translate(66 84)"/><path d="M193 160h8v8h-8Z" class="highcharts-point highcharts-color-2" tabindex="-1" aria-label="x, 2015, 4,925. Agriculture and hunting." style="outline:0" transform="translate(66 84)"/><path d="M258 164h8v8h-8Z" class="highcharts-point highcharts-color-2" tabindex="-1" aria-label="x, 2016, 5,006. Agriculture and hunting." style="outline:0" transform="translate(66 84)"/><path d="M322 162h8v8h-8Z" class="highcharts-point highcharts-color-2" tabindex="-1" aria-label="x, 2017, 4,976. Agriculture and hunting." style="outline:0" transform="translate(66 84)"/><path d="M386 160h8v8h-8Z" class="highcharts-point highcharts-color-2" tabindex="-1" aria-label="x, 2018, 4,946. Agriculture and hunting." style="outline:0" transform="translate(66 84)"/><path d="M450 157h8v8h-8Z" class="highcharts-point highcharts-color-2" tabindex="-1" aria-label="x, 2019, 4,911. Agriculture and hunting." style="outline:0" transform="translate(66 84)"/><path d="M514 175h8v8h-8Z" class="highcharts-point highcharts-color-2" tabindex="-1" aria-label="x, 2020, 4,913. Agriculture and hunting." style="outline:0" transform="translate(66 84)"/></g><g class="highcharts-series highcharts-series-3 highcharts-area-series highcharts-color-3" data-z-index=".1" clip-path="url(#b)" aria-hidden="true" transform="translate(66 84)"><path fill="rgba(119,152,191,0.75)" d="m5.137 198.457 64.216-3.118 64.216-1.813 64.215-1.618L262 196.29l64.216-1.5 64.215-2.308 64.216-3.066 64.216 17.288v8.835l-64.216.057-64.216-.958-64.215.496-64.216.468-64.216-.24-64.215.382-64.216-.222-64.216.969Z" class="highcharts-area" data-z-index="0"/><path fill="none" d="m5.137 198.457 64.216-3.118 64.216-1.813 64.215-1.618L262 196.29l64.216-1.5 64.215-2.308 64.216-3.066 64.216 17.288" class="highcharts-graph" data-z-index="1" stroke="#666" stroke-linejoin="round" stroke-linecap="round"/><path fill="none" d="m5.137 198.457 64.216-3.118 64.216-1.813 64.215-1.618L262 196.29l64.216-1.5 64.215-2.308 64.216-3.066 64.216 17.288" data-z-index="2" class="highcharts-tracker-line" stroke-linecap="round" stroke-linejoin="round" stroke="rgba(192,192,192,0.0001)" stroke-width="21"/></g><g class="highcharts-markers highcharts-series-3 highcharts-area-series highcharts-color-3 highcharts-tracker" data-z-index=".1" aria-hidden="false" tabindex="-1" aria-label="Air transport, series 4 of 5 with 9 data points." style="outline:0" fill="#7798BF" stroke="#666"><path d="m5 194 4 8H1Z" class="highcharts-point highcharts-color-3" tabindex="-1" aria-label="x, 2012, 3,164. Air transport." style="outline:0" transform="translate(66 84)"/><path d="m69 191 4 8h-8Z" class="highcharts-point highcharts-color-3" tabindex="-1" aria-label="x, 2013, 3,541. Air transport." style="outline:0" transform="translate(66 84)"/><path d="m133 190 4 8h-8Z" class="highcharts-point highcharts-color-3" tabindex="-1" aria-label="x, 2014, 3,898. Air transport." style="outline:0" transform="translate(66 84)"/><path d="m197 188 4 8h-8Z" class="highcharts-point highcharts-color-3" tabindex="-1" aria-label="x, 2015, 4,115. Air transport." style="outline:0" transform="translate(66 84)"/><path d="m262 192 4 8h-8Z" class="highcharts-point highcharts-color-3" tabindex="-1" aria-label="x, 2016, 3,388. Air transport." style="outline:0" transform="translate(66 84)"/><path d="m326 191 4 8h-8Z" class="highcharts-point highcharts-color-3" tabindex="-1" aria-label="x, 2017, 3,569. Air transport." style="outline:0" transform="translate(66 84)"/><path d="m390 188 4 8h-8Z" class="highcharts-point highcharts-color-3" tabindex="-1" aria-label="x, 2018, 3,887. Air transport." style="outline:0" transform="translate(66 84)"/><path d="m454 185 4 8h-8Z" class="highcharts-point highcharts-color-3" tabindex="-1" aria-label="x, 2019, 4,593. Air transport." style="outline:0" transform="translate(66 84)"/><path d="m518 203 4 8h-8Z" class="highcharts-point highcharts-color-3" tabindex="-1" aria-label="x, 2020, 1,550. Air transport." style="outline:0" transform="translate(66 84)"/></g><g class="highcharts-series highcharts-series-4 highcharts-area-series highcharts-color-4" data-z-index=".1" clip-path="url(#b)" aria-hidden="true" transform="translate(66 84)"><path fill="rgba(170,238,238,0.75)" d="m5.137 216.492 64.216-.97 64.216.223 64.215-.382 64.216.24 64.216-.468 64.215-.496 64.216.958 64.216-.057V228H5.137Z" class="highcharts-area" data-z-index="0"/><path fill="none" d="m5.137 216.492 64.216-.97 64.216.223 64.215-.382 64.216.24 64.216-.468 64.215-.496 64.216.958 64.216-.057" class="highcharts-graph" data-z-index="1" stroke="#666" stroke-linejoin="round" stroke-linecap="round"/><path fill="none" d="m5.137 216.492 64.216-.97 64.216.223 64.215-.382 64.216.24 64.216-.468 64.215-.496 64.216.958 64.216-.057" data-z-index="2" class="highcharts-tracker-line" stroke-linecap="round" stroke-linejoin="round" stroke="rgba(192,192,192,0.0001)" stroke-width="21"/></g><g class="highcharts-markers highcharts-series-4 highcharts-area-series highcharts-color-4 highcharts-tracker" data-z-index=".1" aria-hidden="false" tabindex="-1" aria-label="Construction, series 5 of 5 with 9 data points." style="outline:0" fill="#aee" stroke="#666"><path d="M1 212h8l-4 8Z" class="highcharts-point highcharts-color-4" tabindex="-1" aria-label="x, 2012, 2,019. Construction." style="outline:0" transform="translate(66 84)"/><path d="M65 212h8l-4 8Z" class="highcharts-point highcharts-color-4" tabindex="-1" aria-label="x, 2013, 2,189. Construction." style="outline:0" transform="translate(66 84)"/><path d="M129 212h8l-4 8Z" class="highcharts-point highcharts-color-4" tabindex="-1" aria-label="x, 2014, 2,150. Construction." style="outline:0" transform="translate(66 84)"/><path d="M193 211h8l-4 8Z" class="highcharts-point highcharts-color-4" tabindex="-1" aria-label="x, 2015, 2,217. Construction." style="outline:0" transform="translate(66 84)"/><path d="M258 212h8l-4 8Z" class="highcharts-point highcharts-color-4" tabindex="-1" aria-label="x, 2016, 2,175. Construction." style="outline:0" transform="translate(66 84)"/><path d="M322 211h8l-4 8Z" class="highcharts-point highcharts-color-4" tabindex="-1" aria-label="x, 2017, 2,257. Construction." style="outline:0" transform="translate(66 84)"/><path d="M386 211h8l-4 8Z" class="highcharts-point highcharts-color-4" tabindex="-1" aria-label="x, 2018, 2,344. Construction." style="outline:0" transform="translate(66 84)"/><path d="M450 212h8l-4 8Z" class="highcharts-point highcharts-color-4" tabindex="-1" aria-label="x, 2019, 2,176. Construction." style="outline:0" transform="translate(66 84)"/><path d="M514 212h8l-4 8Z" class="highcharts-point highcharts-color-4" tabindex="-1" aria-label="x, 2020, 2,186. Construction." style="outline:0" transform="translate(66 84)"/></g></g><text x="300" text-anchor="middle" class="highcharts-title" data-z-index="4" style="color:#e0e0e3;font-size:20px;text-transform:uppercase;fill:#e0e0e3" y="25" aria-hidden="true">Greenhouse gases from Norwegian economic<tspan dy="23" x="300">​</tspan>activity</text><text x="300" text-anchor="middle" class="highcharts-subtitle" data-z-index="4" style="color:#e0e0e3;text-transform:uppercase;fill:#e0e0e3" y="69" aria-hidden="true">Source: <a target="_blank"><tspan>SSB</tspan></a></text><g class="highcharts-legend highcharts-no-tooltip" data-z-index="7" transform="translate(37 344)" aria-hidden="true"><rect fill="rgba(0, 0, 0, 0.5)" class="highcharts-legend-box" rx="0" ry="0" width="526" height="41"/><g data-z-index="1"><g class="highcharts-legend-item highcharts-area-series highcharts-color-0 highcharts-series-0" data-z-index="1" transform="translate(8 3)"><text x="21" data-z-index="2" y="15" style="color:#e0e0e3;cursor:pointer;font-size:12px;font-weight:700;fill:#e0e0e3">Ocean transport</text><rect x="2" y="4" width="12" height="12" fill="#2b908f" rx="6" ry="6" class="highcharts-point" data-z-index="3"/></g><g class="highcharts-legend-item highcharts-area-series highcharts-color-1 highcharts-series-1" data-z-index="1" transform="translate(184.992 3)"><text x="21" y="15" data-z-index="2" style="color:#e0e0e3;cursor:pointer;font-size:12px;font-weight:700;fill:#e0e0e3">Households</text><rect x="2" y="4" width="12" height="12" fill="#90ee7e" rx="6" ry="6" class="highcharts-point" data-z-index="3"/></g><g class="highcharts-legend-item highcharts-area-series highcharts-color-2 highcharts-series-2" data-z-index="1" transform="translate(361.984 3)"><text x="21" y="15" data-z-index="2" style="color:#e0e0e3;cursor:pointer;font-size:12px;font-weight:700;fill:#e0e0e3">Agriculture and hunting</text><rect x="2" y="4" width="12" height="12" fill="#f45b5b" rx="6" ry="6" class="highcharts-point" data-z-index="3"/></g><g class="highcharts-legend-item highcharts-area-series highcharts-color-3 highcharts-series-3" data-z-index="1" transform="translate(8 18)"><text x="21" y="15" data-z-index="2" style="color:#e0e0e3;cursor:pointer;font-size:12px;font-weight:700;fill:#e0e0e3">Air transport</text><rect x="2" y="4" width="12" height="12" fill="#7798BF" rx="6" ry="6" class="highcharts-point" data-z-index="3"/></g><g class="highcharts-legend-item highcharts-area-series highcharts-color-4 highcharts-series-4" data-z-index="1" transform="translate(184.992 18)"><text x="21" y="15" data-z-index="2" style="color:#e0e0e3;cursor:pointer;font-size:12px;font-weight:700;fill:#e0e0e3">Construction</text><rect x="2" y="4" width="12" height="12" fill="#aee" rx="6" ry="6" class="highcharts-point" data-z-index="3"/></g></g></g><g class="highcharts-axis-labels highcharts-xaxis-labels" data-z-index="7" aria-hidden="true" text-anchor="middle"><text x="71.137" style="color:#e0e0e3;cursor:default;font-size:11px;fill:#e0e0e3" y="331">2012</text><text x="199.569" style="color:#e0e0e3;cursor:default;font-size:11px;fill:#e0e0e3" y="331">2014</text><text x="328" style="color:#e0e0e3;cursor:default;font-size:11px;fill:#e0e0e3" y="331">2016</text><text x="456.431" style="color:#e0e0e3;cursor:default;font-size:11px;fill:#e0e0e3" y="331">2018</text><text x="577.762" style="color:#e0e0e3;cursor:default;font-size:11px;fill:#e0e0e3" y="331">2020</text></g><g class="highcharts-axis-labels highcharts-yaxis-labels" data-z-index="7" aria-hidden="true" text-anchor="end"><text x="51" style="color:#e0e0e3;cursor:default;font-size:11px;fill:#e0e0e3" y="317">0</text><text x="51" style="color:#e0e0e3;cursor:default;font-size:11px;fill:#e0e0e3" y="260">10k</text><text x="51" style="color:#e0e0e3;cursor:default;font-size:11px;fill:#e0e0e3" y="203">20k</text><text x="51" style="color:#e0e0e3;cursor:default;font-size:11px;fill:#e0e0e3" y="146">30k</text><text x="51" style="color:#e0e0e3;cursor:default;font-size:11px;fill:#e0e0e3" y="89">40k</text></g></svg>