<svg class="highcharts-root" style="font-family:&quot;Unica One&quot;,sans-serif;font-size:12px" xmlns="http://www.w3.org/2000/svg" width="600" height="400" aria-label="Interactive chart" aria-hidden="false"><defs aria-hidden="true"><linearGradient x1="0" y1="0" x2="1" y2="1" id="a"><stop offset="0" stop-color="#2a2a2b"/><stop offset="1" stop-color="#3e3e40"/></linearGradient><clipPath id="b"><path fill="none" d="M0 0h524v304H0z"/></clipPath></defs><rect fill="url(#a)" class="highcharts-background" width="600" height="400" rx="0" ry="0" aria-hidden="true"/><path fill="none" class="highcharts-plot-background" aria-hidden="true" d="M66 61h524v304H66z"/><g class="highcharts-plot-bands-0" data-z-index="0" aria-hidden="true"><path fill="rgba(68, 170, 213, .2)" class="highcharts-plot-band" d="M558.5 61v304h26V61Z"/></g><g class="highcharts-grid highcharts-xaxis-grid" data-z-index="1" aria-hidden="true" fill="none"><path data-z-index="1" class="highcharts-grid-line" d="M70.5 61v304m129-304v304m128-304v304m128-304v304m129-304v304"/></g><g class="highcharts-grid highcharts-yaxis-grid" data-z-index="1" aria-hidden="true" fill="none" stroke="#707073"><path data-z-index="1" class="highcharts-grid-line" d="M66 365.5h524m-524-51h524m-524-50h524m-524-51h524m-524-51h524m-524-50h524m-524-52h524"/></g><path fill="none" class="highcharts-plot-border" data-z-index="1" aria-hidden="true" d="M66 61h524v304H66z"/><g class="highcharts-axis highcharts-xaxis" data-z-index="2" aria-hidden="true" fill="none" stroke="#707073"><path class="highcharts-tick" d="M70.5 365v10m129-10v10m128-10v10m128-10v10m129-10v10"/><path class="highcharts-axis-line" data-z-index="7" d="M66 365.5h524"/></g><g class="highcharts-axis highcharts-yaxis" data-z-index="2" aria-hidden="true"><path fill="none" class="highcharts-tick" stroke="#707073" d="M66 365.5H56m10-51H56m10-50H56m10-51H56m10-51H56m10-50H56m10-52H56"/><text x="23.258" data-z-index="7" text-anchor="middle" transform="rotate(-90 23.258 213)" class="highcharts-axis-title" style="color:#a0a0a3;fill:#a0a0a3" y="213">Quantity</text><path fill="none" class="highcharts-axis-line" data-z-index="7" d="M66 61v304"/></g><g class="highcharts-series-group" data-z-index="3" aria-hidden="false"><g class="highcharts-series highcharts-series-0 highcharts-areaspline-series highcharts-color-0" data-z-index=".1" clip-path="url(#b)" aria-hidden="true" transform="translate(66 61)"><path fill="rgba(43,144,143,0.5)" d="M5.137 111.467s15.412 3.546 25.687 3.546c10.274 0 15.411-1.718 25.686-3 10.274-1.28 15.412-3.404 25.686-3.404 10.275 0 15.412 6.518 25.686 9.09 10.275 2.572 15.412 1.953 25.687 3.77 10.274 1.815 15.411 5.31 25.686 5.31 10.274 0 15.412-3.441 25.686-3.441 10.275 0 15.412.187 25.686.187 10.275 0 15.412-.979 25.687-1.778 10.274-.8 15.411-2.088 25.686-2.22 10.275-.131 15.412-.131 25.686-.131 10.275 0 15.412 9.08 25.687 9.08 10.274 0 15.411-1.586 25.686-1.586 10.274 0 15.412 5.03 25.686 8.902 10.275 3.87 15.412 8.927 25.686 10.452 10.275 1.525 15.412 1.525 25.687 1.525 10.274 0 15.411-3.931 25.686-3.931 10.274 0 15.412 3.478 25.686 4.788 10.275 1.309 15.412 1.758 25.686 1.758 10.275 0 25.687-7.332 25.687-7.332V304H5.137Z" class="highcharts-area" data-z-index="0"/><path fill="none" d="M5.137 111.467s15.412 3.546 25.687 3.546c10.274 0 15.411-1.718 25.686-3 10.274-1.28 15.412-3.404 25.686-3.404 10.275 0 15.412 6.518 25.686 9.09 10.275 2.572 15.412 1.953 25.687 3.77 10.274 1.815 15.411 5.31 25.686 5.31 10.274 0 15.412-3.441 25.686-3.441 10.275 0 15.412.187 25.686.187 10.275 0 15.412-.979 25.687-1.778 10.274-.8 15.411-2.088 25.686-2.22 10.275-.131 15.412-.131 25.686-.131 10.275 0 15.412 9.08 25.687 9.08 10.274 0 15.411-1.586 25.686-1.586 10.274 0 15.412 5.03 25.686 8.902 10.275 3.87 15.412 8.927 25.686 10.452 10.275 1.525 15.412 1.525 25.687 1.525 10.274 0 15.411-3.931 25.686-3.931 10.274 0 15.412 3.478 25.686 4.788 10.275 1.309 15.412 1.758 25.686 1.758 10.275 0 25.687-7.332 25.687-7.332" class="highcharts-graph" data-z-index="1" stroke="#2b908f" stroke-width="2" stroke-linejoin="round" stroke-linecap="round"/><path fill="none" d="M5.137 111.467s15.412 3.546 25.687 3.546c10.274 0 15.411-1.718 25.686-3 10.274-1.28 15.412-3.404 25.686-3.404 10.275 0 15.412 6.518 25.686 9.09 10.275 2.572 15.412 1.953 25.687 3.77 10.274 1.815 15.411 5.31 25.686 5.31 10.274 0 15.412-3.441 25.686-3.441 10.275 0 15.412.187 25.686.187 10.275 0 15.412-.979 25.687-1.778 10.274-.8 15.411-2.088 25.686-2.22 10.275-.131 15.412-.131 25.686-.131 10.275 0 15.412 9.08 25.687 9.08 10.274 0 15.411-1.586 25.686-1.586 10.274 0 15.412 5.03 25.686 8.902 10.275 3.87 15.412 8.927 25.686 10.452 10.275 1.525 15.412 1.525 25.687 1.525 10.274 0 15.411-3.931 25.686-3.931 10.274 0 15.412 3.478 25.686 4.788 10.275 1.309 15.412 1.758 25.686 1.758 10.275 0 25.687-7.332 25.687-7.332" data-z-index="2" class="highcharts-tracker-line" stroke-linecap="round" stroke-linejoin="round" stroke="rgba(192,192,192,0.0001)" stroke-width="22"/></g><g class="highcharts-markers highcharts-series-0 highcharts-areaspline-series highcharts-color-0 highcharts-tracker" data-z-index=".1" aria-hidden="false" tabindex="-1" aria-label="Moose, series 1 of 2 with 21 data points." style="outline:0" fill="#2b908f"><path d="M5 115a4 4 0 1 1 .004 0Z" class="highcharts-point highcharts-color-0" tabindex="-1" aria-label="x, 2000, 38,000. Moose." style="outline:0" transform="translate(66 61)"/><path d="M30 119a4 4 0 1 1 .004 0Z" class="highcharts-point highcharts-color-0" tabindex="-1" aria-label="x, 2001, 37,300. Moose." style="outline:0" transform="translate(66 61)"/><path d="M56 116a4 4 0 1 1 .004 0Z" class="highcharts-point highcharts-color-0" tabindex="-1" aria-label="x, 2002, 37,892. Moose." style="outline:0" transform="translate(66 61)"/><path d="M82 113a4 4 0 1 1 .004 0Z" class="highcharts-point highcharts-color-0" tabindex="-1" aria-label="x, 2003, 38,564. Moose." style="outline:0" transform="translate(66 61)"/><path d="M107 122a4 4 0 1 1 .004 0Z" class="highcharts-point highcharts-color-0" tabindex="-1" aria-label="x, 2004, 36,770. Moose." style="outline:0" transform="translate(66 61)"/><path d="M133 125a4 4 0 1 1 .004 0Z" class="highcharts-point highcharts-color-0" tabindex="-1" aria-label="x, 2005, 36,026. Moose." style="outline:0" transform="translate(66 61)"/><path d="M159 131a4 4 0 1 1 .004 0Z" class="highcharts-point highcharts-color-0" tabindex="-1" aria-label="x, 2006, 34,978. Moose." style="outline:0" transform="translate(66 61)"/><path d="M184 127a4 4 0 1 1 .004 0Z" class="highcharts-point highcharts-color-0" tabindex="-1" aria-label="x, 2007, 35,657. Moose." style="outline:0" transform="translate(66 61)"/><path d="M210 128a4 4 0 1 1 .004 0Z" class="highcharts-point highcharts-color-0" tabindex="-1" aria-label="x, 2008, 35,620. Moose." style="outline:0" transform="translate(66 61)"/><path d="M236 126a4 4 0 1 1 .004 0Z" class="highcharts-point highcharts-color-0" tabindex="-1" aria-label="x, 2009, 35,971. Moose." style="outline:0" transform="translate(66 61)"/><path d="M262 124a4 4 0 1 1 .004 0Z" class="highcharts-point highcharts-color-0" tabindex="-1" aria-label="x, 2010, 36,409. Moose." style="outline:0" transform="translate(66 61)"/><path d="M287 123a4 4 0 1 1 .004 0Z" class="highcharts-point highcharts-color-0" tabindex="-1" aria-label="x, 2011, 36,435. Moose." style="outline:0" transform="translate(66 61)"/><path d="M313 132a4 4 0 1 1 .004 0Z" class="highcharts-point highcharts-color-0" tabindex="-1" aria-label="x, 2012, 34,643. Moose." style="outline:0" transform="translate(66 61)"/><path d="M339 131a4 4 0 1 1 .004 0Z" class="highcharts-point highcharts-color-0" tabindex="-1" aria-label="x, 2013, 34,956. Moose." style="outline:0" transform="translate(66 61)"/><path d="M364 140a4 4 0 1 1 .004 0Z" class="highcharts-point highcharts-color-0" tabindex="-1" aria-label="x, 2014, 33,199. Moose." style="outline:0" transform="translate(66 61)"/><path d="M390 150a4 4 0 1 1 .004 0Z" class="highcharts-point highcharts-color-0" tabindex="-1" aria-label="x, 2015, 31,136. Moose." style="outline:0" transform="translate(66 61)"/><path d="M416 152a4 4 0 1 1 .004 0Z" class="highcharts-point highcharts-color-0" tabindex="-1" aria-label="x, 2016, 30,835. Moose." style="outline:0" transform="translate(66 61)"/><path d="M441 148a4 4 0 1 1 .004 0Z" class="highcharts-point highcharts-color-0" tabindex="-1" aria-label="x, 2017, 31,611. Moose." style="outline:0" transform="translate(66 61)"/><path d="M467 153a4 4 0 1 1 .004 0Z" class="highcharts-point highcharts-color-0" tabindex="-1" aria-label="x, 2018, 30,666. Moose." style="outline:0" transform="translate(66 61)"/><path d="M493 154a4 4 0 1 1 .004 0Z" class="highcharts-point highcharts-color-0" tabindex="-1" aria-label="x, 2019, 30,319. Moose." style="outline:0" transform="translate(66 61)"/><path d="M518 147a4 4 0 1 1 .004 0Z" class="highcharts-point highcharts-color-0" tabindex="-1" aria-label="x, 2020, 31,766. Moose." style="outline:0" transform="translate(66 61)"/></g><g class="highcharts-series highcharts-series-1 highcharts-areaspline-series highcharts-color-1" data-z-index=".1" clip-path="url(#b)" aria-hidden="true" transform="translate(66 61)"><path fill="rgba(144,238,126,0.5)" d="M5.137 189.828s15.412-3.37 25.687-5.396c10.274-2.026 15.411-3.115 25.686-4.733 10.274-1.617 15.412-1.972 25.686-3.354 10.275-1.38 15.412-1.079 25.686-3.551 10.275-2.473 15.412-5.49 25.687-8.811 10.274-3.321 15.411-2.715 25.686-7.793 10.274-5.078 15.412-10.997 25.686-17.596 10.275-6.6 15.412-10.273 25.686-15.403 10.275-5.13 15.412-6.747 25.687-10.25 10.274-3.503 15.411-7.266 25.686-7.266s15.412 7.558 25.686 11.725c10.275 4.167 15.412 9.11 25.687 9.11 10.274 0 15.411-5.933 25.686-5.933 10.274 0 15.412 2.863 25.686 5.38 10.275 2.517 15.412 7.205 25.686 7.205 10.275 0 15.412-11.59 25.687-20.545 10.274-8.956 15.411-18.106 25.686-24.234 10.274-6.128 15.412-2.463 25.686-6.404 10.275-3.941 15.412-6.99 25.686-13.3 10.275-6.311 25.687-18.256 25.687-18.256V304H5.137Z" class="highcharts-area" data-z-index="0"/><path fill="none" d="M5.137 189.828s15.412-3.37 25.687-5.396c10.274-2.026 15.411-3.115 25.686-4.733 10.274-1.617 15.412-1.972 25.686-3.354 10.275-1.38 15.412-1.079 25.686-3.551 10.275-2.473 15.412-5.49 25.687-8.811 10.274-3.321 15.411-2.715 25.686-7.793 10.274-5.078 15.412-10.997 25.686-17.596 10.275-6.6 15.412-10.273 25.686-15.403 10.275-5.13 15.412-6.747 25.687-10.25 10.274-3.503 15.411-7.266 25.686-7.266s15.412 7.558 25.686 11.725c10.275 4.167 15.412 9.11 25.687 9.11 10.274 0 15.411-5.933 25.686-5.933 10.274 0 15.412 2.863 25.686 5.38 10.275 2.517 15.412 7.205 25.686 7.205 10.275 0 15.412-11.59 25.687-20.545 10.274-8.956 15.411-18.106 25.686-24.234 10.274-6.128 15.412-2.463 25.686-6.404 10.275-3.941 15.412-6.99 25.686-13.3 10.275-6.311 25.687-18.256 25.687-18.256" class="highcharts-graph" data-z-index="1" stroke="#90ee7e" stroke-width="2" stroke-linejoin="round" stroke-linecap="round"/><path fill="none" d="M5.137 189.828s15.412-3.37 25.687-5.396c10.274-2.026 15.411-3.115 25.686-4.733 10.274-1.617 15.412-1.972 25.686-3.354 10.275-1.38 15.412-1.079 25.686-3.551 10.275-2.473 15.412-5.49 25.687-8.811 10.274-3.321 15.411-2.715 25.686-7.793 10.274-5.078 15.412-10.997 25.686-17.596 10.275-6.6 15.412-10.273 25.686-15.403 10.275-5.13 15.412-6.747 25.687-10.25 10.274-3.503 15.411-7.266 25.686-7.266s15.412 7.558 25.686 11.725c10.275 4.167 15.412 9.11 25.687 9.11 10.274 0 15.411-5.933 25.686-5.933 10.274 0 15.412 2.863 25.686 5.38 10.275 2.517 15.412 7.205 25.686 7.205 10.275 0 15.412-11.59 25.687-20.545 10.274-8.956 15.411-18.106 25.686-24.234 10.274-6.128 15.412-2.463 25.686-6.404 10.275-3.941 15.412-6.99 25.686-13.3 10.275-6.311 25.687-18.256 25.687-18.256" data-z-index="2" class="highcharts-tracker-line" stroke-linecap="round" stroke-linejoin="round" stroke="rgba(192,192,192,0.0001)" stroke-width="22"/></g><g class="highcharts-markers highcharts-series-1 highcharts-areaspline-series highcharts-color-1 highcharts-tracker" data-z-index=".1" aria-hidden="false" tabindex="-1" aria-label="Deer, series 2 of 2 with 21 data points." style="outline:0" fill="#90ee7e"><path d="m5 186 4 4-4 4-4-4Z" class="highcharts-point highcharts-color-1" tabindex="-1" aria-label="x, 2000, 22,534. Deer." style="outline:0" transform="translate(66 61)"/><path d="m30 180 4 4-4 4-4-4Z" class="highcharts-point highcharts-color-1" tabindex="-1" aria-label="x, 2001, 23,599. Deer." style="outline:0" transform="translate(66 61)"/><path d="m56 176 4 4-4 4-4-4Z" class="highcharts-point highcharts-color-1" tabindex="-1" aria-label="x, 2002, 24,533. Deer." style="outline:0" transform="translate(66 61)"/><path d="m82 172 4 4-4 4-4-4Z" class="highcharts-point highcharts-color-1" tabindex="-1" aria-label="x, 2003, 25,195. Deer." style="outline:0" transform="translate(66 61)"/><path d="m107 169 4 4-4 4-4-4Z" class="highcharts-point highcharts-color-1" tabindex="-1" aria-label="x, 2004, 25,896. Deer." style="outline:0" transform="translate(66 61)"/><path d="m133 160 4 4-4 4-4-4Z" class="highcharts-point highcharts-color-1" tabindex="-1" aria-label="x, 2005, 27,635. Deer." style="outline:0" transform="translate(66 61)"/><path d="m159 152 4 4-4 4-4-4Z" class="highcharts-point highcharts-color-1" tabindex="-1" aria-label="x, 2006, 29,173. Deer." style="outline:0" transform="translate(66 61)"/><path d="m184 135 4 4-4 4-4-4Z" class="highcharts-point highcharts-color-1" tabindex="-1" aria-label="x, 2007, 32,646. Deer." style="outline:0" transform="translate(66 61)"/><path d="m210 119 4 4-4 4-4-4Z" class="highcharts-point highcharts-color-1" tabindex="-1" aria-label="x, 2008, 35,686. Deer." style="outline:0" transform="translate(66 61)"/><path d="m236 109 4 4-4 4-4-4Z" class="highcharts-point highcharts-color-1" tabindex="-1" aria-label="x, 2009, 37,709. Deer." style="outline:0" transform="translate(66 61)"/><path d="m262 102 4 4-4 4-4-4Z" class="highcharts-point highcharts-color-1" tabindex="-1" aria-label="x, 2010, 39,143. Deer." style="outline:0" transform="translate(66 61)"/><path d="m287 113 4 4-4 4-4-4Z" class="highcharts-point highcharts-color-1" tabindex="-1" aria-label="x, 2011, 36,829. Deer." style="outline:0" transform="translate(66 61)"/><path d="m313 123 4 4-4 4-4-4Z" class="highcharts-point highcharts-color-1" tabindex="-1" aria-label="x, 2012, 35,031. Deer." style="outline:0" transform="translate(66 61)"/><path d="m339 117 4 4-4 4-4-4Z" class="highcharts-point highcharts-color-1" tabindex="-1" aria-label="x, 2013, 36,202. Deer." style="outline:0" transform="translate(66 61)"/><path d="m364 122 4 4-4 4-4-4Z" class="highcharts-point highcharts-color-1" tabindex="-1" aria-label="x, 2014, 35,140. Deer." style="outline:0" transform="translate(66 61)"/><path d="m390 129 4 4-4 4-4-4Z" class="highcharts-point highcharts-color-1" tabindex="-1" aria-label="x, 2015, 33,718. Deer." style="outline:0" transform="translate(66 61)"/><path d="m416 109 4 4-4 4-4-4Z" class="highcharts-point highcharts-color-1" tabindex="-1" aria-label="x, 2016, 37,773. Deer." style="outline:0" transform="translate(66 61)"/><path d="m441 84 4 4-4 4-4-4Z" class="highcharts-point highcharts-color-1" tabindex="-1" aria-label="x, 2017, 42,556. Deer." style="outline:0" transform="translate(66 61)"/><path d="m467 78 4 4-4 4-4-4Z" class="highcharts-point highcharts-color-1" tabindex="-1" aria-label="x, 2018, 43,820. Deer." style="outline:0" transform="translate(66 61)"/><path d="m493 65 4 4-4 4-4-4Z" class="highcharts-point highcharts-color-1" tabindex="-1" aria-label="x, 2019, 46,445. Deer." style="outline:0" transform="translate(66 61)"/><path d="m518 46 4 4-4 4-4-4Z" class="highcharts-point highcharts-color-1" tabindex="-1" aria-label="x, 2020, 50,048. Deer." style="outline:0" transform="translate(66 61)"/></g></g><text x="300" text-anchor="middle" class="highcharts-title" data-z-index="4" style="color:#e0e0e3;font-size:20px;text-transform:uppercase;fill:#e0e0e3" y="25" aria-hidden="true">Moose and deer hunting in Norway, 2000 - 2021</text><text x="300" text-anchor="middle" class="highcharts-subtitle" data-z-index="4" style="color:#e0e0e3;text-transform:uppercase;fill:#e0e0e3" y="46" aria-hidden="true">Source: <a target="_blank"><tspan>SSB</tspan></a></text><g class="highcharts-legend highcharts-no-tooltip" data-z-index="7" transform="translate(130 80)" aria-hidden="true"><rect fill="rgba(0, 0, 0, 0.5)" class="highcharts-legend-box" rx="0" ry="0" stroke="#999" x=".5" y=".5" width="74" height="40"/><g data-z-index="1"><g class="highcharts-legend-item highcharts-areaspline-series highcharts-color-0 highcharts-series-0" data-z-index="1" transform="translate(8 3)"><text x="21" data-z-index="2" y="15" style="color:#e0e0e3;cursor:pointer;font-size:12px;font-weight:700;fill:#e0e0e3">Moose</text><rect x="2" y="4" width="12" height="12" fill="#2b908f" rx="6" ry="6" class="highcharts-point" data-z-index="3"/></g><g class="highcharts-legend-item highcharts-areaspline-series highcharts-color-1 highcharts-series-1" data-z-index="1" transform="translate(8 18)"><text x="21" y="15" data-z-index="2" style="color:#e0e0e3;cursor:pointer;font-size:12px;font-weight:700;fill:#e0e0e3">Deer</text><rect x="2" y="4" width="12" height="12" fill="#90ee7e" rx="6" ry="6" class="highcharts-point" data-z-index="3"/></g></g></g><g class="highcharts-axis-labels highcharts-xaxis-labels" data-z-index="7" aria-hidden="true" text-anchor="middle"><text x="71.137" style="color:#e0e0e3;cursor:default;font-size:11px;fill:#e0e0e3" y="384">2000</text><text x="199.569" style="color:#e0e0e3;cursor:default;font-size:11px;fill:#e0e0e3" y="384">2005</text><text x="328" style="color:#e0e0e3;cursor:default;font-size:11px;fill:#e0e0e3" y="384">2010</text><text x="456.431" style="color:#e0e0e3;cursor:default;font-size:11px;fill:#e0e0e3" y="384">2015</text><text x="577.762" style="color:#e0e0e3;cursor:default;font-size:11px;fill:#e0e0e3" y="384">2020</text></g><g class="highcharts-axis-labels highcharts-yaxis-labels" data-z-index="7" aria-hidden="true" text-anchor="end"><text x="51" style="color:#e0e0e3;cursor:default;font-size:11px;fill:#e0e0e3" y="370">0</text><text x="51" style="color:#e0e0e3;cursor:default;font-size:11px;fill:#e0e0e3" y="319">10k</text><text x="51" style="color:#e0e0e3;cursor:default;font-size:11px;fill:#e0e0e3" y="268">20k</text><text x="51" style="color:#e0e0e3;cursor:default;font-size:11px;fill:#e0e0e3" y="218">30k</text><text x="51" style="color:#e0e0e3;cursor:default;font-size:11px;fill:#e0e0e3" y="167">40k</text><text x="51" style="color:#e0e0e3;cursor:default;font-size:11px;fill:#e0e0e3" y="116">50k</text><text x="51" style="color:#e0e0e3;cursor:default;font-size:11px;fill:#e0e0e3" y="66">60k</text></g></svg>