<svg class="highcharts-root" style="font-family:&quot;Unica One&quot;,sans-serif;font-size:12px" xmlns="http://www.w3.org/2000/svg" width="600" height="400" aria-label="Interactive chart" aria-hidden="false"><defs aria-hidden="true"><linearGradient x1="0" y1="0" x2="1" y2="1" id="a"><stop offset="0" stop-color="#2a2a2b"/><stop offset="1" stop-color="#3e3e40"/></linearGradient><clipPath id="b"><path fill="none" d="M0 0h466v219H0z"/></clipPath></defs><rect fill="url(#a)" class="highcharts-background" width="600" height="400" rx="0" ry="0" aria-hidden="true"/><path fill="none" class="highcharts-plot-background" aria-hidden="true" d="M64 89h466v219H64z"/><g class="highcharts-grid highcharts-xaxis-grid" data-z-index="1" aria-hidden="true" fill="none"><path data-z-index="1" class="highcharts-grid-line" d="M68.5 89v219m76-219v219m77-219v219m77-219v219m76-219v219m77-219v219m76-219v219"/></g><g class="highcharts-grid highcharts-xaxis-grid" data-z-index="1" aria-hidden="true" fill="none"><path data-z-index="1" class="highcharts-grid-line" d="M111.5 89v219m175-219v219m175-219v219"/></g><g class="highcharts-grid highcharts-yaxis-grid" data-z-index="1" aria-hidden="true" fill="none" stroke="#707073"><path data-z-index="1" class="highcharts-grid-line" d="M64 308.5h466m-466-55h466m-466-54h466m-466-55h466m-466-56h466"/></g><g class="highcharts-grid highcharts-yaxis-grid" data-z-index="1" aria-hidden="true" fill="none" stroke="#707073"><path data-z-index="1" class="highcharts-grid-line" d="M64 308.5h466m-466-55h466m-466-54h466m-466-55h466m-466-56h466"/></g><path fill="none" class="highcharts-plot-border" data-z-index="1" aria-hidden="true" d="M64 89h466v219H64z"/><g class="highcharts-axis highcharts-xaxis" data-z-index="2" aria-hidden="true"><path fill="none" class="highcharts-tick" stroke="#707073" d="M68.5 308v10m76-10v10m77-10v10m77-10v10m76-10v10m77-10v10m76-10v10"/><text x="297" data-z-index="7" text-anchor="middle" class="highcharts-axis-title" style="color:#a0a0a3;fill:#a0a0a3" y="345.5">Data</text><path fill="none" class="highcharts-axis-line" stroke="#707073" data-z-index="7" d="M64 308.5h466"/></g><g class="highcharts-axis highcharts-xaxis" data-z-index="2" aria-hidden="true"><path fill="none" class="highcharts-tick" stroke="#707073" d="M111.5 89V79m175 10V79m175 10V79"/><text x="297" data-z-index="7" text-anchor="middle" class="highcharts-axis-title" style="color:#a0a0a3;fill:#a0a0a3" y="60.5">Bell curve</text><path fill="none" class="highcharts-axis-line" stroke="#707073" data-z-index="7" d="M64 88.5h466"/></g><g class="highcharts-axis highcharts-yaxis" data-z-index="2" aria-hidden="true"><path fill="none" class="highcharts-tick" stroke="#707073" d="M64 308.5H54m10-55H54m10-54H54m10-55H54m10-56H54"/><text x="23.703" data-z-index="7" text-anchor="middle" transform="rotate(-90 23.703 198.5)" class="highcharts-axis-title" style="color:#a0a0a3;fill:#a0a0a3" y="198.5">Data</text><path fill="none" class="highcharts-axis-line" data-z-index="7" d="M64 89v219"/></g><g class="highcharts-axis highcharts-yaxis" data-z-index="2" aria-hidden="true"><path fill="none" class="highcharts-tick" stroke="#707073" d="M530 308.5h10m-10-55h10m-10-54h10m-10-55h10m-10-56h10"/><text x="576.414" data-z-index="7" text-anchor="middle" transform="rotate(90 576.414 198.5)" class="highcharts-axis-title" style="color:#a0a0a3;fill:#a0a0a3" y="198.5">Bell curve</text><path fill="none" class="highcharts-axis-line" data-z-index="7" d="M530 89v219"/></g><g class="highcharts-series-group" data-z-index="3" aria-hidden="false"><g class="highcharts-series highcharts-series-0 highcharts-bellcurve-series highcharts-color-0" data-z-index="-1" clip-path="url(#b)" aria-hidden="true" transform="translate(64 89)"><path fill="rgba(43,144,143,0.75)" d="M4.569 216.773s15.228-1.31 25.38-3.499c10.153-2.19 15.23-3.169 25.382-7.45 10.153-4.28 15.229-6.59 25.381-13.952 10.153-7.361 15.23-11.798 25.382-22.854 10.152-11.056 15.228-18.105 25.38-32.424 10.153-14.32 15.23-23.552 25.382-39.172 10.153-15.62 15.229-25.32 25.381-38.928 10.153-13.607 15.23-21.121 25.382-29.11C217.77 21.397 222.847 18.553 233 18.553s15.229 2.844 25.381 10.833c10.153 7.988 15.229 15.502 25.382 29.11 10.152 13.607 15.228 23.307 25.38 38.927 10.153 15.62 15.23 24.852 25.382 39.172 10.153 14.319 15.229 21.368 25.381 32.424 10.153 11.056 15.23 15.493 25.382 22.854 10.152 7.362 15.228 9.673 25.38 13.953 10.153 4.28 15.23 5.26 25.382 7.45 10.153 2.189 25.381 3.498 25.381 3.498V219H4.57Z" class="highcharts-area" data-z-index="0"/><path fill="none" d="M4.569 216.773s15.228-1.31 25.38-3.499c10.153-2.19 15.23-3.169 25.382-7.45 10.153-4.28 15.229-6.59 25.381-13.952 10.153-7.361 15.23-11.798 25.382-22.854 10.152-11.056 15.228-18.105 25.38-32.424 10.153-14.32 15.23-23.552 25.382-39.172 10.153-15.62 15.229-25.32 25.381-38.928 10.153-13.607 15.23-21.121 25.382-29.11C217.77 21.397 222.847 18.553 233 18.553s15.229 2.844 25.381 10.833c10.153 7.988 15.229 15.502 25.382 29.11 10.152 13.607 15.228 23.307 25.38 38.927 10.153 15.62 15.23 24.852 25.382 39.172 10.153 14.319 15.229 21.368 25.381 32.424 10.153 11.056 15.23 15.493 25.382 22.854 10.152 7.362 15.228 9.673 25.38 13.953 10.153 4.28 15.23 5.26 25.382 7.45 10.153 2.189 25.381 3.498 25.381 3.498" class="highcharts-graph" data-z-index="1" stroke="#2b908f" stroke-width="2" stroke-linejoin="round" stroke-linecap="round"/><path fill="none" d="M4.569 216.773s15.228-1.31 25.38-3.499c10.153-2.19 15.23-3.169 25.382-7.45 10.153-4.28 15.229-6.59 25.381-13.952 10.153-7.361 15.23-11.798 25.382-22.854 10.152-11.056 15.228-18.105 25.38-32.424 10.153-14.32 15.23-23.552 25.382-39.172 10.153-15.62 15.229-25.32 25.381-38.928 10.153-13.607 15.23-21.121 25.382-29.11C217.77 21.397 222.847 18.553 233 18.553s15.229 2.844 25.381 10.833c10.153 7.988 15.229 15.502 25.382 29.11 10.152 13.607 15.228 23.307 25.38 38.927 10.153 15.62 15.23 24.852 25.382 39.172 10.153 14.319 15.229 21.368 25.381 32.424 10.153 11.056 15.23 15.493 25.382 22.854 10.152 7.362 15.228 9.673 25.38 13.953 10.153 4.28 15.23 5.26 25.382 7.45 10.153 2.189 25.381 3.498 25.381 3.498" data-z-index="2" class="highcharts-tracker-line" stroke-linecap="round" stroke-linejoin="round" stroke="rgba(192,192,192,0.0001)" stroke-width="22"/></g><g class="highcharts-markers highcharts-series-1 highcharts-scatter-series highcharts-color-1 highcharts-tracker" data-z-index=".1" aria-hidden="false" tabindex="-1" aria-label="Data, series 2 of 2, scatter plot with 150 points. Y axis, Data. X axis, Data." style="outline:0" fill="#90ee7e"><path d="M4.5 87 6 88.5 4.5 90 3 88.5Zm3 35 1.5 1.5-1.5 1.5-1.5-1.5Zm3-14 1.5 1.5-1.5 1.5-1.5-1.5Zm3 7 1.5 1.5-1.5 1.5-1.5-1.5Zm3-34 1.5 1.5-1.5 1.5-1.5-1.5Zm3-21 1.5 1.5-1.5 1.5-1.5-1.5Zm3 34 1.5 1.5-1.5 1.5-1.5-1.5Zm3 0 1.5 1.5-1.5 1.5-1.5-1.5Zm3 35 1.5 1.5-1.5 1.5-1.5-1.5Zm3-14 1.5 1.5-1.5 1.5-1.5-1.5Zm3-41 1.5 1.5-1.5 1.5-1.5-1.5Zm3 20 1.5 1.5-1.5 1.5-1.5-1.5Zm3 28 1.5 1.5-1.5 1.5-1.5-1.5Zm3 0 1.5 1.5-1.5 1.5-1.5-1.5Zm3-69 1.5 1.5-1.5 1.5-1.5-1.5Zm4-27 1.5 1.5-1.5 1.5-1.5-1.5Zm3 34 1.5 1.5-1.5 1.5-1.5-1.5Zm3 27 1.5 1.5-1.5 1.5-1.5-1.5Zm3-20 1.5 1.5-1.5 1.5-1.5-1.5Zm3 0 1.5 1.5-1.5 1.5-1.5-1.5Zm3 27 1.5 1.5-1.5 1.5-1.5-1.5Zm3-20 1.5 1.5-1.5 1.5-1.5-1.5Zm3 7 1.5 1.5-1.5 1.5-1.5-1.5Zm3 20 1.5 1.5-1.5 1.5-1.5-1.5Zm3-7 1.5 1.5-1.5 1.5-1.5-1.5Zm3 28 1.5 1.5-1.5 1.5-1.5-1.5Zm3-28 1.5 1.5-1.5 1.5-1.5-1.5Zm3-7 1.5 1.5-1.5 1.5-1.5-1.5Zm3 7 1.5 1.5-1.5 1.5-1.5-1.5Zm3 14 1.5 1.5-1.5 1.5-1.5-1.5Zm4 7 1.5 1.5-1.5 1.5-1.5-1.5Zm3-21 1.5 1.5-1.5 1.5-1.5-1.5Zm3-48 1.5 1.5-1.5 1.5-1.5-1.5Zm3-6 1.5 1.5-1.5 1.5-1.5-1.5Zm3 75 1.5 1.5-1.5 1.5-1.5-1.5Zm3-7 1.5 1.5-1.5 1.5-1.5-1.5Zm3-21 1.5 1.5-1.5 1.5-1.5-1.5Zm3-6 1.5 1.5-1.5 1.5-1.5-1.5Zm3 41 1.5 1.5-1.5 1.5-1.5-1.5Zm3-28 1.5 1.5-1.5 1.5-1.5-1.5Zm3-7 1.5 1.5-1.5 1.5-1.5-1.5Zm3 83 1.5 1.5-1.5 1.5-1.5-1.5Zm3-62 1.5 1.5-1.5 1.5-1.5-1.5Zm3-21 1.5 1.5-1.5 1.5-1.5-1.5Zm3-20 1.5 1.5-1.5 1.5-1.5-1.5Zm4 55 1.5 1.5-1.5 1.5-1.5-1.5Zm3-55 1.5 1.5-1.5 1.5-1.5-1.5Zm3 41 1.5 1.5-1.5 1.5-1.5-1.5Zm3-34 1.5 1.5-1.5 1.5-1.5-1.5Zm3 27 1.5 1.5-1.5 1.5-1.5-1.5Zm3 7 1.5 1.5-1.5 1.5-1.5-1.5Zm3 0 1.5 1.5-1.5 1.5-1.5-1.5Zm3 7 1.5 1.5-1.5 1.5-1.5-1.5Zm3 55 1.5 1.5-1.5 1.5-1.5-1.5Zm3-35 1.5 1.5-1.5 1.5-1.5-1.5Zm3 0 1.5 1.5-1.5 1.5-1.5-1.5Zm3-34 1.5 1.5-1.5 1.5-1.5-1.5Zm3 62 1.5 1.5-1.5 1.5-1.5-1.5Zm3-34 1.5 1.5-1.5 1.5-1.5-1.5Zm3 13 1.5 1.5-1.5 1.5-1.5-1.5Zm4 48 1.5 1.5-1.5 1.5-1.5-1.5Zm3-68 1.5 1.5-1.5 1.5-1.5-1.5Zm3 54 1.5 1.5-1.5 1.5-1.5-1.5Zm3-47 1.5 1.5-1.5 1.5-1.5-1.5Zm3 0 1.5 1.5-1.5 1.5-1.5-1.5Zm3-14 1.5 1.5-1.5 1.5-1.5-1.5Zm3 7 1.5 1.5-1.5 1.5-1.5-1.5Zm3 20 1.5 1.5-1.5 1.5-1.5-1.5Zm3 34 1.5 1.5-1.5 1.5-1.5-1.5Zm3-20 1.5 1.5-1.5 1.5-1.5-1.5Zm3-48 1.5 1.5-1.5 1.5-1.5-1.5Zm3 27 1.5 1.5-1.5 1.5-1.5-1.5Zm3 21 1.5 1.5-1.5 1.5-1.5-1.5Zm3-21 1.5 1.5-1.5 1.5-1.5-1.5Zm3-6 1.5 1.5-1.5 1.5-1.5-1.5Zm4-7 1.5 1.5-1.5 1.5-1.5-1.5Zm3 13 1.5 1.5-1.5 1.5-1.5-1.5Zm3-13 1.5 1.5-1.5 1.5-1.5-1.5Zm3 7 1.5 1.5-1.5 1.5-1.5-1.5Zm3 20 1.5 1.5-1.5 1.5-1.5-1.5Zm3 14 1.5 1.5-1.5 1.5-1.5-1.5Zm3 0 1.5 1.5-1.5 1.5-1.5-1.5Zm3-21 1.5 1.5-1.5 1.5-1.5-1.5Zm3 0 1.5 1.5-1.5 1.5-1.5-1.5Zm3-20 1.5 1.5-1.5 1.5-1.5-1.5Zm3-28 1.5 1.5-1.5 1.5-1.5-1.5Zm3 21 1.5 1.5-1.5 1.5-1.5-1.5Zm3 55 1.5 1.5-1.5 1.5-1.5-1.5Zm3-48 1.5 1.5-1.5 1.5-1.5-1.5Zm3 34 1.5 1.5-1.5 1.5-1.5-1.5Zm4-7 1.5 1.5-1.5 1.5-1.5-1.5Zm3-27 1.5 1.5-1.5 1.5-1.5-1.5Zm3 27 1.5 1.5-1.5 1.5-1.5-1.5Zm3 21 1.5 1.5-1.5 1.5-1.5-1.5Zm3-28 1.5 1.5-1.5 1.5-1.5-1.5Zm3-20 1.5 1.5-1.5 1.5-1.5-1.5Zm3 7 1.5 1.5-1.5 1.5-1.5-1.5Zm3 0 1.5 1.5-1.5 1.5-1.5-1.5Zm3 27 1.5 1.5-1.5 1.5-1.5-1.5Zm3-21 1.5 1.5-1.5 1.5-1.5-1.5Zm3-34 1.5 1.5-1.5 1.5-1.5-1.5Zm3 41 1.5 1.5-1.5 1.5-1.5-1.5Zm3-20 1.5 1.5-1.5 1.5-1.5-1.5Zm3 7 1.5 1.5-1.5 1.5-1.5-1.5Zm3-7 1.5 1.5-1.5 1.5-1.5-1.5Zm4 0 1.5 1.5-1.5 1.5-1.5-1.5Zm3 34 1.5 1.5-1.5 1.5-1.5-1.5Zm3-27 1.5 1.5-1.5 1.5-1.5-1.5Zm3 27 1.5 1.5-1.5 1.5-1.5-1.5Zm3-75 1.5 1.5-1.5 1.5-1.5-1.5Zm3 27 1.5 1.5-1.5 1.5-1.5-1.5Zm3 34 1.5 1.5-1.5 1.5-1.5-1.5Zm3-20 1.5 1.5-1.5 1.5-1.5-1.5Zm3 34 1.5 1.5-1.5 1.5-1.5-1.5Zm3-21 1.5 1.5-1.5 1.5-1.5-1.5Zm3-27 1.5 1.5-1.5 1.5-1.5-1.5Zm3 14 1.5 1.5-1.5 1.5-1.5-1.5Zm3-55 1.5 1.5-1.5 1.5-1.5-1.5Zm3 82 1.5 1.5-1.5 1.5-1.5-1.5Zm3 27 1.5 1.5-1.5 1.5-1.5-1.5Zm4-68 1.5 1.5-1.5 1.5-1.5-1.5Zm3 27 1.5 1.5-1.5 1.5-1.5-1.5Zm3 0 1.5 1.5-1.5 1.5-1.5-1.5Zm3 7 1.5 1.5-1.5 1.5-1.5-1.5Zm3-41 1.5 1.5-1.5 1.5-1.5-1.5Zm3 7 1.5 1.5-1.5 1.5-1.5-1.5Zm3 27 1.5 1.5-1.5 1.5-1.5-1.5Zm3-13 1.5 1.5-1.5 1.5-1.5-1.5Zm3 13 1.5 1.5-1.5 1.5-1.5-1.5Zm3-13 1.5 1.5-1.5 1.5-1.5-1.5Zm3 13 1.5 1.5-1.5 1.5-1.5-1.5Zm3-68 1.5 1.5-1.5 1.5-1.5-1.5Zm3 68 1.5 1.5-1.5 1.5-1.5-1.5Zm3 0 1.5 1.5-1.5 1.5-1.5-1.5Zm3 14 1.5 1.5-1.5 1.5-1.5-1.5Zm4-27 1.5 1.5-1.5 1.5-1.5-1.5Zm3-28 1.5 1.5-1.5 1.5-1.5-1.5Zm3 21 1.5 1.5-1.5 1.5-1.5-1.5Zm3 7 1.5 1.5-1.5 1.5-1.5-1.5Zm3-7 1.5 1.5-1.5 1.5-1.5-1.5Zm3 0 1.5 1.5-1.5 1.5-1.5-1.5Zm3 0 1.5 1.5-1.5 1.5-1.5-1.5Zm3 27 1.5 1.5-1.5 1.5-1.5-1.5Zm3-34 1.5 1.5-1.5 1.5-1.5-1.5Zm3-7 1.5 1.5-1.5 1.5-1.5-1.5Zm3 21 1.5 1.5-1.5 1.5-1.5-1.5Zm3 34 1.5 1.5-1.5 1.5-1.5-1.5Zm3-34 1.5 1.5-1.5 1.5-1.5-1.5Zm3-28 1.5 1.5-1.5 1.5-1.5-1.5Zm3 28 1.5 1.5-1.5 1.5-1.5-1.5Z" class="highcharts-point highcharts-color-1" tabindex="-1" aria-hidden="true" style="outline:0" transform="translate(64 89)"/></g></g><text x="300" text-anchor="middle" class="highcharts-title" data-z-index="4" style="color:#e0e0e3;font-size:20px;text-transform:uppercase;fill:#e0e0e3" y="25" aria-hidden="true">Bell curve</text><g class="highcharts-legend highcharts-no-tooltip" data-z-index="7" transform="translate(219 359)" aria-hidden="true"><rect fill="rgba(0, 0, 0, 0.5)" class="highcharts-legend-box" rx="0" ry="0" width="161" height="26"/><g data-z-index="1"><g class="highcharts-legend-item highcharts-bellcurve-series highcharts-color-0 highcharts-series-0" data-z-index="1" transform="translate(8 3)"><text x="21" data-z-index="2" y="15" style="color:#e0e0e3;cursor:pointer;font-size:12px;font-weight:700;fill:#e0e0e3">Bell curve</text><rect x="2" y="4" width="12" height="12" fill="#2b908f" rx="6" ry="6" class="highcharts-point" data-z-index="3"/></g><g class="highcharts-legend-item highcharts-scatter-series highcharts-color-1 highcharts-series-1" data-z-index="1"><path fill="none" d="M106.367 14h16" class="highcharts-graph"/><path fill="#90ee7e" d="m114.867 13 1.5 1.5-1.5 1.5-1.5-1.5Z" class="highcharts-point"/><text x="21" y="15" data-z-index="2" style="color:#e0e0e3;cursor:pointer;font-size:12px;font-weight:700;fill:#e0e0e3" transform="translate(106.367 3)">Data</text></g></g></g><g class="highcharts-axis-labels highcharts-xaxis-labels" data-z-index="7" aria-hidden="true" text-anchor="middle"><text x="68.569" style="color:#e0e0e3;cursor:default;font-size:11px;fill:#e0e0e3" y="327">0</text><text x="145.223" style="color:#e0e0e3;cursor:default;font-size:11px;fill:#e0e0e3" y="327">25</text><text x="221.878" style="color:#e0e0e3;cursor:default;font-size:11px;fill:#e0e0e3" y="327">50</text><text x="298.533" style="color:#e0e0e3;cursor:default;font-size:11px;fill:#e0e0e3" y="327">75</text><text x="375.188" style="color:#e0e0e3;cursor:default;font-size:11px;fill:#e0e0e3" y="327">100</text><text x="451.843" style="color:#e0e0e3;cursor:default;font-size:11px;fill:#e0e0e3" y="327">125</text><text x="528.498" style="color:#e0e0e3;cursor:default;font-size:11px;fill:#e0e0e3" y="327">150</text></g><g class="highcharts-axis-labels highcharts-xaxis-labels" data-z-index="7" aria-hidden="true" text-anchor="middle"><text x="112.289" style="color:#e0e0e3;cursor:default;font-size:11px;fill:#e0e0e3" y="77">2</text><text x="286.984" style="color:#e0e0e3;cursor:default;font-size:11px;fill:#e0e0e3" y="77">3</text><text x="461.679" style="color:#e0e0e3;cursor:default;font-size:11px;fill:#e0e0e3" y="77">4</text></g><g class="highcharts-axis-labels highcharts-yaxis-labels" data-z-index="7" aria-hidden="true" text-anchor="end"><text x="49" style="color:#e0e0e3;cursor:default;font-size:11px;fill:#e0e0e3" y="313">1.6</text><text x="49" style="color:#e0e0e3;cursor:default;font-size:11px;fill:#e0e0e3" y="258">2.4</text><text x="49" style="color:#e0e0e3;cursor:default;font-size:11px;fill:#e0e0e3" y="203">3.2</text><text x="49" style="color:#e0e0e3;cursor:default;font-size:11px;fill:#e0e0e3" y="149">4</text><text x="49" style="color:#e0e0e3;cursor:default;font-size:11px;fill:#e0e0e3" y="94">4.8</text></g><g class="highcharts-axis-labels highcharts-yaxis-labels" data-z-index="7" aria-hidden="true"><text x="545" style="color:#e0e0e3;cursor:default;font-size:11px;fill:#e0e0e3" y="313">0</text><text x="545" style="color:#e0e0e3;cursor:default;font-size:11px;fill:#e0e0e3" y="258">0.25</text><text x="545" style="color:#e0e0e3;cursor:default;font-size:11px;fill:#e0e0e3" y="203">0.5</text><text x="545" style="color:#e0e0e3;cursor:default;font-size:11px;fill:#e0e0e3" y="149">0.75</text><text x="545" style="color:#e0e0e3;cursor:default;font-size:11px;fill:#e0e0e3" y="94">1</text></g></svg>