<svg class="highcharts-root" style="font-family:&quot;Unica One&quot;,sans-serif;font-size:12px" xmlns="http://www.w3.org/2000/svg" width="600" height="400" aria-label="Interactive chart" aria-hidden="false"><defs aria-hidden="true"><linearGradient x1="0" y1="0" x2="1" y2="1" id="a"><stop offset="0" stop-color="#2a2a2b"/><stop offset="1" stop-color="#3e3e40"/></linearGradient><clipPath id="b"><path fill="none" d="M0 0h530v281H0z"/></clipPath></defs><rect fill="url(#a)" class="highcharts-background" width="600" height="400" rx="0" ry="0" aria-hidden="true"/><path fill="none" class="highcharts-plot-background" aria-hidden="true" d="M60 84h530v281H60z"/><g class="highcharts-grid highcharts-xaxis-grid" data-z-index="1" aria-hidden="true" fill="none"><path data-z-index="1" class="highcharts-grid-line" d="M103.5 84v281m44-281v281m45-281v281m44-281v281m44-281v281m44-281v281m44-281v281m44-281v281m45-281v281m44-281v281m44-281v281m44-281v281M59.5 84v281"/></g><g class="highcharts-grid highcharts-yaxis-grid" data-z-index="1" aria-hidden="true" fill="none" stroke="#707073"><path data-z-index="1" class="highcharts-grid-line" d="M60 365.5h530m-530-47h530m-530-47h530m-530-46h530m-530-47h530m-530-47h530m-530-48h530"/></g><path fill="none" class="highcharts-plot-border" data-z-index="1" aria-hidden="true" d="M60 84h530v281H60z"/><g class="highcharts-axis highcharts-xaxis" data-z-index="2" aria-hidden="true"><path fill="none" class="highcharts-axis-line" stroke="#707073" data-z-index="7" d="M60 365.5h530"/></g><g class="highcharts-axis highcharts-yaxis" data-z-index="2" aria-hidden="true"><path fill="none" class="highcharts-tick" stroke="#707073" d="M60 365.5H50m10-47H50m10-47H50m10-46H50m10-47H50m10-47H50m10-48H50"/><text x="23.375" data-z-index="7" text-anchor="middle" transform="rotate(-90 23.375 224.5)" class="highcharts-axis-title" style="color:#a0a0a3;fill:#a0a0a3" y="224.5">Values</text><path fill="none" class="highcharts-axis-line" data-z-index="7" d="M60 84v281"/></g><g class="highcharts-series-group" data-z-index="3" aria-hidden="false"><g class="highcharts-series highcharts-series-0 highcharts-column-series highcharts-tracker" data-z-index=".1" clip-path="url(#b)" aria-hidden="false" stroke="#fff" transform="translate(60 84)"><path fill="#2b908f" class="highcharts-point highcharts-color-0" tabindex="-1" aria-label="Jan, 5,412. Unemployed." style="outline:0" d="M10.5 28.5h22v253h-22z"/><path fill="#90ee7e" class="highcharts-point highcharts-color-1" tabindex="-1" aria-label="Feb, 4,977. Unemployed." style="outline:0" d="M55.5 48.5h22v233h-22z"/><path fill="#f45b5b" class="highcharts-point highcharts-color-2" tabindex="-1" aria-label="Mar, 4,730. Unemployed." style="outline:0" d="M99.5 59.5h22v222h-22z"/><path fill="#7798BF" class="highcharts-point highcharts-color-3" tabindex="-1" aria-label="Apr, 4,437. Unemployed." style="outline:0" d="M143.5 73.5h22v208h-22z"/><path fill="#aee" class="highcharts-point highcharts-color-4" tabindex="-1" aria-label="May, 3,947. Unemployed." style="outline:0" d="M187.5 96.5h22v185h-22z"/><path fill="#f06" class="highcharts-point highcharts-color-5" tabindex="-1" aria-label="Jun, 3,707. Unemployed." style="outline:0" d="M231.5 107.5h22v174h-22z"/><path fill="#eae" class="highcharts-point highcharts-color-6" tabindex="-1" aria-label="Jul, 4,143. Unemployed." style="outline:0" d="M275.5 87.5h22v194h-22z"/><path fill="#55BF3B" class="highcharts-point highcharts-color-7" tabindex="-1" aria-label="Aug, 3,609. Unemployed." style="outline:0" d="M320.5 112.5h22v169h-22z"/><path fill="#DF5353" class="highcharts-point highcharts-color-8" tabindex="-1" aria-label="Sep, 3,311. Unemployed." style="outline:0" d="M364.5 126.5h22v155h-22z"/><path fill="#7798BF" class="highcharts-point highcharts-color-9" tabindex="-1" aria-label="Oct, 3,072. Unemployed." style="outline:0" d="M408.5 137.5h22v144h-22z"/><path fill="#aee" class="highcharts-point highcharts-color-10" tabindex="-1" aria-label="Nov, 2,899. Unemployed." style="outline:0" d="M452.5 145.5h22v136h-22z"/><path fill="#2b908f" class="highcharts-point highcharts-color-0" tabindex="-1" aria-label="Dec, 2,887. Unemployed." style="outline:0" d="M496.5 146.5h22v135h-22z"/></g></g><text x="300" text-anchor="middle" class="highcharts-title" data-z-index="4" style="color:#e0e0e3;font-size:20px;text-transform:uppercase;fill:#e0e0e3" y="25" aria-hidden="true">Unemployment rates in engineering and ICT<tspan dy="23" x="300">​</tspan>subjects, 2021</text><text x="300" text-anchor="middle" class="highcharts-subtitle" data-z-index="4" style="color:#e0e0e3;text-transform:uppercase;fill:#e0e0e3" y="69" aria-hidden="true">Chart option: Plain | Source: <a target="_blank"><tspan>NAV</tspan></a></text><g class="highcharts-axis-labels highcharts-xaxis-labels" data-z-index="7" aria-hidden="true" text-anchor="middle"><text x="82.083" style="color:#e0e0e3;cursor:default;font-size:11px;fill:#e0e0e3" y="384">Jan</text><text x="126.25" style="color:#e0e0e3;cursor:default;font-size:11px;fill:#e0e0e3" y="384">Feb</text><text x="170.417" style="color:#e0e0e3;cursor:default;font-size:11px;fill:#e0e0e3" y="384">Mar</text><text x="214.583" style="color:#e0e0e3;cursor:default;font-size:11px;fill:#e0e0e3" y="384">Apr</text><text x="258.75" style="color:#e0e0e3;cursor:default;font-size:11px;fill:#e0e0e3" y="384">May</text><text x="302.917" style="color:#e0e0e3;cursor:default;font-size:11px;fill:#e0e0e3" y="384">Jun</text><text x="347.083" style="color:#e0e0e3;cursor:default;font-size:11px;fill:#e0e0e3" y="384">Jul</text><text x="391.25" style="color:#e0e0e3;cursor:default;font-size:11px;fill:#e0e0e3" y="384">Aug</text><text x="435.417" style="color:#e0e0e3;cursor:default;font-size:11px;fill:#e0e0e3" y="384">Sep</text><text x="479.583" style="color:#e0e0e3;cursor:default;font-size:11px;fill:#e0e0e3" y="384">Oct</text><text x="523.75" style="color:#e0e0e3;cursor:default;font-size:11px;fill:#e0e0e3" y="384">Nov</text><text x="567.917" style="color:#e0e0e3;cursor:default;font-size:11px;fill:#e0e0e3" y="384">Dec</text></g><g class="highcharts-axis-labels highcharts-yaxis-labels" data-z-index="7" aria-hidden="true" text-anchor="end"><text x="45" style="color:#e0e0e3;cursor:default;font-size:11px;fill:#e0e0e3" y="370">0</text><text x="45" style="color:#e0e0e3;cursor:default;font-size:11px;fill:#e0e0e3" y="323">1k</text><text x="45" style="color:#e0e0e3;cursor:default;font-size:11px;fill:#e0e0e3" y="276">2k</text><text x="45" style="color:#e0e0e3;cursor:default;font-size:11px;fill:#e0e0e3" y="229">3k</text><text x="45" style="color:#e0e0e3;cursor:default;font-size:11px;fill:#e0e0e3" y="182">4k</text><text x="45" style="color:#e0e0e3;cursor:default;font-size:11px;fill:#e0e0e3" y="136">5k</text><text x="45" style="color:#e0e0e3;cursor:default;font-size:11px;fill:#e0e0e3" y="89">6k</text></g></svg>