<svg class="highcharts-root" style="font-family:&quot;Unica One&quot;,sans-serif;font-size:12px" xmlns="http://www.w3.org/2000/svg" width="600" height="400" aria-label="Interactive chart" aria-hidden="false"><defs aria-hidden="true"><linearGradient x1="0" y1="0" x2="1" y2="1" id="a"><stop offset="0" stop-color="#2a2a2b"/><stop offset="1" stop-color="#3e3e40"/></linearGradient><clipPath id="b"><path fill="none" d="M0 0h523v266H0z"/></clipPath></defs><rect fill="url(#a)" class="highcharts-background" width="600" height="400" rx="0" ry="0" aria-hidden="true"/><path fill="none" class="highcharts-plot-background" aria-hidden="true" d="M67 61h523v266H67z"/><g class="highcharts-grid highcharts-xaxis-grid" data-z-index="1" aria-hidden="true" fill="none"><path data-z-index="1" class="highcharts-grid-line" d="M110.5 61v266m43-266v266m44-266v266m43-266v266m44-266v266m43-266v266m44-266v266m44-266v266m43-266v266m44-266v266m43-266v266m44-266v266M66.5 61v266"/></g><g class="highcharts-grid highcharts-yaxis-grid" data-z-index="1" aria-hidden="true" fill="none" stroke="#707073"><path data-z-index="1" class="highcharts-grid-line" d="M67 327.5h523m-523-53h523m-523-53h523m-523-54h523m-523-53h523m-523-54h523"/></g><path fill="none" class="highcharts-plot-border" data-z-index="1" aria-hidden="true" d="M67 61h523v266H67z"/><g class="highcharts-axis highcharts-xaxis" data-z-index="2" aria-hidden="true"><path fill="none" class="highcharts-axis-line" stroke="#707073" data-z-index="7" d="M67 327.5h523"/></g><g class="highcharts-axis highcharts-yaxis" data-z-index="2" aria-hidden="true"><path fill="none" class="highcharts-tick" stroke="#707073" d="M67 327.5H57m10-53H57m10-53H57m10-54H57m10-53H57m10-54H57"/><text x="23.641" data-z-index="7" text-anchor="middle" transform="rotate(-90 23.64 194)" class="highcharts-axis-title" style="color:#a0a0a3;fill:#a0a0a3" y="194">Rainfall (mm)</text><path fill="none" class="highcharts-axis-line" data-z-index="7" d="M67 61v266"/></g><g class="highcharts-series-group" data-z-index="3" aria-hidden="false"><g class="highcharts-series highcharts-series-0 highcharts-column-series highcharts-color-0 highcharts-tracker" data-z-index=".1" clip-path="url(#b)" aria-hidden="false" tabindex="-1" aria-label="Tokyo, bar series 1 of 4 with 12 bars." style="outline:0" fill="#2b908f" transform="translate(67 61)"><path class="highcharts-point highcharts-color-0" tabindex="-1" aria-label="Jan, 49.9. Tokyo." style="outline:0" d="M10 214h4v53h-4z"/><path class="highcharts-point highcharts-color-0" tabindex="-1" aria-label="Feb, 71.5. Tokyo." style="outline:0" d="M54 191h4v76h-4z"/><path class="highcharts-point highcharts-color-0" tabindex="-1" aria-label="Mar, 106.4. Tokyo." style="outline:0" d="M97 154h4v113h-4z"/><path class="highcharts-point highcharts-color-0" tabindex="-1" aria-label="Apr, 129.2. Tokyo." style="outline:0" d="M141 130h4v137h-4z"/><path class="highcharts-point highcharts-color-0" tabindex="-1" aria-label="May, 144. Tokyo." style="outline:0" d="M184 114h4v153h-4z"/><path class="highcharts-point highcharts-color-0" tabindex="-1" aria-label="Jun, 176. Tokyo." style="outline:0" d="M228 80h4v187h-4z"/><path class="highcharts-point highcharts-color-0" tabindex="-1" aria-label="Jul, 135.6. Tokyo." style="outline:0" d="M272 123h4v144h-4z"/><path class="highcharts-point highcharts-color-0" tabindex="-1" aria-label="Aug, 148.5. Tokyo." style="outline:0" d="M315 109h4v158h-4z"/><path class="highcharts-point highcharts-color-0" tabindex="-1" aria-label="Sep, 216.4. Tokyo." style="outline:0" d="M359 37h4v230h-4z"/><path class="highcharts-point highcharts-color-0" tabindex="-1" aria-label="Oct, 194.1. Tokyo." style="outline:0" d="M402 60h4v207h-4z"/><path class="highcharts-point highcharts-color-0" tabindex="-1" aria-label="Nov, 95.6. Tokyo." style="outline:0" d="M446 165h4v102h-4z"/><path class="highcharts-point highcharts-color-0" tabindex="-1" aria-label="Dec, 54.4. Tokyo." style="outline:0" d="M489 209h4v58h-4z"/></g><g class="highcharts-series highcharts-series-1 highcharts-column-series highcharts-color-1 highcharts-tracker" data-z-index=".1" clip-path="url(#b)" aria-hidden="false" tabindex="-1" aria-label="New York, bar series 2 of 4 with 12 bars." style="outline:0" fill="#90ee7e" transform="translate(67 61)"><path class="highcharts-point highcharts-color-1" tabindex="-1" aria-label="Jan, 83.6. New York." style="outline:0" d="M17 178h4v89h-4z"/><path class="highcharts-point highcharts-color-1" tabindex="-1" aria-label="Feb, 78.8. New York." style="outline:0" d="M60 183h4v84h-4z"/><path class="highcharts-point highcharts-color-1" tabindex="-1" aria-label="Mar, 98.5. New York." style="outline:0" d="M104 162h4v105h-4z"/><path class="highcharts-point highcharts-color-1" tabindex="-1" aria-label="Apr, 93.4. New York." style="outline:0" d="M147 168h4v99h-4z"/><path class="highcharts-point highcharts-color-1" tabindex="-1" aria-label="May, 106. New York." style="outline:0" d="M191 154h4v113h-4z"/><path class="highcharts-point highcharts-color-1" tabindex="-1" aria-label="Jun, 84.5. New York." style="outline:0" d="M234 177h4v90h-4z"/><path class="highcharts-point highcharts-color-1" tabindex="-1" aria-label="Jul, 105. New York." style="outline:0" d="M278 155h4v112h-4z"/><path class="highcharts-point highcharts-color-1" tabindex="-1" aria-label="Aug, 104.3. New York." style="outline:0" d="M322 156h4v111h-4z"/><path class="highcharts-point highcharts-color-1" tabindex="-1" aria-label="Sep, 91.2. New York." style="outline:0" d="M365 170h4v97h-4z"/><path class="highcharts-point highcharts-color-1" tabindex="-1" aria-label="Oct, 83.5. New York." style="outline:0" d="M409 178h4v89h-4z"/><path class="highcharts-point highcharts-color-1" tabindex="-1" aria-label="Nov, 106.6. New York." style="outline:0" d="M452 154h4v113h-4z"/><path class="highcharts-point highcharts-color-1" tabindex="-1" aria-label="Dec, 92.3. New York." style="outline:0" d="M496 169h4v98h-4z"/></g><g class="highcharts-series highcharts-series-2 highcharts-column-series highcharts-color-2 highcharts-tracker" data-z-index=".1" clip-path="url(#b)" aria-hidden="false" tabindex="-1" aria-label="London, bar series 3 of 4 with 12 bars." style="outline:0" fill="#f45b5b" transform="translate(67 61)"><path class="highcharts-point highcharts-color-2" tabindex="-1" aria-label="Jan, 48.9. London." style="outline:0" d="M23 215h4v52h-4z"/><path class="highcharts-point highcharts-color-2" tabindex="-1" aria-label="Feb, 38.8. London." style="outline:0" d="M67 226h4v41h-4z"/><path class="highcharts-point highcharts-color-2" tabindex="-1" aria-label="Mar, 39.3. London." style="outline:0" d="M110 225h4v42h-4z"/><path class="highcharts-point highcharts-color-2" tabindex="-1" aria-label="Apr, 41.4. London." style="outline:0" d="M154 223h4v44h-4z"/><path class="highcharts-point highcharts-color-2" tabindex="-1" aria-label="May, 47. London." style="outline:0" d="M197 217h4v50h-4z"/><path class="highcharts-point highcharts-color-2" tabindex="-1" aria-label="Jun, 48.3. London." style="outline:0" d="M241 216h4v51h-4z"/><path class="highcharts-point highcharts-color-2" tabindex="-1" aria-label="Jul, 59. London." style="outline:0" d="M285 204h4v63h-4z"/><path class="highcharts-point highcharts-color-2" tabindex="-1" aria-label="Aug, 59.6. London." style="outline:0" d="M328 204h4v63h-4z"/><path class="highcharts-point highcharts-color-2" tabindex="-1" aria-label="Sep, 52.4. London." style="outline:0" d="M372 211h4v56h-4z"/><path class="highcharts-point highcharts-color-2" tabindex="-1" aria-label="Oct, 65.2. London." style="outline:0" d="M415 198h4v69h-4z"/><path class="highcharts-point highcharts-color-2" tabindex="-1" aria-label="Nov, 59.3. London." style="outline:0" d="M459 204h4v63h-4z"/><path class="highcharts-point highcharts-color-2" tabindex="-1" aria-label="Dec, 51.2. London." style="outline:0" d="M503 213h4v54h-4z"/></g><g class="highcharts-series highcharts-series-3 highcharts-column-series highcharts-color-3 highcharts-tracker" data-z-index=".1" clip-path="url(#b)" aria-hidden="false" tabindex="-1" aria-label="Berlin, bar series 4 of 4 with 12 bars." style="outline:0" fill="#7798BF" transform="translate(67 61)"><path class="highcharts-point highcharts-color-3" tabindex="-1" aria-label="Jan, 42.4. Berlin." style="outline:0" d="M30 222h4v45h-4z"/><path class="highcharts-point highcharts-color-3" tabindex="-1" aria-label="Feb, 33.2. Berlin." style="outline:0" d="M73 232h4v35h-4z"/><path class="highcharts-point highcharts-color-3" tabindex="-1" aria-label="Mar, 34.5. Berlin." style="outline:0" d="M117 230h4v37h-4z"/><path class="highcharts-point highcharts-color-3" tabindex="-1" aria-label="Apr, 39.7. Berlin." style="outline:0" d="M160 225h4v42h-4z"/><path class="highcharts-point highcharts-color-3" tabindex="-1" aria-label="May, 52.6. Berlin." style="outline:0" d="M204 211h4v56h-4z"/><path class="highcharts-point highcharts-color-3" tabindex="-1" aria-label="Jun, 75.5. Berlin." style="outline:0" d="M248 187h4v80h-4z"/><path class="highcharts-point highcharts-color-3" tabindex="-1" aria-label="Jul, 57.4. Berlin." style="outline:0" d="M291 206h4v61h-4z"/><path class="highcharts-point highcharts-color-3" tabindex="-1" aria-label="Aug, 60.4. Berlin." style="outline:0" d="M335 203h4v64h-4z"/><path class="highcharts-point highcharts-color-3" tabindex="-1" aria-label="Sep, 47.6. Berlin." style="outline:0" d="M378 216h4v51h-4z"/><path class="highcharts-point highcharts-color-3" tabindex="-1" aria-label="Oct, 39.1. Berlin." style="outline:0" d="M422 225h4v42h-4z"/><path class="highcharts-point highcharts-color-3" tabindex="-1" aria-label="Nov, 46.8. Berlin." style="outline:0" d="M465 217h4v50h-4z"/><path class="highcharts-point highcharts-color-3" tabindex="-1" aria-label="Dec, 51.1. Berlin." style="outline:0" d="M509 213h4v54h-4z"/></g></g><text x="300" text-anchor="middle" class="highcharts-title" data-z-index="4" style="color:#e0e0e3;font-size:20px;text-transform:uppercase;fill:#e0e0e3" y="25" aria-hidden="true">Monthly Average Rainfall</text><text x="300" text-anchor="middle" class="highcharts-subtitle" data-z-index="4" style="color:#e0e0e3;text-transform:uppercase;fill:#e0e0e3" y="46" aria-hidden="true">Source: WorldClimate.com</text><g class="highcharts-legend highcharts-no-tooltip" data-z-index="7" transform="translate(137 359)" aria-hidden="true"><rect fill="rgba(0, 0, 0, 0.5)" class="highcharts-legend-box" rx="0" ry="0" width="326" height="26"/><g data-z-index="1"><g class="highcharts-legend-item highcharts-column-series highcharts-color-0 highcharts-series-0" data-z-index="1" transform="translate(8 3)"><text x="21" data-z-index="2" y="15" style="color:#e0e0e3;cursor:pointer;font-size:12px;font-weight:700;fill:#e0e0e3">Tokyo</text><rect x="2" y="4" width="12" height="12" fill="#2b908f" rx="6" ry="6" class="highcharts-point" data-z-index="3"/></g><g class="highcharts-legend-item highcharts-column-series highcharts-color-1 highcharts-series-1" data-z-index="1" transform="translate(83.453 3)"><text x="21" y="15" data-z-index="2" style="color:#e0e0e3;cursor:pointer;font-size:12px;font-weight:700;fill:#e0e0e3">New York</text><rect x="2" y="4" width="12" height="12" fill="#90ee7e" rx="6" ry="6" class="highcharts-point" data-z-index="3"/></g><g class="highcharts-legend-item highcharts-column-series highcharts-color-2 highcharts-series-2" data-z-index="1" transform="translate(178.031 3)"><text x="21" y="15" data-z-index="2" style="color:#e0e0e3;cursor:pointer;font-size:12px;font-weight:700;fill:#e0e0e3">London</text><rect x="2" y="4" width="12" height="12" fill="#f45b5b" rx="6" ry="6" class="highcharts-point" data-z-index="3"/></g><g class="highcharts-legend-item highcharts-column-series highcharts-color-3 highcharts-series-3" data-z-index="1" transform="translate(263.016 3)"><text x="21" y="15" data-z-index="2" style="color:#e0e0e3;cursor:pointer;font-size:12px;font-weight:700;fill:#e0e0e3">Berlin</text><rect x="2" y="4" width="12" height="12" fill="#7798BF" rx="6" ry="6" class="highcharts-point" data-z-index="3"/></g></g></g><g class="highcharts-axis-labels highcharts-xaxis-labels" data-z-index="7" aria-hidden="true" text-anchor="middle"><text x="88.792" style="color:#e0e0e3;cursor:default;font-size:11px;fill:#e0e0e3" y="346">Jan</text><text x="132.375" style="color:#e0e0e3;cursor:default;font-size:11px;fill:#e0e0e3" y="346">Feb</text><text x="175.958" style="color:#e0e0e3;cursor:default;font-size:11px;fill:#e0e0e3" y="346">Mar</text><text x="219.542" style="color:#e0e0e3;cursor:default;font-size:11px;fill:#e0e0e3" y="346">Apr</text><text x="263.125" style="color:#e0e0e3;cursor:default;font-size:11px;fill:#e0e0e3" y="346">May</text><text x="306.708" style="color:#e0e0e3;cursor:default;font-size:11px;fill:#e0e0e3" y="346">Jun</text><text x="350.292" style="color:#e0e0e3;cursor:default;font-size:11px;fill:#e0e0e3" y="346">Jul</text><text x="393.875" style="color:#e0e0e3;cursor:default;font-size:11px;fill:#e0e0e3" y="346">Aug</text><text x="437.458" style="color:#e0e0e3;cursor:default;font-size:11px;fill:#e0e0e3" y="346">Sep</text><text x="481.042" style="color:#e0e0e3;cursor:default;font-size:11px;fill:#e0e0e3" y="346">Oct</text><text x="524.625" style="color:#e0e0e3;cursor:default;font-size:11px;fill:#e0e0e3" y="346">Nov</text><text x="568.208" style="color:#e0e0e3;cursor:default;font-size:11px;fill:#e0e0e3" y="346">Dec</text></g><g class="highcharts-axis-labels highcharts-yaxis-labels" data-z-index="7" aria-hidden="true" text-anchor="end"><text x="52" style="color:#e0e0e3;cursor:default;font-size:11px;fill:#e0e0e3" y="332">0</text><text x="52" style="color:#e0e0e3;cursor:default;font-size:11px;fill:#e0e0e3" y="279">50</text><text x="52" style="color:#e0e0e3;cursor:default;font-size:11px;fill:#e0e0e3" y="225">100</text><text x="52" style="color:#e0e0e3;cursor:default;font-size:11px;fill:#e0e0e3" y="172">150</text><text x="52" style="color:#e0e0e3;cursor:default;font-size:11px;fill:#e0e0e3" y="119">200</text><text x="52" style="color:#e0e0e3;cursor:default;font-size:11px;fill:#e0e0e3" y="66">250</text></g></svg>