<svg class="highcharts-root" style="font-family:&quot;Unica One&quot;,sans-serif;font-size:12px" xmlns="http://www.w3.org/2000/svg" width="600" height="400" aria-label="Interactive chart" aria-hidden="false"><defs aria-hidden="true"><linearGradient x1="0" y1="0" x2="1" y2="1" id="a"><stop offset="0" stop-color="#2a2a2b"/><stop offset="1" stop-color="#3e3e40"/></linearGradient><clipPath id="b"><path fill="none" d="M0 0h523v298H0z"/></clipPath></defs><rect fill="url(#a)" class="highcharts-background" width="600" height="400" rx="0" ry="0" aria-hidden="true"/><path fill="none" class="highcharts-plot-background" aria-hidden="true" d="M67 47h523v298H67z"/><g class="highcharts-grid highcharts-xaxis-grid" data-z-index="1" aria-hidden="true" fill="none"><path data-z-index="1" class="highcharts-grid-line" d="M171.5 47v298m104-298v298m105-298v298m104-298v298m105-298v298M66.5 47v298"/></g><g class="highcharts-grid highcharts-yaxis-grid" data-z-index="1" aria-hidden="true" fill="none" stroke="#707073"><path data-z-index="1" class="highcharts-grid-line" d="M67 345.5h523m-523-50h523m-523-49h523m-523-50h523m-523-50h523m-523-49h523m-523-51h523"/></g><path fill="none" class="highcharts-plot-border" data-z-index="1" aria-hidden="true" d="M67 47h523v298H67z"/><g class="highcharts-axis highcharts-xaxis" data-z-index="2" aria-hidden="true"><path fill="none" class="highcharts-axis-line" stroke="#707073" data-z-index="7" d="M67 345.5h523"/></g><g class="highcharts-axis highcharts-yaxis" data-z-index="2" aria-hidden="true"><path fill="none" class="highcharts-tick" stroke="#707073" d="M67 345.5H57m10-50H57m10-49H57m10-50H57m10-50H57m10-49H57m10-51H57"/><text x="23.641" data-z-index="7" text-anchor="middle" transform="rotate(-90 23.64 196)" class="highcharts-axis-title" style="color:#a0a0a3;fill:#a0a0a3" y="196">Height (m)</text><path fill="none" class="highcharts-axis-line" data-z-index="7" d="M67 47v298"/></g><g class="highcharts-series-group" data-z-index="3" aria-hidden="false"><g class="highcharts-series highcharts-series-0 highcharts-columnpyramid-series highcharts-tracker" data-z-index=".1" clip-path="url(#b)" aria-hidden="false" stroke="#fff" transform="translate(67 47)"><path fill="#C79D6D" d="M52.696 22.25 78.196 298h-51Z" class="highcharts-point highcharts-color-0" tabindex="-1" aria-label="Pyramid of Khufu, 138.8 m. Height." style="outline:0"/><path fill="#B5927B" d="M157.296 27.019 182.796 298h-51Z" class="highcharts-point highcharts-color-1" tabindex="-1" aria-label="Pyramid of Khafre, 136.4 m. Height." style="outline:0"/><path fill="#CE9B84" d="M261.896 91.387 287.396 298h-51Z" class="highcharts-point highcharts-color-2" tabindex="-1" aria-label="Red Pyramid, 104 m. Height." style="outline:0"/><path fill="#B7A58C" d="M366.496 97.148 391.996 298h-51Z" class="highcharts-point highcharts-color-3" tabindex="-1" aria-label="Bent Pyramid, 101.1 m. Height." style="outline:0"/><path fill="#C7A58C" d="m471.096 149 25.5 149h-51Z" class="highcharts-point highcharts-color-4" tabindex="-1" aria-label="Pyramid of the Sun, 75 m. Height." style="outline:0"/></g></g><text x="300" text-anchor="middle" class="highcharts-title" data-z-index="4" style="color:#e0e0e3;font-size:20px;text-transform:uppercase;fill:#e0e0e3" y="25" aria-hidden="true">The 5 highest pyramids in the World</text><g class="highcharts-axis-labels highcharts-xaxis-labels" data-z-index="7" aria-hidden="true" text-anchor="middle"><text x="119.3" style="color:#e0e0e3;cursor:default;font-size:14px;fill:#e0e0e3" y="367">Pyramid of<tspan dy="17" x="119.3">​</tspan>Khufu</text><text x="223.9" style="color:#e0e0e3;cursor:default;font-size:14px;fill:#e0e0e3" y="367">Pyramid of<tspan dy="17" x="223.9">​</tspan>Khafre</text><text x="328.5" style="color:#e0e0e3;cursor:default;font-size:14px;fill:#e0e0e3" y="367">Red Pyramid</text><text x="433.1" style="color:#e0e0e3;cursor:default;font-size:14px;fill:#e0e0e3" y="367">Bent Pyramid</text><text x="537.7" style="color:#e0e0e3;cursor:default;font-size:14px;fill:#e0e0e3" y="367">Pyramid of the<tspan dy="17" x="537.7">​</tspan>Sun</text></g><g class="highcharts-axis-labels highcharts-yaxis-labels" data-z-index="7" aria-hidden="true" text-anchor="end"><text x="52" style="color:#e0e0e3;cursor:default;font-size:11px;fill:#e0e0e3" y="350">0</text><text x="52" style="color:#e0e0e3;cursor:default;font-size:11px;fill:#e0e0e3" y="300">25</text><text x="52" style="color:#e0e0e3;cursor:default;font-size:11px;fill:#e0e0e3" y="250">50</text><text x="52" style="color:#e0e0e3;cursor:default;font-size:11px;fill:#e0e0e3" y="201">75</text><text x="52" style="color:#e0e0e3;cursor:default;font-size:11px;fill:#e0e0e3" y="151">100</text><text x="52" style="color:#e0e0e3;cursor:default;font-size:11px;fill:#e0e0e3" y="101">125</text><text x="52" style="color:#e0e0e3;cursor:default;font-size:11px;fill:#e0e0e3" y="52">150</text></g></svg>