<svg class="highcharts-root" style="font-family:&quot;Unica One&quot;,sans-serif;font-size:12px" xmlns="http://www.w3.org/2000/svg" width="600" height="400" aria-label="Interactive chart" aria-hidden="false"><defs aria-hidden="true"><linearGradient x1="0" y1="0" x2="1" y2="1" id="a"><stop offset="0" stop-color="#2a2a2b"/><stop offset="1" stop-color="#3e3e40"/></linearGradient><clipPath id="b"><path fill="none" d="M0 0h535v280H0z"/></clipPath></defs><rect fill="url(#a)" class="highcharts-background" width="600" height="400" rx="0" ry="0" aria-hidden="true"/><path fill="none" class="highcharts-plot-background" aria-hidden="true" d="M55 47h535v280H55z"/><g class="highcharts-grid highcharts-xaxis-grid" data-z-index="1" aria-hidden="true" fill="none"><path data-z-index="1" class="highcharts-grid-line" d="M99.5 47v280m89-280v280m89-280v280m89-280v280m89-280v280m89-280v280"/></g><g class="highcharts-grid highcharts-yaxis-grid" data-z-index="1" aria-hidden="true" fill="none" stroke="#707073"><path data-z-index="1" class="highcharts-grid-line" d="M55 327.5h535m-535-56h535m-535-56h535m-535-56h535m-535-56h535m-535-57h535"/></g><path fill="none" class="highcharts-plot-border" data-z-index="1" aria-hidden="true" d="M55 47h535v280H55z"/><g class="highcharts-axis highcharts-xaxis" data-z-index="2" aria-hidden="true" fill="none" stroke="#707073"><path class="highcharts-tick" d="M99.5 327v10m89-10v10m89-10v10m89-10v10m89-10v10m89-10v10"/><path class="highcharts-axis-line" data-z-index="7" d="M55 327.5h535"/></g><g class="highcharts-axis highcharts-yaxis" data-z-index="2" aria-hidden="true"><path fill="none" class="highcharts-tick" stroke="#707073" d="M55 327.5H45m10-56H45m10-56H45m10-56H45m10-56H45m10-57H45"/><text x="23.875" data-z-index="7" text-anchor="middle" transform="rotate(-90 23.875 187)" class="highcharts-axis-title" style="color:#a0a0a3;fill:#a0a0a3" y="187">Values</text><path fill="none" class="highcharts-axis-line" data-z-index="7" d="M55 47v280"/></g><g class="highcharts-series-group" data-z-index="3" aria-hidden="false"><g class="highcharts-series highcharts-series-0 highcharts-line-series highcharts-color-0" data-z-index=".1" clip-path="url(#b)" aria-hidden="true" transform="translate(55 47)"><path fill="none" d="m44.583 217.84 445.834-190.4" class="highcharts-graph" data-z-index="1" stroke="#2b908f" stroke-width="2" stroke-linejoin="round" stroke-linecap="round"/></g><g class="highcharts-markers highcharts-series-1 highcharts-scatter-series highcharts-color-1 highcharts-tracker" data-z-index=".1" aria-hidden="false" tabindex="-1" aria-label="Observations, series 2 of 2, scatter plot with 6 points." style="outline:0" fill="#90ee7e"><path d="m44 220 4 4-4 4-4-4Z" class="highcharts-point highcharts-color-1" tabindex="-1" aria-label="x, 0, 1. Observations." style="outline:0" transform="translate(55 47)"/><path d="m133 192 4 4-4 4-4-4Z" class="highcharts-point highcharts-color-1" tabindex="-1" aria-label="x, 1, 1.5. Observations." style="outline:0" transform="translate(55 47)"/><path d="m222 119 4 4-4 4-4-4Z" class="highcharts-point highcharts-color-1" tabindex="-1" aria-label="x, 2, 2.8. Observations." style="outline:0" transform="translate(55 47)"/><path d="m312 80 4 4-4 4-4-4Z" class="highcharts-point highcharts-color-1" tabindex="-1" aria-label="x, 3, 3.5. Observations." style="outline:0" transform="translate(55 47)"/><path d="m401 58 4 4-4 4-4-4Z" class="highcharts-point highcharts-color-1" tabindex="-1" aria-label="x, 4, 3.9. Observations." style="outline:0" transform="translate(55 47)"/><path d="m490 41 4 4-4 4-4-4Z" class="highcharts-point highcharts-color-1" tabindex="-1" aria-label="x, 5, 4.2. Observations." style="outline:0" transform="translate(55 47)"/></g></g><text x="300" text-anchor="middle" class="highcharts-title" data-z-index="4" style="color:#e0e0e3;font-size:20px;text-transform:uppercase;fill:#e0e0e3" y="25" aria-hidden="true">Scatter plot with regression line</text><g class="highcharts-legend highcharts-no-tooltip" data-z-index="7" transform="translate(176 359)" aria-hidden="true"><rect fill="rgba(0, 0, 0, 0.5)" class="highcharts-legend-box" rx="0" ry="0" width="248" height="26"/><g data-z-index="1"><g class="highcharts-legend-item highcharts-line-series highcharts-color-0 highcharts-series-0" data-z-index="1"><path fill="none" d="M8 14h16" class="highcharts-graph" stroke-width="2" stroke="#2b908f"/><text x="21" data-z-index="2" y="15" style="color:#e0e0e3;cursor:pointer;font-size:12px;font-weight:700;fill:#e0e0e3" transform="translate(8 3)">Regression Line</text></g><g class="highcharts-legend-item highcharts-scatter-series highcharts-color-1 highcharts-series-1" data-z-index="1"><path fill="none" d="M142.36 14h16" class="highcharts-graph"/><path fill="#90ee7e" d="m150.36 10 4 4-4 4-4-4Z" class="highcharts-point"/><text x="21" y="15" data-z-index="2" style="color:#e0e0e3;cursor:pointer;font-size:12px;font-weight:700;fill:#e0e0e3" transform="translate(142.36 3)">Observations</text></g></g></g><g class="highcharts-axis-labels highcharts-xaxis-labels" data-z-index="7" aria-hidden="true" text-anchor="middle"><text x="99.583" style="color:#e0e0e3;cursor:default;font-size:11px;fill:#e0e0e3" y="346">0</text><text x="188.75" style="color:#e0e0e3;cursor:default;font-size:11px;fill:#e0e0e3" y="346">1</text><text x="277.917" style="color:#e0e0e3;cursor:default;font-size:11px;fill:#e0e0e3" y="346">2</text><text x="367.083" style="color:#e0e0e3;cursor:default;font-size:11px;fill:#e0e0e3" y="346">3</text><text x="456.25" style="color:#e0e0e3;cursor:default;font-size:11px;fill:#e0e0e3" y="346">4</text><text x="545.417" style="color:#e0e0e3;cursor:default;font-size:11px;fill:#e0e0e3" y="346">5</text></g><g class="highcharts-axis-labels highcharts-yaxis-labels" data-z-index="7" aria-hidden="true" text-anchor="end"><text x="40" style="color:#e0e0e3;cursor:default;font-size:11px;fill:#e0e0e3" y="332">0</text><text x="40" style="color:#e0e0e3;cursor:default;font-size:11px;fill:#e0e0e3" y="276">1</text><text x="40" style="color:#e0e0e3;cursor:default;font-size:11px;fill:#e0e0e3" y="220">2</text><text x="40" style="color:#e0e0e3;cursor:default;font-size:11px;fill:#e0e0e3" y="164">3</text><text x="40" style="color:#e0e0e3;cursor:default;font-size:11px;fill:#e0e0e3" y="108">4</text><text x="40" style="color:#e0e0e3;cursor:default;font-size:11px;fill:#e0e0e3" y="52">5</text></g></svg>