<svg class="highcharts-root" style="font-family:&quot;Unica One&quot;,sans-serif;font-size:12px" xmlns="http://www.w3.org/2000/svg" width="600" height="400" aria-label="Interactive chart" aria-hidden="false"><defs aria-hidden="true"><clipPath id="b"><path fill="none" d="M0 0h348v292H0z"/></clipPath><clipPath id="c"><path fill="none" d="M0 0h348v292H0z"/></clipPath><clipPath id="d"><path fill="none" d="M0 0h348v292H0z"/></clipPath><linearGradient x1="0" y1="0" x2="1" y2="1" id="a"><stop offset="0" stop-color="#2a2a2b"/><stop offset="1" stop-color="#3e3e40"/></linearGradient></defs><rect fill="url(#a)" class="highcharts-background" width="600" height="400" rx="0" ry="0" aria-hidden="true"/><path fill="none" class="highcharts-plot-background" aria-hidden="true" d="M88 61h348v292H88z"/><g class="highcharts-grid highcharts-xaxis-grid" data-z-index="1" aria-hidden="true" fill="none"><path data-z-index="1" class="highcharts-grid-line" d="M116.5 61v292m29-292v292m29-292v292m29-292v292m29-292v292m29-292v292m29-292v292m29-292v292m29-292v292m29-292v292m29-292v292m29-292v292M87.5 61v292"/></g><g class="highcharts-grid highcharts-yaxis-grid" data-z-index="1" aria-hidden="true" fill="none" stroke="#707073"><path data-z-index="1" class="highcharts-grid-line" d="M88 353.5h348m-348-58h348m-348-59h348m-348-58h348m-348-59h348m-348-59h348"/></g><g class="highcharts-grid highcharts-yaxis-grid" data-z-index="1" aria-hidden="true" fill="none"><path data-z-index="1" class="highcharts-grid-line" d="M88 353.5h348m-348-58h348m-348-59h348m-348-58h348m-348-59h348m-348-58h348"/></g><g class="highcharts-grid highcharts-yaxis-grid" data-z-index="1" aria-hidden="true" fill="none"><path data-z-index="1" class="highcharts-grid-line" d="M88 353.5h348m-348-58h348m-348-59h348m-348-58h348m-348-59h348m-348-58h348"/></g><path fill="none" class="highcharts-plot-border" data-z-index="1" aria-hidden="true" d="M88 61h348v292H88z"/><g class="highcharts-axis highcharts-xaxis" data-z-index="2" aria-hidden="true"><path fill="none" class="highcharts-axis-line" stroke="#707073" data-z-index="7" d="M88 353.5h348"/></g><g class="highcharts-axis highcharts-yaxis" data-z-index="2" aria-hidden="true"><path fill="none" class="highcharts-tick" stroke="#707073" d="M436 353.5h10m-10-58h10m-10-59h10m-10-58h10m-10-59h10m-10-59h10"/><text x="485.578" data-z-index="7" text-anchor="middle" transform="rotate(90 485.578 207)" class="highcharts-axis-title" style="color:#f45b5b;fill:#f45b5b" y="207">Temperature</text><path fill="none" class="highcharts-axis-line" data-z-index="7" d="M436 61v292"/></g><g class="highcharts-axis highcharts-yaxis" data-z-index="2" aria-hidden="true"><path fill="none" class="highcharts-tick" stroke="#707073" d="M88 353.5H78m10-58H78m10-59H78m10-58H78m10-59H78m10-59H78"/><text x="23.258" data-z-index="7" text-anchor="middle" transform="rotate(-90 23.258 207)" class="highcharts-axis-title" style="color:#2b908f;fill:#2b908f" y="207">Rainfall</text><path fill="none" class="highcharts-axis-line" data-z-index="7" d="M88 61v292"/></g><g class="highcharts-axis highcharts-yaxis" data-z-index="2" aria-hidden="true"><path fill="none" class="highcharts-tick" stroke="#707073" d="M499.078 353.5h10m-10-58h10m-10-59h10m-10-58h10m-10-59h10m-10-59h10"/><text x="576.063" data-z-index="7" text-anchor="middle" transform="rotate(90 576.063 207)" class="highcharts-axis-title" style="color:#90ee7e;fill:#90ee7e" y="207">Sea-Level Pressure</text><path fill="none" class="highcharts-axis-line" data-z-index="7" d="M499 61v292"/></g><g class="highcharts-series-group" data-z-index="3" aria-hidden="false"><g class="highcharts-series highcharts-series-0 highcharts-column-series highcharts-color-0 highcharts-tracker" data-z-index=".1" clip-path="url(#b)" aria-hidden="false" tabindex="-1" aria-label="Rainfall, series 1 of 3. Bar series with 12 bars. Y axis, Rainfall." style="outline:0" fill="#2b908f" stroke="#fff" transform="translate(88 61)"><path class="highcharts-point highcharts-color-0" tabindex="-1" aria-label="Jan, 49.9 mm. Rainfall." style="outline:0" d="M7.5 234.5h14v58h-14z"/><path class="highcharts-point highcharts-color-0" tabindex="-1" aria-label="Feb, 71.5 mm. Rainfall." style="outline:0" d="M36.5 208.5h14v84h-14z"/><path class="highcharts-point highcharts-color-0" tabindex="-1" aria-label="Mar, 106.4 mm. Rainfall." style="outline:0" d="M65.5 168.5h14v124h-14z"/><path class="highcharts-point highcharts-color-0" tabindex="-1" aria-label="Apr, 129.2 mm. Rainfall." style="outline:0" d="M94.5 141.5h14v151h-14z"/><path class="highcharts-point highcharts-color-0" tabindex="-1" aria-label="May, 144 mm. Rainfall." style="outline:0" d="M123.5 124.5h14v168h-14z"/><path class="highcharts-point highcharts-color-0" tabindex="-1" aria-label="Jun, 176 mm. Rainfall." style="outline:0" d="M152.5 86.5h14v206h-14z"/><path class="highcharts-point highcharts-color-0" tabindex="-1" aria-label="Jul, 135.6 mm. Rainfall." style="outline:0" d="M181.5 134.5h14v158h-14z"/><path class="highcharts-point highcharts-color-0" tabindex="-1" aria-label="Aug, 148.5 mm. Rainfall." style="outline:0" d="M210.5 119.5h14v173h-14z"/><path class="highcharts-point highcharts-color-0" tabindex="-1" aria-label="Sep, 216.4 mm. Rainfall." style="outline:0" d="M239.5 39.5h14v253h-14z"/><path class="highcharts-point highcharts-color-0" tabindex="-1" aria-label="Oct, 194.1 mm. Rainfall." style="outline:0" d="M268.5 65.5h14v227h-14z"/><path class="highcharts-point highcharts-color-0" tabindex="-1" aria-label="Nov, 95.6 mm. Rainfall." style="outline:0" d="M297.5 180.5h14v112h-14z"/><path class="highcharts-point highcharts-color-0" tabindex="-1" aria-label="Dec, 54.4 mm. Rainfall." style="outline:0" d="M326.5 228.5h14v64h-14z"/></g><g class="highcharts-series highcharts-series-1 highcharts-spline-series highcharts-color-1" data-z-index=".1" clip-path="url(#c)" aria-hidden="true" fill="none" transform="translate(88 61)"><path d="M14.5 93.44h29c11.6 0 17.4 0 29 2.336 11.6 2.336 17.4 0 29 9.344 11.6 9.344 17.4 46.72 29 74.752 11.6 28.032 17.4 65.408 29 65.408 11.6 0 17.4 0 29-2.336 11.6-2.336 17.4 0 29-14.016 11.6-14.016 17.4-36.442 29-67.744 11.6-31.302 17.4-64.94 29-88.768 11.6-23.827 17.4-30.368 29-30.368 11.6 0 29 35.04 29 35.04" class="highcharts-graph" data-z-index="1" stroke="#90ee7e" stroke-width="2" stroke-dasharray="2,2"/><path d="M14.5 93.44h29c11.6 0 17.4 0 29 2.336 11.6 2.336 17.4 0 29 9.344 11.6 9.344 17.4 46.72 29 74.752 11.6 28.032 17.4 65.408 29 65.408 11.6 0 17.4 0 29-2.336 11.6-2.336 17.4 0 29-14.016 11.6-14.016 17.4-36.442 29-67.744 11.6-31.302 17.4-64.94 29-88.768 11.6-23.827 17.4-30.368 29-30.368 11.6 0 29 35.04 29 35.04" data-z-index="2" class="highcharts-tracker-line" stroke-linecap="round" stroke-linejoin="round" stroke="rgba(192,192,192,0.0001)" stroke-width="22"/></g><g class="highcharts-series highcharts-series-2 highcharts-spline-series highcharts-color-2" data-z-index=".1" clip-path="url(#d)" aria-hidden="true" fill="none" stroke-linejoin="round" stroke-linecap="round" transform="translate(88 61)"><path d="M14.5 268.64s17.4 1.168 29 1.168c11.6 0 17.4-12.614 29-30.368 11.6-17.754 17.4-38.077 29-58.4 11.6-20.323 17.4-26.864 29-43.216 11.6-16.352 17.4-22.192 29-38.544 11.6-16.352 17.4-31.536 29-43.216 11.6-11.68 17.4-15.184 29-15.184 11.6 0 17.4 18.22 29 37.376 11.6 19.155 17.4 36.442 29 58.4 11.6 21.958 17.4 31.069 29 51.392 11.6 20.323 29 50.224 29 50.224" class="highcharts-graph" data-z-index="1" stroke="#f45b5b" stroke-width="2"/><path d="M14.5 268.64s17.4 1.168 29 1.168c11.6 0 17.4-12.614 29-30.368 11.6-17.754 17.4-38.077 29-58.4 11.6-20.323 17.4-26.864 29-43.216 11.6-16.352 17.4-22.192 29-38.544 11.6-16.352 17.4-31.536 29-43.216 11.6-11.68 17.4-15.184 29-15.184 11.6 0 17.4 18.22 29 37.376 11.6 19.155 17.4 36.442 29 58.4 11.6 21.958 17.4 31.069 29 51.392 11.6 20.323 29 50.224 29 50.224" data-z-index="2" class="highcharts-tracker-line" stroke="rgba(192,192,192,0.0001)" stroke-width="22"/></g><g class="highcharts-markers highcharts-series-2 highcharts-spline-series highcharts-color-2 highcharts-tracker" data-z-index=".1" aria-hidden="false" tabindex="-1" aria-label="Temperature, series 3 of 3. Line with 12 data points. Y axis, Temperature." style="outline:0" fill="#f45b5b"><path d="m14 265 4 4-4 4-4-4Z" class="highcharts-point highcharts-color-2" tabindex="-1" aria-label="Jan, 7 °C. Temperature." style="outline:0" transform="translate(88 61)"/><path d="m43 266 4 4-4 4-4-4Z" class="highcharts-point highcharts-color-2" tabindex="-1" aria-label="Feb, 6.9 °C. Temperature." style="outline:0" transform="translate(88 61)"/><path d="m72 235 4 4-4 4-4-4Z" class="highcharts-point highcharts-color-2" tabindex="-1" aria-label="Mar, 9.5 °C. Temperature." style="outline:0" transform="translate(88 61)"/><path d="m101 177 4 4-4 4-4-4Z" class="highcharts-point highcharts-color-2" tabindex="-1" aria-label="Apr, 14.5 °C. Temperature." style="outline:0" transform="translate(88 61)"/><path d="m130 134 4 4-4 4-4-4Z" class="highcharts-point highcharts-color-2" tabindex="-1" aria-label="May, 18.2 °C. Temperature." style="outline:0" transform="translate(88 61)"/><path d="m159 95 4 4-4 4-4-4Z" class="highcharts-point highcharts-color-2" tabindex="-1" aria-label="Jun, 21.5 °C. Temperature." style="outline:0" transform="translate(88 61)"/><path d="m188 52 4 4-4 4-4-4Z" class="highcharts-point highcharts-color-2" tabindex="-1" aria-label="Jul, 25.2 °C. Temperature." style="outline:0" transform="translate(88 61)"/><path d="m217 37 4 4-4 4-4-4Z" class="highcharts-point highcharts-color-2" tabindex="-1" aria-label="Aug, 26.5 °C. Temperature." style="outline:0" transform="translate(88 61)"/><path d="m246 74 4 4-4 4-4-4Z" class="highcharts-point highcharts-color-2" tabindex="-1" aria-label="Sep, 23.3 °C. Temperature." style="outline:0" transform="translate(88 61)"/><path d="m275 133 4 4-4 4-4-4Z" class="highcharts-point highcharts-color-2" tabindex="-1" aria-label="Oct, 18.3 °C. Temperature." style="outline:0" transform="translate(88 61)"/><path d="m304 184 4 4-4 4-4-4Z" class="highcharts-point highcharts-color-2" tabindex="-1" aria-label="Nov, 13.9 °C. Temperature." style="outline:0" transform="translate(88 61)"/><path d="m333 234 4 4-4 4-4-4Z" class="highcharts-point highcharts-color-2" tabindex="-1" aria-label="Dec, 9.6 °C. Temperature." style="outline:0" transform="translate(88 61)"/></g></g><g data-z-index="3" aria-hidden="true"><text data-z-index="1" y="12" style="color:#90ee7e;font-weight:700;fill:#90ee7e" transform="translate(247 308)" class="highcharts-label highcharts-series-label highcharts-series-label-1 highcharts-color-1">Sea-Level Pressure</text></g><g data-z-index="3" aria-hidden="true"><text data-z-index="1" y="12" style="color:#f45b5b;font-weight:700;fill:#f45b5b" transform="translate(341 292)" class="highcharts-label highcharts-series-label highcharts-series-label-2 highcharts-color-2">Temperature</text></g><text x="10" class="highcharts-title" data-z-index="4" style="color:#e0e0e3;font-size:20px;text-transform:uppercase;fill:#e0e0e3" y="25" aria-hidden="true">Average Monthly Weather Data for Tokyo</text><text x="10" class="highcharts-subtitle" data-z-index="4" style="color:#e0e0e3;text-transform:uppercase;fill:#e0e0e3" y="46" aria-hidden="true">Source: WorldClimate.com</text><g class="highcharts-legend highcharts-no-tooltip" data-z-index="7" transform="translate(90 65)" aria-hidden="true"><rect fill="rgba(0, 0, 0, 0.5)" class="highcharts-legend-box" rx="0" ry="0" width="147" height="56"/><g data-z-index="1"><g class="highcharts-legend-item highcharts-column-series highcharts-color-0 highcharts-series-0" data-z-index="1" transform="translate(8 3)"><text x="21" data-z-index="2" y="15" style="color:#e0e0e3;cursor:pointer;font-size:12px;font-weight:700;fill:#e0e0e3">Rainfall</text><rect x="2" y="4" width="12" height="12" fill="#2b908f" rx="6" ry="6" class="highcharts-point" data-z-index="3"/></g><g class="highcharts-legend-item highcharts-spline-series highcharts-color-1 highcharts-series-1" data-z-index="1"><path fill="none" d="M8 29h16" class="highcharts-graph" stroke-width="2" stroke-dasharray="2,2" stroke="#90ee7e"/><text x="21" y="15" data-z-index="2" style="color:#e0e0e3;cursor:pointer;font-size:12px;font-weight:700;fill:#e0e0e3" transform="translate(8 18)">Sea-Level Pressure</text></g><g class="highcharts-legend-item highcharts-spline-series highcharts-color-2 highcharts-series-2" data-z-index="1"><path fill="none" d="M8 44h16" class="highcharts-graph" stroke-width="2" stroke="#f45b5b"/><path fill="#f45b5b" d="m16 40 4 4-4 4-4-4Z" class="highcharts-point"/><text x="21" y="15" data-z-index="2" style="color:#e0e0e3;cursor:pointer;font-size:12px;font-weight:700;fill:#e0e0e3" transform="translate(8 33)">Temperature</text></g></g></g><g class="highcharts-axis-labels highcharts-xaxis-labels" data-z-index="7" aria-hidden="true" text-anchor="end"><text x="105.093" transform="rotate(-45 105.093 369)" style="color:#e0e0e3;cursor:default;font-size:11px;fill:#e0e0e3" y="369">Jan</text><text x="134.093" transform="rotate(-45 134.093 369)" style="color:#e0e0e3;cursor:default;font-size:11px;fill:#e0e0e3" y="369">Feb</text><text x="163.093" transform="rotate(-45 163.093 369)" style="color:#e0e0e3;cursor:default;font-size:11px;fill:#e0e0e3" y="369">Mar</text><text x="192.093" transform="rotate(-45 192.093 369)" style="color:#e0e0e3;cursor:default;font-size:11px;fill:#e0e0e3" y="369">Apr</text><text x="221.093" transform="rotate(-45 221.093 369)" style="color:#e0e0e3;cursor:default;font-size:11px;fill:#e0e0e3" y="369">May</text><text x="250.093" transform="rotate(-45 250.093 369)" style="color:#e0e0e3;cursor:default;font-size:11px;fill:#e0e0e3" y="369">Jun</text><text x="279.093" transform="rotate(-45 279.093 369)" style="color:#e0e0e3;cursor:default;font-size:11px;fill:#e0e0e3" y="369">Jul</text><text x="308.093" transform="rotate(-45 308.093 369)" style="color:#e0e0e3;cursor:default;font-size:11px;fill:#e0e0e3" y="369">Aug</text><text x="337.093" transform="rotate(-45 337.093 369)" style="color:#e0e0e3;cursor:default;font-size:11px;fill:#e0e0e3" y="369">Sep</text><text x="366.093" transform="rotate(-45 366.093 369)" style="color:#e0e0e3;cursor:default;font-size:11px;fill:#e0e0e3" y="369">Oct</text><text x="395.093" transform="rotate(-45 395.093 369)" style="color:#e0e0e3;cursor:default;font-size:11px;fill:#e0e0e3" y="369">Nov</text><text x="424.093" transform="rotate(-45 424.093 369)" style="color:#e0e0e3;cursor:default;font-size:11px;fill:#e0e0e3" y="369">Dec</text></g><g class="highcharts-axis-labels highcharts-yaxis-labels" data-z-index="7" aria-hidden="true"><text x="451" style="color:#f45b5b;cursor:default;font-size:11px;fill:#f45b5b" y="358">5°C</text><text x="451" style="color:#f45b5b;cursor:default;font-size:11px;fill:#f45b5b" y="299">10°C</text><text x="451" style="color:#f45b5b;cursor:default;font-size:11px;fill:#f45b5b" y="241">15°C</text><text x="451" style="color:#f45b5b;cursor:default;font-size:11px;fill:#f45b5b" y="183">20°C</text><text x="451" style="color:#f45b5b;cursor:default;font-size:11px;fill:#f45b5b" y="124">25°C</text><text x="451" style="color:#f45b5b;cursor:default;font-size:11px;fill:#f45b5b" y="66">30°C</text></g><g class="highcharts-axis-labels highcharts-yaxis-labels" data-z-index="7" aria-hidden="true" text-anchor="end"><text x="73" style="color:#2b908f;cursor:default;font-size:11px;fill:#2b908f" y="358">0 mm</text><text x="73" style="color:#2b908f;cursor:default;font-size:11px;fill:#2b908f" y="299">50 mm</text><text x="73" style="color:#2b908f;cursor:default;font-size:11px;fill:#2b908f" y="241">100 mm</text><text x="73" style="color:#2b908f;cursor:default;font-size:11px;fill:#2b908f" y="183">150 mm</text><text x="73" style="color:#2b908f;cursor:default;font-size:11px;fill:#2b908f" y="124">200 mm</text><text x="73" style="color:#2b908f;cursor:default;font-size:11px;fill:#2b908f" y="66">250 mm</text></g><g class="highcharts-axis-labels highcharts-yaxis-labels" data-z-index="7" aria-hidden="true"><text x="514.078" style="color:#90ee7e;cursor:default;font-size:11px;fill:#90ee7e" y="358">1007.5 mb</text><text x="514.078" style="color:#90ee7e;cursor:default;font-size:11px;fill:#90ee7e" y="299">1010 mb</text><text x="514.078" style="color:#90ee7e;cursor:default;font-size:11px;fill:#90ee7e" y="241">1012.5 mb</text><text x="514.078" style="color:#90ee7e;cursor:default;font-size:11px;fill:#90ee7e" y="183">1015 mb</text><text x="514.078" style="color:#90ee7e;cursor:default;font-size:11px;fill:#90ee7e" y="124">1017.5 mb</text><text x="514.078" style="color:#90ee7e;cursor:default;font-size:11px;fill:#90ee7e" y="66">1020 mb</text></g></svg>