<svg class="highcharts-root" style="font-family:&quot;Unica One&quot;,sans-serif;font-size:12px" xmlns="http://www.w3.org/2000/svg" width="600" height="400" aria-label="Interactive chart" aria-hidden="false"><defs aria-hidden="true"><linearGradient x1="0" y1="0" x2="1" y2="1" id="a"><stop offset="0" stop-color="#2a2a2b"/><stop offset="1" stop-color="#3e3e40"/></linearGradient><clipPath id="b"><path fill="none" d="M0 0h523v280H0z"/></clipPath></defs><rect fill="url(#a)" class="highcharts-background" width="600" height="400" rx="0" ry="0" aria-hidden="true"/><path fill="none" class="highcharts-plot-background" aria-hidden="true" d="M67 47h523v280H67z"/><g class="highcharts-grid highcharts-xaxis-grid" data-z-index="1" aria-hidden="true" fill="none"><path data-z-index="1" class="highcharts-grid-line" d="M171.5 47v280m104-280v280m105-280v280m104-280v280m105-280v280M66.5 47v280"/></g><g class="highcharts-grid highcharts-yaxis-grid" data-z-index="1" aria-hidden="true" fill="none" stroke="#707073"><path data-z-index="1" class="highcharts-grid-line" d="M67 327.5h523m-523-47h523m-523-46h523m-523-47h523m-523-47h523m-523-46h523m-523-48h523"/></g><path fill="none" class="highcharts-plot-border" data-z-index="1" aria-hidden="true" d="M67 47h523v280H67z"/><g class="highcharts-axis highcharts-xaxis" data-z-index="2" aria-hidden="true"><path fill="none" class="highcharts-axis-line" stroke="#707073" data-z-index="7" d="M67 327.5h523"/></g><g class="highcharts-axis highcharts-yaxis" data-z-index="2" aria-hidden="true"><path fill="none" class="highcharts-tick" stroke="#707073" d="M67 327.5H57m10-47H57m10-46H57m10-47H57m10-47H57m10-46H57m10-48H57"/><text x="23.641" data-z-index="7" text-anchor="middle" transform="rotate(-90 23.64 187)" class="highcharts-axis-title" style="color:#a0a0a3;fill:#a0a0a3" y="187">Million liters</text><path fill="none" class="highcharts-axis-line" data-z-index="7" d="M67 47v280"/></g><g class="highcharts-series-group" data-z-index="3" aria-hidden="false"><g class="highcharts-series highcharts-series-0 highcharts-column-series highcharts-color-0 highcharts-tracker" data-z-index=".1" clip-path="url(#b)" aria-hidden="false" tabindex="-1" aria-label="2020, series 1 of 5. Bar series with 5 bars." style="outline:0" fill="#2b908f" stroke="#fff" transform="translate(67 47)"><path class="highcharts-point highcharts-color-0" tabindex="-1" aria-label="Jet fuel, 59 million liters. 2020." style="outline:0" d="M22.5 225.5h17v55h-17z"/><path class="highcharts-point highcharts-color-0" tabindex="-1" aria-label="Duty-free diesel, 83 million liters. 2020." style="outline:0" d="M127.5 203.5h17v77h-17z"/><path class="highcharts-point highcharts-color-0" tabindex="-1" aria-label="Petrol, 65 million liters. 2020." style="outline:0" d="M231.5 219.5h17v61h-17z"/><path class="highcharts-point highcharts-color-0" tabindex="-1" aria-label="Diesel, 228 million liters. 2020." style="outline:0" d="M336.5 67.5h17v213h-17z"/><path class="highcharts-point highcharts-color-0" tabindex="-1" aria-label="Gas oil, 184 million liters. 2020." style="outline:0" d="M440.5 108.5h17v172h-17z"/></g><g class="highcharts-series highcharts-series-1 highcharts-column-series highcharts-color-1 highcharts-tracker" data-z-index=".1" clip-path="url(#b)" aria-hidden="false" tabindex="-1" aria-label="2021, series 2 of 5. Bar series with 5 bars." style="outline:0" fill="#90ee7e" stroke="#fff" transform="translate(67 47)"><path class="highcharts-point highcharts-color-1" tabindex="-1" aria-label="Jet fuel, 24 million liters. 2021." style="outline:0" d="M43.5 258.5h17v22h-17z"/><path class="highcharts-point highcharts-color-1" tabindex="-1" aria-label="Duty-free diesel, 79 million liters. 2021." style="outline:0" d="M148.5 206.5h17v74h-17z"/><path class="highcharts-point highcharts-color-1" tabindex="-1" aria-label="Petrol, 72 million liters. 2021." style="outline:0" d="M252.5 213.5h17v67h-17z"/><path class="highcharts-point highcharts-color-1" tabindex="-1" aria-label="Diesel, 240 million liters. 2021." style="outline:0" d="M357.5 56.5h17v224h-17z"/><path class="highcharts-point highcharts-color-1" tabindex="-1" aria-label="Gas oil, 167 million liters. 2021." style="outline:0" d="M461.5 124.5h17v156h-17z"/></g><g class="highcharts-series highcharts-series-2 highcharts-column-series highcharts-color-2 highcharts-tracker" data-z-index=".1" clip-path="url(#b)" aria-hidden="false" tabindex="-1" aria-label="2022, series 3 of 5. Bar series with 5 bars." style="outline:0" fill="#f45b5b" stroke="#fff" transform="translate(67 47)"><path class="highcharts-point highcharts-color-2" tabindex="-1" aria-label="Jet fuel, 58 million liters. 2022." style="outline:0" d="M64.5 226.5h17v54h-17z"/><path class="highcharts-point highcharts-color-2" tabindex="-1" aria-label="Duty-free diesel, 88 million liters. 2022." style="outline:0" d="M168.5 198.5h17v82h-17z"/><path class="highcharts-point highcharts-color-2" tabindex="-1" aria-label="Petrol, 75 million liters. 2022." style="outline:0" d="M273.5 210.5h17v70h-17z"/><path class="highcharts-point highcharts-color-2" tabindex="-1" aria-label="Diesel, 250 million liters. 2022." style="outline:0" d="M378.5 47.5h17v233h-17z"/><path class="highcharts-point highcharts-color-2" tabindex="-1" aria-label="Gas oil, 176 million liters. 2022." style="outline:0" d="M482.5 116.5h17v164h-17z"/></g><g class="highcharts-series highcharts-series-3 highcharts-spline-series highcharts-color-3" data-z-index=".1" clip-path="url(#b)" aria-hidden="true" fill="none" stroke-linejoin="round" stroke-linecap="round" transform="translate(67 47)"><path d="M52.3 236.133s62.76-33.908 104.6-33.908c41.84 0 62.76 11.826 104.6 11.826 41.84 0 62.76-157.426 104.6-157.426 41.84 0 104.6 59.426 104.6 59.426" class="highcharts-graph" data-z-index="1" stroke="#7798BF" stroke-width="2"/><path d="M52.3 236.133s62.76-33.908 104.6-33.908c41.84 0 62.76 11.826 104.6 11.826 41.84 0 62.76-157.426 104.6-157.426 41.84 0 104.6 59.426 104.6 59.426" data-z-index="2" class="highcharts-tracker-line" stroke="rgba(192,192,192,0.0001)" stroke-width="22"/></g><g class="highcharts-markers highcharts-series-3 highcharts-spline-series highcharts-color-3 highcharts-tracker" data-z-index=".1" aria-hidden="false" tabindex="-1" aria-label="Average, series 4 of 5. Line with 5 data points." style="outline:0" fill="#fff" stroke="#7798BF" stroke-width="2"><path d="M52 240a4 4 0 1 1 .004 0Z" class="highcharts-point highcharts-color-3" tabindex="-1" aria-label="Jet fuel, 47 million liters. Average." style="outline:0" transform="translate(67 47)"/><path d="M156 206a4 4 0 1 1 .004 0Z" class="highcharts-point highcharts-color-3" tabindex="-1" aria-label="Duty-free diesel, 83.33 million liters. Average." style="outline:0" transform="translate(67 47)"/><path d="M261 218a4 4 0 1 1 .004 0Z" class="highcharts-point highcharts-color-3" tabindex="-1" aria-label="Petrol, 70.66 million liters. Average." style="outline:0" transform="translate(67 47)"/><path d="M366 61a4 4 0 1 1 .004 0Z" class="highcharts-point highcharts-color-3" tabindex="-1" aria-label="Diesel, 239.33 million liters. Average." style="outline:0" transform="translate(67 47)"/><path d="M470 120a4 4 0 1 1 .004 0Z" class="highcharts-point highcharts-color-3" tabindex="-1" aria-label="Gas oil, 175.66 million liters. Average." style="outline:0" transform="translate(67 47)"/></g><g class="highcharts-series highcharts-series-4 highcharts-pie-series highcharts-tracker" data-z-index=".1" aria-hidden="false" tabindex="-1" aria-label="Total, series 5 of 5. Pie with 3 slices." style="outline:0" stroke="#fff" stroke-linejoin="round"><path fill="#2b908f" d="M94.99 35a50 50 0 0 1 43.2 75.19l-12.956-7.557A35 35 0 0 0 94.993 50Z" transform="translate(67 47)" class="highcharts-point highcharts-color-0" tabindex="-1" aria-label="2020, 619 million liters. Total." style="outline:0"/><path fill="#90ee7e" d="M138.166 110.234a50 50 0 0 1-83.697 4.045l12.16-8.784a35 35 0 0 0 58.587-2.832Z" transform="translate(67 47)" class="highcharts-point highcharts-color-1" tabindex="-1" aria-label="2021, 586 million liters. Total." style="outline:0"/><path fill="#f45b5b" d="M54.44 114.238A50 50 0 0 1 94.93 35l.021 15a35 35 0 0 0-28.343 55.467Z" transform="translate(67 47)" class="highcharts-point highcharts-color-2" tabindex="-1" aria-label="2022, 647 million liters. Total." style="outline:0"/></g></g><g data-z-index="3" aria-hidden="true"><text data-z-index="1" y="12" style="color:#7798bf;font-weight:700;fill:#7798bf" transform="translate(541 166)" class="highcharts-label highcharts-series-label highcharts-series-label-3 highcharts-color-3">Average</text></g><text x="10" class="highcharts-title" data-z-index="4" style="color:#e0e0e3;font-size:20px;text-transform:uppercase;fill:#e0e0e3" y="25" aria-hidden="true">Sales of petroleum products March, Norway</text><g class="highcharts-data-labels highcharts-series-4 highcharts-pie-series highcharts-tracker" data-z-index="6" aria-hidden="true"><text x="5" data-z-index="1" y="19" style="color:#f0f0f3;font-size:15px;font-weight:700;fill:#f0f0f3" transform="translate(132 122)" class="highcharts-label highcharts-data-label highcharts-data-label-color-0"><tspan class="highcharts-text-outline" fill="#000" stroke="#000" stroke-width="2" stroke-linejoin="round">1852 M<tspan x="5" dy="0">​</tspan></tspan>1852 M</text></g><g class="highcharts-legend highcharts-no-tooltip" data-z-index="7" transform="translate(156 359)" aria-hidden="true"><rect fill="rgba(0, 0, 0, 0.5)" class="highcharts-legend-box" rx="0" ry="0" width="287" height="26"/><g data-z-index="1"><g class="highcharts-legend-item highcharts-column-series highcharts-color-0 highcharts-series-0" data-z-index="1" transform="translate(8 3)"><text x="21" data-z-index="2" y="15" style="color:#e0e0e3;cursor:pointer;font-size:12px;font-weight:700;fill:#e0e0e3">2020</text><rect x="2" y="4" width="12" height="12" fill="#2b908f" rx="6" ry="6" class="highcharts-point" data-z-index="3"/></g><g class="highcharts-legend-item highcharts-column-series highcharts-color-1 highcharts-series-1" data-z-index="1" transform="translate(75.695 3)"><text x="21" y="15" data-z-index="2" style="color:#e0e0e3;cursor:pointer;font-size:12px;font-weight:700;fill:#e0e0e3">2021</text><rect x="2" y="4" width="12" height="12" fill="#90ee7e" rx="6" ry="6" class="highcharts-point" data-z-index="3"/></g><g class="highcharts-legend-item highcharts-column-series highcharts-color-2 highcharts-series-2" data-z-index="1" transform="translate(143.39 3)"><text x="21" y="15" data-z-index="2" style="color:#e0e0e3;cursor:pointer;font-size:12px;font-weight:700;fill:#e0e0e3">2022</text><rect x="2" y="4" width="12" height="12" fill="#f45b5b" rx="6" ry="6" class="highcharts-point" data-z-index="3"/></g><g class="highcharts-legend-item highcharts-spline-series highcharts-color-3 highcharts-series-3" data-z-index="1"><path fill="none" d="M211.086 14h16" class="highcharts-graph" stroke-width="2" stroke="#7798BF"/><path fill="#fff" d="M219.086 18a4 4 0 1 1 .004 0Z" class="highcharts-point" stroke="#7798BF" stroke-width="2"/><text x="21" y="15" data-z-index="2" style="color:#e0e0e3;cursor:pointer;font-size:12px;font-weight:700;fill:#e0e0e3" transform="translate(211.086 3)">Average</text></g></g></g><g class="highcharts-axis-labels highcharts-xaxis-labels" data-z-index="7" aria-hidden="true" text-anchor="middle"><text x="119.3" style="color:#e0e0e3;cursor:default;font-size:11px;fill:#e0e0e3" y="346">Jet fuel</text><text x="223.9" style="color:#e0e0e3;cursor:default;font-size:11px;fill:#e0e0e3" y="346">Duty-free diesel</text><text x="328.5" style="color:#e0e0e3;cursor:default;font-size:11px;fill:#e0e0e3" y="346">Petrol</text><text x="433.1" style="color:#e0e0e3;cursor:default;font-size:11px;fill:#e0e0e3" y="346">Diesel</text><text x="537.7" style="color:#e0e0e3;cursor:default;font-size:11px;fill:#e0e0e3" y="346">Gas oil</text></g><g class="highcharts-axis-labels highcharts-yaxis-labels" data-z-index="7" aria-hidden="true" text-anchor="end"><text x="52" style="color:#e0e0e3;cursor:default;font-size:11px;fill:#e0e0e3" y="332">0</text><text x="52" style="color:#e0e0e3;cursor:default;font-size:11px;fill:#e0e0e3" y="285">50</text><text x="52" style="color:#e0e0e3;cursor:default;font-size:11px;fill:#e0e0e3" y="238">100</text><text x="52" style="color:#e0e0e3;cursor:default;font-size:11px;fill:#e0e0e3" y="192">150</text><text x="52" style="color:#e0e0e3;cursor:default;font-size:11px;fill:#e0e0e3" y="145">200</text><text x="52" style="color:#e0e0e3;cursor:default;font-size:11px;fill:#e0e0e3" y="98">250</text><text x="52" style="color:#e0e0e3;cursor:default;font-size:11px;fill:#e0e0e3" y="52">300</text></g></svg>