<svg class="highcharts-root" style="font-family:&quot;Unica One&quot;,sans-serif;font-size:12px" xmlns="http://www.w3.org/2000/svg" width="600" height="400" aria-label="Interactive chart" aria-hidden="false"><defs aria-hidden="true"><linearGradient x1="0" y1="0" x2="1" y2="1" id="a"><stop offset="0" stop-color="#2a2a2b"/><stop offset="1" stop-color="#3e3e40"/></linearGradient><clipPath id="b"><path fill="none" d="M0 0h520v318H0z"/></clipPath></defs><rect fill="url(#a)" class="highcharts-background" width="600" height="400" rx="0" ry="0" aria-hidden="true"/><path fill="none" class="highcharts-plot-background" aria-hidden="true" d="M70 47h520v318H70z"/><g class="highcharts-plot-lines-0" data-z-index="0" aria-hidden="true"><path fill="none" class="highcharts-plot-line" stroke="gray" d="M70 365.5h520"/></g><g class="highcharts-grid highcharts-xaxis-grid" data-z-index="1" aria-hidden="true" fill="none"><path data-z-index="1" class="highcharts-grid-line" d="M168.5 47v318m132-318v318m132-318v318m131-318v318"/></g><g class="highcharts-grid highcharts-yaxis-grid" data-z-index="1" aria-hidden="true" fill="none" stroke="#707073"><path data-z-index="1" class="highcharts-grid-line" d="M70 365.5h520m-520-64h520m-520-63h520m-520-64h520m-520-63h520m-520-65h520"/></g><path fill="none" class="highcharts-plot-border" data-z-index="1" aria-hidden="true" d="M70 47h520v318H70z"/><g class="highcharts-axis highcharts-xaxis" data-z-index="2" aria-hidden="true" fill="none" stroke="#707073"><path class="highcharts-tick" d="M168.5 365v10m132-10v10m132-10v10m131-10v10"/><path class="highcharts-axis-line" data-z-index="7" d="M70 365.5h520"/></g><g class="highcharts-axis highcharts-yaxis" data-z-index="2" aria-hidden="true"><path fill="none" class="highcharts-tick" stroke="#707073" d="M70 365.5H60m10-64H60m10-63H60m10-64H60m10-63H60m10-65H60"/><text x="23.586" data-z-index="7" text-anchor="middle" transform="rotate(-90 23.586 206)" class="highcharts-axis-title" style="color:#a0a0a3;fill:#a0a0a3" y="206">Value</text><path fill="none" class="highcharts-axis-line" data-z-index="7" d="M70 47v318"/></g><g class="highcharts-series-group" data-z-index="3" aria-hidden="false"><g class="highcharts-series highcharts-series-0 highcharts-spline-series highcharts-color-0" data-z-index=".1" clip-path="url(#b)" aria-hidden="true" fill="none" stroke-linejoin="round" stroke-linecap="round" transform="translate(70 47)"><path d="M5.098 87.201s15.814 182.672 26.357 182.672 15.815 0 26.358-.516c10.543-.515 15.814-132.693 26.357-132.693s15.815 32.735 26.357 50.134c10.543 17.4 15.815 36.864 26.358 36.864 10.543 0 15.814-44.35 26.357-76.007 10.543-31.657 15.815-82.278 26.358-82.278 10.542 0 15.814 14.225 26.357 64.622 10.543 50.398 15.814 187.366 26.357 187.366S258.13 171.24 268.672 171.24c10.543 0 15.814 39.95 26.357 63.95s15.814 56.051 26.357 56.051 15.815-166.12 26.358-166.12c10.543 0 15.814 77.574 26.357 77.574 14.16 0 21.239-134.349 35.398-134.349 10.638 0 15.957 206.763 26.594 206.763 10.522 0 15.783-95.135 26.305-128.378 10.554-33.343 15.83-30.377 26.384-38.088 10.448-7.712 26.12-7.712 26.12-7.712" class="highcharts-graph" data-z-index="1" stroke="#2b908f" stroke-width="2"/><path d="M5.098 87.201s15.814 182.672 26.357 182.672 15.815 0 26.358-.516c10.543-.515 15.814-132.693 26.357-132.693s15.815 32.735 26.357 50.134c10.543 17.4 15.815 36.864 26.358 36.864 10.543 0 15.814-44.35 26.357-76.007 10.543-31.657 15.815-82.278 26.358-82.278 10.542 0 15.814 14.225 26.357 64.622 10.543 50.398 15.814 187.366 26.357 187.366S258.13 171.24 268.672 171.24c10.543 0 15.814 39.95 26.357 63.95s15.814 56.051 26.357 56.051 15.815-166.12 26.358-166.12c10.543 0 15.814 77.574 26.357 77.574 14.16 0 21.239-134.349 35.398-134.349 10.638 0 15.957 206.763 26.594 206.763 10.522 0 15.783-95.135 26.305-128.378 10.554-33.343 15.83-30.377 26.384-38.088 10.448-7.712 26.12-7.712 26.12-7.712" data-z-index="2" class="highcharts-tracker-line" stroke="rgba(192,192,192,0.0001)" stroke-width="22"/></g><g class="highcharts-markers highcharts-series-0 highcharts-spline-series highcharts-color-0 highcharts-tracker" data-z-index=".1" aria-hidden="false" fill="#2b908f"><path d="M5 91.201a4 4 0 1 1 .004 0Z" class="highcharts-point highcharts-color-0" tabindex="-1" aria-label="Wednesday, Nov 30, 08:16:41.435, 0.9072283861230133. Random data." style="outline:0" transform="translate(70 47)"/><path d="M31 273.873a4 4 0 1 1 .004 0Z" class="highcharts-point highcharts-color-0" tabindex="-1" aria-label="Wednesday, Nov 30, 08:16:42.435, 0.18917996151814864. Random data." style="outline:0" transform="translate(70 47)"/><path d="M57 273.357a4 4 0 1 1 .004 0Z" class="highcharts-point highcharts-color-0" tabindex="-1" aria-label="Wednesday, Nov 30, 08:16:43.435, 0.19120620603740868. Random data." style="outline:0" transform="translate(70 47)"/><path d="M84 140.664a4 4 0 1 1 .004 0Z" class="highcharts-point highcharts-color-0" tabindex="-1" aria-label="Wednesday, Nov 30, 08:16:44.435, 0.7127987998046728. Random data." style="outline:0" transform="translate(70 47)"/><path d="M110 190.798a4 4 0 1 1 .004 0Z" class="highcharts-point highcharts-color-0" tabindex="-1" aria-label="Wednesday, Nov 30, 08:16:45.435, 0.5157294285263831. Random data." style="outline:0" transform="translate(70 47)"/><path d="M136 227.662a4 4 0 1 1 .004 0Z" class="highcharts-point highcharts-color-0" tabindex="-1" aria-label="Wednesday, Nov 30, 08:16:46.435, 0.370826652537777. Random data." style="outline:0" transform="translate(70 47)"/><path d="M163 151.655a4 4 0 1 1 .004 0Z" class="highcharts-point highcharts-color-0" tabindex="-1" aria-label="Wednesday, Nov 30, 08:16:47.435, 0.6695964864964548. Random data." style="outline:0" transform="translate(70 47)"/><path d="M189 69.377a4 4 0 1 1 .004 0Z" class="highcharts-point highcharts-color-0" tabindex="-1" aria-label="Wednesday, Nov 30, 08:16:48.435, 0.9930139834514389. Random data." style="outline:0" transform="translate(70 47)"/><path d="M215 134a4 4 0 1 1 .004 0Z" class="highcharts-point highcharts-color-0" tabindex="-1" aria-label="Wednesday, Nov 30, 08:16:49.435, 0.7389958987232155. Random data." style="outline:0" transform="translate(70 47)"/><path d="M242 321.365a4 4 0 1 1 .004 0Z" class="highcharts-point highcharts-color-0" tabindex="-1" aria-label="Wednesday, Nov 30, 08:16:50.435, 0.0024971085285363515. Random data." style="outline:0" transform="translate(70 47)"/><path d="M268 175.24a4 4 0 1 1 .004 0Z" class="highcharts-point highcharts-color-0" tabindex="-1" aria-label="Wednesday, Nov 30, 08:16:51.435, 0.5768850064552125. Random data." style="outline:0" transform="translate(70 47)"/><path d="M295 239.19a4 4 0 1 1 .004 0Z" class="highcharts-point highcharts-color-0" tabindex="-1" aria-label="Wednesday, Nov 30, 08:16:52.435, 0.32551118747847574. Random data." style="outline:0" transform="translate(70 47)"/><path d="M321 295.241a4 4 0 1 1 .004 0Z" class="highcharts-point highcharts-color-0" tabindex="-1" aria-label="Wednesday, Nov 30, 08:16:53.435, 0.10518489502835848. Random data." style="outline:0" transform="translate(70 47)"/><path d="M347 129.121a4 4 0 1 1 .004 0Z" class="highcharts-point highcharts-color-0" tabindex="-1" aria-label="Wednesday, Nov 30, 08:16:54.435, 0.7581719810523138. Random data." style="outline:0" transform="translate(70 47)"/><path d="M374 206.695a4 4 0 1 1 .004 0Z" class="highcharts-point highcharts-color-0" tabindex="-1" aria-label="Wednesday, Nov 30, 08:16:55.435, 0.4532429785417498. Random data." style="outline:0" transform="translate(70 47)"/><path d="M409 72.346a4 4 0 1 1 .004 0Z" class="highcharts-point highcharts-color-0" tabindex="-1" aria-label="Wednesday, Nov 30, 08:16:56.778, 0.9813431860695925. Random data." style="outline:0" transform="translate(70 47)"/><path d="M436 279.11a4 4 0 1 1 .004 0Z" class="highcharts-point highcharts-color-0" tabindex="-1" aria-label="Wednesday, Nov 30, 08:16:57.787, 0.16859622490242399. Random data." style="outline:0" transform="translate(70 47)"/><path d="M462 150.73a4 4 0 1 1 .004 0Z" class="highcharts-point highcharts-color-0" tabindex="-1" aria-label="Wednesday, Nov 30, 08:16:58.785, 0.6732274872640229. Random data." style="outline:0" transform="translate(70 47)"/><path d="M488 112.643a4 4 0 1 1 .004 0Z" class="highcharts-point highcharts-color-0" tabindex="-1" aria-label="Wednesday, Nov 30, 08:16:59.786, 0.8229458731901398. Random data." style="outline:0" transform="translate(70 47)"/><path d="M514 105a4 4 0 1 1 .004 0Z" class="highcharts-point highcharts-color-0" tabindex="-1" aria-label="Wednesday, Nov 30, 08:17:00.777, 0.8532589248409601. Random data." style="outline:0" transform="translate(70 47)"/></g></g><text x="300" text-anchor="middle" class="highcharts-title" data-z-index="4" style="color:#e0e0e3;font-size:20px;text-transform:uppercase;fill:#e0e0e3" y="25" aria-hidden="true">Live random data</text><g class="highcharts-axis-labels highcharts-xaxis-labels" data-z-index="7" aria-hidden="true" text-anchor="middle"><text x="169.062" style="color:#e0e0e3;cursor:default;font-size:11px;fill:#e0e0e3" y="384">08:16:45</text><text x="300.849" style="color:#e0e0e3;cursor:default;font-size:11px;fill:#e0e0e3" y="384">08:16:50</text><text x="432.636" style="color:#e0e0e3;cursor:default;font-size:11px;fill:#e0e0e3" y="384">08:16:55</text><text x="564.422" y="384" style="color:#e0e0e3;cursor:default;font-size:11px;fill:#e0e0e3">08:17:00</text></g><g class="highcharts-axis-labels highcharts-yaxis-labels" data-z-index="7" aria-hidden="true" text-anchor="end"><text x="55" style="color:#e0e0e3;cursor:default;font-size:11px;fill:#e0e0e3" y="370">0</text><text x="55" style="color:#e0e0e3;cursor:default;font-size:11px;fill:#e0e0e3" y="306">0.25</text><text x="55" style="color:#e0e0e3;cursor:default;font-size:11px;fill:#e0e0e3" y="243">0.5</text><text x="55" style="color:#e0e0e3;cursor:default;font-size:11px;fill:#e0e0e3" y="179">0.75</text><text x="55" style="color:#e0e0e3;cursor:default;font-size:11px;fill:#e0e0e3" y="115">1</text><text x="55" style="color:#e0e0e3;cursor:default;font-size:11px;fill:#e0e0e3" y="52">1.25</text></g></svg>