<svg class="highcharts-root" style="font-family:&quot;Unica One&quot;,sans-serif;font-size:12px" xmlns="http://www.w3.org/2000/svg" width="600" height="400" aria-label="Interactive chart" aria-hidden="false"><defs aria-hidden="true"><linearGradient x1="0" y1="0" x2="1" y2="1" id="a"><stop offset="0" stop-color="#2a2a2b"/><stop offset="1" stop-color="#3e3e40"/></linearGradient><clipPath id="b"><path fill="none" d="M0 0h318v281H0z"/></clipPath></defs><rect fill="url(#a)" class="highcharts-background" width="600" height="400" rx="0" ry="0" aria-hidden="true"/><path fill="none" class="highcharts-plot-background" aria-hidden="true" d="M72 84h318v281H72z"/><g class="highcharts-grid highcharts-xaxis-grid" data-z-index="1" aria-hidden="true" fill="none"><path data-z-index="1" class="highcharts-grid-line" d="M74.5 84v281m62-281v281m63-281v281m62-281v281m63-281v281m62-281v281"/></g><g class="highcharts-grid highcharts-yaxis-grid" data-z-index="1" aria-hidden="true" fill="none" stroke="#707073"><path data-z-index="1" class="highcharts-grid-line" d="M72 365.5h318m-318-70h318m-318-70h318m-318-71h318m-318-71h318"/></g><path fill="none" class="highcharts-plot-border" data-z-index="1" aria-hidden="true" d="M72 84h318v281H72z"/><g class="highcharts-axis highcharts-xaxis" data-z-index="2" aria-hidden="true" fill="none" stroke="#707073"><path class="highcharts-tick" d="M74.5 365v10m62-10v10m63-10v10m62-10v10m63-10v10m62-10v10"/><path class="highcharts-axis-line" data-z-index="7" d="M72 365.5h318"/></g><g class="highcharts-axis highcharts-yaxis" data-z-index="2" aria-hidden="true"><path fill="none" class="highcharts-tick" stroke="#707073" d="M72 365.5H62m10-70H62m10-70H62m10-71H62m10-71H62"/><text x="23.141" data-z-index="7" text-anchor="middle" transform="rotate(-90 23.14 224.5)" class="highcharts-axis-title" style="color:#a0a0a3;fill:#a0a0a3" y="224.5">Number of Employees</text><path fill="none" class="highcharts-axis-line" data-z-index="7" d="M72 84v281"/></g><g class="highcharts-series-group" data-z-index="3" aria-hidden="false"><g class="highcharts-series highcharts-series-0 highcharts-line-series highcharts-color-0" data-z-index=".1" clip-path="url(#b)" aria-hidden="true" fill="none" stroke-linejoin="round" stroke-linecap="round" transform="translate(72 84)"><path d="m3.118 219.273 31.176-6.635 31.177-23.195 31.176-23.41 31.177-42.594L159 80.952l31.176-40.956 31.177 8.935 31.176 14.073 31.177-8.847 31.176 9.616" class="highcharts-graph" data-z-index="1" stroke="#2b908f" stroke-width="2"/><path d="m3.118 219.273 31.176-6.635 31.177-23.195 31.176-23.41 31.177-42.594L159 80.952l31.176-40.956 31.177 8.935 31.176 14.073 31.177-8.847 31.176 9.616" data-z-index="2" class="highcharts-tracker-line" stroke="rgba(192,192,192,0.0001)" stroke-width="22"/></g><g class="highcharts-markers highcharts-series-0 highcharts-line-series highcharts-color-0 highcharts-tracker" data-z-index=".1" aria-hidden="false" tabindex="-1" aria-label="Installation &amp; Developers, line 1 of 5 with 11 data points." style="outline:0" fill="#2b908f"><path d="M3 223.273a4 4 0 1 1 .004 0Z" class="highcharts-point highcharts-color-0" tabindex="-1" aria-label="x, 2010, 43,934. Installation &amp; Developers." style="outline:0" transform="translate(72 84)"/><path d="M34 216.638a4 4 0 1 1 .004 0Z" class="highcharts-point highcharts-color-0" tabindex="-1" aria-label="x, 2011, 48,656. Installation &amp; Developers." style="outline:0" transform="translate(72 84)"/><path d="M65 193.443a4 4 0 1 1 .004 0Z" class="highcharts-point highcharts-color-0" tabindex="-1" aria-label="x, 2012, 65,165. Installation &amp; Developers." style="outline:0" transform="translate(72 84)"/><path d="M96 170.033a4 4 0 1 1 .004 0Z" class="highcharts-point highcharts-color-0" tabindex="-1" aria-label="x, 2013, 81,827. Installation &amp; Developers." style="outline:0" transform="translate(72 84)"/><path d="M127 127.44a4 4 0 1 1 .004 0Z" class="highcharts-point highcharts-color-0" tabindex="-1" aria-label="x, 2014, 112,143. Installation &amp; Developers." style="outline:0" transform="translate(72 84)"/><path d="M159 84.952a4 4 0 1 1 .004 0Z" class="highcharts-point highcharts-color-0" tabindex="-1" aria-label="x, 2015, 142,383. Installation &amp; Developers." style="outline:0" transform="translate(72 84)"/><path d="M190 43.996a4 4 0 1 1 .004 0Z" class="highcharts-point highcharts-color-0" tabindex="-1" aria-label="x, 2016, 171,533. Installation &amp; Developers." style="outline:0" transform="translate(72 84)"/><path d="M221 52.93a4 4 0 1 1 .004 0Z" class="highcharts-point highcharts-color-0" tabindex="-1" aria-label="x, 2017, 165,174. Installation &amp; Developers." style="outline:0" transform="translate(72 84)"/><path d="M252 67.004a4 4 0 1 1 .004 0Z" class="highcharts-point highcharts-color-0" tabindex="-1" aria-label="x, 2018, 155,157. Installation &amp; Developers." style="outline:0" transform="translate(72 84)"/><path d="M283 58.157a4 4 0 1 1 .004 0Z" class="highcharts-point highcharts-color-0" tabindex="-1" aria-label="x, 2019, 161,454. Installation &amp; Developers." style="outline:0" transform="translate(72 84)"/><path d="M314 67.773a4 4 0 1 1 .004 0Z" class="highcharts-point highcharts-color-0" tabindex="-1" aria-label="x, 2020, 154,610. Installation &amp; Developers." style="outline:0" transform="translate(72 84)"/></g><g class="highcharts-series highcharts-series-1 highcharts-line-series highcharts-color-1" data-z-index=".1" clip-path="url(#b)" aria-hidden="true" fill="none" stroke-linejoin="round" stroke-linecap="round" transform="translate(72 84)"><path d="m3.118 245.993 31.176-18.3 31.177 11.52 31.176-.154 31.177-3.707L159 238.454l31.176-11.014 31.177 1.737 31.176 4.438 31.177-.726 31.176 4.486" class="highcharts-graph" data-z-index="1" stroke="#90ee7e" stroke-width="2"/><path d="m3.118 245.993 31.176-18.3 31.177 11.52 31.176-.154 31.177-3.707L159 238.454l31.176-11.014 31.177 1.737 31.176 4.438 31.177-.726 31.176 4.486" data-z-index="2" class="highcharts-tracker-line" stroke="rgba(192,192,192,0.0001)" stroke-width="22"/></g><g class="highcharts-markers highcharts-series-1 highcharts-line-series highcharts-color-1 highcharts-tracker" data-z-index=".1" aria-hidden="false" tabindex="-1" aria-label="Manufacturing, line 2 of 5 with 11 data points." style="outline:0" fill="#90ee7e"><path d="m3 241.993 4 4-4 4-4-4Z" class="highcharts-point highcharts-color-1" tabindex="-1" aria-label="x, 2010, 24,916. Manufacturing." style="outline:0" transform="translate(72 84)"/><path d="m34 223.693 4 4-4 4-4-4Z" class="highcharts-point highcharts-color-1" tabindex="-1" aria-label="x, 2011, 37,941. Manufacturing." style="outline:0" transform="translate(72 84)"/><path d="m65 235.212 4 4-4 4-4-4Z" class="highcharts-point highcharts-color-1" tabindex="-1" aria-label="x, 2012, 29,742. Manufacturing." style="outline:0" transform="translate(72 84)"/><path d="m96 235.06 4 4-4 4-4-4Z" class="highcharts-point highcharts-color-1" tabindex="-1" aria-label="x, 2013, 29,851. Manufacturing." style="outline:0" transform="translate(72 84)"/><path d="m127 231.352 4 4-4 4-4-4Z" class="highcharts-point highcharts-color-1" tabindex="-1" aria-label="x, 2014, 32,490. Manufacturing." style="outline:0" transform="translate(72 84)"/><path d="m159 234.454 4 4-4 4-4-4Z" class="highcharts-point highcharts-color-1" tabindex="-1" aria-label="x, 2015, 30,282. Manufacturing." style="outline:0" transform="translate(72 84)"/><path d="m190 223.44 4 4-4 4-4-4Z" class="highcharts-point highcharts-color-1" tabindex="-1" aria-label="x, 2016, 38,121. Manufacturing." style="outline:0" transform="translate(72 84)"/><path d="m221 225.177 4 4-4 4-4-4Z" class="highcharts-point highcharts-color-1" tabindex="-1" aria-label="x, 2017, 36,885. Manufacturing." style="outline:0" transform="translate(72 84)"/><path d="m252 229.615 4 4-4 4-4-4Z" class="highcharts-point highcharts-color-1" tabindex="-1" aria-label="x, 2018, 33,726. Manufacturing." style="outline:0" transform="translate(72 84)"/><path d="m283 228.889 4 4-4 4-4-4Z" class="highcharts-point highcharts-color-1" tabindex="-1" aria-label="x, 2019, 34,243. Manufacturing." style="outline:0" transform="translate(72 84)"/><path d="m314 233.375 4 4-4 4-4-4Z" class="highcharts-point highcharts-color-1" tabindex="-1" aria-label="x, 2020, 31,050. Manufacturing." style="outline:0" transform="translate(72 84)"/></g><g class="highcharts-series highcharts-series-2 highcharts-line-series highcharts-color-2" data-z-index=".1" clip-path="url(#b)" aria-hidden="true" fill="none" stroke-linejoin="round" stroke-linecap="round" transform="translate(72 84)"><path d="m3.118 264.5 31.176-25.65 31.177 19.663 31.176-5.291 31.177-.582L159 246.75l31.176-10.917 31.177 1.736 31.176 2.345 31.177.042 31.176 4.987" class="highcharts-graph" data-z-index="1" stroke="#f45b5b" stroke-width="2"/><path d="m3.118 264.5 31.176-25.65 31.177 19.663 31.176-5.291 31.177-.582L159 246.75l31.176-10.917 31.177 1.736 31.176 2.345 31.177.042 31.176 4.987" data-z-index="2" class="highcharts-tracker-line" stroke="rgba(192,192,192,0.0001)" stroke-width="22"/></g><g class="highcharts-markers highcharts-series-2 highcharts-line-series highcharts-color-2 highcharts-tracker" data-z-index=".1" aria-hidden="false" tabindex="-1" aria-label="Sales &amp; Distribution, line 3 of 5 with 11 data points." style="outline:0" fill="#f45b5b"><path d="M-1 260.5h8v8h-8Z" class="highcharts-point highcharts-color-2" tabindex="-1" aria-label="x, 2010, 11,744. Sales &amp; Distribution." style="outline:0" transform="translate(72 84)"/><path d="M30 234.85h8v8h-8Z" class="highcharts-point highcharts-color-2" tabindex="-1" aria-label="x, 2011, 30,000. Sales &amp; Distribution." style="outline:0" transform="translate(72 84)"/><path d="M61 254.513h8v8h-8Z" class="highcharts-point highcharts-color-2" tabindex="-1" aria-label="x, 2012, 16,005. Sales &amp; Distribution." style="outline:0" transform="translate(72 84)"/><path d="M92 249.222h8v8h-8Z" class="highcharts-point highcharts-color-2" tabindex="-1" aria-label="x, 2013, 19,771. Sales &amp; Distribution." style="outline:0" transform="translate(72 84)"/><path d="M123 248.64h8v8h-8Z" class="highcharts-point highcharts-color-2" tabindex="-1" aria-label="x, 2014, 20,185. Sales &amp; Distribution." style="outline:0" transform="translate(72 84)"/><path d="M155 242.75h8v8h-8Z" class="highcharts-point highcharts-color-2" tabindex="-1" aria-label="x, 2015, 24,377. Sales &amp; Distribution." style="outline:0" transform="translate(72 84)"/><path d="M186 231.833h8v8h-8Z" class="highcharts-point highcharts-color-2" tabindex="-1" aria-label="x, 2016, 32,147. Sales &amp; Distribution." style="outline:0" transform="translate(72 84)"/><path d="M217 233.569h8v8h-8Z" class="highcharts-point highcharts-color-2" tabindex="-1" aria-label="x, 2017, 30,912. Sales &amp; Distribution." style="outline:0" transform="translate(72 84)"/><path d="M248 235.914h8v8h-8Z" class="highcharts-point highcharts-color-2" tabindex="-1" aria-label="x, 2018, 29,243. Sales &amp; Distribution." style="outline:0" transform="translate(72 84)"/><path d="M279 235.956h8v8h-8Z" class="highcharts-point highcharts-color-2" tabindex="-1" aria-label="x, 2019, 29,213. Sales &amp; Distribution." style="outline:0" transform="translate(72 84)"/><path d="M310 240.943h8v8h-8Z" class="highcharts-point highcharts-color-2" tabindex="-1" aria-label="x, 2020, 25,663. Sales &amp; Distribution." style="outline:0" transform="translate(72 84)"/></g><g class="highcharts-series highcharts-series-3 highcharts-line-series highcharts-color-3" data-z-index=".1" clip-path="url(#b)" aria-hidden="true" fill="none" stroke-linejoin="round" stroke-linecap="round" transform="translate(72 84)"><path d="m252.53 265.315 31.176-.076 31.176 1.603" class="highcharts-graph" data-z-index="1" stroke="#7798BF" stroke-width="2"/><path d="m252.53 265.315 31.176-.076 31.176 1.603" data-z-index="2" class="highcharts-tracker-line" stroke="rgba(192,192,192,0.0001)" stroke-width="22"/></g><g class="highcharts-markers highcharts-series-3 highcharts-line-series highcharts-color-3 highcharts-tracker" data-z-index=".1" aria-hidden="false" tabindex="-1" aria-label="Operations &amp; Maintenance, line 4 of 5 with 11 data points." style="outline:0" fill="#7798BF"><path d="m252 261.315 4 8h-8Z" class="highcharts-point highcharts-color-3" tabindex="-1" aria-label="x, 2018, 11,164. Operations &amp; Maintenance." style="outline:0" transform="translate(72 84)"/><path d="m283 261.239 4 8h-8Z" class="highcharts-point highcharts-color-3" tabindex="-1" aria-label="x, 2019, 11,218. Operations &amp; Maintenance." style="outline:0" transform="translate(72 84)"/><path d="m314 262.842 4 8h-8Z" class="highcharts-point highcharts-color-3" tabindex="-1" aria-label="x, 2020, 10,077. Operations &amp; Maintenance." style="outline:0" transform="translate(72 84)"/></g><g class="highcharts-series highcharts-series-4 highcharts-line-series highcharts-color-4" data-z-index=".1" clip-path="url(#b)" aria-hidden="true" fill="none" stroke-linejoin="round" stroke-linecap="round" transform="translate(72 84)"><path d="m3.118 250.22 31.176 22.985 31.177-3.593 31.176-4.415 31.177 3.173L159 264.4l31.176-9.074 31.177 1.368 31.176 5.968 31.177 1.611 31.176 2.575" class="highcharts-graph" data-z-index="1" stroke="#aee" stroke-width="2"/><path d="m3.118 250.22 31.176 22.985 31.177-3.593 31.176-4.415 31.177 3.173L159 264.4l31.176-9.074 31.177 1.368 31.176 5.968 31.177 1.611 31.176 2.575" data-z-index="2" class="highcharts-tracker-line" stroke="rgba(192,192,192,0.0001)" stroke-width="22"/></g><g class="highcharts-markers highcharts-series-4 highcharts-line-series highcharts-color-4 highcharts-tracker" data-z-index=".1" aria-hidden="false" tabindex="-1" aria-label="Other, line 5 of 5 with 11 data points." style="outline:0" fill="#aee"><path d="M-1 246.22h8l-4 8Z" class="highcharts-point highcharts-color-4" tabindex="-1" aria-label="x, 2010, 21,908. Other." style="outline:0" transform="translate(72 84)"/><path d="M30 269.205h8l-4 8Z" class="highcharts-point highcharts-color-4" tabindex="-1" aria-label="x, 2011, 5,548. Other." style="outline:0" transform="translate(72 84)"/><path d="M61 265.612h8l-4 8Z" class="highcharts-point highcharts-color-4" tabindex="-1" aria-label="x, 2012, 8,105. Other." style="outline:0" transform="translate(72 84)"/><path d="M92 261.197h8l-4 8Z" class="highcharts-point highcharts-color-4" tabindex="-1" aria-label="x, 2013, 11,248. Other." style="outline:0" transform="translate(72 84)"/><path d="M123 264.37h8l-4 8Z" class="highcharts-point highcharts-color-4" tabindex="-1" aria-label="x, 2014, 8,989. Other." style="outline:0" transform="translate(72 84)"/><path d="M155 260.399h8l-4 8Z" class="highcharts-point highcharts-color-4" tabindex="-1" aria-label="x, 2015, 11,816. Other." style="outline:0" transform="translate(72 84)"/><path d="M186 251.325h8l-4 8Z" class="highcharts-point highcharts-color-4" tabindex="-1" aria-label="x, 2016, 18,274. Other." style="outline:0" transform="translate(72 84)"/><path d="M217 252.693h8l-4 8Z" class="highcharts-point highcharts-color-4" tabindex="-1" aria-label="x, 2017, 17,300. Other." style="outline:0" transform="translate(72 84)"/><path d="M248 258.66h8l-4 8Z" class="highcharts-point highcharts-color-4" tabindex="-1" aria-label="x, 2018, 13,053. Other." style="outline:0" transform="translate(72 84)"/><path d="M279 260.272h8l-4 8Z" class="highcharts-point highcharts-color-4" tabindex="-1" aria-label="x, 2019, 11,906. Other." style="outline:0" transform="translate(72 84)"/><path d="M310 262.847h8l-4 8Z" class="highcharts-point highcharts-color-4" tabindex="-1" aria-label="x, 2020, 10,073. Other." style="outline:0" transform="translate(72 84)"/></g></g><g data-z-index="3" aria-hidden="true"><text data-z-index="1" y="12" style="color:#2b908f;font-weight:700;fill:#2b908f" transform="translate(116 107)" class="highcharts-label highcharts-series-label highcharts-series-label-0 highcharts-color-0">Installation &amp; Developers</text></g><g data-z-index="3" aria-hidden="true"><text data-z-index="1" y="12" style="color:#90ee7e;font-weight:700;fill:#90ee7e" transform="translate(109 295)" class="highcharts-label highcharts-series-label highcharts-series-label-1 highcharts-color-1">Manufacturing</text></g><g data-z-index="3" aria-hidden="true"><text data-z-index="1" y="12" style="color:#aee;font-weight:700;fill:#aee" transform="translate(352 334)" class="highcharts-label highcharts-series-label highcharts-series-label-4 highcharts-color-4">Other</text></g><text x="300" text-anchor="middle" class="highcharts-title" data-z-index="4" style="color:#e0e0e3;font-size:20px;text-transform:uppercase;fill:#e0e0e3" y="25" aria-hidden="true">U.S Solar Employment Growth by Job<tspan dy="23" x="300">​</tspan>Category, 2010-2020</text><text x="300" text-anchor="middle" class="highcharts-subtitle" data-z-index="4" style="color:#e0e0e3;text-transform:uppercase;fill:#e0e0e3" y="69" aria-hidden="true">Source: <a target="_blank"><tspan>IREC</tspan></a></text><g class="highcharts-legend highcharts-no-tooltip" data-z-index="7" transform="translate(402 155)" aria-hidden="true"><rect fill="rgba(0, 0, 0, 0.5)" class="highcharts-legend-box" rx="0" ry="0" width="188" height="86"/><g data-z-index="1"><g class="highcharts-legend-item highcharts-line-series highcharts-color-0 highcharts-series-0" data-z-index="1"><path fill="none" d="M8 14h16" class="highcharts-graph" stroke-width="2" stroke="#2b908f"/><path fill="#2b908f" d="M16 18a4 4 0 1 1 .004 0Z" class="highcharts-point"/><text x="21" data-z-index="2" y="15" style="color:#e0e0e3;cursor:pointer;font-size:12px;font-weight:700;fill:#e0e0e3" transform="translate(8 3)">Installation &amp; Developers</text></g><g class="highcharts-legend-item highcharts-line-series highcharts-color-1 highcharts-series-1" data-z-index="1"><path fill="none" d="M8 29h16" class="highcharts-graph" stroke-width="2" stroke="#90ee7e"/><path fill="#90ee7e" d="m16 25 4 4-4 4-4-4Z" class="highcharts-point"/><text x="21" y="15" data-z-index="2" style="color:#e0e0e3;cursor:pointer;font-size:12px;font-weight:700;fill:#e0e0e3" transform="translate(8 18)">Manufacturing</text></g><g class="highcharts-legend-item highcharts-line-series highcharts-color-2 highcharts-series-2" data-z-index="1"><path fill="none" d="M8 44h16" class="highcharts-graph" stroke-width="2" stroke="#f45b5b"/><path fill="#f45b5b" d="M12 40h8v8h-8Z" class="highcharts-point"/><text x="21" y="15" data-z-index="2" style="color:#e0e0e3;cursor:pointer;font-size:12px;font-weight:700;fill:#e0e0e3" transform="translate(8 33)">Sales &amp; Distribution</text></g><g class="highcharts-legend-item highcharts-line-series highcharts-color-3 highcharts-series-3" data-z-index="1"><path fill="none" d="M8 59h16" class="highcharts-graph" stroke-width="2" stroke="#7798BF"/><path fill="#7798BF" d="m16 55 4 8h-8Z" class="highcharts-point"/><text x="21" y="15" data-z-index="2" style="color:#e0e0e3;cursor:pointer;font-size:12px;font-weight:700;fill:#e0e0e3" transform="translate(8 48)">Operations &amp; Maintenance</text></g><g class="highcharts-legend-item highcharts-line-series highcharts-color-4 highcharts-series-4" data-z-index="1"><path fill="none" d="M8 74h16" class="highcharts-graph" stroke-width="2" stroke="#aee"/><path fill="#aee" d="M12 70h8l-4 8Z" class="highcharts-point"/><text x="21" y="15" data-z-index="2" style="color:#e0e0e3;cursor:pointer;font-size:12px;font-weight:700;fill:#e0e0e3" transform="translate(8 63)">Other</text></g></g></g><g class="highcharts-axis-labels highcharts-xaxis-labels" data-z-index="7" aria-hidden="true" text-anchor="middle"><text x="75.118" style="color:#e0e0e3;cursor:default;font-size:11px;fill:#e0e0e3" y="384">2010</text><text x="137.471" style="color:#e0e0e3;cursor:default;font-size:11px;fill:#e0e0e3" y="384">2012</text><text x="199.824" style="color:#e0e0e3;cursor:default;font-size:11px;fill:#e0e0e3" y="384">2014</text><text x="262.176" style="color:#e0e0e3;cursor:default;font-size:11px;fill:#e0e0e3" y="384">2016</text><text x="324.529" style="color:#e0e0e3;cursor:default;font-size:11px;fill:#e0e0e3" y="384">2018</text><text x="386.882" style="color:#e0e0e3;cursor:default;font-size:11px;fill:#e0e0e3" y="384">2020</text></g><g class="highcharts-axis-labels highcharts-yaxis-labels" data-z-index="7" aria-hidden="true" text-anchor="end"><text x="57" style="color:#e0e0e3;cursor:default;font-size:11px;fill:#e0e0e3" y="370">0</text><text x="57" style="color:#e0e0e3;cursor:default;font-size:11px;fill:#e0e0e3" y="300">50k</text><text x="57" style="color:#e0e0e3;cursor:default;font-size:11px;fill:#e0e0e3" y="229">100k</text><text x="57" style="color:#e0e0e3;cursor:default;font-size:11px;fill:#e0e0e3" y="159">150k</text><text x="57" style="color:#e0e0e3;cursor:default;font-size:11px;fill:#e0e0e3" y="89">200k</text></g></svg>