<svg class="highcharts-root" style="font-family:&quot;Unica One&quot;,sans-serif;font-size:12px" xmlns="http://www.w3.org/2000/svg" width="600" height="400" aria-label="Interactive chart" aria-hidden="false"><defs aria-hidden="true"><linearGradient x1="0" y1="0" x2="1" y2="1" id="a"><stop offset="0" stop-color="#2a2a2b"/><stop offset="1" stop-color="#3e3e40"/></linearGradient><clipPath id="b"><path fill="none" d="M0 0h526v266H0z"/></clipPath></defs><rect fill="url(#a)" class="highcharts-background" width="600" height="400" rx="0" ry="0" aria-hidden="true"/><path fill="none" class="highcharts-plot-background" aria-hidden="true" d="M64 61h526v266H64z"/><g class="highcharts-grid highcharts-xaxis-grid" data-z-index="1" aria-hidden="true" fill="none"><path data-z-index="1" class="highcharts-grid-line" d="M107.5 61v266m44-266v266m43-266v266m44-266v266m44-266v266m44-266v266m44-266v266m44-266v266m43-266v266m44-266v266m44-266v266m44-266v266M63.5 61v266"/></g><g class="highcharts-grid highcharts-yaxis-grid" data-z-index="1" aria-hidden="true" fill="none" stroke="#707073"><path data-z-index="1" class="highcharts-grid-line" d="M64 327.5h526m-526-44h526m-526-45h526m-526-44h526m-526-44h526m-526-45h526m-526-45h526"/></g><path fill="none" class="highcharts-plot-border" data-z-index="1" aria-hidden="true" d="M64 61h526v266H64z"/><g class="highcharts-axis highcharts-xaxis" data-z-index="2" aria-hidden="true"><path fill="none" class="highcharts-axis-line" stroke="#707073" data-z-index="7" d="M64 327.5h526"/></g><g class="highcharts-axis highcharts-yaxis" data-z-index="2" aria-hidden="true"><path fill="none" class="highcharts-tick" stroke="#707073" d="M64 327.5H54m10-44H54m10-45H54m10-44H54m10-44H54m10-45H54m10-45H54"/><text x="23.102" data-z-index="7" text-anchor="middle" transform="rotate(-90 23.102 194)" class="highcharts-axis-title" style="color:#a0a0a3;fill:#a0a0a3" y="194">Temperature (°C)</text><path fill="none" class="highcharts-axis-line" data-z-index="7" d="M64 61v266"/></g><g class="highcharts-series-group" data-z-index="3" aria-hidden="false"><g class="highcharts-series highcharts-series-0 highcharts-line-series highcharts-color-0" data-z-index=".1" clip-path="url(#b)" aria-hidden="true" transform="translate(64 61)"><path fill="none" d="m21.917 150.733 43.833-9.753 43.833-21.723 43.834-21.28 43.833-19.064 43.833-18.62 43.834-15.073 43.833 6.207 43.833 12.856 43.834 27.93 43.833 31.92 43.833 18.62" class="highcharts-graph" data-z-index="1" stroke="#2b908f" stroke-width="2" stroke-linejoin="round" stroke-linecap="round"/></g><g class="highcharts-markers highcharts-series-0 highcharts-line-series highcharts-color-0" data-z-index=".1" aria-hidden="false" tabindex="-1" aria-label="Reggane, line 1 of 2 with 12 data points." style="outline:0" fill="#2b908f"><path d="M21 154.733a4 4 0 1 1 .004 0Z" class="highcharts-point highcharts-color-0" tabindex="-1" aria-label="Jan, 16. Reggane." style="outline:0" transform="translate(64 61)"/><path d="M65 144.98a4 4 0 1 1 .004 0Z" class="highcharts-point highcharts-color-0" tabindex="-1" aria-label="Feb, 18.2. Reggane." style="outline:0" transform="translate(64 61)"/><path d="M109 123.257a4 4 0 1 1 .004 0Z" class="highcharts-point highcharts-color-0" tabindex="-1" aria-label="Mar, 23.1. Reggane." style="outline:0" transform="translate(64 61)"/><path d="M153 101.977a4 4 0 1 1 .004 0Z" class="highcharts-point highcharts-color-0" tabindex="-1" aria-label="Apr, 27.9. Reggane." style="outline:0" transform="translate(64 61)"/><path d="M197 82.913a4 4 0 1 1 .004 0Z" class="highcharts-point highcharts-color-0" tabindex="-1" aria-label="May, 32.2. Reggane." style="outline:0" transform="translate(64 61)"/><path d="M241 64.293a4 4 0 1 1 .004 0Z" class="highcharts-point highcharts-color-0" tabindex="-1" aria-label="Jun, 36.4. Reggane." style="outline:0" transform="translate(64 61)"/><path d="M284 49.22a4 4 0 1 1 .004 0Z" class="highcharts-point highcharts-color-0" tabindex="-1" aria-label="Jul, 39.8. Reggane." style="outline:0" transform="translate(64 61)"/><path d="M328 55.427a4 4 0 1 1 .004 0Z" class="highcharts-point highcharts-color-0" tabindex="-1" aria-label="Aug, 38.4. Reggane." style="outline:0" transform="translate(64 61)"/><path d="M372 68.283a4 4 0 1 1 .004 0Z" class="highcharts-point highcharts-color-0" tabindex="-1" aria-label="Sep, 35.5. Reggane." style="outline:0" transform="translate(64 61)"/><path d="M416 96.213a4 4 0 1 1 .004 0Z" class="highcharts-point highcharts-color-0" tabindex="-1" aria-label="Oct, 29.2. Reggane." style="outline:0" transform="translate(64 61)"/><path d="M460 128.133a4 4 0 1 1 .004 0Z" class="highcharts-point highcharts-color-0" tabindex="-1" aria-label="Nov, 22. Reggane." style="outline:0" transform="translate(64 61)"/><path d="M504 146.753a4 4 0 1 1 .004 0Z" class="highcharts-point highcharts-color-0" tabindex="-1" aria-label="Dec, 17.8. Reggane." style="outline:0" transform="translate(64 61)"/></g><g class="highcharts-series highcharts-series-1 highcharts-line-series highcharts-color-1" data-z-index=".1" clip-path="url(#b)" aria-hidden="true" transform="translate(64 61)"><path fill="none" d="m21.917 234.523 43.833 3.104 43.833-13.3 43.834-23.94 43.833-23.94 43.833-19.064 43.834-13.743 43.833 4.877 43.833 19.95 43.834 24.383 43.833 19.95 43.833 12.857" class="highcharts-graph" data-z-index="1" stroke="#90ee7e" stroke-width="2" stroke-linejoin="round" stroke-linecap="round"/></g><g class="highcharts-markers highcharts-series-1 highcharts-line-series highcharts-color-1" data-z-index=".1" aria-hidden="false" tabindex="-1" aria-label="Tallinn, line 2 of 2 with 12 data points." style="outline:0" fill="#90ee7e"><path d="m21 230.523 4 4-4 4-4-4Z" class="highcharts-point highcharts-negative highcharts-color-1" tabindex="-1" aria-label="Jan, -2.9. Tallinn." style="outline:0" transform="translate(64 61)"/><path d="m65 233.627 4 4-4 4-4-4Z" class="highcharts-point highcharts-negative highcharts-color-1" tabindex="-1" aria-label="Feb, -3.6. Tallinn." style="outline:0" transform="translate(64 61)"/><path d="m109 220.327 4 4-4 4-4-4Z" class="highcharts-point highcharts-negative highcharts-color-1" tabindex="-1" aria-label="Mar, -0.6. Tallinn." style="outline:0" transform="translate(64 61)"/><path d="m153 196.387 4 4-4 4-4-4Z" class="highcharts-point highcharts-color-1" tabindex="-1" aria-label="Apr, 4.8. Tallinn." style="outline:0" transform="translate(64 61)"/><path d="m197 172.447 4 4-4 4-4-4Z" class="highcharts-point highcharts-color-1" tabindex="-1" aria-label="May, 10.2. Tallinn." style="outline:0" transform="translate(64 61)"/><path d="m241 153.383 4 4-4 4-4-4Z" class="highcharts-point highcharts-color-1" tabindex="-1" aria-label="Jun, 14.5. Tallinn." style="outline:0" transform="translate(64 61)"/><path d="m284 139.64 4 4-4 4-4-4Z" class="highcharts-point highcharts-color-1" tabindex="-1" aria-label="Jul, 17.6. Tallinn." style="outline:0" transform="translate(64 61)"/><path d="m328 144.517 4 4-4 4-4-4Z" class="highcharts-point highcharts-color-1" tabindex="-1" aria-label="Aug, 16.5. Tallinn." style="outline:0" transform="translate(64 61)"/><path d="m372 164.467 4 4-4 4-4-4Z" class="highcharts-point highcharts-color-1" tabindex="-1" aria-label="Sep, 12. Tallinn." style="outline:0" transform="translate(64 61)"/><path d="m416 188.85 4 4-4 4-4-4Z" class="highcharts-point highcharts-color-1" tabindex="-1" aria-label="Oct, 6.5. Tallinn." style="outline:0" transform="translate(64 61)"/><path d="m460 208.8 4 4-4 4-4-4Z" class="highcharts-point highcharts-color-1" tabindex="-1" aria-label="Nov, 2. Tallinn." style="outline:0" transform="translate(64 61)"/><path d="m504 221.657 4 4-4 4-4-4Z" class="highcharts-point highcharts-negative highcharts-color-1" tabindex="-1" aria-label="Dec, -0.9. Tallinn." style="outline:0" transform="translate(64 61)"/></g></g><text x="300" text-anchor="middle" class="highcharts-title" data-z-index="4" style="color:#e0e0e3;font-size:20px;text-transform:uppercase;fill:#e0e0e3" y="25" aria-hidden="true">Monthly Average Temperature</text><text x="300" text-anchor="middle" class="highcharts-subtitle" data-z-index="4" style="color:#e0e0e3;text-transform:uppercase;fill:#e0e0e3" y="46" aria-hidden="true">Source: <a target="_blank"><tspan>Wikipedia.com</tspan></a></text><g class="highcharts-data-labels highcharts-series-0 highcharts-line-series highcharts-color-0" data-z-index="6" aria-hidden="true"><text x="5" data-z-index="1" y="18" style="color:#f0f0f3;font-size:13px;font-weight:700;fill:#f0f0f3" transform="translate(74 187)" class="highcharts-label highcharts-data-label highcharts-data-label-color-0"><tspan class="highcharts-text-outline" fill="#000" stroke="#000" stroke-width="2" stroke-linejoin="round">16<tspan x="5" dy="0">​</tspan></tspan>16</text><text x="5" data-z-index="1" y="18" style="color:#f0f0f3;font-size:13px;font-weight:700;fill:#f0f0f3" transform="translate(112 177)" class="highcharts-label highcharts-data-label highcharts-data-label-color-0"><tspan class="highcharts-text-outline" fill="#000" stroke="#000" stroke-width="2" stroke-linejoin="round">18.2<tspan x="5" dy="0">​</tspan></tspan>18.2</text><text x="5" data-z-index="1" y="18" style="color:#f0f0f3;font-size:13px;font-weight:700;fill:#f0f0f3" transform="translate(156 155)" class="highcharts-label highcharts-data-label highcharts-data-label-color-0"><tspan class="highcharts-text-outline" fill="#000" stroke="#000" stroke-width="2" stroke-linejoin="round">23.1<tspan x="5" dy="0">​</tspan></tspan>23.1</text><text x="5" data-z-index="1" y="18" style="color:#f0f0f3;font-size:13px;font-weight:700;fill:#f0f0f3" transform="translate(200 134)" class="highcharts-label highcharts-data-label highcharts-data-label-color-0"><tspan class="highcharts-text-outline" fill="#000" stroke="#000" stroke-width="2" stroke-linejoin="round">27.9<tspan x="5" dy="0">​</tspan></tspan>27.9</text><text x="5" data-z-index="1" y="18" style="color:#f0f0f3;font-size:13px;font-weight:700;fill:#f0f0f3" transform="translate(244 115)" class="highcharts-label highcharts-data-label highcharts-data-label-color-0"><tspan class="highcharts-text-outline" fill="#000" stroke="#000" stroke-width="2" stroke-linejoin="round">32.2<tspan x="5" dy="0">​</tspan></tspan>32.2</text><text x="5" data-z-index="1" y="18" style="color:#f0f0f3;font-size:13px;font-weight:700;fill:#f0f0f3" transform="translate(287 96)" class="highcharts-label highcharts-data-label highcharts-data-label-color-0"><tspan class="highcharts-text-outline" fill="#000" stroke="#000" stroke-width="2" stroke-linejoin="round">36.4<tspan x="5" dy="0">​</tspan></tspan>36.4</text><text x="5" data-z-index="1" y="18" style="color:#f0f0f3;font-size:13px;font-weight:700;fill:#f0f0f3" transform="translate(331 81)" class="highcharts-label highcharts-data-label highcharts-data-label-color-0"><tspan class="highcharts-text-outline" fill="#000" stroke="#000" stroke-width="2" stroke-linejoin="round">39.8<tspan x="5" dy="0">​</tspan></tspan>39.8</text><text x="5" data-z-index="1" y="18" style="color:#f0f0f3;font-size:13px;font-weight:700;fill:#f0f0f3" transform="translate(375 87)" class="highcharts-label highcharts-data-label highcharts-data-label-color-0"><tspan class="highcharts-text-outline" fill="#000" stroke="#000" stroke-width="2" stroke-linejoin="round">38.4<tspan x="5" dy="0">​</tspan></tspan>38.4</text><text x="5" data-z-index="1" y="18" style="color:#f0f0f3;font-size:13px;font-weight:700;fill:#f0f0f3" transform="translate(419 100)" class="highcharts-label highcharts-data-label highcharts-data-label-color-0"><tspan class="highcharts-text-outline" fill="#000" stroke="#000" stroke-width="2" stroke-linejoin="round">35.5<tspan x="5" dy="0">​</tspan></tspan>35.5</text><text x="5" data-z-index="1" y="18" style="color:#f0f0f3;font-size:13px;font-weight:700;fill:#f0f0f3" transform="translate(463 128)" class="highcharts-label highcharts-data-label highcharts-data-label-color-0"><tspan class="highcharts-text-outline" fill="#000" stroke="#000" stroke-width="2" stroke-linejoin="round">29.2<tspan x="5" dy="0">​</tspan></tspan>29.2</text><text x="5" data-z-index="1" y="18" style="color:#f0f0f3;font-size:13px;font-weight:700;fill:#f0f0f3" transform="translate(512 160)" class="highcharts-label highcharts-data-label highcharts-data-label-color-0"><tspan class="highcharts-text-outline" fill="#000" stroke="#000" stroke-width="2" stroke-linejoin="round">22<tspan x="5" dy="0">​</tspan></tspan>22</text><text x="5" data-z-index="1" y="18" style="color:#f0f0f3;font-size:13px;font-weight:700;fill:#f0f0f3" transform="translate(550 179)" class="highcharts-label highcharts-data-label highcharts-data-label-color-0"><tspan class="highcharts-text-outline" fill="#000" stroke="#000" stroke-width="2" stroke-linejoin="round">17.8<tspan x="5" dy="0">​</tspan></tspan>17.8</text></g><g class="highcharts-data-labels highcharts-series-1 highcharts-line-series highcharts-color-1" data-z-index="6" aria-hidden="true"><text x="5" data-z-index="1" y="18" style="color:#f0f0f3;font-size:13px;font-weight:700;fill:#f0f0f3" transform="translate(70 271)" class="highcharts-label highcharts-data-label highcharts-data-label-color-1"><tspan class="highcharts-text-outline" fill="#000" stroke="#000" stroke-width="2" stroke-linejoin="round">-2.9<tspan x="5" dy="0">​</tspan></tspan>-2.9</text><text x="5" data-z-index="1" y="18" style="color:#f0f0f3;font-size:13px;font-weight:700;fill:#f0f0f3" transform="translate(114 274)" class="highcharts-label highcharts-data-label highcharts-data-label-color-1"><tspan class="highcharts-text-outline" fill="#000" stroke="#000" stroke-width="2" stroke-linejoin="round">-3.6<tspan x="5" dy="0">​</tspan></tspan>-3.6</text><text x="5" data-z-index="1" y="18" style="color:#f0f0f3;font-size:13px;font-weight:700;fill:#f0f0f3" transform="translate(157 260)" class="highcharts-label highcharts-data-label highcharts-data-label-color-1"><tspan class="highcharts-text-outline" fill="#000" stroke="#000" stroke-width="2" stroke-linejoin="round">-0.6<tspan x="5" dy="0">​</tspan></tspan>-0.6</text><text x="5" data-z-index="1" y="18" style="color:#f0f0f3;font-size:13px;font-weight:700;fill:#f0f0f3" transform="translate(203 236)" class="highcharts-label highcharts-data-label highcharts-data-label-color-1"><tspan class="highcharts-text-outline" fill="#000" stroke="#000" stroke-width="2" stroke-linejoin="round">4.8<tspan x="5" dy="0">​</tspan></tspan>4.8</text><text x="5" data-z-index="1" y="18" style="color:#f0f0f3;font-size:13px;font-weight:700;fill:#f0f0f3" transform="translate(244 212)" class="highcharts-label highcharts-data-label highcharts-data-label-color-1"><tspan class="highcharts-text-outline" fill="#000" stroke="#000" stroke-width="2" stroke-linejoin="round">10.2<tspan x="5" dy="0">​</tspan></tspan>10.2</text><text x="5" data-z-index="1" y="18" style="color:#f0f0f3;font-size:13px;font-weight:700;fill:#f0f0f3" transform="translate(287 193)" class="highcharts-label highcharts-data-label highcharts-data-label-color-1"><tspan class="highcharts-text-outline" fill="#000" stroke="#000" stroke-width="2" stroke-linejoin="round">14.5<tspan x="5" dy="0">​</tspan></tspan>14.5</text><text x="5" data-z-index="1" y="18" style="color:#f0f0f3;font-size:13px;font-weight:700;fill:#f0f0f3" transform="translate(331 180)" class="highcharts-label highcharts-data-label highcharts-data-label-color-1"><tspan class="highcharts-text-outline" fill="#000" stroke="#000" stroke-width="2" stroke-linejoin="round">17.6<tspan x="5" dy="0">​</tspan></tspan>17.6</text><text x="5" data-z-index="1" y="18" style="color:#f0f0f3;font-size:13px;font-weight:700;fill:#f0f0f3" transform="translate(375 185)" class="highcharts-label highcharts-data-label highcharts-data-label-color-1"><tspan class="highcharts-text-outline" fill="#000" stroke="#000" stroke-width="2" stroke-linejoin="round">16.5<tspan x="5" dy="0">​</tspan></tspan>16.5</text><text x="5" data-z-index="1" y="18" style="color:#f0f0f3;font-size:13px;font-weight:700;fill:#f0f0f3" transform="translate(424 204)" class="highcharts-label highcharts-data-label highcharts-data-label-color-1"><tspan class="highcharts-text-outline" fill="#000" stroke="#000" stroke-width="2" stroke-linejoin="round">12<tspan x="5" dy="0">​</tspan></tspan>12</text><text x="5" data-z-index="1" y="18" style="color:#f0f0f3;font-size:13px;font-weight:700;fill:#f0f0f3" transform="translate(466 229)" class="highcharts-label highcharts-data-label highcharts-data-label-color-1"><tspan class="highcharts-text-outline" fill="#000" stroke="#000" stroke-width="2" stroke-linejoin="round">6.5<tspan x="5" dy="0">​</tspan></tspan>6.5</text><text x="5" data-z-index="1" y="18" style="color:#f0f0f3;font-size:13px;font-weight:700;fill:#f0f0f3" transform="translate(516 249)" class="highcharts-label highcharts-data-label highcharts-data-label-color-1"><tspan class="highcharts-text-outline" fill="#000" stroke="#000" stroke-width="2" stroke-linejoin="round">2<tspan x="5" dy="0">​</tspan></tspan>2</text><text x="5" data-z-index="1" y="18" style="color:#f0f0f3;font-size:13px;font-weight:700;fill:#f0f0f3" transform="translate(552 262)" class="highcharts-label highcharts-data-label highcharts-data-label-color-1"><tspan class="highcharts-text-outline" fill="#000" stroke="#000" stroke-width="2" stroke-linejoin="round">-0.9<tspan x="5" dy="0">​</tspan></tspan>-0.9</text></g><g class="highcharts-legend highcharts-no-tooltip" data-z-index="7" transform="translate(217 359)" aria-hidden="true"><rect fill="rgba(0, 0, 0, 0.5)" class="highcharts-legend-box" rx="0" ry="0" width="166" height="26"/><g data-z-index="1"><g class="highcharts-legend-item highcharts-line-series highcharts-color-0 highcharts-series-0" data-z-index="1"><path fill="none" d="M8 14h16" class="highcharts-graph" stroke-width="2" stroke="#2b908f"/><path fill="#2b908f" d="M16 18a4 4 0 1 1 .004 0Z" class="highcharts-point"/><text x="21" data-z-index="2" y="15" style="color:#e0e0e3;cursor:pointer;font-size:12px;font-weight:700;fill:#e0e0e3" transform="translate(8 3)">Reggane</text></g><g class="highcharts-legend-item highcharts-line-series highcharts-color-1 highcharts-series-1" data-z-index="1"><path fill="none" d="M99.68 14h16" class="highcharts-graph" stroke-width="2" stroke="#90ee7e"/><path fill="#90ee7e" d="m107.68 10 4 4-4 4-4-4Z" class="highcharts-point"/><text x="21" y="15" data-z-index="2" style="color:#e0e0e3;cursor:pointer;font-size:12px;font-weight:700;fill:#e0e0e3" transform="translate(99.68 3)">Tallinn</text></g></g></g><g class="highcharts-axis-labels highcharts-xaxis-labels" data-z-index="7" aria-hidden="true" text-anchor="middle"><text x="85.917" style="color:#e0e0e3;cursor:default;font-size:11px;fill:#e0e0e3" y="346">Jan</text><text x="129.75" style="color:#e0e0e3;cursor:default;font-size:11px;fill:#e0e0e3" y="346">Feb</text><text x="173.583" style="color:#e0e0e3;cursor:default;font-size:11px;fill:#e0e0e3" y="346">Mar</text><text x="217.417" style="color:#e0e0e3;cursor:default;font-size:11px;fill:#e0e0e3" y="346">Apr</text><text x="261.25" style="color:#e0e0e3;cursor:default;font-size:11px;fill:#e0e0e3" y="346">May</text><text x="305.083" style="color:#e0e0e3;cursor:default;font-size:11px;fill:#e0e0e3" y="346">Jun</text><text x="348.917" style="color:#e0e0e3;cursor:default;font-size:11px;fill:#e0e0e3" y="346">Jul</text><text x="392.75" style="color:#e0e0e3;cursor:default;font-size:11px;fill:#e0e0e3" y="346">Aug</text><text x="436.583" style="color:#e0e0e3;cursor:default;font-size:11px;fill:#e0e0e3" y="346">Sep</text><text x="480.417" style="color:#e0e0e3;cursor:default;font-size:11px;fill:#e0e0e3" y="346">Oct</text><text x="524.25" style="color:#e0e0e3;cursor:default;font-size:11px;fill:#e0e0e3" y="346">Nov</text><text x="568.083" style="color:#e0e0e3;cursor:default;font-size:11px;fill:#e0e0e3" y="346">Dec</text></g><g class="highcharts-axis-labels highcharts-yaxis-labels" data-z-index="7" aria-hidden="true" text-anchor="end"><text x="49" style="color:#e0e0e3;cursor:default;font-size:11px;fill:#e0e0e3" y="332">-10</text><text x="49" style="color:#e0e0e3;cursor:default;font-size:11px;fill:#e0e0e3" y="287">0</text><text x="49" style="color:#e0e0e3;cursor:default;font-size:11px;fill:#e0e0e3" y="243">10</text><text x="49" style="color:#e0e0e3;cursor:default;font-size:11px;fill:#e0e0e3" y="199">20</text><text x="49" style="color:#e0e0e3;cursor:default;font-size:11px;fill:#e0e0e3" y="154">30</text><text x="49" style="color:#e0e0e3;cursor:default;font-size:11px;fill:#e0e0e3" y="110">40</text><text x="49" style="color:#e0e0e3;cursor:default;font-size:11px;fill:#e0e0e3" y="66">50</text></g></svg>