<svg class="highcharts-root" style="font-family:&quot;Unica One&quot;,sans-serif;font-size:12px" xmlns="http://www.w3.org/2000/svg" width="600" height="600" aria-label="Interactive chart" aria-hidden="false"><defs aria-hidden="true"><linearGradient x1="0" y1="0" x2="1" y2="1" id="a"><stop offset="0" stop-color="#2a2a2b"/><stop offset="1" stop-color="#3e3e40"/></linearGradient><clipPath id="b"><path fill="none" d="M0 0h580v500H0z"/></clipPath></defs><rect fill="url(#a)" class="highcharts-background" width="600" height="600" rx="0" ry="0" aria-hidden="true"/><path fill="none" class="highcharts-plot-background" aria-hidden="true" d="M10 47h580v500H10z"/><path fill="none" class="highcharts-plot-border" data-z-index="1" aria-hidden="true" d="M10 47h580v500H10z"/><g class="highcharts-series-group" data-z-index="3" aria-hidden="false"><path fill="#91F6F5" d="M397.077 270.248a111.624 111.624 0 1 1 .112 0Z" class="highcharts-parentNode highcharts-series-0 highcharts-packedbubble-series highcharts-color-0 highcharts-tracker" data-z-index=".1" aria-hidden="true"/><path fill="#F6FFE4" d="M460.702 410.302a73.339 73.339 0 1 1 .074 0Z" class="highcharts-parentNode highcharts-series-1 highcharts-packedbubble-series highcharts-color-1 highcharts-tracker" data-z-index=".1" aria-hidden="true"/><path fill="#FFC1C1" d="M300.926 339.817a47.812 47.812 0 1 1 .048 0Z" class="highcharts-parentNode highcharts-series-2 highcharts-packedbubble-series highcharts-color-2 highcharts-tracker" data-z-index=".1" aria-hidden="true"/><path fill="#DDFEFF" d="M330.3 492.966a75.817 75.817 0 1 1 .077 0Z" class="highcharts-parentNode highcharts-series-3 highcharts-packedbubble-series highcharts-color-3 highcharts-tracker" data-z-index=".1" aria-hidden="true"/><path fill="#FFF" d="M183.53 459.647a69.563 69.563 0 1 1 .07 0Z" class="highcharts-parentNode highcharts-series-4 highcharts-packedbubble-series highcharts-color-4 highcharts-tracker" data-z-index=".1" aria-hidden="true"/><path fill="#F6C" d="M146.265 319.53a136.265 136.265 0 1 1 .136 0Z" class="highcharts-parentNode highcharts-series-5 highcharts-packedbubble-series highcharts-color-5 highcharts-tracker" data-z-index=".1" aria-hidden="true"/><g class="highcharts-series highcharts-series-0 highcharts-packedbubble-series highcharts-color-0 highcharts-tracker" data-z-index=".1" clip-path="url(#b)" aria-hidden="false" tabindex="-1" aria-label="Europe, series 1 of 6 with 36 data points." style="outline:0" fill="#2b908f" stroke="#333" fill-opacity=".5" transform="translate(10 47)"><path d="M447.37 178.744a21 21 0 1 1 .021 0Z" class="highcharts-point highcharts-color-0" tabindex="-1" aria-label="Germany, value: 767.1. Europe." style="outline:0"/><path d="M362.322 177.162a7.5 7.5 0 1 1 .007 0Z" class="highcharts-point highcharts-color-0" tabindex="-1" aria-label="Croatia, value: 20.7. Europe." style="outline:0"/><path d="M332.775 152.695a10.5 10.5 0 1 1 .01 0Z" class="highcharts-point highcharts-color-0" tabindex="-1" aria-label="Belgium, value: 97.2. Europe." style="outline:0"/><path d="M322.26 129.287a11 11 0 1 1 .012 0Z" class="highcharts-point highcharts-color-0" tabindex="-1" aria-label="Czech Republic, value: 111.7. Europe." style="outline:0"/><path d="M344.786 73.215a12 12 0 1 1 .012 0Z" class="highcharts-point highcharts-color-0" tabindex="-1" aria-label="Netherlands, value: 158.1. Europe." style="outline:0"/><path d="M408.23 62.086a14 14 0 1 1 .015 0Z" class="highcharts-point highcharts-color-0" tabindex="-1" aria-label="Spain, value: 241.6. Europe." style="outline:0"/><path d="M452.4 106.4a14 14 0 1 1 .014 0Z" class="highcharts-point highcharts-color-0" tabindex="-1" aria-label="Ukraine, value: 249.1. Europe." style="outline:0"/><path d="M399.972 203.065a15 15 0 1 1 .015 0Z" class="highcharts-point highcharts-color-0" tabindex="-1" aria-label="Poland, value: 298.1. Europe." style="outline:0"/><path d="M386.062 171.406a15.5 15.5 0 1 1 .015 0Z" class="highcharts-point highcharts-color-0" tabindex="-1" aria-label="France, value: 323.7. Europe." style="outline:0"/><path d="M357.26 157.974a10 10 0 1 1 .01 0Z" class="highcharts-point highcharts-color-0" tabindex="-1" aria-label="Romania, value: 78.3. Europe." style="outline:0"/><path d="M320.807 102.39a17 17 0 1 1 .017 0Z" class="highcharts-point highcharts-color-0" tabindex="-1" aria-label="United Kingdom, value: 415.4. Europe." style="outline:0"/><path d="M373.327 61.097a16 16 0 1 1 .016 0Z" class="highcharts-point highcharts-color-0" tabindex="-1" aria-label="Turkey, value: 353.2. Europe." style="outline:0"/><path d="M440.354 75.634a15.5 15.5 0 1 1 .016 0Z" class="highcharts-point highcharts-color-0" tabindex="-1" aria-label="Italy, value: 337.6. Europe." style="outline:0"/><path d="M452.764 131.223a10 10 0 1 1 .01 0Z" class="highcharts-point highcharts-color-0" tabindex="-1" aria-label="Greece, value: 71.1. Europe." style="outline:0"/><path d="M411.932 150.84a10 10 0 1 1 .01 0Z" class="highcharts-point highcharts-color-0" tabindex="-1" aria-label="Austria, value: 69.8. Europe." style="outline:0"/><path d="M341.032 174.915a9.5 9.5 0 1 1 .01 0Z" class="highcharts-point highcharts-color-0" tabindex="-1" aria-label="Belarus, value: 67.7. Europe." style="outline:0"/><path d="M344.14 115.891a9.5 9.5 0 1 1 .009 0Z" class="highcharts-point highcharts-color-0" tabindex="-1" aria-label="Serbia, value: 59.3. Europe." style="outline:0"/><path d="M371.172 87.965a9 9 0 1 1 .01 0Z" class="highcharts-point highcharts-color-0" tabindex="-1" aria-label="Finland, value: 54.8. Europe." style="outline:0"/><path d="M390.381 77.887a9 9 0 1 1 .01 0Z" class="highcharts-point highcharts-color-0" tabindex="-1" aria-label="Bulgaria, value: 51.2. Europe." style="outline:0"/><path d="M425.689 93.969a9 9 0 1 1 .009 0Z" class="highcharts-point highcharts-color-0" tabindex="-1" aria-label="Portugal, value: 48.3. Europe." style="outline:0"/><path d="M430.515 136.522a9 9 0 1 1 .009 0Z" class="highcharts-point highcharts-color-0" tabindex="-1" aria-label="Norway, value: 44.4. Europe." style="outline:0"/><path d="M392.753 136.488a9 9 0 1 1 .01 0Z" class="highcharts-point highcharts-color-0" tabindex="-1" aria-label="Sweden, value: 44.3. Europe." style="outline:0"/><path d="M350.643 93.818a8.5 8.5 0 1 1 .009 0Z" class="highcharts-point highcharts-color-0" tabindex="-1" aria-label="Hungary, value: 43.7. Europe." style="outline:0"/><path d="M411.24 126.514a8.5 8.5 0 1 1 .01 0Z" class="highcharts-point highcharts-color-0" tabindex="-1" aria-label="Switzerland, value: 40.2. Europe." style="outline:0"/><path d="M429.15 114.852a8.5 8.5 0 1 1 .008 0Z" class="highcharts-point highcharts-color-0" tabindex="-1" aria-label="Denmark, value: 40. Europe." style="outline:0"/><path d="M372.097 139.792a8.5 8.5 0 1 1 .009 0Z" class="highcharts-point highcharts-color-0" tabindex="-1" aria-label="Slovakia, value: 34.7. Europe." style="outline:0"/><path d="M413.525 171.762a8.5 8.5 0 1 1 .008 0Z" class="highcharts-point highcharts-color-0" tabindex="-1" aria-label="Ireland, value: 34.6. Europe." style="outline:0"/><path d="M364.667 106.164a7.5 7.5 0 1 1 .007 0Z" class="highcharts-point highcharts-color-0" tabindex="-1" aria-label="Croatia, value: 20.7. Europe." style="outline:0"/><path d="M349.73 134.93a7.5 7.5 0 1 1 .008 0Z" class="highcharts-point highcharts-color-0" tabindex="-1" aria-label="Estonia, value: 19.4. Europe." style="outline:0"/><path d="M396.567 95.98a7.5 7.5 0 1 1 .007 0Z" class="highcharts-point highcharts-color-0" tabindex="-1" aria-label="Slovenia, value: 16.7. Europe." style="outline:0"/><path d="M410.953 105.878a7 7 0 1 1 .007 0Z" class="highcharts-point highcharts-color-0" tabindex="-1" aria-label="Lithuania, value: 12.3. Europe." style="outline:0"/><path d="M362.618 122.396a7 7 0 1 1 .007 0Z" class="highcharts-point highcharts-color-0" tabindex="-1" aria-label="Luxembourg, value: 10.4. Europe." style="outline:0"/><path d="M409.062 81.578a6.5 6.5 0 1 1 .007 0Z" class="highcharts-point highcharts-color-0" tabindex="-1" aria-label="Macedonia, value: 9.5. Europe." style="outline:0"/><path d="M395.263 113.735a6.5 6.5 0 1 1 .007 0Z" class="highcharts-point highcharts-color-0" tabindex="-1" aria-label="Moldova, value: 7.8. Europe." style="outline:0"/><path d="M379.285 119.412a6.5 6.5 0 1 1 .007 0Z" class="highcharts-point highcharts-color-0" tabindex="-1" aria-label="Latvia, value: 7.5. Europe." style="outline:0"/><path d="M381.743 102.8a6.5 6.5 0 1 1 .007 0Z" class="highcharts-point highcharts-color-0" tabindex="-1" aria-label="Cyprus, value: 7.2. Europe." style="outline:0"/></g><g class="highcharts-series highcharts-series-1 highcharts-packedbubble-series highcharts-color-1 highcharts-tracker" data-z-index=".1" clip-path="url(#b)" aria-hidden="false" tabindex="-1" aria-label="Africa, series 2 of 6 with 17 data points." style="outline:0" fill="#90ee7e" stroke="#333" fill-opacity=".5" transform="translate(10 47)"><path d="M444.366 332.372a6.5 6.5 0 1 1 .006 0Z" class="highcharts-point highcharts-color-1" tabindex="-1" aria-label="Senegal, value: 8.2. Africa." style="outline:0"/><path d="M460.482 325.447a6.5 6.5 0 1 1 .006 0Z" class="highcharts-point highcharts-color-1" tabindex="-1" aria-label="Cameroon, value: 9.2. Africa." style="outline:0"/><path d="M422.497 306.967a7 7 0 1 1 .007 0Z" class="highcharts-point highcharts-color-1" tabindex="-1" aria-label="Zimbabwe, value: 13.1. Africa." style="outline:0"/><path d="M468.753 288.52a7 7 0 1 1 .007 0Z" class="highcharts-point highcharts-color-1" tabindex="-1" aria-label="Ghana, value: 14.1. Africa." style="outline:0"/><path d="M463.274 270.89a7 7 0 1 1 .007 0Z" class="highcharts-point highcharts-color-1" tabindex="-1" aria-label="Kenya, value: 14.1. Africa." style="outline:0"/><path d="M433.736 291.967a7.5 7.5 0 1 1 .008 0Z" class="highcharts-point highcharts-color-1" tabindex="-1" aria-label="Sudan, value: 17.3. Africa." style="outline:0"/><path d="M484.354 301.597a8 8 0 1 1 .008 0Z" class="highcharts-point highcharts-color-1" tabindex="-1" aria-label="Tunisia, value: 24.3. Africa." style="outline:0"/><path d="M464.68 308.398a8 8 0 1 1 .009 0Z" class="highcharts-point highcharts-color-1" tabindex="-1" aria-label="Angola, value: 25. Africa." style="outline:0"/><path d="M480.478 324.11a9 9 0 1 1 .01 0Z" class="highcharts-point highcharts-color-1" tabindex="-1" aria-label="Libya, value: 50.6. Africa." style="outline:0"/><path d="M415.015 289.988a6.5 6.5 0 1 1 .007 0Z" class="highcharts-point highcharts-color-1" tabindex="-1" aria-label="Ivory Coast, value: 7.3. Africa." style="outline:0"/><path d="M442.977 314.657a9.5 9.5 0 1 1 .01 0Z" class="highcharts-point highcharts-color-1" tabindex="-1" aria-label="Morocco, value: 60.7. Africa." style="outline:0"/><path d="M451.79 293.185a6.5 6.5 0 1 1 .007 0Z" class="highcharts-point highcharts-color-1" tabindex="-1" aria-label="Ethiopia, value: 8.9. Africa." style="outline:0"/><path d="M446.04 276.7a6.5 6.5 0 1 1 .006 0Z" class="highcharts-point highcharts-color-1" tabindex="-1" aria-label="United Republic of Tanzania, value: 9.1. Africa." style="outline:0"/><path d="M447.519 258.778a10.5 10.5 0 1 1 .01 0Z" class="highcharts-point highcharts-color-1" tabindex="-1" aria-label="Nigeria, value: 93.9. Africa." style="outline:0"/><path d="M491.664 281.54a16.5 16.5 0 1 1 .017 0Z" class="highcharts-point highcharts-color-1" tabindex="-1" aria-label="South Africa, value: 392.7. Africa." style="outline:0"/><path d="M419.596 338.38a13.5 13.5 0 1 1 .014 0Z" class="highcharts-point highcharts-color-1" tabindex="-1" aria-label="Egypt, value: 225.1. Africa." style="outline:0"/><path d="M424.075 274.1a12 12 0 1 1 .012 0Z" class="highcharts-point highcharts-color-1" tabindex="-1" aria-label="Algeria, value: 141.5. Africa." style="outline:0"/></g><g class="highcharts-series highcharts-series-2 highcharts-packedbubble-series highcharts-color-2 highcharts-tracker" data-z-index=".1" clip-path="url(#b)" aria-hidden="false" tabindex="-1" aria-label="Oceania, series 3 of 6 with 3 data points." style="outline:0" fill="#f45b5b" stroke="#333" fill-opacity=".5" transform="translate(10 47)"><path d="M301.183 246.57a16.5 16.5 0 1 1 .017 0Z" class="highcharts-point highcharts-color-2" tabindex="-1" aria-label="Australia, value: 409.4. Oceania." style="outline:0"/><path d="M277.004 256.292a8.5 8.5 0 1 1 .008 0Z" class="highcharts-point highcharts-color-2" tabindex="-1" aria-label="New Zealand, value: 34.1. Oceania." style="outline:0"/><path d="M294.552 263.723a6.5 6.5 0 1 1 .006 0Z" class="highcharts-point highcharts-color-2" tabindex="-1" aria-label="Papua New Guinea, value: 7.1. Oceania." style="outline:0"/></g><g class="highcharts-series highcharts-series-3 highcharts-packedbubble-series highcharts-color-3 highcharts-tracker" data-z-index=".1" clip-path="url(#b)" aria-hidden="false" tabindex="-1" aria-label="North America, series 4 of 6 with 10 data points." style="outline:0" fill="#7798BF" stroke="#333" fill-opacity=".5" transform="translate(10 47)"><path d="M329.239 379.834a6.5 6.5 0 1 1 .006 0Z" class="highcharts-point highcharts-color-3" tabindex="-1" aria-label="Costa Rica, value: 7.6. North America." style="outline:0"/><path d="M330.673 354.238a6.5 6.5 0 1 1 .007 0Z" class="highcharts-point highcharts-color-3" tabindex="-1" aria-label="Honduras, value: 8.4. North America." style="outline:0"/><path d="M311.901 383.467a6.5 6.5 0 1 1 .007 0Z" class="highcharts-point highcharts-color-3" tabindex="-1" aria-label="Jamaica, value: 8.3. North America." style="outline:0"/><path d="M323.713 396.764a6.5 6.5 0 1 1 .006 0Z" class="highcharts-point highcharts-color-3" tabindex="-1" aria-label="Panama, value: 10.2. North America." style="outline:0"/><path d="M317.208 366.998a7 7 0 1 1 .007 0Z" class="highcharts-point highcharts-color-3" tabindex="-1" aria-label="Guatemala, value: 12. North America." style="outline:0"/><path d="M343.69 368.904a7.5 7.5 0 1 1 .007 0Z" class="highcharts-point highcharts-color-3" tabindex="-1" aria-label="Dominican Republic, value: 23.4. North America." style="outline:0"/><path d="M297.713 371.872a8 8 0 1 1 .008 0Z" class="highcharts-point highcharts-color-3" tabindex="-1" aria-label="Cuba, value: 30.2. North America." style="outline:0"/><path d="M292.36 429.257a23.5 23.5 0 1 1 .023 0Z" class="highcharts-point highcharts-color-3" tabindex="-1" aria-label="USA, value: 5,334.5. North America." style="outline:0"/><path d="M303.587 351.418a19 19 0 1 1 .02 0Z" class="highcharts-point highcharts-color-3" tabindex="-1" aria-label="Canada, value: 566. North America." style="outline:0"/><path d="M352.67 407.54a17.5 17.5 0 1 1 .018 0Z" class="highcharts-point highcharts-color-3" tabindex="-1" aria-label="Mexico, value: 456.3. North America." style="outline:0"/></g><g class="highcharts-series highcharts-series-4 highcharts-packedbubble-series highcharts-color-4 highcharts-tracker" data-z-index=".1" clip-path="url(#b)" aria-hidden="false" tabindex="-1" aria-label="South America, series 5 of 6 with 11 data points." style="outline:0" fill="#aee" stroke="#333" fill-opacity=".5" transform="translate(10 47)"><path d="M185.166 381.504a6.5 6.5 0 1 1 .006 0Z" class="highcharts-point highcharts-color-4" tabindex="-1" aria-label="El Salvador, value: 7.2. South America." style="outline:0"/><path d="M169.648 372.77a6.5 6.5 0 1 1 .006 0Z" class="highcharts-point highcharts-color-4" tabindex="-1" aria-label="Uruguay, value: 8.1. South America." style="outline:0"/><path d="M150.717 373.602a7.5 7.5 0 1 1 .007 0Z" class="highcharts-point highcharts-color-4" tabindex="-1" aria-label="Bolivia, value: 17.8. South America." style="outline:0"/><path d="M152.184 333.896a8.5 8.5 0 1 1 .008 0Z" class="highcharts-point highcharts-color-4" tabindex="-1" aria-label="Trinidad and Tobago, value: 34. South America." style="outline:0"/><path d="M138.718 351.269a8.5 8.5 0 1 1 .008 0Z" class="highcharts-point highcharts-color-4" tabindex="-1" aria-label="Ecuador, value: 43. South America." style="outline:0"/><path d="M161.377 356.722a10 10 0 1 1 .01 0Z" class="highcharts-point highcharts-color-4" tabindex="-1" aria-label="Chile, value: 78.6. South America." style="outline:0"/><path d="M215.105 360.796a9 9 0 1 1 .009 0Z" class="highcharts-point highcharts-color-4" tabindex="-1" aria-label="Peru, value: 52. South America." style="outline:0"/><path d="M175.537 336.669a10 10 0 1 1 .01 0Z" class="highcharts-point highcharts-color-4" tabindex="-1" aria-label="Colombia, value: 74.1. South America." style="outline:0"/><path d="M207.781 338.64a18 18 0 1 1 .018 0Z" class="highcharts-point highcharts-color-4" tabindex="-1" aria-label="Brazil, value: 501.1. South America." style="outline:0"/><path d="M188.572 363.95a13 13 0 1 1 .013 0Z" class="highcharts-point highcharts-color-4" tabindex="-1" aria-label="Argentina, value: 199. South America." style="outline:0"/><path d="M163.812 314.642a13 13 0 1 1 .013 0Z" class="highcharts-point highcharts-color-4" tabindex="-1" aria-label="Venezuela, value: 195.2. South America." style="outline:0"/></g><g class="highcharts-series highcharts-series-5 highcharts-packedbubble-series highcharts-color-5 highcharts-tracker" data-z-index=".1" clip-path="url(#b)" aria-hidden="false" tabindex="-1" aria-label="Asia, series 6 of 6 with 40 data points." style="outline:0" fill="#f06" stroke="#333" fill-opacity=".5" transform="translate(10 47)"><path d="M111.908 97.067a6.5 6.5 0 1 1 .007 0Z" class="highcharts-point highcharts-color-5" tabindex="-1" aria-label="Nepal, value: 6.5. Asia." style="outline:0"/><path d="M133.717 205.452a6.5 6.5 0 1 1 .006 0Z" class="highcharts-point highcharts-color-5" tabindex="-1" aria-label="Georgia, value: 6.5. Asia." style="outline:0"/><path d="M134.422 174.18a6.5 6.5 0 1 1 .007 0Z" class="highcharts-point highcharts-color-5" tabindex="-1" aria-label="Brunei Darussalam, value: 7.4. Asia." style="outline:0"/><path d="M119.978 166.825a6.5 6.5 0 1 1 .006 0Z" class="highcharts-point highcharts-color-5" tabindex="-1" aria-label="Kyrgyzstan, value: 7.4. Asia." style="outline:0"/><path d="M111.397 132.533a6.5 6.5 0 1 1 .006 0Z" class="highcharts-point highcharts-color-5" tabindex="-1" aria-label="Afghanistan, value: 7.9. Asia." style="outline:0"/><path d="M149.704 166.559a6.5 6.5 0 1 1 .007 0Z" class="highcharts-point highcharts-color-5" tabindex="-1" aria-label="Myanmar, value: 9.1. Asia." style="outline:0"/><path d="M150.03 149.217a7 7 0 1 1 .006 0Z" class="highcharts-point highcharts-color-5" tabindex="-1" aria-label="Mongolia, value: 14.7. Asia." style="outline:0"/><path d="M162.566 181.465a7.5 7.5 0 1 1 .008 0Z" class="highcharts-point highcharts-color-5" tabindex="-1" aria-label="Sri Lanka, value: 16.6. Asia." style="outline:0"/><path d="M133.898 157.189a7.5 7.5 0 1 1 .008 0Z" class="highcharts-point highcharts-color-5" tabindex="-1" aria-label="Bahrain, value: 20.5. Asia." style="outline:0"/><path d="M114.5 151.472a7.5 7.5 0 1 1 .008 0Z" class="highcharts-point highcharts-color-5" tabindex="-1" aria-label="Yemen, value: 22.6. Asia." style="outline:0"/><path d="M128.307 139.502a7.5 7.5 0 1 1 .008 0Z" class="highcharts-point highcharts-color-5" tabindex="-1" aria-label="Jordan, value: 22.3. Asia." style="outline:0"/><path d="M144.817 107.972a7.5 7.5 0 1 1 .007 0Z" class="highcharts-point highcharts-color-5" tabindex="-1" aria-label="Lebanon, value: 21.1. Asia." style="outline:0"/><path d="M164.497 137.355a8 8 0 1 1 .008 0Z" class="highcharts-point highcharts-color-5" tabindex="-1" aria-label="Azerbaijan, value: 31.7. Asia." style="outline:0"/><path d="M217.46 173.073a9 9 0 1 1 .01 0Z" class="highcharts-point highcharts-color-5" tabindex="-1" aria-label="Singapore, value: 47.8. Asia." style="outline:0"/><path d="M144.68 191.683a9 9 0 1 1 .01 0Z" class="highcharts-point highcharts-color-5" tabindex="-1" aria-label="Hong Kong, value: 49.9. Asia." style="outline:0"/><path d="M76.641 162.554a9 9 0 1 1 .009 0Z" class="highcharts-point highcharts-color-5" tabindex="-1" aria-label="Syria, value: 52.7. Asia." style="outline:0"/><path d="M72.315 134.444a9.5 9.5 0 1 1 .01 0Z" class="highcharts-point highcharts-color-5" tabindex="-1" aria-label="DPR Korea, value: 59.9. Asia." style="outline:0"/><path d="M131.172 93.772a9.5 9.5 0 1 1 .009 0Z" class="highcharts-point highcharts-color-5" tabindex="-1" aria-label="Israel, value: 64.8. Asia." style="outline:0"/><path d="M155.35 92.264a10 10 0 1 1 .01 0Z" class="highcharts-point highcharts-color-5" tabindex="-1" aria-label="Turkmenistan, value: 70.6. Asia." style="outline:0"/><path d="M198.919 159.982a10 10 0 1 1 .01 0Z" class="highcharts-point highcharts-color-5" tabindex="-1" aria-label="Oman, value: 74.3. Asia." style="outline:0"/><path d="M146.123 131.534a10.5 10.5 0 1 1 .01 0Z" class="highcharts-point highcharts-color-5" tabindex="-1" aria-label="Qatar, value: 88.8. Asia." style="outline:0"/><path d="M99.264 171.331a10.5 10.5 0 1 1 .01 0Z" class="highcharts-point highcharts-color-5" tabindex="-1" aria-label="Philippines, value: 96.9. Asia." style="outline:0"/><path d="M93.481 147.32a10.5 10.5 0 1 1 .01 0Z" class="highcharts-point highcharts-color-5" tabindex="-1" aria-label="Kuwait, value: 98.6. Asia." style="outline:0"/><path d="M124.112 120.299a11.5 11.5 0 1 1 .012 0Z" class="highcharts-point highcharts-color-5" tabindex="-1" aria-label="Uzbekistan, value: 122.6. Asia." style="outline:0"/><path d="M168.22 117.277a12 12 0 1 1 .013 0Z" class="highcharts-point highcharts-color-5" tabindex="-1" aria-label="Iraq, value: 139.9. Asia." style="outline:0"/><path d="M187.824 138.09a12 12 0 1 1 .012 0Z" class="highcharts-point highcharts-color-5" tabindex="-1" aria-label="Pakistan, value: 158.1. Asia." style="outline:0"/><path d="M172.397 164.836a13 13 0 1 1 .013 0Z" class="highcharts-point highcharts-color-5" tabindex="-1" aria-label="Vietnam, value: 190.2. Asia." style="outline:0"/><path d="M115.725 196.157a13 13 0 1 1 .013 0Z" class="highcharts-point highcharts-color-5" tabindex="-1" aria-label="United Arab Emirates, value: 201.1. Asia." style="outline:0"/><path d="M51.61 156.643a13.5 13.5 0 1 1 .013 0Z" class="highcharts-point highcharts-color-5" tabindex="-1" aria-label="Malaysia, value: 227.5. Asia." style="outline:0"/><path d="M94.51 121.986a14 14 0 1 1 .015 0Z" class="highcharts-point highcharts-color-5" tabindex="-1" aria-label="Kazakhstan, value: 236.2. Asia." style="outline:0"/><path d="M140.56 71.634a14.5 14.5 0 1 1 .014 0Z" class="highcharts-point highcharts-color-5" tabindex="-1" aria-label="Thailand, value: 272. Asia." style="outline:0"/><path d="M198.353 111.36a14.5 14.5 0 1 1 .015 0Z" class="highcharts-point highcharts-color-5" tabindex="-1" aria-label="Taiwan, value: 276.7. Asia." style="outline:0"/><path d="M191.437 198.863a17.5 17.5 0 1 1 .018 0Z" class="highcharts-point highcharts-color-5" tabindex="-1" aria-label="Indonesia, value: 453. Asia." style="outline:0"/><path d="M112.214 236.73a18 18 0 1 1 .018 0Z" class="highcharts-point highcharts-color-5" tabindex="-1" aria-label="Saudi Arabia, value: 494.8. Asia." style="outline:0"/><path d="M75.033 214.468a23.5 23.5 0 1 1 .023 0Z" class="highcharts-point highcharts-color-5" tabindex="-1" aria-label="Japan, value: 1,278.9. Asia." style="outline:0"/><path d="M56.228 114.027a23.5 23.5 0 1 1 .024 0Z" class="highcharts-point highcharts-color-5" tabindex="-1" aria-label="China, value: 10,540.8. Asia." style="outline:0"/><path d="M97.636 82.593a23.5 23.5 0 1 1 .023 0Z" class="highcharts-point highcharts-color-5" tabindex="-1" aria-label="India, value: 2,341.9. Asia." style="outline:0"/><path d="M183.613 80.104a23.5 23.5 0 1 1 .023 0Z" class="highcharts-point highcharts-color-5" tabindex="-1" aria-label="Russia, value: 1,766.4. Asia." style="outline:0"/><path d="M223.886 145.776a19.5 19.5 0 1 1 .02 0Z" class="highcharts-point highcharts-color-5" tabindex="-1" aria-label="Iran, value: 618.2. Asia." style="outline:0"/><path d="M162.062 230.505a19.5 19.5 0 1 1 .02 0Z" class="highcharts-point highcharts-color-5" tabindex="-1" aria-label="Korea, value: 610.1. Asia." style="outline:0"/></g></g><text x="300" text-anchor="middle" class="highcharts-title" data-z-index="4" style="color:#e0e0e3;font-size:20px;text-transform:uppercase;fill:#e0e0e3" y="25" aria-hidden="true">Carbon emissions around the world (2014)</text><g class="highcharts-data-labels highcharts-series-0 highcharts-packedbubble-series highcharts-color-0 highcharts-tracker" data-z-index="6" aria-hidden="true"><g style="transition:opacity 2000ms ease 0s"><text data-z-index="1" y="13" style="color:#f0f0f3;font-size:13px;font-weight:400;fill:#f0f0f3" transform="translate(431 198)" class="highcharts-label highcharts-data-label highcharts-data-label-color-0">Germany</text></g><g style="transition:opacity 2000ms ease 0s;pointer-events:auto"><text data-z-index="1" y="13" style="color:#f0f0f3;font-size:13px;font-weight:400;fill:#f0f0f3" transform="translate(390 228)" class="highcharts-label highcharts-data-label highcharts-data-label-color-0">Poland</text></g><g style="transition:opacity 2000ms ease 0s"><text data-z-index="1" y="13" style="color:#f0f0f3;font-size:13px;font-weight:400;fill:#f0f0f3" transform="translate(376 196)" class="highcharts-label highcharts-data-label highcharts-data-label-color-0">France</text></g><g style="transition:opacity 2000ms ease 0s;pointer-events:auto"><text data-z-index="1" y="13" style="color:#f0f0f3;font-size:13px;font-weight:400;fill:#f0f0f3" transform="translate(285 125)" class="highcharts-label highcharts-data-label highcharts-data-label-color-0">United Kingdom</text></g><g style="transition:opacity 2000ms ease 0s"><text data-z-index="1" y="13" style="color:#f0f0f3;font-size:13px;font-weight:400;fill:#f0f0f3" transform="translate(364 85)" class="highcharts-label highcharts-data-label highcharts-data-label-color-0">Turkey</text></g><g style="transition:opacity 2000ms ease 0s;pointer-events:auto"><text data-z-index="1" y="13" style="color:#f0f0f3;font-size:13px;font-weight:400;fill:#f0f0f3" transform="translate(438 100)" class="highcharts-label highcharts-data-label highcharts-data-label-color-0">Italy</text></g></g><g style="transition:opacity 2000ms ease 0s" class="highcharts-data-labels highcharts-series-1 highcharts-packedbubble-series highcharts-color-1 highcharts-tracker" data-z-index="6" aria-hidden="true"><text data-z-index="1" y="13" style="color:#f0f0f3;font-size:13px;font-weight:400;fill:#f0f0f3" transform="translate(467 305)" class="highcharts-label highcharts-data-label highcharts-data-label-color-1">South Africa</text></g><g style="transition:opacity 2000ms ease 0s" class="highcharts-data-labels highcharts-series-2 highcharts-packedbubble-series highcharts-color-2 highcharts-tracker" data-z-index="6" aria-hidden="true"><text data-z-index="1" y="13" style="color:#f0f0f3;font-size:13px;font-weight:400;fill:#f0f0f3" transform="translate(286 270)" class="highcharts-label highcharts-data-label highcharts-data-label-color-2">Australia</text></g><g class="highcharts-data-labels highcharts-series-3 highcharts-packedbubble-series highcharts-color-3 highcharts-tracker" data-z-index="6" aria-hidden="true"><g style="transition:opacity 2000ms ease 0s"><text data-z-index="1" y="13" style="color:#f0f0f3;font-size:13px;font-weight:400;fill:#f0f0f3" transform="translate(289 446)" class="highcharts-label highcharts-data-label highcharts-data-label-color-3">USA</text></g><g style="transition:opacity 2000ms ease 0s;pointer-events:auto"><text data-z-index="1" y="13" style="color:#f0f0f3;font-size:13px;font-weight:400;fill:#f0f0f3" transform="translate(291 372)" class="highcharts-label highcharts-data-label highcharts-data-label-color-3">Canada</text></g><g style="transition:opacity 2000ms ease 0s;pointer-events:auto"><text data-z-index="1" y="13" style="color:#f0f0f3;font-size:13px;font-weight:400;fill:#f0f0f3" transform="translate(342 430)" class="highcharts-label highcharts-data-label highcharts-data-label-color-3">Mexico</text></g></g><g style="transition:opacity 2000ms ease 0s" class="highcharts-data-labels highcharts-series-4 highcharts-packedbubble-series highcharts-color-4 highcharts-tracker" data-z-index="6" aria-hidden="true"><text data-z-index="1" y="13" style="color:#f0f0f3;font-size:13px;font-weight:400;fill:#f0f0f3" transform="translate(202 361)" class="highcharts-label highcharts-data-label highcharts-data-label-color-4">Brazil</text></g><g class="highcharts-data-labels highcharts-series-5 highcharts-packedbubble-series highcharts-color-5 highcharts-tracker" data-z-index="6" aria-hidden="true"><g style="transition:opacity 2000ms ease 0s"><text data-z-index="1" y="13" style="color:#f0f0f3;font-size:13px;font-weight:400;fill:#f0f0f3" transform="translate(126 97)" class="highcharts-label highcharts-data-label highcharts-data-label-color-5">Thailand</text></g><g style="transition:opacity 2000ms ease 0s;pointer-events:auto"><text data-z-index="1" y="13" style="color:#f0f0f3;font-size:13px;font-weight:400;fill:#f0f0f3" transform="translate(188 137)" class="highcharts-label highcharts-data-label highcharts-data-label-color-5">Taiwan</text></g><g style="transition:opacity 2000ms ease 0s"><text data-z-index="1" y="13" style="color:#f0f0f3;font-size:13px;font-weight:400;fill:#f0f0f3" transform="translate(173 221)" class="highcharts-label highcharts-data-label highcharts-data-label-color-5">Indonesia</text></g><g style="transition:opacity 2000ms ease 0s;pointer-events:auto"><text data-z-index="1" y="13" style="color:#f0f0f3;font-size:13px;font-weight:400;fill:#f0f0f3" transform="translate(85 259)" class="highcharts-label highcharts-data-label highcharts-data-label-color-5">Saudi Arabia</text></g><g style="transition:opacity 2000ms ease 0s;pointer-events:auto"><text data-z-index="1" y="13" style="color:#f0f0f3;font-size:13px;font-weight:400;fill:#f0f0f3" transform="translate(67 231)" class="highcharts-label highcharts-data-label highcharts-data-label-color-5">Japan</text></g><g style="transition:opacity 2000ms ease 0s;pointer-events:auto"><text data-z-index="1" y="13" style="color:#f0f0f3;font-size:13px;font-weight:400;fill:#f0f0f3" transform="translate(49 131)" class="highcharts-label highcharts-data-label highcharts-data-label-color-5">China</text></g><g style="transition:opacity 2000ms ease 0s;pointer-events:auto"><text data-z-index="1" y="13" style="color:#f0f0f3;font-size:13px;font-weight:400;fill:#f0f0f3" transform="translate(94 99)" class="highcharts-label highcharts-data-label highcharts-data-label-color-5">India</text></g><g style="transition:opacity 2000ms ease 0s;pointer-events:auto"><text data-z-index="1" y="13" style="color:#f0f0f3;font-size:13px;font-weight:400;fill:#f0f0f3" transform="translate(223 166)" class="highcharts-label highcharts-data-label highcharts-data-label-color-5">Iran</text></g></g><g class="highcharts-legend highcharts-no-tooltip" data-z-index="7" transform="translate(22 559)" aria-hidden="true"><rect fill="rgba(0, 0, 0, 0.5)" class="highcharts-legend-box" rx="0" ry="0" width="555" height="26"/><g data-z-index="1"><g class="highcharts-legend-item highcharts-packedbubble-series highcharts-color-0 highcharts-series-0" data-z-index="1"><path fill="none" d="M8 14h16" class="highcharts-graph"/><path fill="#2b908f" d="M16 20a6 6 0 1 1 .006 0Z" class="highcharts-point" stroke="#333" fill-opacity=".5"/><text x="21" data-z-index="2" y="15" style="color:#e0e0e3;cursor:pointer;font-size:12px;font-weight:700;fill:#e0e0e3" transform="translate(8 3)">Europe</text></g><g class="highcharts-legend-item highcharts-packedbubble-series highcharts-color-1 highcharts-series-1" data-z-index="1"><path fill="none" d="M90.344 14h16" class="highcharts-graph"/><path fill="#90ee7e" d="M98.344 20a6 6 0 1 1 .006 0Z" class="highcharts-point" stroke="#333" fill-opacity=".5"/><text x="21" y="15" data-z-index="2" style="color:#e0e0e3;cursor:pointer;font-size:12px;font-weight:700;fill:#e0e0e3" transform="translate(90.344 3)">Africa</text></g><g class="highcharts-legend-item highcharts-packedbubble-series highcharts-color-2 highcharts-series-2" data-z-index="1"><path fill="none" d="M165.36 14h16" class="highcharts-graph"/><path fill="#f45b5b" d="M173.36 20a6 6 0 1 1 .005 0Z" class="highcharts-point" stroke="#333" fill-opacity=".5"/><text x="21" y="15" data-z-index="2" style="color:#e0e0e3;cursor:pointer;font-size:12px;font-weight:700;fill:#e0e0e3" transform="translate(165.36 3)">Oceania</text></g><g class="highcharts-legend-item highcharts-packedbubble-series highcharts-color-3 highcharts-series-3" data-z-index="1"><path fill="none" d="M253.055 14h16" class="highcharts-graph"/><path fill="#7798BF" d="M261.055 20a6 6 0 1 1 .006 0Z" class="highcharts-point" stroke="#333" fill-opacity=".5"/><text x="21" y="15" data-z-index="2" style="color:#e0e0e3;cursor:pointer;font-size:12px;font-weight:700;fill:#e0e0e3" transform="translate(253.055 3)">North America</text></g><g class="highcharts-legend-item highcharts-packedbubble-series highcharts-color-4 highcharts-series-4" data-z-index="1"><path fill="none" d="M376.297 14h16" class="highcharts-graph"/><path fill="#aee" d="M384.297 20a6 6 0 1 1 .006 0Z" class="highcharts-point" stroke="#333" fill-opacity=".5"/><text x="21" y="15" data-z-index="2" style="color:#e0e0e3;cursor:pointer;font-size:12px;font-weight:700;fill:#e0e0e3" transform="translate(376.297 3)">South America</text></g><g class="highcharts-legend-item highcharts-packedbubble-series highcharts-color-5 highcharts-series-5" data-z-index="1"><path fill="none" d="M501.54 14h16" class="highcharts-graph"/><path fill="#f06" d="M509.54 20a6 6 0 1 1 .005 0Z" class="highcharts-point" stroke="#333" fill-opacity=".5"/><text x="21" y="15" data-z-index="2" style="color:#e0e0e3;cursor:pointer;font-size:12px;font-weight:700;fill:#e0e0e3" transform="translate(501.54 3)">Asia</text></g></g></g></svg>