<svg class="highcharts-root" style="font-family:&quot;Unica One&quot;,sans-serif;font-size:12px" xmlns="http://www.w3.org/2000/svg" width="600" height="400" aria-label="Interactive chart" aria-hidden="false"><defs aria-hidden="true"><clipPath id="c"><path fill="none" d="M0 0h504v225H0z"/></clipPath><clipPath id="b"><path fill="none" d="M0 0h504v225H0z"/></clipPath><linearGradient x1="0" y1="0" x2="1" y2="1" id="a"><stop offset="0" stop-color="#2a2a2b"/><stop offset="1" stop-color="#3e3e40"/></linearGradient></defs><rect fill="url(#a)" class="highcharts-background" width="600" height="400" rx="0" ry="0" aria-hidden="true"/><path fill="none" class="highcharts-plot-background" aria-hidden="true" d="M43 47h504v225H43z"/><g class="highcharts-grid highcharts-xaxis-grid" data-z-index="1" aria-hidden="true" fill="none"><path data-z-index="1" class="highcharts-grid-line" d="M105.5 47v225m63-225v225m63-225v225m63-225v225m63-225v225m63-225v225m63-225v225m63-225v225M42.5 47v225"/></g><g class="highcharts-grid highcharts-yaxis-grid" data-z-index="1" aria-hidden="true" fill="none" stroke="#707073"><path data-z-index="1" class="highcharts-grid-line" d="M43 272.5h504m-504-56h504m-504-56h504m-504-57h504m-504-57h504"/></g><g class="highcharts-grid highcharts-yaxis-grid" data-z-index="1" aria-hidden="true" fill="none" stroke="#707073"><path data-z-index="1" class="highcharts-grid-line" d="M43 272.5h504m-504-56h504m-504-56h504m-504-57h504m-504-57h504"/></g><path fill="none" class="highcharts-plot-border" data-z-index="1" aria-hidden="true" d="M43 47h504v225H43z"/><g class="highcharts-axis highcharts-xaxis" data-z-index="2" aria-hidden="true"><path fill="none" class="highcharts-axis-line" stroke="#707073" data-z-index="7" d="M43 272.5h504"/></g><g class="highcharts-axis highcharts-yaxis" data-z-index="2" aria-hidden="true" fill="none"><path class="highcharts-tick" stroke="#707073" d="M43 272.5H33m10-56H33m10-56H33m10-57H33m10-57H33"/><path class="highcharts-axis-line" data-z-index="7" d="M43 47v225"/></g><g class="highcharts-axis highcharts-yaxis" data-z-index="2" aria-hidden="true" fill="none"><path class="highcharts-tick" stroke="#707073" d="M547 272.5h10m-10-56h10m-10-56h10m-10-57h10m-10-57h10"/><path class="highcharts-axis-line" data-z-index="7" d="M547 47v225"/></g><g class="highcharts-series-group" data-z-index="3" aria-hidden="false"><g class="highcharts-series highcharts-series-1 highcharts-column-series highcharts-color-1 highcharts-tracker" data-z-index="2" clip-path="url(#b)" aria-hidden="false" tabindex="-1" aria-label="Complaints, series 2 of 2. Bar series with 8 bars. Y axis, values." style="outline:0" fill="#90ee7e" stroke="#fff" transform="translate(43 47)"><path class="highcharts-point highcharts-color-1" tabindex="-1" aria-label="Overpriced, 755. Complaints." style="outline:0" d="M15.5 13.5h31v212h-31z"/><path class="highcharts-point highcharts-color-1" tabindex="-1" aria-label="Small portions, 222. Complaints." style="outline:0" d="M78.5 163.5h31v62h-31z"/><path class="highcharts-point highcharts-color-1" tabindex="-1" aria-label="Wait time, 151. Complaints." style="outline:0" d="M141.5 183.5h31v42h-31z"/><path class="highcharts-point highcharts-color-1" tabindex="-1" aria-label="Food is tasteless, 86. Complaints." style="outline:0" d="M204.5 201.5h31v24h-31z"/><path class="highcharts-point highcharts-color-1" tabindex="-1" aria-label="No atmosphere, 72. Complaints." style="outline:0" d="M267.5 205.5h31v20h-31z"/><path class="highcharts-point highcharts-color-1" tabindex="-1" aria-label="Not clean, 51. Complaints." style="outline:0" d="M330.5 211.5h31v14h-31z"/><path class="highcharts-point highcharts-color-1" tabindex="-1" aria-label="Too noisy, 36. Complaints." style="outline:0" d="M393.5 215.5h31v10h-31z"/><path class="highcharts-point highcharts-color-1" tabindex="-1" aria-label="Unfriendly staff, 10. Complaints." style="outline:0" d="M456.5 222.5h31v3h-31z"/></g><g class="highcharts-series highcharts-series-0 highcharts-pareto-series highcharts-color-0" data-z-index="10" clip-path="url(#c)" aria-hidden="true" fill="none" stroke-linejoin="round" stroke-linecap="round" transform="translate(43 47)"><path d="m31.5 102.17 63-36.118 63-24.566 63-13.991 63-11.714 63-8.297 63-5.857L472.5 0" class="highcharts-graph" data-z-index="1" stroke="#2b908f" stroke-width="2"/><path d="m31.5 102.17 63-36.118 63-24.566 63-13.991 63-11.714 63-8.297 63-5.857L472.5 0" data-z-index="2" class="highcharts-tracker-line" stroke="rgba(192,192,192,0.0001)" stroke-width="22"/></g><g class="highcharts-markers highcharts-series-0 highcharts-pareto-series highcharts-color-0 highcharts-tracker" data-z-index="10" aria-hidden="false" tabindex="-1" aria-label="Pareto, series 1 of 2 with 8 data points. Y axis, values." style="outline:0" fill="#2b908f"><path d="M31 106.17a4 4 0 1 1 .004 0Z" class="highcharts-point highcharts-color-0" tabindex="-1" aria-label="Overpriced, 54.59%. Pareto." style="outline:0" transform="translate(43 47)"/><path d="M94 70.052a4 4 0 1 1 .004 0Z" class="highcharts-point highcharts-color-0" tabindex="-1" aria-label="Small portions, 70.64%. Pareto." style="outline:0" transform="translate(43 47)"/><path d="M157 45.486a4 4 0 1 1 .004 0Z" class="highcharts-point highcharts-color-0" tabindex="-1" aria-label="Wait time, 81.56%. Pareto." style="outline:0" transform="translate(43 47)"/><path d="M220 31.495a4 4 0 1 1 .004 0Z" class="highcharts-point highcharts-color-0" tabindex="-1" aria-label="Food is tasteless, 87.78%. Pareto." style="outline:0" transform="translate(43 47)"/><path d="M283 19.78a4 4 0 1 1 .004 0Z" class="highcharts-point highcharts-color-0" tabindex="-1" aria-label="No atmosphere, 92.99%. Pareto." style="outline:0" transform="translate(43 47)"/><path d="M346 11.484a4 4 0 1 1 .004 0Z" class="highcharts-point highcharts-color-0" tabindex="-1" aria-label="Not clean, 96.67%. Pareto." style="outline:0" transform="translate(43 47)"/><path d="M409 5.627a4 4 0 1 1 .004 0Z" class="highcharts-point highcharts-color-0" tabindex="-1" aria-label="Too noisy, 99.28%. Pareto." style="outline:0" transform="translate(43 47)"/><path d="M472 4a4 4 0 1 1 .004 0Z" class="highcharts-point highcharts-color-0" tabindex="-1" aria-label="Unfriendly staff, 100.00%. Pareto." style="outline:0" transform="translate(43 47)"/></g></g><text x="300" text-anchor="middle" class="highcharts-title" data-z-index="4" style="color:#e0e0e3;font-size:20px;text-transform:uppercase;fill:#e0e0e3" y="25" aria-hidden="true">Restaurants Complaints</text><g class="highcharts-legend highcharts-no-tooltip" data-z-index="7" transform="translate(210 359)" aria-hidden="true"><rect fill="rgba(0, 0, 0, 0.5)" class="highcharts-legend-box" rx="0" ry="0" width="180" height="26"/><g data-z-index="1"><g class="highcharts-legend-item highcharts-pareto-series highcharts-color-0 highcharts-series-0" data-z-index="1"><path fill="none" d="M8 14h16" class="highcharts-graph" stroke-width="2" stroke="#2b908f"/><path fill="#2b908f" d="M16 18a4 4 0 1 1 .004 0Z" class="highcharts-point"/><text x="21" data-z-index="2" y="15" style="color:#e0e0e3;cursor:pointer;font-size:12px;font-weight:700;fill:#e0e0e3" transform="translate(8 3)">Pareto</text></g><g class="highcharts-legend-item highcharts-column-series highcharts-color-1 highcharts-series-1" data-z-index="1" transform="translate(86.352 3)"><text x="21" y="15" data-z-index="2" style="color:#e0e0e3;cursor:pointer;font-size:12px;font-weight:700;fill:#e0e0e3">Complaints</text><rect x="2" y="4" width="12" height="12" fill="#90ee7e" rx="6" ry="6" class="highcharts-point" data-z-index="3"/></g></g></g><g class="highcharts-axis-labels highcharts-xaxis-labels" data-z-index="7" aria-hidden="true" text-anchor="end"><text x="77.093" transform="rotate(-45 77.093 288)" style="color:#e0e0e3;cursor:default;font-size:11px;fill:#e0e0e3" y="288">Overpriced</text><text x="140.093" transform="rotate(-45 140.093 288)" style="color:#e0e0e3;cursor:default;font-size:11px;fill:#e0e0e3" y="288">Small portions</text><text x="203.093" transform="rotate(-45 203.093 288)" style="color:#e0e0e3;cursor:default;font-size:11px;fill:#e0e0e3" y="288">Wait time</text><text x="266.093" transform="rotate(-45 266.093 288)" style="color:#e0e0e3;cursor:default;font-size:11px;fill:#e0e0e3" y="288">Food is tasteless</text><text x="329.093" transform="rotate(-45 329.093 288)" style="color:#e0e0e3;cursor:default;font-size:11px;fill:#e0e0e3" y="288">No atmosphere</text><text x="392.093" transform="rotate(-45 392.093 288)" style="color:#e0e0e3;cursor:default;font-size:11px;fill:#e0e0e3" y="288">Not clean</text><text x="455.093" transform="rotate(-45 455.093 288)" style="color:#e0e0e3;cursor:default;font-size:11px;fill:#e0e0e3" y="288">Too noisy</text><text x="518.093" transform="rotate(-45 518.093 288)" style="color:#e0e0e3;cursor:default;font-size:11px;fill:#e0e0e3" y="288">Unfriendly staff</text></g><g class="highcharts-axis-labels highcharts-yaxis-labels" data-z-index="7" aria-hidden="true" text-anchor="end"><text x="28" style="color:#e0e0e3;cursor:default;font-size:11px;fill:#e0e0e3" y="277">0</text><text x="28" style="color:#e0e0e3;cursor:default;font-size:11px;fill:#e0e0e3" y="221">200</text><text x="28" style="color:#e0e0e3;cursor:default;font-size:11px;fill:#e0e0e3" y="164">400</text><text x="28" style="color:#e0e0e3;cursor:default;font-size:11px;fill:#e0e0e3" y="108">600</text><text x="28" style="color:#e0e0e3;cursor:default;font-size:11px;fill:#e0e0e3" y="52">800</text></g><g class="highcharts-axis-labels highcharts-yaxis-labels" data-z-index="7" aria-hidden="true"><text x="562" style="color:#e0e0e3;cursor:default;font-size:11px;fill:#e0e0e3" y="277">0%</text><text x="562" style="color:#e0e0e3;cursor:default;font-size:11px;fill:#e0e0e3" y="221">25%</text><text x="562" style="color:#e0e0e3;cursor:default;font-size:11px;fill:#e0e0e3" y="164">50%</text><text x="562" style="color:#e0e0e3;cursor:default;font-size:11px;fill:#e0e0e3" y="108">75%</text><text x="562" style="color:#e0e0e3;cursor:default;font-size:11px;fill:#e0e0e3" y="52">100%</text></g></svg>