<svg class="highcharts-root" style="font-family:&quot;Unica One&quot;,sans-serif;font-size:12px" xmlns="http://www.w3.org/2000/svg" width="600" height="400" aria-label="Interactive chart" aria-hidden="false"><defs aria-hidden="true"><linearGradient x1="0" y1="0" x2="1" y2="1" id="a"><stop offset="0" stop-color="#2a2a2b"/><stop offset="1" stop-color="#3e3e40"/></linearGradient><clipPath id="b"><path fill="none" d="M0 0h580v338H0z"/></clipPath></defs><rect fill="url(#a)" class="highcharts-background" width="600" height="400" rx="0" ry="0" aria-hidden="true"/><path fill="none" class="highcharts-plot-background" aria-hidden="true" d="M10 47h580v338H10z"/><path fill="none" class="highcharts-plot-border" data-z-index="1" aria-hidden="true" d="M10 47h580v338H10z"/><g class="highcharts-series-group" data-z-index="3" aria-hidden="false"><g class="highcharts-series highcharts-series-0 highcharts-sankey-series highcharts-tracker" data-z-index=".1" clip-path="url(#b)" aria-hidden="false" transform="translate(10 47)"><path fill="rgba(43,144,143,0.5)" d="M20 57c61.6 0 104.4-18 166-18v31.042c-61.6 0-104.4 18-166 18Z" class="highcharts-link highcharts-point highcharts-color-0" tabindex="-1" aria-label="1. Brazil to Portugal, 5. Sankey demo series." style="outline:0"/><path fill="rgba(43,144,143,0.5)" d="M20 88.042C81.6 88.042 124.4 98 186 98v6.208c-61.6 0-104.4-9.958-166-9.958Z" class="highcharts-link highcharts-point highcharts-color-1" tabindex="-1" aria-label="2. Brazil to France, 1. Sankey demo series." style="outline:0"/><path fill="rgba(43,144,143,0.5)" d="M20 94.25c61.6 0 104.4 82.75 166 82.75v6.208c-61.6 0-104.4-82.75-166-82.75Z" class="highcharts-link highcharts-point highcharts-color-2" tabindex="-1" aria-label="3. Brazil to Spain, 1. Sankey demo series." style="outline:0"/><path fill="rgba(43,144,143,0.5)" d="M20 100.458C81.6 100.458 124.4 230 186 230v6.208c-61.6 0-104.4-129.541-166-129.541Z" class="highcharts-link highcharts-point highcharts-color-3" tabindex="-1" aria-label="4. Brazil to England, 1. Sankey demo series." style="outline:0"/><path fill="rgba(255,0,102,0.5)" d="M20 117c61.6 0 104.4-46.958 166-46.958v6.208c-61.6 0-104.4 46.958-166 46.958Z" class="highcharts-link highcharts-point highcharts-color-4" tabindex="-1" aria-label="5. Canada to Portugal, 1. Sankey demo series." style="outline:0"/><path fill="rgba(255,0,102,0.5)" d="M20 123.208c61.6 0 104.4-19 166-19v31.042c-61.6 0-104.4 19-166 19Z" class="highcharts-link highcharts-point highcharts-color-5" tabindex="-1" aria-label="6. Canada to France, 5. Sankey demo series." style="outline:0"/><path fill="rgba(255,0,102,0.5)" d="M20 153.792c61.6 0 104.4 82.416 166 82.416v6.209C124.4 242.417 81.6 160 20 160Z" class="highcharts-link highcharts-point highcharts-color-6" tabindex="-1" aria-label="7. Canada to England, 1. Sankey demo series." style="outline:0"/><path fill="rgba(238,170,238,0.5)" d="M20 170c61.6 0 104.4-93.75 166-93.75v6.208c-61.6 0-104.4 93.75-166 93.75Z" class="highcharts-link highcharts-point highcharts-color-7" tabindex="-1" aria-label="8. Mexico to Portugal, 1. Sankey demo series." style="outline:0"/><path fill="rgba(238,170,238,0.5)" d="M20 176.208c61.6 0 104.4-40.958 166-40.958v6.208c-61.6 0-104.4 40.959-166 40.959Z" class="highcharts-link highcharts-point highcharts-color-8" tabindex="-1" aria-label="9. Mexico to France, 1. Sankey demo series." style="outline:0"/><path fill="rgba(238,170,238,0.5)" d="M20 182.417c61.6 0 104.4.791 166 .791v31.042c-61.6 0-104.4-.792-166-.792Z" class="highcharts-link highcharts-point highcharts-color-9" tabindex="-1" aria-label="10. Mexico to Spain, 5. Sankey demo series." style="outline:0"/><path fill="rgba(238,170,238,0.5)" d="M20 213.458c61.6 0 104.4 28.959 166 28.959v6.208c-61.6 0-104.4-28.958-166-28.958Z" class="highcharts-link highcharts-point highcharts-color-10" tabindex="-1" aria-label="11. Mexico to England, 1. Sankey demo series." style="outline:0"/><path fill="rgba(85,191,59,0.5)" d="M20 230c61.6 0 104.4-147.542 166-147.542v6.209c-61.6 0-104.4 147.541-166 147.541Z" class="highcharts-link highcharts-point highcharts-color-0" tabindex="-1" aria-label="12. USA to Portugal, 1. Sankey demo series." style="outline:0"/><path fill="rgba(85,191,59,0.5)" d="M20 236.208c61.6 0 104.4-94.75 166-94.75v6.209c-61.6 0-104.4 94.75-166 94.75Z" class="highcharts-link highcharts-point highcharts-color-1" tabindex="-1" aria-label="13. USA to France, 1. Sankey demo series." style="outline:0"/><path fill="rgba(85,191,59,0.5)" d="M20 242.417c61.6 0 104.4-28.625 166-28.625V220c-61.6 0-104.4 28.625-166 28.625Z" class="highcharts-link highcharts-point highcharts-color-2" tabindex="-1" aria-label="14. USA to Spain, 1. Sankey demo series." style="outline:0"/><path fill="rgba(85,191,59,0.5)" d="M20 248.625h166v31.042H20Z" class="highcharts-link highcharts-point highcharts-color-3" tabindex="-1" aria-label="15. USA to England, 5. Sankey demo series." style="outline:0"/><path fill="rgba(144,238,126,0.5)" d="M206 39c61.6 0 105.4-39 167-39v12.417c-61.6 0-105.4 39-167 39Z" class="highcharts-link highcharts-point highcharts-color-4" tabindex="-1" aria-label="16. Portugal to Angola, 2. Sankey demo series." style="outline:0"/><path fill="rgba(144,238,126,0.5)" d="M206 51.417C267.6 51.417 311.4 65 373 65v6.208c-61.6 0-105.4-13.583-167-13.583Z" class="highcharts-link highcharts-point highcharts-color-5" tabindex="-1" aria-label="17. Portugal to Senegal, 1. Sankey demo series." style="outline:0"/><path fill="rgba(144,238,126,0.5)" d="M206 57.625c61.6 0 105.4 73.375 167 73.375v6.208c-61.6 0-105.4-73.375-167-73.375Z" class="highcharts-link highcharts-point highcharts-color-6" tabindex="-1" aria-label="18. Portugal to Morocco, 1. Sankey demo series." style="outline:0"/><path fill="rgba(144,238,126,0.5)" d="M206 63.833C267.6 63.833 311.4 197 373 197v18.625c-61.6 0-105.4-133.167-167-133.167Z" class="highcharts-link highcharts-point highcharts-color-7" tabindex="-1" aria-label="19. Portugal to South Africa, 3. Sankey demo series." style="outline:0"/><path fill="rgba(244,91,91,0.5)" d="M206 98c61.6 0 105.4-85.583 167-85.583v6.208c-61.6 0-105.4 85.583-167 85.583Z" class="highcharts-link highcharts-point highcharts-color-8" tabindex="-1" aria-label="20. France to Angola, 1. Sankey demo series." style="outline:0"/><path fill="rgba(244,91,91,0.5)" d="M206 104.208c61.6 0 105.4-33 167-33v18.625c-61.6 0-105.4 33-167 33Z" class="highcharts-link highcharts-point highcharts-color-9" tabindex="-1" aria-label="21. France to Senegal, 3. Sankey demo series." style="outline:0"/><path fill="rgba(244,91,91,0.5)" d="M206 122.833C267.6 122.833 311.4 282 373 282v18.625c-61.6 0-105.4-159.167-167-159.167Z" class="highcharts-link highcharts-point highcharts-color-10" tabindex="-1" aria-label="22. France to Mali, 3. Sankey demo series." style="outline:0"/><path fill="rgba(244,91,91,0.5)" d="M206 141.458c61.6 0 105.4-4.25 167-4.25v18.625c-61.6 0-105.4 4.25-167 4.25Z" class="highcharts-link highcharts-point highcharts-color-0" tabindex="-1" aria-label="23. France to Morocco, 3. Sankey demo series." style="outline:0"/><path fill="rgba(244,91,91,0.5)" d="M206 159.792c61.6 0 105.4 55.833 167 55.833v6.208c-61.6 0-105.4-55.833-167-55.833Z" class="highcharts-link highcharts-point highcharts-color-1" tabindex="-1" aria-label="24. France to South Africa, 1. Sankey demo series." style="outline:0"/><path fill="rgba(119,152,191,0.5)" d="M206 177c61.6 0 105.4-87.167 167-87.167v6.209c-61.6 0-105.4 87.166-167 87.166Z" class="highcharts-link highcharts-point highcharts-color-2" tabindex="-1" aria-label="25. Spain to Senegal, 1. Sankey demo series." style="outline:0"/><path fill="rgba(119,152,191,0.5)" d="M206 183.208c61.6 0 105.4-27.375 167-27.375v18.625c-61.6 0-105.4 27.375-167 27.375Z" class="highcharts-link highcharts-point highcharts-color-3" tabindex="-1" aria-label="26. Spain to Morocco, 3. Sankey demo series." style="outline:0"/><path fill="rgba(119,152,191,0.5)" d="M206 201.833c61.6 0 105.4 20 167 20v6.209c-61.6 0-105.4-20-167-20Z" class="highcharts-link highcharts-point highcharts-color-4" tabindex="-1" aria-label="27. Spain to South Africa, 1. Sankey demo series." style="outline:0"/><path fill="rgba(170,238,238,0.5)" d="M206 230c61.6 0 105.4-211.375 167-211.375v6.208c-61.6 0-105.4 211.375-167 211.375Z" class="highcharts-link highcharts-point highcharts-color-5" tabindex="-1" aria-label="28. England to Angola, 1. Sankey demo series." style="outline:0"/><path fill="rgba(170,238,238,0.5)" d="M206 236.208c61.6 0 105.4-140.166 167-140.166v6.208c-61.6 0-105.4 140.167-167 140.167Z" class="highcharts-link highcharts-point highcharts-color-6" tabindex="-1" aria-label="29. England to Senegal, 1. Sankey demo series." style="outline:0"/><path fill="rgba(170,238,238,0.5)" d="M206 242.417c61.6 0 105.4-67.959 167-67.959v12.417c-61.6 0-105.4 67.958-167 67.958Z" class="highcharts-link highcharts-point highcharts-color-7" tabindex="-1" aria-label="30. England to Morocco, 2. Sankey demo series." style="outline:0"/><path fill="rgba(170,238,238,0.5)" d="M206 254.542c61.6 0 105.4-26.5 167-26.5V271.5c-61.6 0-105.4 26.5-167 26.5Z" class="highcharts-link highcharts-point highcharts-color-8" tabindex="-1" aria-label="31. England to South Africa, 7. Sankey demo series." style="outline:0"/><path fill="rgba(43,144,143,0.5)" d="M393 197c61.6 0 105.4-178 167-178v31.042c-61.6 0-105.4 178-167 178Z" class="highcharts-link highcharts-point highcharts-color-9" tabindex="-1" aria-label="32. South Africa to China, 5. Sankey demo series." style="outline:0"/><path fill="rgba(43,144,143,0.5)" d="M393 228.042c61.6 0 105.4-44.042 167-44.042v6.208c-61.6 0-105.4 44.042-167 44.042Z" class="highcharts-link highcharts-point highcharts-color-10" tabindex="-1" aria-label="33. South Africa to India, 1. Sankey demo series." style="outline:0"/><path fill="rgba(43,144,143,0.5)" d="M393 234.25c61.6 0 105.4-9.25 167-9.25v18.625c-61.6 0-105.4 9.25-167 9.25Z" class="highcharts-link highcharts-point highcharts-color-0" tabindex="-1" aria-label="34. South Africa to Japan, 3. Sankey demo series." style="outline:0"/><path fill="rgba(223,83,83,0.5)" d="M393 0c61.6 0 105.4 50.042 167 50.042v31.041c-61.6 0-105.4-50.041-167-50.041Z" class="highcharts-link highcharts-point highcharts-color-1" tabindex="-1" aria-label="35. Angola to China, 5. Sankey demo series." style="outline:0"/><path fill="rgba(223,83,83,0.5)" d="M393 31.042c61.6 0 105.4 159.166 167 159.166v6.209c-61.6 0-105.4-159.167-167-159.167Z" class="highcharts-link highcharts-point highcharts-color-2" tabindex="-1" aria-label="36. Angola to India, 1. Sankey demo series." style="outline:0"/><path fill="rgba(223,83,83,0.5)" d="M393 37.25c61.6 0 105.4 206.375 167 206.375v18.625c-61.6 0-105.4-206.375-167-206.375Z" class="highcharts-link highcharts-point highcharts-color-3" tabindex="-1" aria-label="37. Angola to Japan, 3. Sankey demo series." style="outline:0"/><path fill="rgba(119,152,191,0.5)" d="M393 65c61.6 0 105.4 16.083 167 16.083v31.042c-61.6 0-105.4-16.083-167-16.083Z" class="highcharts-link highcharts-point highcharts-color-4" tabindex="-1" aria-label="38. Senegal to China, 5. Sankey demo series." style="outline:0"/><path fill="rgba(119,152,191,0.5)" d="M393 96.042c61.6 0 105.4 100.375 167 100.375v6.208c-61.6 0-105.4-100.375-167-100.375Z" class="highcharts-link highcharts-point highcharts-color-5" tabindex="-1" aria-label="39. Senegal to India, 1. Sankey demo series." style="outline:0"/><path fill="rgba(119,152,191,0.5)" d="M393 102.25c61.6 0 105.4 160 167 160v18.625c-61.6 0-105.4-160-167-160Z" class="highcharts-link highcharts-point highcharts-color-6" tabindex="-1" aria-label="40. Senegal to Japan, 3. Sankey demo series." style="outline:0"/><path fill="rgba(144,238,126,0.5)" d="M393 282c61.6 0 105.4-169.875 167-169.875v31.042c-61.6 0-105.4 169.875-167 169.875Z" class="highcharts-link highcharts-point highcharts-color-7" tabindex="-1" aria-label="41. Mali to China, 5. Sankey demo series." style="outline:0"/><path fill="rgba(144,238,126,0.5)" d="M393 313.042c61.6 0 105.4-110.417 167-110.417v6.208c-61.6 0-105.4 110.417-167 110.417Z" class="highcharts-link highcharts-point highcharts-color-8" tabindex="-1" aria-label="42. Mali to India, 1. Sankey demo series." style="outline:0"/><path fill="rgba(144,238,126,0.5)" d="M393 319.25c61.6 0 105.4-38.375 167-38.375V299.5c-61.6 0-105.4 38.375-167 38.375Z" class="highcharts-link highcharts-point highcharts-color-9" tabindex="-1" aria-label="43. Mali to Japan, 3. Sankey demo series." style="outline:0"/><path fill="rgba(170,238,238,0.5)" d="M393 131c61.6 0 105.4 11.958 167 11.958V174c-61.6 0-105.4-11.958-167-11.958Z" class="highcharts-link highcharts-point highcharts-color-10" tabindex="-1" aria-label="44. Morocco to China, 5. Sankey demo series." style="outline:0"/><path fill="rgba(170,238,238,0.5)" d="M393 162.042c61.6 0 105.4 46.75 167 46.75V215c-61.6 0-105.4-46.75-167-46.75Z" class="highcharts-link highcharts-point highcharts-color-0" tabindex="-1" aria-label="45. Morocco to India, 1. Sankey demo series." style="outline:0"/><path fill="rgba(170,238,238,0.5)" d="M393 168.25c61.6 0 105.4 131.125 167 131.125V318c-61.6 0-105.4-131.125-167-131.125Z" class="highcharts-link highcharts-point highcharts-color-1" tabindex="-1" aria-label="46. Morocco to Japan, 3. Sankey demo series." style="outline:0"/><path fill="#2b908f" class="highcharts-node highcharts-point highcharts-color-0" d="M0 57h20v50H0z"/><path fill="#f06" class="highcharts-node highcharts-point highcharts-color-5" d="M0 117h20v43H0z"/><path fill="#eae" class="highcharts-node highcharts-point highcharts-color-6" d="M0 170h20v50H0z"/><path fill="#55BF3B" class="highcharts-node highcharts-point highcharts-color-7" d="M0 230h20v50H0z"/><path fill="#90ee7e" class="highcharts-node highcharts-point highcharts-color-1" d="M186 39h20v50h-20z"/><path fill="#f45b5b" class="highcharts-node highcharts-point highcharts-color-2" d="M186 98h20v68h-20z"/><path fill="#7798BF" class="highcharts-node highcharts-point highcharts-color-3" d="M186 177h20v43h-20z"/><path fill="#aee" class="highcharts-node highcharts-point highcharts-color-4" d="M186 230h20v68h-20z"/><path fill="#DF5353" class="highcharts-node highcharts-point highcharts-color-8" d="M373 0h20v56h-20z"/><path fill="#7798BF" class="highcharts-node highcharts-point highcharts-color-9" d="M373 65h20v56h-20z"/><path fill="#aee" class="highcharts-node highcharts-point highcharts-color-10" d="M373 131h20v56h-20z"/><path fill="#2b908f" class="highcharts-node highcharts-point highcharts-color-0" d="M373 197h20v75h-20z"/><path fill="#90ee7e" class="highcharts-node highcharts-point highcharts-color-1" d="M373 282h20v56h-20z"/><path fill="#f45b5b" class="highcharts-node highcharts-point highcharts-color-2" d="M560 19h20v155h-20z"/><path fill="#7798BF" class="highcharts-node highcharts-point highcharts-color-3" d="M560 184h20v31h-20z"/><path fill="#aee" class="highcharts-node highcharts-point highcharts-color-4" d="M560 225h20v93h-20z"/></g></g><text x="300" text-anchor="middle" class="highcharts-title" data-z-index="4" style="color:#e0e0e3;font-size:20px;text-transform:uppercase;fill:#e0e0e3" y="25" aria-hidden="true">Highcharts Sankey Diagram</text><g class="highcharts-data-labels highcharts-series-0 highcharts-sankey-series highcharts-tracker" data-z-index="6" aria-hidden="true"><g class="highcharts-label highcharts-data-label highcharts-data-label-color-0" data-z-index="1" transform="translate(10 117)"><rect fill="none" class="highcharts-label-box highcharts-data-label-box" width="45" height="25" rx="0" ry="0"/><text x="5" data-z-index="1" y="18" style="color:#f0f0f3;font-size:13px;font-weight:700;fill:#f0f0f3"><tspan class="highcharts-text-outline" fill="#000" stroke="#000" stroke-width="2" stroke-linejoin="round">Brazil<tspan x="5" dy="0">​</tspan></tspan>Brazil</text></g><g class="highcharts-label highcharts-data-label highcharts-data-label-color-5" data-z-index="1" transform="translate(10 173)"><rect fill="none" class="highcharts-label-box highcharts-data-label-box" width="57" height="25" rx="0" ry="0"/><text x="5" data-z-index="1" y="18" style="color:#f0f0f3;font-size:13px;font-weight:700;fill:#f0f0f3"><tspan class="highcharts-text-outline" fill="#000" stroke="#000" stroke-width="2" stroke-linejoin="round">Canada<tspan x="5" dy="0">​</tspan></tspan>Canada</text></g><g class="highcharts-label highcharts-data-label highcharts-data-label-color-6" data-z-index="1" transform="translate(10 230)"><rect fill="none" class="highcharts-label-box highcharts-data-label-box" width="54" height="25" rx="0" ry="0"/><text x="5" data-z-index="1" y="18" style="color:#f0f0f3;font-size:13px;font-weight:700;fill:#f0f0f3"><tspan class="highcharts-text-outline" fill="#000" stroke="#000" stroke-width="2" stroke-linejoin="round">Mexico<tspan x="5" dy="0">​</tspan></tspan>Mexico</text></g><g class="highcharts-label highcharts-data-label highcharts-data-label-color-7" data-z-index="1" transform="translate(10 290)"><rect fill="none" class="highcharts-label-box highcharts-data-label-box" width="37" height="25" rx="0" ry="0"/><text x="5" data-z-index="1" y="18" style="color:#f0f0f3;font-size:13px;font-weight:700;fill:#f0f0f3"><tspan class="highcharts-text-outline" fill="#000" stroke="#000" stroke-width="2" stroke-linejoin="round">USA<tspan x="5" dy="0">​</tspan></tspan>USA</text></g><g class="highcharts-label highcharts-data-label highcharts-data-label-color-1" data-z-index="1" transform="translate(175 99)"><rect fill="none" class="highcharts-label-box highcharts-data-label-box" width="63" height="25" rx="0" ry="0"/><text x="5" data-z-index="1" y="18" style="color:#f0f0f3;font-size:13px;font-weight:700;fill:#f0f0f3"><tspan class="highcharts-text-outline" fill="#000" stroke="#000" stroke-width="2" stroke-linejoin="round">Portugal<tspan x="5" dy="0">​</tspan></tspan>Portugal</text></g><g class="highcharts-label highcharts-data-label highcharts-data-label-color-2" data-z-index="1" transform="translate(180 167)"><rect fill="none" class="highcharts-label-box highcharts-data-label-box" width="53" height="25" rx="0" ry="0"/><text x="5" data-z-index="1" y="18" style="color:#f0f0f3;font-size:13px;font-weight:700;fill:#f0f0f3"><tspan class="highcharts-text-outline" fill="#000" stroke="#000" stroke-width="2" stroke-linejoin="round">France<tspan x="5" dy="0">​</tspan></tspan>France</text></g><g class="highcharts-label highcharts-data-label highcharts-data-label-color-3" data-z-index="1" transform="translate(183 233)"><rect fill="none" class="highcharts-label-box highcharts-data-label-box" width="45" height="25" rx="0" ry="0"/><text x="5" data-z-index="1" y="18" style="color:#f0f0f3;font-size:13px;font-weight:700;fill:#f0f0f3"><tspan class="highcharts-text-outline" fill="#000" stroke="#000" stroke-width="2" stroke-linejoin="round">Spain<tspan x="5" dy="0">​</tspan></tspan>Spain</text></g><g class="highcharts-label highcharts-data-label highcharts-data-label-color-4" data-z-index="1" transform="translate(175 299)"><rect fill="none" class="highcharts-label-box highcharts-data-label-box" width="61" height="25" rx="0" ry="0"/><text x="5" data-z-index="1" y="18" style="color:#f0f0f3;font-size:13px;font-weight:700;fill:#f0f0f3"><tspan class="highcharts-text-outline" fill="#000" stroke="#000" stroke-width="2" stroke-linejoin="round">England<tspan x="5" dy="0">​</tspan></tspan>England</text></g><g class="highcharts-label highcharts-data-label highcharts-data-label-color-8" data-z-index="1" transform="translate(366 63)"><rect fill="none" class="highcharts-label-box highcharts-data-label-box" width="54" height="25" rx="0" ry="0"/><text x="5" data-z-index="1" y="18" style="color:#f0f0f3;font-size:13px;font-weight:700;fill:#f0f0f3"><tspan class="highcharts-text-outline" fill="#000" stroke="#000" stroke-width="2" stroke-linejoin="round">Angola<tspan x="5" dy="0">​</tspan></tspan>Angola</text></g><g class="highcharts-label highcharts-data-label highcharts-data-label-color-9" data-z-index="1" transform="translate(363 128)"><rect fill="none" class="highcharts-label-box highcharts-data-label-box" width="60" height="25" rx="0" ry="0"/><text x="5" data-z-index="1" y="18" style="color:#f0f0f3;font-size:13px;font-weight:700;fill:#f0f0f3"><tspan class="highcharts-text-outline" fill="#000" stroke="#000" stroke-width="2" stroke-linejoin="round">Senegal<tspan x="5" dy="0">​</tspan></tspan>Senegal</text></g><g class="highcharts-label highcharts-data-label highcharts-data-label-color-10" data-z-index="1" transform="translate(361 194)"><rect fill="none" class="highcharts-label-box highcharts-data-label-box" width="64" height="25" rx="0" ry="0"/><text x="5" data-z-index="1" y="18" style="color:#f0f0f3;font-size:13px;font-weight:700;fill:#f0f0f3"><tspan class="highcharts-text-outline" fill="#000" stroke="#000" stroke-width="2" stroke-linejoin="round">Morocco<tspan x="5" dy="0">​</tspan></tspan>Morocco</text></g><g class="highcharts-label highcharts-data-label highcharts-data-label-color-0" data-z-index="1" transform="translate(350 269)"><rect fill="none" class="highcharts-label-box highcharts-data-label-box" width="87" height="25" rx="0" ry="0"/><text x="5" data-z-index="1" y="18" style="color:#f0f0f3;font-size:13px;font-weight:700;fill:#f0f0f3"><tspan class="highcharts-text-outline" fill="#000" stroke="#000" stroke-width="2" stroke-linejoin="round">South Africa<tspan x="5" dy="0">​</tspan></tspan>South Africa</text></g><g class="highcharts-label highcharts-data-label highcharts-data-label-color-1" data-z-index="1" transform="translate(375 345)"><rect fill="none" class="highcharts-label-box highcharts-data-label-box" width="35" height="25" rx="0" ry="0"/><text x="5" data-z-index="1" y="18" style="color:#f0f0f3;font-size:13px;font-weight:700;fill:#f0f0f3"><tspan class="highcharts-text-outline" fill="#000" stroke="#000" stroke-width="2" stroke-linejoin="round">Mali<tspan x="5" dy="0">​</tspan></tspan>Mali</text></g><g class="highcharts-label highcharts-data-label highcharts-data-label-color-2" data-z-index="1" transform="translate(544 131)"><rect fill="none" class="highcharts-label-box highcharts-data-label-box" width="46" height="25" rx="0" ry="0"/><text x="5" data-z-index="1" y="18" style="color:#f0f0f3;font-size:13px;font-weight:700;fill:#f0f0f3"><tspan class="highcharts-text-outline" fill="#000" stroke="#000" stroke-width="2" stroke-linejoin="round">China<tspan x="5" dy="0">​</tspan></tspan>China</text></g><g class="highcharts-label highcharts-data-label highcharts-data-label-color-3" data-z-index="1" transform="translate(549 234)"><rect fill="none" class="highcharts-label-box highcharts-data-label-box" width="40" height="25" rx="0" ry="0"/><text x="5" data-z-index="1" y="18" style="color:#f0f0f3;font-size:13px;font-weight:700;fill:#f0f0f3"><tspan class="highcharts-text-outline" fill="#000" stroke="#000" stroke-width="2" stroke-linejoin="round">India<tspan x="5" dy="0">​</tspan></tspan>India</text></g><g class="highcharts-label highcharts-data-label highcharts-data-label-color-4" data-z-index="1" transform="translate(543 306)"><rect fill="none" class="highcharts-label-box highcharts-data-label-box" width="48" height="25" rx="0" ry="0"/><text x="5" data-z-index="1" y="18" style="color:#f0f0f3;font-size:13px;font-weight:700;fill:#f0f0f3"><tspan class="highcharts-text-outline" fill="#000" stroke="#000" stroke-width="2" stroke-linejoin="round">Japan<tspan x="5" dy="0">​</tspan></tspan>Japan</text></g></g></svg>