<svg class="highcharts-root" style="font-family:&quot;Unica One&quot;,sans-serif;font-size:12px" xmlns="http://www.w3.org/2000/svg" width="600" height="400" aria-label="Interactive chart" aria-hidden="false"><defs aria-hidden="true"><linearGradient x1="0" y1="0" x2="1" y2="1" id="a"><stop offset="0" stop-color="#2a2a2b"/><stop offset="1" stop-color="#3e3e40"/></linearGradient><clipPath id="b"><path fill="none" d="M0 0h535v266H0z"/></clipPath></defs><rect fill="url(#a)" class="highcharts-background" width="600" height="400" rx="0" ry="0" aria-hidden="true"/><path fill="none" class="highcharts-plot-background" aria-hidden="true" d="M55 61h535v266H55z"/><g class="highcharts-plot-bands-0" data-z-index="0" aria-hidden="true"><path fill="rgba(68, 170, 213, 0.1)" class="highcharts-plot-band" d="M55 314.5h535v-53H55Z"/><path fill="rgba(0, 0, 0, 0)" class="highcharts-plot-band" d="M55 261.5h535v-80H55Z"/><path fill="rgba(68, 170, 213, 0.1)" class="highcharts-plot-band" d="M55 181.5h535v-98H55Z"/><path fill="rgba(0, 0, 0, 0)" class="highcharts-plot-band" d="M55 83.5h535v-22H55Z"/><path fill="rgba(68, 170, 213, 0.1)" class="highcharts-plot-band" d="M55 61.5h535H55Z"/><path fill="rgba(0, 0, 0, 0)" class="highcharts-plot-band" d="M55 61.5h535H55Z"/><path fill="rgba(68, 170, 213, 0.1)" class="highcharts-plot-band" d="M55 61.5h535H55Z"/></g><text x="65" class="highcharts-plot-band-label" data-z-index="0" y="294" style="color:#606060;fill:#606060" aria-hidden="true">Light air</text><text x="65" class="highcharts-plot-band-label" data-z-index="0" y="228" style="color:#606060;fill:#606060" aria-hidden="true">Light breeze</text><text x="65" class="highcharts-plot-band-label" data-z-index="0" y="139" style="color:#606060;fill:#606060" aria-hidden="true">Gentle breeze</text><text x="65" class="highcharts-plot-band-label" data-z-index="0" y="79" style="color:#606060;fill:#606060" aria-hidden="true">Moderate breeze</text><g class="highcharts-grid highcharts-xaxis-grid" data-z-index="1" aria-hidden="true" fill="none"><path data-z-index="1" class="highcharts-grid-line" d="M59.5 61v266m88-266v266m87-266v266m88-266v266m87-266v266m87-266v266m88-266v266"/></g><g class="highcharts-grid highcharts-yaxis-grid" data-z-index="1" aria-hidden="true" fill="none"><path data-z-index="1" class="highcharts-grid-line" d="M55 327.5h535m-535-44h535m-535-45h535m-535-44h535m-535-44h535m-535-45h535m-535-44h535"/></g><path fill="none" class="highcharts-plot-border" data-z-index="1" aria-hidden="true" d="M55 61h535v266H55z"/><g class="highcharts-axis highcharts-xaxis" data-z-index="2" aria-hidden="true" fill="none" stroke="#707073"><path class="highcharts-tick" d="M59.5 327v10m88-10v10m87-10v10m88-10v10m87-10v10m87-10v10m88-10v10"/><path class="highcharts-axis-line" data-z-index="7" d="M55 327.5h535"/></g><g class="highcharts-axis highcharts-yaxis" data-z-index="2" aria-hidden="true"><path fill="none" class="highcharts-tick" stroke="#707073" d="M55 327.5H45m10-44H45m10-45H45m10-44H45m10-44H45m10-45H45m10-45H45"/><text x="23.875" data-z-index="7" text-anchor="middle" transform="rotate(-90 23.875 194)" class="highcharts-axis-title" style="color:#a0a0a3;fill:#a0a0a3" y="194">Wind speed (m/s)</text><path fill="none" class="highcharts-axis-line" data-z-index="7" d="M55 61v266"/></g><g class="highcharts-series-group" data-z-index="3" aria-hidden="false" fill="none" stroke-linejoin="round" stroke-linecap="round"><g class="highcharts-series highcharts-series-0 highcharts-spline-series highcharts-color-0" data-z-index=".1" clip-path="url(#b)" aria-hidden="true" transform="translate(55 61)"><path d="M5.245 66.5S18.358 39.9 27.1 39.9s13.112 18.62 21.854 31.033c8.742 12.414 13.113 31.034 21.855 31.034S83.922 79.8 92.663 79.8c8.742 0 13.113 22.167 21.855 22.167s13.113-26.6 21.855-26.6c8.741 0 13.112 13.3 21.854 13.3 8.742 0 13.113-44.334 21.855-44.334s13.112 2.66 21.854 4.434c8.742 1.773 13.113 1.773 21.855 4.433s13.113.887 21.854 8.867c8.742 7.98 13.113 26.6 21.855 31.033s13.113 0 21.855 4.433c8.741 4.434 13.112 48.767 21.854 48.767 8.742 0 13.113-17.733 21.855-17.733s13.112 22.166 21.854 22.166c8.742 0 13.113-20.393 21.855-31.033s13.113-15.073 21.854-22.167c8.742-7.093 13.113-13.3 21.855-13.3s13.113 137.434 21.855 137.434c8.741 0 13.112-20.394 21.854-39.9 8.742-19.507 13.113-40.787 21.855-57.634 8.742-16.846 13.112-17.733 21.854-26.6 8.742-8.866 21.855-17.733 21.855-17.733" class="highcharts-graph" data-z-index="1" stroke="#2b908f" stroke-width="4"/><path d="M5.245 66.5S18.358 39.9 27.1 39.9s13.112 18.62 21.854 31.033c8.742 12.414 13.113 31.034 21.855 31.034S83.922 79.8 92.663 79.8c8.742 0 13.113 22.167 21.855 22.167s13.113-26.6 21.855-26.6c8.741 0 13.112 13.3 21.854 13.3 8.742 0 13.113-44.334 21.855-44.334s13.112 2.66 21.854 4.434c8.742 1.773 13.113 1.773 21.855 4.433s13.113.887 21.854 8.867c8.742 7.98 13.113 26.6 21.855 31.033s13.113 0 21.855 4.433c8.741 4.434 13.112 48.767 21.854 48.767 8.742 0 13.113-17.733 21.855-17.733s13.112 22.166 21.854 22.166c8.742 0 13.113-20.393 21.855-31.033s13.113-15.073 21.854-22.167c8.742-7.093 13.113-13.3 21.855-13.3s13.113 137.434 21.855 137.434c8.741 0 13.112-20.394 21.854-39.9 8.742-19.507 13.113-40.787 21.855-57.634 8.742-16.846 13.112-17.733 21.854-26.6 8.742-8.866 21.855-17.733 21.855-17.733" data-z-index="2" class="highcharts-tracker-line" stroke="rgba(192,192,192,0.0001)" stroke-width="24"/></g><g class="highcharts-series highcharts-series-1 highcharts-spline-series highcharts-color-1" data-z-index=".1" clip-path="url(#b)" aria-hidden="true" transform="translate(55 61)"><path d="M5.245 261.567h43.709c8.742 0 13.113-1.774 21.855-4.434s13.113-8.866 21.854-8.866h21.855c8.742 0 13.113 4.433 21.855 4.433 8.741 0 13.112-4.433 21.854-4.433 8.742 0 13.113 9.753 21.855 13.3 8.742 3.546 13.112 4.433 21.854 4.433 8.742 0 13.113-6.207 21.855-8.867 8.742-2.66 13.113-4.433 21.854-4.433 8.742 0 13.113 13.3 21.855 13.3h87.418c8.742 0 13.113-4.433 21.855-4.433h43.709c8.742 0 13.113 4.433 21.855 4.433 8.741 0 13.112-4.433 21.854-4.433 8.742 0 13.113 4.433 21.855 4.433h43.709" class="highcharts-graph" data-z-index="1" stroke="#90ee7e" stroke-width="4"/><path d="M5.245 261.567h43.709c8.742 0 13.113-1.774 21.855-4.434s13.113-8.866 21.854-8.866h21.855c8.742 0 13.113 4.433 21.855 4.433 8.741 0 13.112-4.433 21.854-4.433 8.742 0 13.113 9.753 21.855 13.3 8.742 3.546 13.112 4.433 21.854 4.433 8.742 0 13.113-6.207 21.855-8.867 8.742-2.66 13.113-4.433 21.854-4.433 8.742 0 13.113 13.3 21.855 13.3h87.418c8.742 0 13.113-4.433 21.855-4.433h43.709c8.742 0 13.113 4.433 21.855 4.433 8.741 0 13.112-4.433 21.854-4.433 8.742 0 13.113 4.433 21.855 4.433h43.709" data-z-index="2" class="highcharts-tracker-line" stroke="rgba(192,192,192,0.0001)" stroke-width="24"/></g></g><g data-z-index="3" aria-hidden="true"><text data-z-index="1" y="12" style="color:#2b908f;font-weight:700;fill:#2b908f" transform="translate(250 91)" class="highcharts-label highcharts-series-label highcharts-series-label-0 highcharts-color-0">Hestavollane</text></g><g data-z-index="3" aria-hidden="true"><text data-z-index="1" y="12" style="color:#90ee7e;font-weight:700;fill:#90ee7e" transform="translate(564 311)" class="highcharts-label highcharts-series-label highcharts-series-label-1 highcharts-color-1">Vik</text></g><text x="10" class="highcharts-title" data-z-index="4" style="color:#e0e0e3;font-size:20px;text-transform:uppercase;fill:#e0e0e3" y="25" aria-hidden="true">Wind speed during two days</text><text x="10" class="highcharts-subtitle" data-z-index="4" style="color:#e0e0e3;text-transform:uppercase;fill:#e0e0e3" y="46" aria-hidden="true">13th &amp; 14th of June, 2022 at two locations in Vik i Sogn, Norway</text><g class="highcharts-legend highcharts-no-tooltip" data-z-index="7" transform="translate(215 359)" aria-hidden="true"><rect fill="rgba(0, 0, 0, 0.5)" class="highcharts-legend-box" rx="0" ry="0" width="169" height="26"/><g data-z-index="1"><g class="highcharts-legend-item highcharts-spline-series highcharts-color-0 highcharts-series-0" data-z-index="1"><path fill="none" d="M8 14h16" class="highcharts-graph" stroke-width="4" stroke="#2b908f"/><text x="21" data-z-index="2" y="15" style="color:#e0e0e3;cursor:pointer;font-size:12px;font-weight:700;fill:#e0e0e3" transform="translate(8 3)">Hestavollane</text></g><g class="highcharts-legend-item highcharts-spline-series highcharts-color-1 highcharts-series-1" data-z-index="1"><path fill="none" d="M123.04 14h16" class="highcharts-graph" stroke-width="4" stroke="#90ee7e"/><text x="21" y="15" data-z-index="2" style="color:#e0e0e3;cursor:pointer;font-size:12px;font-weight:700;fill:#e0e0e3" transform="translate(123.04 3)">Vik</text></g></g></g><g class="highcharts-axis-labels highcharts-xaxis-labels" data-z-index="7" aria-hidden="true" text-anchor="middle"><text x="60.245" style="color:#e0e0e3;cursor:default;font-size:11px;fill:#e0e0e3" y="346">13. Jun</text><text x="147.663" style="color:#e0e0e3;cursor:default;font-size:11px;fill:#e0e0e3" y="346">04:00</text><text x="235.082" style="color:#e0e0e3;cursor:default;font-size:11px;fill:#e0e0e3" y="346">08:00</text><text x="322.5" style="color:#e0e0e3;cursor:default;font-size:11px;fill:#e0e0e3" y="346">12:00</text><text x="409.918" style="color:#e0e0e3;cursor:default;font-size:11px;fill:#e0e0e3" y="346">16:00</text><text x="497.337" style="color:#e0e0e3;cursor:default;font-size:11px;fill:#e0e0e3" y="346">20:00</text><text x="571.957" style="color:#e0e0e3;cursor:default;font-size:11px;fill:#e0e0e3" y="346">14. Jun</text></g><g class="highcharts-axis-labels highcharts-yaxis-labels" data-z-index="7" aria-hidden="true" text-anchor="end"><text x="40" style="color:#e0e0e3;cursor:default;font-size:11px;fill:#e0e0e3" y="332">0</text><text x="40" style="color:#e0e0e3;cursor:default;font-size:11px;fill:#e0e0e3" y="287">1</text><text x="40" style="color:#e0e0e3;cursor:default;font-size:11px;fill:#e0e0e3" y="243">2</text><text x="40" style="color:#e0e0e3;cursor:default;font-size:11px;fill:#e0e0e3" y="199">3</text><text x="40" style="color:#e0e0e3;cursor:default;font-size:11px;fill:#e0e0e3" y="154">4</text><text x="40" style="color:#e0e0e3;cursor:default;font-size:11px;fill:#e0e0e3" y="110">5</text><text x="40" style="color:#e0e0e3;cursor:default;font-size:11px;fill:#e0e0e3" y="66">6</text></g></svg>