<svg class="highcharts-root" style="font-family:&quot;Unica One&quot;,sans-serif;font-size:12px" xmlns="http://www.w3.org/2000/svg" width="600" height="400" aria-label="Interactive chart" aria-hidden="false"><defs aria-hidden="true"><linearGradient x1="0" y1="0" x2="1" y2="1" id="a"><stop offset="0" stop-color="#2a2a2b"/><stop offset="1" stop-color="#3e3e40"/></linearGradient><clipPath id="b"><path fill="none" d="M0 0h580v301H0z"/></clipPath></defs><rect fill="url(#a)" class="highcharts-background" width="600" height="400" rx="0" ry="0" aria-hidden="true"/><path fill="none" class="highcharts-plot-background" aria-hidden="true" d="M10 84h580v301H10z"/><path fill="none" class="highcharts-plot-border" data-z-index="1" aria-hidden="true" d="M10 84h580v301H10z"/><g class="highcharts-axis highcharts-xaxis" data-z-index="2" aria-hidden="true"><path fill="none" class="highcharts-axis-line" data-z-index="7" d="M10 385h580"/></g><g class="highcharts-axis highcharts-yaxis" data-z-index="2" aria-hidden="true"><path fill="none" class="highcharts-axis-line" data-z-index="7" d="M10 84v301"/></g><g class="highcharts-series-group" data-z-index="3" aria-hidden="false"><g class="highcharts-series highcharts-series-0 highcharts-treemap-series highcharts-color-0 highcharts-tracker" data-z-index=".1" clip-path="url(#b)" aria-hidden="false" stroke="#e6e6e6" transform="translate(10 84)"><g class="highcharts-level-group-3" data-z-index="997" aria-hidden="true"><path fill="#2b908f" class="highcharts-point" tabindex="-1" aria-hidden="true" style="outline:0" d="M426.5 232.5h18v17h-18zm18-18h4v35h-4zm-18 0h18v18h-18zm51 79h2v4h-2zm0-7h2v3h-2zm0 6h2v1h-2zm0-3h2v3h-2zm-59-25h8v24h-8zm0 24h8v12h-8zm-40-24h40v36h-40zm75-87h2v37h-2zm-27 33h27v4h-27zm0-33h27v33h-27zm18 72h4v25h-4zm-18 16h18v9h-18zm0-16h18v16h-18zm42 45h8v1h-8zm8-9h1v10h-1zm-8 0h8v9h-8zm9-1h2v2h-2zm0-8h2v8h-2zm-9-3h9v1h-9zm0-11h9v11h-9zm8 12h1v11h-1zm-8 9h8v2h-8zm0-9h8v9h-8zm-42 22h21v4h-21zm21-22h1v26h-1zm-21 0h21v22h-21zm51-1h2v3h-2zm0-11h2v11h-2zm-99-31h44v33h-44zm44-54h4v87h-4zm-44 0h44v54h-44zm99 122h2v1h-2zm0-2h2v2h-2zm-15-4h6v7h-6zm0-9h6v9h-6zm-14 0h14v16h-14zm0-41h18v16h-18zm18 0h2v21h-2zm-18 16h18v5h-18zm0 5h18v14h-18zm18 0h2v20h-2zm-18 14h18v6h-18zm7-79h21v15h-21zm21-22h3v37h-3zm-21 0h21v22h-21zm10 52h14v14h-14zm0-15h14v15h-14zm3 47h11v1h-11zm0-18h11v18h-11zm7 56h2v1h-2zm0-4h2v4h-2zm-7 0h7v5h-7zm-20-60h14v8h-14zm14-21h3v29h-3zm-14 0h14v21h-14z"/><path fill="#90ee7e" class="highcharts-point" tabindex="-1" aria-hidden="true" style="outline:0" d="M576.5 269.5h3v1h-3zm0-9h3v9h-3zm0-12h3v12h-3zm-16 49h1v3h-1zm0-6h1v6h-1zm-11 0h11v9h-11zm12-49h9v1h-9zm0-9h9v9h-9zm-24 53h12v1h-12zm0-12h12v12h-12zm12-30h11v1h-11zm11-11h1v12h-1zm-11 0h11v11h-11zm20 39h7v1h-7zm0-7h7v7h-7zm-20-20h12v12h-12zm12 6h8v1h-8zm0-8h8v8h-8zm15 51h3v3h-3zm2-71h1v5h-1zm0 5h1v5h-1zm-13-5h13v10h-13zm-4 45h8v1h-8zm0-8h8v8h-8zm15 28h3v6h-3zm-15-36h8v8h-8zm-51 4h25v2h-25zm25-25h2v27h-2zm-25 0h25v25h-25zm51 46h8v8h-8zm-82 21h30v2h-30zm30-35h1v37h-1zm-30 0h30v35h-30zm85-40h1v5h-1zm0 5h1v5h-1zm-15-5h15v10h-15zm-12 76h12v1h-12zm0-12h12v12h-12zm38 1h1v4h-1zm0 4h1v2h-1zm-6-4h6v6h-6zm9-45h1v4h-1zm0 4h1v1h-1zm-9-4h9v5h-9zm7-66h3v14h-3zm0 14h3v11h-3zm-30-14h30v25h-30zm-9 79h12v2h-12zm0-14h12v14h-12zm32 45h6v1h-6zm6-6h1v7h-1zm-6 0h6v6h-6zm6 17h1v2h-1zm0-4h1v4h-1zm-6 0h6v6h-6zm0-38h7v1h-7zm0-8h7v8h-7zm7 49h3v3h-3zm-39-24h12v1h-12zm0-15h12v15h-12zm32 22h6v1h-6zm6-7h1v8h-1zm-6 0h6v7h-6zm-9-58h2v8h-2zm0-13h2v13h-2zm-23 0h23v21h-23zm12 78h12v1h-12zm0-11h12v11h-12zm19 24h1v3h-1zm0 3h1v4h-1zm-7-3h7v7h-7zm1-71h16v1h-16zm16-20h1v21h-1zm-16 0h16v20h-16zm-54-25h2v86h-2zm-29 78h29v8h-29zm0-78h29v78h-29zm70 80h12v12h-12zm12 19h8v1h-8zm0-7h8v7h-8zm15 9h3v1h-3zm0-8h3v8h-3zm-41 10h2v11h-2zm0 11h2v9h-2zm-25-11h25v20h-25zm50 1h1v5h-1zm0 5h1v5h-1zm-11-5h11v10h-11zm21-39h9v1h-9zm0-9h9v9h-9zm-9 58h7v2h-7zm7-6h1v8h-1zm-7 0h7v6h-7zm15 2h3v1h-3zm0-8h3v8h-3zm-42-9h3v10h-3zm0-12h3v12h-3zm-24 0h24v22h-24zm59 6h6v1h-6zm6-7h1v8h-1zm-6 0h6v7h-6zm-27-64h4v9h-4zm0-16h4v16h-4zm-32 0h32v25h-32zm0 52h26v2h-26zm26-27h1v29h-1zm-26 0h26v27h-26zm27 37h12v3h-12zm0-16h12v16h-12z"/><path fill="#f45b5b" class="highcharts-point" tabindex="-1" aria-hidden="true" style="outline:0" d="M327.5 263.5h14v3h-14zm14-16h1v19h-1zm-14 0h14v16h-14zm-20-15h18v17h-18zm18 0h2v25h-2zm-18 17h18v8h-18zm48 3h10v8h-10zm10 0h1v14h-1zm-10 8h10v6h-10zm18 20h4v3h-4zm0 3h4v3h-4zm-31-44h12v10h-12zm12 0h1v17h-1zm-12 10h12v7h-12zm26-10h9v8h-9zm9 0h1v13h-1zm-9 8h9v5h-9zm-5-44h14v14h-14zm14 0h1v22h-1zm-14 14h14v8h-14zm14 79h1v1h-1zm0-3h1v3h-1zm-11-41h7v8h-7zm7 6h5v2h-5zm0-6h5v6h-5zm-46 14h14v12h-14zm14 0h1v17h-1zm-14 12h14v5h-14zm50 9h1v3h-1zm0 5h1v1h-1zm0-2h1v2h-1zm-11-10h6v4h-6zm6 0h1v7h-1zm-6 4h6v3h-6zm-21-81h16v13h-16zm16 0h2v22h-2zm-16 13h16v9h-16zm-72 53h30v21h-30zm30 0h4v31h-4zm-30 21h30v10h-30zm104-12h1v5h-1zm0 8h1v1h-1zm0-3h1v3h-1zm-11 4h6v4h-6zm6 0h1v7h-1zm-6 4h6v3h-6zm-59-114h20v26h-20zm20 20h21v6h-21zm0-20h21v20h-21zm46 114h4v2h-4zm0 2h4v3h-4zm0-7h4v3h-4zm0 3h4v2h-4zm-46-64h14v11h-14zm14 0h1v22h-1zm-14 11h14v11h-14zm15 51h12v8h-12zm12 0h1v13h-1zm-12 8h12v5h-12zm31-28h4v5h-4zm0 5h4v2h-4zm-66-15h18v14h-18zm18 0h2v22h-2zm-18 14h18v8h-18zm66-11h5v5h-5zm0 5h5v2h-5zm-7 8h6v5h-6zm6 0h1v7h-1zm-6 5h6v2h-6zm-5-53h8v14h-8zm8 11h9v3h-9zm0-11h9v11h-9zm-27 31h12v11h-12zm12 0h1v16h-1zm-12 11h12v5h-12zm-15 16h14v11h-14zm14 0h1v17h-1zm-14 11h14v6h-14zm39 0h4v6h-4zm4 5h3v1h-3zm0-5h3v5h-3zm7-17h1v1h-1zm0-10h1v10h-1zm-50-64h17v14h-17zm17 0h1v22h-1zm-17 14h17v8h-17zm46 57h4v3h-4zm0 3h4v3h-4zm-31-52h12v14h-12zm12 10h7v4h-7zm0-10h7v10h-7zm-81-48h31v66h-31zm31 0h3v92h-3zm-31 66h31v26h-31zm82 52h9v5h-9zm9-5h2v10h-2zm-9 0h9v5h-9zm22 7h1v1h-1zm0 1h1v1h-1zm-22-32h10v6h-10zm10 0h1v12h-1zm-10 6h10v6h-10zm22 27h1v1h-1zm-22-21h10v8h-10zm10 0h1v12h-1zm-10 8h10v4h-10zm8-109h15v22h-15zm0 22h15v4h-15zm-15-22h15v26h-15zm25 119h4v2h-4zm0 2h4v2h-4zm-7-38h6v7h-6zm6 0h1v13h-1zm-6 7h6v6h-6zm-59 12h18v13h-18zm18 0h2v21h-2zm-18 13h18v8h-18zm0-89h18v18h-18zm18 0h2v29h-2zm-18 18h18v11h-18zm35 51h12v10h-12zm12 0h1v15h-1zm-12 10h12v5h-12zm13-43h13v9h-13zm0 9h13v4h-13z"/><path fill="#7798BF" class="highcharts-point" tabindex="-1" aria-hidden="true" style="outline:0" d="M556.5 24.5h21v4h-21zm21-25h2v29h-2zm-21 0h21v25h-21zm22 173h1v3h-1zm0-4h1v4h-1zm0 7h1v1h-1zm-8-67h6v6h-6zm6-14h2v20h-2zm-6 0h6v14h-6zm-64 51h44v8h-44zm44-42h6v50h-6zm-44 0h44v42h-44zm63-75h1v36h-1zm-13 34h13v2h-13zm0-34h13v34h-13zm0 135h13v1h-13zm13-14h1v15h-1zm-13 0h13v14h-13zm13-85h1v36h-1zm-13 29h13v7h-13zm0-29h13v29h-13zm22 11h1v2h-1zm0 2h1v3h-1zm0-28h1v26h-1zm-22 127h13v1h-13zm13-12h1v13h-1zm-13 0h13v12h-13zm14-37h6v4h-6zm6-13h2v17h-2zm-6 0h6v13h-6zm0-24h7v4h-7zm7-18h1v22h-1zm-7 0h7v18h-7zm7 59h1v11h-1zm-7 8h7v3h-7zm0-8h7v8h-7zm8 45h1v1h-1zm-8-111h6v7h-6zm6-16h2v23h-2zm-6 0h6v16h-6zm8 110h1v2h-1zm0 2h1v1h-1zm0-8h1v6h-1zm-8-112h8v8h-8zm8-13h1v21h-1zm-8 0h8v13h-8zm7 114h1v9h-1zm-7 6h7v3h-7zm0-6h7v6h-7zm8-13h1v3h-1zm0 3h1v3h-1zm0-24h1v21h-1zm-32 58h10v11h-10zm0-13h10v13h-10zm-40 0h40v24h-40zm64 23h7v1h-7zm7-6h1v7h-1zm-7 0h7v6h-7zm8-69h1v4h-1zm0 4h1v3h-1zm0-25h1v21h-1zm-8 79h7v2h-7zm7-8h1v10h-1zm-7 0h7v8h-7zm-14-8h13v6h-13zm13-19h1v25h-1zm-13 0h13v19h-13zm22 42h1v2h-1zm0-4h1v4h-1zm0-11h1v1h-1zm0 1h1v1h-1zm0-17h1v16h-1zm-24-136h2v104h-2zm-48 97h48v7h-48zm0-97h48v97h-48zm64 170h7v1h-7zm7-8h1v9h-1zm-7 0h7v8h-7zm-1-61h1v24h-1zm-13 19h13v5h-13zm0-19h13v19h-13z"/><path fill="#aee" class="highcharts-point" tabindex="-1" aria-hidden="true" style="outline:0" d="M505.5 68.5h1v28h-1zm-16 26h16v2h-16zm0-26h16v26h-16zm0 78h12v7h-12zm12-15h1v22h-1zm-12 0h12v15h-12zm-50-132h7v178h-7zm-166 165h166v13h-166zm0-165h166v165h-166zm229 174h4v1h-4zm0-4h4v4h-4zm-56-111h57v10h-57zm57-59h3v69h-3zm-57 0h57v59h-57zm50 167h6v9h-6zm0 9h6v2h-6zm-7-9h7v11h-7zm0-42h12v7h-12zm12-28h1v35h-1zm-12 0h12v28h-12zm13 70h3v3h-3zm3-16h1v19h-1zm-3 0h3v16h-3zm0-29h4v2h-4zm0-25h4v25h-4zm-13 65h12v5h-12zm12-8h1v13h-1zm-12 0h12v8h-12zm-43-49h40v13h-40zm40-36h3v49h-3zm-40 0h40v36h-40zm34 100h9v9h-9zm0-11h9v11h-9zm-34 0h34v20h-34zm56-14h4v6h-4zm0 6h4v1h-4zm0-26h4v20h-4zm3 51h1v3h-1zm-3 0h3v3h-3zm-56-23h38v6h-38zm38-34h5v40h-5zm-38 0h38v34h-38z"/><path fill="#f06" class="highcharts-point" tabindex="-1" aria-hidden="true" style="outline:0" d="M225.5 77.5h44v29h-44zm44-78h4v107h-4zm-44 0h44v78h-44zm0 296h35v5h-35zm35-32h2v37h-2zm-35 0h35v32h-35zm-226-91h201v79H-.5zm201-173h25v252h-25zm-201 0h201v173H-.5zm164 252h49v49h-49zm49 0h13v49h-13zm-213 0h164v49H-.5zm226-6h34v18h-34zm34-51h3v69h-3zm-34 0h34v51h-34zm37-20h11v25h-11zm0 25h11v13h-11zm0-93h11v68h-11zm0 182h11v7h-11zm0-10h11v10h-11zm0-66h11v66h-11zm-37-36h33v18h-33zm33-70h4v88h-4zm-33 0h33v70h-33zm37 189h5v5h-5zm9 0h2v5h-2zm-4 0h4v5h-4z"/></g><g class="highcharts-level-group-2" data-z-index="998" aria-hidden="false" tabindex="-1" aria-label="Regions, series 1 of 1 with 738 data points." style="outline:0" cursor="pointer"><path fill="rgba(43,144,143,0.15)" class="highcharts-point highcharts-internal-node-interactive" tabindex="-1" aria-hidden="true" style="outline:0" d="M426.5 214.5h22v35h-22zm51 79h2v4h-2zm0-7h2v7h-2zm-99-22h48v36h-48zm48-87h29v37h-29zm0 72h22v25h-22zm42 36h9v10h-9zm9-9h2v10h-2zm-9-14h9v12h-9zm0 12h9v11h-9zm-42 0h22v26h-22zm51-12h2v14h-2zm-99-85h48v87h-48zm99 120h2v3h-2zm-29-13h20v16h-20zm0-41h20v21h-20zm0 21h20v20h-20zm7-87h24v37h-24zm10 37h14v29h-14zm3 29h11v19h-11zm0 52h9v5h-9zm-20-81h17v29h-17z"/><path fill="rgba(144,238,126,0.15)" class="highcharts-point highcharts-internal-node-interactive" tabindex="-1" aria-hidden="true" style="outline:0" d="M576.5 260.5h3v10h-3zm0-12h3v12h-3zm-27 43h12v9h-12zm12-58h9v10h-9zm-24 41h12v13h-12zm12-41h12v12h-12zm20 32h7v8h-7zm-20-20h12v12h-12zm12-2h8v9h-8zm15 51h3v3h-3zm-11-71h14v10h-14zm-4 37h8v9h-8zm15 28h3v6h-3zm-15-36h8v8h-8zm-51-21h27v27h-27zm51 46h8v8h-8zm-82-14h31v37h-31zm70-40h16v10h-16zm-12 64h12v13h-12zm32 1h7v6h-7zm0-45h10v5h-10zm-23-66h33v25h-33zm-9 65h12v16h-12zm32 39h7v7h-7zm0 13h7v6h-7zm0-46h7v9h-7zm7 49h3v3h-3zm-39-39h12v16h-12zm32 15h7v8h-7zm-32-71h25v21h-25zm12 67h12v12h-12zm12 24h8v7h-8zm1-91h17v21h-17zm-83-25h31v86h-31zm70 80h12v12h-12zm12 12h8v8h-8zm15 1h3v9h-3zm-66 10h27v20h-27zm39 1h12v10h-12zm21-48h9v10h-9zm-9 52h8v8h-8zm15-6h3v9h-3zm-66-21h27v22h-27zm59-1h7v8h-7zm-59-80h36v25h-36zm0 25h27v29h-27zm27 21h12v19h-12z"/><path fill="rgba(244,91,91,0.15)" class="highcharts-point highcharts-internal-node-interactive" tabindex="-1" aria-hidden="true" style="outline:0" d="M327.5 247.5h15v19h-15zm-20-15h20v25h-20zm48 20h11v14h-11zm18 28h4v6h-4zm-31-41h13v17h-13zm26 0h10v13h-10zm-5-36h15v22h-15zm14 90h1v4h-1zm-11-41h12v8h-12zm-39 14h15v17h-15zm50 21h1v6h-1zm-11-7h7v7h-7zm-21-77h18v22h-18zm-72 66h34v31h-34zm104 9h1v9h-1zm-11 9h7v7h-7zm-59-110h41v26h-41zm66 114h4v5h-4zm0-5h4v5h-4zm-46-61h15v22h-15zm15 62h13v13h-13zm31-20h4v7h-4zm-66-10h20v22h-20zm66 3h5v7h-5zm-7 13h7v7h-7zm-5-48h17v14h-17zm-19 31h13v16h-13zm-15 27h15v17h-15zm39 11h7v6h-7zm11-27h1v11h-1zm-50-64h18v22h-18zm46 71h4v6h-4zm-31-49h19v14h-19zm-69-48h34v92h-34zm82 113h11v10h-11zm22 7h1v2h-1zm-22-31h11v12h-11zm22 33h1v1h-1zm-22-21h11v12h-11zm-7-101h30v26h-30zm25 119h4v4h-4zm-7-36h7v13h-7zm-59 19h20v21h-20zm0-76h20v29h-20zm35 69h13v15h-13zm13-33h13v13h-13z"/><path fill="rgba(119,152,191,0.15)" class="highcharts-point highcharts-internal-node-interactive" tabindex="-1" aria-hidden="true" style="outline:0" d="M556.5-.5h23v29h-23zm22 173h1v3h-1zm0-4h1v4h-1zm0 7h1v1h-1zm-8-81h8v20h-8zm-64 9h50v50h-50zm50-75h14v36h-14zm0 121h14v15h-14zm0-85h14v36h-14zm22-15h1v31h-1zm-22 115h14v13h-14zm14-50h8v17h-8zm0-42h8v22h-8zm0 59h8v11h-8zm8 45h1v1h-1zm-8-127h8v23h-8zm8 104h1v9h-1zm-8-125h9v21h-9zm0 114h8v9h-8zm8-34h1v27h-1zm-72 45h50v24h-50zm64 17h8v7h-8zm8-90h1v28h-1zm-8 71h8v10h-8zm-14-27h14v25h-14zm22 38h1v6h-1zm0-27h1v18h-1zm-72-136h50v104h-50zm64 162h8v9h-8zm-14-61h14v24h-14z"/><path fill="rgba(170,238,238,0.15)" class="highcharts-point highcharts-internal-node-interactive" tabindex="-1" aria-hidden="true" style="outline:0" d="M489.5 68.5h17v28h-17zm0 63h13v22h-13zm-216-132h173v178h-173zm229 170h4v5h-4zm-56-170h60v69h-60zm43 167h13v11h-13zm0-70h13v35h-13zm13 54h4v19h-4zm0-54h4v27h-4zm-13 57h13v13h-13zm-43-85h43v49h-43zm0 89h43v20h-43zm56-34h4v27h-4zm0 51h4v3h-4zm-56-57h43v40h-43z"/><path fill="rgba(255,0,102,0.15)" class="highcharts-point highcharts-internal-node-interactive" tabindex="-1" aria-hidden="true" style="outline:0" d="M225.5-.5h48v107h-48zm0 264h37v37h-37zM-.5-.5h226v252H-.5zm0 252h226v49H-.5zm226-57h37v69h-37zm37-88h11v106h-11zm0 106h11v83h-11zm-37-106h37v88h-37zm37 189h11v5h-11z"/></g><g class="highcharts-level-group-1" data-z-index="999" aria-hidden="true" stroke-width="3" cursor="pointer"><path fill="rgba(43,144,143,0.15)" class="highcharts-point highcharts-internal-node-interactive" tabindex="-1" aria-hidden="true" style="outline:0" d="M378.5 177.5h101v123h-101z"/><path fill="rgba(144,238,126,0.15)" class="highcharts-point highcharts-internal-node-interactive" tabindex="-1" aria-hidden="true" style="outline:0" d="M479.5 177.5h100v123h-100z"/><path fill="rgba(244,91,91,0.15)" class="highcharts-point highcharts-internal-node-interactive" tabindex="-1" aria-hidden="true" style="outline:0" d="M273.5 177.5h105v123h-105z"/><path fill="rgba(119,152,191,0.15)" class="highcharts-point highcharts-internal-node-interactive" tabindex="-1" aria-hidden="true" style="outline:0" d="M506.5-.5h73v178h-73z"/><path fill="rgba(170,238,238,0.15)" class="highcharts-point highcharts-internal-node-interactive" tabindex="-1" aria-hidden="true" style="outline:0" d="M273.5-.5h233v178h-233z"/><path fill="rgba(255,0,102,0.15)" class="highcharts-point highcharts-internal-node-interactive" tabindex="-1" aria-hidden="true" style="outline:0" d="M-.5-.5h274v301H-.5z"/></g></g></g><text x="300" text-anchor="middle" class="highcharts-title" data-z-index="4" style="color:#e0e0e3;font-size:20px;text-transform:uppercase;fill:#e0e0e3" y="25" aria-hidden="true">Global Mortality Rate 2012, per 100 000<tspan dy="23" x="300">​</tspan>population</text><text x="300" text-anchor="middle" class="highcharts-subtitle" data-z-index="4" style="color:#e0e0e3;text-transform:uppercase;fill:#e0e0e3" y="69" aria-hidden="true">Click points to drill down. Source: <a><tspan>WHO</tspan></a>.</text><g class="highcharts-data-labels highcharts-series-0 highcharts-treemap-series highcharts-color-0 highcharts-tracker" data-z-index="6" aria-hidden="true"><text x="5" data-z-index="1" y="19" style="color:#f0f0f3;font-size:14px;font-weight:700;fill:#f0f0f3" transform="translate(385 310)" class="highcharts-label highcharts-data-label highcharts-data-label-color-undefined"><tspan class="highcharts-text-outline" fill="#000" stroke="#000" stroke-width="2" stroke-linejoin="round">Eastern Med…<tspan x="5" dy="0">​</tspan></tspan>Eastern Med…</text><text x="5" data-z-index="1" y="19" style="color:#f0f0f3;font-size:14px;font-weight:700;fill:#f0f0f3" transform="translate(510 310)" class="highcharts-label highcharts-data-label highcharts-data-label-color-undefined"><tspan class="highcharts-text-outline" fill="#000" stroke="#000" stroke-width="2" stroke-linejoin="round">Europe<tspan x="5" dy="0">​</tspan></tspan>Europe</text><text x="5" data-z-index="1" y="19" style="color:#f0f0f3;font-size:14px;font-weight:700;fill:#f0f0f3" transform="translate(311 310)" class="highcharts-label highcharts-data-label highcharts-data-label-color-undefined"><tspan class="highcharts-text-outline" fill="#000" stroke="#000" stroke-width="2" stroke-linejoin="round">Africa<tspan x="5" dy="0">​</tspan></tspan>Africa</text><text x="5" data-z-index="1" y="19" style="color:#f0f0f3;font-size:14px;font-weight:700;fill:#f0f0f3" transform="translate(516 160)" class="highcharts-label highcharts-data-label highcharts-data-label-color-undefined"><tspan class="highcharts-text-outline" fill="#000" stroke="#000" stroke-width="2" stroke-linejoin="round">Americas<tspan x="5" dy="0">​</tspan></tspan>Americas</text><text x="5" data-z-index="1" y="19" style="color:#f0f0f3;font-size:14px;font-weight:700;fill:#f0f0f3" transform="translate(343 160)" class="highcharts-label highcharts-data-label highcharts-data-label-color-undefined"><tspan class="highcharts-text-outline" fill="#000" stroke="#000" stroke-width="2" stroke-linejoin="round">Western Pacific<tspan x="5" dy="0">​</tspan></tspan>Western Pacific</text><text x="5" data-z-index="1" y="19" style="color:#f0f0f3;font-size:14px;font-weight:700;fill:#f0f0f3" transform="translate(88 222)" class="highcharts-label highcharts-data-label highcharts-data-label-color-undefined"><tspan class="highcharts-text-outline" fill="#000" stroke="#000" stroke-width="2" stroke-linejoin="round">South-East Asia<tspan x="5" dy="0">​</tspan></tspan>South-East Asia</text></g></svg>