<svg class="highcharts-root" style="font-family:&quot;Unica One&quot;,sans-serif;font-size:12px" xmlns="http://www.w3.org/2000/svg" width="600" height="500" aria-label="Interactive chart" aria-hidden="false"><defs aria-hidden="true"><linearGradient x1="0" y1="0" x2="1" y2="1" id="a"><stop offset="0" stop-color="#2a2a2b"/><stop offset="1" stop-color="#3e3e40"/></linearGradient></defs><rect fill="url(#a)" class="highcharts-background" width="600" height="500" rx="0" ry="0" aria-hidden="true"/><path fill="none" class="highcharts-plot-background" aria-hidden="true" d="M10 70h580v415H10z"/><path fill="none" class="highcharts-plot-border" data-z-index="1" aria-hidden="true" d="M10 70h580v415H10z"/><g class="highcharts-series-group" data-z-index="3" aria-hidden="false"><g class="highcharts-series highcharts-series-0 highcharts-variablepie-series highcharts-tracker" data-z-index=".1" aria-hidden="false" stroke="#fff" stroke-linejoin="round"><path fill="#2b908f" d="M289.971 67a141.5 141.5 0 0 1 140.93 128.5l-101.767 9.39a39.3 39.3 0 0 0-39.142-35.69Z" transform="translate(10 70)" class="highcharts-point highcharts-color-0" tabindex="-1" aria-label="Spain, y: 505,992, z: 92. countries." style="outline:0"/><path fill="#90ee7e" d="M443.86 194.46a154.5 154.5 0 0 1-146.17 168.348l-5.734-115.057a39.3 39.3 0 0 0 37.181-42.822Z" transform="translate(10 70)" class="highcharts-point highcharts-color-1" tabindex="-1" aria-label="France, y: 551,695, z: 119. countries." style="outline:0"/><path fill="#f45b5b" d="M297.56 363.316a155 155 0 0 1-125.45-54.183l88-75.118a39.3 39.3 0 0 0 31.807 13.738Z" transform="translate(10 70)" class="highcharts-point highcharts-color-2" tabindex="-1" aria-label="Poland, y: 312,679, z: 121. countries." style="outline:0"/><path fill="#7798BF" d="M167.062 313.23a161.5 161.5 0 0 1-20.565-30.641l108.582-56.06a39.3 39.3 0 0 0 5.005 7.456Z" transform="translate(10 70)" class="highcharts-point highcharts-color-3" tabindex="-1" aria-label="Czech Republic, y: 78,865, z: 136. countries." style="outline:0"/><path fill="#aee" d="M125.087 293.434a185.5 185.5 0 0 1-5.55-158.094L253.885 193a39.3 39.3 0 0 0 1.175 33.494Z" transform="translate(10 70)" class="highcharts-point highcharts-color-4" tabindex="-1" aria-label="Italy, y: 301,336, z: 200. countries." style="outline:0"/><path fill="#f06" d="M115.935 133.588a189.5 189.5 0 0 1 10.125-20.135L256 188.788a39.3 39.3 0 0 0-2.099 4.176Z" transform="translate(10 70)" class="highcharts-point highcharts-color-5" tabindex="-1" aria-label="Switzerland, y: 41,284, z: 213. countries." style="outline:0"/><path fill="#eae" d="M120.103 109.772A196.5 196.5 0 0 1 289.727 12l.218 157.2a39.3 39.3 0 0 0-33.924 19.554Z" transform="translate(10 70)" class="highcharts-point highcharts-color-6" tabindex="-1" aria-label="Germany, y: 357,114, z: 235. countries." style="outline:0"/></g></g><text x="300" text-anchor="middle" class="highcharts-title" data-z-index="4" style="color:#e0e0e3;font-size:20px;text-transform:uppercase;fill:#e0e0e3" y="25" aria-hidden="true">Countries compared by population density<tspan dy="23" x="300">​</tspan>and total area, 2022.</text><g class="highcharts-data-labels highcharts-series-0 highcharts-variablepie-series highcharts-tracker" data-z-index="6" aria-hidden="true"><path fill="none" class="highcharts-data-label-connector highcharts-color-0" stroke="#2b908f" d="M420.604 151.82c-5 0-17.133 13.296-21.178 17.728l-4.044 4.431"/><path fill="none" class="highcharts-data-label-connector highcharts-color-1" stroke="#90ee7e" d="M444.295 399.484c-5 0-18.59-11.803-23.12-15.738l-4.53-3.934"/><path fill="none" class="highcharts-data-label-connector highcharts-color-2" stroke="#f45b5b" d="M221.597 448.314c5 0 12.141-16.522 14.522-22.03l2.38-5.507"/><path fill="none" class="highcharts-data-label-connector highcharts-color-3" stroke="#7798BF" d="M135.917 385.106c5 0 19.953-10.02 24.937-13.36l4.984-3.341"/><path fill="none" class="highcharts-data-label-connector highcharts-color-4" stroke="#aee" d="M79.629 285.95c5 0 22.989-.623 28.985-.83l5.997-.208"/><path fill="none" class="highcharts-data-label-connector highcharts-color-5" stroke="#f06" d="M98.935 179.815c5 0 21.078 8.093 26.438 10.79l5.359 2.698"/><path fill="none" class="highcharts-data-label-connector highcharts-color-6" stroke="#eae" d="M182.05 82.172c5 0 13.976 15.602 16.969 20.803l2.992 5.2"/><text x="5" data-z-index="1" y="18" style="color:#f0f0f3;font-size:13px;font-weight:700;fill:#f0f0f3" transform="translate(426 142)" class="highcharts-label highcharts-data-label highcharts-data-label-color-0"><tspan class="highcharts-text-outline" fill="#000" stroke="#000" stroke-width="2" stroke-linejoin="round">Spain<tspan x="5" dy="0">​</tspan></tspan>Spain</text><text x="5" data-z-index="1" y="18" style="color:#f0f0f3;font-size:13px;font-weight:700;fill:#f0f0f3" transform="translate(449 389)" class="highcharts-label highcharts-data-label highcharts-data-label-color-1"><tspan class="highcharts-text-outline" fill="#000" stroke="#000" stroke-width="2" stroke-linejoin="round">France<tspan x="5" dy="0">​</tspan></tspan>France</text><text x="5" data-z-index="1" y="18" style="color:#f0f0f3;font-size:13px;font-weight:700;fill:#f0f0f3" transform="translate(163 438)" class="highcharts-label highcharts-data-label highcharts-data-label-color-2"><tspan class="highcharts-text-outline" fill="#000" stroke="#000" stroke-width="2" stroke-linejoin="round">Poland<tspan x="5" dy="0">​</tspan></tspan>Poland</text><text x="5" data-z-index="1" y="18" style="color:#f0f0f3;font-size:13px;font-weight:700;fill:#f0f0f3" transform="translate(24 375)" class="highcharts-label highcharts-data-label highcharts-data-label-color-3"><tspan class="highcharts-text-outline" fill="#000" stroke="#000" stroke-width="2" stroke-linejoin="round">Czech Republic<tspan x="5" dy="0">​</tspan></tspan>Czech Republic</text><text x="5" data-z-index="1" y="18" style="color:#f0f0f3;font-size:13px;font-weight:700;fill:#f0f0f3" transform="translate(39 276)" class="highcharts-label highcharts-data-label highcharts-data-label-color-4"><tspan class="highcharts-text-outline" fill="#000" stroke="#000" stroke-width="2" stroke-linejoin="round">Italy<tspan x="5" dy="0">​</tspan></tspan>Italy</text><text x="5" data-z-index="1" y="18" style="color:#f0f0f3;font-size:13px;font-weight:700;fill:#f0f0f3" transform="translate(12 170)" class="highcharts-label highcharts-data-label highcharts-data-label-color-5"><tspan class="highcharts-text-outline" fill="#000" stroke="#000" stroke-width="2" stroke-linejoin="round">Switzerland<tspan x="5" dy="0">​</tspan></tspan>Switzerland</text><text x="5" data-z-index="1" y="18" style="color:#f0f0f3;font-size:13px;font-weight:700;fill:#f0f0f3" transform="translate(111 72)" class="highcharts-label highcharts-data-label highcharts-data-label-color-6"><tspan class="highcharts-text-outline" fill="#000" stroke="#000" stroke-width="2" stroke-linejoin="round">Germany<tspan x="5" dy="0">​</tspan></tspan>Germany</text></g></svg>