<svg class="highcharts-root" style="font-family:&quot;Unica One&quot;,sans-serif;font-size:12px" xmlns="http://www.w3.org/2000/svg" width="600" height="400" aria-label="Interactive chart" aria-hidden="false"><defs aria-hidden="true"><linearGradient x1="0" y1="0" x2="1" y2="1" id="a"><stop offset="0" stop-color="#2a2a2b"/><stop offset="1" stop-color="#3e3e40"/></linearGradient><clipPath id="b"><path fill="none" d="M0 0h508v261H0z"/></clipPath></defs><rect fill="url(#a)" class="highcharts-background" width="600" height="400" rx="0" ry="0" aria-hidden="true"/><path fill="none" class="highcharts-plot-background" aria-hidden="true" d="M82 47h508v261H82z"/><g class="highcharts-grid highcharts-xaxis-grid" data-z-index="1" aria-hidden="true" fill="none"><path data-z-index="1" class="highcharts-grid-line" d="M154.5 47v261m72-261v261m73-261v261m72-261v261m73-261v261m72-261v261m73-261v261M81.5 47v261"/></g><g class="highcharts-grid highcharts-yaxis-grid" data-z-index="1" aria-hidden="true" fill="none" stroke="#707073"><path data-z-index="1" class="highcharts-grid-line" d="M82 308.5h508M82 46.5h508m-508 197h508m-508-65h508m-508-66h508"/></g><path fill="none" class="highcharts-plot-border" data-z-index="1" aria-hidden="true" d="M82 47h508v261H82z"/><g class="highcharts-axis highcharts-xaxis" data-z-index="2" aria-hidden="true"><path fill="none" class="highcharts-axis-line" stroke="#707073" data-z-index="7" d="M82 308.5h508"/></g><g class="highcharts-axis highcharts-yaxis" data-z-index="2" aria-hidden="true"><path fill="none" class="highcharts-tick" stroke="#707073" d="M82 308.5H72m10-262H72m10 197H72m10-65H72m10-66H72"/><text x="23.969" data-z-index="7" text-anchor="middle" transform="rotate(-90 23.969 177.5)" class="highcharts-axis-title" style="color:#a0a0a3;fill:#a0a0a3" y="177.5">USD</text><path fill="none" class="highcharts-axis-line" data-z-index="7" d="M82 47v261"/></g><g class="highcharts-series-group" data-z-index="3" aria-hidden="false"><g class="highcharts-series highcharts-series-0 highcharts-waterfall-series highcharts-tracker" data-z-index=".1" clip-path="url(#b)" aria-hidden="false" stroke="#333" transform="translate(82 47)"><path fill="#f45b5b" class="highcharts-point" tabindex="-1" aria-label="Start, 120,000." style="outline:0" d="M14.5 229.5h43v31h-43z"/><path fill="#f45b5b" class="highcharts-point" tabindex="-1" aria-label="Product Revenue, 569,000." style="outline:0" d="M86.5 80.5h44v149h-44z"/><path fill="#f45b5b" class="highcharts-point" tabindex="-1" aria-label="Service Revenue, 231,000." style="outline:0" d="M159.5 20.5h43v60h-43z"/><path fill="#90ee7e" class="highcharts-point highcharts-intermediate-sum" tabindex="-1" aria-label="Positive Balance, 920,000." style="outline:0" d="M231.5 20.5h44v240h-44z"/><path fill="#7798BF" class="highcharts-point highcharts-negative" tabindex="-1" aria-label="Fixed Costs, -342,000." style="outline:0" d="M304.5 20.5h43v89h-43z"/><path fill="#7798BF" class="highcharts-point highcharts-negative" tabindex="-1" aria-label="Variable Costs, -233,000." style="outline:0" d="M376.5 109.5h44v61h-44z"/><path fill="#90ee7e" class="highcharts-point highcharts-sum" tabindex="-1" aria-label="Balance, 345,000." style="outline:0" d="M449.5 170.5h43v90h-43z"/><path fill="none" d="M57.5 229.5h29m44-149h29m43-60h29m44 0h29m43 89h29m44 61h29" class="highcharts-graph" data-z-index="1" stroke-dasharray="1,3"/></g></g><text x="300" text-anchor="middle" class="highcharts-title" data-z-index="4" style="color:#e0e0e3;font-size:20px;text-transform:uppercase;fill:#e0e0e3" y="25" aria-hidden="true">Highcharts Waterfall</text><g class="highcharts-data-labels highcharts-series-0 highcharts-waterfall-series highcharts-tracker" data-z-index="6" aria-hidden="true"><text x="5" data-z-index="1" y="18" style="color:#f0f0f3;font-size:13px;font-weight:700;fill:#f0f0f3" transform="translate(99 280)" class="highcharts-label highcharts-data-label highcharts-data-label-color-undefined"><tspan class="highcharts-text-outline" fill="#000" stroke="#000" stroke-width="2" stroke-linejoin="round">120k<tspan x="5" dy="0">​</tspan></tspan>120k</text><text x="5" data-z-index="1" y="18" style="color:#f0f0f3;font-size:13px;font-weight:700;fill:#f0f0f3" transform="translate(171 190)" class="highcharts-label highcharts-data-label highcharts-data-label-color-undefined"><tspan class="highcharts-text-outline" fill="#000" stroke="#000" stroke-width="2" stroke-linejoin="round">569k<tspan x="5" dy="0">​</tspan></tspan>569k</text><text x="5" data-z-index="1" y="18" style="color:#f0f0f3;font-size:13px;font-weight:700;fill:#f0f0f3" transform="translate(244 85)" class="highcharts-label highcharts-data-label highcharts-data-label-color-undefined"><tspan class="highcharts-text-outline" fill="#000" stroke="#000" stroke-width="2" stroke-linejoin="round">231k<tspan x="5" dy="0">​</tspan></tspan>231k</text><text x="5" data-z-index="1" y="18" style="color:#f0f0f3;font-size:13px;font-weight:700;fill:#f0f0f3" transform="translate(316 175)" class="highcharts-label highcharts-data-label highcharts-data-label-color-undefined"><tspan class="highcharts-text-outline" fill="#000" stroke="#000" stroke-width="2" stroke-linejoin="round">920k<tspan x="5" dy="0">​</tspan></tspan>920k</text><text x="5" data-z-index="1" y="18" style="color:#f0f0f3;font-size:13px;font-weight:700;fill:#f0f0f3" transform="translate(386 100)" class="highcharts-label highcharts-data-label highcharts-data-label-color-undefined"><tspan class="highcharts-text-outline" fill="#000" stroke="#000" stroke-width="2" stroke-linejoin="round">-342k<tspan x="5" dy="0">​</tspan></tspan>-342k</text><text x="5" data-z-index="1" y="18" style="color:#f0f0f3;font-size:13px;font-weight:700;fill:#f0f0f3" transform="translate(459 175)" class="highcharts-label highcharts-data-label highcharts-data-label-color-undefined"><tspan class="highcharts-text-outline" fill="#000" stroke="#000" stroke-width="2" stroke-linejoin="round">-233k<tspan x="5" dy="0">​</tspan></tspan>-233k</text><text x="5" data-z-index="1" y="18" style="color:#f0f0f3;font-size:13px;font-weight:700;fill:#f0f0f3" transform="translate(534 250)" class="highcharts-label highcharts-data-label highcharts-data-label-color-undefined"><tspan class="highcharts-text-outline" fill="#000" stroke="#000" stroke-width="2" stroke-linejoin="round">345k<tspan x="5" dy="0">​</tspan></tspan>345k</text></g><g class="highcharts-axis-labels highcharts-xaxis-labels" data-z-index="7" aria-hidden="true" text-anchor="end"><text x="120.878" transform="rotate(-45 120.878 324)" style="color:#e0e0e3;cursor:default;font-size:11px;fill:#e0e0e3" y="324">Start</text><text x="193.45" transform="rotate(-45 193.45 324)" style="color:#e0e0e3;cursor:default;font-size:11px;fill:#e0e0e3" y="324">Product Revenue</text><text x="266.021" transform="rotate(-45 266.021 324)" style="color:#e0e0e3;cursor:default;font-size:11px;fill:#e0e0e3" y="324">Service Revenue</text><text x="338.593" transform="rotate(-45 338.593 324)" style="color:#e0e0e3;cursor:default;font-size:11px;fill:#e0e0e3" y="324">Positive Balance</text><text x="411.164" transform="rotate(-45 411.164 324)" style="color:#e0e0e3;cursor:default;font-size:11px;fill:#e0e0e3" y="324">Fixed Costs</text><text x="483.736" transform="rotate(-45 483.736 324)" style="color:#e0e0e3;cursor:default;font-size:11px;fill:#e0e0e3" y="324">Variable Costs</text><text x="556.307" transform="rotate(-45 556.307 324)" style="color:#e0e0e3;cursor:default;font-size:11px;fill:#e0e0e3" y="324">Balance</text></g><g class="highcharts-axis-labels highcharts-yaxis-labels" data-z-index="7" aria-hidden="true" text-anchor="end"><text x="67" style="color:#e0e0e3;cursor:default;font-size:11px;fill:#e0e0e3" y="313">0</text><text x="67" style="color:#e0e0e3;cursor:default;font-size:11px;fill:#e0e0e3" y="52">1 000k</text><text x="67" style="color:#e0e0e3;cursor:default;font-size:11px;fill:#e0e0e3" y="248">250k</text><text x="67" style="color:#e0e0e3;cursor:default;font-size:11px;fill:#e0e0e3" y="182">500k</text><text x="67" style="color:#e0e0e3;cursor:default;font-size:11px;fill:#e0e0e3" y="117">750k</text></g></svg>