<svg class="highcharts-root" style="font-family:&quot;Unica One&quot;,sans-serif;font-size:12px" xmlns="http://www.w3.org/2000/svg" width="600" height="300" aria-label="Interactive chart" aria-hidden="false"><defs aria-hidden="true"><clipPath id="b"><path fill="none" d="M0 0h500v180H0z"/></clipPath><clipPath id="c"><path fill="none" d="M4.5 20.5h42v20h-42z"/></clipPath><linearGradient x1="0" y1="0" x2="1" y2="1" id="a"><stop offset="0" stop-color="#2a2a2b"/><stop offset="1" stop-color="#3e3e40"/></linearGradient></defs><rect fill="url(#a)" class="highcharts-background" width="600" height="300" rx="0" ry="0" aria-hidden="true"/><path fill="none" class="highcharts-plot-background" aria-hidden="true" d="M90 47h500v180H90z"/><g class="highcharts-grid highcharts-xaxis-grid" data-z-index="1" aria-hidden="true" fill="none"><path data-z-index="1" class="highcharts-grid-line" d="M140.5 47v180m107-180v180m107-180v180m108-180v180m107-180v180"/></g><g class="highcharts-grid highcharts-yaxis-grid" data-z-index="1" aria-hidden="true" fill="none" stroke="#707073"><path data-z-index="1" class="highcharts-grid-line" d="M90 107.5h500m-500 60h500m-500 60h500M90 46.5h500"/></g><path fill="none" class="highcharts-plot-border" data-z-index="1" aria-hidden="true" d="M90 47h500v180H90z"/><g class="highcharts-axis highcharts-xaxis" data-z-index="2" aria-hidden="true" fill="none" stroke="#707073"><path class="highcharts-tick" d="M140.5 227v10m107-10v10m107-10v10m108-10v10m107-10v10"/><path class="highcharts-axis-line" data-z-index="7" d="M90 227.5h500"/></g><g class="highcharts-axis highcharts-yaxis" data-z-index="2" aria-hidden="true" fill="none"><path class="highcharts-tick" stroke="#707073" d="M90 107.5H80m10 60H80m10 60H80m10-181H80"/><path class="highcharts-axis-line" data-z-index="7" d="M90 47v180"/></g><g class="highcharts-series-group" data-z-index="3" aria-hidden="false"><g class="highcharts-series highcharts-series-0 highcharts-xrange-series highcharts-tracker" data-z-index=".1" clip-path="url(#b)" aria-hidden="false" transform="translate(90 47)"><g class="highcharts-point highcharts-color-0" tabindex="-1" aria-label="1. Prototyping, Fri Nov 21 2014 to Tue Dec 02 2014." style="outline:0" stroke="gray"><rect x="4.5" y="20.5" width="169" height="20" rx="3" ry="3" fill="#2b908f" class="highcharts-point highcharts-color-0 highcharts-partfill-original"/><rect x="4.5" y="20.5" width="169" height="20" rx="3" ry="3" fill="#004443" class="highcharts-partfill-overlay" clip-path="url(#c)"/></g><g class="highcharts-point highcharts-color-1" tabindex="-1" aria-label="2. Development, Tue Dec 02 2014 to Fri Dec 05 2014." style="outline:0"><rect x="173.5" y="80.5" width="46" height="20" rx="3" ry="3" fill="#90ee7e" class="highcharts-point highcharts-color-1 highcharts-partfill-original" stroke="gray"/></g><g class="highcharts-point highcharts-color-2" tabindex="-1" aria-label="3. Testing, Mon Dec 08 2014 to Tue Dec 09 2014." style="outline:0"><rect x="265.5" y="140.5" width="15" height="20" rx="3" ry="3" fill="#f45b5b" class="highcharts-point highcharts-color-2 highcharts-partfill-original" stroke="gray"/></g><g class="highcharts-point highcharts-color-1" tabindex="-1" aria-label="4. Development, Tue Dec 09 2014 to Fri Dec 19 2014." style="outline:0"><rect x="280.5" y="80.5" width="153" height="20" rx="3" ry="3" fill="#90ee7e" class="highcharts-point highcharts-color-1 highcharts-partfill-original" stroke="gray"/></g><g class="highcharts-point highcharts-color-2" tabindex="-1" aria-label="5. Testing, Wed Dec 10 2014 to Tue Dec 23 2014." style="outline:0"><rect x="295.5" y="140.5" width="200" height="20" rx="3" ry="3" fill="#f45b5b" class="highcharts-point highcharts-color-2 highcharts-partfill-original" stroke="gray"/></g></g></g><text x="300" text-anchor="middle" class="highcharts-title" data-z-index="4" style="color:#e0e0e3;font-size:20px;text-transform:uppercase;fill:#e0e0e3" y="25" aria-hidden="true">Highcharts X-range</text><g class="highcharts-data-labels highcharts-series-0 highcharts-xrange-series highcharts-tracker" data-z-index="6" aria-hidden="true"><text x="5" data-z-index="1" y="18" style="color:#f0f0f3;font-size:13px;font-weight:700;fill:#f0f0f3" transform="translate(161 65)" class="highcharts-label highcharts-data-label highcharts-data-label-color-0"><tspan class="highcharts-text-outline" fill="#000" stroke="#000" stroke-width="2" stroke-linejoin="round">25%<tspan x="5" dy="0">​</tspan></tspan>25%</text></g><g class="highcharts-legend highcharts-no-tooltip" data-z-index="7" transform="translate(256 259)" aria-hidden="true"><rect fill="rgba(0, 0, 0, 0.5)" class="highcharts-legend-box" rx="0" ry="0" width="87" height="26"/><g class="highcharts-legend-item highcharts-xrange-series highcharts-color-undefined highcharts-series-0" data-z-index="1" transform="translate(8 3)"><text x="21" data-z-index="2" y="15" style="color:#e0e0e3;cursor:pointer;font-size:12px;font-weight:700;fill:#e0e0e3">Project 1</text><rect x="2" y="4" width="12" height="12" fill="#ccc" rx="6" ry="6" class="highcharts-point" data-z-index="3"/></g></g><g class="highcharts-axis-labels highcharts-xaxis-labels" data-z-index="7" aria-hidden="true" text-anchor="middle"><text x="140.858" style="color:#e0e0e3;cursor:default;font-size:11px;fill:#e0e0e3" y="246">24. Nov</text><text x="248.088" style="color:#e0e0e3;cursor:default;font-size:11px;fill:#e0e0e3" y="246">1. Dec</text><text x="355.319" style="color:#e0e0e3;cursor:default;font-size:11px;fill:#e0e0e3" y="246">8. Dec</text><text x="462.549" style="color:#e0e0e3;cursor:default;font-size:11px;fill:#e0e0e3" y="246">15. Dec</text><text x="569.779" style="color:#e0e0e3;cursor:default;font-size:11px;fill:#e0e0e3" y="246">22. Dec</text></g><g class="highcharts-axis-labels highcharts-yaxis-labels" data-z-index="7" aria-hidden="true" text-anchor="end"><text x="75" style="color:#e0e0e3;cursor:default;font-size:11px;fill:#e0e0e3" y="82">Prototyping</text><text x="75" style="color:#e0e0e3;cursor:default;font-size:11px;fill:#e0e0e3" y="142">Development</text><text x="75" style="color:#e0e0e3;cursor:default;font-size:11px;fill:#e0e0e3" y="202">Testing</text></g></svg>