<svg class="highcharts-root" style="font-family:&quot;IBM Plex Sans&quot;,sans-serif;font-size:12px" xmlns="http://www.w3.org/2000/svg" width="600" height="400" aria-label="Interactive chart" aria-hidden="false"><defs aria-hidden="true"><clipPath id="b"><path fill="none" d="M0 0h600v400H0z"/></clipPath><clipPath id="c"><path fill="none" d="M0 0h600v400H0z"/></clipPath><clipPath id="d"><path fill="none" d="M0 0h600v400H0z"/></clipPath><linearGradient x1="0" y1="0" x2="0" y2="1" id="a"><stop offset="0" stop-color="#1f1836"/><stop offset="1" stop-color="#45445d"/></linearGradient></defs><rect fill="url(#a)" class="highcharts-background" width="600" height="400" rx="0" ry="0" aria-hidden="true"/><g stroke-linejoin="round" class="highcharts-3d-frame highcharts-3d-frame-bottom" data-z-index="-1000" aria-hidden="true" fill="none"><path d="m254.333 235.61 282.033 45.115L468.853 317l-288.235-48.154Z"/><path d="m536.684 281.232-67.837 36.472.006-.704 67.513-36.275Z"/><path d="m468.847 317.704-288.813-48.281.584-.577L468.853 317Z"/></g><g stroke-linejoin="round" class="highcharts-3d-frame highcharts-3d-frame-left" data-z-index="-1000" aria-hidden="true" fill="none"><path d="m252.752 57.977.226.213-74.76 27.86-.6-.083Zm.226.213 1.355 177.42-73.715 33.236-2.4-182.796Z"/><path d="m180.034 269.423-2.416-183.456.6.083 2.4 182.796Z"/></g><g stroke-linejoin="round" class="highcharts-3d-frame highcharts-3d-frame-back" data-z-index="-1000" aria-hidden="true" fill="none"><path d="M252.752 57.977 539.15 95.865l-.33.147L252.977 58.19Z"/><path d="m539.15 95.865-2.466 185.367-.318-.507 2.454-184.713Z"/><path d="M252.978 58.19 538.82 96.012l-2.454 184.713-282.033-45.114Z"/></g><path fill="none" class="highcharts-plot-background" aria-hidden="true" d="M125 50h465v267H125z"/><g class="highcharts-grid highcharts-yaxis-grid" data-z-index="1" aria-hidden="true" fill="none" stroke="#707073" stroke-dasharray="4,3"><path data-z-index="1" class="highcharts-grid-line" d="m254.336 235.939 282.026 45.127m-355.74-11.882 73.714-33.245m-.266-34.85L536.844 244.8M180.15 233.29l73.919-32.202m-.272-35.692 283.54 42.254M179.67 196.523l74.128-31.127m-.27-35.216 284.296 40.808M179.192 160.24l74.336-30.06m-.275-36.067 285.07 39.316m-359.619-10.355 74.549-28.961m-.277-36.26 285.849 37.809m-360.611-9.96 74.762-27.849"/></g><path fill="none" class="highcharts-plot-border" data-z-index="1" aria-hidden="true" d="M125 50h465v267H125z"/><g class="highcharts-axis highcharts-yaxis" data-z-index="2" aria-hidden="true"><path fill="none" class="highcharts-tick" stroke="#707073" d="M180.622 269.184h-7.037m6.566-35.894h-7.056m6.574-36.767h-7.076m6.599-36.283h-7.094m6.606-37.166h-7.113m6.623-37.371h-7.133"/><text x="79.505" data-z-index="7" text-anchor="middle" transform="rotate(-90 79.505 178.064)" class="highcharts-axis-title" style="color:#fff;font-weight:300;fill:#fff" y="178.064">Height Above Sea Level</text></g><g class="highcharts-series-group" data-z-index="3" aria-hidden="false"><g class="highcharts-series highcharts-series-2 highcharts-area-series" data-z-index="1" clip-path="url(#b)" aria-hidden="false" transform="translate(125 50)"><path fill="#E6DCB4" d="m130.892 39.369 7.62-5.153 7.821 22.49 7.701 2.65 7.795 17.56 7.732 3.927 7.742 2.861 7.779 8.282 7.76-1.286 7.764-9.203 7.807-2.06 7.852 17.51 7.852 16.217 7.852-24.823 7.87 31.379 7.949-52.642 7.942-.717 7.956 2.342 7.97 4.135 8.014-4.255 8.007 3.89 7.988 11.502 8.03 4.788 7.888 31.892 8.107-4.81 8.076 3.437 8.221-13.327 8.06 10.884 8.155.92 8.224-4.223 8.136 7.285 8.37-13.595 8.21 4.202 8.313-3.222 7.924 30.15 8.628-24.865-1.526 116.772-8.23-1.316-8.21-1.314-8.19-1.31-8.17-1.307-8.15-1.303-8.13-1.3-8.11-1.298-8.09-1.294-8.071-1.291-8.051-1.288-8.032-1.285-8.011-1.281-7.993-1.279-7.973-1.275-7.954-1.272-7.935-1.27-7.915-1.266-7.897-1.263-7.877-1.26-7.858-1.257-7.84-1.254-7.82-1.251-7.803-1.248-7.783-1.245-7.765-1.242-7.746-1.24-7.728-1.235-7.71-1.234-7.69-1.23-7.674-1.227-7.654-1.225-7.637-1.221-7.618-1.219-7.6-1.216-7.583-1.213" class="highcharts-area" data-z-index="0" aria-hidden="true"/><path fill="none" d="m130.892 39.369 7.62-5.153 7.821 22.49 7.701 2.65 7.795 17.56 7.732 3.927 7.742 2.861 7.779 8.282 7.76-1.286 7.764-9.203 7.807-2.06 7.852 17.51 7.852 16.217 7.852-24.823 7.87 31.379 7.949-52.642 7.942-.717 7.956 2.342 7.97 4.135 8.014-4.255 8.007 3.89 7.988 11.502 8.03 4.788 7.888 31.892 8.107-4.81 8.076 3.437 8.221-13.327 8.06 10.884 8.155.92 8.224-4.223 8.136 7.285 8.37-13.595 8.21 4.202 8.313-3.222 7.924 30.15 8.628-24.865" class="highcharts-graph" data-z-index="1" stroke="#C8BE8C" stroke-width="2" stroke-linejoin="round" stroke-linecap="round" aria-hidden="true"/></g><g class="highcharts-series highcharts-series-1 highcharts-area-series" data-z-index="100" clip-path="url(#c)" aria-hidden="false" transform="translate(125 50)"><path fill="#8CB4C8" d="m94.997 129.157 12.614-23.192 13.091 22.63 12.946.91 12.928-10.404 13.132 13.253 13.11 1.07 13.156-1.37 13.239 7.504 13.254-11.103 13.342 2.723 13.398-2.822 13.454 3.215 13.508 2.859 13.525 13.336 13.703-18.644 13.61 16.143 13.805-9.528 13.857-5.47 13.845 4.317 13.886 5.684 13.847 14.224-.994 93.591-13.865-2.266-13.806-2.256-13.75-2.247-13.693-2.238-13.636-2.229-13.58-2.22-13.524-2.21-13.468-2.2-13.414-2.193-13.358-2.183-13.304-2.175-13.25-2.165-13.196-2.157-13.143-2.148-13.089-2.14-13.036-2.13-12.984-2.122-12.932-2.113-12.88-2.105-12.828-2.097-12.777-2.088" class="highcharts-area" data-z-index="0" aria-hidden="true"/><path fill="none" d="m94.997 129.157 12.614-23.192 13.091 22.63 12.946.91 12.928-10.404 13.132 13.253 13.11 1.07 13.156-1.37 13.239 7.504 13.254-11.103 13.342 2.723 13.398-2.822 13.454 3.215 13.508 2.859 13.525 13.336 13.703-18.644 13.61 16.143 13.805-9.528 13.857-5.47 13.845 4.317 13.886 5.684 13.847 14.224" class="highcharts-graph" data-z-index="1" stroke="#78A0B4" stroke-width="2" stroke-linejoin="round" stroke-linecap="round" aria-hidden="true"/></g><g class="highcharts-series highcharts-series-0 highcharts-area-series" data-z-index="200" clip-path="url(#d)" aria-hidden="false" transform="translate(125 50)"><path fill="#C86E32" d="m57.436 150.752 8.454-3.015 8.471-3.904 8.563 1.691 8.612 4.3 8.827 24.17 8.346-27.71 8.636-.654 8.64-3.61 8.702.928 8.705-2.255 8.768 3.598 8.745-4.673 8.81 2.268 8.887 15.927 8.881 12.817 8.85-2.709 8.878-3.016 8.904-5.641 8.935-11.248 8.977 9.13 8.995 3.367 9.02 1.57 9.055-4.183 9.037 15.246 9.126-9.605 9.135-1.817 9.145 2.417 9.17 2.045 9.119 14.938 9.253-4.074 9.258-.248 9.284-.021-.724 89.726-9.211-1.54-9.186-1.534-9.16-1.53-9.135-1.526-9.11-1.522-9.084-1.518-9.06-1.513-9.034-1.51-9.01-1.505-8.984-1.5-8.96-1.498-8.936-1.493-8.91-1.488-8.888-1.485-8.862-1.48-8.839-1.477-8.814-1.473-8.79-1.468-8.767-1.465-8.743-1.46-8.719-1.457-8.695-1.453-8.673-1.449-8.648-1.444-8.626-1.441-8.602-1.438-8.58-1.433-8.555-1.43-8.534-1.425-8.51-1.422-8.488-1.418-8.465-1.414" class="highcharts-area" data-z-index="0" aria-hidden="true"/><path fill="none" d="m57.436 150.752 8.454-3.015 8.471-3.904 8.563 1.691 8.612 4.3 8.827 24.17 8.346-27.71 8.636-.654 8.64-3.61 8.702.928 8.705-2.255 8.768 3.598 8.745-4.673 8.81 2.268 8.887 15.927 8.881 12.817 8.85-2.709 8.878-3.016 8.904-5.641 8.935-11.248 8.977 9.13 8.995 3.367 9.02 1.57 9.055-4.183 9.037 15.246 9.126-9.605 9.135-1.817 9.145 2.417 9.17 2.045 9.119 14.938 9.253-4.074 9.258-.248 9.284-.021" class="highcharts-graph" data-z-index="1" stroke="#B45A32" stroke-width="2" stroke-linejoin="round" stroke-linecap="round" aria-hidden="true"/></g></g><text x="300" text-anchor="middle" class="highcharts-title" data-z-index="4" style="color:#fff;font-size:22px;font-weight:500;fill:#fff" y="27" aria-hidden="true">Visual comparison of Mountains Panorama</text><g class="highcharts-legend highcharts-no-tooltip" data-z-index="7" transform="translate(159 329)" aria-hidden="true"><rect fill="transparent" class="highcharts-legend-box" rx="0" ry="0" width="281" height="56"/><g data-z-index="1"><g class="highcharts-legend-item highcharts-area-series highcharts-color-undefined highcharts-series-0" data-z-index="1" transform="translate(8 3)"><text x="21" data-z-index="2" y="15" style="color:#fff;cursor:pointer;font-size:12px;font-weight:400;fill:#fff">Tatra Mountains visible from Rusinowa polana</text><rect x="2" y="4" width="12" height="12" fill="#C86E32" rx="6" ry="6" class="highcharts-point" data-z-index="3"/></g><g class="highcharts-legend-item highcharts-area-series highcharts-color-undefined highcharts-series-1" data-z-index="1" transform="translate(8 18)"><text x="21" y="15" data-z-index="2" style="color:#fff;cursor:pointer;font-size:12px;font-weight:400;fill:#fff">Dachstein panorama seen from Krippenstein</text><rect x="2" y="4" width="12" height="12" fill="#8CB4C8" rx="6" ry="6" class="highcharts-point" data-z-index="3"/></g><g class="highcharts-legend-item highcharts-area-series highcharts-color-undefined highcharts-series-2" data-z-index="1" transform="translate(8 33)"><text x="21" y="15" data-z-index="2" style="color:#fff;cursor:pointer;font-size:12px;font-weight:400;fill:#fff">Panorama from Col Des Mines</text><rect x="2" y="4" width="12" height="12" fill="#C8BE8C" rx="6" ry="6" class="highcharts-point" data-z-index="3"/></g></g></g><g class="highcharts-axis-labels highcharts-yaxis-labels" data-z-index="7" aria-hidden="true" text-anchor="end"><text x="170.109" style="color:#fff;cursor:default;font-size:12px;fill:#fff" y="272.223">0 MAMSL</text><text x="169.61" style="color:#fff;cursor:default;font-size:12px;fill:#fff" y="236.346">1 000 MAMSL</text><text x="169.099" style="color:#fff;cursor:default;font-size:12px;fill:#fff" y="199.594">2 000 MAMSL</text><text x="168.594" style="color:#fff;cursor:default;font-size:12px;fill:#fff" y="163.329">3 000 MAMSL</text><text x="168.087" style="color:#fff;cursor:default;font-size:12px;fill:#fff" y="126.868">4 000 MAMSL</text><text x="167.568" style="color:#fff;cursor:default;font-size:12px;fill:#fff" y="89.518">5 000 MAMSL</text></g></svg>