<svg class="highcharts-root" style="font-family:&quot;IBM Plex Sans&quot;,sans-serif;font-size:12px" xmlns="http://www.w3.org/2000/svg" width="600" height="400" aria-label="Interactive chart" aria-hidden="false"><defs aria-hidden="true"><linearGradient x1="0" y1="0" x2="0" y2="1" id="a"><stop offset="0" stop-color="#1f1836"/><stop offset="1" stop-color="#45445d"/></linearGradient><clipPath id="b"><path fill="none" d="M0 0h522v243H0z"/></clipPath></defs><rect fill="url(#a)" class="highcharts-background" width="600" height="400" rx="0" ry="0" aria-hidden="true"/><path fill="none" class="highcharts-plot-background" aria-hidden="true" d="M68 68h522v243H68z"/><g class="highcharts-grid highcharts-xaxis-grid" data-z-index="1" aria-hidden="true" fill="none"><path data-z-index="1" class="highcharts-grid-line" d="M72.5 68v243m128-243v243m128-243v243m128-243v243m128-243v243"/></g><g class="highcharts-grid highcharts-yaxis-grid" data-z-index="1" aria-hidden="true" fill="none" stroke="#707073"><path data-z-index="1" class="highcharts-grid-line" d="M68 311.5h522m-522-61h522m-522-60h522m-522-61h522m-522-62h522"/></g><path fill="none" class="highcharts-plot-border" data-z-index="1" aria-hidden="true" d="M68 68h522v243H68z"/><g class="highcharts-axis highcharts-xaxis" data-z-index="2" aria-hidden="true" fill="none" stroke="#707073"><path class="highcharts-tick" d="M72.5 311v10m128-10v10m128-10v10m128-10v10m128-10v10"/><path class="highcharts-axis-line" data-z-index="7" d="M68 311.5h522"/></g><g class="highcharts-axis highcharts-yaxis" data-z-index="2" aria-hidden="true"><path fill="none" class="highcharts-tick" stroke="#707073" d="M68 311.5H58m10-61H58m10-60H58m10-61H58m10-62H58"/><text x="23.648" data-z-index="7" text-anchor="middle" transform="rotate(-90 23.648 189.5)" class="highcharts-axis-title" style="color:#fff;font-weight:300;fill:#fff" y="189.5">Million tonnes CO<tspan>2</tspan>-equivalents</text><path fill="none" class="highcharts-axis-line" data-z-index="7" d="M68 68v243"/></g><g class="highcharts-series-group" data-z-index="3" aria-hidden="false"><g class="highcharts-series highcharts-series-0 highcharts-area-series highcharts-color-0" data-z-index=".1" clip-path="url(#b)" aria-hidden="true" transform="translate(68 68)"><path fill="rgba(128,135,232,0.75)" d="m5.118 61.637 63.97.243 63.97 5.874 63.971-40.046L261 77.651l63.97-12.88 63.971-17.939 63.97-3.84 63.971 18.353v98.5l-63.97-18.462-63.97-.492-63.971 1.707-63.971-1.78-63.97-4.987-63.971 1.986-63.97 1.392-63.971 2.825Z" class="highcharts-area" data-z-index="0"/><path fill="none" d="m5.118 61.637 63.97.243 63.97 5.874 63.971-40.046L261 77.651l63.97-12.88 63.971-17.939 63.97-3.84 63.971 18.353" class="highcharts-graph" data-z-index="1" stroke="#666" stroke-linejoin="round" stroke-linecap="round"/><path fill="none" d="m5.118 61.637 63.97.243 63.97 5.874 63.971-40.046L261 77.651l63.97-12.88 63.971-17.939 63.97-3.84 63.971 18.353" data-z-index="2" class="highcharts-tracker-line" stroke-linecap="round" stroke-linejoin="round" stroke="rgba(192,192,192,0.0001)" stroke-width="21"/></g><g class="highcharts-markers highcharts-series-0 highcharts-area-series highcharts-color-0 highcharts-tracker" data-z-index=".1" aria-hidden="false" tabindex="-1" aria-label="Ocean transport, series 1 of 5 with 9 data points." style="outline:0" fill="#8087E8" stroke="#666"><path d="M5 66a4 4 0 1 1 .004 0Z" class="highcharts-point highcharts-color-0" tabindex="-1" aria-label="x, 2012, 13,234. Ocean transport." style="outline:0" transform="translate(68 68)"/><path d="M69 66a4 4 0 1 1 .004 0Z" class="highcharts-point highcharts-color-0" tabindex="-1" aria-label="x, 2013, 12,729. Ocean transport." style="outline:0" transform="translate(68 68)"/><path d="M133 72a4 4 0 1 1 .004 0Z" class="highcharts-point highcharts-color-0" tabindex="-1" aria-label="x, 2014, 11,533. Ocean transport." style="outline:0" transform="translate(68 68)"/><path d="M197 32a4 4 0 1 1 .004 0Z" class="highcharts-point highcharts-color-0" tabindex="-1" aria-label="x, 2015, 17,798. Ocean transport." style="outline:0" transform="translate(68 68)"/><path d="M261 82a4 4 0 1 1 .004 0Z" class="highcharts-point highcharts-color-0" tabindex="-1" aria-label="x, 2016, 10,398. Ocean transport." style="outline:0" transform="translate(68 68)"/><path d="M324 69a4 4 0 1 1 .004 0Z" class="highcharts-point highcharts-color-0" tabindex="-1" aria-label="x, 2017, 12,811. Ocean transport." style="outline:0" transform="translate(68 68)"/><path d="M388 51a4 4 0 1 1 .004 0Z" class="highcharts-point highcharts-color-0" tabindex="-1" aria-label="x, 2018, 15,483. Ocean transport." style="outline:0" transform="translate(68 68)"/><path d="M452 47a4 4 0 1 1 .004 0Z" class="highcharts-point highcharts-color-0" tabindex="-1" aria-label="x, 2019, 16,196. Ocean transport." style="outline:0" transform="translate(68 68)"/><path d="M516 65a4 4 0 1 1 .004 0Z" class="highcharts-point highcharts-color-0" tabindex="-1" aria-label="x, 2020, 16,214. Ocean transport." style="outline:0" transform="translate(68 68)"/></g><g class="highcharts-series highcharts-series-1 highcharts-area-series highcharts-color-1" data-z-index=".1" clip-path="url(#b)" aria-hidden="true" transform="translate(68 68)"><path fill="rgba(163,237,186,0.75)" d="m5.118 142.034 63.97-2.825 63.97-1.392 63.971-1.986L261 140.819l63.97 1.78 63.971-1.708 63.97.492 63.971 18.462v30.612l-63.97-18.413-63.97 3.056-63.971 2.278L261 178.793l-63.97-4.18-63.971 2.018-63.97 2.278-63.971 3.736Z" class="highcharts-area" data-z-index="0"/><path fill="none" d="m5.118 142.034 63.97-2.825 63.97-1.392 63.971-1.986L261 140.819l63.97 1.78 63.971-1.708 63.97.492 63.971 18.462" class="highcharts-graph" data-z-index="1" stroke="#666" stroke-linejoin="round" stroke-linecap="round"/><path fill="none" d="m5.118 142.034 63.97-2.825 63.97-1.392 63.971-1.986L261 140.819l63.97 1.78 63.971-1.708 63.97.492 63.971 18.462" data-z-index="2" class="highcharts-tracker-line" stroke-linecap="round" stroke-linejoin="round" stroke="rgba(192,192,192,0.0001)" stroke-width="21"/></g><g class="highcharts-markers highcharts-series-1 highcharts-area-series highcharts-color-1 highcharts-tracker" data-z-index=".1" aria-hidden="false" tabindex="-1" aria-label="Households, series 2 of 5 with 9 data points." style="outline:0" fill="#A3EDBA" stroke="#666"><path d="m5 138 4 4-4 4-4-4Z" class="highcharts-point highcharts-color-1" tabindex="-1" aria-label="x, 2012, 6,685. Households." style="outline:0" transform="translate(68 68)"/><path d="m69 135 4 4-4 4-4-4Z" class="highcharts-point highcharts-color-1" tabindex="-1" aria-label="x, 2013, 6,535. Households." style="outline:0" transform="translate(68 68)"/><path d="m133 134 4 4-4 4-4-4Z" class="highcharts-point highcharts-color-1" tabindex="-1" aria-label="x, 2014, 6,389. Households." style="outline:0" transform="translate(68 68)"/><path d="m197 132 4 4-4 4-4-4Z" class="highcharts-point highcharts-color-1" tabindex="-1" aria-label="x, 2015, 6,384. Households." style="outline:0" transform="translate(68 68)"/><path d="m261 137 4 4-4 4-4-4Z" class="highcharts-point highcharts-color-1" tabindex="-1" aria-label="x, 2016, 6,251. Households." style="outline:0" transform="translate(68 68)"/><path d="m324 139 4 4-4 4-4-4Z" class="highcharts-point highcharts-color-1" tabindex="-1" aria-label="x, 2017, 5,725. Households." style="outline:0" transform="translate(68 68)"/><path d="m388 137 4 4-4 4-4-4Z" class="highcharts-point highcharts-color-1" tabindex="-1" aria-label="x, 2018, 5,631. Households." style="outline:0" transform="translate(68 68)"/><path d="m452 137 4 4-4 4-4-4Z" class="highcharts-point highcharts-color-1" tabindex="-1" aria-label="x, 2019, 5,047. Households." style="outline:0" transform="translate(68 68)"/><path d="m516 156 4 4-4 4-4-4Z" class="highcharts-point highcharts-color-1" tabindex="-1" aria-label="x, 2020, 5,039. Households." style="outline:0" transform="translate(68 68)"/></g><g class="highcharts-series highcharts-series-2 highcharts-area-series highcharts-color-2" data-z-index=".1" clip-path="url(#b)" aria-hidden="true" transform="translate(68 68)"><path fill="rgba(241,158,83,0.75)" d="m5.118 182.645 63.97-3.736 63.97-2.278 63.971-2.017 63.971 4.18 63.97-1.416 63.971-2.278 63.97-3.056 63.971 18.413v29.847l-63.97-18.426-63.97 3.269-63.971 2.46L261 209.205l-63.97-4.672-63.971 1.725-63.97 1.932-63.971 3.323Z" class="highcharts-area" data-z-index="0"/><path fill="none" d="m5.118 182.645 63.97-3.736 63.97-2.278 63.971-2.017 63.971 4.18 63.97-1.416 63.971-2.278 63.97-3.056 63.971 18.413" class="highcharts-graph" data-z-index="1" stroke="#666" stroke-linejoin="round" stroke-linecap="round"/><path fill="none" d="m5.118 182.645 63.97-3.736 63.97-2.278 63.971-2.017 63.971 4.18 63.97-1.416 63.971-2.278 63.97-3.056 63.971 18.413" data-z-index="2" class="highcharts-tracker-line" stroke-linecap="round" stroke-linejoin="round" stroke="rgba(192,192,192,0.0001)" stroke-width="21"/></g><g class="highcharts-markers highcharts-series-2 highcharts-area-series highcharts-color-2 highcharts-tracker" data-z-index=".1" aria-hidden="false" tabindex="-1" aria-label="Agriculture and hunting, series 3 of 5 with 9 data points." style="outline:0" fill="#F19E53" stroke="#666"><path d="M1 179h8v8H1Z" class="highcharts-point highcharts-color-2" tabindex="-1" aria-label="x, 2012, 4,752. Agriculture and hunting." style="outline:0" transform="translate(68 68)"/><path d="M65 175h8v8h-8Z" class="highcharts-point highcharts-color-2" tabindex="-1" aria-label="x, 2013, 4,820. Agriculture and hunting." style="outline:0" transform="translate(68 68)"/><path d="M129 173h8v8h-8Z" class="highcharts-point highcharts-color-2" tabindex="-1" aria-label="x, 2014, 4,877. Agriculture and hunting." style="outline:0" transform="translate(68 68)"/><path d="M193 171h8v8h-8Z" class="highcharts-point highcharts-color-2" tabindex="-1" aria-label="x, 2015, 4,925. Agriculture and hunting." style="outline:0" transform="translate(68 68)"/><path d="M257 175h8v8h-8Z" class="highcharts-point highcharts-color-2" tabindex="-1" aria-label="x, 2016, 5,006. Agriculture and hunting." style="outline:0" transform="translate(68 68)"/><path d="M320 173h8v8h-8Z" class="highcharts-point highcharts-color-2" tabindex="-1" aria-label="x, 2017, 4,976. Agriculture and hunting." style="outline:0" transform="translate(68 68)"/><path d="M384 171h8v8h-8Z" class="highcharts-point highcharts-color-2" tabindex="-1" aria-label="x, 2018, 4,946. Agriculture and hunting." style="outline:0" transform="translate(68 68)"/><path d="M448 168h8v8h-8Z" class="highcharts-point highcharts-color-2" tabindex="-1" aria-label="x, 2019, 4,911. Agriculture and hunting." style="outline:0" transform="translate(68 68)"/><path d="M512 186h8v8h-8Z" class="highcharts-point highcharts-color-2" tabindex="-1" aria-label="x, 2020, 4,913. Agriculture and hunting." style="outline:0" transform="translate(68 68)"/></g><g class="highcharts-series highcharts-series-3 highcharts-area-series highcharts-color-3" data-z-index=".1" clip-path="url(#b)" aria-hidden="true" transform="translate(68 68)"><path fill="rgba(102,153,161,0.75)" d="m5.118 211.513 63.97-3.323 63.97-1.932 63.971-1.725L261 209.205l63.97-1.598 63.971-2.46 63.97-3.269 63.971 18.426v9.416l-63.97.06-63.97-1.02-63.971.529-63.971.498-63.97-.255-63.971.407-63.97-.237-63.971 1.033Z" class="highcharts-area" data-z-index="0"/><path fill="none" d="m5.118 211.513 63.97-3.323 63.97-1.932 63.971-1.725L261 209.205l63.97-1.598 63.971-2.46 63.97-3.269 63.971 18.426" class="highcharts-graph" data-z-index="1" stroke="#666" stroke-linejoin="round" stroke-linecap="round"/><path fill="none" d="m5.118 211.513 63.97-3.323 63.97-1.932 63.971-1.725L261 209.205l63.97-1.598 63.971-2.46 63.97-3.269 63.971 18.426" data-z-index="2" class="highcharts-tracker-line" stroke-linecap="round" stroke-linejoin="round" stroke="rgba(192,192,192,0.0001)" stroke-width="21"/></g><g class="highcharts-markers highcharts-series-3 highcharts-area-series highcharts-color-3 highcharts-tracker" data-z-index=".1" aria-hidden="false" tabindex="-1" aria-label="Air transport, series 4 of 5 with 9 data points." style="outline:0" fill="#6699A1" stroke="#666"><path d="m5 208 4 8H1Z" class="highcharts-point highcharts-color-3" tabindex="-1" aria-label="x, 2012, 3,164. Air transport." style="outline:0" transform="translate(68 68)"/><path d="m69 204 4 8h-8Z" class="highcharts-point highcharts-color-3" tabindex="-1" aria-label="x, 2013, 3,541. Air transport." style="outline:0" transform="translate(68 68)"/><path d="m133 202 4 8h-8Z" class="highcharts-point highcharts-color-3" tabindex="-1" aria-label="x, 2014, 3,898. Air transport." style="outline:0" transform="translate(68 68)"/><path d="m197 201 4 8h-8Z" class="highcharts-point highcharts-color-3" tabindex="-1" aria-label="x, 2015, 4,115. Air transport." style="outline:0" transform="translate(68 68)"/><path d="m261 205 4 8h-8Z" class="highcharts-point highcharts-color-3" tabindex="-1" aria-label="x, 2016, 3,388. Air transport." style="outline:0" transform="translate(68 68)"/><path d="m324 204 4 8h-8Z" class="highcharts-point highcharts-color-3" tabindex="-1" aria-label="x, 2017, 3,569. Air transport." style="outline:0" transform="translate(68 68)"/><path d="m388 201 4 8h-8Z" class="highcharts-point highcharts-color-3" tabindex="-1" aria-label="x, 2018, 3,887. Air transport." style="outline:0" transform="translate(68 68)"/><path d="m452 198 4 8h-8Z" class="highcharts-point highcharts-color-3" tabindex="-1" aria-label="x, 2019, 4,593. Air transport." style="outline:0" transform="translate(68 68)"/><path d="m516 216 4 8h-8Z" class="highcharts-point highcharts-color-3" tabindex="-1" aria-label="x, 2020, 1,550. Air transport." style="outline:0" transform="translate(68 68)"/></g><g class="highcharts-series highcharts-series-4 highcharts-area-series highcharts-color-4" data-z-index=".1" clip-path="url(#b)" aria-hidden="true" transform="translate(68 68)"><path fill="rgba(225,211,105,0.75)" d="m5.118 230.735 63.97-1.033 63.97.237 63.971-.407 63.971.255 63.97-.498 63.971-.529 63.97 1.02 63.971-.06V243H5.118Z" class="highcharts-area" data-z-index="0"/><path fill="none" d="m5.118 230.735 63.97-1.033 63.97.237 63.971-.407 63.971.255 63.97-.498 63.971-.529 63.97 1.02 63.971-.06" class="highcharts-graph" data-z-index="1" stroke="#666" stroke-linejoin="round" stroke-linecap="round"/><path fill="none" d="m5.118 230.735 63.97-1.033 63.97.237 63.971-.407 63.971.255 63.97-.498 63.971-.529 63.97 1.02 63.971-.06" data-z-index="2" class="highcharts-tracker-line" stroke-linecap="round" stroke-linejoin="round" stroke="rgba(192,192,192,0.0001)" stroke-width="21"/></g><g class="highcharts-markers highcharts-series-4 highcharts-area-series highcharts-color-4 highcharts-tracker" data-z-index=".1" aria-hidden="false" tabindex="-1" aria-label="Construction, series 5 of 5 with 9 data points." style="outline:0" fill="#E1D369" stroke="#666"><path d="M1 227h8l-4 8Z" class="highcharts-point highcharts-color-4" tabindex="-1" aria-label="x, 2012, 2,019. Construction." style="outline:0" transform="translate(68 68)"/><path d="M65 226h8l-4 8Z" class="highcharts-point highcharts-color-4" tabindex="-1" aria-label="x, 2013, 2,189. Construction." style="outline:0" transform="translate(68 68)"/><path d="M129 226h8l-4 8Z" class="highcharts-point highcharts-color-4" tabindex="-1" aria-label="x, 2014, 2,150. Construction." style="outline:0" transform="translate(68 68)"/><path d="M193 226h8l-4 8Z" class="highcharts-point highcharts-color-4" tabindex="-1" aria-label="x, 2015, 2,217. Construction." style="outline:0" transform="translate(68 68)"/><path d="M257 226h8l-4 8Z" class="highcharts-point highcharts-color-4" tabindex="-1" aria-label="x, 2016, 2,175. Construction." style="outline:0" transform="translate(68 68)"/><path d="M320 225h8l-4 8Z" class="highcharts-point highcharts-color-4" tabindex="-1" aria-label="x, 2017, 2,257. Construction." style="outline:0" transform="translate(68 68)"/><path d="M384 225h8l-4 8Z" class="highcharts-point highcharts-color-4" tabindex="-1" aria-label="x, 2018, 2,344. Construction." style="outline:0" transform="translate(68 68)"/><path d="M448 226h8l-4 8Z" class="highcharts-point highcharts-color-4" tabindex="-1" aria-label="x, 2019, 2,176. Construction." style="outline:0" transform="translate(68 68)"/><path d="M512 226h8l-4 8Z" class="highcharts-point highcharts-color-4" tabindex="-1" aria-label="x, 2020, 2,186. Construction." style="outline:0" transform="translate(68 68)"/></g></g><text x="300" text-anchor="middle" class="highcharts-title" data-z-index="4" style="color:#fff;font-size:22px;font-weight:500;fill:#fff" y="27" aria-hidden="true">Greenhouse gases from Norwegian economic activity</text><text x="300" text-anchor="middle" class="highcharts-subtitle" data-z-index="4" style="color:#fff;font-size:16px;font-weight:400;fill:#fff" y="52" aria-hidden="true">Source: <a target="_blank"><tspan>SSB</tspan></a></text><g class="highcharts-legend highcharts-no-tooltip" data-z-index="7" transform="translate(55 344)" aria-hidden="true"><rect fill="transparent" class="highcharts-legend-box" rx="0" ry="0" width="489" height="41"/><g data-z-index="1"><g class="highcharts-legend-item highcharts-area-series highcharts-color-0 highcharts-series-0" data-z-index="1" transform="translate(8 3)"><text x="21" data-z-index="2" y="15" style="color:#fff;cursor:pointer;font-size:12px;font-weight:400;fill:#fff">Ocean transport</text><rect x="2" y="4" width="12" height="12" fill="#8087E8" rx="6" ry="6" class="highcharts-point" data-z-index="3"/></g><g class="highcharts-legend-item highcharts-area-series highcharts-color-1 highcharts-series-1" data-z-index="1" transform="translate(172.44 3)"><text x="21" y="15" data-z-index="2" style="color:#fff;cursor:pointer;font-size:12px;font-weight:400;fill:#fff">Households</text><rect x="2" y="4" width="12" height="12" fill="#A3EDBA" rx="6" ry="6" class="highcharts-point" data-z-index="3"/></g><g class="highcharts-legend-item highcharts-area-series highcharts-color-2 highcharts-series-2" data-z-index="1" transform="translate(336.879 3)"><text x="21" y="15" data-z-index="2" style="color:#fff;cursor:pointer;font-size:12px;font-weight:400;fill:#fff">Agriculture and hunting</text><rect x="2" y="4" width="12" height="12" fill="#F19E53" rx="6" ry="6" class="highcharts-point" data-z-index="3"/></g><g class="highcharts-legend-item highcharts-area-series highcharts-color-3 highcharts-series-3" data-z-index="1" transform="translate(8 18)"><text x="21" y="15" data-z-index="2" style="color:#fff;cursor:pointer;font-size:12px;font-weight:400;fill:#fff">Air transport</text><rect x="2" y="4" width="12" height="12" fill="#6699A1" rx="6" ry="6" class="highcharts-point" data-z-index="3"/></g><g class="highcharts-legend-item highcharts-area-series highcharts-color-4 highcharts-series-4" data-z-index="1" transform="translate(172.44 18)"><text x="21" y="15" data-z-index="2" style="color:#fff;cursor:pointer;font-size:12px;font-weight:400;fill:#fff">Construction</text><rect x="2" y="4" width="12" height="12" fill="#E1D369" rx="6" ry="6" class="highcharts-point" data-z-index="3"/></g></g></g><g class="highcharts-axis-labels highcharts-xaxis-labels" data-z-index="7" aria-hidden="true" text-anchor="middle"><text x="73.118" style="color:#fff;cursor:default;font-size:12px;fill:#fff" y="331">2012</text><text x="201.059" style="color:#fff;cursor:default;font-size:12px;fill:#fff" y="331">2014</text><text x="329" style="color:#fff;cursor:default;font-size:12px;fill:#fff" y="331">2016</text><text x="456.941" style="color:#fff;cursor:default;font-size:12px;fill:#fff" y="331">2018</text><text x="576.652" style="color:#fff;cursor:default;font-size:12px;fill:#fff" y="331">2020</text></g><g class="highcharts-axis-labels highcharts-yaxis-labels" data-z-index="7" aria-hidden="true" text-anchor="end"><text x="53" style="color:#fff;cursor:default;font-size:12px;fill:#fff" y="316">0</text><text x="53" style="color:#fff;cursor:default;font-size:12px;fill:#fff" y="256">10k</text><text x="53" style="color:#fff;cursor:default;font-size:12px;fill:#fff" y="195">20k</text><text x="53" style="color:#fff;cursor:default;font-size:12px;fill:#fff" y="134">30k</text><text x="53" style="color:#fff;cursor:default;font-size:12px;fill:#fff" y="73">40k</text></g></svg>