<svg class="highcharts-root" style="font-family:&quot;IBM Plex Sans&quot;,sans-serif;font-size:12px" xmlns="http://www.w3.org/2000/svg" width="600" height="400" aria-label="Interactive chart" aria-hidden="false"><defs aria-hidden="true"><linearGradient x1="0" y1="0" x2="0" y2="1" id="a"><stop offset="0" stop-color="#1f1836"/><stop offset="1" stop-color="#45445d"/></linearGradient><clipPath id="b"><path fill="none" d="M0 0h277v520H0z"/></clipPath></defs><rect fill="url(#a)" class="highcharts-background" width="600" height="400" rx="0" ry="0" aria-hidden="true"/><path fill="none" class="highcharts-plot-background" aria-hidden="true" d="M70 68h520v277H70z"/><g class="highcharts-grid highcharts-xaxis-grid" data-z-index="1" aria-hidden="true" fill="none"><path data-z-index="1" class="highcharts-grid-line" d="M70 123.5h520m-520 56h520m-520 55h520m-520 56h520m-520 55h520M70 68.5h520"/></g><g class="highcharts-grid highcharts-yaxis-grid" data-z-index="1" aria-hidden="true" fill="none" stroke="#707073"><path data-z-index="1" class="highcharts-grid-line" d="M69.5 68v277m52-277v277m52-277v277m52-277v277m52-277v277m52-277v277m52-277v277m52-277v277m52-277v277m52-277v277m53-277v277"/></g><path fill="none" class="highcharts-plot-border" data-z-index="1" aria-hidden="true" d="M70 68h520v277H70z"/><g class="highcharts-axis highcharts-xaxis" data-z-index="2" aria-hidden="true"><path fill="none" class="highcharts-axis-line" stroke="#707073" data-z-index="7" d="M69.5 68v277"/></g><g class="highcharts-axis highcharts-yaxis" data-z-index="2" aria-hidden="true"><path fill="none" class="highcharts-tick" stroke="#707073" d="M69.5 345v10m52-10v10m52-10v10m52-10v10m52-10v10m52-10v10m52-10v10m52-10v10m52-10v10m52-10v10m53-10v10"/><text x="590" data-z-index="7" text-anchor="end" class="highcharts-axis-title" style="color:#fff;font-weight:300;fill:#fff" y="383.5">Population (millions)</text><path fill="none" class="highcharts-axis-line" data-z-index="7" d="M70 345h520"/></g><g class="highcharts-series-group" data-z-index="3" aria-hidden="false" stroke="#fff"><g class="highcharts-series highcharts-series-0 highcharts-bar-series highcharts-color-0 highcharts-tracker" data-z-index=".1" clip-path="url(#b)" aria-hidden="false" tabindex="-1" aria-label="Year 1990, bar series 1 of 4 with 5 bars." style="outline:0" fill="#8087E8" transform="matrix(0 -1 -1 0 590 345)"><path class="highcharts-point highcharts-color-0" tabindex="-1" aria-label="Africa, 631 millions. Year 1990." style="outline:0" d="M257.5 454.5h7v66h-7z"/><path class="highcharts-point highcharts-color-0" tabindex="-1" aria-label="America, 727 millions. Year 1990." style="outline:0" d="M202.5 444.5h7v76h-7z"/><path class="highcharts-point highcharts-color-0" tabindex="-1" aria-label="Asia, 3,202 millions. Year 1990." style="outline:0" d="M147.5 187.5h7v333h-7z"/><path class="highcharts-point highcharts-color-0" tabindex="-1" aria-label="Europe, 721 millions. Year 1990." style="outline:0" d="M91.5 445.5h7v75h-7z"/><path class="highcharts-point highcharts-color-0" tabindex="-1" aria-label="Oceania, 26 millions. Year 1990." style="outline:0" d="M36.5 517.5h7v3h-7z"/></g><g class="highcharts-series highcharts-series-1 highcharts-bar-series highcharts-color-1 highcharts-tracker" data-z-index=".1" clip-path="url(#b)" aria-hidden="false" tabindex="-1" aria-label="Year 2000, bar series 2 of 4 with 5 bars." style="outline:0" fill="#A3EDBA" transform="matrix(0 -1 -1 0 590 345)"><path class="highcharts-point highcharts-color-1" tabindex="-1" aria-label="Africa, 814 millions. Year 2000." style="outline:0" d="M249.5 435.5h7v85h-7z"/><path class="highcharts-point highcharts-color-1" tabindex="-1" aria-label="America, 841 millions. Year 2000." style="outline:0" d="M194.5 433.5h7v87h-7z"/><path class="highcharts-point highcharts-color-1" tabindex="-1" aria-label="Asia, 3,714 millions. Year 2000." style="outline:0" d="M138.5 134.5h7v386h-7z"/><path class="highcharts-point highcharts-color-1" tabindex="-1" aria-label="Europe, 726 millions. Year 2000." style="outline:0" d="M83.5 444.5h7v76h-7z"/><path class="highcharts-point highcharts-color-1" tabindex="-1" aria-label="Oceania, 31 millions. Year 2000." style="outline:0" d="M28.5 517.5h7v3h-7z"/></g><g class="highcharts-series highcharts-series-2 highcharts-bar-series highcharts-color-2 highcharts-tracker" data-z-index=".1" clip-path="url(#b)" aria-hidden="false" tabindex="-1" aria-label="Year 2010, bar series 3 of 4 with 5 bars." style="outline:0" fill="#F19E53" transform="matrix(0 -1 -1 0 590 345)"><path class="highcharts-point highcharts-color-2" tabindex="-1" aria-label="Africa, 1,044 millions. Year 2010." style="outline:0" d="M241.5 411.5h7v109h-7z"/><path class="highcharts-point highcharts-color-2" tabindex="-1" aria-label="America, 944 millions. Year 2010." style="outline:0" d="M185.5 422.5h7v98h-7z"/><path class="highcharts-point highcharts-color-2" tabindex="-1" aria-label="Asia, 4,170 millions. Year 2010." style="outline:0" d="M130.5 86.5h7v434h-7z"/><path class="highcharts-point highcharts-color-2" tabindex="-1" aria-label="Europe, 735 millions. Year 2010." style="outline:0" d="M75.5 444.5h7v76h-7z"/><path class="highcharts-point highcharts-color-2" tabindex="-1" aria-label="Oceania, 40 millions. Year 2010." style="outline:0" d="M19.5 516.5h7v4h-7z"/></g><g class="highcharts-series highcharts-series-3 highcharts-bar-series highcharts-color-3 highcharts-tracker" data-z-index=".1" clip-path="url(#b)" aria-hidden="false" tabindex="-1" aria-label="Year 2018, bar series 4 of 4 with 5 bars." style="outline:0" fill="#6699A1" transform="matrix(0 -1 -1 0 590 345)"><path class="highcharts-point highcharts-color-3" tabindex="-1" aria-label="Africa, 1,276 millions. Year 2018." style="outline:0" d="M233.5 387.5h7v133h-7z"/><path class="highcharts-point highcharts-color-3" tabindex="-1" aria-label="America, 1,007 millions. Year 2018." style="outline:0" d="M177.5 415.5h7v105h-7z"/><path class="highcharts-point highcharts-color-3" tabindex="-1" aria-label="Asia, 4,561 millions. Year 2018." style="outline:0" d="M122.5 46.5h7v474h-7z"/><path class="highcharts-point highcharts-color-3" tabindex="-1" aria-label="Europe, 746 millions. Year 2018." style="outline:0" d="M66.5 442.5h7v78h-7z"/><path class="highcharts-point highcharts-color-3" tabindex="-1" aria-label="Oceania, 42 millions. Year 2018." style="outline:0" d="M11.5 516.5h7v4h-7z"/></g></g><text x="300" text-anchor="middle" class="highcharts-title" data-z-index="4" style="color:#fff;font-size:22px;font-weight:500;fill:#fff" y="27" aria-hidden="true">Historic World Population by Region</text><text x="300" text-anchor="middle" class="highcharts-subtitle" data-z-index="4" style="color:#fff;font-size:16px;font-weight:400;fill:#fff" y="52" aria-hidden="true">Source: <a target="_blank"><tspan>Wikipedia.org</tspan></a></text><g class="highcharts-data-labels highcharts-series-0 highcharts-bar-series highcharts-color-0 highcharts-tracker" data-z-index="6" aria-hidden="true"><text x="5" data-z-index="1" y="18" style="color:#46465c;font-size:13px;font-weight:700;fill:#46465c" transform="translate(403 182)" class="highcharts-label highcharts-data-label highcharts-data-label-color-0"><tspan class="highcharts-text-outline" fill="#FFF" stroke="#FFF" stroke-width="2" stroke-linejoin="round">3 202<tspan x="5" dy="0">​</tspan></tspan>3 202</text><text x="5" data-z-index="1" y="18" style="color:#46465c;font-size:13px;font-weight:700;fill:#46465c" transform="translate(73 293)" class="highcharts-label highcharts-data-label highcharts-data-label-color-0"><tspan class="highcharts-text-outline" fill="#FFF" stroke="#FFF" stroke-width="2" stroke-linejoin="round">26<tspan x="5" dy="0">​</tspan></tspan>26</text></g><g class="highcharts-data-labels highcharts-series-1 highcharts-bar-series highcharts-color-1 highcharts-tracker" data-z-index="6" aria-hidden="true"><text x="5" data-z-index="1" y="18" style="color:#46465c;font-size:13px;font-weight:700;fill:#46465c" transform="translate(155 80)" class="highcharts-label highcharts-data-label highcharts-data-label-color-1"><tspan class="highcharts-text-outline" fill="#FFF" stroke="#FFF" stroke-width="2" stroke-linejoin="round">814<tspan x="5" dy="0">​</tspan></tspan>814</text><text x="5" data-z-index="1" y="18" style="color:#46465c;font-size:13px;font-weight:700;fill:#46465c" transform="translate(157 135)" class="highcharts-label highcharts-data-label highcharts-data-label-color-1"><tspan class="highcharts-text-outline" fill="#FFF" stroke="#FFF" stroke-width="2" stroke-linejoin="round">841<tspan x="5" dy="0">​</tspan></tspan>841</text><text x="5" data-z-index="1" y="18" style="color:#46465c;font-size:13px;font-weight:700;fill:#46465c" transform="translate(456 191)" class="highcharts-label highcharts-data-label highcharts-data-label-color-1"><tspan class="highcharts-text-outline" fill="#FFF" stroke="#FFF" stroke-width="2" stroke-linejoin="round">3 714<tspan x="5" dy="0">​</tspan></tspan>3 714</text><text x="5" data-z-index="1" y="18" style="color:#46465c;font-size:13px;font-weight:700;fill:#46465c" transform="translate(146 246)" class="highcharts-label highcharts-data-label highcharts-data-label-color-1"><tspan class="highcharts-text-outline" fill="#FFF" stroke="#FFF" stroke-width="2" stroke-linejoin="round">726<tspan x="5" dy="0">​</tspan></tspan>726</text></g><g class="highcharts-data-labels highcharts-series-2 highcharts-bar-series highcharts-color-2 highcharts-tracker" data-z-index="6" aria-hidden="true"><text x="5" data-z-index="1" y="18" style="color:#46465c;font-size:13px;font-weight:700;fill:#46465c" transform="translate(504 199)" class="highcharts-label highcharts-data-label highcharts-data-label-color-2"><tspan class="highcharts-text-outline" fill="#FFF" stroke="#FFF" stroke-width="2" stroke-linejoin="round">4 170<tspan x="5" dy="0">​</tspan></tspan>4 170</text><text x="5" data-z-index="1" y="18" style="color:#46465c;font-size:13px;font-weight:700;fill:#46465c" transform="translate(74 310)" class="highcharts-label highcharts-data-label highcharts-data-label-color-2"><tspan class="highcharts-text-outline" fill="#FFF" stroke="#FFF" stroke-width="2" stroke-linejoin="round">40<tspan x="5" dy="0">​</tspan></tspan>40</text></g><g class="highcharts-data-labels highcharts-series-3 highcharts-bar-series highcharts-color-3 highcharts-tracker" data-z-index="6" aria-hidden="true"><text x="5" data-z-index="1" y="18" style="color:#46465c;font-size:13px;font-weight:700;fill:#46465c" transform="translate(203 96)" class="highcharts-label highcharts-data-label highcharts-data-label-color-3"><tspan class="highcharts-text-outline" fill="#FFF" stroke="#FFF" stroke-width="2" stroke-linejoin="round">1 276<tspan x="5" dy="0">​</tspan></tspan>1 276</text><text x="5" data-z-index="1" y="18" style="color:#46465c;font-size:13px;font-weight:700;fill:#46465c" transform="translate(175 152)" class="highcharts-label highcharts-data-label highcharts-data-label-color-3"><tspan class="highcharts-text-outline" fill="#FFF" stroke="#FFF" stroke-width="2" stroke-linejoin="round">1 007<tspan x="5" dy="0">​</tspan></tspan>1 007</text><text x="5" data-z-index="1" y="18" style="color:#46465c;font-size:13px;font-weight:700;fill:#46465c" transform="translate(544 207)" class="highcharts-label highcharts-data-label highcharts-data-label-color-3"><tspan class="highcharts-text-outline" fill="#FFF" stroke="#FFF" stroke-width="2" stroke-linejoin="round">4 561<tspan x="5" dy="0">​</tspan></tspan>4 561</text><text x="5" data-z-index="1" y="18" style="color:#46465c;font-size:13px;font-weight:700;fill:#46465c" transform="translate(148 263)" class="highcharts-label highcharts-data-label highcharts-data-label-color-3"><tspan class="highcharts-text-outline" fill="#FFF" stroke="#FFF" stroke-width="2" stroke-linejoin="round">746<tspan x="5" dy="0">​</tspan></tspan>746</text></g><g class="highcharts-legend highcharts-no-tooltip" data-z-index="7" transform="translate(459 90)" aria-hidden="true"><rect fill="none" class="highcharts-legend-box highcharts-shadow" rx="0" ry="0" stroke="#000" stroke-width="5" stroke-opacity=".05" transform="translate(1 1)" x=".5" y=".5" width="90" height="70"/><rect fill="none" class="highcharts-legend-box highcharts-shadow" rx="0" ry="0" stroke="#000" stroke-width="3" stroke-opacity=".1" transform="translate(1 1)" x=".5" y=".5" width="90" height="70"/><rect fill="none" class="highcharts-legend-box highcharts-shadow" rx="0" ry="0" stroke="#000" stroke-opacity=".15" transform="translate(1 1)" x=".5" y=".5" width="90" height="70"/><rect fill="transparent" class="highcharts-legend-box" rx="0" ry="0" stroke="#999" x=".5" y=".5" width="90" height="70"/><g data-z-index="1"><g class="highcharts-legend-item highcharts-bar-series highcharts-color-0 highcharts-series-0" data-z-index="1" transform="translate(8 3)"><text x="21" data-z-index="2" y="15" style="color:#fff;cursor:pointer;font-size:12px;font-weight:400;fill:#fff">Year 1990</text><rect x="2" y="4" width="12" height="12" fill="#8087E8" rx="6" ry="6" class="highcharts-point" data-z-index="3"/></g><g class="highcharts-legend-item highcharts-bar-series highcharts-color-1 highcharts-series-1" data-z-index="1" transform="translate(8 18)"><text x="21" y="15" data-z-index="2" style="color:#fff;cursor:pointer;font-size:12px;font-weight:400;fill:#fff">Year 2000</text><rect x="2" y="4" width="12" height="12" fill="#A3EDBA" rx="6" ry="6" class="highcharts-point" data-z-index="3"/></g><g class="highcharts-legend-item highcharts-bar-series highcharts-color-2 highcharts-series-2" data-z-index="1" transform="translate(8 33)"><text x="21" y="15" data-z-index="2" style="color:#fff;cursor:pointer;font-size:12px;font-weight:400;fill:#fff">Year 2010</text><rect x="2" y="4" width="12" height="12" fill="#F19E53" rx="6" ry="6" class="highcharts-point" data-z-index="3"/></g><g class="highcharts-legend-item highcharts-bar-series highcharts-color-3 highcharts-series-3" data-z-index="1" transform="translate(8 48)"><text x="21" y="15" data-z-index="2" style="color:#fff;cursor:pointer;font-size:12px;font-weight:400;fill:#fff">Year 2018</text><rect x="2" y="4" width="12" height="12" fill="#6699A1" rx="6" ry="6" class="highcharts-point" data-z-index="3"/></g></g></g><g class="highcharts-axis-labels highcharts-xaxis-labels" data-z-index="7" aria-hidden="true" text-anchor="end"><text x="55" style="color:#fff;cursor:default;font-size:12px;fill:#fff" y="101">Africa</text><text x="55" style="color:#fff;cursor:default;font-size:12px;fill:#fff" y="156">America</text><text x="55" style="color:#fff;cursor:default;font-size:12px;fill:#fff" y="212">Asia</text><text x="55" style="color:#fff;cursor:default;font-size:12px;fill:#fff" y="267">Europe</text><text x="55" style="color:#fff;cursor:default;font-size:12px;fill:#fff" y="323">Oceania</text></g><g class="highcharts-axis-labels highcharts-yaxis-labels" data-z-index="7" aria-hidden="true" text-anchor="middle"><text x="70" style="color:#fff;cursor:default;font-size:12px;fill:#fff" y="365">0</text><text x="122" style="color:#fff;cursor:default;font-size:12px;fill:#fff" y="365">500</text><text x="174" style="color:#fff;cursor:default;font-size:12px;fill:#fff" y="365">1000</text><text x="226" style="color:#fff;cursor:default;font-size:12px;fill:#fff" y="365">1500</text><text x="278" style="color:#fff;cursor:default;font-size:12px;fill:#fff" y="365">2000</text><text x="330" style="color:#fff;cursor:default;font-size:12px;fill:#fff" y="365">2500</text><text x="382" style="color:#fff;cursor:default;font-size:12px;fill:#fff" y="365">3000</text><text x="434" style="color:#fff;cursor:default;font-size:12px;fill:#fff" y="365">3500</text><text x="486" style="color:#fff;cursor:default;font-size:12px;fill:#fff" y="365">4000</text><text x="538" style="color:#fff;cursor:default;font-size:12px;fill:#fff" y="365">4500</text><text x="577" style="color:#fff;cursor:default;font-size:12px;fill:#fff" y="365">50…</text></g></svg>