<svg class="highcharts-root" style="font-family:&quot;IBM Plex Sans&quot;,sans-serif;font-size:12px" xmlns="http://www.w3.org/2000/svg" width="600" height="400" aria-label="Interactive chart" aria-hidden="false"><defs aria-hidden="true"><linearGradient x1="0" y1="0" x2="0" y2="1" id="a"><stop offset="0" stop-color="#1f1836"/><stop offset="1" stop-color="#45445d"/></linearGradient><clipPath id="b"><path fill="none" d="M0 0h521v295H0z"/></clipPath></defs><rect fill="url(#a)" class="highcharts-background" width="600" height="400" rx="0" ry="0" aria-hidden="true"/><path fill="none" class="highcharts-plot-background" aria-hidden="true" d="M69 50h521v295H69z"/><g class="highcharts-grid highcharts-xaxis-grid" data-z-index="1" aria-hidden="true" fill="none"><path data-z-index="1" class="highcharts-grid-line" d="M172.5 50v295m104-295v295m105-295v295m104-295v295m104-295v295M68.5 50v295"/></g><g class="highcharts-grid highcharts-yaxis-grid" data-z-index="1" aria-hidden="true" fill="none" stroke="#707073"><path data-z-index="1" class="highcharts-grid-line" d="M69 345.5h521m-521-49h521m-521-49h521m-521-49h521m-521-50h521m-521-49h521m-521-50h521"/></g><path fill="none" class="highcharts-plot-border" data-z-index="1" aria-hidden="true" d="M69 50h521v295H69z"/><g class="highcharts-axis highcharts-xaxis" data-z-index="2" aria-hidden="true"><path fill="none" class="highcharts-axis-line" stroke="#707073" data-z-index="7" d="M69 345.5h521"/></g><g class="highcharts-axis highcharts-yaxis" data-z-index="2" aria-hidden="true"><path fill="none" class="highcharts-tick" stroke="#707073" d="M69 345.5H59m10-49H59m10-49H59m10-49H59m10-50H59m10-49H59m10-50H59"/><text x="23.977" data-z-index="7" text-anchor="middle" transform="rotate(-90 23.977 197.5)" class="highcharts-axis-title" style="color:#fff;font-weight:300;fill:#fff" y="197.5">Height (m)</text><path fill="none" class="highcharts-axis-line" data-z-index="7" d="M69 50v295"/></g><g class="highcharts-series-group" data-z-index="3" aria-hidden="false"><g class="highcharts-series highcharts-series-0 highcharts-columnpyramid-series highcharts-tracker" data-z-index=".1" clip-path="url(#b)" aria-hidden="false" stroke="#fff" transform="translate(69 50)"><path fill="#C79D6D" d="M52.592 22.027 78.092 295h-51Z" class="highcharts-point highcharts-color-0" tabindex="-1" aria-label="Pyramid of Khufu, 138.8 m. Height." style="outline:0"/><path fill="#B5927B" d="M156.792 26.747 182.292 295h-51Z" class="highcharts-point highcharts-color-1" tabindex="-1" aria-label="Pyramid of Khafre, 136.4 m. Height." style="outline:0"/><path fill="#CE9B84" d="M260.992 90.467 286.492 295h-51Z" class="highcharts-point highcharts-color-2" tabindex="-1" aria-label="Red Pyramid, 104 m. Height." style="outline:0"/><path fill="#B7A58C" d="m365.192 96.17 25.5 198.83h-51Z" class="highcharts-point highcharts-color-3" tabindex="-1" aria-label="Bent Pyramid, 101.1 m. Height." style="outline:0"/><path fill="#C7A58C" d="m469.392 147.5 25.5 147.5h-51Z" class="highcharts-point highcharts-color-4" tabindex="-1" aria-label="Pyramid of the Sun, 75 m. Height." style="outline:0"/></g></g><text x="300" text-anchor="middle" class="highcharts-title" data-z-index="4" style="color:#fff;font-size:22px;font-weight:500;fill:#fff" y="27" aria-hidden="true">The 5 highest pyramids in the World</text><g class="highcharts-axis-labels highcharts-xaxis-labels" data-z-index="7" aria-hidden="true" text-anchor="middle"><text x="121.1" style="color:#fff;cursor:default;font-size:14px;fill:#fff" y="367">Pyramid of<tspan dy="17" x="121.1">​</tspan>Khufu</text><text x="225.3" style="color:#fff;cursor:default;font-size:14px;fill:#fff" y="367">Pyramid of<tspan dy="17" x="225.3">​</tspan>Khafre</text><text x="329.5" style="color:#fff;cursor:default;font-size:14px;fill:#fff" y="367">Red Pyramid</text><text x="433.7" style="color:#fff;cursor:default;font-size:14px;fill:#fff" y="367">Bent Pyramid</text><text x="537.9" style="color:#fff;cursor:default;font-size:14px;fill:#fff" y="367">Pyramid of the<tspan dy="17" x="537.9">​</tspan>Sun</text></g><g class="highcharts-axis-labels highcharts-yaxis-labels" data-z-index="7" aria-hidden="true" text-anchor="end"><text x="54" style="color:#fff;cursor:default;font-size:12px;fill:#fff" y="350">0</text><text x="54" style="color:#fff;cursor:default;font-size:12px;fill:#fff" y="301">25</text><text x="54" style="color:#fff;cursor:default;font-size:12px;fill:#fff" y="252">50</text><text x="54" style="color:#fff;cursor:default;font-size:12px;fill:#fff" y="203">75</text><text x="54" style="color:#fff;cursor:default;font-size:12px;fill:#fff" y="154">100</text><text x="54" style="color:#fff;cursor:default;font-size:12px;fill:#fff" y="104">125</text><text x="54" style="color:#fff;cursor:default;font-size:12px;fill:#fff" y="55">150</text></g></svg>