<svg class="highcharts-root" style="font-family:&quot;IBM Plex Sans&quot;,sans-serif;font-size:12px" xmlns="http://www.w3.org/2000/svg" width="600" height="400" aria-label="Interactive chart" aria-hidden="false"><defs aria-hidden="true"><linearGradient x1="0" y1="0" x2="0" y2="1" id="a"><stop offset="0" stop-color="#1f1836"/><stop offset="1" stop-color="#45445d"/></linearGradient><clipPath id="b"><path fill="none" d="M0 0h521v276H0z"/></clipPath></defs><rect fill="url(#a)" class="highcharts-background" width="600" height="400" rx="0" ry="0" aria-hidden="true"/><path fill="none" class="highcharts-plot-background" aria-hidden="true" d="M69 50h521v276H69z"/><g class="highcharts-grid highcharts-xaxis-grid" data-z-index="1" aria-hidden="true" fill="none"><path data-z-index="1" class="highcharts-grid-line" d="M172.5 50v276m104-276v276m105-276v276m104-276v276m104-276v276M68.5 50v276"/></g><g class="highcharts-grid highcharts-yaxis-grid" data-z-index="1" aria-hidden="true" fill="none" stroke="#707073"><path data-z-index="1" class="highcharts-grid-line" d="M69 326.5h521m-521-69h521m-521-69h521m-521-69h521m-521-70h521"/></g><path fill="none" class="highcharts-plot-border" data-z-index="1" aria-hidden="true" d="M69 50h521v276H69z"/><g class="highcharts-axis highcharts-xaxis" data-z-index="2" aria-hidden="true"><path fill="none" class="highcharts-axis-line" stroke="#707073" data-z-index="7" d="M69 326.5h521"/></g><g class="highcharts-axis highcharts-yaxis" data-z-index="2" aria-hidden="true"><path fill="none" class="highcharts-tick" stroke="#707073" d="M69 326.5H59m10-69H59m10-69H59m10-69H59m10-70H59"/><text x="23.977" data-z-index="7" text-anchor="middle" transform="rotate(-90 23.977 188)" class="highcharts-axis-title" style="color:#fff;font-weight:300;fill:#fff" y="188">Assists</text><path fill="none" class="highcharts-axis-line" data-z-index="7" d="M69 50v276"/></g><g class="highcharts-series-group" data-z-index="3" aria-hidden="false" stroke="#fff"><g class="highcharts-series highcharts-series-0 highcharts-column-series highcharts-color-0 highcharts-tracker" data-z-index=".1" clip-path="url(#b)" aria-hidden="false" tabindex="-1" aria-label="Kevin De Bruyne, bar series 1 of 3 with 5 bars." style="outline:0" fill="#8087E8" transform="translate(69 50)"><path class="highcharts-point highcharts-color-0" tabindex="-1" aria-label="2021/22, 4. Kevin De Bruyne." style="outline:0" d="M26.5-.5h51v222h-51z"/><path class="highcharts-point highcharts-color-0" tabindex="-1" aria-label="2020/21, 4. Kevin De Bruyne." style="outline:0" d="M130.5-.5h51v111h-51z"/><path class="highcharts-point highcharts-color-0" tabindex="-1" aria-label="2019/20, 2. Kevin De Bruyne." style="outline:0" d="M234.5-.5h51v80h-51z"/><path class="highcharts-point highcharts-color-0" tabindex="-1" aria-label="2018/19, 4. Kevin De Bruyne." style="outline:0" d="M339.5-.5h51v159h-51z"/><path class="highcharts-point highcharts-color-0" tabindex="-1" aria-label="2017/18, 4. Kevin De Bruyne." style="outline:0" d="M443.5-.5h51v124h-51z"/></g><g class="highcharts-series highcharts-series-1 highcharts-column-series highcharts-color-1 highcharts-tracker" data-z-index=".1" clip-path="url(#b)" aria-hidden="false" tabindex="-1" aria-label="Joshua Kimmich, bar series 2 of 3 with 5 bars." style="outline:0" fill="#A3EDBA" transform="translate(69 50)"><path class="highcharts-point highcharts-color-1" tabindex="-1" aria-label="2020/21, 4. Joshua Kimmich." style="outline:0" d="M130.5 110.5h51v111h-51z"/><path class="highcharts-point highcharts-color-1" tabindex="-1" aria-label="2019/20, 3. Joshua Kimmich." style="outline:0" d="M234.5 79.5h51v118h-51z"/><path class="highcharts-point highcharts-color-1" tabindex="-1" aria-label="2018/19, 2. Joshua Kimmich." style="outline:0" d="M339.5 158.5h51v79h-51z"/><path class="highcharts-point highcharts-color-1" tabindex="-1" aria-label="2017/18, 3. Joshua Kimmich." style="outline:0" d="M443.5 123.5h51v92h-51z"/></g><g class="highcharts-series highcharts-series-2 highcharts-column-series highcharts-color-2 highcharts-tracker" data-z-index=".1" clip-path="url(#b)" aria-hidden="false" tabindex="-1" aria-label="Sadio Mané, bar series 3 of 3 with 5 bars." style="outline:0" fill="#F19E53" transform="translate(69 50)"><path class="highcharts-point highcharts-color-2" tabindex="-1" aria-label="2021/22, 1. Sadio Mané." style="outline:0" d="M26.5 221.5h51v55h-51z"/><path class="highcharts-point highcharts-color-2" tabindex="-1" aria-label="2020/21, 2. Sadio Mané." style="outline:0" d="M130.5 221.5h51v55h-51z"/><path class="highcharts-point highcharts-color-2" tabindex="-1" aria-label="2019/20, 2. Sadio Mané." style="outline:0" d="M234.5 197.5h51v79h-51z"/><path class="highcharts-point highcharts-color-2" tabindex="-1" aria-label="2018/19, 1. Sadio Mané." style="outline:0" d="M339.5 237.5h51v39h-51z"/><path class="highcharts-point highcharts-color-2" tabindex="-1" aria-label="2017/18, 2. Sadio Mané." style="outline:0" d="M443.5 215.5h51v61h-51z"/></g></g><text x="300" text-anchor="middle" class="highcharts-title" data-z-index="4" style="color:#fff;font-size:22px;font-weight:500;fill:#fff" y="27" aria-hidden="true">UEFA CL most assists by season</text><g class="highcharts-legend highcharts-no-tooltip" data-z-index="7" transform="translate(119 359)" aria-hidden="true"><rect fill="transparent" class="highcharts-legend-box" rx="0" ry="0" width="361" height="26"/><g data-z-index="1"><g class="highcharts-legend-item highcharts-column-series highcharts-color-0 highcharts-series-0" data-z-index="1" transform="translate(8 3)"><text x="21" data-z-index="2" y="15" style="color:#fff;cursor:pointer;font-size:12px;font-weight:400;fill:#fff">Kevin De Bruyne</text><rect x="2" y="4" width="12" height="12" fill="#8087E8" rx="6" ry="6" class="highcharts-point" data-z-index="3"/></g><g class="highcharts-legend-item highcharts-column-series highcharts-color-1 highcharts-series-1" data-z-index="1" transform="translate(139.047 3)"><text x="21" y="15" data-z-index="2" style="color:#fff;cursor:pointer;font-size:12px;font-weight:400;fill:#fff">Joshua Kimmich</text><rect x="2" y="4" width="12" height="12" fill="#A3EDBA" rx="6" ry="6" class="highcharts-point" data-z-index="3"/></g><g class="highcharts-legend-item highcharts-column-series highcharts-color-2 highcharts-series-2" data-z-index="1" transform="translate(268.078 3)"><text x="21" y="15" data-z-index="2" style="color:#fff;cursor:pointer;font-size:12px;font-weight:400;fill:#fff">Sadio Mané</text><rect x="2" y="4" width="12" height="12" fill="#F19E53" rx="6" ry="6" class="highcharts-point" data-z-index="3"/></g></g></g><g class="highcharts-axis-labels highcharts-xaxis-labels" data-z-index="7" aria-hidden="true" text-anchor="middle"><text x="121.1" style="color:#fff;cursor:default;font-size:12px;fill:#fff" y="346">2021/22</text><text x="225.3" style="color:#fff;cursor:default;font-size:12px;fill:#fff" y="346">2020/21</text><text x="329.5" style="color:#fff;cursor:default;font-size:12px;fill:#fff" y="346">2019/20</text><text x="433.7" style="color:#fff;cursor:default;font-size:12px;fill:#fff" y="346">2018/19</text><text x="537.9" style="color:#fff;cursor:default;font-size:12px;fill:#fff" y="346">2017/18</text></g><g class="highcharts-axis-labels highcharts-yaxis-labels" data-z-index="7" aria-hidden="true" text-anchor="end"><text x="54" style="color:#fff;cursor:default;font-size:12px;fill:#fff" y="331">0</text><text x="54" style="color:#fff;cursor:default;font-size:12px;fill:#fff" y="262">25</text><text x="54" style="color:#fff;cursor:default;font-size:12px;fill:#fff" y="193">50</text><text x="54" style="color:#fff;cursor:default;font-size:12px;fill:#fff" y="124">75</text><text x="54" style="color:#fff;cursor:default;font-size:12px;fill:#fff" y="55">100</text></g></svg>