<svg class="highcharts-root" style="font-family:&quot;IBM Plex Sans&quot;,sans-serif;font-size:12px" xmlns="http://www.w3.org/2000/svg" width="600" height="400" aria-label="Interactive chart" aria-hidden="false"><defs aria-hidden="true"><linearGradient x1="0" y1="0" x2="0" y2="1" id="a"><stop offset="0" stop-color="#1f1836"/><stop offset="1" stop-color="#45445d"/></linearGradient><clipPath id="b"><path fill="none" d="M0 0h522v258H0z"/></clipPath></defs><rect fill="url(#a)" class="highcharts-background" width="600" height="400" rx="0" ry="0" aria-hidden="true"/><path fill="none" class="highcharts-plot-background" aria-hidden="true" d="M68 68h522v258H68z"/><g class="highcharts-grid highcharts-xaxis-grid" data-z-index="1" aria-hidden="true" fill="none"><path data-z-index="1" class="highcharts-grid-line" d="M154.5 68v258m87-258v258m87-258v258m87-258v258m87-258v258m87-258v258M67.5 68v258"/></g><g class="highcharts-grid highcharts-yaxis-grid" data-z-index="1" aria-hidden="true" fill="none" stroke="#707073"><path data-z-index="1" class="highcharts-grid-line" d="M68 326.5h522m-522-64h522m-522-65h522m-522-64h522m-522-66h522"/></g><path fill="none" class="highcharts-plot-border" data-z-index="1" aria-hidden="true" d="M68 68h522v258H68z"/><g class="highcharts-axis highcharts-xaxis" data-z-index="2" aria-hidden="true"><path fill="none" class="highcharts-axis-line" stroke="#707073" data-z-index="7" d="M68 326.5h522"/></g><g class="highcharts-axis highcharts-yaxis" data-z-index="2" aria-hidden="true"><path fill="none" class="highcharts-tick" stroke="#707073" d="M68 326.5H58m10-64H58m10-65H58m10-64H58m10-66H58"/><text x="23.648" data-z-index="7" text-anchor="middle" transform="rotate(-90 23.648 197)" class="highcharts-axis-title" style="color:#fff;font-weight:300;fill:#fff" y="197">Amount</text><path fill="none" class="highcharts-axis-line" data-z-index="7" d="M68 68v258"/></g><g class="highcharts-series-group" data-z-index="3" aria-hidden="false" stroke="#fff"><g class="highcharts-series highcharts-series-0 highcharts-column-series highcharts-color-0 highcharts-tracker" data-z-index=".1" clip-path="url(#b)" aria-hidden="false" tabindex="-1" aria-label="Boys, bar series 1 of 2 with 6 bars." style="outline:0" fill="#8087E8" transform="translate(68 68)"><path class="highcharts-point highcharts-color-0" tabindex="-1" aria-label="2016, 30,386. Boys." style="outline:0" d="M19.5 62.5h21v196h-21z"/><path class="highcharts-point highcharts-color-0" tabindex="-1" aria-label="2017, 29,173. Boys." style="outline:0" d="M106.5 70.5h21v188h-21z"/><path class="highcharts-point highcharts-color-0" tabindex="-1" aria-label="2018, 28,430. Boys." style="outline:0" d="M193.5 75.5h21v183h-21z"/><path class="highcharts-point highcharts-color-0" tabindex="-1" aria-label="2019, 28,042. Boys." style="outline:0" d="M280.5 77.5h21v181h-21z"/><path class="highcharts-point highcharts-color-0" tabindex="-1" aria-label="2020, 27,063. Boys." style="outline:0" d="M367.5 83.5h21v175h-21z"/><path class="highcharts-point highcharts-color-0" tabindex="-1" aria-label="2021, 28,684. Boys." style="outline:0" d="M454.5 73.5h21v185h-21z"/></g><g class="highcharts-series highcharts-series-1 highcharts-column-series highcharts-color-1 highcharts-tracker" data-z-index=".1" clip-path="url(#b)" aria-hidden="false" tabindex="-1" aria-label="Girls, bar series 2 of 2 with 6 bars." style="outline:0" fill="#A3EDBA" transform="translate(68 68)"><path class="highcharts-point highcharts-color-1" tabindex="-1" aria-label="2016, 28,504. Girls." style="outline:0" d="M45.5 74.5h21v184h-21z"/><path class="highcharts-point highcharts-color-1" tabindex="-1" aria-label="2017, 27,460. Girls." style="outline:0" d="M132.5 81.5h21v177h-21z"/><path class="highcharts-point highcharts-color-1" tabindex="-1" aria-label="2018, 26,690. Girls." style="outline:0" d="M219.5 86.5h21v172h-21z"/><path class="highcharts-point highcharts-color-1" tabindex="-1" aria-label="2019, 26,453. Girls." style="outline:0" d="M306.5 87.5h21v171h-21z"/><path class="highcharts-point highcharts-color-1" tabindex="-1" aria-label="2020, 25,916. Girls." style="outline:0" d="M393.5 91.5h21v167h-21z"/><path class="highcharts-point highcharts-color-1" tabindex="-1" aria-label="2021, 27,376. Girls." style="outline:0" d="M480.5 81.5h21v177h-21z"/></g></g><text x="300" text-anchor="middle" class="highcharts-title" data-z-index="4" style="color:#fff;font-size:22px;font-weight:500;fill:#fff" y="27" aria-hidden="true">Live births in Norway</text><text x="300" text-anchor="middle" class="highcharts-subtitle" data-z-index="4" style="color:#fff;font-size:16px;font-weight:400;fill:#fff" y="52" aria-hidden="true">Source: <a target="_blank"><tspan>SSB</tspan></a></text><g class="highcharts-legend highcharts-no-tooltip" data-z-index="7" transform="translate(235 359)" aria-hidden="true"><rect fill="transparent" class="highcharts-legend-box" rx="0" ry="0" width="129" height="26"/><g data-z-index="1"><g class="highcharts-legend-item highcharts-column-series highcharts-color-0 highcharts-series-0" data-z-index="1" transform="translate(8 3)"><text x="21" data-z-index="2" y="15" style="color:#fff;cursor:pointer;font-size:12px;font-weight:400;fill:#fff">Boys</text><rect x="2" y="4" width="12" height="12" fill="#8087E8" rx="6" ry="6" class="highcharts-point" data-z-index="3"/></g><g class="highcharts-legend-item highcharts-column-series highcharts-color-1 highcharts-series-1" data-z-index="1" transform="translate(75.68 3)"><text x="21" y="15" data-z-index="2" style="color:#fff;cursor:pointer;font-size:12px;font-weight:400;fill:#fff">Girls</text><rect x="2" y="4" width="12" height="12" fill="#A3EDBA" rx="6" ry="6" class="highcharts-point" data-z-index="3"/></g></g></g><g class="highcharts-axis-labels highcharts-xaxis-labels" data-z-index="7" aria-hidden="true" text-anchor="middle"><text x="111.5" style="color:#fff;cursor:default;font-size:12px;fill:#fff" y="346">2016</text><text x="198.5" style="color:#fff;cursor:default;font-size:12px;fill:#fff" y="346">2017</text><text x="285.5" style="color:#fff;cursor:default;font-size:12px;fill:#fff" y="346">2018</text><text x="372.5" style="color:#fff;cursor:default;font-size:12px;fill:#fff" y="346">2019</text><text x="459.5" style="color:#fff;cursor:default;font-size:12px;fill:#fff" y="346">2020</text><text x="546.5" style="color:#fff;cursor:default;font-size:12px;fill:#fff" y="346">2021</text></g><g class="highcharts-axis-labels highcharts-yaxis-labels" data-z-index="7" aria-hidden="true" text-anchor="end"><text x="53" style="color:#fff;cursor:default;font-size:12px;fill:#fff" y="331">0</text><text x="53" style="color:#fff;cursor:default;font-size:12px;fill:#fff" y="267">10k</text><text x="53" style="color:#fff;cursor:default;font-size:12px;fill:#fff" y="202">20k</text><text x="53" style="color:#fff;cursor:default;font-size:12px;fill:#fff" y="138">30k</text><text x="53" style="color:#fff;cursor:default;font-size:12px;fill:#fff" y="73">40k</text></g></svg>