<svg class="highcharts-root" style="font-family:&quot;IBM Plex Sans&quot;,sans-serif;font-size:12px" xmlns="http://www.w3.org/2000/svg" width="600" height="400" aria-label="Interactive chart" aria-hidden="false"><defs aria-hidden="true"><clipPath id="b"><path fill="none" d="M0 0h436v270H0z"/></clipPath><clipPath id="c"><path fill="none" d="M0 0h436v270H0z"/></clipPath><linearGradient x1="0" y1="0" x2="0" y2="1" id="a"><stop offset="0" stop-color="#1f1836"/><stop offset="1" stop-color="#45445d"/></linearGradient></defs><rect fill="url(#a)" class="highcharts-background" width="600" height="400" rx="0" ry="0" aria-hidden="true"/><path fill="none" class="highcharts-plot-background" aria-hidden="true" d="M79 93h436v270H79z"/><g class="highcharts-grid highcharts-xaxis-grid" data-z-index="1" aria-hidden="true" fill="none"><path data-z-index="1" class="highcharts-grid-line" d="M114.5 93v270m37-270v270m36-270v270m36-270v270m37-270v270m36-270v270m36-270v270m37-270v270m36-270v270m36-270v270m37-270v270m36-270v270M78.5 93v270"/></g><g class="highcharts-grid highcharts-yaxis-grid" data-z-index="1" aria-hidden="true" fill="none" stroke="#707073"><path data-z-index="1" class="highcharts-grid-line" d="M79 363.5h436m-436-67h436m-436-68h436m-436-67h436m-436-69h436"/></g><g class="highcharts-grid highcharts-yaxis-grid" data-z-index="1" aria-hidden="true" fill="none" stroke="#707073"><path data-z-index="1" class="highcharts-grid-line" d="M79 363.5h436m-436-67h436m-436-68h436m-436-67h436m-436-69h436"/></g><path fill="none" class="highcharts-plot-border" data-z-index="1" aria-hidden="true" d="M79 93h436v270H79z"/><g class="highcharts-axis highcharts-xaxis" data-z-index="2" aria-hidden="true"><path fill="none" class="highcharts-axis-line" stroke="#707073" data-z-index="7" d="M79 363.5h436"/></g><g class="highcharts-axis highcharts-yaxis" data-z-index="2" aria-hidden="true"><path fill="none" class="highcharts-tick" stroke="#707073" d="M79 363.5H69m10-67H69m10-68H69m10-67H69m10-69H69"/><text x="23.188" data-z-index="7" text-anchor="middle" transform="rotate(-90 23.187 228)" class="highcharts-axis-title" style="color:#a3edba;font-weight:300;fill:#a3edba" y="228">Temperature</text><path fill="none" class="highcharts-axis-line" data-z-index="7" d="M79 93v270"/></g><g class="highcharts-axis highcharts-yaxis" data-z-index="2" aria-hidden="true"><path fill="none" class="highcharts-tick" stroke="#707073" d="M515 363.5h10m-10-67h10m-10-68h10m-10-67h10m-10-69h10"/><text x="576.68" data-z-index="7" text-anchor="middle" transform="rotate(90 576.68 228)" class="highcharts-axis-title" style="color:#8087e8;font-weight:300;fill:#8087e8" y="228">Precipitation</text><path fill="none" class="highcharts-axis-line" data-z-index="7" d="M515 93v270"/></g><g class="highcharts-series-group" data-z-index="3" aria-hidden="false"><g class="highcharts-series highcharts-series-0 highcharts-column-series highcharts-color-0 highcharts-tracker" data-z-index=".1" clip-path="url(#b)" aria-hidden="false" tabindex="-1" aria-label="Precipitation, series 1 of 2. Bar series with 12 bars. Y axis, Precipitation." style="outline:0" fill="#8087E8" stroke="#fff" transform="translate(79 93)"><path class="highcharts-point highcharts-color-0" tabindex="-1" aria-label="Jan, 27.6 mm. Precipitation." style="outline:0" d="M8.5 177.5h18v93h-18z"/><path class="highcharts-point highcharts-color-0" tabindex="-1" aria-label="Feb, 28.8 mm. Precipitation." style="outline:0" d="M45.5 173.5h18v97h-18z"/><path class="highcharts-point highcharts-color-0" tabindex="-1" aria-label="Mar, 21.7 mm. Precipitation." style="outline:0" d="M81.5 197.5h18v73h-18z"/><path class="highcharts-point highcharts-color-0" tabindex="-1" aria-label="Apr, 34.1 mm. Precipitation." style="outline:0" d="M117.5 155.5h18v115h-18z"/><path class="highcharts-point highcharts-color-0" tabindex="-1" aria-label="May, 29 mm. Precipitation." style="outline:0" d="M154.5 172.5h18v98h-18z"/><path class="highcharts-point highcharts-color-0" tabindex="-1" aria-label="Jun, 28.4 mm. Precipitation." style="outline:0" d="M190.5 174.5h18v96h-18z"/><path class="highcharts-point highcharts-color-0" tabindex="-1" aria-label="Jul, 45.6 mm. Precipitation." style="outline:0" d="M226.5 116.5h18v154h-18z"/><path class="highcharts-point highcharts-color-0" tabindex="-1" aria-label="Aug, 51.7 mm. Precipitation." style="outline:0" d="M263.5 96.5h18v174h-18z"/><path class="highcharts-point highcharts-color-0" tabindex="-1" aria-label="Sep, 39 mm. Precipitation." style="outline:0" d="M299.5 138.5h18v132h-18z"/><path class="highcharts-point highcharts-color-0" tabindex="-1" aria-label="Oct, 60 mm. Precipitation." style="outline:0" d="M335.5 68.5h18v202h-18z"/><path class="highcharts-point highcharts-color-0" tabindex="-1" aria-label="Nov, 28.6 mm. Precipitation." style="outline:0" d="M372.5 173.5h18v97h-18z"/><path class="highcharts-point highcharts-color-0" tabindex="-1" aria-label="Dec, 32.1 mm. Precipitation." style="outline:0" d="M408.5 162.5h18v108h-18z"/></g><g class="highcharts-series highcharts-series-1 highcharts-spline-series highcharts-color-1" data-z-index=".1" clip-path="url(#c)" aria-hidden="true" fill="none" stroke-linejoin="round" stroke-linecap="round" transform="translate(79 93)"><path d="M18.167 226.8s21.8 8.775 36.333 8.775c14.533 0 21.8-42.255 36.333-61.425 14.534-19.17 21.8-22.41 36.334-34.425 14.533-12.015 21.8-7.155 36.333-25.65 14.533-18.495 21.8-56.7 36.333-66.825 14.534-10.125 21.8-10.125 36.334-10.125 14.533 0 21.8 13.23 36.333 24.975 14.533 11.745 21.8 18.225 36.333 33.75 14.534 15.525 21.8 21.195 36.334 43.875 14.533 22.68 21.8 48.33 36.333 69.525 14.533 21.195 36.333 36.45 36.333 36.45" class="highcharts-graph" data-z-index="1" stroke="#A3EDBA" stroke-width="2"/><path d="M18.167 226.8s21.8 8.775 36.333 8.775c14.533 0 21.8-42.255 36.333-61.425 14.534-19.17 21.8-22.41 36.334-34.425 14.533-12.015 21.8-7.155 36.333-25.65 14.533-18.495 21.8-56.7 36.333-66.825 14.534-10.125 21.8-10.125 36.334-10.125 14.533 0 21.8 13.23 36.333 24.975 14.533 11.745 21.8 18.225 36.333 33.75 14.534 15.525 21.8 21.195 36.334 43.875 14.533 22.68 21.8 48.33 36.333 69.525 14.533 21.195 36.333 36.45 36.333 36.45" data-z-index="2" class="highcharts-tracker-line" stroke="rgba(192,192,192,0.0001)" stroke-width="22"/></g><g class="highcharts-markers highcharts-series-1 highcharts-spline-series highcharts-color-1 highcharts-tracker" data-z-index=".1" aria-hidden="false" tabindex="-1" aria-label="Temperature, series 2 of 2. Line with 12 data points. Y axis, Temperature." style="outline:0" fill="#A3EDBA"><path d="M18 231a4 4 0 1 1 .004 0Z" class="highcharts-point highcharts-negative highcharts-color-1" tabindex="-1" aria-label="Jan, -13.6°C. Temperature." style="outline:0" transform="translate(79 93)"/><path d="M54 240a4 4 0 1 1 .004 0Z" class="highcharts-point highcharts-negative highcharts-color-1" tabindex="-1" aria-label="Feb, -14.9°C. Temperature." style="outline:0" transform="translate(79 93)"/><path d="M90 178a4 4 0 1 1 .004 0Z" class="highcharts-point highcharts-negative highcharts-color-1" tabindex="-1" aria-label="Mar, -5.8°C. Temperature." style="outline:0" transform="translate(79 93)"/><path d="M127 144a4 4 0 1 1 .004 0Z" class="highcharts-point highcharts-negative highcharts-color-1" tabindex="-1" aria-label="Apr, -0.7°C. Temperature." style="outline:0" transform="translate(79 93)"/><path d="M163 118a4 4 0 1 1 .004 0Z" class="highcharts-point highcharts-color-1" tabindex="-1" aria-label="May, 3.1°C. Temperature." style="outline:0" transform="translate(79 93)"/><path d="M199 51a4 4 0 1 1 .004 0Z" class="highcharts-point highcharts-color-1" tabindex="-1" aria-label="Jun, 13°C. Temperature." style="outline:0" transform="translate(79 93)"/><path d="M236 41a4 4 0 1 1 .004 0Z" class="highcharts-point highcharts-color-1" tabindex="-1" aria-label="Jul, 14.5°C. Temperature." style="outline:0" transform="translate(79 93)"/><path d="M272 66a4 4 0 1 1 .004 0Z" class="highcharts-point highcharts-color-1" tabindex="-1" aria-label="Aug, 10.8°C. Temperature." style="outline:0" transform="translate(79 93)"/><path d="M308 100a4 4 0 1 1 .004 0Z" class="highcharts-point highcharts-color-1" tabindex="-1" aria-label="Sep, 5.8°C. Temperature." style="outline:0" transform="translate(79 93)"/><path d="M345 144a4 4 0 1 1 .004 0Z" class="highcharts-point highcharts-negative highcharts-color-1" tabindex="-1" aria-label="Oct, -0.7°C. Temperature." style="outline:0" transform="translate(79 93)"/><path d="M381 213a4 4 0 1 1 .004 0Z" class="highcharts-point highcharts-negative highcharts-color-1" tabindex="-1" aria-label="Nov, -11°C. Temperature." style="outline:0" transform="translate(79 93)"/><path d="M417 250a4 4 0 1 1 .004 0Z" class="highcharts-point highcharts-negative highcharts-color-1" tabindex="-1" aria-label="Dec, -16.4°C. Temperature." style="outline:0" transform="translate(79 93)"/></g></g><text x="10" class="highcharts-title" data-z-index="4" style="color:#fff;font-size:22px;font-weight:500;fill:#fff" y="27" aria-hidden="true">Average Monthly Precipitation and Temperature in<tspan dy="25" x="10">​</tspan>Karasjok, 2021</text><text x="300" text-anchor="middle" class="highcharts-subtitle" data-z-index="4" style="color:#fff;font-size:16px;font-weight:400;fill:#fff" y="77" aria-hidden="true">Source: <a target="_blank"><tspan>YR</tspan></a></text><g class="highcharts-legend highcharts-no-tooltip" data-z-index="7" transform="translate(90 90)" aria-hidden="true"><rect fill="transparent" class="highcharts-legend-box" rx="0" ry="0" width="211" height="26"/><g data-z-index="1"><g class="highcharts-legend-item highcharts-column-series highcharts-color-0 highcharts-series-0" data-z-index="1" transform="translate(8 3)"><text x="21" data-z-index="2" y="15" style="color:#fff;cursor:pointer;font-size:12px;font-weight:400;fill:#fff">Precipitation</text><rect x="2" y="4" width="12" height="12" fill="#8087E8" rx="6" ry="6" class="highcharts-point" data-z-index="3"/></g><g class="highcharts-legend-item highcharts-spline-series highcharts-color-1 highcharts-series-1" data-z-index="1"><path fill="none" d="M115.04 14h16" class="highcharts-graph" stroke-width="2" stroke="#A3EDBA"/><path fill="#A3EDBA" d="M123.04 18a4 4 0 1 1 .003 0Z" class="highcharts-point"/><text x="21" y="15" data-z-index="2" style="color:#fff;cursor:pointer;font-size:12px;font-weight:400;fill:#fff" transform="translate(115.04 3)">Temperature</text></g></g></g><g class="highcharts-axis-labels highcharts-xaxis-labels" data-z-index="7" aria-hidden="true" text-anchor="middle"><text x="97.167" style="color:#fff;cursor:default;font-size:12px;fill:#fff" y="383">Jan</text><text x="133.5" style="color:#fff;cursor:default;font-size:12px;fill:#fff" y="383">Feb</text><text x="169.833" style="color:#fff;cursor:default;font-size:12px;fill:#fff" y="383">Mar</text><text x="206.167" style="color:#fff;cursor:default;font-size:12px;fill:#fff" y="383">Apr</text><text x="242.5" style="color:#fff;cursor:default;font-size:12px;fill:#fff" y="383">May</text><text x="278.833" style="color:#fff;cursor:default;font-size:12px;fill:#fff" y="383">Jun</text><text x="315.167" style="color:#fff;cursor:default;font-size:12px;fill:#fff" y="383">Jul</text><text x="351.5" style="color:#fff;cursor:default;font-size:12px;fill:#fff" y="383">Aug</text><text x="387.833" style="color:#fff;cursor:default;font-size:12px;fill:#fff" y="383">Sep</text><text x="424.167" style="color:#fff;cursor:default;font-size:12px;fill:#fff" y="383">Oct</text><text x="460.5" style="color:#fff;cursor:default;font-size:12px;fill:#fff" y="383">Nov</text><text x="496.833" style="color:#fff;cursor:default;font-size:12px;fill:#fff" y="383">Dec</text></g><g class="highcharts-axis-labels highcharts-yaxis-labels" data-z-index="7" aria-hidden="true" text-anchor="end"><text x="64" style="color:#a3edba;cursor:default;font-size:12px;fill:#a3edba" y="368">-20°C</text><text x="64" style="color:#a3edba;cursor:default;font-size:12px;fill:#a3edba" y="301">-10°C</text><text x="64" style="color:#a3edba;cursor:default;font-size:12px;fill:#a3edba" y="233">0°C</text><text x="64" style="color:#a3edba;cursor:default;font-size:12px;fill:#a3edba" y="166">10°C</text><text x="64" style="color:#a3edba;cursor:default;font-size:12px;fill:#a3edba" y="98">20°C</text></g><g class="highcharts-axis-labels highcharts-yaxis-labels" data-z-index="7" aria-hidden="true"><text x="530" style="color:#8087e8;cursor:default;font-size:12px;fill:#8087e8" y="368">0 mm</text><text x="530" style="color:#8087e8;cursor:default;font-size:12px;fill:#8087e8" y="301">20 mm</text><text x="530" style="color:#8087e8;cursor:default;font-size:12px;fill:#8087e8" y="233">40 mm</text><text x="530" style="color:#8087e8;cursor:default;font-size:12px;fill:#8087e8" y="166">60 mm</text><text x="530" style="color:#8087e8;cursor:default;font-size:12px;fill:#8087e8" y="98">80 mm</text></g></svg>