<svg class="highcharts-root" style="font-family:&quot;IBM Plex Sans&quot;,sans-serif;font-size:12px" xmlns="http://www.w3.org/2000/svg" width="600" height="500" aria-label="Interactive chart" aria-hidden="false"><defs aria-hidden="true"><path fill="none" d="M286.894.897a216.625 216.625 0 0 1 49.13 4.923" id="c"/><path fill="none" d="M345.293 8.05a216.625 216.625 0 0 1 72.317 34.401" id="d"/><path fill="none" d="M427.602 50.192a216.625 216.625 0 0 1 61.041 80.895" id="e"/><path fill="none" d="M492.253 139.912a216.625 216.625 0 0 1 13.898 63.262" id="f"/><path fill="none" d="M484.962 311.925a216.625 216.625 0 0 0 21.605-99.443" id="g"/><path fill="none" d="M420.507 390.4a216.625 216.625 0 0 0 32-29.659" id="h"/><path fill="none" d="M374.918 416.787a216.625 216.625 0 0 0 38.211-21.058" id="i"/><path fill="none" d="M296.496 434.028a216.625 216.625 0 0 0 69.976-13.85" id="j"/><path fill="none" d="M208.475 418.199a216.625 216.625 0 0 0 78.92 15.91" id="k"/><path fill="none" d="M123.956 356.626a216.625 216.625 0 0 0 76.16 57.971" id="l"/><path fill="none" d="M74.673 241.176a216.625 216.625 0 0 0 41.71 105.876" id="m"/><path fill="none" d="M73.854 231.894a216.625 216.625 0 0 1 5.406-64.544" id="n"/><path fill="none" d="M81.671 158.125a216.625 216.625 0 0 1 74.96-111.327" id="o"/><path fill="none" d="M164.273 41.094a216.625 216.625 0 0 1 23.556-14.611" id="p"/><path fill="none" d="M196.334 22.172A216.625 216.625 0 0 1 279.9 1.111" id="q"/><linearGradient x1="0" y1="0" x2="0" y2="1" id="a"><stop offset="0" stop-color="#1f1836"/><stop offset="1" stop-color="#45445d"/></linearGradient><clipPath id="b"><path fill="none" d="M0 0h580v435H0z"/></clipPath></defs><rect fill="url(#a)" class="highcharts-background" width="600" height="500" rx="0" ry="0" aria-hidden="true"/><path fill="none" class="highcharts-plot-background" aria-hidden="true" d="M10 50h580v435H10z"/><path fill="none" class="highcharts-plot-border" data-z-index="1" aria-hidden="true" d="M10 50h580v435H10z"/><g class="highcharts-series-group" data-z-index="3" aria-hidden="false"><g class="highcharts-series highcharts-series-0 highcharts-dependencywheel-series highcharts-tracker" data-z-index=".1" clip-path="url(#b)" aria-hidden="false" transform="translate(10 50)"><path fill="rgba(128,135,232,0.5)" d="M306.062 30.564a186.625 186.625 0 0 1 23.193 3.463c-1.115 5.21 7.276 7.214 8.636 2.063a186.625 186.625 0 0 1 22.255 7.39c-12.52 31.059-56.95 20.447-54.084-12.916" class="highcharts-link highcharts-point highcharts-color-0" tabindex="-1" aria-label="1. From Brazil to Portugal: 5. Dependency wheel series." style="outline:0"/><path fill="rgba(128,135,232,0.5)" d="M301.382 30.22a186.625 186.625 0 0 1 4.68.344c-5.807 67.585 60.03 94.417 103.12 42.026a186.625 186.625 0 0 1 3.586 3.026c-48.07 55.556-115.843 27.935-111.386-45.395" class="highcharts-link highcharts-point highcharts-color-1" tabindex="-1" aria-label="2. From Brazil to France: 1. Dependency wheel series." style="outline:0"/><path fill="rgba(128,135,232,0.5)" d="M296.694 29.994a186.625 186.625 0 0 1 4.688.227c-6.83 112.367 58.689 160.398 163.795 120.078a186.625 186.625 0 0 1 1.626 4.402c-106.082 37.68-174.125-12.203-170.109-124.707" class="highcharts-link highcharts-point highcharts-color-2" tabindex="-1" aria-label="3. From Brazil to Spain: 1. Dependency wheel series." style="outline:0"/><path fill="rgba(128,135,232,0.5)" d="M292.003 29.886a186.625 186.625 0 0 1 4.691.108c-4.016 112.504 68.338 185.843 180.885 183.348a186.625 186.625 0 0 1 .045 4.692c-112.574-.32-186.823-75.58-185.621-188.148" class="highcharts-link highcharts-point highcharts-color-3" tabindex="-1" aria-label="4. From Brazil to England: 1. Dependency wheel series." style="outline:0"/><path fill="rgba(135,180,231,0.5)" d="M440.37 329.715a186.625 186.625 0 0 1-2.854 3.725c-88.51-69.564-104.774-177.63-40.662-270.165a186.625 186.625 0 0 1 3.824 2.721c-66.407 90.902-50.53 196.39 39.692 263.719" class="highcharts-link highcharts-point highcharts-color-4" tabindex="-1" aria-label="5. From Canada to Portugal: 1. Dependency wheel series." style="outline:0"/><path fill="rgba(135,180,231,0.5)" d="M452.912 310.574a186.625 186.625 0 0 1-12.882 19.594c-90.018-67.6-85.443-150.892 11.436-208.228a186.625 186.625 0 0 1 10.66 20.887c-95.88 41.595-99.96 115.902-9.214 167.747" class="highcharts-link highcharts-point highcharts-color-5" tabindex="-1" aria-label="6. From Canada to France: 5. Dependency wheel series." style="outline:0"/><path fill="rgba(135,180,231,0.5)" d="M455.19 306.47a186.625 186.625 0 0 1-2.278 4.104c-9.094-5.196-1.595-19.867 7.943-15.539a186.625 186.625 0 0 1-1.993 4.249c-4.358-2.11-7.936 4.89-3.673 7.186" class="highcharts-link highcharts-point highcharts-color-6" tabindex="-1" aria-label="7. From Canada to England: 1. Dependency wheel series." style="outline:0"/><path fill="rgba(218,109,133,0.5)" d="M406.84 364.304a186.625 186.625 0 0 1-3.708 2.876c-67.879-89.808-71.797-212.321-9.796-306.284a186.625 186.625 0 0 1 3.885 2.634c-64.333 92.382-60.485 212.692 9.62 300.774" class="highcharts-link highcharts-point highcharts-color-7" tabindex="-1" aria-label="8. From Mexico to Portugal: 1. Dependency wheel series." style="outline:0"/><path fill="rgba(218,109,133,0.5)" d="M410.476 361.336a186.625 186.625 0 0 1-3.635 2.968c-70.105-88.082-53.149-186.5 42.39-246.046a186.625 186.625 0 0 1 2.431 4.014c-96.997 57.137-113.472 152.762-41.186 239.064" class="highcharts-link highcharts-point highcharts-color-0" tabindex="-1" aria-label="9. From Mexico to France: 1. Dependency wheel series." style="outline:0"/><path fill="rgba(218,109,133,0.5)" d="M427.477 345.184a186.625 186.625 0 0 1-17.001 16.152c-72.286-86.302-46.794-158.1 63.73-179.494a186.625 186.625 0 0 1 3.009 23.256c-91.507 6.062-116.934 77.677-49.738 140.086" class="highcharts-link highcharts-point highcharts-color-1" tabindex="-1" aria-label="10. From Mexico to Spain: 5. Dependency wheel series." style="outline:0"/><path fill="rgba(218,109,133,0.5)" d="M430.627 341.706a186.625 186.625 0 0 1-3.15 3.478c-28.493-26.463-.658-69.344 35.113-54.091a186.625 186.625 0 0 1-1.895 4.293c-30.254-13.805-54.993 24.306-30.068 46.32" class="highcharts-link highcharts-point highcharts-color-2" tabindex="-1" aria-label="11. From Mexico to England: 1. Dependency wheel series." style="outline:0"/><path fill="rgba(187,186,197,0.5)" d="M367.954 388.164a186.625 186.625 0 0 1-4.293 1.897c-44.197-103.537-33.906-236.217 25.726-331.7a186.625 186.625 0 0 1 3.95 2.535c-62.002 93.963-72.155 224.87-25.383 327.268" class="highcharts-link highcharts-point highcharts-color-3" tabindex="-1" aria-label="12. From USA to Portugal: 1. Dependency wheel series." style="outline:0"/><path fill="rgba(187,186,197,0.5)" d="M372.198 386.161a186.625 186.625 0 0 1-4.244 2.003c-46.772-102.398-15.275-211.941 78.744-273.857a186.625 186.625 0 0 1 2.532 3.951c-95.538 59.545-126.35 166.707-77.032 267.903" class="highcharts-link highcharts-point highcharts-color-4" tabindex="-1" aria-label="13. From USA to France: 1. Dependency wheel series." style="outline:0"/><path fill="rgba(187,186,197,0.5)" d="M376.39 384.053a186.625 186.625 0 0 1-4.192 2.108c-49.319-101.196-8.896-184.763 101.058-208.915a186.625 186.625 0 0 1 .95 4.596c-110.524 21.395-149.65 102.28-97.816 202.21" class="highcharts-link highcharts-point highcharts-color-5" tabindex="-1" aria-label="14. From USA to Spain: 1. Dependency wheel series." style="outline:0"/><path fill="rgba(187,186,197,0.5)" d="M396.491 371.976a186.625 186.625 0 0 1-20.1 12.077c-42.21-81.376 5.879-140.22 94.03-115.064a186.625 186.625 0 0 1-7.831 22.104c-58.423-24.912-102.147 28.591-66.099 80.883" class="highcharts-link highcharts-point highcharts-color-6" tabindex="-1" aria-label="15. From USA to England: 5. Dependency wheel series." style="outline:0"/><path fill="rgba(163,237,186,0.5)" d="M381.305 53.59a186.625 186.625 0 0 1 8.082 4.77c-59.632 95.484-76.51 230.618-42.192 337.835a186.625 186.625 0 0 1-9.007 2.636c-28.913-108.798-11.666-246.895 43.117-345.241" class="highcharts-link highcharts-point highcharts-color-7" tabindex="-1" aria-label="16. From Portugal to Angola: 2. Dependency wheel series." style="outline:0"/><path fill="rgba(163,237,186,0.5)" d="M377.177 51.358a186.625 186.625 0 0 1 4.128 2.232c-54.783 98.346-101.636 238.246-117.132 349.749a186.625 186.625 0 0 1-4.64-.704c18.28-111.081 65.338-251.592 117.644-351.277" class="highcharts-link highcharts-point highcharts-color-0" tabindex="-1" aria-label="17. From Portugal to Senegal: 1. Dependency wheel series." style="outline:0"/><path fill="rgba(163,237,186,0.5)" d="M372.995 49.23a186.625 186.625 0 0 1 4.182 2.128c-52.306 99.685-131.33 226.83-197.559 317.862a186.625 186.625 0 0 1-3.76-2.808c68.485-89.347 147.34-216.22 197.137-317.183" class="highcharts-link highcharts-point highcharts-color-1" tabindex="-1" aria-label="18. From Portugal to Morocco: 1. Dependency wheel series." style="outline:0"/><path fill="rgba(163,237,186,0.5)" d="M360.146 43.48a186.625 186.625 0 0 1 12.849 5.75c-49.797 100.962-151.676 198.526-254.698 243.91a186.625 186.625 0 0 1-5.187-13.086C219.244 242.522 318.058 147.892 360.146 43.48" class="highcharts-link highcharts-point highcharts-color-2" tabindex="-1" aria-label="19. From Portugal to South Africa: 3. Dependency wheel series." style="outline:0"/><path fill="rgba(241,158,83,0.5)" d="M444.068 110.42a186.625 186.625 0 0 1 2.63 3.887c-94.019 61.916-132.04 174.076-95.052 280.402a186.625 186.625 0 0 1-4.451 1.486c-34.317-107.217 4.432-221.527 96.873-285.775" class="highcharts-link highcharts-point highcharts-color-3" tabindex="-1" aria-label="20. From France to Angola: 1. Dependency wheel series." style="outline:0"/><path fill="rgba(241,158,83,0.5)" d="M435.607 99.171a186.625 186.625 0 0 1 8.461 11.25c-92.44 64.247-158.797 181.98-165.89 294.331a186.625 186.625 0 0 1-14.005-1.413c15.496-111.503 84.07-233.17 171.434-304.168" class="highcharts-link highcharts-point highcharts-color-4" tabindex="-1" aria-label="21. From France to Senegal: 3. Dependency wheel series." style="outline:0"/><path fill="rgba(241,158,83,0.5)" d="M412.768 75.616a186.625 186.625 0 0 1 10.292 9.603c-79.836 79.369-207.944 137.268-320.27 144.748a186.625 186.625 0 0 1-.408-14.07c112.57.962 236.725-55.15 310.386-140.281" class="highcharts-link highcharts-point highcharts-color-5" tabindex="-1" aria-label="22. From France to Mali: 3. Dependency wheel series." style="outline:0"/><path fill="rgba(241,158,83,0.5)" d="M426.326 88.588a186.625 186.625 0 0 1 9.281 10.583c-87.364 70.997-185.086 182.156-244.304 277.897a186.625 186.625 0 0 1-11.685-7.848c66.23-91.032 164.913-203.285 246.708-280.632" class="highcharts-link highcharts-point highcharts-color-6" tabindex="-1" aria-label="23. From France to Morocco: 3. Dependency wheel series." style="outline:0"/><path fill="rgba(241,158,83,0.5)" d="M423.06 85.219a186.625 186.625 0 0 1 3.266 3.37c-81.795 77.346-204.229 160.875-306.083 208.82a186.625 186.625 0 0 1-1.946-4.27C221.32 247.756 343.224 164.588 423.06 85.22" class="highcharts-link highcharts-point highcharts-color-7" tabindex="-1" aria-label="24. From France to South Africa: 1. Dependency wheel series." style="outline:0"/><path fill="rgba(102,153,161,0.5)" d="M472.192 172.675a186.625 186.625 0 0 1 1.064 4.57c-109.954 24.153-186.11 115.25-190.391 227.744a186.625 186.625 0 0 1-4.687-.237c7.093-112.351 84.699-205.182 194.014-232.077" class="highcharts-link highcharts-point highcharts-color-0" tabindex="-1" aria-label="25. From Spain to Senegal: 1. Dependency wheel series." style="outline:0"/><path fill="rgba(102,153,161,0.5)" d="M468.319 159.143a186.625 186.625 0 0 1 3.873 13.532C362.877 199.57 255.417 284.107 203.544 384.02a186.625 186.625 0 0 1-12.24-6.95c59.217-95.742 170.023-182.912 277.015-217.926" class="highcharts-link highcharts-point highcharts-color-1" tabindex="-1" aria-label="26. From Spain to Morocco: 3. Dependency wheel series." style="outline:0"/><path fill="rgba(102,153,161,0.5)" d="M466.803 154.7a186.625 186.625 0 0 1 1.516 4.443c-106.992 35.014-245.401 92.01-346.025 142.487a186.625 186.625 0 0 1-2.051-4.22c101.854-47.946 240.478-105.03 346.56-142.71" class="highcharts-link highcharts-point highcharts-color-2" tabindex="-1" aria-label="27. From Spain to South Africa: 1. Dependency wheel series." style="outline:0"/><path fill="rgba(225,211,105,0.5)" d="M471.653 264.46a186.625 186.625 0 0 1-1.231 4.529C369.42 240.165 319.079 294.803 356.059 393.11a186.625 186.625 0 0 1-4.413 1.598c-36.36-104.522 12.864-157.947 120.007-130.249" class="highcharts-link highcharts-point highcharts-color-3" tabindex="-1" aria-label="28. From England to Angola: 1. Dependency wheel series." style="outline:0"/><path fill="rgba(225,211,105,0.5)" d="M472.77 259.902a186.625 186.625 0 0 1-1.117 4.558c-108.992-28.176-182.63 28.084-184.097 140.65a186.625 186.625 0 0 1-4.691-.12c4.28-112.494 80.243-170.529 189.906-145.088" class="highcharts-link highcharts-point highcharts-color-4" tabindex="-1" aria-label="29. From England to Senegal: 1. Dependency wheel series." style="outline:0"/><path fill="rgba(225,211,105,0.5)" d="M474.663 250.71a186.625 186.625 0 0 1-1.892 9.192c-109.663-25.441-213.98 25.851-260.792 128.232a186.625 186.625 0 0 1-8.435-4.115c51.873-99.912 160.321-153.235 271.119-133.309" class="highcharts-link highcharts-point highcharts-color-5" tabindex="-1" aria-label="30. From England to Morocco: 2. Dependency wheel series." style="outline:0"/><path fill="rgba(225,211,105,0.5)" d="M477.624 218.034a186.625 186.625 0 0 1-2.961 32.676c-110.798-19.926-244.857 11.613-335.15 78.848a186.625 186.625 0 0 1-17.219-27.928c100.624-50.478 242.756-83.916 355.33-83.596" class="highcharts-link highcharts-point highcharts-color-6" tabindex="-1" aria-label="31. From England to South Africa: 7. Dependency wheel series." style="outline:0"/><path fill="rgba(102,153,161,0.5)" d="M107.746 262.072a186.625 186.625 0 0 1-4.136-23.082c57.874-6.673 67.372-72.19 13.775-95.023a186.625 186.625 0 0 1 10.52-20.957c74.657 43.52 63.783 118.533-20.159 139.062" class="highcharts-link highcharts-point highcharts-color-7" tabindex="-1" aria-label="32. From South Africa to China: 5. Dependency wheel series." style="outline:0"/><path fill="rgba(102,153,161,0.5)" d="M108.918 266.617a186.625 186.625 0 0 1-1.172-4.545C217.098 235.33 247.984 155.314 184.96 62.034a186.625 186.625 0 0 1 3.921-2.578c60.672 94.826 28.687 177.69-79.962 207.16" class="highcharts-link highcharts-point highcharts-color-0" tabindex="-1" aria-label="33. From South Africa to India: 1. Dependency wheel series." style="outline:0"/><path fill="rgba(102,153,161,0.5)" d="M113.11 280.054a186.625 186.625 0 0 1-4.192-13.437c108.65-29.47 153.796-119.031 112.867-223.902a186.625 186.625 0 0 1 13.295-4.622c32.952 107.644-15.836 204.429-121.97 241.96" class="highcharts-link highcharts-point highcharts-color-1" tabindex="-1" aria-label="34. From South Africa to Japan: 3. Dependency wheel series." style="outline:0"/><path fill="rgba(128,135,232,0.5)" d="M319.834 402.738a186.625 186.625 0 0 1-23.34 2.275C292.599 292.505 236.537 164.83 156.34 85.827a186.625 186.625 0 0 1 17.469-15.645c69.715 88.391 128.126 221.413 146.026 332.556" class="highcharts-link highcharts-point highcharts-color-2" tabindex="-1" aria-label="35. From Angola to China: 5. Dependency wheel series." style="outline:0"/><path fill="rgba(128,135,232,0.5)" d="M324.458 401.934a186.625 186.625 0 0 1-4.624.804c-17.9-111.143-67.07-250.4-122.924-348.141a186.625 186.625 0 0 1 4.103-2.277c53.392 99.108 102.77 238.953 123.445 349.614" class="highcharts-link highcharts-point highcharts-color-3" tabindex="-1" aria-label="36. From Angola to India: 1. Dependency wheel series." style="outline:0"/><path fill="rgba(128,135,232,0.5)" d="M338.188 398.831a186.625 186.625 0 0 1-13.73 3.103c-20.675-110.66-45.45-258.675-61.937-370.036a186.625 186.625 0 0 1 13.992-1.538c8.092 112.284 32.762 259.673 61.675 368.471" class="highcharts-link highcharts-point highcharts-color-4" tabindex="-1" aria-label="37. From Angola to Japan: 3. Dependency wheel series." style="outline:0"/><path fill="rgba(163,237,186,0.5)" d="M241.624 398.781a186.625 186.625 0 0 1-22.235-7.45c42.367-104.299 10.994-219.42-78.431-287.803a186.625 186.625 0 0 1 15.38-17.701c80.198 79.004 114.312 204.186 85.286 312.954" class="highcharts-link highcharts-point highcharts-color-5" tabindex="-1" aria-label="38. From Senegal to China: 5. Dependency wheel series." style="outline:0"/><path fill="rgba(163,237,186,0.5)" d="M245.74 399.83a186.625 186.625 0 0 1-4.547-1.164c29.284-108.7 9.953-245.376-48.328-341.69a186.625 186.625 0 0 1 4.045-2.379c55.854 97.742 75.386 235.835 48.83 345.233" class="highcharts-link highcharts-point highcharts-color-6" tabindex="-1" aria-label="39. From Senegal to India: 1. Dependency wheel series." style="outline:0"/><path fill="rgba(163,237,186,0.5)" d="M259.533 402.635a186.625 186.625 0 0 1-13.794-2.805c26.557-109.398 27.735-255.538 2.945-365.35a186.625 186.625 0 0 1 13.837-2.582c16.488 111.361 15.292 259.656-2.988 370.737" class="highcharts-link highcharts-point highcharts-color-7" tabindex="-1" aria-label="40. From Senegal to Japan: 3. Dependency wheel series." style="outline:0"/><path fill="rgba(225,211,105,0.5)" d="M103.48 197.165a186.625 186.625 0 0 1 3.994-23.108c4.817 1.147 6.848-6.626 2.086-7.983a186.625 186.625 0 0 1 7.825-22.107c30.46 12.977 19.01 56.786-13.905 53.198" class="highcharts-link highcharts-point highcharts-color-0" tabindex="-1" aria-label="41. From Mali to China: 5. Dependency wheel series." style="outline:0"/><path fill="rgba(225,211,105,0.5)" d="M103.03 201.836a186.625 186.625 0 0 1 .45-4.671c94.34 10.285 132.703-55.175 77.624-132.455a186.625 186.625 0 0 1 3.855-2.676c56.282 83.3 18.251 148.195-81.929 139.802" class="highcharts-link highcharts-point highcharts-color-1" tabindex="-1" aria-label="42. From Mali to India: 1. Dependency wheel series." style="outline:0"/><path fill="rgba(225,211,105,0.5)" d="M102.382 215.897a186.625 186.625 0 0 1 .648-14.061c112.182 9.398 154.52-52.008 105.843-153.515a186.625 186.625 0 0 1 12.912-5.606c40.929 104.871-6.832 174.144-119.403 173.182" class="highcharts-link highcharts-point highcharts-color-2" tabindex="-1" aria-label="43. From Mali to Japan: 3. Dependency wheel series." style="outline:0"/><path fill="rgba(241,158,83,0.5)" d="M162.34 354.999A186.625 186.625 0 0 1 146.184 338c86.289-72.3 78.977-158.297-18.28-214.991a186.625 186.625 0 0 1 13.053-19.482c89.425 68.383 97.978 168.972 21.381 251.47" class="highcharts-link highcharts-point highcharts-color-3" tabindex="-1" aria-label="44. From Morocco to China: 5. Dependency wheel series." style="outline:0"/><path fill="rgba(241,158,83,0.5)" d="M165.016 357.436a186.625 186.625 0 0 1-3.461-3.17c77.067-82.06 87.997-199.984 27.325-294.81a186.625 186.625 0 0 1 3.985-2.48c58.28 96.314 47.141 216.498-27.85 300.46" class="highcharts-link highcharts-point highcharts-color-4" tabindex="-1" aria-label="45. From Morocco to India: 1. Dependency wheel series." style="outline:0"/><path fill="rgba(241,158,83,0.5)" d="M175.858 366.412a186.625 186.625 0 0 1-10.842-8.976c74.99-83.962 103.016-211.699 70.064-319.343a186.625 186.625 0 0 1 13.604-3.613c24.79 109.812-4.34 242.585-72.826 331.932" class="highcharts-link highcharts-point highcharts-color-5" tabindex="-1" aria-label="46. From Morocco to Japan: 3. Dependency wheel series." style="outline:0"/><path fill="rgba(187,186,197,0.5)" d="M276.513 30.36a186.625 186.625 0 0 1 4.685-.278c.172 3.665 6.164 3.481 6.112-.188a186.625 186.625 0 0 1 4.693-.008c-.1 9.3-14.821 9.751-15.49.474" class="highcharts-link highcharts-point highcharts-color-6" tabindex="-1" aria-label="47. From Japan to Brazil: 1. Dependency wheel series." style="outline:0"/><path fill="#8087E8" d="M287.037 11.396a206.625 206.625 0 0 1 46.862 4.696l-4.25 19.544a186.625 186.625 0 0 0-42.325-4.242Z" class="highcharts-node highcharts-point highcharts-color-0"/><path fill="#A3EDBA" d="M342.74 18.22a206.625 206.625 0 0 1 68.98 32.812l-11.782 16.161a186.625 186.625 0 0 0-62.302-29.636Z" class="highcharts-node highcharts-point highcharts-color-1"/><path fill="#F19E53" d="M421.25 58.415a206.625 206.625 0 0 1 58.223 77.161l-18.34 7.978a186.625 186.625 0 0 0-52.587-69.692Z" class="highcharts-node highcharts-point highcharts-color-2"/><path fill="#6699A1" d="M482.917 143.993a206.625 206.625 0 0 1 13.256 60.342l-19.957 1.323a186.625 186.625 0 0 0-11.972-54.501Z" class="highcharts-node highcharts-point highcharts-color-3"/><path fill="#E1D369" d="M496.574 213.42a206.625 206.625 0 0 1-20.522 94.46l-18.008-8.7a186.625 186.625 0 0 0 18.535-85.316Z" class="highcharts-node highcharts-point highcharts-color-4"/><path fill="#87B4E7" d="M471.917 315.98a206.625 206.625 0 0 1-19.335 29.539l-15.737-12.343a186.625 186.625 0 0 0 17.464-26.68Z" class="highcharts-node highcharts-point highcharts-color-5"/><path fill="#DA6D85" d="M444.868 354.784a206.625 206.625 0 0 1-30.22 28.01l-12.066-15.951a186.625 186.625 0 0 0 27.296-25.299Z" class="highcharts-node highcharts-point highcharts-color-6"/><path fill="#BBBAC5" d="M407.275 388.119a206.625 206.625 0 0 1-36.087 19.887l-7.858-18.391a186.625 186.625 0 0 0 32.594-17.963Z" class="highcharts-node highcharts-point highcharts-color-7"/><path fill="#8087E8" d="M362.748 411.395a206.625 206.625 0 0 1-66.345 13.13l-.62-19.99a186.625 186.625 0 0 0 59.924-11.86Z" class="highcharts-node highcharts-point highcharts-color-0"/><path fill="#A3EDBA" d="M287.308 424.607a206.625 206.625 0 0 1-74.878-15.095l7.508-18.537a186.625 186.625 0 0 0 67.631 13.634Z" class="highcharts-node highcharts-point highcharts-color-1"/><path fill="#F19E53" d="M204.078 405.913a206.625 206.625 0 0 1-72.324-55.052l15.317-12.86a186.625 186.625 0 0 0 65.323 49.723Z" class="highcharts-node highcharts-point highcharts-color-2"/><path fill="#6699A1" d="M124.275 341.406a206.625 206.625 0 0 1-39.64-100.618l19.878-2.205a186.625 186.625 0 0 0 35.803 90.878Z" class="highcharts-node highcharts-point highcharts-color-3"/><path fill="#E1D369" d="M83.832 231.73a206.625 206.625 0 0 1 5.156-61.565l19.457 4.63a186.625 186.625 0 0 0-4.658 55.606Z" class="highcharts-node highcharts-point highcharts-color-4"/><path fill="#87B4E7" d="M91.288 161.366a206.625 206.625 0 0 1 71.5-106.188l12.314 15.76a186.625 186.625 0 0 0-64.58 95.91Z" class="highcharts-node highcharts-point highcharts-color-5"/><path fill="#DA6D85" d="M170.076 49.738a206.625 206.625 0 0 1 22.47-13.937l9.433 17.635a186.625 186.625 0 0 0-20.295 12.588Z" class="highcharts-node highcharts-point highcharts-color-6"/><path fill="#BBBAC5" d="M200.658 31.689a206.625 206.625 0 0 1 79.708-20.09l.932 19.979a186.625 186.625 0 0 0-71.992 18.145Z" class="highcharts-node highcharts-point highcharts-color-7"/></g></g><text x="300" text-anchor="middle" class="highcharts-title" data-z-index="4" style="color:#fff;font-size:22px;font-weight:500;fill:#fff" y="27" aria-hidden="true">Highcharts Dependency Wheel</text><g class="highcharts-data-labels highcharts-series-0 highcharts-dependencywheel-series highcharts-tracker" data-z-index="6" aria-hidden="true"><text data-z-index="1" dy="5" style="color:#333;font-size:13px;font-weight:700;fill:#333" class="highcharts-label highcharts-data-label highcharts-data-label-color-0" transform="translate(10 50)"><textPath startOffset="50%" text-anchor="middle" href="#c">Brazil</textPath></text><text data-z-index="1" dy="5" style="color:#333;font-size:13px;font-weight:700;fill:#333" class="highcharts-label highcharts-data-label highcharts-data-label-color-1" transform="translate(10 50)"><textPath startOffset="50%" text-anchor="middle" href="#d">Portugal</textPath></text><text data-z-index="1" dy="5" style="color:#333;font-size:13px;font-weight:700;fill:#333" class="highcharts-label highcharts-data-label highcharts-data-label-color-2" transform="translate(10 50)"><textPath startOffset="50%" text-anchor="middle" href="#e">France</textPath></text><text data-z-index="1" dy="5" style="color:#333;font-size:13px;font-weight:700;fill:#333" class="highcharts-label highcharts-data-label highcharts-data-label-color-3" transform="translate(10 50)"><textPath startOffset="50%" text-anchor="middle" href="#f">Spain</textPath></text><text data-z-index="1" dy="5" style="color:#333;font-size:13px;font-weight:700;fill:#333" class="highcharts-label highcharts-data-label highcharts-data-label-color-4" transform="translate(10 50)"><textPath startOffset="50%" text-anchor="middle" href="#g">England</textPath></text><text data-z-index="1" dy="5" style="color:#333;font-size:13px;font-weight:700;fill:#333" class="highcharts-label highcharts-data-label highcharts-data-label-color-6" transform="translate(10 50)"><textPath startOffset="50%" text-anchor="middle" href="#h">Mexico</textPath></text><text data-z-index="1" dy="5" style="color:#333;font-size:13px;font-weight:700;fill:#333" class="highcharts-label highcharts-data-label highcharts-data-label-color-7" transform="translate(10 50)"><textPath startOffset="50%" text-anchor="middle" href="#i">USA</textPath></text><text data-z-index="1" dy="5" style="color:#333;font-size:13px;font-weight:700;fill:#333" class="highcharts-label highcharts-data-label highcharts-data-label-color-0" transform="translate(10 50)"><textPath startOffset="50%" text-anchor="middle" href="#j">Angola</textPath></text><text data-z-index="1" dy="5" style="color:#333;font-size:13px;font-weight:700;fill:#333" class="highcharts-label highcharts-data-label highcharts-data-label-color-1" transform="translate(10 50)"><textPath startOffset="50%" text-anchor="middle" href="#k">Senegal</textPath></text><text data-z-index="1" dy="5" style="color:#333;font-size:13px;font-weight:700;fill:#333" class="highcharts-label highcharts-data-label highcharts-data-label-color-2" transform="translate(10 50)"><textPath startOffset="50%" text-anchor="middle" href="#l">Morocco</textPath></text><text data-z-index="1" dy="5" style="color:#333;font-size:13px;font-weight:700;fill:#333" class="highcharts-label highcharts-data-label highcharts-data-label-color-3" transform="translate(10 50)"><textPath startOffset="50%" text-anchor="middle" href="#m">South Africa</textPath></text><text data-z-index="1" dy="5" style="color:#333;font-size:13px;font-weight:700;fill:#333" class="highcharts-label highcharts-data-label highcharts-data-label-color-4" transform="translate(10 50)"><textPath startOffset="50%" text-anchor="middle" href="#n">Mali</textPath></text><text data-z-index="1" dy="5" style="color:#333;font-size:13px;font-weight:700;fill:#333" class="highcharts-label highcharts-data-label highcharts-data-label-color-5" transform="translate(10 50)"><textPath startOffset="50%" text-anchor="middle" href="#o">China</textPath></text><text data-z-index="1" dy="5" style="color:#333;font-size:13px;font-weight:700;fill:#333" class="highcharts-label highcharts-data-label highcharts-data-label-color-6" transform="translate(10 50)"><textPath startOffset="50%" text-anchor="middle" href="#p">India</textPath></text><text data-z-index="1" dy="5" style="color:#333;font-size:13px;font-weight:700;fill:#333" class="highcharts-label highcharts-data-label highcharts-data-label-color-7" transform="translate(10 50)"><textPath startOffset="50%" text-anchor="middle" href="#q">Japan</textPath></text></g></svg>