<svg class="highcharts-root" style="font-family:&quot;IBM Plex Sans&quot;,sans-serif;font-size:12px" xmlns="http://www.w3.org/2000/svg" width="600" height="400" aria-label="Interactive chart" aria-hidden="false"><defs aria-hidden="true"><linearGradient x1="0" y1="0" x2="0" y2="1" id="a"><stop offset="0" stop-color="#1f1836"/><stop offset="1" stop-color="#45445d"/></linearGradient></defs><rect fill="url(#a)" class="highcharts-background" width="600" height="400" rx="0" ry="0" aria-hidden="true"/><path fill="none" class="highcharts-plot-background" aria-hidden="true" d="M89 68h501v249H89z"/><g class="highcharts-grid highcharts-xaxis-grid" data-z-index="1" aria-hidden="true" fill="none"><path data-z-index="1" class="highcharts-grid-line" d="M138.5 68v249m50-249v249m50-249v249m50-249v249m51-249v249m50-249v249m50-249v249m50-249v249m50-249v249m50-249v249M88.5 68v249"/></g><g class="highcharts-grid highcharts-yaxis-grid" data-z-index="1" aria-hidden="true" fill="none" stroke="#707073"><path data-z-index="1" class="highcharts-grid-line" d="M89 317.5h501m-501-62h501m-501-62h501m-501-63h501m-501-63h501"/></g><path fill="none" class="highcharts-plot-border" data-z-index="1" aria-hidden="true" d="M89 68h501v249H89z"/><g class="highcharts-axis highcharts-xaxis" data-z-index="2" aria-hidden="true"><path fill="none" class="highcharts-axis-line" stroke="#707073" data-z-index="7" d="M89 317.5h501"/></g><g class="highcharts-axis highcharts-yaxis" data-z-index="2" aria-hidden="true"><path fill="none" class="highcharts-tick" stroke="#707073" d="M89 317.5H79m10-62H79m10-62H79m10-63H79m10-63H79"/><text x="23.969" data-z-index="7" text-anchor="middle" transform="rotate(-90 23.969 192.5)" class="highcharts-axis-title" style="color:#fff;font-weight:300;fill:#fff" y="192.5">Population</text><path fill="none" class="highcharts-axis-line" data-z-index="7" d="M89 68v249"/></g><g class="highcharts-series-group" data-z-index="3" aria-hidden="false"><g class="highcharts-markers highcharts-series-0 highcharts-lollipop-series highcharts-color-0 highcharts-tracker" data-z-index=".1" aria-hidden="false"><path fill="none" class="highcharts-lollipop-stem" data-z-index="-1" d="M114.5 137.195V317m50-173.48V317m50-41.448V317m50-34.407V317m50-28.037V317m50-26.642V317m50-26.32V317m50-20.705V317m50-18.166V317m50-16.218V317" stroke="#8087E8"/><path fill="#8087E8" d="M25 73a4 4 0 1 1 .004 0Z" class="highcharts-point highcharts-color-0 highcharts-lollipop-low" tabindex="-1" aria-label="1. China, 1444216107. Population." style="outline:0" transform="translate(89 68)"/><path fill="#8087E8" d="M75 79a4 4 0 1 1 .004 0Z" class="highcharts-point highcharts-color-0 highcharts-lollipop-low" tabindex="-1" aria-label="2. India, 1393409038. Population." style="outline:0" transform="translate(89 68)"/><path fill="#8087E8" d="M125 211a4 4 0 1 1 .004 0Z" class="highcharts-point highcharts-color-0 highcharts-lollipop-low" tabindex="-1" aria-label="3. United States, 332915073. Population." style="outline:0" transform="translate(89 68)"/><path fill="#8087E8" d="M175 218a4 4 0 1 1 .004 0Z" class="highcharts-point highcharts-color-0 highcharts-lollipop-low" tabindex="-1" aria-label="4. Indonesia, 276361783. Population." style="outline:0" transform="translate(89 68)"/><path fill="#8087E8" d="M225 224a4 4 0 1 1 .004 0Z" class="highcharts-point highcharts-color-0 highcharts-lollipop-low" tabindex="-1" aria-label="5. Pakistan, 225199937. Population." style="outline:0" transform="translate(89 68)"/><path fill="#8087E8" d="M275 226a4 4 0 1 1 .004 0Z" class="highcharts-point highcharts-color-0 highcharts-lollipop-low" tabindex="-1" aria-label="6. Brazil, 213993437. Population." style="outline:0" transform="translate(89 68)"/><path fill="#8087E8" d="M325 226a4 4 0 1 1 .004 0Z" class="highcharts-point highcharts-color-0 highcharts-lollipop-low" tabindex="-1" aria-label="7. Nigeria, 211400708. Population." style="outline:0" transform="translate(89 68)"/><path fill="#8087E8" d="M375 232a4 4 0 1 1 .004 0Z" class="highcharts-point highcharts-color-0 highcharts-lollipop-low" tabindex="-1" aria-label="8. Bangladesh, 166303498. Population." style="outline:0" transform="translate(89 68)"/><path fill="#8087E8" d="M425 234a4 4 0 1 1 .004 0Z" class="highcharts-point highcharts-color-0 highcharts-lollipop-low" tabindex="-1" aria-label="9. Russia, 145912025. Population." style="outline:0" transform="translate(89 68)"/><path fill="#8087E8" d="M475 236a4 4 0 1 1 .004 0Z" class="highcharts-point highcharts-color-0 highcharts-lollipop-low" tabindex="-1" aria-label="10. Mexico, 130262216. Population." style="outline:0" transform="translate(89 68)"/></g></g><text x="300" text-anchor="middle" class="highcharts-title" data-z-index="4" style="color:#fff;font-size:22px;font-weight:500;fill:#fff" y="27" aria-hidden="true">Top 10 Countries by Population</text><text x="300" text-anchor="middle" class="highcharts-subtitle" data-z-index="4" style="color:#fff;font-size:16px;font-weight:400;fill:#fff" y="52" aria-hidden="true">2021</text><g class="highcharts-axis-labels highcharts-xaxis-labels" data-z-index="7" aria-hidden="true" text-anchor="end"><text x="116.878" transform="rotate(-45 116.878 333)" style="color:#fff;cursor:default;font-size:12px;fill:#fff" y="333">China</text><text x="166.978" transform="rotate(-45 166.978 333)" style="color:#fff;cursor:default;font-size:12px;fill:#fff" y="333">India</text><text x="217.078" transform="rotate(-45 217.078 333)" style="color:#fff;cursor:default;font-size:12px;fill:#fff" y="333">United States</text><text x="267.178" transform="rotate(-45 267.178 333)" style="color:#fff;cursor:default;font-size:12px;fill:#fff" y="333">Indonesia</text><text x="317.278" transform="rotate(-45 317.278 333)" style="color:#fff;cursor:default;font-size:12px;fill:#fff" y="333">Pakistan</text><text x="367.378" transform="rotate(-45 367.378 333)" style="color:#fff;cursor:default;font-size:12px;fill:#fff" y="333">Brazil</text><text x="417.478" transform="rotate(-45 417.478 333)" style="color:#fff;cursor:default;font-size:12px;fill:#fff" y="333">Nigeria</text><text x="467.578" transform="rotate(-45 467.578 333)" style="color:#fff;cursor:default;font-size:12px;fill:#fff" y="333">Bangladesh</text><text x="517.678" transform="rotate(-45 517.678 333)" style="color:#fff;cursor:default;font-size:12px;fill:#fff" y="333">Russia</text><text x="567.778" transform="rotate(-45 567.778 333)" style="color:#fff;cursor:default;font-size:12px;fill:#fff" y="333">Mexico</text></g><g class="highcharts-axis-labels highcharts-yaxis-labels" data-z-index="7" aria-hidden="true" text-anchor="end"><text x="74" style="color:#fff;cursor:default;font-size:12px;fill:#fff" y="322">0</text><text x="74" style="color:#fff;cursor:default;font-size:12px;fill:#fff" y="260">500M</text><text x="74" style="color:#fff;cursor:default;font-size:12px;fill:#fff" y="198">1 000M</text><text x="74" style="color:#fff;cursor:default;font-size:12px;fill:#fff" y="136">1 500M</text><text x="74" style="color:#fff;cursor:default;font-size:12px;fill:#fff" y="73">2 000M</text></g></svg>