<svg class="highcharts-root" style="font-family:&quot;IBM Plex Sans&quot;,sans-serif;font-size:12px" xmlns="http://www.w3.org/2000/svg" width="600" height="400" aria-label="Interactive chart" aria-hidden="false"><defs aria-hidden="true"><linearGradient x1="0" y1="0" x2="0" y2="1" id="a"><stop offset="0" stop-color="#1f1836"/><stop offset="1" stop-color="#45445d"/></linearGradient></defs><rect fill="url(#a)" class="highcharts-background" width="600" height="400" rx="0" ry="0" aria-hidden="true"/><path fill="none" class="highcharts-plot-background" aria-hidden="true" d="M10 50h580v297H10z"/><path fill="none" class="highcharts-plot-border" data-z-index="1" aria-hidden="true" d="M10 50h580v297H10z"/><g class="highcharts-series-group" data-z-index="3" aria-hidden="false"><g class="highcharts-series highcharts-series-0 highcharts-pie-series highcharts-tracker" data-z-index=".1" style="cursor:pointer" aria-hidden="false" stroke="#fff" stroke-linejoin="round"><path fill="#8087E8" d="M289.972 10a138.5 138.5 0 1 1-138.46 140.383L290 148.5Z" transform="translate(17 57)" class="highcharts-point highcharts-point-select highcharts-color-0" tabindex="-1" aria-label="Chrome, 74.77%. Brands." style="outline:0"/><path fill="#A3EDBA" d="M151.511 150.244a138.5 138.5 0 0 1 41.244-100.362L290 148.5Z" transform="translate(10 50)" class="highcharts-point highcharts-color-1" tabindex="-1" aria-label="Edge, 12.82%. Brands." style="outline:0"/><path fill="#F19E53" d="M192.853 49.784a138.5 138.5 0 0 1 32.285-23.657L290 148.5Z" transform="translate(10 50)" class="highcharts-point highcharts-color-2" tabindex="-1" aria-label="Firefox, 4.63%. Brands." style="outline:0"/><path fill="#6699A1" d="M225.26 26.062a138.5 138.5 0 0 1 19.285-8.39L290 148.5Z" transform="translate(10 50)" class="highcharts-point highcharts-color-3" tabindex="-1" aria-label="Safari, 2.44%. Brands." style="outline:0"/><path fill="#E1D369" d="M244.676 17.626a138.5 138.5 0 0 1 16.806-4.658L290 148.5Z" transform="translate(10 50)" class="highcharts-point highcharts-color-4" tabindex="-1" aria-label="Internet Explorer, 2.02%. Brands." style="outline:0"/><path fill="#87B4E7" d="M261.618 12.94a138.5 138.5 0 0 1 28.19-2.94L290 148.5Z" transform="translate(10 50)" class="highcharts-point highcharts-color-5" tabindex="-1" aria-label="Other, 3.28%. Brands." style="outline:0"/></g></g><text x="300" text-anchor="middle" class="highcharts-title" data-z-index="4" style="color:#fff;font-size:22px;font-weight:500;fill:#fff" y="27" aria-hidden="true">Browser market shares in March, 2022</text><g class="highcharts-legend highcharts-no-tooltip" data-z-index="7" transform="translate(50 359)" aria-hidden="true"><rect fill="transparent" class="highcharts-legend-box" rx="0" ry="0" width="499" height="26"/><g data-z-index="1"><g class="highcharts-legend-item highcharts-pie-series highcharts-color-0" data-z-index="1" transform="translate(8 3)"><text x="21" data-z-index="2" y="15" style="color:#fff;cursor:pointer;font-size:12px;font-weight:400;fill:#fff">Chrome</text><rect x="2" y="4" width="12" height="12" fill="#8087E8" rx="6" ry="6" class="highcharts-point" data-z-index="3"/></g><g class="highcharts-legend-item highcharts-pie-series highcharts-color-1" data-z-index="1" transform="translate(91.68 3)"><text x="21" y="15" data-z-index="2" style="color:#fff;cursor:pointer;font-size:12px;font-weight:400;fill:#fff">Edge</text><rect x="2" y="4" width="12" height="12" fill="#A3EDBA" rx="6" ry="6" class="highcharts-point" data-z-index="3"/></g><g class="highcharts-legend-item highcharts-pie-series highcharts-color-2" data-z-index="1" transform="translate(160.71 3)"><text x="21" y="15" data-z-index="2" style="color:#fff;cursor:pointer;font-size:12px;font-weight:400;fill:#fff">Firefox</text><rect x="2" y="4" width="12" height="12" fill="#F19E53" rx="6" ry="6" class="highcharts-point" data-z-index="3"/></g><g class="highcharts-legend-item highcharts-pie-series highcharts-color-3" data-z-index="1" transform="translate(238.39 3)"><text x="21" y="15" data-z-index="2" style="color:#fff;cursor:pointer;font-size:12px;font-weight:400;fill:#fff">Safari</text><rect x="2" y="4" width="12" height="12" fill="#6699A1" rx="6" ry="6" class="highcharts-point" data-z-index="3"/></g><g class="highcharts-legend-item highcharts-pie-series highcharts-color-4" data-z-index="1" transform="translate(310.742 3)"><text x="21" y="15" data-z-index="2" style="color:#fff;cursor:pointer;font-size:12px;font-weight:400;fill:#fff">Internet Explorer</text><rect x="2" y="4" width="12" height="12" fill="#E1D369" rx="6" ry="6" class="highcharts-point" data-z-index="3"/></g><g class="highcharts-legend-item highcharts-pie-series highcharts-color-5" data-z-index="1" transform="translate(440.617 3)"><text x="21" y="15" data-z-index="2" style="color:#fff;cursor:pointer;font-size:12px;font-weight:400;fill:#fff">Other</text><rect x="2" y="4" width="12" height="12" fill="#87B4E7" rx="6" ry="6" class="highcharts-point" data-z-index="3"/></g></g></g></svg>