<svg class="highcharts-root" style="font-family:&quot;IBM Plex Sans&quot;,sans-serif;font-size:12px" xmlns="http://www.w3.org/2000/svg" width="600" height="400" aria-label="Interactive chart" aria-hidden="false"><defs aria-hidden="true"><linearGradient x1="0" y1="0" x2="0" y2="1" id="a"><stop offset="0" stop-color="#1f1836"/><stop offset="1" stop-color="#45445d"/></linearGradient></defs><rect fill="url(#a)" class="highcharts-background" width="600" height="400" rx="0" ry="0" aria-hidden="true"/><path fill="none" class="highcharts-plot-background" aria-hidden="true" d="M10 68h580v317H10z"/><path fill="none" class="highcharts-plot-border" data-z-index="1" aria-hidden="true" d="M10 68h580v317H10z"/><g class="highcharts-series-group" data-z-index="3" aria-hidden="false" stroke="#fff" stroke-linejoin="round"><g class="highcharts-series highcharts-series-0 highcharts-pie-series highcharts-tracker" data-z-index=".1" aria-hidden="false" tabindex="-1" aria-label="Browsers, pie 1 of 2 with 5 slices." style="outline:0"><path fill="#F19E53" d="M289.981 65.4a93.1 93.1 0 1 1-62.15 162.401L290 158.5Z" transform="translate(10 68)" class="highcharts-point highcharts-color-0" tabindex="-1" aria-label="Chrome, 61.04%. Browsers." style="outline:0"/><path fill="#6699A1" d="M227.762 227.739a93.1 93.1 0 0 1-28.225-47.236L290 158.5Z" transform="translate(10 68)" class="highcharts-point highcharts-color-1" tabindex="-1" aria-label="Safari, 9.47%. Browsers." style="outline:0"/><path fill="#87B4E7" d="M199.515 180.412a93.1 93.1 0 0 1 3.139-54.134L290 158.5Z" transform="translate(10 68)" class="highcharts-point highcharts-color-2" tabindex="-1" aria-label="Edge, 9.32%. Browsers." style="outline:0"/><path fill="#A3EDBA" d="M202.686 126.191a93.1 93.1 0 0 1 27.31-38.874L290 158.5Z" transform="translate(10 68)" class="highcharts-point highcharts-color-3" tabindex="-1" aria-label="Firefox, 8.15%. Browsers." style="outline:0"/><path fill="#DA6D85" d="M230.067 87.257A93.1 93.1 0 0 1 289.87 65.4l.129 93.1Z" transform="translate(10 68)" class="highcharts-point highcharts-color-4" tabindex="-1" aria-label="Other, 11.02%. Browsers." style="outline:0"/></g><g class="highcharts-series highcharts-series-1 highcharts-pie-series highcharts-tracker" data-z-index=".1" aria-hidden="false" tabindex="-1" aria-label="Versions, pie 2 of 2 with 44 slices." style="outline:0"><path fill="#FFD186" d="M289.975 37.7a120.8 120.8 0 0 1 86.412 205.24l-34.555-33.776A72.48 72.48 0 0 0 289.985 86.02Z" transform="translate(10 68)" class="highcharts-point highcharts-color-0" tabindex="-1" aria-label="Chrome v97.0, 36.89%. Versions." style="outline:0"/><path fill="#FFCE83" d="M376.302 243.026a120.8 120.8 0 0 1-128.54 28.649l16.895-45.27a72.48 72.48 0 0 0 77.124-17.19Z" transform="translate(10 68)" class="highcharts-point highcharts-color-1" tabindex="-1" aria-label="Chrome v96.0, 18.16%. Versions." style="outline:0"/><path fill="#FFCC81" d="M247.648 271.633a120.8 120.8 0 0 1-3.71-1.46l18.425-44.669a72.48 72.48 0 0 0 2.226.876Z" transform="translate(10 68)" class="highcharts-point highcharts-color-2" tabindex="-1" aria-label="Chrome v95.0, 0.54%. Versions." style="outline:0"/><path fill="#FFCA7F" d="M243.827 270.128a120.8 120.8 0 0 1-4.865-2.14l20.415-43.795a72.48 72.48 0 0 0 2.92 1.284Z" transform="translate(10 68)" class="highcharts-point highcharts-color-3" tabindex="-1" aria-label="Chrome v94.0, 0.7%. Versions." style="outline:0"/><path fill="#FFC87D" d="M238.852 267.937a120.8 120.8 0 0 1-5.405-2.693l22.621-42.697a72.48 72.48 0 0 0 3.243 1.615Z" transform="translate(10 68)" class="highcharts-point highcharts-color-4" tabindex="-1" aria-label="Chrome v93.0, 0.8%. Versions." style="outline:0"/><path fill="#FFC67B" d="M233.34 265.188a120.8 120.8 0 0 1-2.65-1.45l23.724-42.095a72.48 72.48 0 0 0 1.59.87Z" transform="translate(10 68)" class="highcharts-point highcharts-color-5" tabindex="-1" aria-label="Chrome v92.0, 0.41%. Versions." style="outline:0"/><path fill="#FFC479" d="M230.586 263.679a120.8 120.8 0 0 1-1.988-1.148l24.56-41.612a72.48 72.48 0 0 0 1.193.688Z" transform="translate(10 68)" class="highcharts-point highcharts-color-6" tabindex="-1" aria-label="Chrome v91.0, 0.31%. Versions." style="outline:0"/><path fill="#FFC277" d="M228.494 262.47a120.8 120.8 0 0 1-.726-.434l24.893-41.414a72.48 72.48 0 0 0 .435.26Z" transform="translate(10 68)" class="highcharts-point highcharts-color-7" tabindex="-1" aria-label="Chrome v90.0, 0.13%. Versions." style="outline:0"/><path fill="#FFC075" d="M227.664 261.974a120.8 120.8 0 0 1-.826-.502l25.265-41.189a72.48 72.48 0 0 0 .496.301Z" transform="translate(10 68)" class="highcharts-point highcharts-color-0" tabindex="-1" aria-label="Chrome v89.0, 0.14%. Versions." style="outline:0"/><path fill="#FFBE73" d="M226.735 261.409a120.8 120.8 0 0 1-.513-.318l25.511-41.036a72.48 72.48 0 0 0 .308.19Z" transform="translate(10 68)" class="highcharts-point highcharts-color-1" tabindex="-1" aria-label="Chrome v88.0, 0.1%. Versions." style="outline:0"/><path fill="#FFBC71" d="M226.12 261.027a120.8 120.8 0 0 1-2.14-1.364l26.408-40.465a72.48 72.48 0 0 0 1.283.818Z" transform="translate(10 68)" class="highcharts-point highcharts-color-2" tabindex="-1" aria-label="Chrome v87.0, 0.35%. Versions." style="outline:0"/><path fill="#FFBA6F" d="M223.88 259.597a120.8 120.8 0 0 1-1.008-.666l26.85-40.172a72.48 72.48 0 0 0 .606.4Z" transform="translate(10 68)" class="highcharts-point highcharts-color-3" tabindex="-1" aria-label="Chrome v86.0, 0.17%. Versions." style="outline:0"/><path fill="#FFB86D" d="M222.771 258.864a120.8 120.8 0 0 1-1.1-.746l27.332-39.847a72.48 72.48 0 0 0 .66.447Z" transform="translate(10 68)" class="highcharts-point highcharts-color-4" tabindex="-1" aria-label="Chrome v85.0, 0.18%. Versions." style="outline:0"/><path fill="#FFB66B" d="M221.572 258.05a120.8 120.8 0 0 1-.894-.62l27.73-39.572a72.48 72.48 0 0 0 .535.372Z" transform="translate(10 68)" class="highcharts-point highcharts-color-5" tabindex="-1" aria-label="Chrome v84.0, 0.17%. Versions." style="outline:0"/><path fill="#FFB469" d="M220.58 257.36a120.8 120.8 0 0 1-1.28-.91l28.28-39.18a72.48 72.48 0 0 0 .768.546Z" transform="translate(10 68)" class="highcharts-point highcharts-color-6" tabindex="-1" aria-label="Chrome v83.0, 0.21%. Versions." style="outline:0"/><path fill="#FFB267" d="M219.202 256.38a120.8 120.8 0 0 1-.488-.356l28.514-39.01a72.48 72.48 0 0 0 .293.214Z" transform="translate(10 68)" class="highcharts-point highcharts-color-7" tabindex="-1" aria-label="Chrome v81.0, 0.1%. Versions." style="outline:0"/><path fill="#FFB065" d="M218.616 255.953a120.8 120.8 0 0 1-.874-.647l28.903-38.722a72.48 72.48 0 0 0 .525.388Z" transform="translate(10 68)" class="highcharts-point highcharts-color-0" tabindex="-1" aria-label="Chrome v89.0, 0.16%. Versions." style="outline:0"/><path fill="#FFAE63" d="M217.645 255.234a120.8 120.8 0 0 1-2.585-1.989l29.976-37.898a72.48 72.48 0 0 0 1.551 1.193Z" transform="translate(10 68)" class="highcharts-point highcharts-color-1" tabindex="-1" aria-label="Chrome v79.0, 0.43%. Versions." style="outline:0"/><path fill="#FFAC61" d="M214.966 253.17a120.8 120.8 0 0 1-.567-.452l30.24-37.687a72.48 72.48 0 0 0 .34.271Z" transform="translate(10 68)" class="highcharts-point highcharts-color-2" tabindex="-1" aria-label="Chrome v78.0, 0.11%. Versions." style="outline:0"/><path fill="#FDAA5F" d="M214.305 252.643a120.8 120.8 0 0 1-.844-.685l30.615-37.383a72.48 72.48 0 0 0 .507.41Z" transform="translate(10 68)" class="highcharts-point highcharts-color-3" tabindex="-1" aria-label="Chrome v76.0, 0.16%. Versions." style="outline:0"/><path fill="#FBA85D" d="M213.367 251.881a120.8 120.8 0 0 1-.744-.616l30.95-37.106a72.48 72.48 0 0 0 .447.37Z" transform="translate(10 68)" class="highcharts-point highcharts-color-4" tabindex="-1" aria-label="Chrome v75.0, 0.15%. Versions." style="outline:0"/><path fill="#F9A65B" d="M212.53 251.188a120.8 120.8 0 0 1-.74-.623l31.284-36.826a72.48 72.48 0 0 0 .444.374Z" transform="translate(10 68)" class="highcharts-point highcharts-color-5" tabindex="-1" aria-label="Chrome v72.0, 0.14%. Versions." style="outline:0"/><path fill="#F7A459" d="M211.699 250.487a120.8 120.8 0 0 1-.55-.472l31.54-36.606a72.48 72.48 0 0 0 .33.283Z" transform="translate(10 68)" class="highcharts-point highcharts-color-6" tabindex="-1" aria-label="Chrome v70.0, 0.11%. Versions." style="outline:0"/><path fill="#F5A257" d="M211.057 249.936a120.8 120.8 0 0 1-.638-.554l31.832-36.353a72.48 72.48 0 0 0 .383.333Z" transform="translate(10 68)" class="highcharts-point highcharts-color-7" tabindex="-1" aria-label="Chrome v69.0, 0.13%. Versions." style="outline:0"/><path fill="#F3A055" d="M210.328 249.302a120.8 120.8 0 0 1-.634-.56l32.123-36.097a72.48 72.48 0 0 0 .38.336Z" transform="translate(10 68)" class="highcharts-point highcharts-color-0" tabindex="-1" aria-label="Chrome v56.0, 0.12%. Versions." style="outline:0"/><path fill="#99CCD4" d="M209.604 248.662a120.8 120.8 0 0 1-.45-.403l32.339-35.904a72.48 72.48 0 0 0 .27.242Z" transform="translate(10 68)" class="highcharts-point highcharts-color-1" tabindex="-1" aria-label="Safari v15.3, 0.1%. Versions." style="outline:0"/><path fill="#93C6CE" d="M209.064 248.178a120.8 120.8 0 0 1-10.706-10.974l36.657-31.481a72.48 72.48 0 0 0 6.424 6.584Z" transform="translate(10 68)" class="highcharts-point highcharts-color-2" tabindex="-1" aria-label="Safari v15.2, 2.01%. Versions." style="outline:0"/><path fill="#8DC0C8" d="M198.28 237.113a120.8 120.8 0 0 1-10.397-14.078l40.847-25.814a72.48 72.48 0 0 0 6.237 8.447Z" transform="translate(10 68)" class="highcharts-point highcharts-color-3" tabindex="-1" aria-label="Safari v15.1, 2.29%. Versions." style="outline:0"/><path fill="#88BBC3" d="M187.818 222.932a120.8 120.8 0 0 1-1.886-3.094l41.627-24.535a72.48 72.48 0 0 0 1.132 1.856Z" transform="translate(10 68)" class="highcharts-point highcharts-color-4" tabindex="-1" aria-label="Safari v15.0, 0.49%. Versions." style="outline:0"/><path fill="#82B5BD" d="M185.87 219.734a120.8 120.8 0 0 1-8.293-17.034l44.969-17.68a72.48 72.48 0 0 0 4.976 10.22Z" transform="translate(10 68)" class="highcharts-point highcharts-color-5" tabindex="-1" aria-label="Safari v14.1, 2.48%. Versions." style="outline:0"/><path fill="#7CAFB7" d="M177.533 202.587a120.8 120.8 0 0 1-1.634-4.418l45.64-15.868a72.48 72.48 0 0 0 .98 2.651Z" transform="translate(10 68)" class="highcharts-point highcharts-color-6" tabindex="-1" aria-label="Safari v14.0, 0.64%. Versions." style="outline:0"/><path fill="#77AAB2" d="M175.86 198.055a120.8 120.8 0 0 1-2.613-8.547l46.701-12.403a72.48 72.48 0 0 0 1.568 5.128Z" transform="translate(10 68)" class="highcharts-point highcharts-color-7" tabindex="-1" aria-label="Safari v13.1, 1.17%. Versions." style="outline:0"/><path fill="#71A4AC" d="M173.217 189.391a120.8 120.8 0 0 1-.214-.818l46.799-12.03a72.48 72.48 0 0 0 .128.492Z" transform="translate(10 68)" class="highcharts-point highcharts-color-0" tabindex="-1" aria-label="Safari v13.0, 0.13%. Versions." style="outline:0"/><path fill="#6B9EA6" d="M172.973 188.456a120.8 120.8 0 0 1-.265-1.055l46.917-11.56a72.48 72.48 0 0 0 .159.632Z" transform="translate(10 68)" class="highcharts-point highcharts-color-1" tabindex="-1" aria-label="Safari v12.1, 0.16%. Versions." style="outline:0"/><path fill="#BAE7FF" d="M172.68 187.284a120.8 120.8 0 0 1-1.541-50.34l47.544 8.622a72.48 72.48 0 0 0 .925 30.204Z" transform="translate(10 68)" class="highcharts-point highcharts-color-2" tabindex="-1" aria-label="Edge v97, 6.62%. Versions." style="outline:0"/><path fill="#A9D6FF" d="M171.16 136.825a120.8 120.8 0 0 1 5.012-18.77l45.531 16.178a72.48 72.48 0 0 0-3.007 11.262Z" transform="translate(10 68)" class="highcharts-point highcharts-color-3" tabindex="-1" aria-label="Edge v96, 2.55%. Versions." style="outline:0"/><path fill="#98C5F8" d="M176.213 117.94a120.8 120.8 0 0 1 .37-1.022l45.366 16.633a72.48 72.48 0 0 0-.221.613Z" transform="translate(10 68)" class="highcharts-point highcharts-color-4" tabindex="-1" aria-label="Edge v95, 0.15%. Versions." style="outline:0"/><path fill="#D6FFED" d="M176.624 116.805a120.8 120.8 0 0 1 14.808-28.14l39.427 27.934a72.48 72.48 0 0 0-8.885 16.884Z" transform="translate(10 68)" class="highcharts-point highcharts-color-5" tabindex="-1" aria-label="Firefox v96.0, 4.17%. Versions." style="outline:0"/><path fill="#CDFFE4" d="M191.502 88.566a120.8 120.8 0 0 1 16.742-18.996l32.703 35.572A72.48 72.48 0 0 0 230.9 116.54Z" transform="translate(10 68)" class="highcharts-point highcharts-color-6" tabindex="-1" aria-label="Firefox v95.0, 3.33%. Versions." style="outline:0"/><path fill="#C5FFDC" d="M208.333 69.488a120.8 120.8 0 0 1 .536-.489l32.452 35.8a72.48 72.48 0 0 0-.321.294Z" transform="translate(10 68)" class="highcharts-point highcharts-color-7" tabindex="-1" aria-label="Firefox v94.0, 0.11%. Versions." style="outline:0"/><path fill="#BCFFD3" d="M208.958 68.918a120.8 120.8 0 0 1 1.262-1.125l31.912 36.283a72.48 72.48 0 0 0-.757.675Z" transform="translate(10 68)" class="highcharts-point highcharts-color-0" tabindex="-1" aria-label="Firefox v91.0, 0.23%. Versions." style="outline:0"/><path fill="#B4FECB" d="M210.311 67.713a120.8 120.8 0 0 1 .82-.714l31.548 36.6a72.48 72.48 0 0 0-.492.429Z" transform="translate(10 68)" class="highcharts-point highcharts-color-1" tabindex="-1" aria-label="Firefox v78.0, 0.16%. Versions." style="outline:0"/><path fill="#ABF5C2" d="M211.223 66.92a120.8 120.8 0 0 1 .827-.705l31.18 36.914a72.48 72.48 0 0 0-.496.423Z" transform="translate(10 68)" class="highcharts-point highcharts-color-2" tabindex="-1" aria-label="Firefox v52.0, 0.15%. Versions." style="outline:0"/><path fill="#FFA0B8" d="M212.143 66.137a120.8 120.8 0 0 1 77.69-28.437l.066 48.32a72.48 72.48 0 0 0-46.613 17.062Z" transform="translate(10 68)" class="highcharts-point highcharts-color-3" tabindex="-1" aria-label="Other, 11.02%. Versions." style="outline:0"/></g></g><text x="300" text-anchor="middle" class="highcharts-title" data-z-index="4" style="color:#fff;font-size:22px;font-weight:500;fill:#fff" y="27" aria-hidden="true">Browser market share, January, 2022</text><text x="300" text-anchor="middle" class="highcharts-subtitle" data-z-index="4" style="color:#fff;font-size:16px;font-weight:400;fill:#fff" y="52" aria-hidden="true">Source: <a target="_blank"><tspan>statcounter.com</tspan></a></text><g class="highcharts-data-labels highcharts-series-0 highcharts-pie-series highcharts-tracker" data-z-index="6" aria-hidden="true"><text x="5" data-z-index="1" y="18" style="color:#fff;font-size:13px;font-weight:700;fill:#fff" transform="translate(329 239)" class="highcharts-label highcharts-data-label highcharts-data-label-color-0"><tspan class="highcharts-text-outline" fill="#000" stroke="#000" stroke-width="2" stroke-linejoin="round">Chrome<tspan x="5" dy="0">​</tspan></tspan>Chrome</text><text x="5" data-z-index="1" y="18" style="color:#fff;font-size:13px;font-weight:700;fill:#fff" transform="translate(223 249)" class="highcharts-label highcharts-data-label highcharts-data-label-color-1"><tspan class="highcharts-text-outline" fill="#000" stroke="#000" stroke-width="2" stroke-linejoin="round">Safari<tspan x="5" dy="0">​</tspan></tspan>Safari</text><text x="5" data-z-index="1" y="18" style="color:#fff;font-size:13px;font-weight:700;fill:#fff" transform="translate(216 213)" class="highcharts-label highcharts-data-label highcharts-data-label-color-2"><tspan class="highcharts-text-outline" fill="#000" stroke="#000" stroke-width="2" stroke-linejoin="round">Edge<tspan x="5" dy="0">​</tspan></tspan>Edge</text><text x="5" data-z-index="1" y="18" style="color:#fff;font-size:13px;font-weight:700;fill:#fff" transform="translate(222 180)" class="highcharts-label highcharts-data-label highcharts-data-label-color-3"><tspan class="highcharts-text-outline" fill="#000" stroke="#000" stroke-width="2" stroke-linejoin="round">Firefox<tspan x="5" dy="0">​</tspan></tspan>Firefox</text><text x="5" data-z-index="1" y="18" style="color:#fff;font-size:13px;font-weight:700;fill:#fff" transform="translate(256 157)" class="highcharts-label highcharts-data-label highcharts-data-label-color-4"><tspan class="highcharts-text-outline" fill="#000" stroke="#000" stroke-width="2" stroke-linejoin="round">Other<tspan x="5" dy="0">​</tspan></tspan>Other</text></g><g class="highcharts-data-labels highcharts-series-1 highcharts-pie-series highcharts-tracker" data-z-index="6" aria-hidden="true"><path fill="none" class="highcharts-data-label-connector highcharts-color-0" stroke="#FFD186" d="M444.005 168.034c-5 0-21.592 6.979-27.123 9.305l-5.53 2.326"/><path fill="none" class="highcharts-data-label-connector highcharts-color-1" stroke="#FFCE83" d="M337.765 373.698c-5 0-8.911-17.57-10.215-23.427l-1.304-5.857"/><path fill="none" class="highcharts-data-label-connector highcharts-color-2" stroke="#93C6CE" d="M194.148 338.614c5 0 10.725-19.45 15.023-23.636l4.298-4.187"/><path fill="none" class="highcharts-data-label-connector highcharts-color-3" stroke="#8DC0C8" d="M171.907 313.614c5 0 21.227-8.276 26.055-11.838l4.828-3.562"/><path fill="none" class="highcharts-data-label-connector highcharts-color-5" stroke="#82B5BD" d="M157.586 288.614c5 0 22.998-4.014 28.393-6.639l5.395-2.625"/><path fill="none" class="highcharts-data-label-connector highcharts-color-7" stroke="#77AAB2" d="M148.838 263.614c5 0 24.141 1.636 29.88-.114l5.74-1.751"/><path fill="none" class="highcharts-data-label-connector highcharts-color-2" stroke="#BAE7FF" d="M144.268 231.03c5 0 22.992-.541 28.99-.722l5.996-.18"/><path fill="none" class="highcharts-data-label-connector highcharts-color-3" stroke="#A9D6FF" d="M149.325 187.52c5 0 22.388 4.653 28.184 6.204l5.796 1.55"/><path fill="none" class="highcharts-data-label-connector highcharts-color-5" stroke="#D6FFED" d="M161.563 156.248c5 0 20.928 8.386 26.237 11.181l5.31 2.795"/><path fill="none" class="highcharts-data-label-connector highcharts-color-6" stroke="#CDFFE4" d="M181.928 126.723c5 0 18.497 11.91 22.996 15.88l4.498 3.97"/><path fill="none" class="highcharts-data-label-connector highcharts-color-3" stroke="#FFA0B8" d="M243.248 84.858c5 0 11.177 16.907 13.237 22.543l2.059 5.635"/><text x="5" data-z-index="1" y="18" style="color:#46465c;font-size:13px;font-weight:700;fill:#46465c" transform="translate(449 158)" class="highcharts-label highcharts-data-label highcharts-data-label-color-0"><tspan class="highcharts-text-outline" fill="#FFF" stroke="#FFF" stroke-width="2" stroke-linejoin="round"><tspan style="font-weight:700">Chrome v97.0:</tspan> 36.89%<tspan x="5" dy="0">​</tspan></tspan><tspan style="font-weight:700">Chrome v97.0:</tspan> 36.89%</text><text x="5" data-z-index="1" y="18" style="color:#46465c;font-size:13px;font-weight:700;fill:#46465c" transform="translate(343 364)" class="highcharts-label highcharts-data-label highcharts-data-label-color-1"><tspan class="highcharts-text-outline" fill="#FFF" stroke="#FFF" stroke-width="2" stroke-linejoin="round"><tspan style="font-weight:700">Chrome v96.0:</tspan> 18.16%<tspan x="5" dy="0">​</tspan></tspan><tspan style="font-weight:700">Chrome v96.0:</tspan> 18.16%</text><text x="5" data-z-index="1" y="18" style="color:#46465c;font-size:13px;font-weight:700;fill:#46465c" transform="translate(62 329)" class="highcharts-label highcharts-data-label highcharts-data-label-color-2"><tspan class="highcharts-text-outline" fill="#FFF" stroke="#FFF" stroke-width="2" stroke-linejoin="round"><tspan style="font-weight:700">Safari v15.2:</tspan> 2.01%<tspan x="5" dy="0">​</tspan></tspan><tspan style="font-weight:700">Safari v15.2:</tspan> 2.01%</text><text x="5" data-z-index="1" y="18" style="color:#46465c;font-size:13px;font-weight:700;fill:#46465c" transform="translate(40 304)" class="highcharts-label highcharts-data-label highcharts-data-label-color-3"><tspan class="highcharts-text-outline" fill="#FFF" stroke="#FFF" stroke-width="2" stroke-linejoin="round"><tspan style="font-weight:700">Safari v15.1:</tspan> 2.29%<tspan x="5" dy="0">​</tspan></tspan><tspan style="font-weight:700">Safari v15.1:</tspan> 2.29%</text><text x="5" data-z-index="1" y="18" style="color:#46465c;font-size:13px;font-weight:700;fill:#46465c" transform="translate(26 279)" class="highcharts-label highcharts-data-label highcharts-data-label-color-5"><tspan class="highcharts-text-outline" fill="#FFF" stroke="#FFF" stroke-width="2" stroke-linejoin="round"><tspan style="font-weight:700">Safari v14.1:</tspan> 2.48%<tspan x="5" dy="0">​</tspan></tspan><tspan style="font-weight:700">Safari v14.1:</tspan> 2.48%</text><text x="5" data-z-index="1" y="18" style="color:#46465c;font-size:13px;font-weight:700;fill:#46465c" transform="translate(17 254)" class="highcharts-label highcharts-data-label highcharts-data-label-color-7"><tspan class="highcharts-text-outline" fill="#FFF" stroke="#FFF" stroke-width="2" stroke-linejoin="round"><tspan style="font-weight:700">Safari v13.1:</tspan> 1.17%<tspan x="5" dy="0">​</tspan></tspan><tspan style="font-weight:700">Safari v13.1:</tspan> 1.17%</text><text x="5" data-z-index="1" y="18" style="color:#46465c;font-size:13px;font-weight:700;fill:#46465c" transform="translate(27 221)" class="highcharts-label highcharts-data-label highcharts-data-label-color-2"><tspan class="highcharts-text-outline" fill="#FFF" stroke="#FFF" stroke-width="2" stroke-linejoin="round"><tspan style="font-weight:700">Edge v97:</tspan> 6.62%<tspan x="5" dy="0">​</tspan></tspan><tspan style="font-weight:700">Edge v97:</tspan> 6.62%</text><text x="5" data-z-index="1" y="18" style="color:#46465c;font-size:13px;font-weight:700;fill:#46465c" transform="translate(32 178)" class="highcharts-label highcharts-data-label highcharts-data-label-color-3"><tspan class="highcharts-text-outline" fill="#FFF" stroke="#FFF" stroke-width="2" stroke-linejoin="round"><tspan style="font-weight:700">Edge v96:</tspan> 2.55%<tspan x="5" dy="0">​</tspan></tspan><tspan style="font-weight:700">Edge v96:</tspan> 2.55%</text><text x="5" data-z-index="1" y="18" style="color:#46465c;font-size:13px;font-weight:700;fill:#46465c" transform="translate(22 146)" class="highcharts-label highcharts-data-label highcharts-data-label-color-5"><tspan class="highcharts-text-outline" fill="#FFF" stroke="#FFF" stroke-width="2" stroke-linejoin="round"><tspan style="font-weight:700">Firefox v96.0:</tspan> 4.17%<tspan x="5" dy="0">​</tspan></tspan><tspan style="font-weight:700">Firefox v96.0:</tspan> 4.17%</text><text x="5" data-z-index="1" y="18" style="color:#46465c;font-size:13px;font-weight:700;fill:#46465c" transform="translate(43 117)" class="highcharts-label highcharts-data-label highcharts-data-label-color-6"><tspan class="highcharts-text-outline" fill="#FFF" stroke="#FFF" stroke-width="2" stroke-linejoin="round"><tspan style="font-weight:700">Firefox v95.0:</tspan> 3.33%<tspan x="5" dy="0">​</tspan></tspan><tspan style="font-weight:700">Firefox v95.0:</tspan> 3.33%</text><text x="5" data-z-index="1" y="18" style="color:#46465c;font-size:13px;font-weight:700;fill:#46465c" transform="translate(142 75)" class="highcharts-label highcharts-data-label highcharts-data-label-color-3"><tspan class="highcharts-text-outline" fill="#FFF" stroke="#FFF" stroke-width="2" stroke-linejoin="round"><tspan style="font-weight:700">Other:</tspan> 11.02%<tspan x="5" dy="0">​</tspan></tspan><tspan style="font-weight:700">Other:</tspan> 11.02%</text></g></svg>