<svg class="highcharts-root" style="font-family:&quot;IBM Plex Sans&quot;,sans-serif;font-size:12px" xmlns="http://www.w3.org/2000/svg" width="600" height="370" aria-label="Interactive chart" aria-hidden="false"><defs aria-hidden="true"><linearGradient x1="0" y1="0" x2="0" y2="1" id="a"><stop offset="0" stop-color="#1f1836"/><stop offset="1" stop-color="#45445d"/></linearGradient><linearGradient x1="0" x2="0" y1="0" y2="1" id="c"><stop offset="0" stop-color="#8087E8"/><stop offset="1" stop-color="#8087E8" stop-opacity=".25"/></linearGradient><clipPath id="b"><path fill="none" d="M0 0h535v188H0z"/></clipPath></defs><rect fill="url(#a)" class="highcharts-background" width="600" height="370" rx="0" ry="0" aria-hidden="true"/><path fill="none" class="highcharts-plot-background" aria-hidden="true" d="M55 68h535v188H55z"/><g class="highcharts-grid highcharts-xaxis-grid" data-z-index="1" aria-hidden="true" fill="none"><path data-z-index="1" class="highcharts-grid-line" d="M70.5 68v188m87-188v188m88-188v188m87-188v188m88-188v188m87-188v188"/></g><g class="highcharts-grid highcharts-yaxis-grid" data-z-index="1" aria-hidden="true" fill="none" stroke="#707073"><path data-z-index="1" class="highcharts-grid-line" d="M55 256.5h535m-535-63h535m-535-62h535m-535-64h535"/></g><path fill="none" class="highcharts-plot-border" data-z-index="1" aria-hidden="true" d="M55 68h535v188H55z"/><g class="highcharts-axis highcharts-xaxis" data-z-index="2" aria-hidden="true" fill="none" stroke="#707073"><path class="highcharts-tick" d="M70.5 296v10m87-10v10m88-10v10m87-10v10m88-10v10m87-10v10"/><path class="highcharts-axis-line" data-z-index="7" d="M55 296.5h535"/></g><g class="highcharts-axis highcharts-yaxis" data-z-index="2" aria-hidden="true"><path fill="none" class="highcharts-tick" stroke="#707073" d="M55 256.5H45m10-63H45m10-62H45m10-64H45"/><text x="23.32" data-z-index="7" text-anchor="middle" transform="rotate(-90 23.32 162)" class="highcharts-axis-title" style="color:#fff;font-weight:300;fill:#fff" y="162">Wind speed (m/s)</text><path fill="none" class="highcharts-axis-line" data-z-index="7" d="M55 68v188"/></g><g class="highcharts-series-group" data-z-index="3" aria-hidden="false"><g class="highcharts-markers highcharts-series-0 highcharts-windbarb-series highcharts-tracker" data-z-index=".1" aria-hidden="false" tabindex="-1" aria-label="Wind, series 1 of 2 with 24 data points." style="outline:0" fill="none" stroke="#A3EDBA" stroke-width="2"><path class="highcharts-point highcharts-color-undefined" d="M0 7h-1.5L0 10l1.5-3H0v-17h4" transform="rotate(-114 125.102 114.957)" tabindex="-1" aria-label="Saturday, Jul 30, 00:00, value: 4.9 m/s, direction: 246 m/s. Wind." style="outline:0"/><path class="highcharts-point highcharts-color-undefined" d="M0 7h-1.5L0 10l1.5-3H0v-17h4" transform="rotate(-118 129.338 110.108)" tabindex="-1" aria-label="Saturday, Jul 30, 01:00, value: 4.1 m/s, direction: 242 m/s. Wind." style="outline:0"/><path class="highcharts-point highcharts-color-undefined" d="M0 7h-1.5L0 10l1.5-3H0v-17h4" transform="rotate(-98 177.317 88.141)" tabindex="-1" aria-label="Saturday, Jul 30, 02:00, value: 3.2 m/s, direction: 262 m/s. Wind." style="outline:0"/><path class="highcharts-point highcharts-color-undefined" d="M0 7h-1.5L0 10l1.5-3H0v-17" transform="rotate(-76 244.924 50.59)" tabindex="-1" aria-label="Saturday, Jul 30, 03:00, value: 1.5 m/s, direction: 284 m/s. Wind." style="outline:0"/><path class="highcharts-point highcharts-color-undefined" d="M0 7h-1.5L0 10l1.5-3H0v-17" transform="rotate(-66 291.73 16)" tabindex="-1" aria-label="Saturday, Jul 30, 04:00, value: 1.1 m/s, direction: 294 m/s. Wind." style="outline:0"/><path class="highcharts-point highcharts-color-undefined" d="M0 7h-1.5L0 10l1.5-3H0v-17" transform="rotate(-168 104.669 128.523)" tabindex="-1" aria-label="Saturday, Jul 30, 05:00, value: 0.4 m/s, direction: 192 m/s. Wind." style="outline:0"/><path class="highcharts-point highcharts-color-undefined" d="M0 10a10 10 0 1 1 .01 0Z" transform="rotate(30 -413.922 515.313)" tabindex="-1" aria-label="Saturday, Jul 30, 06:00, value: 0.2 m/s, direction: 30 m/s. Wind." style="outline:0"/><path class="highcharts-point highcharts-color-undefined" d="M0 7h-1.5L0 10l1.5-3H0v-17" transform="rotate(110 15.408 216.45)" tabindex="-1" aria-label="Saturday, Jul 30, 07:00, value: 1.1 m/s, direction: 110 m/s. Wind." style="outline:0"/><path class="highcharts-point highcharts-color-undefined" d="M0 7h-1.5L0 10l1.5-3H0v-17" transform="rotate(112 29.891 220.946)" tabindex="-1" aria-label="Saturday, Jul 30, 08:00, value: 1.4 m/s, direction: 112 m/s. Wind." style="outline:0"/><path class="highcharts-point highcharts-color-undefined" d="M0 7h-1.5L0 10l1.5-3H0v-17" transform="rotate(132 72.468 197.62)" tabindex="-1" aria-label="Saturday, Jul 30, 09:00, value: 2.1 m/s, direction: 132 m/s. Wind." style="outline:0"/><path class="highcharts-point highcharts-color-undefined" d="M0 7h-1.5L0 10l1.5-3H0v-17" transform="rotate(134 86.268 199.483)" tabindex="-1" aria-label="Saturday, Jul 30, 10:00, value: 1.6 m/s, direction: 134 m/s. Wind." style="outline:0"/><path class="highcharts-point highcharts-color-undefined" d="M0 7h-1.5L0 10l1.5-3H0v-17" transform="rotate(128 88.475 213.98)" tabindex="-1" aria-label="Saturday, Jul 30, 11:00, value: 1.5 m/s, direction: 128 m/s. Wind." style="outline:0"/><path class="highcharts-point highcharts-color-undefined" d="M0 7h-1.5L0 10l1.5-3H0v-17" transform="rotate(91 31.106 301.833)" tabindex="-1" aria-label="Saturday, Jul 30, 12:00, value: 0.7 m/s, direction: 91 m/s. Wind." style="outline:0"/><path class="highcharts-point highcharts-color-undefined" d="M0 7h-1.5L0 10l1.5-3H0v-17" transform="rotate(-85 328.255 -55.876)" tabindex="-1" aria-label="Saturday, Jul 30, 13:00, value: 0.7 m/s, direction: 275 m/s. Wind." style="outline:0"/><path class="highcharts-point highcharts-color-undefined" d="M0 7h-1.5L0 10l1.5-3H0v-17" transform="rotate(-19 1013.246 -988.973)" tabindex="-1" aria-label="Saturday, Jul 30, 14:00, value: 0.6 m/s, direction: 341 m/s. Wind." style="outline:0"/><path class="highcharts-point highcharts-color-undefined" d="M0 7h-1.5L0 10l1.5-3H0v-17h4" transform="rotate(-124 272.903 31.91)" tabindex="-1" aria-label="Saturday, Jul 30, 15:00, value: 4.5 m/s, direction: 236 m/s. Wind." style="outline:0"/><path class="highcharts-point highcharts-color-undefined" d="M0 7h-1.5L0 10l1.5-3H0v-17h4" transform="rotate(-119 291.751 14.028)" tabindex="-1" aria-label="Saturday, Jul 30, 16:00, value: 4.9 m/s, direction: 241 m/s. Wind." style="outline:0"/><path class="highcharts-point highcharts-color-undefined" d="M0 7h-1.5L0 10l1.5-3H0v-17h4" transform="rotate(-126 291.714 25.191)" tabindex="-1" aria-label="Saturday, Jul 30, 17:00, value: 3.4 m/s, direction: 234 m/s. Wind." style="outline:0"/><path class="highcharts-point highcharts-color-undefined" d="M0 7h-1.5L0 10l1.5-3H0v-17" transform="rotate(-100 348.131 -56.953)" tabindex="-1" aria-label="Saturday, Jul 30, 18:00, value: 0.7 m/s, direction: 260 m/s. Wind." style="outline:0"/><path class="highcharts-point highcharts-color-undefined" d="M0 7h-1.5L0 10l1.5-3H0v-17" transform="rotate(-86 391.259 -122.877)" tabindex="-1" aria-label="Saturday, Jul 30, 19:00, value: 1.1 m/s, direction: 274 m/s. Wind." style="outline:0"/><path class="highcharts-point highcharts-color-undefined" d="M0 7h-1.5L0 10l1.5-3H0v-17" transform="rotate(-33 720.088 -720.191)" tabindex="-1" aria-label="Saturday, Jul 30, 20:00, value: 0.9 m/s, direction: 327 m/s. Wind." style="outline:0"/><path class="highcharts-point highcharts-color-undefined" d="M0 7h-1.5L0 10l1.5-3H0v-17" transform="rotate(-24 914.383 -1109.405)" tabindex="-1" aria-label="Saturday, Jul 30, 21:00, value: 0.5 m/s, direction: 336 m/s. Wind." style="outline:0"/><path class="highcharts-point highcharts-color-undefined" d="M0 7h-1.5L0 10l1.5-3H0v-17" transform="rotate(-29 809.687 -929.523)" tabindex="-1" aria-label="Saturday, Jul 30, 22:00, value: 0.4 m/s, direction: 331 m/s. Wind." style="outline:0"/><path class="highcharts-point highcharts-color-undefined" d="M0 7h-1.5L0 10l1.5-3H0v-17" transform="rotate(157 258.94 196.394)" tabindex="-1" aria-label="Saturday, Jul 30, 23:00, value: 1.4 m/s, direction: 157 m/s. Wind." style="outline:0"/></g><g class="highcharts-series highcharts-series-1 highcharts-area-series" data-z-index=".1" clip-path="url(#b)" aria-hidden="true" transform="translate(55 68)"><path fill="url(#c)" d="m15.967 34.467 21.872 25.066 21.873 28.2L81.584 141l21.873 12.533 21.872 21.934 21.873 6.266 21.872-28.2 21.872-9.4L212.82 122.2l21.872 15.667L256.564 141l21.872 25.067h21.873l21.872 3.133L344.054 47l21.872-12.533 21.872 47 21.873 84.6 21.872-12.534 21.873 6.267 21.872 12.533 21.873 3.134 21.872-31.334V188H15.967Z" class="highcharts-area" data-z-index="0"/><path fill="none" d="m15.967 34.467 21.872 25.066 21.873 28.2L81.584 141l21.873 12.533 21.872 21.934 21.873 6.266 21.872-28.2 21.872-9.4L212.82 122.2l21.872 15.667L256.564 141l21.872 25.067h21.873l21.872 3.133L344.054 47l21.872-12.533 21.872 47 21.873 84.6 21.872-12.534 21.873 6.267 21.872 12.533 21.873 3.134 21.872-31.334" class="highcharts-graph" data-z-index="1" stroke="#8087E8" stroke-width="2" stroke-linejoin="round" stroke-linecap="round"/><path fill="none" d="m15.967 34.467 21.872 25.066 21.873 28.2L81.584 141l21.873 12.533 21.872 21.934 21.873 6.266 21.872-28.2 21.872-9.4L212.82 122.2l21.872 15.667L256.564 141l21.872 25.067h21.873l21.872 3.133L344.054 47l21.872-12.533 21.872 47 21.873 84.6 21.872-12.534 21.873 6.267 21.872 12.533 21.873 3.134 21.872-31.334" data-z-index="2" class="highcharts-tracker-line" stroke-linecap="round" stroke-linejoin="round" stroke="rgba(192,192,192,0.0001)" stroke-width="22"/></g><g class="highcharts-markers highcharts-series-1 highcharts-area-series highcharts-tracker" data-z-index=".1" aria-hidden="false" tabindex="-1" aria-label="Wind speed, series 2 of 2 with 24 data points." style="outline:0" fill="#8087E8"><path d="M15 38a4 4 0 1 1 .004 0Z" class="highcharts-point" tabindex="-1" aria-label="Saturday, Jul 30, 00:00, 4.9 m/s. Wind speed." style="outline:0" transform="translate(55 68)"/><path d="M37 64a4 4 0 1 1 .004 0Z" class="highcharts-point" tabindex="-1" aria-label="Saturday, Jul 30, 01:00, 4.1 m/s. Wind speed." style="outline:0" transform="translate(55 68)"/><path d="M59 92a4 4 0 1 1 .004 0Z" class="highcharts-point" tabindex="-1" aria-label="Saturday, Jul 30, 02:00, 3.2 m/s. Wind speed." style="outline:0" transform="translate(55 68)"/><path d="M81 145a4 4 0 1 1 .004 0Z" class="highcharts-point" tabindex="-1" aria-label="Saturday, Jul 30, 03:00, 1.5 m/s. Wind speed." style="outline:0" transform="translate(55 68)"/><path d="M103 158a4 4 0 1 1 .004 0Z" class="highcharts-point" tabindex="-1" aria-label="Saturday, Jul 30, 04:00, 1.1 m/s. Wind speed." style="outline:0" transform="translate(55 68)"/><path d="M125 179a4 4 0 1 1 .004 0Z" class="highcharts-point" tabindex="-1" aria-label="Saturday, Jul 30, 05:00, 0.4 m/s. Wind speed." style="outline:0" transform="translate(55 68)"/><path d="M147 186a4 4 0 1 1 .004 0Z" class="highcharts-point" tabindex="-1" aria-label="Saturday, Jul 30, 06:00, 0.2 m/s. Wind speed." style="outline:0" transform="translate(55 68)"/><path d="M169 158a4 4 0 1 1 .004 0Z" class="highcharts-point" tabindex="-1" aria-label="Saturday, Jul 30, 07:00, 1.1 m/s. Wind speed." style="outline:0" transform="translate(55 68)"/><path d="M190 148a4 4 0 1 1 .004 0Z" class="highcharts-point" tabindex="-1" aria-label="Saturday, Jul 30, 08:00, 1.4 m/s. Wind speed." style="outline:0" transform="translate(55 68)"/><path d="M212 126a4 4 0 1 1 .004 0Z" class="highcharts-point" tabindex="-1" aria-label="Saturday, Jul 30, 09:00, 2.1 m/s. Wind speed." style="outline:0" transform="translate(55 68)"/><path d="M234 142a4 4 0 1 1 .004 0Z" class="highcharts-point" tabindex="-1" aria-label="Saturday, Jul 30, 10:00, 1.6 m/s. Wind speed." style="outline:0" transform="translate(55 68)"/><path d="M256 145a4 4 0 1 1 .004 0Z" class="highcharts-point" tabindex="-1" aria-label="Saturday, Jul 30, 11:00, 1.5 m/s. Wind speed." style="outline:0" transform="translate(55 68)"/><path d="M278 170a4 4 0 1 1 .004 0Z" class="highcharts-point" tabindex="-1" aria-label="Saturday, Jul 30, 12:00, 0.7 m/s. Wind speed." style="outline:0" transform="translate(55 68)"/><path d="M300 170a4 4 0 1 1 .004 0Z" class="highcharts-point" tabindex="-1" aria-label="Saturday, Jul 30, 13:00, 0.7 m/s. Wind speed." style="outline:0" transform="translate(55 68)"/><path d="M322 173a4 4 0 1 1 .004 0Z" class="highcharts-point" tabindex="-1" aria-label="Saturday, Jul 30, 14:00, 0.6 m/s. Wind speed." style="outline:0" transform="translate(55 68)"/><path d="M344 51a4 4 0 1 1 .004 0Z" class="highcharts-point" tabindex="-1" aria-label="Saturday, Jul 30, 15:00, 4.5 m/s. Wind speed." style="outline:0" transform="translate(55 68)"/><path d="M365 38a4 4 0 1 1 .004 0Z" class="highcharts-point" tabindex="-1" aria-label="Saturday, Jul 30, 16:00, 4.9 m/s. Wind speed." style="outline:0" transform="translate(55 68)"/><path d="M387 85a4 4 0 1 1 .004 0Z" class="highcharts-point" tabindex="-1" aria-label="Saturday, Jul 30, 17:00, 3.4 m/s. Wind speed." style="outline:0" transform="translate(55 68)"/><path d="M409 170a4 4 0 1 1 .004 0Z" class="highcharts-point" tabindex="-1" aria-label="Saturday, Jul 30, 18:00, 0.7 m/s. Wind speed." style="outline:0" transform="translate(55 68)"/><path d="M431 158a4 4 0 1 1 .004 0Z" class="highcharts-point" tabindex="-1" aria-label="Saturday, Jul 30, 19:00, 1.1 m/s. Wind speed." style="outline:0" transform="translate(55 68)"/><path d="M453 164a4 4 0 1 1 .004 0Z" class="highcharts-point" tabindex="-1" aria-label="Saturday, Jul 30, 20:00, 0.9 m/s. Wind speed." style="outline:0" transform="translate(55 68)"/><path d="M475 176a4 4 0 1 1 .004 0Z" class="highcharts-point" tabindex="-1" aria-label="Saturday, Jul 30, 21:00, 0.5 m/s. Wind speed." style="outline:0" transform="translate(55 68)"/><path d="M497 179a4 4 0 1 1 .004 0Z" class="highcharts-point" tabindex="-1" aria-label="Saturday, Jul 30, 22:00, 0.4 m/s. Wind speed." style="outline:0" transform="translate(55 68)"/><path d="M519 148a4 4 0 1 1 .004 0Z" class="highcharts-point" tabindex="-1" aria-label="Saturday, Jul 30, 23:00, 1.4 m/s. Wind speed." style="outline:0" transform="translate(55 68)"/></g></g><text x="300" text-anchor="middle" class="highcharts-title" data-z-index="4" style="color:#fff;font-size:22px;font-weight:500;fill:#fff" y="27" aria-hidden="true">Observed wind in Vik, 30. July 2022</text><text x="300" text-anchor="middle" class="highcharts-subtitle" data-z-index="4" style="color:#fff;font-size:16px;font-weight:400;fill:#fff" y="52" aria-hidden="true">Source: <a target="_blank"><tspan>YR</tspan></a></text><g class="highcharts-legend highcharts-no-tooltip" data-z-index="7" transform="translate(250 329)" aria-hidden="true"><rect fill="transparent" class="highcharts-legend-box" rx="0" ry="0" width="100" height="26"/><g class="highcharts-legend-item highcharts-area-series highcharts-color-undefined highcharts-series-1" data-z-index="1" transform="translate(8 3)"><text x="21" data-z-index="2" y="15" style="color:#fff;cursor:pointer;font-size:12px;font-weight:400;fill:#fff">Wind speed</text><rect x="2" y="4" width="12" height="12" fill="#8087E8" rx="6" ry="6" class="highcharts-point" data-z-index="3"/></g></g><g class="highcharts-axis-labels highcharts-xaxis-labels" data-z-index="7" aria-hidden="true" text-anchor="middle"><text x="70.967" style="color:#fff;cursor:default;font-size:12px;fill:#fff" y="316">30. Jul</text><text x="158.457" style="color:#fff;cursor:default;font-size:12px;fill:#fff" y="316">04:00</text><text x="245.946" style="color:#fff;cursor:default;font-size:12px;fill:#fff" y="316">08:00</text><text x="333.436" style="color:#fff;cursor:default;font-size:12px;fill:#fff" y="316">12:00</text><text x="420.926" style="color:#fff;cursor:default;font-size:12px;fill:#fff" y="316">16:00</text><text x="508.416" style="color:#fff;cursor:default;font-size:12px;fill:#fff" y="316">20:00</text></g><g class="highcharts-axis-labels highcharts-yaxis-labels" data-z-index="7" aria-hidden="true" text-anchor="end"><text x="40" style="color:#fff;cursor:default;font-size:12px;fill:#fff" y="261">0</text><text x="40" style="color:#fff;cursor:default;font-size:12px;fill:#fff" y="199">2</text><text x="40" style="color:#fff;cursor:default;font-size:12px;fill:#fff" y="136">4</text><text x="40" style="color:#fff;cursor:default;font-size:12px;fill:#fff" y="73">6</text></g></svg>