<svg class="highcharts-root" style="font-family:&quot;IBM Plex Sans&quot;,sans-serif;font-size:12px" xmlns="http://www.w3.org/2000/svg" width="600" height="400" aria-label="Interactive chart" aria-hidden="false"><rect fill="#f0f0f0" class="highcharts-background" width="600" height="400" rx="0" ry="0" aria-hidden="true"/><g stroke-linejoin="round" class="highcharts-3d-frame highcharts-3d-frame-bottom" data-z-index="-1000" aria-hidden="true" fill="none"><path d="m155.076 270.174 391.338 37.86-.9 12.966-404.547-40.655Z"/><path d="m546.381 308.505-.922 13.305.056-.81.899-12.966Z"/><path d="M545.459 321.81 140.312 281l.655-.655L545.515 321Z"/></g><g stroke-linejoin="round" class="highcharts-3d-frame highcharts-3d-frame-left" data-z-index="-1000" aria-hidden="true" fill="none"><path d="m144.027 86.494.348.127-15.365 4.168-.741-.029Zm.348.127 10.7 183.553-14.108 10.17L129.01 90.79Z"/><path d="M140.312 281 128.269 90.76l.741.03 11.957 189.555Z"/></g><g stroke-linejoin="round" class="highcharts-3d-frame highcharts-3d-frame-back" data-z-index="-1000" aria-hidden="true" fill="none"><path d="m144.027 86.494 416.67 15.599-.01.13L144.375 86.62Z"/><path d="m144.375 86.621 416.312 15.601-14.273 205.812-391.338-37.86Z"/></g><path fill="none" class="highcharts-plot-background" aria-hidden="true" d="M80 75h510v246H80z"/><g class="highcharts-grid highcharts-xaxis-grid" data-z-index="1" aria-hidden="true" fill="none" stroke="#ccc"><path data-z-index="1" class="highcharts-grid-line" d="m183.333 88.081 8.615 185.66m-13.013 10.42 13.013-10.42M259.632 90.94l4.38 189.773m-10.783 10.913 10.782-10.913m74.934-186.8-.235 194.026m-8.345 11.44 8.345-11.44m83.586-190.903-5.315 198.476m-5.655 12.003 5.655-12.003m93.923-195.155-10.977 203.18m-2.651 12.615 2.651-12.616"/></g><g class="highcharts-grid highcharts-yaxis-grid" data-z-index="1" aria-hidden="true" fill="none" stroke="#ccc"><path data-z-index="1" class="highcharts-grid-line" d="m155.096 270.526 391.29 37.9M140.99 280.707l14.107-10.181m-1.7-29.141 395.241 34.574m-409.544-25.294 14.303-9.28m-1.731-29.697 399.272 31.106M137.162 220.03l14.504-8.342m-1.764-30.268 403.387 27.486M135.19 188.785l14.71-7.365m-1.797-30.856 407.587 23.709M133.18 156.91l14.923-6.346m-1.834-31.462 411.877 19.767m-427.017-14.48 15.14-5.287m-1.917-32.876 416.366 15.55M128.984 90.38l15.368-4.154"/></g><path fill="none" class="highcharts-plot-border" data-z-index="1" aria-hidden="true" d="M80 75h510v246H80z"/><g class="highcharts-axis highcharts-yaxis" data-z-index="2" aria-hidden="true"><path fill="none" class="highcharts-tick" stroke="#ccc" d="M140.99 280.707h-7.715m5.819-30.042h-7.79m5.858-30.635h-7.867m5.896-31.245h-7.945m5.934-31.875h-8.024m5.974-32.522h-8.107m5.961-34.008h-8.192"/><text x="94.09" data-z-index="7" text-anchor="middle" transform="matrix(-.05853 -.76967 .7946 0 -50.107 260.818)" class="highcharts-axis-title" style="color:#2f2b38;font-weight:300;font-size:16px;fill:#2f2b38" y="188.4">TWh</text></g><g class="highcharts-series-group" data-z-index="3" aria-hidden="false"><g class="highcharts-markers highcharts-series-0 highcharts-column-series highcharts-color-0 highcharts-tracker" data-z-index="10" aria-hidden="false" stroke-linejoin="round"><g data-z-index="26600495" stroke="#F19E53" class="highcharts-point highcharts-color-2" tabindex="-1" aria-label="x, 2016, 368. Saudi Arabia." style="outline:0"><path fill="#F19E53" d="m160.028 282.322 17.827 1.791-2.282-44.608-18.07-1.558Z" class="highcharts-3d-front" data-z-index="0"/><path fill="#FFB76C" d="m175.573 239.505 13.29-9.045-17.538-1.455-13.822 8.942Z" class="highcharts-3d-top" data-z-index="0"/><path fill="#D8853A" d="m175.573 239.505 2.282 44.608 13.03-10.403-2.021-43.25Z" class="highcharts-3d-side" data-z-index="0"/></g><g data-z-index="26601425" stroke="#8087E8" class="highcharts-point highcharts-color-0" tabindex="-1" aria-label="x, 2016, 563. South Korea." style="outline:0"><path fill="#8087E8" d="m157.503 237.947 18.07 1.558-3.67-71.76-18.463-1.169Z" class="highcharts-3d-front" data-z-index="0"/><path fill="#99A0FF" d="m171.903 167.744 13.712-6.773-17.908-1.089-14.267 6.694Z" class="highcharts-3d-top" data-z-index="0"/><path fill="#676ECF" d="m171.903 167.744 3.67 71.761 13.29-9.045-3.248-69.489Z" class="highcharts-3d-side" data-z-index="0"/></g><g data-z-index="56600815" stroke="#6699A1" class="highcharts-point highcharts-color-3" tabindex="-1" aria-label="x, 2016, 564. France." style="outline:0"><path fill="#6699A1" d="m181.444 284.474 18.075 1.817-3.061-69.374-18.463-1.449Z" class="highcharts-3d-front" data-z-index="0"/><path fill="#7FB2BA" d="m196.458 216.917 12.769-8.404-17.908-1.351-13.324 8.306Z" class="highcharts-3d-top" data-z-index="0"/><path fill="#4D8088" d="m196.458 216.917 3.061 69.374 12.394-10.546-2.686-67.232Z" class="highcharts-3d-side" data-z-index="0"/></g><g data-z-index="56601885" stroke="#A3EDBA" class="highcharts-point highcharts-color-1" tabindex="-1" aria-label="x, 2016, 650. Germany." style="outline:0"><path fill="#A3EDBA" d="m177.995 215.468 18.463 1.449-3.74-84.735-18.935-.975Z" class="highcharts-3d-front" data-z-index="0"/><path fill="#BCFFD3" d="m192.719 132.182 13.232-5.649-18.352-.907-13.816 5.581Z" class="highcharts-3d-top" data-z-index="0"/><path fill="#8AD4A1" d="m192.719 132.182 3.739 84.735 12.769-8.404-3.276-81.98Z" class="highcharts-3d-side" data-z-index="0"/></g><g data-z-index="127600515" stroke="#F19E53" class="highcharts-point highcharts-color-2" tabindex="-1" aria-label="x, 2017, 378. Saudi Arabia." style="outline:0"><path fill="#F19E53" d="m233.33 289.69 18.683 1.877-1.275-47.118-18.962-1.626Z" class="highcharts-3d-front" data-z-index="0"/><path fill="#FFB76C" d="m250.738 244.45 11.013-9.432-18.374-1.516-11.6 9.321Z" class="highcharts-3d-top" data-z-index="0"/><path fill="#D8853A" d="m250.738 244.45 1.275 47.117 10.809-10.896-1.071-45.653Z" class="highcharts-3d-side" data-z-index="0"/></g><g data-z-index="127601445" stroke="#8087E8" class="highcharts-point highcharts-color-0" tabindex="-1" aria-label="x, 2017, 567. South Korea." style="outline:0"><path fill="#8087E8" d="m231.776 242.823 18.962 1.626-1.99-73.458-19.393-1.216Z" class="highcharts-3d-front" data-z-index="0"/><path fill="#99A0FF" d="m248.749 170.991 11.334-7.052-18.78-1.133-11.948 6.969Z" class="highcharts-3d-top" data-z-index="0"/><path fill="#676ECF" d="m248.749 170.991 1.989 73.458 11.013-9.431-1.668-71.08Z" class="highcharts-3d-side" data-z-index="0"/></g><g data-z-index="157600815" stroke="#6699A1" class="highcharts-point highcharts-color-3" tabindex="-1" aria-label="x, 2017, 562. France." style="outline:0"><path fill="#6699A1" d="m255.777 291.946 18.95 1.905-1.396-70.903-19.377-1.52Z" class="highcharts-3d-front" data-z-index="0"/><path fill="#7FB2BA" d="m273.331 222.948 10.38-8.813-18.764-1.416-10.993 8.709Z" class="highcharts-3d-top" data-z-index="0"/><path fill="#4D8088" d="m273.331 222.948 1.395 70.903 10.105-11.05-1.12-68.666Z" class="highcharts-3d-side" data-z-index="0"/></g><g data-z-index="157601885" stroke="#A3EDBA" class="highcharts-point highcharts-color-1" tabindex="-1" aria-label="x, 2017, 654. Germany." style="outline:0"><path fill="#A3EDBA" d="m253.954 221.428 19.377 1.52-1.706-86.706-19.9-1.024Z" class="highcharts-3d-front" data-z-index="0"/><path fill="#BCFFD3" d="m271.625 136.242 10.717-5.931-19.252-.952-11.365 5.86Z" class="highcharts-3d-top" data-z-index="0"/><path fill="#8AD4A1" d="m271.625 136.242 1.706 86.706 10.38-8.813-1.369-83.824Z" class="highcharts-3d-side" data-z-index="0"/></g><g data-z-index="227600515" stroke="#F19E53" class="highcharts-point highcharts-color-2" tabindex="-1" aria-label="x, 2018, 378. Saudi Arabia." style="outline:0"><path fill="#F19E53" d="m309.41 297.337 19.593 1.97-.094-48.153-19.9-1.707Z" class="highcharts-3d-front" data-z-index="0"/><path fill="#FFB76C" d="m328.909 251.154 8.511-9.892-19.25-1.589-9.161 9.774Z" class="highcharts-3d-top" data-z-index="0"/><path fill="#D8853A" d="m328.909 251.154.094 48.152 8.381-11.42.036-46.624Z" class="highcharts-3d-side" data-z-index="0"/></g><g data-z-index="227601485" stroke="#8087E8" class="highcharts-point highcharts-color-0" tabindex="-1" aria-label="x, 2018, 590. South Korea." style="outline:0"><path fill="#8087E8" d="m309.009 249.447 19.9 1.707-.154-78.456-20.399-1.259Z" class="highcharts-3d-front" data-z-index="0"/><path fill="#99A0FF" d="m328.755 172.698 8.724-7.292-19.717-1.17-9.406 7.203Z" class="highcharts-3d-top" data-z-index="0"/><path fill="#676ECF" d="m328.755 172.698.154 78.456 8.511-9.892.06-75.856Z" class="highcharts-3d-side" data-z-index="0"/></g><g data-z-index="257600845" stroke="#6699A1" class="highcharts-point highcharts-color-3" tabindex="-1" aria-label="x, 2018, 582. France." style="outline:0"><path fill="#6699A1" d="m332.95 299.703 19.881 1.998.437-74.903-20.367-1.583Z" class="highcharts-3d-front" data-z-index="0"/><path fill="#7FB2BA" d="m353.268 226.798 7.769-9.17-19.688-1.473-8.448 9.06Z" class="highcharts-3d-top" data-z-index="0"/><path fill="#4D8088" d="m353.268 226.798-.437 74.903 7.605-11.584.6-72.49Z" class="highcharts-3d-side" data-z-index="0"/></g><g data-z-index="257601905" stroke="#A3EDBA" class="highcharts-point highcharts-color-1" tabindex="-1" aria-label="x, 2018, 643. Germany." style="outline:0"><path fill="#A3EDBA" d="m332.9 225.215 20.368 1.583.514-88.035-20.94-1.067Z" class="highcharts-3d-front" data-z-index="0"/><path fill="#BCFFD3" d="m353.782 138.763 7.96-6.174-20.222-.99-8.678 6.097Z" class="highcharts-3d-top" data-z-index="0"/><path fill="#8AD4A1" d="m353.782 138.763-.514 88.035 7.769-9.17.705-85.04Z" class="highcharts-3d-side" data-z-index="0"/></g><g data-z-index="327600495" stroke="#F19E53" class="highcharts-point highcharts-color-2" tabindex="-1" aria-label="x, 2019, 367. Saudi Arabia." style="outline:0"><path fill="#F19E53" d="m389.232 305.36 20.573 2.068 1.169-47.62-20.9-1.802Z" class="highcharts-3d-front" data-z-index="0"/><path fill="#FFB76C" d="m410.974 259.808 5.744-10.44-20.183-1.674-6.461 10.312Z" class="highcharts-3d-top" data-z-index="0"/><path fill="#D8853A" d="m410.974 259.808-1.169 47.62 5.701-11.982 1.212-46.077Z" class="highcharts-3d-side" data-z-index="0"/></g><g data-z-index="327601455" stroke="#8087E8" class="highcharts-point highcharts-color-0" tabindex="-1" aria-label="x, 2019, 582. South Korea." style="outline:0"><path fill="#8087E8" d="m390.074 258.006 20.9 1.802 1.947-79.364-21.445-1.34Z" class="highcharts-3d-front" data-z-index="0"/><path fill="#99A0FF" d="m412.92 180.444 5.815-7.756-20.69-1.243-6.569 7.658Z" class="highcharts-3d-top" data-z-index="0"/><path fill="#676ECF" d="m412.92 180.444-1.946 79.364 5.744-10.44 2.017-76.68Z" class="highcharts-3d-side" data-z-index="0"/></g><g data-z-index="357600835" stroke="#6699A1" class="highcharts-point highcharts-color-3" tabindex="-1" aria-label="x, 2019, 571. France." style="outline:0"><path fill="#6699A1" d="m413.95 307.845 20.882 2.099 2.483-75.785-21.413-1.67Z" class="highcharts-3d-front" data-z-index="0"/><path fill="#7FB2BA" d="m437.315 234.159 4.869-9.665-20.66-1.55-5.622 9.545Z" class="highcharts-3d-top" data-z-index="0"/><path fill="#4D8088" d="m437.315 234.159-2.483 75.785 4.844-12.159 2.508-73.29Z" class="highcharts-3d-side" data-z-index="0"/></g><g data-z-index="357601835" stroke="#A3EDBA" class="highcharts-point highcharts-color-1" tabindex="-1" aria-label="x, 2019, 612. Germany." style="outline:0"><path fill="#A3EDBA" d="m415.902 232.489 21.413 1.67 2.781-84.874-22.01-1.162Z" class="highcharts-3d-front" data-z-index="0"/><path fill="#BCFFD3" d="m440.096 149.285 4.892-6.716-21.216-1.076-5.685 6.63Z" class="highcharts-3d-top" data-z-index="0"/><path fill="#8AD4A1" d="m440.096 149.285-2.78 84.874 4.868-9.665 2.804-81.925Z" class="highcharts-3d-side" data-z-index="0"/></g><g data-z-index="428600495" stroke="#F19E53" class="highcharts-point highcharts-color-2" tabindex="-1" aria-label="x, 2020, 363. Saudi Arabia." style="outline:0"><path fill="#F19E53" d="m473.942 313.875 21.638 2.175 2.574-48.723-22-1.897Z" class="highcharts-3d-front" data-z-index="0"/><path fill="#FFB76C" d="m498.154 267.327 2.655-10.98-21.205-1.76-3.45 10.843Z" class="highcharts-3d-top" data-z-index="0"/><path fill="#D8853A" d="m498.154 267.327-2.574 48.723 2.71-12.593 2.52-47.11Z" class="highcharts-3d-side" data-z-index="0"/></g><g data-z-index="428601425" stroke="#8087E8" class="highcharts-point highcharts-color-0" tabindex="-1" aria-label="x, 2020, 571. South Korea." style="outline:0"><path fill="#8087E8" d="m476.154 265.43 22 1.897 4.155-78.684-22.583-1.428Z" class="highcharts-3d-front" data-z-index="0"/><path fill="#99A0FF" d="m502.31 188.643 2.562-8.26-21.747-1.322-3.4 8.154Z" class="highcharts-3d-top" data-z-index="0"/><path fill="#676ECF" d="m502.31 188.643-4.156 78.684 2.655-10.98 4.063-75.964Z" class="highcharts-3d-side" data-z-index="0"/></g><g data-z-index="458600765" stroke="#6699A1" class="highcharts-point highcharts-color-3" tabindex="-1" aria-label="x, 2020, 533. France." style="outline:0"><path fill="#6699A1" d="m499.941 316.488 21.97 2.209 4.41-71.658-22.515-1.794Z" class="highcharts-3d-front" data-z-index="0"/><path fill="#7FB2BA" d="m526.32 247.04 1.636-10.378L506.273 235l-2.467 10.245Z" class="highcharts-3d-top" data-z-index="0"/><path fill="#4D8088" d="m526.32 247.04-4.408 71.657 1.76-12.784 4.284-69.251Z" class="highcharts-3d-side" data-z-index="0"/></g><g data-z-index="458601705" stroke="#A3EDBA" class="highcharts-point highcharts-color-1" tabindex="-1" aria-label="x, 2020, 572. Germany." style="outline:0"><path fill="#A3EDBA" d="m503.806 245.245 22.515 1.794 5.003-81.321-23.132-1.298Z" class="highcharts-3d-front" data-z-index="0"/><path fill="#BCFFD3" d="m531.324 165.718 1.483-7.502-22.255-1.2-2.36 7.404Z" class="highcharts-3d-top" data-z-index="0"/><path fill="#8AD4A1" d="m531.324 165.718-5.003 81.321 1.635-10.377 4.851-78.446Z" class="highcharts-3d-side" data-z-index="0"/></g></g></g><text x="300" text-anchor="middle" class="highcharts-title" data-z-index="4" style="color:#2f2b38;font-size:22px;font-weight:500;fill:#2f2b38" y="27" aria-hidden="true">Electricity production in countries, grouped by<tspan dy="25" x="300">​</tspan>continent</text><g class="highcharts-legend highcharts-no-tooltip" data-z-index="7" transform="translate(109 359)" aria-hidden="true"><rect fill="#f0f0f0" class="highcharts-legend-box" rx="2" ry="2" stroke="#BBBAC5" x=".5" y=".5" width="380" height="25"/><g data-z-index="1"><g class="highcharts-legend-item highcharts-column-series highcharts-color-0 highcharts-series-0" data-z-index="1" transform="translate(8 3)"><text x="21" data-z-index="2" y="15" style="color:#2f2b38;cursor:pointer;font-size:12px;font-weight:400;fill:#2f2b38">South Korea</text><rect x="2" y="4" width="12" height="12" fill="#8087E8" rx="6" ry="6" class="highcharts-point" data-z-index="3"/></g><g class="highcharts-legend-item highcharts-column-series highcharts-color-1 highcharts-series-1" data-z-index="1" transform="translate(115.719 3)"><text x="21" y="15" data-z-index="2" style="color:#2f2b38;cursor:pointer;font-size:12px;font-weight:400;fill:#2f2b38">Germany</text><rect x="2" y="4" width="12" height="12" fill="#A3EDBA" rx="6" ry="6" class="highcharts-point" data-z-index="3"/></g><g class="highcharts-legend-item highcharts-column-series highcharts-color-2 highcharts-series-2" data-z-index="1" transform="translate(206.07 3)"><text x="21" y="15" data-z-index="2" style="color:#2f2b38;cursor:pointer;font-size:12px;font-weight:400;fill:#2f2b38">Saudi Arabia</text><rect x="2" y="4" width="12" height="12" fill="#F19E53" rx="6" ry="6" class="highcharts-point" data-z-index="3"/></g><g class="highcharts-legend-item highcharts-column-series highcharts-color-3 highcharts-series-3" data-z-index="1" transform="translate(315.125 3)"><text x="21" y="15" data-z-index="2" style="color:#2f2b38;cursor:pointer;font-size:12px;font-weight:400;fill:#2f2b38">France</text><rect x="2" y="4" width="12" height="12" fill="#6699A1" rx="6" ry="6" class="highcharts-point" data-z-index="3"/></g></g></g><g class="highcharts-axis-labels highcharts-xaxis-labels" data-z-index="7" aria-hidden="true" text-anchor="middle"><text x="179.447" transform="matrix(.71885 .07639 0 .7812 50.452 52.41)" style="color:#46465c;cursor:default;font-size:16px;fill:#46465c" y="302.179">2016</text><text x="253.309" transform="matrix(.75335 .08006 0 .79972 62.478 41.813)" style="color:#46465c;cursor:default;font-size:16px;fill:#46465c" y="310.028">2017</text><text x="330.76" transform="matrix(.7904 .084 0 .81915 69.326 29.776)" style="color:#46465c;cursor:default;font-size:16px;fill:#46465c" y="318.258">2018</text><text x="412.067" transform="matrix(.83026 .08823 0 .83954 69.946 16.097)" style="color:#46465c;cursor:default;font-size:16px;fill:#46465c" y="326.899">2019</text><text x="497.527" transform="matrix(.8732 .0928 0 .86098 63.086 .542)" style="color:#46465c;cursor:default;font-size:16px;fill:#46465c" y="335.98">2020</text></g><g class="highcharts-axis-labels highcharts-yaxis-labels" data-z-index="7" aria-hidden="true" text-anchor="end"><text x="129.636" style="color:#46465c;cursor:default;font-size:12px;fill:#46465c" y="283.969">0</text><text x="127.632" style="color:#46465c;cursor:default;font-size:12px;fill:#46465c" y="253.991">250</text><text x="125.589" style="color:#46465c;cursor:default;font-size:12px;fill:#46465c" y="223.422">500</text><text x="123.505" style="color:#46465c;cursor:default;font-size:12px;fill:#46465c" y="192.244">750</text><text x="121.379" style="color:#46465c;cursor:default;font-size:12px;fill:#46465c" y="160.44">1000</text><text x="119.21" style="color:#46465c;cursor:default;font-size:12px;fill:#46465c" y="127.99">1250</text><text x="116.997" style="color:#46465c;cursor:default;font-size:12px;fill:#46465c" y="94.874">1500</text></g></svg>