<svg class="highcharts-root" style="font-family:&quot;IBM Plex Sans&quot;,sans-serif;font-size:12px" xmlns="http://www.w3.org/2000/svg" width="600" height="420" aria-label="Interactive chart" aria-hidden="false"><defs aria-hidden="true"><clipPath id="a"><path fill="none" d="M0 0h521v229H0z"/></clipPath></defs><rect fill="#f0f0f0" class="highcharts-background" width="600" height="420" rx="0" ry="0" aria-hidden="true"/><path fill="none" class="highcharts-plot-background" aria-hidden="true" d="M69 68h521v229H69z"/><g class="highcharts-grid highcharts-xaxis-grid" data-z-index="1" aria-hidden="true" fill="none"><path data-z-index="1" class="highcharts-grid-line" d="M155.5 68v229m87-229v229m86-229v229m87-229v229m87-229v229m87-229v229M68.5 68v229"/></g><g class="highcharts-grid highcharts-yaxis-grid" data-z-index="1" aria-hidden="true" fill="none" stroke="#ccc"><path data-z-index="1" class="highcharts-grid-line" d="M69 297.5h521m-521-57h521m-521-57h521m-521-58h521m-521-58h521"/></g><path fill="none" class="highcharts-plot-border" data-z-index="1" aria-hidden="true" d="M69 68h521v229H69z"/><g class="highcharts-axis highcharts-xaxis" data-z-index="2" aria-hidden="true"><text x="329.5" data-z-index="7" text-anchor="middle" class="highcharts-axis-title" style="color:#2f2b38;fill:#2f2b38" y="350.5">Time</text><path fill="none" class="highcharts-axis-line" stroke="#ccc" data-z-index="7" d="M69 297.5h521"/></g><g class="highcharts-axis highcharts-yaxis" data-z-index="2" aria-hidden="true"><path fill="none" class="highcharts-tick" stroke="#ccc" d="M69 297.5H59m10-57H59m10-57H59m10-58H59m10-58H59"/><text x="23.977" data-z-index="7" text-anchor="middle" transform="rotate(-90 23.977 182.5)" class="highcharts-axis-title" style="color:#2f2b38;font-weight:300;fill:#2f2b38" y="182.5">Percentage usage</text><path fill="none" class="highcharts-axis-line" data-z-index="7" d="M69 68v229"/></g><g class="highcharts-series-group" data-z-index="3" aria-hidden="false"><g class="highcharts-series highcharts-series-0 highcharts-spline-series" data-z-index=".1" clip-path="url(#a)" aria-hidden="true" fill="none" stroke-linejoin="round" stroke-linecap="round" transform="translate(69 68)"><path d="m43.417 149.308 86.833-18.778c34.733-7.511 52.1-18.778 86.833-18.778 34.734 0 52.1 22.442 86.834 22.442 34.733 0 52.1-39.617 86.833-53.815s86.833-17.175 86.833-17.175" class="highcharts-graph" data-z-index="1" stroke="#F19E53" stroke-width="2"/><path d="m43.417 149.308 86.833-18.778c34.733-7.511 52.1-18.778 86.833-18.778 34.734 0 52.1 22.442 86.834 22.442 34.733 0 52.1-39.617 86.833-53.815s86.833-17.175 86.833-17.175" data-z-index="2" class="highcharts-tracker-line" stroke="rgba(192,192,192,0.0001)" stroke-width="22" style="cursor:pointer"/></g><g class="highcharts-markers highcharts-series-0 highcharts-spline-series highcharts-tracker" data-z-index=".1" style="cursor:pointer;outline:0" aria-hidden="false" tabindex="-1" aria-label="NVDA, line 1 of 6 with 6 data points. This is the most used screen reader in 2019." fill="#F19E53"><path d="M43 153a4 4 0 1 1 .004 0Z" class="highcharts-point" tabindex="-1" aria-label="December 2010, 34.8%. NVDA." style="outline:0" transform="translate(69 68)"/><path d="M130 135a4 4 0 1 1 .004 0Z" class="highcharts-point" tabindex="-1" aria-label="May 2012, 43%. NVDA." style="outline:0" transform="translate(69 68)"/><path d="M217 116a4 4 0 1 1 .004 0Z" class="highcharts-point" tabindex="-1" aria-label="January 2014, 51.2%. NVDA." style="outline:0" transform="translate(69 68)"/><path d="M303 138a4 4 0 1 1 .004 0Z" class="highcharts-point" tabindex="-1" aria-label="July 2015, 41.4%. NVDA." style="outline:0" transform="translate(69 68)"/><path d="M390 84a4 4 0 1 1 .004 0Z" class="highcharts-point" tabindex="-1" aria-label="October 2017, 64.9%. NVDA." style="outline:0" transform="translate(69 68)"/><path d="M477 67a4 4 0 1 1 .004 0Z" class="highcharts-point" tabindex="-1" aria-label="September 2019, 72.4%. NVDA." style="outline:0" transform="translate(69 68)"/></g><g class="highcharts-series highcharts-series-1 highcharts-spline-series" data-z-index=".1" clip-path="url(#a)" aria-hidden="true" fill="none" transform="translate(69 68)"><path d="M43.417 69.616s52.1 13.511 86.833 13.511 52.1-.458 86.833-.458c34.734 0 52.1 46.258 86.834 46.258 34.733 0 52.1-51.067 86.833-51.067s86.833 9.847 86.833 9.847" class="highcharts-graph" data-z-index="1" stroke="#8087E8" stroke-width="2" stroke-dasharray="6,2,2,2"/><path d="M43.417 69.616s52.1 13.511 86.833 13.511 52.1-.458 86.833-.458c34.734 0 52.1 46.258 86.834 46.258 34.733 0 52.1-51.067 86.833-51.067s86.833 9.847 86.833 9.847" data-z-index="2" class="highcharts-tracker-line" stroke-linecap="round" stroke-linejoin="round" stroke="rgba(192,192,192,0.0001)" stroke-width="22" style="cursor:pointer"/></g><g class="highcharts-markers highcharts-series-1 highcharts-spline-series highcharts-tracker" data-z-index=".1" style="cursor:pointer;outline:0" aria-hidden="false" tabindex="-1" aria-label="JAWS, line 2 of 6 with 6 data points." fill="#8087E8"><path d="m43 66 4 4-4 4-4-4Z" class="highcharts-point" tabindex="-1" aria-label="December 2010, 69.6%. JAWS." style="outline:0" transform="translate(69 68)"/><path d="m130 79 4 4-4 4-4-4Z" class="highcharts-point" tabindex="-1" aria-label="May 2012, 63.7%. JAWS." style="outline:0" transform="translate(69 68)"/><path d="m217 79 4 4-4 4-4-4Z" class="highcharts-point" tabindex="-1" aria-label="January 2014, 63.9%. JAWS." style="outline:0" transform="translate(69 68)"/><path d="m303 125 4 4-4 4-4-4Z" class="highcharts-point" tabindex="-1" aria-label="July 2015, 43.7%. JAWS." style="outline:0" transform="translate(69 68)"/><path d="m390 74 4 4-4 4-4-4Z" class="highcharts-point" tabindex="-1" aria-label="October 2017, 66%. JAWS." style="outline:0" transform="translate(69 68)"/><path d="m477 84 4 4-4 4-4-4Z" class="highcharts-point" tabindex="-1" aria-label="September 2019, 61.7%. JAWS." style="outline:0" transform="translate(69 68)"/></g><g class="highcharts-series highcharts-series-2 highcharts-spline-series" data-z-index=".1" clip-path="url(#a)" aria-hidden="true" fill="none" transform="translate(69 68)"><path d="M43.417 182.742s52.1-16.442 86.833-24.045c34.733-7.603 52.1-13.969 86.833-13.969 34.734 0 52.1 13.511 86.834 13.511 34.733 0 52.1-12.503 86.833-19.923 34.733-7.42 86.833-17.175 86.833-17.175" class="highcharts-graph" data-z-index="1" stroke="#A3EDBA" stroke-width="2" stroke-dasharray="2,2"/><path d="M43.417 182.742s52.1-16.442 86.833-24.045c34.733-7.603 52.1-13.969 86.833-13.969 34.734 0 52.1 13.511 86.834 13.511 34.733 0 52.1-12.503 86.833-19.923 34.733-7.42 86.833-17.175 86.833-17.175" data-z-index="2" class="highcharts-tracker-line" stroke-linecap="round" stroke-linejoin="round" stroke="rgba(192,192,192,0.0001)" stroke-width="22" style="cursor:pointer"/></g><g class="highcharts-markers highcharts-series-2 highcharts-spline-series highcharts-tracker" data-z-index=".1" style="cursor:pointer;outline:0" aria-hidden="false" tabindex="-1" aria-label="VoiceOver, line 3 of 6 with 6 data points." fill="#A3EDBA"><path d="M39 179h8v8h-8Z" class="highcharts-point" tabindex="-1" aria-label="December 2010, 20.2%. VoiceOver." style="outline:0" transform="translate(69 68)"/><path d="M126 155h8v8h-8Z" class="highcharts-point" tabindex="-1" aria-label="May 2012, 30.7%. VoiceOver." style="outline:0" transform="translate(69 68)"/><path d="M213 141h8v8h-8Z" class="highcharts-point" tabindex="-1" aria-label="January 2014, 36.8%. VoiceOver." style="outline:0" transform="translate(69 68)"/><path d="M299 154h8v8h-8Z" class="highcharts-point" tabindex="-1" aria-label="July 2015, 30.9%. VoiceOver." style="outline:0" transform="translate(69 68)"/><path d="M386 134h8v8h-8Z" class="highcharts-point" tabindex="-1" aria-label="October 2017, 39.6%. VoiceOver." style="outline:0" transform="translate(69 68)"/><path d="M473 117h8v8h-8Z" class="highcharts-point" tabindex="-1" aria-label="September 2019, 47.1%. VoiceOver." style="outline:0" transform="translate(69 68)"/></g><g class="highcharts-series highcharts-series-3 highcharts-spline-series highcharts-color-0" data-z-index=".1" clip-path="url(#a)" aria-hidden="true" fill="none" transform="translate(69 68)"><path d="m390.75 179.994 86.833-20.381" class="highcharts-graph" data-z-index="1" stroke="#8087E8" stroke-width="2" stroke-dasharray="8,6"/><path d="m390.75 179.994 86.833-20.381" data-z-index="2" class="highcharts-tracker-line" stroke-linecap="round" stroke-linejoin="round" stroke="rgba(192,192,192,0.0001)" stroke-width="22" style="cursor:pointer"/></g><g class="highcharts-markers highcharts-series-3 highcharts-spline-series highcharts-color-0 highcharts-tracker" data-z-index=".1" style="cursor:pointer;outline:0" aria-hidden="false" tabindex="-1" aria-label="Narrator, line 4 of 6 with 6 data points." fill="#8087E8"><path d="m390 176 4 8h-8Z" class="highcharts-point highcharts-color-0" tabindex="-1" aria-label="October 2017, 21.4%. Narrator." style="outline:0" transform="translate(69 68)"/><path d="m477 156 4 8h-8Z" class="highcharts-point highcharts-color-0" tabindex="-1" aria-label="September 2019, 30.3%. Narrator." style="outline:0" transform="translate(69 68)"/></g><g class="highcharts-series highcharts-series-4 highcharts-spline-series" data-z-index=".1" clip-path="url(#a)" aria-hidden="true" fill="none" transform="translate(69 68)"><path d="M43.417 215.031s52.1-1.603 86.833-1.603 52.1 3.435 86.833 3.435c34.734 0 52.1-50.838 86.834-50.838 34.733 0 52.1 48.09 86.833 49.235 34.733 1.145 86.833 1.145 86.833 1.145" class="highcharts-graph" data-z-index="1" stroke="#87B4E7" stroke-width="2" stroke-dasharray="2,2"/><path d="M43.417 215.031s52.1-1.603 86.833-1.603 52.1 3.435 86.833 3.435c34.734 0 52.1-50.838 86.834-50.838 34.733 0 52.1 48.09 86.833 49.235 34.733 1.145 86.833 1.145 86.833 1.145" data-z-index="2" class="highcharts-tracker-line" stroke-linecap="round" stroke-linejoin="round" stroke="rgba(192,192,192,0.0001)" stroke-width="22" style="cursor:pointer"/></g><g class="highcharts-markers highcharts-series-4 highcharts-spline-series highcharts-tracker" data-z-index=".1" style="cursor:pointer;outline:0" aria-hidden="false" tabindex="-1" aria-label="ZoomText/Fusion, line 5 of 6 with 6 data points." fill="#87B4E7"><path d="M39 211h8l-4 8Z" class="highcharts-point" tabindex="-1" aria-label="December 2010, 6.1%. ZoomText/Fusion." style="outline:0" transform="translate(69 68)"/><path d="M126 209h8l-4 8Z" class="highcharts-point" tabindex="-1" aria-label="May 2012, 6.8%. ZoomText/Fusion." style="outline:0" transform="translate(69 68)"/><path d="M213 213h8l-4 8Z" class="highcharts-point" tabindex="-1" aria-label="January 2014, 5.3%. ZoomText/Fusion." style="outline:0" transform="translate(69 68)"/><path d="M299 162h8l-4 8Z" class="highcharts-point" tabindex="-1" aria-label="July 2015, 27.5%. ZoomText/Fusion." style="outline:0" transform="translate(69 68)"/><path d="M386 211h8l-4 8Z" class="highcharts-point" tabindex="-1" aria-label="October 2017, 6%. ZoomText/Fusion." style="outline:0" transform="translate(69 68)"/><path d="M473 212h8l-4 8Z" class="highcharts-point" tabindex="-1" aria-label="September 2019, 5.5%. ZoomText/Fusion." style="outline:0" transform="translate(69 68)"/></g><g class="highcharts-series highcharts-series-5 highcharts-spline-series" data-z-index=".1" clip-path="url(#a)" aria-hidden="true" fill="none" transform="translate(69 68)"><path d="M43.417 131.446s52.1-15.068 86.833-20.381c34.733-5.313 52.1-6.183 86.833-6.183 34.734 0 52.1 3.664 86.834 19.236 34.733 15.572 52.1 47.632 86.833 58.624 34.733 10.992 86.833 10.992 86.833 10.992" class="highcharts-graph" data-z-index="1" stroke="#6699A1" stroke-width="2" stroke-dasharray="6,2"/><path d="M43.417 131.446s52.1-15.068 86.833-20.381c34.733-5.313 52.1-6.183 86.833-6.183 34.734 0 52.1 3.664 86.834 19.236 34.733 15.572 52.1 47.632 86.833 58.624 34.733 10.992 86.833 10.992 86.833 10.992" data-z-index="2" class="highcharts-tracker-line" stroke-linecap="round" stroke-linejoin="round" stroke="rgba(192,192,192,0.0001)" stroke-width="22" style="cursor:pointer"/></g><g class="highcharts-markers highcharts-series-5 highcharts-spline-series highcharts-tracker" data-z-index=".1" style="cursor:pointer;outline:0" aria-hidden="false" tabindex="-1" aria-label="Other, line 6 of 6 with 6 data points." fill="#6699A1"><path d="M43 135a4 4 0 1 1 .004 0Z" class="highcharts-point" tabindex="-1" aria-label="December 2010, 42.6%. Other." style="outline:0" transform="translate(69 68)"/><path d="M130 115a4 4 0 1 1 .004 0Z" class="highcharts-point" tabindex="-1" aria-label="May 2012, 51.5%. Other." style="outline:0" transform="translate(69 68)"/><path d="M217 109a4 4 0 1 1 .004 0Z" class="highcharts-point" tabindex="-1" aria-label="January 2014, 54.2%. Other." style="outline:0" transform="translate(69 68)"/><path d="M303 128a4 4 0 1 1 .004 0Z" class="highcharts-point" tabindex="-1" aria-label="July 2015, 45.8%. Other." style="outline:0" transform="translate(69 68)"/><path d="M390 187a4 4 0 1 1 .004 0Z" class="highcharts-point" tabindex="-1" aria-label="October 2017, 20.2%. Other." style="outline:0" transform="translate(69 68)"/><path d="M477 198a4 4 0 1 1 .004 0Z" class="highcharts-point" tabindex="-1" aria-label="September 2019, 15.4%. Other." style="outline:0" transform="translate(69 68)"/></g></g><g data-z-index="3" aria-hidden="true"><text data-z-index="1" y="12" style="color:#f19e53;font-weight:700;fill:#f19e53" transform="translate(510 115)" class="highcharts-label highcharts-series-label highcharts-series-label-0 highcharts-color-none">NVDA</text></g><g data-z-index="3" aria-hidden="true"><text data-z-index="1" y="12" style="color:#8087e8;font-weight:700;fill:#8087e8" transform="translate(412 131)" class="highcharts-label highcharts-series-label highcharts-series-label-1 highcharts-color-none">JAWS</text></g><g data-z-index="3" aria-hidden="true"><text data-z-index="1" y="12" style="color:#a3edba;font-weight:700;fill:#a3edba" transform="translate(441 181)" class="highcharts-label highcharts-series-label highcharts-series-label-2 highcharts-color-none">VoiceOver</text></g><g data-z-index="3" aria-hidden="true"><text data-z-index="1" y="12" style="color:#8087e8;font-weight:700;fill:#8087e8" transform="translate(496 211)" class="highcharts-label highcharts-series-label highcharts-series-label-3 highcharts-color-0">Narrator</text></g><g data-z-index="3" aria-hidden="true"><text data-z-index="1" y="12" style="color:#87b4e7;font-weight:700;fill:#87b4e7" transform="translate(195 265)" class="highcharts-label highcharts-series-label highcharts-series-label-4 highcharts-color-none">ZoomText/Fusion</text></g><g data-z-index="3" aria-hidden="true"><text data-z-index="1" y="12" style="color:#6699a1;font-weight:700;fill:#6699a1" transform="translate(512 265)" class="highcharts-label highcharts-series-label highcharts-series-label-5 highcharts-color-none">Other</text></g><text x="300" text-anchor="middle" class="highcharts-title" data-z-index="4" style="color:#2f2b38;font-size:22px;font-weight:500;fill:#2f2b38" y="27" aria-hidden="true">Most common desktop screen readers</text><text x="300" text-anchor="middle" class="highcharts-subtitle" data-z-index="4" style="color:#2f2b38;font-size:16px;font-weight:400;fill:#2f2b38" y="52" aria-hidden="true">Source: WebAIM. Click on points to visit official screen reader website</text><g class="highcharts-legend highcharts-no-tooltip" data-z-index="7" transform="translate(66 364)" aria-hidden="true"><rect fill="#f0f0f0" class="highcharts-legend-box" rx="2" ry="2" stroke="#BBBAC5" x=".5" y=".5" width="466" height="40"/><g data-z-index="1"><g class="highcharts-legend-item highcharts-spline-series highcharts-color-undefined highcharts-series-0" data-z-index="1"><path fill="none" d="M8 14h40" class="highcharts-graph" stroke-width="2" stroke="#F19E53"/><path fill="#F19E53" d="M28 18a4 4 0 1 1 .004 0Z" class="highcharts-point"/><text x="45" data-z-index="2" y="15" style="color:#2f2b38;cursor:pointer;font-size:12px;font-weight:400;fill:#2f2b38" transform="translate(8 3)">NVDA</text></g><g class="highcharts-legend-item highcharts-spline-series highcharts-color-undefined highcharts-series-1" data-z-index="1"><path fill="none" d="M165.04 14h40" class="highcharts-graph" stroke-width="2" stroke-dasharray="6,2,2,2" stroke="#8087E8"/><path fill="#8087E8" d="m185.04 10 4 4-4 4-4-4Z" class="highcharts-point"/><text x="45" y="15" data-z-index="2" style="color:#2f2b38;cursor:pointer;font-size:12px;font-weight:400;fill:#2f2b38" transform="translate(165.04 3)">JAWS</text></g><g class="highcharts-legend-item highcharts-spline-series highcharts-color-undefined highcharts-series-2" data-z-index="1"><path fill="none" d="M322.078 14h40" class="highcharts-graph" stroke-width="2" stroke-dasharray="2,2" stroke="#A3EDBA"/><path fill="#A3EDBA" d="M338.078 10h8v8h-8Z" class="highcharts-point"/><text x="45" y="15" data-z-index="2" style="color:#2f2b38;cursor:pointer;font-size:12px;font-weight:400;fill:#2f2b38" transform="translate(322.078 3)">VoiceOver</text></g><g class="highcharts-legend-item highcharts-spline-series highcharts-color-0 highcharts-series-3" data-z-index="1"><path fill="none" d="M8 29h40" class="highcharts-graph" stroke-width="2" stroke-dasharray="8,6" stroke="#8087E8"/><path fill="#8087E8" d="m28 25 4 8h-8Z" class="highcharts-point"/><text x="45" y="15" data-z-index="2" style="color:#2f2b38;cursor:pointer;font-size:12px;font-weight:400;fill:#2f2b38" transform="translate(8 18)">Narrator</text></g><g class="highcharts-legend-item highcharts-spline-series highcharts-color-undefined highcharts-series-4" data-z-index="1"><path fill="none" d="M165.04 29h40" class="highcharts-graph" stroke-width="2" stroke-dasharray="2,2" stroke="#87B4E7"/><path fill="#87B4E7" d="M181.04 25h8l-4 8Z" class="highcharts-point"/><text x="45" y="15" data-z-index="2" style="color:#2f2b38;cursor:pointer;font-size:12px;font-weight:400;fill:#2f2b38" transform="translate(165.04 18)">ZoomText/Fusion</text></g><g class="highcharts-legend-item highcharts-spline-series highcharts-color-undefined highcharts-series-5" data-z-index="1"><path fill="none" d="M322.078 29h40" class="highcharts-graph" stroke-width="2" stroke-dasharray="6,2" stroke="#6699A1"/><path fill="#6699A1" d="M342.078 33a4 4 0 1 1 .004 0Z" class="highcharts-point"/><text x="45" y="15" data-z-index="2" style="color:#2f2b38;cursor:pointer;font-size:12px;font-weight:400;fill:#2f2b38" transform="translate(322.078 18)">Other</text></g></g></g><g class="highcharts-axis-labels highcharts-xaxis-labels" data-z-index="7" aria-hidden="true" text-anchor="middle"><text x="112.417" style="color:#46465c;cursor:default;font-size:12px;fill:#46465c" y="317">December<tspan dy="15" x="112.417">​</tspan>2010</text><text x="199.25" style="color:#46465c;cursor:default;font-size:12px;fill:#46465c" y="317">May 2012</text><text x="286.083" style="color:#46465c;cursor:default;font-size:12px;fill:#46465c" y="317">January 2014</text><text x="372.917" style="color:#46465c;cursor:default;font-size:12px;fill:#46465c" y="317">July 2015</text><text x="459.75" style="color:#46465c;cursor:default;font-size:12px;fill:#46465c" y="317">October 2017</text><text x="546.583" style="color:#46465c;cursor:default;font-size:12px;fill:#46465c" y="317">September<tspan dy="15" x="546.583">​</tspan>2019</text></g><g class="highcharts-axis-labels highcharts-yaxis-labels" data-z-index="7" aria-hidden="true" text-anchor="end"><text x="54" style="color:#46465c;cursor:default;font-size:12px;fill:#46465c" y="302">0</text><text x="54" style="color:#46465c;cursor:default;font-size:12px;fill:#46465c" y="245">25</text><text x="54" style="color:#46465c;cursor:default;font-size:12px;fill:#46465c" y="188">50</text><text x="54" style="color:#46465c;cursor:default;font-size:12px;fill:#46465c" y="131">75</text><text x="54" style="color:#46465c;cursor:default;font-size:12px;fill:#46465c" y="73">100</text></g></svg>