<svg class="highcharts-root" style="font-family:&quot;IBM Plex Sans&quot;,sans-serif;font-size:12px" xmlns="http://www.w3.org/2000/svg" width="600" height="420" aria-label="Interactive chart" aria-hidden="false"><defs aria-hidden="true"><clipPath id="a"><path fill="none" d="M0 0h515v278H0z"/></clipPath></defs><rect fill="#f0f0f0" class="highcharts-background" width="600" height="420" rx="0" ry="0" aria-hidden="true"/><path fill="none" class="highcharts-plot-background" aria-hidden="true" d="M75 68h515v278H75z"/><g class="highcharts-grid highcharts-xaxis-grid" data-z-index="1" aria-hidden="true" fill="none"><path data-z-index="1" class="highcharts-grid-line" d="M148.5 68v278m73-278v278m74-278v278m73-278v278m74-278v278m73-278v278m74-278v278M74.5 68v278"/></g><g class="highcharts-grid highcharts-yaxis-grid" data-z-index="1" aria-hidden="true" fill="none" stroke="#ccc"><path data-z-index="1" class="highcharts-grid-line" d="M75 346.5h515m-515-56h515m-515-55h515m-515-56h515m-515-55h515m-515-57h515"/></g><path fill="none" class="highcharts-plot-border" data-z-index="1" aria-hidden="true" d="M75 68h515v278H75z"/><g class="highcharts-axis highcharts-xaxis" data-z-index="2" aria-hidden="true"><path fill="none" class="highcharts-axis-line" stroke="#ccc" data-z-index="7" d="M75 346.5h515"/></g><g class="highcharts-axis highcharts-yaxis" data-z-index="2" aria-hidden="true"><path fill="none" class="highcharts-tick" stroke="#ccc" d="M75 346.5H65m10-56H65m10-55H65m10-56H65m10-55H65m10-57H65"/><text x="23.977" data-z-index="7" text-anchor="middle" transform="rotate(-90 23.977 207)" class="highcharts-axis-title" style="color:#2f2b38;font-weight:300;fill:#2f2b38" y="207">Monthly earnings (NOK)</text><path fill="none" class="highcharts-axis-line" data-z-index="7" d="M75 68v278"/></g><g class="highcharts-series-group" data-z-index="3" aria-hidden="false" fill="none"><g class="highcharts-series highcharts-series-0 highcharts-lowmedhigh-series highcharts-color-0 highcharts-tracker" data-z-index=".1" clip-path="url(#a)" aria-hidden="false" tabindex="-1" aria-label="Scientific research and development, series 1 of 3 with 7 data points." style="outline:0" stroke="#8087E8" transform="translate(75 68)"><path d="M15.5 84.5h12m-12 36h12m-12 29h12m-5.5-65v65" tabindex="-1" aria-label="2015, low 46240, median 56720, high 69540" style="outline:0"/><path d="M89.5 89.5h12m-12 35h12m-12 25h12m-5.5-60v60" tabindex="-1" aria-label="2016, low 46360, median 55050, high 67710" style="outline:0"/><path d="M162.5 85.5h12m-12 34h12m-12 26h12m-5.5-60v60" tabindex="-1" aria-label="2017, low 47600, median 57040, high 69250" style="outline:0"/><path d="M236.5 77.5h12m-12 36h12m-12 29h12m-5.5-65v65" tabindex="-1" aria-label="2018, low 48610, median 59030, high 72070" style="outline:0"/><path d="M309.5 69.5h12m-12 40h12m-12 30h12m-5.5-70v70" tabindex="-1" aria-label="2019, low 49690, median 60770, high 75040" style="outline:0"/><path d="M383.5 67.5h12m-12 40h12m-12 32h12m-5.5-72v72" tabindex="-1" aria-label="2020, low 50000, median 61170, high 75660" style="outline:0"/><path d="M457.5 59.5h12m-12 43h12m-12 35h12m-5.5-78v78" tabindex="-1" aria-label="2021, low 50500, median 63020, high 78630" style="outline:0"/></g><g class="highcharts-series highcharts-series-1 highcharts-lowmedhigh-series highcharts-color-1 highcharts-tracker" data-z-index=".1" clip-path="url(#a)" aria-hidden="false" tabindex="-1" aria-label="Hospital activities, series 2 of 3 with 7 data points." style="outline:0" stroke="#A3EDBA" transform="translate(75 68)"><path d="M30.5 79.5h12m-12 50h12m-12 28h12m-5.5-78v78" tabindex="-1" aria-label="2015, low 43310, median 53510, high 71450" style="outline:0"/><path d="M103.5 94.5h12m-12 35h12m-12 25h12m-5.5-60v60" tabindex="-1" aria-label="2016, low 44280, median 53440, high 66040" style="outline:0"/><path d="M177.5 86.5h12m-12 38h12m-12 26h12m-5.5-64v64" tabindex="-1" aria-label="2017, low 45790, median 55080, high 68720" style="outline:0"/><path d="M251.5 81.5h12m-12 39h12m-12 25h12m-5.5-64v64" tabindex="-1" aria-label="2018, low 47500, median 56660, high 70850" style="outline:0"/><path d="M324.5 73.5h12m-12 43h12m-12 27h12m-5.5-70v70" tabindex="-1" aria-label="2019, low 48420, median 58250, high 73430" style="outline:0"/><path d="M398.5 72.5h12m-12 43h12m-12 28h12m-5.5-71v71" tabindex="-1" aria-label="2020, low 48560, median 58390, high 74060" style="outline:0"/><path d="M471.5 60.5h12m-12 42h12m-12 33h12m-5.5-75v75" tabindex="-1" aria-label="2021, low 51100, median 63050, high 78280" style="outline:0"/></g><g class="highcharts-series highcharts-series-2 highcharts-lowmedhigh-series highcharts-color-2 highcharts-tracker" data-z-index=".1" clip-path="url(#a)" aria-hidden="false" tabindex="-1" aria-label="Fire service activities, series 3 of 3 with 7 data points." style="outline:0" stroke="#F19E53" transform="translate(75 68)"><path d="M118.5 134.5h12m-12 20h12m-12 20h12m-5.5-40v40" tabindex="-1" aria-label="2016, low 37380, median 44560, high 51450" style="outline:0"/><path d="M192.5 124.5h12m-12 23h12m-12 25h12m-5.5-48v48" tabindex="-1" aria-label="2017, low 38020, median 47080, high 55230" style="outline:0"/><path d="M339.5 138.5h12m-12 15h12m-12 21h12m-5.5-36v36" tabindex="-1" aria-label="2019, low 37360, median 44940, high 50230" style="outline:0"/><path d="M412.5 122.5h12m-12 25h12m-12 18h12m-5.5-43v43" tabindex="-1" aria-label="2020, low 40560, median 46800, high 55880" style="outline:0"/><path d="M486.5 118.5h12m-12 28h12m-12 14h12m-5.5-42v42" tabindex="-1" aria-label="2021, low 42390, median 47450, high 57400" style="outline:0"/></g></g><text x="300" text-anchor="middle" class="highcharts-title" data-z-index="4" style="color:#2f2b38;font-size:22px;font-weight:500;fill:#2f2b38" y="27" aria-hidden="true">Monthly earnings, by level of education in Norway</text><text x="300" text-anchor="middle" class="highcharts-subtitle" data-z-index="4" style="color:#2f2b38;font-size:16px;font-weight:400;fill:#2f2b38" y="52" aria-hidden="true">Source: <a target="_blank"><tspan>SSB</tspan></a></text><g class="highcharts-legend highcharts-no-tooltip" data-z-index="7" transform="translate(42 379)" aria-hidden="true"><rect fill="#f0f0f0" class="highcharts-legend-box" rx="2" ry="2" stroke="#BBBAC5" x=".5" y=".5" width="515" height="25"/><g data-z-index="1"><g class="highcharts-legend-item highcharts-lowmedhigh-series highcharts-color-0 highcharts-series-0" data-z-index="1" transform="translate(8 3)"><text x="21" data-z-index="2" y="15" style="color:#2f2b38;cursor:pointer;font-size:12px;font-weight:400;fill:#2f2b38">Scientific research and development</text><rect x="2" y="4" width="12" height="12" fill="#8087E8" rx="6" ry="6" class="highcharts-point" data-z-index="3"/></g><g class="highcharts-legend-item highcharts-lowmedhigh-series highcharts-color-1 highcharts-series-1" data-z-index="1" transform="translate(242.445 3)"><text x="21" y="15" data-z-index="2" style="color:#2f2b38;cursor:pointer;font-size:12px;font-weight:400;fill:#2f2b38">Hospital activities</text><rect x="2" y="4" width="12" height="12" fill="#A3EDBA" rx="6" ry="6" class="highcharts-point" data-z-index="3"/></g><g class="highcharts-legend-item highcharts-lowmedhigh-series highcharts-color-2 highcharts-series-2" data-z-index="1" transform="translate(376.148 3)"><text x="21" y="15" data-z-index="2" style="color:#2f2b38;cursor:pointer;font-size:12px;font-weight:400;fill:#2f2b38">Fire service activities</text><rect x="2" y="4" width="12" height="12" fill="#F19E53" rx="6" ry="6" class="highcharts-point" data-z-index="3"/></g></g></g><g class="highcharts-axis-labels highcharts-xaxis-labels" data-z-index="7" aria-hidden="true" text-anchor="middle"><text x="111.786" style="color:#46465c;cursor:default;font-size:12px;fill:#46465c" y="366">2015</text><text x="185.357" style="color:#46465c;cursor:default;font-size:12px;fill:#46465c" y="366">2016</text><text x="258.929" style="color:#46465c;cursor:default;font-size:12px;fill:#46465c" y="366">2017</text><text x="332.5" style="color:#46465c;cursor:default;font-size:12px;fill:#46465c" y="366">2018</text><text x="406.071" style="color:#46465c;cursor:default;font-size:12px;fill:#46465c" y="366">2019</text><text x="479.643" style="color:#46465c;cursor:default;font-size:12px;fill:#46465c" y="366">2020</text><text x="553.214" style="color:#46465c;cursor:default;font-size:12px;fill:#46465c" y="366">2021</text></g><g class="highcharts-axis-labels highcharts-yaxis-labels" data-z-index="7" aria-hidden="true" text-anchor="end"><text x="60" style="color:#46465c;cursor:default;font-size:12px;fill:#46465c" y="351">0</text><text x="60" style="color:#46465c;cursor:default;font-size:12px;fill:#46465c" y="296">20k</text><text x="60" style="color:#46465c;cursor:default;font-size:12px;fill:#46465c" y="240">40k</text><text x="60" style="color:#46465c;cursor:default;font-size:12px;fill:#46465c" y="184">60k</text><text x="60" style="color:#46465c;cursor:default;font-size:12px;fill:#46465c" y="129">80k</text><text x="60" style="color:#46465c;cursor:default;font-size:12px;fill:#46465c" y="73">100k</text></g></svg>