<svg class="highcharts-root" style="font-family:&quot;IBM Plex Sans&quot;,sans-serif;font-size:12px" xmlns="http://www.w3.org/2000/svg" width="600" height="400" aria-label="Interactive chart" aria-hidden="false"><defs aria-hidden="true"><clipPath id="a"><path fill="none" d="M0 0h552v258H0z"/></clipPath></defs><rect fill="#f0f0f0" class="highcharts-background" width="600" height="400" rx="0" ry="0" aria-hidden="true"/><path fill="none" class="highcharts-plot-background" aria-hidden="true" d="M38 68h552v258H38z"/><g class="highcharts-grid highcharts-xaxis-grid" data-z-index="1" aria-hidden="true" fill="none"><path data-z-index="1" class="highcharts-grid-line" d="M97.5 68v258m126-258v258m126-258v258m126-258v258"/></g><g class="highcharts-grid highcharts-yaxis-grid" data-z-index="1" aria-hidden="true" fill="none" stroke="#ccc"><path data-z-index="1" class="highcharts-grid-line" d="M38 326.5h552m-552-43h552m-552-43h552m-552-43h552m-552-43h552m-552-43h552m-552-44h552"/></g><path fill="none" class="highcharts-plot-border" data-z-index="1" aria-hidden="true" d="M38 68h552v258H38z"/><g class="highcharts-axis highcharts-xaxis" data-z-index="2" aria-hidden="true" fill="none" stroke="#ccc"><path class="highcharts-tick" d="M97.5 326v10m126-10v10m126-10v10m126-10v10"/><path class="highcharts-axis-line" data-z-index="7" d="M38 326.5h552"/></g><g class="highcharts-axis highcharts-yaxis" data-z-index="2" aria-hidden="true" fill="none"><path class="highcharts-tick" stroke="#ccc" d="M38 326.5H28m10-43H28m10-43H28m10-43H28m10-43H28m10-43H28m10-44H28"/><path class="highcharts-axis-line" data-z-index="7" d="M38 68v258"/></g><g class="highcharts-series-group" data-z-index="3" aria-hidden="false"><g class="highcharts-series highcharts-series-1 highcharts-arearange-series" data-z-index=".1" clip-path="url(#a)" aria-hidden="true" transform="translate(38 68)"><path fill="rgba(128,135,232,0.3)" d="m5.412 140.18 18.039 3.44 18.04 18.06 18.038 28.38 18.04 25.8 18.039-1.72 18.04-36.12 18.038-15.48 18.04 18.92 18.039 36.98 18.039-59.34 18.04 24.94 18.038-10.32 18.04 14.62 18.039 18.92L276 219.3l18.04-37.84 18.038-18.92 18.04 27.52 18.039-68.8 18.04 8.6 18.038 46.44 18.04-17.2 18.039 24.94 18.039-36.98 18.04-6.02 18.038 34.4 18.04 8.6 18.039 9.46 18.039 17.2 18.04-42.14V75.68l-18.04-26.66-18.04-12.04-18.038 25.8-18.04-10.32-18.039 25.8-18.04-6.88-18.038 5.16-18.04-11.18-18.039-30.96-18.039-12.9-18.04-9.46-18.038 16.34-18.04 39.56-18.039 19.78L276 84.28h-18.04l-18.038 17.2-18.04-34.4-18.039-10.32-18.04-22.36-18.038 24.08-18.04 41.28-18.039-18.06-18.039-5.16-18.04 36.98L77.57 80.84l-18.04 28.38-18.04-22.36-18.039-16.34-18.04-32.68v102.34" class="highcharts-area" data-z-index="0"/><path fill="none" d="m5.412 140.18 18.039 3.44 18.04 18.06 18.038 28.38 18.04 25.8 18.039-1.72 18.04-36.12 18.038-15.48 18.04 18.92 18.039 36.98 18.039-59.34 18.04 24.94 18.038-10.32 18.04 14.62 18.039 18.92L276 219.3l18.04-37.84 18.038-18.92 18.04 27.52 18.039-68.8 18.04 8.6 18.038 46.44 18.04-17.2 18.039 24.94 18.039-36.98 18.04-6.02 18.038 34.4 18.04 8.6 18.039 9.46 18.039 17.2 18.04-42.14m0-92.88-18.04-26.66-18.04-12.04-18.038 25.8-18.04-10.32-18.039 25.8-18.04-6.88-18.038 5.16-18.04-11.18-18.039-30.96-18.039-12.9-18.04-9.46-18.038 16.34-18.04 39.56-18.039 19.78L276 84.28h-18.04l-18.038 17.2-18.04-34.4-18.039-10.32-18.04-22.36-18.038 24.08-18.04 41.28-18.039-18.06-18.039-5.16-18.04 36.98L77.57 80.84l-18.04 28.38-18.04-22.36-18.039-16.34-18.04-32.68" class="highcharts-graph" data-z-index="1"/><path fill="rgba(192,192,192,0.0001)" d="m5.412 140.18 18.039 3.44 18.04 18.06 18.038 28.38 18.04 25.8 18.039-1.72 18.04-36.12 18.038-15.48 18.04 18.92 18.039 36.98 18.039-59.34 18.04 24.94 18.038-10.32 18.04 14.62 18.039 18.92L276 219.3l18.04-37.84 18.038-18.92 18.04 27.52 18.039-68.8 18.04 8.6 18.038 46.44 18.04-17.2 18.039 24.94 18.039-36.98 18.04-6.02 18.038 34.4 18.04 8.6 18.039 9.46 18.039 17.2 18.04-42.14V75.68l-18.04-26.66-18.04-12.04-18.038 25.8-18.04-10.32-18.039 25.8-18.04-6.88-18.038 5.16-18.04-11.18-18.039-30.96-18.039-12.9-18.04-9.46-18.038 16.34-18.04 39.56-18.039 19.78L276 84.28h-18.04l-18.038 17.2-18.04-34.4-18.039-10.32-18.04-22.36-18.038 24.08-18.04 41.28-18.039-18.06-18.039-5.16-18.04 36.98L77.57 80.84l-18.04 28.38-18.04-22.36-18.039-16.34-18.04-32.68v102.34" data-z-index="2" class="highcharts-tracker-area"/></g><g class="highcharts-series highcharts-series-0 highcharts-line-series highcharts-color-0" data-z-index="1" clip-path="url(#a)" aria-hidden="true" fill="none" stroke-linejoin="round" stroke-linecap="round" transform="translate(38 68)"><path d="m5.412 102.34 18.039 8.6 18.04 16.34 18.038 21.5 18.04-5.16 18.039 23.22 18.04-43 18.038-4.3 18.04 18.06 18.039-11.18 18.039-18.92h18.04l18.038 18.92 18.04 12.04 18.039 1.72 18.039-.86 18.04-1.72 18.038-15.48 18.04-24.08 18.039-24.94 18.04 14.62 18.038 18.92 18.04 6.88 18.039 10.32 18.039-9.46 18.04 3.44 18.038-7.74 18.04 10.32 18.039-7.74 18.039 6.88 18.04 13.76" class="highcharts-graph" data-z-index="1" stroke="#8087E8" stroke-width="2"/><path d="m5.412 102.34 18.039 8.6 18.04 16.34 18.038 21.5 18.04-5.16 18.039 23.22 18.04-43 18.038-4.3 18.04 18.06 18.039-11.18 18.039-18.92h18.04l18.038 18.92 18.04 12.04 18.039 1.72 18.039-.86 18.04-1.72 18.038-15.48 18.04-24.08 18.039-24.94 18.04 14.62 18.038 18.92 18.04 6.88 18.039 10.32 18.039-9.46 18.04 3.44 18.038-7.74 18.04 10.32 18.039-7.74 18.039 6.88 18.04 13.76" data-z-index="2" class="highcharts-tracker-line" stroke="rgba(192,192,192,0.0001)" stroke-width="22"/></g><g class="highcharts-markers highcharts-series-0 highcharts-line-series highcharts-color-0 highcharts-tracker" data-z-index="1" aria-hidden="false" tabindex="-1" aria-label="Temperature, series 1 of 2. Line with 31 data points." style="outline:0" fill="#fff" stroke="#8087E8" stroke-width="2"><path d="M5 106a4 4 0 1 1 .004 0Z" class="highcharts-point highcharts-color-0" tabindex="-1" aria-label="Friday, Jul 1, 2022, 18.1°C. Temperature." style="outline:0" transform="translate(38 68)"/><path d="M23 115a4 4 0 1 1 .004 0Z" class="highcharts-point highcharts-color-0" tabindex="-1" aria-label="Saturday, Jul 2, 2022, 17.1°C. Temperature." style="outline:0" transform="translate(38 68)"/><path d="M41 131a4 4 0 1 1 .004 0Z" class="highcharts-point highcharts-color-0" tabindex="-1" aria-label="Sunday, Jul 3, 2022, 15.2°C. Temperature." style="outline:0" transform="translate(38 68)"/><path d="M59 153a4 4 0 1 1 .004 0Z" class="highcharts-point highcharts-color-0" tabindex="-1" aria-label="Monday, Jul 4, 2022, 12.7°C. Temperature." style="outline:0" transform="translate(38 68)"/><path d="M77 148a4 4 0 1 1 .004 0Z" class="highcharts-point highcharts-color-0" tabindex="-1" aria-label="Tuesday, Jul 5, 2022, 13.3°C. Temperature." style="outline:0" transform="translate(38 68)"/><path d="M95 171a4 4 0 1 1 .004 0Z" class="highcharts-point highcharts-color-0" tabindex="-1" aria-label="Wednesday, Jul 6, 2022, 10.6°C. Temperature." style="outline:0" transform="translate(38 68)"/><path d="M113 128a4 4 0 1 1 .004 0Z" class="highcharts-point highcharts-color-0" tabindex="-1" aria-label="Thursday, Jul 7, 2022, 15.6°C. Temperature." style="outline:0" transform="translate(38 68)"/><path d="M131 124a4 4 0 1 1 .004 0Z" class="highcharts-point highcharts-color-0" tabindex="-1" aria-label="Friday, Jul 8, 2022, 16.1°C. Temperature." style="outline:0" transform="translate(38 68)"/><path d="M149 142a4 4 0 1 1 .004 0Z" class="highcharts-point highcharts-color-0" tabindex="-1" aria-label="Saturday, Jul 9, 2022, 14°C. Temperature." style="outline:0" transform="translate(38 68)"/><path d="M167 130a4 4 0 1 1 .004 0Z" class="highcharts-point highcharts-color-0" tabindex="-1" aria-label="Sunday, Jul 10, 2022, 15.3°C. Temperature." style="outline:0" transform="translate(38 68)"/><path d="M185 112a4 4 0 1 1 .004 0Z" class="highcharts-point highcharts-color-0" tabindex="-1" aria-label="Monday, Jul 11, 2022, 17.5°C. Temperature." style="outline:0" transform="translate(38 68)"/><path d="M203 112a4 4 0 1 1 .004 0Z" class="highcharts-point highcharts-color-0" tabindex="-1" aria-label="Tuesday, Jul 12, 2022, 17.5°C. Temperature." style="outline:0" transform="translate(38 68)"/><path d="M221 130a4 4 0 1 1 .004 0Z" class="highcharts-point highcharts-color-0" tabindex="-1" aria-label="Wednesday, Jul 13, 2022, 15.3°C. Temperature." style="outline:0" transform="translate(38 68)"/><path d="M239 142a4 4 0 1 1 .004 0Z" class="highcharts-point highcharts-color-0" tabindex="-1" aria-label="Thursday, Jul 14, 2022, 13.9°C. Temperature." style="outline:0" transform="translate(38 68)"/><path d="M257 144a4 4 0 1 1 .004 0Z" class="highcharts-point highcharts-color-0" tabindex="-1" aria-label="Friday, Jul 15, 2022, 13.7°C. Temperature." style="outline:0" transform="translate(38 68)"/><path d="M276 143a4 4 0 1 1 .004 0Z" class="highcharts-point highcharts-color-0" tabindex="-1" aria-label="Saturday, Jul 16, 2022, 13.8°C. Temperature." style="outline:0" transform="translate(38 68)"/><path d="M294 142a4 4 0 1 1 .004 0Z" class="highcharts-point highcharts-color-0" tabindex="-1" aria-label="Sunday, Jul 17, 2022, 14°C. Temperature." style="outline:0" transform="translate(38 68)"/><path d="M312 126a4 4 0 1 1 .004 0Z" class="highcharts-point highcharts-color-0" tabindex="-1" aria-label="Monday, Jul 18, 2022, 15.8°C. Temperature." style="outline:0" transform="translate(38 68)"/><path d="M330 102a4 4 0 1 1 .004 0Z" class="highcharts-point highcharts-color-0" tabindex="-1" aria-label="Tuesday, Jul 19, 2022, 18.6°C. Temperature." style="outline:0" transform="translate(38 68)"/><path d="M348 77a4 4 0 1 1 .004 0Z" class="highcharts-point highcharts-color-0" tabindex="-1" aria-label="Wednesday, Jul 20, 2022, 21.5°C. Temperature." style="outline:0" transform="translate(38 68)"/><path d="M366 92a4 4 0 1 1 .004 0Z" class="highcharts-point highcharts-color-0" tabindex="-1" aria-label="Thursday, Jul 21, 2022, 19.8°C. Temperature." style="outline:0" transform="translate(38 68)"/><path d="M384 111a4 4 0 1 1 .004 0Z" class="highcharts-point highcharts-color-0" tabindex="-1" aria-label="Friday, Jul 22, 2022, 17.6°C. Temperature." style="outline:0" transform="translate(38 68)"/><path d="M402 118a4 4 0 1 1 .004 0Z" class="highcharts-point highcharts-color-0" tabindex="-1" aria-label="Saturday, Jul 23, 2022, 16.8°C. Temperature." style="outline:0" transform="translate(38 68)"/><path d="M420 128a4 4 0 1 1 .004 0Z" class="highcharts-point highcharts-color-0" tabindex="-1" aria-label="Sunday, Jul 24, 2022, 15.6°C. Temperature." style="outline:0" transform="translate(38 68)"/><path d="M438 118a4 4 0 1 1 .004 0Z" class="highcharts-point highcharts-color-0" tabindex="-1" aria-label="Monday, Jul 25, 2022, 16.7°C. Temperature." style="outline:0" transform="translate(38 68)"/><path d="M456 122a4 4 0 1 1 .004 0Z" class="highcharts-point highcharts-color-0" tabindex="-1" aria-label="Tuesday, Jul 26, 2022, 16.3°C. Temperature." style="outline:0" transform="translate(38 68)"/><path d="M474 114a4 4 0 1 1 .004 0Z" class="highcharts-point highcharts-color-0" tabindex="-1" aria-label="Wednesday, Jul 27, 2022, 17.2°C. Temperature." style="outline:0" transform="translate(38 68)"/><path d="M492 124a4 4 0 1 1 .004 0Z" class="highcharts-point highcharts-color-0" tabindex="-1" aria-label="Thursday, Jul 28, 2022, 16°C. Temperature." style="outline:0" transform="translate(38 68)"/><path d="M510 117a4 4 0 1 1 .004 0Z" class="highcharts-point highcharts-color-0" tabindex="-1" aria-label="Friday, Jul 29, 2022, 16.9°C. Temperature." style="outline:0" transform="translate(38 68)"/><path d="M528 124a4 4 0 1 1 .004 0Z" class="highcharts-point highcharts-color-0" tabindex="-1" aria-label="Saturday, Jul 30, 2022, 16.1°C. Temperature." style="outline:0" transform="translate(38 68)"/><path d="M546 137a4 4 0 1 1 .004 0Z" class="highcharts-point highcharts-color-0" tabindex="-1" aria-label="Sunday, Jul 31, 2022, 14.5°C. Temperature." style="outline:0" transform="translate(38 68)"/></g></g><text x="300" text-anchor="middle" class="highcharts-title" data-z-index="4" style="color:#2f2b38;font-size:22px;font-weight:500;fill:#2f2b38" y="27" aria-hidden="true">July temperatures in Nesbyen, 2022</text><text x="300" text-anchor="middle" class="highcharts-subtitle" data-z-index="4" style="color:#2f2b38;font-size:16px;font-weight:400;fill:#2f2b38" y="52" aria-hidden="true">Source: <a target="_blank"><tspan>YR</tspan></a></text><g class="highcharts-legend highcharts-no-tooltip" data-z-index="7" transform="translate(248 359)" aria-hidden="true"><rect fill="#f0f0f0" class="highcharts-legend-box" rx="2" ry="2" stroke="#BBBAC5" x=".5" y=".5" width="103" height="25"/><g class="highcharts-legend-item highcharts-line-series highcharts-color-0 highcharts-series-0" data-z-index="1"><path fill="none" d="M8 14h16" class="highcharts-graph" stroke-width="2" stroke="#8087E8"/><path fill="#fff" d="M16 18a4 4 0 1 1 .004 0Z" class="highcharts-point" stroke="#8087E8" stroke-width="2"/><text x="21" data-z-index="2" y="15" style="color:#2f2b38;cursor:pointer;font-size:12px;font-weight:400;fill:#2f2b38" transform="translate(8 3)">Temperature</text></g></g><g class="highcharts-axis-labels highcharts-xaxis-labels" data-z-index="7" aria-hidden="true" text-anchor="middle"><text x="97.529" style="color:#46465c;cursor:default;font-size:12px;fill:#46465c" y="346">4. Jul</text><text x="223.804" style="color:#46465c;cursor:default;font-size:12px;fill:#46465c" y="346">11. Jul</text><text x="350.078" style="color:#46465c;cursor:default;font-size:12px;fill:#46465c" y="346">18. Jul</text><text x="476.353" style="color:#46465c;cursor:default;font-size:12px;fill:#46465c" y="346">25. Jul</text></g><g class="highcharts-axis-labels highcharts-yaxis-labels" data-z-index="7" aria-hidden="true" text-anchor="end"><text x="23" style="color:#46465c;cursor:default;font-size:12px;fill:#46465c" y="331">0</text><text x="23" style="color:#46465c;cursor:default;font-size:12px;fill:#46465c" y="288">5</text><text x="23" style="color:#46465c;cursor:default;font-size:12px;fill:#46465c" y="245">10</text><text x="23" style="color:#46465c;cursor:default;font-size:12px;fill:#46465c" y="202">15</text><text x="23" style="color:#46465c;cursor:default;font-size:12px;fill:#46465c" y="159">20</text><text x="23" style="color:#46465c;cursor:default;font-size:12px;fill:#46465c" y="116">25</text><text x="23" style="color:#46465c;cursor:default;font-size:12px;fill:#46465c" y="73">30</text></g></svg>