<svg class="highcharts-root" style="font-family:&quot;IBM Plex Sans&quot;,sans-serif;font-size:12px" xmlns="http://www.w3.org/2000/svg" width="600" height="400" aria-label="Interactive chart" aria-hidden="false"><defs aria-hidden="true"><clipPath id="a"><path fill="none" d="M0 0h524v204H0z"/></clipPath></defs><rect fill="#f0f0f0" class="highcharts-background" width="600" height="400" rx="0" ry="0" aria-hidden="true"/><path fill="none" class="highcharts-plot-background" aria-hidden="true" d="M66 93h524v204H66z"/><g class="highcharts-grid highcharts-xaxis-grid" data-z-index="1" aria-hidden="true" fill="none"><path data-z-index="1" class="highcharts-grid-line" d="M113.5 93v204m47-204v204m48-204v204m48-204v204m47-204v204m48-204v204m47-204v204m48-204v204m48-204v204m47-204v204m48-204v204M65.5 93v204"/></g><g class="highcharts-grid highcharts-yaxis-grid" data-z-index="1" aria-hidden="true" fill="none" stroke="#ccc"><path data-z-index="1" class="highcharts-grid-line" d="M66 297.5h524m-524-51h524m-524-51h524m-524-51h524m-524-52h524"/></g><path fill="none" class="highcharts-plot-border" data-z-index="1" aria-hidden="true" d="M66 93h524v204H66z"/><g class="highcharts-axis highcharts-xaxis" data-z-index="2" aria-hidden="true"><path fill="none" class="highcharts-axis-line" stroke="#ccc" data-z-index="7" d="M66 297.5h524"/></g><g class="highcharts-axis highcharts-yaxis" data-z-index="2" aria-hidden="true"><path fill="none" class="highcharts-tick" stroke="#ccc" d="M66 297.5H56m10-51H56m10-51H56m10-51H56m10-52H56"/><text x="23.656" data-z-index="7" text-anchor="middle" transform="rotate(-90 23.656 195)" class="highcharts-axis-title" style="color:#2f2b38;font-weight:300;fill:#2f2b38" y="195">TWh</text><path fill="none" class="highcharts-axis-line" data-z-index="7" d="M66 93v204"/></g><g class="highcharts-series-group" data-z-index="3" aria-hidden="false"><g class="highcharts-series highcharts-series-0 highcharts-area-series highcharts-color-0" data-z-index=".1" clip-path="url(#a)" aria-hidden="true" transform="translate(66 93)"><path fill="rgba(128,135,232,0.75)" d="m23.818 56.61 47.637 21.675 47.636-3.825 47.636-15.3 47.637-9.435L262 62.985l47.636 1.02 47.637-22.185 47.636-5.355 47.636 24.99 47.637 8.16V153H23.818Z" class="highcharts-area" data-z-index="0"/><path fill="none" d="m23.818 56.61 47.637 21.675 47.636-3.825 47.636-15.3 47.637-9.435L262 62.985l47.636 1.02 47.637-22.185 47.636-5.355 47.636 24.99 47.637 8.16" class="highcharts-graph" data-z-index="1" stroke="#8087E8" stroke-width="2" stroke-linejoin="round" stroke-linecap="round"/><path fill="none" d="m23.818 56.61 47.637 21.675 47.636-3.825 47.636-15.3 47.637-9.435L262 62.985l47.636 1.02 47.637-22.185 47.636-5.355 47.636 24.99 47.637 8.16" data-z-index="2" class="highcharts-tracker-line" stroke-linecap="round" stroke-linejoin="round" stroke="rgba(192,192,192,0.0001)" stroke-width="22"/></g><g class="highcharts-markers highcharts-series-0 highcharts-area-series highcharts-color-0 highcharts-tracker" data-z-index=".1" aria-hidden="false" tabindex="-1" aria-label="Total production, series 1 of 3 with 11 data points." style="outline:0" fill="#8087E8"><path d="M23 61a4 4 0 1 1 .004 0Z" class="highcharts-point highcharts-color-0" tabindex="-1" aria-label="Q1 2019, 37.8. Total production." style="outline:0" transform="translate(66 93)"/><path d="M71 82a4 4 0 1 1 .004 0Z" class="highcharts-point highcharts-color-0" tabindex="-1" aria-label="Q2 2019, 29.3. Total production." style="outline:0" transform="translate(66 93)"/><path d="M119 78a4 4 0 1 1 .004 0Z" class="highcharts-point highcharts-color-0" tabindex="-1" aria-label="Q3 2019, 30.8. Total production." style="outline:0" transform="translate(66 93)"/><path d="M166 63a4 4 0 1 1 .004 0Z" class="highcharts-point highcharts-color-0" tabindex="-1" aria-label="Q4 2019, 36.8. Total production." style="outline:0" transform="translate(66 93)"/><path d="M214 54a4 4 0 1 1 .004 0Z" class="highcharts-point highcharts-color-0" tabindex="-1" aria-label="Q1 2020, 40.5. Total production." style="outline:0" transform="translate(66 93)"/><path d="M262 67a4 4 0 1 1 .004 0Z" class="highcharts-point highcharts-color-0" tabindex="-1" aria-label="Q2 2020, 35.3. Total production." style="outline:0" transform="translate(66 93)"/><path d="M309 68a4 4 0 1 1 .004 0Z" class="highcharts-point highcharts-color-0" tabindex="-1" aria-label="Q3 2020, 34.9. Total production." style="outline:0" transform="translate(66 93)"/><path d="M357 46a4 4 0 1 1 .004 0Z" class="highcharts-point highcharts-color-0" tabindex="-1" aria-label="Q4 2020, 43.6. Total production." style="outline:0" transform="translate(66 93)"/><path d="M404 40a4 4 0 1 1 .004 0Z" class="highcharts-point highcharts-color-0" tabindex="-1" aria-label="Q1 2021, 45.7. Total production." style="outline:0" transform="translate(66 93)"/><path d="M452 65a4 4 0 1 1 .004 0Z" class="highcharts-point highcharts-color-0" tabindex="-1" aria-label="Q2 2021, 35.9. Total production." style="outline:0" transform="translate(66 93)"/><path d="M500 74a4 4 0 1 1 .004 0Z" class="highcharts-point highcharts-color-0" tabindex="-1" aria-label="Q3 2021, 32.7. Total production." style="outline:0" transform="translate(66 93)"/></g><g class="highcharts-series highcharts-series-1 highcharts-area-series highcharts-color-1" data-z-index=".1" clip-path="url(#a)" aria-hidden="true" transform="translate(66 93)"><path fill="rgba(163,237,186,0.75)" d="m23.818 51.255 47.637 25.5 47.636 8.16 47.636-29.07 47.637-3.06L262 75.99l47.636 6.885 47.637-23.46 47.636-15.3 47.636 28.815 47.637 9.945V153H23.818Z" class="highcharts-area" data-z-index="0"/><path fill="none" d="m23.818 51.255 47.637 25.5 47.636 8.16 47.636-29.07 47.637-3.06L262 75.99l47.636 6.885 47.637-23.46 47.636-15.3 47.636 28.815 47.637 9.945" class="highcharts-graph" data-z-index="1" stroke="#A3EDBA" stroke-width="2" stroke-linejoin="round" stroke-linecap="round"/><path fill="none" d="m23.818 51.255 47.637 25.5 47.636 8.16 47.636-29.07 47.637-3.06L262 75.99l47.636 6.885 47.637-23.46 47.636-15.3 47.636 28.815 47.637 9.945" data-z-index="2" class="highcharts-tracker-line" stroke-linecap="round" stroke-linejoin="round" stroke="rgba(192,192,192,0.0001)" stroke-width="22"/></g><g class="highcharts-markers highcharts-series-1 highcharts-area-series highcharts-color-1 highcharts-tracker" data-z-index=".1" aria-hidden="false" tabindex="-1" aria-label="Gross consumption, series 2 of 3 with 11 data points." style="outline:0" fill="#A3EDBA"><path d="m23 47 4 4-4 4-4-4Z" class="highcharts-point highcharts-color-1" tabindex="-1" aria-label="Q1 2019, 39.9. Gross consumption." style="outline:0" transform="translate(66 93)"/><path d="m71 73 4 4-4 4-4-4Z" class="highcharts-point highcharts-color-1" tabindex="-1" aria-label="Q2 2019, 29.9. Gross consumption." style="outline:0" transform="translate(66 93)"/><path d="m119 81 4 4-4 4-4-4Z" class="highcharts-point highcharts-color-1" tabindex="-1" aria-label="Q3 2019, 26.7. Gross consumption." style="outline:0" transform="translate(66 93)"/><path d="m166 52 4 4-4 4-4-4Z" class="highcharts-point highcharts-color-1" tabindex="-1" aria-label="Q4 2019, 38.1. Gross consumption." style="outline:0" transform="translate(66 93)"/><path d="m214 49 4 4-4 4-4-4Z" class="highcharts-point highcharts-color-1" tabindex="-1" aria-label="Q1 2020, 39.3. Gross consumption." style="outline:0" transform="translate(66 93)"/><path d="m262 72 4 4-4 4-4-4Z" class="highcharts-point highcharts-color-1" tabindex="-1" aria-label="Q2 2020, 30.2. Gross consumption." style="outline:0" transform="translate(66 93)"/><path d="m309 79 4 4-4 4-4-4Z" class="highcharts-point highcharts-color-1" tabindex="-1" aria-label="Q3 2020, 27.5. Gross consumption." style="outline:0" transform="translate(66 93)"/><path d="m357 55 4 4-4 4-4-4Z" class="highcharts-point highcharts-color-1" tabindex="-1" aria-label="Q4 2020, 36.7. Gross consumption." style="outline:0" transform="translate(66 93)"/><path d="m404 40 4 4-4 4-4-4Z" class="highcharts-point highcharts-color-1" tabindex="-1" aria-label="Q1 2021, 42.7. Gross consumption." style="outline:0" transform="translate(66 93)"/><path d="m452 69 4 4-4 4-4-4Z" class="highcharts-point highcharts-color-1" tabindex="-1" aria-label="Q2 2021, 31.4. Gross consumption." style="outline:0" transform="translate(66 93)"/><path d="m500 79 4 4-4 4-4-4Z" class="highcharts-point highcharts-color-1" tabindex="-1" aria-label="Q3 2021, 27.5. Gross consumption." style="outline:0" transform="translate(66 93)"/></g><g class="highcharts-series highcharts-series-2 highcharts-area-series highcharts-color-2" data-z-index=".1" clip-path="url(#a)" aria-hidden="true" transform="translate(66 93)"><path fill="rgba(241,158,83,0.75)" d="m23.818 158.61 47.637-4.08 47.636-11.985 47.636 13.77 47.637-6.375L262 139.995l47.636-5.865 47.637 1.275 47.636 10.2 47.636-4.08 47.637-1.785V153H23.818Z" class="highcharts-area" data-z-index="0"/><path fill="none" d="m23.818 158.61 47.637-4.08 47.636-11.985 47.636 13.77 47.637-6.375L262 139.995l47.636-5.865 47.637 1.275 47.636 10.2 47.636-4.08 47.637-1.785" class="highcharts-graph" data-z-index="1" stroke="#F19E53" stroke-width="2" stroke-linejoin="round" stroke-linecap="round"/><path fill="none" d="m23.818 158.61 47.637-4.08 47.636-11.985 47.636 13.77 47.637-6.375L262 139.995l47.636-5.865 47.637 1.275 47.636 10.2 47.636-4.08 47.637-1.785" data-z-index="2" class="highcharts-tracker-line" stroke-linecap="round" stroke-linejoin="round" stroke="rgba(192,192,192,0.0001)" stroke-width="22"/></g><g class="highcharts-markers highcharts-series-2 highcharts-area-series highcharts-color-2 highcharts-tracker" data-z-index=".1" aria-hidden="false" tabindex="-1" aria-label="Trade surplus, series 3 of 3 with 11 data points." style="outline:0" fill="#F19E53"><path d="M19 155h8v8h-8Z" class="highcharts-point highcharts-negative highcharts-color-2" tabindex="-1" aria-label="Q1 2019, -2.2. Trade surplus." style="outline:0" transform="translate(66 93)"/><path d="M67 151h8v8h-8Z" class="highcharts-point highcharts-negative highcharts-color-2" tabindex="-1" aria-label="Q2 2019, -0.6. Trade surplus." style="outline:0" transform="translate(66 93)"/><path d="M115 139h8v8h-8Z" class="highcharts-point highcharts-color-2" tabindex="-1" aria-label="Q3 2019, 4.1. Trade surplus." style="outline:0" transform="translate(66 93)"/><path d="M162 152h8v8h-8Z" class="highcharts-point highcharts-negative highcharts-color-2" tabindex="-1" aria-label="Q4 2019, -1.3. Trade surplus." style="outline:0" transform="translate(66 93)"/><path d="M210 146h8v8h-8Z" class="highcharts-point highcharts-color-2" tabindex="-1" aria-label="Q1 2020, 1.2. Trade surplus." style="outline:0" transform="translate(66 93)"/><path d="M258 136h8v8h-8Z" class="highcharts-point highcharts-color-2" tabindex="-1" aria-label="Q2 2020, 5.1. Trade surplus." style="outline:0" transform="translate(66 93)"/><path d="M305 130h8v8h-8Z" class="highcharts-point highcharts-color-2" tabindex="-1" aria-label="Q3 2020, 7.4. Trade surplus." style="outline:0" transform="translate(66 93)"/><path d="M353 131h8v8h-8Z" class="highcharts-point highcharts-color-2" tabindex="-1" aria-label="Q4 2020, 6.9. Trade surplus." style="outline:0" transform="translate(66 93)"/><path d="M400 142h8v8h-8Z" class="highcharts-point highcharts-color-2" tabindex="-1" aria-label="Q1 2021, 2.9. Trade surplus." style="outline:0" transform="translate(66 93)"/><path d="M448 138h8v8h-8Z" class="highcharts-point highcharts-color-2" tabindex="-1" aria-label="Q2 2021, 4.5. Trade surplus." style="outline:0" transform="translate(66 93)"/><path d="M496 136h8v8h-8Z" class="highcharts-point highcharts-color-2" tabindex="-1" aria-label="Q3 2021, 5.2. Trade surplus." style="outline:0" transform="translate(66 93)"/></g></g><text x="300" text-anchor="middle" class="highcharts-title" data-z-index="4" style="color:#2f2b38;font-size:22px;font-weight:500;fill:#2f2b38" y="27" aria-hidden="true">Production, consumption and trade surplus of electrical<tspan dy="25" x="300">​</tspan>power</text><text x="300" text-anchor="middle" class="highcharts-subtitle" data-z-index="4" style="color:#2f2b38;font-size:16px;font-weight:400;fill:#2f2b38" y="77" aria-hidden="true">Source: <a target="_blank"><tspan>SSB</tspan></a></text><g class="highcharts-legend highcharts-no-tooltip" data-z-index="7" transform="translate(110 359)" aria-hidden="true"><rect fill="#f0f0f0" class="highcharts-legend-box" rx="2" ry="2" stroke="#BBBAC5" x=".5" y=".5" width="379" height="25"/><g data-z-index="1"><g class="highcharts-legend-item highcharts-area-series highcharts-color-0 highcharts-series-0" data-z-index="1" transform="translate(8 3)"><text x="21" data-z-index="2" y="15" style="color:#2f2b38;cursor:pointer;font-size:12px;font-weight:400;fill:#2f2b38">Total production</text><rect x="2" y="4" width="12" height="12" fill="#8087E8" rx="6" ry="6" class="highcharts-point" data-z-index="3"/></g><g class="highcharts-legend-item highcharts-area-series highcharts-color-1 highcharts-series-1" data-z-index="1" transform="translate(133.727 3)"><text x="21" y="15" data-z-index="2" style="color:#2f2b38;cursor:pointer;font-size:12px;font-weight:400;fill:#2f2b38">Gross consumption</text><rect x="2" y="4" width="12" height="12" fill="#A3EDBA" rx="6" ry="6" class="highcharts-point" data-z-index="3"/></g><g class="highcharts-legend-item highcharts-area-series highcharts-color-2 highcharts-series-2" data-z-index="1" transform="translate(278.11 3)"><text x="21" y="15" data-z-index="2" style="color:#2f2b38;cursor:pointer;font-size:12px;font-weight:400;fill:#2f2b38">Trade surplus</text><rect x="2" y="4" width="12" height="12" fill="#F19E53" rx="6" ry="6" class="highcharts-point" data-z-index="3"/></g></g></g><g class="highcharts-axis-labels highcharts-xaxis-labels" data-z-index="7" aria-hidden="true" text-anchor="end"><text x="92.647" transform="rotate(-45 92.647 313)" style="color:#46465c;cursor:default;font-size:12px;fill:#46465c" y="313">Q1 2019</text><text x="140.283" transform="rotate(-45 140.283 313)" style="color:#46465c;cursor:default;font-size:12px;fill:#46465c" y="313">Q2 2019</text><text x="187.919" transform="rotate(-45 187.92 313)" style="color:#46465c;cursor:default;font-size:12px;fill:#46465c" y="313">Q3 2019</text><text x="235.556" transform="rotate(-45 235.556 313)" style="color:#46465c;cursor:default;font-size:12px;fill:#46465c" y="313">Q4 2019</text><text x="283.192" transform="rotate(-45 283.192 313)" style="color:#46465c;cursor:default;font-size:12px;fill:#46465c" y="313">Q1 2020</text><text x="330.828" transform="rotate(-45 330.828 313)" style="color:#46465c;cursor:default;font-size:12px;fill:#46465c" y="313">Q2 2020</text><text x="378.465" transform="rotate(-45 378.465 313)" style="color:#46465c;cursor:default;font-size:12px;fill:#46465c" y="313">Q3 2020</text><text x="426.101" transform="rotate(-45 426.101 313)" style="color:#46465c;cursor:default;font-size:12px;fill:#46465c" y="313">Q4 2020</text><text x="473.738" transform="rotate(-45 473.738 313)" style="color:#46465c;cursor:default;font-size:12px;fill:#46465c" y="313">Q1 2021</text><text x="521.374" transform="rotate(-45 521.374 313)" style="color:#46465c;cursor:default;font-size:12px;fill:#46465c" y="313">Q2 2021</text><text x="569.01" transform="rotate(-45 569.01 313)" style="color:#46465c;cursor:default;font-size:12px;fill:#46465c" y="313">Q3 2021</text></g><g class="highcharts-axis-labels highcharts-yaxis-labels" data-z-index="7" aria-hidden="true" text-anchor="end"><text x="51" style="color:#46465c;cursor:default;font-size:12px;fill:#46465c" y="302">-20</text><text x="51" style="color:#46465c;cursor:default;font-size:12px;fill:#46465c" y="251">0</text><text x="51" style="color:#46465c;cursor:default;font-size:12px;fill:#46465c" y="200">20</text><text x="51" style="color:#46465c;cursor:default;font-size:12px;fill:#46465c" y="149">40</text><text x="51" style="color:#46465c;cursor:default;font-size:12px;fill:#46465c" y="98">60</text></g></svg>