<svg class="highcharts-root" style="font-family:&quot;IBM Plex Sans&quot;,sans-serif;font-size:12px" xmlns="http://www.w3.org/2000/svg" width="600" height="400" aria-label="Interactive chart" aria-hidden="false"><defs aria-hidden="true"><clipPath id="a"><path fill="none" d="M0 0h257v522H0z"/></clipPath></defs><rect fill="#f0f0f0" class="highcharts-background" width="600" height="400" rx="0" ry="0" aria-hidden="true"/><path fill="none" class="highcharts-plot-background" aria-hidden="true" d="M68 50h522v257H68z"/><g class="highcharts-grid highcharts-xaxis-grid" data-z-index="1" aria-hidden="true" fill="none"><path data-z-index="1" class="highcharts-grid-line" d="M68 101.5h522m-522 52h522m-522 51h522m-522 52h522m-522 51h522M68 50.5h522"/></g><g class="highcharts-grid highcharts-yaxis-grid" data-z-index="1" aria-hidden="true" fill="none" stroke="#ccc"><path data-z-index="1" class="highcharts-grid-line" d="M67.5 50v257m75-257v257m74-257v257m75-257v257m74-257v257m75-257v257m74-257v257m76-257v257"/></g><path fill="none" class="highcharts-plot-border" data-z-index="1" aria-hidden="true" d="M68 50h522v257H68z"/><g class="highcharts-axis highcharts-xaxis" data-z-index="2" aria-hidden="true"><path fill="none" class="highcharts-axis-line" stroke="#ccc" data-z-index="7" d="M67.5 50v257"/></g><g class="highcharts-axis highcharts-yaxis" data-z-index="2" aria-hidden="true"><path fill="none" class="highcharts-tick" stroke="#ccc" d="M67.5 307v10m75-10v10m74-10v10m75-10v10m74-10v10m75-10v10m74-10v10m76-10v10"/><text x="329" data-z-index="7" text-anchor="middle" class="highcharts-axis-title" style="color:#2f2b38;font-weight:300;fill:#2f2b38" y="345.5">Goals</text><path fill="none" class="highcharts-axis-line" data-z-index="7" d="M68 307h522"/></g><g class="highcharts-series-group" data-z-index="3" aria-hidden="false" stroke="#BBBAC5"><g class="highcharts-series highcharts-series-0 highcharts-bar-series highcharts-color-0 highcharts-tracker" data-z-index=".1" clip-path="url(#a)" aria-hidden="false" tabindex="-1" aria-label="Cristiano Ronaldo, bar series 1 of 3 with 5 bars." style="outline:0" fill="#8087E8" transform="matrix(0 -1 -1 0 590 307)"><path class="highcharts-point highcharts-color-0" tabindex="-1" aria-label="2020/21, 4. Cristiano Ronaldo." style="outline:0" d="M218.5 313.5h25v60h-25z"/><path class="highcharts-point highcharts-color-0" tabindex="-1" aria-label="2019/20, 4. Cristiano Ronaldo." style="outline:0" d="M167.5 194.5h25v60h-25z"/><path class="highcharts-point highcharts-color-0" tabindex="-1" aria-label="2018/19, 6. Cristiano Ronaldo." style="outline:0" d="M115.5 134.5h25v90h-25z"/><path class="highcharts-point highcharts-color-0" tabindex="-1" aria-label="2017/18, 15. Cristiano Ronaldo." style="outline:0" d="M64.5 134.5h25v224h-25z"/><path class="highcharts-point highcharts-color-0" tabindex="-1" aria-label="2016/17, 12. Cristiano Ronaldo." style="outline:0" d="M12.5 60.5h25v179h-25z"/></g><g class="highcharts-series highcharts-series-1 highcharts-bar-series highcharts-color-1 highcharts-tracker" data-z-index=".1" clip-path="url(#a)" aria-hidden="false" tabindex="-1" aria-label="Lionel Messi, bar series 2 of 3 with 5 bars." style="outline:0" fill="#A3EDBA" transform="matrix(0 -1 -1 0 590 307)"><path class="highcharts-point highcharts-color-1" tabindex="-1" aria-label="2020/21, 5. Lionel Messi." style="outline:0" d="M218.5 373.5h25v74h-25z"/><path class="highcharts-point highcharts-color-1" tabindex="-1" aria-label="2019/20, 3. Lionel Messi." style="outline:0" d="M167.5 254.5h25v44h-25z"/><path class="highcharts-point highcharts-color-1" tabindex="-1" aria-label="2018/19, 12. Lionel Messi." style="outline:0" d="M115.5 224.5h25v179h-25z"/><path class="highcharts-point highcharts-color-1" tabindex="-1" aria-label="2017/18, 6. Lionel Messi." style="outline:0" d="M64.5 358.5h25v89h-25z"/><path class="highcharts-point highcharts-color-1" tabindex="-1" aria-label="2016/17, 11. Lionel Messi." style="outline:0" d="M12.5 239.5h25v164h-25z"/></g><g class="highcharts-series highcharts-series-2 highcharts-bar-series highcharts-color-2 highcharts-tracker" data-z-index=".1" clip-path="url(#a)" aria-hidden="false" tabindex="-1" aria-label="Robert Lewandowski, bar series 3 of 3 with 5 bars." style="outline:0" fill="#F19E53" transform="matrix(0 -1 -1 0 590 307)"><path class="highcharts-point highcharts-color-2" tabindex="-1" aria-label="2020/21, 5. Robert Lewandowski." style="outline:0" d="M218.5 447.5h25v75h-25z"/><path class="highcharts-point highcharts-color-2" tabindex="-1" aria-label="2019/20, 15. Robert Lewandowski." style="outline:0" d="M167.5 298.5h25v224h-25z"/><path class="highcharts-point highcharts-color-2" tabindex="-1" aria-label="2018/19, 8. Robert Lewandowski." style="outline:0" d="M115.5 403.5h25v119h-25z"/><path class="highcharts-point highcharts-color-2" tabindex="-1" aria-label="2017/18, 5. Robert Lewandowski." style="outline:0" d="M64.5 447.5h25v75h-25z"/><path class="highcharts-point highcharts-color-2" tabindex="-1" aria-label="2016/17, 8. Robert Lewandowski." style="outline:0" d="M12.5 403.5h25v119h-25z"/></g></g><text x="300" text-anchor="middle" class="highcharts-title" data-z-index="4" style="color:#2f2b38;font-size:22px;font-weight:500;fill:#2f2b38" y="27" aria-hidden="true">UEFA CL top scorers by season</text><g class="highcharts-legend highcharts-no-tooltip" data-z-index="7" transform="translate(104 359)" aria-hidden="true"><rect fill="#f0f0f0" class="highcharts-legend-box" rx="2" ry="2" stroke="#BBBAC5" x=".5" y=".5" width="391" height="25"/><g data-z-index="1"><g class="highcharts-legend-item highcharts-bar-series highcharts-color-2 highcharts-series-2" data-z-index="1" transform="translate(8 3)"><text x="21" data-z-index="2" y="15" style="color:#2f2b38;cursor:pointer;font-size:12px;font-weight:400;fill:#2f2b38">Robert Lewandowski</text><rect x="2" y="4" width="12" height="12" fill="#F19E53" rx="6" ry="6" class="highcharts-point" data-z-index="3"/></g><g class="highcharts-legend-item highcharts-bar-series highcharts-color-1 highcharts-series-1" data-z-index="1" transform="translate(160.398 3)"><text x="21" y="15" data-z-index="2" style="color:#2f2b38;cursor:pointer;font-size:12px;font-weight:400;fill:#2f2b38">Lionel Messi</text><rect x="2" y="4" width="12" height="12" fill="#A3EDBA" rx="6" ry="6" class="highcharts-point" data-z-index="3"/></g><g class="highcharts-legend-item highcharts-bar-series highcharts-color-0 highcharts-series-0" data-z-index="1" transform="translate(268.102 3)"><text x="21" y="15" data-z-index="2" style="color:#2f2b38;cursor:pointer;font-size:12px;font-weight:400;fill:#2f2b38">Cristiano Ronaldo</text><rect x="2" y="4" width="12" height="12" fill="#8087E8" rx="6" ry="6" class="highcharts-point" data-z-index="3"/></g></g></g><g class="highcharts-axis-labels highcharts-xaxis-labels" data-z-index="7" aria-hidden="true" text-anchor="end"><text x="53" style="color:#46465c;cursor:default;font-size:12px;fill:#46465c" y="81">2020/21</text><text x="53" style="color:#46465c;cursor:default;font-size:12px;fill:#46465c" y="132">2019/20</text><text x="53" style="color:#46465c;cursor:default;font-size:12px;fill:#46465c" y="184">2018/19</text><text x="53" style="color:#46465c;cursor:default;font-size:12px;fill:#46465c" y="235">2017/18</text><text x="53" style="color:#46465c;cursor:default;font-size:12px;fill:#46465c" y="287">2016/17</text></g><g class="highcharts-axis-labels highcharts-yaxis-labels" data-z-index="7" aria-hidden="true" text-anchor="middle"><text x="68" style="color:#46465c;cursor:default;font-size:12px;fill:#46465c" y="327">0</text><text x="142.571" style="color:#46465c;cursor:default;font-size:12px;fill:#46465c" y="327">5</text><text x="217.143" style="color:#46465c;cursor:default;font-size:12px;fill:#46465c" y="327">10</text><text x="291.714" style="color:#46465c;cursor:default;font-size:12px;fill:#46465c" y="327">15</text><text x="366.286" style="color:#46465c;cursor:default;font-size:12px;fill:#46465c" y="327">20</text><text x="440.857" style="color:#46465c;cursor:default;font-size:12px;fill:#46465c" y="327">25</text><text x="515.429" style="color:#46465c;cursor:default;font-size:12px;fill:#46465c" y="327">30</text><text x="583.324" style="color:#46465c;cursor:default;font-size:12px;fill:#46465c" y="327">35</text></g></svg>