<svg class="highcharts-root" style="font-family:&quot;IBM Plex Sans&quot;,sans-serif;font-size:12px" xmlns="http://www.w3.org/2000/svg" width="600" height="400" aria-label="Interactive chart" aria-hidden="false"><defs aria-hidden="true"><clipPath id="a"><path fill="none" d="M0 0h529v270H0z"/></clipPath></defs><rect fill="#f0f0f0" class="highcharts-background" width="600" height="400" rx="0" ry="0" aria-hidden="true"/><path fill="none" class="highcharts-plot-background" aria-hidden="true" d="M61 93h529v270H61z"/><g class="highcharts-grid highcharts-xaxis-grid" data-z-index="1" aria-hidden="true" fill="none"><path data-z-index="1" class="highcharts-grid-line" d="M104.5 93v270m44-270v270m44-270v270m44-270v270m44-270v270m44-270v270m45-270v270m44-270v270m44-270v270m44-270v270m44-270v270m44-270v270M60.5 93v270"/></g><g class="highcharts-grid highcharts-yaxis-grid" data-z-index="1" aria-hidden="true" fill="none" stroke="#ccc"><path data-z-index="1" class="highcharts-grid-line" d="M61 363.5h529m-529-90h529m-529-90h529m-529-91h529"/></g><path fill="none" class="highcharts-plot-border" data-z-index="1" aria-hidden="true" d="M61 93h529v270H61z"/><g class="highcharts-axis highcharts-xaxis" data-z-index="2" aria-hidden="true"><path fill="none" class="highcharts-axis-line" stroke="#ccc" data-z-index="7" d="M61 363.5h529"/></g><g class="highcharts-axis highcharts-yaxis" data-z-index="2" aria-hidden="true"><path fill="none" class="highcharts-tick" stroke="#ccc" d="M61 363.5H51m10-90H51m10-90H51m10-91H51"/><text x="23.32" data-z-index="7" text-anchor="middle" transform="rotate(-90 23.32 228)" class="highcharts-axis-title" style="color:#2f2b38;font-weight:300;fill:#2f2b38" y="228">Values</text><path fill="none" class="highcharts-axis-line" data-z-index="7" d="M61 93v270"/></g><g class="highcharts-series-group" data-z-index="3" aria-hidden="false"><g class="highcharts-series highcharts-series-0 highcharts-column-series highcharts-tracker" data-z-index=".1" clip-path="url(#a)" aria-hidden="false" stroke="#BBBAC5" transform="translate(61 93)"><path fill="#8087E8" class="highcharts-point highcharts-color-0" tabindex="-1" aria-label="Jan, 5,412. Unemployed." style="outline:0" d="M10.5 26.5h22v244h-22z"/><path fill="#A3EDBA" class="highcharts-point highcharts-color-1" tabindex="-1" aria-label="Feb, 4,977. Unemployed." style="outline:0" d="M55.5 46.5h22v224h-22z"/><path fill="#F19E53" class="highcharts-point highcharts-color-2" tabindex="-1" aria-label="Mar, 4,730. Unemployed." style="outline:0" d="M99.5 57.5h22v213h-22z"/><path fill="#6699A1" class="highcharts-point highcharts-color-3" tabindex="-1" aria-label="Apr, 4,437. Unemployed." style="outline:0" d="M143.5 70.5h22v200h-22z"/><path fill="#E1D369" class="highcharts-point highcharts-color-4" tabindex="-1" aria-label="May, 3,947. Unemployed." style="outline:0" d="M187.5 92.5h22v178h-22z"/><path fill="#87B4E7" class="highcharts-point highcharts-color-5" tabindex="-1" aria-label="Jun, 3,707. Unemployed." style="outline:0" d="M231.5 103.5h22v167h-22z"/><path fill="#DA6D85" class="highcharts-point highcharts-color-6" tabindex="-1" aria-label="Jul, 4,143. Unemployed." style="outline:0" d="M275.5 84.5h22v186h-22z"/><path fill="#BBBAC5" class="highcharts-point highcharts-color-7" tabindex="-1" aria-label="Aug, 3,609. Unemployed." style="outline:0" d="M319.5 108.5h22v162h-22z"/><path fill="#8087E8" class="highcharts-point highcharts-color-0" tabindex="-1" aria-label="Sep, 3,311. Unemployed." style="outline:0" d="M363.5 121.5h22v149h-22z"/><path fill="#A3EDBA" class="highcharts-point highcharts-color-1" tabindex="-1" aria-label="Oct, 3,072. Unemployed." style="outline:0" d="M407.5 132.5h22v138h-22z"/><path fill="#F19E53" class="highcharts-point highcharts-color-2" tabindex="-1" aria-label="Nov, 2,899. Unemployed." style="outline:0" d="M451.5 140.5h22v130h-22z"/><path fill="#6699A1" class="highcharts-point highcharts-color-3" tabindex="-1" aria-label="Dec, 2,887. Unemployed." style="outline:0" d="M495.5 140.5h22v130h-22z"/></g></g><text x="300" text-anchor="middle" class="highcharts-title" data-z-index="4" style="color:#2f2b38;font-size:22px;font-weight:500;fill:#2f2b38" y="27" aria-hidden="true">Unemployment rates in engineering and ICT subjects,<tspan dy="25" x="300">​</tspan>2021</text><text x="300" text-anchor="middle" class="highcharts-subtitle" data-z-index="4" style="color:#2f2b38;font-size:16px;font-weight:400;fill:#2f2b38" y="77" aria-hidden="true">Chart option: Plain | Source: <a target="_blank"><tspan>NAV</tspan></a></text><g class="highcharts-axis-labels highcharts-xaxis-labels" data-z-index="7" aria-hidden="true" text-anchor="middle"><text x="83.042" style="color:#46465c;cursor:default;font-size:12px;fill:#46465c" y="383">Jan</text><text x="127.125" style="color:#46465c;cursor:default;font-size:12px;fill:#46465c" y="383">Feb</text><text x="171.208" style="color:#46465c;cursor:default;font-size:12px;fill:#46465c" y="383">Mar</text><text x="215.292" style="color:#46465c;cursor:default;font-size:12px;fill:#46465c" y="383">Apr</text><text x="259.375" style="color:#46465c;cursor:default;font-size:12px;fill:#46465c" y="383">May</text><text x="303.458" style="color:#46465c;cursor:default;font-size:12px;fill:#46465c" y="383">Jun</text><text x="347.542" style="color:#46465c;cursor:default;font-size:12px;fill:#46465c" y="383">Jul</text><text x="391.625" style="color:#46465c;cursor:default;font-size:12px;fill:#46465c" y="383">Aug</text><text x="435.708" style="color:#46465c;cursor:default;font-size:12px;fill:#46465c" y="383">Sep</text><text x="479.792" style="color:#46465c;cursor:default;font-size:12px;fill:#46465c" y="383">Oct</text><text x="523.875" style="color:#46465c;cursor:default;font-size:12px;fill:#46465c" y="383">Nov</text><text x="567.958" style="color:#46465c;cursor:default;font-size:12px;fill:#46465c" y="383">Dec</text></g><g class="highcharts-axis-labels highcharts-yaxis-labels" data-z-index="7" aria-hidden="true" text-anchor="end"><text x="46" style="color:#46465c;cursor:default;font-size:12px;fill:#46465c" y="368">0</text><text x="46" style="color:#46465c;cursor:default;font-size:12px;fill:#46465c" y="278">2k</text><text x="46" style="color:#46465c;cursor:default;font-size:12px;fill:#46465c" y="188">4k</text><text x="46" style="color:#46465c;cursor:default;font-size:12px;fill:#46465c" y="98">6k</text></g></svg>