<svg class="highcharts-root" style="font-family:&quot;IBM Plex Sans&quot;,sans-serif;font-size:12px" xmlns="http://www.w3.org/2000/svg" width="600" height="400" aria-label="Interactive chart" aria-hidden="false"><defs aria-hidden="true"><clipPath id="a"><path fill="none" d="M0 0h462v275H0z"/></clipPath><clipPath id="b"><path fill="none" d="M0 0h462v275H0z"/></clipPath></defs><rect fill="#f0f0f0" class="highcharts-background" width="600" height="400" rx="0" ry="0" aria-hidden="true"/><path fill="none" class="highcharts-plot-background" aria-hidden="true" d="M69 50h462v275H69z"/><g class="highcharts-grid highcharts-xaxis-grid" data-z-index="1" aria-hidden="true" fill="none"><path data-z-index="1" class="highcharts-grid-line" d="M222.5 50v275m154-275v275m154-275v275M68.5 50v275"/></g><g class="highcharts-grid highcharts-yaxis-grid" data-z-index="1" aria-hidden="true" fill="none" stroke="#ccc"><path data-z-index="1" class="highcharts-grid-line" d="M69 325.5h462m-462-69h462m-462-68h462m-462-69h462m-462-70h462"/></g><g class="highcharts-grid highcharts-yaxis-grid" data-z-index="1" aria-hidden="true" fill="none" stroke="#ccc"><path data-z-index="1" class="highcharts-grid-line" d="M69 325.5h462m-462-69h462m-462-68h462m-462-69h462m-462-70h462"/></g><path fill="none" class="highcharts-plot-border" data-z-index="1" aria-hidden="true" d="M69 50h462v275H69z"/><g class="highcharts-axis highcharts-xaxis" data-z-index="2" aria-hidden="true"><path fill="none" class="highcharts-axis-line" stroke="#ccc" data-z-index="7" d="M69 325.5h462"/></g><g class="highcharts-axis highcharts-yaxis" data-z-index="2" aria-hidden="true"><path fill="none" class="highcharts-tick" stroke="#ccc" d="M69 325.5H59m10-69H59m10-68H59m10-69H59m10-70H59"/><text x="23.977" data-z-index="7" text-anchor="middle" transform="rotate(-90 23.977 187.5)" class="highcharts-axis-title" style="color:#2f2b38;font-weight:300;fill:#2f2b38" y="187.5">Employees</text><path fill="none" class="highcharts-axis-line" data-z-index="7" d="M69 50v275"/></g><g class="highcharts-axis highcharts-yaxis" data-z-index="2" aria-hidden="true"><path fill="none" class="highcharts-tick" stroke="#ccc" d="M531 325.5h10m-10-69h10m-10-68h10m-10-69h10m-10-70h10"/><text x="576.023" data-z-index="7" text-anchor="middle" transform="rotate(90 576.023 187.5)" class="highcharts-axis-title" style="color:#2f2b38;font-weight:300;fill:#2f2b38" y="187.5">Profit (millions)</text><path fill="none" class="highcharts-axis-line" data-z-index="7" d="M531 50v275"/></g><g class="highcharts-series-group" data-z-index="3" aria-hidden="false"><g class="highcharts-series highcharts-series-0 highcharts-column-series highcharts-tracker" data-z-index=".1" clip-path="url(#a)" aria-hidden="false" tabindex="-1" aria-label="Employees, bar series 1 of 4 with 3 bars. Y axis, Employees." style="outline:0" fill="rgba(165,170,217,1)" transform="translate(69 50)"><path class="highcharts-point" tabindex="-1" aria-label="Seattle HQ, 150. Employees." style="outline:0" d="M28 18h37v258H28z"/><path class="highcharts-point" tabindex="-1" aria-label="San Francisco, 73. Employees." style="outline:0" d="M182 151h37v125h-37z"/><path class="highcharts-point" tabindex="-1" aria-label="Tokyo, 20. Employees." style="outline:0" d="M336 242h37v34h-37z"/></g><g class="highcharts-series highcharts-series-1 highcharts-column-series highcharts-tracker" data-z-index=".1" clip-path="url(#a)" aria-hidden="false" tabindex="-1" aria-label="Employees Optimized, bar series 2 of 4 with 3 bars. Y axis, Employees." style="outline:0" fill="rgba(126,86,134,.9)" transform="translate(69 50)"><path class="highcharts-point" tabindex="-1" aria-label="Seattle HQ, 140. Employees Optimized." style="outline:0" d="M37 35h19v241H37z"/><path class="highcharts-point" tabindex="-1" aria-label="San Francisco, 90. Employees Optimized." style="outline:0" d="M191 121h19v155h-19z"/><path class="highcharts-point" tabindex="-1" aria-label="Tokyo, 40. Employees Optimized." style="outline:0" d="M345 207h19v69h-19z"/></g><g class="highcharts-series highcharts-series-2 highcharts-column-series highcharts-tracker" data-z-index=".1" clip-path="url(#b)" aria-hidden="false" tabindex="-1" aria-label="Profit, bar series 3 of 4 with 3 bars. Y axis, Profit (millions)." style="outline:0" fill="rgba(248,161,63,1)" transform="translate(69 50)"><path class="highcharts-point" tabindex="-1" aria-label="Seattle HQ, $183.6 M. Profit." style="outline:0" d="M89 66h37v210H89z"/><path class="highcharts-point" tabindex="-1" aria-label="San Francisco, $178.8 M. Profit." style="outline:0" d="M243 71h37v205h-37z"/><path class="highcharts-point" tabindex="-1" aria-label="Tokyo, $198.5 M. Profit." style="outline:0" d="M397 49h37v227h-37z"/></g><g class="highcharts-series highcharts-series-3 highcharts-column-series highcharts-tracker" data-z-index=".1" clip-path="url(#b)" aria-hidden="false" tabindex="-1" aria-label="Profit Optimized, bar series 4 of 4 with 3 bars. Y axis, Profit (millions)." style="outline:0" fill="rgba(186,60,61,.9)" transform="translate(69 50)"><path class="highcharts-point" tabindex="-1" aria-label="Seattle HQ, $203.6 M. Profit Optimized." style="outline:0" d="M99 43h19v233H99z"/><path class="highcharts-point" tabindex="-1" aria-label="San Francisco, $198.8 M. Profit Optimized." style="outline:0" d="M253 48h19v228h-19z"/><path class="highcharts-point" tabindex="-1" aria-label="Tokyo, $208.5 M. Profit Optimized." style="outline:0" d="M407 37h19v239h-19z"/></g></g><text x="300" text-anchor="middle" class="highcharts-title" data-z-index="4" style="color:#2f2b38;font-size:22px;font-weight:500;fill:#2f2b38" y="27" aria-hidden="true">Efficiency Optimization by Branch</text><g class="highcharts-legend highcharts-no-tooltip" data-z-index="7" transform="translate(75 359)" aria-hidden="true"><rect fill="#f0f0f0" class="highcharts-legend-box" rx="2" ry="2" stroke="#BBBAC5" x=".5" y=".5" width="448" height="25"/><g data-z-index="1"><g class="highcharts-legend-item highcharts-column-series highcharts-color-undefined highcharts-series-0" data-z-index="1" transform="translate(8 3)"><text x="21" data-z-index="2" y="15" style="color:#2f2b38;cursor:pointer;font-size:12px;font-weight:400;fill:#2f2b38">Employees</text><rect x="2" y="4" width="12" height="12" fill="rgba(165,170,217,1)" rx="6" ry="6" class="highcharts-point" data-z-index="3"/></g><g class="highcharts-legend-item highcharts-column-series highcharts-color-undefined highcharts-series-1" data-z-index="1" transform="translate(108.367 3)"><text x="21" y="15" data-z-index="2" style="color:#2f2b38;cursor:pointer;font-size:12px;font-weight:400;fill:#2f2b38">Employees Optimized</text><rect x="2" y="4" width="12" height="12" fill="rgba(126,86,134,.9)" rx="6" ry="6" class="highcharts-point" data-z-index="3"/></g><g class="highcharts-legend-item highcharts-column-series highcharts-color-undefined highcharts-series-2" data-z-index="1" transform="translate(266.086 3)"><text x="21" y="15" data-z-index="2" style="color:#2f2b38;cursor:pointer;font-size:12px;font-weight:400;fill:#2f2b38">Profit</text><rect x="2" y="4" width="12" height="12" fill="rgba(248,161,63,1)" rx="6" ry="6" class="highcharts-point" data-z-index="3"/></g><g class="highcharts-legend-item highcharts-column-series highcharts-color-undefined highcharts-series-3" data-z-index="1" transform="translate(335.094 3)"><text x="21" y="15" data-z-index="2" style="color:#2f2b38;cursor:pointer;font-size:12px;font-weight:400;fill:#2f2b38">Profit Optimized</text><rect x="2" y="4" width="12" height="12" fill="rgba(186,60,61,.9)" rx="6" ry="6" class="highcharts-point" data-z-index="3"/></g></g></g><g class="highcharts-axis-labels highcharts-xaxis-labels" data-z-index="7" aria-hidden="true" text-anchor="middle"><text x="146" style="color:#46465c;cursor:default;font-size:12px;fill:#46465c" y="345">Seattle HQ</text><text x="300" style="color:#46465c;cursor:default;font-size:12px;fill:#46465c" y="345">San Francisco</text><text x="454" style="color:#46465c;cursor:default;font-size:12px;fill:#46465c" y="345">Tokyo</text></g><g class="highcharts-axis-labels highcharts-yaxis-labels" data-z-index="7" aria-hidden="true" text-anchor="end"><text x="54" style="color:#46465c;cursor:default;font-size:12px;fill:#46465c" y="330">0</text><text x="54" style="color:#46465c;cursor:default;font-size:12px;fill:#46465c" y="262">40</text><text x="54" style="color:#46465c;cursor:default;font-size:12px;fill:#46465c" y="193">80</text><text x="54" style="color:#46465c;cursor:default;font-size:12px;fill:#46465c" y="124">120</text><text x="54" style="color:#46465c;cursor:default;font-size:12px;fill:#46465c" y="55">160</text></g><g class="highcharts-axis-labels highcharts-yaxis-labels" data-z-index="7" aria-hidden="true"><text x="546" style="color:#46465c;cursor:default;font-size:12px;fill:#46465c" y="330">0</text><text x="546" style="color:#46465c;cursor:default;font-size:12px;fill:#46465c" y="262">60</text><text x="546" style="color:#46465c;cursor:default;font-size:12px;fill:#46465c" y="193">120</text><text x="546" style="color:#46465c;cursor:default;font-size:12px;fill:#46465c" y="124">180</text><text x="546" style="color:#46465c;cursor:default;font-size:12px;fill:#46465c" y="55">240</text></g></svg>