<svg class="highcharts-root" style="font-family:&quot;IBM Plex Sans&quot;,sans-serif;font-size:12px" xmlns="http://www.w3.org/2000/svg" width="600" height="400" aria-label="Interactive chart" aria-hidden="false"><defs aria-hidden="true"><clipPath id="a"><path fill="none" d="M0 0h524v238H0z"/></clipPath></defs><rect fill="#f0f0f0" class="highcharts-background" width="600" height="400" rx="0" ry="0" aria-hidden="true"/><path fill="none" class="highcharts-plot-background" aria-hidden="true" d="M66 50h524v238H66z"/><g class="highcharts-grid highcharts-xaxis-grid" data-z-index="1" aria-hidden="true" fill="none"><path data-z-index="1" class="highcharts-grid-line" d="M109.5 50v238m43-238v238m44-238v238m44-238v238m43-238v238m44-238v238m44-238v238m43-238v238m44-238v238m44-238v238m43-238v238m44-238v238M65.5 50v238"/></g><g class="highcharts-grid highcharts-yaxis-grid" data-z-index="1" aria-hidden="true" fill="none" stroke="#ccc"><path data-z-index="1" class="highcharts-grid-line" d="M66 288.5h524m-524-48h524m-524-47h524m-524-48h524m-524-47h524m-524-49h524"/></g><path fill="none" class="highcharts-plot-border" data-z-index="1" aria-hidden="true" d="M66 50h524v238H66z"/><g class="highcharts-axis highcharts-xaxis" data-z-index="2" aria-hidden="true"><path fill="none" class="highcharts-axis-line" stroke="#ccc" data-z-index="7" d="M66 288.5h524"/></g><g class="highcharts-axis highcharts-yaxis" data-z-index="2" aria-hidden="true"><path fill="none" class="highcharts-tick" stroke="#ccc" d="M66 288.5H56m10-48H56m10-47H56m10-48H56m10-47H56m10-49H56"/><text x="23.656" data-z-index="7" text-anchor="middle" transform="rotate(-90 23.656 169)" class="highcharts-axis-title" style="color:#2f2b38;font-weight:300;fill:#2f2b38" y="169">Temperature °C</text><path fill="none" class="highcharts-axis-line" data-z-index="7" d="M66 50v238"/></g><g class="highcharts-series-group" data-z-index="3" aria-hidden="false" stroke="#BBBAC5"><g class="highcharts-series highcharts-series-0 highcharts-column-series highcharts-color-0 highcharts-tracker" data-z-index=".1" clip-path="url(#a)" aria-hidden="false" tabindex="-1" aria-label="Oslo, bar series 1 of 3 with 12 bars." style="outline:0" fill="#8087E8" transform="translate(66 50)"><path class="highcharts-point highcharts-negative highcharts-color-0" tabindex="-1" aria-label="January, -5. Oslo." style="outline:0" d="M9.5 143.5h7v24h-7z"/><path class="highcharts-point highcharts-negative highcharts-color-0" tabindex="-1" aria-label="February, -3.6. Oslo." style="outline:0" d="M52.5 143.5h7v17h-7z"/><path class="highcharts-point highcharts-color-0" tabindex="-1" aria-label="March, 3.3. Oslo." style="outline:0" d="M96.5 127.5h7v16h-7z"/><path class="highcharts-point highcharts-color-0" tabindex="-1" aria-label="April, 5.8. Oslo." style="outline:0" d="M140.5 115.5h7v28h-7z"/><path class="highcharts-point highcharts-color-0" tabindex="-1" aria-label="May, 10.6. Oslo." style="outline:0" d="M183.5 92.5h7v51h-7z"/><path class="highcharts-point highcharts-color-0" tabindex="-1" aria-label="June, 17.3. Oslo." style="outline:0" d="M227.5 60.5h7v83h-7z"/><path class="highcharts-point highcharts-color-0" tabindex="-1" aria-label="July, 20. Oslo." style="outline:0" d="M271.5 48.5h7v95h-7z"/><path class="highcharts-point highcharts-color-0" tabindex="-1" aria-label="August, 16.5. Oslo." style="outline:0" d="M314.5 64.5h7v79h-7z"/><path class="highcharts-point highcharts-color-0" tabindex="-1" aria-label="September, 13.4. Oslo." style="outline:0" d="M358.5 79.5h7v64h-7z"/><path class="highcharts-point highcharts-color-0" tabindex="-1" aria-label="October, 9.1. Oslo." style="outline:0" d="M402.5 99.5h7v44h-7z"/><path class="highcharts-point highcharts-color-0" tabindex="-1" aria-label="November, 2.9. Oslo." style="outline:0" d="M445.5 129.5h7v14h-7z"/><path class="highcharts-point highcharts-negative highcharts-color-0" tabindex="-1" aria-label="December, -3.1. Oslo." style="outline:0" d="M489.5 143.5h7v15h-7z"/></g><g class="highcharts-series highcharts-series-1 highcharts-column-series highcharts-color-1 highcharts-tracker" data-z-index=".1" clip-path="url(#a)" aria-hidden="false" tabindex="-1" aria-label="Svalbard, bar series 2 of 3 with 12 bars." style="outline:0" fill="#A3EDBA" transform="translate(66 50)"><path class="highcharts-point highcharts-negative highcharts-color-1" tabindex="-1" aria-label="January, -8.5. Svalbard." style="outline:0" d="M17.5 143.5h7v40h-7z"/><path class="highcharts-point highcharts-negative highcharts-color-1" tabindex="-1" aria-label="February, -7.8. Svalbard." style="outline:0" d="M61.5 143.5h7v37h-7z"/><path class="highcharts-point highcharts-negative highcharts-color-1" tabindex="-1" aria-label="March, -10.8. Svalbard." style="outline:0" d="M105.5 143.5h7v51h-7z"/><path class="highcharts-point highcharts-negative highcharts-color-1" tabindex="-1" aria-label="April, -6.8. Svalbard." style="outline:0" d="M148.5 143.5h7v32h-7z"/><path class="highcharts-point highcharts-negative highcharts-color-1" tabindex="-1" aria-label="May, -4. Svalbard." style="outline:0" d="M192.5 143.5h7v19h-7z"/><path class="highcharts-point highcharts-color-1" tabindex="-1" aria-label="June, 3.7. Svalbard." style="outline:0" d="M236.5 125.5h7v18h-7z"/><path class="highcharts-point highcharts-color-1" tabindex="-1" aria-label="July, 6.7. Svalbard." style="outline:0" d="M279.5 111.5h7v32h-7z"/><path class="highcharts-point highcharts-color-1" tabindex="-1" aria-label="August, 6.4. Svalbard." style="outline:0" d="M323.5 112.5h7v31h-7z"/><path class="highcharts-point highcharts-color-1" tabindex="-1" aria-label="September, 3.5. Svalbard." style="outline:0" d="M367.5 126.5h7v17h-7z"/><path class="highcharts-point highcharts-negative highcharts-color-1" tabindex="-1" aria-label="October, -3.7. Svalbard." style="outline:0" d="M410.5 143.5h7v17h-7z"/><path class="highcharts-point highcharts-negative highcharts-color-1" tabindex="-1" aria-label="November, -10.6. Svalbard." style="outline:0" d="M454.5 143.5h7v50h-7z"/><path class="highcharts-point highcharts-negative highcharts-color-1" tabindex="-1" aria-label="December, -7.7. Svalbard." style="outline:0" d="M498.5 143.5h7v36h-7z"/></g><g class="highcharts-series highcharts-series-2 highcharts-column-series highcharts-color-2 highcharts-tracker" data-z-index=".1" clip-path="url(#a)" aria-hidden="false" tabindex="-1" aria-label="Trondheim, bar series 3 of 3 with 12 bars." style="outline:0" fill="#F19E53" transform="translate(66 50)"><path class="highcharts-point highcharts-negative highcharts-color-2" tabindex="-1" aria-label="January, -6.2. Trondheim." style="outline:0" d="M26.5 143.5h7v29h-7z"/><path class="highcharts-point highcharts-negative highcharts-color-2" tabindex="-1" aria-label="February, -4.6. Trondheim." style="outline:0" d="M70.5 143.5h7v22h-7z"/><path class="highcharts-point highcharts-color-2" tabindex="-1" aria-label="March, 1.7. Trondheim." style="outline:0" d="M113.5 135.5h7v8h-7z"/><path class="highcharts-point highcharts-color-2" tabindex="-1" aria-label="April, 2.3. Trondheim." style="outline:0" d="M157.5 132.5h7v11h-7z"/><path class="highcharts-point highcharts-color-2" tabindex="-1" aria-label="May, 8.1. Trondheim." style="outline:0" d="M201.5 104.5h7v39h-7z"/><path class="highcharts-point highcharts-color-2" tabindex="-1" aria-label="June, 13.2. Trondheim." style="outline:0" d="M244.5 80.5h7v63h-7z"/><path class="highcharts-point highcharts-color-2" tabindex="-1" aria-label="July, 16.3. Trondheim." style="outline:0" d="M288.5 65.5h7v78h-7z"/><path class="highcharts-point highcharts-color-2" tabindex="-1" aria-label="August, 12.1. Trondheim." style="outline:0" d="M332.5 85.5h7v58h-7z"/><path class="highcharts-point highcharts-color-2" tabindex="-1" aria-label="September, 9.9. Trondheim." style="outline:0" d="M375.5 96.5h7v47h-7z"/><path class="highcharts-point highcharts-color-2" tabindex="-1" aria-label="October, 7. Trondheim." style="outline:0" d="M419.5 109.5h7v34h-7z"/><path class="highcharts-point highcharts-color-2" tabindex="-1" aria-label="November, 0.5. Trondheim." style="outline:0" d="M463.5 140.5h7v3h-7z"/><path class="highcharts-point highcharts-negative highcharts-color-2" tabindex="-1" aria-label="December, -2.9. Trondheim." style="outline:0" d="M506.5 143.5h7v14h-7z"/></g></g><text x="300" text-anchor="middle" class="highcharts-title" data-z-index="4" style="color:#2f2b38;font-size:22px;font-weight:500;fill:#2f2b38" y="27" aria-hidden="true">Average temperature, 2021</text><g class="highcharts-legend highcharts-no-tooltip" data-z-index="7" transform="translate(176 359)" aria-hidden="true"><rect fill="#f0f0f0" class="highcharts-legend-box" rx="2" ry="2" stroke="#BBBAC5" x=".5" y=".5" width="246" height="25"/><g data-z-index="1"><g class="highcharts-legend-item highcharts-column-series highcharts-color-0 highcharts-series-0" data-z-index="1" transform="translate(8 3)"><text x="21" data-z-index="2" y="15" style="color:#2f2b38;cursor:pointer;font-size:12px;font-weight:400;fill:#2f2b38">Oslo</text><rect x="2" y="4" width="12" height="12" fill="#8087E8" rx="6" ry="6" class="highcharts-point" data-z-index="3"/></g><g class="highcharts-legend-item highcharts-column-series highcharts-color-1 highcharts-series-1" data-z-index="1" transform="translate(73.68 3)"><text x="21" y="15" data-z-index="2" style="color:#2f2b38;cursor:pointer;font-size:12px;font-weight:400;fill:#2f2b38">Svalbard</text><rect x="2" y="4" width="12" height="12" fill="#A3EDBA" rx="6" ry="6" class="highcharts-point" data-z-index="3"/></g><g class="highcharts-legend-item highcharts-column-series highcharts-color-2 highcharts-series-2" data-z-index="1" transform="translate(162.047 3)"><text x="21" y="15" data-z-index="2" style="color:#2f2b38;cursor:pointer;font-size:12px;font-weight:400;fill:#2f2b38">Trondheim</text><rect x="2" y="4" width="12" height="12" fill="#F19E53" rx="6" ry="6" class="highcharts-point" data-z-index="3"/></g></g></g><g class="highcharts-axis-labels highcharts-xaxis-labels" data-z-index="7" aria-hidden="true" text-anchor="end"><text x="90.662" transform="rotate(-45 90.662 304)" style="color:#46465c;cursor:default;font-size:12px;fill:#46465c" y="304">January</text><text x="134.328" transform="rotate(-45 134.328 304)" style="color:#46465c;cursor:default;font-size:12px;fill:#46465c" y="304">February</text><text x="177.995" transform="rotate(-45 177.995 304)" style="color:#46465c;cursor:default;font-size:12px;fill:#46465c" y="304">March</text><text x="221.662" transform="rotate(-45 221.662 304)" style="color:#46465c;cursor:default;font-size:12px;fill:#46465c" y="304">April</text><text x="265.328" transform="rotate(-45 265.328 304)" style="color:#46465c;cursor:default;font-size:12px;fill:#46465c" y="304">May</text><text x="308.995" transform="rotate(-45 308.995 304)" style="color:#46465c;cursor:default;font-size:12px;fill:#46465c" y="304">June</text><text x="352.662" transform="rotate(-45 352.662 304)" style="color:#46465c;cursor:default;font-size:12px;fill:#46465c" y="304">July</text><text x="396.328" transform="rotate(-45 396.328 304)" style="color:#46465c;cursor:default;font-size:12px;fill:#46465c" y="304">August</text><text x="439.995" transform="rotate(-45 439.995 304)" style="color:#46465c;cursor:default;font-size:12px;fill:#46465c" y="304">September</text><text x="483.662" transform="rotate(-45 483.662 304)" style="color:#46465c;cursor:default;font-size:12px;fill:#46465c" y="304">October</text><text x="527.328" transform="rotate(-45 527.328 304)" style="color:#46465c;cursor:default;font-size:12px;fill:#46465c" y="304">November</text><text x="570.995" transform="rotate(-45 570.995 304)" style="color:#46465c;cursor:default;font-size:12px;fill:#46465c" y="304">December</text></g><g class="highcharts-axis-labels highcharts-yaxis-labels" data-z-index="7" aria-hidden="true" text-anchor="end"><text x="51" style="color:#46465c;cursor:default;font-size:12px;fill:#46465c" y="293">-20</text><text x="51" style="color:#46465c;cursor:default;font-size:12px;fill:#46465c" y="246">-10</text><text x="51" style="color:#46465c;cursor:default;font-size:12px;fill:#46465c" y="198">0</text><text x="51" style="color:#46465c;cursor:default;font-size:12px;fill:#46465c" y="150">10</text><text x="51" style="color:#46465c;cursor:default;font-size:12px;fill:#46465c" y="103">20</text><text x="51" style="color:#46465c;cursor:default;font-size:12px;fill:#46465c" y="55">30</text></g></svg>