<svg class="highcharts-root" style="font-family:&quot;IBM Plex Sans&quot;,sans-serif;font-size:12px" xmlns="http://www.w3.org/2000/svg" width="600" height="500" aria-label="Interactive chart" aria-hidden="false"><defs aria-hidden="true"><path fill="none" d="M291.553.88a216.625 216.625 0 0 1 49.012 5.98" id="b"/><path fill="none" d="M349.785 9.288a216.625 216.625 0 0 1 71.56 35.948" id="c"/><path fill="none" d="M428.798 51.183a216.625 216.625 0 0 1 60.46 81.33" id="d"/><path fill="none" d="M492.805 141.364a216.625 216.625 0 0 1 13.443 63.36" id="e"/><path fill="none" d="M484.28 313.32a216.625 216.625 0 0 0 22.317-99.285" id="f"/><path fill="none" d="M419.264 391.33a216.625 216.625 0 0 0 32.211-29.427" id="g"/><path fill="none" d="M373.487 417.39a216.625 216.625 0 0 0 38.361-20.783" id="h"/><path fill="none" d="M294.943 434.069a216.625 216.625 0 0 0 70.074-13.348" id="i"/><path fill="none" d="M207.038 417.61a216.625 216.625 0 0 0 78.804 16.475" id="j"/><path fill="none" d="M122.963 355.432a216.625 216.625 0 0 0 75.743 58.516" id="k"/><path fill="none" d="M74.508 239.631a216.625 216.625 0 0 0 40.951 106.173" id="l"/><path fill="none" d="M73.756 230.344a216.625 216.625 0 0 1 5.869-64.504" id="m"/><path fill="none" d="M82.102 156.633a216.625 216.625 0 0 1 73.31-108.875" id="n"/><path fill="none" d="M163.011 42a216.625 216.625 0 0 1 23.452-14.78" id="o"/><path fill="none" d="M194.936 22.849a216.625 216.625 0 0 1 83.412-21.66" id="p"/><clipPath id="a"><path fill="none" d="M0 0h580v435H0z"/></clipPath></defs><rect fill="#f0f0f0" class="highcharts-background" width="600" height="500" rx="0" ry="0" aria-hidden="true"/><path fill="none" class="highcharts-plot-background" aria-hidden="true" d="M10 50h580v435H10z"/><path fill="none" class="highcharts-plot-border" data-z-index="1" aria-hidden="true" d="M10 50h580v435H10z"/><g class="highcharts-series-group" data-z-index="3" aria-hidden="false"><g class="highcharts-series highcharts-series-0 highcharts-dependencywheel-series highcharts-tracker" data-z-index=".1" clip-path="url(#a)" aria-hidden="false" transform="translate(10 50)"><path fill="rgba(128,135,232,0.5)" d="M310.03 30.947a186.625 186.625 0 0 1 23.056 3.942c-1.239 5.25 7.207 7.457 8.696 2.273a186.625 186.625 0 0 1 22.035 7.844c-13.172 30.779-57.36 19.229-53.786-14.059" class="highcharts-link highcharts-point highcharts-color-0" tabindex="-1" aria-label="1. From Brazil to Portugal: 5. Dependency wheel series." style="outline:0"/><path fill="rgba(128,135,232,0.5)" d="M305.37 30.506a186.625 186.625 0 0 1 4.66.441c-7.072 65.87 57.74 93.365 100.187 42.501a186.625 186.625 0 0 1 3.556 3.044c-47.409 54.01-114.29 25.638-108.402-45.986" class="highcharts-link highcharts-point highcharts-color-1" tabindex="-1" aria-label="2. From Brazil to France: 1. Dependency wheel series." style="outline:0"/><path fill="rgba(128,135,232,0.5)" d="M300.701 30.18a186.625 186.625 0 0 1 4.67.326c-9.223 112.196 54.89 160.617 160.284 121.05a186.625 186.625 0 0 1 1.59 4.403C360.898 192.883 294.281 142.572 300.701 30.18" class="highcharts-link highcharts-point highcharts-color-2" tabindex="-1" aria-label="3. From Brazil to Spain: 1. Dependency wheel series." style="outline:0"/><path fill="rgba(128,135,232,0.5)" d="M296.025 29.972a186.625 186.625 0 0 1 4.676.208c-6.42 112.392 64.34 186.195 176.903 184.507a186.625 186.625 0 0 1 .012 4.68c-112.57-1.12-185.206-76.878-181.59-189.395" class="highcharts-link highcharts-point highcharts-color-3" tabindex="-1" aria-label="4. From Brazil to England: 1. Dependency wheel series." style="outline:0"/><path fill="rgba(135,180,231,0.5)" d="M437.914 332.932a186.625 186.625 0 0 1-2.926 3.654c-86.993-71.452-100.925-179.84-34.831-270.97a186.625 186.625 0 0 1 3.754 2.795c-68.347 89.454-54.745 195.262 34.003 264.521" class="highcharts-link highcharts-point highcharts-color-4" tabindex="-1" aria-label="5. From Canada to Portugal: 1. Dependency wheel series." style="outline:0"/><path fill="rgba(135,180,231,0.5)" d="M450.88 314.046a186.625 186.625 0 0 1-13.263 19.266c-88.57-69.487-82.746-153.551 14.56-210.16a186.625 186.625 0 0 1 10.48 20.911c-97.654 41.536-102.77 115.377-11.778 169.983" class="highcharts-link highcharts-point highcharts-color-5" tabindex="-1" aria-label="6. From Canada to France: 5. Dependency wheel series." style="outline:0"/><path fill="rgba(135,180,231,0.5)" d="M453.237 310.002a186.625 186.625 0 0 1-2.358 4.044c-10.353-6.213-1.548-22.846 9.41-17.777a186.625 186.625 0 0 1-2.017 4.224c-5.791-2.857-10.652 6.326-5.035 9.51" class="highcharts-link highcharts-point highcharts-color-6" tabindex="-1" aria-label="7. From Canada to England: 1. Dependency wheel series." style="outline:0"/><path fill="rgba(218,109,133,0.5)" d="M405.852 365.086a186.625 186.625 0 0 1-3.718 2.844c-67.28-90.258-69.514-212.204-5.583-304.865a186.625 186.625 0 0 1 3.82 2.706c-66.223 91.038-64.03 210.763 5.48 299.315" class="highcharts-link highcharts-point highcharts-color-7" tabindex="-1" aria-label="8. From Mexico to Portugal: 1. Dependency wheel series." style="outline:0"/><path fill="rgba(218,109,133,0.5)" d="M409.497 362.15a186.625 186.625 0 0 1-3.645 2.936c-69.511-88.552-51.91-186.879 44.003-245.818a186.625 186.625 0 0 1 2.4 4.019C354.903 179.815 337.8 275.36 409.498 362.15" class="highcharts-link highcharts-point highcharts-color-0" tabindex="-1" aria-label="9. From Mexico to France: 1. Dependency wheel series." style="outline:0"/><path fill="rgba(218,109,133,0.5)" d="M426.566 346.158a186.625 186.625 0 0 1-17.069 15.992c-71.698-86.79-45.72-158.418 64.944-179.07a186.625 186.625 0 0 1 2.85 23.215c-91.624 5.482-117.534 76.923-50.725 139.863" class="highcharts-link highcharts-point highcharts-color-1" tabindex="-1" aria-label="10. From Mexico to Spain: 5. Dependency wheel series." style="outline:0"/><path fill="rgba(218,109,133,0.5)" d="M429.733 342.711a186.625 186.625 0 0 1-3.167 3.447c-28.389-26.745-.21-69.535 35.574-54.019a186.625 186.625 0 0 1-1.916 4.271c-30.29-14.041-55.355 24.021-30.491 46.301" class="highcharts-link highcharts-point highcharts-color-2" tabindex="-1" aria-label="11. From Mexico to England: 1. Dependency wheel series." style="outline:0"/><path fill="rgba(187,186,197,0.5)" d="M366.806 388.684a186.625 186.625 0 0 1-4.295 1.863c-43.506-103.828-31.445-235.865 30.154-330.092a186.625 186.625 0 0 1 3.886 2.61c-63.93 92.661-75.829 222.909-29.745 325.62" class="highcharts-link highcharts-point highcharts-color-3" tabindex="-1" aria-label="12. From USA to Portugal: 1. Dependency wheel series." style="outline:0"/><path fill="rgba(187,186,197,0.5)" d="M371.052 386.715a186.625 186.625 0 0 1-4.246 1.97c-46.084-102.711-13.864-212.06 80.549-273.374a186.625 186.625 0 0 1 2.5 3.957c-95.913 58.94-127.434 165.918-78.803 267.447" class="highcharts-link highcharts-point highcharts-color-4" tabindex="-1" aria-label="13. From USA to France: 1. Dependency wheel series." style="outline:0"/><path fill="rgba(187,186,197,0.5)" d="M375.248 384.64a186.625 186.625 0 0 1-4.196 2.075c-48.631-101.529-7.642-184.82 102.473-208.225a186.625 186.625 0 0 1 .916 4.59c-110.665 20.652-150.342 101.276-99.193 201.56" class="highcharts-link highcharts-point highcharts-color-5" tabindex="-1" aria-label="14. From USA to Spain: 1. Dependency wheel series." style="outline:0"/><path fill="rgba(187,186,197,0.5)" d="M395.381 372.735a186.625 186.625 0 0 1-20.133 11.905c-41.674-81.708 6.803-140.233 94.84-114.498a186.625 186.625 0 0 1-7.948 21.997c-58.384-25.315-102.5 27.945-66.759 80.596" class="highcharts-link highcharts-point highcharts-color-6" tabindex="-1" aria-label="15. From USA to England: 5. Dependency wheel series." style="outline:0"/><path fill="rgba(163,237,186,0.5)" d="M384.705 55.53a186.625 186.625 0 0 1 7.96 4.925c-61.599 94.227-80.29 228.682-46.73 336.138a186.625 186.625 0 0 1-9.002 2.567c-28.16-108.996-9.051-246.448 47.772-343.63" class="highcharts-link highcharts-point highcharts-color-7" tabindex="-1" aria-label="16. From Portugal to Angola: 2. Dependency wheel series." style="outline:0"/><path fill="rgba(163,237,186,0.5)" d="M380.635 53.218a186.625 186.625 0 0 1 4.07 2.312C327.882 152.712 279.16 291.763 262.9 403.158a186.625 186.625 0 0 1-4.623-.734C277.31 291.47 326.253 151.787 380.634 53.218" class="highcharts-link highcharts-point highcharts-color-0" tabindex="-1" aria-label="17. From Portugal to Senegal: 1. Dependency wheel series." style="outline:0"/><path fill="rgba(163,237,186,0.5)" d="M376.508 51.008a186.625 186.625 0 0 1 4.127 2.21c-54.381 98.57-135.19 224.675-202.024 315.265a186.625 186.625 0 0 1-3.731-2.826c69.072-88.894 149.723-214.754 201.628-314.649" class="highcharts-link highcharts-point highcharts-color-1" tabindex="-1" aria-label="18. From Portugal to Morocco: 1. Dependency wheel series." style="outline:0"/><path fill="rgba(163,237,186,0.5)" d="M363.817 45.006a186.625 186.625 0 0 1 12.691 6.002c-51.905 99.895-155.387 196.294-258.705 240.998a186.625 186.625 0 0 1-5.09-13.085C219.085 242.07 319.527 148.502 363.817 45.006" class="highcharts-link highcharts-point highcharts-color-2" tabindex="-1" aria-label="19. From Portugal to South Africa: 3. Dependency wheel series." style="outline:0"/><path fill="rgba(241,158,83,0.5)" d="M444.757 111.418a186.625 186.625 0 0 1 2.598 3.893c-94.413 61.313-133.2 173.246-96.97 279.831a186.625 186.625 0 0 1-4.45 1.451c-33.56-107.456 5.968-221.526 98.822-285.175" class="highcharts-link highcharts-point highcharts-color-3" tabindex="-1" aria-label="20. From France to Angola: 1. Dependency wheel series." style="outline:0"/><path fill="rgba(241,158,83,0.5)" d="M436.391 100.143a186.625 186.625 0 0 1 8.366 11.275c-92.854 63.649-160.013 180.948-167.897 293.246a186.625 186.625 0 0 1-13.959-1.506c16.26-111.395 85.655-232.601 173.49-303.015" class="highcharts-link highcharts-point highcharts-color-4" tabindex="-1" aria-label="21. From France to Senegal: 3. Dependency wheel series." style="outline:0"/><path fill="rgba(241,158,83,0.5)" d="M413.773 76.492a186.625 186.625 0 0 1 10.198 9.65c-80.383 78.815-208.889 135.808-321.266 142.482a186.625 186.625 0 0 1-.307-14.036c112.561 1.747 237.111-53.491 311.375-138.096" class="highcharts-link highcharts-point highcharts-color-5" tabindex="-1" aria-label="22. From France to Mali: 3. Dependency wheel series." style="outline:0"/><path fill="rgba(241,158,83,0.5)" d="M427.206 89.525a186.625 186.625 0 0 1 9.185 10.618c-87.835 70.414-186.306 180.913-246.178 276.246a186.625 186.625 0 0 1-11.602-7.906c66.834-90.59 166.271-202.173 248.595-278.958" class="highcharts-link highcharts-point highcharts-color-6" tabindex="-1" aria-label="23. From France to Morocco: 3. Dependency wheel series." style="outline:0"/><path fill="rgba(241,158,83,0.5)" d="M423.97 86.142a186.625 186.625 0 0 1 3.236 3.383c-82.324 76.785-205.32 159.486-307.491 206.754a186.625 186.625 0 0 1-1.912-4.273C221.12 247.302 343.588 164.956 423.97 86.142" class="highcharts-link highcharts-point highcharts-color-7" tabindex="-1" aria-label="24. From France to South Africa: 1. Dependency wheel series." style="outline:0"/><path fill="rgba(102,153,161,0.5)" d="M472.494 173.924a186.625 186.625 0 0 1 1.03 4.566c-110.114 23.406-186.91 113.984-191.991 226.444a186.625 186.625 0 0 1-4.673-.27c7.884-112.298 86.138-204.595 195.634-230.74" class="highcharts-link highcharts-point highcharts-color-0" tabindex="-1" aria-label="25. From Spain to Senegal: 1. Dependency wheel series." style="outline:0"/><path fill="rgba(102,153,161,0.5)" d="M468.725 160.4a186.625 186.625 0 0 1 3.77 13.524c-109.497 26.145-217.546 109.938-270.122 209.482a186.625 186.625 0 0 1-12.16-7.017c59.872-95.333 171.277-181.73 278.512-215.99" class="highcharts-link highcharts-point highcharts-color-1" tabindex="-1" aria-label="26. From Spain to Morocco: 3. Dependency wheel series." style="outline:0"/><path fill="rgba(102,153,161,0.5)" d="M467.245 155.959a186.625 186.625 0 0 1 1.48 4.44c-107.235 34.26-246.032 90.302-346.992 140.103a186.625 186.625 0 0 1-2.018-4.223c102.17-47.268 241.183-103.396 347.53-140.32" class="highcharts-link highcharts-point highcharts-color-2" tabindex="-1" aria-label="27. From Spain to South Africa: 1. Dependency wheel series." style="outline:0"/><path fill="rgba(225,211,105,0.5)" d="M471.346 265.633a186.625 186.625 0 0 1-1.257 4.509c-100.899-29.494-151.595 24.785-115.29 123.438a186.625 186.625 0 0 1-4.413 1.562c-35.64-104.846 13.928-157.918 120.96-129.51" class="highcharts-link highcharts-point highcharts-color-3" tabindex="-1" aria-label="28. From England to Angola: 1. Dependency wheel series." style="outline:0"/><path fill="rgba(225,211,105,0.5)" d="M472.49 261.094a186.625 186.625 0 0 1-1.144 4.539c-108.808-28.88-182.862 26.902-185.135 139.454a186.625 186.625 0 0 1-4.678-.153c5.08-112.46 81.463-169.996 190.957-143.84" class="highcharts-link highcharts-point highcharts-color-4" tabindex="-1" aria-label="29. From England to Senegal: 1. Dependency wheel series." style="outline:0"/><path fill="rgba(225,211,105,0.5)" d="M474.437 251.938a186.625 186.625 0 0 1-1.947 9.156c-109.494-26.156-214.187 24.434-261.733 126.476a186.625 186.625 0 0 1-8.384-4.164c52.576-99.544 161.402-152.13 272.064-131.468" class="highcharts-link highcharts-point highcharts-color-5" tabindex="-1" aria-label="30. From England to Morocco: 2. Dependency wheel series." style="outline:0"/><path fill="rgba(225,211,105,0.5)" d="M477.616 219.367a186.625 186.625 0 0 1-3.179 32.57c-110.662-20.662-244.951 9.954-335.723 76.54a186.625 186.625 0 0 1-16.981-27.975c100.96-49.801 243.313-82.255 355.883-81.135" class="highcharts-link highcharts-point highcharts-color-6" tabindex="-1" aria-label="31. From England to South Africa: 7. Dependency wheel series." style="outline:0"/><path fill="rgba(102,153,161,0.5)" d="M107.476 260.953a186.625 186.625 0 0 1-3.988-23.047c58.027-6.349 67.95-71.874 14.404-95.119a186.625 186.625 0 0 1 10.633-20.833c74.41 44.029 63.06 118.975-21.049 139" class="highcharts-link highcharts-point highcharts-color-7" tabindex="-1" aria-label="32. From South Africa to China: 5. Dependency wheel series." style="outline:0"/><path fill="rgba(102,153,161,0.5)" d="M108.617 265.493a186.625 186.625 0 0 1-1.14-4.54c109.513-26.072 140.058-105.334 76.36-198.155a186.625 186.625 0 0 1 3.893-2.6c61.362 94.381 29.717 176.5-79.113 205.295" class="highcharts-link highcharts-point highcharts-color-0" tabindex="-1" aria-label="33. From South Africa to India: 1. Dependency wheel series." style="outline:0"/><path fill="rgba(102,153,161,0.5)" d="M112.713 278.921a186.625 186.625 0 0 1-4.096-13.428C217.447 236.697 262.2 147.789 220.499 43.222a186.625 186.625 0 0 1 13.227-4.709c33.764 107.392-14.64 203.556-121.013 240.408" class="highcharts-link highcharts-point highcharts-color-1" tabindex="-1" aria-label="34. From South Africa to Japan: 3. Dependency wheel series." style="outline:0"/><path fill="rgba(128,135,232,0.5)" d="M318.601 402.932a186.625 186.625 0 0 1-23.293 2.118c-3.185-112.53-58.838-240.152-139.134-319.056a186.625 186.625 0 0 1 17.402-15.629c69.854 88.281 127.864 221.308 145.025 332.567" class="highcharts-link highcharts-point highcharts-color-2" tabindex="-1" aria-label="35. From Angola to China: 5. Dependency wheel series." style="outline:0"/><path fill="rgba(128,135,232,0.5)" d="M323.218 402.161a186.625 186.625 0 0 1-4.617.771c-17.16-111.26-66.32-250.315-122.898-347.64a186.625 186.625 0 0 1 4.075-2.3c54.133 98.704 103.51 238.372 123.44 349.169" class="highcharts-link highcharts-point highcharts-color-3" tabindex="-1" aria-label="36. From Angola to India: 1. Dependency wheel series." style="outline:0"/><path fill="rgba(128,135,232,0.5)" d="M336.933 399.16a186.625 186.625 0 0 1-13.715 3.001c-19.93-110.797-44.799-258.812-62.17-370.039a186.625 186.625 0 0 1 13.943-1.646c9.005 112.215 33.782 259.688 61.942 368.684" class="highcharts-link highcharts-point highcharts-color-4" tabindex="-1" aria-label="37. From Angola to Japan: 3. Dependency wheel series." style="outline:0"/><path fill="rgba(163,237,186,0.5)" d="M240.267 398.414a186.625 186.625 0 0 1-22.123-7.594c43.114-103.992 12.523-219.278-76.477-288.214a186.625 186.625 0 0 1 15.448-17.563c79.731 79.474 112.992 204.822 83.152 313.37" class="highcharts-link highcharts-point highcharts-color-5" tabindex="-1" aria-label="38. From Senegal to China: 5. Dependency wheel series." style="outline:0"/><path fill="rgba(163,237,186,0.5)" d="M244.54 399.534a186.625 186.625 0 0 1-4.528-1.19c29.993-108.507 10.662-244.766-48.327-340.648a186.625 186.625 0 0 1 4.018-2.403c56.578 97.324 76.113 235.02 48.836 344.241" class="highcharts-link highcharts-point highcharts-color-6" tabindex="-1" aria-label="39. From Senegal to India: 1. Dependency wheel series." style="outline:0"/><path fill="rgba(163,237,186,0.5)" d="M258.278 402.424a186.625 186.625 0 0 1-13.739-2.89c27.277-109.22 28.368-255.112 2.728-364.728a186.625 186.625 0 0 1 13.78-2.684c17.372 111.227 16.264 259.348-2.769 370.302" class="highcharts-link highcharts-point highcharts-color-7" tabindex="-1" aria-label="40. From Senegal to Japan: 3. Dependency wheel series." style="outline:0"/><path fill="rgba(225,211,105,0.5)" d="M103.621 195.912a186.625 186.625 0 0 1 4.134-23.021c4.894 1.198 7.014-6.694 2.179-8.11a186.625 186.625 0 0 1 7.958-21.994c30.385 13.19 18.634 56.936-14.27 53.125" class="highcharts-link highcharts-point highcharts-color-0" tabindex="-1" aria-label="41. From Mali to China: 5. Dependency wheel series." style="outline:0"/><path fill="rgba(225,211,105,0.5)" d="M103.14 200.568a186.625 186.625 0 0 1 .481-4.656c92.716 10.74 131.105-54.8 76.39-130.417a186.625 186.625 0 0 1 3.826-2.697c55.99 81.59 17.853 146.7-80.696 137.77" class="highcharts-link highcharts-point highcharts-color-1" tabindex="-1" aria-label="42. From Mali to India: 1. Dependency wheel series." style="outline:0"/><path fill="rgba(225,211,105,0.5)" d="M102.398 214.588a186.625 186.625 0 0 1 .743-14.02c112.115 10.16 153.924-50.505 104.521-151.661a186.625 186.625 0 0 1 12.837-5.685c41.7 104.567-5.54 173.113-118.101 171.366" class="highcharts-link highcharts-point highcharts-color-2" tabindex="-1" aria-label="43. From Mali to Japan: 3. Dependency wheel series." style="outline:0"/><path fill="rgba(241,158,83,0.5)" d="M161.313 354.038a186.625 186.625 0 0 1-15.988-17.072c86.805-71.68 80.085-157.684-16.8-215.012a186.625 186.625 0 0 1 13.142-19.348c89 68.936 96.858 169.51 19.646 251.432" class="highcharts-link highcharts-point highcharts-color-3" tabindex="-1" aria-label="44. From Morocco to China: 5. Dependency wheel series." style="outline:0"/><path fill="rgba(241,158,83,0.5)" d="M164.124 356.634a186.625 186.625 0 0 1-3.432-3.183c77.585-81.57 88.4-198.872 27.038-293.253a186.625 186.625 0 0 1 3.955-2.502c58.99 95.882 47.964 215.458-27.561 298.938" class="highcharts-link highcharts-point highcharts-color-4" tabindex="-1" aria-label="45. From Morocco to India: 1. Dependency wheel series." style="outline:0"/><path fill="rgba(241,158,83,0.5)" d="M174.88 365.657a186.625 186.625 0 0 1-10.756-9.023c75.525-83.48 103.366-210.729 69.602-318.121a186.625 186.625 0 0 1 13.541-3.707c25.64 109.616-3.315 241.957-72.387 330.85" class="highcharts-link highcharts-point highcharts-color-5" tabindex="-1" aria-label="46. From Morocco to Japan: 3. Dependency wheel series." style="outline:0"/><path fill="rgba(187,186,197,0.5)" d="M274.99 30.476a186.625 186.625 0 0 1 4.67-.316c.387 7.003 11.635 6.733 11.685-.28a186.625 186.625 0 0 1 4.68.092c-.406 12.624-20.024 13.095-21.034.504" class="highcharts-link highcharts-point highcharts-color-6" tabindex="-1" aria-label="47. From Japan to Brazil: 1. Dependency wheel series." style="outline:0"/><path fill="#8087E8" d="M291.481 11.38a206.625 206.625 0 0 1 46.75 5.703l-4.668 19.447a186.625 186.625 0 0 0-42.225-5.15Z" stroke="#BBBAC5" class="highcharts-node highcharts-point highcharts-color-0"/><path fill="#A3EDBA" d="M347.025 19.4a206.625 206.625 0 0 1 68.257 34.288l-12.126 15.905a186.625 186.625 0 0 0-61.65-30.97Z" stroke="#BBBAC5" class="highcharts-node highcharts-point highcharts-color-1"/><path fill="#F19E53" d="M422.391 59.36a206.625 206.625 0 0 1 57.669 77.577l-18.397 7.846a186.625 186.625 0 0 0-52.087-70.067Z" stroke="#BBBAC5" class="highcharts-node highcharts-point highcharts-color-2"/><path fill="#6699A1" d="M483.443 145.378a206.625 206.625 0 0 1 12.822 60.435l-19.965 1.18a186.625 186.625 0 0 0-11.582-54.585Z" stroke="#BBBAC5" class="highcharts-node highcharts-point highcharts-color-3"/><path fill="#E1D369" d="M496.602 214.902a206.625 206.625 0 0 1-21.199 94.31l-17.946-8.83a186.625 186.625 0 0 0 19.147-85.18Z" stroke="#BBBAC5" class="highcharts-node highcharts-point highcharts-color-4"/><path fill="#87B4E7" d="M469.768 319.87a206.625 206.625 0 0 1-19.966 29.116l-15.468-12.679a186.625 186.625 0 0 0 18.033-26.298Z" stroke="#BBBAC5" class="highcharts-node highcharts-point highcharts-color-5"/><path fill="#DA6D85" d="M443.883 355.89a206.625 206.625 0 0 1-30.42 27.793l-11.95-16.037a186.625 186.625 0 0 0 27.475-25.102Z" stroke="#BBBAC5" class="highcharts-node highcharts-point highcharts-color-6"/><path fill="#BBBAC5" d="M406.053 388.955a206.625 206.625 0 0 1-36.23 19.629l-7.726-18.448a186.625 186.625 0 0 0 32.722-17.728Z" stroke="#BBBAC5" class="highcharts-node highcharts-point highcharts-color-7"/><path fill="#8087E8" d="M361.36 411.911a206.625 206.625 0 0 1-66.438 12.655l-.477-19.994a186.625 186.625 0 0 0 60.008-11.43Z" stroke="#BBBAC5" class="highcharts-node highcharts-point highcharts-color-0"/><path fill="#A3EDBA" d="M285.827 424.583a206.625 206.625 0 0 1-74.768-15.632l7.64-18.483a186.625 186.625 0 0 0 67.532 14.119Z" stroke="#BBBAC5" class="highcharts-node highcharts-point highcharts-color-1"/><path fill="#F19E53" d="M202.733 405.292a206.625 206.625 0 0 1-71.927-55.568l15.409-12.75a186.625 186.625 0 0 0 64.965 50.19Z" stroke="#BBBAC5" class="highcharts-node highcharts-point highcharts-color-2"/><path fill="#6699A1" d="M123.394 340.215a206.625 206.625 0 0 1-38.917-100.9l19.894-2.063a186.625 186.625 0 0 0 35.15 91.133Z" stroke="#BBBAC5" class="highcharts-node highcharts-point highcharts-color-3"/><path fill="#E1D369" d="M83.739 230.251a206.625 206.625 0 0 1 5.597-61.526l19.423 4.77a186.625 186.625 0 0 0-5.056 55.57Z" stroke="#BBBAC5" class="highcharts-node highcharts-point highcharts-color-4"/><path fill="#87B4E7" d="M91.7 159.943a206.625 206.625 0 0 1 69.924-103.85l12.426 15.672a186.625 186.625 0 0 0-63.157 93.797Z" stroke="#BBBAC5" class="highcharts-node highcharts-point highcharts-color-5"/><path fill="#DA6D85" d="M168.873 50.602a206.625 206.625 0 0 1 22.37-14.098l9.558 17.568a186.625 186.625 0 0 0-20.203 12.733Z" stroke="#BBBAC5" class="highcharts-node highcharts-point highcharts-color-6"/><path fill="#BBBAC5" d="M199.324 32.334a206.625 206.625 0 0 1 79.562-20.66l1.076 19.971a186.625 186.625 0 0 0-71.86 18.66Z" stroke="#BBBAC5" class="highcharts-node highcharts-point highcharts-color-7"/></g></g><text x="300" text-anchor="middle" class="highcharts-title" data-z-index="4" style="color:#2f2b38;font-size:22px;font-weight:500;fill:#2f2b38" y="27" aria-hidden="true">Highcharts Dependency Wheel</text><g class="highcharts-data-labels highcharts-series-0 highcharts-dependencywheel-series highcharts-tracker" data-z-index="6" aria-hidden="true"><text data-z-index="1" dy="5" style="color:#333;font-size:13px;font-weight:700;fill:#333" class="highcharts-label highcharts-data-label highcharts-data-label-color-0" transform="translate(10 50)"><textPath startOffset="50%" text-anchor="middle" href="#b">Brazil</textPath></text><text data-z-index="1" dy="5" style="color:#333;font-size:13px;font-weight:700;fill:#333" class="highcharts-label highcharts-data-label highcharts-data-label-color-1" transform="translate(10 50)"><textPath startOffset="50%" text-anchor="middle" href="#c">Portugal</textPath></text><text data-z-index="1" dy="5" style="color:#333;font-size:13px;font-weight:700;fill:#333" class="highcharts-label highcharts-data-label highcharts-data-label-color-2" transform="translate(10 50)"><textPath startOffset="50%" text-anchor="middle" href="#d">France</textPath></text><text data-z-index="1" dy="5" style="color:#333;font-size:13px;font-weight:700;fill:#333" class="highcharts-label highcharts-data-label highcharts-data-label-color-3" transform="translate(10 50)"><textPath startOffset="50%" text-anchor="middle" href="#e">Spain</textPath></text><text data-z-index="1" dy="5" style="color:#333;font-size:13px;font-weight:700;fill:#333" class="highcharts-label highcharts-data-label highcharts-data-label-color-4" transform="translate(10 50)"><textPath startOffset="50%" text-anchor="middle" href="#f">England</textPath></text><text data-z-index="1" dy="5" style="color:#333;font-size:13px;font-weight:700;fill:#333" class="highcharts-label highcharts-data-label highcharts-data-label-color-6" transform="translate(10 50)"><textPath startOffset="50%" text-anchor="middle" href="#g">Mexico</textPath></text><text data-z-index="1" dy="5" style="color:#333;font-size:13px;font-weight:700;fill:#333" class="highcharts-label highcharts-data-label highcharts-data-label-color-7" transform="translate(10 50)"><textPath startOffset="50%" text-anchor="middle" href="#h">USA</textPath></text><text data-z-index="1" dy="5" style="color:#333;font-size:13px;font-weight:700;fill:#333" class="highcharts-label highcharts-data-label highcharts-data-label-color-0" transform="translate(10 50)"><textPath startOffset="50%" text-anchor="middle" href="#i">Angola</textPath></text><text data-z-index="1" dy="5" style="color:#333;font-size:13px;font-weight:700;fill:#333" class="highcharts-label highcharts-data-label highcharts-data-label-color-1" transform="translate(10 50)"><textPath startOffset="50%" text-anchor="middle" href="#j">Senegal</textPath></text><text data-z-index="1" dy="5" style="color:#333;font-size:13px;font-weight:700;fill:#333" class="highcharts-label highcharts-data-label highcharts-data-label-color-2" transform="translate(10 50)"><textPath startOffset="50%" text-anchor="middle" href="#k">Morocco</textPath></text><text data-z-index="1" dy="5" style="color:#333;font-size:13px;font-weight:700;fill:#333" class="highcharts-label highcharts-data-label highcharts-data-label-color-3" transform="translate(10 50)"><textPath startOffset="50%" text-anchor="middle" href="#l">South Africa</textPath></text><text data-z-index="1" dy="5" style="color:#333;font-size:13px;font-weight:700;fill:#333" class="highcharts-label highcharts-data-label highcharts-data-label-color-4" transform="translate(10 50)"><textPath startOffset="50%" text-anchor="middle" href="#m">Mali</textPath></text><text data-z-index="1" dy="5" style="color:#333;font-size:13px;font-weight:700;fill:#333" class="highcharts-label highcharts-data-label highcharts-data-label-color-5" transform="translate(10 50)"><textPath startOffset="50%" text-anchor="middle" href="#n">China</textPath></text><text data-z-index="1" dy="5" style="color:#333;font-size:13px;font-weight:700;fill:#333" class="highcharts-label highcharts-data-label highcharts-data-label-color-6" transform="translate(10 50)"><textPath startOffset="50%" text-anchor="middle" href="#o">India</textPath></text><text data-z-index="1" dy="5" style="color:#333;font-size:13px;font-weight:700;fill:#333" class="highcharts-label highcharts-data-label highcharts-data-label-color-7" transform="translate(10 50)"><textPath startOffset="50%" text-anchor="middle" href="#p">Japan</textPath></text></g></svg>