<svg class="highcharts-root" style="font-family:&quot;IBM Plex Sans&quot;,sans-serif;font-size:12px" xmlns="http://www.w3.org/2000/svg" width="600" height="420" aria-label="Interactive chart" aria-hidden="false"><defs aria-hidden="true"><linearGradient x1="56.645" x2="513.355" y1="244.897" y2="244.897" id="g" gradientUnits="userSpaceOnUse"><stop offset="0" stop-color="#4D54B5"/><stop offset=".5" stop-color="#8087E8"/><stop offset="1" stop-color="#4D54B5"/></linearGradient><linearGradient x1="196.273" x2="373.727" y1="250.232" y2="250.232" id="e" gradientUnits="userSpaceOnUse"><stop offset="0" stop-color="#70BA87"/><stop offset=".5" stop-color="#A3EDBA"/><stop offset="1" stop-color="#70BA87"/></linearGradient><linearGradient x1="200.843" x2="369.166" y1="292.749" y2="292.749" id="f" gradientUnits="userSpaceOnUse"><stop offset="0" stop-color="#70BA87"/><stop offset=".5" stop-color="#A3EDBA"/><stop offset="1" stop-color="#70BA87"/></linearGradient><linearGradient x1="201.092" x2="368.917" y1="316.48" y2="316.48" id="d" gradientUnits="userSpaceOnUse"><stop offset="0" stop-color="#BE6B20"/><stop offset=".5" stop-color="#F19E53"/><stop offset="1" stop-color="#BE6B20"/></linearGradient><linearGradient x1="201.23" x2="368.778" y1="328.106" y2="328.106" id="c" gradientUnits="userSpaceOnUse"><stop offset="0" stop-color="#33666E"/><stop offset=".5" stop-color="#6699A1"/><stop offset="1" stop-color="#33666E"/></linearGradient><linearGradient x1="201.298" x2="368.71" y1="338.168" y2="338.168" id="b" gradientUnits="userSpaceOnUse"><stop offset="0" stop-color="#AEA036"/><stop offset=".5" stop-color="#E1D369"/><stop offset="1" stop-color="#AEA036"/></linearGradient><filter id="a"><feComponentTransfer><feFuncA type="table" tableValues="0 1"/></feComponentTransfer></filter></defs><rect fill="#f0f0f0" class="highcharts-background" width="600" height="420" rx="0" ry="0" aria-hidden="true"/><path d="M32.247 390.637h545.506l5.306 11.645H26.941ZM583.04 403.23H25.984l.957-.948h556.118Z" class="highcharts-3d-frame highcharts-3d-frame-bottom" data-z-index="-1000" aria-hidden="true" fill="none"/><g stroke-linejoin="round" class="highcharts-3d-frame highcharts-3d-frame-left" data-z-index="-1000" aria-hidden="true" fill="none"><path d="m24.7 51.756.872.102L20 57.038h-1Z"/><path d="m25.572 51.858 6.675 338.78-5.306 11.644L20 57.038Zm.412 351.372L19 57.038h1l6.94 345.244Z"/></g><path d="M24.7 51.756h559.62l.108.102H25.572Zm.872.102h558.856l-6.675 338.78H32.247Z" class="highcharts-3d-frame highcharts-3d-frame-back" data-z-index="-1000" aria-hidden="true" fill="none"/><path fill="none" class="highcharts-plot-background" aria-hidden="true" d="M20 50h570v355H20z"/><g class="highcharts-grid highcharts-yaxis-grid" data-z-index="1" aria-hidden="true" fill="none"><path data-z-index="1" class="highcharts-grid-line" d="M32.256 391.103h545.488M26.95 402.756l5.306-11.653m-.939-47.668h547.366M25.974 354.2l5.343-10.764m-.927-47.053h549.22m-554.6 9.879 5.38-9.88m-.952-48.322h551.124m-556.541 8.964 5.417-8.964m-.959-48.66H581.52m-558.497 8.036 5.455-8.036m-.965-49h554.974M22.02 157.496l5.493-7.094m-.953-48.372h556.88m-562.412 6.157 5.532-6.158m-.979-49.683H584.42m-564.41 5.19 5.571-5.19"/></g><path fill="none" class="highcharts-plot-border" data-z-index="1" aria-hidden="true" d="M20 50h570v355H20z"/><g class="highcharts-axis highcharts-yaxis" data-z-index="2" aria-hidden="true" fill="none" stroke="#ccc"><path class="highcharts-tick" d="M26.95 402.756h-9.756m8.78-48.557h-9.79m8.826-47.937h-9.824m8.834-49.238h-9.858m8.862-49.588H13.13m8.89-49.941h-9.93m8.938-49.308h-9.964M19.99 56.54h-10"/></g><g class="highcharts-series-group" data-z-index="3" aria-hidden="false"><g class="highcharts-markers highcharts-series-0 highcharts-funnel3d-series highcharts-tracker" data-z-index="10" aria-hidden="false" stroke-linejoin="round" stroke-width="0"><g data-z-index="285100357" stroke="#E1D369" class="highcharts-point highcharts-color-4" tabindex="-1" aria-label="Finalized, 846. Unique users." style="outline:0"><path fill="#AEA036" d="M386.845 364.975c9.612 10.51-20.068 20.913-66.837 22.874-47.08 1.975-91.136-5.445-97.806-16.203-6.432-10.373 24.576-19.939 68.744-21.67 43.896-1.72 86.627 4.861 95.9 14.999" class="highcharts-3d-bottom" data-z-index="0" stroke="none"/><g class="highcharts-funnel3d-lower-group" data-z-index="0" filter="url(#a)" transform="translate(20 50)"/><g class="highcharts-funnel3d-upper-group" data-z-index="2" filter="url(#a)" fill="url(#b)" stroke="none" transform="translate(20 50)"><path d="M202.143 311.851c-6.435-10.204 24.596-19.615 68.794-21.318 43.925-1.692 86.686 4.782 95.965 14.755l-.057 9.687c-9.272-10.138-52.003-16.72-95.899-14.999-44.168 1.731-75.176 11.297-68.744 21.67Z" class="highcharts-3d-backUpper" data-z-index="1"/><path d="M366.902 305.288c9.62 10.34-20.08 20.575-66.883 22.505-47.114 1.942-91.202-5.358-97.876-15.942l.059 9.795c6.67 10.758 50.726 18.178 97.806 16.203 46.77-1.961 76.45-12.365 66.837-22.874Z" class="highcharts-3d-frontUpper" data-z-index="2"/><path d="M368.648 308.55c1.568 10.625-35.89 19.55-83.648 19.55-47.758 0-85.216-8.925-83.648-19.55l.06 9.741c-1.567 10.8 35.865 19.87 83.588 19.87 47.723 0 85.155-9.07 83.589-19.87Z" class="highcharts-3d-rightUpper" data-z-index="2"/></g><path fill="#FAEC82" d="M386.902 355.288c9.62 10.34-20.08 20.575-66.883 22.505-47.114 1.942-91.202-5.358-97.876-15.942-6.435-10.204 24.596-19.615 68.794-21.318 43.925-1.692 86.686 4.782 95.965 14.755" class="highcharts-3d-top" data-z-index="3" stroke="none"/></g><g data-z-index="285100475" stroke="#6699A1" class="highcharts-point highcharts-color-3" tabindex="-1" aria-label="Invoice sent, 976. Unique users." style="outline:0"><path fill="#33666E" d="M386.902 355.288c9.62 10.34-20.08 20.575-66.883 22.505-47.114 1.942-91.202-5.358-97.876-15.942-6.435-10.204 24.596-19.615 68.794-21.318 43.925-1.692 86.686 4.782 95.965 14.755" class="highcharts-3d-bottom" data-z-index="0" stroke="none"/><g class="highcharts-funnel3d-lower-group" data-z-index="0" filter="url(#a)" transform="translate(20 50)"/><g class="highcharts-funnel3d-upper-group" data-z-index="2" filter="url(#a)" fill="url(#c)" stroke="none" transform="translate(20 50)"><path d="M202.076 300.534c-6.44-10.01 24.617-19.24 68.85-20.91 43.96-1.66 86.754 4.69 96.042 14.473l-.066 11.191c-9.28-9.973-52.04-16.447-95.965-14.755-44.198 1.703-75.229 11.114-68.794 21.318Z" class="highcharts-3d-backUpper" data-z-index="1"/><path d="M366.968 294.097c9.63 10.141-20.094 20.182-66.937 22.075-47.153 1.906-91.277-5.256-97.955-15.638l.067 11.317c6.674 10.584 50.762 17.884 97.876 15.942 46.803-1.93 76.503-12.166 66.883-22.505Z" class="highcharts-3d-frontUpper" data-z-index="2"/><path d="M368.715 297.297c1.572 10.422-35.917 19.176-83.715 19.176s-85.287-8.754-83.715-19.176l.067 11.254C199.784 319.175 237.242 328.1 285 328.1c47.758 0 85.216-8.925 83.648-19.55Z" class="highcharts-3d-rightUpper" data-z-index="2"/></g><path fill="#7FB2BA" d="M386.968 344.097c9.63 10.141-20.094 20.182-66.937 22.075-47.153 1.906-91.277-5.256-97.955-15.638-6.44-10.01 24.617-19.24 68.85-20.91 43.96-1.66 86.754 4.69 96.042 14.473" class="highcharts-3d-top" data-z-index="3" stroke="none"/></g><g data-z-index="285100715" stroke="#F19E53" class="highcharts-point highcharts-color-2" tabindex="-1" aria-label="Requested price list, 1,987. Unique users." style="outline:0"><path fill="#BE6B20" d="M386.968 344.097c9.63 10.141-20.094 20.182-66.937 22.075-47.153 1.906-91.277-5.256-97.955-15.638-6.44-10.01 24.617-19.24 68.85-20.91 43.96-1.66 86.754 4.69 96.042 14.473" class="highcharts-3d-bottom" data-z-index="0" stroke="none"/><g class="highcharts-funnel3d-lower-group" data-z-index="0" filter="url(#a)" transform="translate(20 50)"/><g class="highcharts-funnel3d-upper-group" data-z-index="2" filter="url(#a)" fill="url(#d)" stroke="none" transform="translate(20 50)"><path d="M201.938 277.437c-6.447-9.611 24.661-18.474 68.965-20.078 44.03-1.594 86.895 4.504 96.2 13.897l-.135 22.84c-9.288-9.782-52.083-16.133-96.042-14.473-44.233 1.67-75.29 10.901-68.85 20.911Z" class="highcharts-3d-backUpper" data-z-index="1"/><path d="M367.103 271.256c9.648 9.738-20.124 19.38-67.046 21.198-47.235 1.83-91.432-5.047-98.12-15.017l.139 23.097c6.678 10.382 50.802 17.544 97.955 15.638 46.843-1.893 76.567-11.934 66.937-22.075Z" class="highcharts-3d-frontUpper" data-z-index="2"/><path d="M368.854 274.329c1.576 10.007-35.974 18.414-83.854 18.414s-85.43-8.407-83.854-18.414l.139 22.968c-1.572 10.422 35.917 19.176 83.715 19.176s85.287-8.754 83.715-19.176Z" class="highcharts-3d-rightUpper" data-z-index="2"/></g><path fill="#FFB76C" d="M387.103 321.256c9.648 9.738-20.124 19.38-67.046 21.198-47.235 1.83-91.432-5.047-98.12-15.017-6.446-9.611 24.662-18.474 68.966-20.078 44.03-1.594 86.895 4.504 96.2 13.897" class="highcharts-3d-top" data-z-index="3" stroke="none"/></g><g data-z-index="285101205" class="highcharts-point highcharts-color-1" tabindex="-1" aria-label="Downloads, 4,064. Unique users." style="outline:0"><path fill="#70BA87" d="M387.103 321.256c9.648 9.738-20.124 19.38-67.046 21.198-47.235 1.83-91.432-5.047-98.12-15.017-6.446-9.611 24.662-18.474 68.966-20.078 44.03-1.594 86.895 4.504 96.2 13.897" class="highcharts-3d-bottom" data-z-index="0"/><g class="highcharts-funnel3d-upper-group" data-z-index="2" filter="url(#a)" fill="url(#e)" transform="translate(20 50)"><path d="M197.154 230.11c-6.72-9.256 26.204-17.776 72.97-19.316 46.46-1.53 91.738 4.326 101.65 13.36l-4.43 6.185c-9.336-8.692-52.325-14.334-96.481-12.859-44.432 1.484-75.634 9.685-69.172 18.58Z" class="highcharts-3d-backUpper" data-z-index="1"/><path d="M371.774 224.155c10.298 9.386-21.132 18.699-70.824 20.457-50.043 1.77-96.81-4.88-103.796-14.501l4.537 5.949c6.702 9.227 51.033 15.592 98.412 13.898 47.065-1.682 76.923-10.606 67.242-19.619Z" class="highcharts-3d-frontUpper" data-z-index="2"/><path d="M372.846 230.11c-6.985 9.623-53.753 16.272-103.796 14.502-49.692-1.758-81.122-11.07-70.824-20.457l4.43 6.184c-9.682 9.013 20.176 17.937 67.241 19.62 47.38 1.693 91.71-4.672 98.412-13.9Z" class="highcharts-3d-rightUpper" data-z-index="2"/></g><g class="highcharts-funnel3d-lower-group" data-z-index="2" filter="url(#a)" fill="url(#f)" transform="translate(20 50)"><path d="M201.69 236.06c-6.46-8.895 24.741-17.096 69.173-18.58 44.156-1.475 87.145 4.167 96.482 12.86l-.242 40.916c-9.305-9.393-52.17-15.49-96.2-13.897-44.304 1.604-75.412 10.467-68.965 20.078Z" class="highcharts-3d-backLower" data-z-index="1"/><path d="M368.854 274.329c1.576 10.007-35.974 18.414-83.854 18.414s-85.43-8.407-83.854-18.414l-.248-41.146c-1.586 9.262 36.075 17.043 84.102 17.043s85.688-7.781 84.102-17.043Z" class="highcharts-3d-rightLower" data-z-index="1"/><path d="M367.345 230.34c9.68 9.012-20.177 17.936-67.242 19.618-47.38 1.694-91.71-4.671-98.412-13.898l.247 41.377c6.687 9.97 50.884 16.847 98.119 15.017 46.922-1.818 76.694-11.46 67.046-21.198Z" class="highcharts-3d-frontLower" data-z-index="2"/></g><path fill="#BCFFD3" d="M391.774 274.155c10.298 9.386-21.132 18.699-70.824 20.457-50.043 1.77-96.81-4.88-103.796-14.501-6.72-9.257 26.204-17.777 72.97-19.317 46.46-1.53 91.738 4.326 101.65 13.36" class="highcharts-3d-top" data-z-index="3"/></g><g data-z-index="285103095" stroke="#8087E8" class="highcharts-point highcharts-color-0" tabindex="-1" aria-label="Website visits, 15,654. Unique users." style="outline:0"><path fill="#4D54B5" d="M391.774 274.155c10.298 9.386-21.132 18.699-70.824 20.457-50.043 1.77-96.81-4.88-103.796-14.501-6.72-9.257 26.204-17.777 72.97-19.317 46.46-1.53 91.738 4.326 101.65 13.36" class="highcharts-3d-bottom" data-z-index="0" stroke="none"/><g class="highcharts-funnel3d-lower-group" data-z-index="0" filter="url(#a)" transform="translate(20 50)"/><g class="highcharts-funnel3d-upper-group" data-z-index="2" filter="url(#a)" fill="url(#g)" stroke="none" transform="translate(20 50)"><path d="M57.531 47.018c-10.236-14.54 76.588-27.189 191.227-29.404 112.825-2.18 226.005 6.278 256.66 19.95l-133.644 186.59c-9.912-9.034-55.19-14.89-101.65-13.36-46.766 1.54-79.69 10.06-72.97 19.317Z" class="highcharts-3d-backUpper" data-z-index="1"/><path d="M505.418 37.564c33.781 15.067-43.085 30.964-177.07 34.08C191.78 74.817 68.846 63.09 57.53 47.017L197.154 230.11c6.985 9.622 53.753 16.271 103.796 14.5 49.692-1.757 81.122-11.07 70.824-20.456Z" class="highcharts-3d-frontUpper" data-z-index="2"/><path d="M512.469 47.018c-11.315 16.072-134.25 27.8-270.817 24.625-133.985-3.115-210.851-19.012-177.07-34.079l133.644 186.59c-10.298 9.387 21.132 18.7 70.824 20.458 50.043 1.77 96.81-4.88 103.796-14.501Z" class="highcharts-3d-rightUpper" data-z-index="2"/></g><path fill="#99A0FF" d="M525.418 87.564c33.781 15.067-43.085 30.964-177.07 34.08C211.78 124.817 88.846 113.09 77.53 97.017c-10.236-14.54 76.588-27.189 191.227-29.404 112.825-2.18 226.005 6.278 256.66 19.95" class="highcharts-3d-top" data-z-index="3" stroke="none"/></g></g></g><text x="300" text-anchor="middle" class="highcharts-title" data-z-index="4" style="color:#2f2b38;font-size:22px;font-weight:500;fill:#2f2b38" y="27" aria-hidden="true">Highcharts Funnel3D Chart</text><g class="highcharts-data-labels highcharts-series-0 highcharts-funnel3d-series highcharts-tracker" data-z-index="6" aria-hidden="true"><text x="5" data-z-index="1" y="18" style="color:#46465c;font-size:13px;font-weight:700;fill:#46465c" transform="translate(393 260)" class="highcharts-label highcharts-data-label highcharts-data-label-color-0"><tspan class="highcharts-text-outline" fill="#FFF" stroke="#FFF" stroke-width="2" stroke-linejoin="round"><tspan style="font-weight:700">Website visits</tspan> (15 654)<tspan x="5" dy="0">​</tspan></tspan><tspan style="font-weight:700">Website visits</tspan> (15 654)</text><text x="5" data-z-index="1" y="18" style="color:#46465c;font-size:13px;font-weight:700;fill:#46465c" transform="translate(388 307)" class="highcharts-label highcharts-data-label highcharts-data-label-color-1"><tspan class="highcharts-text-outline" fill="#FFF" stroke="#FFF" stroke-width="2" stroke-linejoin="round"><tspan style="font-weight:700">Downloads</tspan> (4 064)<tspan x="5" dy="0">​</tspan></tspan><tspan style="font-weight:700">Downloads</tspan> (4 064)</text><text x="5" data-z-index="1" y="18" style="color:#46465c;font-size:13px;font-weight:700;fill:#46465c" transform="translate(388 330)" class="highcharts-label highcharts-data-label highcharts-data-label-color-2"><tspan class="highcharts-text-outline" fill="#FFF" stroke="#FFF" stroke-width="2" stroke-linejoin="round"><tspan style="font-weight:700">Requested price list</tspan> (1 987)<tspan x="5" dy="0">​</tspan></tspan><tspan style="font-weight:700">Requested price list</tspan> (1 987)</text><text x="5" data-z-index="1" y="18" style="color:#46465c;font-size:13px;font-weight:700;fill:#46465c" transform="translate(388 341)" class="highcharts-label highcharts-data-label highcharts-data-label-color-3"><tspan class="highcharts-text-outline" fill="#FFF" stroke="#FFF" stroke-width="2" stroke-linejoin="round"><tspan style="font-weight:700">Invoice sent</tspan> (976)<tspan x="5" dy="0">​</tspan></tspan><tspan style="font-weight:700">Invoice sent</tspan> (976)</text><text x="5" data-z-index="1" y="18" style="color:#46465c;font-size:13px;font-weight:700;fill:#46465c" transform="translate(388 351)" class="highcharts-label highcharts-data-label highcharts-data-label-color-4"><tspan class="highcharts-text-outline" fill="#FFF" stroke="#FFF" stroke-width="2" stroke-linejoin="round"><tspan style="font-weight:700">Finalized</tspan> (846)<tspan x="5" dy="0">​</tspan></tspan><tspan style="font-weight:700">Finalized</tspan> (846)</text></g></svg>