<svg class="highcharts-root" style="font-family:&quot;IBM Plex Sans&quot;,sans-serif;font-size:12px" xmlns="http://www.w3.org/2000/svg" width="600" height="400" aria-label="Interactive chart" aria-hidden="false"><rect fill="#f0f0f0" class="highcharts-background" width="600" height="400" rx="0" ry="0" aria-hidden="true"/><path fill="none" class="highcharts-plot-background" aria-hidden="true" d="M10 68h580v234H10z"/><path fill="none" class="highcharts-plot-border" data-z-index="1" aria-hidden="true" d="M10 68h580v234H10z"/><g class="highcharts-series-group" data-z-index="3" aria-hidden="false"><g class="highcharts-series highcharts-series-0 highcharts-item-series highcharts-tracker" data-z-index=".1" aria-hidden="false" stroke="#BBBAC5"><path d="M131.004 291.283a3 3 0 1 1 .003 0Zm7.136-1.258a3 3 0 1 1 .003 0Zm7.135-1.258a3 3 0 1 1 .003 0Zm7.135-1.258a3 3 0 1 1 .004 0Zm7.136-1.259a3 3 0 1 1 .003 0Zm7.136-1.258a3 3 0 1 1 .003 0Zm7.136-1.258a3 3 0 1 1 .003 0Zm7.135-1.258a3 3 0 1 1 .003 0Zm7.136-1.258a3 3 0 1 1 .003 0Zm7.136-1.258a3 3 0 1 1 .003 0Zm7.135-1.259a3 3 0 1 1 .003 0Zm7.136-1.258a3 3 0 1 1 .003 0Zm7.136-1.258a3 3 0 1 1 .003 0Zm7.135-1.258a3 3 0 1 1 .003 0Zm-94.007 8.141a3 3 0 1 1 .003 0Zm7.13-1.375a3 3 0 1 1 .003 0Zm7.145-1.26a3 3 0 1 1 .003 0Zm7.147-1.259a3 3 0 1 1 .003 0Zm7.148-1.26a3 3 0 1 1 .003 0Zm7.149-1.26a3 3 0 1 1 .003 0Zm7.15-1.259a3 3 0 1 1 .003 0Zm7.152-1.261a3 3 0 1 1 .003 0Zm7.154-1.26a3 3 0 1 1 .003 0Zm7.157-1.26a3 3 0 1 1 .003 0Zm7.16-1.261a3 3 0 1 1 .003 0Zm7.164-1.261a3 3 0 1 1 .003 0Zm-79.501 5.71a3 3 0 1 1 .003 0Zm86.67-6.971a3 3 0 1 1 .003 0Zm-79.515 5.476a3 3 0 1 1 .002 0Zm7.175-1.262a3 3 0 1 1 .003 0Zm79.515-5.475a3 3 0 1 1 .003 0Zm-72.336 4.213a3 3 0 1 1 .003 0Zm7.184-1.263a3 3 0 1 1 .003 0Zm7.189-1.262a3 3 0 1 1 .003 0Zm7.194-1.263a3 3 0 1 1 .003 0Zm7.203-1.263a3 3 0 1 1 .003 0Zm-50.721.773a3 3 0 1 1 .003 0Zm57.931-2.037a3 3 0 1 1 .003 0Zm-50.724.422a3 3 0 1 1 .003 0Z" class="highcharts-point highcharts-color-0" fill="#C09" tabindex="-1" aria-label="The Left, 39. Representatives." style="outline:0"/><path d="M193.625 263.205a3 3 0 1 1 .003 0Zm-50.719.422a3 3 0 1 1 .003 0Zm7.234-1.264a3 3 0 1 1 .003 0Zm50.718-.422a3 3 0 1 1 .003 0Zm-43.475-.842a3 3 0 1 1 .003 0Zm50.724-.421a3 3 0 1 1 .003 0Zm-43.467-.843a3 3 0 1 1 .002 0Zm-36.208-1.639a3 3 0 1 1 .003 0Zm43.476.375a3 3 0 1 1 .003 0Zm43.467.844a3 3 0 1 1 .003 0Zm-79.651-2.95a3 3 0 1 1 .003 0Zm43.47.843a3 3 0 1 1 .003 0Zm-36.175-2.106a3 3 0 1 1 .003 0Zm79.649 2.95a3 3 0 1 1 .003 0Zm-36.17-2.106a3 3 0 1 1 .003 0Zm-36.168-2.106a3 3 0 1 1 .002 0Zm7.328-1.262a3 3 0 1 1 .003 0Zm36.167 2.107a3 3 0 1 1 .003 0Zm-65.03-4.89a3 3 0 1 1 .003 0Zm36.212 1.524a3 3 0 1 1 .003 0Zm36.173 2.107a3 3 0 1 1 .004 0Zm-64.98-5.473a3 3 0 1 1 .002 0Zm36.18 2.107a3 3 0 1 1 .003 0Zm-28.796-3.364a3 3 0 1 1 .003 0Zm64.986 5.474a3 3 0 1 1 .004 0Zm-28.789-3.364a3 3 0 1 1 .003 0Zm-28.788-3.366a3 3 0 1 1 .003 0Zm-21.434-3.918a3 3 0 1 1 .003 0Zm28.871 2.668a3 3 0 1 1 .002 0Zm28.786 3.364a3 3 0 1 1 .003 0Zm28.788 3.365a3 3 0 1 1 .003 0Zm-78.898-11.343a3 3 0 1 1 .003 0Zm28.792 3.366a3 3 0 1 1 .003 0Zm28.794 3.366a3 3 0 1 1 .003 0Zm-50.092-7.976a3 3 0 1 1 .002 0Zm78.893 11.343a3 3 0 1 1 .003 0Zm-50.09-7.975a3 3 0 1 1 .003 0Zm-21.275-4.607a3 3 0 1 1 .003 0Zm-21.405-3.798a3 3 0 1 1 .003 0Zm71.495 11.774a3 3 0 1 1 .003 0Zm-21.265-4.605a3 3 0 1 1 .003 0Zm-21.258-4.604a3 3 0 1 1 .003 0Zm-21.255-4.603a3 3 0 1 1 .004 0Zm71.364 12.583a3 3 0 1 1 .003 0Zm-21.248-4.602a3 3 0 1 1 .003 0Zm-21.247-4.602a3 3 0 1 1 .003 0Zm-21.247-4.602a3 3 0 1 1 .003 0Zm-13.777-4.9a3 3 0 1 1 .003 0Zm21.445 3.687a3 3 0 1 1 .003 0Zm21.245 4.602a3 3 0 1 1 .003 0Zm21.245 4.603a3 3 0 1 1 .004 0Zm21.246 4.602a3 3 0 1 1 .003 0Zm-77.265-19.611a3 3 0 1 1 .003 0Zm21.251 4.603a3 3 0 1 1 .003 0Zm21.253 4.605a3 3 0 1 1 .003 0Zm21.256 4.605a3 3 0 1 1 .003 0Zm-55.992-15.003a3 3 0 1 1 .003 0Zm-13.729-4.769a3 3 0 1 1 .003 0Zm34.994 9.377a3 3 0 1 1 .003 0Zm55.991 15.003a3 3 0 1 1 .003 0Zm-34.717-10.393a3 3 0 1 1 .003 0Zm-34.712-10.391a3 3 0 1 1 .003 0Zm56 15.006a3 3 0 1 1 .003 0Zm-34.707-10.391a3 3 0 1 1 .003 0Zm-34.707-10.391a3 3 0 1 1 .003 0Zm21.31 4.622a3 3 0 1 1 .003 0Zm34.708 10.39a3 3 0 1 1 .003 0Zm-48.087-16.155a3 3 0 1 1 .003 0Zm-13.728-4.648a3 3 0 1 1 .003 0Zm48.441 15.041a3 3 0 1 1 .003 0Zm-13.359-5.758a3 3 0 1 1 .003 0Zm48.079 16.153a3 3 0 1 1 .003 0Zm-61.428-21.908a3 3 0 1 1 .003 0ZM206.4 228.87a3 3 0 1 1 .003 0Zm-61.423-21.907a3 3 0 1 1 .003 0Zm48.086 16.157a3 3 0 1 1 .003 0Zm-13.329-5.749a3 3 0 1 1 .003 0Zm-13.324-5.746a3 3 0 1 1 .002 0Zm-27.097-10.286a3 3 0 1 1 .003 0Zm13.775 4.541a3 3 0 1 1 .003 0Zm74.756 27.658a3 3 0 1 1 .003 0Zm-13.314-5.743a3 3 0 1 1 .003 0Zm-13.312-5.741a3 3 0 1 1 .003 0Zm-13.311-5.742a3 3 0 1 1 .003 0Zm-13.309-5.74a3 3 0 1 1 .003 0Zm-13.309-5.742a3 3 0 1 1 .003 0Zm-13.309-5.74a3 3 0 1 1 .003 0Zm-5.562-5.458a3 3 0 1 1 .003 0Zm13.868 4.453a3 3 0 1 1 .003 0Zm13.307 5.74a3 3 0 1 1 .003 0Zm13.307 5.74a3 3 0 1 1 .003 0Zm13.307 5.74a3 3 0 1 1 .003 0Zm13.307 5.741a3 3 0 1 1 .003 0Zm13.308 5.74a3 3 0 1 1 .003 0Zm-71.438-35.403a3 3 0 1 1 .003 0Zm13.314 5.744a3 3 0 1 1 .003 0Zm13.317 5.744a3 3 0 1 1 .003 0Zm13.319 5.746a3 3 0 1 1 .003 0Zm-45.441-22.532a3 3 0 1 1 .003 0Zm58.763 28.28a3 3 0 1 1 .003 0Zm13.327 5.751a3 3 0 1 1 .003 0Zm-58.085-29.643a3 3 0 1 1 .003 0Zm13.334 5.754a3 3 0 1 1 .003 0Zm58.086 29.643a3 3 0 1 1 .003 0Zm-44.745-23.886a3 3 0 1 1 .003 0Zm-31.395-18.124a3 3 0 1 1 .003 0Zm44.744 23.886a3 3 0 1 1 .003 0Zm-31.386-18.12a3 3 0 1 1 .003 0Zm-18.806-10.911a3 3 0 1 1 .002 0Zm63.553 34.8a3 3 0 1 1 .003 0Zm-31.378-18.116a3 3 0 1 1 .003 0Zm-17.992-12.333a3 3 0 1 1 .003 0Zm31.375 18.114a3 3 0 1 1 .003 0Zm31.375 18.114a3 3 0 1 1 .003 0Zm-49.349-30.437a3 3 0 1 1 .003 0Zm31.378 18.116a3 3 0 1 1 .003 0Zm-49.339-30.432a3 3 0 1 1 .003 0Zm31.383 18.12a3 3 0 1 1 .003 0Zm-36.817-23.122a3 3 0 1 1 .003 0Zm18.871 10.815a3 3 0 1 1 .002 0Zm49.336 30.431a3 3 0 1 1 .003 0Zm-17.939-12.302a3 3 0 1 1 .003 0Zm-17.935-12.3a3 3 0 1 1 .003 0Zm-17.932-12.298a3 3 0 1 1 .003 0Zm67.286 42.742a3 3 0 1 1 .003 0Zm-17.927-12.295a3 3 0 1 1 .003 0Zm-17.927-12.295a3 3 0 1 1 .003 0Zm-17.927-12.295a3 3 0 1 1 .003 0Zm-17.926-12.295a3 3 0 1 1 .003 0Zm-5.449-4.872a3 3 0 1 1 .004 0Zm18.996 10.757a3 3 0 1 1 .003 0Zm17.927 12.296a3 3 0 1 1 .003 0Zm17.928 12.297a3 3 0 1 1 .003 0Zm17.929 12.297a3 3 0 1 1 .004 0Zm-58.124-43.272a3 3 0 1 1 .003 0Zm17.935 12.302a3 3 0 1 1 .003 0Zm17.939 12.305a3 3 0 1 1 .003 0Zm-40.178-30.962a3 3 0 1 1 .003 0Zm-5.487-4.756a3 3 0 1 1 .003 0Zm63.609 48.027a3 3 0 1 1 .003 0Zm-40.175-30.96a3 3 0 1 1 .003 0Zm17.954 12.316a3 3 0 1 1 .003 0Zm-22.213-18.638a3 3 0 1 1 .002 0Zm40.179 30.964a3 3 0 1 1 .003 0Zm-22.206-18.632a3 3 0 1 1 .003 0Zm-22.205-18.632a3 3 0 1 1 .003 0Zm-9.758-10.938a3 3 0 1 1 .003 0Zm5.55 4.658a3 3 0 1 1 .004 0Zm22.203 18.629a3 3 0 1 1 .003 0Zm22.202 18.63a3 3 0 1 1 .003 0Zm22.202 18.63a3 3 0 1 1 .003 0Zm-48.589-43.521a3 3 0 1 1 .003 0Zm22.205 18.633a3 3 0 1 1 .003 0Zm22.207 18.635a3 3 0 1 1 .003 0Zm-48.575-43.51a3 3 0 1 1 .003 0Zm22.212 18.64a3 3 0 1 1 .003 0Zm-26.357-24.867a3 3 0 1 1 .003 0Zm48.576 43.512a3 3 0 1 1 .003 0Zm-58.342-54.302a3 3 0 1 1 .003 0Zm31.989 29.44a3 3 0 1 1 .003 0ZM179.63 149.69a3 3 0 1 1 .003 0Zm22.236 18.662a3 3 0 1 1 .003 0Zm26.352 24.862a3 3 0 1 1 .003 0Zm-30.454-31.049a3 3 0 1 1 .003 0Zm26.356 24.866a3 3 0 1 1 .003 0Zm-30.445-31.041a3 3 0 1 1 .003 0Zm26.363 24.874a3 3 0 1 1 .003 0Zm-30.442-31.037a3 3 0 1 1 .003 0Zm-9.813-10.675a3 3 0 1 1 .003 0Zm5.744 4.52a3 3 0 1 1 .003 0Zm30.442 31.038a3 3 0 1 1 .003 0Zm30.442 31.04a3 3 0 1 1 .003 0Zm-34.501-37.183a3 3 0 1 1 .003 0Zm-4.05-6.135a3 3 0 1 1 .003 0Zm34.498 37.181a3 3 0 1 1 .003 0Zm-38.54-43.307a3 3 0 1 1 .003 0Zm34.5 37.183a3 3 0 1 1 .003 0Zm-38.537-43.303a3 3 0 1 1 .003 0Zm-13.927-16.706a3 3 0 1 1 .003 0Zm9.896 10.592a3 3 0 1 1 .003 0Zm38.536 43.302a3 3 0 1 1 .003 0Zm-42.562-49.411a3 3 0 1 1 .003 0Zm38.537 43.305a3 3 0 1 1 .003 0Zm-4.019-6.1a3 3 0 1 1 .003 0Zm-4.014-6.094a3 3 0 1 1 .003 0Zm-4.01-6.09a3 3 0 1 1 .003 0Zm-4.007-6.086a3 3 0 1 1 .003 0Zm-4.004-6.083a3 3 0 1 1 .003 0Zm-18.014-22.707a3 3 0 1 1 .003 0Zm14.012 16.626a3 3 0 1 1 .003 0Zm-4-6.077a3 3 0 1 1 .003 0Zm-3.999-6.077a3 3 0 1 1 .003 0Zm54.594 67.689a3 3 0 1 1 .003 0Zm-3.992-6.068a3 3 0 1 1 .003 0Zm-3.991-6.065a3 3 0 1 1 .003 0Zm-3.989-6.064a3 3 0 1 1 .003 0Zm-3.988-6.062a3 3 0 1 1 .003 0Zm-3.987-6.062a3 3 0 1 1 .003 0Zm-34.068-46.898a3 3 0 1 1 .003 0Zm30.081 40.838a3 3 0 1 1 .003 0Zm-3.986-6.06a3 3 0 1 1 .003 0Zm-3.985-6.058a3 3 0 1 1 .003 0Zm-3.985-6.06a3 3 0 1 1 .002 0Zm-3.985-6.057a3 3 0 1 1 .003 0Zm-3.985-6.058a3 3 0 1 1 .003 0Zm-3.984-6.057a3 3 0 1 1 .003 0Z" class="highcharts-point highcharts-color-1" fill="#E01" tabindex="-1" aria-label="Social Democratic Party, 206. Representatives." style="outline:0"/><path d="M205.614 118.317a3 3 0 1 1 .003 0Zm6.342 4.531a3 3 0 1 1 .003 0Zm3.982 6.054a3 3 0 1 1 .003 0Zm3.982 6.055a3 3 0 1 1 .003 0Zm3.982 6.055a3 3 0 1 1 .003 0Zm3.982 6.055a3 3 0 1 1 .003 0Zm3.983 6.055a3 3 0 1 1 .003 0Zm3.983 6.056a3 3 0 1 1 .002 0Zm3.982 6.055a3 3 0 1 1 .003 0Zm3.983 6.056a3 3 0 1 1 .003 0Zm3.983 6.056a3 3 0 1 1 .003 0Zm3.982 6.056a3 3 0 1 1 .004 0Zm3.984 6.057a3 3 0 1 1 .003 0Zm3.984 6.058a3 3 0 1 1 .003 0Zm-47.083-81.595a3 3 0 1 1 .003 0Zm6.522 4.602a3 3 0 1 1 .003 0Zm3.99 6.069a3 3 0 1 1 .003 0Zm3.991 6.071a3 3 0 1 1 .003 0Zm3.992 6.072a3 3 0 1 1 .003 0Zm3.994 6.075a3 3 0 1 1 .003 0Zm3.994 6.076a3 3 0 1 1 .003 0Zm3.996 6.08a3 3 0 1 1 .003 0Zm-23.224-45.094a3 3 0 1 1 .003 0Zm27.222 51.177a3 3 0 1 1 .003 0Zm4 6.087a3 3 0 1 1 .003 0Zm4.002 6.092a3 3 0 1 1 .003 0Zm-28.514-58.653a3 3 0 1 1 .003 0Zm32.519 64.751a3 3 0 1 1 .003 0Zm-28.512-58.649a3 3 0 1 1 .003 0Zm4.01 6.106a3 3 0 1 1 .003 0Zm28.511 58.649a3 3 0 1 1 .003 0Zm-24.499-52.537a3 3 0 1 1 .003 0Zm-11.296-26.716a3 3 0 1 1 .003 0Zm15.311 32.834a3 3 0 1 1 .003 0Zm24.497 52.535a3 3 0 1 1 .003 0Zm-20.478-46.409a3 3 0 1 1 .003 0Zm4.022 6.134a3 3 0 1 1 .003 0Zm-16.449-40.259a3 3 0 1 1 .003 0Zm20.476 46.405a3 3 0 1 1 .003 0Zm-16.445-40.252a3 3 0 1 1 .003 0Zm20.478 46.41a3 3 0 1 1 .003 0Zm-16.443-40.247a3 3 0 1 1 .003 0Zm-7.355-20.48a3 3 0 1 1 .003 0Zm11.394 26.655a3 3 0 1 1 .003 0Zm16.442 40.245a3 3 0 1 1 .003 0Zm-12.397-34.058a3 3 0 1 1 .003 0Zm16.444 40.252a3 3 0 1 1 .003 0Zm-12.393-34.048a3 3 0 1 1 .003 0Zm-12.392-34.046a3 3 0 1 1 .003 0Zm4.059 6.224a3 3 0 1 1 .003 0Zm12.391 34.044a3 3 0 1 1 .003 0Zm12.391 34.044a3 3 0 1 1 .003 0Zm-28.174-82.266a3 3 0 1 1 .003 0Zm7.458 20.419a3 3 0 1 1 .002 0Zm12.39 34.047a3 3 0 1 1 .004 0Zm12.393 34.05a3 3 0 1 1 .003 0Zm-20.713-61.835a3 3 0 1 1 .004 0Zm12.396 34.056a3 3 0 1 1 .003 0Zm-8.316-27.773a3 3 0 1 1 .003 0Zm-8.314-27.77a3 3 0 1 1 .003 0Zm20.715 61.847a3 3 0 1 1 .003 0Zm-8.313-27.765a3 3 0 1 1 .003 0Zm-8.312-27.766a3 3 0 1 1 .003 0Zm-3.484-14.086a3 3 0 1 1 .003 0Zm7.581 20.428a3 3 0 1 1 .003 0Zm8.313 27.767a3 3 0 1 1 .003 0Zm8.313 27.768a3 3 0 1 1 .003 0ZM262.33 124.12a3 3 0 1 1 .003 0Zm8.315 27.777a3 3 0 1 1 .003 0Zm-12.517-49.154a3 3 0 1 1 .003 0Zm8.317 27.785a3 3 0 1 1 .003 0Zm12.516 49.152a3 3 0 1 1 .003 0Zm-20.304-84.549a3 3 0 1 1 .003 0Zm3.593 14.039a3 3 0 1 1 .002 0Zm12.515 49.155a3 3 0 1 1 .003 0Zm-4.193-21.347a3 3 0 1 1 .003 0Zm-4.192-21.342a3 3 0 1 1 .003 0Zm16.71 70.508a3 3 0 1 1 .003 0Zm-4.19-21.334a3 3 0 1 1 .002 0Zm-4.19-21.333a3 3 0 1 1 .002 0Zm-4.19-21.332a3 3 0 1 1 .003 0Zm-4.19-21.331a3 3 0 1 1 .003 0Zm.44-7.481a3 3 0 1 1 .002 0Zm3.711 14.042a3 3 0 1 1 .003 0Zm4.189 21.33a3 3 0 1 1 .003 0Zm4.19 21.33a3 3 0 1 1 .002 0Zm4.188 21.331a3 3 0 1 1 .003 0Zm-8.406-57.379a3 3 0 1 1 .003 0Zm4.19 21.337a3 3 0 1 1 .003 0Zm4.19 21.341a3 3 0 1 1 .003 0Zm-8.402-57.357a3 3 0 1 1 .003 0Zm12.593 78.704a3 3 0 1 1 .003 0Zm-8.401-57.354a3 3 0 1 1 .003 0Zm-3.853-28.728a3 3 0 1 1 .003 0Zm8.046 50.084a3 3 0 1 1 .003 0Zm-4.208-35.991a3 3 0 1 1 .003 0Zm8.402 57.36a3 3 0 1 1 .003 0Zm-4.207-35.985a3 3 0 1 1 .003 0Zm-.009-14.593a3 3 0 1 1 .003 0Zm4.207 35.984a3 3 0 1 1 .002 0Zm4.205 35.984a3 3 0 1 1 .003 0Zm-8.419-86.543a3 3 0 1 1 .003 0Zm4.206 35.988a3 3 0 1 1 .003 0Zm-3.975-43.293a3 3 0 1 1 .003 0Zm8.182 79.285a3 3 0 1 1 .003 0Zm-4.211-50.547a3 3 0 1 1 .003 0Zm-.004-14.543a3 3 0 1 1 .003 0Zm4.211 50.545a3 3 0 1 1 .003 0Zm-.003-14.531a3 3 0 1 1 .003 0Zm-.002-14.523a3 3 0 1 1 .003 0Zm-.002-14.517a3 3 0 1 1 .003 0Zm-.001-14.512a3 3 0 1 1 .003 0Zm4.213 79.592a3 3 0 1 1 .003 0Zm-4.096-86.853a3 3 0 1 1 .003 0Zm4.096 72.346a3 3 0 1 1 .002 0Zm-.001-14.503a3 3 0 1 1 .003 0Zm-.001-14.5a3 3 0 1 1 .003 0Zm0-14.499a3 3 0 1 1 .003 0Z" class="highcharts-point highcharts-color-2" fill="#483" tabindex="-1" aria-label="Alliance 90/The Greens, 118. Representatives." style="outline:0"/><path d="M295.587 104.668a3 3 0 1 1 .003 0ZM299.8 90.12a3 3 0 1 1 .003 0Zm0 7.246a3 3 0 1 1 .003 0Zm0 14.491a3 3 0 1 1 .003 0Zm0 14.492a3 3 0 1 1 .003 0Zm0 14.491a3 3 0 1 1 .003 0Zm0 14.491a3 3 0 1 1 .003 0Zm0 14.492a3 3 0 1 1 .003 0Zm0 14.491a3 3 0 1 1 .003 0Zm4.213-79.646a3 3 0 1 1 .003 0Zm-.001 14.497a3 3 0 1 1 .003 0Zm0 14.499a3 3 0 1 1 .003 0Zm-.001 14.5a3 3 0 1 1 .003 0Zm-.001 14.503a3 3 0 1 1 .004 0Zm4.096-72.346a3 3 0 1 1 .003 0Zm-4.096 86.853a3 3 0 1 1 .003 0Zm4.213-79.592a3 3 0 1 1 .003 0Zm-.001 14.512a3 3 0 1 1 .003 0Zm-.002 14.517a3 3 0 1 1 .003 0Zm-.002 14.523a3 3 0 1 1 .003 0Zm-.003 14.531a3 3 0 1 1 .003 0Zm4.211-50.545a3 3 0 1 1 .003 0Zm-.004 14.543a3 3 0 1 1 .003 0Zm-4.211 50.547a3 3 0 1 1 .003 0Zm8.182-79.285a3 3 0 1 1 .003 0Zm-3.975 43.293a3 3 0 1 1 .003 0Zm4.206-35.988a3 3 0 1 1 .003 0Zm-8.419 86.543a3 3 0 1 1 .003 0Zm4.205-35.984a3 3 0 1 1 .004 0Zm4.207-35.984a3 3 0 1 1 .003 0Zm-.009 14.593a3 3 0 1 1 .003 0Zm-4.207 35.985a3 3 0 1 1 .003 0Zm8.402-57.36a3 3 0 1 1 .003 0Zm-4.208 35.991a3 3 0 1 1 .003 0Zm8.046-50.084a3 3 0 1 1 .003 0Zm-3.853 28.728a3 3 0 1 1 .003 0Zm-8.401 57.354a3 3 0 1 1 .003 0Zm12.593-78.704a3 3 0 1 1 .003 0Zm-8.402 57.357a3 3 0 1 1 .003 0Zm4.19-21.341a3 3 0 1 1 .003 0Zm4.19-21.337a3 3 0 1 1 .003 0Zm-8.406 57.379a3 3 0 1 1 .003 0Zm4.188-21.331a3 3 0 1 1 .004 0Zm4.19-21.33a3 3 0 1 1 .003 0Zm4.189-21.33a3 3 0 1 1 .003 0Zm3.711-14.042a3 3 0 1 1 .004 0Zm.44 7.481a3 3 0 1 1 .003 0Zm-4.19 21.331a3 3 0 1 1 .003 0Zm-4.19 21.332a3 3 0 1 1 .004 0Zm-4.19 21.333a3 3 0 1 1 .004 0Zm-4.19 21.334a3 3 0 1 1 .003 0Zm16.71-70.508a3 3 0 1 1 .003 0Zm-4.192 21.342a3 3 0 1 1 .003 0Zm-4.193 21.347a3 3 0 1 1 .003 0Zm12.515-49.155a3 3 0 1 1 .004 0Zm3.593-14.039a3 3 0 1 1 .003 0Zm-7.788 35.397a3 3 0 1 1 .003 0Zm-12.516 49.152a3 3 0 1 1 .003 0Zm20.833-76.937a3 3 0 1 1 .003 0Zm-12.517 49.154a3 3 0 1 1 .003 0Zm8.315-27.777a3 3 0 1 1 .003 0Zm-12.519 49.163a3 3 0 1 1 .003 0Zm8.313-27.768a3 3 0 1 1 .003 0Zm8.313-27.767a3 3 0 1 1 .003 0Zm7.581-20.428a3 3 0 1 1 .003 0Zm-3.484 14.086a3 3 0 1 1 .003 0Zm-8.312 27.766a3 3 0 1 1 .003 0Zm-8.313 27.765a3 3 0 1 1 .003 0Zm20.715-61.847a3 3 0 1 1 .003 0Zm-8.314 27.77a3 3 0 1 1 .003 0Zm-8.316 27.773a3 3 0 1 1 .003 0Zm12.396-34.056a3 3 0 1 1 .002 0Zm-20.713 61.835a3 3 0 1 1 .003 0Zm12.393-34.05a3 3 0 1 1 .002 0Zm12.39-34.047a3 3 0 1 1 .004 0Zm7.458-20.419a3 3 0 1 1 .003 0Zm-15.783 48.222a3 3 0 1 1 .003 0Zm12.391-34.044a3 3 0 1 1 .003 0Zm-24.782 68.088a3 3 0 1 1 .003 0Zm28.841-74.312a3 3 0 1 1 .003 0Zm-12.392 34.046a3 3 0 1 1 .003 0Zm-12.393 34.048a3 3 0 1 1 .003 0Zm16.444-40.252a3 3 0 1 1 .003 0Zm-12.397 34.058a3 3 0 1 1 .003 0Zm16.442-40.245a3 3 0 1 1 .003 0Zm11.394-26.655a3 3 0 1 1 .003 0Zm-7.355 20.48a3 3 0 1 1 .003 0Zm-16.443 40.247a3 3 0 1 1 .003 0Zm20.478-46.41a3 3 0 1 1 .003 0Zm-16.445 40.252a3 3 0 1 1 .003 0Zm20.476-46.405a3 3 0 1 1 .003 0Zm-16.449 40.259a3 3 0 1 1 .003 0Z" class="highcharts-point highcharts-color-3" fill="#FC0" tabindex="-1" aria-label="Free Democratic Party, 92. Representatives." style="outline:0"/><path d="M352.907 145.139a3 3 0 1 1 .003 0Zm19.33-38.96a3 3 0 1 1 .003 0Zm-15.311 32.834a3 3 0 1 1 .003 0Zm-24.497 52.535a3 3 0 1 1 .003 0Zm28.512-58.653a3 3 0 1 1 .003 0Zm-24.499 52.537a3 3 0 1 1 .003 0Zm28.511-58.649a3 3 0 1 1 .003 0Zm4.01-6.106a3 3 0 1 1 .003 0Zm-28.512 58.649a3 3 0 1 1 .003 0Zm32.519-64.751a3 3 0 1 1 .003 0Zm-28.514 58.653a3 3 0 1 1 .003 0Zm4.002-6.092a3 3 0 1 1 .003 0Zm4-6.087a3 3 0 1 1 .003 0Zm27.222-51.177a3 3 0 1 1 .003 0Zm-23.224 45.094a3 3 0 1 1 .003 0Zm3.996-6.08a3 3 0 1 1 .003 0Zm3.994-6.076a3 3 0 1 1 .003 0Zm3.994-6.075a3 3 0 1 1 .003 0Zm3.992-6.072a3 3 0 1 1 .003 0Zm3.991-6.071a3 3 0 1 1 .003 0Zm3.99-6.069a3 3 0 1 1 .003 0Zm6.522-4.602a3 3 0 1 1 .003 0Zm-47.083 81.595a3 3 0 1 1 .003 0Zm3.984-6.058a3 3 0 1 1 .003 0Zm3.984-6.057a3 3 0 1 1 .002 0Zm3.982-6.056a3 3 0 1 1 .003 0Zm3.983-6.056a3 3 0 1 1 .003 0Zm3.983-6.056a3 3 0 1 1 .003 0Zm3.982-6.055a3 3 0 1 1 .004 0Zm3.983-6.056a3 3 0 1 1 .003 0Zm3.983-6.055a3 3 0 1 1 .003 0Zm3.982-6.055a3 3 0 1 1 .003 0Zm3.982-6.055a3 3 0 1 1 .003 0Zm3.982-6.055a3 3 0 1 1 .003 0Zm3.982-6.054a3 3 0 1 1 .003 0Zm6.342-4.531a3 3 0 1 1 .003 0Zm.658 9.221a3 3 0 1 1 .003 0Zm-3.984 6.057a3 3 0 1 1 .003 0Zm-3.985 6.058a3 3 0 1 1 .003 0Zm-3.985 6.057a3 3 0 1 1 .004 0Zm-3.985 6.06a3 3 0 1 1 .003 0Zm-3.985 6.058a3 3 0 1 1 .003 0Zm-3.986 6.06a3 3 0 1 1 .003 0Zm30.081-40.838a3 3 0 1 1 .003 0Zm-34.068 46.898a3 3 0 1 1 .003 0Zm-3.987 6.062a3 3 0 1 1 .003 0Zm-3.988 6.062a3 3 0 1 1 .003 0Zm-3.989 6.064a3 3 0 1 1 .003 0Zm-3.991 6.065a3 3 0 1 1 .003 0Zm-3.992 6.068a3 3 0 1 1 .003 0Zm54.594-67.689a3 3 0 1 1 .003 0Zm-3.999 6.077a3 3 0 1 1 .003 0Zm-4 6.077a3 3 0 1 1 .003 0Zm14.012-16.626a3 3 0 1 1 .003 0Zm-18.014 22.707a3 3 0 1 1 .003 0Zm-4.004 6.083a3 3 0 1 1 .003 0Zm-4.007 6.086a3 3 0 1 1 .003 0Zm-4.01 6.09a3 3 0 1 1 .003 0Zm-4.014 6.094a3 3 0 1 1 .003 0Zm-4.019 6.1a3 3 0 1 1 .003 0Zm38.537-43.305a3 3 0 1 1 .003 0Zm-42.562 49.411a3 3 0 1 1 .003 0Zm38.536-43.302a3 3 0 1 1 .003 0Zm9.896-10.592a3 3 0 1 1 .003 0Zm-13.927 16.706a3 3 0 1 1 .003 0Zm-38.537 43.303a3 3 0 1 1 .003 0Zm34.5-37.183a3 3 0 1 1 .003 0Zm-4.042 6.126a3 3 0 1 1 .003 0Zm-34.498 37.181a3 3 0 1 1 .003 0Zm30.448-31.046a3 3 0 1 1 .003 0Zm-34.501 37.183a3 3 0 1 1 .003 0Zm30.442-31.04a3 3 0 1 1 .003 0Zm30.442-31.038a3 3 0 1 1 .003 0Zm5.744-4.52a3 3 0 1 1 .003 0Zm-9.813 10.675a3 3 0 1 1 .003 0Zm-30.442 31.037a3 3 0 1 1 .003 0Zm26.363-24.874a3 3 0 1 1 .003 0Zm-30.445 31.041a3 3 0 1 1 .003 0Zm26.356-24.866a3 3 0 1 1 .003 0Zm-30.454 31.049a3 3 0 1 1 .003 0Zm26.352-24.862a3 3 0 1 1 .003 0Zm22.236-18.662a3 3 0 1 1 .003 0Zm-26.353 24.863a3 3 0 1 1 .003 0Zm31.989-29.44a3 3 0 1 1 .003 0Zm-58.342 54.302a3 3 0 1 1 .003 0Zm48.576-43.512a3 3 0 1 1 .003 0Zm-26.357 24.867a3 3 0 1 1 .003 0Zm22.212-18.64a3 3 0 1 1 .003 0Zm-48.575 43.51a3 3 0 1 1 .003 0Zm22.207-18.635a3 3 0 1 1 .003 0Zm22.205-18.633a3 3 0 1 1 .003 0Zm18.018-12.368a3 3 0 1 1 .002 0Zm5.55-4.658a3 3 0 1 1 .003 0Zm-27.753 23.287a3 3 0 1 1 .003 0Zm-22.202 18.63a3 3 0 1 1 .003 0Zm-22.202 18.63a3 3 0 1 1 .003 0Zm62.399-49.609a3 3 0 1 1 .003 0Zm-22.205 18.632a3 3 0 1 1 .003 0Zm-22.206 18.632a3 3 0 1 1 .003 0Zm40.179-30.964a3 3 0 1 1 .004 0Zm-22.213 18.638a3 3 0 1 1 .003 0Zm17.954-12.316a3 3 0 1 1 .003 0Zm-40.175 30.96a3 3 0 1 1 .003 0Zm63.609-48.027a3 3 0 1 1 .003 0Zm-5.487 4.756a3 3 0 1 1 .003 0Zm-40.178 30.962a3 3 0 1 1 .003 0Zm17.939-12.305a3 3 0 1 1 .003 0Zm17.935-12.302a3 3 0 1 1 .003 0Zm-58.124 43.272a3 3 0 1 1 .002 0Zm17.929-12.297a3 3 0 1 1 .003 0Zm17.928-12.297a3 3 0 1 1 .003 0Zm17.927-12.296a3 3 0 1 1 .003 0Zm18.996-10.757a3 3 0 1 1 .002 0Zm-5.449 4.872a3 3 0 1 1 .003 0Zm-17.926 12.295a3 3 0 1 1 .003 0Zm-17.927 12.295a3 3 0 1 1 .003 0Zm-17.927 12.295a3 3 0 1 1 .003 0Zm-17.927 12.295a3 3 0 1 1 .003 0Zm67.286-42.742a3 3 0 1 1 .003 0Zm-17.932 12.298a3 3 0 1 1 .003 0Zm-17.935 12.3a3 3 0 1 1 .003 0Zm-17.939 12.302a3 3 0 1 1 .003 0Zm49.336-30.431a3 3 0 1 1 .004 0Zm18.871-10.815a3 3 0 1 1 .003 0Zm-36.817 23.122a3 3 0 1 1 .003 0Zm31.383-18.12a3 3 0 1 1 .003 0Zm-49.339 30.432a3 3 0 1 1 .003 0Zm31.378-18.116a3 3 0 1 1 .003 0Zm13.401-5.791a3 3 0 1 1 .003 0Zm-31.375 18.114a3 3 0 1 1 .003 0Zm-31.375 18.114a3 3 0 1 1 .003 0Zm44.758-23.895a3 3 0 1 1 .003 0Zm-31.378 18.116a3 3 0 1 1 .003 0Zm63.553-34.8a3 3 0 1 1 .004 0Zm-18.806 10.911a3 3 0 1 1 .003 0Zm-31.386 18.12a3 3 0 1 1 .003 0Zm44.744-23.886a3 3 0 1 1 .003 0Zm-31.395 18.124a3 3 0 1 1 .003 0Zm-44.745 23.886a3 3 0 1 1 .003 0Zm58.086-29.643a3 3 0 1 1 .003 0Zm13.334-5.754a3 3 0 1 1 .003 0Zm-58.085 29.643a3 3 0 1 1 .003 0Zm13.327-5.751a3 3 0 1 1 .003 0Zm58.763-28.28a3 3 0 1 1 .003 0Zm-45.441 22.532a3 3 0 1 1 .003 0Zm13.319-5.746a3 3 0 1 1 .003 0Zm13.317-5.744a3 3 0 1 1 .003 0Zm13.314-5.744a3 3 0 1 1 .003 0Zm-71.438 35.403a3 3 0 1 1 .003 0Zm13.308-5.74a3 3 0 1 1 .003 0Zm13.307-5.741a3 3 0 1 1 .003 0Zm13.307-5.74a3 3 0 1 1 .003 0Z" class="highcharts-point highcharts-color-4" tabindex="-1" aria-label="Christian Democratic Union, 152. Representatives." style="outline:0"/><path d="M430.007 203.825a3 3 0 1 1 .003 0Zm13.307-5.74a3 3 0 1 1 .003 0Zm13.868-4.453a3 3 0 1 1 .003 0Zm-5.562 5.458a3 3 0 1 1 .003 0Zm-13.309 5.74a3 3 0 1 1 .003 0Zm-13.309 5.742a3 3 0 1 1 .003 0Zm-13.309 5.74a3 3 0 1 1 .003 0Zm-13.311 5.742a3 3 0 1 1 .003 0Zm-13.312 5.741a3 3 0 1 1 .003 0Zm-13.314 5.743a3 3 0 1 1 .003 0Zm74.756-27.658a3 3 0 1 1 .003 0Zm13.775-4.541a3 3 0 1 1 .003 0Zm-27.097 10.286a3 3 0 1 1 .004 0Zm-13.324 5.746a3 3 0 1 1 .003 0Zm-13.329 5.749a3 3 0 1 1 .003 0Zm48.086-16.157a3 3 0 1 1 .003 0ZM393.2 228.87a3 3 0 1 1 .003 0Zm48.082-16.155a3 3 0 1 1 .003 0Zm-13.349 5.755a3 3 0 1 1 .003 0Zm-48.079 16.153a3 3 0 1 1 .003 0Zm34.72-10.395a3 3 0 1 1 .003 0Zm48.441-15.041a3 3 0 1 1 .003 0Zm-13.728 4.648a3 3 0 1 1 .003 0ZM401.2 229.99a3 3 0 1 1 .003 0Zm34.708-10.39a3 3 0 1 1 .003 0Zm21.31-4.622a3 3 0 1 1 .003 0Zm-34.707 10.391a3 3 0 1 1 .003 0Zm-34.707 10.391a3 3 0 1 1 .003 0Zm56-15.006a3 3 0 1 1 .003 0Zm-34.712 10.391a3 3 0 1 1 .003 0Zm56.268-13.987a3 3 0 1 1 .003 0Zm-34.994 9.377a3 3 0 1 1 .003 0Zm-55.991 15.003a3 3 0 1 1 .003 0Zm77.256-19.611a3 3 0 1 1 .003 0Zm-55.992 15.003a3 3 0 1 1 .003 0Zm21.256-4.605a3 3 0 1 1 .003 0Zm21.253-4.605a3 3 0 1 1 .003 0Zm21.251-4.603a3 3 0 1 1 .003 0Zm-77.265 19.611a3 3 0 1 1 .003 0Zm21.246-4.602a3 3 0 1 1 .002 0Zm21.245-4.603a3 3 0 1 1 .003 0Zm21.245-4.602a3 3 0 1 1 .003 0Zm21.445-3.687a3 3 0 1 1 .003 0Zm-13.777 4.9a3 3 0 1 1 .003 0Zm-21.247 4.602a3 3 0 1 1 .003 0Z" class="highcharts-point highcharts-color-5" fill="#36C" tabindex="-1" aria-label="Christian Social Union in Bavaria, 45. Representatives." style="outline:0"/><path d="M411.044 239.338a3 3 0 1 1 .003 0Zm-21.248 4.602a3 3 0 1 1 .003 0Zm71.364-12.583a3 3 0 1 1 .002 0Zm-21.255 4.603a3 3 0 1 1 .003 0Zm-21.258 4.604a3 3 0 1 1 .003 0Zm-21.265 4.605a3 3 0 1 1 .003 0Zm71.495-11.774a3 3 0 1 1 .003 0Zm-21.405 3.798a3 3 0 1 1 .003 0Zm-21.275 4.607a3 3 0 1 1 .003 0Zm-50.09 7.975a3 3 0 1 1 .003 0ZM455 238.432a3 3 0 1 1 .004 0Zm-50.092 7.976a3 3 0 1 1 .003 0Zm28.794-3.366a3 3 0 1 1 .003 0Zm28.792-3.366a3 3 0 1 1 .003 0Zm-78.898 11.343a3 3 0 1 1 .003 0Zm28.788-3.365a3 3 0 1 1 .003 0Zm28.786-3.364a3 3 0 1 1 .004 0Zm28.871-2.668a3 3 0 1 1 .003 0Zm-21.434 3.918a3 3 0 1 1 .003 0Zm-28.788 3.366a3 3 0 1 1 .003 0Zm-28.789 3.364a3 3 0 1 1 .002 0Zm64.986-5.474a3 3 0 1 1 .003 0Zm-28.796 3.364a3 3 0 1 1 .003 0Zm36.18-2.107a3 3 0 1 1 .004 0Zm-64.98 5.473a3 3 0 1 1 .002 0Zm36.173-2.107a3 3 0 1 1 .003 0Zm36.212-1.524a3 3 0 1 1 .003 0Zm-65.03 4.89a3 3 0 1 1 .003 0Zm36.167-2.107a3 3 0 1 1 .003 0Zm7.328 1.262a3 3 0 1 1 .004 0Zm-36.168 2.106a3 3 0 1 1 .003 0Zm-36.17 2.106a3 3 0 1 1 .003 0Zm79.649-2.95a3 3 0 1 1 .003 0Zm-36.175 2.106a3 3 0 1 1 .003 0Zm43.47-.843a3 3 0 1 1 .003 0Zm-79.651 2.95a3 3 0 1 1 .003 0Zm43.467-.844a3 3 0 1 1 .003 0Zm43.476-.375a3 3 0 1 1 .003 0Zm-36.208 1.639a3 3 0 1 1 .004 0Zm-43.467.843a3 3 0 1 1 .003 0Zm50.724.421a3 3 0 1 1 .003 0Zm-43.475.842a3 3 0 1 1 .003 0Zm50.718.422a3 3 0 1 1 .003 0Zm7.234 1.264a3 3 0 1 1 .003 0Zm-50.719-.422a3 3 0 1 1 .003 0Zm57.945 1.685a3 3 0 1 1 .003 0Zm-50.724-.422a3 3 0 1 1 .003 0Zm57.931 2.037a3 3 0 1 1 .003 0Zm-50.721-.773a3 3 0 1 1 .003 0Zm7.203 1.263a3 3 0 1 1 .003 0Zm7.194 1.263a3 3 0 1 1 .003 0Zm7.189 1.262a3 3 0 1 1 .003 0Zm7.184 1.263a3 3 0 1 1 .003 0Zm-72.336-4.213a3 3 0 1 1 .003 0Zm79.515 5.475a3 3 0 1 1 .003 0Zm7.175 1.262a3 3 0 1 1 .004 0Zm-79.515-5.476a3 3 0 1 1 .003 0Zm86.67 6.971a3 3 0 1 1 .003 0Zm-79.501-5.71a3 3 0 1 1 .003 0Zm7.164 1.261a3 3 0 1 1 .003 0Zm7.16 1.261a3 3 0 1 1 .003 0Zm7.157 1.26a3 3 0 1 1 .003 0Zm7.154 1.26a3 3 0 1 1 .003 0Zm7.152 1.261a3 3 0 1 1 .003 0Zm7.15 1.259a3 3 0 1 1 .003 0Zm7.149 1.26a3 3 0 1 1 .003 0Zm7.148 1.26a3 3 0 1 1 .003 0Zm7.147 1.259a3 3 0 1 1 .003 0Zm7.145 1.26a3 3 0 1 1 .003 0Zm7.13 1.375a3 3 0 1 1 .003 0Zm-58.329-1.85a3 3 0 1 1 .003 0Zm57.085 10.065a3 3 0 1 1 .003 0Zm-7.136-1.258a3 3 0 1 1 .003 0Zm-7.135-1.258a3 3 0 1 1 .003 0Zm-7.135-1.258a3 3 0 1 1 .002 0Zm-7.136-1.259a3 3 0 1 1 .003 0Zm-7.136-1.258a3 3 0 1 1 .003 0Zm-7.136-1.258a3 3 0 1 1 .003 0Zm-7.135-1.258a3 3 0 1 1 .003 0Zm-14.272-2.516a3 3 0 1 1 .003 0Zm-7.135-1.259a3 3 0 1 1 .003 0Zm-7.136-1.258a3 3 0 1 1 .003 0Zm-7.136-1.258a3 3 0 1 1 .003 0Z" class="highcharts-point highcharts-color-6" fill="#39F" tabindex="-1" aria-label="Alternative for Germany, 83. Representatives." style="outline:0"/><path d="M365.833 206.927a3 3 0 1 1 .003 0Z" transform="translate(10 68)" class="highcharts-point highcharts-color-7" fill="#009" tabindex="-1" aria-label="South Schleswig Voters' Association, 1. Representatives." style="outline:0"/></g></g><text x="300" text-anchor="middle" class="highcharts-title" data-z-index="4" style="color:#2f2b38;font-size:22px;font-weight:500;fill:#2f2b38" y="27" aria-hidden="true">Distribution of seats</text><text x="300" text-anchor="middle" class="highcharts-subtitle" data-z-index="4" style="color:#2f2b38;font-size:16px;font-weight:400;fill:#2f2b38" y="52" aria-hidden="true">Bundestag election 2021. Source: <a target="_blank"><tspan>Bundeswahlleiter</tspan></a></text><g class="highcharts-data-labels highcharts-series-0 highcharts-item-series highcharts-tracker" data-z-index="6" aria-hidden="true"><text x="5" data-z-index="1" y="18" style="color:#46465c;font-size:13px;font-weight:700;fill:#46465c" transform="translate(118 261)" class="highcharts-label highcharts-data-label highcharts-data-label-color-0"><tspan class="highcharts-text-outline" fill="#FFF" stroke="#FFF" stroke-width="6" stroke-linejoin="round">DIE LINKE<tspan x="5" dy="0">​</tspan></tspan>DIE LINKE</text><text x="5" data-z-index="1" y="18" style="color:#46465c;font-size:13px;font-weight:700;fill:#46465c" transform="translate(154 179)" class="highcharts-label highcharts-data-label highcharts-data-label-color-1"><tspan class="highcharts-text-outline" fill="#FFF" stroke="#FFF" stroke-width="6" stroke-linejoin="round">SPD<tspan x="5" dy="0">​</tspan></tspan>SPD</text><text x="5" data-z-index="1" y="18" style="color:#46465c;font-size:13px;font-weight:700;fill:#46465c" transform="translate(228 110)" class="highcharts-label highcharts-data-label highcharts-data-label-color-2"><tspan class="highcharts-text-outline" fill="#FFF" stroke="#FFF" stroke-width="6" stroke-linejoin="round">GRÜNE<tspan x="5" dy="0">​</tspan></tspan>GRÜNE</text><text x="5" data-z-index="1" y="18" style="color:#46465c;font-size:13px;font-weight:700;fill:#46465c" transform="translate(310 107)" class="highcharts-label highcharts-data-label highcharts-data-label-color-3"><tspan class="highcharts-text-outline" fill="#FFF" stroke="#FFF" stroke-width="6" stroke-linejoin="round">FDP<tspan x="5" dy="0">​</tspan></tspan>FDP</text><text x="5" data-z-index="1" y="18" style="color:#46465c;font-size:13px;font-weight:700;fill:#46465c" transform="translate(382 145)" class="highcharts-label highcharts-data-label highcharts-data-label-color-4"><tspan class="highcharts-text-outline" fill="#FFF" stroke="#FFF" stroke-width="6" stroke-linejoin="round">CDU<tspan x="5" dy="0">​</tspan></tspan>CDU</text><text x="5" data-z-index="1" y="18" style="color:#46465c;font-size:13px;font-weight:700;fill:#46465c" transform="translate(418 202)" class="highcharts-label highcharts-data-label highcharts-data-label-color-5"><tspan class="highcharts-text-outline" fill="#FFF" stroke="#FFF" stroke-width="6" stroke-linejoin="round">CSU<tspan x="5" dy="0">​</tspan></tspan>CSU</text><text x="5" data-z-index="1" y="18" style="color:#46465c;font-size:13px;font-weight:700;fill:#46465c" transform="translate(428 245)" class="highcharts-label highcharts-data-label highcharts-data-label-color-6"><tspan class="highcharts-text-outline" fill="#FFF" stroke="#FFF" stroke-width="6" stroke-linejoin="round">AfD<tspan x="5" dy="0">​</tspan></tspan>AfD</text><text x="5" data-z-index="1" y="18" style="color:#46465c;font-size:13px;font-weight:700;fill:#46465c" transform="translate(423 274)" class="highcharts-label highcharts-data-label highcharts-data-label-color-7"><tspan class="highcharts-text-outline" fill="#FFF" stroke="#FFF" stroke-width="6" stroke-linejoin="round">SSW<tspan x="5" dy="0">​</tspan></tspan>SSW</text></g><g class="highcharts-legend highcharts-no-tooltip" data-z-index="7" transform="translate(59 314)" aria-hidden="true"><rect fill="#f0f0f0" class="highcharts-legend-box" rx="2" ry="2" stroke="#BBBAC5" x=".5" y=".5" width="481" height="70"/><g data-z-index="1"><g class="highcharts-legend-item highcharts-item-series highcharts-color-0" data-z-index="1" transform="translate(8 3)"><text x="21" data-z-index="2" y="15" style="color:#2f2b38;cursor:pointer;font-size:12px;font-weight:400;fill:#2f2b38">The Left <tspan style="opacity:.4">39</tspan></text><rect x="2" y="4" width="12" height="12" fill="#C09" rx="6" ry="6" class="highcharts-point" data-z-index="3"/></g><g class="highcharts-legend-item highcharts-item-series highcharts-color-1" data-z-index="1" transform="translate(251.414 3)"><text x="21" y="15" data-z-index="2" style="color:#2f2b38;cursor:pointer;font-size:12px;font-weight:400;fill:#2f2b38">Social Democratic Party <tspan style="opacity:.4">206</tspan></text><rect x="2" y="4" width="12" height="12" fill="#E01" rx="6" ry="6" class="highcharts-point" data-z-index="3"/></g><g class="highcharts-legend-item highcharts-item-series highcharts-color-2" data-z-index="1" transform="translate(8 18)"><text x="21" y="15" data-z-index="2" style="color:#2f2b38;cursor:pointer;font-size:12px;font-weight:400;fill:#2f2b38">Alliance 90/The Greens <tspan style="opacity:.4">118</tspan></text><rect x="2" y="4" width="12" height="12" fill="#483" rx="6" ry="6" class="highcharts-point" data-z-index="3"/></g><g class="highcharts-legend-item highcharts-item-series highcharts-color-3" data-z-index="1" transform="translate(251.414 18)"><text x="21" y="15" data-z-index="2" style="color:#2f2b38;cursor:pointer;font-size:12px;font-weight:400;fill:#2f2b38">Free Democratic Party <tspan style="opacity:.4">92</tspan></text><rect x="2" y="4" width="12" height="12" fill="#FC0" rx="6" ry="6" class="highcharts-point" data-z-index="3"/></g><g class="highcharts-legend-item highcharts-item-series highcharts-color-4" data-z-index="1" transform="translate(8 33)"><text x="21" y="15" data-z-index="2" style="color:#2f2b38;cursor:pointer;font-size:12px;font-weight:400;fill:#2f2b38">Christian Democratic Union <tspan style="opacity:.4">152</tspan></text><rect x="2" y="4" width="12" height="12" rx="6" ry="6" class="highcharts-point" data-z-index="3"/></g><g class="highcharts-legend-item highcharts-item-series highcharts-color-5" data-z-index="1" transform="translate(251.414 33)"><text x="21" y="15" data-z-index="2" style="color:#2f2b38;cursor:pointer;font-size:12px;font-weight:400;fill:#2f2b38">Christian Social Union in Bavaria <tspan style="opacity:.4">45</tspan></text><rect x="2" y="4" width="12" height="12" fill="#36C" rx="6" ry="6" class="highcharts-point" data-z-index="3"/></g><g class="highcharts-legend-item highcharts-item-series highcharts-color-6" data-z-index="1" transform="translate(8 48)"><text x="21" y="15" data-z-index="2" style="color:#2f2b38;cursor:pointer;font-size:12px;font-weight:400;fill:#2f2b38">Alternative for Germany <tspan style="opacity:.4">83</tspan></text><rect x="2" y="4" width="12" height="12" fill="#39F" rx="6" ry="6" class="highcharts-point" data-z-index="3"/></g><g class="highcharts-legend-item highcharts-item-series highcharts-color-7" data-z-index="1" transform="translate(251.414 48)"><text x="21" y="15" data-z-index="2" style="color:#2f2b38;cursor:pointer;font-size:12px;font-weight:400;fill:#2f2b38">South Schleswig Voters&apos; Association <tspan style="opacity:.4">1</tspan></text><rect x="2" y="4" width="12" height="12" fill="#009" rx="6" ry="6" class="highcharts-point" data-z-index="3"/></g></g></g></svg>