<svg class="highcharts-root" style="font-family:&quot;IBM Plex Sans&quot;,sans-serif;font-size:12px" xmlns="http://www.w3.org/2000/svg" width="600" height="400" aria-label="Interactive chart" aria-hidden="false"><rect fill="#f0f0f0" class="highcharts-background" width="600" height="400" rx="0" ry="0" aria-hidden="true"/><path fill="none" class="highcharts-plot-background" aria-hidden="true" d="M10 50h580v335H10z"/><path fill="none" class="highcharts-plot-border" data-z-index="1" aria-hidden="true" d="M10 50h580v335H10z"/><g class="highcharts-series-group" data-z-index="3" aria-hidden="false"><g class="highcharts-series highcharts-series-0 highcharts-pie-series highcharts-tracker" data-z-index=".1" style="cursor:pointer" aria-hidden="false" stroke="#BBBAC5" stroke-linejoin="round"><path fill="#131A7B" d="M289.968 10a157.5 157.5 0 1 1-157.233 166.094L290 167.5Z" transform="translate(10 50)" class="highcharts-point highcharts-color-0" tabindex="-1" aria-label="Chrome, 74.03%. Share." style="outline:0"/><path fill="#383FA0" d="M132.726 175.937a157.5 157.5 0 0 1 41.115-114.8L290 167.5Z" transform="translate(10 50)" class="highcharts-point highcharts-color-1" tabindex="-1" aria-label="Edge, 12.66%. Share." style="outline:0"/><path fill="#5C63C4" d="M173.947 61.02a157.5 157.5 0 0 1 38.288-30.483L290 167.5Z" transform="translate(10 50)" class="highcharts-point highcharts-color-2" tabindex="-1" aria-label="Firefox, 4.96%. Share." style="outline:0"/><path fill="#8087E8" d="M212.372 30.46a157.5 157.5 0 0 1 22.087-10.342L290 167.5Z" transform="translate(10 50)" class="highcharts-point highcharts-color-3" tabindex="-1" aria-label="Safari, 2.49%. Share." style="outline:0"/><path fill="#A4ABFF" d="M234.607 20.062a157.5 157.5 0 0 1 21.885-6.456L290 167.5Z" transform="translate(10 50)" class="highcharts-point highcharts-color-4" tabindex="-1" aria-label="Internet Explorer, 2.31%. Share." style="outline:0"/><path fill="#C8CFFF" d="M256.646 13.572A157.5 157.5 0 0 1 289.78 10l.22 157.5Z" transform="translate(10 50)" class="highcharts-point highcharts-color-5" tabindex="-1" aria-label="Other, 3.398%. Share." style="outline:0"/></g></g><text x="300" text-anchor="middle" class="highcharts-title" data-z-index="4" style="color:#2f2b38;font-size:22px;font-weight:500;fill:#2f2b38" y="27" aria-hidden="true">Browser market shares in February, 2022</text><g class="highcharts-data-labels highcharts-series-0 highcharts-pie-series highcharts-tracker" data-z-index="6" aria-hidden="true" style="cursor:pointer"><g style="cursor:pointer"><text x="5" data-z-index="1" y="18" style="color:#46465c;font-size:13px;font-weight:700;fill:#46465c" transform="translate(348 281)" class="highcharts-label highcharts-data-label highcharts-data-label-color-0"><tspan class="highcharts-text-outline" fill="#FFF" stroke="#FFF" stroke-width="2" stroke-linejoin="round"><tspan style="font-weight:700">Chrome</tspan><tspan class="highcharts-br" dy="16" x="5">​</tspan>74.1 %<tspan x="5" dy="-16">​</tspan></tspan><tspan style="font-weight:700">Chrome</tspan><tspan class="highcharts-br" dy="16" x="5">​</tspan>74.1 %</text></g><g style="cursor:pointer"><text x="5" data-z-index="1" y="18" style="color:#46465c;font-size:13px;font-weight:700;fill:#46465c" transform="translate(174 171)" class="highcharts-label highcharts-data-label highcharts-data-label-color-1"><tspan class="highcharts-text-outline" fill="#FFF" stroke="#FFF" stroke-width="2" stroke-linejoin="round"><tspan style="font-weight:700">Edge</tspan><tspan class="highcharts-br" dy="16" x="5">​</tspan>12.7 %<tspan x="5" dy="-16">​</tspan></tspan><tspan style="font-weight:700">Edge</tspan><tspan class="highcharts-br" dy="16" x="5">​</tspan>12.7 %</text></g><g style="cursor:pointer"><text x="5" data-z-index="1" y="18" style="color:#46465c;font-size:13px;font-weight:700;fill:#46465c" transform="translate(206 123)" class="highcharts-label highcharts-data-label highcharts-data-label-color-2"><tspan class="highcharts-text-outline" fill="#FFF" stroke="#FFF" stroke-width="2" stroke-linejoin="round"><tspan style="font-weight:700">Firefox</tspan><tspan class="highcharts-br" dy="16" x="5">​</tspan>5.0 %<tspan x="5" dy="-16">​</tspan></tspan><tspan style="font-weight:700">Firefox</tspan><tspan class="highcharts-br" dy="16" x="5">​</tspan>5.0 %</text></g></g></svg>