<svg class="highcharts-root" style="font-family:&quot;IBM Plex Sans&quot;,sans-serif;font-size:12px" xmlns="http://www.w3.org/2000/svg" width="600" height="400" aria-label="Interactive chart" aria-hidden="false"><rect fill="#f0f0f0" class="highcharts-background" width="600" height="400" rx="0" ry="0" aria-hidden="true"/><path fill="none" class="highcharts-plot-background" aria-hidden="true" d="M10 68h580v317H10z"/><path fill="none" class="highcharts-plot-border" data-z-index="1" aria-hidden="true" d="M10 68h580v317H10z"/><g class="highcharts-series-group" data-z-index="3" aria-hidden="false"><g class="highcharts-series highcharts-series-0 highcharts-pie-series highcharts-tracker" data-z-index=".1" aria-hidden="false" stroke="#BBBAC5" stroke-linejoin="round"><path fill="#8087E8" d="M289.972 32a137.5 137.5 0 1 1-91.79 239.851L290 169.5Z" transform="translate(10 68)" class="highcharts-point highcharts-color-0 highcharts-drilldown-point" style="cursor:pointer;outline:0" tabindex="-1" aria-label="Chrome, 61.04%. Browsers."/><path fill="#A3EDBA" d="M198.08 271.76a137.5 137.5 0 0 1-41.685-69.764L290 169.5Z" transform="translate(10 68)" class="highcharts-point highcharts-color-1 highcharts-drilldown-point" style="cursor:pointer;outline:0" tabindex="-1" aria-label="Safari, 9.47%. Browsers."/><path fill="#F19E53" d="M156.363 201.862a137.5 137.5 0 0 1 4.635-79.95L290 169.5Z" transform="translate(10 68)" class="highcharts-point highcharts-color-2 highcharts-drilldown-point" style="cursor:pointer;outline:0" tabindex="-1" aria-label="Edge, 9.32%. Browsers."/><path fill="#6699A1" d="M161.045 121.783a137.5 137.5 0 0 1 40.334-57.414L290 169.5Z" transform="translate(10 68)" class="highcharts-point highcharts-color-3 highcharts-drilldown-point" style="cursor:pointer;outline:0" tabindex="-1" aria-label="Firefox, 8.15%. Browsers."/><path fill="#E1D369" d="M201.484 64.28A137.5 137.5 0 0 1 289.81 32l.19 137.5Z" transform="translate(10 68)" class="highcharts-point highcharts-color-4" tabindex="-1" aria-label="Other, 11.02%. Browsers." style="outline:0"/></g></g><text x="300" text-anchor="middle" class="highcharts-title" data-z-index="4" style="color:#2f2b38;font-size:22px;font-weight:500;fill:#2f2b38" y="27" aria-hidden="true">Browser market shares. January, 2022</text><text x="300" text-anchor="middle" class="highcharts-subtitle" data-z-index="4" style="color:#2f2b38;font-size:16px;font-weight:400;fill:#2f2b38" y="52" aria-hidden="true">Click the slices to view versions. Source: <a target="_blank"><tspan>statcounter.com</tspan></a></text><g class="highcharts-data-labels highcharts-series-0 highcharts-pie-series highcharts-tracker" data-z-index="6" aria-hidden="true"><path fill="none" class="highcharts-data-label-connector highcharts-color-0" stroke="#8087E8" d="M461.394 297.477c-5 0-21.807-6.445-27.409-8.594l-5.602-2.148"/><path fill="none" class="highcharts-data-label-connector highcharts-color-1" stroke="#A3EDBA" d="M151.151 323.313c5 0 20.459-9.222 25.612-12.296l5.152-3.074"/><path fill="none" class="highcharts-data-label-connector highcharts-color-2" stroke="#F19E53" d="M127.785 227.725c5 0 22.97 1.05 28.96 1.4l5.99.351"/><path fill="none" class="highcharts-data-label-connector highcharts-color-3" stroke="#6699A1" d="M157.975 141.165c5 0 19.725 10.352 24.634 13.803l4.908 3.45"/><path fill="none" class="highcharts-data-label-connector highcharts-color-4" stroke="#E1D369" d="M237.612 80.138c5 0 11.167 16.91 13.223 22.547l2.055 5.637"/><g style="cursor:pointer"><text x="5" data-z-index="1" y="18" style="color:#2f2b38;font-size:13px;font-weight:700;fill:#2f2b38;text-decoration:underline" transform="translate(466 287)" class="highcharts-label highcharts-data-label highcharts-data-label-color-0 highcharts-drilldown-data-label"><tspan class="highcharts-text-outline" fill="#FFF" stroke="#FFF" stroke-width="2" stroke-linejoin="round">Chrome: 61.0%<tspan x="5" dy="0">​</tspan></tspan>Chrome: 61.0%</text></g><g style="cursor:pointer"><text x="5" data-z-index="1" y="18" style="color:#2f2b38;font-size:13px;font-weight:700;fill:#2f2b38;text-decoration:underline" transform="translate(62 313)" class="highcharts-label highcharts-data-label highcharts-data-label-color-1 highcharts-drilldown-data-label"><tspan class="highcharts-text-outline" fill="#FFF" stroke="#FFF" stroke-width="2" stroke-linejoin="round">Safari: 9.5%<tspan x="5" dy="0">​</tspan></tspan>Safari: 9.5%</text></g><g style="cursor:pointer"><text x="5" data-z-index="1" y="18" style="color:#2f2b38;font-size:13px;font-weight:700;fill:#2f2b38;text-decoration:underline" transform="translate(43 218)" class="highcharts-label highcharts-data-label highcharts-data-label-color-2 highcharts-drilldown-data-label"><tspan class="highcharts-text-outline" fill="#FFF" stroke="#FFF" stroke-width="2" stroke-linejoin="round">Edge: 9.3%<tspan x="5" dy="0">​</tspan></tspan>Edge: 9.3%</text></g><g style="cursor:pointer"><text x="5" data-z-index="1" y="18" style="color:#2f2b38;font-size:13px;font-weight:700;fill:#2f2b38;text-decoration:underline" transform="translate(62 131)" class="highcharts-label highcharts-data-label highcharts-data-label-color-3 highcharts-drilldown-data-label"><tspan class="highcharts-text-outline" fill="#FFF" stroke="#FFF" stroke-width="2" stroke-linejoin="round">Firefox: 8.2%<tspan x="5" dy="0">​</tspan></tspan>Firefox: 8.2%</text></g><text x="5" data-z-index="1" y="18" style="color:#46465c;font-size:13px;font-weight:700;fill:#46465c" transform="translate(144 70)" class="highcharts-label highcharts-data-label highcharts-data-label-color-4"><tspan class="highcharts-text-outline" fill="#FFF" stroke="#FFF" stroke-width="2" stroke-linejoin="round">Other: 11.0%<tspan x="5" dy="0">​</tspan></tspan>Other: 11.0%</text></g></svg>