<svg class="highcharts-root" style="font-family:&quot;IBM Plex Sans&quot;,sans-serif;font-size:12px" xmlns="http://www.w3.org/2000/svg" width="600" height="600" aria-label="Interactive chart" aria-hidden="false"><defs aria-hidden="true"><clipPath id="a"><path fill="none" d="M493.575 240a203.575 203.575 0 1 1 0-.204m-162.86.163a40.715 40.715 0 1 0 0 .041"/></clipPath><clipPath id="b"><path fill="none" d="M493.575 240a203.575 203.575 0 1 1 0-.204m-162.86.163a40.715 40.715 0 1 0 0 .041"/></clipPath><clipPath id="c"><path fill="none" d="M493.575 240a203.575 203.575 0 1 1 0-.204m-162.86.163a40.715 40.715 0 1 0 0 .041"/></clipPath></defs><rect fill="#f0f0f0" class="highcharts-background" width="600" height="600" rx="0" ry="0" aria-hidden="true"/><path fill="none" class="highcharts-plot-background" aria-hidden="true" d="M10 68h580v479H10z"/><g class="highcharts-grid highcharts-xaxis-grid highcharts-radial-axis-grid" data-z-index="1" aria-hidden="true" fill="none" stroke="#ccc"><path data-z-index="1" class="highcharts-grid-line" d="M300 136.497a171.003 171.003 0 1 1-171.003 171.174M300 307.5"/><path data-z-index="1" class="highcharts-grid-line" d="M300 169.069a138.431 138.431 0 1 1-138.43 138.57M300 307.5"/><path data-z-index="1" class="highcharts-grid-line" d="M300 201.641a105.859 105.859 0 1 1-105.859 105.965M300 307.5"/><path data-z-index="1" class="highcharts-grid-line" d="M300 234.213a73.287 73.287 0 1 1-73.287 73.36M300 307.5"/><path data-z-index="1" class="highcharts-grid-line" d="M300 266.785a40.715 40.715 0 1 1-40.715 40.756M300 307.5"/><path data-z-index="1" class="highcharts-grid-line" d="M300 266.785a40.715 40.715 0 1 1-40.715 40.756M300 307.5"/><path data-z-index="1" class="highcharts-grid-line" d="M300 103.925A203.575 203.575 0 1 1 96.425 307.704M300 307.5"/></g><g class="highcharts-grid highcharts-yaxis-grid highcharts-radial-axis-grid" data-z-index="1" aria-hidden="true" fill="none" stroke="#ccc"><path data-z-index="1" class="highcharts-grid-line" d="M300 266.785v-162.86m11.819 164.613 47.276-155.847M322.62 273.647l90.48-135.413M331.473 281.67l125.893-103.317m-119.75 113.566 150.463-62.324m-147.56 73.915 162.076-15.964m-162.662 27.897 159.73 31.773m-163.756-20.523 143.63 76.772M328.79 336.29l115.16 115.16M319.193 343.407l76.772 143.63m-88.022-139.604 31.773 159.73M296.01 348.019l-15.964 162.076m4.373-164.979-62.324 150.463m52.075-156.606L170.854 464.866m95.293-134.746L130.734 420.6m130.304-101.281-155.847 47.276M259.285 307.5H96.425"/></g><path fill="none" class="highcharts-plot-border" data-z-index="1" aria-hidden="true" d="M10 68h580v479H10z"/><g class="highcharts-axis highcharts-xaxis highcharts-radial-axis" data-z-index="2" aria-hidden="true"><path fill="none" class="highcharts-axis-line" data-z-index="7" d="M300 266.785v-162.86"/></g><g class="highcharts-axis highcharts-yaxis highcharts-radial-axis" data-z-index="2" aria-hidden="true"><path fill="none" class="highcharts-axis-line" data-z-index="7" d="M300 103.925A203.575 203.575 0 1 1 96.425 307.704M300 307.5"/></g><g class="highcharts-series-group" data-z-index="3" aria-hidden="false"><g class="highcharts-series highcharts-series-0 highcharts-column-series highcharts-color-0 highcharts-tracker" data-z-index=".1" clip-path="url(#a)" aria-hidden="false" tabindex="-1" aria-label="Gold medals, bar series 1 of 3 with 5 bars." style="outline:0" fill="gold" transform="translate(10 68)"><path d="M290 41.31a198.69 198.69 0 0 1 195.765 232.655l-22.465-3.898A175.889 175.889 0 0 0 290 64.111Z" class="highcharts-point highcharts-color-0" tabindex="-1" aria-label="Norway , 148. Gold medals." style="outline:0"/><path d="M290 73.883a166.117 166.117 0 0 1 161.334 126.542l-22.144 5.432A143.317 143.317 0 0 0 290 96.683Z" class="highcharts-point highcharts-color-0" tabindex="-1" aria-label="United States , 113. Gold medals." style="outline:0"/><path d="M290 106.455a133.545 133.545 0 0 1 125.605 88.183l-21.445 7.744A110.745 110.745 0 0 0 290 129.255Z" class="highcharts-point highcharts-color-0" tabindex="-1" aria-label="Germany , 104. Gold medals." style="outline:0"/><path d="M290 139.027a100.973 100.973 0 0 1 74.882 33.236l-16.91 15.295A78.173 78.173 0 0 0 290 161.828Z" class="highcharts-point highcharts-color-0" tabindex="-1" aria-label="Austria , 71. Gold medals." style="outline:0"/><path d="M290 171.599a68.401 68.401 0 0 1 53.84 26.212l-17.946 14.063A45.6 45.6 0 0 0 290 194.399Z" class="highcharts-point highcharts-color-0" tabindex="-1" aria-label="Canada , 77. Gold medals." style="outline:0"/></g><g class="highcharts-series highcharts-series-1 highcharts-column-series highcharts-color-1 highcharts-tracker" data-z-index=".1" clip-path="url(#b)" aria-hidden="false" tabindex="-1" aria-label="Silver medals, bar series 2 of 3 with 5 bars." style="outline:0" fill="silver" transform="translate(10 68)"><path d="M485.73 274.16a198.69 198.69 0 0 1-182.277 164.073l-1.544-22.748a175.889 175.889 0 0 0 161.36-145.245Z" class="highcharts-point highcharts-color-1" tabindex="-1" aria-label="Norway , 113. Silver medals." style="outline:0"/><path d="M451.374 200.587A166.117 166.117 0 0 1 350.699 394.63l-8.33-21.224a143.317 143.317 0 0 0 86.855-167.41Z" class="highcharts-point highcharts-color-1" tabindex="-1" aria-label="United States , 122. Silver medals." style="outline:0"/><path d="M415.65 194.763a133.545 133.545 0 0 1-33.374 141.774l-15.754-16.482a110.745 110.745 0 0 0 27.676-117.568Z" class="highcharts-point highcharts-color-1" tabindex="-1" aria-label="Germany , 98. Silver medals." style="outline:0"/><path d="M364.95 172.338a100.973 100.973 0 0 1 21.472 97.635l-21.773-6.768a78.173 78.173 0 0 0-16.624-75.589Z" class="highcharts-point highcharts-color-1" tabindex="-1" aria-label="Austria , 88. Silver medals." style="outline:0"/><path d="M343.883 197.865a68.401 68.401 0 0 1 13.369 54.62l-22.417-4.161a45.6 45.6 0 0 0-8.913-36.414Z" class="highcharts-point highcharts-color-1" tabindex="-1" aria-label="Canada , 72. Silver medals." style="outline:0"/></g><g class="highcharts-series highcharts-series-2 highcharts-column-series highcharts-color-2 highcharts-tracker" data-z-index=".1" clip-path="url(#c)" aria-hidden="false" tabindex="-1" aria-label="Bronze medals, bar series 3 of 3 with 5 bars." style="outline:0" fill="#CD7F32" transform="translate(10 68)"><path d="M303.254 438.247A198.69 198.69 0 0 1 94.44 275.124l22.441-4.03a175.889 175.889 0 0 0 184.852 144.403Z" class="highcharts-point highcharts-color-2" tabindex="-1" aria-label="Norway , 124. Bronze medals." style="outline:0"/><path d="M350.545 394.69a166.117 166.117 0 0 1-173.183-32.594l15.46-16.758a143.317 143.317 0 0 0 149.413 28.12Z" class="highcharts-point highcharts-color-2" tabindex="-1" aria-label="United States , 95. Bronze medals." style="outline:0"/><path d="M382.18 336.63a133.545 133.545 0 0 1-92.57 36.915l.066-22.8a110.745 110.745 0 0 0 76.766-30.613Z" class="highcharts-point highcharts-color-2" tabindex="-1" aria-label="Germany , 65. Bronze medals." style="outline:0"/><path d="M386.392 270.069a100.973 100.973 0 0 1-76.594 68.944l-4.47-22.358a78.173 78.173 0 0 0 59.298-53.376Z" class="highcharts-point highcharts-color-2" tabindex="-1" aria-label="Austria , 91. Bronze medals." style="outline:0"/><path d="M357.24 252.553a68.401 68.401 0 0 1-34.936 47.74l-10.768-20.098a45.6 45.6 0 0 0 23.29-31.826Z" class="highcharts-point highcharts-color-2" tabindex="-1" aria-label="Canada , 76. Bronze medals." style="outline:0"/></g></g><text x="300" text-anchor="middle" class="highcharts-title" data-z-index="4" style="color:#2f2b38;font-size:22px;font-weight:500;fill:#2f2b38" y="27" aria-hidden="true">Winter Olympic medals per existing country (TOP 5)</text><text x="300" text-anchor="middle" class="highcharts-subtitle" data-z-index="4" style="color:#2f2b38;font-size:16px;font-weight:400;fill:#2f2b38" y="52" aria-hidden="true">Source: <a target="_blank"><tspan>Wikipedia</tspan></a></text><g class="highcharts-legend highcharts-no-tooltip" data-z-index="7" transform="translate(131 559)" aria-hidden="true"><rect fill="#f0f0f0" class="highcharts-legend-box" rx="2" ry="2" stroke="#BBBAC5" x=".5" y=".5" width="337" height="25"/><g data-z-index="1"><g class="highcharts-legend-item highcharts-column-series highcharts-color-0 highcharts-series-0" data-z-index="1" transform="translate(8 3)"><text x="21" data-z-index="2" y="15" style="color:#2f2b38;cursor:pointer;font-size:12px;font-weight:400;fill:#2f2b38">Gold medals</text><rect x="2" y="4" width="12" height="12" fill="gold" rx="6" ry="6" class="highcharts-point" data-z-index="3"/></g><g class="highcharts-legend-item highcharts-column-series highcharts-color-1 highcharts-series-1" data-z-index="1" transform="translate(116.367 3)"><text x="21" y="15" data-z-index="2" style="color:#2f2b38;cursor:pointer;font-size:12px;font-weight:400;fill:#2f2b38">Silver medals</text><rect x="2" y="4" width="12" height="12" fill="silver" rx="6" ry="6" class="highcharts-point" data-z-index="3"/></g><g class="highcharts-legend-item highcharts-column-series highcharts-color-2 highcharts-series-2" data-z-index="1" transform="translate(229.39 3)"><text x="21" y="15" data-z-index="2" style="color:#2f2b38;cursor:pointer;font-size:12px;font-weight:400;fill:#2f2b38">Bronze medals</text><rect x="2" y="4" width="12" height="12" fill="#CD7F32" rx="6" ry="6" class="highcharts-point" data-z-index="3"/></g></g></g><g class="highcharts-axis-labels highcharts-xaxis-labels highcharts-radial-axis-labels" data-z-index="7" aria-hidden="true" text-anchor="end"><text x="297" style="color:#46465c;cursor:default;font-size:13px;fill:#46465c" y="123.211">Norway </text><text x="297" style="color:#46465c;cursor:default;font-size:13px;fill:#46465c" y="155.783">United States </text><text x="297" style="color:#46465c;cursor:default;font-size:13px;fill:#46465c" y="188.355">Germany </text><text x="297" style="color:#46465c;cursor:default;font-size:13px;fill:#46465c" y="220.927">Austria </text><text x="297" style="color:#46465c;cursor:default;font-size:13px;fill:#46465c" y="253.499">Canada </text></g><g class="highcharts-axis-labels highcharts-yaxis-labels highcharts-radial-axis-labels" data-z-index="7" aria-hidden="true"><text x="300" text-anchor="middle" style="color:#46465c;cursor:default;font-size:12px;fill:#46465c" y="94.175">0</text><text x="363.449" style="color:#46465c;cursor:default;font-size:12px;fill:#46465c" text-anchor="middle" y="103.587">25</text><text x="421.434" style="color:#46465c;cursor:default;font-size:12px;fill:#46465c" y="131.012">50</text><text x="468.961" style="color:#46465c;cursor:default;font-size:12px;fill:#46465c" y="174.087">75</text><text x="501.937" style="color:#46465c;cursor:default;font-size:12px;fill:#46465c" y="229.105">100</text><text x="517.523" style="color:#46465c;cursor:default;font-size:12px;fill:#46465c" y="291.326">125</text><text x="514.375" style="color:#46465c;cursor:default;font-size:12px;fill:#46465c" y="355.392">150</text><text x="492.766" style="color:#46465c;cursor:default;font-size:12px;fill:#46465c" y="415.786">175</text><text x="454.556" style="color:#46465c;cursor:default;font-size:12px;fill:#46465c" y="467.306">200</text><text x="403.036" style="color:#46465c;cursor:default;font-size:12px;fill:#46465c" y="505.516">225</text><text x="342.642" style="color:#46465c;cursor:default;font-size:12px;fill:#46465c" text-anchor="middle" y="527.125">250</text><text x="278.576" style="color:#46465c;cursor:default;font-size:12px;fill:#46465c" text-anchor="middle" y="530.273">275</text><text x="216.355" style="color:#46465c;cursor:default;font-size:12px;fill:#46465c" text-anchor="end" y="514.687">300</text><text x="161.337" style="color:#46465c;cursor:default;font-size:12px;fill:#46465c" text-anchor="end" y="481.711">325</text><text x="118.262" style="color:#46465c;cursor:default;font-size:12px;fill:#46465c" text-anchor="end" y="434.184">350</text><text x="90.837" style="color:#46465c;cursor:default;font-size:12px;fill:#46465c" text-anchor="end" y="376.199">375</text><text x="81.425" style="color:#46465c;cursor:default;font-size:12px;fill:#46465c" text-anchor="end" y="312.75">400</text></g></svg>