<svg class="highcharts-root" style="font-family:&quot;IBM Plex Sans&quot;,sans-serif;font-size:12px" xmlns="http://www.w3.org/2000/svg" width="600" height="400" aria-label="Interactive chart" aria-hidden="false"><defs aria-hidden="true"><clipPath id="a"><path fill="none" d="M0 0h401v277H0z"/></clipPath></defs><rect fill="#f0f0f0" class="highcharts-background" width="600" height="400" rx="0" ry="0" aria-hidden="true"/><path fill="none" class="highcharts-plot-background" aria-hidden="true" d="M69 68h401v277H69z"/><g class="highcharts-grid highcharts-xaxis-grid" data-z-index="1" aria-hidden="true" fill="none" stroke="#ccc"><path data-z-index="1" class="highcharts-grid-line" d="M68.5 68v277m67-277v277m67-277v277m67-277v277m66-277v277m67-277v277m68-277v277"/></g><g class="highcharts-grid highcharts-yaxis-grid" data-z-index="1" aria-hidden="true" fill="none" stroke="#ccc"><path data-z-index="1" class="highcharts-grid-line" d="M69 345.5h401m-401-55h401m-401-56h401m-401-55h401m-401-56h401m-401-56h401"/></g><path fill="none" class="highcharts-plot-border" data-z-index="1" aria-hidden="true" d="M69 68h401v277H69z"/><g class="highcharts-axis highcharts-xaxis" data-z-index="2" aria-hidden="true"><path fill="none" class="highcharts-tick" stroke="#ccc" d="M68.5 345v10m67-10v10m67-10v10m67-10v10m66-10v10m67-10v10m68-10v10"/><text x="269.5" data-z-index="7" text-anchor="middle" class="highcharts-axis-title" style="color:#2f2b38;fill:#2f2b38" y="383.5">Height (cm)</text><path fill="none" class="highcharts-axis-line" stroke="#ccc" data-z-index="7" d="M69 345.5h401"/></g><g class="highcharts-axis highcharts-yaxis" data-z-index="2" aria-hidden="true"><path fill="none" class="highcharts-tick" stroke="#ccc" d="M69 345.5H59m10-55H59m10-56H59m10-55H59m10-56H59m10-56H59"/><text x="23.977" data-z-index="7" text-anchor="middle" transform="rotate(-90 23.977 206.5)" class="highcharts-axis-title" style="color:#2f2b38;font-weight:300;fill:#2f2b38" y="206.5">Weight (kg)</text><path fill="none" class="highcharts-axis-line" data-z-index="7" d="M69 68v277"/></g><g class="highcharts-series-group" data-z-index="3" aria-hidden="false"><g class="highcharts-series highcharts-series-0 highcharts-polygon-series" data-z-index=".1" clip-path="url(#a)" aria-hidden="true" transform="translate(69 68)"><path fill="rgba(128,135,232,0.5)" d="m106.933 216.06-13.366-11.08v-24.93l13.366-24.93L120.3 138.5l80.2-55.4 147.033-27.7L360.9 83.1 240.6 188.36l-93.567 19.39Z" class="highcharts-area" data-z-index="0"/><path fill="none" d="m106.933 216.06-13.366-11.08v-24.93l13.366-24.93L120.3 138.5l80.2-55.4 147.033-27.7L360.9 83.1 240.6 188.36l-93.567 19.39Z" class="highcharts-graph" data-z-index="1"/></g><g class="highcharts-markers highcharts-series-1 highcharts-scatter-series highcharts-tracker" data-z-index=".1" aria-hidden="false" tabindex="-1" aria-label="Observations, series 2 of 2, scatter plot with 55 points." style="outline:0" fill="#A3EDBA"><path d="m387 84.917 4 4-4 4-4-4Z" class="highcharts-point" tabindex="-1" aria-label="Netherlands, 87.9. Observations." style="outline:0" transform="translate(69 68)"/><path d="m374 77.992 4 4-4 4-4-4Z" class="highcharts-point" tabindex="-1" aria-label="Montenegro, 90.4. Observations." style="outline:0" transform="translate(69 68)"/><path d="m360 79.377 4 4-4 4-4-4Z" class="highcharts-point" tabindex="-1" aria-label="Estonia, 89.9. Observations." style="outline:0" transform="translate(69 68)"/><path d="m360 87.964 4 4-4 4-4-4Z" class="highcharts-point" tabindex="-1" aria-label="Denmark, 86.8. Observations." style="outline:0" transform="translate(69 68)"/><path d="m347 81.316 4 4-4 4-4-4Z" class="highcharts-point" tabindex="-1" aria-label="Iceland, 89.2. Observations." style="outline:0" transform="translate(69 68)"/><path d="m347 79.377 4 4-4 4-4-4Z" class="highcharts-point" tabindex="-1" aria-label="Czechia, 89.9. Observations." style="outline:0" transform="translate(69 68)"/><path d="m334 79.377 4 4-4 4-4-4Z" class="highcharts-point" tabindex="-1" aria-label="Serbia, 89.9. Observations." style="outline:0" transform="translate(69 68)"/><path d="m334 79.377 4 4-4 4-4-4Z" class="highcharts-point" tabindex="-1" aria-label="Sweden, 89.9. Observations." style="outline:0" transform="translate(69 68)"/><path d="m334 81.593 4 4-4 4-4-4Z" class="highcharts-point" tabindex="-1" aria-label="Norway, 89.1. Observations." style="outline:0" transform="translate(69 68)"/><path d="m334 104.861 4 4-4 4-4-4Z" class="highcharts-point" tabindex="-1" aria-label="Dominica, 80.7. Observations." style="outline:0" transform="translate(69 68)"/><path d="m334 89.349 4 4-4 4-4-4Z" class="highcharts-point" tabindex="-1" aria-label="Finland, 86.3. Observations." style="outline:0" transform="translate(69 68)"/><path d="m320 83.532 4 4-4 4-4-4Z" class="highcharts-point" tabindex="-1" aria-label="Bermuda, 88.4. Observations." style="outline:0" transform="translate(69 68)"/><path d="m320 77.161 4 4-4 4-4-4Z" class="highcharts-point" tabindex="-1" aria-label="Puerto Rico, 90.7. Observations." style="outline:0" transform="translate(69 68)"/><path d="m307 95.443 4 4-4 4-4-4Z" class="highcharts-point" tabindex="-1" aria-label="Belarus, 84.1. Observations." style="outline:0" transform="translate(69 68)"/><path d="m307 41.151 4 4-4 4-4-4Z" class="highcharts-point" tabindex="-1" aria-label="Cook Islands, 103.7. Observations." style="outline:0" transform="translate(69 68)"/><path d="m294 54.724 4 4-4 4-4-4Z" class="highcharts-point" tabindex="-1" aria-label="Niue, 98.8. Observations." style="outline:0" transform="translate(69 68)"/><path d="m294 42.536 4 4-4 4-4-4Z" class="highcharts-point" tabindex="-1" aria-label="American Samoa, 103.2. Observations." style="outline:0" transform="translate(69 68)"/><path d="m280 105.969 4 4-4 4-4-4Z" class="highcharts-point" tabindex="-1" aria-label="Russia, 80.3. Observations." style="outline:0" transform="translate(69 68)"/><path d="m280 76.053 4 4-4 4-4-4Z" class="highcharts-point" tabindex="-1" aria-label="Saint Lucia, 91.1. Observations." style="outline:0" transform="translate(69 68)"/><path d="m267 142.81 4 4-4 4-4-4Z" class="highcharts-point" tabindex="-1" aria-label="Senegal, 67. Observations." style="outline:0" transform="translate(69 68)"/><path d="m267 68.851 4 4-4 4-4-4Z" class="highcharts-point" tabindex="-1" aria-label="Tonga, 93.7. Observations." style="outline:0" transform="translate(69 68)"/><path d="m253 121.758 4 4-4 4-4-4Z" class="highcharts-point" tabindex="-1" aria-label="Algeria, 74.6. Observations." style="outline:0" transform="translate(69 68)"/><path d="m253 93.781 4 4-4 4-4-4Z" class="highcharts-point" tabindex="-1" aria-label="Argentina, 84.7. Observations." style="outline:0" transform="translate(69 68)"/><path d="m253 108.185 4 4-4 4-4-4Z" class="highcharts-point" tabindex="-1" aria-label="Portugal, 79.5. Observations." style="outline:0" transform="translate(69 68)"/><path d="m240 124.528 4 4-4 4-4-4Z" class="highcharts-point" tabindex="-1" aria-label="Mauritius, 73.6. Observations." style="outline:0" transform="translate(69 68)"/><path d="m240 74.114 4 4-4 4-4-4Z" class="highcharts-point" tabindex="-1" aria-label="Samoa, 91.8. Observations." style="outline:0" transform="translate(69 68)"/><path d="m227 135.885 4 4-4 4-4-4Z" class="highcharts-point" tabindex="-1" aria-label="Japan, 69.5. Observations." style="outline:0" transform="translate(69 68)"/><path d="m227 123.42 4 4-4 4-4-4Z" class="highcharts-point" tabindex="-1" aria-label="Bahrain, 74. Observations." style="outline:0" transform="translate(69 68)"/><path d="m213 150.843 4 4-4 4-4-4Z" class="highcharts-point" tabindex="-1" aria-label="Chad, 64.1. Observations." style="outline:0" transform="translate(69 68)"/><path d="m213 84.64 4 4-4 4-4-4Z" class="highcharts-point" tabindex="-1" aria-label="Tuvalu, 88. Observations." style="outline:0" transform="translate(69 68)"/><path d="m213 140.594 4 4-4 4-4-4Z" class="highcharts-point" tabindex="-1" aria-label="Sudan, 67.8. Observations." style="outline:0" transform="translate(69 68)"/><path d="m200 165.524 4 4-4 4-4-4Z" class="highcharts-point" tabindex="-1" aria-label="Eritrea, 58.8. Observations." style="outline:0" transform="translate(69 68)"/><path d="m200 151.397 4 4-4 4-4-4Z" class="highcharts-point" tabindex="-1" aria-label="Kenya, 63.9. Observations." style="outline:0" transform="translate(69 68)"/><path d="m200 121.481 4 4-4 4-4-4Z" class="highcharts-point" tabindex="-1" aria-label="Mongolia, 74.7. Observations." style="outline:0" transform="translate(69 68)"/><path d="m200 148.073 4 4-4 4-4-4Z" class="highcharts-point" tabindex="-1" aria-label="Nigeria, 65.1. Observations." style="outline:0" transform="translate(69 68)"/><path d="m187 70.79 4 4-4 4-4-4Z" class="highcharts-point" tabindex="-1" aria-label="Nauru, 93. Observations." style="outline:0" transform="translate(69 68)"/><path d="m187 103.753 4 4-4 4-4-4Z" class="highcharts-point" tabindex="-1" aria-label="Micronesia, 81.1. Observations." style="outline:0" transform="translate(69 68)"/><path d="m187 148.627 4 4-4 4-4-4Z" class="highcharts-point" tabindex="-1" aria-label="Ghana, 64.9. Observations." style="outline:0" transform="translate(69 68)"/><path d="m187 129.237 4 4-4 4-4-4Z" class="highcharts-point" tabindex="-1" aria-label="South Africa, 71.9. Observations." style="outline:0" transform="translate(69 68)"/><path d="m173 158.876 4 4-4 4-4-4Z" class="highcharts-point" tabindex="-1" aria-label="Vietnam, 61.2. Observations." style="outline:0" transform="translate(69 68)"/><path d="m173 145.857 4 4-4 4-4-4Z" class="highcharts-point" tabindex="-1" aria-label="Ivory Coast, 65.9. Observations." style="outline:0" transform="translate(69 68)"/><path d="m173 136.716 4 4-4 4-4-4Z" class="highcharts-point" tabindex="-1" aria-label="Maldives, 69.2. Observations." style="outline:0" transform="translate(69 68)"/><path d="m173 171.895 4 4-4 4-4-4Z" class="highcharts-point" tabindex="-1" aria-label="Ethiopia, 56.5. Observations." style="outline:0" transform="translate(69 68)"/><path d="m160 122.866 4 4-4 4-4-4Z" class="highcharts-point" tabindex="-1" aria-label="Ecuador, 74.2. Observations." style="outline:0" transform="translate(69 68)"/><path d="m160 160.815 4 4-4 4-4-4Z" class="highcharts-point" tabindex="-1" aria-label="Burundi, 60.5. Observations." style="outline:0" transform="translate(69 68)"/><path d="m147 135.608 4 4-4 4-4-4Z" class="highcharts-point" tabindex="-1" aria-label="India, 69.6. Observations." style="outline:0" transform="translate(69 68)"/><path d="m147 121.481 4 4-4 4-4-4Z" class="highcharts-point" tabindex="-1" aria-label="Brunei, 74.7. Observations." style="outline:0" transform="translate(69 68)"/><path d="m133 168.571 4 4-4 4-4-4Z" class="highcharts-point" tabindex="-1" aria-label="Bangladesh, 57.7. Observations." style="outline:0" transform="translate(69 68)"/><path d="m133 166.632 4 4-4 4-4-4Z" class="highcharts-point" tabindex="-1" aria-label="Madagascar, 58.4. Observations." style="outline:0" transform="translate(69 68)"/><path d="m133 157.214 4 4-4 4-4-4Z" class="highcharts-point" tabindex="-1" aria-label="Philippines, 61.8. Observations." style="outline:0" transform="translate(69 68)"/><path d="m120 160.815 4 4-4 4-4-4Z" class="highcharts-point" tabindex="-1" aria-label="Nepal, 60.5. Observations." style="outline:0" transform="translate(69 68)"/><path d="m120 136.993 4 4-4 4-4-4Z" class="highcharts-point" tabindex="-1" aria-label="Guatemala, 69.1. Observations." style="outline:0" transform="translate(69 68)"/><path d="m106 155.275 4 4-4 4-4-4Z" class="highcharts-point" tabindex="-1" aria-label="Yemen, 62.5. Observations." style="outline:0" transform="translate(69 68)"/><path d="m93 163.585 4 4-4 4-4-4Z" class="highcharts-point" tabindex="-1" aria-label="Laos, 59.5. Observations." style="outline:0" transform="translate(69 68)"/><path d="m53 179.097 4 4-4 4-4-4Z" class="highcharts-point" tabindex="-1" aria-label="Timor-Leste, 53.9. Observations." style="outline:0" transform="translate(69 68)"/></g></g><text x="300" text-anchor="middle" class="highcharts-title" data-z-index="4" style="color:#2f2b38;font-size:22px;font-weight:500;fill:#2f2b38" y="27" aria-hidden="true">Average height and weight for men by country</text><text x="300" text-anchor="middle" class="highcharts-subtitle" data-z-index="4" style="color:#2f2b38;font-size:16px;font-weight:400;fill:#2f2b38" y="52" aria-hidden="true">Source: <a target="_blank"><tspan>WorldData</tspan></a></text><g class="highcharts-legend highcharts-no-tooltip" data-z-index="7" transform="translate(482 177)" aria-hidden="true"><rect fill="#f0f0f0" class="highcharts-legend-box" rx="2" ry="2" stroke="#BBBAC5" x=".5" y=".5" width="106" height="40"/><g data-z-index="1"><g class="highcharts-legend-item highcharts-polygon-series highcharts-color-undefined highcharts-series-0" data-z-index="1" transform="translate(8 3)"><text x="21" data-z-index="2" y="15" style="color:#2f2b38;cursor:pointer;font-size:12px;font-weight:400;fill:#2f2b38">Target</text><rect x="2" y="4" width="12" height="12" fill="rgba(128,135,232,0.5)" rx="6" ry="6" class="highcharts-point" data-z-index="3"/></g><g class="highcharts-legend-item highcharts-scatter-series highcharts-color-undefined highcharts-series-1" data-z-index="1"><path fill="none" d="M8 29h16" class="highcharts-graph"/><path fill="#A3EDBA" d="m16 25 4 4-4 4-4-4Z" class="highcharts-point"/><text x="21" y="15" data-z-index="2" style="color:#2f2b38;cursor:pointer;font-size:12px;font-weight:400;fill:#2f2b38" transform="translate(8 18)">Observations</text></g></g></g><g class="highcharts-axis-labels highcharts-xaxis-labels" data-z-index="7" aria-hidden="true" text-anchor="middle"><text x="69" style="color:#46465c;cursor:default;font-size:12px;fill:#46465c" y="365">155</text><text x="135.833" style="color:#46465c;cursor:default;font-size:12px;fill:#46465c" y="365">160</text><text x="202.667" style="color:#46465c;cursor:default;font-size:12px;fill:#46465c" y="365">165</text><text x="269.5" style="color:#46465c;cursor:default;font-size:12px;fill:#46465c" y="365">170</text><text x="336.333" style="color:#46465c;cursor:default;font-size:12px;fill:#46465c" y="365">175</text><text x="403.167" style="color:#46465c;cursor:default;font-size:12px;fill:#46465c" y="365">180</text><text x="470" style="color:#46465c;cursor:default;font-size:12px;fill:#46465c" y="365">185</text></g><g class="highcharts-axis-labels highcharts-yaxis-labels" data-z-index="7" aria-hidden="true" text-anchor="end"><text x="54" style="color:#46465c;cursor:default;font-size:12px;fill:#46465c" y="350">20</text><text x="54" style="color:#46465c;cursor:default;font-size:12px;fill:#46465c" y="295">40</text><text x="54" style="color:#46465c;cursor:default;font-size:12px;fill:#46465c" y="239">60</text><text x="54" style="color:#46465c;cursor:default;font-size:12px;fill:#46465c" y="184">80</text><text x="54" style="color:#46465c;cursor:default;font-size:12px;fill:#46465c" y="129">100</text><text x="54" style="color:#46465c;cursor:default;font-size:12px;fill:#46465c" y="73">120</text></g></svg>