<svg class="highcharts-root" style="font-family:&quot;IBM Plex Sans&quot;,sans-serif;font-size:12px" xmlns="http://www.w3.org/2000/svg" width="600" height="400" aria-label="Interactive chart" aria-hidden="false"><defs aria-hidden="true"><linearGradient x1="117" x2="453" y1="324.338" y2="324.338" id="b" gradientUnits="userSpaceOnUse"><stop offset="0" stop-color="#4D54B5"/><stop offset=".5" stop-color="#8087E8"/><stop offset="1" stop-color="#4D54B5"/></linearGradient><linearGradient x1="228.2" x2="341.8" y1="120.769" y2="120.769" id="c" gradientUnits="userSpaceOnUse"><stop offset="0" stop-color="#70BA87"/><stop offset=".5" stop-color="#A3EDBA"/><stop offset="1" stop-color="#70BA87"/></linearGradient><linearGradient x1="257.437" x2="312.563" y1="70.122" y2="70.122" id="d" gradientUnits="userSpaceOnUse"><stop offset="0" stop-color="#BE6B20"/><stop offset=".5" stop-color="#F19E53"/><stop offset="1" stop-color="#BE6B20"/></linearGradient><linearGradient x1="271.795" x2="298.205" y1="45.674" y2="45.674" id="e" gradientUnits="userSpaceOnUse"><stop offset="0" stop-color="#33666E"/><stop offset=".5" stop-color="#6699A1"/><stop offset="1" stop-color="#33666E"/></linearGradient><linearGradient x1="278.956" x2="291.044" y1="33.728" y2="33.728" id="f" gradientUnits="userSpaceOnUse"><stop offset="0" stop-color="#AEA036"/><stop offset=".5" stop-color="#E1D369"/><stop offset="1" stop-color="#AEA036"/></linearGradient><filter id="a"><feComponentTransfer><feFuncA type="table" tableValues="0 1"/></feComponentTransfer></filter></defs><rect fill="#f0f0f0" class="highcharts-background" width="600" height="400" rx="0" ry="0" aria-hidden="true"/><path d="M31.871 371.424H578.13l5.317 11.48H26.554Zm551.556 12.43H25.597l.957-.95h556.892Z" class="highcharts-3d-frame highcharts-3d-frame-bottom" data-z-index="-1000" aria-hidden="true" fill="none"/><g stroke-linejoin="round" class="highcharts-3d-frame highcharts-3d-frame-left" data-z-index="-1000" aria-hidden="true" fill="none"><path d="m24.697 51.405.87.106L20 56.886h-1Z"/><path d="m25.568 51.51 6.303 319.914-5.317 11.48L20 56.885Z"/><path d="M25.597 383.854 19 56.886h1l6.554 326.017Z"/></g><g stroke-linejoin="round" class="highcharts-3d-frame highcharts-3d-frame-back" data-z-index="-1000" aria-hidden="true" fill="none"><path d="M24.697 51.405h559.626l.11.106H25.567Z"/><path d="M25.568 51.51h558.864l-6.303 319.914H31.87Z"/></g><path fill="none" class="highcharts-plot-background" aria-hidden="true" d="M20 50h570v335H20z"/><g class="highcharts-grid highcharts-yaxis-grid" data-z-index="1" aria-hidden="true" fill="none"><path data-z-index="1" class="highcharts-grid-line" d="M31.88 371.89h546.24M26.564 383.379l5.316-11.487m-1.777-90.187h549.794m-555.18 9.797 5.386-9.797m-1.781-90.409h553.356m-558.813 8.079 5.457-8.079m-1.824-92.558h557.004m-562.534 6.294 5.53-6.294m4.497 228.206h548.01M25.643 337.592l5.352-10.648m-1.789-90.774h551.588m-557.01 8.935 5.422-8.934m-1.793-91.001h555.174m-560.668 7.192 5.494-7.193M25.577 52h558.846M20.01 57.383l5.567-5.385"/></g><path fill="none" class="highcharts-plot-border" data-z-index="1" aria-hidden="true" d="M20 50h570v335H20z"/><g class="highcharts-axis highcharts-yaxis" data-z-index="2" aria-hidden="true" fill="none" stroke="#ccc"><path class="highcharts-tick" d="M26.564 383.378h-9.77m7.923-91.876h-9.835m7.983-92.127h-9.9m8.003-94.343h-9.966m14.641 232.56h-9.802m7.943-92.487h-9.867m8.003-92.743h-9.933m8.003-95.974h-10"/></g><g class="highcharts-series-group" data-z-index="3" aria-hidden="false"><g class="highcharts-markers highcharts-series-0 highcharts-pyramid3d-series highcharts-tracker" data-z-index="10" aria-hidden="false" stroke-linejoin="round" stroke-width="0"><g data-z-index="285102186" stroke="#8087E8" class="highcharts-point highcharts-color-0" tabindex="-1" aria-label="Website visits, 15,654. Unique users." style="outline:0"><path fill="#4D54B5" d="M468.142 328.404c22.539 20.345-35.375 41.241-131.993 45.268-97.952 4.083-187.617-11.112-198.12-32.44-9.758-19.818 53.523-37.478 139.667-40.613 85.114-3.097 169.47 8.85 190.446 27.785" class="highcharts-3d-bottom" data-z-index="0" stroke="none"/><g class="highcharts-funnel3d-lower-group" data-z-index="0" filter="url(#a)" transform="translate(20 50)"/><g class="highcharts-funnel3d-upper-group" data-z-index="2" filter="url(#a)" fill="url(#b)" stroke="none" transform="translate(20 50)"><path d="M228.866 113.465c-4.711-4.655 16.22-8.996 46.49-9.787 30.142-.787 59.31 2.217 65.338 6.8l107.448 167.926c-20.977-18.934-105.332-30.882-190.446-27.785-86.144 3.135-149.425 20.795-139.667 40.613Z" class="highcharts-3d-backUpper" data-z-index="1"/><path d="M340.694 110.477c6.178 4.697-14.14 9.293-45.61 10.153-31.61.865-61.388-2.393-66.218-7.165L118.03 291.232c10.503 21.328 100.168 36.523 198.12 32.44 96.618-4.027 154.532-24.923 131.993-45.268Z" class="highcharts-3d-frontUpper" data-z-index="2"/><path d="M341.134 113.465c-4.83 4.772-34.608 8.03-66.218 7.165-31.47-.86-51.788-5.456-45.61-10.153L121.858 278.404c-22.539 20.345 35.375 41.241 131.993 45.268 97.952 4.083 187.617-11.112 198.12-32.44Z" class="highcharts-3d-rightUpper" data-z-index="2"/></g><path fill="#99A0FF" d="M360.694 160.477c6.178 4.697-14.14 9.293-45.61 10.153-31.61.865-61.388-2.393-66.218-7.165-4.711-4.655 16.22-8.996 46.49-9.787 30.142-.787 59.31 2.217 65.338 6.8" class="highcharts-3d-top" data-z-index="3" stroke="none"/></g><g data-z-index="285102649" stroke="#A3EDBA" class="highcharts-point highcharts-color-1" tabindex="-1" aria-label="Downloads, 4,064. Unique users." style="outline:0"><path fill="#70BA87" d="M360.694 160.477c6.178 4.697-14.14 9.293-45.61 10.153-31.61.865-61.388-2.393-66.218-7.165-4.711-4.655 16.22-8.996 46.49-9.787 30.142-.787 59.31 2.217 65.338 6.8" class="highcharts-3d-bottom" data-z-index="0" stroke="none"/><g class="highcharts-funnel3d-lower-group" data-z-index="0" filter="url(#a)" transform="translate(20 50)"/><g class="highcharts-funnel3d-upper-group" data-z-index="2" filter="url(#a)" fill="url(#c)" stroke="none" transform="translate(20 50)"><path d="M257.81 67.044c-2.47-1.993 7.618-3.874 22.456-4.22 14.807-.344 29.04.966 31.821 2.944l28.607 44.71c-6.028-4.583-35.196-7.587-65.338-6.8-30.27.79-51.201 5.132-46.49 9.787Z" class="highcharts-3d-backUpper" data-z-index="1"/><path d="M312.087 65.768c2.814 2.002-7.13 3.936-22.25 4.296-15.152.36-29.53-1.002-32.028-3.02l-28.943 46.421c4.83 4.772 34.608 8.03 66.218 7.165 31.47-.86 51.788-5.456 45.61-10.153Z" class="highcharts-3d-frontUpper" data-z-index="2"/><path d="M312.19 67.044c-2.498 2.018-16.875 3.38-32.028 3.02-15.12-.36-25.063-2.294-22.249-4.296l-28.607 44.71c-6.178 4.696 14.14 9.292 45.61 10.152 31.61.865 61.388-2.393 66.218-7.165Z" class="highcharts-3d-rightUpper" data-z-index="2"/></g><path fill="#BCFFD3" d="M332.087 115.768c2.814 2.002-7.13 3.936-22.25 4.296-15.152.36-29.53-1.002-32.028-3.02-2.468-1.993 7.619-3.874 22.457-4.22 14.807-.344 29.04.966 31.821 2.944" class="highcharts-3d-top" data-z-index="3" stroke="none"/></g><g data-z-index="285102875" stroke="#F19E53" class="highcharts-point highcharts-color-2" tabindex="-1" aria-label="Requested price list, 1,987. Unique users." style="outline:0"><path fill="#BE6B20" d="M332.087 115.768c2.814 2.002-7.13 3.936-22.25 4.296-15.152.36-29.53-1.002-32.028-3.02-2.468-1.993 7.619-3.874 22.457-4.22 14.807-.344 29.04.966 31.821 2.944" class="highcharts-3d-bottom" data-z-index="0" stroke="none"/><g class="highcharts-funnel3d-lower-group" data-z-index="0" filter="url(#a)" transform="translate(20 50)"/><g class="highcharts-funnel3d-upper-group" data-z-index="2" filter="url(#a)" fill="url(#d)" stroke="none" transform="translate(20 50)"><path d="M271.986 44.307c-1.226-.892 3.59-1.739 10.733-1.895 7.137-.156 13.974.436 15.271 1.325l14.097 22.031c-2.78-1.978-17.014-3.288-31.821-2.943-14.838.345-24.925 2.226-22.457 4.22Z" class="highcharts-3d-backUpper" data-z-index="1"/><path d="M297.99 43.737c1.305.894-3.477 1.752-10.685 1.911-7.216.16-14.086-.443-15.319-1.34l-14.177 22.736c2.499 2.018 16.876 3.38 32.029 3.02 15.12-.36 25.063-2.294 22.249-4.296Z" class="highcharts-3d-frontUpper" data-z-index="2"/><path d="M298.014 44.307c-1.233.898-8.103 1.5-15.319 1.341-7.208-.159-11.99-1.017-10.685-1.911l-14.097 22.031c-2.814 2.002 7.13 3.936 22.25 4.296 15.152.36 29.53-1.002 32.028-3.02Z" class="highcharts-3d-rightUpper" data-z-index="2"/></g><path fill="#FFB76C" d="M317.99 93.737c1.305.894-3.477 1.752-10.685 1.911-7.216.16-14.086-.443-15.319-1.34-1.226-.893 3.59-1.74 10.733-1.896 7.137-.156 13.974.436 15.271 1.325" class="highcharts-3d-top" data-z-index="3" stroke="none"/></g><g data-z-index="285102986" stroke="#6699A1" class="highcharts-point highcharts-color-3" tabindex="-1" aria-label="Invoice sent, 976. Unique users." style="outline:0"><path fill="#33666E" d="M317.99 93.737c1.305.894-3.477 1.752-10.685 1.911-7.216.16-14.086-.443-15.319-1.34-1.226-.893 3.59-1.74 10.733-1.896 7.137-.156 13.974.436 15.271 1.325" class="highcharts-3d-bottom" data-z-index="0" stroke="none"/><g class="highcharts-funnel3d-lower-group" data-z-index="0" filter="url(#a)" transform="translate(20 50)"/><g class="highcharts-funnel3d-upper-group" data-z-index="2" filter="url(#a)" fill="url(#e)" stroke="none" transform="translate(20 50)"><path d="m278.956 33.13 4.981-.852 7.102.595 6.951 10.864c-1.297-.89-8.134-1.48-15.27-1.325-7.144.156-11.96 1.003-10.734 1.895Z" class="highcharts-3d-backUpper" data-z-index="1"/><path d="m291.04 32.873-4.972.855-7.112-.599-6.97 11.178c1.233.898 8.103 1.5 15.319 1.341 7.208-.159 11.99-1.017 10.685-1.911Z" class="highcharts-3d-frontUpper" data-z-index="2"/><path d="m291.044 33.13-7.112.598-4.971-.855-6.951 10.864c-1.305.894 3.477 1.752 10.685 1.911 7.216.16 14.086-.443 15.319-1.34Z" class="highcharts-3d-rightUpper" data-z-index="2"/></g><path fill="#7FB2BA" d="m311.04 82.873-4.972.855-7.112-.599 4.981-.851Z" class="highcharts-3d-top" data-z-index="3" stroke="none"/></g><g data-z-index="285103083" stroke="#E1D369" class="highcharts-point highcharts-color-4" tabindex="-1" aria-label="Finalized, 846. Unique users." style="outline:0"><path fill="#AEA036" d="m311.04 82.873-4.972.855-7.112-.599 4.981-.851Z" class="highcharts-3d-bottom" data-z-index="0" stroke="none"/><g class="highcharts-funnel3d-lower-group" data-z-index="0" filter="url(#a)" transform="translate(20 50)"/><g class="highcharts-funnel3d-upper-group" data-z-index="2" filter="url(#a)" fill="url(#f)" stroke="none" transform="translate(20 50)"><path d="m285 23.435 6.04 9.438-7.103-.595-4.981.851Z" class="highcharts-3d-backUpper" data-z-index="1"/><path d="m285 23.435-6.044 9.694 7.112.6 4.971-.856Z" class="highcharts-3d-frontUpper" data-z-index="2"/><path d="m285 23.435-6.04 9.438 4.972.855 7.112-.599Z" class="highcharts-3d-rightUpper" data-z-index="2"/></g><path fill="#FAEC82" d="M305 73.435Z" class="highcharts-3d-top" data-z-index="3" stroke="none"/></g></g></g><text x="300" text-anchor="middle" class="highcharts-title" data-z-index="4" style="color:#2f2b38;font-size:22px;font-weight:500;fill:#2f2b38" y="27" aria-hidden="true">Highcharts Pyramid3D Chart</text><g class="highcharts-data-labels highcharts-series-0 highcharts-pyramid3d-series highcharts-tracker" data-z-index="6" aria-hidden="true"><text x="5" data-z-index="1" y="18" style="color:#46465c;font-size:13px;font-weight:700;fill:#46465c" transform="translate(372 155)" class="highcharts-label highcharts-data-label highcharts-data-label-color-0"><tspan class="highcharts-text-outline" fill="#FFF" stroke="#FFF" stroke-width="2" stroke-linejoin="round"><tspan style="font-weight:700">Website visits</tspan> (15 654)<tspan x="5" dy="0">​</tspan></tspan><tspan style="font-weight:700">Website visits</tspan> (15 654)</text><text x="5" data-z-index="1" y="18" style="color:#46465c;font-size:13px;font-weight:700;fill:#46465c" transform="translate(342 110)" class="highcharts-label highcharts-data-label highcharts-data-label-color-1"><tspan class="highcharts-text-outline" fill="#FFF" stroke="#FFF" stroke-width="2" stroke-linejoin="round"><tspan style="font-weight:700">Downloads</tspan> (4 064)<tspan x="5" dy="0">​</tspan></tspan><tspan style="font-weight:700">Downloads</tspan> (4 064)</text><text x="5" data-z-index="1" y="18" style="color:#46465c;font-size:13px;font-weight:700;fill:#46465c" transform="translate(328 88)" class="highcharts-label highcharts-data-label highcharts-data-label-color-2"><tspan class="highcharts-text-outline" fill="#FFF" stroke="#FFF" stroke-width="2" stroke-linejoin="round"><tspan style="font-weight:700">Requested price list</tspan> (1 987)<tspan x="5" dy="0">​</tspan></tspan><tspan style="font-weight:700">Requested price list</tspan> (1 987)</text><text x="5" data-z-index="1" y="18" style="color:#46465c;font-size:13px;font-weight:700;fill:#46465c" transform="translate(321 77)" class="highcharts-label highcharts-data-label highcharts-data-label-color-3"><tspan class="highcharts-text-outline" fill="#FFF" stroke="#FFF" stroke-width="2" stroke-linejoin="round"><tspan style="font-weight:700">Invoice sent</tspan> (976)<tspan x="5" dy="0">​</tspan></tspan><tspan style="font-weight:700">Invoice sent</tspan> (976)</text><text x="5" data-z-index="1" y="18" style="color:#46465c;font-size:13px;font-weight:700;fill:#46465c" transform="translate(315 67)" class="highcharts-label highcharts-data-label highcharts-data-label-color-4"><tspan class="highcharts-text-outline" fill="#FFF" stroke="#FFF" stroke-width="2" stroke-linejoin="round"><tspan style="font-weight:700">Finalized</tspan> (846)<tspan x="5" dy="0">​</tspan></tspan><tspan style="font-weight:700">Finalized</tspan> (846)</text></g></svg>