<svg class="highcharts-root" style="font-family:&quot;IBM Plex Sans&quot;,sans-serif;font-size:12px" xmlns="http://www.w3.org/2000/svg" width="600" height="400" aria-label="Interactive chart" aria-hidden="false"><rect fill="#f0f0f0" class="highcharts-background" width="600" height="400" rx="0" ry="0" aria-hidden="true"/><path fill="none" class="highcharts-plot-background" aria-hidden="true" d="M69 50h521v314H69z"/><g class="highcharts-grid highcharts-xaxis-grid" data-z-index="1" aria-hidden="true" fill="none"><path data-z-index="1" class="highcharts-grid-line" d="M172.5 50v314m104-314v314m105-314v314m104-314v314m104-314v314M68.5 50v314"/></g><g class="highcharts-grid highcharts-yaxis-grid" data-z-index="1" aria-hidden="true" fill="none" stroke="#ccc"><path data-z-index="1" class="highcharts-grid-line" d="M69 364.5h521m-521-39h521m-521-39h521m-521-40h521m-521-39h521m-521-39h521m-521-39h521m-521-40h521m-521-40h521"/></g><path fill="none" class="highcharts-plot-border" data-z-index="1" aria-hidden="true" d="M69 50h521v314H69z"/><g class="highcharts-axis highcharts-xaxis" data-z-index="2" aria-hidden="true"><path fill="none" class="highcharts-axis-line" stroke="#ccc" data-z-index="7" d="M69 364.5h521"/></g><g class="highcharts-axis highcharts-yaxis" data-z-index="2" aria-hidden="true"><path fill="none" class="highcharts-tick" stroke="#ccc" d="M69 364.5H59m10-39H59m10-39H59m10-40H59m10-39H59m10-39H59m10-39H59m10-40H59m10-40H59"/><text x="23.32" data-z-index="7" text-anchor="middle" transform="rotate(-90 23.32 207)" class="highcharts-axis-title" style="color:#2f2b38;font-weight:300;fill:#2f2b38" y="207">Measurements</text><path fill="none" class="highcharts-axis-line" data-z-index="7" d="M69 50v314"/></g><g class="highcharts-series-group" data-z-index="3" aria-hidden="false"><g class="highcharts-markers highcharts-series-0 highcharts-scatter-series highcharts-color-0 highcharts-tracker" data-z-index=".1" aria-hidden="false" tabindex="-1" aria-label="Run 1, scatter plot 1 of 5 with 200 points." style="outline:0" fill="rgba(128,135,232,0.5)"><path d="M27 223.382a2 2 0 1 1 .002 0Zm35-90.532a2 2 0 1 1 .002 0Zm13-27.762a2 2 0 1 1 .002 0Zm-38-5.55a2 2 0 1 1 .002 0Zm38 53.974a2 2 0 1 1 .002 0Zm-11 4.639a2 2 0 1 1 .002 0Zm5-61.047a2 2 0 1 1 .002 0Zm1 22.942a2 2 0 1 1 .002 0Zm-14 35.767a2 2 0 1 1 .002 0Zm-20 22.413a2 2 0 1 1 .002 0Zm30-26.796a2 2 0 1 1 .002 0Zm-35 14.676a2 2 0 1 1 .002 0Zm9-30.399a2 2 0 1 1 .002 0Zm20 54.008a2 2 0 1 1 .002 0Zm-30-64.784a2 2 0 1 1 .002 0Z" class="highcharts-point highcharts-color-0" tabindex="-1" aria-hidden="true" style="outline:0" transform="translate(69 50)"/><path d="M71 97.507a2 2 0 1 1 .002 0Zm4 49.697a2 2 0 1 1 .002 0ZM28 93.765a2 2 0 1 1 .002 0Zm5 7.055a2 2 0 1 1 .002 0Zm32-14.658a2 2 0 1 1 .002 0Zm-16 58.455a2 2 0 1 1 .002 0Zm5-47.501a2 2 0 1 1 .002 0Zm-3 53.218a2 2 0 1 1 .002 0Zm15-84.553a2 2 0 1 1 .002 0ZM37 171.207a2 2 0 1 1 .002 0Zm14 8.873a2 2 0 1 1 .002 0Zm5 14.583a2 2 0 1 1 .002 0Zm9-39.321a2 2 0 1 1 .002 0Zm-36 4.208a2 2 0 1 1 .002 0Zm31-51.885a2 2 0 1 1 .002 0Zm1 60.929a2 2 0 1 1 .002 0ZM58 99.62a2 2 0 1 1 .002 0Zm-18 51.785a2 2 0 1 1 .002 0Zm-7-4.639a2 2 0 1 1 .002 0Zm35-4.392a2 2 0 1 1 .002 0Zm-33-16.859a2 2 0 1 1 .002 0Z" class="highcharts-point highcharts-color-0" tabindex="-1" aria-hidden="true" style="outline:0" transform="translate(69 50)"/><path d="M37 124.78a2 2 0 1 1 .002 0Zm21 32.59a2 2 0 1 1 .002 0Zm3-10.703a2 2 0 1 1 .002 0Zm13-14.154a2 2 0 1 1 .002 0Zm-41 21.964a2 2 0 1 1 .002 0Zm32 53.863a2 2 0 1 1 .002 0Zm1-21.75a2 2 0 1 1 .002 0Zm-27-39.895a2 2 0 1 1 .002 0Zm-11-2.315a2 2 0 1 1 .002 0Zm0-13.604a2 2 0 1 1 .002 0Zm43-20.695a2 2 0 1 1 .002 0Zm-8 54.231a2 2 0 1 1 .002 0ZM49 89.294a2 2 0 1 1 .002 0Zm1 4.464a2 2 0 1 1 .002 0Zm-11 58.275a2 2 0 1 1 .002 0Z" class="highcharts-point highcharts-color-0" tabindex="-1" aria-hidden="true" style="outline:0" transform="translate(69 50)"/><path d="M41 149.268a2 2 0 1 1 .002 0Z" class="highcharts-point highcharts-color-0" tabindex="-1" aria-hidden="true" style="outline:0" transform="translate(69 50)"/><path d="M40 151.875a2 2 0 1 1 .002 0Zm-1 24.937a2 2 0 1 1 .002 0Zm-7-19.447a2 2 0 1 1 .002 0Zm17-43.092a2 2 0 1 1 .002 0Zm2 30.524a2 2 0 1 1 .002 0Zm8 1.641a2 2 0 1 1 .002 0Zm4 3.827a2 2 0 1 1 .002 0ZM46 88.722a2 2 0 1 1 .002 0Zm25 61.611a2 2 0 1 1 .002 0Zm-3 12.991a2 2 0 1 1 .002 0Zm-32-23.096a2 2 0 1 1 .002 0Zm18-22.727a2 2 0 1 1 .002 0Zm-14-7.485a2 2 0 1 1 .002 0Z" class="highcharts-point highcharts-color-0" tabindex="-1" aria-hidden="true" style="outline:0" transform="translate(69 50)"/><path d="M41 173.21a2 2 0 1 1 .002 0Zm10-58.229a2 2 0 1 1 .002 0Zm16 62.045a2 2 0 1 1 .002 0Zm-4 32.672a2 2 0 1 1 .002 0ZM34 94.074a2 2 0 1 1 .002 0Zm38 25.073a2 2 0 1 1 .002 0Zm-18 27.429a2 2 0 1 1 .002 0Zm-16-.882a2 2 0 1 1 .002 0Zm3 40.366a2 2 0 1 1 .002 0Zm12-28.33a2 2 0 1 1 .002 0Zm-17 38.713a2 2 0 1 1 .002 0ZM30 77.477a2 2 0 1 1 .002 0Zm7 60.137a2 2 0 1 1 .002 0Zm29 15.605a2 2 0 1 1 .002 0Zm4-5.905a2 2 0 1 1 .002 0Zm-38 16.543a2 2 0 1 1 .002 0Zm1-57.412a2 2 0 1 1 .002 0Zm8-50.307a2 2 0 1 1 .002 0Zm18 115.698a2 2 0 1 1 .002 0Zm13-33.583a2 2 0 1 1 .002 0Z" class="highcharts-point highcharts-color-0" tabindex="-1" aria-hidden="true" style="outline:0" transform="translate(69 50)"/><path d="M39 189.108a2 2 0 1 1 .002 0Zm8-.098a2 2 0 1 1 .002 0Zm21-46.599a2 2 0 1 1 .002 0Zm8 6.543a2 2 0 1 1 .002 0Zm-15 .356a2 2 0 1 1 .002 0Zm14 8.654a2 2 0 1 1 .002 0Zm-5-53.556a2 2 0 1 1 .002 0Zm-26 39.895a2 2 0 1 1 .002 0ZM36 178.4a2 2 0 1 1 .002 0Zm15 .652a2 2 0 1 1 .002 0Zm6-44.616a2 2 0 1 1 .002 0Zm13 16.463a2 2 0 1 1 .002 0Zm-40 5.473a2 2 0 1 1 .002 0Zm6-13.752a2 2 0 1 1 .002 0Zm37-22.434a2 2 0 1 1 .002 0ZM44 87.308a2 2 0 1 1 .002 0Zm-5 26.902a2 2 0 1 1 .002 0Zm1 37.906a2 2 0 1 1 .002 0Z" class="highcharts-point highcharts-color-0" tabindex="-1" aria-hidden="true" style="outline:0" transform="translate(69 50)"/><path d="M71 151.781a2 2 0 1 1 .002 0Zm-6 3.029a2 2 0 1 1 .002 0Zm-6-42.246a2 2 0 1 1 .002 0Zm-4 69.794a2 2 0 1 1 .002 0Zm12-71.812a2 2 0 1 1 .002 0Zm-31 21.056a2 2 0 1 1 .002 0Zm12 25.002a2 2 0 1 1 .002 0Zm7-21.722a2 2 0 1 1 .002 0Zm-4 12.353a2 2 0 1 1 .002 0Zm-22 1.861a2 2 0 1 1 .002 0Zm7-44.97a2 2 0 1 1 .002 0Zm31 88.512a2 2 0 1 1 .002 0Zm-23-65.124a2 2 0 1 1 .002 0Z" class="highcharts-point highcharts-color-0" tabindex="-1" aria-hidden="true" style="outline:0" transform="translate(69 50)"/><path d="M57 136.364a2 2 0 1 1 .002 0Zm-29-30.72a2 2 0 1 1 .002 0Zm23 56.158a2 2 0 1 1 .002 0Zm24-12.021a2 2 0 1 1 .002 0Zm-43-65.04a2 2 0 1 1 .002 0Zm2 94.916a2 2 0 1 1 .002 0Zm-1 26.05a2 2 0 1 1 .002 0Zm42-65.73a2 2 0 1 1 .002 0Zm-42 3.629a2 2 0 1 1 .002 0Zm23-31.576a2 2 0 1 1 .002-.001Zm16 15.205a2 2 0 1 1 .002 0Zm-30 15.946a2 2 0 1 1 .002 0Zm3 21.252a2 2 0 1 1 .002 0Z" class="highcharts-point highcharts-color-0" tabindex="-1" aria-hidden="true" style="outline:0" transform="translate(69 50)"/><path d="M40 146.075a2 2 0 1 1 .002 0Zm34-29.542a2 2 0 1 1 .002 0Zm1-18.177a2 2 0 1 1 .002 0Zm-7 41.952a2 2 0 1 1 .002 0Zm-9 7.264a2 2 0 1 1 .002 0Zm-20 10.681a2 2 0 1 1 .002 0Zm22-26.438a2 2 0 1 1 .002 0Zm-1-16.379a2 2 0 1 1 .002 0Zm9-29.747a2 2 0 1 1 .002 0Zm-19 95.429a2 2 0 1 1 .002 0Zm17-53.825a2 2 0 1 1 .002 0ZM46 174.55a2 2 0 1 1 .002 0Zm16-32.705a2 2 0 1 1 .002 0ZM29 215.43a2 2 0 1 1 .002 0Zm25-72.563a2 2 0 1 1 .002 0Zm12 13.84a2 2 0 1 1 .002 0Z" class="highcharts-point highcharts-color-0" tabindex="-1" aria-hidden="true" style="outline:0" transform="translate(69 50)"/><path d="M49 175.81a2 2 0 1 1 .002 0Zm12-22.593a2 2 0 1 1 .002 0Zm-12-48.214a2 2 0 1 1 .002 0Zm11 42.077a2 2 0 1 1 .002 0Zm-8-14.621a2 2 0 1 1 .002 0Zm-14 45.058a2 2 0 1 1 .002 0Z" class="highcharts-point highcharts-color-0" tabindex="-1" aria-hidden="true" style="outline:0" transform="translate(69 50)"/><path d="M52 128.319a2 2 0 1 1 .002 0Zm-15 47.405a2 2 0 1 1 .002 0ZM27 61.392a2 2 0 1 1 .002 0Zm39 85.807a2 2 0 1 1 .002 0Zm5 8.811a2 2 0 1 1 .002 0ZM34 84.37a2 2 0 1 1 .002 0Zm18 147.968a2 2 0 1 1 .002 0Zm-13-62.721a2 2 0 1 1 .002 0Zm-3 20.729a2 2 0 1 1 .002 0Z" class="highcharts-point highcharts-color-0" tabindex="-1" aria-hidden="true" style="outline:0" transform="translate(69 50)"/><path d="M39 174.224a2 2 0 1 1 .002 0Zm34-31.139a2 2 0 1 1 .002 0ZM51 186.41a2 2 0 1 1 .002 0Zm21-25.413a2 2 0 1 1 .002 0Zm-29 27.497a2 2 0 1 1 .002 0Zm32-.589a2 2 0 1 1 .002 0Z" class="highcharts-point highcharts-color-0" tabindex="-1" aria-hidden="true" style="outline:0" transform="translate(69 50)"/><path d="M72 140.005a2 2 0 1 1 .002 0Zm-20 6.7a2 2 0 1 1 .002 0ZM40 122.58a2 2 0 1 1 .002 0Zm-13 7.038a2 2 0 1 1 .002 0Zm24 69.583a2 2 0 1 1 .002 0Zm21-52.182a2 2 0 1 1 .002 0ZM56 220.18a2 2 0 1 1 .002 0Zm15-8.825a2 2 0 1 1 .002 0Zm-25-32.403a2 2 0 1 1 .002 0Zm13-46.336a2 2 0 1 1 .002 0Zm-6 30.372a2 2 0 1 1 .002 0Zm19 31.186a2 2 0 1 1 .002 0Zm-8-55.388a2 2 0 1 1 .002 0Zm-26 8.379a2 2 0 1 1 .002 0Z" class="highcharts-point highcharts-color-0" tabindex="-1" aria-hidden="true" style="outline:0" transform="translate(69 50)"/><path d="M50 143.441a2 2 0 1 1 .002 0Zm1 20.567a2 2 0 1 1 .002 0Zm-15-7.978a2 2 0 1 1 .002 0Zm31 20.055a2 2 0 1 1 .002 0Zm2 14.072a2 2 0 1 1 .002 0Zm-32-28.722a2 2 0 1 1 .002 0Zm28-22.453a2 2 0 1 1 .002 0Zm-24 4.504a2 2 0 1 1 .002 0Zm24 4.627a2 2 0 1 1 .002 0Zm-29-19.576a2 2 0 1 1 .002 0Zm40 17.521a2 2 0 1 1 .002 0Zm-45-43.47a2 2 0 1 1 .002 0Zm26 22.755a2 2 0 1 1 .002 0Zm-9-.068a2 2 0 1 1 .002 0Zm-15 22.034a2 2 0 1 1 .002 0Zm21-35.633a2 2 0 1 1 .002 0Zm-12 52.647a2 2 0 1 1 .002 0Zm-12-2.363a2 2 0 1 1 .002 0Zm7-27.222a2 2 0 1 1 .002 0Zm-10 14.51a2 2 0 1 1 .002 0Z" class="highcharts-point highcharts-color-0" tabindex="-1" aria-hidden="true" style="outline:0" transform="translate(69 50)"/></g><g class="highcharts-markers highcharts-series-1 highcharts-scatter-series highcharts-color-1 highcharts-tracker" data-z-index=".1" aria-hidden="false" tabindex="-1" aria-label="Run 2, scatter plot 2 of 5 with 200 points." style="outline:0" fill="rgba(163,237,186,0.5)"><path d="M131 144.818a2 2 0 1 1 .002 0Zm35 13.602a2 2 0 1 1 .002 0Zm14-10.267a2 2 0 1 1 .002 0Zm-39 35.197a2 2 0 1 1 .002 0Zm39 16.91a2 2 0 1 1 .002 0Zm-11 8.915a2 2 0 1 1 .002 0Zm4-16.28a2 2 0 1 1 .002 0Zm1-25.243a2 2 0 1 1 .002 0Zm-14 23.028a2 2 0 1 1 .002 0Z" class="highcharts-point highcharts-color-1" tabindex="-1" aria-hidden="true" style="outline:0" transform="translate(69 50)"/><path d="M140 185.545a2 2 0 1 1 .002 0Zm30 36.237a2 2 0 1 1 .002 0Zm-34-47.026a2 2 0 1 1 .002 0Zm8 20.09a2 2 0 1 1 .002 0Zm20 47.864a2 2 0 1 1 .002 0Zm-30-3.57a2 2 0 1 1 .002 0Zm41-39.36a2 2 0 1 1 .002 0Zm4 50.34a2 2 0 1 1 .002 0Zm-47-100.022a2 2 0 1 1 .002 0Zm5 3.815a2 2 0 1 1 .002 0Zm32 58.727a2 2 0 1 1 .002 0Zm-16 5.922a2 2 0 1 1 .002 0Zm6-16.624a2 2 0 1 1 .002 0Zm-4-4.514a2 2 0 1 1 .002 0Zm16-20.749a2 2 0 1 1 .002 0Zm-29 26.393a2 2 0 1 1 .002 0Zm13 31.372a2 2 0 1 1 .002 0Zm5-15.506a2 2 0 1 1 .002 0Zm9-37.801a2 2 0 1 1 .002 0Zm-35 41.802a2 2 0 1 1 .002 0Zm30-33.602a2 2 0 1 1 .002 0Zm1 13.717a2 2 0 1 1 .002 0Z" class="highcharts-point highcharts-color-1" tabindex="-1" aria-hidden="true" style="outline:0" transform="translate(69 50)"/><path d="M162 203.382a2 2 0 1 1 .002 0Zm-18-21.083a2 2 0 1 1 .002 0Zm-7 5.431a2 2 0 1 1 .002 0Zm35 12.48a2 2 0 1 1 .002 0Zm-33-79.398a2 2 0 1 1 .002 0Zm2 57.276a2 2 0 1 1 .002 0Zm21 8.021a2 2 0 1 1 .002 0Zm3 38.341a2 2 0 1 1 .002 0Zm14-48.762a2 2 0 1 1 .002 0Z" class="highcharts-point highcharts-color-1" tabindex="-1" aria-hidden="true" style="outline:0" transform="translate(69 50)"/><path d="M137 186.339a2 2 0 1 1 .002 0Zm32-12.686a2 2 0 1 1 .002 0Zm1-12.511a2 2 0 1 1 .002 0Zm-27 27.398a2 2 0 1 1 .002 0Zm-11-14.426a2 2 0 1 1 .002 0Z" class="highcharts-point highcharts-color-1" tabindex="-1" aria-hidden="true" style="outline:0" transform="translate(69 50)"/><path d="M133 175.421a2 2 0 1 1 .002 0Zm42 8.519a2 2 0 1 1 .002 0Zm-8-22.547a2 2 0 1 1 .002 0Zm-14-10.878a2 2 0 1 1 .002 0Zm1 39.267a2 2 0 1 1 .002 0Zm-11 3.794a2 2 0 1 1 .002 0Z" class="highcharts-point highcharts-color-1" tabindex="-1" aria-hidden="true" style="outline:0" transform="translate(69 50)"/><path d="M145 192.536a2 2 0 1 1 .002 0Zm0 5.354a2 2 0 1 1 .002 0Zm-2-95.04a2 2 0 1 1 .002 0Zm-7 128.418a2 2 0 1 1 .002 0Zm17-97.5a2 2 0 1 1 .002 0Zm2 32.715a2 2 0 1 1 .002 0Zm8 25.253a2 2 0 1 1 .002 0Zm4 5.805a2 2 0 1 1 .002 0Zm-17-15.808a2 2 0 1 1 .002 0Zm25-49.973a2 2 0 1 1 .002 0Zm-3 51.396a2 2 0 1 1 .002 0Zm-32 38.682a2 2 0 1 1 .002 0Zm19-73.002a2 2 0 1 1 .002 0Z" class="highcharts-point highcharts-color-1" tabindex="-1" aria-hidden="true" style="outline:0" transform="translate(69 50)"/><path d="M144 201.137a2 2 0 1 1 .002 0Zm1-21.267a2 2 0 1 1 .002 0Zm10-3.778a2 2 0 1 1 .002 0Zm16-46.441a2 2 0 1 1 .002 0Zm-4 47.233a2 2 0 1 1 .002 0Zm-29 9.07a2 2 0 1 1 .002 0Zm38-7.104a2 2 0 1 1 .002 0Zm-18-38.803a2 2 0 1 1 .002 0Z" class="highcharts-point highcharts-color-1" tabindex="-1" aria-hidden="true" style="outline:0" transform="translate(69 50)"/><path d="M142 181.637a2 2 0 1 1 .002 0Zm3-18.694a2 2 0 1 1 .002 0Zm13 26.424a2 2 0 1 1 .002 0Zm-18-57.457a2 2 0 1 1 .002 0Zm-5 8.077a2 2 0 1 1 .002 0Z" class="highcharts-point highcharts-color-1" tabindex="-1" aria-hidden="true" style="outline:0" transform="translate(69 50)"/><path d="M141 161.232a2 2 0 1 1 .002 0Zm29 98.43a2 2 0 1 1 .002 0Zm4-93.416a2 2 0 1 1 .002 0Zm-38 19.282a2 2 0 1 1 .002 0Zm1-9.348a2 2 0 1 1 .002 0Zm8 8.833a2 2 0 1 1 .002 0Zm18 33.369a2 2 0 1 1 .002 0Zm13-8.048a2 2 0 1 1 .002 0Zm-33-95.094a2 2 0 1 1 .002 0Zm9 68.02a2 2 0 1 1 .002 0Zm20-52.13a2 2 0 1 1 .002 0Zm8 52.89a2 2 0 1 1 .002 0Zm-14 26.284a2 2 0 1 1 .002 0Zm13-19.88a2 2 0 1 1 .002 0Zm-4-7.498a2 2 0 1 1 .002 0Z" class="highcharts-point highcharts-color-1" tabindex="-1" aria-hidden="true" style="outline:0" transform="translate(69 50)"/><path d="M148 187.731a2 2 0 1 1 .002 0Zm-8 37.587a2 2 0 1 1 .002 0Zm15-11.646a2 2 0 1 1 .002 0Zm7-91.11a2 2 0 1 1 .002 0Zm13 61.571a2 2 0 1 1 .002 0Zm-40 38.742a2 2 0 1 1 .002 0Zm5-61.863a2 2 0 1 1 .002 0Zm37 28.358a2 2 0 1 1 .002 0Z" class="highcharts-point highcharts-color-1" tabindex="-1" aria-hidden="true" style="outline:0" transform="translate(69 50)"/><path d="M148 190.532a2 2 0 1 1 .002 0Zm-4-2.399a2 2 0 1 1 .002 0Zm0 7.494a2 2 0 1 1 .002 0Zm31 21.218a2 2 0 1 1 .002 0Zm-5-41.39a2 2 0 1 1 .002 0Zm-7-33.58a2 2 0 1 1 .002 0Zm-3-40.482a2 2 0 1 1 .002 0Zm12 108.991a2 2 0 1 1 .002 0Zm-32 4.731a2 2 0 1 1 .002 0Zm12-29.769a2 2 0 1 1 .002 0Zm7 42.283a2 2 0 1 1 .002 0Zm-4-82.625a2 2 0 1 1 .002 0Zm-22 23.295a2 2 0 1 1 .002 0Z" class="highcharts-point highcharts-color-1" tabindex="-1" aria-hidden="true" style="outline:0" transform="translate(69 50)"/><path d="M140 195.278a2 2 0 1 1 .002 0Zm31 15.54a2 2 0 1 1 .002 0Zm-23-39.108a2 2 0 1 1 .002 0Zm13 .726a2 2 0 1 1 .002 0Zm-29 16.098a2 2 0 1 1 .002 0Zm23 32.085a2 2 0 1 1 .002 0Zm24-68.943a2 2 0 1 1 .002 0Zm-43 33.094a2 2 0 1 1 .002 0Zm2 6.537a2 2 0 1 1 .002 0Z" class="highcharts-point highcharts-color-1" tabindex="-1" aria-hidden="true" style="outline:0" transform="translate(69 50)"/><path d="M137 186.886a2 2 0 1 1 .002 0Zm42 57.758a2 2 0 1 1 .002 0Zm-42-65.971a2 2 0 1 1 .002 0Zm24-10.844a2 2 0 1 1 .002 0Zm15 89.763a2 2 0 1 1 .002 0Zm-30-9.297a2 2 0 1 1 .002 0Zm4-69.414a2 2 0 1 1 .002 0Zm-6 2.814a2 2 0 1 1 .002 0Zm34 5.388a2 2 0 1 1 .002 0Z" class="highcharts-point highcharts-color-1" tabindex="-1" aria-hidden="true" style="outline:0" transform="translate(69 50)"/><path d="M179 188.973a2 2 0 1 1 .002 0Zm-6 2.375a2 2 0 1 1 .002 0Zm-9 10.228a2 2 0 1 1 .002 0Zm-21 49.708a2 2 0 1 1 .002 0Zm22-106.66a2 2 0 1 1 .002 0Zm-1-14.418a2 2 0 1 1 .002 0Zm10 48.417a2 2 0 1 1 .002 0Zm-19 22.843a2 2 0 1 1 .002 0Zm16-6.094a2 2 0 1 1 .002 0Zm-20-95.467a2 2 0 1 1 .002 0Zm15 125.267a2 2 0 1 1 .002 0Zm-33-46.092a2 2 0 1 1 .002 0Zm25-73.981a2 2 0 1 1 .002 0Z" class="highcharts-point highcharts-color-1" tabindex="-1" aria-hidden="true" style="outline:0" transform="translate(69 50)"/><path d="M170 226.543a2 2 0 1 1 .002 0Zm-17-40.056a2 2 0 1 1 .002 0Zm12-14.527a2 2 0 1 1 .002 0Zm-12-11.763a2 2 0 1 1 .002 0Zm11 47.345a2 2 0 1 1 .002 0Zm-8-87.831a2 2 0 1 1 .002 0Zm-13 71.44a2 2 0 1 1 .002 0Z" class="highcharts-point highcharts-color-1" tabindex="-1" aria-hidden="true" style="outline:0" transform="translate(69 50)"/><path d="M156 118.102a2 2 0 1 1 .002 0Zm-15 93.362a2 2 0 1 1 .002 0Zm-10-25.682a2 2 0 1 1 .002 0Zm40-.372a2 2 0 1 1 .002 0Zm4 20.192a2 2 0 1 1 .002 0Zm-37-73.634a2 2 0 1 1 .002 0Zm19 90.982a2 2 0 1 1 .002 0Zm-14-38.004a2 2 0 1 1 .002 0Zm-2 14.008a2 2 0 1 1 .002 0Zm2-40.135a2 2 0 1 1 .002 0Zm34 52.348a2 2 0 1 1 .002 0Zm-21-75.657a2 2 0 1 1 .002 0Zm20 34.78a2 2 0 1 1 .002 0Zm-29 55.276a2 2 0 1 1 .002 0Zm32-76.693a2 2 0 1 1 .002 0Zm-2 28.007a2 2 0 1 1 .002 0Zm-21 26.94a2 2 0 1 1 .002 0Z" class="highcharts-point highcharts-color-1" tabindex="-1" aria-hidden="true" style="outline:0" transform="translate(69 50)"/><path d="M144 208.774a2 2 0 1 1 .002 0Zm-13-50.444a2 2 0 1 1 .002 0Zm25 27.532a2 2 0 1 1 .002 0Zm20 26.638a2 2 0 1 1 .002 0Zm-16-77.033a2 2 0 1 1 .002 0Zm16 18.269a2 2 0 1 1 .002 0Zm-26 30.269a2 2 0 1 1 .002 0Zm14-6.997a2 2 0 1 1 .002 0Zm-7-83.301a2 2 0 1 1 .002 0Zm19 94.363a2 2 0 1 1 .002 0Zm-8-7.581a2 2 0 1 1 .002 0Zm-26-15.345a2 2 0 1 1 .002 0Z" class="highcharts-point highcharts-color-1" tabindex="-1" aria-hidden="true" style="outline:0" transform="translate(69 50)"/><path d="M154 189.54a2 2 0 1 1 .002 0Zm1 39.893a2 2 0 1 1 .002 0Zm-15 1.903a2 2 0 1 1 .002 0Zm31-50.214a2 2 0 1 1 .002 0Z" class="highcharts-point highcharts-color-1" tabindex="-1" aria-hidden="true" style="outline:0" transform="translate(69 50)"/><path d="M173 183.184a2 2 0 1 1 .002 0Zm-32 50.526a2 2 0 1 1 .002 0Zm28-121.27a2 2 0 1 1 .002 0Zm-24-3.813a2 2 0 1 1 .002 0Zm24 79.295a2 2 0 1 1 .002 0Zm-29 4.896a2 2 0 1 1 .002 0Zm40 21.195a2 2 0 1 1 .002 0Zm-45 26.036a2 2 0 1 1 .002 0Zm27-64.517a2 2 0 1 1 .002 0Zm-9 75.422a2 2 0 1 1 .002 0Zm-15-53.421a2 2 0 1 1 .002 0Zm20 58.507a2 2 0 1 1 .002 0Zm-12-126.863a2 2 0 1 1 .002 0Zm-12 55.163a2 2 0 1 1 .002 0Zm7 36.648a2 2 0 1 1 .002 0Zm-10-14.178a2 2 0 1 1 .002 0Z" class="highcharts-point highcharts-color-1" tabindex="-1" aria-hidden="true" style="outline:0" transform="translate(69 50)"/></g><g class="highcharts-markers highcharts-series-2 highcharts-scatter-series highcharts-color-2 highcharts-tracker" data-z-index=".1" aria-hidden="false" tabindex="-1" aria-label="Run 3, scatter plot 3 of 5 with 200 points." style="outline:0" fill="rgba(241,158,83,0.5)"><path d="M235 96.556a2 2 0 1 1 .002 0Zm35 72.774a2 2 0 1 1 .002 0Zm14-26.687a2 2 0 1 1 .002 0Zm-39-2.071a2 2 0 1 1 .002 0Zm39 27.931a2 2 0 1 1 .002 0Zm-11-26.182a2 2 0 1 1 .002 0Zm4-45.032a2 2 0 1 1 .002 0Zm1 73.466a2 2 0 1 1 .002 0Zm-14-32.169a2 2 0 1 1 .002 0Zm-20 39.596a2 2 0 1 1 .002 0Z" class="highcharts-point highcharts-color-2" tabindex="-1" aria-hidden="true" style="outline:0" transform="translate(69 50)"/><path d="M274 169.043a2 2 0 1 1 .002 0Zm-34-38.973a2 2 0 1 1 .002 0Zm9 92.522a2 2 0 1 1 .002 0Zm20-82.207a2 2 0 1 1 .002 0Zm-30-20.325a2 2 0 1 1 .002 0Zm40 92.874a2 2 0 1 1 .002 0Zm4-92.097a2 2 0 1 1 .002 0Zm-47 72.691a2 2 0 1 1 .002 0Zm5 .898a2 2 0 1 1 .002 0Zm33-40.484a2 2 0 1 1 .002 0Zm-16-17.766a2 2 0 1 1 .002 0Zm5 8.192a2 2 0 1 1 .002 0Zm-4-50.39a2 2 0 1 1 .002 0Z" class="highcharts-point highcharts-color-2" tabindex="-1" aria-hidden="true" style="outline:0" transform="translate(69 50)"/><path d="M275 165.089a2 2 0 1 1 .002 0ZM246 57.527a2 2 0 1 1 .002 0Zm13 155.153a2 2 0 1 1 .002 0Zm5-10.192a2 2 0 1 1 .002 0Zm9-101.331a2 2 0 1 1 .002 0Zm-35 44.711a2 2 0 1 1 .002 0Zm30-5.683a2 2 0 1 1 .002 0Zm1 19.628a2 2 0 1 1 .002 0Zm-3-33.63a2 2 0 1 1 .002 0Zm-18-13.299a2 2 0 1 1 .002 0Z" class="highcharts-point highcharts-color-2" tabindex="-1" aria-hidden="true" style="outline:0" transform="translate(69 50)"/><path d="M241 144.596a2 2 0 1 1 .002 0Zm35 1.605a2 2 0 1 1 .002 0ZM244 93.9a2 2 0 1 1 .002 0Zm2 56.117a2 2 0 1 1 .002 0Zm20-25.3a2 2 0 1 1 .002 0Zm3-12.16a2 2 0 1 1 .002 0Zm14 13.239a2 2 0 1 1 .002 0Zm-41 69.537a2 2 0 1 1 .002 0Z" class="highcharts-point highcharts-color-2" tabindex="-1" aria-hidden="true" style="outline:0" transform="translate(69 50)"/><path d="M274 146.415a2 2 0 1 1 .002 0Zm0-7.423a2 2 0 1 1 .002 0Zm-26-37.752a2 2 0 1 1 .002 0Zm-12 44.053a2 2 0 1 1 .002 0Zm1 40.277a2 2 0 1 1 .002 0Zm42-26.136a2 2 0 1 1 .002 0Zm-7 14.943a2 2 0 1 1 .002 0Zm-14-12.313a2 2 0 1 1 .002 0Zm1-17.002a2 2 0 1 1 .002 0Zm-11-11.274a2 2 0 1 1 .002 0Zm2 66.516a2 2 0 1 1 .002 0Zm-1-71.056a2 2 0 1 1 .002 0Zm-1 43.374a2 2 0 1 1 .002 0Z" class="highcharts-point highcharts-color-2" tabindex="-1" aria-hidden="true" style="outline:0" transform="translate(69 50)"/><path d="M240 182.826a2 2 0 1 1 .002 0Zm17-44.424a2 2 0 1 1 .002 0Zm2-34.569a2 2 0 1 1 .002 0Zm8 37.839a2 2 0 1 1 .002 0Zm4 40.097a2 2 0 1 1 .002 0Zm-17-77.146a2 2 0 1 1 .002 0Zm26 59.897a2 2 0 1 1 .002 0Zm-4-30.768a2 2 0 1 1 .002 0Zm-31 32.638a2 2 0 1 1 .002 0Zm18-9.01a2 2 0 1 1 .002 0Zm-15-20.948a2 2 0 1 1 .002 0Zm1 17.102a2 2 0 1 1 .002 0Zm10 1.442a2 2 0 1 1 .002 0Zm16 81.454a2 2 0 1 1 .002 0Zm-4-119.467a2 2 0 1 1 .002 0Zm-28 15.276a2 2 0 1 1 .002 0Zm37-23.421a2 2 0 1 1 .002 0Zm-18 95.967a2 2 0 1 1 .002 0Zm-15-63.665a2 2 0 1 1 .002 0Zm2 5.03a2 2 0 1 1 .002 0Zm13-55.411a2 2 0 1 1 .002 0Zm-18 65.046a2 2 0 1 1 .002 0Zm-5-65.635a2 2 0 1 1 .002 0Z" class="highcharts-point highcharts-color-2" tabindex="-1" aria-hidden="true" style="outline:0" transform="translate(69 50)"/><path d="M245 141.077a2 2 0 1 1 .002 0Zm29 69.073a2 2 0 1 1 .002 0Zm5-93.514a2 2 0 1 1 .002 0Zm-38 65.83a2 2 0 1 1 .002 0Zm0 32.229a2 2 0 1 1 .002 0Zm8-19.307a2 2 0 1 1 .002 0Zm18-87.235a2 2 0 1 1 .002 0Zm13 45.627a2 2 0 1 1 .002 0Zm-33 4.339a2 2 0 1 1 .002 0Zm9-33.578a2 2 0 1 1 .002 0Zm20 40.343a2 2 0 1 1 .002 0Zm8-17.645a2 2 0 1 1 .002 0Zm-14-10.007a2 2 0 1 1 .002 0Zm13-1.002a2 2 0 1 1 .002 0Zm-4-24.03a2 2 0 1 1 .002 0Zm-27 31.004a2 2 0 1 1 .002 0Zm-8 8.26a2 2 0 1 1 .002 0Zm15-8.767a2 2 0 1 1 .002 0Zm7 12.01a2 2 0 1 1 .002 0Zm13-5.319a2 2 0 1 1 .002 0Zm-40 55.028a2 2 0 1 1 .002 0Zm5-28.571a2 2 0 1 1 .002 0Z" class="highcharts-point highcharts-color-2" tabindex="-1" aria-hidden="true" style="outline:0" transform="translate(69 50)"/><path d="M282 153.861a2 2 0 1 1 .002 0Zm-30-13.417a2 2 0 1 1 .002 0Zm-4 31.951a2 2 0 1 1 .002 0Zm0-27.105a2 2 0 1 1 .002 0Zm31 26.18a2 2 0 1 1 .002 0Zm-5-28.603a2 2 0 1 1 .002 0Zm-7 17.769a2 2 0 1 1 .002 0Zm-3-18.916a2 2 0 1 1 .002 0Zm12-11.173a2 2 0 1 1 .002 0Zm-32-36.664a2 2 0 1 1 .002 0Zm12 26.401a2 2 0 1 1 .002 0Zm8 51.115a2 2 0 1 1 .002 0Z" class="highcharts-point highcharts-color-2" tabindex="-1" aria-hidden="true" style="outline:0" transform="translate(69 50)"/><path d="M259 118.03a2 2 0 1 1 .002 0Zm-22 40.471a2 2 0 1 1 .002 0Zm7-15.604a2 2 0 1 1 .002 0Zm31 22.27a2 2 0 1 1 .002 0Zm-22-54.399a2 2 0 1 1 .002 0Zm13 44.93a2 2 0 1 1 .002 0Zm-30-13.324a2 2 0 1 1 .002 0Zm23-43.135a2 2 0 1 1 .002 0ZM283 72.9a2 2 0 1 1 .002 0Zm-42 117.512a2 2 0 1 1 .002 0Z" class="highcharts-point highcharts-color-2" tabindex="-1" aria-hidden="true" style="outline:0" transform="translate(69 50)"/><path d="M243 141.072a2 2 0 1 1 .002 0Zm-1 21.761a2 2 0 1 1 .002 0Zm41-28.573a2 2 0 1 1 .002 0Zm-41-18.432a2 2 0 1 1 .002 0Zm23 36.428a2 2 0 1 1 .002 0Zm15-4.126a2 2 0 1 1 .002 0Zm-30 79.545a2 2 0 1 1 .002 0Zm4-99.845a2 2 0 1 1 .002 0Zm-6 34.118a2 2 0 1 1 .002 0Zm34 27.812a2 2 0 1 1 .002 0Zm1 19.62a2 2 0 1 1 .002 0Zm-6-35.474a2 2 0 1 1 .002 0Zm-9-43.283a2 2 0 1 1 .002 0Zm-21-17.33a2 2 0 1 1 .002 0Z" class="highcharts-point highcharts-color-2" tabindex="-1" aria-hidden="true" style="outline:0" transform="translate(69 50)"/><path d="M269 128.857a2 2 0 1 1 .002 0Zm-1 15.167a2 2 0 1 1 .002 0Zm10 28.449a2 2 0 1 1 .002 0Zm-19-63.481a2 2 0 1 1 .002 0Zm16 18.085a2 2 0 1 1 .002 0Zm-20-.397a2 2 0 1 1 .002 0Zm16 9.888a2 2 0 1 1 .002 0Zm-34 17.104a2 2 0 1 1 .002 0Zm25-32.362a2 2 0 1 1 .002 0Zm12-38.556a2 2 0 1 1 .002 0Zm-16 81.308a2 2 0 1 1 .002 0Z" class="highcharts-point highcharts-color-2" tabindex="-1" aria-hidden="true" style="outline:0" transform="translate(69 50)"/><path d="M270 144.784a2 2 0 1 1 .002 0Zm-13 3.541a2 2 0 1 1 .002 0Zm11 4.648a2 2 0 1 1 .002 0Zm-7 47.862a2 2 0 1 1 .002 0Zm-14-26.457a2 2 0 1 1 .002 0Zm13-78.27a2 2 0 1 1 .002 0Zm-15 62.029a2 2 0 1 1 .002 0Zm-10-14.623a2 2 0 1 1 .002 0Zm40 9.802a2 2 0 1 1 .002 0Zm4 17.051a2 2 0 1 1 .002 0Zm-36-55.489a2 2 0 1 1 .002 0Zm18 8.488a2 2 0 1 1 .002 0Zm-14 85.431a2 2 0 1 1 .002 0Z" class="highcharts-point highcharts-color-2" tabindex="-1" aria-hidden="true" style="outline:0" transform="translate(69 50)"/><path d="M245 161.26a2 2 0 1 1 .002 0Zm3 66.042a2 2 0 1 1 .002 0Zm33-66.614a2 2 0 1 1 .002 0Zm-21-5.061a2 2 0 1 1 .002 0Zm20 49.873a2 2 0 1 1 .002 0Zm-29-20.994a2 2 0 1 1 .002 0Zm33-36.572a2 2 0 1 1 .002 0Z" class="highcharts-point highcharts-color-2" tabindex="-1" aria-hidden="true" style="outline:0" transform="translate(69 50)"/><path d="M281 150.077a2 2 0 1 1 .002 0Zm-21-12.673a2 2 0 1 1 .002 0Zm-12 15.225a2 2 0 1 1 .002 0Zm-13-19.534a2 2 0 1 1 .002 0Zm25-4.384a2 2 0 1 1 .002 0Z" class="highcharts-point highcharts-color-2" tabindex="-1" aria-hidden="true" style="outline:0" transform="translate(69 50)"/><path d="M280 152.914a2 2 0 1 1 .002 0Zm-15-20.628a2 2 0 1 1 .002 0Zm15 62.864a2 2 0 1 1 .002 0Zm-26-29.599a2 2 0 1 1 .002 0Zm14-21.67a2 2 0 1 1 .002 0Zm-7-44.431a2 2 0 1 1 .002 0Zm19 129.773a2 2 0 1 1 .002 0Zm-7-162.761a2 2 0 1 1 .002 0Zm-27 131.682a2 2 0 1 1 .002 0Zm13-38.86a2 2 0 1 1 .002 0Zm0 19.57a2 2 0 1 1 .002 0Zm-15-23.406a2 2 0 1 1 .002 0Zm31 6.529a2 2 0 1 1 .002 0Z" class="highcharts-point highcharts-color-2" tabindex="-1" aria-hidden="true" style="outline:0" transform="translate(69 50)"/><path d="M277 161.39a2 2 0 1 1 .002 0Zm-31-18.687a2 2 0 1 1 .002 0Zm27 22.783a2 2 0 1 1 .002 0Zm-24-19.637a2 2 0 1 1 .002 0Zm24 31.838a2 2 0 1 1 .002 0Zm-29-5.426a2 2 0 1 1 .002 0Zm41-59.541a2 2 0 1 1 .002 0Zm-46 3.3a2 2 0 1 1 .002 0Zm27 62.693a2 2 0 1 1 .002 0Zm-9-89.996a2 2 0 1 1 .002 0Z" class="highcharts-point highcharts-color-2" tabindex="-1" aria-hidden="true" style="outline:0" transform="translate(69 50)"/><path d="M242 143.005a2 2 0 1 1 .002 0Zm20-71.824a2 2 0 1 1 .002 0Zm-12 122.005a2 2 0 1 1 .002 0Zm-12-56.699a2 2 0 1 1 .002 0Zm8 24.249a2 2 0 1 1 .002 0Zm-10-12.464a2 2 0 1 1 .002 0Z" class="highcharts-point highcharts-color-2" tabindex="-1" aria-hidden="true" style="outline:0" transform="translate(69 50)"/></g><g class="highcharts-markers highcharts-series-3 highcharts-scatter-series highcharts-color-3 highcharts-tracker" data-z-index=".1" aria-hidden="false" tabindex="-1" aria-label="Run 4, scatter plot 4 of 5 with 200 points." style="outline:0" fill="rgba(102,153,161,0.5)"><path d="M339 179.858a2 2 0 1 1 .002 0Zm36 2.724a2 2 0 1 1 .002 0Zm13 8.606a2 2 0 1 1 .002 0Zm-39 1.329a2 2 0 1 1 .002 0Zm39 22.078a2 2 0 1 1 .002 0Zm-11-56.352a2 2 0 1 1 .002 0Zm4 4.957a2 2 0 1 1 .002 0Zm2-10.03a2 2 0 1 1 .002 0Zm-15 64.528a2 2 0 1 1 .002 0Zm-20-10.468a2 2 0 1 1 .002 0Zm31 37.861a2 2 0 1 1 .002 0Zm-35-77.37a2 2 0 1 1 .002 0Zm9 19.357a2 2 0 1 1 .002 0Zm20 40.462a2 2 0 1 1 .002 0Z" class="highcharts-point highcharts-color-3" tabindex="-1" aria-hidden="true" style="outline:0" transform="translate(69 50)"/><path d="M343 178.138a2 2 0 1 1 .002 0Zm40 6.365a2 2 0 1 1 .002 0Zm5 3.772a2 2 0 1 1 .002 0Zm-48 9.407a2 2 0 1 1 .002 0Zm6-71.789a2 2 0 1 1 .002 0Zm32 32.984a2 2 0 1 1 .002 0Zm-16 31.347a2 2 0 1 1 .002 0Zm5-19.669a2 2 0 1 1 .002 0Zm-3 39.361a2 2 0 1 1 .002 0Z" class="highcharts-point highcharts-color-3" tabindex="-1" aria-hidden="true" style="outline:0" transform="translate(69 50)"/><path d="M379 185.717a2 2 0 1 1 .002 0Zm-29 8.696a2 2 0 1 1 .002 0Zm13 72.312a2 2 0 1 1 .002 0Zm5-12.493a2 2 0 1 1 .002 0Zm9-88.007a2 2 0 1 1 .002 0Zm-35 42.66a2 2 0 1 1 .002 0Zm30-18.483a2 2 0 1 1 .002 0Zm1 29.666a2 2 0 1 1 .002 0Z" class="highcharts-point highcharts-color-3" tabindex="-1" aria-hidden="true" style="outline:0" transform="translate(69 50)"/><path d="M370 188.143a2 2 0 1 1 .002 0Zm-17 25.121a2 2 0 1 1 .002 0Zm-8-24.784a2 2 0 1 1 .002 0Zm36-31.927a2 2 0 1 1 .002 0Zm-33 59.306a2 2 0 1 1 .002 0Zm2-6.3a2 2 0 1 1 .002 0Z" class="highcharts-point highcharts-color-3" tabindex="-1" aria-hidden="true" style="outline:0" transform="translate(69 50)"/><path d="M370 184.815a2 2 0 1 1 .002 0Zm3 17.993a2 2 0 1 1 .002 0Zm14 16.766a2 2 0 1 1 .002 0ZM346 171.3a2 2 0 1 1 .002 0Zm32 30.79a2 2 0 1 1 .002 0Z" class="highcharts-point highcharts-color-3" tabindex="-1" aria-hidden="true" style="outline:0" transform="translate(69 50)"/><path d="M378 203.23a2 2 0 1 1 .002 0Zm-26-10.495a2 2 0 1 1 .002 0Zm-12-4.701a2 2 0 1 1 .002 0Zm1-9.321a2 2 0 1 1 .002 0Zm42 13.462a2 2 0 1 1 .002 0Zm-7 49.398a2 2 0 1 1 .002 0Zm-14-75.103a2 2 0 1 1 .002 0Zm1 40.948a2 2 0 1 1 .002 0Zm-11 32.741a2 2 0 1 1 .002 0Zm2-66.722a2 2 0 1 1 .002 0Zm-1 6.533a2 2 0 1 1 .002 0Zm-1 32.404a2 2 0 1 1 .002 0Zm-7 63.588a2 2 0 1 1 .002 0Zm17-86.602a2 2 0 1 1 .002 0Zm2-41.167a2 2 0 1 1 .002 0Zm8 71.546a2 2 0 1 1 .002 0Zm4-21.991a2 2 0 1 1 .002 0Zm-18 11.227a2 2 0 1 1 .002 0Zm26 5.177a2 2 0 1 1 .002 0Zm-4 55.498a2 2 0 1 1 .002 0Z" class="highcharts-point highcharts-color-3" tabindex="-1" aria-hidden="true" style="outline:0" transform="translate(69 50)"/><path d="M349 190.749a2 2 0 1 1 .002 0Zm18 7.147a2 2 0 1 1 .002 0Zm-15 8.577a2 2 0 1 1 .002 0Zm2-91.298a2 2 0 1 1 .002 0Z" class="highcharts-point highcharts-color-3" tabindex="-1" aria-hidden="true" style="outline:0" transform="translate(69 50)"/><path d="M364 199.438a2 2 0 1 1 .002 0Zm15-3.262a2 2 0 1 1 .002 0Zm-4-4.136a2 2 0 1 1 .002 0Zm-28-27.703a2 2 0 1 1 .002 0Zm38 35.649a2 2 0 1 1 .002 0Zm-18 16.754a2 2 0 1 1 .002 0Zm-16-46.215a2 2 0 1 1 .002 0Zm2 27.39a2 2 0 1 1 .002 0Zm13-79.191a2 2 0 1 1 .002 0Zm-18 73.303a2 2 0 1 1 .002 0Zm-5-48.335a2 2 0 1 1 .002 0Zm6 113.978a2 2 0 1 1 .002 0Z" class="highcharts-point highcharts-color-3" tabindex="-1" aria-hidden="true" style="outline:0" transform="translate(69 50)"/><path d="M378 281.31a2 2 0 1 1 .002 0Z" class="highcharts-point highcharts-negative highcharts-color-3" tabindex="-1" aria-hidden="true" style="outline:0" transform="translate(69 50)"/><path d="M383 254.95a2 2 0 1 1 .002 0Zm-38-81.448a2 2 0 1 1 .002 0Zm0 40.138a2 2 0 1 1 .002 0Zm9 11.004a2 2 0 1 1 .002 0Zm17-33.454a2 2 0 1 1 .002 0Zm13 6.268a2 2 0 1 1 .002 0Zm-33-75.102a2 2 0 1 1 .002 0Zm9 67.879a2 2 0 1 1 .002 0Zm20-10.671a2 2 0 1 1 .002 0Zm8 56.833a2 2 0 1 1 .002 0Zm-14-18.881a2 2 0 1 1 .002 0Zm14-10.396a2 2 0 1 1 .002 0Zm-5-31.732a2 2 0 1 1 .002 0Zm-27-36.948a2 2 0 1 1 .002 0Zm-8-6.498a2 2 0 1 1 .002 0Zm15 71.036a2 2 0 1 1 .002 0Zm7-54.128a2 2 0 1 1 .002 0Zm13 61.299a2 2 0 1 1 .002 0Z" class="highcharts-point highcharts-color-3" tabindex="-1" aria-hidden="true" style="outline:0" transform="translate(69 50)"/><path d="M343 174.292a2 2 0 1 1 .002 0Zm5 15.633a2 2 0 1 1 .002 0Zm38 17.458a2 2 0 1 1 .002 0Zm-30-35.126a2 2 0 1 1 .002 0Zm-4 34.611a2 2 0 1 1 .002 0Zm1-55.15a2 2 0 1 1 .002 0Zm31-9.167a2 2 0 1 1 .002 0Zm-6 44.489a2 2 0 1 1 .002 0Zm-6-8.2a2 2 0 1 1 .002 0Zm-4 56.424a2 2 0 1 1 .002 0Zm12-16.438a2 2 0 1 1 .002 0Zm-32 24.568a2 2 0 1 1 .002 0Zm13-73.186a2 2 0 1 1 .002 0Zm7-5.768a2 2 0 1 1 .002 0Zm-5-57.971a2 2 0 1 1 .002 0Zm-22 78.805a2 2 0 1 1 .002 0Zm7 67.417a2 2 0 1 1 .002 0Zm31 23.9a2 2 0 1 1 .002 0Zm-22-35.301a2 2 0 1 1 .002 0Zm13-26.201a2 2 0 1 1 .002 0Zm-30 15.265a2 2 0 1 1 .002 0Zm23-72.369a2 2 0 1 1 .002 0Z" class="highcharts-point highcharts-color-3" tabindex="-1" aria-hidden="true" style="outline:0" transform="translate(69 50)"/><path d="M387 210.148a2 2 0 1 1 .002 0Zm-42-23.868a2 2 0 1 1 .002 0Zm2 23.723a2 2 0 1 1 .002 0Zm-1-4.541a2 2 0 1 1 .002 0Z" class="highcharts-point highcharts-color-3" tabindex="-1" aria-hidden="true" style="outline:0" transform="translate(69 50)"/><path d="M387 213.089a2 2 0 1 1 .002 0Zm-41 17.816a2 2 0 1 1 .002 0Zm23-28.875a2 2 0 1 1 .002 0Zm16 50.875a2 2 0 1 1 .002 0Zm-31-47.982a2 2 0 1 1 .002 0Zm4-7.356a2 2 0 1 1 .002 0Zm-5-8.253a2 2 0 1 1 .002 0Zm33-7.237a2 2 0 1 1 .002 0Zm2 6.454a2 2 0 1 1 .002 0Zm-7 43.646a2 2 0 1 1 .002 0Zm-9-93.576a2 2 0 1 1 .002 0Z" class="highcharts-point highcharts-color-3" tabindex="-1" aria-hidden="true" style="outline:0" transform="translate(69 50)"/><path d="M352 206.398a2 2 0 1 1 .002 0Zm22-30.008a2 2 0 1 1 .002 0Z" class="highcharts-point highcharts-color-3" tabindex="-1" aria-hidden="true" style="outline:0" transform="translate(69 50)"/><path d="M373 175.367a2 2 0 1 1 .002 0Zm9 24.933a2 2 0 1 1 .002 0Zm-19-25.528a2 2 0 1 1 .002 0Zm16 72.356a2 2 0 1 1 .002 0Zm-20-51.145a2 2 0 1 1 .002 0Zm16-14.285a2 2 0 1 1 .002 0Zm-33 54.057a2 2 0 1 1 .002 0Zm25 25.731a2 2 0 1 1 .002 0Zm11-86.475a2 2 0 1 1 .002 0Z" class="highcharts-point highcharts-color-3" tabindex="-1" aria-hidden="true" style="outline:0" transform="translate(69 50)"/><path d="M362 171.203a2 2 0 1 1 .002 0Zm12 2.482a2 2 0 1 1 .002 0Zm-13 30.23a2 2 0 1 1 .002 0Zm12 17.795a2 2 0 1 1 .002 0Zm-8-9.135a2 2 0 1 1 .002 0Zm-14-19.055a2 2 0 1 1 .002 0Zm13-49.525a2 2 0 1 1 .002 0Zm-15 53.375a2 2 0 1 1 .002 0Zm-10-22.223a2 2 0 1 1 .002 0Zm40 63.022a2 2 0 1 1 .002 0Zm4-26.269a2 2 0 1 1 .002 0Zm-36-24.227a2 2 0 1 1 .002 0Zm18 6.194a2 2 0 1 1 .002 0Zm-14-18.097a2 2 0 1 1 .002 0Z" class="highcharts-point highcharts-color-3" tabindex="-1" aria-hidden="true" style="outline:0" transform="translate(69 50)"/><path d="M349 199.98a2 2 0 1 1 .002 0Z" class="highcharts-point highcharts-color-3" tabindex="-1" aria-hidden="true" style="outline:0" transform="translate(69 50)"/><path d="M352 202.6a2 2 0 1 1 .002 0Zm33-2.593a2 2 0 1 1 .002 0Zm-21 65.267a2 2 0 1 1 .002 0Zm20-71.659a2 2 0 1 1 .002 0ZM356 205.7a2 2 0 1 1 .002 0Zm32-9.604a2 2 0 1 1 .002 0Z" class="highcharts-point highcharts-color-3" tabindex="-1" aria-hidden="true" style="outline:0" transform="translate(69 50)"/><path d="M385 194.365a2 2 0 1 1 .002 0Zm-21-4.277a2 2 0 1 1 .002 0Zm-11-35.346a2 2 0 1 1 .002 0Zm-14-18.314a2 2 0 1 1 .002 0Zm25-29.922a2 2 0 1 1 .002 0Zm21 77.159a2 2 0 1 1 .002 0Zm-16 5.308a2 2 0 1 1 .002 0Z" class="highcharts-point highcharts-color-3" tabindex="-1" aria-hidden="true" style="outline:0" transform="translate(69 50)"/><path d="M384 191.828a2 2 0 1 1 .002 0Zm-26-18.118a2 2 0 1 1 .002 0Zm14-28.042a2 2 0 1 1 .002 0Zm-7 44.612a2 2 0 1 1 .002 0Zm19-21.81a2 2 0 1 1 .002 0Zm-7 14.982a2 2 0 1 1 .002 0Zm-27-30.867a2 2 0 1 1 .002 0Zm13 29.248a2 2 0 1 1 .002 0Zm0 18.722a2 2 0 1 1 .002 0Zm-14 8.058a2 2 0 1 1 .002 0Zm30-69.203a2 2 0 1 1 .002 0Zm2 14.732a2 2 0 1 1 .002 0Zm-31 35.678a2 2 0 1 1 .002 0Zm27-30.8a2 2 0 1 1 .002 0Zm-23-34.703a2 2 0 1 1 .002 0Zm23 133.444a2 2 0 1 1 .002 0Z" class="highcharts-point highcharts-color-3" tabindex="-1" aria-hidden="true" style="outline:0" transform="translate(69 50)"/><path d="M348 189.972a2 2 0 1 1 .002 0Zm41-2.864a2 2 0 1 1 .002 0Zm-46 24.564a2 2 0 1 1 .002 0Zm27-17.712a2 2 0 1 1 .002 0Zm-9 19.436a2 2 0 1 1 .002 0Zm-15 8.044a2 2 0 1 1 .002 0Zm21 7.5a2 2 0 1 1 .002 0Zm-13-20.69a2 2 0 1 1 .002 0Zm-12 16.997a2 2 0 1 1 .002 0Zm8-21.318a2 2 0 1 1 .002 0Zm-10 55.363a2 2 0 1 1 .002 0Z" class="highcharts-point highcharts-color-3" tabindex="-1" aria-hidden="true" style="outline:0" transform="translate(69 50)"/></g><g class="highcharts-markers highcharts-series-4 highcharts-scatter-series highcharts-color-4 highcharts-tracker" data-z-index=".1" aria-hidden="false" tabindex="-1" aria-label="Run 5, scatter plot 5 of 5 with 200 points." style="outline:0" fill="rgba(225,211,105,0.5)"><path d="M443 170.317a2 2 0 1 1 .002 0Zm36-39.416a2 2 0 1 1 .002 0Zm13-2.784a2 2 0 1 1 .002 0Zm-39-2.955a2 2 0 1 1 .002 0Zm39 29.048a2 2 0 1 1 .002 0Z" class="highcharts-point highcharts-color-4" tabindex="-1" aria-hidden="true" style="outline:0" transform="translate(69 50)"/><path d="M481 134.102a2 2 0 1 1 .002 0Zm5 13.406a2 2 0 1 1 .002 0Zm1-6.716a2 2 0 1 1 .002 0Zm-14 15.823a2 2 0 1 1 .002 0Zm-20-86.679a2 2 0 1 1 .002 0Z" class="highcharts-point highcharts-color-4" tabindex="-1" aria-hidden="true" style="outline:0" transform="translate(69 50)"/><path d="M483 146.95a2 2 0 1 1 .002 0Zm-35-28.197a2 2 0 1 1 .002 0Zm9 29.039a2 2 0 1 1 .002 0Zm20 5.925a2 2 0 1 1 .002 0Zm-30-7.084a2 2 0 1 1 .002 0Zm40-67.452a2 2 0 1 1 .002 0Zm5 35.139a2 2 0 1 1 .002 0Zm-47-26.233a2 2 0 1 1 .002 0Zm5 11.187a2 2 0 1 1 .002 0Zm32-24.441a2 2 0 1 1 .002 0Zm-16-4.623a2 2 0 1 1 .002 0Zm5 73.927a2 2 0 1 1 .002 0Z" class="highcharts-point highcharts-color-4" tabindex="-1" aria-hidden="true" style="outline:0" transform="translate(69 50)"/><path d="M468 67.67a2 2 0 1 1 .002 0Zm15 69.608a2 2 0 1 1 .002 0Zm-29-4.572a2 2 0 1 1 .002 0Zm14 32.654a2 2 0 1 1 .002 0Zm5-61.89a2 2 0 1 1 .002 0Zm8 12.241a2 2 0 1 1 .002 0Zm-35 9.463a2 2 0 1 1 .002 0Zm30 18.648a2 2 0 1 1 .002 0Zm2 27.738a2 2 0 1 1 .002 0Z" class="highcharts-point highcharts-color-4" tabindex="-1" aria-hidden="true" style="outline:0" transform="translate(69 50)"/><path d="M475 139.7a2 2 0 1 1 .002 0Zm-18-19.268a2 2 0 1 1 .002 0Zm-8 50.047a2 2 0 1 1 .002 0Zm36-31.843a2 2 0 1 1 .002 0Zm-33-12.513a2 2 0 1 1 .002 0Zm2-19.292a2 2 0 1 1 .002 0Zm20 92.116a2 2 0 1 1 .002 0Zm4-84.299a2 2 0 1 1 .002 0Zm13 45.056a2 2 0 1 1 .002 0Zm-41-75.166a2 2 0 1 1 .002 0Zm32 83.26a2 2 0 1 1 .002 0Z" class="highcharts-point highcharts-color-4" tabindex="-1" aria-hidden="true" style="outline:0" transform="translate(69 50)"/><path d="M483 139.288a2 2 0 1 1 .002 0Zm-27-1.856a2 2 0 1 1 .002 0Zm-12 11.418a2 2 0 1 1 .002 0Zm1 14.984a2 2 0 1 1 .002 0Zm43-37.688a2 2 0 1 1 .002 0Zm-8-22a2 2 0 1 1 .002 0Zm-14-22.07a2 2 0 1 1 .002 0Zm1 65.432a2 2 0 1 1 .002 0Z" class="highcharts-point highcharts-color-4" tabindex="-1" aria-hidden="true" style="outline:0" transform="translate(69 50)"/><path d="M456 137.096a2 2 0 1 1 .002 0Zm2 4.031a2 2 0 1 1 .002 0Zm-1 50.68a2 2 0 1 1 .002 0Zm-1-60.045a2 2 0 1 1 .002 0Zm-7-26.062a2 2 0 1 1 .002 0Zm17 14.497a2 2 0 1 1 .002 0Zm2 18.864a2 2 0 1 1 .002 0Zm8 1.423a2 2 0 1 1 .002 0Zm4 2.456a2 2 0 1 1 .002 0Zm-18-9.359a2 2 0 1 1 .002 0Zm26 26.213a2 2 0 1 1 .002 0Zm-3-14.655a2 2 0 1 1 .002 0Zm-32 .151a2 2 0 1 1 .002 0Zm18 65.66a2 2 0 1 1 .002 0Zm-15-85.034a2 2 0 1 1 .002 0Zm2-20.061a2 2 0 1 1 .002 0Zm10 1.61a2 2 0 1 1 .002 0Z" class="highcharts-point highcharts-color-4" tabindex="-1" aria-hidden="true" style="outline:0" transform="translate(69 50)"/><path d="M483 145.407a2 2 0 1 1 .002 0Zm-3-64.951a2 2 0 1 1 .002 0Zm-29 116.099a2 2 0 1 1 .002 0Zm38 .083a2 2 0 1 1 .002 0Zm-18-1.833a2 2 0 1 1 .002 0Zm-16-48.276a2 2 0 1 1 .002 0Zm2-23.857a2 2 0 1 1 .002 0Zm13 78.242a2 2 0 1 1 .002 0Zm-17-99.624a2 2 0 1 1 .002 0Zm-6 22.91a2 2 0 1 1 .002 0Z" class="highcharts-point highcharts-color-4" tabindex="-1" aria-hidden="true" style="outline:0" transform="translate(69 50)"/><path d="M453 123.52a2 2 0 1 1 .002 0Zm30 26.6a2 2 0 1 1 .002 0Z" class="highcharts-point highcharts-color-4" tabindex="-1" aria-hidden="true" style="outline:0" transform="translate(69 50)"/><path d="M487 149.077a2 2 0 1 1 .002 0Zm-38-3.529a2 2 0 1 1 .002 0Zm0-21.898a2 2 0 1 1 .002 0Zm9 25.104a2 2 0 1 1 .002 0Zm18-6.998a2 2 0 1 1 .002 0Zm13-5.682a2 2 0 1 1 .002 0Zm-33 34.506a2 2 0 1 1 .002 0Zm8-55.11a2 2 0 1 1 .002 0Zm20 48.076a2 2 0 1 1 .002 0Zm9 35.512a2 2 0 1 1 .002 0Zm-15-84.174a2 2 0 1 1 .002 0Zm14 42.613a2 2 0 1 1 .002 0Zm-5 20.52a2 2 0 1 1 .002 0Zm-27-40.616a2 2 0 1 1 .002 0Zm-8 53.758a2 2 0 1 1 .002 0Zm15-54.242a2 2 0 1 1 .002 0Zm7 45.876a2 2 0 1 1 .002 0Z" class="highcharts-point highcharts-color-4" tabindex="-1" aria-hidden="true" style="outline:0" transform="translate(69 50)"/><path d="M487 178.375a2 2 0 1 1 .002 0Zm-40-45.764a2 2 0 1 1 .002 0Zm5 48.486a2 2 0 1 1 .002 0Zm38-59.289a2 2 0 1 1 .002 0Zm-29 15.094a2 2 0 1 1 .002 0Zm-5 3.747a2 2 0 1 1 .002 0Zm1-61.099a2 2 0 1 1 .002 0Zm31 51.853a2 2 0 1 1 .002 0Zm-6-31.185a2 2 0 1 1 .002 0Zm-6 34.072a2 2 0 1 1 .002 0Zm-4-37.187a2 2 0 1 1 .002 0Zm12 19.836a2 2 0 1 1 .002 0Zm-31-1.236a2 2 0 1 1 .002 0Zm12-8.54a2 2 0 1 1 .002 0Zm7 52.111a2 2 0 1 1 .002 0Zm-4-10.379a2 2 0 1 1 .002 0Zm-22 63.2a2 2 0 1 1 .002 0Zm6-79.563a2 2 0 1 1 .002 0Z" class="highcharts-point highcharts-color-4" tabindex="-1" aria-hidden="true" style="outline:0" transform="translate(69 50)"/><path d="M484 113.872a2 2 0 1 1 .002 0Zm-23-46.52a2 2 0 1 1 .002 0Zm13 84.522a2 2 0 1 1 .002 0Zm-30-36.534a2 2 0 1 1 .002 0Zm23 39.761a2 2 0 1 1 .002 0Zm24-18.195a2 2 0 1 1 .002 0Zm-42-41.069a2 2 0 1 1 .002 0Zm2-44.457a2 2 0 1 1 .002 0Zm-1 95.602a2 2 0 1 1 .002 0Z" class="highcharts-point highcharts-color-4" tabindex="-1" aria-hidden="true" style="outline:0" transform="translate(69 50)"/><path d="M492 140.07a2 2 0 1 1 .002 0Zm-42-68.454a2 2 0 1 1 .002 0Zm23 54.584a2 2 0 1 1 .002 0Zm16 69.856a2 2 0 1 1 .002 0ZM458 138.4a2 2 0 1 1 .002 0Zm4 76.806a2 2 0 1 1 .002 0Zm-5-91.52a2 2 0 1 1 .002 0Zm33-21.532a2 2 0 1 1 .002 0Z" class="highcharts-point highcharts-color-4" tabindex="-1" aria-hidden="true" style="outline:0" transform="translate(69 50)"/><path d="M492 143.507a2 2 0 1 1 .002 0Zm-7 24.678a2 2 0 1 1 .002 0Zm-9-7.893a2 2 0 1 1 .002 0Zm-20-49.107a2 2 0 1 1 .002 0Zm22 20.108a2 2 0 1 1 .002 0Z" class="highcharts-point highcharts-color-4" tabindex="-1" aria-hidden="true" style="outline:0" transform="translate(69 50)"/><path d="M477 160.209a2 2 0 1 1 .002 0Zm9-76.749a2 2 0 1 1 .002 0Zm-19 26.003a2 2 0 1 1 .002 0Zm16 20.079a2 2 0 1 1 .002 0Zm-20 74.661a2 2 0 1 1 .002 0Zm16-53.895a2 2 0 1 1 .002 0ZM446 117.4a2 2 0 1 1 .002 0Zm25 29.079a2 2 0 1 1 .002 0Zm12 8.546a2 2 0 1 1 .002 0Zm-17-88.37a2 2 0 1 1 .002 0Zm12 60.775a2 2 0 1 1 .002 0Zm-13 95.12a2 2 0 1 1 .002 0Zm12-76.425a2 2 0 1 1 .002 0Zm-8-75.672a2 2 0 1 1 .002 0Zm-14 68.607a2 2 0 1 1 .002 0Zm13 37.122a2 2 0 1 1 .002 0Zm-14-53.89a2 2 0 1 1 .002 0Zm-10 10.1a2 2 0 1 1 .002 0Zm39-11.235a2 2 0 1 1 .002 0Zm4 30.915a2 2 0 1 1 .002 0Zm-36-73.674a2 2 0 1 1 .002 0Zm18 6.348a2 2 0 1 1 .002 0Zm-14-19.997a2 2 0 1 1 .002 0Z" class="highcharts-point highcharts-color-4" tabindex="-1" aria-hidden="true" style="outline:0" transform="translate(69 50)"/><path d="M453 139.233a2 2 0 1 1 .002 0Zm3-14.074a2 2 0 1 1 .002 0Zm34 15.984a2 2 0 1 1 .002 0Zm-22 43.452a2 2 0 1 1 .002 0Zm20-115.162a2 2 0 1 1 .002 0Zm-28 64.758a2 2 0 1 1 .002 0Zm32-11.142a2 2 0 1 1 .002 0Zm-3 73.589a2 2 0 1 1 .002 0Zm-21-60.148a2 2 0 1 1 .002 0Zm-11 18.925a2 2 0 1 1 .002 0Zm-14-2.305a2 2 0 1 1 .002 0Zm25-26.574a2 2 0 1 1 .002 0Zm21-23.566a2 2 0 1 1 .002 0Zm-16 38.597a2 2 0 1 1 .002 0Zm15-28.086a2 2 0 1 1 .002 0Zm-26 .996a2 2 0 1 1 .002 0Zm14 14.635a2 2 0 1 1 .002 0Z" class="highcharts-point highcharts-color-4" tabindex="-1" aria-hidden="true" style="outline:0" transform="translate(69 50)"/><path d="M470 128.026a2 2 0 1 1 .002 0Zm18 13.22a2 2 0 1 1 .002 0Zm-7 90.704a2 2 0 1 1 .002 0Zm-27-51.264a2 2 0 1 1 .002 0Zm13-8.126a2 2 0 1 1 .002 0Zm1-37.716a2 2 0 1 1 .002 0Zm-15 22.648a2 2 0 1 1 .002 0Zm31-22.793a2 2 0 1 1 .002 0Zm2-17.654a2 2 0 1 1 .002 0Z" class="highcharts-point highcharts-color-4" tabindex="-1" aria-hidden="true" style="outline:0" transform="translate(69 50)"/><path d="M454 183.018a2 2 0 1 1 .002 0Zm27-44.498a2 2 0 1 1 .002 0Zm-23-5.049a2 2 0 1 1 .002 0Zm24-62.181a2 2 0 1 1 .002 0Zm-30 102.443a2 2 0 1 1 .002 0Zm41-41.808a2 2 0 1 1 .002 0Zm-45-53.207a2 2 0 1 1 .002 0Zm26 96.881a2 2 0 1 1 .002 0Zm-9-35.054a2 2 0 1 1 .002 0Zm-15-4.455a2 2 0 1 1 .002 0Zm21 50.015a2 2 0 1 1 .002 0Zm-13-26.737a2 2 0 1 1 .002 0Z" class="highcharts-point highcharts-color-4" tabindex="-1" aria-hidden="true" style="outline:0" transform="translate(69 50)"/><path d="M446 136.796a2 2 0 1 1 .002 0Zm8-9.475a2 2 0 1 1 .002 0Zm-10 31.436a2 2 0 1 1 .002 0Z" class="highcharts-point highcharts-color-4" tabindex="-1" aria-hidden="true" style="outline:0" transform="translate(69 50)"/></g></g><text x="300" text-anchor="middle" class="highcharts-title" data-z-index="4" style="color:#2f2b38;font-size:22px;font-weight:500;fill:#2f2b38" y="27" aria-hidden="true">Scatter chart with jitter</text><g class="highcharts-axis-labels highcharts-xaxis-labels" data-z-index="7" aria-hidden="true" text-anchor="middle"><text x="121.1" style="color:#46465c;cursor:default;font-size:12px;fill:#46465c" y="384">Run 1</text><text x="225.3" style="color:#46465c;cursor:default;font-size:12px;fill:#46465c" y="384">Run 2</text><text x="329.5" style="color:#46465c;cursor:default;font-size:12px;fill:#46465c" y="384">Run 3</text><text x="433.7" style="color:#46465c;cursor:default;font-size:12px;fill:#46465c" y="384">Run 4</text><text x="537.9" style="color:#46465c;cursor:default;font-size:12px;fill:#46465c" y="384">Run 5</text></g><g class="highcharts-axis-labels highcharts-yaxis-labels" data-z-index="7" aria-hidden="true" text-anchor="end"><text x="54" style="color:#46465c;cursor:default;font-size:12px;fill:#46465c" y="369">-0.1</text><text x="54" style="color:#46465c;cursor:default;font-size:12px;fill:#46465c" y="330">0</text><text x="54" style="color:#46465c;cursor:default;font-size:12px;fill:#46465c" y="291">0.1</text><text x="54" style="color:#46465c;cursor:default;font-size:12px;fill:#46465c" y="252">0.2</text><text x="54" style="color:#46465c;cursor:default;font-size:12px;fill:#46465c" y="212">0.3</text><text x="54" style="color:#46465c;cursor:default;font-size:12px;fill:#46465c" y="173">0.4</text><text x="54" style="color:#46465c;cursor:default;font-size:12px;fill:#46465c" y="134">0.5</text><text x="54" style="color:#46465c;cursor:default;font-size:12px;fill:#46465c" y="95">0.6</text><text x="54" style="color:#46465c;cursor:default;font-size:12px;fill:#46465c" y="55">0.7</text></g></svg>