<svg class="highcharts-root" style="font-family:&quot;IBM Plex Sans&quot;,sans-serif;font-size:12px" xmlns="http://www.w3.org/2000/svg" width="600" height="300" aria-label="Interactive chart" aria-hidden="false"><defs aria-hidden="true"><clipPath id="a"><path fill="none" d="M0 0h494v176H0z"/></clipPath><clipPath id="b"><path fill="none" d="M4.5 19.5h42v20h-42z"/></clipPath></defs><rect fill="#f0f0f0" class="highcharts-background" width="600" height="300" rx="0" ry="0" aria-hidden="true"/><path fill="none" class="highcharts-plot-background" aria-hidden="true" d="M96 50h494v176H96z"/><g class="highcharts-grid highcharts-xaxis-grid" data-z-index="1" aria-hidden="true" fill="none"><path data-z-index="1" class="highcharts-grid-line" d="M145.5 50v176m106-176v176m106-176v176m106-176v176m106-176v176"/></g><g class="highcharts-grid highcharts-yaxis-grid" data-z-index="1" aria-hidden="true" fill="none" stroke="#ccc"><path data-z-index="1" class="highcharts-grid-line" d="M96 109.5h494m-494 58h494m-494 59h494M96 49.5h494"/></g><path fill="none" class="highcharts-plot-border" data-z-index="1" aria-hidden="true" d="M96 50h494v176H96z"/><g class="highcharts-axis highcharts-xaxis" data-z-index="2" aria-hidden="true" fill="none" stroke="#ccc"><path class="highcharts-tick" d="M145.5 226v10m106-10v10m106-10v10m106-10v10m106-10v10"/><path class="highcharts-axis-line" data-z-index="7" d="M96 226.5h494"/></g><g class="highcharts-axis highcharts-yaxis" data-z-index="2" aria-hidden="true" fill="none"><path class="highcharts-tick" stroke="#ccc" d="M96 109.5H86m10 58H86m10 59H86m10-177H86"/><path class="highcharts-axis-line" data-z-index="7" d="M96 50v176"/></g><g class="highcharts-series-group" data-z-index="3" aria-hidden="false"><g class="highcharts-series highcharts-series-0 highcharts-xrange-series highcharts-tracker" data-z-index=".1" clip-path="url(#a)" aria-hidden="false" transform="translate(96 50)"><g class="highcharts-point highcharts-color-0" tabindex="-1" aria-label="1. Prototyping, Fri Nov 21 2014 to Tue Dec 02 2014." style="outline:0" stroke="gray"><rect x="4.5" y="19.5" width="167" height="20" rx="3" ry="3" fill="#8087E8" class="highcharts-point highcharts-color-0 highcharts-partfill-original"/><rect x="4.5" y="19.5" width="167" height="20" rx="3" ry="3" fill="#343B9C" class="highcharts-partfill-overlay" clip-path="url(#b)"/></g><g class="highcharts-point highcharts-color-1" tabindex="-1" aria-label="2. Development, Tue Dec 02 2014 to Fri Dec 05 2014." style="outline:0"><rect x="171.5" y="78.5" width="45" height="20" rx="3" ry="3" fill="#A3EDBA" class="highcharts-point highcharts-color-1 highcharts-partfill-original" stroke="gray"/></g><g class="highcharts-point highcharts-color-2" tabindex="-1" aria-label="3. Testing, Mon Dec 08 2014 to Tue Dec 09 2014." style="outline:0"><rect x="262.5" y="136.5" width="15" height="20" rx="3" ry="3" fill="#F19E53" class="highcharts-point highcharts-color-2 highcharts-partfill-original" stroke="gray"/></g><g class="highcharts-point highcharts-color-1" tabindex="-1" aria-label="4. Development, Tue Dec 09 2014 to Fri Dec 19 2014." style="outline:0"><rect x="277.5" y="78.5" width="151" height="20" rx="3" ry="3" fill="#A3EDBA" class="highcharts-point highcharts-color-1 highcharts-partfill-original" stroke="gray"/></g><g class="highcharts-point highcharts-color-2" tabindex="-1" aria-label="5. Testing, Wed Dec 10 2014 to Tue Dec 23 2014." style="outline:0"><rect x="292.5" y="136.5" width="197" height="20" rx="3" ry="3" fill="#F19E53" class="highcharts-point highcharts-color-2 highcharts-partfill-original" stroke="gray"/></g></g></g><text x="300" text-anchor="middle" class="highcharts-title" data-z-index="4" style="color:#2f2b38;font-size:22px;font-weight:500;fill:#2f2b38" y="27" aria-hidden="true">Highcharts X-range</text><g class="highcharts-data-labels highcharts-series-0 highcharts-xrange-series highcharts-tracker" data-z-index="6" aria-hidden="true"><text x="5" data-z-index="1" y="18" style="color:#46465c;font-size:13px;font-weight:700;fill:#46465c" transform="translate(166 67)" class="highcharts-label highcharts-data-label highcharts-data-label-color-0"><tspan class="highcharts-text-outline" fill="#FFF" stroke="#FFF" stroke-width="2" stroke-linejoin="round">25%<tspan x="5" dy="0">​</tspan></tspan>25%</text></g><g class="highcharts-legend highcharts-no-tooltip" data-z-index="7" transform="translate(258 259)" aria-hidden="true"><rect fill="#f0f0f0" class="highcharts-legend-box" rx="2" ry="2" stroke="#BBBAC5" x=".5" y=".5" width="83" height="25"/><g class="highcharts-legend-item highcharts-xrange-series highcharts-color-undefined highcharts-series-0" data-z-index="1" transform="translate(8 3)"><text x="21" data-z-index="2" y="15" style="color:#2f2b38;cursor:pointer;font-size:12px;font-weight:400;fill:#2f2b38">Project 1</text><rect x="2" y="4" width="12" height="12" fill="#ccc" rx="6" ry="6" class="highcharts-point" data-z-index="3"/></g></g><g class="highcharts-axis-labels highcharts-xaxis-labels" data-z-index="7" aria-hidden="true" text-anchor="middle"><text x="146.248" style="color:#46465c;cursor:default;font-size:12px;fill:#46465c" y="246">24. Nov</text><text x="252.191" style="color:#46465c;cursor:default;font-size:12px;fill:#46465c" y="246">1. Dec</text><text x="358.135" style="color:#46465c;cursor:default;font-size:12px;fill:#46465c" y="246">8. Dec</text><text x="464.078" style="color:#46465c;cursor:default;font-size:12px;fill:#46465c" y="246">15. Dec</text><text x="569.32" style="color:#46465c;cursor:default;font-size:12px;fill:#46465c" y="246">22. Dec</text></g><g class="highcharts-axis-labels highcharts-yaxis-labels" data-z-index="7" aria-hidden="true" text-anchor="end"><text x="81" style="color:#46465c;cursor:default;font-size:12px;fill:#46465c" y="85">Prototyping</text><text x="81" style="color:#46465c;cursor:default;font-size:12px;fill:#46465c" y="143">Development</text><text x="81" style="color:#46465c;cursor:default;font-size:12px;fill:#46465c" y="202">Testing</text></g></svg>