<svg class="highcharts-root" style="font-family:&quot;Unica One&quot;,sans-serif;font-size:12px" xmlns="http://www.w3.org/2000/svg" width="600" height="400" aria-label="Interactive chart" aria-hidden="false"><defs aria-hidden="true"><linearGradient x1="0" y1="0" x2="1" y2="1" id="a"><stop offset="0" stop-color="#2a2a2b"/><stop offset="1" stop-color="#3e3e40"/></linearGradient></defs><rect fill="url(#a)" class="highcharts-background" width="600" height="400" rx="0" ry="0" aria-hidden="true"/><path d="M42.353 293.36h515.294l6.93 66.405H35.423Zm522.153 67.013H34.582l.841-.608h529.154Z" class="highcharts-3d-frame highcharts-3d-frame-bottom" data-z-index="-1000" aria-hidden="true" fill="none"/><g stroke-linejoin="round" class="highcharts-3d-frame highcharts-3d-frame-left" data-z-index="-1000" aria-hidden="true" fill="none"><path d="m17.572 76.823.89.645-8.294 66.382h-1Zm.89.645 23.89 215.893-6.929 66.404L10.168 143.85Z"/><path d="M34.582 360.373 9.168 143.85h1l25.255 215.915Z"/></g><path d="M17.572 76.823h563.885l.08.645H18.463Zm.89.645h563.076l-23.89 215.893H42.352Z" class="highcharts-3d-frame highcharts-3d-frame-back" data-z-index="-1000" aria-hidden="true" fill="none"/><path fill="none" class="highcharts-plot-background" aria-hidden="true" d="M10 61h580v324H10z"/><path fill="none" class="highcharts-plot-border" data-z-index="1" aria-hidden="true" d="M10 61h580v324H10z"/><g class="highcharts-series-group" data-z-index="3" aria-hidden="false"><g class="highcharts-series highcharts-series-0 highcharts-pie-series highcharts-tracker" data-z-index=".1" aria-hidden="false"><path fill="#127776" d="M449.678 204.286v23.865l-100.442 12.558v-23.865Z" data-z-index="20.164" class="highcharts-point highcharts-color-0"/><path fill="#C63A3A" d="M260.72 119.17v23.866l26.359 69.674v-23.864Z" data-z-index="39.499" class="highcharts-point highcharts-color-8"/><path fill="#C63A3A" d="M299.94 115.52v23.865l.04 72.125v-23.865Z" data-z-index="25877.509" class="highcharts-point highcharts-color-8"/><path fill="#3CA622" d="M212.876 134.928v23.865l58.465 59.1V194.03Z" data-z-index="25878.499" class="highcharts-point highcharts-color-7"/><path fill="#C63A3A" d="M260.72 119.17c13.474-2.548 25.271-3.646 39.22-3.65v23.865c-13.949.004-25.746 1.102-39.22 3.65Zm26.359 69.676c4.432-.839 8.313-1.2 12.901-1.201v23.865c-4.588 0-8.469.362-12.901 1.2Z" data-z-index="26138.898" class="highcharts-point highcharts-color-8"/><path fill="#3CA622" d="M260.718 119.17v23.866l26.36 69.675v-23.865Z" data-z-index="60428.509" class="highcharts-point highcharts-color-7"/><path fill="#D591D5" d="M157.184 186.205v23.865l95.837 24.691v-23.865Z" data-z-index="60429.499" class="highcharts-point highcharts-color-6"/><path fill="#3CA622" d="M212.876 134.928c15.283-7.56 29.825-12.349 47.842-15.757v23.865c-18.017 3.408-32.56 8.198-47.842 15.757Zm58.464 59.101c5.028-2.487 9.812-4.062 15.738-5.183v23.865c-5.926 1.12-10.71 2.696-15.737 5.183Z" data-z-index="61038.898" class="highcharts-point highcharts-color-7"/><path fill="#D591D5" d="M212.874 134.929v23.864l58.466 59.101v-23.865Z" data-z-index="120917.509" class="highcharts-point highcharts-color-6"/><path fill="#E6004D" d="M150.31 241.67v23.865l100.45-12.529v-23.865Z" data-z-index="120918.499" class="highcharts-point highcharts-color-5"/><path fill="#D591D5" d="M157.184 186.205c11.179-21.694 28.934-38.042 55.69-51.276v23.864c-26.756 13.235-44.511 29.583-55.69 51.277Zm95.837 24.691c3.677-7.136 9.518-12.513 18.32-16.867v23.865c-8.802 4.353-14.643 9.731-18.32 16.867Z" data-z-index="122138.898" class="highcharts-point highcharts-color-6"/><path fill="#127776" d="M299.969 115.52v23.865l.02 72.125v-23.865Z" data-z-index="138182.846" class="highcharts-point highcharts-color-0"/><path fill="#77D565" d="M397.666 305.357v23.865l-65.54-55.266v-23.865Z" data-z-index="138183.836" class="highcharts-point highcharts-color-1"/><path fill="#127776" d="M299.969 115.52c74.605-.011 136.72 36.818 149.71 88.766v23.865c-12.99-51.948-75.105-88.777-149.71-88.766Zm.021 72.125c24.541-.004 44.973 12.11 49.246 29.199v23.865c-4.273-17.088-24.705-29.203-49.246-29.2Z" data-z-index="139578.633" class="highcharts-point highcharts-color-0"/><path fill="#E6004D" d="M157.184 186.206v23.865l95.837 24.69v-23.864Z" data-z-index="172793.509" class="highcharts-point highcharts-color-5"/><path fill="#91D5D5" d="M202.288 305.33v23.865l65.57-55.248v-23.865Z" data-z-index="172794.499" class="highcharts-point highcharts-color-4"/><path fill="#E6004D" d="M150.31 241.67c-1.62-6.497-2.31-12.072-2.31-18.67v23.865c0-13.204 2.792-24.388 9.184-36.794v-23.865C150.792 198.612 148 209.796 148 223v23.865c0 6.598.69 12.172 2.31 18.67Zm100.45-12.529c-1.6-6.414-.892-12.124 2.261-18.244v23.865c-3.153 6.12-3.861 11.83-2.26 18.244Z" data-z-index="174538.898" class="highcharts-point highcharts-color-5"/><path fill="#91D5D5" d="M150.311 241.671v23.865l100.45-12.53v-23.864Z" data-z-index="241895.509" class="highcharts-point highcharts-color-4"/><path fill="#5E7FA6" d="M299.969 330.48v23.865l.02-72.125v-23.865Z" data-z-index="241896.499" class="highcharts-point highcharts-color-3"/><path fill="#77D565" d="M449.678 204.287v23.865l-100.442 12.557v-23.865Z" data-z-index="241934.846" class="highcharts-point highcharts-color-1"/><path fill="#DB4242" d="M299.97 330.48v23.865l.02-72.125v-23.865Z" data-z-index="241935.836" class="highcharts-point highcharts-color-2"/><path fill="#91D5D5" d="M202.288 305.33c-28.574-16.956-45.497-37.683-51.977-63.659v23.865c6.48 25.976 23.403 46.702 51.977 63.659Zm65.57-55.248c-9.4-5.578-14.966-12.396-17.098-20.94v23.865c2.132 8.544 7.699 15.362 17.098 20.94Z" data-z-index="244338.898" class="highcharts-point highcharts-color-4"/><path fill="#77D565" d="M452 223c0 32.99-18.585 61.16-54.334 82.357v23.865C433.416 308.025 452 279.855 452 246.865Zm-102.764-6.156c3.208 12.829-2.992 24.877-17.11 33.247v23.865c14.118-8.37 20.318-20.418 17.11-33.247Z" data-z-index="244378.633" class="highcharts-point highcharts-color-1"/><path fill="#5E7FA6" d="M202.29 305.33v23.865l65.568-55.248v-23.865Z" data-z-index="310997.509" class="highcharts-point highcharts-color-3"/><path fill="#DB4242" d="M397.665 305.358v23.865l-65.538-55.267v-23.865Z" data-z-index="310998.499" class="highcharts-point highcharts-color-2"/><path fill="#5E7FA6" d="M299.969 330.48c-37.302-.005-69.106-8.194-97.68-25.15v23.865c28.574 16.956 60.378 25.145 97.68 25.15Zm.021-72.125c-12.27-.001-22.732-2.695-32.132-8.273v23.865c9.4 5.578 19.861 8.271 32.132 8.273Z" data-z-index="314138.898" class="highcharts-point highcharts-color-3"/><path fill="#DB4242" d="M397.665 305.358c-28.584 16.948-60.392 25.127-97.694 25.122v23.865c37.302.005 69.11-8.174 97.694-25.122Zm-65.538-55.267c-9.403 5.575-19.866 8.266-32.137 8.264v23.865c12.27.002 22.734-2.689 32.137-8.264Z" data-z-index="314139.898" class="highcharts-point highcharts-color-2"/><g data-z-index="31416026.536" stroke="#2b908f" stroke-linejoin="round" tabindex="-1" aria-label="Norway, 16. Medals." style="outline:0"><path fill="#2b908f" d="M299.969 115.52c74.605-.011 136.72 36.818 149.71 88.766l-100.443 12.558c-4.273-17.088-24.705-29.203-49.246-29.2Z" data-z-index="314160.265" class="highcharts-point highcharts-color-0"/></g><g data-z-index="31416026.536" stroke="#90ee7e" stroke-linejoin="round" tabindex="-1" aria-label="Germany, 12. Medals." style="outline:0"><path fill="#90ee7e" d="M449.678 204.287c9.752 38.998-9.096 75.624-52.012 101.07l-65.54-55.266c14.118-8.37 20.318-20.418 17.11-33.247Z" data-z-index="314160.265" class="highcharts-point highcharts-color-1"/></g><g data-z-index="31416026.536" stroke="#f45b5b" stroke-linejoin="round" tabindex="-1" aria-label="USA, 8. Medals." style="outline:0"><path fill="#f45b5b" d="M397.665 305.358c-28.584 16.948-60.392 25.127-97.694 25.122l.02-72.125c12.27.002 22.733-2.689 32.136-8.264Z" data-z-index="314160.265" class="highcharts-point highcharts-color-2"/></g><g data-z-index="31416026.536" stroke="#7798BF" stroke-linejoin="round" tabindex="-1" aria-label="Sweden, 8. Medals." style="outline:0"><path fill="#7798BF" d="M299.969 330.48c-37.302-.005-69.106-8.194-97.68-25.15l65.57-55.248c9.399 5.578 19.86 8.272 32.13 8.273Z" data-z-index="314160.265" class="highcharts-point highcharts-color-3"/></g><g data-z-index="31416026.536" stroke="#aee" stroke-linejoin="round" tabindex="-1" aria-label="Netherlands, 8. Medals." style="outline:0"><path fill="#aee" d="M202.288 305.33c-28.574-16.956-45.497-37.683-51.977-63.659l100.45-12.53c2.13 8.545 7.698 15.363 17.097 20.941Z" data-z-index="314160.265" class="highcharts-point highcharts-color-4"/></g><g data-z-index="31416026.536" stroke="#f06" stroke-linejoin="round" tabindex="-1" aria-label="ROC, 6. Medals." style="outline:0"><path fill="#f06" d="M150.31 241.67c-4.864-19.5-2.712-36.859 6.874-55.464l95.837 24.69c-3.153 6.12-3.861 11.83-2.26 18.245Z" data-z-index="314160.265" class="highcharts-point highcharts-color-5"/></g><g data-z-index="31416026.536" stroke="#eae" stroke-linejoin="round" tabindex="-1" aria-label="Austria, 7. Medals." style="outline:0"><path fill="#eae" d="M157.184 186.205c11.179-21.694 28.934-38.042 55.69-51.276l58.466 59.1c-8.801 4.354-14.642 9.731-18.319 16.867Z" data-z-index="314160.265" class="highcharts-point highcharts-color-6"/></g><g data-z-index="31416026.536" stroke="#55BF3B" stroke-linejoin="round" tabindex="-1" aria-label="Canada, 4. Medals." style="outline:0"><path fill="#55BF3B" d="M212.876 134.928c15.283-7.56 29.825-12.349 47.842-15.757l26.36 69.675c-5.926 1.12-10.71 2.696-15.737 5.183Z" data-z-index="314160.265" class="highcharts-point highcharts-color-7"/></g><g data-z-index="31416026.536" stroke="#DF5353" stroke-linejoin="round" tabindex="-1" aria-label="Japan, 3. Medals." style="outline:0"><path fill="#DF5353" d="M260.72 119.17c13.474-2.548 25.271-3.646 39.22-3.65l.04 72.125c-4.588.001-8.469.362-12.901 1.2Z" data-z-index="314160.265" class="highcharts-point highcharts-color-8"/></g></g></g><text x="300" text-anchor="middle" class="highcharts-title" data-z-index="4" style="color:#e0e0e3;font-size:20px;text-transform:uppercase;fill:#e0e0e3" y="25" aria-hidden="true">Beijing 2022 gold medals by country</text><text x="300" text-anchor="middle" class="highcharts-subtitle" data-z-index="4" style="color:#e0e0e3;text-transform:uppercase;fill:#e0e0e3" y="46" aria-hidden="true">3D donut in Highcharts</text><g class="highcharts-data-labels highcharts-series-0 highcharts-pie-series highcharts-tracker" data-z-index="6" aria-hidden="true"><path fill="none" class="highcharts-data-label-connector highcharts-color-0" stroke="#2b908f" d="M453.44 117.694c-5 0-48.023 13.788-51.88 18.385l-3.856 4.596"/><path fill="none" class="highcharts-data-label-connector highcharts-color-1" stroke="#90ee7e" d="M480.82 270.024c-5 0-26.71-6.157-32.349-8.209l-5.638-2.052"/><path fill="none" class="highcharts-data-label-connector highcharts-color-2" stroke="#f45b5b" d="M433.2 352.185c-5 0-77.109-16.914-79.16-22.553l-2.053-5.638"/><path fill="none" class="highcharts-data-label-connector highcharts-color-3" stroke="#7798BF" d="M166.806 352.191c5 0 77.103-16.914 79.155-22.552l2.052-5.639"/><path fill="none" class="highcharts-data-label-connector highcharts-color-4" stroke="#aee" d="M126.48 291.74c5 0 31.492-9 36.688-12l5.196-3"/><path fill="none" class="highcharts-data-label-connector highcharts-color-5" stroke="#f06" d="M113.394 211.024c5 0 23.23 1.569 29.207 2.092l5.977.523"/><path fill="none" class="highcharts-data-label-connector highcharts-color-6" stroke="#eae" d="M133.377 139.322c5 0 36.513 10.957 41.273 14.61l4.76 3.653"/><path fill="none" class="highcharts-data-label-connector highcharts-color-7" stroke="#55BF3B" d="M156.391 105.052c5 0 74.3 9.67 76.835 15.108l2.536 5.438"/><path fill="none" class="highcharts-data-label-connector highcharts-color-8" stroke="#DF5353" d="M182.35 80.052c5 0 96.244 24.49 97.027 30.439l.783 5.948"/><text x="5" data-z-index="1" y="18" style="color:#f0f0f3;font-size:13px;font-weight:700;fill:#f0f0f3" transform="translate(458 108)" class="highcharts-label highcharts-data-label highcharts-data-label-color-0"><tspan class="highcharts-text-outline" fill="#000" stroke="#000" stroke-width="2" stroke-linejoin="round">Norway<tspan x="5" dy="0">​</tspan></tspan>Norway</text><text x="5" data-z-index="1" y="18" style="color:#f0f0f3;font-size:13px;font-weight:700;fill:#f0f0f3" transform="translate(486 260)" class="highcharts-label highcharts-data-label highcharts-data-label-color-1"><tspan class="highcharts-text-outline" fill="#000" stroke="#000" stroke-width="2" stroke-linejoin="round">Germany<tspan x="5" dy="0">​</tspan></tspan>Germany</text><text x="5" data-z-index="1" y="18" style="color:#f0f0f3;font-size:13px;font-weight:700;fill:#f0f0f3" transform="translate(438 342)" class="highcharts-label highcharts-data-label highcharts-data-label-color-2"><tspan class="highcharts-text-outline" fill="#000" stroke="#000" stroke-width="2" stroke-linejoin="round">USA<tspan x="5" dy="0">​</tspan></tspan>USA</text><text x="5" data-z-index="1" y="18" style="color:#f0f0f3;font-size:13px;font-weight:700;fill:#f0f0f3" transform="translate(103 342)" class="highcharts-label highcharts-data-label highcharts-data-label-color-3"><tspan class="highcharts-text-outline" fill="#000" stroke="#000" stroke-width="2" stroke-linejoin="round">Sweden<tspan x="5" dy="0">​</tspan></tspan>Sweden</text><text x="5" data-z-index="1" y="18" style="color:#f0f0f3;font-size:13px;font-weight:700;fill:#f0f0f3" transform="translate(36 282)" class="highcharts-label highcharts-data-label highcharts-data-label-color-4"><tspan class="highcharts-text-outline" fill="#000" stroke="#000" stroke-width="2" stroke-linejoin="round">Netherlands<tspan x="5" dy="0">​</tspan></tspan>Netherlands</text><text x="5" data-z-index="1" y="18" style="color:#f0f0f3;font-size:13px;font-weight:700;fill:#f0f0f3" transform="translate(70 201)" class="highcharts-label highcharts-data-label highcharts-data-label-color-5"><tspan class="highcharts-text-outline" fill="#000" stroke="#000" stroke-width="2" stroke-linejoin="round">ROC<tspan x="5" dy="0">​</tspan></tspan>ROC</text><text x="5" data-z-index="1" y="18" style="color:#f0f0f3;font-size:13px;font-weight:700;fill:#f0f0f3" transform="translate(74 129)" class="highcharts-label highcharts-data-label highcharts-data-label-color-6"><tspan class="highcharts-text-outline" fill="#000" stroke="#000" stroke-width="2" stroke-linejoin="round">Austria<tspan x="5" dy="0">​</tspan></tspan>Austria</text><text x="5" data-z-index="1" y="18" style="color:#f0f0f3;font-size:13px;font-weight:700;fill:#f0f0f3" transform="translate(94 95)" class="highcharts-label highcharts-data-label highcharts-data-label-color-7"><tspan class="highcharts-text-outline" fill="#000" stroke="#000" stroke-width="2" stroke-linejoin="round">Canada<tspan x="5" dy="0">​</tspan></tspan>Canada</text><text x="5" data-z-index="1" y="18" style="color:#f0f0f3;font-size:13px;font-weight:700;fill:#f0f0f3" transform="translate(130 70)" class="highcharts-label highcharts-data-label highcharts-data-label-color-8"><tspan class="highcharts-text-outline" fill="#000" stroke="#000" stroke-width="2" stroke-linejoin="round">Japan<tspan x="5" dy="0">​</tspan></tspan>Japan</text></g></svg>