<svg class="highcharts-root" style="font-family:&quot;Unica One&quot;,sans-serif;font-size:12px" xmlns="http://www.w3.org/2000/svg" width="600" height="420" aria-label="Interactive chart" aria-hidden="false"><defs aria-hidden="true"><linearGradient x1="0" y1="0" x2="1" y2="1" id="a"><stop offset="0" stop-color="#2a2a2b"/><stop offset="1" stop-color="#3e3e40"/></linearGradient><clipPath id="b"><path fill="none" d="M0 0h529v238H0z"/></clipPath></defs><rect fill="url(#a)" class="highcharts-background" width="600" height="420" rx="0" ry="0" aria-hidden="true"/><path fill="none" class="highcharts-plot-background" aria-hidden="true" d="M61 61h529v238H61z"/><g class="highcharts-grid highcharts-xaxis-grid" data-z-index="1" aria-hidden="true" fill="none"><path data-z-index="1" class="highcharts-grid-line" d="M148.5 61v238m88-238v238m89-238v238m88-238v238m88-238v238m88-238v238M60.5 61v238"/></g><g class="highcharts-grid highcharts-yaxis-grid" data-z-index="1" aria-hidden="true" fill="none" stroke="#707073"><path data-z-index="1" class="highcharts-grid-line" d="M61 299.5h529m-529-59h529m-529-60h529m-529-59h529m-529-61h529"/></g><path fill="none" class="highcharts-plot-border" data-z-index="1" aria-hidden="true" d="M61 61h529v238H61z"/><g class="highcharts-axis highcharts-xaxis" data-z-index="2" aria-hidden="true"><text x="325.5" data-z-index="7" text-anchor="middle" class="highcharts-axis-title" style="color:#a0a0a3;fill:#a0a0a3" y="350.5">Time</text><path fill="none" class="highcharts-axis-line" stroke="#707073" data-z-index="7" d="M61 299.5h529"/></g><g class="highcharts-axis highcharts-yaxis" data-z-index="2" aria-hidden="true"><path fill="none" class="highcharts-tick" stroke="#707073" d="M61 299.5H51m10-59H51m10-60H51m10-59H51m10-61H51"/><text x="23.758" data-z-index="7" text-anchor="middle" transform="rotate(-90 23.758 180)" class="highcharts-axis-title" style="color:#a0a0a3;fill:#a0a0a3" y="180">Percentage usage</text><path fill="none" class="highcharts-axis-line" data-z-index="7" d="M61 61v238"/></g><g class="highcharts-series-group" data-z-index="3" aria-hidden="false"><g class="highcharts-series highcharts-series-0 highcharts-spline-series" data-z-index=".1" clip-path="url(#b)" aria-hidden="true" fill="none" stroke-linejoin="round" stroke-linecap="round" transform="translate(61 61)"><path d="m44.083 134.47 88.167-24.395c35.267-9.758 52.9-24.395 88.167-24.395 35.266 0 52.9 29.155 88.166 29.155 35.267 0 52.9-51.467 88.167-69.912 35.267-18.445 88.167-22.313 88.167-22.313" class="highcharts-graph" data-z-index="1" stroke="#f45b5b" stroke-width="2"/><path d="m44.083 134.47 88.167-24.395c35.267-9.758 52.9-24.395 88.167-24.395 35.266 0 52.9 29.155 88.166 29.155 35.267 0 52.9-51.467 88.167-69.912 35.267-18.445 88.167-22.313 88.167-22.313" data-z-index="2" class="highcharts-tracker-line" stroke="rgba(192,192,192,0.0001)" stroke-width="22" style="cursor:pointer"/></g><g class="highcharts-markers highcharts-series-0 highcharts-spline-series highcharts-tracker" data-z-index=".1" style="cursor:pointer;outline:0" aria-hidden="false" tabindex="-1" aria-label="NVDA, line 1 of 6 with 6 data points. This is the most used screen reader in 2019." fill="#f45b5b"><path d="M44 138a4 4 0 1 1 .004 0Z" class="highcharts-point" tabindex="-1" aria-label="December 2010, 34.8%. NVDA." style="outline:0" transform="translate(61 61)"/><path d="M132 114a4 4 0 1 1 .004 0Z" class="highcharts-point" tabindex="-1" aria-label="May 2012, 43%. NVDA." style="outline:0" transform="translate(61 61)"/><path d="M220 90a4 4 0 1 1 .004 0Z" class="highcharts-point" tabindex="-1" aria-label="January 2014, 51.2%. NVDA." style="outline:0" transform="translate(61 61)"/><path d="M308 119a4 4 0 1 1 .004 0Z" class="highcharts-point" tabindex="-1" aria-label="July 2015, 41.4%. NVDA." style="outline:0" transform="translate(61 61)"/><path d="M396 49a4 4 0 1 1 .004 0Z" class="highcharts-point" tabindex="-1" aria-label="October 2017, 64.9%. NVDA." style="outline:0" transform="translate(61 61)"/><path d="M484 27a4 4 0 1 1 .004 0Z" class="highcharts-point" tabindex="-1" aria-label="September 2019, 72.4%. NVDA." style="outline:0" transform="translate(61 61)"/></g><g class="highcharts-series highcharts-series-1 highcharts-spline-series" data-z-index=".1" clip-path="url(#b)" aria-hidden="true" fill="none" transform="translate(61 61)"><path d="M44.083 30.94s52.9 17.553 88.167 17.553 52.9-.595 88.167-.595c35.266 0 52.9 60.095 88.166 60.095 35.267 0 52.9-66.343 88.167-66.343s88.167 12.792 88.167 12.792" class="highcharts-graph" data-z-index="1" stroke="#2b908f" stroke-width="2" stroke-dasharray="6,2,2,2"/><path d="M44.083 30.94s52.9 17.553 88.167 17.553 52.9-.595 88.167-.595c35.266 0 52.9 60.095 88.166 60.095 35.267 0 52.9-66.343 88.167-66.343s88.167 12.792 88.167 12.792" data-z-index="2" class="highcharts-tracker-line" stroke-linecap="round" stroke-linejoin="round" stroke="rgba(192,192,192,0.0001)" stroke-width="22" style="cursor:pointer"/></g><g class="highcharts-markers highcharts-series-1 highcharts-spline-series highcharts-tracker" data-z-index=".1" style="cursor:pointer;outline:0" aria-hidden="false" tabindex="-1" aria-label="JAWS, line 2 of 6 with 6 data points." fill="#2b908f"><path d="m44 27 4 4-4 4-4-4Z" class="highcharts-point" tabindex="-1" aria-label="December 2010, 69.6%. JAWS." style="outline:0" transform="translate(61 61)"/><path d="m132 44 4 4-4 4-4-4Z" class="highcharts-point" tabindex="-1" aria-label="May 2012, 63.7%. JAWS." style="outline:0" transform="translate(61 61)"/><path d="m220 44 4 4-4 4-4-4Z" class="highcharts-point" tabindex="-1" aria-label="January 2014, 63.9%. JAWS." style="outline:0" transform="translate(61 61)"/><path d="m308 104 4 4-4 4-4-4Z" class="highcharts-point" tabindex="-1" aria-label="July 2015, 43.7%. JAWS." style="outline:0" transform="translate(61 61)"/><path d="m396 38 4 4-4 4-4-4Z" class="highcharts-point" tabindex="-1" aria-label="October 2017, 66%. JAWS." style="outline:0" transform="translate(61 61)"/><path d="m484 50 4 4-4 4-4-4Z" class="highcharts-point" tabindex="-1" aria-label="September 2019, 61.7%. JAWS." style="outline:0" transform="translate(61 61)"/></g><g class="highcharts-series highcharts-series-2 highcharts-spline-series" data-z-index=".1" clip-path="url(#b)" aria-hidden="true" fill="none" transform="translate(61 61)"><path d="M44.083 177.905s52.9-21.36 88.167-31.237c35.267-9.877 52.9-18.148 88.167-18.148 35.266 0 52.9 17.552 88.166 17.552 35.267 0 52.9-16.243 88.167-25.882 35.267-9.639 88.167-22.313 88.167-22.313" class="highcharts-graph" data-z-index="1" stroke="#90ee7e" stroke-width="2" stroke-dasharray="2,2"/><path d="M44.083 177.905s52.9-21.36 88.167-31.237c35.267-9.877 52.9-18.148 88.167-18.148 35.266 0 52.9 17.552 88.166 17.552 35.267 0 52.9-16.243 88.167-25.882 35.267-9.639 88.167-22.313 88.167-22.313" data-z-index="2" class="highcharts-tracker-line" stroke-linecap="round" stroke-linejoin="round" stroke="rgba(192,192,192,0.0001)" stroke-width="22" style="cursor:pointer"/></g><g class="highcharts-markers highcharts-series-2 highcharts-spline-series highcharts-tracker" data-z-index=".1" style="cursor:pointer;outline:0" aria-hidden="false" tabindex="-1" aria-label="VoiceOver, line 3 of 6 with 6 data points." fill="#90ee7e"><path d="M40 174h8v8h-8Z" class="highcharts-point" tabindex="-1" aria-label="December 2010, 20.2%. VoiceOver." style="outline:0" transform="translate(61 61)"/><path d="M128 143h8v8h-8Z" class="highcharts-point" tabindex="-1" aria-label="May 2012, 30.7%. VoiceOver." style="outline:0" transform="translate(61 61)"/><path d="M216 125h8v8h-8Z" class="highcharts-point" tabindex="-1" aria-label="January 2014, 36.8%. VoiceOver." style="outline:0" transform="translate(61 61)"/><path d="M304 142h8v8h-8Z" class="highcharts-point" tabindex="-1" aria-label="July 2015, 30.9%. VoiceOver." style="outline:0" transform="translate(61 61)"/><path d="M392 116h8v8h-8Z" class="highcharts-point" tabindex="-1" aria-label="October 2017, 39.6%. VoiceOver." style="outline:0" transform="translate(61 61)"/><path d="M480 94h8v8h-8Z" class="highcharts-point" tabindex="-1" aria-label="September 2019, 47.1%. VoiceOver." style="outline:0" transform="translate(61 61)"/></g><g class="highcharts-series highcharts-series-3 highcharts-spline-series" data-z-index=".1" clip-path="url(#b)" aria-hidden="true" fill="none" transform="translate(61 61)"><path d="m396.75 174.335 88.167-26.477" class="highcharts-graph" data-z-index="1" stroke="#7798BF" stroke-width="2" stroke-dasharray="8,6"/><path d="m396.75 174.335 88.167-26.477" data-z-index="2" class="highcharts-tracker-line" stroke-linecap="round" stroke-linejoin="round" stroke="rgba(192,192,192,0.0001)" stroke-width="22" style="cursor:pointer"/></g><g class="highcharts-markers highcharts-series-3 highcharts-spline-series highcharts-tracker" data-z-index=".1" style="cursor:pointer;outline:0" aria-hidden="false" tabindex="-1" aria-label="Narrator, line 4 of 6 with 6 data points." fill="#7798BF"><path d="m396 170 4 8h-8Z" class="highcharts-point" tabindex="-1" aria-label="October 2017, 21.4%. Narrator." style="outline:0" transform="translate(61 61)"/><path d="m484 144 4 8h-8Z" class="highcharts-point" tabindex="-1" aria-label="September 2019, 30.3%. Narrator." style="outline:0" transform="translate(61 61)"/></g><g class="highcharts-series highcharts-series-4 highcharts-spline-series" data-z-index=".1" clip-path="url(#b)" aria-hidden="true" fill="none" transform="translate(61 61)"><path d="M44.083 219.852s52.9-2.082 88.167-2.082 52.9 4.462 88.167 4.462c35.266 0 52.9-66.044 88.166-66.044 35.267 0 52.9 62.475 88.167 63.962 35.267 1.487 88.167 1.487 88.167 1.487" class="highcharts-graph" data-z-index="1" stroke="#f06" stroke-width="2" stroke-dasharray="2,2"/><path d="M44.083 219.852s52.9-2.082 88.167-2.082 52.9 4.462 88.167 4.462c35.266 0 52.9-66.044 88.166-66.044 35.267 0 52.9 62.475 88.167 63.962 35.267 1.487 88.167 1.487 88.167 1.487" data-z-index="2" class="highcharts-tracker-line" stroke-linecap="round" stroke-linejoin="round" stroke="rgba(192,192,192,0.0001)" stroke-width="22" style="cursor:pointer"/></g><g class="highcharts-markers highcharts-series-4 highcharts-spline-series highcharts-tracker" data-z-index=".1" style="cursor:pointer;outline:0" aria-hidden="false" tabindex="-1" aria-label="ZoomText/Fusion, line 5 of 6 with 6 data points." fill="#f06"><path d="M40 216h8l-4 8Z" class="highcharts-point" tabindex="-1" aria-label="December 2010, 6.1%. ZoomText/Fusion." style="outline:0" transform="translate(61 61)"/><path d="M128 214h8l-4 8Z" class="highcharts-point" tabindex="-1" aria-label="May 2012, 6.8%. ZoomText/Fusion." style="outline:0" transform="translate(61 61)"/><path d="M216 218h8l-4 8Z" class="highcharts-point" tabindex="-1" aria-label="January 2014, 5.3%. ZoomText/Fusion." style="outline:0" transform="translate(61 61)"/><path d="M304 152h8l-4 8Z" class="highcharts-point" tabindex="-1" aria-label="July 2015, 27.5%. ZoomText/Fusion." style="outline:0" transform="translate(61 61)"/><path d="M392 216h8l-4 8Z" class="highcharts-point" tabindex="-1" aria-label="October 2017, 6%. ZoomText/Fusion." style="outline:0" transform="translate(61 61)"/><path d="M480 218h8l-4 8Z" class="highcharts-point" tabindex="-1" aria-label="September 2019, 5.5%. ZoomText/Fusion." style="outline:0" transform="translate(61 61)"/></g><g class="highcharts-series highcharts-series-5 highcharts-spline-series" data-z-index=".1" clip-path="url(#b)" aria-hidden="true" fill="none" transform="translate(61 61)"><path d="M44.083 111.265s52.9-19.575 88.167-26.478c35.267-6.901 52.9-8.032 88.167-8.032 35.266 0 52.9 4.76 88.166 24.99 35.267 20.23 52.9 61.88 88.167 76.16 35.267 14.28 88.167 14.28 88.167 14.28" class="highcharts-graph" data-z-index="1" stroke="#7798BF" stroke-width="2" stroke-dasharray="6,2"/><path d="M44.083 111.265s52.9-19.575 88.167-26.478c35.267-6.901 52.9-8.032 88.167-8.032 35.266 0 52.9 4.76 88.166 24.99 35.267 20.23 52.9 61.88 88.167 76.16 35.267 14.28 88.167 14.28 88.167 14.28" data-z-index="2" class="highcharts-tracker-line" stroke-linecap="round" stroke-linejoin="round" stroke="rgba(192,192,192,0.0001)" stroke-width="22" style="cursor:pointer"/></g><g class="highcharts-markers highcharts-series-5 highcharts-spline-series highcharts-tracker" data-z-index=".1" style="cursor:pointer;outline:0" aria-hidden="false" tabindex="-1" aria-label="Other, line 6 of 6 with 6 data points." fill="#7798BF"><path d="M44 115a4 4 0 1 1 .004 0Z" class="highcharts-point" tabindex="-1" aria-label="December 2010, 42.6%. Other." style="outline:0" transform="translate(61 61)"/><path d="M132 89a4 4 0 1 1 .004 0Z" class="highcharts-point" tabindex="-1" aria-label="May 2012, 51.5%. Other." style="outline:0" transform="translate(61 61)"/><path d="M220 81a4 4 0 1 1 .004 0Z" class="highcharts-point" tabindex="-1" aria-label="January 2014, 54.2%. Other." style="outline:0" transform="translate(61 61)"/><path d="M308 106a4 4 0 1 1 .004 0Z" class="highcharts-point" tabindex="-1" aria-label="July 2015, 45.8%. Other." style="outline:0" transform="translate(61 61)"/><path d="M396 182a4 4 0 1 1 .004 0Z" class="highcharts-point" tabindex="-1" aria-label="October 2017, 20.2%. Other." style="outline:0" transform="translate(61 61)"/><path d="M484 196a4 4 0 1 1 .004 0Z" class="highcharts-point" tabindex="-1" aria-label="September 2019, 15.4%. Other." style="outline:0" transform="translate(61 61)"/></g></g><g data-z-index="3" aria-hidden="true"><text data-z-index="1" y="12" style="color:#f45b5b;font-weight:700;fill:#f45b5b" transform="translate(509 67)" class="highcharts-label highcharts-series-label highcharts-series-label-0 highcharts-color-none">NVDA</text></g><g data-z-index="3" aria-hidden="true"><text data-z-index="1" y="12" style="color:#2b908f;font-weight:700;fill:#2b908f" transform="translate(418 86)" class="highcharts-label highcharts-series-label highcharts-series-label-1 highcharts-color-none">JAWS</text></g><g data-z-index="3" aria-hidden="true"><text data-z-index="1" y="12" style="color:#90ee7e;font-weight:700;fill:#90ee7e" transform="translate(229 201)" class="highcharts-label highcharts-series-label highcharts-series-label-2 highcharts-color-none">VoiceOver</text></g><g data-z-index="3" aria-hidden="true"><text data-z-index="1" y="12" style="color:#7798bf;font-weight:700;fill:#7798bf" transform="translate(495 192)" class="highcharts-label highcharts-series-label highcharts-series-label-3 highcharts-color-none">Narrator</text></g><g data-z-index="3" aria-hidden="true"><text data-z-index="1" y="12" style="color:#f06;font-weight:700;fill:#f06" transform="translate(236 284)" class="highcharts-label highcharts-series-label highcharts-series-label-4 highcharts-color-none">ZoomText/Fusion</text></g><g data-z-index="3" aria-hidden="true"><text data-z-index="1" y="12" style="color:#7798bf;font-weight:700;fill:#7798bf" transform="translate(511 256)" class="highcharts-label highcharts-series-label highcharts-series-label-5 highcharts-color-none">Other</text></g><text x="300" text-anchor="middle" class="highcharts-title" data-z-index="4" style="color:#e0e0e3;font-size:20px;text-transform:uppercase;fill:#e0e0e3" y="25" aria-hidden="true">Most common desktop screen readers</text><text x="300" text-anchor="middle" class="highcharts-subtitle" data-z-index="4" style="color:#e0e0e3;text-transform:uppercase;fill:#e0e0e3" y="46" aria-hidden="true">Source: WebAIM. Click on points to visit official screen reader website</text><g class="highcharts-legend highcharts-no-tooltip" data-z-index="7" transform="translate(56 364)" aria-hidden="true"><rect fill="rgba(0, 0, 0, 0.5)" class="highcharts-legend-box" rx="0" ry="0" width="488" height="41"/><g data-z-index="1"><g class="highcharts-legend-item highcharts-spline-series highcharts-color-undefined highcharts-series-0" data-z-index="1"><path fill="none" d="M8 14h40" class="highcharts-graph" stroke-width="2" stroke="#f45b5b"/><path fill="#f45b5b" d="M28 18a4 4 0 1 1 .004 0Z" class="highcharts-point"/><text x="45" data-z-index="2" y="15" style="color:#e0e0e3;cursor:pointer;font-size:12px;font-weight:700;fill:#e0e0e3" transform="translate(8 3)">NVDA</text></g><g class="highcharts-legend-item highcharts-spline-series highcharts-color-undefined highcharts-series-1" data-z-index="1"><path fill="none" d="M172.11 14h40" class="highcharts-graph" stroke-width="2" stroke-dasharray="6,2,2,2" stroke="#2b908f"/><path fill="#2b908f" d="m192.11 10 4 4-4 4-4-4Z" class="highcharts-point"/><text x="45" y="15" data-z-index="2" style="color:#e0e0e3;cursor:pointer;font-size:12px;font-weight:700;fill:#e0e0e3" transform="translate(172.11 3)">JAWS</text></g><g class="highcharts-legend-item highcharts-spline-series highcharts-color-undefined highcharts-series-2" data-z-index="1"><path fill="none" d="M336.219 14h40" class="highcharts-graph" stroke-width="2" stroke-dasharray="2,2" stroke="#90ee7e"/><path fill="#90ee7e" d="M352.219 10h8v8h-8Z" class="highcharts-point"/><text x="45" y="15" data-z-index="2" style="color:#e0e0e3;cursor:pointer;font-size:12px;font-weight:700;fill:#e0e0e3" transform="translate(336.219 3)">VoiceOver</text></g><g class="highcharts-legend-item highcharts-spline-series highcharts-color-undefined highcharts-series-3" data-z-index="1"><path fill="none" d="M8 29h40" class="highcharts-graph" stroke-width="2" stroke-dasharray="8,6" stroke="#7798BF"/><path fill="#7798BF" d="m28 25 4 8h-8Z" class="highcharts-point"/><text x="45" y="15" data-z-index="2" style="color:#e0e0e3;cursor:pointer;font-size:12px;font-weight:700;fill:#e0e0e3" transform="translate(8 18)">Narrator</text></g><g class="highcharts-legend-item highcharts-spline-series highcharts-color-undefined highcharts-series-4" data-z-index="1"><path fill="none" d="M172.11 29h40" class="highcharts-graph" stroke-width="2" stroke-dasharray="2,2" stroke="#f06"/><path fill="#f06" d="M188.11 25h8l-4 8Z" class="highcharts-point"/><text x="45" y="15" data-z-index="2" style="color:#e0e0e3;cursor:pointer;font-size:12px;font-weight:700;fill:#e0e0e3" transform="translate(172.11 18)">ZoomText/Fusion</text></g><g class="highcharts-legend-item highcharts-spline-series highcharts-color-undefined highcharts-series-5" data-z-index="1"><path fill="none" d="M336.219 29h40" class="highcharts-graph" stroke-width="2" stroke-dasharray="6,2" stroke="#7798BF"/><path fill="#7798BF" d="M356.219 33a4 4 0 1 1 .004 0Z" class="highcharts-point"/><text x="45" y="15" data-z-index="2" style="color:#e0e0e3;cursor:pointer;font-size:12px;font-weight:700;fill:#e0e0e3" transform="translate(336.219 18)">Other</text></g></g></g><g class="highcharts-axis-labels highcharts-xaxis-labels" data-z-index="7" aria-hidden="true" text-anchor="middle"><text x="105.083" style="color:#e0e0e3;cursor:default;font-size:11px;fill:#e0e0e3" y="318">December<tspan dy="14" x="105.083">​</tspan>2010</text><text x="193.25" style="color:#e0e0e3;cursor:default;font-size:11px;fill:#e0e0e3" y="318">May 2012</text><text x="281.417" style="color:#e0e0e3;cursor:default;font-size:11px;fill:#e0e0e3" y="318">January 2014</text><text x="369.583" style="color:#e0e0e3;cursor:default;font-size:11px;fill:#e0e0e3" y="318">July 2015</text><text x="457.75" style="color:#e0e0e3;cursor:default;font-size:11px;fill:#e0e0e3" y="318">October 2017</text><text x="545.917" style="color:#e0e0e3;cursor:default;font-size:11px;fill:#e0e0e3" y="318">September<tspan dy="14" x="545.917">​</tspan>2019</text></g><g class="highcharts-axis-labels highcharts-yaxis-labels" data-z-index="7" aria-hidden="true" text-anchor="end"><text x="46" style="color:#e0e0e3;cursor:default;font-size:11px;fill:#e0e0e3" y="304">0</text><text x="46" style="color:#e0e0e3;cursor:default;font-size:11px;fill:#e0e0e3" y="244">20</text><text x="46" style="color:#e0e0e3;cursor:default;font-size:11px;fill:#e0e0e3" y="185">40</text><text x="46" style="color:#e0e0e3;cursor:default;font-size:11px;fill:#e0e0e3" y="125">60</text><text x="46" style="color:#e0e0e3;cursor:default;font-size:11px;fill:#e0e0e3" y="66">80</text></g></svg>