<svg class="highcharts-root" style="font-family:&quot;Unica One&quot;,sans-serif;font-size:12px" xmlns="http://www.w3.org/2000/svg" width="600" height="420" aria-label="Interactive chart" aria-hidden="false"><defs aria-hidden="true"><pattern id="b" patternUnits="userSpaceOnUse" patternContentUnits="userSpaceOnUse" width="5" height="5" x="0" y="0" patternTransform="scale(1.4)"><path d="m0 0 5 5M4.5-.5l1 1m-6 4 1 1" stroke="#f45b5b" stroke-width="2" fill="none"/></pattern><pattern id="c" patternUnits="userSpaceOnUse" patternContentUnits="userSpaceOnUse" width="5" height="5" x="0" y="0" patternTransform="scale(1.4)"><path d="m0 5 5-5M-.5.5l1-1m4 6 1-1" stroke="#2b908f" stroke-width="2" fill="none"/></pattern><pattern id="d" patternUnits="userSpaceOnUse" patternContentUnits="userSpaceOnUse" width="5" height="5" x="0" y="0" patternTransform="scale(1.4)"><path d="M2 0v5m2-5v5" stroke="#7798BF" stroke-width="2" fill="none"/></pattern><pattern id="e" patternUnits="userSpaceOnUse" patternContentUnits="userSpaceOnUse" width="5" height="5" x="0" y="0" patternTransform="scale(1.4)"><path d="M0 2h5M0 4h5" stroke="#90ee7e" stroke-width="2" fill="none"/></pattern><pattern id="f" patternUnits="userSpaceOnUse" patternContentUnits="userSpaceOnUse" width="5" height="5" x="0" y="0" patternTransform="scale(1.4)"><path d="M0 1.5h2.5V0m0 5V3.5H5" stroke="#aee" stroke-width="2" fill="none"/></pattern><linearGradient x1="0" y1="0" x2="1" y2="1" id="a"><stop offset="0" stop-color="#2a2a2b"/><stop offset="1" stop-color="#3e3e40"/></linearGradient></defs><rect fill="url(#a)" class="highcharts-background" width="600" height="420" rx="0" ry="0" aria-hidden="true"/><path fill="none" class="highcharts-plot-background" aria-hidden="true" d="M10 61h580v344H10z"/><path fill="none" class="highcharts-plot-border" data-z-index="1" aria-hidden="true" d="M10 61h580v344H10z"/><g class="highcharts-series-group" data-z-index="3" aria-hidden="false"><g class="highcharts-series highcharts-series-0 highcharts-pie-series highcharts-tracker" data-z-index=".1" style="cursor:pointer" aria-hidden="false" stroke="#fff" stroke-width="3" stroke-linejoin="round"><path fill="url(#b)" d="M289.97 43a145.5 145.5 0 0 1 81.198 266.256L290 188.5Z" transform="translate(10 61)" class="highcharts-point highcharts-color-0" tabindex="-1" aria-label="NVDA, 40.6%. This is the most used desktop screen reader Screen reader usage." style="outline:0"/><path fill="url(#c)" d="M371.047 309.337a145.5 145.5 0 0 1-217.352-171.74L290 188.5Z" transform="translate(10 61)" class="highcharts-point highcharts-color-1" tabindex="-1" aria-label="JAWS, 40.1%. Screen reader usage." style="outline:0"/><path fill="url(#d)" d="M153.746 137.461a145.5 145.5 0 0 1 79.14-82.783L290 188.5Z" transform="translate(10 61)" class="highcharts-point highcharts-color-2" tabindex="-1" aria-label="VoiceOver, 12.9%. Screen reader usage." style="outline:0"/><path fill="url(#e)" d="M233.02 54.621a145.5 145.5 0 0 1 17.135-6.06L290 188.5Z" transform="translate(10 61)" class="highcharts-point highcharts-color-3" tabindex="-1" aria-label="ZoomText, 2%. Screen reader usage." style="outline:0"/><path fill="url(#f)" d="M250.295 48.522A145.5 145.5 0 0 1 289.798 43L290 188.5Z" transform="translate(10 61)" class="highcharts-point highcharts-color-4" tabindex="-1" aria-label="Other, 4.4%. Screen reader usage." style="outline:0"/></g></g><text x="300" text-anchor="middle" class="highcharts-title" data-z-index="4" style="color:#e0e0e3;font-size:20px;text-transform:uppercase;fill:#e0e0e3" y="25" aria-hidden="true">Primary desktop/laptop screen readers</text><text x="300" text-anchor="middle" class="highcharts-subtitle" data-z-index="4" style="color:#e0e0e3;text-transform:uppercase;fill:#e0e0e3" y="46" aria-hidden="true">Source: WebAIM. Click on point to visit official website</text><g class="highcharts-data-labels highcharts-series-0 highcharts-pie-series highcharts-tracker" data-z-index="6" style="cursor:pointer" aria-hidden="true"><path fill="none" class="highcharts-data-label-connector highcharts-color-0" stroke="#777" d="M472.903 198.423c-5 0-22.22 5.239-27.961 6.985l-5.74 1.746"/><path fill="none" class="highcharts-data-label-connector highcharts-color-1" stroke="#777" d="M186.133 387.152c5 0 16.166-14.118 19.887-18.824l3.722-4.706"/><path fill="none" class="highcharts-data-label-connector highcharts-color-2" stroke="#777" d="M168.204 128.162c5 0 18.005 12.445 22.34 16.593l4.334 4.148"/><path fill="none" class="highcharts-data-label-connector highcharts-color-3" stroke="#777" d="M204.723 99c5 0 42.858 1.979 44.855 7.637l1.997 5.658"/><path fill="none" class="highcharts-data-label-connector highcharts-color-4" stroke="#777" d="M270.818 74c5 0 7.48 19.502 8.307 25.445l.827 5.943"/><g style="cursor:pointer"><text x="5" data-z-index="1" y="18" style="color:#f0f0f3;font-size:13px;font-weight:700;fill:#f0f0f3" transform="translate(478 188)" class="highcharts-label highcharts-data-label highcharts-data-label-color-0"><tspan class="highcharts-text-outline" fill="#000" stroke="#000" stroke-width="2" stroke-linejoin="round"><tspan style="font-weight:700">NVDA</tspan>: 40.6 %<tspan x="5" dy="0">​</tspan></tspan><tspan style="font-weight:700">NVDA</tspan>: 40.6 %</text></g><g style="cursor:pointer"><text x="5" data-z-index="1" y="18" style="color:#f0f0f3;font-size:13px;font-weight:700;fill:#f0f0f3" transform="translate(86 377)" class="highcharts-label highcharts-data-label highcharts-data-label-color-1"><tspan class="highcharts-text-outline" fill="#000" stroke="#000" stroke-width="2" stroke-linejoin="round"><tspan style="font-weight:700">JAWS</tspan>: 40.1 %<tspan x="5" dy="0">​</tspan></tspan><tspan style="font-weight:700">JAWS</tspan>: 40.1 %</text></g><g style="cursor:pointer"><text x="5" data-z-index="1" y="18" style="color:#f0f0f3;font-size:13px;font-weight:700;fill:#f0f0f3" transform="translate(41 118)" class="highcharts-label highcharts-data-label highcharts-data-label-color-2"><tspan class="highcharts-text-outline" fill="#000" stroke="#000" stroke-width="2" stroke-linejoin="round"><tspan style="font-weight:700">VoiceOver</tspan>: 12.9 %<tspan x="5" dy="0">​</tspan></tspan><tspan style="font-weight:700">VoiceOver</tspan>: 12.9 %</text></g><g style="cursor:pointer"><text x="5" data-z-index="1" y="18" style="color:#f0f0f3;font-size:13px;font-weight:700;fill:#f0f0f3" transform="translate(87 89)" class="highcharts-label highcharts-data-label highcharts-data-label-color-3"><tspan class="highcharts-text-outline" fill="#000" stroke="#000" stroke-width="2" stroke-linejoin="round"><tspan style="font-weight:700">ZoomText</tspan>: 2.0 %<tspan x="5" dy="0">​</tspan></tspan><tspan style="font-weight:700">ZoomText</tspan>: 2.0 %</text></g><g style="cursor:pointer"><text x="5" data-z-index="1" y="18" style="color:#f0f0f3;font-size:13px;font-weight:700;fill:#f0f0f3" transform="translate(180 64)" class="highcharts-label highcharts-data-label highcharts-data-label-color-4"><tspan class="highcharts-text-outline" fill="#000" stroke="#000" stroke-width="2" stroke-linejoin="round"><tspan style="font-weight:700">Other</tspan>: 4.4 %<tspan x="5" dy="0">​</tspan></tspan><tspan style="font-weight:700">Other</tspan>: 4.4 %</text></g></g></svg>