<svg class="highcharts-root" style="font-family:&quot;Unica One&quot;,sans-serif;font-size:12px" xmlns="http://www.w3.org/2000/svg" width="600" height="400" aria-label="Interactive chart" aria-hidden="false"><defs aria-hidden="true"><linearGradient x1="0" y1="0" x2="1" y2="1" id="a"><stop offset="0" stop-color="#2a2a2b"/><stop offset="1" stop-color="#3e3e40"/></linearGradient><clipPath id="b"><path fill="none" d="M0 0h549v318H0z"/></clipPath></defs><rect fill="url(#a)" class="highcharts-background" width="600" height="400" rx="0" ry="0" aria-hidden="true"/><path fill="none" class="highcharts-plot-background" aria-hidden="true" d="M41 47h549v318H41z"/><g class="highcharts-grid highcharts-xaxis-grid" data-z-index="1" aria-hidden="true" fill="none"><path data-z-index="1" class="highcharts-grid-line" d="M45.5 47v318m88-318v318m90-318v318m90-318v318m92-318v318m90-318v318m90-318v318"/></g><g class="highcharts-grid highcharts-yaxis-grid" data-z-index="1" aria-hidden="true" fill="none" stroke="#707073"><path data-z-index="1" class="highcharts-grid-line" d="M41 365.5h549m-549-64h549m-549-63h549m-549-64h549m-549-63h549m-549-65h549"/></g><path fill="none" class="highcharts-plot-border" data-z-index="1" aria-hidden="true" d="M41 47h549v318H41z"/><g class="highcharts-axis highcharts-xaxis" data-z-index="2" aria-hidden="true" fill="none" stroke="#707073"><path class="highcharts-tick" d="M45.5 365v10m88-10v10m90-10v10m90-10v10m92-10v10m90-10v10m90-10v10"/><path class="highcharts-axis-line" data-z-index="7" d="M41 365.5h549"/></g><g class="highcharts-axis highcharts-yaxis" data-z-index="2" aria-hidden="true" fill="none"><path class="highcharts-tick" stroke="#707073" d="M41 365.5H31m10-64H31m10-63H31m10-64H31m10-63H31m10-65H31"/><path class="highcharts-axis-line" data-z-index="7" d="M41 47v318"/></g><g class="highcharts-series-group" data-z-index="3" aria-hidden="false"><g class="highcharts-series highcharts-series-0 highcharts-arearange-series highcharts-color-0" data-z-index=".1" clip-path="url(#b)" aria-hidden="false" transform="translate(41 47)"><path fill="rgba(43,144,143,0.75)" d="m5.382 181.896 1.479 17.172 1.479-3.816 1.478 30.528 1.479 27.984 1.479-1.908 1.478-55.332 1.479 8.268 1.479-22.26 1.478 10.176 1.479-8.904 1.479 3.18 1.478 25.44 1.479-3.18 1.479 17.808 1.478 19.08 1.479-33.072 1.479-20.988 1.478-15.9 1.48-20.988 1.478 33.072 1.478 1.908 1.48-8.904 1.478 10.812 1.478-15.9 1.48 19.716 1.478 3.18 1.478-4.452 1.48-12.72 1.478 31.8 1.478 11.448 1.48.636 1.478-29.892 1.478-15.264 1.48 1.908 1.478 3.816 1.478 11.448 1.48 27.984 1.478 19.716 1.478-1.908 1.48-27.348 1.478 8.268 1.478 3.18 1.48-8.904 1.478-.636 1.478 1.908 1.48-39.432 1.478-4.452 1.478-.636 1.48.636 1.478-9.54 1.478 8.904 1.48 12.72 1.478 40.068h1.478l1.48 1.908 1.478-10.812 1.478-34.344 1.48-4.452 1.478 11.448 1.478 10.176 1.48.636 1.478 15.9 1.478-32.436 1.48 42.612 1.478 13.356 1.478 13.356 1.48-50.244 1.478-16.536 1.478 13.992 1.48-19.08 1.478-7.632 1.478-5.088 1.48 1.908 1.478 5.724 1.478 6.996 1.48 15.264 1.478 1.908 1.478-15.264 1.48-7.632 1.478 8.268 1.478 10.176 1.48-13.356 1.478-15.264 1.478-8.268 1.418 4.452 1.478 16.536 1.479-.636 1.479 9.54 1.478-12.72 1.479-15.264 1.479-6.996 1.478 18.444 1.479-19.716 1.479 12.084 1.478 2.544 1.479-22.896 1.479 6.996 1.478-10.812 1.479 33.072 1.479 1.272 1.478 10.812 1.479-16.536 1.479 26.712 1.478-10.176 1.479-3.18 1.479 11.448 1.478 5.088 1.479-24.804 1.479-10.812 1.478 10.176 1.479 1.908 1.479 2.544 1.478 1.272 1.479 14.628 1.479-17.172 1.478 8.268 1.479-1.908 1.479-22.26 1.478 37.524 1.479-6.36 1.479-10.812 1.478-3.816 1.479-8.904 1.479-13.992 1.478-1.908 1.479 1.272 1.479 15.9 1.478 12.72 1.479-1.908 1.479-13.356 1.478 3.816 1.479 1.272 1.479-41.34 1.478 5.088 1.479-5.088 1.479-1.908 1.478-5.724 1.479 1.908 1.479 5.724 1.478-5.724 1.479 17.172 1.479 24.804 1.478-31.8 1.479-1.272 1.479-12.72 1.478 1.272 1.479 8.268 1.479-20.988 1.478-1.272 1.479 16.536 1.479 39.432 1.478-31.164 1.479-8.904 1.479 1.908 1.478 4.452 1.479 4.452 1.479-17.808 1.478 2.544 1.479 22.26 1.479-27.348 1.478 2.544 1.479 4.452 1.479-5.724 1.478 13.992 1.479-5.088 1.479-15.264 1.478 11.448 1.479-5.724 1.479 9.54 1.478 11.448 1.479-3.18 1.479-5.088 1.478-11.448 1.479 13.992 1.479 8.268 1.478-16.536 1.479 25.44 1.479 5.088 1.478-22.896 1.48-22.26 1.478 12.72 1.478-4.452 1.48 13.356 1.478 3.18 1.478 11.448 1.48 1.908 1.478-19.716 1.478-13.992 1.48 20.352 1.478-6.36 1.478-3.816 1.48-3.816 1.478 4.452 1.478 26.712 1.48-19.716 1.478-15.9 1.478 17.808 1.48-2.544 1.478 19.08 1.478-12.72 1.48-22.26 1.478-12.084 1.478-1.272 1.48.636 1.478 5.088h1.478l1.48-4.452 1.478 8.268 1.478 12.084 1.48-13.992 1.478 1.908 1.478 6.36h1.48l1.478 3.816 1.478-8.904 1.48-1.272 1.478-.636 1.478 4.452 1.48 10.812 1.478 12.084 1.478-24.168 1.48-21.624 1.478 16.536 1.478 20.988 1.48.636 1.478-8.268 1.478-1.272 1.48 3.816 1.478-13.356 1.478 3.816 1.48 1.272h1.478l1.478 24.804 1.48 5.724 1.478-10.176 1.478 3.816 1.48-2.544 1.478 8.904 1.478-37.524 1.48 22.896 1.478-8.268 1.478 6.996 1.48-6.996 1.478 31.8 1.478.636 1.48-12.084 1.478-20.352 1.479-10.176h1.478l1.479 14.628 1.479 3.18 1.478 5.088 1.479 9.54h1.479l1.478-1.908 1.479 12.72 1.479-10.176 1.478 17.172 1.479 3.18 1.479-29.256 1.478-14.628 1.479 19.08 1.479 17.808 1.478-30.528 1.479 13.992 1.479 6.36 1.478-3.18 1.479-6.996 1.479-15.9 1.478-10.176 1.479 12.084 1.479 1.272 1.478 4.452 1.479-4.452 1.479 7.632 1.478 14.628 1.479 1.908 1.479-14.628 1.478 17.172 1.479 31.164 1.479 9.54 1.478-12.72 1.479-26.076 1.479-3.18 1.478 6.36 1.479-17.172 1.479-2.544 1.478 1.908 1.479 8.904 1.479 36.252 1.478 11.448 1.479-32.436 1.479-19.08 1.478-2.544 1.479 24.168 1.479-8.904 1.478-.636 1.479 14.628 1.479-9.54 1.478 3.816 1.479-3.18 1.54 5.088 1.479.636 1.479-13.356 1.478 24.168 1.479.636 1.479-19.08 1.478-3.18 1.479 24.804 1.479-12.72 1.478-10.812 1.479 4.452 1.479 17.172 1.478 1.272 1.479-12.084 1.479 22.26 1.478-4.452 1.479-10.812 1.479.636 1.478-6.36 1.479 10.176 1.479 7.632 1.478-6.36 1.479 31.8 1.479-1.908 1.478-17.808 1.479-21.624 1.479 6.996 1.478 29.256 1.479 3.816 1.479 8.904 1.478 19.716 1.479 1.908 1.479-3.18 1.478-35.616 1.479-27.984 1.479 5.724 1.478.636 1.479-4.452 1.479-6.36 1.478 3.18 1.479 17.808 1.479 3.816 1.478 5.724 1.479 42.612 1.479-1.272 1.478-11.448 1.479 6.996 1.479-3.816 1.478 3.816 1.479-41.976 1.479-17.808 1.478-5.088 1.479-.636 1.479-3.18 1.478 1.272 1.479 4.452 1.479 5.088 1.478-1.908 1.479 3.18 1.479 26.076 1.478-11.448 1.479 7.632 1.479.636v-19.716l-1.479 8.268-1.479-5.088-1.478 7.632-1.479-17.172-1.479-1.908-1.478-9.54-1.479-15.9-1.479-19.08-1.478 17.172-1.479-7.632-1.479 6.996-1.478 24.168-1.479 1.908-1.479 23.532-1.478 10.176-1.479 13.356-1.479-10.176-1.478-8.268-1.48-2.544-1.478-8.268-1.478-6.996-1.48-15.264-1.478-14.628-1.478-15.264-1.48 27.348-1.478-18.444-1.478 13.356-1.48-3.18-1.478 3.18-1.478 41.976-1.48 16.536-1.478-1.908-1.478-28.62-1.48.636-1.478-22.26-1.478-6.996-1.48-3.816-1.478-5.724-1.478 36.252-1.48-6.996-1.478-12.084-1.478-5.724-1.48-10.176-1.478-10.176-1.478 10.176h-1.48l-1.478 21.624-1.478-24.804-1.48-5.088-1.478 16.536-1.478-5.088-1.48-28.62-1.478 3.18-1.478 11.448-1.48.636-1.478-.636-1.478-3.18-1.48 6.996-1.478-19.716-1.478 17.172-1.48 9.54-1.478.636-1.54-10.812-1.479-21.624-1.478 6.36-1.48 15.264-1.478 1.908-1.478-5.724-1.48-15.264-1.478-7.632-1.478-1.272-1.48 1.908-1.478 33.708-1.478-6.36-1.48-8.904-1.478-48.972-1.478 6.36-1.48 12.72-1.478 29.256-1.478-9.54-1.48 15.9-1.478-3.816-1.478-7.632-1.48-6.996h-1.478l-1.478-12.084-1.48 15.264-1.478-10.812-1.478 9.54-1.48-39.432-1.478-.636-1.478 15.9-1.48-34.344-1.478 4.452-1.478 8.268-1.48-1.272-1.478-15.264-1.478 36.888-1.48-14.628-1.478 17.172-1.478 10.812-1.48-1.272-1.478-10.176-1.478 4.452-1.48-19.716-1.478-1.908-1.478-4.452-1.48 9.54-1.478-1.272-1.478 7.632-1.48-4.452-1.478 8.268-1.478-1.908-1.48-12.084-1.478 10.812-1.478-5.724-1.48 6.996-1.478-33.072-1.479 15.9-1.478-5.724-1.479 17.808-1.479-15.9-1.478 3.816-1.479 1.272-1.479 4.452-1.478-13.356-1.479-9.54-1.479-6.996-1.478 20.988-1.479-16.536-1.479 8.268-1.478 5.088-1.479 5.088-1.479-6.996-1.478-1.272-1.479 15.264-1.479 1.272-1.478 12.72-1.479-10.176-1.479 2.544-1.478-6.36-1.479-11.448-1.479.636-1.478-11.448-1.479 26.076-1.479-6.996-1.478-15.264-1.479 10.812-1.479 11.448-1.478-39.432-1.479 26.712-1.479 17.808-1.478-23.532-1.479-5.724-1.479 12.72-1.478-3.18-1.479-4.452-1.479-14.628-1.478-1.908-1.479 13.992-1.479-42.612-1.478 7.632-1.479 24.168-1.479-37.524-1.478 20.352-1.479 42.612-1.479 24.804-1.478-20.988-1.479-21.624-1.479 1.272-1.478 13.356-1.479 8.268-1.479-8.268-1.478-10.176-1.479 26.712h-1.479l-1.478-9.54-1.479-27.348-1.479 3.18-1.478 10.176-1.479 11.448-1.479 10.176-1.478-32.436-1.479-36.888-1.479 13.992-1.478 9.54-1.479 23.532-1.479 27.984h-1.478l-1.479-10.812-1.479 14.628h-1.478l-1.479-15.9-1.479 19.716-1.478-15.264-1.479-20.352-1.479 18.444-1.478 1.272-1.479-3.816-1.479-13.356-1.478 19.08-1.479-12.084-1.479 8.904-1.478-1.272-1.479-6.36-1.479-1.908-1.478-11.448-1.479 26.076h-1.479l-1.478 8.268-1.479-33.708-1.479 25.44-1.478-3.18-1.479 7.632-1.479-17.172-1.478 4.452-1.479-16.536-1.479-26.076-1.478 39.432-1.479 19.08-1.479 1.272-1.478-33.072-1.479 35.616-1.479-27.984-1.478-39.432-1.479 17.808-1.479 52.152-1.478-30.528-1.479 32.436-1.479-33.072-1.478 27.348-1.479-24.804-1.479 15.9-1.478 25.44-1.479 15.264-1.479-5.724-1.478-22.26-1.479-37.524-1.479-14.628-1.478 6.996-1.479 10.176-1.479 3.18-1.478 6.36-1.48 11.448-1.478 16.536-1.478.636-1.48 3.816-1.478 2.544-1.478 17.172-1.48-11.448-1.478 31.8-1.478-13.992-1.48-3.18-1.478 5.724-1.478-16.536-1.48 10.176-1.478-13.356-1.478 8.904-1.48 24.168-1.478-19.716-1.478-8.904-1.48 12.084-1.478.636-1.478-1.272-1.48-16.536-1.478-15.264-1.478 7.632-1.48-6.996-1.478 29.256-1.478-1.272-1.48-16.536-1.478-5.724-1.478 11.448-1.48-18.444-1.478 34.344-1.478 27.984-1.48-47.064-1.478 5.724-1.478-18.444-1.418 10.812-1.478 10.812-1.479 6.36-1.479 24.804-1.478-10.176-1.479-9.54-1.479 13.992-1.478 6.996-1.479-6.36-1.479-7.632-1.478-21.624-1.479 16.536-1.479-8.904-1.478 4.452-1.479 24.804-1.479-13.356-1.478 3.18-1.479 6.36-1.479 26.712-1.478-2.544-1.479-17.808-1.479-8.904L97.06 174.9l-1.479-5.088-1.479-6.996-1.478-6.996-1.479 3.816-1.479-4.452-1.478 20.988-1.479 25.44-1.479-20.352-1.478-15.9-1.479-3.18-1.479-2.544-1.478-12.084-1.479-10.812-1.479 27.984-1.478-13.356-1.479 19.08-1.479 3.18-1.478 13.356-1.479 1.272h-1.479l-1.478 5.724-1.479-8.904-1.479 15.9-1.478 16.536-1.479-20.988-1.479-34.344-1.478-.636-1.479-1.272-1.479 4.452L52.7 174.9l-1.479 10.812-1.479 21.624-1.478-22.26-1.479-31.164-1.479 3.18-1.478 4.452-1.479-30.528-1.479-5.724-1.478 47.7-1.479-8.268-1.479 6.36-1.478-17.172-1.479-23.532-1.479 6.36-1.478 9.54-1.479 46.428-1.479 19.08-1.478-4.452-1.479-29.256-1.479-3.18-1.478 2.544-1.479-10.812-1.479 5.724-1.478 3.816-1.479-3.816-1.479-6.996-1.478 24.804-1.479 42.612-1.479-62.328-1.478-6.996-1.479 15.264-1.479-17.808v20.988" class="highcharts-area" data-z-index="0" aria-hidden="true"/><path fill="none" d="m5.382 181.896 1.479 17.172 1.479-3.816 1.478 30.528 1.479 27.984 1.479-1.908 1.478-55.332 1.479 8.268 1.479-22.26 1.478 10.176 1.479-8.904 1.479 3.18 1.478 25.44 1.479-3.18 1.479 17.808 1.478 19.08 1.479-33.072 1.479-20.988 1.478-15.9 1.48-20.988 1.478 33.072 1.478 1.908 1.48-8.904 1.478 10.812 1.478-15.9 1.48 19.716 1.478 3.18 1.478-4.452 1.48-12.72 1.478 31.8 1.478 11.448 1.48.636 1.478-29.892 1.478-15.264 1.48 1.908 1.478 3.816 1.478 11.448 1.48 27.984 1.478 19.716 1.478-1.908 1.48-27.348 1.478 8.268 1.478 3.18 1.48-8.904 1.478-.636 1.478 1.908 1.48-39.432 1.478-4.452 1.478-.636 1.48.636 1.478-9.54 1.478 8.904 1.48 12.72 1.478 40.068h1.478l1.48 1.908 1.478-10.812 1.478-34.344 1.48-4.452 1.478 11.448 1.478 10.176 1.48.636 1.478 15.9 1.478-32.436 1.48 42.612 1.478 13.356 1.478 13.356 1.48-50.244 1.478-16.536 1.478 13.992 1.48-19.08 1.478-7.632 1.478-5.088 1.48 1.908 1.478 5.724 1.478 6.996 1.48 15.264 1.478 1.908 1.478-15.264 1.48-7.632 1.478 8.268 1.478 10.176 1.48-13.356 1.478-15.264 1.478-8.268 1.418 4.452 1.478 16.536 1.479-.636 1.479 9.54 1.478-12.72 1.479-15.264 1.479-6.996 1.478 18.444 1.479-19.716 1.479 12.084 1.478 2.544 1.479-22.896 1.479 6.996 1.478-10.812 1.479 33.072 1.479 1.272 1.478 10.812 1.479-16.536 1.479 26.712 1.478-10.176 1.479-3.18 1.479 11.448 1.478 5.088 1.479-24.804 1.479-10.812 1.478 10.176 1.479 1.908 1.479 2.544 1.478 1.272 1.479 14.628 1.479-17.172 1.478 8.268 1.479-1.908 1.479-22.26 1.478 37.524 1.479-6.36 1.479-10.812 1.478-3.816 1.479-8.904 1.479-13.992 1.478-1.908 1.479 1.272 1.479 15.9 1.478 12.72 1.479-1.908 1.479-13.356 1.478 3.816 1.479 1.272 1.479-41.34 1.478 5.088 1.479-5.088 1.479-1.908 1.478-5.724 1.479 1.908 1.479 5.724 1.478-5.724 1.479 17.172 1.479 24.804 1.478-31.8 1.479-1.272 1.479-12.72 1.478 1.272 1.479 8.268 1.479-20.988 1.478-1.272 1.479 16.536 1.479 39.432 1.478-31.164 1.479-8.904 1.479 1.908 1.478 4.452 1.479 4.452 1.479-17.808 1.478 2.544 1.479 22.26 1.479-27.348 1.478 2.544 1.479 4.452 1.479-5.724 1.478 13.992 1.479-5.088 1.479-15.264 1.478 11.448 1.479-5.724 1.479 9.54 1.478 11.448 1.479-3.18 1.479-5.088 1.478-11.448 1.479 13.992 1.479 8.268 1.478-16.536 1.479 25.44 1.479 5.088 1.478-22.896 1.48-22.26 1.478 12.72 1.478-4.452 1.48 13.356 1.478 3.18 1.478 11.448 1.48 1.908 1.478-19.716 1.478-13.992 1.48 20.352 1.478-6.36 1.478-3.816 1.48-3.816 1.478 4.452 1.478 26.712 1.48-19.716 1.478-15.9 1.478 17.808 1.48-2.544 1.478 19.08 1.478-12.72 1.48-22.26 1.478-12.084 1.478-1.272 1.48.636 1.478 5.088h1.478l1.48-4.452 1.478 8.268 1.478 12.084 1.48-13.992 1.478 1.908 1.478 6.36h1.48l1.478 3.816 1.478-8.904 1.48-1.272 1.478-.636 1.478 4.452 1.48 10.812 1.478 12.084 1.478-24.168 1.48-21.624 1.478 16.536 1.478 20.988 1.48.636 1.478-8.268 1.478-1.272 1.48 3.816 1.478-13.356 1.478 3.816 1.48 1.272h1.478l1.478 24.804 1.48 5.724 1.478-10.176 1.478 3.816 1.48-2.544 1.478 8.904 1.478-37.524 1.48 22.896 1.478-8.268 1.478 6.996 1.48-6.996 1.478 31.8 1.478.636 1.48-12.084 1.478-20.352 1.479-10.176h1.478l1.479 14.628 1.479 3.18 1.478 5.088 1.479 9.54h1.479l1.478-1.908 1.479 12.72 1.479-10.176 1.478 17.172 1.479 3.18 1.479-29.256 1.478-14.628 1.479 19.08 1.479 17.808 1.478-30.528 1.479 13.992 1.479 6.36 1.478-3.18 1.479-6.996 1.479-15.9 1.478-10.176 1.479 12.084 1.479 1.272 1.478 4.452 1.479-4.452 1.479 7.632 1.478 14.628 1.479 1.908 1.479-14.628 1.478 17.172 1.479 31.164 1.479 9.54 1.478-12.72 1.479-26.076 1.479-3.18 1.478 6.36 1.479-17.172 1.479-2.544 1.478 1.908 1.479 8.904 1.479 36.252 1.478 11.448 1.479-32.436 1.479-19.08 1.478-2.544 1.479 24.168 1.479-8.904 1.478-.636 1.479 14.628 1.479-9.54 1.478 3.816 1.479-3.18 1.54 5.088 1.479.636 1.479-13.356 1.478 24.168 1.479.636 1.479-19.08 1.478-3.18 1.479 24.804 1.479-12.72 1.478-10.812 1.479 4.452 1.479 17.172 1.478 1.272 1.479-12.084 1.479 22.26 1.478-4.452 1.479-10.812 1.479.636 1.478-6.36 1.479 10.176 1.479 7.632 1.478-6.36 1.479 31.8 1.479-1.908 1.478-17.808 1.479-21.624 1.479 6.996 1.478 29.256 1.479 3.816 1.479 8.904 1.478 19.716 1.479 1.908 1.479-3.18 1.478-35.616 1.479-27.984 1.479 5.724 1.478.636 1.479-4.452 1.479-6.36 1.478 3.18 1.479 17.808 1.479 3.816 1.478 5.724 1.479 42.612 1.479-1.272 1.478-11.448 1.479 6.996 1.479-3.816 1.478 3.816 1.479-41.976 1.479-17.808 1.478-5.088 1.479-.636 1.479-3.18 1.478 1.272 1.479 4.452 1.479 5.088 1.478-1.908 1.479 3.18 1.479 26.076 1.478-11.448 1.479 7.632 1.479.636m0-19.716-1.479 8.268-1.479-5.088-1.478 7.632-1.479-17.172-1.479-1.908-1.478-9.54-1.479-15.9-1.479-19.08-1.478 17.172-1.479-7.632-1.479 6.996-1.478 24.168-1.479 1.908-1.479 23.532-1.478 10.176-1.479 13.356-1.479-10.176-1.478-8.268-1.48-2.544-1.478-8.268-1.478-6.996-1.48-15.264-1.478-14.628-1.478-15.264-1.48 27.348-1.478-18.444-1.478 13.356-1.48-3.18-1.478 3.18-1.478 41.976-1.48 16.536-1.478-1.908-1.478-28.62-1.48.636-1.478-22.26-1.478-6.996-1.48-3.816-1.478-5.724-1.478 36.252-1.48-6.996-1.478-12.084-1.478-5.724-1.48-10.176-1.478-10.176-1.478 10.176h-1.48l-1.478 21.624-1.478-24.804-1.48-5.088-1.478 16.536-1.478-5.088-1.48-28.62-1.478 3.18-1.478 11.448-1.48.636-1.478-.636-1.478-3.18-1.48 6.996-1.478-19.716-1.478 17.172-1.48 9.54-1.478.636-1.54-10.812-1.479-21.624-1.478 6.36-1.48 15.264-1.478 1.908-1.478-5.724-1.48-15.264-1.478-7.632-1.478-1.272-1.48 1.908-1.478 33.708-1.478-6.36-1.48-8.904-1.478-48.972-1.478 6.36-1.48 12.72-1.478 29.256-1.478-9.54-1.48 15.9-1.478-3.816-1.478-7.632-1.48-6.996h-1.478l-1.478-12.084-1.48 15.264-1.478-10.812-1.478 9.54-1.48-39.432-1.478-.636-1.478 15.9-1.48-34.344-1.478 4.452-1.478 8.268-1.48-1.272-1.478-15.264-1.478 36.888-1.48-14.628-1.478 17.172-1.478 10.812-1.48-1.272-1.478-10.176-1.478 4.452-1.48-19.716-1.478-1.908-1.478-4.452-1.48 9.54-1.478-1.272-1.478 7.632-1.48-4.452-1.478 8.268-1.478-1.908-1.48-12.084-1.478 10.812-1.478-5.724-1.48 6.996-1.478-33.072-1.479 15.9-1.478-5.724-1.479 17.808-1.479-15.9-1.478 3.816-1.479 1.272-1.479 4.452-1.478-13.356-1.479-9.54-1.479-6.996-1.478 20.988-1.479-16.536-1.479 8.268-1.478 5.088-1.479 5.088-1.479-6.996-1.478-1.272-1.479 15.264-1.479 1.272-1.478 12.72-1.479-10.176-1.479 2.544-1.478-6.36-1.479-11.448-1.479.636-1.478-11.448-1.479 26.076-1.479-6.996-1.478-15.264-1.479 10.812-1.479 11.448-1.478-39.432-1.479 26.712-1.479 17.808-1.478-23.532-1.479-5.724-1.479 12.72-1.478-3.18-1.479-4.452-1.479-14.628-1.478-1.908-1.479 13.992-1.479-42.612-1.478 7.632-1.479 24.168-1.479-37.524-1.478 20.352-1.479 42.612-1.479 24.804-1.478-20.988-1.479-21.624-1.479 1.272-1.478 13.356-1.479 8.268-1.479-8.268-1.478-10.176-1.479 26.712h-1.479l-1.478-9.54-1.479-27.348-1.479 3.18-1.478 10.176-1.479 11.448-1.479 10.176-1.478-32.436-1.479-36.888-1.479 13.992-1.478 9.54-1.479 23.532-1.479 27.984h-1.478l-1.479-10.812-1.479 14.628h-1.478l-1.479-15.9-1.479 19.716-1.478-15.264-1.479-20.352-1.479 18.444-1.478 1.272-1.479-3.816-1.479-13.356-1.478 19.08-1.479-12.084-1.479 8.904-1.478-1.272-1.479-6.36-1.479-1.908-1.478-11.448-1.479 26.076h-1.479l-1.478 8.268-1.479-33.708-1.479 25.44-1.478-3.18-1.479 7.632-1.479-17.172-1.478 4.452-1.479-16.536-1.479-26.076-1.478 39.432-1.479 19.08-1.479 1.272-1.478-33.072-1.479 35.616-1.479-27.984-1.478-39.432-1.479 17.808-1.479 52.152-1.478-30.528-1.479 32.436-1.479-33.072-1.478 27.348-1.479-24.804-1.479 15.9-1.478 25.44-1.479 15.264-1.479-5.724-1.478-22.26-1.479-37.524-1.479-14.628-1.478 6.996-1.479 10.176-1.479 3.18-1.478 6.36-1.48 11.448-1.478 16.536-1.478.636-1.48 3.816-1.478 2.544-1.478 17.172-1.48-11.448-1.478 31.8-1.478-13.992-1.48-3.18-1.478 5.724-1.478-16.536-1.48 10.176-1.478-13.356-1.478 8.904-1.48 24.168-1.478-19.716-1.478-8.904-1.48 12.084-1.478.636-1.478-1.272-1.48-16.536-1.478-15.264-1.478 7.632-1.48-6.996-1.478 29.256-1.478-1.272-1.48-16.536-1.478-5.724-1.478 11.448-1.48-18.444-1.478 34.344-1.478 27.984-1.48-47.064-1.478 5.724-1.478-18.444-1.418 10.812-1.478 10.812-1.479 6.36-1.479 24.804-1.478-10.176-1.479-9.54-1.479 13.992-1.478 6.996-1.479-6.36-1.479-7.632-1.478-21.624-1.479 16.536-1.479-8.904-1.478 4.452-1.479 24.804-1.479-13.356-1.478 3.18-1.479 6.36-1.479 26.712-1.478-2.544-1.479-17.808-1.479-8.904L97.06 174.9l-1.479-5.088-1.479-6.996-1.478-6.996-1.479 3.816-1.479-4.452-1.478 20.988-1.479 25.44-1.479-20.352-1.478-15.9-1.479-3.18-1.479-2.544-1.478-12.084-1.479-10.812-1.479 27.984-1.478-13.356-1.479 19.08-1.479 3.18-1.478 13.356-1.479 1.272h-1.479l-1.478 5.724-1.479-8.904-1.479 15.9-1.478 16.536-1.479-20.988-1.479-34.344-1.478-.636-1.479-1.272-1.479 4.452L52.7 174.9l-1.479 10.812-1.479 21.624-1.478-22.26-1.479-31.164-1.479 3.18-1.478 4.452-1.479-30.528-1.479-5.724-1.478 47.7-1.479-8.268-1.479 6.36-1.478-17.172-1.479-23.532-1.479 6.36-1.478 9.54-1.479 46.428-1.479 19.08-1.478-4.452-1.479-29.256-1.479-3.18-1.478 2.544-1.479-10.812-1.479 5.724-1.478 3.816-1.479-3.816-1.479-6.996-1.478 24.804-1.479 42.612-1.479-62.328-1.478-6.996-1.479 15.264-1.479-17.808" class="highcharts-graph" data-z-index="1" stroke="#2b908f" stroke-linejoin="round" stroke-linecap="round" aria-hidden="false" tabindex="-1" aria-label="Temperatures, series 1 of 1 with 365 data points." style="outline:0"/><path fill="rgba(192,192,192,0.0001)" d="m5.382 181.896 1.479 17.172 1.479-3.816 1.478 30.528 1.479 27.984 1.479-1.908 1.478-55.332 1.479 8.268 1.479-22.26 1.478 10.176 1.479-8.904 1.479 3.18 1.478 25.44 1.479-3.18 1.479 17.808 1.478 19.08 1.479-33.072 1.479-20.988 1.478-15.9 1.48-20.988 1.478 33.072 1.478 1.908 1.48-8.904 1.478 10.812 1.478-15.9 1.48 19.716 1.478 3.18 1.478-4.452 1.48-12.72 1.478 31.8 1.478 11.448 1.48.636 1.478-29.892 1.478-15.264 1.48 1.908 1.478 3.816 1.478 11.448 1.48 27.984 1.478 19.716 1.478-1.908 1.48-27.348 1.478 8.268 1.478 3.18 1.48-8.904 1.478-.636 1.478 1.908 1.48-39.432 1.478-4.452 1.478-.636 1.48.636 1.478-9.54 1.478 8.904 1.48 12.72 1.478 40.068h1.478l1.48 1.908 1.478-10.812 1.478-34.344 1.48-4.452 1.478 11.448 1.478 10.176 1.48.636 1.478 15.9 1.478-32.436 1.48 42.612 1.478 13.356 1.478 13.356 1.48-50.244 1.478-16.536 1.478 13.992 1.48-19.08 1.478-7.632 1.478-5.088 1.48 1.908 1.478 5.724 1.478 6.996 1.48 15.264 1.478 1.908 1.478-15.264 1.48-7.632 1.478 8.268 1.478 10.176 1.48-13.356 1.478-15.264 1.478-8.268 1.418 4.452 1.478 16.536 1.479-.636 1.479 9.54 1.478-12.72 1.479-15.264 1.479-6.996 1.478 18.444 1.479-19.716 1.479 12.084 1.478 2.544 1.479-22.896 1.479 6.996 1.478-10.812 1.479 33.072 1.479 1.272 1.478 10.812 1.479-16.536 1.479 26.712 1.478-10.176 1.479-3.18 1.479 11.448 1.478 5.088 1.479-24.804 1.479-10.812 1.478 10.176 1.479 1.908 1.479 2.544 1.478 1.272 1.479 14.628 1.479-17.172 1.478 8.268 1.479-1.908 1.479-22.26 1.478 37.524 1.479-6.36 1.479-10.812 1.478-3.816 1.479-8.904 1.479-13.992 1.478-1.908 1.479 1.272 1.479 15.9 1.478 12.72 1.479-1.908 1.479-13.356 1.478 3.816 1.479 1.272 1.479-41.34 1.478 5.088 1.479-5.088 1.479-1.908 1.478-5.724 1.479 1.908 1.479 5.724 1.478-5.724 1.479 17.172 1.479 24.804 1.478-31.8 1.479-1.272 1.479-12.72 1.478 1.272 1.479 8.268 1.479-20.988 1.478-1.272 1.479 16.536 1.479 39.432 1.478-31.164 1.479-8.904 1.479 1.908 1.478 4.452 1.479 4.452 1.479-17.808 1.478 2.544 1.479 22.26 1.479-27.348 1.478 2.544 1.479 4.452 1.479-5.724 1.478 13.992 1.479-5.088 1.479-15.264 1.478 11.448 1.479-5.724 1.479 9.54 1.478 11.448 1.479-3.18 1.479-5.088 1.478-11.448 1.479 13.992 1.479 8.268 1.478-16.536 1.479 25.44 1.479 5.088 1.478-22.896 1.48-22.26 1.478 12.72 1.478-4.452 1.48 13.356 1.478 3.18 1.478 11.448 1.48 1.908 1.478-19.716 1.478-13.992 1.48 20.352 1.478-6.36 1.478-3.816 1.48-3.816 1.478 4.452 1.478 26.712 1.48-19.716 1.478-15.9 1.478 17.808 1.48-2.544 1.478 19.08 1.478-12.72 1.48-22.26 1.478-12.084 1.478-1.272 1.48.636 1.478 5.088h1.478l1.48-4.452 1.478 8.268 1.478 12.084 1.48-13.992 1.478 1.908 1.478 6.36h1.48l1.478 3.816 1.478-8.904 1.48-1.272 1.478-.636 1.478 4.452 1.48 10.812 1.478 12.084 1.478-24.168 1.48-21.624 1.478 16.536 1.478 20.988 1.48.636 1.478-8.268 1.478-1.272 1.48 3.816 1.478-13.356 1.478 3.816 1.48 1.272h1.478l1.478 24.804 1.48 5.724 1.478-10.176 1.478 3.816 1.48-2.544 1.478 8.904 1.478-37.524 1.48 22.896 1.478-8.268 1.478 6.996 1.48-6.996 1.478 31.8 1.478.636 1.48-12.084 1.478-20.352 1.479-10.176h1.478l1.479 14.628 1.479 3.18 1.478 5.088 1.479 9.54h1.479l1.478-1.908 1.479 12.72 1.479-10.176 1.478 17.172 1.479 3.18 1.479-29.256 1.478-14.628 1.479 19.08 1.479 17.808 1.478-30.528 1.479 13.992 1.479 6.36 1.478-3.18 1.479-6.996 1.479-15.9 1.478-10.176 1.479 12.084 1.479 1.272 1.478 4.452 1.479-4.452 1.479 7.632 1.478 14.628 1.479 1.908 1.479-14.628 1.478 17.172 1.479 31.164 1.479 9.54 1.478-12.72 1.479-26.076 1.479-3.18 1.478 6.36 1.479-17.172 1.479-2.544 1.478 1.908 1.479 8.904 1.479 36.252 1.478 11.448 1.479-32.436 1.479-19.08 1.478-2.544 1.479 24.168 1.479-8.904 1.478-.636 1.479 14.628 1.479-9.54 1.478 3.816 1.479-3.18 1.54 5.088 1.479.636 1.479-13.356 1.478 24.168 1.479.636 1.479-19.08 1.478-3.18 1.479 24.804 1.479-12.72 1.478-10.812 1.479 4.452 1.479 17.172 1.478 1.272 1.479-12.084 1.479 22.26 1.478-4.452 1.479-10.812 1.479.636 1.478-6.36 1.479 10.176 1.479 7.632 1.478-6.36 1.479 31.8 1.479-1.908 1.478-17.808 1.479-21.624 1.479 6.996 1.478 29.256 1.479 3.816 1.479 8.904 1.478 19.716 1.479 1.908 1.479-3.18 1.478-35.616 1.479-27.984 1.479 5.724 1.478.636 1.479-4.452 1.479-6.36 1.478 3.18 1.479 17.808 1.479 3.816 1.478 5.724 1.479 42.612 1.479-1.272 1.478-11.448 1.479 6.996 1.479-3.816 1.478 3.816 1.479-41.976 1.479-17.808 1.478-5.088 1.479-.636 1.479-3.18 1.478 1.272 1.479 4.452 1.479 5.088 1.478-1.908 1.479 3.18 1.479 26.076 1.478-11.448 1.479 7.632 1.479.636h0v-19.716l-1.479 8.268-1.479-5.088-1.478 7.632-1.479-17.172-1.479-1.908-1.478-9.54-1.479-15.9-1.479-19.08-1.478 17.172-1.479-7.632-1.479 6.996-1.478 24.168-1.479 1.908-1.479 23.532-1.478 10.176-1.479 13.356-1.479-10.176-1.478-8.268-1.48-2.544-1.478-8.268-1.478-6.996-1.48-15.264-1.478-14.628-1.478-15.264-1.48 27.348-1.478-18.444-1.478 13.356-1.48-3.18-1.478 3.18-1.478 41.976-1.48 16.536-1.478-1.908-1.478-28.62-1.48.636-1.478-22.26-1.478-6.996-1.48-3.816-1.478-5.724-1.478 36.252-1.48-6.996-1.478-12.084-1.478-5.724-1.48-10.176-1.478-10.176-1.478 10.176h-1.48l-1.478 21.624-1.478-24.804-1.48-5.088-1.478 16.536-1.478-5.088-1.48-28.62-1.478 3.18-1.478 11.448-1.48.636-1.478-.636-1.478-3.18-1.48 6.996-1.478-19.716-1.478 17.172-1.48 9.54-1.478.636-1.54-10.812-1.479-21.624-1.478 6.36-1.48 15.264-1.478 1.908-1.478-5.724-1.48-15.264-1.478-7.632-1.478-1.272-1.48 1.908-1.478 33.708-1.478-6.36-1.48-8.904-1.478-48.972-1.478 6.36-1.48 12.72-1.478 29.256-1.478-9.54-1.48 15.9-1.478-3.816-1.478-7.632-1.48-6.996h-1.478l-1.478-12.084-1.48 15.264-1.478-10.812-1.478 9.54-1.48-39.432-1.478-.636-1.478 15.9-1.48-34.344-1.478 4.452-1.478 8.268-1.48-1.272-1.478-15.264-1.478 36.888-1.48-14.628-1.478 17.172-1.478 10.812-1.48-1.272-1.478-10.176-1.478 4.452-1.48-19.716-1.478-1.908-1.478-4.452-1.48 9.54-1.478-1.272-1.478 7.632-1.48-4.452-1.478 8.268-1.478-1.908-1.48-12.084-1.478 10.812-1.478-5.724-1.48 6.996-1.478-33.072-1.479 15.9-1.478-5.724-1.479 17.808-1.479-15.9-1.478 3.816-1.479 1.272-1.479 4.452-1.478-13.356-1.479-9.54-1.479-6.996-1.478 20.988-1.479-16.536-1.479 8.268-1.478 5.088-1.479 5.088-1.479-6.996-1.478-1.272-1.479 15.264-1.479 1.272-1.478 12.72-1.479-10.176-1.479 2.544-1.478-6.36-1.479-11.448-1.479.636-1.478-11.448-1.479 26.076-1.479-6.996-1.478-15.264-1.479 10.812-1.479 11.448-1.478-39.432-1.479 26.712-1.479 17.808-1.478-23.532-1.479-5.724-1.479 12.72-1.478-3.18-1.479-4.452-1.479-14.628-1.478-1.908-1.479 13.992-1.479-42.612-1.478 7.632-1.479 24.168-1.479-37.524-1.478 20.352-1.479 42.612-1.479 24.804-1.478-20.988-1.479-21.624-1.479 1.272-1.478 13.356-1.479 8.268-1.479-8.268-1.478-10.176-1.479 26.712h-1.479l-1.478-9.54-1.479-27.348-1.479 3.18-1.478 10.176-1.479 11.448-1.479 10.176-1.478-32.436-1.479-36.888-1.479 13.992-1.478 9.54-1.479 23.532-1.479 27.984h-1.478l-1.479-10.812-1.479 14.628h-1.478l-1.479-15.9-1.479 19.716-1.478-15.264-1.479-20.352-1.479 18.444-1.478 1.272-1.479-3.816-1.479-13.356-1.478 19.08-1.479-12.084-1.479 8.904-1.478-1.272-1.479-6.36-1.479-1.908-1.478-11.448-1.479 26.076h-1.479l-1.478 8.268-1.479-33.708-1.479 25.44-1.478-3.18-1.479 7.632-1.479-17.172-1.478 4.452-1.479-16.536-1.479-26.076-1.478 39.432-1.479 19.08-1.479 1.272-1.478-33.072-1.479 35.616-1.479-27.984-1.478-39.432-1.479 17.808-1.479 52.152-1.478-30.528-1.479 32.436-1.479-33.072-1.478 27.348-1.479-24.804-1.479 15.9-1.478 25.44-1.479 15.264-1.479-5.724-1.478-22.26-1.479-37.524-1.479-14.628-1.478 6.996-1.479 10.176-1.479 3.18-1.478 6.36-1.48 11.448-1.478 16.536-1.478.636-1.48 3.816-1.478 2.544-1.478 17.172-1.48-11.448-1.478 31.8-1.478-13.992-1.48-3.18-1.478 5.724-1.478-16.536-1.48 10.176-1.478-13.356-1.478 8.904-1.48 24.168-1.478-19.716-1.478-8.904-1.48 12.084-1.478.636-1.478-1.272-1.48-16.536-1.478-15.264-1.478 7.632-1.48-6.996-1.478 29.256-1.478-1.272-1.48-16.536-1.478-5.724-1.478 11.448-1.48-18.444-1.478 34.344-1.478 27.984-1.48-47.064-1.478 5.724-1.478-18.444-1.418 10.812-1.478 10.812-1.479 6.36-1.479 24.804-1.478-10.176-1.479-9.54-1.479 13.992-1.478 6.996-1.479-6.36-1.479-7.632-1.478-21.624-1.479 16.536-1.479-8.904-1.478 4.452-1.479 24.804-1.479-13.356-1.478 3.18-1.479 6.36-1.479 26.712-1.478-2.544-1.479-17.808-1.479-8.904L97.06 174.9l-1.479-5.088-1.479-6.996-1.478-6.996-1.479 3.816-1.479-4.452-1.478 20.988-1.479 25.44-1.479-20.352-1.478-15.9-1.479-3.18-1.479-2.544-1.478-12.084-1.479-10.812-1.479 27.984-1.478-13.356-1.479 19.08-1.479 3.18-1.478 13.356-1.479 1.272h-1.479l-1.478 5.724-1.479-8.904-1.479 15.9-1.478 16.536-1.479-20.988-1.479-34.344-1.478-.636-1.479-1.272-1.479 4.452L52.7 174.9l-1.479 10.812-1.479 21.624-1.478-22.26-1.479-31.164-1.479 3.18-1.478 4.452-1.479-30.528-1.479-5.724-1.478 47.7-1.479-8.268-1.479 6.36-1.478-17.172-1.479-23.532-1.479 6.36-1.478 9.54-1.479 46.428-1.479 19.08-1.478-4.452-1.479-29.256-1.479-3.18-1.478 2.544-1.479-10.812-1.479 5.724-1.478 3.816-1.479-3.816-1.479-6.996-1.478 24.804-1.479 42.612-1.479-62.328-1.478-6.996-1.479 15.264-1.479-17.808v20.988" data-z-index="2" class="highcharts-tracker-area" stroke-linecap="round" stroke-linejoin="round" stroke="rgba(192,192,192,0.0001)" aria-hidden="true"/></g></g><text x="300" text-anchor="middle" class="highcharts-title" data-z-index="4" style="color:#e0e0e3;font-size:20px;text-transform:uppercase;fill:#e0e0e3" y="25" aria-hidden="true">Temperature variation by day</text><g class="highcharts-axis-labels highcharts-xaxis-labels" data-z-index="7" aria-hidden="true" text-anchor="middle"><text x="46.321" style="color:#e0e0e3;cursor:default;font-size:11px;fill:#e0e0e3" y="384">Jan &apos;17</text><text x="133.562" style="color:#e0e0e3;cursor:default;font-size:11px;fill:#e0e0e3" y="384">Mar &apos;17</text><text x="223.761" style="color:#e0e0e3;cursor:default;font-size:11px;fill:#e0e0e3" y="384">May &apos;17</text><text x="313.96" style="color:#e0e0e3;cursor:default;font-size:11px;fill:#e0e0e3" y="384">Jul &apos;17</text><text x="405.637" style="color:#e0e0e3;cursor:default;font-size:11px;fill:#e0e0e3" y="384">Sep &apos;17</text><text x="495.836" style="color:#e0e0e3;cursor:default;font-size:11px;fill:#e0e0e3" y="384">Nov &apos;17</text><text x="572.434" style="color:#e0e0e3;cursor:default;font-size:11px;fill:#e0e0e3" y="384">Jan &apos;18</text></g><g class="highcharts-axis-labels highcharts-yaxis-labels" data-z-index="7" aria-hidden="true" text-anchor="end"><text x="26" style="color:#e0e0e3;cursor:default;font-size:11px;fill:#e0e0e3" y="370">-20</text><text x="26" style="color:#e0e0e3;cursor:default;font-size:11px;fill:#e0e0e3" y="306">-10</text><text x="26" style="color:#e0e0e3;cursor:default;font-size:11px;fill:#e0e0e3" y="243">0</text><text x="26" style="color:#e0e0e3;cursor:default;font-size:11px;fill:#e0e0e3" y="179">10</text><text x="26" style="color:#e0e0e3;cursor:default;font-size:11px;fill:#e0e0e3" y="115">20</text><text x="26" style="color:#e0e0e3;cursor:default;font-size:11px;fill:#e0e0e3" y="52">30</text></g></svg>