<svg class="highcharts-root" style="font-family:&quot;Unica One&quot;,sans-serif;font-size:12px" xmlns="http://www.w3.org/2000/svg" width="600" height="400" aria-label="Interactive chart" aria-hidden="false"><defs aria-hidden="true"><linearGradient x1="0" y1="0" x2="1" y2="1" id="a"><stop offset="0" stop-color="#2a2a2b"/><stop offset="1" stop-color="#3e3e40"/></linearGradient><clipPath id="b"><path fill="none" d="M0 0h553v266H0z"/></clipPath></defs><rect fill="url(#a)" class="highcharts-background" width="600" height="400" rx="0" ry="0" aria-hidden="true"/><path fill="none" class="highcharts-plot-background" aria-hidden="true" d="M37 61h553v266H37z"/><g class="highcharts-grid highcharts-xaxis-grid" data-z-index="1" aria-hidden="true" fill="none"><path data-z-index="1" class="highcharts-grid-line" d="M96.5 61v266m126-266v266m127-266v266m126-266v266"/></g><g class="highcharts-grid highcharts-yaxis-grid" data-z-index="1" aria-hidden="true" fill="none" stroke="#707073"><path data-z-index="1" class="highcharts-grid-line" d="M37 327.5h553m-553-44h553m-553-45h553m-553-44h553m-553-44h553m-553-45h553m-553-45h553"/></g><path fill="none" class="highcharts-plot-border" data-z-index="1" aria-hidden="true" d="M37 61h553v266H37z"/><g class="highcharts-axis highcharts-xaxis" data-z-index="2" aria-hidden="true" fill="none" stroke="#707073"><path class="highcharts-tick" d="M96.5 327v10m126-10v10m127-10v10m126-10v10"/><path class="highcharts-axis-line" data-z-index="7" d="M37 327.5h553"/></g><g class="highcharts-axis highcharts-yaxis" data-z-index="2" aria-hidden="true" fill="none"><path class="highcharts-tick" stroke="#707073" d="M37 327.5H27m10-44H27m10-45H27m10-44H27m10-44H27m10-45H27m10-45H27"/><path class="highcharts-axis-line" data-z-index="7" d="M37 61v266"/></g><g class="highcharts-series-group" data-z-index="3" aria-hidden="false"><g class="highcharts-series highcharts-series-1 highcharts-arearange-series" data-z-index=".1" clip-path="url(#b)" aria-hidden="true" transform="translate(37 61)"><path fill="rgba(43,144,143,0.3)" d="m5.422 144.527 18.071 3.546 18.072 18.62 18.072 29.26 18.072 26.6 18.072-1.773 18.072-37.24 18.072-15.96 18.072 19.507 18.072 38.126 18.072-61.18 18.071 25.714 18.072-10.64 18.072 15.073 18.072 19.507L276.5 226.1l18.072-39.013 18.072-19.507 18.072 28.373 18.072-70.933 18.071 8.867 18.072 47.88 18.072-17.734 18.072 25.714 18.072-38.127 18.072-6.207 18.072 35.467 18.072 8.867 18.072 9.753 18.072 17.733 18.071-43.446v-95.76L529.507 50.54l-18.072-12.413-18.072 26.6-18.072-10.64-18.072 26.6-18.072-7.094-18.072 5.32-18.072-11.526-18.072-31.92-18.072-13.3-18.071-9.754-18.072 16.847-18.072 40.787-18.072 20.393-18.072-3.547h-18.072l-18.072 17.734-18.072-35.467-18.072-10.64-18.071-23.053-18.072 24.826-18.072 42.56-18.072-18.62-18.072-5.32L95.78 117.04 77.709 83.347l-18.072 29.26-18.072-23.054-18.072-16.846L5.422 39.013v105.514" class="highcharts-area" data-z-index="0"/><path fill="none" d="m5.422 144.527 18.071 3.546 18.072 18.62 18.072 29.26 18.072 26.6 18.072-1.773 18.072-37.24 18.072-15.96 18.072 19.507 18.072 38.126 18.072-61.18 18.071 25.714 18.072-10.64 18.072 15.073 18.072 19.507L276.5 226.1l18.072-39.013 18.072-19.507 18.072 28.373 18.072-70.933 18.071 8.867 18.072 47.88 18.072-17.734 18.072 25.714 18.072-38.127 18.072-6.207 18.072 35.467 18.072 8.867 18.072 9.753 18.072 17.733 18.071-43.446m0-95.76L529.507 50.54l-18.072-12.413-18.072 26.6-18.072-10.64-18.072 26.6-18.072-7.094-18.072 5.32-18.072-11.526-18.072-31.92-18.072-13.3-18.071-9.754-18.072 16.847-18.072 40.787-18.072 20.393-18.072-3.547h-18.072l-18.072 17.734-18.072-35.467-18.072-10.64-18.071-23.053-18.072 24.826-18.072 42.56-18.072-18.62-18.072-5.32L95.78 117.04 77.709 83.347l-18.072 29.26-18.072-23.054-18.072-16.846L5.422 39.013" class="highcharts-graph" data-z-index="1"/><path fill="rgba(192,192,192,0.0001)" d="m5.422 144.527 18.071 3.546 18.072 18.62 18.072 29.26 18.072 26.6 18.072-1.773 18.072-37.24 18.072-15.96 18.072 19.507 18.072 38.126 18.072-61.18 18.071 25.714 18.072-10.64 18.072 15.073 18.072 19.507L276.5 226.1l18.072-39.013 18.072-19.507 18.072 28.373 18.072-70.933 18.071 8.867 18.072 47.88 18.072-17.734 18.072 25.714 18.072-38.127 18.072-6.207 18.072 35.467 18.072 8.867 18.072 9.753 18.072 17.733 18.071-43.446v-95.76L529.507 50.54l-18.072-12.413-18.072 26.6-18.072-10.64-18.072 26.6-18.072-7.094-18.072 5.32-18.072-11.526-18.072-31.92-18.072-13.3-18.071-9.754-18.072 16.847-18.072 40.787-18.072 20.393-18.072-3.547h-18.072l-18.072 17.734-18.072-35.467-18.072-10.64-18.071-23.053-18.072 24.826-18.072 42.56-18.072-18.62-18.072-5.32L95.78 117.04 77.709 83.347l-18.072 29.26-18.072-23.054-18.072-16.846L5.422 39.013v105.514" data-z-index="2" class="highcharts-tracker-area"/></g><g class="highcharts-series highcharts-series-0 highcharts-line-series highcharts-color-0" data-z-index="1" clip-path="url(#b)" aria-hidden="true" fill="none" stroke-linejoin="round" stroke-linecap="round" transform="translate(37 61)"><path d="m5.422 105.513 18.071 8.867 18.072 16.847 18.072 22.166 18.072-5.32 18.072 23.94 18.072-44.333 18.072-4.433 18.072 18.62 18.072-11.527 18.072-19.507h18.071l18.072 19.507 18.072 12.413 18.072 1.774 18.072-.887 18.072-1.773 18.072-15.96 18.072-24.827 18.072-25.713 18.071 15.073 18.072 19.507 18.072 7.093 18.072 10.64 18.072-9.753 18.072 3.546 18.072-7.98 18.072 10.64 18.072-7.98 18.072 7.094 18.071 14.186" class="highcharts-graph" data-z-index="1" stroke="#2b908f" stroke-width="2"/><path d="m5.422 105.513 18.071 8.867 18.072 16.847 18.072 22.166 18.072-5.32 18.072 23.94 18.072-44.333 18.072-4.433 18.072 18.62 18.072-11.527 18.072-19.507h18.071l18.072 19.507 18.072 12.413 18.072 1.774 18.072-.887 18.072-1.773 18.072-15.96 18.072-24.827 18.072-25.713 18.071 15.073 18.072 19.507 18.072 7.093 18.072 10.64 18.072-9.753 18.072 3.546 18.072-7.98 18.072 10.64 18.072-7.98 18.072 7.094 18.071 14.186" data-z-index="2" class="highcharts-tracker-line" stroke="rgba(192,192,192,0.0001)" stroke-width="22"/></g><g class="highcharts-markers highcharts-series-0 highcharts-line-series highcharts-color-0 highcharts-tracker" data-z-index="1" aria-hidden="false" tabindex="-1" aria-label="Temperature, series 1 of 2. Line with 31 data points." style="outline:0" fill="#fff" stroke="#2b908f" stroke-width="2"><path d="M5 110a4 4 0 1 1 .004 0Z" class="highcharts-point highcharts-color-0" tabindex="-1" aria-label="Friday, Jul 1, 2022, 18.1°C. Temperature." style="outline:0" transform="translate(37 61)"/><path d="M23 118a4 4 0 1 1 .004 0Z" class="highcharts-point highcharts-color-0" tabindex="-1" aria-label="Saturday, Jul 2, 2022, 17.1°C. Temperature." style="outline:0" transform="translate(37 61)"/><path d="M41 135a4 4 0 1 1 .004 0Z" class="highcharts-point highcharts-color-0" tabindex="-1" aria-label="Sunday, Jul 3, 2022, 15.2°C. Temperature." style="outline:0" transform="translate(37 61)"/><path d="M59 157a4 4 0 1 1 .004 0Z" class="highcharts-point highcharts-color-0" tabindex="-1" aria-label="Monday, Jul 4, 2022, 12.7°C. Temperature." style="outline:0" transform="translate(37 61)"/><path d="M77 152a4 4 0 1 1 .004 0Z" class="highcharts-point highcharts-color-0" tabindex="-1" aria-label="Tuesday, Jul 5, 2022, 13.3°C. Temperature." style="outline:0" transform="translate(37 61)"/><path d="M95 176a4 4 0 1 1 .004 0Z" class="highcharts-point highcharts-color-0" tabindex="-1" aria-label="Wednesday, Jul 6, 2022, 10.6°C. Temperature." style="outline:0" transform="translate(37 61)"/><path d="M113 132a4 4 0 1 1 .004 0Z" class="highcharts-point highcharts-color-0" tabindex="-1" aria-label="Thursday, Jul 7, 2022, 15.6°C. Temperature." style="outline:0" transform="translate(37 61)"/><path d="M131 127a4 4 0 1 1 .004 0Z" class="highcharts-point highcharts-color-0" tabindex="-1" aria-label="Friday, Jul 8, 2022, 16.1°C. Temperature." style="outline:0" transform="translate(37 61)"/><path d="M149 146a4 4 0 1 1 .004 0Z" class="highcharts-point highcharts-color-0" tabindex="-1" aria-label="Saturday, Jul 9, 2022, 14°C. Temperature." style="outline:0" transform="translate(37 61)"/><path d="M168 134a4 4 0 1 1 .004 0Z" class="highcharts-point highcharts-color-0" tabindex="-1" aria-label="Sunday, Jul 10, 2022, 15.3°C. Temperature." style="outline:0" transform="translate(37 61)"/><path d="M186 115a4 4 0 1 1 .004 0Z" class="highcharts-point highcharts-color-0" tabindex="-1" aria-label="Monday, Jul 11, 2022, 17.5°C. Temperature." style="outline:0" transform="translate(37 61)"/><path d="M204 115a4 4 0 1 1 .004 0Z" class="highcharts-point highcharts-color-0" tabindex="-1" aria-label="Tuesday, Jul 12, 2022, 17.5°C. Temperature." style="outline:0" transform="translate(37 61)"/><path d="M222 134a4 4 0 1 1 .004 0Z" class="highcharts-point highcharts-color-0" tabindex="-1" aria-label="Wednesday, Jul 13, 2022, 15.3°C. Temperature." style="outline:0" transform="translate(37 61)"/><path d="M240 147a4 4 0 1 1 .004 0Z" class="highcharts-point highcharts-color-0" tabindex="-1" aria-label="Thursday, Jul 14, 2022, 13.9°C. Temperature." style="outline:0" transform="translate(37 61)"/><path d="M258 149a4 4 0 1 1 .004 0Z" class="highcharts-point highcharts-color-0" tabindex="-1" aria-label="Friday, Jul 15, 2022, 13.7°C. Temperature." style="outline:0" transform="translate(37 61)"/><path d="M276 148a4 4 0 1 1 .004 0Z" class="highcharts-point highcharts-color-0" tabindex="-1" aria-label="Saturday, Jul 16, 2022, 13.8°C. Temperature." style="outline:0" transform="translate(37 61)"/><path d="M294 146a4 4 0 1 1 .004 0Z" class="highcharts-point highcharts-color-0" tabindex="-1" aria-label="Sunday, Jul 17, 2022, 14°C. Temperature." style="outline:0" transform="translate(37 61)"/><path d="M312 130a4 4 0 1 1 .004 0Z" class="highcharts-point highcharts-color-0" tabindex="-1" aria-label="Monday, Jul 18, 2022, 15.8°C. Temperature." style="outline:0" transform="translate(37 61)"/><path d="M330 105a4 4 0 1 1 .004 0Z" class="highcharts-point highcharts-color-0" tabindex="-1" aria-label="Tuesday, Jul 19, 2022, 18.6°C. Temperature." style="outline:0" transform="translate(37 61)"/><path d="M348 79a4 4 0 1 1 .004 0Z" class="highcharts-point highcharts-color-0" tabindex="-1" aria-label="Wednesday, Jul 20, 2022, 21.5°C. Temperature." style="outline:0" transform="translate(37 61)"/><path d="M366 94a4 4 0 1 1 .004 0Z" class="highcharts-point highcharts-color-0" tabindex="-1" aria-label="Thursday, Jul 21, 2022, 19.8°C. Temperature." style="outline:0" transform="translate(37 61)"/><path d="M384 114a4 4 0 1 1 .004 0Z" class="highcharts-point highcharts-color-0" tabindex="-1" aria-label="Friday, Jul 22, 2022, 17.6°C. Temperature." style="outline:0" transform="translate(37 61)"/><path d="M403 121a4 4 0 1 1 .004 0Z" class="highcharts-point highcharts-color-0" tabindex="-1" aria-label="Saturday, Jul 23, 2022, 16.8°C. Temperature." style="outline:0" transform="translate(37 61)"/><path d="M421 132a4 4 0 1 1 .004 0Z" class="highcharts-point highcharts-color-0" tabindex="-1" aria-label="Sunday, Jul 24, 2022, 15.6°C. Temperature." style="outline:0" transform="translate(37 61)"/><path d="M439 122a4 4 0 1 1 .004 0Z" class="highcharts-point highcharts-color-0" tabindex="-1" aria-label="Monday, Jul 25, 2022, 16.7°C. Temperature." style="outline:0" transform="translate(37 61)"/><path d="M457 125a4 4 0 1 1 .004 0Z" class="highcharts-point highcharts-color-0" tabindex="-1" aria-label="Tuesday, Jul 26, 2022, 16.3°C. Temperature." style="outline:0" transform="translate(37 61)"/><path d="M475 117a4 4 0 1 1 .004 0Z" class="highcharts-point highcharts-color-0" tabindex="-1" aria-label="Wednesday, Jul 27, 2022, 17.2°C. Temperature." style="outline:0" transform="translate(37 61)"/><path d="M493 128a4 4 0 1 1 .004 0Z" class="highcharts-point highcharts-color-0" tabindex="-1" aria-label="Thursday, Jul 28, 2022, 16°C. Temperature." style="outline:0" transform="translate(37 61)"/><path d="M511 120a4 4 0 1 1 .004 0Z" class="highcharts-point highcharts-color-0" tabindex="-1" aria-label="Friday, Jul 29, 2022, 16.9°C. Temperature." style="outline:0" transform="translate(37 61)"/><path d="M529 127a4 4 0 1 1 .004 0Z" class="highcharts-point highcharts-color-0" tabindex="-1" aria-label="Saturday, Jul 30, 2022, 16.1°C. Temperature." style="outline:0" transform="translate(37 61)"/><path d="M547 141a4 4 0 1 1 .004 0Z" class="highcharts-point highcharts-color-0" tabindex="-1" aria-label="Sunday, Jul 31, 2022, 14.5°C. Temperature." style="outline:0" transform="translate(37 61)"/></g></g><text x="300" text-anchor="middle" class="highcharts-title" data-z-index="4" style="color:#e0e0e3;font-size:20px;text-transform:uppercase;fill:#e0e0e3" y="25" aria-hidden="true">July temperatures in Nesbyen, 2022</text><text x="300" text-anchor="middle" class="highcharts-subtitle" data-z-index="4" style="color:#e0e0e3;text-transform:uppercase;fill:#e0e0e3" y="46" aria-hidden="true">Source: <a target="_blank"><tspan>YR</tspan></a></text><g class="highcharts-legend highcharts-no-tooltip" data-z-index="7" transform="translate(246 359)" aria-hidden="true"><rect fill="rgba(0, 0, 0, 0.5)" class="highcharts-legend-box" rx="0" ry="0" width="108" height="26"/><g class="highcharts-legend-item highcharts-line-series highcharts-color-0 highcharts-series-0" data-z-index="1"><path fill="none" d="M8 14h16" class="highcharts-graph" stroke-width="2" stroke="#2b908f"/><path fill="#fff" d="M16 18a4 4 0 1 1 .004 0Z" class="highcharts-point" stroke="#2b908f" stroke-width="2"/><text x="21" data-z-index="2" y="15" style="color:#e0e0e3;cursor:pointer;font-size:12px;font-weight:700;fill:#e0e0e3" transform="translate(8 3)">Temperature</text></g></g><g class="highcharts-axis-labels highcharts-xaxis-labels" data-z-index="7" aria-hidden="true" text-anchor="middle"><text x="96.637" style="color:#e0e0e3;cursor:default;font-size:11px;fill:#e0e0e3" y="346">4. Jul</text><text x="223.141" style="color:#e0e0e3;cursor:default;font-size:11px;fill:#e0e0e3" y="346">11. Jul</text><text x="349.644" style="color:#e0e0e3;cursor:default;font-size:11px;fill:#e0e0e3" y="346">18. Jul</text><text x="476.147" style="color:#e0e0e3;cursor:default;font-size:11px;fill:#e0e0e3" y="346">25. Jul</text></g><g class="highcharts-axis-labels highcharts-yaxis-labels" data-z-index="7" aria-hidden="true" text-anchor="end"><text x="22" style="color:#e0e0e3;cursor:default;font-size:11px;fill:#e0e0e3" y="332">0</text><text x="22" style="color:#e0e0e3;cursor:default;font-size:11px;fill:#e0e0e3" y="287">5</text><text x="22" style="color:#e0e0e3;cursor:default;font-size:11px;fill:#e0e0e3" y="243">10</text><text x="22" style="color:#e0e0e3;cursor:default;font-size:11px;fill:#e0e0e3" y="199">15</text><text x="22" style="color:#e0e0e3;cursor:default;font-size:11px;fill:#e0e0e3" y="154">20</text><text x="22" style="color:#e0e0e3;cursor:default;font-size:11px;fill:#e0e0e3" y="110">25</text><text x="22" style="color:#e0e0e3;cursor:default;font-size:11px;fill:#e0e0e3" y="66">30</text></g></svg>