<svg class="highcharts-root" style="font-family:&quot;Unica One&quot;,sans-serif;font-size:12px" xmlns="http://www.w3.org/2000/svg" width="600" height="420" aria-label="Interactive chart" aria-hidden="false"><defs aria-hidden="true"><linearGradient x1="0" y1="0" x2="1" y2="1" id="a"><stop offset="0" stop-color="#2a2a2b"/><stop offset="1" stop-color="#3e3e40"/></linearGradient><clipPath id="b"><path fill="none" d="M0 0h537v286H0z"/></clipPath></defs><rect fill="url(#a)" class="highcharts-background" width="600" height="420" rx="0" ry="0" aria-hidden="true"/><path fill="none" class="highcharts-plot-background" aria-hidden="true" d="M53 61h537v286H53z"/><g class="highcharts-grid highcharts-xaxis-grid" data-z-index="1" aria-hidden="true" fill="none"><path data-z-index="1" class="highcharts-grid-line" d="M57.5 61v286m85-286v286m85-286v286m85-286v286m85-286v286m85-286v286m85-286v286"/></g><g class="highcharts-grid highcharts-yaxis-grid" data-z-index="1" aria-hidden="true" fill="none" stroke="#707073"><path data-z-index="1" class="highcharts-grid-line" d="M53 347.5h537m-537-71h537m-537-72h537m-537-71h537m-537-73h537"/></g><path fill="none" class="highcharts-plot-border" data-z-index="1" aria-hidden="true" d="M53 61h537v286H53z"/><g class="highcharts-axis highcharts-xaxis" data-z-index="2" aria-hidden="true" fill="none" stroke="#707073"><path class="highcharts-tick" d="M57.5 347v10m85-10v10m85-10v10m85-10v10m85-10v10m85-10v10m85-10v10"/><path class="highcharts-axis-line" data-z-index="7" d="M53 347.5h537"/></g><g class="highcharts-axis highcharts-yaxis" data-z-index="2" aria-hidden="true" fill="none"><path class="highcharts-tick" stroke="#707073" d="M53 347.5H43m10-71H43m10-72H43m10-71H43m10-73H43"/><path class="highcharts-axis-line" data-z-index="7" d="M53 61v286"/></g><g class="highcharts-series-group" data-z-index="3" aria-hidden="false"><g class="highcharts-series highcharts-series-0 highcharts-area-series highcharts-color-0" data-z-index=".1" clip-path="url(#b)" aria-hidden="true" transform="translate(53 61)"><path fill="rgba(43,144,143,0.75)" d="M5.265 0h526.47v146.357l-16.983 3.653-16.983-9.024-16.982-2.686-16.983-.853-16.983-1.457-16.983.068-16.983 2.106h-16.983l-16.983-.772-16.983-2.218-16.983-8.39-16.983-3.32-16.983-7.518L293.974 110l-16.983-4.375-16.982-5.779-16.983-8.044-16.983-7.684-16.983-7.194-16.983-5.931-16.983-1.536-16.983 1.007-16.983 1.036-16.983 1.036-16.983 1.067-16.983.064-16.983-4.401-16.983-2.914-16.982-3.572-16.983-1.325L5.265 59.09Z" class="highcharts-area" data-z-index="0"/><path fill="none" d="M5.265 0h526.47" class="highcharts-graph" data-z-index="1" stroke="#2b908f" stroke-width="2" stroke-linejoin="round" stroke-linecap="round"/><path fill="none" d="M5.265 0h526.47" data-z-index="2" class="highcharts-tracker-line" stroke-linecap="round" stroke-linejoin="round" stroke="rgba(192,192,192,0.0001)" stroke-width="22"/></g><g class="highcharts-series highcharts-series-1 highcharts-area-series highcharts-color-1" data-z-index=".1" clip-path="url(#b)" aria-hidden="true" transform="translate(53 61)"><path fill="rgba(144,238,126,0.75)" d="m5.265 59.09 16.983 2.365L39.23 62.78l16.982 3.572 16.983 2.914 16.983 4.4 16.983-.063 16.983-1.067 16.983-1.036 16.983-1.036 16.983-1.007 16.983 1.536 16.983 5.931 16.983 7.194 16.983 7.684 16.983 8.044 16.982 5.779L293.974 110l16.983 5.946 16.983 7.518 16.983 3.32 16.983 8.39 16.983 2.218 16.983.772h16.983l16.983-2.106 16.983-.068 16.983 1.457 16.983.853 16.982 2.686 16.983 9.024 16.983-3.653v67.136l-16.983 2.409-16.983-3.752-16.982-1.342-16.983-1.167-16.983-.749-16.983 2.137-16.983 3.126h-16.983l-16.983-2.459-16.983 1.737-16.983-2.619-16.983-1.393-16.983-2.264-16.983-1.3-16.983-1.107-16.982-1.673-16.983-3.583-16.983-3.22-16.983-2.977-16.983-2.63-16.983 1.362-16.983-1.362-16.983.7-16.983-.7-16.983.7-16.983-.7-16.983-.745-16.983-2.306-16.982-3.925L22.248 182l-16.983-2.364Z" class="highcharts-area" data-z-index="0"/><path fill="none" d="m5.265 59.09 16.983 2.365L39.23 62.78l16.982 3.572 16.983 2.914 16.983 4.4 16.983-.063 16.983-1.067 16.983-1.036 16.983-1.036 16.983-1.007 16.983 1.536 16.983 5.931 16.983 7.194 16.983 7.684 16.983 8.044 16.982 5.779L293.974 110l16.983 5.946 16.983 7.518 16.983 3.32 16.983 8.39 16.983 2.218 16.983.772h16.983l16.983-2.106 16.983-.068 16.983 1.457 16.983.853 16.982 2.686 16.983 9.024 16.983-3.653" class="highcharts-graph" data-z-index="1" stroke="#90ee7e" stroke-width="2" stroke-linejoin="round" stroke-linecap="round"/><path fill="none" d="m5.265 59.09 16.983 2.365L39.23 62.78l16.982 3.572 16.983 2.914 16.983 4.4 16.983-.063 16.983-1.067 16.983-1.036 16.983-1.036 16.983-1.007 16.983 1.536 16.983 5.931 16.983 7.194 16.983 7.684 16.983 8.044 16.982 5.779L293.974 110l16.983 5.946 16.983 7.518 16.983 3.32 16.983 8.39 16.983 2.218 16.983.772h16.983l16.983-2.106 16.983-.068 16.983 1.457 16.983.853 16.982 2.686 16.983 9.024 16.983-3.653" data-z-index="2" class="highcharts-tracker-line" stroke-linecap="round" stroke-linejoin="round" stroke="rgba(192,192,192,0.0001)" stroke-width="22"/></g><g class="highcharts-series highcharts-series-2 highcharts-area-series highcharts-color-2" data-z-index=".1" clip-path="url(#b)" aria-hidden="true" transform="translate(53 61)"><path fill="rgba(244,91,91,0.75)" d="M5.265 179.636 22.248 182l16.983 1.691 16.982 3.925 16.983 2.306 16.983.745 16.983.7 16.983-.7 16.983.7 16.983-.7 16.983 1.362 16.983-1.362 16.983 2.63 16.983 2.978 16.983 3.219 16.983 3.583 16.982 1.673 16.983 1.107 16.983 1.3 16.983 2.264 16.983 1.393 16.983 2.619 16.983-1.737 16.983 2.459h16.983l16.983-3.126 16.983-2.137 16.983.749 16.983 1.167 16.982 1.342 16.983 3.752 16.983-2.409v36.253l-16.983 2.607-16.983-1.264h-16.982l-16.983 1.59-16.983-.326-16.983 1.715-16.983 1.536-16.983 2.763-16.983-.406-16.983 2.427-16.983.55-16.983.057-16.983 1.816L293.974 264l-16.983.875-16.982.817-16.983.888-16.983-1.142-16.983.838-16.983-.56-16.983-.145-16.983-.296-16.983 1.799-16.983.274-16.983 1.828-16.983-.51-16.983 1.693-16.983-.375-16.982-.26-16.983 2.094H5.265Z" class="highcharts-area" data-z-index="0"/><path fill="none" d="M5.265 179.636 22.248 182l16.983 1.691 16.982 3.925 16.983 2.306 16.983.745 16.983.7 16.983-.7 16.983.7 16.983-.7 16.983 1.362 16.983-1.362 16.983 2.63 16.983 2.978 16.983 3.219 16.983 3.583 16.982 1.673 16.983 1.107 16.983 1.3 16.983 2.264 16.983 1.393 16.983 2.619 16.983-1.737 16.983 2.459h16.983l16.983-3.126 16.983-2.137 16.983.749 16.983 1.167 16.982 1.342 16.983 3.752 16.983-2.409" class="highcharts-graph" data-z-index="1" stroke="#f45b5b" stroke-width="2" stroke-linejoin="round" stroke-linecap="round"/><path fill="none" d="M5.265 179.636 22.248 182l16.983 1.691 16.982 3.925 16.983 2.306 16.983.745 16.983.7 16.983-.7 16.983.7 16.983-.7 16.983 1.362 16.983-1.362 16.983 2.63 16.983 2.978 16.983 3.219 16.983 3.583 16.982 1.673 16.983 1.107 16.983 1.3 16.983 2.264 16.983 1.393 16.983 2.619 16.983-1.737 16.983 2.459h16.983l16.983-3.126 16.983-2.137 16.983.749 16.983 1.167 16.982 1.342 16.983 3.752 16.983-2.409" data-z-index="2" class="highcharts-tracker-line" stroke-linecap="round" stroke-linejoin="round" stroke="rgba(192,192,192,0.0001)" stroke-width="22"/></g><g class="highcharts-series highcharts-series-3 highcharts-area-series highcharts-color-3" data-z-index=".1" clip-path="url(#b)" aria-hidden="true" transform="translate(53 61)"><path fill="rgba(119,152,191,0.75)" d="M5.265 271.818h16.983l16.983-2.094 16.982.26 16.983.375 16.983-1.692 16.983.51 16.983-1.83 16.983-.273 16.983-1.799 16.983.296 16.983.145 16.983.56 16.983-.838 16.983 1.142 16.983-.888 16.982-.817 16.983-.875 16.983-1.19 16.983-1.815 16.983-.057 16.983-.55 16.983-2.427 16.983.406 16.983-2.763 16.983-1.536 16.983-1.715 16.983.327 16.983-1.59h16.982l16.983 1.263 16.983-2.607V286H5.265Z" class="highcharts-area" data-z-index="0"/><path fill="none" d="M5.265 271.818h16.983l16.983-2.094 16.982.26 16.983.375 16.983-1.692 16.983.51 16.983-1.83 16.983-.273 16.983-1.799 16.983.296 16.983.145 16.983.56 16.983-.838 16.983 1.142 16.983-.888 16.982-.817 16.983-.875 16.983-1.19 16.983-1.815 16.983-.057 16.983-.55 16.983-2.427 16.983.406 16.983-2.763 16.983-1.536 16.983-1.715 16.983.327 16.983-1.59h16.982l16.983 1.263 16.983-2.607" class="highcharts-graph" data-z-index="1" stroke="#7798BF" stroke-width="2" stroke-linejoin="round" stroke-linecap="round"/><path fill="none" d="M5.265 271.818h16.983l16.983-2.094 16.982.26 16.983.375 16.983-1.692 16.983.51 16.983-1.83 16.983-.273 16.983-1.799 16.983.296 16.983.145 16.983.56 16.983-.838 16.983 1.142 16.983-.888 16.982-.817 16.983-.875 16.983-1.19 16.983-1.815 16.983-.057 16.983-.55 16.983-2.427 16.983.406 16.983-2.763 16.983-1.536 16.983-1.715 16.983.327 16.983-1.59h16.982l16.983 1.263 16.983-2.607" data-z-index="2" class="highcharts-tracker-line" stroke-linecap="round" stroke-linejoin="round" stroke="rgba(192,192,192,0.0001)" stroke-width="22"/></g></g><g data-z-index="3" aria-hidden="true"><text data-z-index="1" y="12" style="color:#000;font-weight:700;fill:#000" transform="translate(441 123)" class="highcharts-label highcharts-series-label highcharts-series-label-0 highcharts-color-0">China</text></g><g data-z-index="3" aria-hidden="true"><text data-z-index="1" y="12" style="color:#000;font-weight:700;fill:#000" transform="translate(216 185)" class="highcharts-label highcharts-series-label highcharts-series-label-1 highcharts-color-1">USA</text></g><g data-z-index="3" aria-hidden="true"><text data-z-index="1" y="12" style="color:#000;font-weight:700;fill:#000" transform="translate(92 282)" class="highcharts-label highcharts-series-label highcharts-series-label-2 highcharts-color-2">EU</text></g><g data-z-index="3" aria-hidden="true"><text data-z-index="1" y="12" style="color:#000;font-weight:700;fill:#000" transform="translate(537 323)" class="highcharts-label highcharts-series-label highcharts-series-label-3 highcharts-color-3">India</text></g><text x="300" text-anchor="middle" class="highcharts-title" data-z-index="4" style="color:#e0e0e3;font-size:20px;text-transform:uppercase;fill:#e0e0e3" y="25" aria-hidden="true">Countries/regions with highest Gt CO<tspan>2</tspan>-emissions</text><text x="300" text-anchor="middle" class="highcharts-subtitle" data-z-index="4" style="color:#e0e0e3;text-transform:uppercase;fill:#e0e0e3" y="46" aria-hidden="true">Source: <a target="_blank"><tspan>Energi og Klima</tspan></a></text><g class="highcharts-legend highcharts-no-tooltip" data-z-index="7" transform="translate(168 379)" aria-hidden="true"><rect fill="rgba(0, 0, 0, 0.5)" class="highcharts-legend-box" rx="0" ry="0" width="263" height="26"/><g data-z-index="1"><g class="highcharts-legend-item highcharts-area-series highcharts-color-0 highcharts-series-0" data-z-index="1" transform="translate(8 3)"><text x="21" data-z-index="2" y="15" style="color:#e0e0e3;cursor:pointer;font-size:12px;font-weight:700;fill:#e0e0e3">China</text><rect x="2" y="4" width="12" height="12" fill="#2b908f" rx="6" ry="6" class="highcharts-point" data-z-index="3"/></g><g class="highcharts-legend-item highcharts-area-series highcharts-color-1 highcharts-series-1" data-z-index="1" transform="translate(82.336 3)"><text x="21" y="15" data-z-index="2" style="color:#e0e0e3;cursor:pointer;font-size:12px;font-weight:700;fill:#e0e0e3">USA</text><rect x="2" y="4" width="12" height="12" fill="#90ee7e" rx="6" ry="6" class="highcharts-point" data-z-index="3"/></g><g class="highcharts-legend-item highcharts-area-series highcharts-color-2 highcharts-series-2" data-z-index="1" transform="translate(148.672 3)"><text x="21" y="15" data-z-index="2" style="color:#e0e0e3;cursor:pointer;font-size:12px;font-weight:700;fill:#e0e0e3">EU</text><rect x="2" y="4" width="12" height="12" fill="#f45b5b" rx="6" ry="6" class="highcharts-point" data-z-index="3"/></g><g class="highcharts-legend-item highcharts-area-series highcharts-color-3 highcharts-series-3" data-z-index="1" transform="translate(206.344 3)"><text x="21" y="15" data-z-index="2" style="color:#e0e0e3;cursor:pointer;font-size:12px;font-weight:700;fill:#e0e0e3">India</text><rect x="2" y="4" width="12" height="12" fill="#7798BF" rx="6" ry="6" class="highcharts-point" data-z-index="3"/></g></g></g><g class="highcharts-axis-labels highcharts-xaxis-labels" data-z-index="7" aria-hidden="true" text-anchor="middle"><text x="58.265" style="color:#e0e0e3;cursor:default;font-size:11px;fill:#e0e0e3" y="366">1990</text><text x="143.179" style="color:#e0e0e3;cursor:default;font-size:11px;fill:#e0e0e3" y="366">1995</text><text x="228.094" style="color:#e0e0e3;cursor:default;font-size:11px;fill:#e0e0e3" y="366">2000</text><text x="313.009" style="color:#e0e0e3;cursor:default;font-size:11px;fill:#e0e0e3" y="366">2005</text><text x="397.923" style="color:#e0e0e3;cursor:default;font-size:11px;fill:#e0e0e3" y="366">2010</text><text x="482.838" style="color:#e0e0e3;cursor:default;font-size:11px;fill:#e0e0e3" y="366">2015</text><text x="567.752" style="color:#e0e0e3;cursor:default;font-size:11px;fill:#e0e0e3" y="366">2020</text></g><g class="highcharts-axis-labels highcharts-yaxis-labels" data-z-index="7" aria-hidden="true" text-anchor="end"><text x="38" style="color:#e0e0e3;cursor:default;font-size:11px;fill:#e0e0e3" y="352">0%</text><text x="38" style="color:#e0e0e3;cursor:default;font-size:11px;fill:#e0e0e3" y="280">25%</text><text x="38" style="color:#e0e0e3;cursor:default;font-size:11px;fill:#e0e0e3" y="209">50%</text><text x="38" style="color:#e0e0e3;cursor:default;font-size:11px;fill:#e0e0e3" y="137">75%</text><text x="38" style="color:#e0e0e3;cursor:default;font-size:11px;fill:#e0e0e3" y="66">100%</text></g></svg>