<svg class="highcharts-root" style="font-family:&quot;Unica One&quot;,sans-serif;font-size:12px" xmlns="http://www.w3.org/2000/svg" width="600" height="400" aria-label="Interactive chart" aria-hidden="false"><defs aria-hidden="true"><linearGradient x1="0" y1="0" x2="1" y2="1" id="a"><stop offset="0" stop-color="#2a2a2b"/><stop offset="1" stop-color="#3e3e40"/></linearGradient><clipPath id="b"><path fill="none" d="M0 0h285v524H0z"/></clipPath></defs><rect fill="url(#a)" class="highcharts-background" width="600" height="400" rx="0" ry="0" aria-hidden="true"/><path fill="none" class="highcharts-plot-background" aria-hidden="true" d="M66 61h524v285H66z"/><g class="highcharts-grid highcharts-xaxis-grid" data-z-index="1" aria-hidden="true" fill="none"><path data-z-index="1" class="highcharts-grid-line" d="M66 118.5h524m-524 57h524m-524 57h524m-524 57h524m-524 57h524M66 61.5h524"/></g><g class="highcharts-grid highcharts-yaxis-grid" data-z-index="1" aria-hidden="true" fill="none" stroke="#707073"><path data-z-index="1" class="highcharts-grid-line" d="M65.5 61v285m52-285v285m53-285v285m52-285v285m53-285v285m52-285v285m52-285v285m53-285v285m52-285v285m53-285v285m53-285v285"/></g><path fill="none" class="highcharts-plot-border" data-z-index="1" aria-hidden="true" d="M66 61h524v285H66z"/><g class="highcharts-axis highcharts-xaxis" data-z-index="2" aria-hidden="true"><path fill="none" class="highcharts-axis-line" stroke="#707073" data-z-index="7" d="M65.5 61v285"/></g><g class="highcharts-axis highcharts-yaxis" data-z-index="2" aria-hidden="true"><path fill="none" class="highcharts-tick" stroke="#707073" d="M65.5 346v10m52-10v10m53-10v10m52-10v10m53-10v10m52-10v10m52-10v10m53-10v10m52-10v10m53-10v10m53-10v10"/><text x="590" data-z-index="7" text-anchor="end" class="highcharts-axis-title" style="color:#a0a0a3;fill:#a0a0a3" y="383.5">Population (millions)</text><path fill="none" class="highcharts-axis-line" data-z-index="7" d="M66 346h524"/></g><g class="highcharts-series-group" data-z-index="3" aria-hidden="false" stroke="#fff"><g class="highcharts-series highcharts-series-0 highcharts-bar-series highcharts-color-0 highcharts-tracker" data-z-index=".1" clip-path="url(#b)" aria-hidden="false" tabindex="-1" aria-label="Year 1990, bar series 1 of 4 with 5 bars." style="outline:0" fill="#2b908f" transform="matrix(0 -1 -1 0 590 346)"><path class="highcharts-point highcharts-color-0" tabindex="-1" aria-label="Africa, 631 millions. Year 1990." style="outline:0" d="M265.5 458.5h7v66h-7z"/><path class="highcharts-point highcharts-color-0" tabindex="-1" aria-label="America, 727 millions. Year 1990." style="outline:0" d="M208.5 448.5h7v76h-7z"/><path class="highcharts-point highcharts-color-0" tabindex="-1" aria-label="Asia, 3,202 millions. Year 1990." style="outline:0" d="M151.5 188.5h7v336h-7z"/><path class="highcharts-point highcharts-color-0" tabindex="-1" aria-label="Europe, 721 millions. Year 1990." style="outline:0" d="M94.5 448.5h7v76h-7z"/><path class="highcharts-point highcharts-color-0" tabindex="-1" aria-label="Oceania, 26 millions. Year 1990." style="outline:0" d="M37.5 521.5h7v3h-7z"/></g><g class="highcharts-series highcharts-series-1 highcharts-bar-series highcharts-color-1 highcharts-tracker" data-z-index=".1" clip-path="url(#b)" aria-hidden="false" tabindex="-1" aria-label="Year 2000, bar series 2 of 4 with 5 bars." style="outline:0" fill="#90ee7e" transform="matrix(0 -1 -1 0 590 346)"><path class="highcharts-point highcharts-color-1" tabindex="-1" aria-label="Africa, 814 millions. Year 2000." style="outline:0" d="M256.5 439.5h7v85h-7z"/><path class="highcharts-point highcharts-color-1" tabindex="-1" aria-label="America, 841 millions. Year 2000." style="outline:0" d="M199.5 436.5h7v88h-7z"/><path class="highcharts-point highcharts-color-1" tabindex="-1" aria-label="Asia, 3,714 millions. Year 2000." style="outline:0" d="M142.5 135.5h7v389h-7z"/><path class="highcharts-point highcharts-color-1" tabindex="-1" aria-label="Europe, 726 millions. Year 2000." style="outline:0" d="M85.5 448.5h7v76h-7z"/><path class="highcharts-point highcharts-color-1" tabindex="-1" aria-label="Oceania, 31 millions. Year 2000." style="outline:0" d="M28.5 521.5h7v3h-7z"/></g><g class="highcharts-series highcharts-series-2 highcharts-bar-series highcharts-color-2 highcharts-tracker" data-z-index=".1" clip-path="url(#b)" aria-hidden="false" tabindex="-1" aria-label="Year 2010, bar series 3 of 4 with 5 bars." style="outline:0" fill="#f45b5b" transform="matrix(0 -1 -1 0 590 346)"><path class="highcharts-point highcharts-color-2" tabindex="-1" aria-label="Africa, 1,044 millions. Year 2010." style="outline:0" d="M248.5 415.5h7v109h-7z"/><path class="highcharts-point highcharts-color-2" tabindex="-1" aria-label="America, 944 millions. Year 2010." style="outline:0" d="M191.5 425.5h7v99h-7z"/><path class="highcharts-point highcharts-color-2" tabindex="-1" aria-label="Asia, 4,170 millions. Year 2010." style="outline:0" d="M134.5 87.5h7v437h-7z"/><path class="highcharts-point highcharts-color-2" tabindex="-1" aria-label="Europe, 735 millions. Year 2010." style="outline:0" d="M77.5 447.5h7v77h-7z"/><path class="highcharts-point highcharts-color-2" tabindex="-1" aria-label="Oceania, 40 millions. Year 2010." style="outline:0" d="M20.5 520.5h7v4h-7z"/></g><g class="highcharts-series highcharts-series-3 highcharts-bar-series highcharts-color-3 highcharts-tracker" data-z-index=".1" clip-path="url(#b)" aria-hidden="false" tabindex="-1" aria-label="Year 2018, bar series 4 of 4 with 5 bars." style="outline:0" fill="#7798BF" transform="matrix(0 -1 -1 0 590 346)"><path class="highcharts-point highcharts-color-3" tabindex="-1" aria-label="Africa, 1,276 millions. Year 2018." style="outline:0" d="M239.5 390.5h7v134h-7z"/><path class="highcharts-point highcharts-color-3" tabindex="-1" aria-label="America, 1,007 millions. Year 2018." style="outline:0" d="M182.5 418.5h7v106h-7z"/><path class="highcharts-point highcharts-color-3" tabindex="-1" aria-label="Asia, 4,561 millions. Year 2018." style="outline:0" d="M125.5 46.5h7v478h-7z"/><path class="highcharts-point highcharts-color-3" tabindex="-1" aria-label="Europe, 746 millions. Year 2018." style="outline:0" d="M68.5 446.5h7v78h-7z"/><path class="highcharts-point highcharts-color-3" tabindex="-1" aria-label="Oceania, 42 millions. Year 2018." style="outline:0" d="M11.5 520.5h7v4h-7z"/></g></g><text x="300" text-anchor="middle" class="highcharts-title" data-z-index="4" style="color:#e0e0e3;font-size:20px;text-transform:uppercase;fill:#e0e0e3" y="25" aria-hidden="true">Historic World Population by Region</text><text x="300" text-anchor="middle" class="highcharts-subtitle" data-z-index="4" style="color:#e0e0e3;text-transform:uppercase;fill:#e0e0e3" y="46" aria-hidden="true">Source: <a target="_blank"><tspan>Wikipedia.org</tspan></a></text><g class="highcharts-data-labels highcharts-series-0 highcharts-bar-series highcharts-color-0 highcharts-tracker" data-z-index="6" aria-hidden="true"><text x="5" data-z-index="1" y="18" style="color:#f0f0f3;font-size:13px;font-weight:700;fill:#f0f0f3" transform="translate(402 179)" class="highcharts-label highcharts-data-label highcharts-data-label-color-0"><tspan class="highcharts-text-outline" fill="#000" stroke="#000" stroke-width="2" stroke-linejoin="round">3 202<tspan x="5" dy="0">​</tspan></tspan>3 202</text><text x="5" data-z-index="1" y="18" style="color:#f0f0f3;font-size:13px;font-weight:700;fill:#f0f0f3" transform="translate(142 236)" class="highcharts-label highcharts-data-label highcharts-data-label-color-0"><tspan class="highcharts-text-outline" fill="#000" stroke="#000" stroke-width="2" stroke-linejoin="round">721<tspan x="5" dy="0">​</tspan></tspan>721</text><text x="5" data-z-index="1" y="18" style="color:#f0f0f3;font-size:13px;font-weight:700;fill:#f0f0f3" transform="translate(69 293)" class="highcharts-label highcharts-data-label highcharts-data-label-color-0"><tspan class="highcharts-text-outline" fill="#000" stroke="#000" stroke-width="2" stroke-linejoin="round">26<tspan x="5" dy="0">​</tspan></tspan>26</text></g><g class="highcharts-data-labels highcharts-series-1 highcharts-bar-series highcharts-color-1 highcharts-tracker" data-z-index="6" aria-hidden="true"><text x="5" data-z-index="1" y="18" style="color:#f0f0f3;font-size:13px;font-weight:700;fill:#f0f0f3" transform="translate(151 74)" class="highcharts-label highcharts-data-label highcharts-data-label-color-1"><tspan class="highcharts-text-outline" fill="#000" stroke="#000" stroke-width="2" stroke-linejoin="round">814<tspan x="5" dy="0">​</tspan></tspan>814</text><text x="5" data-z-index="1" y="18" style="color:#f0f0f3;font-size:13px;font-weight:700;fill:#f0f0f3" transform="translate(154 131)" class="highcharts-label highcharts-data-label highcharts-data-label-color-1"><tspan class="highcharts-text-outline" fill="#000" stroke="#000" stroke-width="2" stroke-linejoin="round">841<tspan x="5" dy="0">​</tspan></tspan>841</text><text x="5" data-z-index="1" y="18" style="color:#f0f0f3;font-size:13px;font-weight:700;fill:#f0f0f3" transform="translate(455 188)" class="highcharts-label highcharts-data-label highcharts-data-label-color-1"><tspan class="highcharts-text-outline" fill="#000" stroke="#000" stroke-width="2" stroke-linejoin="round">3 714<tspan x="5" dy="0">​</tspan></tspan>3 714</text></g><g class="highcharts-data-labels highcharts-series-2 highcharts-bar-series highcharts-color-2 highcharts-tracker" data-z-index="6" aria-hidden="true"><text x="5" data-z-index="1" y="18" style="color:#f0f0f3;font-size:13px;font-weight:700;fill:#f0f0f3" transform="translate(503 196)" class="highcharts-label highcharts-data-label highcharts-data-label-color-2"><tspan class="highcharts-text-outline" fill="#000" stroke="#000" stroke-width="2" stroke-linejoin="round">4 170<tspan x="5" dy="0">​</tspan></tspan>4 170</text><text x="5" data-z-index="1" y="18" style="color:#f0f0f3;font-size:13px;font-weight:700;fill:#f0f0f3" transform="translate(70 310)" class="highcharts-label highcharts-data-label highcharts-data-label-color-2"><tspan class="highcharts-text-outline" fill="#000" stroke="#000" stroke-width="2" stroke-linejoin="round">40<tspan x="5" dy="0">​</tspan></tspan>40</text></g><g class="highcharts-data-labels highcharts-series-3 highcharts-bar-series highcharts-color-3 highcharts-tracker" data-z-index="6" aria-hidden="true"><text x="5" data-z-index="1" y="18" style="color:#f0f0f3;font-size:13px;font-weight:700;fill:#f0f0f3" transform="translate(200 91)" class="highcharts-label highcharts-data-label highcharts-data-label-color-3"><tspan class="highcharts-text-outline" fill="#000" stroke="#000" stroke-width="2" stroke-linejoin="round">1 276<tspan x="5" dy="0">​</tspan></tspan>1 276</text><text x="5" data-z-index="1" y="18" style="color:#f0f0f3;font-size:13px;font-weight:700;fill:#f0f0f3" transform="translate(172 148)" class="highcharts-label highcharts-data-label highcharts-data-label-color-3"><tspan class="highcharts-text-outline" fill="#000" stroke="#000" stroke-width="2" stroke-linejoin="round">1 007<tspan x="5" dy="0">​</tspan></tspan>1 007</text><text x="5" data-z-index="1" y="18" style="color:#f0f0f3;font-size:13px;font-weight:700;fill:#f0f0f3" transform="translate(544 205)" class="highcharts-label highcharts-data-label highcharts-data-label-color-3"><tspan class="highcharts-text-outline" fill="#000" stroke="#000" stroke-width="2" stroke-linejoin="round">4 561<tspan x="5" dy="0">​</tspan></tspan>4 561</text><text x="5" data-z-index="1" y="18" style="color:#f0f0f3;font-size:13px;font-weight:700;fill:#f0f0f3" transform="translate(144 262)" class="highcharts-label highcharts-data-label highcharts-data-label-color-3"><tspan class="highcharts-text-outline" fill="#000" stroke="#000" stroke-width="2" stroke-linejoin="round">746<tspan x="5" dy="0">​</tspan></tspan>746</text></g><g class="highcharts-legend highcharts-no-tooltip" data-z-index="7" transform="translate(458 90)" aria-hidden="true"><rect fill="none" class="highcharts-legend-box highcharts-shadow" rx="0" ry="0" stroke="#000" stroke-width="5" stroke-opacity=".05" transform="translate(1 1)" x=".5" y=".5" width="91" height="70"/><rect fill="none" class="highcharts-legend-box highcharts-shadow" rx="0" ry="0" stroke="#000" stroke-width="3" stroke-opacity=".1" transform="translate(1 1)" x=".5" y=".5" width="91" height="70"/><rect fill="none" class="highcharts-legend-box highcharts-shadow" rx="0" ry="0" stroke="#000" stroke-opacity=".15" transform="translate(1 1)" x=".5" y=".5" width="91" height="70"/><rect fill="rgba(0, 0, 0, 0.5)" class="highcharts-legend-box" rx="0" ry="0" stroke="#999" x=".5" y=".5" width="91" height="70"/><g data-z-index="1"><g class="highcharts-legend-item highcharts-bar-series highcharts-color-0 highcharts-series-0" data-z-index="1" transform="translate(8 3)"><text x="21" data-z-index="2" y="15" style="color:#e0e0e3;cursor:pointer;font-size:12px;font-weight:700;fill:#e0e0e3">Year 1990</text><rect x="2" y="4" width="12" height="12" fill="#2b908f" rx="6" ry="6" class="highcharts-point" data-z-index="3"/></g><g class="highcharts-legend-item highcharts-bar-series highcharts-color-1 highcharts-series-1" data-z-index="1" transform="translate(8 18)"><text x="21" y="15" data-z-index="2" style="color:#e0e0e3;cursor:pointer;font-size:12px;font-weight:700;fill:#e0e0e3">Year 2000</text><rect x="2" y="4" width="12" height="12" fill="#90ee7e" rx="6" ry="6" class="highcharts-point" data-z-index="3"/></g><g class="highcharts-legend-item highcharts-bar-series highcharts-color-2 highcharts-series-2" data-z-index="1" transform="translate(8 33)"><text x="21" y="15" data-z-index="2" style="color:#e0e0e3;cursor:pointer;font-size:12px;font-weight:700;fill:#e0e0e3">Year 2010</text><rect x="2" y="4" width="12" height="12" fill="#f45b5b" rx="6" ry="6" class="highcharts-point" data-z-index="3"/></g><g class="highcharts-legend-item highcharts-bar-series highcharts-color-3 highcharts-series-3" data-z-index="1" transform="translate(8 48)"><text x="21" y="15" data-z-index="2" style="color:#e0e0e3;cursor:pointer;font-size:12px;font-weight:700;fill:#e0e0e3">Year 2018</text><rect x="2" y="4" width="12" height="12" fill="#7798BF" rx="6" ry="6" class="highcharts-point" data-z-index="3"/></g></g></g><g class="highcharts-axis-labels highcharts-xaxis-labels" data-z-index="7" aria-hidden="true" text-anchor="end"><text x="51" style="color:#e0e0e3;cursor:default;font-size:11px;fill:#e0e0e3" y="94">Africa</text><text x="51" style="color:#e0e0e3;cursor:default;font-size:11px;fill:#e0e0e3" y="151">America</text><text x="51" style="color:#e0e0e3;cursor:default;font-size:11px;fill:#e0e0e3" y="208">Asia</text><text x="51" style="color:#e0e0e3;cursor:default;font-size:11px;fill:#e0e0e3" y="265">Europe</text><text x="51" style="color:#e0e0e3;cursor:default;font-size:11px;fill:#e0e0e3" y="322">Oceania</text></g><g class="highcharts-axis-labels highcharts-yaxis-labels" data-z-index="7" aria-hidden="true" text-anchor="middle"><text x="66" style="color:#e0e0e3;cursor:default;font-size:11px;fill:#e0e0e3" y="365">0</text><text x="118.4" style="color:#e0e0e3;cursor:default;font-size:11px;fill:#e0e0e3" y="365">500</text><text x="170.8" style="color:#e0e0e3;cursor:default;font-size:11px;fill:#e0e0e3" y="365">1000</text><text x="223.2" style="color:#e0e0e3;cursor:default;font-size:11px;fill:#e0e0e3" y="365">1500</text><text x="275.6" style="color:#e0e0e3;cursor:default;font-size:11px;fill:#e0e0e3" y="365">2000</text><text x="328" style="color:#e0e0e3;cursor:default;font-size:11px;fill:#e0e0e3" y="365">2500</text><text x="380.4" style="color:#e0e0e3;cursor:default;font-size:11px;fill:#e0e0e3" y="365">3000</text><text x="432.8" style="color:#e0e0e3;cursor:default;font-size:11px;fill:#e0e0e3" y="365">3500</text><text x="485.2" style="color:#e0e0e3;cursor:default;font-size:11px;fill:#e0e0e3" y="365">4000</text><text x="537.6" style="color:#e0e0e3;cursor:default;font-size:11px;fill:#e0e0e3" y="365">4500</text><text x="577.762" style="color:#e0e0e3;cursor:default;font-size:11px;fill:#e0e0e3" y="365">5000</text></g></svg>