<svg class="highcharts-root" style="font-family:&quot;Unica One&quot;,sans-serif;font-size:12px" xmlns="http://www.w3.org/2000/svg" width="600" height="400" aria-label="Interactive chart" aria-hidden="false"><defs aria-hidden="true"><linearGradient x1="0" y1="0" x2="1" y2="1" id="a"><stop offset="0" stop-color="#2a2a2b"/><stop offset="1" stop-color="#3e3e40"/></linearGradient><clipPath id="b"><path fill="none" d="M0 0h510v285H0z"/></clipPath></defs><rect fill="url(#a)" class="highcharts-background" width="600" height="400" rx="0" ry="0" aria-hidden="true"/><path fill="none" class="highcharts-plot-background" aria-hidden="true" d="M80 61h510v285H80z"/><g class="highcharts-grid highcharts-xaxis-grid" data-z-index="1" aria-hidden="true" fill="none" stroke="#707073"><path data-z-index="1" class="highcharts-grid-line" d="M124.5 61v285m74-285v285m75-285v285m75-285v285m74-285v285m75-285v285m74-285v285"/></g><g class="highcharts-grid highcharts-yaxis-grid" data-z-index="1" aria-hidden="true" fill="none" stroke="#707073"><path data-z-index="1" class="highcharts-grid-line" d="M80 268.5h510m-510-92h510m-510-91h510"/></g><path fill="none" class="highcharts-plot-border" data-z-index="1" stroke="#606063" aria-hidden="true" d="M79.5 60.5h511v286h-511z"/><g class="highcharts-axis highcharts-xaxis" data-z-index="2" aria-hidden="true"><path fill="none" class="highcharts-tick" stroke="#707073" d="M124.5 346v10m74-10v10m75-10v10m75-10v10m74-10v10m75-10v10m74-10v10"/><text x="335" data-z-index="7" text-anchor="middle" class="highcharts-axis-title" style="color:#a0a0a3;fill:#a0a0a3" y="383.5">Daily fat intake</text><path fill="none" class="highcharts-axis-line" stroke="#707073" data-z-index="7" d="M80 346.5h510"/></g><g class="highcharts-axis highcharts-yaxis" data-z-index="2" aria-hidden="true"><path fill="none" class="highcharts-tick" stroke="#707073" d="M80 268.5H70m10-92H70m10-91H70"/><text x="23.66" data-z-index="7" text-anchor="middle" transform="rotate(-90 23.66 203.5)" class="highcharts-axis-title" style="color:#a0a0a3;fill:#a0a0a3" y="203.5">Daily sugar intake</text><path fill="none" class="highcharts-axis-line" data-z-index="7" d="M80 61v285"/></g><g class="highcharts-plot-lines-3" data-z-index="3" aria-hidden="true"><path fill="none" class="highcharts-plot-line" stroke="#000" stroke-width="2" stroke-dasharray="2,6" d="M125 61v285"/></g><text x="129" class="highcharts-plot-line-label" data-z-index="3" y="76" style="font-style:italic" aria-hidden="true">Safe fat intake 65g/day</text><g class="highcharts-plot-lines-3" data-z-index="3" aria-hidden="true"><path fill="none" class="highcharts-plot-line" stroke="#000" stroke-width="2" stroke-dasharray="2,6" d="M80 268h510"/></g><text x="580" text-anchor="end" class="highcharts-plot-line-label" data-z-index="3" y="264" style="font-style:italic" aria-hidden="true">Safe sugar intake 50g/day</text><g class="highcharts-series-group" data-z-index="3" aria-hidden="false"><g class="highcharts-series highcharts-series-0 highcharts-bubble-series highcharts-tracker" data-z-index=".1" clip-path="url(#b)" aria-hidden="false" stroke="#333" transform="translate(80 61)"><path fill="rgba(43,144,143,0.5)" d="M491.5 138a13.5 13.5 0 1 1 .013 0Z" class="highcharts-point highcharts-color-0" tabindex="-1" aria-label="1. BE, fat: 95g, sugar: 95g, obesity: 13.8%." style="outline:0"/><path fill="rgba(144,238,126,0.5)" d="M365 125a15 15 0 1 1 .015 0Z" class="highcharts-point highcharts-color-1" tabindex="-1" aria-label="2. DE, fat: 86.5g, sugar: 102.9g, obesity: 14.7%." style="outline:0"/><path fill="rgba(244,91,91,0.5)" d="M280 147a16 16 0 1 1 .016 0Z" class="highcharts-point highcharts-color-2" tabindex="-1" aria-label="3. FI, fat: 80.8g, sugar: 91.5g, obesity: 15.8%." style="outline:0"/><path fill="rgba(119,152,191,0.5)" d="M274 122a11 11 0 1 1 .011 0Z" class="highcharts-point highcharts-color-3" tabindex="-1" aria-label="4. NL, fat: 80.4g, sugar: 102.5g, obesity: 12%." style="outline:0"/><path fill="rgba(170,238,238,0.5)" d="M272 152a11 11 0 1 1 .011 0Z" class="highcharts-point highcharts-color-4" tabindex="-1" aria-label="5. SE, fat: 80.3g, sugar: 86.1g, obesity: 11.8%." style="outline:0"/><path fill="rgba(255,0,102,0.5)" d="M244 187a17 17 0 1 1 .017 0Z" class="highcharts-point highcharts-color-5" tabindex="-1" aria-label="6. ES, fat: 78.4g, sugar: 70.1g, obesity: 16.6%." style="outline:0"/><path fill="rgba(238,170,238,0.5)" d="M181.5 187a14.5 14.5 0 1 1 .014 0Z" class="highcharts-point highcharts-color-6" tabindex="-1" aria-label="7. FR, fat: 74.2g, sugar: 68.5g, obesity: 14.5%." style="outline:0"/><path fill="rgba(85,191,59,0.5)" d="M171 150a4 4 0 1 1 .004 0Z" class="highcharts-point highcharts-color-7" tabindex="-1" aria-label="8. NO, fat: 73.5g, sugar: 83.1g, obesity: 10%." style="outline:0"/><path fill="rgba(223,83,83,0.5)" d="M134 151a23 23 0 1 1 .023 0Z" class="highcharts-point highcharts-color-8" tabindex="-1" aria-label="9. UK, fat: 71g, sugar: 93.2g, obesity: 24.7%." style="outline:0"/><path fill="rgba(119,152,191,0.5)" d="M106.5 200a7.5 7.5 0 1 1 .007 0Z" class="highcharts-point highcharts-color-9" tabindex="-1" aria-label="10. IT, fat: 69.2g, sugar: 57.6g, obesity: 10.4%." style="outline:0"/><path fill="rgba(170,238,238,0.5)" d="M98 277a16 16 0 1 1 .016 0Z" class="highcharts-point highcharts-color-10" tabindex="-1" aria-label="11. RU, fat: 68.6g, sugar: 20g, obesity: 16%." style="outline:0"/><path fill="rgba(43,144,143,0.5)" d="M51.5 96a28.5 28.5 0 1 1 .028 0Z" class="highcharts-point highcharts-color-0" tabindex="-1" aria-label="12. US, fat: 65.5g, sugar: 126.4g, obesity: 35.3%." style="outline:0"/><path fill="rgba(144,238,126,0.5)" d="M50 230a25 25 0 1 1 .025 0Z" class="highcharts-point highcharts-color-1" tabindex="-1" aria-label="13. HU, fat: 65.4g, sugar: 50.8g, obesity: 28.5%." style="outline:0"/><path fill="rgba(244,91,91,0.5)" d="M20.5 219a15.5 15.5 0 1 1 .015 0Z" class="highcharts-point highcharts-color-2" tabindex="-1" aria-label="14. PT, fat: 63.4g, sugar: 51.8g, obesity: 15.4%." style="outline:0"/><path fill="rgba(119,152,191,0.5)" d="M29.5 173a26.5 26.5 0 1 1 .026 0Z" class="highcharts-point highcharts-color-3" tabindex="-1" aria-label="15. NZ, fat: 64g, sugar: 82.9g, obesity: 31.3%." style="outline:0"/></g></g><text x="300" text-anchor="middle" class="highcharts-title" data-z-index="4" style="color:#e0e0e3;font-size:20px;text-transform:uppercase;fill:#e0e0e3" y="25" aria-hidden="true">Sugar and fat intake per country</text><text x="300" text-anchor="middle" class="highcharts-subtitle" data-z-index="4" style="color:#e0e0e3;text-transform:uppercase;fill:#e0e0e3" y="46" aria-hidden="true">Source: <a><tspan>Euromonitor</tspan></a> and <a><tspan>OECD</tspan></a></text><g class="highcharts-data-labels highcharts-series-0 highcharts-bubble-series highcharts-tracker" data-z-index="6" aria-hidden="true"><text x="5" data-z-index="1" y="18" style="color:#f0f0f3;font-size:13px;font-weight:700;fill:#f0f0f3" transform="translate(558 173)" class="highcharts-label highcharts-data-label highcharts-data-label-color-0"><tspan class="highcharts-text-outline" fill="#000" stroke="#000" stroke-width="2" stroke-linejoin="round">BE<tspan x="5" dy="0">​</tspan></tspan>BE</text><text x="5" data-z-index="1" y="18" style="color:#f0f0f3;font-size:13px;font-weight:700;fill:#f0f0f3" transform="translate(431 159)" class="highcharts-label highcharts-data-label highcharts-data-label-color-1"><tspan class="highcharts-text-outline" fill="#000" stroke="#000" stroke-width="2" stroke-linejoin="round">DE<tspan x="5" dy="0">​</tspan></tspan>DE</text><text x="5" data-z-index="1" y="18" style="color:#f0f0f3;font-size:13px;font-weight:700;fill:#f0f0f3" transform="translate(350 179)" class="highcharts-label highcharts-data-label highcharts-data-label-color-2"><tspan class="highcharts-text-outline" fill="#000" stroke="#000" stroke-width="2" stroke-linejoin="round">FI<tspan x="5" dy="0">​</tspan></tspan>FI</text><text x="5" data-z-index="1" y="18" style="color:#f0f0f3;font-size:13px;font-weight:700;fill:#f0f0f3" transform="translate(341 159)" class="highcharts-label highcharts-data-label highcharts-data-label-color-3"><tspan class="highcharts-text-outline" fill="#000" stroke="#000" stroke-width="2" stroke-linejoin="round">NL<tspan x="5" dy="0">​</tspan></tspan>NL</text><text x="5" data-z-index="1" y="18" style="color:#f0f0f3;font-size:13px;font-weight:700;fill:#f0f0f3" transform="translate(311 218)" class="highcharts-label highcharts-data-label highcharts-data-label-color-5"><tspan class="highcharts-text-outline" fill="#000" stroke="#000" stroke-width="2" stroke-linejoin="round">ES<tspan x="5" dy="0">​</tspan></tspan>ES</text><text x="5" data-z-index="1" y="18" style="color:#f0f0f3;font-size:13px;font-weight:700;fill:#f0f0f3" transform="translate(248 221)" class="highcharts-label highcharts-data-label highcharts-data-label-color-6"><tspan class="highcharts-text-outline" fill="#000" stroke="#000" stroke-width="2" stroke-linejoin="round">FR<tspan x="5" dy="0">​</tspan></tspan>FR</text><text x="5" data-z-index="1" y="18" style="color:#f0f0f3;font-size:13px;font-weight:700;fill:#f0f0f3" transform="translate(237 195)" class="highcharts-label highcharts-data-label highcharts-data-label-color-7"><tspan class="highcharts-text-outline" fill="#000" stroke="#000" stroke-width="2" stroke-linejoin="round">NO<tspan x="5" dy="0">​</tspan></tspan>NO</text><text x="5" data-z-index="1" y="18" style="color:#f0f0f3;font-size:13px;font-weight:700;fill:#f0f0f3" transform="translate(200 176)" class="highcharts-label highcharts-data-label highcharts-data-label-color-8"><tspan class="highcharts-text-outline" fill="#000" stroke="#000" stroke-width="2" stroke-linejoin="round">UK<tspan x="5" dy="0">​</tspan></tspan>UK</text><text x="5" data-z-index="1" y="18" style="color:#f0f0f3;font-size:13px;font-weight:700;fill:#f0f0f3" transform="translate(177 241)" class="highcharts-label highcharts-data-label highcharts-data-label-color-9"><tspan class="highcharts-text-outline" fill="#000" stroke="#000" stroke-width="2" stroke-linejoin="round">IT<tspan x="5" dy="0">​</tspan></tspan>IT</text><text x="5" data-z-index="1" y="18" style="color:#f0f0f3;font-size:13px;font-weight:700;fill:#f0f0f3" transform="translate(164 310)" class="highcharts-label highcharts-data-label highcharts-data-label-color-10"><tspan class="highcharts-text-outline" fill="#000" stroke="#000" stroke-width="2" stroke-linejoin="round">RU<tspan x="5" dy="0">​</tspan></tspan>RU</text><text x="5" data-z-index="1" y="18" style="color:#f0f0f3;font-size:13px;font-weight:700;fill:#f0f0f3" transform="translate(118 116)" class="highcharts-label highcharts-data-label highcharts-data-label-color-0"><tspan class="highcharts-text-outline" fill="#000" stroke="#000" stroke-width="2" stroke-linejoin="round">US<tspan x="5" dy="0">​</tspan></tspan>US</text><text x="5" data-z-index="1" y="18" style="color:#f0f0f3;font-size:13px;font-weight:700;fill:#f0f0f3" transform="translate(116 254)" class="highcharts-label highcharts-data-label highcharts-data-label-color-1"><tspan class="highcharts-text-outline" fill="#000" stroke="#000" stroke-width="2" stroke-linejoin="round">HU<tspan x="5" dy="0">​</tspan></tspan>HU</text><text x="5" data-z-index="1" y="18" style="color:#f0f0f3;font-size:13px;font-weight:700;fill:#f0f0f3" transform="translate(88 252)" class="highcharts-label highcharts-data-label highcharts-data-label-color-2"><tspan class="highcharts-text-outline" fill="#000" stroke="#000" stroke-width="2" stroke-linejoin="round">PT<tspan x="5" dy="0">​</tspan></tspan>PT</text><text x="5" data-z-index="1" y="18" style="color:#f0f0f3;font-size:13px;font-weight:700;fill:#f0f0f3" transform="translate(96 195)" class="highcharts-label highcharts-data-label highcharts-data-label-color-3"><tspan class="highcharts-text-outline" fill="#000" stroke="#000" stroke-width="2" stroke-linejoin="round">NZ<tspan x="5" dy="0">​</tspan></tspan>NZ</text></g><g class="highcharts-axis-labels highcharts-xaxis-labels" data-z-index="7" aria-hidden="true" text-anchor="middle"><text x="124.82" style="color:#e0e0e3;cursor:default;font-size:11px;fill:#e0e0e3" y="365">65 gr</text><text x="199.381" style="color:#e0e0e3;cursor:default;font-size:11px;fill:#e0e0e3" y="365">70 gr</text><text x="273.942" style="color:#e0e0e3;cursor:default;font-size:11px;fill:#e0e0e3" y="365">75 gr</text><text x="348.504" style="color:#e0e0e3;cursor:default;font-size:11px;fill:#e0e0e3" y="365">80 gr</text><text x="423.065" style="color:#e0e0e3;cursor:default;font-size:11px;fill:#e0e0e3" y="365">85 gr</text><text x="497.626" style="color:#e0e0e3;cursor:default;font-size:11px;fill:#e0e0e3" y="365">90 gr</text><text x="572.187" style="color:#e0e0e3;cursor:default;font-size:11px;fill:#e0e0e3" y="365">95 gr</text></g><g class="highcharts-axis-labels highcharts-yaxis-labels" data-z-index="7" aria-hidden="true" text-anchor="end"><text x="65" style="color:#e0e0e3;cursor:default;font-size:11px;fill:#e0e0e3" y="272">50 gr</text><text x="65" style="color:#e0e0e3;cursor:default;font-size:11px;fill:#e0e0e3" y="181">100 gr</text><text x="65" style="color:#e0e0e3;cursor:default;font-size:11px;fill:#e0e0e3" y="90">150 gr</text></g></svg>