<svg class="highcharts-root" style="font-family:&quot;Unica One&quot;,sans-serif;font-size:12px" xmlns="http://www.w3.org/2000/svg" width="600" height="400" aria-label="Interactive chart" aria-hidden="false"><defs aria-hidden="true"><linearGradient x1="0" y1="0" x2="1" y2="1" id="a"><stop offset="0" stop-color="#2a2a2b"/><stop offset="1" stop-color="#3e3e40"/></linearGradient><clipPath id="b"><path fill="none" d="M0 0h529v248H0z"/></clipPath></defs><rect fill="url(#a)" class="highcharts-background" width="600" height="400" rx="0" ry="0" aria-hidden="true"/><path fill="none" class="highcharts-plot-background" aria-hidden="true" d="M61 84h529v248H61z"/><g class="highcharts-grid highcharts-xaxis-grid" data-z-index="1" aria-hidden="true" fill="none"><path data-z-index="1" class="highcharts-grid-line" d="M166.5 84v248m106-248v248m105-248v248m106-248v248m106-248v248M60.5 84v248"/></g><g class="highcharts-grid highcharts-yaxis-grid" data-z-index="1" aria-hidden="true" fill="none" stroke="#707073"><path data-z-index="1" class="highcharts-grid-line" d="M61 332.5h529m-529-50h529m-529-49h529m-529-50h529m-529-49h529m-529-51h529"/></g><path fill="none" class="highcharts-plot-border" data-z-index="1" aria-hidden="true" d="M61 84h529v248H61z"/><g class="highcharts-axis highcharts-xaxis" data-z-index="2" aria-hidden="true"><path fill="none" class="highcharts-axis-line" stroke="#707073" data-z-index="7" d="M61 332.5h529"/></g><g class="highcharts-axis highcharts-yaxis" data-z-index="2" aria-hidden="true"><path fill="none" class="highcharts-tick" stroke="#707073" d="M61 332.5H51m10-50H51m10-49H51m10-50H51m10-49H51m10-51H51"/><text x="23.758" data-z-index="7" text-anchor="middle" transform="rotate(-90 23.758 208)" class="highcharts-axis-title" style="color:#a0a0a3;fill:#a0a0a3" y="208">Gold medals</text><path fill="none" class="highcharts-axis-line" data-z-index="7" d="M61 84v248"/></g><g class="highcharts-series-group" data-z-index="3" aria-hidden="false"><g class="highcharts-series highcharts-series-0 highcharts-column-series highcharts-tracker" data-z-index=".1" clip-path="url(#b)" aria-hidden="false" tabindex="-1" aria-label="2016, bar series 1 of 2 with 8 bars." style="outline:0" fill="#9E9FA3" transform="translate(61 84)"><path class="highcharts-point" tabindex="-1" aria-label="South Korea, 9. 2016." style="outline:0" d="M747 204h51v45h-51z"/><path class="highcharts-point" tabindex="-1" aria-label="Japan, 12. 2016." style="outline:0" d="M218 189h51v60h-51z"/><path class="highcharts-point" tabindex="-1" aria-label="Australia, 8. 2016." style="outline:0" d="M535 209h51v40h-51z"/><path class="highcharts-point" tabindex="-1" aria-label="Germany, 17. 2016." style="outline:0" d="M641 165h51v84h-51z"/><path class="highcharts-point" tabindex="-1" aria-label="Russia, 19. 2016." style="outline:0" d="M430 155h51v94h-51z"/><path class="highcharts-point" tabindex="-1" aria-label="China, 26. 2016." style="outline:0" d="M112 120h51v129h-51z"/><path class="highcharts-point" tabindex="-1" aria-label="Great Britain, 27. 2016." style="outline:0" d="M324 115h51v134h-51z"/><path class="highcharts-point" tabindex="-1" aria-label="United States, 46. 2016." style="outline:0" d="M6 21h51v228H6z"/></g><g class="highcharts-series highcharts-series-1 highcharts-column-series highcharts-color-0 highcharts-tracker" data-z-index=".1" clip-path="url(#b)" aria-hidden="false" tabindex="-1" aria-label="2020, bar series 2 of 2 with 8 bars." style="outline:0" transform="translate(61 84)"><path fill="#C92427" class="highcharts-point highcharts-color-0" tabindex="-1" aria-label="South Korea, 6. 2020." style="outline:0" d="M768 219h51v30h-51z"/><path fill="#C92427" class="highcharts-point highcharts-color-0" tabindex="-1" aria-label="Japan, 27. 2020." style="outline:0" d="M239 115h51v134h-51z"/><path fill="#0052B4" class="highcharts-point highcharts-color-0" tabindex="-1" aria-label="Australia, 17. 2020." style="outline:0" d="M557 165h51v84h-51z"/><path class="highcharts-point highcharts-color-0" tabindex="-1" aria-label="Germany, 10. 2020." style="outline:0" d="M662 199h51v50h-51z"/><path fill="#F0F0F0" class="highcharts-point highcharts-color-0" tabindex="-1" aria-label="Russia, 20. 2020." style="outline:0" d="M451 150h51v99h-51z"/><path fill="#FFD944" class="highcharts-point highcharts-color-0" tabindex="-1" aria-label="China, 38. 2020." style="outline:0" d="M133 61h51v188h-51z"/><path fill="#0052B4" class="highcharts-point highcharts-color-0" tabindex="-1" aria-label="Great Britain, 22. 2020." style="outline:0" d="M345 140h51v109h-51z"/><path fill="#D70026" class="highcharts-point highcharts-color-0" tabindex="-1" aria-label="United States, 39. 2020." style="outline:0" d="M28 56h51v193H28z"/></g></g><text x="10" class="highcharts-title" data-z-index="4" style="color:#e0e0e3;font-size:20px;text-transform:uppercase;fill:#e0e0e3" y="25" aria-hidden="true">Summer Olympics 2020 - Top 5 countries by<tspan dy="23" x="10">​</tspan>Gold medals</text><text x="10" class="highcharts-subtitle" data-z-index="4" style="color:#e0e0e3;text-transform:uppercase;fill:#e0e0e3" y="69" aria-hidden="true">Comparing to results from Summer Olympics 2016 - Source: <a target="_blank"><tspan>Olympics</tspan></a></text><g class="highcharts-data-labels highcharts-series-1 highcharts-column-series highcharts-color-0 highcharts-tracker" data-z-index="6" aria-hidden="true"><text x="5" data-z-index="1" y="20" style="color:#f0f0f3;font-size:16px;font-weight:700;fill:#f0f0f3" transform="translate(845 304)" class="highcharts-label highcharts-data-label highcharts-data-label-color-0"><tspan class="highcharts-text-outline" fill="#000" stroke="#000" stroke-width="2" stroke-linejoin="round">6<tspan x="5" dy="0">​</tspan></tspan>6</text><text x="5" data-z-index="1" y="20" style="color:#f0f0f3;font-size:16px;font-weight:700;fill:#f0f0f3" transform="translate(312 252)" class="highcharts-label highcharts-data-label highcharts-data-label-color-0"><tspan class="highcharts-text-outline" fill="#000" stroke="#000" stroke-width="2" stroke-linejoin="round">27<tspan x="5" dy="0">​</tspan></tspan>27</text><text x="5" data-z-index="1" y="20" style="color:#f0f0f3;font-size:16px;font-weight:700;fill:#f0f0f3" transform="translate(630 277)" class="highcharts-label highcharts-data-label highcharts-data-label-color-0"><tspan class="highcharts-text-outline" fill="#000" stroke="#000" stroke-width="2" stroke-linejoin="round">17<tspan x="5" dy="0">​</tspan></tspan>17</text><text x="5" data-z-index="1" y="20" style="color:#f0f0f3;font-size:16px;font-weight:700;fill:#f0f0f3" transform="translate(735 294)" class="highcharts-label highcharts-data-label highcharts-data-label-color-0"><tspan class="highcharts-text-outline" fill="#000" stroke="#000" stroke-width="2" stroke-linejoin="round">10<tspan x="5" dy="0">​</tspan></tspan>10</text><text x="5" data-z-index="1" y="20" style="color:#f0f0f3;font-size:16px;font-weight:700;fill:#f0f0f3" transform="translate(524 269)" class="highcharts-label highcharts-data-label highcharts-data-label-color-0"><tspan class="highcharts-text-outline" fill="#000" stroke="#000" stroke-width="2" stroke-linejoin="round">20<tspan x="5" dy="0">​</tspan></tspan>20</text><text x="5" data-z-index="1" y="20" style="color:#f0f0f3;font-size:16px;font-weight:700;fill:#f0f0f3" transform="translate(206 225)" class="highcharts-label highcharts-data-label highcharts-data-label-color-0"><tspan class="highcharts-text-outline" fill="#000" stroke="#000" stroke-width="2" stroke-linejoin="round">38<tspan x="5" dy="0">​</tspan></tspan>38</text><text x="5" data-z-index="1" y="20" style="color:#f0f0f3;font-size:16px;font-weight:700;fill:#f0f0f3" transform="translate(418 264)" class="highcharts-label highcharts-data-label highcharts-data-label-color-0"><tspan class="highcharts-text-outline" fill="#000" stroke="#000" stroke-width="2" stroke-linejoin="round">22<tspan x="5" dy="0">​</tspan></tspan>22</text><text x="5" data-z-index="1" y="20" style="color:#f0f0f3;font-size:16px;font-weight:700;fill:#f0f0f3" transform="translate(101 222)" class="highcharts-label highcharts-data-label highcharts-data-label-color-0"><tspan class="highcharts-text-outline" fill="#000" stroke="#000" stroke-width="2" stroke-linejoin="round">39<tspan x="5" dy="0">​</tspan></tspan>39</text></g><g class="highcharts-axis-labels highcharts-yaxis-labels" data-z-index="7" aria-hidden="true" text-anchor="end"><text x="46" style="color:#e0e0e3;cursor:default;font-size:11px;fill:#e0e0e3" y="287">10</text><text x="46" style="color:#e0e0e3;cursor:default;font-size:11px;fill:#e0e0e3" y="238">20</text><text x="46" style="color:#e0e0e3;cursor:default;font-size:11px;fill:#e0e0e3" y="188">30</text><text x="46" style="color:#e0e0e3;cursor:default;font-size:11px;fill:#e0e0e3" y="138">40</text><text x="46" style="color:#e0e0e3;cursor:default;font-size:11px;fill:#e0e0e3" y="89">50</text></g></svg>