<svg class="highcharts-root" style="font-family:&quot;Unica One&quot;,sans-serif;font-size:12px" xmlns="http://www.w3.org/2000/svg" width="600" height="400" aria-label="Interactive chart" aria-hidden="false"><defs aria-hidden="true"><linearGradient x1="0" y1="0" x2="1" y2="1" id="a"><stop offset="0" stop-color="#2a2a2b"/><stop offset="1" stop-color="#3e3e40"/></linearGradient><clipPath id="b"><path fill="none" d="M0 0h524v266H0z"/></clipPath></defs><rect fill="url(#a)" class="highcharts-background" width="600" height="400" rx="0" ry="0" aria-hidden="true"/><path fill="none" class="highcharts-plot-background" aria-hidden="true" d="M66 61h524v266H66z"/><g class="highcharts-grid highcharts-xaxis-grid" data-z-index="1" aria-hidden="true" fill="none"><path data-z-index="1" class="highcharts-grid-line" d="M152.5 61v266m88-266v266m87-266v266m87-266v266m88-266v266m87-266v266M65.5 61v266"/></g><g class="highcharts-grid highcharts-yaxis-grid" data-z-index="1" aria-hidden="true" fill="none" stroke="#707073"><path data-z-index="1" class="highcharts-grid-line" d="M66 327.5h524m-524-66h524m-524-67h524m-524-66h524m-524-68h524"/></g><path fill="none" class="highcharts-plot-border" data-z-index="1" aria-hidden="true" d="M66 61h524v266H66z"/><g class="highcharts-axis highcharts-xaxis" data-z-index="2" aria-hidden="true"><path fill="none" class="highcharts-axis-line" stroke="#707073" data-z-index="7" d="M66 327.5h524"/></g><g class="highcharts-axis highcharts-yaxis" data-z-index="2" aria-hidden="true"><path fill="none" class="highcharts-tick" stroke="#707073" d="M66 327.5H56m10-66H56m10-67H56m10-66H56m10-68H56"/><text x="23.258" data-z-index="7" text-anchor="middle" transform="rotate(-90 23.258 194)" class="highcharts-axis-title" style="color:#a0a0a3;fill:#a0a0a3" y="194">Amount</text><path fill="none" class="highcharts-axis-line" data-z-index="7" d="M66 61v266"/></g><g class="highcharts-series-group" data-z-index="3" aria-hidden="false" stroke="#fff"><g class="highcharts-series highcharts-series-0 highcharts-column-series highcharts-color-0 highcharts-tracker" data-z-index=".1" clip-path="url(#b)" aria-hidden="false" tabindex="-1" aria-label="Boys, bar series 1 of 2 with 6 bars." style="outline:0" fill="#2b908f" transform="translate(66 61)"><path class="highcharts-point highcharts-color-0" tabindex="-1" aria-label="2016, 30,386. Boys." style="outline:0" d="M19.5 64.5h21v202h-21z"/><path class="highcharts-point highcharts-color-0" tabindex="-1" aria-label="2017, 29,173. Boys." style="outline:0" d="M106.5 72.5h21v194h-21z"/><path class="highcharts-point highcharts-color-0" tabindex="-1" aria-label="2018, 28,430. Boys." style="outline:0" d="M194.5 77.5h21v189h-21z"/><path class="highcharts-point highcharts-color-0" tabindex="-1" aria-label="2019, 28,042. Boys." style="outline:0" d="M281.5 80.5h21v186h-21z"/><path class="highcharts-point highcharts-color-0" tabindex="-1" aria-label="2020, 27,063. Boys." style="outline:0" d="M368.5 86.5h21v180h-21z"/><path class="highcharts-point highcharts-color-0" tabindex="-1" aria-label="2021, 28,684. Boys." style="outline:0" d="M456.5 75.5h21v191h-21z"/></g><g class="highcharts-series highcharts-series-1 highcharts-column-series highcharts-color-1 highcharts-tracker" data-z-index=".1" clip-path="url(#b)" aria-hidden="false" tabindex="-1" aria-label="Girls, bar series 2 of 2 with 6 bars." style="outline:0" fill="#90ee7e" transform="translate(66 61)"><path class="highcharts-point highcharts-color-1" tabindex="-1" aria-label="2016, 28,504. Girls." style="outline:0" d="M45.5 76.5h21v190h-21z"/><path class="highcharts-point highcharts-color-1" tabindex="-1" aria-label="2017, 27,460. Girls." style="outline:0" d="M133.5 83.5h21v183h-21z"/><path class="highcharts-point highcharts-color-1" tabindex="-1" aria-label="2018, 26,690. Girls." style="outline:0" d="M220.5 89.5h21v177h-21z"/><path class="highcharts-point highcharts-color-1" tabindex="-1" aria-label="2019, 26,453. Girls." style="outline:0" d="M307.5 90.5h21v176h-21z"/><path class="highcharts-point highcharts-color-1" tabindex="-1" aria-label="2020, 25,916. Girls." style="outline:0" d="M395.5 94.5h21v172h-21z"/><path class="highcharts-point highcharts-color-1" tabindex="-1" aria-label="2021, 27,376. Girls." style="outline:0" d="M482.5 84.5h21v182h-21z"/></g></g><text x="300" text-anchor="middle" class="highcharts-title" data-z-index="4" style="color:#e0e0e3;font-size:20px;text-transform:uppercase;fill:#e0e0e3" y="25" aria-hidden="true">Live births in Norway</text><text x="300" text-anchor="middle" class="highcharts-subtitle" data-z-index="4" style="color:#e0e0e3;text-transform:uppercase;fill:#e0e0e3" y="46" aria-hidden="true">Source: <a target="_blank"><tspan>SSB</tspan></a></text><g class="highcharts-legend highcharts-no-tooltip" data-z-index="7" transform="translate(233 359)" aria-hidden="true"><rect fill="rgba(0, 0, 0, 0.5)" class="highcharts-legend-box" rx="0" ry="0" width="134" height="26"/><g data-z-index="1"><g class="highcharts-legend-item highcharts-column-series highcharts-color-0 highcharts-series-0" data-z-index="1" transform="translate(8 3)"><text x="21" data-z-index="2" y="15" style="color:#e0e0e3;cursor:pointer;font-size:12px;font-weight:700;fill:#e0e0e3">Boys</text><rect x="2" y="4" width="12" height="12" fill="#2b908f" rx="6" ry="6" class="highcharts-point" data-z-index="3"/></g><g class="highcharts-legend-item highcharts-column-series highcharts-color-1 highcharts-series-1" data-z-index="1" transform="translate(78.344 3)"><text x="21" y="15" data-z-index="2" style="color:#e0e0e3;cursor:pointer;font-size:12px;font-weight:700;fill:#e0e0e3">Girls</text><rect x="2" y="4" width="12" height="12" fill="#90ee7e" rx="6" ry="6" class="highcharts-point" data-z-index="3"/></g></g></g><g class="highcharts-axis-labels highcharts-xaxis-labels" data-z-index="7" aria-hidden="true" text-anchor="middle"><text x="109.667" style="color:#e0e0e3;cursor:default;font-size:11px;fill:#e0e0e3" y="346">2016</text><text x="197" style="color:#e0e0e3;cursor:default;font-size:11px;fill:#e0e0e3" y="346">2017</text><text x="284.333" style="color:#e0e0e3;cursor:default;font-size:11px;fill:#e0e0e3" y="346">2018</text><text x="371.667" style="color:#e0e0e3;cursor:default;font-size:11px;fill:#e0e0e3" y="346">2019</text><text x="459" style="color:#e0e0e3;cursor:default;font-size:11px;fill:#e0e0e3" y="346">2020</text><text x="546.333" style="color:#e0e0e3;cursor:default;font-size:11px;fill:#e0e0e3" y="346">2021</text></g><g class="highcharts-axis-labels highcharts-yaxis-labels" data-z-index="7" aria-hidden="true" text-anchor="end"><text x="51" style="color:#e0e0e3;cursor:default;font-size:11px;fill:#e0e0e3" y="332">0</text><text x="51" style="color:#e0e0e3;cursor:default;font-size:11px;fill:#e0e0e3" y="265">10k</text><text x="51" style="color:#e0e0e3;cursor:default;font-size:11px;fill:#e0e0e3" y="199">20k</text><text x="51" style="color:#e0e0e3;cursor:default;font-size:11px;fill:#e0e0e3" y="132">30k</text><text x="51" style="color:#e0e0e3;cursor:default;font-size:11px;fill:#e0e0e3" y="66">40k</text></g></svg>