<svg class="highcharts-root" style="font-family:&quot;Unica One&quot;,sans-serif;font-size:12px" xmlns="http://www.w3.org/2000/svg" width="600" height="400" aria-label="Interactive chart" aria-hidden="false"><defs aria-hidden="true"><linearGradient x1="0" y1="0" x2="1" y2="1" id="a"><stop offset="0" stop-color="#2a2a2b"/><stop offset="1" stop-color="#3e3e40"/></linearGradient><clipPath id="b"><path fill="none" d="M0 0h532v280H0z"/></clipPath></defs><rect fill="url(#a)" class="highcharts-background" width="600" height="400" rx="0" ry="0" aria-hidden="true"/><path fill="none" class="highcharts-plot-background" aria-hidden="true" d="M58 47h532v280H58z"/><g class="highcharts-grid highcharts-xaxis-grid" data-z-index="1" aria-hidden="true" fill="none"><path data-z-index="1" class="highcharts-grid-line" d="M163.5 47v280m107-280v280m106-280v280m107-280v280m106-280v280M57.5 47v280"/></g><g class="highcharts-grid highcharts-yaxis-grid" data-z-index="1" aria-hidden="true" fill="none" stroke="#707073"><path data-z-index="1" class="highcharts-grid-line" d="M58 327.5h532m-532-47h532m-532-46h532m-532-47h532m-532-47h532m-532-46h532m-532-48h532"/></g><path fill="none" class="highcharts-plot-border" data-z-index="1" aria-hidden="true" d="M58 47h532v280H58z"/><g class="highcharts-axis highcharts-xaxis" data-z-index="2" aria-hidden="true"><path fill="none" class="highcharts-axis-line" stroke="#707073" data-z-index="7" d="M58 327.5h532"/></g><g class="highcharts-axis highcharts-yaxis" data-z-index="2" aria-hidden="true"><path fill="none" class="highcharts-tick" stroke="#707073" d="M58 327.5H48m10-47H48m10-46H48m10-47H48m10-47H48m10-46H48m10-48H48"/><text x="23.219" data-z-index="7" text-anchor="middle" transform="rotate(-90 23.219 187)" class="highcharts-axis-title" style="color:#a0a0a3;fill:#a0a0a3" y="187">Values</text><path fill="none" class="highcharts-axis-line" data-z-index="7" d="M58 47v280"/></g><g class="highcharts-series-group" data-z-index="3" aria-hidden="false" stroke="#fff"><g class="highcharts-series highcharts-series-0 highcharts-column-series highcharts-color-0 highcharts-tracker" data-z-index=".1" clip-path="url(#b)" aria-hidden="false" tabindex="-1" aria-label="John, bar series 1 of 3 with 5 bars." style="outline:0" fill="#2b908f" transform="translate(58 47)"><path class="highcharts-point highcharts-color-0" tabindex="-1" aria-label="Apples, 5. John." style="outline:0" d="M22.5 70.5h18v117h-18z"/><path class="highcharts-point highcharts-color-0" tabindex="-1" aria-label="Oranges, 3. John." style="outline:0" d="M129.5 117.5h18v70h-18z"/><path class="highcharts-point highcharts-color-0" tabindex="-1" aria-label="Pears, 4. John." style="outline:0" d="M235.5 93.5h18v94h-18z"/><path class="highcharts-point highcharts-color-0" tabindex="-1" aria-label="Grapes, 7. John." style="outline:0" d="M342.5 23.5h18v164h-18z"/><path class="highcharts-point highcharts-color-0" tabindex="-1" aria-label="Bananas, 2. John." style="outline:0" d="M448.5 140.5h18v47h-18z"/></g><g class="highcharts-series highcharts-series-1 highcharts-column-series highcharts-color-1 highcharts-tracker" data-z-index=".1" clip-path="url(#b)" aria-hidden="false" tabindex="-1" aria-label="Jane, bar series 2 of 3 with 5 bars." style="outline:0" fill="#90ee7e" transform="translate(58 47)"><path class="highcharts-point highcharts-color-1" tabindex="-1" aria-label="Apples, 2. Jane." style="outline:0" d="M44.5 140.5h18v47h-18z"/><path class="highcharts-point highcharts-negative highcharts-color-1" tabindex="-1" aria-label="Oranges, -2. Jane." style="outline:0" d="M150.5 187.5h18v46h-18z"/><path class="highcharts-point highcharts-negative highcharts-color-1" tabindex="-1" aria-label="Pears, -3. Jane." style="outline:0" d="M256.5 187.5h18v70h-18z"/><path class="highcharts-point highcharts-color-1" tabindex="-1" aria-label="Grapes, 2. Jane." style="outline:0" d="M363.5 140.5h18v47h-18z"/><path class="highcharts-point highcharts-color-1" tabindex="-1" aria-label="Bananas, 1. Jane." style="outline:0" d="M469.5 163.5h18v24h-18z"/></g><g class="highcharts-series highcharts-series-2 highcharts-column-series highcharts-color-2 highcharts-tracker" data-z-index=".1" clip-path="url(#b)" aria-hidden="false" tabindex="-1" aria-label="Joe, bar series 3 of 3 with 5 bars." style="outline:0" fill="#f45b5b" transform="translate(58 47)"><path class="highcharts-point highcharts-color-2" tabindex="-1" aria-label="Apples, 3. Joe." style="outline:0" d="M65.5 117.5h18v70h-18z"/><path class="highcharts-point highcharts-color-2" tabindex="-1" aria-label="Oranges, 4. Joe." style="outline:0" d="M171.5 93.5h18v94h-18z"/><path class="highcharts-point highcharts-color-2" tabindex="-1" aria-label="Pears, 4. Joe." style="outline:0" d="M278.5 93.5h18v94h-18z"/><path class="highcharts-point highcharts-negative highcharts-color-2" tabindex="-1" aria-label="Grapes, -2. Joe." style="outline:0" d="M384.5 187.5h18v46h-18z"/><path class="highcharts-point highcharts-color-2" tabindex="-1" aria-label="Bananas, 5. Joe." style="outline:0" d="M491.5 70.5h18v117h-18z"/></g></g><text x="300" text-anchor="middle" class="highcharts-title" data-z-index="4" style="color:#e0e0e3;font-size:20px;text-transform:uppercase;fill:#e0e0e3" y="25" aria-hidden="true">Column chart with negative values</text><g class="highcharts-legend highcharts-no-tooltip" data-z-index="7" transform="translate(202 359)" aria-hidden="true"><rect fill="rgba(0, 0, 0, 0.5)" class="highcharts-legend-box" rx="0" ry="0" width="195" height="26"/><g data-z-index="1"><g class="highcharts-legend-item highcharts-column-series highcharts-color-0 highcharts-series-0" data-z-index="1" transform="translate(8 3)"><text x="21" data-z-index="2" y="15" style="color:#e0e0e3;cursor:pointer;font-size:12px;font-weight:700;fill:#e0e0e3">John</text><rect x="2" y="4" width="12" height="12" fill="#2b908f" rx="6" ry="6" class="highcharts-point" data-z-index="3"/></g><g class="highcharts-legend-item highcharts-column-series highcharts-color-1 highcharts-series-1" data-z-index="1" transform="translate(77.664 3)"><text x="21" y="15" data-z-index="2" style="color:#e0e0e3;cursor:pointer;font-size:12px;font-weight:700;fill:#e0e0e3">Jane</text><rect x="2" y="4" width="12" height="12" fill="#90ee7e" rx="6" ry="6" class="highcharts-point" data-z-index="3"/></g><g class="highcharts-legend-item highcharts-column-series highcharts-color-2 highcharts-series-2" data-z-index="1" transform="translate(146.016 3)"><text x="21" y="15" data-z-index="2" style="color:#e0e0e3;cursor:pointer;font-size:12px;font-weight:700;fill:#e0e0e3">Joe</text><rect x="2" y="4" width="12" height="12" fill="#f45b5b" rx="6" ry="6" class="highcharts-point" data-z-index="3"/></g></g></g><g class="highcharts-axis-labels highcharts-xaxis-labels" data-z-index="7" aria-hidden="true" text-anchor="middle"><text x="111.2" style="color:#e0e0e3;cursor:default;font-size:11px;fill:#e0e0e3" y="346">Apples</text><text x="217.6" style="color:#e0e0e3;cursor:default;font-size:11px;fill:#e0e0e3" y="346">Oranges</text><text x="324" style="color:#e0e0e3;cursor:default;font-size:11px;fill:#e0e0e3" y="346">Pears</text><text x="430.4" style="color:#e0e0e3;cursor:default;font-size:11px;fill:#e0e0e3" y="346">Grapes</text><text x="536.8" style="color:#e0e0e3;cursor:default;font-size:11px;fill:#e0e0e3" y="346">Bananas</text></g><g class="highcharts-axis-labels highcharts-yaxis-labels" data-z-index="7" aria-hidden="true" text-anchor="end"><text x="43" style="color:#e0e0e3;cursor:default;font-size:11px;fill:#e0e0e3" y="332">-4</text><text x="43" style="color:#e0e0e3;cursor:default;font-size:11px;fill:#e0e0e3" y="285">-2</text><text x="43" style="color:#e0e0e3;cursor:default;font-size:11px;fill:#e0e0e3" y="238">0</text><text x="43" style="color:#e0e0e3;cursor:default;font-size:11px;fill:#e0e0e3" y="192">2</text><text x="43" style="color:#e0e0e3;cursor:default;font-size:11px;fill:#e0e0e3" y="145">4</text><text x="43" style="color:#e0e0e3;cursor:default;font-size:11px;fill:#e0e0e3" y="98">6</text><text x="43" style="color:#e0e0e3;cursor:default;font-size:11px;fill:#e0e0e3" y="52">8</text></g></svg>