<svg class="highcharts-root" style="font-family:&quot;Unica One&quot;,sans-serif;font-size:12px" xmlns="http://www.w3.org/2000/svg" width="600" height="400" aria-label="Interactive chart" aria-hidden="false"><defs aria-hidden="true"><clipPath id="b"><path fill="none" d="M0 0h441v281H0z"/></clipPath><clipPath id="c"><path fill="none" d="M0 0h441v281H0z"/></clipPath><linearGradient x1="0" y1="0" x2="1" y2="1" id="a"><stop offset="0" stop-color="#2a2a2b"/><stop offset="1" stop-color="#3e3e40"/></linearGradient></defs><rect fill="url(#a)" class="highcharts-background" width="600" height="400" rx="0" ry="0" aria-hidden="true"/><path fill="none" class="highcharts-plot-background" aria-hidden="true" d="M77 84h441v281H77z"/><g class="highcharts-grid highcharts-xaxis-grid" data-z-index="1" aria-hidden="true" fill="none"><path data-z-index="1" class="highcharts-grid-line" d="M113.5 84v281m37-281v281m36-281v281m37-281v281m37-281v281m37-281v281m36-281v281m37-281v281m37-281v281m37-281v281m36-281v281m37-281v281M76.5 84v281"/></g><g class="highcharts-grid highcharts-yaxis-grid" data-z-index="1" aria-hidden="true" fill="none" stroke="#707073"><path data-z-index="1" class="highcharts-grid-line" d="M77 365.5h441m-441-70h441m-441-70h441m-441-71h441m-441-71h441"/></g><g class="highcharts-grid highcharts-yaxis-grid" data-z-index="1" aria-hidden="true" fill="none" stroke="#707073"><path data-z-index="1" class="highcharts-grid-line" d="M77 365.5h441m-441-70h441m-441-70h441m-441-71h441m-441-71h441"/></g><path fill="none" class="highcharts-plot-border" data-z-index="1" aria-hidden="true" d="M77 84h441v281H77z"/><g class="highcharts-axis highcharts-xaxis" data-z-index="2" aria-hidden="true"><path fill="none" class="highcharts-axis-line" stroke="#707073" data-z-index="7" d="M77 365.5h441"/></g><g class="highcharts-axis highcharts-yaxis" data-z-index="2" aria-hidden="true"><path fill="none" class="highcharts-tick" stroke="#707073" d="M77 365.5H67m10-70H67m10-70H67m10-71H67m10-71H67"/><text x="23.758" data-z-index="7" text-anchor="middle" transform="rotate(-90 23.758 224.5)" class="highcharts-axis-title" style="color:#90ee7e;fill:#90ee7e" y="224.5">Temperature</text><path fill="none" class="highcharts-axis-line" data-z-index="7" d="M77 84v281"/></g><g class="highcharts-axis highcharts-yaxis" data-z-index="2" aria-hidden="true"><path fill="none" class="highcharts-tick" stroke="#707073" d="M518 365.5h10m-10-70h10m-10-70h10m-10-71h10m-10-71h10"/><text x="576.625" data-z-index="7" text-anchor="middle" transform="rotate(90 576.625 224.5)" class="highcharts-axis-title" style="color:#2b908f;fill:#2b908f" y="224.5">Precipitation</text><path fill="none" class="highcharts-axis-line" data-z-index="7" d="M518 84v281"/></g><g class="highcharts-series-group" data-z-index="3" aria-hidden="false"><g class="highcharts-series highcharts-series-0 highcharts-column-series highcharts-color-0 highcharts-tracker" data-z-index=".1" clip-path="url(#b)" aria-hidden="false" tabindex="-1" aria-label="Precipitation, series 1 of 2. Bar series with 12 bars. Y axis, Precipitation." style="outline:0" fill="#2b908f" stroke="#fff" transform="translate(77 84)"><path class="highcharts-point highcharts-color-0" tabindex="-1" aria-label="Jan, 27.6 mm. Precipitation." style="outline:0" d="M9.5 184.5h18v97h-18z"/><path class="highcharts-point highcharts-color-0" tabindex="-1" aria-label="Feb, 28.8 mm. Precipitation." style="outline:0" d="M45.5 180.5h18v101h-18z"/><path class="highcharts-point highcharts-color-0" tabindex="-1" aria-label="Mar, 21.7 mm. Precipitation." style="outline:0" d="M82.5 205.5h18v76h-18z"/><path class="highcharts-point highcharts-color-0" tabindex="-1" aria-label="Apr, 34.1 mm. Precipitation." style="outline:0" d="M119.5 161.5h18v120h-18z"/><path class="highcharts-point highcharts-color-0" tabindex="-1" aria-label="May, 29 mm. Precipitation." style="outline:0" d="M156.5 179.5h18v102h-18z"/><path class="highcharts-point highcharts-color-0" tabindex="-1" aria-label="Jun, 28.4 mm. Precipitation." style="outline:0" d="M192.5 181.5h18v100h-18z"/><path class="highcharts-point highcharts-color-0" tabindex="-1" aria-label="Jul, 45.6 mm. Precipitation." style="outline:0" d="M229.5 121.5h18v160h-18z"/><path class="highcharts-point highcharts-color-0" tabindex="-1" aria-label="Aug, 51.7 mm. Precipitation." style="outline:0" d="M266.5 99.5h18v182h-18z"/><path class="highcharts-point highcharts-color-0" tabindex="-1" aria-label="Sep, 39 mm. Precipitation." style="outline:0" d="M303.5 144.5h18v137h-18z"/><path class="highcharts-point highcharts-color-0" tabindex="-1" aria-label="Oct, 60 mm. Precipitation." style="outline:0" d="M339.5 70.5h18v211h-18z"/><path class="highcharts-point highcharts-color-0" tabindex="-1" aria-label="Nov, 28.6 mm. Precipitation." style="outline:0" d="M376.5 181.5h18v100h-18z"/><path class="highcharts-point highcharts-color-0" tabindex="-1" aria-label="Dec, 32.1 mm. Precipitation." style="outline:0" d="M413.5 168.5h18v113h-18z"/></g><g class="highcharts-series highcharts-series-1 highcharts-spline-series highcharts-color-1" data-z-index=".1" clip-path="url(#c)" aria-hidden="true" fill="none" stroke-linejoin="round" stroke-linecap="round" transform="translate(77 84)"><path d="M18.375 236.04s22.05 9.133 36.75 9.133 22.05-43.977 36.75-63.928 22.05-23.323 36.75-35.828c14.7-12.504 22.05-7.446 36.75-26.695 14.7-19.248 22.05-59.01 36.75-69.547 14.7-10.538 22.05-10.538 36.75-10.538s22.05 13.77 36.75 25.993c14.7 12.224 22.05 18.968 36.75 35.125s22.05 22.058 36.75 45.662c14.7 23.605 22.05 50.3 36.75 72.358 14.7 22.059 36.75 37.935 36.75 37.935" class="highcharts-graph" data-z-index="1" stroke="#90ee7e" stroke-width="2"/><path d="M18.375 236.04s22.05 9.133 36.75 9.133 22.05-43.977 36.75-63.928 22.05-23.323 36.75-35.828c14.7-12.504 22.05-7.446 36.75-26.695 14.7-19.248 22.05-59.01 36.75-69.547 14.7-10.538 22.05-10.538 36.75-10.538s22.05 13.77 36.75 25.993c14.7 12.224 22.05 18.968 36.75 35.125s22.05 22.058 36.75 45.662c14.7 23.605 22.05 50.3 36.75 72.358 14.7 22.059 36.75 37.935 36.75 37.935" data-z-index="2" class="highcharts-tracker-line" stroke="rgba(192,192,192,0.0001)" stroke-width="22"/></g><g class="highcharts-markers highcharts-series-1 highcharts-spline-series highcharts-color-1 highcharts-tracker" data-z-index=".1" aria-hidden="false" tabindex="-1" aria-label="Temperature, series 2 of 2. Line with 12 data points. Y axis, Temperature." style="outline:0" fill="#90ee7e"><path d="M18 240a4 4 0 1 1 .004 0Z" class="highcharts-point highcharts-negative highcharts-color-1" tabindex="-1" aria-label="Jan, -13.6°C. Temperature." style="outline:0" transform="translate(77 84)"/><path d="M55 249a4 4 0 1 1 .004 0Z" class="highcharts-point highcharts-negative highcharts-color-1" tabindex="-1" aria-label="Feb, -14.9°C. Temperature." style="outline:0" transform="translate(77 84)"/><path d="M91 185a4 4 0 1 1 .004 0Z" class="highcharts-point highcharts-negative highcharts-color-1" tabindex="-1" aria-label="Mar, -5.8°C. Temperature." style="outline:0" transform="translate(77 84)"/><path d="M128 149a4 4 0 1 1 .004 0Z" class="highcharts-point highcharts-negative highcharts-color-1" tabindex="-1" aria-label="Apr, -0.7°C. Temperature." style="outline:0" transform="translate(77 84)"/><path d="M165 123a4 4 0 1 1 .004 0Z" class="highcharts-point highcharts-color-1" tabindex="-1" aria-label="May, 3.1°C. Temperature." style="outline:0" transform="translate(77 84)"/><path d="M202 53a4 4 0 1 1 .004 0Z" class="highcharts-point highcharts-color-1" tabindex="-1" aria-label="Jun, 13°C. Temperature." style="outline:0" transform="translate(77 84)"/><path d="M238 43a4 4 0 1 1 .004 0Z" class="highcharts-point highcharts-color-1" tabindex="-1" aria-label="Jul, 14.5°C. Temperature." style="outline:0" transform="translate(77 84)"/><path d="M275 69a4 4 0 1 1 .004 0Z" class="highcharts-point highcharts-color-1" tabindex="-1" aria-label="Aug, 10.8°C. Temperature." style="outline:0" transform="translate(77 84)"/><path d="M312 104a4 4 0 1 1 .004 0Z" class="highcharts-point highcharts-color-1" tabindex="-1" aria-label="Sep, 5.8°C. Temperature." style="outline:0" transform="translate(77 84)"/><path d="M349 149a4 4 0 1 1 .004 0Z" class="highcharts-point highcharts-negative highcharts-color-1" tabindex="-1" aria-label="Oct, -0.7°C. Temperature." style="outline:0" transform="translate(77 84)"/><path d="M385 222a4 4 0 1 1 .004 0Z" class="highcharts-point highcharts-negative highcharts-color-1" tabindex="-1" aria-label="Nov, -11°C. Temperature." style="outline:0" transform="translate(77 84)"/><path d="M422 260a4 4 0 1 1 .004 0Z" class="highcharts-point highcharts-negative highcharts-color-1" tabindex="-1" aria-label="Dec, -16.4°C. Temperature." style="outline:0" transform="translate(77 84)"/></g></g><text x="10" class="highcharts-title" data-z-index="4" style="color:#e0e0e3;font-size:20px;text-transform:uppercase;fill:#e0e0e3" y="25" aria-hidden="true">Average Monthly Precipitation and<tspan dy="23" x="10">​</tspan>Temperature in Karasjok, 2021</text><text x="300" text-anchor="middle" class="highcharts-subtitle" data-z-index="4" style="color:#e0e0e3;text-transform:uppercase;fill:#e0e0e3" y="69" aria-hidden="true">Source: <a target="_blank"><tspan>YR</tspan></a></text><g class="highcharts-legend highcharts-no-tooltip" data-z-index="7" transform="translate(90 90)" aria-hidden="true"><rect fill="rgba(0, 0, 0, 0.5)" class="highcharts-legend-box" rx="0" ry="0" width="222" height="26"/><g data-z-index="1"><g class="highcharts-legend-item highcharts-column-series highcharts-color-0 highcharts-series-0" data-z-index="1" transform="translate(8 3)"><text x="21" data-z-index="2" y="15" style="color:#e0e0e3;cursor:pointer;font-size:12px;font-weight:700;fill:#e0e0e3">Precipitation</text><rect x="2" y="4" width="12" height="12" fill="#2b908f" rx="6" ry="6" class="highcharts-point" data-z-index="3"/></g><g class="highcharts-legend-item highcharts-spline-series highcharts-color-1 highcharts-series-1" data-z-index="1"><path fill="none" d="M121.68 14h16" class="highcharts-graph" stroke-width="2" stroke="#90ee7e"/><path fill="#90ee7e" d="M129.68 18a4 4 0 1 1 .004 0Z" class="highcharts-point"/><text x="21" y="15" data-z-index="2" style="color:#e0e0e3;cursor:pointer;font-size:12px;font-weight:700;fill:#e0e0e3" transform="translate(121.68 3)">Temperature</text></g></g></g><g class="highcharts-axis-labels highcharts-xaxis-labels" data-z-index="7" aria-hidden="true" text-anchor="middle"><text x="95.375" style="color:#e0e0e3;cursor:default;font-size:11px;fill:#e0e0e3" y="384">Jan</text><text x="132.125" style="color:#e0e0e3;cursor:default;font-size:11px;fill:#e0e0e3" y="384">Feb</text><text x="168.875" style="color:#e0e0e3;cursor:default;font-size:11px;fill:#e0e0e3" y="384">Mar</text><text x="205.625" style="color:#e0e0e3;cursor:default;font-size:11px;fill:#e0e0e3" y="384">Apr</text><text x="242.375" style="color:#e0e0e3;cursor:default;font-size:11px;fill:#e0e0e3" y="384">May</text><text x="279.125" style="color:#e0e0e3;cursor:default;font-size:11px;fill:#e0e0e3" y="384">Jun</text><text x="315.875" style="color:#e0e0e3;cursor:default;font-size:11px;fill:#e0e0e3" y="384">Jul</text><text x="352.625" style="color:#e0e0e3;cursor:default;font-size:11px;fill:#e0e0e3" y="384">Aug</text><text x="389.375" style="color:#e0e0e3;cursor:default;font-size:11px;fill:#e0e0e3" y="384">Sep</text><text x="426.125" style="color:#e0e0e3;cursor:default;font-size:11px;fill:#e0e0e3" y="384">Oct</text><text x="462.875" style="color:#e0e0e3;cursor:default;font-size:11px;fill:#e0e0e3" y="384">Nov</text><text x="499.625" style="color:#e0e0e3;cursor:default;font-size:11px;fill:#e0e0e3" y="384">Dec</text></g><g class="highcharts-axis-labels highcharts-yaxis-labels" data-z-index="7" aria-hidden="true" text-anchor="end"><text x="62" style="color:#90ee7e;cursor:default;font-size:11px;fill:#90ee7e" y="370">-20°C</text><text x="62" style="color:#90ee7e;cursor:default;font-size:11px;fill:#90ee7e" y="300">-10°C</text><text x="62" style="color:#90ee7e;cursor:default;font-size:11px;fill:#90ee7e" y="229">0°C</text><text x="62" style="color:#90ee7e;cursor:default;font-size:11px;fill:#90ee7e" y="159">10°C</text><text x="62" style="color:#90ee7e;cursor:default;font-size:11px;fill:#90ee7e" y="89">20°C</text></g><g class="highcharts-axis-labels highcharts-yaxis-labels" data-z-index="7" aria-hidden="true"><text x="533" style="color:#2b908f;cursor:default;font-size:11px;fill:#2b908f" y="370">0 mm</text><text x="533" style="color:#2b908f;cursor:default;font-size:11px;fill:#2b908f" y="300">20 mm</text><text x="533" style="color:#2b908f;cursor:default;font-size:11px;fill:#2b908f" y="229">40 mm</text><text x="533" style="color:#2b908f;cursor:default;font-size:11px;fill:#2b908f" y="159">60 mm</text><text x="533" style="color:#2b908f;cursor:default;font-size:11px;fill:#2b908f" y="89">80 mm</text></g></svg>