<svg class="highcharts-root" style="font-family:&quot;Unica One&quot;,sans-serif;font-size:12px" xmlns="http://www.w3.org/2000/svg" width="600" height="400" aria-label="Interactive chart" aria-hidden="false"><defs aria-hidden="true"><linearGradient x1="0" y1="0" x2="1" y2="1" id="a"><stop offset="0" stop-color="#2a2a2b"/><stop offset="1" stop-color="#3e3e40"/></linearGradient><clipPath id="b"><path fill="none" d="M0 0h470v270H0z"/></clipPath></defs><rect fill="url(#a)" class="highcharts-background" width="600" height="400" rx="0" ry="0" aria-hidden="true"/><path fill="none" class="highcharts-plot-background" aria-hidden="true" d="M80 70h470v270H80z"/><g class="highcharts-plot-lines-0" data-z-index="0" aria-hidden="true"><path fill="none" class="highcharts-plot-line" stroke="gray" d="M80 340.5h470"/></g><g class="highcharts-grid highcharts-xaxis-grid" data-z-index="1" aria-hidden="true" fill="none" stroke="#707073"><path data-z-index="1" class="highcharts-grid-line" d="M146.5 70v270m112-270v270m112-270v270m112-270v270"/></g><g class="highcharts-grid highcharts-yaxis-grid" data-z-index="1" aria-hidden="true" fill="none" stroke="#707073"><path data-z-index="1" class="highcharts-grid-line" d="M80 340.5h470m-470-67h470m-470-68h470m-470-67h470m-470-69h470"/></g><path fill="none" class="highcharts-plot-border" data-z-index="1" aria-hidden="true" d="M80 70h470v270H80z"/><g class="highcharts-axis highcharts-xaxis" data-z-index="2" aria-hidden="true" fill="none" stroke="#707073"><path class="highcharts-tick" d="M146.5 340v10m112-10v10m112-10v10m112-10v10"/><path class="highcharts-axis-line" data-z-index="7" d="M80 340.5h470"/></g><g class="highcharts-axis highcharts-yaxis" data-z-index="2" aria-hidden="true"><path fill="none" class="highcharts-tick" stroke="#707073" d="M80 340.5H70m10-67H70m10-68H70m10-67H70m10-69H70"/><text x="36.641" data-z-index="7" text-anchor="middle" transform="rotate(-90 36.64 205)" class="highcharts-axis-title" style="color:#a0a0a3;fill:#a0a0a3" y="205">Value</text><path fill="none" class="highcharts-axis-line" data-z-index="7" d="M80 70v270"/></g><g class="highcharts-series-group" data-z-index="3" aria-hidden="false"><g class="highcharts-series highcharts-series-0 highcharts-scatter-series highcharts-color-0 highcharts-tracker" data-z-index=".1" clip-path="url(#b)" aria-hidden="true" transform="translate(80 70)"><path fill="none" d="M67.143 216 402.857 54" class="highcharts-graph" data-z-index="1" stroke="#2b908f" stroke-linejoin="round" stroke-linecap="round"/></g><g class="highcharts-markers highcharts-series-0 highcharts-scatter-series highcharts-color-0 highcharts-tracker" data-z-index=".1" aria-hidden="false" fill="#2b908f"><path d="M67 220a4 4 0 1 1 .004 0Z" class="highcharts-point highcharts-color-0" tabindex="-1" aria-label="x, 20, 20." style="outline:0" transform="translate(80 70)"/><path d="M402 58a4 4 0 1 1 .004 0Z" class="highcharts-point highcharts-color-0" tabindex="-1" aria-label="x, 80, 80." style="outline:0" transform="translate(80 70)"/></g></g><text x="300" text-anchor="middle" class="highcharts-title" data-z-index="4" style="color:#e0e0e3;font-size:20px;text-transform:uppercase;fill:#e0e0e3" y="25" aria-hidden="true">User supplied data</text><text x="300" text-anchor="middle" class="highcharts-subtitle" data-z-index="4" style="color:#e0e0e3;text-transform:uppercase;fill:#e0e0e3" y="46" aria-hidden="true">Click the plot area to add a point. Click a point to remove it.</text><g class="highcharts-axis-labels highcharts-xaxis-labels" data-z-index="7" aria-hidden="true" text-anchor="middle"><text x="147.143" style="color:#e0e0e3;cursor:default;font-size:11px;fill:#e0e0e3" y="359">20</text><text x="259.048" style="color:#e0e0e3;cursor:default;font-size:11px;fill:#e0e0e3" y="359">40</text><text x="370.952" style="color:#e0e0e3;cursor:default;font-size:11px;fill:#e0e0e3" y="359">60</text><text x="482.857" style="color:#e0e0e3;cursor:default;font-size:11px;fill:#e0e0e3" y="359">80</text></g><g class="highcharts-axis-labels highcharts-yaxis-labels" data-z-index="7" aria-hidden="true" text-anchor="end"><text x="65" style="color:#e0e0e3;cursor:default;font-size:11px;fill:#e0e0e3" y="345">0</text><text x="65" style="color:#e0e0e3;cursor:default;font-size:11px;fill:#e0e0e3" y="277">25</text><text x="65" style="color:#e0e0e3;cursor:default;font-size:11px;fill:#e0e0e3" y="210">50</text><text x="65" style="color:#e0e0e3;cursor:default;font-size:11px;fill:#e0e0e3" y="142">75</text><text x="65" style="color:#e0e0e3;cursor:default;font-size:11px;fill:#e0e0e3" y="75">100</text></g></svg>