<svg class="highcharts-root" style="font-family:&quot;Unica One&quot;,sans-serif;font-size:12px" xmlns="http://www.w3.org/2000/svg" width="500" height="400" aria-label="Interactive chart" aria-hidden="false"><defs aria-hidden="true"><linearGradient x1="0" y1="0" x2="1" y2="1" id="a"><stop offset="0" stop-color="#2a2a2b"/><stop offset="1" stop-color="#3e3e40"/></linearGradient><linearGradient x1="0" y1="0" x2="0" y2="1" id="b"><stop offset="0" stop-color="#fff"/><stop offset="1" stop-color="#e6e6e6"/></linearGradient><linearGradient x1="0" y1="0" x2="0" y2="1" id="c"><stop offset="0" stop-color="#DDD"/><stop offset="1" stop-color="#FFF"/></linearGradient><clipPath id="d"><path fill="none" d="M0 0h480v338H0z"/></clipPath></defs><rect fill="url(#a)" class="highcharts-background" width="500" height="400" rx="0" ry="0" aria-hidden="true"/><path fill="none" class="highcharts-plot-background" aria-hidden="true" d="M10 47h480v338H10z"/><g class="highcharts-pane-group" data-z-index="0" aria-hidden="true"><path fill="url(#b)" d="M250 65.167a150.833 150.833 0 1 1-.15 0M250 216" class="highcharts-pane" stroke="#ccc"/></g><g class="highcharts-grid highcharts-yaxis-grid highcharts-radial-axis-grid" data-z-index="1" aria-hidden="true" fill="none"><path class="highcharts-minor-grid-line" d="m250 216-59.325 102.754M250 216l-72.23 94.131M250 216l-83.898 83.898M250 216l-94.131 72.23M250 216l-102.754 59.325M250 216l-109.618 45.405M250 216l-114.607 30.709M250 216l-117.635 15.487M250 216H131.35M250 216l-117.635-15.487M250 216l-114.607-30.709M250 216l-109.618-45.405M250 216l-102.754-59.325M250 216l-94.131-72.23M250 216l-83.898-83.898M250 216l-72.23-94.131M250 216l-59.325-102.754M250 216l-45.405-109.618M250 216l-30.709-114.607M250 216 234.513 98.365M250 216V97.35M250 216l15.487-117.635M250 216l30.709-114.607M250 216l45.405-109.618M250 216l59.325-102.754M250 216l72.23-94.131M250 216l83.898-83.898M250 216l94.131-72.23M250 216l102.754-59.325M250 216l109.618-45.405M250 216l114.607-30.709M250 216l117.635-15.487M250 216h118.65M250 216l117.635 15.487M250 216l114.607 30.709M250 216l109.618 45.405M250 216l102.754 59.325M250 216l94.131 72.23M250 216l83.898 83.898M250 216l72.23 94.131M250 216l59.325 102.754"/><path data-z-index="1" class="highcharts-grid-line" d="m250 216-59.325 102.754M250 216l-109.618 45.405M250 216l-114.607-30.709M250 216l-72.23-94.131M250 216V97.35M250 216l72.23-94.131M250 216l114.607-30.709M250 216l109.618 45.405M250 216l59.325 102.754"/></g><g class="highcharts-grid highcharts-yaxis-grid highcharts-radial-axis-grid" data-z-index="1" aria-hidden="true" fill="none"><path class="highcharts-minor-grid-line" d="m250 216-61.825 107.084M250 216l-78.946 95.167M250 216l-93.82 80.542M250 216l-106.025 63.625M250 216l-115.211 44.897M250 216l-121.119 24.89M250 216l-123.58 4.176M250 216l-122.523-16.657M250 216l-117.98-37.016M250 216l-110.078-56.322M250 216l-99.044-74.025M250 216l-85.19-89.62M250 216l-68.913-102.666M250 216l-50.674-112.79M250 216 219.007 96.297M250 216 239.57 92.79M250 216l10.43-123.21M250 216l30.993-119.703M250 216l50.674-112.79M250 216l68.913-102.666M250 216l85.19-89.62M250 216l99.044-74.025M250 216l110.078-56.322M250 216l117.98-37.016M250 216l122.523-16.657M250 216l123.58 4.176M250 216l121.119 24.89M250 216l115.211 44.897M250 216l106.025 63.625M250 216l93.82 80.542M250 216l78.946 95.167M250 216l61.825 107.084"/><path data-z-index="1" class="highcharts-grid-line" d="m250 216-61.825 107.084M250 216l-121.119 24.89M250 216l-99.044-74.025M250 216 239.57 92.79M250 216l85.19-89.62M250 216l123.58 4.176M250 216l78.946 95.167"/></g><path fill="none" class="highcharts-plot-border" data-z-index="1" aria-hidden="true" d="M10 47h480v338H10z"/><g class="highcharts-axis highcharts-yaxis highcharts-radial-axis" data-z-index="2" aria-hidden="true" fill="none" stroke="#339"><path class="highcharts-minor-tick" d="m190.675 318.754 2.5-4.33m-15.405-4.293 3.044-3.966m-14.712-6.267 3.535-3.535m-13.768-8.133 3.966-3.044m-12.589-9.861 4.33-2.5m-11.194-11.42 4.62-1.913m-9.609-12.783 4.83-1.294m-7.858-13.928 4.957-.653M131.35 216h5m-3.985-15.487 4.957.653m-1.929-15.875 4.83 1.294m.159-15.99 4.62 1.913m2.244-15.833 4.33 2.5m4.293-15.405 3.966 3.044m6.267-14.712 3.535 3.535m8.133-13.768 3.044 3.966m9.861-12.589 2.5 4.33m11.42-11.194 1.913 4.62m12.783-9.609 1.294 4.83m13.928-7.858.653 4.957M250 97.35v5m15.487-3.985-.653 4.957m15.875-1.929-1.294 4.83m15.99.159-1.913 4.62m15.833 2.244-2.5 4.33m15.405 4.293-3.044 3.966m14.712 6.267-3.535 3.535m13.768 8.133-3.966 3.044m12.589 9.861-4.33 2.5m11.194 11.42-4.62 1.913m9.609 12.783-4.83 1.294m7.858 13.928-4.957.653M368.65 216h-5m3.985 15.487-4.957-.653m1.929 15.875-4.83-1.294m-.159 15.99-4.62-1.913m-2.244 15.833-4.33-2.5m-4.293 15.405-3.966-3.044m-6.267 14.712-3.535-3.535m-8.133 13.768-3.044-3.966m-9.861 12.589-2.5-4.33"/><path class="highcharts-tick" d="m190.675 318.754 2.5-4.33m-52.793-53.019 4.62-1.913m-9.609-74.201 4.83 1.294m37.547-64.716 3.044 3.966M250 97.35v5m72.23 19.519-3.044 3.966m45.421 59.456-4.83 1.294m-.159 74.82-4.62-1.913m-45.673 59.262-2.5-4.33"/><path class="highcharts-axis-line" stroke-width="2" data-z-index="7" d="M190.675 318.754a118.65 118.65 0 1 1 118.753-.06M250 216"/></g><g class="highcharts-axis highcharts-yaxis highcharts-radial-axis" data-z-index="2" aria-hidden="true" fill="none" stroke="#933"><path class="highcharts-minor-tick" d="m188.175 323.084-2.5 4.33m-14.621-16.247-3.192 3.849m-11.682-18.474-3.794 3.257m-8.411-20.174-4.287 2.573m-4.899-21.301-4.659 1.815m-1.249-21.822-4.898 1.007m2.437-21.721-4.997.169m6.054-21.002-4.954-.674m9.497-19.685-4.77-1.497m12.672-17.809-4.451-2.277m15.485-15.426-4.005-2.993m17.859-12.602-3.446-3.625m19.723-9.421-2.787-4.151m21.026-5.973-2.05-4.56m21.731-2.353-1.253-4.84m21.816 1.333-.422-4.982m21.282 4.982.422-4.982m20.141 8.489 1.253-4.84m18.428 11.753 2.05-4.56m16.189 14.684 2.787-4.151m13.49 17.197 3.446-3.625m10.408 19.22 4.005-2.993m7.029 20.696 4.451-2.277m3.451 21.583 4.77-1.497m-.227 21.856 4.954-.674m-3.897 21.507 4.997.169m-7.458 20.545 4.898 1.007m-10.806 19 4.659 1.815m-13.845 16.913 4.287 2.573m-16.492 14.344 3.794 3.257m-18.668 11.368 3.192 3.849m-20.313 8.068 2.5 4.33"/><path class="highcharts-tick" d="m188.175 323.084-2.5 4.33m-56.794-86.524-4.898 1.007m26.973-99.922-4.005-2.993M239.57 92.79l-.422-4.982m96.042 38.572 3.446-3.625m34.944 97.421 4.997.169m-49.631 90.822 3.192 3.849"/><path class="highcharts-axis-line" stroke-width="2" data-z-index="7" d="M188.175 323.084a123.65 123.65 0 1 1 123.757-.062M250 216"/></g><g class="highcharts-data-labels highcharts-series-0 highcharts-gauge-series highcharts-color-0 highcharts-tracker" data-z-index="2" aria-hidden="true"><g class="highcharts-label highcharts-data-label highcharts-data-label-color-0" data-z-index="1" transform="translate(223 231)"><rect fill="url(#c)" class="highcharts-label-box highcharts-data-label-box" x=".5" y=".5" width="54" height="42" rx="3" ry="3" stroke="#ccc"/><text x="5" data-z-index="1" y="18" style="color:#f0f0f3;font-size:13px;font-weight:700;fill:#f0f0f3"><tspan class="highcharts-text-outline" fill="#000" stroke="#000" stroke-width="2" stroke-linejoin="round"><tspan style="color:#339;fill:#339">90 km/h</tspan><tspan class="highcharts-br" dy="16" x="5">​</tspan><tspan style="color:#933;fill:#933">56 mph</tspan><tspan x="5" dy="-16">​</tspan></tspan><tspan style="color:#339;fill:#339">90 km/h</tspan><tspan class="highcharts-br" dy="16" x="5">​</tspan><tspan style="color:#933;fill:#933">56 mph</tspan></text></g></g><g class="highcharts-series-group" data-z-index="3" aria-hidden="false"><g class="highcharts-series highcharts-series-0 highcharts-gauge-series highcharts-color-0 highcharts-tracker" data-z-index=".1" clip-path="url(#d)" aria-hidden="false" transform="translate(10 47)"><path d="M-11.492-1.5h91.936l34.476 1v1l-34.476 1h-91.936Z" transform="rotate(-105 184.84 -7.58)" data-z-index="1" class="highcharts-dial" tabindex="-1" aria-label="90 km/h. Speed." style="outline:0"/><circle r="5" data-z-index="2" class="highcharts-pivot" transform="translate(240 169)"/></g></g><text x="250" text-anchor="middle" class="highcharts-title" data-z-index="4" style="color:#e0e0e3;font-size:20px;text-transform:uppercase;fill:#e0e0e3" y="25" aria-hidden="true">Speedometer with dual axes</text><g class="highcharts-axis-labels highcharts-yaxis-labels highcharts-radial-axis-labels" data-z-index="7" aria-hidden="true" text-anchor="middle"><text x="200.675" style="color:#e0e0e3;cursor:default;font-size:11px;fill:#e0e0e3" transform="rotate(-150 200.675 301.433)" y="301.433">0</text><text x="158.859" style="color:#e0e0e3;cursor:default;font-size:11px;fill:#e0e0e3" transform="rotate(-112.5 158.86 253.752)" y="253.752">25</text><text x="154.711" style="color:#e0e0e3;cursor:default;font-size:11px;fill:#e0e0e3" transform="rotate(-75 154.711 190.468)" y="190.468">50</text><text x="189.946" style="color:#e0e0e3;cursor:default;font-size:11px;fill:#e0e0e3" transform="rotate(-37.5 189.946 137.736)" y="137.736">75</text><text x="250" style="color:#e0e0e3;cursor:default;font-size:11px;fill:#e0e0e3" y="117.35">100</text><text x="310.054" style="color:#e0e0e3;cursor:default;font-size:11px;fill:#e0e0e3" transform="rotate(37.5 310.054 137.736)" y="137.736">125</text><text x="345.289" style="color:#e0e0e3;cursor:default;font-size:11px;fill:#e0e0e3" transform="rotate(75 345.289 190.468)" y="190.468">150</text><text x="341.141" style="color:#e0e0e3;cursor:default;font-size:11px;fill:#e0e0e3" transform="rotate(112.5 341.14 253.752)" y="253.752">175</text><text x="299.325" style="color:#e0e0e3;cursor:default;font-size:11px;fill:#e0e0e3" transform="rotate(150 299.325 301.433)" y="301.433">200</text></g><g class="highcharts-axis-labels highcharts-yaxis-labels highcharts-radial-axis-labels" data-z-index="7" aria-hidden="true" text-anchor="middle"><text x="182.175" transform="rotate(-150 182.175 333.476)" y="333.476" style="color:#e0e0e3;cursor:default;font-size:11px;fill:#e0e0e3">0</text><text x="117.127" transform="rotate(-101.613 117.127 243.306)" y="243.306" style="color:#e0e0e3;cursor:default;font-size:11px;fill:#e0e0e3">20</text><text x="141.344" transform="rotate(-53.226 141.344 134.791)" y="134.791" style="color:#e0e0e3;cursor:default;font-size:11px;fill:#e0e0e3">40</text><text x="238.558" transform="rotate(-4.839 238.558 80.833)" y="80.833" style="color:#e0e0e3;cursor:default;font-size:11px;fill:#e0e0e3">60</text><text x="343.458" transform="rotate(43.548 343.458 117.682)" y="117.682" style="color:#e0e0e3;cursor:default;font-size:11px;fill:#e0e0e3">80</text><text x="385.573" transform="rotate(91.935 385.573 220.581)" y="220.581" style="color:#e0e0e3;cursor:default;font-size:11px;fill:#e0e0e3">100</text><text x="336.608" transform="rotate(140.323 336.608 320.403)" y="320.403" style="color:#e0e0e3;cursor:default;font-size:11px;fill:#e0e0e3">120</text></g></svg>