<svg class="highcharts-root" style="font-family:&quot;Unica One&quot;,sans-serif;font-size:12px" xmlns="http://www.w3.org/2000/svg" width="600" height="400" aria-label="Interactive chart" aria-hidden="false"><defs aria-hidden="true"><linearGradient x1="0" y1="0" x2="1" y2="1" id="a"><stop offset="0" stop-color="#2a2a2b"/><stop offset="1" stop-color="#3e3e40"/></linearGradient><clipPath id="b"><path fill="none" d="M0 0h531v280H0z"/></clipPath></defs><rect fill="url(#a)" class="highcharts-background" width="600" height="400" rx="0" ry="0" aria-hidden="true"/><path fill="none" class="highcharts-plot-background" aria-hidden="true" d="M59 47h531v280H59z"/><path fill="none" class="highcharts-plot-border" data-z-index="1" aria-hidden="true" d="M59 47h531v280H59z"/><g class="highcharts-grid highcharts-xaxis-grid" data-z-index="1" aria-hidden="true" fill="none"><path data-z-index="1" class="highcharts-grid-line" d="M97.5 47v280m115-280v280m116-280v280m116-280v280m115-280v280"/></g><g class="highcharts-grid highcharts-yaxis-grid" data-z-index="1" aria-hidden="true" fill="none" stroke="#707073"><path data-z-index="1" class="highcharts-grid-line" d="M59 327.5h531m-531-47h531m-531-46h531m-531-47h531m-531-47h531m-531-46h531m-531-48h531"/></g><g class="highcharts-axis highcharts-xaxis" data-z-index="2" aria-hidden="true" fill="none" stroke="#707073"><path class="highcharts-tick" d="M97.5 327v10m115-10v10m116-10v10m116-10v10m115-10v10"/><path class="highcharts-axis-line" data-z-index="7" d="M59 327.5h531"/></g><g class="highcharts-axis highcharts-yaxis" data-z-index="2" aria-hidden="true"><path fill="none" class="highcharts-tick" stroke="#707073" d="M59 327.5H49m10-47H49m10-46H49m10-47H49m10-47H49m10-46H49m10-48H49"/><text x="24.219" data-z-index="7" text-anchor="middle" transform="rotate(-90 24.219 187)" class="highcharts-axis-title" style="color:#a0a0a3;fill:#a0a0a3" y="187">Values</text><path fill="none" class="highcharts-axis-line" data-z-index="7" d="M59 47v280"/></g><g class="highcharts-series-group" data-z-index="3" aria-hidden="false"><g class="highcharts-series highcharts-series-0 highcharts-spline-series highcharts-color-0" data-z-index=".1" clip-path="url(#b)" aria-hidden="true" fill="none" stroke-linejoin="round" stroke-linecap="round" transform="translate(59 47)"><path d="M5.206 97.909s34.706 78.338 57.843 106.43c23.137 28.09 34.706 34.025 57.843 34.025s34.706-23.134 57.843-23.134c23.138 0 34.706 39.446 57.843 39.446 23.138 0 34.706-217.679 57.844-217.679 23.137 0 34.705 0 57.843 4.87 23.137 4.87 34.706 60.464 57.843 94.134s34.706 74.214 57.843 74.214 57.843-1.407 57.843-1.407" class="highcharts-graph" data-z-index="1" stroke="#2b908f" stroke-width="2"/><path d="M5.206 97.909s34.706 78.338 57.843 106.43c23.137 28.09 34.706 34.025 57.843 34.025s34.706-23.134 57.843-23.134c23.138 0 34.706 39.446 57.843 39.446 23.138 0 34.706-217.679 57.844-217.679 23.137 0 34.705 0 57.843 4.87 23.137 4.87 34.706 60.464 57.843 94.134s34.706 74.214 57.843 74.214 57.843-1.407 57.843-1.407" data-z-index="2" class="highcharts-tracker-line" stroke="rgba(192,192,192,0.0001)" stroke-width="22"/></g><g class="highcharts-markers highcharts-series-0 highcharts-spline-series highcharts-color-0 highcharts-tracker" data-z-index=".1" aria-hidden="false" fill="#2b908f"><path d="M5 101.909a4 4 0 1 1 .004 0Z" class="highcharts-point highcharts-color-0" tabindex="-1" aria-label="Wednesday, Nov 30, 08:01:25.421, 1.8039197867172585. Value." style="outline:0" transform="translate(59 47)"/><path d="M63 208.338a4 4 0 1 1 .004 0Z" class="highcharts-point highcharts-negative highcharts-color-0" tabindex="-1" aria-label="Wednesday, Nov 30, 08:01:26.421, -2.7573519162142057. Value." style="outline:0" transform="translate(59 47)"/><path d="M120 242.364a4 4 0 1 1 .004 0Z" class="highcharts-point highcharts-negative highcharts-color-0" tabindex="-1" aria-label="Wednesday, Nov 30, 08:01:27.421, -4.215610739768721. Value." style="outline:0" transform="translate(59 47)"/><path d="M178 219.23a4 4 0 1 1 .004 0Z" class="highcharts-point highcharts-negative highcharts-color-0" tabindex="-1" aria-label="Wednesday, Nov 30, 08:01:28.421, -3.224152508557083. Value." style="outline:0" transform="translate(59 47)"/><path d="M236 258.676a4 4 0 1 1 .004 0Z" class="highcharts-point highcharts-negative highcharts-color-0" tabindex="-1" aria-label="Wednesday, Nov 30, 08:01:29.421, -4.914697202825465. Value." style="outline:0" transform="translate(59 47)"/><path d="M294 40.997a4 4 0 1 1 .004 0Z" class="highcharts-point highcharts-color-0" tabindex="-1" aria-label="Wednesday, Nov 30, 08:01:30.421, 4.414406389411408. Value." style="outline:0" transform="translate(59 47)"/><path d="M352 45.867a4 4 0 1 1 .004 0Z" class="highcharts-point highcharts-color-0" tabindex="-1" aria-label="Wednesday, Nov 30, 08:01:31.421, 4.205693160927613. Value." style="outline:0" transform="translate(59 47)"/><path d="M410 140a4 4 0 1 1 .004 0Z" class="highcharts-point highcharts-color-0" tabindex="-1" aria-label="Wednesday, Nov 30, 08:01:32.421, 0.17140687848280756. Value." style="outline:0" transform="translate(59 47)"/><path d="M467 214a4 4 0 1 1 .004 0Z" class="highcharts-point highcharts-negative highcharts-color-0" tabindex="-1" aria-label="Wednesday, Nov 30, 08:01:33.421, -3.0092341606553923. Value." style="outline:0" transform="translate(59 47)"/><path d="M525 213a4 4 0 1 1 .004 0Z" class="highcharts-point highcharts-negative highcharts-color-0" tabindex="-1" aria-label="Wednesday, Nov 30, 08:01:34.421, -2.9489032070707673. Value." style="outline:0" transform="translate(59 47)"/></g></g><text x="300" text-anchor="middle" class="highcharts-title" data-z-index="4" style="color:#e0e0e3;font-size:20px;text-transform:uppercase;fill:#e0e0e3" y="25" aria-hidden="true">Live Data</text><g class="highcharts-legend highcharts-no-tooltip" data-z-index="7" transform="translate(266 359)" aria-hidden="true"><rect fill="rgba(0, 0, 0, 0.5)" class="highcharts-legend-box" rx="0" ry="0" width="68" height="26"/><g class="highcharts-legend-item highcharts-spline-series highcharts-color-0 highcharts-series-0" data-z-index="1"><path fill="none" d="M8 14h16" class="highcharts-graph" stroke-width="2" stroke="#2b908f"/><path fill="#2b908f" d="M16 18a4 4 0 1 1 .004 0Z" class="highcharts-point"/><text x="21" y="15" data-z-index="2" style="color:#e0e0e3;cursor:pointer;font-size:12px;font-weight:700;fill:#e0e0e3" transform="translate(8 3)">Value</text></g></g><g class="highcharts-axis-labels highcharts-xaxis-labels" data-z-index="7" aria-hidden="true" text-anchor="middle"><text x="97.697" style="color:#e0e0e3;cursor:default;font-size:11px;fill:#e0e0e3" y="346">08:01:26</text><text x="213.383" style="color:#e0e0e3;cursor:default;font-size:11px;fill:#e0e0e3" y="346">08:01:28</text><text x="329.07" y="346" style="color:#e0e0e3;cursor:default;font-size:11px;fill:#e0e0e3">08:01:30</text><text x="444.756" y="346" style="color:#e0e0e3;cursor:default;font-size:11px;fill:#e0e0e3">08:01:32</text><text x="560.442" y="346" style="color:#e0e0e3;cursor:default;font-size:11px;fill:#e0e0e3">08:01:34</text></g><g class="highcharts-axis-labels highcharts-yaxis-labels" data-z-index="7" aria-hidden="true" text-anchor="end"><text x="44" style="color:#e0e0e3;cursor:default;font-size:11px;fill:#e0e0e3" y="332">-6</text><text x="44" style="color:#e0e0e3;cursor:default;font-size:11px;fill:#e0e0e3" y="285">-4</text><text x="44" style="color:#e0e0e3;cursor:default;font-size:11px;fill:#e0e0e3" y="238">-2</text><text x="44" style="color:#e0e0e3;cursor:default;font-size:11px;fill:#e0e0e3" y="192">0</text><text x="44" style="color:#e0e0e3;cursor:default;font-size:11px;fill:#e0e0e3" y="145">2</text><text x="44" style="color:#e0e0e3;cursor:default;font-size:11px;fill:#e0e0e3" y="98">4</text><text x="44" style="color:#e0e0e3;cursor:default;font-size:11px;fill:#e0e0e3" y="52">6</text></g></svg>