<svg class="highcharts-root" style="font-family:&quot;Unica One&quot;,sans-serif;font-size:12px" xmlns="http://www.w3.org/2000/svg" width="600" height="400" aria-label="Interactive chart" aria-hidden="false"><defs aria-hidden="true"><linearGradient x1="0" y1="0" x2="1" y2="1" id="a"><stop offset="0" stop-color="#2a2a2b"/><stop offset="1" stop-color="#3e3e40"/></linearGradient></defs><rect fill="url(#a)" class="highcharts-background" width="600" height="400" rx="0" ry="0" aria-hidden="true"/><path fill="none" class="highcharts-plot-background" aria-hidden="true" d="M85 61h505v260H85z"/><g class="highcharts-grid highcharts-xaxis-grid" data-z-index="1" aria-hidden="true" fill="none"><path data-z-index="1" class="highcharts-grid-line" d="M135.5 61v260m50-260v260m51-260v260m50-260v260m51-260v260m50-260v260m51-260v260m50-260v260m51-260v260m50-260v260M84.5 61v260"/></g><g class="highcharts-grid highcharts-yaxis-grid" data-z-index="1" aria-hidden="true" fill="none" stroke="#707073"><path data-z-index="1" class="highcharts-grid-line" d="M85 321.5h505m-505-65h505m-505-65h505m-505-65h505m-505-66h505"/></g><path fill="none" class="highcharts-plot-border" data-z-index="1" aria-hidden="true" d="M85 61h505v260H85z"/><g class="highcharts-axis highcharts-xaxis" data-z-index="2" aria-hidden="true"><path fill="none" class="highcharts-axis-line" stroke="#707073" data-z-index="7" d="M85 321.5h505"/></g><g class="highcharts-axis highcharts-yaxis" data-z-index="2" aria-hidden="true"><path fill="none" class="highcharts-tick" stroke="#707073" d="M85 321.5H75m10-65H75m10-65H75m10-65H75m10-66H75"/><text x="23.305" data-z-index="7" text-anchor="middle" transform="rotate(-90 23.305 191)" class="highcharts-axis-title" style="color:#a0a0a3;fill:#a0a0a3" y="191">Population</text><path fill="none" class="highcharts-axis-line" data-z-index="7" d="M85 61v260"/></g><g class="highcharts-series-group" data-z-index="3" aria-hidden="false"><g class="highcharts-markers highcharts-series-0 highcharts-lollipop-series highcharts-color-0 highcharts-tracker" data-z-index=".1" aria-hidden="false"><path fill="none" class="highcharts-lollipop-stem" data-z-index="-1" d="M110.5 133.252V321m50-181.143V321m51-43.279V321m50-35.927V321m51-29.276V321m50-27.82V321m51-27.482V321m50-21.62V321m51-18.969V321m50-16.934V321" stroke="#2b908f"/><path fill="#2b908f" d="M25 76a4 4 0 1 1 .004 0Z" class="highcharts-point highcharts-color-0 highcharts-lollipop-low" tabindex="-1" aria-label="1. China, 1444216107. Population." style="outline:0" transform="translate(85 61)"/><path fill="#2b908f" d="M75 82a4 4 0 1 1 .004 0Z" class="highcharts-point highcharts-color-0 highcharts-lollipop-low" tabindex="-1" aria-label="2. India, 1393409038. Population." style="outline:0" transform="translate(85 61)"/><path fill="#2b908f" d="M126 220a4 4 0 1 1 .004 0Z" class="highcharts-point highcharts-color-0 highcharts-lollipop-low" tabindex="-1" aria-label="3. United States, 332915073. Population." style="outline:0" transform="translate(85 61)"/><path fill="#2b908f" d="M176 228a4 4 0 1 1 .004 0Z" class="highcharts-point highcharts-color-0 highcharts-lollipop-low" tabindex="-1" aria-label="4. Indonesia, 276361783. Population." style="outline:0" transform="translate(85 61)"/><path fill="#2b908f" d="M227 234a4 4 0 1 1 .004 0Z" class="highcharts-point highcharts-color-0 highcharts-lollipop-low" tabindex="-1" aria-label="5. Pakistan, 225199937. Population." style="outline:0" transform="translate(85 61)"/><path fill="#2b908f" d="M277 236a4 4 0 1 1 .004 0Z" class="highcharts-point highcharts-color-0 highcharts-lollipop-low" tabindex="-1" aria-label="6. Brazil, 213993437. Population." style="outline:0" transform="translate(85 61)"/><path fill="#2b908f" d="M328 236a4 4 0 1 1 .004 0Z" class="highcharts-point highcharts-color-0 highcharts-lollipop-low" tabindex="-1" aria-label="7. Nigeria, 211400708. Population." style="outline:0" transform="translate(85 61)"/><path fill="#2b908f" d="M378 242a4 4 0 1 1 .004 0Z" class="highcharts-point highcharts-color-0 highcharts-lollipop-low" tabindex="-1" aria-label="8. Bangladesh, 166303498. Population." style="outline:0" transform="translate(85 61)"/><path fill="#2b908f" d="M429 245a4 4 0 1 1 .004 0Z" class="highcharts-point highcharts-color-0 highcharts-lollipop-low" tabindex="-1" aria-label="9. Russia, 145912025. Population." style="outline:0" transform="translate(85 61)"/><path fill="#2b908f" d="M479 247a4 4 0 1 1 .004 0Z" class="highcharts-point highcharts-color-0 highcharts-lollipop-low" tabindex="-1" aria-label="10. Mexico, 130262216. Population." style="outline:0" transform="translate(85 61)"/></g></g><text x="300" text-anchor="middle" class="highcharts-title" data-z-index="4" style="color:#e0e0e3;font-size:20px;text-transform:uppercase;fill:#e0e0e3" y="25" aria-hidden="true">Top 10 Countries by Population</text><text x="300" text-anchor="middle" class="highcharts-subtitle" data-z-index="4" style="color:#e0e0e3;text-transform:uppercase;fill:#e0e0e3" y="46" aria-hidden="true">2021</text><g class="highcharts-axis-labels highcharts-xaxis-labels" data-z-index="7" aria-hidden="true" text-anchor="end"><text x="112.843" transform="rotate(-45 112.843 337)" style="color:#e0e0e3;cursor:default;font-size:11px;fill:#e0e0e3" y="337">China</text><text x="163.343" transform="rotate(-45 163.343 337)" style="color:#e0e0e3;cursor:default;font-size:11px;fill:#e0e0e3" y="337">India</text><text x="213.843" transform="rotate(-45 213.843 337)" style="color:#e0e0e3;cursor:default;font-size:11px;fill:#e0e0e3" y="337">United States</text><text x="264.343" transform="rotate(-45 264.343 337)" style="color:#e0e0e3;cursor:default;font-size:11px;fill:#e0e0e3" y="337">Indonesia</text><text x="314.843" transform="rotate(-45 314.843 337)" style="color:#e0e0e3;cursor:default;font-size:11px;fill:#e0e0e3" y="337">Pakistan</text><text x="365.343" transform="rotate(-45 365.343 337)" style="color:#e0e0e3;cursor:default;font-size:11px;fill:#e0e0e3" y="337">Brazil</text><text x="415.843" transform="rotate(-45 415.843 337)" style="color:#e0e0e3;cursor:default;font-size:11px;fill:#e0e0e3" y="337">Nigeria</text><text x="466.343" transform="rotate(-45 466.343 337)" style="color:#e0e0e3;cursor:default;font-size:11px;fill:#e0e0e3" y="337">Bangladesh</text><text x="516.843" transform="rotate(-45 516.843 337)" style="color:#e0e0e3;cursor:default;font-size:11px;fill:#e0e0e3" y="337">Russia</text><text x="567.343" transform="rotate(-45 567.343 337)" style="color:#e0e0e3;cursor:default;font-size:11px;fill:#e0e0e3" y="337">Mexico</text></g><g class="highcharts-axis-labels highcharts-yaxis-labels" data-z-index="7" aria-hidden="true" text-anchor="end"><text x="70" style="color:#e0e0e3;cursor:default;font-size:11px;fill:#e0e0e3" y="326">0</text><text x="70" style="color:#e0e0e3;cursor:default;font-size:11px;fill:#e0e0e3" y="261">500M</text><text x="70" style="color:#e0e0e3;cursor:default;font-size:11px;fill:#e0e0e3" y="196">1 000M</text><text x="70" style="color:#e0e0e3;cursor:default;font-size:11px;fill:#e0e0e3" y="131">1 500M</text><text x="70" style="color:#e0e0e3;cursor:default;font-size:11px;fill:#e0e0e3" y="66">2 000M</text></g></svg>