<svg class="highcharts-root" style="font-family:&quot;Unica One&quot;,sans-serif;font-size:12px" xmlns="http://www.w3.org/2000/svg" width="600" height="400" aria-label="Interactive chart" aria-hidden="false"><defs aria-hidden="true"><radialGradient cx="290" cy="128.5" r="199.5" gradientUnits="userSpaceOnUse" id="b"><stop offset="0" stop-color="#2b908f"/><stop offset="1" stop-color="#004443"/></radialGradient><radialGradient cx="290" cy="128.5" r="199.5" gradientUnits="userSpaceOnUse" id="c"><stop offset="0" stop-color="#90ee7e"/><stop offset="1" stop-color="#44A232"/></radialGradient><radialGradient cx="290" cy="128.5" r="199.5" gradientUnits="userSpaceOnUse" id="d"><stop offset="0" stop-color="#f45b5b"/><stop offset="1" stop-color="#A80F0F"/></radialGradient><radialGradient cx="290" cy="128.5" r="199.5" gradientUnits="userSpaceOnUse" id="e"><stop offset="0" stop-color="#7798BF"/><stop offset="1" stop-color="#2B4C73"/></radialGradient><radialGradient cx="290" cy="128.5" r="199.5" gradientUnits="userSpaceOnUse" id="f"><stop offset="0" stop-color="#aee"/><stop offset="1" stop-color="#5EA2A2"/></radialGradient><radialGradient cx="290" cy="128.5" r="199.5" gradientUnits="userSpaceOnUse" id="g"><stop offset="0" stop-color="#f06"/><stop offset="1" stop-color="#B3001A"/></radialGradient><linearGradient x1="0" y1="0" x2="1" y2="1" id="a"><stop offset="0" stop-color="#2a2a2b"/><stop offset="1" stop-color="#3e3e40"/></linearGradient></defs><rect fill="url(#a)" class="highcharts-background" width="600" height="400" rx="0" ry="0" aria-hidden="true"/><path fill="none" class="highcharts-plot-background" aria-hidden="true" d="M10 47h580v338H10z"/><path fill="none" class="highcharts-plot-border" data-z-index="1" aria-hidden="true" d="M10 47h580v338H10z"/><g class="highcharts-series-group" data-z-index="3" aria-hidden="false"><g class="highcharts-series highcharts-series-0 highcharts-pie-series highcharts-tracker" data-z-index=".1" style="cursor:pointer" aria-hidden="false" stroke="#fff" stroke-linejoin="round"><path fill="url(#b)" d="M289.971 43a142.5 142.5 0 1 1-141.6 158.227L290 185.5Z" transform="translate(10 47)" class="highcharts-point highcharts-color-0" tabindex="-1" aria-label="Chrome, 73.24%. Share." style="outline:0"/><path fill="url(#c)" d="M148.355 201.086a142.5 142.5 0 0 1 32.876-107.65L290 185.5Z" transform="translate(10 47)" class="highcharts-point highcharts-color-1" tabindex="-1" aria-label="Edge, 12.93%. Share." style="outline:0"/><path fill="url(#d)" d="M181.323 93.328a142.5 142.5 0 0 1 31.613-27.692L290 185.5Z" transform="translate(10 47)" class="highcharts-point highcharts-color-2" tabindex="-1" aria-label="Firefox, 4.73%. Share." style="outline:0"/><path fill="url(#e)" d="M213.056 65.559a142.5 142.5 0 0 1 19.57-10.498L290 185.5Z" transform="translate(10 47)" class="highcharts-point highcharts-color-3" tabindex="-1" aria-label="Safari, 2.5%. Share." style="outline:0"/><path fill="url(#f)" d="M232.756 55.004a142.5 142.5 0 0 1 13.72-5.195L290 185.5Z" transform="translate(10 47)" class="highcharts-point highcharts-color-4" tabindex="-1" aria-label="Internet Explorer, 1.65%. Share." style="outline:0"/><path fill="url(#g)" d="M246.612 49.766A142.5 142.5 0 0 1 289.802 43L290 185.5Z" transform="translate(10 47)" class="highcharts-point highcharts-color-5" tabindex="-1" aria-label="Other, 4.93%. Share." style="outline:0"/></g></g><text x="300" text-anchor="middle" class="highcharts-title" data-z-index="4" style="color:#e0e0e3;font-size:20px;text-transform:uppercase;fill:#e0e0e3" y="25" aria-hidden="true">Browser market shares in April, 2022</text><g class="highcharts-data-labels highcharts-series-0 highcharts-pie-series highcharts-tracker" data-z-index="6" style="cursor:pointer" aria-hidden="true"><path fill="none" class="highcharts-data-label-connector highcharts-color-0" stroke="silver" d="M433.477 347.608c-5 0-18.406-12.011-22.875-16.015l-4.468-4.004"/><path fill="none" class="highcharts-data-label-connector highcharts-color-1" stroke="silver" d="M130.033 182.08c5 0 22.214 5.26 27.952 7.014l5.738 1.754"/><path fill="none" class="highcharts-data-label-connector highcharts-color-2" stroke="silver" d="M152.698 135c5 0 45.514-18.73 49.467-14.216l3.953 4.514"/><path fill="none" class="highcharts-data-label-connector highcharts-color-3" stroke="silver" d="M173.55 110c5 0 53.456-13.67 56.29-8.381l2.835 5.288"/><path fill="none" class="highcharts-data-label-connector highcharts-color-4" stroke="silver" d="M205.557 85c5 0 39.775 2.995 41.898 8.607l2.123 5.612"/><path fill="none" class="highcharts-data-label-connector highcharts-color-5" stroke="silver" d="M268.385 60c5 0 7.777 19.85 8.703 25.778l.925 5.928"/><g style="cursor:pointer"><text x="5" data-z-index="1" y="18" style="color:#f0f0f3;font-size:13px;font-weight:700;fill:#f0f0f3" transform="translate(438 338)" class="highcharts-label highcharts-data-label highcharts-data-label-color-0"><tspan class="highcharts-text-outline" fill="#000" stroke="#000" stroke-width="2" stroke-linejoin="round"><tspan style="font-weight:700">Chrome</tspan>: 73.3 %<tspan x="5" dy="0">​</tspan></tspan><tspan style="font-weight:700">Chrome</tspan>: 73.3 %</text></g><g style="cursor:pointer"><text x="5" data-z-index="1" y="18" style="color:#f0f0f3;font-size:13px;font-weight:700;fill:#f0f0f3" transform="translate(35 172)" class="highcharts-label highcharts-data-label highcharts-data-label-color-1"><tspan class="highcharts-text-outline" fill="#000" stroke="#000" stroke-width="2" stroke-linejoin="round"><tspan style="font-weight:700">Edge</tspan>: 12.9 %<tspan x="5" dy="0">​</tspan></tspan><tspan style="font-weight:700">Edge</tspan>: 12.9 %</text></g><g style="cursor:pointer"><text x="5" data-z-index="1" y="18" style="color:#f0f0f3;font-size:13px;font-weight:700;fill:#f0f0f3" transform="translate(53 125)" class="highcharts-label highcharts-data-label highcharts-data-label-color-2"><tspan class="highcharts-text-outline" fill="#000" stroke="#000" stroke-width="2" stroke-linejoin="round"><tspan style="font-weight:700">Firefox</tspan>: 4.7 %<tspan x="5" dy="0">​</tspan></tspan><tspan style="font-weight:700">Firefox</tspan>: 4.7 %</text></g><g style="cursor:pointer"><text x="5" data-z-index="1" y="18" style="color:#f0f0f3;font-size:13px;font-weight:700;fill:#f0f0f3" transform="translate(81 100)" class="highcharts-label highcharts-data-label highcharts-data-label-color-3"><tspan class="highcharts-text-outline" fill="#000" stroke="#000" stroke-width="2" stroke-linejoin="round"><tspan style="font-weight:700">Safari</tspan>: 2.5 %<tspan x="5" dy="0">​</tspan></tspan><tspan style="font-weight:700">Safari</tspan>: 2.5 %</text></g><g style="cursor:pointer"><text x="5" data-z-index="1" y="18" style="color:#f0f0f3;font-size:13px;font-weight:700;fill:#f0f0f3" transform="translate(45 75)" class="highcharts-label highcharts-data-label highcharts-data-label-color-4"><tspan class="highcharts-text-outline" fill="#000" stroke="#000" stroke-width="2" stroke-linejoin="round"><tspan style="font-weight:700">Internet Explorer</tspan>: 1.7 %<tspan x="5" dy="0">​</tspan></tspan><tspan style="font-weight:700">Internet Explorer</tspan>: 1.7 %</text></g><g style="cursor:pointer"><text x="5" data-z-index="1" y="18" style="color:#f0f0f3;font-size:13px;font-weight:700;fill:#f0f0f3" transform="translate(178 50)" class="highcharts-label highcharts-data-label highcharts-data-label-color-5"><tspan class="highcharts-text-outline" fill="#000" stroke="#000" stroke-width="2" stroke-linejoin="round"><tspan style="font-weight:700">Other</tspan>: 4.9 %<tspan x="5" dy="0">​</tspan></tspan><tspan style="font-weight:700">Other</tspan>: 4.9 %</text></g></g></svg>