<svg class="highcharts-root" style="font-family:&quot;Unica One&quot;,sans-serif;font-size:12px" xmlns="http://www.w3.org/2000/svg" width="600" height="400" aria-label="Interactive chart" aria-hidden="false"><defs aria-hidden="true"><linearGradient x1="0" y1="0" x2="1" y2="1" id="a"><stop offset="0" stop-color="#2a2a2b"/><stop offset="1" stop-color="#3e3e40"/></linearGradient></defs><rect fill="url(#a)" class="highcharts-background" width="600" height="400" rx="0" ry="0" aria-hidden="true"/><path fill="none" class="highcharts-plot-background" aria-hidden="true" d="M10 61h580v324H10z"/><path fill="none" class="highcharts-plot-border" data-z-index="1" aria-hidden="true" d="M10 61h580v324H10z"/><g class="highcharts-series-group" data-z-index="3" aria-hidden="false" stroke="#fff" stroke-linejoin="round"><g class="highcharts-series highcharts-series-0 highcharts-pie-series highcharts-tracker" data-z-index=".1" aria-hidden="false" tabindex="-1" aria-label="Browsers, pie 1 of 2 with 5 slices." style="outline:0"><path fill="#f45b5b" d="M289.98 66.8a95.2 95.2 0 1 1-63.551 166.064L290 162Z" transform="translate(10 61)" class="highcharts-point highcharts-color-0" tabindex="-1" aria-label="Chrome, 61.04%. Browsers." style="outline:0"/><path fill="#7798BF" d="M226.358 232.8a95.2 95.2 0 0 1-28.861-48.3L290 162Z" transform="translate(10 61)" class="highcharts-point highcharts-color-1" tabindex="-1" aria-label="Safari, 9.47%. Browsers." style="outline:0"/><path fill="#f06" d="M197.474 184.407a95.2 95.2 0 0 1 3.21-55.355L290 162Z" transform="translate(10 61)" class="highcharts-point highcharts-color-2" tabindex="-1" aria-label="Edge, 9.32%. Browsers." style="outline:0"/><path fill="#90ee7e" d="M200.716 128.962a95.2 95.2 0 0 1 27.926-39.751L290 162Z" transform="translate(10 61)" class="highcharts-point highcharts-color-3" tabindex="-1" aria-label="Firefox, 8.15%. Browsers." style="outline:0"/><path fill="#eae" d="M228.715 89.15a95.2 95.2 0 0 1 61.153-22.35L290 162Z" transform="translate(10 61)" class="highcharts-point highcharts-color-4" tabindex="-1" aria-label="Other, 11.02%. Browsers." style="outline:0"/></g><g class="highcharts-series highcharts-series-1 highcharts-pie-series highcharts-tracker" data-z-index=".1" aria-hidden="false" tabindex="-1" aria-label="Versions, pie 2 of 2 with 44 slices." style="outline:0"><path fill="#FF8E8E" d="M289.975 38.4a123.6 123.6 0 0 1 88.414 209.997l-35.356-34.56A74.16 74.16 0 0 0 289.985 87.84Z" transform="translate(10 61)" class="highcharts-point highcharts-color-0" tabindex="-1" aria-label="Chrome v97.0, 36.89%. Versions." style="outline:0"/><path fill="#FF8B8B" d="M378.302 248.485a123.6 123.6 0 0 1-131.52 29.313l17.288-46.32a74.16 74.16 0 0 0 78.911-17.587Z" transform="translate(10 61)" class="highcharts-point highcharts-color-1" tabindex="-1" aria-label="Chrome v96.0, 18.16%. Versions." style="outline:0"/><path fill="#FF8989" d="M246.667 277.755a123.6 123.6 0 0 1-3.796-1.493l18.852-45.705a74.16 74.16 0 0 0 2.277.896Z" transform="translate(10 61)" class="highcharts-point highcharts-color-2" tabindex="-1" aria-label="Chrome v95.0, 0.54%. Versions." style="outline:0"/><path fill="#FF8787" d="M242.757 276.215a123.6 123.6 0 0 1-4.978-2.189l20.888-44.81a74.16 74.16 0 0 0 2.987 1.313Z" transform="translate(10 61)" class="highcharts-point highcharts-color-3" tabindex="-1" aria-label="Chrome v94.0, 0.7%. Versions." style="outline:0"/><path fill="#FF8585" d="M237.667 273.974a123.6 123.6 0 0 1-5.531-2.755l23.145-43.688a74.16 74.16 0 0 0 3.32 1.653Z" transform="translate(10 61)" class="highcharts-point highcharts-color-4" tabindex="-1" aria-label="Chrome v93.0, 0.8%. Versions." style="outline:0"/><path fill="#FF8383" d="M232.027 271.16a123.6 123.6 0 0 1-2.711-1.483l24.274-43.07a74.16 74.16 0 0 0 1.626.89Z" transform="translate(10 61)" class="highcharts-point highcharts-color-5" tabindex="-1" aria-label="Chrome v92.0, 0.41%. Versions." style="outline:0"/><path fill="#FF8181" d="M229.208 269.617a123.6 123.6 0 0 1-2.033-1.175l25.13-42.577a74.16 74.16 0 0 0 1.22.705Z" transform="translate(10 61)" class="highcharts-point highcharts-color-6" tabindex="-1" aria-label="Chrome v91.0, 0.31%. Versions." style="outline:0"/><path fill="#FF7F7F" d="M227.068 268.38a123.6 123.6 0 0 1-.743-.444l25.47-42.374a74.16 74.16 0 0 0 .446.266Z" transform="translate(10 61)" class="highcharts-point highcharts-color-7" tabindex="-1" aria-label="Chrome v90.0, 0.13%. Versions." style="outline:0"/><path fill="#FF7D7D" d="M226.22 267.872a123.6 123.6 0 0 1-.846-.513l25.85-42.144a74.16 74.16 0 0 0 .508.308Z" transform="translate(10 61)" class="highcharts-point highcharts-color-8" tabindex="-1" aria-label="Chrome v89.0, 0.14%. Versions." style="outline:0"/><path fill="#FF7B7B" d="M225.27 267.294a123.6 123.6 0 0 1-.527-.325l26.103-41.987a74.16 74.16 0 0 0 .315.195Z" transform="translate(10 61)" class="highcharts-point highcharts-color-9" tabindex="-1" aria-label="Chrome v88.0, 0.1%. Versions." style="outline:0"/><path fill="#FF7979" d="M224.638 266.904a123.6 123.6 0 0 1-2.188-1.396l27.02-41.403a74.16 74.16 0 0 0 1.313.837Z" transform="translate(10 61)" class="highcharts-point highcharts-color-10" tabindex="-1" aria-label="Chrome v87.0, 0.35%. Versions." style="outline:0"/><path fill="#F77" d="M222.347 265.44a123.6 123.6 0 0 1-1.031-.681l27.473-41.104a74.16 74.16 0 0 0 .619.41Z" transform="translate(10 61)" class="highcharts-point highcharts-color-0" tabindex="-1" aria-label="Chrome v86.0, 0.17%. Versions." style="outline:0"/><path fill="#FF7575" d="M221.213 264.69a123.6 123.6 0 0 1-1.126-.763l27.965-40.77a74.16 74.16 0 0 0 .676.457Z" transform="translate(10 61)" class="highcharts-point highcharts-color-1" tabindex="-1" aria-label="Chrome v85.0, 0.18%. Versions." style="outline:0"/><path fill="#FF7373" d="M219.986 263.857a123.6 123.6 0 0 1-.914-.634l28.371-40.49a74.16 74.16 0 0 0 .548.381Z" transform="translate(10 61)" class="highcharts-point highcharts-color-2" tabindex="-1" aria-label="Chrome v84.0, 0.17%. Versions." style="outline:0"/><path fill="#FF7171" d="M218.97 263.152a123.6 123.6 0 0 1-1.308-.932l28.935-40.088a74.16 74.16 0 0 0 .785.56Z" transform="translate(10 61)" class="highcharts-point highcharts-color-3" tabindex="-1" aria-label="Chrome v83.0, 0.21%. Versions." style="outline:0"/><path fill="#FF6F6F" d="M217.561 262.148a123.6 123.6 0 0 1-.5-.364l29.176-39.913a74.16 74.16 0 0 0 .3.218Z" transform="translate(10 61)" class="highcharts-point highcharts-color-4" tabindex="-1" aria-label="Chrome v81.0, 0.1%. Versions." style="outline:0"/><path fill="#FF6D6D" d="M216.962 261.711a123.6 123.6 0 0 1-.895-.66l29.573-39.62a74.16 74.16 0 0 0 .537.396Z" transform="translate(10 61)" class="highcharts-point highcharts-color-5" tabindex="-1" aria-label="Chrome v89.0, 0.16%. Versions." style="outline:0"/><path fill="#FF6B6B" d="M215.968 260.976a123.6 123.6 0 0 1-2.645-2.035l30.671-38.776a74.16 74.16 0 0 0 1.587 1.22Z" transform="translate(10 61)" class="highcharts-point highcharts-color-6" tabindex="-1" aria-label="Chrome v79.0, 0.43%. Versions." style="outline:0"/><path fill="#FF6969" d="M213.226 258.865a123.6 123.6 0 0 1-.58-.463l30.942-38.56a74.16 74.16 0 0 0 .348.277Z" transform="translate(10 61)" class="highcharts-point highcharts-color-7" tabindex="-1" aria-label="Chrome v78.0, 0.11%. Versions." style="outline:0"/><path fill="#FF6767" d="M212.55 258.325a123.6 123.6 0 0 1-.864-.701l31.326-38.25a74.16 74.16 0 0 0 .518.421Z" transform="translate(10 61)" class="highcharts-point highcharts-color-8" tabindex="-1" aria-label="Chrome v76.0, 0.16%. Versions." style="outline:0"/><path fill="#FE6565" d="M211.59 257.546a123.6 123.6 0 0 1-.761-.63l31.668-37.967a74.16 74.16 0 0 0 .458.378Z" transform="translate(10 61)" class="highcharts-point highcharts-color-9" tabindex="-1" aria-label="Chrome v75.0, 0.15%. Versions." style="outline:0"/><path fill="#FC6363" d="M210.734 256.836a123.6 123.6 0 0 1-.756-.637l32.009-37.68a74.16 74.16 0 0 0 .453.383Z" transform="translate(10 61)" class="highcharts-point highcharts-color-10" tabindex="-1" aria-label="Chrome v72.0, 0.14%. Versions." style="outline:0"/><path fill="#FA6161" d="M209.884 256.119a123.6 123.6 0 0 1-.563-.483l32.271-37.454a74.16 74.16 0 0 0 .338.29Z" transform="translate(10 61)" class="highcharts-point highcharts-color-0" tabindex="-1" aria-label="Chrome v70.0, 0.11%. Versions." style="outline:0"/><path fill="#F85F5F" d="M209.227 255.556a123.6 123.6 0 0 1-.653-.568l32.57-37.195a74.16 74.16 0 0 0 .392.34Z" transform="translate(10 61)" class="highcharts-point highcharts-color-1" tabindex="-1" aria-label="Chrome v69.0, 0.13%. Versions." style="outline:0"/><path fill="#F65D5D" d="M208.481 254.907a123.6 123.6 0 0 1-.648-.573L240.7 217.4a74.16 74.16 0 0 0 .389.344Z" transform="translate(10 61)" class="highcharts-point highcharts-color-2" tabindex="-1" aria-label="Chrome v56.0, 0.12%. Versions." style="outline:0"/><path fill="#AACBF2" d="M207.74 254.251a123.6 123.6 0 0 1-.46-.412l33.088-36.736a74.16 74.16 0 0 0 .276.248Z" transform="translate(10 61)" class="highcharts-point highcharts-color-3" tabindex="-1" aria-label="Safari v15.3, 0.1%. Versions." style="outline:0"/><path fill="#A4C5EC" d="M207.188 253.756a123.6 123.6 0 0 1-10.954-11.228l37.506-32.21a74.16 74.16 0 0 0 6.573 6.736Z" transform="translate(10 61)" class="highcharts-point highcharts-color-4" tabindex="-1" aria-label="Safari v15.2, 2.01%. Versions." style="outline:0"/><path fill="#9EBFE6" d="M196.153 242.435a123.6 123.6 0 0 1-10.637-14.405l41.793-26.412a74.16 74.16 0 0 0 6.383 8.643Z" transform="translate(10 61)" class="highcharts-point highcharts-color-5" tabindex="-1" aria-label="Safari v15.1, 2.29%. Versions." style="outline:0"/><path fill="#99BAE1" d="M185.45 227.926a123.6 123.6 0 0 1-1.93-3.166l42.592-25.104a74.16 74.16 0 0 0 1.158 1.9Z" transform="translate(10 61)" class="highcharts-point highcharts-color-6" tabindex="-1" aria-label="Safari v15.0, 0.49%. Versions." style="outline:0"/><path fill="#93B4DB" d="M183.457 224.654a123.6 123.6 0 0 1-8.486-17.43l46.011-18.09a74.16 74.16 0 0 0 5.092 10.458Z" transform="translate(10 61)" class="highcharts-point highcharts-color-7" tabindex="-1" aria-label="Safari v14.1, 2.48%. Versions." style="outline:0"/><path fill="#8DAED5" d="M174.926 207.11a123.6 123.6 0 0 1-1.672-4.522l46.699-16.235a74.16 74.16 0 0 0 1.002 2.713Z" transform="translate(10 61)" class="highcharts-point highcharts-color-8" tabindex="-1" aria-label="Safari v14.0, 0.64%. Versions." style="outline:0"/><path fill="#88A9D0" d="M173.214 202.472a123.6 123.6 0 0 1-2.673-8.746l47.784-12.69a74.16 74.16 0 0 0 1.603 5.247Z" transform="translate(10 61)" class="highcharts-point highcharts-color-9" tabindex="-1" aria-label="Safari v13.1, 1.17%. Versions." style="outline:0"/><path fill="#82A3CA" d="M170.51 193.607a123.6 123.6 0 0 1-.219-.837l47.884-12.308a74.16 74.16 0 0 0 .13.502Z" transform="translate(10 61)" class="highcharts-point highcharts-color-10" tabindex="-1" aria-label="Safari v13.0, 0.13%. Versions." style="outline:0"/><path fill="#7C9DC4" d="M170.26 192.65a123.6 123.6 0 0 1-.27-1.079l48.004-11.828a74.16 74.16 0 0 0 .162.647Z" transform="translate(10 61)" class="highcharts-point highcharts-color-0" tabindex="-1" aria-label="Safari v12.1, 0.16%. Versions." style="outline:0"/><path fill="#F39" d="M169.96 191.451a123.6 123.6 0 0 1-1.576-51.507l48.646 8.822a74.16 74.16 0 0 0 .946 30.905Z" transform="translate(10 61)" class="highcharts-point highcharts-color-1" tabindex="-1" aria-label="Edge v97, 6.62%. Versions." style="outline:0"/><path fill="#F28" d="M168.406 139.822a123.6 123.6 0 0 1 5.128-19.205l46.586 16.553a74.16 74.16 0 0 0-3.076 11.523Z" transform="translate(10 61)" class="highcharts-point highcharts-color-2" tabindex="-1" aria-label="Edge v96, 2.55%. Versions." style="outline:0"/><path fill="#F17" d="M173.575 120.5a123.6 123.6 0 0 1 .378-1.046l46.419 17.019a74.16 74.16 0 0 0-.227.627Z" transform="translate(10 61)" class="highcharts-point highcharts-color-3" tabindex="-1" aria-label="Edge v95, 0.15%. Versions." style="outline:0"/><path fill="#C3FFB1" d="M173.996 119.338a123.6 123.6 0 0 1 15.151-28.792l40.341 28.582a74.16 74.16 0 0 0-9.09 17.275Z" transform="translate(10 61)" class="highcharts-point highcharts-color-4" tabindex="-1" aria-label="Firefox v96.0, 4.17%. Versions." style="outline:0"/><path fill="#BAFFA8" d="M189.219 90.445a123.6 123.6 0 0 1 17.13-19.437l33.46 36.397a74.16 74.16 0 0 0-10.278 11.662Z" transform="translate(10 61)" class="highcharts-point highcharts-color-5" tabindex="-1" aria-label="Firefox v95.0, 3.33%. Versions." style="outline:0"/><path fill="#B2FFA0" d="M206.44 70.925a123.6 123.6 0 0 1 .548-.5l33.205 36.63a74.16 74.16 0 0 0-.329.3Z" transform="translate(10 61)" class="highcharts-point highcharts-color-6" tabindex="-1" aria-label="Firefox v94.0, 0.11%. Versions." style="outline:0"/><path fill="#A9FF97" d="M207.08 70.342a123.6 123.6 0 0 1 1.291-1.152l32.652 37.124a74.16 74.16 0 0 0-.775.691Z" transform="translate(10 61)" class="highcharts-point highcharts-color-7" tabindex="-1" aria-label="Firefox v91.0, 0.23%. Versions." style="outline:0"/><path fill="#A1FF8F" d="M208.464 69.109a123.6 123.6 0 0 1 .84-.73l32.278 37.448a74.16 74.16 0 0 0-.504.438Z" transform="translate(10 61)" class="highcharts-point highcharts-color-8" tabindex="-1" aria-label="Firefox v78.0, 0.16%. Versions." style="outline:0"/><path fill="#98F686" d="M209.397 68.298a123.6 123.6 0 0 1 .846-.722l31.903 37.77a74.16 74.16 0 0 0-.508.433Z" transform="translate(10 61)" class="highcharts-point highcharts-color-9" tabindex="-1" aria-label="Firefox v52.0, 0.15%. Versions." style="outline:0"/><path fill="#FDF" d="M210.338 67.496a123.6 123.6 0 0 1 79.49-29.096l.069 49.44a74.16 74.16 0 0 0-47.694 17.458Z" transform="translate(10 61)" class="highcharts-point highcharts-color-10" tabindex="-1" aria-label="Other, 11.02%. Versions." style="outline:0"/></g></g><text x="300" text-anchor="middle" class="highcharts-title" data-z-index="4" style="color:#e0e0e3;font-size:20px;text-transform:uppercase;fill:#e0e0e3" y="25" aria-hidden="true">Browser market share, January, 2022</text><text x="300" text-anchor="middle" class="highcharts-subtitle" data-z-index="4" style="color:#e0e0e3;text-transform:uppercase;fill:#e0e0e3" y="46" aria-hidden="true">Source: <a target="_blank"><tspan>statcounter.com</tspan></a></text><g class="highcharts-data-labels highcharts-series-0 highcharts-pie-series highcharts-tracker" data-z-index="6" aria-hidden="true"><text x="5" data-z-index="1" y="18" style="color:#fff;font-size:13px;font-weight:700;fill:#fff" transform="translate(331 236)" class="highcharts-label highcharts-data-label highcharts-data-label-color-0"><tspan class="highcharts-text-outline" fill="#000" stroke="#000" stroke-width="2" stroke-linejoin="round">Chrome<tspan x="5" dy="0">​</tspan></tspan>Chrome</text><text x="5" data-z-index="1" y="18" style="color:#fff;font-size:13px;font-weight:700;fill:#fff" transform="translate(221 246)" class="highcharts-label highcharts-data-label highcharts-data-label-color-1"><tspan class="highcharts-text-outline" fill="#000" stroke="#000" stroke-width="2" stroke-linejoin="round">Safari<tspan x="5" dy="0">​</tspan></tspan>Safari</text><text x="5" data-z-index="1" y="18" style="color:#fff;font-size:13px;font-weight:700;fill:#fff" transform="translate(214 209)" class="highcharts-label highcharts-data-label highcharts-data-label-color-2"><tspan class="highcharts-text-outline" fill="#000" stroke="#000" stroke-width="2" stroke-linejoin="round">Edge<tspan x="5" dy="0">​</tspan></tspan>Edge</text><text x="5" data-z-index="1" y="18" style="color:#fff;font-size:13px;font-weight:700;fill:#fff" transform="translate(220 176)" class="highcharts-label highcharts-data-label highcharts-data-label-color-3"><tspan class="highcharts-text-outline" fill="#000" stroke="#000" stroke-width="2" stroke-linejoin="round">Firefox<tspan x="5" dy="0">​</tspan></tspan>Firefox</text><text x="5" data-z-index="1" y="18" style="color:#fff;font-size:13px;font-weight:700;fill:#fff" transform="translate(255 152)" class="highcharts-label highcharts-data-label highcharts-data-label-color-4"><tspan class="highcharts-text-outline" fill="#000" stroke="#000" stroke-width="2" stroke-linejoin="round">Other<tspan x="5" dy="0">​</tspan></tspan>Other</text></g><g class="highcharts-data-labels highcharts-series-1 highcharts-pie-series highcharts-tracker" data-z-index="6" aria-hidden="true"><path fill="none" class="highcharts-data-label-connector highcharts-color-0" stroke="#FF8E8E" d="M446.586 163.448c-5 0-21.592 6.979-27.123 9.305l-5.53 2.326"/><path fill="none" class="highcharts-data-label-connector highcharts-color-1" stroke="#FF8B8B" d="M338.373 372.93c-5 0-8.911-17.57-10.215-23.426l-1.303-5.857"/><path fill="none" class="highcharts-data-label-connector highcharts-color-4" stroke="#A4C5EC" d="M191.506 336.499c5 0 11.361-18.88 15.66-23.067l4.297-4.187"/><path fill="none" class="highcharts-data-label-connector highcharts-color-5" stroke="#9EBFE6" d="M169.458 311.499c5 0 21.422-7.999 26.25-11.56l4.829-3.563"/><path fill="none" class="highcharts-data-label-connector highcharts-color-7" stroke="#93B4DB" d="M155.14 286.499c5 0 22.926-4.174 28.321-6.799l5.396-2.625"/><path fill="none" class="highcharts-data-label-connector highcharts-color-9" stroke="#88A9D0" d="M146.303 261.499c5 0 23.998 1.069 29.737-.682l5.739-1.751"/><path fill="none" class="highcharts-data-label-connector highcharts-color-1" stroke="#F39" d="M141.47 227.613c5 0 22.991-.54 28.988-.72l5.998-.18"/><path fill="none" class="highcharts-data-label-connector highcharts-color-2" stroke="#F28" d="M146.62 183.296c5 0 22.388 4.653 28.184 6.204l5.797 1.551"/><path fill="none" class="highcharts-data-label-connector highcharts-color-4" stroke="#C3FFB1" d="M159.086 151.444c5 0 20.927 8.385 26.236 11.18l5.31 2.796"/><path fill="none" class="highcharts-data-label-connector highcharts-color-5" stroke="#BAFFA8" d="M179.828 121.37c5 0 18.497 11.91 22.996 15.88l4.499 3.97"/><path fill="none" class="highcharts-data-label-connector highcharts-color-10" stroke="#FDF" d="M242.287 78.728c5 0 11.178 16.907 13.237 22.543l2.059 5.635"/><text x="5" data-z-index="1" y="18" style="color:#f0f0f3;font-size:13px;font-weight:700;fill:#f0f0f3" transform="translate(452 153)" class="highcharts-label highcharts-data-label highcharts-data-label-color-0"><tspan class="highcharts-text-outline" fill="#000" stroke="#000" stroke-width="2" stroke-linejoin="round"><tspan style="font-weight:700">Chrome v97.0:</tspan> 36.89%<tspan x="5" dy="0">​</tspan></tspan><tspan style="font-weight:700">Chrome v97.0:</tspan> 36.89%</text><text x="5" data-z-index="1" y="18" style="color:#f0f0f3;font-size:13px;font-weight:700;fill:#f0f0f3" transform="translate(343 363)" class="highcharts-label highcharts-data-label highcharts-data-label-color-1"><tspan class="highcharts-text-outline" fill="#000" stroke="#000" stroke-width="2" stroke-linejoin="round"><tspan style="font-weight:700">Chrome v96.0:</tspan> 18.16%<tspan x="5" dy="0">​</tspan></tspan><tspan style="font-weight:700">Chrome v96.0:</tspan> 18.16%</text><text x="5" data-z-index="1" y="18" style="color:#f0f0f3;font-size:13px;font-weight:700;fill:#f0f0f3" transform="translate(59 326)" class="highcharts-label highcharts-data-label highcharts-data-label-color-4"><tspan class="highcharts-text-outline" fill="#000" stroke="#000" stroke-width="2" stroke-linejoin="round"><tspan style="font-weight:700">Safari v15.2:</tspan> 2.01%<tspan x="5" dy="0">​</tspan></tspan><tspan style="font-weight:700">Safari v15.2:</tspan> 2.01%</text><text x="5" data-z-index="1" y="18" style="color:#f0f0f3;font-size:13px;font-weight:700;fill:#f0f0f3" transform="translate(37 301)" class="highcharts-label highcharts-data-label highcharts-data-label-color-5"><tspan class="highcharts-text-outline" fill="#000" stroke="#000" stroke-width="2" stroke-linejoin="round"><tspan style="font-weight:700">Safari v15.1:</tspan> 2.29%<tspan x="5" dy="0">​</tspan></tspan><tspan style="font-weight:700">Safari v15.1:</tspan> 2.29%</text><text x="5" data-z-index="1" y="18" style="color:#f0f0f3;font-size:13px;font-weight:700;fill:#f0f0f3" transform="translate(23 276)" class="highcharts-label highcharts-data-label highcharts-data-label-color-7"><tspan class="highcharts-text-outline" fill="#000" stroke="#000" stroke-width="2" stroke-linejoin="round"><tspan style="font-weight:700">Safari v14.1:</tspan> 2.48%<tspan x="5" dy="0">​</tspan></tspan><tspan style="font-weight:700">Safari v14.1:</tspan> 2.48%</text><text x="5" data-z-index="1" y="18" style="color:#f0f0f3;font-size:13px;font-weight:700;fill:#f0f0f3" transform="translate(14 251)" class="highcharts-label highcharts-data-label highcharts-data-label-color-9"><tspan class="highcharts-text-outline" fill="#000" stroke="#000" stroke-width="2" stroke-linejoin="round"><tspan style="font-weight:700">Safari v13.1:</tspan> 1.17%<tspan x="5" dy="0">​</tspan></tspan><tspan style="font-weight:700">Safari v13.1:</tspan> 1.17%</text><text x="5" data-z-index="1" y="18" style="color:#f0f0f3;font-size:13px;font-weight:700;fill:#f0f0f3" transform="translate(25 218)" class="highcharts-label highcharts-data-label highcharts-data-label-color-1"><tspan class="highcharts-text-outline" fill="#000" stroke="#000" stroke-width="2" stroke-linejoin="round"><tspan style="font-weight:700">Edge v97:</tspan> 6.62%<tspan x="5" dy="0">​</tspan></tspan><tspan style="font-weight:700">Edge v97:</tspan> 6.62%</text><text x="5" data-z-index="1" y="18" style="color:#f0f0f3;font-size:13px;font-weight:700;fill:#f0f0f3" transform="translate(30 173)" class="highcharts-label highcharts-data-label highcharts-data-label-color-2"><tspan class="highcharts-text-outline" fill="#000" stroke="#000" stroke-width="2" stroke-linejoin="round"><tspan style="font-weight:700">Edge v96:</tspan> 2.55%<tspan x="5" dy="0">​</tspan></tspan><tspan style="font-weight:700">Edge v96:</tspan> 2.55%</text><text x="5" data-z-index="1" y="18" style="color:#f0f0f3;font-size:13px;font-weight:700;fill:#f0f0f3" transform="translate(20 141)" class="highcharts-label highcharts-data-label highcharts-data-label-color-4"><tspan class="highcharts-text-outline" fill="#000" stroke="#000" stroke-width="2" stroke-linejoin="round"><tspan style="font-weight:700">Firefox v96.0:</tspan> 4.17%<tspan x="5" dy="0">​</tspan></tspan><tspan style="font-weight:700">Firefox v96.0:</tspan> 4.17%</text><text x="5" data-z-index="1" y="18" style="color:#f0f0f3;font-size:13px;font-weight:700;fill:#f0f0f3" transform="translate(41 111)" class="highcharts-label highcharts-data-label highcharts-data-label-color-5"><tspan class="highcharts-text-outline" fill="#000" stroke="#000" stroke-width="2" stroke-linejoin="round"><tspan style="font-weight:700">Firefox v95.0:</tspan> 3.33%<tspan x="5" dy="0">​</tspan></tspan><tspan style="font-weight:700">Firefox v95.0:</tspan> 3.33%</text><text x="5" data-z-index="1" y="18" style="color:#f0f0f3;font-size:13px;font-weight:700;fill:#f0f0f3" transform="translate(141 69)" class="highcharts-label highcharts-data-label highcharts-data-label-color-10"><tspan class="highcharts-text-outline" fill="#000" stroke="#000" stroke-width="2" stroke-linejoin="round"><tspan style="font-weight:700">Other:</tspan> 11.02%<tspan x="5" dy="0">​</tspan></tspan><tspan style="font-weight:700">Other:</tspan> 11.02%</text></g></svg>