<svg class="highcharts-root" style="font-family:&quot;Unica One&quot;,sans-serif;font-size:12px" xmlns="http://www.w3.org/2000/svg" width="600" height="400" aria-label="Interactive chart" aria-hidden="false"><defs aria-hidden="true"><linearGradient x1="0" y1="0" x2="1" y2="1" id="a"><stop offset="0" stop-color="#2a2a2b"/><stop offset="1" stop-color="#3e3e40"/></linearGradient></defs><rect fill="url(#a)" class="highcharts-background" width="600" height="400" rx="0" ry="0" aria-hidden="true"/><path fill="none" class="highcharts-plot-background" aria-hidden="true" d="M10 61h580v324H10z"/><path fill="none" class="highcharts-plot-border" data-z-index="1" aria-hidden="true" d="M10 61h580v324H10z"/><g class="highcharts-series-group" data-z-index="3" aria-hidden="false"><g class="highcharts-series highcharts-series-0 highcharts-pie-series highcharts-tracker" data-z-index=".1" aria-hidden="false" stroke="#fff" stroke-linejoin="round"><path fill="#2b908f" d="M289.971 32a141 141 0 1 1-94.126 245.956L290 173Z" transform="translate(10 61)" class="highcharts-point highcharts-color-0 highcharts-drilldown-point" style="cursor:pointer;outline:0" tabindex="-1" aria-label="Chrome, 61.04%. Browsers."/><path fill="#90ee7e" d="M195.74 277.862a141 141 0 0 1-42.746-71.539L290 173Z" transform="translate(10 61)" class="highcharts-point highcharts-color-1 highcharts-drilldown-point" style="cursor:pointer;outline:0" tabindex="-1" aria-label="Safari, 9.47%. Browsers."/><path fill="#f45b5b" d="M152.961 206.186a141 141 0 0 1 4.753-81.986L290 173Z" transform="translate(10 61)" class="highcharts-point highcharts-color-2 highcharts-drilldown-point" style="cursor:pointer;outline:0" tabindex="-1" aria-label="Edge, 9.32%. Browsers."/><path fill="#7798BF" d="M157.763 124.068a141 141 0 0 1 41.36-58.875L290 173Z" transform="translate(10 61)" class="highcharts-point highcharts-color-3 highcharts-drilldown-point" style="cursor:pointer;outline:0" tabindex="-1" aria-label="Firefox, 8.15%. Browsers."/><path fill="#aee" d="M199.231 65.102A141 141 0 0 1 289.804 32L290 173Z" transform="translate(10 61)" class="highcharts-point highcharts-color-4" tabindex="-1" aria-label="Other, 11.02%. Browsers." style="outline:0"/></g></g><text x="300" text-anchor="middle" class="highcharts-title" data-z-index="4" style="color:#e0e0e3;font-size:20px;text-transform:uppercase;fill:#e0e0e3" y="25" aria-hidden="true">Browser market shares. January, 2022</text><text x="300" text-anchor="middle" class="highcharts-subtitle" data-z-index="4" style="color:#e0e0e3;text-transform:uppercase;fill:#e0e0e3" y="46" aria-hidden="true">Click the slices to view versions. Source: <a target="_blank"><tspan>statcounter.com</tspan></a></text><g class="highcharts-data-labels highcharts-series-0 highcharts-pie-series highcharts-tracker" data-z-index="6" aria-hidden="true"><path fill="none" class="highcharts-data-label-connector highcharts-color-0" stroke="#2b908f" d="M464.662 295.23c-5 0-21.807-6.445-27.409-8.593l-5.602-2.149"/><path fill="none" class="highcharts-data-label-connector highcharts-color-1" stroke="#90ee7e" d="M148.146 321.606c5 0 20.458-9.222 25.61-12.296l5.154-3.074"/><path fill="none" class="highcharts-data-label-connector highcharts-color-2" stroke="#f45b5b" d="M124.291 224.021c5 0 22.97 1.05 28.96 1.4l5.99.35"/><path fill="none" class="highcharts-data-label-connector highcharts-color-3" stroke="#7798BF" d="M155.112 135.652c5 0 19.725 10.352 24.633 13.803l4.909 3.451"/><path fill="none" class="highcharts-data-label-connector highcharts-color-4" stroke="#aee" d="M236.413 73.35c5 0 11.167 16.91 13.222 22.547l2.056 5.637"/><g style="cursor:pointer"><text x="5" data-z-index="1" y="18" style="color:#f0f0f3;font-size:13px;font-weight:700;fill:#f0f0f3;text-decoration:underline" transform="translate(470 285)" class="highcharts-label highcharts-data-label highcharts-data-label-color-0 highcharts-drilldown-data-label"><tspan class="highcharts-text-outline" fill="#000" stroke="#000" stroke-width="2" stroke-linejoin="round">Chrome: 61.0%<tspan x="5" dy="0">​</tspan></tspan>Chrome: 61.0%</text></g><g style="cursor:pointer"><text x="5" data-z-index="1" y="18" style="color:#f0f0f3;font-size:13px;font-weight:700;fill:#f0f0f3;text-decoration:underline" transform="translate(59 312)" class="highcharts-label highcharts-data-label highcharts-data-label-color-1 highcharts-drilldown-data-label"><tspan class="highcharts-text-outline" fill="#000" stroke="#000" stroke-width="2" stroke-linejoin="round">Safari: 9.5%<tspan x="5" dy="0">​</tspan></tspan>Safari: 9.5%</text></g><g style="cursor:pointer"><text x="5" data-z-index="1" y="18" style="color:#f0f0f3;font-size:13px;font-weight:700;fill:#f0f0f3;text-decoration:underline" transform="translate(40 214)" class="highcharts-label highcharts-data-label highcharts-data-label-color-2 highcharts-drilldown-data-label"><tspan class="highcharts-text-outline" fill="#000" stroke="#000" stroke-width="2" stroke-linejoin="round">Edge: 9.3%<tspan x="5" dy="0">​</tspan></tspan>Edge: 9.3%</text></g><g style="cursor:pointer"><text x="5" data-z-index="1" y="18" style="color:#f0f0f3;font-size:13px;font-weight:700;fill:#f0f0f3;text-decoration:underline" transform="translate(59 126)" class="highcharts-label highcharts-data-label highcharts-data-label-color-3 highcharts-drilldown-data-label"><tspan class="highcharts-text-outline" fill="#000" stroke="#000" stroke-width="2" stroke-linejoin="round">Firefox: 8.2%<tspan x="5" dy="0">​</tspan></tspan>Firefox: 8.2%</text></g><text x="5" data-z-index="1" y="18" style="color:#f0f0f3;font-size:13px;font-weight:700;fill:#f0f0f3" transform="translate(143 63)" class="highcharts-label highcharts-data-label highcharts-data-label-color-4"><tspan class="highcharts-text-outline" fill="#000" stroke="#000" stroke-width="2" stroke-linejoin="round">Other: 11.0%<tspan x="5" dy="0">​</tspan></tspan>Other: 11.0%</text></g></svg>