<svg class="highcharts-root" style="font-family:&quot;Unica One&quot;,sans-serif;font-size:12px" xmlns="http://www.w3.org/2000/svg" width="600" height="600" aria-label="Interactive chart" aria-hidden="false"><defs aria-hidden="true"><clipPath id="b"><path fill="none" d="M486.775 232a196.775 196.775 0 1 1 0-.197m-157.42.158a39.355 39.355 0 1 0 0 .039"/></clipPath><clipPath id="c"><path fill="none" d="M486.775 232a196.775 196.775 0 1 1 0-.197m-157.42.158a39.355 39.355 0 1 0 0 .039"/></clipPath><clipPath id="d"><path fill="none" d="M486.775 232a196.775 196.775 0 1 1 0-.197m-157.42.158a39.355 39.355 0 1 0 0 .039"/></clipPath><linearGradient x1="0" y1="0" x2="1" y2="1" id="a"><stop offset="0" stop-color="#2a2a2b"/><stop offset="1" stop-color="#3e3e40"/></linearGradient></defs><rect fill="url(#a)" class="highcharts-background" width="600" height="600" rx="0" ry="0" aria-hidden="true"/><path fill="none" class="highcharts-plot-background" aria-hidden="true" d="M10 84h580v463H10z"/><g class="highcharts-grid highcharts-xaxis-grid highcharts-radial-axis-grid" data-z-index="1" aria-hidden="true" fill="none" stroke="#707073"><path data-z-index="1" class="highcharts-grid-line" d="M300 150.209a165.291 165.291 0 1 1-165.29 165.456M300 315.5"/><path data-z-index="1" class="highcharts-grid-line" d="M300 181.693a133.807 133.807 0 1 1-133.807 133.94M300 315.5"/><path data-z-index="1" class="highcharts-grid-line" d="M300 213.177a102.323 102.323 0 1 1-102.323 102.425M300 315.5"/><path data-z-index="1" class="highcharts-grid-line" d="M300 244.661a70.839 70.839 0 1 1-70.839 70.91M300 315.5"/><path data-z-index="1" class="highcharts-grid-line" d="M300 276.145a39.355 39.355 0 1 1-39.355 39.394M300 315.5"/><path data-z-index="1" class="highcharts-grid-line" d="M300 276.145a39.355 39.355 0 1 1-39.355 39.394M300 315.5"/><path data-z-index="1" class="highcharts-grid-line" d="M300 118.725a196.775 196.775 0 1 1-196.775 196.972M300 315.5"/></g><g class="highcharts-grid highcharts-yaxis-grid highcharts-radial-axis-grid" data-z-index="1" aria-hidden="true" fill="none" stroke="#707073"><path data-z-index="1" class="highcharts-grid-line" d="M300 276.145v-157.42m11.424 159.115 45.697-150.642m-35.257 155.58 87.458-130.89m-78.9 138.645 121.687-99.866M336.36 300.44l145.436-60.243m-142.631 71.446 156.662-15.43m-157.228 26.965 154.395 30.71m-158.286-19.836 138.832 74.207m-145.712-64.931 111.313 111.313M318.552 350.208l74.207 138.832m-85.081-134.941 30.71 154.395m-42.245-153.829-15.43 156.662m4.227-159.467-60.243 145.436m50.336-151.374-99.866 121.687m92.111-130.245-130.89 87.458m125.952-97.898-150.642 45.697M260.645 315.5h-157.42"/></g><path fill="none" class="highcharts-plot-border" data-z-index="1" aria-hidden="true" d="M10 84h580v463H10z"/><g class="highcharts-axis highcharts-xaxis highcharts-radial-axis" data-z-index="2" aria-hidden="true"><path fill="none" class="highcharts-axis-line" data-z-index="7" d="M300 276.145v-157.42"/></g><g class="highcharts-axis highcharts-yaxis highcharts-radial-axis" data-z-index="2" aria-hidden="true"><path fill="none" class="highcharts-axis-line" data-z-index="7" d="M300 118.725a196.775 196.775 0 1 1-196.775 196.972M300 315.5"/></g><g class="highcharts-series-group" data-z-index="3" aria-hidden="false"><g class="highcharts-series highcharts-series-0 highcharts-column-series highcharts-color-0 highcharts-tracker" data-z-index=".1" clip-path="url(#b)" aria-hidden="false" tabindex="-1" aria-label="Gold medals, bar series 1 of 3 with 5 bars." style="outline:0" fill="gold" transform="translate(10 84)"><path d="M290 39.948A192.052 192.052 0 0 1 479.226 264.83l-21.715-3.767A170.014 170.014 0 0 0 290 61.986Z" class="highcharts-point highcharts-color-0" tabindex="-1" aria-label="Norway , 148. Gold medals." style="outline:0"/><path d="M290 71.432a160.568 160.568 0 0 1 155.945 122.315l-21.404 5.25A138.53 138.53 0 0 0 290 93.47Z" class="highcharts-point highcharts-color-0" tabindex="-1" aria-label="United States , 113. Gold medals." style="outline:0"/><path d="M290 102.916a129.084 129.084 0 0 1 121.41 85.237l-20.73 7.486A107.046 107.046 0 0 0 290 124.954Z" class="highcharts-point highcharts-color-0" tabindex="-1" aria-label="Germany , 104. Gold medals." style="outline:0"/><path d="M290 134.4a97.6 97.6 0 0 1 72.38 32.125l-16.344 14.785A75.562 75.562 0 0 0 290 156.438Z" class="highcharts-point highcharts-color-0" tabindex="-1" aria-label="Austria , 71. Gold medals." style="outline:0"/><path d="M290 165.884a66.116 66.116 0 0 1 52.042 25.336l-17.347 13.593A44.078 44.078 0 0 0 290 187.923Z" class="highcharts-point highcharts-color-0" tabindex="-1" aria-label="Canada , 77. Gold medals." style="outline:0"/></g><g class="highcharts-series highcharts-series-1 highcharts-column-series highcharts-color-1 highcharts-tracker" data-z-index=".1" clip-path="url(#c)" aria-hidden="false" tabindex="-1" aria-label="Silver medals, bar series 2 of 3 with 5 bars." style="outline:0" fill="silver" transform="translate(10 84)"><path d="M479.193 265.02a192.052 192.052 0 0 1-176.19 158.592l-1.492-21.989A170.014 170.014 0 0 0 457.482 261.23Z" class="highcharts-point highcharts-color-1" tabindex="-1" aria-label="Norway , 113. Silver medals." style="outline:0"/><path d="M445.983 193.903a160.568 160.568 0 0 1-97.311 187.562l-8.053-20.515a138.53 138.53 0 0 0 83.955-161.818Z" class="highcharts-point highcharts-color-1" tabindex="-1" aria-label="United States , 122. Silver medals." style="outline:0"/><path d="M411.453 188.274a129.084 129.084 0 0 1-32.259 137.038l-15.228-15.931a107.046 107.046 0 0 0 26.751-113.641Z" class="highcharts-point highcharts-color-1" tabindex="-1" aria-label="Germany , 98. Silver medals." style="outline:0"/><path d="M362.446 166.598A97.6 97.6 0 0 1 383.2 260.97l-21.045-6.542a75.562 75.562 0 0 0-16.069-73.063Z" class="highcharts-point highcharts-color-1" tabindex="-1" aria-label="Austria , 88. Silver medals." style="outline:0"/><path d="M342.083 191.272a66.116 66.116 0 0 1 12.923 52.797l-21.669-4.023a44.078 44.078 0 0 0-8.615-35.198Z" class="highcharts-point highcharts-color-1" tabindex="-1" aria-label="Canada , 72. Silver medals." style="outline:0"/></g><g class="highcharts-series highcharts-series-2 highcharts-column-series highcharts-color-2 highcharts-tracker" data-z-index=".1" clip-path="url(#d)" aria-hidden="false" tabindex="-1" aria-label="Bronze medals, bar series 3 of 3 with 5 bars." style="outline:0" fill="#CD7F32" transform="translate(10 84)"><path d="M302.812 423.625a192.052 192.052 0 0 1-201.84-157.674l21.692-3.896a170.014 170.014 0 0 0 178.677 139.58Z" class="highcharts-point highcharts-color-2" tabindex="-1" aria-label="Norway , 124. Bronze medals." style="outline:0"/><path d="M348.522 381.524a160.568 160.568 0 0 1-167.398-31.506l14.944-16.199a138.53 138.53 0 0 0 144.422 27.182Z" class="highcharts-point highcharts-color-2" tabindex="-1" aria-label="United States , 95. Bronze medals." style="outline:0"/><path d="M379.1 325.402a129.084 129.084 0 0 1-89.478 35.682l.065-22.039a107.046 107.046 0 0 0 74.201-29.59Z" class="highcharts-point highcharts-color-2" tabindex="-1" aria-label="Germany , 65. Bronze medals." style="outline:0"/><path d="M383.172 261.065a97.6 97.6 0 0 1-74.035 66.64l-4.322-21.61a75.562 75.562 0 0 0 57.318-51.593Z" class="highcharts-point highcharts-color-2" tabindex="-1" aria-label="Austria , 91. Bronze medals." style="outline:0"/><path d="M354.993 244.134a66.116 66.116 0 0 1-33.768 46.144l-10.408-19.426a44.078 44.078 0 0 0 22.512-30.763Z" class="highcharts-point highcharts-color-2" tabindex="-1" aria-label="Canada , 76. Bronze medals." style="outline:0"/></g></g><text x="300" text-anchor="middle" class="highcharts-title" data-z-index="4" style="color:#e0e0e3;font-size:20px;text-transform:uppercase;fill:#e0e0e3" y="25" aria-hidden="true">Winter Olympic medals per existing country<tspan dy="23" x="300">​</tspan>(TOP 5)</text><text x="300" text-anchor="middle" class="highcharts-subtitle" data-z-index="4" style="color:#e0e0e3;text-transform:uppercase;fill:#e0e0e3" y="69" aria-hidden="true">Source: <a target="_blank"><tspan>Wikipedia</tspan></a></text><g class="highcharts-legend highcharts-no-tooltip" data-z-index="7" transform="translate(123 559)" aria-hidden="true"><rect fill="rgba(0, 0, 0, 0.5)" class="highcharts-legend-box" rx="0" ry="0" width="353" height="26"/><g data-z-index="1"><g class="highcharts-legend-item highcharts-column-series highcharts-color-0 highcharts-series-0" data-z-index="1" transform="translate(8 3)"><text x="21" data-z-index="2" y="15" style="color:#e0e0e3;cursor:pointer;font-size:12px;font-weight:700;fill:#e0e0e3">Gold medals</text><rect x="2" y="4" width="12" height="12" fill="gold" rx="6" ry="6" class="highcharts-point" data-z-index="3"/></g><g class="highcharts-legend-item highcharts-column-series highcharts-color-1 highcharts-series-1" data-z-index="1" transform="translate(121.023 3)"><text x="21" y="15" data-z-index="2" style="color:#e0e0e3;cursor:pointer;font-size:12px;font-weight:700;fill:#e0e0e3">Silver medals</text><rect x="2" y="4" width="12" height="12" fill="silver" rx="6" ry="6" class="highcharts-point" data-z-index="3"/></g><g class="highcharts-legend-item highcharts-column-series highcharts-color-2 highcharts-series-2" data-z-index="1" transform="translate(239.406 3)"><text x="21" y="15" data-z-index="2" style="color:#e0e0e3;cursor:pointer;font-size:12px;font-weight:700;fill:#e0e0e3">Bronze medals</text><rect x="2" y="4" width="12" height="12" fill="#CD7F32" rx="6" ry="6" class="highcharts-point" data-z-index="3"/></g></g></g><g class="highcharts-axis-labels highcharts-xaxis-labels highcharts-radial-axis-labels" data-z-index="7" aria-hidden="true" text-anchor="end"><text x="297" style="color:#e0e0e3;cursor:default;font-size:13px;fill:#e0e0e3" y="137.467">Norway </text><text x="297" style="color:#e0e0e3;cursor:default;font-size:13px;fill:#e0e0e3" y="168.951">United States </text><text x="297" style="color:#e0e0e3;cursor:default;font-size:13px;fill:#e0e0e3" y="200.435">Germany </text><text x="297" style="color:#e0e0e3;cursor:default;font-size:13px;fill:#e0e0e3" y="231.919">Austria </text><text x="297" style="color:#e0e0e3;cursor:default;font-size:13px;fill:#e0e0e3" y="263.403">Canada </text></g><g class="highcharts-axis-labels highcharts-yaxis-labels highcharts-radial-axis-labels" data-z-index="7" aria-hidden="true"><text x="300" text-anchor="middle" style="color:#e0e0e3;cursor:default;font-size:11px;fill:#e0e0e3" y="108.475">0</text><text x="361.475" style="color:#e0e0e3;cursor:default;font-size:11px;fill:#e0e0e3" text-anchor="middle" y="117.594">25</text><text x="417.656" style="color:#e0e0e3;cursor:default;font-size:11px;fill:#e0e0e3" y="144.166">50</text><text x="463.704" style="color:#e0e0e3;cursor:default;font-size:11px;fill:#e0e0e3" y="185.901">75</text><text x="495.655" style="color:#e0e0e3;cursor:default;font-size:11px;fill:#e0e0e3" y="239.207">100</text><text x="510.755" style="color:#e0e0e3;cursor:default;font-size:11px;fill:#e0e0e3" y="299.492">125</text><text x="507.706" style="color:#e0e0e3;cursor:default;font-size:11px;fill:#e0e0e3" y="361.565">150</text><text x="486.769" style="color:#e0e0e3;cursor:default;font-size:11px;fill:#e0e0e3" y="420.08">175</text><text x="449.748" style="color:#e0e0e3;cursor:default;font-size:11px;fill:#e0e0e3" y="469.998">200</text><text x="399.83" style="color:#e0e0e3;cursor:default;font-size:11px;fill:#e0e0e3" y="507.019">225</text><text x="341.315" style="color:#e0e0e3;cursor:default;font-size:11px;fill:#e0e0e3" text-anchor="middle" y="527.956">250</text><text x="279.242" style="color:#e0e0e3;cursor:default;font-size:11px;fill:#e0e0e3" text-anchor="middle" y="531.005">275</text><text x="218.957" style="color:#e0e0e3;cursor:default;font-size:11px;fill:#e0e0e3" text-anchor="end" y="515.905">300</text><text x="165.651" style="color:#e0e0e3;cursor:default;font-size:11px;fill:#e0e0e3" text-anchor="end" y="483.954">325</text><text x="123.916" style="color:#e0e0e3;cursor:default;font-size:11px;fill:#e0e0e3" text-anchor="end" y="437.906">350</text><text x="97.344" style="color:#e0e0e3;cursor:default;font-size:11px;fill:#e0e0e3" text-anchor="end" y="381.725">375</text><text x="88.225" style="color:#e0e0e3;cursor:default;font-size:11px;fill:#e0e0e3" text-anchor="end" y="320.25">400</text></g></svg>