<svg class="highcharts-root" style="font-family:&quot;Unica One&quot;,sans-serif;font-size:12px" xmlns="http://www.w3.org/2000/svg" width="600" height="400" aria-label="Interactive chart" aria-hidden="false"><defs aria-hidden="true"><clipPath id="b"><circle cx="240" cy="150.5" r="127.925"/></clipPath><clipPath id="c"><circle cx="240" cy="150.5" r="127.925"/></clipPath><clipPath id="d"><circle cx="240" cy="150.5" r="127.925"/></clipPath><clipPath id="e"><circle cx="240" cy="150.5" r="127.925"/></clipPath><clipPath id="f"><circle cx="240" cy="150.5" r="127.925"/></clipPath><clipPath id="g"><circle cx="240" cy="150.5" r="127.925"/></clipPath><clipPath id="h"><circle cx="240" cy="150.5" r="127.925"/></clipPath><linearGradient x1="0" y1="0" x2="1" y2="1" id="a"><stop offset="0" stop-color="#2a2a2b"/><stop offset="1" stop-color="#3e3e40"/></linearGradient></defs><rect fill="url(#a)" class="highcharts-background" width="600" height="400" rx="0" ry="0" aria-hidden="true"/><path fill="none" class="highcharts-plot-background" aria-hidden="true" d="M10 84h480v301H10z"/><g class="highcharts-grid highcharts-xaxis-grid highcharts-radial-axis-grid" data-z-index="1" aria-hidden="true" fill="none" stroke="#707073"><path data-z-index="1" class="highcharts-grid-line" d="M250 234.5V106.575m0 127.925 48.955-118.187M250 234.5l90.457-90.457M250 234.5l118.187-48.955M250 234.5h127.925M250 234.5l118.187 48.955M250 234.5l90.457 90.457M250 234.5l48.955 118.187M250 234.5v127.925m0-127.925-48.955 118.187M250 234.5l-90.457 90.457M250 234.5l-118.187 48.955M250 234.5H122.075m127.925 0-118.187-48.955M250 234.5l-90.457-90.457M250 234.5l-48.955-118.187M250 234.5V106.575"/></g><g class="highcharts-grid highcharts-yaxis-grid highcharts-radial-axis-grid" data-z-index="1" aria-hidden="true" fill="none" stroke="#707073"><path data-z-index="1" class="highcharts-grid-line" d="M250 181.251a53.249 53.249 0 1 1-.053 0M250 234.5"/><path data-z-index="1" class="highcharts-grid-line" d="M250 128.002a106.498 106.498 0 1 1-.106 0M250 234.5"/></g><path fill="none" class="highcharts-plot-border" data-z-index="1" aria-hidden="true" d="M10 84h480v301H10z"/><g class="highcharts-axis highcharts-xaxis highcharts-radial-axis" data-z-index="2" aria-hidden="true"><path fill="none" class="highcharts-axis-line" stroke="#707073" data-z-index="7" d="M250 106.575a127.925 127.925 0 1 1-.128 0M250 234.5"/></g><g class="highcharts-axis highcharts-yaxis highcharts-radial-axis" data-z-index="2" aria-hidden="true"><text x="254" data-z-index="7" text-anchor="middle" transform="rotate(90 254 170.537)" class="highcharts-axis-title" style="color:#a0a0a3;fill:#a0a0a3" y="170.537">Frequency (%)</text><path fill="none" class="highcharts-axis-line" data-z-index="7" d="M250 234.5V106.575"/></g><g class="highcharts-series-group" data-z-index="3" aria-hidden="false"><g class="highcharts-series highcharts-series-0 highcharts-column-series highcharts-color-0 highcharts-tracker highcharts-dense-data" data-z-index=".1" clip-path="url(#b)" aria-hidden="false" tabindex="-1" aria-label="&amp;lt; 0.5 m/s, bar series 1 of 7 with 16 bars." style="outline:0" fill="#2b908f" transform="translate(10 84)"><path d="M236.985 131.461a19.276 19.276 0 0 1 6.011-.003L240 150.5Z" class="highcharts-point highcharts-color-0" tabindex="-1" aria-label="N, 1.81%. &amp;lt; 0.5 m/s." style="outline:0"/><path d="M241.541 144.08a6.603 6.603 0 0 1 1.903.787L240 150.5Z" class="highcharts-point highcharts-color-0" tabindex="-1" aria-label="NNE, 0.62%. &amp;lt; 0.5 m/s." style="outline:0"/><path d="M245.133 143.435a8.733 8.733 0 0 1 1.927 1.925L240 150.5Z" class="highcharts-point highcharts-color-0" tabindex="-1" aria-label="NE, 0.82%. &amp;lt; 0.5 m/s." style="outline:0"/><path d="M245.357 147.217a6.283 6.283 0 0 1 .751 1.81L240 150.5Z" class="highcharts-point highcharts-color-0" tabindex="-1" aria-label="ENE, 0.59%. &amp;lt; 0.5 m/s." style="outline:0"/><path d="M246.522 149.467a6.603 6.603 0 0 1 0 2.06L240 150.5Z" class="highcharts-point highcharts-color-0" tabindex="-1" aria-label="E, 0.62%. &amp;lt; 0.5 m/s." style="outline:0"/><path d="M252.634 153.533a12.993 12.993 0 0 1-1.55 3.745L240 150.5Z" class="highcharts-point highcharts-color-0" tabindex="-1" aria-label="ESE, 1.22%. &amp;lt; 0.5 m/s." style="outline:0"/><path d="M253.872 160.578a17.146 17.146 0 0 1-3.78 3.783L240 150.5Z" class="highcharts-point highcharts-color-0" tabindex="-1" aria-label="SE, 1.61%. &amp;lt; 0.5 m/s." style="outline:0"/><path d="M251.352 169.024a21.726 21.726 0 0 1-6.26 2.596L240 150.5Z" class="highcharts-point highcharts-color-0" tabindex="-1" aria-label="SSE, 2.04%. &amp;lt; 0.5 m/s." style="outline:0"/><path d="M244.432 178.48a28.328 28.328 0 0 1-8.836.004L240 150.5Z" class="highcharts-point highcharts-color-0" tabindex="-1" aria-label="S, 2.66%. &amp;lt; 0.5 m/s." style="outline:0"/><path d="M232.641 181.152a31.523 31.523 0 0 1-9.085-3.758L240 150.5Z" class="highcharts-point highcharts-color-0" tabindex="-1" aria-label="SSW, 2.96%. &amp;lt; 0.5 m/s." style="outline:0"/><path d="M224.163 172.298a26.944 26.944 0 0 1-5.945-5.939L240 150.5Z" class="highcharts-point highcharts-color-0" tabindex="-1" aria-label="SW, 2.53%. &amp;lt; 0.5 m/s." style="outline:0"/><path d="M222.112 161.462a20.98 20.98 0 0 1-2.507-6.044L240 150.5Z" class="highcharts-point highcharts-color-0" tabindex="-1" aria-label="WSW, 1.97%. &amp;lt; 0.5 m/s." style="outline:0"/><path d="M222.75 153.232a17.466 17.466 0 0 1-.003-5.447L240 150.5Z" class="highcharts-point highcharts-color-0" tabindex="-1" aria-label="W, 1.64%. &amp;lt; 0.5 m/s." style="outline:0"/><path d="M226.33 147.218a14.058 14.058 0 0 1 1.677-4.051L240 150.5Z" class="highcharts-point highcharts-color-0" tabindex="-1" aria-label="WNW, 1.32%. &amp;lt; 0.5 m/s." style="outline:0"/><path d="M226.387 140.61a16.827 16.827 0 0 1 3.709-3.713L240 150.5Z" class="highcharts-point highcharts-color-0" tabindex="-1" aria-label="NW, 1.58%. &amp;lt; 0.5 m/s." style="outline:0"/><path d="M231.598 136.789a16.081 16.081 0 0 1 4.632-1.922L240 150.5Z" class="highcharts-point highcharts-color-0" tabindex="-1" aria-label="NNW, 1.51%. &amp;lt; 0.5 m/s." style="outline:0"/></g><g class="highcharts-series highcharts-series-1 highcharts-column-series highcharts-color-1 highcharts-tracker highcharts-dense-data" data-z-index=".1" clip-path="url(#c)" aria-hidden="false" tabindex="-1" aria-label="0.5-2 m/s, bar series 2 of 7 with 16 bars." style="outline:0" fill="#90ee7e" transform="translate(10 84)"><path d="M234.02 112.738a38.233 38.233 0 0 1 11.923-.006l-2.947 18.726a19.276 19.276 0 0 0-6.011.003Z" class="highcharts-point highcharts-color-1" tabindex="-1" aria-label="N, 1.78%. 0.5-2 m/s." style="outline:0"/><path d="M244.251 132.792a18.211 18.211 0 0 1 5.249 2.171l-6.056 9.904a6.603 6.603 0 0 0-1.903-.787Z" class="highcharts-point highcharts-color-1" tabindex="-1" aria-label="NNE, 1.09%. 0.5-2 m/s." style="outline:0"/><path d="M250.266 136.37a17.466 17.466 0 0 1 3.854 3.85l-7.06 5.14a8.733 8.733 0 0 0-1.927-1.925Z" class="highcharts-point highcharts-color-1" tabindex="-1" aria-label="NE, 0.82%. 0.5-2 m/s." style="outline:0"/><path d="M256.436 140.428a19.276 19.276 0 0 1 2.303 5.553l-12.63 3.046a6.283 6.283 0 0 0-.752-1.81Z" class="highcharts-point highcharts-color-1" tabindex="-1" aria-label="ENE, 1.22%. 0.5-2 m/s." style="outline:0"/><path d="M269.663 145.802a30.032 30.032 0 0 1 .004 9.366l-23.144-3.642a6.603 6.603 0 0 0-.001-2.059Z" class="highcharts-point highcharts-color-1" tabindex="-1" aria-label="E, 2.2%. 0.5-2 m/s." style="outline:0"/><path d="M273.448 158.53a34.399 34.399 0 0 1-4.1 9.914l-18.263-11.166a12.993 12.993 0 0 0 1.549-3.745Z" class="highcharts-point highcharts-color-1" tabindex="-1" aria-label="ESE, 2.01%. 0.5-2 m/s." style="outline:0"/><path d="M280.236 179.733a49.734 49.734 0 0 1-10.963 10.974l-19.18-26.346a17.146 17.146 0 0 0 3.779-3.783Z" class="highcharts-point highcharts-color-1" tabindex="-1" aria-label="SE, 3.06%. 0.5-2 m/s." style="outline:0"/><path d="M270.382 200.08a58.148 58.148 0 0 1-16.751 6.947l-8.538-35.407a21.726 21.726 0 0 0 6.259-2.596Z" class="highcharts-point highcharts-color-1" tabindex="-1" aria-label="SSE, 3.42%. 0.5-2 m/s." style="outline:0"/><path d="M252.328 228.338a78.808 78.808 0 0 1-24.578.012l7.846-49.866a28.328 28.328 0 0 0 8.836-.004Z" class="highcharts-point highcharts-color-1" tabindex="-1" aria-label="S, 4.74%. 0.5-2 m/s." style="outline:0"/><path d="M222.348 224.024a75.613 75.613 0 0 1-21.791-9.014l22.999-37.616a31.523 31.523 0 0 0 9.085 3.758Z" class="highcharts-point highcharts-color-1" tabindex="-1" aria-label="SSW, 4.14%. 0.5-2 m/s." style="outline:0"/><path d="M199.061 206.848a69.65 69.65 0 0 1-15.368-15.353l34.525-25.136a26.944 26.944 0 0 0 5.945 5.94Z" class="highcharts-point highcharts-color-1" tabindex="-1" aria-label="SW, 4.01%. 0.5-2 m/s." style="outline:0"/><path d="M197.958 176.264a49.308 49.308 0 0 1-5.892-14.205l27.539-6.64a20.98 20.98 0 0 0 2.507 6.043Z" class="highcharts-point highcharts-color-1" tabindex="-1" aria-label="WSW, 2.66%. 0.5-2 m/s." style="outline:0"/><path d="M204.763 156.081a35.677 35.677 0 0 1-.006-11.127l17.99 2.831a17.466 17.466 0 0 0 .002 5.447Z" class="highcharts-point highcharts-color-1" tabindex="-1" aria-label="W, 1.71%. 0.5-2 m/s." style="outline:0"/><path d="M201.477 141.252a39.617 39.617 0 0 1 4.723-11.418l21.807 13.333a14.058 14.058 0 0 0-1.676 4.051Z" class="highcharts-point highcharts-color-1" tabindex="-1" aria-label="WNW, 2.4%. 0.5-2 m/s." style="outline:0"/><path d="M189.511 113.818a62.408 62.408 0 0 1 13.756-13.77l26.829 36.849a16.827 16.827 0 0 0-3.709 3.713Z" class="highcharts-point highcharts-color-1" tabindex="-1" aria-label="NW, 4.28%. 0.5-2 m/s." style="outline:0"/><path d="M203.775 91.386a69.33 69.33 0 0 1 19.973-8.284l12.482 51.765a16.081 16.081 0 0 0-4.632 1.922Z" class="highcharts-point highcharts-color-1" tabindex="-1" aria-label="NNW, 5%. 0.5-2 m/s." style="outline:0"/></g><g class="highcharts-series highcharts-series-2 highcharts-column-series highcharts-color-2 highcharts-tracker highcharts-dense-data" data-z-index=".1" clip-path="url(#d)" aria-hidden="false" tabindex="-1" aria-label="2-4 m/s, bar series 3 of 7 with 16 bars." style="outline:0" fill="#f45b5b" transform="translate(10 84)"><path d="M233.753 111.055a39.937 39.937 0 0 1 12.455-.006l-.265 1.683a38.233 38.233 0 0 0-11.924.006Z" class="highcharts-point highcharts-color-2" tabindex="-1" aria-label="N, 0.16%. 2-4 m/s." style="outline:0"/><path d="M244.251 132.792a18.211 18.211 0 0 1 5.249 2.171 18.211 18.211 0 0 0-5.249-2.17Z" class="highcharts-point highcharts-color-2" tabindex="-1" aria-label="NNE, 0%. 2-4 m/s." style="outline:0"/><path d="M250.704 135.767a18.211 18.211 0 0 1 4.018 4.014l-.602.439a17.466 17.466 0 0 0-3.854-3.85Z" class="highcharts-point highcharts-color-2" tabindex="-1" aria-label="NE, 0.07%. 2-4 m/s." style="outline:0"/><path d="M257.071 140.039a20.022 20.022 0 0 1 2.393 5.768l-.725.174a19.276 19.276 0 0 0-2.303-5.553Z" class="highcharts-point highcharts-color-2" tabindex="-1" aria-label="ENE, 0.07%. 2-4 m/s." style="outline:0"/><path d="M274.817 144.986a35.25 35.25 0 0 1 .005 10.994l-5.155-.812a30.032 30.032 0 0 0-.004-9.366Z" class="highcharts-point highcharts-color-2" tabindex="-1" aria-label="E, 0.49%. 2-4 m/s." style="outline:0"/><path d="M289.5 162.384a50.906 50.906 0 0 1-6.069 14.67l-14.083-8.61a34.399 34.399 0 0 0 4.1-9.914Z" class="highcharts-point highcharts-color-2" tabindex="-1" aria-label="ESE, 1.55%. 2-4 m/s." style="outline:0"/><path d="M300.656 194.569a74.974 74.974 0 0 1-16.527 16.542l-14.856-20.404a49.734 49.734 0 0 0 10.963-10.974Z" class="highcharts-point highcharts-color-2" tabindex="-1" aria-label="SE, 2.37%. 2-4 m/s." style="outline:0"/><path d="M281.344 217.968a79.128 79.128 0 0 1-22.795 9.455l-4.918-20.396a58.148 58.148 0 0 0 16.751-6.948Z" class="highcharts-point highcharts-color-2" tabindex="-1" aria-label="SSE, 1.97%. 2-4 m/s." style="outline:0"/><path d="M253.045 232.861a83.388 83.388 0 0 1-26.007.013l.712-4.524a78.808 78.808 0 0 0 24.578-.012Z" class="highcharts-point highcharts-color-2" tabindex="-1" aria-label="S, 0.43%. 2-4 m/s." style="outline:0"/><path d="M221.702 226.717a78.382 78.382 0 0 1-22.59-9.344l1.445-2.363a75.613 75.613 0 0 0 21.791 9.014Z" class="highcharts-point highcharts-color-2" tabindex="-1" aria-label="SSW, 0.26%. 2-4 m/s." style="outline:0"/><path d="M191.424 217.359a82.642 82.642 0 0 1-18.234-18.216l10.503-7.648a69.65 69.65 0 0 0 15.368 15.353Z" class="highcharts-point highcharts-color-2" tabindex="-1" aria-label="SW, 1.22%. 2-4 m/s." style="outline:0"/><path d="M180.07 187.226a70.288 70.288 0 0 1-8.4-20.25l20.396-4.917a49.308 49.308 0 0 0 5.892 14.205Z" class="highcharts-point highcharts-color-2" tabindex="-1" aria-label="WSW, 1.97%. 2-4 m/s." style="outline:0"/><path d="M195.085 157.614a45.475 45.475 0 0 1-.007-14.183l9.679 1.523a35.677 35.677 0 0 0 .006 11.127Z" class="highcharts-point highcharts-color-2" tabindex="-1" aria-label="W, 0.92%. 2-4 m/s." style="outline:0"/><path d="M191.226 138.79a50.16 50.16 0 0 1 5.979-14.456l8.995 5.5a39.617 39.617 0 0 0-4.723 11.418Z" class="highcharts-point highcharts-color-2" tabindex="-1" aria-label="WNW, 0.99%. 2-4 m/s." style="outline:0"/><path d="M178.483 105.805a76.04 76.04 0 0 1 16.76-16.777l8.024 11.02a62.408 62.408 0 0 0-13.756 13.77Z" class="highcharts-point highcharts-color-2" tabindex="-1" aria-label="NW, 1.28%. 2-4 m/s." style="outline:0"/><path d="M196.43 79.4a83.388 83.388 0 0 1 24.022-9.964l3.296 13.666a69.33 69.33 0 0 0-19.973 8.284Z" class="highcharts-point highcharts-color-2" tabindex="-1" aria-label="NNW, 1.32%. 2-4 m/s." style="outline:0"/></g><g class="highcharts-series highcharts-series-3 highcharts-column-series highcharts-color-3 highcharts-tracker highcharts-dense-data" data-z-index=".1" clip-path="url(#e)" aria-hidden="false" tabindex="-1" aria-label="4-6 m/s, bar series 4 of 7 with 16 bars." style="outline:0" fill="#7798BF" transform="translate(10 84)"><path d="M233.753 111.055a39.937 39.937 0 0 1 12.455-.006 39.937 39.937 0 0 0-12.455.006Z" class="highcharts-point highcharts-color-3" tabindex="-1" aria-label="N, 0%. 4-6 m/s." style="outline:0"/><path d="M244.251 132.792a18.211 18.211 0 0 1 5.249 2.171 18.211 18.211 0 0 0-5.249-2.17Z" class="highcharts-point highcharts-color-3" tabindex="-1" aria-label="NNE, 0%. 4-6 m/s." style="outline:0"/><path d="M250.704 135.767a18.211 18.211 0 0 1 4.018 4.014 18.211 18.211 0 0 0-4.018-4.014Z" class="highcharts-point highcharts-color-3" tabindex="-1" aria-label="NE, 0%. 4-6 m/s." style="outline:0"/><path d="M257.071 140.039a20.022 20.022 0 0 1 2.393 5.768 20.022 20.022 0 0 0-2.393-5.768Z" class="highcharts-point highcharts-color-3" tabindex="-1" aria-label="ENE, 0%. 4-6 m/s." style="outline:0"/><path d="M274.817 144.986a35.25 35.25 0 0 1 .005 10.994 35.25 35.25 0 0 0-.005-10.994Z" class="highcharts-point highcharts-color-3" tabindex="-1" aria-label="E, 0%. 4-6 m/s." style="outline:0"/><path d="M292.606 163.13a54.1 54.1 0 0 1-6.45 15.591l-2.725-1.666a50.906 50.906 0 0 0 6.068-14.671Z" class="highcharts-point highcharts-color-3" tabindex="-1" aria-label="ESE, 0.3%. 4-6 m/s." style="outline:0"/><path d="M319.093 207.965a97.765 97.765 0 0 1-21.55 21.57l-13.414-18.424a74.974 74.974 0 0 0 16.527-16.542Z" class="highcharts-point highcharts-color-3" tabindex="-1" aria-label="SE, 2.14%. 4-6 m/s." style="outline:0"/><path d="M286.13 225.777a88.287 88.287 0 0 1-25.434 10.55l-2.147-8.904a79.128 79.128 0 0 0 22.795-9.455Z" class="highcharts-point highcharts-color-3" tabindex="-1" aria-label="SSE, 0.86%. 4-6 m/s." style="outline:0"/><path d="M253.045 232.861a83.388 83.388 0 0 1-26.007.013 83.388 83.388 0 0 0 26.007-.013Z" class="highcharts-point highcharts-color-3" tabindex="-1" aria-label="S, 0%. 4-6 m/s." style="outline:0"/><path d="M221.702 226.717a78.382 78.382 0 0 1-22.59-9.344 78.382 78.382 0 0 0 22.59 9.344Z" class="highcharts-point highcharts-color-3" tabindex="-1" aria-label="SSW, 0%. 4-6 m/s." style="outline:0"/><path d="M188.357 221.58a87.86 87.86 0 0 1-19.386-19.366l4.219-3.071a82.642 82.642 0 0 0 18.234 18.216Z" class="highcharts-point highcharts-color-3" tabindex="-1" aria-label="SW, 0.49%. 4-6 m/s." style="outline:0"/><path d="M172.896 191.622a78.702 78.702 0 0 1-9.405-22.673l8.18-1.972a70.288 70.288 0 0 0 8.398 20.249Z" class="highcharts-point highcharts-color-3" tabindex="-1" aria-label="WSW, 0.79%. 4-6 m/s." style="outline:0"/><path d="M179.833 160.03a60.917 60.917 0 0 1-.01-19l15.255 2.401a45.475 45.475 0 0 0 .007 14.183Z" class="highcharts-point highcharts-color-3" tabindex="-1" aria-label="W, 1.45%. 4-6 m/s." style="outline:0"/><path d="M174.553 134.788a67.307 67.307 0 0 1 8.024-19.398l14.628 8.944a50.16 50.16 0 0 0-5.98 14.456Z" class="highcharts-point highcharts-color-3" tabindex="-1" aria-label="WNW, 1.61%. 4-6 m/s." style="outline:0"/><path d="M171.935 101.048a84.133 84.133 0 0 1 18.545-18.564l4.764 6.544a76.04 76.04 0 0 0-16.761 16.777Z" class="highcharts-point highcharts-color-3" tabindex="-1" aria-label="NW, 0.76%. 4-6 m/s." style="outline:0"/><path d="M195.707 78.22a84.772 84.772 0 0 1 24.42-10.13l.325 1.346A83.388 83.388 0 0 0 196.43 79.4Z" class="highcharts-point highcharts-color-3" tabindex="-1" aria-label="NNW, 0.13%. 4-6 m/s." style="outline:0"/></g><g class="highcharts-series highcharts-series-4 highcharts-column-series highcharts-color-4 highcharts-tracker highcharts-dense-data" data-z-index=".1" clip-path="url(#f)" aria-hidden="false" tabindex="-1" aria-label="6-8 m/s, bar series 5 of 7 with 16 bars." style="outline:0" fill="#aee" transform="translate(10 84)"><path d="M233.753 111.055a39.937 39.937 0 0 1 12.455-.006 39.937 39.937 0 0 0-12.455.006Z" class="highcharts-point highcharts-color-4" tabindex="-1" aria-label="N, 0%. 6-8 m/s." style="outline:0"/><path d="M244.251 132.792a18.211 18.211 0 0 1 5.249 2.171 18.211 18.211 0 0 0-5.249-2.17Z" class="highcharts-point highcharts-color-4" tabindex="-1" aria-label="NNE, 0%. 6-8 m/s." style="outline:0"/><path d="M250.704 135.767a18.211 18.211 0 0 1 4.018 4.014 18.211 18.211 0 0 0-4.018-4.014Z" class="highcharts-point highcharts-color-4" tabindex="-1" aria-label="NE, 0%. 6-8 m/s." style="outline:0"/><path d="M257.071 140.039a20.022 20.022 0 0 1 2.393 5.768 20.022 20.022 0 0 0-2.393-5.768Z" class="highcharts-point highcharts-color-4" tabindex="-1" aria-label="ENE, 0%. 6-8 m/s." style="outline:0"/><path d="M274.817 144.986a35.25 35.25 0 0 1 .005 10.994 35.25 35.25 0 0 0-.005-10.994Z" class="highcharts-point highcharts-color-4" tabindex="-1" aria-label="E, 0%. 6-8 m/s." style="outline:0"/><path d="M293.952 163.453a55.485 55.485 0 0 1-6.614 15.99l-1.181-.722a54.1 54.1 0 0 0 6.449-15.591Z" class="highcharts-point highcharts-color-4" tabindex="-1" aria-label="ESE, 0.13%. 6-8 m/s." style="outline:0"/><path d="M334.085 218.857a116.295 116.295 0 0 1-25.634 25.66l-10.907-14.981a97.765 97.765 0 0 0 21.55-21.571Z" class="highcharts-point highcharts-color-4" tabindex="-1" aria-label="SE, 1.74%. 6-8 m/s." style="outline:0"/><path d="M289.079 230.59a93.93 93.93 0 0 1-27.06 11.224l-1.323-5.487a88.287 88.287 0 0 0 25.434-10.55Z" class="highcharts-point highcharts-color-4" tabindex="-1" aria-label="SSE, 0.53%. 6-8 m/s." style="outline:0"/><path d="M253.045 232.861a83.388 83.388 0 0 1-26.007.013 83.388 83.388 0 0 0 26.007-.013Z" class="highcharts-point highcharts-color-4" tabindex="-1" aria-label="S, 0%. 6-8 m/s." style="outline:0"/><path d="M221.702 226.717a78.382 78.382 0 0 1-22.59-9.344 78.382 78.382 0 0 0 22.59 9.344Z" class="highcharts-point highcharts-color-4" tabindex="-1" aria-label="SSW, 0%. 6-8 m/s." style="outline:0"/><path d="M187.543 222.7a89.245 89.245 0 0 1-19.691-19.67l1.119-.816a87.86 87.86 0 0 0 19.386 19.367Z" class="highcharts-point highcharts-color-4" tabindex="-1" aria-label="SW, 0.13%. 6-8 m/s." style="outline:0"/><path d="M170.172 193.29a81.897 81.897 0 0 1-9.787-23.592l3.106-.749a78.702 78.702 0 0 0 9.405 22.673Z" class="highcharts-point highcharts-color-4" tabindex="-1" aria-label="WSW, 0.3%. 6-8 m/s." style="outline:0"/><path d="M177.098 160.463a63.686 63.686 0 0 1-.01-19.863l2.736.43a60.917 60.917 0 0 0 .01 19Z" class="highcharts-point highcharts-color-4" tabindex="-1" aria-label="W, 0.26%. 6-8 m/s." style="outline:0"/><path d="M171.136 133.967a70.82 70.82 0 0 1 8.442-20.41l2.999 1.833a67.307 67.307 0 0 0-8.024 19.398Z" class="highcharts-point highcharts-color-4" tabindex="-1" aria-label="WNW, 0.33%. 6-8 m/s." style="outline:0"/><path d="M166.248 96.916a91.162 91.162 0 0 1 20.095-20.114l4.137 5.682a84.133 84.133 0 0 0-18.545 18.564Z" class="highcharts-point highcharts-color-4" tabindex="-1" aria-label="NW, 0.66%. 6-8 m/s." style="outline:0"/><path d="M194.427 76.131a87.222 87.222 0 0 1 25.127-10.422l.574 2.38a84.772 84.772 0 0 0-24.421 10.13Z" class="highcharts-point highcharts-color-4" tabindex="-1" aria-label="NNW, 0.23%. 6-8 m/s." style="outline:0"/></g><g class="highcharts-series highcharts-series-5 highcharts-column-series highcharts-color-5 highcharts-tracker highcharts-dense-data" data-z-index=".1" clip-path="url(#g)" aria-hidden="false" tabindex="-1" aria-label="8-10 m/s, bar series 6 of 7 with 16 bars." style="outline:0" fill="#f06" transform="translate(10 84)"><path d="M233.753 111.055a39.937 39.937 0 0 1 12.455-.006 39.937 39.937 0 0 0-12.455.006Z" class="highcharts-point highcharts-color-5" tabindex="-1" aria-label="N, 0%. 8-10 m/s." style="outline:0"/><path d="M244.251 132.792a18.211 18.211 0 0 1 5.249 2.171 18.211 18.211 0 0 0-5.249-2.17Z" class="highcharts-point highcharts-color-5" tabindex="-1" aria-label="NNE, 0%. 8-10 m/s." style="outline:0"/><path d="M250.704 135.767a18.211 18.211 0 0 1 4.018 4.014 18.211 18.211 0 0 0-4.018-4.014Z" class="highcharts-point highcharts-color-5" tabindex="-1" aria-label="NE, 0%. 8-10 m/s." style="outline:0"/><path d="M257.071 140.039a20.022 20.022 0 0 1 2.393 5.768 20.022 20.022 0 0 0-2.393-5.768Z" class="highcharts-point highcharts-color-5" tabindex="-1" aria-label="ENE, 0%. 8-10 m/s." style="outline:0"/><path d="M274.817 144.986a35.25 35.25 0 0 1 .005 10.994 35.25 35.25 0 0 0-.005-10.994Z" class="highcharts-point highcharts-color-5" tabindex="-1" aria-label="E, 0%. 8-10 m/s." style="outline:0"/><path d="M293.952 163.453a55.485 55.485 0 0 1-6.614 15.99 55.485 55.485 0 0 0 6.614-15.99Z" class="highcharts-point highcharts-color-5" tabindex="-1" aria-label="ESE, 0%. 8-10 m/s." style="outline:0"/><path d="M337.445 221.298a120.449 120.449 0 0 1-26.55 26.576l-2.444-3.357a116.295 116.295 0 0 0 25.634-25.66Z" class="highcharts-point highcharts-color-5" tabindex="-1" aria-label="SE, 0.39%. 8-10 m/s." style="outline:0"/><path d="M291.805 235.039a99.15 99.15 0 0 1-28.563 11.848l-1.223-5.073a93.93 93.93 0 0 0 27.06-11.225Z" class="highcharts-point highcharts-color-5" tabindex="-1" aria-label="SSE, 0.49%. 8-10 m/s." style="outline:0"/><path d="M253.045 232.861a83.388 83.388 0 0 1-26.007.013 83.388 83.388 0 0 0 26.007-.013Z" class="highcharts-point highcharts-color-5" tabindex="-1" aria-label="S, 0%. 8-10 m/s." style="outline:0"/><path d="M221.702 226.717a78.382 78.382 0 0 1-22.59-9.344 78.382 78.382 0 0 0 22.59 9.344Z" class="highcharts-point highcharts-color-5" tabindex="-1" aria-label="SSW, 0%. 8-10 m/s." style="outline:0"/><path d="M187.543 222.7a89.245 89.245 0 0 1-19.691-19.67 89.245 89.245 0 0 0 19.691 19.67Z" class="highcharts-point highcharts-color-5" tabindex="-1" aria-label="SW, 0%. 8-10 m/s." style="outline:0"/><path d="M170.172 193.29a81.897 81.897 0 0 1-9.787-23.592 81.897 81.897 0 0 0 9.787 23.593Z" class="highcharts-point highcharts-color-5" tabindex="-1" aria-label="WSW, 0%. 8-10 m/s." style="outline:0"/><path d="M176.047 160.63a64.75 64.75 0 0 1-.01-20.195l1.052.165a63.686 63.686 0 0 0 .01 19.863Z" class="highcharts-point highcharts-color-5" tabindex="-1" aria-label="W, 0.1%. 8-10 m/s." style="outline:0"/><path d="M171.136 133.967a70.82 70.82 0 0 1 8.442-20.41 70.82 70.82 0 0 0-8.442 20.41Z" class="highcharts-point highcharts-color-5" tabindex="-1" aria-label="WNW, 0%. 8-10 m/s." style="outline:0"/><path d="M160.303 92.597a98.51 98.51 0 0 1 21.714-21.736l4.326 5.941a91.162 91.162 0 0 0-20.095 20.114Z" class="highcharts-point highcharts-color-5" tabindex="-1" aria-label="NW, 0.69%. 8-10 m/s." style="outline:0"/><path d="M193.703 74.95a88.606 88.606 0 0 1 25.526-10.587l.325 1.346a87.222 87.222 0 0 0-25.127 10.422Z" class="highcharts-point highcharts-color-5" tabindex="-1" aria-label="NNW, 0.13%. 8-10 m/s." style="outline:0"/></g><g class="highcharts-series highcharts-series-6 highcharts-column-series highcharts-color-6 highcharts-tracker highcharts-dense-data" data-z-index=".1" clip-path="url(#h)" aria-hidden="false" tabindex="-1" aria-label="&amp;gt; 10 m/s, bar series 7 of 7 with 16 bars." style="outline:0" fill="#eae" transform="translate(10 84)"><path d="M233.753 111.055a39.937 39.937 0 0 1 12.455-.006 39.937 39.937 0 0 0-12.455.006Z" class="highcharts-point highcharts-color-6" tabindex="-1" aria-label="N, 0%. &amp;gt; 10 m/s." style="outline:0"/><path d="M244.251 132.792a18.211 18.211 0 0 1 5.249 2.171 18.211 18.211 0 0 0-5.249-2.17Z" class="highcharts-point highcharts-color-6" tabindex="-1" aria-label="NNE, 0%. &amp;gt; 10 m/s." style="outline:0"/><path d="M250.704 135.767a18.211 18.211 0 0 1 4.018 4.014 18.211 18.211 0 0 0-4.018-4.014Z" class="highcharts-point highcharts-color-6" tabindex="-1" aria-label="NE, 0%. &amp;gt; 10 m/s." style="outline:0"/><path d="M257.071 140.039a20.022 20.022 0 0 1 2.393 5.768 20.022 20.022 0 0 0-2.393-5.768Z" class="highcharts-point highcharts-color-6" tabindex="-1" aria-label="ENE, 0%. &amp;gt; 10 m/s." style="outline:0"/><path d="M274.817 144.986a35.25 35.25 0 0 1 .005 10.994 35.25 35.25 0 0 0-.005-10.994Z" class="highcharts-point highcharts-color-6" tabindex="-1" aria-label="E, 0%. &amp;gt; 10 m/s." style="outline:0"/><path d="M293.952 163.453a55.485 55.485 0 0 1-6.614 15.99 55.485 55.485 0 0 0 6.614-15.99Z" class="highcharts-point highcharts-color-6" tabindex="-1" aria-label="ESE, 0%. &amp;gt; 10 m/s." style="outline:0"/><path d="M338.565 222.112a121.833 121.833 0 0 1-26.855 26.882l-.815-1.12a120.449 120.449 0 0 0 26.55-26.576Z" class="highcharts-point highcharts-color-6" tabindex="-1" aria-label="SE, 0.13%. &amp;gt; 10 m/s." style="outline:0"/><path d="M291.805 235.039a99.15 99.15 0 0 1-28.563 11.848 99.15 99.15 0 0 0 28.563-11.848Z" class="highcharts-point highcharts-color-6" tabindex="-1" aria-label="SSE, 0%. &amp;gt; 10 m/s." style="outline:0"/><path d="M253.045 232.861a83.388 83.388 0 0 1-26.007.013 83.388 83.388 0 0 0 26.007-.013Z" class="highcharts-point highcharts-color-6" tabindex="-1" aria-label="S, 0%. &amp;gt; 10 m/s." style="outline:0"/><path d="M221.702 226.717a78.382 78.382 0 0 1-22.59-9.344 78.382 78.382 0 0 0 22.59 9.344Z" class="highcharts-point highcharts-color-6" tabindex="-1" aria-label="SSW, 0%. &amp;gt; 10 m/s." style="outline:0"/><path d="M187.543 222.7a89.245 89.245 0 0 1-19.691-19.67 89.245 89.245 0 0 0 19.691 19.67Z" class="highcharts-point highcharts-color-6" tabindex="-1" aria-label="SW, 0%. &amp;gt; 10 m/s." style="outline:0"/><path d="M170.172 193.29a81.897 81.897 0 0 1-9.787-23.592 81.897 81.897 0 0 0 9.787 23.593Z" class="highcharts-point highcharts-color-6" tabindex="-1" aria-label="WSW, 0%. &amp;gt; 10 m/s." style="outline:0"/><path d="M176.047 160.63a64.75 64.75 0 0 1-.01-20.195 64.75 64.75 0 0 0 .01 20.194Z" class="highcharts-point highcharts-color-6" tabindex="-1" aria-label="W, 0%. &amp;gt; 10 m/s." style="outline:0"/><path d="M171.136 133.967a70.82 70.82 0 0 1 8.442-20.41 70.82 70.82 0 0 0-8.442 20.41Z" class="highcharts-point highcharts-color-6" tabindex="-1" aria-label="WNW, 0%. &amp;gt; 10 m/s." style="outline:0"/><path d="M160.045 92.41a98.83 98.83 0 0 1 21.784-21.807l.188.258a98.51 98.51 0 0 0-21.714 21.736Z" class="highcharts-point highcharts-color-6" tabindex="-1" aria-label="NW, 0.03%. &amp;gt; 10 m/s." style="outline:0"/><path d="M193.314 74.315a89.352 89.352 0 0 1 25.74-10.677l.175.725a88.606 88.606 0 0 0-25.526 10.588Z" class="highcharts-point highcharts-color-6" tabindex="-1" aria-label="NNW, 0.07%. &amp;gt; 10 m/s." style="outline:0"/></g></g><text x="10" class="highcharts-title" data-z-index="4" style="color:#e0e0e3;font-size:20px;text-transform:uppercase;fill:#e0e0e3" y="25" aria-hidden="true">Wind rose for South Shore Met Station,<tspan dy="23" x="10">​</tspan>Oregon</text><text x="10" class="highcharts-subtitle" data-z-index="4" style="color:#e0e0e3;text-transform:uppercase;fill:#e0e0e3" y="69" aria-hidden="true">Source: or.water.usgs.gov</text><g class="highcharts-legend highcharts-no-tooltip" data-z-index="7" transform="translate(502 110)" aria-hidden="true"><rect fill="rgba(0, 0, 0, 0.5)" class="highcharts-legend-box" rx="0" ry="0" width="88" height="116"/><g data-z-index="1"><g class="highcharts-legend-item highcharts-column-series highcharts-color-0 highcharts-series-0" data-z-index="1" transform="translate(8 3)"><text x="21" data-z-index="2" y="15" style="color:#e0e0e3;cursor:pointer;font-size:12px;font-weight:700;fill:#e0e0e3">&lt; 0.5 m/s</text><rect x="2" y="4" width="12" height="12" fill="#2b908f" rx="6" ry="6" class="highcharts-point" data-z-index="3"/></g><g class="highcharts-legend-item highcharts-column-series highcharts-color-1 highcharts-series-1" data-z-index="1" transform="translate(8 18)"><text x="21" y="15" data-z-index="2" style="color:#e0e0e3;cursor:pointer;font-size:12px;font-weight:700;fill:#e0e0e3">0.5-2 m/s</text><rect x="2" y="4" width="12" height="12" fill="#90ee7e" rx="6" ry="6" class="highcharts-point" data-z-index="3"/></g><g class="highcharts-legend-item highcharts-column-series highcharts-color-2 highcharts-series-2" data-z-index="1" transform="translate(8 33)"><text x="21" y="15" data-z-index="2" style="color:#e0e0e3;cursor:pointer;font-size:12px;font-weight:700;fill:#e0e0e3">2-4 m/s</text><rect x="2" y="4" width="12" height="12" fill="#f45b5b" rx="6" ry="6" class="highcharts-point" data-z-index="3"/></g><g class="highcharts-legend-item highcharts-column-series highcharts-color-3 highcharts-series-3" data-z-index="1" transform="translate(8 48)"><text x="21" y="15" data-z-index="2" style="color:#e0e0e3;cursor:pointer;font-size:12px;font-weight:700;fill:#e0e0e3">4-6 m/s</text><rect x="2" y="4" width="12" height="12" fill="#7798BF" rx="6" ry="6" class="highcharts-point" data-z-index="3"/></g><g class="highcharts-legend-item highcharts-column-series highcharts-color-4 highcharts-series-4" data-z-index="1" transform="translate(8 63)"><text x="21" y="15" data-z-index="2" style="color:#e0e0e3;cursor:pointer;font-size:12px;font-weight:700;fill:#e0e0e3">6-8 m/s</text><rect x="2" y="4" width="12" height="12" fill="#aee" rx="6" ry="6" class="highcharts-point" data-z-index="3"/></g><g class="highcharts-legend-item highcharts-column-series highcharts-color-5 highcharts-series-5" data-z-index="1" transform="translate(8 78)"><text x="21" y="15" data-z-index="2" style="color:#e0e0e3;cursor:pointer;font-size:12px;font-weight:700;fill:#e0e0e3">8-10 m/s</text><rect x="2" y="4" width="12" height="12" fill="#f06" rx="6" ry="6" class="highcharts-point" data-z-index="3"/></g><g class="highcharts-legend-item highcharts-column-series highcharts-color-6 highcharts-series-6" data-z-index="1" transform="translate(8 93)"><text x="21" y="15" data-z-index="2" style="color:#e0e0e3;cursor:pointer;font-size:12px;font-weight:700;fill:#e0e0e3">&gt; 10 m/s</text><rect x="2" y="4" width="12" height="12" fill="#eae" rx="6" ry="6" class="highcharts-point" data-z-index="3"/></g></g></g><g class="highcharts-axis-labels highcharts-xaxis-labels highcharts-radial-axis-labels" data-z-index="7" aria-hidden="true"><text x="250" style="color:#e0e0e3;cursor:default;font-size:11px;fill:#e0e0e3" text-anchor="middle" y="96.325">N</text><text x="304.695" style="color:#e0e0e3;cursor:default;font-size:11px;fill:#e0e0e3" y="107.205">NNE</text><text x="351.063" style="color:#e0e0e3;cursor:default;font-size:11px;fill:#e0e0e3" y="138.187">NE</text><text x="382.045" style="color:#e0e0e3;cursor:default;font-size:11px;fill:#e0e0e3" y="184.555">ENE</text><text x="392.925" style="color:#e0e0e3;cursor:default;font-size:11px;fill:#e0e0e3" y="239.25">E</text><text x="382.045" style="color:#e0e0e3;cursor:default;font-size:11px;fill:#e0e0e3" y="293.945">ESE</text><text x="351.063" style="color:#e0e0e3;cursor:default;font-size:11px;fill:#e0e0e3" y="340.313">SE</text><text x="304.695" style="color:#e0e0e3;cursor:default;font-size:11px;fill:#e0e0e3" y="371.295">SSE</text><text x="250" style="color:#e0e0e3;cursor:default;font-size:11px;fill:#e0e0e3" text-anchor="middle" y="382.175">S</text><text x="195.305" style="color:#e0e0e3;cursor:default;font-size:11px;fill:#e0e0e3" text-anchor="end" y="371.295">SSW</text><text x="148.937" style="color:#e0e0e3;cursor:default;font-size:11px;fill:#e0e0e3" text-anchor="end" y="340.313">SW</text><text x="117.955" style="color:#e0e0e3;cursor:default;font-size:11px;fill:#e0e0e3" text-anchor="end" y="293.945">WSW</text><text x="107.075" style="color:#e0e0e3;cursor:default;font-size:11px;fill:#e0e0e3" text-anchor="end" y="239.25">W</text><text x="117.955" style="color:#e0e0e3;cursor:default;font-size:11px;fill:#e0e0e3" text-anchor="end" y="184.555">WNW</text><text x="148.937" style="color:#e0e0e3;cursor:default;font-size:11px;fill:#e0e0e3" text-anchor="end" y="138.187">NW</text><text x="195.305" style="color:#e0e0e3;cursor:default;font-size:11px;fill:#e0e0e3" text-anchor="end" y="107.205">NNW</text></g><g class="highcharts-axis-labels highcharts-yaxis-labels highcharts-radial-axis-labels" data-z-index="7" aria-hidden="true" text-anchor="end"><text x="247" style="color:#e0e0e3;cursor:default;font-size:11px;fill:#e0e0e3" y="232.5">0%</text><text x="247" style="color:#e0e0e3;cursor:default;font-size:11px;fill:#e0e0e3" y="179.251">5%</text><text x="247" style="color:#e0e0e3;cursor:default;font-size:11px;fill:#e0e0e3" y="126.002">10%</text></g></svg>