<svg class="highcharts-root" style="font-family:&quot;Unica One&quot;,sans-serif;font-size:12px" xmlns="http://www.w3.org/2000/svg" width="600" height="400" aria-label="Interactive chart" aria-hidden="false"><defs aria-hidden="true"><linearGradient x1="0" y1="0" x2="1" y2="1" id="a"><stop offset="0" stop-color="#2a2a2b"/><stop offset="1" stop-color="#3e3e40"/></linearGradient><clipPath id="b"><path fill="none" d="M0 0h397v262H0z"/></clipPath></defs><rect fill="url(#a)" class="highcharts-background" width="600" height="400" rx="0" ry="0" aria-hidden="true"/><path fill="none" class="highcharts-plot-background" aria-hidden="true" d="M67 84h397v262H67z"/><g class="highcharts-grid highcharts-xaxis-grid" data-z-index="1" aria-hidden="true" fill="none" stroke="#707073"><path data-z-index="1" class="highcharts-grid-line" d="M66.5 84v262m66-262v262m66-262v262m67-262v262m66-262v262m66-262v262m67-262v262"/></g><g class="highcharts-grid highcharts-yaxis-grid" data-z-index="1" aria-hidden="true" fill="none" stroke="#707073"><path data-z-index="1" class="highcharts-grid-line" d="M67 346.5h397m-397-52h397m-397-53h397m-397-52h397m-397-53h397m-397-53h397"/></g><path fill="none" class="highcharts-plot-border" data-z-index="1" aria-hidden="true" d="M67 84h397v262H67z"/><g class="highcharts-axis highcharts-xaxis" data-z-index="2" aria-hidden="true"><path fill="none" class="highcharts-tick" stroke="#707073" d="M66.5 346v10m66-10v10m66-10v10m67-10v10m66-10v10m66-10v10m67-10v10"/><text x="265.5" data-z-index="7" text-anchor="middle" class="highcharts-axis-title" style="color:#a0a0a3;fill:#a0a0a3" y="383.5">Height (cm)</text><path fill="none" class="highcharts-axis-line" stroke="#707073" data-z-index="7" d="M67 346.5h397"/></g><g class="highcharts-axis highcharts-yaxis" data-z-index="2" aria-hidden="true"><path fill="none" class="highcharts-tick" stroke="#707073" d="M67 346.5H57m10-52H57m10-53H57m10-52H57m10-53H57m10-53H57"/><text x="23.641" data-z-index="7" text-anchor="middle" transform="rotate(-90 23.64 215)" class="highcharts-axis-title" style="color:#a0a0a3;fill:#a0a0a3" y="215">Weight (kg)</text><path fill="none" class="highcharts-axis-line" data-z-index="7" d="M67 84v262"/></g><g class="highcharts-series-group" data-z-index="3" aria-hidden="false"><g class="highcharts-series highcharts-series-0 highcharts-polygon-series" data-z-index=".1" clip-path="url(#b)" aria-hidden="true" transform="translate(67 84)"><path fill="rgba(43,144,143,0.5)" d="m105.867 204.36-13.234-10.48V170.3l13.234-23.58L119.1 131l79.4-52.4 145.567-26.2L357.3 78.6l-119.1 99.56-92.633 18.34Z" class="highcharts-area" data-z-index="0"/><path fill="none" d="m105.867 204.36-13.234-10.48V170.3l13.234-23.58L119.1 131l79.4-52.4 145.567-26.2L357.3 78.6l-119.1 99.56-92.633 18.34Z" class="highcharts-graph" data-z-index="1"/></g><g class="highcharts-markers highcharts-series-1 highcharts-scatter-series highcharts-tracker" data-z-index=".1" aria-hidden="false" tabindex="-1" aria-label="Observations, series 2 of 2, scatter plot with 55 points." style="outline:0" fill="#90ee7e"><path d="m383 80.102 4 4-4 4-4-4Z" class="highcharts-point" tabindex="-1" aria-label="Netherlands, 87.9. Observations." style="outline:0" transform="translate(67 84)"/><path d="m370 73.552 4 4-4 4-4-4Z" class="highcharts-point" tabindex="-1" aria-label="Montenegro, 90.4. Observations." style="outline:0" transform="translate(67 84)"/><path d="m357 74.862 4 4-4 4-4-4Z" class="highcharts-point" tabindex="-1" aria-label="Estonia, 89.9. Observations." style="outline:0" transform="translate(67 84)"/><path d="m357 82.984 4 4-4 4-4-4Z" class="highcharts-point" tabindex="-1" aria-label="Denmark, 86.8. Observations." style="outline:0" transform="translate(67 84)"/><path d="m344 76.696 4 4-4 4-4-4Z" class="highcharts-point" tabindex="-1" aria-label="Iceland, 89.2. Observations." style="outline:0" transform="translate(67 84)"/><path d="m344 74.862 4 4-4 4-4-4Z" class="highcharts-point" tabindex="-1" aria-label="Czechia, 89.9. Observations." style="outline:0" transform="translate(67 84)"/><path d="m330 74.862 4 4-4 4-4-4Z" class="highcharts-point" tabindex="-1" aria-label="Serbia, 89.9. Observations." style="outline:0" transform="translate(67 84)"/><path d="m330 74.862 4 4-4 4-4-4Z" class="highcharts-point" tabindex="-1" aria-label="Sweden, 89.9. Observations." style="outline:0" transform="translate(67 84)"/><path d="m330 76.958 4 4-4 4-4-4Z" class="highcharts-point" tabindex="-1" aria-label="Norway, 89.1. Observations." style="outline:0" transform="translate(67 84)"/><path d="m330 98.966 4 4-4 4-4-4Z" class="highcharts-point" tabindex="-1" aria-label="Dominica, 80.7. Observations." style="outline:0" transform="translate(67 84)"/><path d="m330 84.294 4 4-4 4-4-4Z" class="highcharts-point" tabindex="-1" aria-label="Finland, 86.3. Observations." style="outline:0" transform="translate(67 84)"/><path d="m317 78.792 4 4-4 4-4-4Z" class="highcharts-point" tabindex="-1" aria-label="Bermuda, 88.4. Observations." style="outline:0" transform="translate(67 84)"/><path d="m317 72.766 4 4-4 4-4-4Z" class="highcharts-point" tabindex="-1" aria-label="Puerto Rico, 90.7. Observations." style="outline:0" transform="translate(67 84)"/><path d="m304 90.058 4 4-4 4-4-4Z" class="highcharts-point" tabindex="-1" aria-label="Belarus, 84.1. Observations." style="outline:0" transform="translate(67 84)"/><path d="m304 38.706 4 4-4 4-4-4Z" class="highcharts-point" tabindex="-1" aria-label="Cook Islands, 103.7. Observations." style="outline:0" transform="translate(67 84)"/><path d="m291 51.544 4 4-4 4-4-4Z" class="highcharts-point" tabindex="-1" aria-label="Niue, 98.8. Observations." style="outline:0" transform="translate(67 84)"/><path d="m291 40.016 4 4-4 4-4-4Z" class="highcharts-point" tabindex="-1" aria-label="American Samoa, 103.2. Observations." style="outline:0" transform="translate(67 84)"/><path d="m277 100.014 4 4-4 4-4-4Z" class="highcharts-point" tabindex="-1" aria-label="Russia, 80.3. Observations." style="outline:0" transform="translate(67 84)"/><path d="m277 71.718 4 4-4 4-4-4Z" class="highcharts-point" tabindex="-1" aria-label="Saint Lucia, 91.1. Observations." style="outline:0" transform="translate(67 84)"/><path d="m264 134.86 4 4-4 4-4-4Z" class="highcharts-point" tabindex="-1" aria-label="Senegal, 67. Observations." style="outline:0" transform="translate(67 84)"/><path d="m264 64.906 4 4-4 4-4-4Z" class="highcharts-point" tabindex="-1" aria-label="Tonga, 93.7. Observations." style="outline:0" transform="translate(67 84)"/><path d="m251 114.948 4 4-4 4-4-4Z" class="highcharts-point" tabindex="-1" aria-label="Algeria, 74.6. Observations." style="outline:0" transform="translate(67 84)"/><path d="m251 88.486 4 4-4 4-4-4Z" class="highcharts-point" tabindex="-1" aria-label="Argentina, 84.7. Observations." style="outline:0" transform="translate(67 84)"/><path d="m251 102.11 4 4-4 4-4-4Z" class="highcharts-point" tabindex="-1" aria-label="Portugal, 79.5. Observations." style="outline:0" transform="translate(67 84)"/><path d="m238 117.568 4 4-4 4-4-4Z" class="highcharts-point" tabindex="-1" aria-label="Mauritius, 73.6. Observations." style="outline:0" transform="translate(67 84)"/><path d="m238 69.884 4 4-4 4-4-4Z" class="highcharts-point" tabindex="-1" aria-label="Samoa, 91.8. Observations." style="outline:0" transform="translate(67 84)"/><path d="m224 128.31 4 4-4 4-4-4Z" class="highcharts-point" tabindex="-1" aria-label="Japan, 69.5. Observations." style="outline:0" transform="translate(67 84)"/><path d="m224 116.52 4 4-4 4-4-4Z" class="highcharts-point" tabindex="-1" aria-label="Bahrain, 74. Observations." style="outline:0" transform="translate(67 84)"/><path d="m211 142.458 4 4-4 4-4-4Z" class="highcharts-point" tabindex="-1" aria-label="Chad, 64.1. Observations." style="outline:0" transform="translate(67 84)"/><path d="m211 79.84 4 4-4 4-4-4Z" class="highcharts-point" tabindex="-1" aria-label="Tuvalu, 88. Observations." style="outline:0" transform="translate(67 84)"/><path d="m211 132.764 4 4-4 4-4-4Z" class="highcharts-point" tabindex="-1" aria-label="Sudan, 67.8. Observations." style="outline:0" transform="translate(67 84)"/><path d="m198 156.344 4 4-4 4-4-4Z" class="highcharts-point" tabindex="-1" aria-label="Eritrea, 58.8. Observations." style="outline:0" transform="translate(67 84)"/><path d="m198 142.982 4 4-4 4-4-4Z" class="highcharts-point" tabindex="-1" aria-label="Kenya, 63.9. Observations." style="outline:0" transform="translate(67 84)"/><path d="m198 114.686 4 4-4 4-4-4Z" class="highcharts-point" tabindex="-1" aria-label="Mongolia, 74.7. Observations." style="outline:0" transform="translate(67 84)"/><path d="m198 139.838 4 4-4 4-4-4Z" class="highcharts-point" tabindex="-1" aria-label="Nigeria, 65.1. Observations." style="outline:0" transform="translate(67 84)"/><path d="m185 66.74 4 4-4 4-4-4Z" class="highcharts-point" tabindex="-1" aria-label="Nauru, 93. Observations." style="outline:0" transform="translate(67 84)"/><path d="m185 97.918 4 4-4 4-4-4Z" class="highcharts-point" tabindex="-1" aria-label="Micronesia, 81.1. Observations." style="outline:0" transform="translate(67 84)"/><path d="m185 140.362 4 4-4 4-4-4Z" class="highcharts-point" tabindex="-1" aria-label="Ghana, 64.9. Observations." style="outline:0" transform="translate(67 84)"/><path d="m185 122.022 4 4-4 4-4-4Z" class="highcharts-point" tabindex="-1" aria-label="South Africa, 71.9. Observations." style="outline:0" transform="translate(67 84)"/><path d="m172 150.056 4 4-4 4-4-4Z" class="highcharts-point" tabindex="-1" aria-label="Vietnam, 61.2. Observations." style="outline:0" transform="translate(67 84)"/><path d="m172 137.742 4 4-4 4-4-4Z" class="highcharts-point" tabindex="-1" aria-label="Ivory Coast, 65.9. Observations." style="outline:0" transform="translate(67 84)"/><path d="m172 129.096 4 4-4 4-4-4Z" class="highcharts-point" tabindex="-1" aria-label="Maldives, 69.2. Observations." style="outline:0" transform="translate(67 84)"/><path d="m172 162.37 4 4-4 4-4-4Z" class="highcharts-point" tabindex="-1" aria-label="Ethiopia, 56.5. Observations." style="outline:0" transform="translate(67 84)"/><path d="m158 115.996 4 4-4 4-4-4Z" class="highcharts-point" tabindex="-1" aria-label="Ecuador, 74.2. Observations." style="outline:0" transform="translate(67 84)"/><path d="m158 151.89 4 4-4 4-4-4Z" class="highcharts-point" tabindex="-1" aria-label="Burundi, 60.5. Observations." style="outline:0" transform="translate(67 84)"/><path d="m145 128.048 4 4-4 4-4-4Z" class="highcharts-point" tabindex="-1" aria-label="India, 69.6. Observations." style="outline:0" transform="translate(67 84)"/><path d="m145 114.686 4 4-4 4-4-4Z" class="highcharts-point" tabindex="-1" aria-label="Brunei, 74.7. Observations." style="outline:0" transform="translate(67 84)"/><path d="m132 159.226 4 4-4 4-4-4Z" class="highcharts-point" tabindex="-1" aria-label="Bangladesh, 57.7. Observations." style="outline:0" transform="translate(67 84)"/><path d="m132 157.392 4 4-4 4-4-4Z" class="highcharts-point" tabindex="-1" aria-label="Madagascar, 58.4. Observations." style="outline:0" transform="translate(67 84)"/><path d="m132 148.484 4 4-4 4-4-4Z" class="highcharts-point" tabindex="-1" aria-label="Philippines, 61.8. Observations." style="outline:0" transform="translate(67 84)"/><path d="m119 151.89 4 4-4 4-4-4Z" class="highcharts-point" tabindex="-1" aria-label="Nepal, 60.5. Observations." style="outline:0" transform="translate(67 84)"/><path d="m119 129.358 4 4-4 4-4-4Z" class="highcharts-point" tabindex="-1" aria-label="Guatemala, 69.1. Observations." style="outline:0" transform="translate(67 84)"/><path d="m105 146.65 4 4-4 4-4-4Z" class="highcharts-point" tabindex="-1" aria-label="Yemen, 62.5. Observations." style="outline:0" transform="translate(67 84)"/><path d="m92 154.51 4 4-4 4-4-4Z" class="highcharts-point" tabindex="-1" aria-label="Laos, 59.5. Observations." style="outline:0" transform="translate(67 84)"/><path d="m52 169.182 4 4-4 4-4-4Z" class="highcharts-point" tabindex="-1" aria-label="Timor-Leste, 53.9. Observations." style="outline:0" transform="translate(67 84)"/></g></g><text x="300" text-anchor="middle" class="highcharts-title" data-z-index="4" style="color:#e0e0e3;font-size:20px;text-transform:uppercase;fill:#e0e0e3" y="25" aria-hidden="true">Average height and weight for men by<tspan dy="23" x="300">​</tspan>country</text><text x="300" text-anchor="middle" class="highcharts-subtitle" data-z-index="4" style="color:#e0e0e3;text-transform:uppercase;fill:#e0e0e3" y="69" aria-hidden="true">Source: <a target="_blank"><tspan>WorldData</tspan></a></text><g class="highcharts-legend highcharts-no-tooltip" data-z-index="7" transform="translate(476 177)" aria-hidden="true"><rect fill="rgba(0, 0, 0, 0.5)" class="highcharts-legend-box" rx="0" ry="0" width="113" height="41"/><g data-z-index="1"><g class="highcharts-legend-item highcharts-polygon-series highcharts-color-undefined highcharts-series-0" data-z-index="1" transform="translate(8 3)"><text x="21" data-z-index="2" y="15" style="color:#e0e0e3;cursor:pointer;font-size:12px;font-weight:700;fill:#e0e0e3">Target</text><rect x="2" y="4" width="12" height="12" fill="rgba(43,144,143,0.5)" rx="6" ry="6" class="highcharts-point" data-z-index="3"/></g><g class="highcharts-legend-item highcharts-scatter-series highcharts-color-undefined highcharts-series-1" data-z-index="1"><path fill="none" d="M8 29h16" class="highcharts-graph"/><path fill="#90ee7e" d="m16 25 4 4-4 4-4-4Z" class="highcharts-point"/><text x="21" y="15" data-z-index="2" style="color:#e0e0e3;cursor:pointer;font-size:12px;font-weight:700;fill:#e0e0e3" transform="translate(8 18)">Observations</text></g></g></g><g class="highcharts-axis-labels highcharts-xaxis-labels" data-z-index="7" aria-hidden="true" text-anchor="middle"><text x="67" style="color:#e0e0e3;cursor:default;font-size:11px;fill:#e0e0e3" y="365">155</text><text x="133.167" style="color:#e0e0e3;cursor:default;font-size:11px;fill:#e0e0e3" y="365">160</text><text x="199.333" style="color:#e0e0e3;cursor:default;font-size:11px;fill:#e0e0e3" y="365">165</text><text x="265.5" style="color:#e0e0e3;cursor:default;font-size:11px;fill:#e0e0e3" y="365">170</text><text x="331.667" style="color:#e0e0e3;cursor:default;font-size:11px;fill:#e0e0e3" y="365">175</text><text x="397.833" style="color:#e0e0e3;cursor:default;font-size:11px;fill:#e0e0e3" y="365">180</text><text x="464" style="color:#e0e0e3;cursor:default;font-size:11px;fill:#e0e0e3" y="365">185</text></g><g class="highcharts-axis-labels highcharts-yaxis-labels" data-z-index="7" aria-hidden="true" text-anchor="end"><text x="52" style="color:#e0e0e3;cursor:default;font-size:11px;fill:#e0e0e3" y="351">20</text><text x="52" style="color:#e0e0e3;cursor:default;font-size:11px;fill:#e0e0e3" y="298">40</text><text x="52" style="color:#e0e0e3;cursor:default;font-size:11px;fill:#e0e0e3" y="246">60</text><text x="52" style="color:#e0e0e3;cursor:default;font-size:11px;fill:#e0e0e3" y="194">80</text><text x="52" style="color:#e0e0e3;cursor:default;font-size:11px;fill:#e0e0e3" y="141">100</text><text x="52" style="color:#e0e0e3;cursor:default;font-size:11px;fill:#e0e0e3" y="89">120</text></g></svg>