<svg class="highcharts-root" style="font-family:&quot;Unica One&quot;,sans-serif;font-size:12px" xmlns="http://www.w3.org/2000/svg" width="600" height="400" aria-label="Interactive chart" aria-hidden="false"><defs aria-hidden="true"><linearGradient x1="0" y1="0" x2="1" y2="1" id="a"><stop offset="0" stop-color="#2a2a2b"/><stop offset="1" stop-color="#3e3e40"/></linearGradient><linearGradient x1="117.03" x2="452.97" y1="326.895" y2="326.895" id="c" gradientUnits="userSpaceOnUse"><stop offset="0" stop-color="#005D5C"/><stop offset=".5" stop-color="#2b908f"/><stop offset="1" stop-color="#005D5C"/></linearGradient><linearGradient x1="228.204" x2="341.796" y1="121.726" y2="121.726" id="d" gradientUnits="userSpaceOnUse"><stop offset="0" stop-color="#5DBB4B"/><stop offset=".5" stop-color="#90ee7e"/><stop offset="1" stop-color="#5DBB4B"/></linearGradient><linearGradient x1="257.438" x2="312.562" y1="70.672" y2="70.672" id="e" gradientUnits="userSpaceOnUse"><stop offset="0" stop-color="#C12828"/><stop offset=".5" stop-color="#f45b5b"/><stop offset="1" stop-color="#C12828"/></linearGradient><linearGradient x1="271.796" x2="298.204" y1="46.028" y2="46.028" id="f" gradientUnits="userSpaceOnUse"><stop offset="0" stop-color="#44658C"/><stop offset=".5" stop-color="#7798BF"/><stop offset="1" stop-color="#44658C"/></linearGradient><linearGradient x1="285" x2="285" y1="23.609" y2="23.609" id="g" gradientUnits="userSpaceOnUse"><stop offset="0" stop-color="#7BB"/><stop offset=".5" stop-color="#aee"/><stop offset="1" stop-color="#7BB"/></linearGradient><linearGradient x1="278.956" x2="291.044" y1="33.986" y2="33.986" id="h" gradientUnits="userSpaceOnUse"><stop offset="0" stop-color="#7BB"/><stop offset=".5" stop-color="#aee"/><stop offset="1" stop-color="#7BB"/></linearGradient><filter id="b"><feComponentTransfer><feFuncA type="table" tableValues="0 1"/></feComponentTransfer></filter></defs><rect fill="url(#a)" class="highcharts-background" width="600" height="400" rx="0" ry="0" aria-hidden="true"/><path d="M31.928 371.308h546.144l5.316 11.504H26.612Zm551.441 12.454H25.655l.957-.95h556.776Z" class="highcharts-3d-frame highcharts-3d-frame-bottom" data-z-index="-1000" aria-hidden="true" fill="none"/><g stroke-linejoin="round" class="highcharts-3d-frame highcharts-3d-frame-left" data-z-index="-1000" aria-hidden="true" fill="none"><path d="m24.697 48.458.871.105L20 53.909h-1Zm.871.105 6.36 322.745-5.316 11.504L20 53.909Z"/><path d="M25.655 383.762 19 53.909h1l6.612 328.903Z"/></g><path d="M24.697 48.458h559.626l.109.105H25.568Zm.871.105h558.864l-6.36 322.745H31.928Z" class="highcharts-3d-frame highcharts-3d-frame-back" data-z-index="-1000" aria-hidden="true" fill="none"/><path fill="none" class="highcharts-plot-background" aria-hidden="true" d="M20 47h570v338H20z"/><g class="highcharts-grid highcharts-yaxis-grid" data-z-index="1" aria-hidden="true" fill="none"><path data-z-index="1" class="highcharts-grid-line" d="M31.937 371.774h546.126M26.622 383.287l5.315-11.513m-.886-44.933H578.95M25.702 337.515l5.35-10.674m-.91-46.17h549.716m-555.102 9.805 5.386-9.805m-.897-45.526h551.51m-556.932 8.942 5.422-8.942m-.903-45.825h553.316m-558.773 8.07 5.457-8.069m-.909-46.126h555.134M21.94 150.377l5.494-7.182m-.935-47.401H583.5M20.968 102.06l5.53-6.266m-.92-46.743h558.844M20.01 54.407l5.568-5.356"/></g><path fill="none" class="highcharts-plot-border" data-z-index="1" aria-hidden="true" d="M20 47h570v338H20z"/><g class="highcharts-axis highcharts-yaxis" data-z-index="2" aria-hidden="true" fill="none" stroke="#707073"><path class="highcharts-tick" d="M26.622 383.287h-9.768m8.848-45.772h-9.8m8.854-47.039h-9.833m8.9-46.389h-9.865m8.927-46.698h-9.9m8.955-47.012h-9.933m8.961-48.317h-9.966m8.988-48.65h-10"/></g><g class="highcharts-series-group" data-z-index="3" aria-hidden="false"><g class="highcharts-markers highcharts-series-0 highcharts-pyramid3d-series highcharts-tracker" data-z-index="10" aria-hidden="false" stroke-linejoin="round" stroke-width="0"><g data-z-index="285102206" stroke="#2b908f" class="highcharts-point highcharts-color-0" tabindex="-1" aria-label="Website visits, 15,654. Unique users." style="outline:0"><path fill="#005D5C" d="M468.114 327.886c22.534 20.378-35.37 41.308-131.971 45.342-97.934 4.09-187.582-11.13-198.084-32.493-9.757-19.85 53.513-37.54 139.641-40.68 85.1-3.102 169.44 8.865 190.414 27.831" class="highcharts-3d-bottom" data-z-index="0" stroke="none"/><g class="highcharts-funnel3d-lower-group" data-z-index="0" filter="url(#b)" transform="translate(20 47)"/><g class="highcharts-funnel3d-upper-group" data-z-index="2" filter="url(#b)" fill="url(#c)" stroke="none" transform="translate(20 47)"><path d="M228.87 114.432c-4.711-4.648 16.218-8.983 46.487-9.772 30.14-.786 59.306 2.213 65.334 6.79l107.423 169.436C427.14 261.92 342.8 249.953 257.7 253.056c-86.128 3.14-149.398 20.828-139.64 40.679Z" class="highcharts-3d-backUpper" data-z-index="1"/><path d="M340.69 111.45c6.178 4.689-14.14 9.278-45.607 10.137-31.607.863-61.384-2.39-66.213-7.155L118.06 293.735c10.5 21.363 100.149 36.583 198.083 32.493 96.601-4.034 154.505-24.964 131.97-45.342Z" class="highcharts-3d-frontUpper" data-z-index="2"/><path d="M341.13 114.432c-4.829 4.765-34.606 8.018-66.213 7.155-31.467-.86-51.785-5.448-45.608-10.138L121.886 280.886c-22.534 20.378 35.37 41.308 131.971 45.342 97.934 4.09 187.582-11.13 198.084-32.493Z" class="highcharts-3d-rightUpper" data-z-index="2"/></g><path fill="#44A9A8" d="M360.69 158.45c6.178 4.689-14.14 9.278-45.607 10.137-31.607.863-61.384-2.39-66.213-7.155-4.711-4.648 16.218-8.983 46.487-9.772 30.14-.786 59.306 2.213 65.334 6.79" class="highcharts-3d-top" data-z-index="3" stroke="none"/></g><g data-z-index="285102673" stroke="#90ee7e" class="highcharts-point highcharts-color-1" tabindex="-1" aria-label="Downloads, 4,064. Unique users." style="outline:0"><path fill="#5DBB4B" d="M360.69 158.45c6.178 4.689-14.14 9.278-45.607 10.137-31.607.863-61.384-2.39-66.213-7.155-4.711-4.648 16.218-8.983 46.487-9.772 30.14-.786 59.306 2.213 65.334 6.79" class="highcharts-3d-bottom" data-z-index="0" stroke="none"/><g class="highcharts-funnel3d-lower-group" data-z-index="0" filter="url(#b)" transform="translate(20 47)"/><g class="highcharts-funnel3d-upper-group" data-z-index="2" filter="url(#b)" fill="url(#d)" stroke="none" transform="translate(20 47)"><path d="M257.81 67.604c-2.468-1.987 7.619-3.864 22.456-4.208 14.807-.343 29.04.963 31.82 2.935l28.605 45.118c-6.028-4.576-35.194-7.575-65.334-6.79-30.269.79-51.198 5.125-46.487 9.773Z" class="highcharts-3d-backUpper" data-z-index="1"/><path d="M312.086 66.331c2.814 1.996-7.129 3.925-22.249 4.284-15.152.36-29.528-1-32.026-3.011l-28.94 46.828c4.828 4.765 34.605 8.018 66.212 7.155 31.467-.86 51.785-5.448 45.608-10.138Z" class="highcharts-3d-frontUpper" data-z-index="2"/><path d="M312.19 67.604c-2.499 2.011-16.875 3.37-32.027 3.01-15.12-.358-25.063-2.287-22.249-4.283l-28.605 45.118c-6.177 4.69 14.14 9.279 45.608 10.138 31.607.863 61.384-2.39 66.213-7.155Z" class="highcharts-3d-rightUpper" data-z-index="2"/></g><path fill="#A9FF97" d="M332.086 113.331c2.814 1.996-7.129 3.925-22.249 4.284-15.152.36-29.528-1-32.026-3.011-2.469-1.987 7.618-3.864 22.455-4.208 14.807-.343 29.04.963 31.82 2.935" class="highcharts-3d-top" data-z-index="3" stroke="none"/></g><g data-z-index="285102902" stroke="#f45b5b" class="highcharts-point highcharts-color-2" tabindex="-1" aria-label="Requested price list, 1,987. Unique users." style="outline:0"><path fill="#C12828" d="M332.086 113.331c2.814 1.996-7.129 3.925-22.249 4.284-15.152.36-29.528-1-32.026-3.011-2.469-1.987 7.618-3.864 22.455-4.208 14.807-.343 29.04.963 31.82 2.935" class="highcharts-3d-bottom" data-z-index="0" stroke="none"/><g class="highcharts-funnel3d-lower-group" data-z-index="0" filter="url(#b)" transform="translate(20 47)"/><g class="highcharts-funnel3d-upper-group" data-z-index="2" filter="url(#b)" fill="url(#e)" stroke="none" transform="translate(20 47)"><path d="M271.986 44.666c-1.225-.888 3.59-1.733 10.733-1.888 7.137-.155 13.973.434 15.27 1.32l14.097 22.233c-2.78-1.972-17.013-3.278-31.82-2.935-14.837.344-24.924 2.22-22.455 4.208Z" class="highcharts-3d-backUpper" data-z-index="1"/><path d="M297.99 44.098c1.305.89-3.477 1.746-10.685 1.904-7.216.159-14.086-.442-15.319-1.336l-14.175 22.938c2.498 2.011 16.874 3.37 32.026 3.01 15.12-.358 25.063-2.287 22.249-4.283Z" class="highcharts-3d-frontUpper" data-z-index="2"/><path d="M298.014 44.666c-1.233.894-8.103 1.495-15.319 1.336-7.208-.158-11.99-1.014-10.685-1.904L257.914 66.33c-2.814 1.996 7.129 3.925 22.249 4.284 15.152.36 29.528-1 32.026-3.011Z" class="highcharts-3d-rightUpper" data-z-index="2"/></g><path fill="#FF7474" d="M317.99 91.098c1.305.89-3.477 1.746-10.685 1.904-7.216.159-14.086-.442-15.319-1.336-1.225-.888 3.59-1.733 10.733-1.888 7.137-.155 13.973.434 15.27 1.32" class="highcharts-3d-top" data-z-index="3" stroke="none"/></g><g data-z-index="285103014" stroke="#7798BF" class="highcharts-point highcharts-color-3" tabindex="-1" aria-label="Invoice sent, 976. Unique users." style="outline:0"><path fill="#44658C" d="M317.99 91.098c1.305.89-3.477 1.746-10.685 1.904-7.216.159-14.086-.442-15.319-1.336-1.225-.888 3.59-1.733 10.733-1.888 7.137-.155 13.973.434 15.27 1.32" class="highcharts-3d-bottom" data-z-index="0" stroke="none"/><g class="highcharts-funnel3d-lower-group" data-z-index="0" filter="url(#b)" transform="translate(20 47)"/><g class="highcharts-funnel3d-upper-group" data-z-index="2" filter="url(#b)" fill="url(#f)" stroke="none" transform="translate(20 47)"><path d="m278.956 33.39 4.981-.849 7.102.594 6.95 10.963c-1.297-.886-8.133-1.475-15.27-1.32-7.143.155-11.958 1-10.733 1.888Z" class="highcharts-3d-backUpper" data-z-index="1"/><path d="m291.04 33.135-4.972.85-7.112-.596-6.97 11.277c1.233.894 8.103 1.495 15.319 1.336 7.208-.158 11.99-1.014 10.685-1.904Z" class="highcharts-3d-frontUpper" data-z-index="2"/><path d="m291.044 33.39-7.112.596-4.971-.851-6.95 10.963c-1.306.89 3.476 1.746 10.684 1.904 7.216.159 14.086-.442 15.319-1.336Z" class="highcharts-3d-rightUpper" data-z-index="2"/></g><path fill="#90B1D8" d="m311.04 80.135-4.972.85-7.112-.596 4.981-.848Z" class="highcharts-3d-top" data-z-index="3" stroke="none"/></g><g data-z-index="285103111" class="highcharts-point highcharts-color-4" tabindex="-1" aria-label="Finalized, 846. Unique users." style="outline:0"><path fill="#7BB" d="m311.04 80.135-4.972.85-7.112-.596 4.981-.848Z" class="highcharts-3d-bottom" data-z-index="0"/><g class="highcharts-funnel3d-upper-group" data-z-index="2" filter="url(#b)" fill="url(#g)" transform="translate(20 47)"><path d="M285 23.609Z" class="highcharts-3d-backUpper" data-z-index="1"/><path d="M285 23.609Z" class="highcharts-3d-frontUpper" data-z-index="2"/><path d="M285 23.609Z" class="highcharts-3d-rightUpper" data-z-index="2"/></g><g class="highcharts-funnel3d-lower-group" data-z-index="2" filter="url(#b)" fill="url(#h)" transform="translate(20 47)"><path d="m285 23.609 6.04 9.526-7.103-.594-4.981.848Z" class="highcharts-3d-backLower" data-z-index="1"/><path d="m291.044 33.39-7.112.596-4.971-.851L285 23.609Z" class="highcharts-3d-rightLower" data-z-index="1"/><path d="m285 23.609-6.044 9.78 7.112.597 4.971-.851Z" class="highcharts-3d-frontLower" data-z-index="2"/></g><path fill="#C3FFFF" d="M305 70.609Z" class="highcharts-3d-top" data-z-index="3"/></g></g></g><text x="300" text-anchor="middle" class="highcharts-title" data-z-index="4" style="color:#e0e0e3;font-size:20px;text-transform:uppercase;fill:#e0e0e3" y="25" aria-hidden="true">Highcharts Pyramid3D Chart</text><g class="highcharts-data-labels highcharts-series-0 highcharts-pyramid3d-series highcharts-tracker" data-z-index="6" aria-hidden="true"><text x="5" data-z-index="1" y="18" style="color:#f0f0f3;font-size:13px;font-weight:700;fill:#f0f0f3" transform="translate(372 153)" class="highcharts-label highcharts-data-label highcharts-data-label-color-0"><tspan class="highcharts-text-outline" fill="#000" stroke="#000" stroke-width="2" stroke-linejoin="round"><tspan style="font-weight:700">Website visits</tspan> (15 654)<tspan x="5" dy="0">​</tspan></tspan><tspan style="font-weight:700">Website visits</tspan> (15 654)</text><text x="5" data-z-index="1" y="18" style="color:#f0f0f3;font-size:13px;font-weight:700;fill:#f0f0f3" transform="translate(342 107)" class="highcharts-label highcharts-data-label highcharts-data-label-color-1"><tspan class="highcharts-text-outline" fill="#000" stroke="#000" stroke-width="2" stroke-linejoin="round"><tspan style="font-weight:700">Downloads</tspan> (4 064)<tspan x="5" dy="0">​</tspan></tspan><tspan style="font-weight:700">Downloads</tspan> (4 064)</text><text x="5" data-z-index="1" y="18" style="color:#f0f0f3;font-size:13px;font-weight:700;fill:#f0f0f3" transform="translate(328 85)" class="highcharts-label highcharts-data-label highcharts-data-label-color-2"><tspan class="highcharts-text-outline" fill="#000" stroke="#000" stroke-width="2" stroke-linejoin="round"><tspan style="font-weight:700">Requested price list</tspan> (1 987)<tspan x="5" dy="0">​</tspan></tspan><tspan style="font-weight:700">Requested price list</tspan> (1 987)</text><text x="5" data-z-index="1" y="18" style="color:#f0f0f3;font-size:13px;font-weight:700;fill:#f0f0f3" transform="translate(321 74)" class="highcharts-label highcharts-data-label highcharts-data-label-color-3"><tspan class="highcharts-text-outline" fill="#000" stroke="#000" stroke-width="2" stroke-linejoin="round"><tspan style="font-weight:700">Invoice sent</tspan> (976)<tspan x="5" dy="0">​</tspan></tspan><tspan style="font-weight:700">Invoice sent</tspan> (976)</text><text x="5" data-z-index="1" y="18" style="color:#f0f0f3;font-size:13px;font-weight:700;fill:#f0f0f3" transform="translate(315 64)" class="highcharts-label highcharts-data-label highcharts-data-label-color-4"><tspan class="highcharts-text-outline" fill="#000" stroke="#000" stroke-width="2" stroke-linejoin="round"><tspan style="font-weight:700">Finalized</tspan> (846)<tspan x="5" dy="0">​</tspan></tspan><tspan style="font-weight:700">Finalized</tspan> (846)</text></g></svg>