<svg class="highcharts-root" style="font-family:&quot;Unica One&quot;,sans-serif;font-size:12px" xmlns="http://www.w3.org/2000/svg" width="600" height="400" aria-label="Interactive chart" aria-hidden="false"><defs aria-hidden="true"><linearGradient x1="0" y1="0" x2="1" y2="1" id="a"><stop offset="0" stop-color="#2a2a2b"/><stop offset="1" stop-color="#3e3e40"/></linearGradient></defs><rect fill="url(#a)" class="highcharts-background" width="600" height="400" rx="0" ry="0" aria-hidden="true"/><path fill="none" class="highcharts-plot-background" aria-hidden="true" d="M82 61h508v247H82z"/><g class="highcharts-grid highcharts-xaxis-grid" data-z-index="1" aria-hidden="true" fill="none"><path data-z-index="1" class="highcharts-grid-line" d="M81.5 61v247m73-247v247m72-247v247m73-247v247m72-247v247m73-247v247m72-247v247m73-247v247"/></g><g class="highcharts-grid highcharts-yaxis-grid" data-z-index="1" aria-hidden="true" fill="none" stroke="#707073"><path data-z-index="1" class="highcharts-grid-line" d="M82 308.5h508m-508-49h508m-508-50h508m-508-49h508m-508-50h508m-508-50h508"/></g><path fill="none" class="highcharts-plot-border" data-z-index="1" aria-hidden="true" d="M82 61h508v247H82z"/><g class="highcharts-axis highcharts-xaxis" data-z-index="2" aria-hidden="true"><path fill="none" class="highcharts-tick" stroke="#707073" d="M81.5 308v10m73-10v10m72-10v10m73-10v10m72-10v10m73-10v10m72-10v10m74-10v10"/><text x="336" data-z-index="7" text-anchor="middle" class="highcharts-axis-title" style="color:#a0a0a3;fill:#a0a0a3" y="345.5">Height</text><path fill="none" class="highcharts-axis-line" stroke="#707073" data-z-index="7" d="M82 308.5h508"/></g><g class="highcharts-axis highcharts-yaxis" data-z-index="2" aria-hidden="true"><path fill="none" class="highcharts-tick" stroke="#707073" d="M82 308.5H72m10-49H72m10-50H72m10-49H72m10-50H72m10-50H72"/><text x="23.969" data-z-index="7" text-anchor="middle" transform="rotate(-90 23.969 184.5)" class="highcharts-axis-title" style="color:#a0a0a3;fill:#a0a0a3" y="184.5">Weight</text><path fill="none" class="highcharts-axis-line" data-z-index="7" d="M82 61v247"/></g><g class="highcharts-series-group" data-z-index="3" aria-hidden="false"><g class="highcharts-markers highcharts-series-0 highcharts-scatter-series highcharts-color-0 highcharts-tracker" data-z-index=".1" aria-hidden="false" tabindex="-1" aria-label="Basketball, scatter plot 1 of 3 with 284 points." style="outline:0" fill="rgba(5,141,199,0.5)"><path d="M369.5 97.348a2.5 2.5 0 1 1 .002 0Zm-7 13.832a2.5 2.5 0 1 1 .002 0Zm-138 19.76a2.5 2.5 0 1 1 .002 0Zm116-43.472a2.5 2.5 0 1 1 .002 0Zm51 1.976a2.5 2.5 0 1 1 .002 0Z" class="highcharts-point highcharts-color-0" tabindex="-1" aria-hidden="true" style="outline:0" transform="translate(82 61)"/><path d="M391.5 85.492a2.5 2.5 0 1 1 .002 0Zm-44 33.592a2.5 2.5 0 1 1 .002 0Zm80-27.664a2.5 2.5 0 1 1 .002 0Zm-65 41.496a2.5 2.5 0 1 1 .002 0Zm-51-7.904a2.5 2.5 0 1 1 .002 0Zm22-15.808a2.5 2.5 0 1 1 .002 0Zm87-25.688a2.5 2.5 0 1 1 .002 0Zm-7-25.688a2.5 2.5 0 1 1 .002 0Zm0 13.832a2.5 2.5 0 1 1 .002 0Z" class="highcharts-point highcharts-color-0" tabindex="-1" aria-hidden="true" style="outline:0" transform="translate(82 61)"/><path d="M420.5 87.468a2.5 2.5 0 1 1 .002 0Zm-15-21.736a2.5 2.5 0 1 1 .002 0Zm-101 55.328a2.5 2.5 0 1 1 .002 0Zm0-5.928a2.5 2.5 0 1 1 .002 0Zm-44 5.928a2.5 2.5 0 1 1 .002 0Zm174-23.712a2.5 2.5 0 1 1 .002 0Zm-50 7.904a2.5 2.5 0 1 1 .002 0Zm-218 55.328a2.5 2.5 0 1 1 .002 0Zm225-41.496a2.5 2.5 0 1 1 .002 0Zm-196 41.496a2.5 2.5 0 1 1 .002 0Zm80-37.544a2.5 2.5 0 1 1 .002 0Zm22 21.736a2.5 2.5 0 1 1 .002 0Zm-189 35.568a2.5 2.5 0 1 1 .002 0Zm225-51.376a2.5 2.5 0 1 1 .002 0Zm-36-5.928a2.5 2.5 0 1 1 .002 0Zm21 25.688a2.5 2.5 0 1 1 .002 0Zm-80-17.784a2.5 2.5 0 1 1 .002 0Zm15 25.688a2.5 2.5 0 1 1 .002 0Zm7-9.88a2.5 2.5 0 1 1 .002 0Zm109-31.616a2.5 2.5 0 1 1 .002 0Zm-109 11.856a2.5 2.5 0 1 1 .002 0Zm-101 37.544a2.5 2.5 0 1 1 .002 0Zm-15 7.904a2.5 2.5 0 1 1 .002 0Zm160-35.568a2.5 2.5 0 1 1 .002 0Zm-29 7.904a2.5 2.5 0 1 1 .002 0Zm-109 25.688a2.5 2.5 0 1 1 .002 0Zm116-17.784a2.5 2.5 0 1 1 .002 0Zm0-19.76a2.5 2.5 0 1 1 .002 0Zm-36 17.784a2.5 2.5 0 1 1 .002 0Zm-29 15.808a2.5 2.5 0 1 1 .002 0Z" class="highcharts-point highcharts-color-0" tabindex="-1" aria-hidden="true" style="outline:0" transform="translate(82 61)"/><path d="M275.5 144.772a2.5 2.5 0 1 1 .002 0Zm-124 17.784a2.5 2.5 0 1 1 .002 0Zm175-33.592a2.5 2.5 0 1 1 .002 0Zm-109 33.592a2.5 2.5 0 1 1 .002 0Zm-73 7.904a2.5 2.5 0 1 1 .002 0Zm160-73.112a2.5 2.5 0 1 1 .002 0Zm101-31.616a2.5 2.5 0 1 1 .002 0Zm-167 57.304a2.5 2.5 0 1 1 .002 0Zm182-71.136a2.5 2.5 0 1 1 .002 0Zm-131 88.92a2.5 2.5 0 1 1 .002 0Zm51-23.712a2.5 2.5 0 1 1 .002 0Zm51-15.808a2.5 2.5 0 1 1 .002 0Zm-182 47.424a2.5 2.5 0 1 1 .002 0Zm15 13.832a2.5 2.5 0 1 1 .002 0Zm-94 7.904a2.5 2.5 0 1 1 .002 0Zm174-53.352a2.5 2.5 0 1 1 .002 0Zm14-9.88a2.5 2.5 0 1 1 .002 0Zm-21 13.832a2.5 2.5 0 1 1 .002 0Zm116-27.664a2.5 2.5 0 1 1 .002 0Zm-95 31.616a2.5 2.5 0 1 1 .002 0Zm124-49.4a2.5 2.5 0 1 1 .002 0Zm-269 73.112a2.5 2.5 0 1 1 .002 0Zm247-86.944a2.5 2.5 0 1 1 .002 0Zm-145 49.4a2.5 2.5 0 1 1 .002 0Zm29 25.688a2.5 2.5 0 1 1 .002 0Z" class="highcharts-point highcharts-color-0" tabindex="-1" aria-hidden="true" style="outline:0" transform="translate(82 61)"/><path d="M151.5 162.556a2.5 2.5 0 1 1 .002 0Zm73 0a2.5 2.5 0 1 1 .002 0Zm65-37.544a2.5 2.5 0 1 1 .002 0Z" class="highcharts-point highcharts-color-0" tabindex="-1" aria-hidden="true" style="outline:0" transform="translate(82 61)"/><path d="M289.5 123.036a2.5 2.5 0 1 1 .002 0Zm-58 41.496a2.5 2.5 0 1 1 .002 0Zm22-7.904a2.5 2.5 0 1 1 .002 0Zm0-5.928a2.5 2.5 0 1 1 .002 0Zm-94 23.712a2.5 2.5 0 1 1 .002 0Zm130-37.544a2.5 2.5 0 1 1 .002 0Zm0 19.76a2.5 2.5 0 1 1 .002 0Zm0-27.664a2.5 2.5 0 1 1 .002 0Zm-21 21.736a2.5 2.5 0 1 1 .002 0Zm-124 35.568a2.5 2.5 0 1 1 .002 0Zm36-25.688a2.5 2.5 0 1 1 .002 0Zm73-17.784a2.5 2.5 0 1 1 .002 0Zm51-11.856a2.5 2.5 0 1 1 .002 0Zm-73 19.76a2.5 2.5 0 1 1 .002 0Zm102-69.16a2.5 2.5 0 1 1 .002 0Zm-7 23.712a2.5 2.5 0 1 1 .002 0Zm130-29.64a2.5 2.5 0 1 1 .002 0Z" class="highcharts-point highcharts-color-0" tabindex="-1" aria-hidden="true" style="outline:0" transform="translate(82 61)"/><path d="M253.5 140.82a2.5 2.5 0 1 1 .002 0Zm73-5.928a2.5 2.5 0 1 1 .002 0Zm-37-1.976a2.5 2.5 0 1 1 .002 0Zm203-61.256a2.5 2.5 0 1 1 .002 0Zm-166 41.496a2.5 2.5 0 1 1 .002 0Zm79-15.808a2.5 2.5 0 1 1 .002 0Zm80 13.832a2.5 2.5 0 1 1 .002 0Zm-174-1.976a2.5 2.5 0 1 1 .002 0Zm-109 67.184a2.5 2.5 0 1 1 .002 0Z" class="highcharts-point highcharts-color-0" tabindex="-1" aria-hidden="true" style="outline:0" transform="translate(82 61)"/><path d="M289.5 136.868a2.5 2.5 0 1 1 .002 0Zm0-5.928a2.5 2.5 0 1 1 .002 0Zm-43 19.76a2.5 2.5 0 1 1 .002 0Zm29-5.928a2.5 2.5 0 1 1 .002 0Zm116-43.472a2.5 2.5 0 1 1 .002 0Zm-160 63.232a2.5 2.5 0 1 1 .002 0Zm131-45.448a2.5 2.5 0 1 1 .002 0Zm22-31.616a2.5 2.5 0 1 1 .002 0Zm79 13.832a2.5 2.5 0 1 1 .002 0Zm-333 84.968a2.5 2.5 0 1 1 .002 0Zm232-90.896a2.5 2.5 0 1 1 .002 0Zm51-13.832a2.5 2.5 0 1 1 .002 0Zm29-19.76a2.5 2.5 0 1 1 .002 0Zm-87 53.352a2.5 2.5 0 1 1 .002 0Zm-15-13.832a2.5 2.5 0 1 1 .002 0Zm36 11.856a2.5 2.5 0 1 1 .002 0Zm8-11.856a2.5 2.5 0 1 1 .002 0Zm29-9.88a2.5 2.5 0 1 1 .002 0Zm43-31.616a2.5 2.5 0 1 1 .002 0Zm-196 71.136a2.5 2.5 0 1 1 .002 0Zm66-5.928a2.5 2.5 0 1 1 .002 0Z" class="highcharts-point highcharts-color-0" tabindex="-1" aria-hidden="true" style="outline:0" transform="translate(82 61)"/><path d="M384.5 91.42a2.5 2.5 0 1 1 .002 0Zm-87 73.112a2.5 2.5 0 1 1 .002 0Zm50-49.4a2.5 2.5 0 1 1 .002 0Zm-159 65.208a2.5 2.5 0 1 1 .002 0Zm138-15.808a2.5 2.5 0 1 1 .002 0Zm65-81.016a2.5 2.5 0 1 1 .002 0Zm-94 37.544a2.5 2.5 0 1 1 .002 0Zm14 15.808a2.5 2.5 0 1 1 .002 0Zm-87 25.688a2.5 2.5 0 1 1 .002 0Zm73-17.784a2.5 2.5 0 1 1 .002 0Zm-8-23.712a2.5 2.5 0 1 1 .002 0Zm-36 31.616a2.5 2.5 0 1 1 .002 0Zm-36 3.952a2.5 2.5 0 1 1 .002 0Zm-22 19.76a2.5 2.5 0 1 1 .002 0Zm138-61.256a2.5 2.5 0 1 1 .002 0Z" class="highcharts-point highcharts-color-0" tabindex="-1" aria-hidden="true" style="outline:0" transform="translate(82 61)"/><path d="M217.5 158.604a2.5 2.5 0 1 1 .002 0Zm203-57.304a2.5 2.5 0 1 1 .002 0Zm51-29.64a2.5 2.5 0 1 1 .002 0Zm-160 65.208a2.5 2.5 0 1 1 .002 0Zm22-3.952a2.5 2.5 0 1 1 .002 0Zm-44-13.832a2.5 2.5 0 1 1 .002 0Zm8 21.736a2.5 2.5 0 1 1 .002 0Zm-175 31.616a2.5 2.5 0 1 1 .002 0Zm283-84.968a2.5 2.5 0 1 1 .002 0Zm29-15.808a2.5 2.5 0 1 1 .002 0Zm-123 57.304a2.5 2.5 0 1 1 .002 0Zm73-57.304a2.5 2.5 0 1 1 .002 0Zm-44 21.736a2.5 2.5 0 1 1 .002 0Zm-65 33.592a2.5 2.5 0 1 1 .002 0Zm94-31.616a2.5 2.5 0 1 1 .002 0Zm-174 65.208a2.5 2.5 0 1 1 .002 0Zm145-37.544a2.5 2.5 0 1 1 .002 0Zm-51-29.64a2.5 2.5 0 1 1 .002 0Zm138-21.736a2.5 2.5 0 1 1 .002 0Zm15 19.76a2.5 2.5 0 1 1 .002 0Zm-174 53.352a2.5 2.5 0 1 1 .002 0Zm21-11.856a2.5 2.5 0 1 1 .002 0Zm-94 45.448a2.5 2.5 0 1 1 .002 0Zm174-57.304a2.5 2.5 0 1 1 .002 0Zm-36 0a2.5 2.5 0 1 1 .002 0Zm51-29.64a2.5 2.5 0 1 1 .002 0Zm-283 102.752a2.5 2.5 0 1 1 .002 0Z" class="highcharts-point highcharts-color-0" tabindex="-1" aria-hidden="true" style="outline:0" transform="translate(82 61)"/><path d="M471.5 75.612a2.5 2.5 0 1 1 .002 0Zm-160 59.28a2.5 2.5 0 1 1 .002 0Zm-94 35.568a2.5 2.5 0 1 1 .002 0Zm58-35.568a2.5 2.5 0 1 1 .002 0Zm-15 5.928a2.5 2.5 0 1 1 .002 0Zm-14 15.808a2.5 2.5 0 1 1 .002 0Zm36-25.688a2.5 2.5 0 1 1 .002 0Zm-174 45.448a2.5 2.5 0 1 1 .002 0Zm58 0a2.5 2.5 0 1 1 .002 0Zm72-31.616a2.5 2.5 0 1 1 .002 0Zm-50 19.76a2.5 2.5 0 1 1 .002 0Zm7-9.88a2.5 2.5 0 1 1 .002 0Z" class="highcharts-point highcharts-color-0" tabindex="-1" aria-hidden="true" style="outline:0" transform="translate(82 61)"/><path d="M108.5 176.388a2.5 2.5 0 1 1 .002 0Zm189-45.448a2.5 2.5 0 1 1 .002 0Zm-218 55.328a2.5 2.5 0 1 1 .002 0Zm101-15.808a2.5 2.5 0 1 1 .002 0Zm73-17.784a2.5 2.5 0 1 1 .002 0Zm-22 7.904a2.5 2.5 0 1 1 .002 0Zm87-39.52a2.5 2.5 0 1 1 .002 0Zm102-47.424a2.5 2.5 0 1 1 .002 0Zm0 9.88a2.5 2.5 0 1 1 .002 0Zm-73 11.856a2.5 2.5 0 1 1 .002 0Zm95-33.592a2.5 2.5 0 1 1 .002 0Z" class="highcharts-point highcharts-color-0" tabindex="-1" aria-hidden="true" style="outline:0" transform="translate(82 61)"/><path d="M318.5 121.06a2.5 2.5 0 1 1 .002 0Zm29-3.952a2.5 2.5 0 1 1 .002 0Zm44-15.808a2.5 2.5 0 1 1 .002 0Zm7-9.88a2.5 2.5 0 1 1 .002 0Zm-65 43.472a2.5 2.5 0 1 1 .002 0Zm101-67.184a2.5 2.5 0 1 1 .002 0Zm0 29.64a2.5 2.5 0 1 1 .002 0Zm-43-9.88a2.5 2.5 0 1 1 .002 0Zm-94 29.64a2.5 2.5 0 1 1 .002 0Z" class="highcharts-point highcharts-color-0" tabindex="-1" aria-hidden="true" style="outline:0" transform="translate(82 61)"/><path d="M347.5 121.06a2.5 2.5 0 1 1 .002 0Zm-14-13.832a2.5 2.5 0 1 1 .002 0Zm101-5.928a2.5 2.5 0 1 1 .002 0Zm-43-29.64a2.5 2.5 0 1 1 .002 0Zm-109 63.232a2.5 2.5 0 1 1 .002 0Zm87-13.832a2.5 2.5 0 1 1 .002 0Zm-101 3.952a2.5 2.5 0 1 1 .002 0Zm152-27.664a2.5 2.5 0 1 1 .002 0Zm-109 13.832a2.5 2.5 0 1 1 .002 0Zm-58 39.52a2.5 2.5 0 1 1 .002 0Zm-15 0a2.5 2.5 0 1 1 .002 0Zm-116 33.592a2.5 2.5 0 1 1 .002 0Zm22-23.712a2.5 2.5 0 1 1 .002 0Z" class="highcharts-point highcharts-color-0" tabindex="-1" aria-hidden="true" style="outline:0" transform="translate(82 61)"/><path d="M122.5 180.34a2.5 2.5 0 1 1 .002 0Zm87-35.568a2.5 2.5 0 1 1 .002 0Zm138-23.712a2.5 2.5 0 1 1 .002 0Zm-94 15.808a2.5 2.5 0 1 1 .002 0Zm36 3.952a2.5 2.5 0 1 1 .002 0Zm-7-11.856a2.5 2.5 0 1 1 .002 0Zm-73 35.568a2.5 2.5 0 1 1 .002 0Zm59-15.808a2.5 2.5 0 1 1 .002 0Zm-30 11.856a2.5 2.5 0 1 1 .002 0Zm102-57.304a2.5 2.5 0 1 1 .002 0Zm-160 67.184a2.5 2.5 0 1 1 .002 0Zm95-23.712a2.5 2.5 0 1 1 .002 0Zm51 7.904a2.5 2.5 0 1 1 .002 0Zm-37-21.736a2.5 2.5 0 1 1 .002 0Zm95-23.712a2.5 2.5 0 1 1 .002 0Zm14-21.736a2.5 2.5 0 1 1 .002 0Zm-232 86.944a2.5 2.5 0 1 1 .002 0Zm160-53.352a2.5 2.5 0 1 1 .002 0Zm130-79.04a2.5 2.5 0 1 1 .002 0Zm-159 79.04a2.5 2.5 0 1 1 .002 0Zm-88 35.568a2.5 2.5 0 1 1 .002 0Zm218-84.968a2.5 2.5 0 1 1 .002 0Zm-51 25.688a2.5 2.5 0 1 1 .002 0Zm-65 37.544a2.5 2.5 0 1 1 .002 0Zm-109 21.736a2.5 2.5 0 1 1 .002 0Zm80-5.928a2.5 2.5 0 1 1 .002 0Zm152-57.304a2.5 2.5 0 1 1 .002 0Zm-101 19.76a2.5 2.5 0 1 1 .002 0Zm22-3.952a2.5 2.5 0 1 1 .002 0Zm-211 71.136a2.5 2.5 0 1 1 .002 0Zm298-102.752a2.5 2.5 0 1 1 .002 0Zm-262 84.968a2.5 2.5 0 1 1 .002 0Zm109-13.832a2.5 2.5 0 1 1 .002 0Zm-109 31.616a2.5 2.5 0 1 1 .002 0Zm167-79.04a2.5 2.5 0 1 1 .002 0Zm-188 75.088a2.5 2.5 0 1 1 .002 0Zm138-29.64a2.5 2.5 0 1 1 .002 0Zm7-15.808a2.5 2.5 0 1 1 .002 0Zm-73 49.4a2.5 2.5 0 1 1 .002 0Zm-14-17.784a2.5 2.5 0 1 1 .002 0Zm14-21.736a2.5 2.5 0 1 1 .002 0Z" class="highcharts-point highcharts-color-0" tabindex="-1" aria-hidden="true" style="outline:0" transform="translate(82 61)"/><path d="M282.5 128.964a2.5 2.5 0 1 1 .002 0Zm-7 1.976a2.5 2.5 0 1 1 .002 0Zm-22 29.64a2.5 2.5 0 1 1 .002 0Zm58-17.784a2.5 2.5 0 1 1 .002 0Zm73-29.64a2.5 2.5 0 1 1 .002 0Zm0-29.64a2.5 2.5 0 1 1 .002 0Zm58-21.736a2.5 2.5 0 1 1 .002 0Zm-73 41.496a2.5 2.5 0 1 1 .002 0Zm65-45.448a2.5 2.5 0 1 1 .002 0Zm-203 102.752a2.5 2.5 0 1 1 .002 0Zm131-67.184a2.5 2.5 0 1 1 .002 0Zm-36 35.568a2.5 2.5 0 1 1 .002 0Zm58-31.616a2.5 2.5 0 1 1 .002 0Z" class="highcharts-point highcharts-color-0" tabindex="-1" aria-hidden="true" style="outline:0" transform="translate(82 61)"/><path d="M369.5 103.276a2.5 2.5 0 1 1 .002 0Zm29-9.88a2.5 2.5 0 1 1 .002 0Zm-36 13.832a2.5 2.5 0 1 1 .002 0Zm-124 7.904a2.5 2.5 0 1 1 .002 0Zm51 11.856a2.5 2.5 0 1 1 .002 0Zm-109 29.64a2.5 2.5 0 1 1 .002 0Zm58-13.832a2.5 2.5 0 1 1 .002 0Zm146-39.52a2.5 2.5 0 1 1 .002 0Zm-146 49.4a2.5 2.5 0 1 1 .002 0Zm-58 15.808a2.5 2.5 0 1 1 .002 0Zm167-47.424a2.5 2.5 0 1 1 .002 0Zm-94 25.688a2.5 2.5 0 1 1 .002 0Zm58-21.736a2.5 2.5 0 1 1 .002 0Zm87-9.88a2.5 2.5 0 1 1 .002 0Z" class="highcharts-point highcharts-color-0" tabindex="-1" aria-hidden="true" style="outline:0" transform="translate(82 61)"/><path d="M238.5 142.796a2.5 2.5 0 1 1 .002 0Zm167-114.608a2.5 2.5 0 1 1 .002 0Zm-174 92.872a2.5 2.5 0 1 1 .002 0Z" class="highcharts-point highcharts-color-0" tabindex="-1" aria-hidden="true" style="outline:0" transform="translate(82 61)"/><path d="M238.5 142.796a2.5 2.5 0 1 1 .002 0Zm95-31.616a2.5 2.5 0 1 1 .002 0Zm0-27.664a2.5 2.5 0 1 1 .002 0Zm72-17.784a2.5 2.5 0 1 1 .002 0Zm-29 27.664a2.5 2.5 0 1 1 .002 0Zm8-11.856a2.5 2.5 0 1 1 .002 0Zm14 0a2.5 2.5 0 1 1 .002 0Z" class="highcharts-point highcharts-color-0" tabindex="-1" aria-hidden="true" style="outline:0" transform="translate(82 61)"/></g><g class="highcharts-markers highcharts-series-1 highcharts-scatter-series highcharts-color-1 highcharts-tracker" data-z-index=".1" aria-hidden="false" tabindex="-1" aria-label="Triathlon, scatter plot 2 of 3 with 109 points." style="outline:0" fill="rgba(80,180,50,0.5)"><path d="m173.5 173.364 2.5 5h-5Z" class="highcharts-point highcharts-color-1" tabindex="-1" aria-label="x, 1.74, 61. Triathlon." style="outline:0" transform="translate(82 61)"/><path d="m188.5 169.412 2.5 5h-5Z" class="highcharts-point highcharts-color-1" tabindex="-1" aria-label="x, 1.76, 63. Triathlon." style="outline:0" transform="translate(82 61)"/><path d="m217.5 161.508 2.5 5h-5Z" class="highcharts-point highcharts-color-1" tabindex="-1" aria-label="x, 1.8, 67. Triathlon." style="outline:0" transform="translate(82 61)"/><path d="m151.5 191.148 2.5 5h-5Z" class="highcharts-point highcharts-color-1" tabindex="-1" aria-label="x, 1.71, 52. Triathlon." style="outline:0" transform="translate(82 61)"/><path d="m151.5 181.268 2.5 5h-5Z" class="highcharts-point highcharts-color-1" tabindex="-1" aria-label="x, 1.71, 57. Triathlon." style="outline:0" transform="translate(82 61)"/><path d="m108.5 191.148 2.5 5h-5Z" class="highcharts-point highcharts-color-1" tabindex="-1" aria-label="x, 1.65, 52. Triathlon." style="outline:0" transform="translate(82 61)"/><path d="m195.5 173.364 2.5 5h-5Z" class="highcharts-point highcharts-color-1" tabindex="-1" aria-label="x, 1.77, 61. Triathlon." style="outline:0" transform="translate(82 61)"/><path d="m166.5 167.436 2.5 5h-5Z" class="highcharts-point highcharts-color-1" tabindex="-1" aria-label="x, 1.73, 64. Triathlon." style="outline:0" transform="translate(82 61)"/><path d="m93.5 199.052 2.5 5h-5Z" class="highcharts-point highcharts-color-1" tabindex="-1" aria-label="x, 1.63, 48. Triathlon." style="outline:0" transform="translate(82 61)"/><path d="m144.5 185.22 2.5 5h-5Z" class="highcharts-point highcharts-color-1" tabindex="-1" aria-label="x, 1.7, 55. Triathlon." style="outline:0" transform="translate(82 61)"/><path d="m246.5 155.58 2.5 5h-5Z" class="highcharts-point highcharts-color-1" tabindex="-1" aria-label="x, 1.84, 70. Triathlon." style="outline:0" transform="translate(82 61)"/><path d="m268.5 147.676 2.5 5h-5Z" class="highcharts-point highcharts-color-1" tabindex="-1" aria-label="x, 1.87, 74. Triathlon." style="outline:0" transform="translate(82 61)"/><path d="m217.5 159.532 2.5 5h-5Z" class="highcharts-point highcharts-color-1" tabindex="-1" aria-label="x, 1.8, 68. Triathlon." style="outline:0" transform="translate(82 61)"/><path d="m130.5 187.196 2.5 5h-5Z" class="highcharts-point highcharts-color-1" tabindex="-1" aria-label="x, 1.68, 54. Triathlon." style="outline:0" transform="translate(82 61)"/><path d="m159.5 173.364 2.5 5h-5Z" class="highcharts-point highcharts-color-1" tabindex="-1" aria-label="x, 1.72, 61. Triathlon." style="outline:0" transform="translate(82 61)"/><path d="m144.5 173.364 2.5 5h-5Z" class="highcharts-point highcharts-color-1" tabindex="-1" aria-label="x, 1.7, 61. Triathlon." style="outline:0" transform="translate(82 61)"/><path d="m238.5 167.436 2.5 5h-5Z" class="highcharts-point highcharts-color-1" tabindex="-1" aria-label="x, 1.83, 64. Triathlon." style="outline:0" transform="translate(82 61)"/><path d="m93.5 181.268 2.5 5h-5Z" class="highcharts-point highcharts-color-1" tabindex="-1" aria-label="x, 1.63, 57. Triathlon." style="outline:0" transform="translate(82 61)"/><path d="m289.5 135.82 2.5 5h-5Z" class="highcharts-point highcharts-color-1" tabindex="-1" aria-label="x, 1.9, 80. Triathlon." style="outline:0" transform="translate(82 61)"/><path d="m108.5 175.34 2.5 5h-5Z" class="highcharts-point highcharts-color-1" tabindex="-1" aria-label="x, 1.65, 60. Triathlon." style="outline:0" transform="translate(82 61)"/><path d="m130.5 189.172 2.5 5h-5Z" class="highcharts-point highcharts-color-1" tabindex="-1" aria-label="x, 1.68, 53. Triathlon." style="outline:0" transform="translate(82 61)"/><path d="m289.5 145.7 2.5 5h-5Z" class="highcharts-point highcharts-color-1" tabindex="-1" aria-label="x, 1.9, 75. Triathlon." style="outline:0" transform="translate(82 61)"/><path d="m93.5 197.076 2.5 5h-5Z" class="highcharts-point highcharts-color-1" tabindex="-1" aria-label="x, 1.63, 49. Triathlon." style="outline:0" transform="translate(82 61)"/><path d="m151.5 165.46 2.5 5h-5Z" class="highcharts-point highcharts-color-1" tabindex="-1" aria-label="x, 1.71, 65. Triathlon." style="outline:0" transform="translate(82 61)"/><path d="m159.5 177.316 2.5 5h-5Z" class="highcharts-point highcharts-color-1" tabindex="-1" aria-label="x, 1.72, 59. Triathlon." style="outline:0" transform="translate(82 61)"/><path d="m50.5 203.004 2.5 5h-5Z" class="highcharts-point highcharts-color-1" tabindex="-1" aria-label="x, 1.57, 46. Triathlon." style="outline:0" transform="translate(82 61)"/><path d="m166.5 163.484 2.5 5h-5Z" class="highcharts-point highcharts-color-1" tabindex="-1" aria-label="x, 1.73, 66. Triathlon." style="outline:0" transform="translate(82 61)"/><path d="m122.5 175.34 2.5 5h-5Z" class="highcharts-point highcharts-color-1" tabindex="-1" aria-label="x, 1.67, 60. Triathlon." style="outline:0" transform="translate(82 61)"/><path d="m209.5 165.46 2.5 5h-5Z" class="highcharts-point highcharts-color-1" tabindex="-1" aria-label="x, 1.79, 65. Triathlon." style="outline:0" transform="translate(82 61)"/><path d="m130.5 195.1 2.5 5h-5Z" class="highcharts-point highcharts-color-1" tabindex="-1" aria-label="x, 1.68, 50. Triathlon." style="outline:0" transform="translate(82 61)"/><path d="m253.5 155.58 2.5 5h-5Z" class="highcharts-point highcharts-color-1" tabindex="-1" aria-label="x, 1.85, 70. Triathlon." style="outline:0" transform="translate(82 61)"/><path d="m72.5 197.076 2.5 5h-5Z" class="highcharts-point highcharts-color-1" tabindex="-1" aria-label="x, 1.6, 49. Triathlon." style="outline:0" transform="translate(82 61)"/><path d="m72.5 199.052 2.5 5h-5Z" class="highcharts-point highcharts-color-1" tabindex="-1" aria-label="x, 1.6, 48. Triathlon." style="outline:0" transform="translate(82 61)"/><path d="m159.5 175.34 2.5 5h-5Z" class="highcharts-point highcharts-color-1" tabindex="-1" aria-label="x, 1.72, 60. Triathlon." style="outline:0" transform="translate(82 61)"/><path d="m202.5 161.508 2.5 5h-5Z" class="highcharts-point highcharts-color-1" tabindex="-1" aria-label="x, 1.78, 67. Triathlon." style="outline:0" transform="translate(82 61)"/><path d="m202.5 169.412 2.5 5h-5Z" class="highcharts-point highcharts-color-1" tabindex="-1" aria-label="x, 1.78, 63. Triathlon." style="outline:0" transform="translate(82 61)"/><path d="m101.5 191.148 2.5 5h-5Z" class="highcharts-point highcharts-color-1" tabindex="-1" aria-label="x, 1.64, 52. Triathlon." style="outline:0" transform="translate(82 61)"/><path d="m224.5 147.676 2.5 5h-5Z" class="highcharts-point highcharts-color-1" tabindex="-1" aria-label="x, 1.81, 74. Triathlon." style="outline:0" transform="translate(82 61)"/><path d="m188.5 173.364 2.5 5h-5Z" class="highcharts-point highcharts-color-1" tabindex="-1" aria-label="x, 1.76, 61. Triathlon." style="outline:0" transform="translate(82 61)"/><path d="m21.5 204.98 2.5 5h-5Z" class="highcharts-point highcharts-color-1" tabindex="-1" aria-label="x, 1.53, 45. Triathlon." style="outline:0" transform="translate(82 61)"/><path d="m195.5 187.196 2.5 5h-5Z" class="highcharts-point highcharts-color-1" tabindex="-1" aria-label="x, 1.77, 54. Triathlon." style="outline:0" transform="translate(82 61)"/><path d="m224.5 155.58 2.5 5h-5Z" class="highcharts-point highcharts-color-1" tabindex="-1" aria-label="x, 1.81, 70. Triathlon." style="outline:0" transform="translate(82 61)"/><path d="m188.5 165.46 2.5 5h-5Z" class="highcharts-point highcharts-color-1" tabindex="-1" aria-label="x, 1.76, 65. Triathlon." style="outline:0" transform="translate(82 61)"/><path d="m195.5 165.46 2.5 5h-5Z" class="highcharts-point highcharts-color-1" tabindex="-1" aria-label="x, 1.77, 65. Triathlon." style="outline:0" transform="translate(82 61)"/><path d="m246.5 155.58 2.5 5h-5Z" class="highcharts-point highcharts-color-1" tabindex="-1" aria-label="x, 1.84, 70. Triathlon." style="outline:0" transform="translate(82 61)"/><path d="m297.5 139.772 2.5 5h-5Z" class="highcharts-point highcharts-color-1" tabindex="-1" aria-label="x, 1.91, 78. Triathlon." style="outline:0" transform="translate(82 61)"/><path d="m137.5 185.22 2.5 5h-5Z" class="highcharts-point highcharts-color-1" tabindex="-1" aria-label="x, 1.69, 55. Triathlon." style="outline:0" transform="translate(82 61)"/><path d="m224.5 155.58 2.5 5h-5Z" class="highcharts-point highcharts-color-1" tabindex="-1" aria-label="x, 1.81, 70. Triathlon." style="outline:0" transform="translate(82 61)"/><path d="m144.5 185.22 2.5 5h-5Z" class="highcharts-point highcharts-color-1" tabindex="-1" aria-label="x, 1.7, 55. Triathlon." style="outline:0" transform="translate(82 61)"/><path d="m130.5 183.244 2.5 5h-5Z" class="highcharts-point highcharts-color-1" tabindex="-1" aria-label="x, 1.68, 56. Triathlon." style="outline:0" transform="translate(82 61)"/><path d="m101.5 193.124 2.5 5h-5Z" class="highcharts-point highcharts-color-1" tabindex="-1" aria-label="x, 1.64, 51. Triathlon." style="outline:0" transform="translate(82 61)"/><path d="m130.5 181.268 2.5 5h-5Z" class="highcharts-point highcharts-color-1" tabindex="-1" aria-label="x, 1.68, 57. Triathlon." style="outline:0" transform="translate(82 61)"/><path d="m159.5 167.436 2.5 5h-5Z" class="highcharts-point highcharts-color-1" tabindex="-1" aria-label="x, 1.72, 64. Triathlon." style="outline:0" transform="translate(82 61)"/><path d="m202.5 179.292 2.5 5h-5Z" class="highcharts-point highcharts-color-1" tabindex="-1" aria-label="x, 1.78, 58. Triathlon." style="outline:0" transform="translate(82 61)"/><path d="m180.5 165.46 2.5 5h-5Z" class="highcharts-point highcharts-color-1" tabindex="-1" aria-label="x, 1.75, 65. Triathlon." style="outline:0" transform="translate(82 61)"/><path d="m217.5 179.292 2.5 5h-5Z" class="highcharts-point highcharts-color-1" tabindex="-1" aria-label="x, 1.8, 58. Triathlon." style="outline:0" transform="translate(82 61)"/><path d="m137.5 189.172 2.5 5h-5Z" class="highcharts-point highcharts-color-1" tabindex="-1" aria-label="x, 1.69, 53. Triathlon." style="outline:0" transform="translate(82 61)"/><path d="m180.5 165.46 2.5 5h-5Z" class="highcharts-point highcharts-color-1" tabindex="-1" aria-label="x, 1.75, 65. Triathlon." style="outline:0" transform="translate(82 61)"/><path d="m180.5 165.46 2.5 5h-5Z" class="highcharts-point highcharts-color-1" tabindex="-1" aria-label="x, 1.75, 65. Triathlon." style="outline:0" transform="translate(82 61)"/><path d="m260.5 141.748 2.5 5h-5Z" class="highcharts-point highcharts-color-1" tabindex="-1" aria-label="x, 1.86, 77. Triathlon." style="outline:0" transform="translate(82 61)"/><path d="m79.5 195.1 2.5 5h-5Z" class="highcharts-point highcharts-color-1" tabindex="-1" aria-label="x, 1.61, 50. Triathlon." style="outline:0" transform="translate(82 61)"/><path d="m166.5 175.34 2.5 5h-5Z" class="highcharts-point highcharts-color-1" tabindex="-1" aria-label="x, 1.73, 60. Triathlon." style="outline:0" transform="translate(82 61)"/><path d="m253.5 167.436 2.5 5h-5Z" class="highcharts-point highcharts-color-1" tabindex="-1" aria-label="x, 1.85, 64. Triathlon." style="outline:0" transform="translate(82 61)"/><path d="m144.5 173.364 2.5 5h-5Z" class="highcharts-point highcharts-color-1" tabindex="-1" aria-label="x, 1.7, 61. Triathlon." style="outline:0" transform="translate(82 61)"/><path d="m35.5 206.956 2.5 5h-5Z" class="highcharts-point highcharts-color-1" tabindex="-1" aria-label="x, 1.55, 44. Triathlon." style="outline:0" transform="translate(82 61)"/><path d="m122.5 171.388 2.5 5h-5Z" class="highcharts-point highcharts-color-1" tabindex="-1" aria-label="x, 1.67, 62. Triathlon." style="outline:0" transform="translate(82 61)"/><path d="m151.5 183.244 2.5 5h-5Z" class="highcharts-point highcharts-color-1" tabindex="-1" aria-label="x, 1.71, 56. Triathlon." style="outline:0" transform="translate(82 61)"/><path d="m79.5 199.052 2.5 5h-5Z" class="highcharts-point highcharts-color-1" tabindex="-1" aria-label="x, 1.61, 48. Triathlon." style="outline:0" transform="translate(82 61)"/><path d="m108.5 189.172 2.5 5h-5Z" class="highcharts-point highcharts-color-1" tabindex="-1" aria-label="x, 1.65, 53. Triathlon." style="outline:0" transform="translate(82 61)"/><path d="m151.5 183.244 2.5 5h-5Z" class="highcharts-point highcharts-color-1" tabindex="-1" aria-label="x, 1.71, 56. Triathlon." style="outline:0" transform="translate(82 61)"/><path d="m115.5 175.34 2.5 5h-5Z" class="highcharts-point highcharts-color-1" tabindex="-1" aria-label="x, 1.66, 60. Triathlon." style="outline:0" transform="translate(82 61)"/><path d="m180.5 167.436 2.5 5h-5Z" class="highcharts-point highcharts-color-1" tabindex="-1" aria-label="x, 1.75, 64. Triathlon." style="outline:0" transform="translate(82 61)"/><path d="m217.5 157.556 2.5 5h-5Z" class="highcharts-point highcharts-color-1" tabindex="-1" aria-label="x, 1.8, 69. Triathlon." style="outline:0" transform="translate(82 61)"/><path d="m151.5 185.22 2.5 5h-5Z" class="highcharts-point highcharts-color-1" tabindex="-1" aria-label="x, 1.71, 55. Triathlon." style="outline:0" transform="translate(82 61)"/><path d="m115.5 193.124 2.5 5h-5Z" class="highcharts-point highcharts-color-1" tabindex="-1" aria-label="x, 1.66, 51. Triathlon." style="outline:0" transform="translate(82 61)"/><path d="m72.5 195.1 2.5 5h-5Z" class="highcharts-point highcharts-color-1" tabindex="-1" aria-label="x, 1.6, 50. Triathlon." style="outline:0" transform="translate(82 61)"/><path d="m144.5 183.244 2.5 5h-5Z" class="highcharts-point highcharts-color-1" tabindex="-1" aria-label="x, 1.7, 56. Triathlon." style="outline:0" transform="translate(82 61)"/><path d="m180.5 171.388 2.5 5h-5Z" class="highcharts-point highcharts-color-1" tabindex="-1" aria-label="x, 1.75, 62. Triathlon." style="outline:0" transform="translate(82 61)"/><path d="m238.5 159.532 2.5 5h-5Z" class="highcharts-point highcharts-color-1" tabindex="-1" aria-label="x, 1.83, 68. Triathlon." style="outline:0" transform="translate(82 61)"/><path d="m144.5 177.316 2.5 5h-5Z" class="highcharts-point highcharts-color-1" tabindex="-1" aria-label="x, 1.7, 59. Triathlon." style="outline:0" transform="translate(82 61)"/><path d="m260.5 151.628 2.5 5h-5Z" class="highcharts-point highcharts-color-1" tabindex="-1" aria-label="x, 1.86, 72. Triathlon." style="outline:0" transform="translate(82 61)"/><path d="m151.5 175.34 2.5 5h-5Z" class="highcharts-point highcharts-color-1" tabindex="-1" aria-label="x, 1.71, 60. Triathlon." style="outline:0" transform="translate(82 61)"/><path d="m166.5 171.388 2.5 5h-5Z" class="highcharts-point highcharts-color-1" tabindex="-1" aria-label="x, 1.73, 62. Triathlon." style="outline:0" transform="translate(82 61)"/><path d="m130.5 183.244 2.5 5h-5Z" class="highcharts-point highcharts-color-1" tabindex="-1" aria-label="x, 1.68, 56. Triathlon." style="outline:0" transform="translate(82 61)"/><path d="m130.5 189.172 2.5 5h-5Z" class="highcharts-point highcharts-color-1" tabindex="-1" aria-label="x, 1.68, 53. Triathlon." style="outline:0" transform="translate(82 61)"/><path d="m144.5 177.316 2.5 5h-5Z" class="highcharts-point highcharts-color-1" tabindex="-1" aria-label="x, 1.7, 59. Triathlon." style="outline:0" transform="translate(82 61)"/><path d="m151.5 175.34 2.5 5h-5Z" class="highcharts-point highcharts-color-1" tabindex="-1" aria-label="x, 1.71, 60. Triathlon." style="outline:0" transform="translate(82 61)"/><path d="m217.5 155.58 2.5 5h-5Z" class="highcharts-point highcharts-color-1" tabindex="-1" aria-label="x, 1.8, 70. Triathlon." style="outline:0" transform="translate(82 61)"/><path d="m246.5 137.796 2.5 5h-5Z" class="highcharts-point highcharts-color-1" tabindex="-1" aria-label="x, 1.84, 79. Triathlon." style="outline:0" transform="translate(82 61)"/><path d="m130.5 183.244 2.5 5h-5Z" class="highcharts-point highcharts-color-1" tabindex="-1" aria-label="x, 1.68, 56. Triathlon." style="outline:0" transform="translate(82 61)"/><path d="m101.5 193.124 2.5 5h-5Z" class="highcharts-point highcharts-color-1" tabindex="-1" aria-label="x, 1.64, 51. Triathlon." style="outline:0" transform="translate(82 61)"/><path d="m231.5 157.556 2.5 5h-5Z" class="highcharts-point highcharts-color-1" tabindex="-1" aria-label="x, 1.82, 69. Triathlon." style="outline:0" transform="translate(82 61)"/><path d="m297.5 151.628 2.5 5h-5Z" class="highcharts-point highcharts-color-1" tabindex="-1" aria-label="x, 1.91, 72. Triathlon." style="outline:0" transform="translate(82 61)"/><path d="m115.5 185.22 2.5 5h-5Z" class="highcharts-point highcharts-color-1" tabindex="-1" aria-label="x, 1.66, 55. Triathlon." style="outline:0" transform="translate(82 61)"/><path d="m137.5 179.292 2.5 5h-5Z" class="highcharts-point highcharts-color-1" tabindex="-1" aria-label="x, 1.69, 58. Triathlon." style="outline:0" transform="translate(82 61)"/><path d="m217.5 149.652 2.5 5h-5Z" class="highcharts-point highcharts-color-1" tabindex="-1" aria-label="x, 1.8, 73. Triathlon." style="outline:0" transform="translate(82 61)"/><path d="m115.5 183.244 2.5 5h-5Z" class="highcharts-point highcharts-color-1" tabindex="-1" aria-label="x, 1.66, 56. Triathlon." style="outline:0" transform="translate(82 61)"/><path d="m115.5 187.196 2.5 5h-5Z" class="highcharts-point highcharts-color-1" tabindex="-1" aria-label="x, 1.66, 54. Triathlon." style="outline:0" transform="translate(82 61)"/><path d="m231.5 157.556 2.5 5h-5Z" class="highcharts-point highcharts-color-1" tabindex="-1" aria-label="x, 1.82, 69. Triathlon." style="outline:0" transform="translate(82 61)"/><path d="m275.5 165.46 2.5 5h-5Z" class="highcharts-point highcharts-color-1" tabindex="-1" aria-label="x, 1.88, 65. Triathlon." style="outline:0" transform="translate(82 61)"/><path d="m188.5 175.34 2.5 5h-5Z" class="highcharts-point highcharts-color-1" tabindex="-1" aria-label="x, 1.76, 60. Triathlon." style="outline:0" transform="translate(82 61)"/><path d="m238.5 161.508 2.5 5h-5Z" class="highcharts-point highcharts-color-1" tabindex="-1" aria-label="x, 1.83, 67. Triathlon." style="outline:0" transform="translate(82 61)"/><path d="m93.5 189.172 2.5 5h-5Z" class="highcharts-point highcharts-color-1" tabindex="-1" aria-label="x, 1.63, 53. Triathlon." style="outline:0" transform="translate(82 61)"/><path d="m238.5 155.58 2.5 5h-5Z" class="highcharts-point highcharts-color-1" tabindex="-1" aria-label="x, 1.83, 70. Triathlon." style="outline:0" transform="translate(82 61)"/><path d="m188.5 165.46 2.5 5h-5Z" class="highcharts-point highcharts-color-1" tabindex="-1" aria-label="x, 1.76, 65. Triathlon." style="outline:0" transform="translate(82 61)"/><path d="m202.5 179.292 2.5 5h-5Z" class="highcharts-point highcharts-color-1" tabindex="-1" aria-label="x, 1.78, 58. Triathlon." style="outline:0" transform="translate(82 61)"/><path d="m188.5 167.436 2.5 5h-5Z" class="highcharts-point highcharts-color-1" tabindex="-1" aria-label="x, 1.76, 64. Triathlon." style="outline:0" transform="translate(82 61)"/><path d="m166.5 179.292 2.5 5h-5Z" class="highcharts-point highcharts-color-1" tabindex="-1" aria-label="x, 1.73, 58. Triathlon." style="outline:0" transform="translate(82 61)"/><path d="m151.5 175.34 2.5 5h-5Z" class="highcharts-point highcharts-color-1" tabindex="-1" aria-label="x, 1.71, 60. Triathlon." style="outline:0" transform="translate(82 61)"/></g><g class="highcharts-markers highcharts-series-2 highcharts-scatter-series highcharts-color-2 highcharts-tracker" data-z-index=".1" aria-hidden="false" tabindex="-1" aria-label="Volleyball, scatter plot 3 of 3 with 382 points." style="outline:0" fill="rgba(237,86,27,0.5)"><path d="M244 125.94h5v5h-5Zm-80 37.544h5v5h-5Zm181-41.496h5v5h-5Zm-174 39.52h5v5h-5Zm153-53.352h5v5h-5Zm-22 23.712h5v5h-5Zm-109 19.76h5v5h-5Zm152-45.448h5v5h-5Zm-7 13.832h5v5h-5Zm-36 39.52h5v5h-5Zm-145 7.904h5v5h-5Zm246-65.208h5v5h-5Zm-225 49.4h5v5h-5Zm109-3.952h5v5h-5Zm-29 7.904h5v5h-5Z" class="highcharts-point highcharts-color-2" tabindex="-1" aria-hidden="true" style="outline:0" transform="translate(82 61)"/><path d="M324 112.108h5v5h-5Zm-29-11.856h5v5h-5Zm43 7.904h5v5h-5ZM99 171.388h5v5h-5Zm167-45.448h5v5h-5Zm108 0h5v5h-5Zm-152 21.736h5v5h-5Zm138-39.52h5v5h-5ZM229 155.58h5v5h-5Zm-29 11.856h5v5h-5Zm44-21.736h5v5h-5Zm-8 5.928h5v5h-5Zm-65 3.952h5v5h-5Zm124-9.88h5v5h-5Zm-51 13.832h5v5h-5Zm14-39.52h5v5h-5Zm-51 47.424h5v5h-5Zm146-41.496h5v5h-5Zm-66 9.88h5v5h-5Zm-21 29.64h5v5h-5Z" class="highcharts-point highcharts-color-2" tabindex="-1" aria-hidden="true" style="outline:0" transform="translate(82 61)"/><path d="M229 155.58h5v5h-5Zm153-63.232h5v5h-5Zm-189 71.136h5v5h-5Zm94-19.76h5v5h-5Zm-36-17.784h5v5h-5Zm-15 27.664h5v5h-5Zm117-7.904h5v5h-5Zm43-63.232h5v5h-5Zm36 3.952h5v5h-5Zm-21 3.952h5v5h-5Zm-102 53.352h5v5h-5Zm-87 1.976h5v5h-5Zm-36 31.616h5v5h-5Zm72-23.712h5v5h-5Zm-14 1.976h5v5h-5Z" class="highcharts-point highcharts-color-2" tabindex="-1" aria-hidden="true" style="outline:0" transform="translate(82 61)"/><path d="M236 151.628h5v5h-5Zm-65 3.952h5v5h-5Zm-36 23.712h5v5h-5Zm290-84.968h5v5h-5Zm-94 23.712h5v5h-5Zm22-19.76h5v5h-5Zm72 11.856h5v5h-5Zm-181 33.592h5v5h-5Zm72-27.664h5v5h-5Zm8 21.736h5v5h-5Z" class="highcharts-point highcharts-color-2" tabindex="-1" aria-hidden="true" style="outline:0" transform="translate(82 61)"/><path d="M244 139.772h5v5h-5Zm7 25.688h5v5h-5Zm-29 1.976h5v5h-5ZM331 145.7h5v5h-5Zm14-23.712h5v5h-5Zm-94 17.784h5v5h-5Zm109-27.664h5v5h-5Zm-116 15.808h5v5h-5Zm80-7.904h5v5h-5Zm87-19.76h5v5h-5Zm-87 0h5v5h-5Zm94-15.808h5v5h-5Zm-22 17.784h5v5h-5ZM149 165.46h5v5h-5Zm8 1.976h5v5h-5Zm159-59.28h5v5h-5Zm51-1.976h5v5h-5Zm-36-7.904h5v5h-5Zm29-5.928h5v5h-5Zm-87 67.184h5v5h-5Z" class="highcharts-point highcharts-color-2" tabindex="-1" aria-hidden="true" style="outline:0" transform="translate(82 61)"/><path d="M360 114.084h5v5h-5Zm-15 5.928h5v5h-5Zm-21 15.808h5v5h-5Zm7 19.76h5v5h-5Zm-22-33.592h5v5h-5Zm-14 11.856h5v5h-5Zm-8-13.832h5v5h-5Zm44-7.904h5v5h-5Zm-22 25.688h5v5h-5Zm-36 13.832h5v5h-5Zm14 1.976h5v5h-5Zm-138 1.976h5v5h-5Zm153-7.904h5v5h-5Zm-73 17.784h5v5h-5Zm73-25.688h5v5h-5Z" class="highcharts-point highcharts-color-2" tabindex="-1" aria-hidden="true" style="outline:0" transform="translate(82 61)"/><path d="M324 139.772h5v5h-5Zm-109 21.736h5v5h-5Zm43-9.88h5v5h-5Zm15 3.952h5v5h-5Zm94-15.808h5v5h-5Zm-138 11.856h5v5h-5Zm95-5.928h5v5h-5Z" class="highcharts-point highcharts-color-2" tabindex="-1" aria-hidden="true" style="outline:0" transform="translate(82 61)"/><path d="M215 161.508h5v5h-5Zm21-17.784h5v5h-5Zm-7 1.976h5v5h-5Zm15-9.88h5v5h-5Zm43 29.64h5v5h-5Zm-152-3.952h5v5h-5Z" class="highcharts-point highcharts-color-2" tabindex="-1" aria-hidden="true" style="outline:0" transform="translate(82 61)"/><path d="M244 135.82h5v5h-5Zm-80 13.832h5v5h-5Z" class="highcharts-point highcharts-color-2" tabindex="-1" aria-hidden="true" style="outline:0" transform="translate(82 61)"/><path d="M244 139.772h5v5h-5Zm-15 0h5v5h-5Zm-36-1.976h5v5h-5Z" class="highcharts-point highcharts-color-2" tabindex="-1" aria-hidden="true" style="outline:0" transform="translate(82 61)"/><path d="M244 139.772h5v5h-5Zm-80 37.544h5v5h-5Zm-58-5.928h5v5h-5Zm189-35.568h5v5h-5Zm79-19.76h5v5h-5Zm-29 1.976h5v5h-5Zm15 9.88h5v5h-5Zm7-23.712h5v5h-5Zm-152 7.904h5v5h-5Zm65 33.592h5v5h-5Zm80-11.856h5v5h-5Z" class="highcharts-point highcharts-color-2" tabindex="-1" aria-hidden="true" style="outline:0" transform="translate(82 61)"/><path d="M374 116.06h5v5h-5Zm-50 13.832h5v5h-5Zm-37 9.88h5v5h-5Zm37-41.496h5v5h-5Zm-88 41.496h5v5h-5Zm95-13.832h5v5h-5Zm-116 11.856h5v5h-5Zm0 21.736h5v5h-5Zm217-39.52h5v5h-5Zm-159-1.976h5v5h-5Zm65 3.952h5v5h-5Zm-22-9.88h5v5h-5Zm22 23.712h5v5h-5Zm-80-11.856h5v5h-5Zm66-9.88h5v5h-5Zm58-11.856h5v5h-5Zm29 13.832h5v5h-5Zm29-29.64h5v5h-5Zm-196 67.184h5v5h-5Zm-29 0h5v5h-5Zm80-65.208h5v5h-5Zm14 29.64h5v5h-5Zm-87 41.496h5v5h-5ZM200 145.7h5v5h-5Z" class="highcharts-point highcharts-color-2" tabindex="-1" aria-hidden="true" style="outline:0" transform="translate(82 61)"/><path d="M309 120.012h5v5h-5Zm51-27.664h5v5h-5Zm-124 57.304h5v5h-5Zm80-55.328h5v5h-5Zm66 13.832h5v5h-5ZM273 125.94h5v5h-5Zm152-25.688h5v5h-5Zm-65 25.688h5v5h-5Zm43-59.28h5v5h-5Zm-58 43.472h5v5h-5Zm-87 5.928h5v5h-5Zm51 9.88h5v5h-5Zm44-7.904h5v5h-5Zm-95 21.736h5v5h-5Zm-51 23.712h5v5h-5Zm44-17.784h5v5h-5Zm51-15.808h5v5h-5Zm-80 25.688h5v5h-5Zm131-53.352h5v5h-5Zm-29 17.784h5v5h-5Zm50-3.952h5v5h-5Zm-36 33.592h5v5h-5Zm7-49.4h5v5h-5Zm-188 57.304h5v5h-5Zm138-53.352h5v5h-5Zm36 35.568h5v5h-5Zm-51-5.928h5v5h-5Zm116-13.832h5v5h-5Zm-7 5.928h5v5h-5Zm-7-1.976h5v5h-5Z" class="highcharts-point highcharts-color-2" tabindex="-1" aria-hidden="true" style="outline:0" transform="translate(82 61)"/><path d="M345 106.18h5v5h-5Zm-116 23.712h5v5h-5Zm15 29.64h5v5h-5Zm-29-11.856h5v5h-5Zm145-39.52h5v5h-5ZM324 145.7h5v5h-5Z" class="highcharts-point highcharts-color-2" tabindex="-1" aria-hidden="true" style="outline:0" transform="translate(82 61)"/><path d="M215 145.7h5v5h-5Zm109 3.952h5v5h-5Zm-15-19.76h5v5h-5Zm-160 31.616h5v5h-5Zm225-55.328h5v5h-5Zm-29-5.928h5v5h-5Zm44-3.952h5v5h-5Zm-29 9.88h5v5h-5Zm-145 73.112h5v5h-5Zm51-43.472h5v5h-5Z" class="highcharts-point highcharts-color-2" tabindex="-1" aria-hidden="true" style="outline:0" transform="translate(82 61)"/><path d="M215 145.7h5v5h-5Zm203-53.352h5v5h-5Zm-247 69.16h5v5h-5Zm73-25.688h5v5h-5Zm-15 33.592h5v5h-5Zm116-49.4h5v5h-5Zm15 5.928h5v5h-5Zm-73 29.64h5v5h-5ZM389 96.3h5v5h-5Zm-131 53.352h5v5h-5Zm-7-17.784h5v5h-5Zm15 37.544h5v5h-5ZM403 96.3h5v5h-5Zm-58 15.808h5v5h-5Zm-246 79.04h5v5h-5Zm159-51.376h5v5h-5Zm-65 33.592h5v5h-5Zm36-35.568h5v5h-5Zm-65 25.688h5v5h-5ZM62 181.268h5v5h-5Zm124-9.88h5v5h-5Zm21-11.856h5v5h-5Zm44 5.928h5v5h-5Zm-73 3.952h5v5h-5Zm37-9.88h5v5h-5Zm-29 19.76h5v5h-5Zm-58 1.976h5v5h-5Zm123-41.496h5v5h-5Zm-65 25.688h5v5h-5Zm-22 15.808h5v5h-5Z" class="highcharts-point highcharts-color-2" tabindex="-1" aria-hidden="true" style="outline:0" transform="translate(82 61)"/><path d="M287 151.628h5v5h-5Zm-87 11.856h5v5h-5Zm58-17.784h5v5h-5Zm-109 23.712h5v5h-5Zm117-9.88h5v5h-5Zm36-9.88h5v5h-5Zm-73 13.832h5v5h-5Zm-36 5.928h5v5h-5Zm138-69.16h5v5h-5Zm-36 17.784h5v5h-5Zm36-11.856h5v5h-5Zm7 1.976h5v5h-5Zm-80 13.832h5v5h-5Zm80-1.976h5v5h-5Zm-51 11.856h5v5h-5Zm-14 3.952h5v5h-5Zm-15 0h5v5h-5ZM360 96.3h5v5h-5Z" class="highcharts-point highcharts-color-2" tabindex="-1" aria-hidden="true" style="outline:0" transform="translate(82 61)"/><path d="M338 104.204h5v5h-5Zm-36 23.712h5v5h-5Z" class="highcharts-point highcharts-color-2" tabindex="-1" aria-hidden="true" style="outline:0" transform="translate(82 61)"/><path d="M302 125.94h5v5h-5Zm-51-3.952h5v5h-5Zm109-3.952h5v5h-5Zm14-11.856h5v5h-5Zm-29 9.88h5v5h-5Zm-58 33.592h5v5h-5Zm0-33.592h5v5h-5Zm153-27.664h5v5h-5Zm-196 71.136h5v5h-5Zm36-27.664h5v5h-5Zm-51 15.808h5v5h-5Zm37 1.976h5v5h-5Z" class="highcharts-point highcharts-color-2" tabindex="-1" aria-hidden="true" style="outline:0" transform="translate(82 61)"/><path d="M244 155.58h5v5h-5Zm58-13.832h5v5h-5Zm-66 3.952h5v5h-5Zm-21 13.832h5v5h-5Zm-15 0h5v5h-5Zm36-3.952h5v5h-5Zm44-9.88h5v5h-5Zm36-23.712h5v5h-5Zm95-13.832h5v5h-5ZM302 135.82h5v5h-5Z" class="highcharts-point highcharts-color-2" tabindex="-1" aria-hidden="true" style="outline:0" transform="translate(82 61)"/><path d="M200 157.556h5v5h-5Zm73-9.88h5v5h-5Zm94-19.76h5v5h-5Zm29-5.928h5v5h-5Zm-109-1.976h5v5h-5Zm58-9.88h5v5h-5Zm-14 5.928h5v5h-5Zm-80-17.784h5v5h-5Zm15 37.544h5v5h-5Zm101-13.832h5v5h-5Zm-160 39.52h5v5h-5Zm95-31.616h5v5h-5Zm130-29.64h5v5h-5Zm-29 23.712h5v5h-5ZM295 135.82h5v5h-5Zm-131 35.568h5v5h-5Zm80-21.736h5v5h-5Zm116-33.592h5v5h-5Zm36 0h5v5h-5Zm-80 17.784h5v5h-5ZM280 145.7h5v5h-5Zm-65 23.712h5v5h-5Zm36-3.952h5v5h-5Zm-138 7.904h5v5h-5Z" class="highcharts-point highcharts-color-2" tabindex="-1" aria-hidden="true" style="outline:0" transform="translate(82 61)"/><path d="M295 135.82h5v5h-5Zm7 7.904h5v5h-5Zm-29 3.952h5v5h-5Zm-131 25.688h5v5h-5Zm22-13.832h5v5h-5Zm43 23.712h5v5h-5Zm8-13.832h5v5h-5Zm-15 1.976h5v5h-5Zm116-29.64h5v5h-5Zm-101-17.784h5v5h-5Zm217-7.904h5v5h-5Zm-196 21.736h5v5h-5Zm66 19.76h5v5h-5Zm72-71.136h5v5h-5Zm-196 90.896h5v5h-5Zm95-41.496h5v5h-5Zm145-31.616h5v5h-5Zm-44 27.664h5v5h-5Zm-7-11.856h5v5h-5Zm-51-15.808h5v5h-5Zm102 5.928h5v5h-5Z" class="highcharts-point highcharts-color-2" tabindex="-1" aria-hidden="true" style="outline:0" transform="translate(82 61)"/><path d="M215 171.388h5v5h-5Zm-15-3.952h5v5h-5Zm0-9.88h5v5h-5Zm22 5.928h5v5h-5Zm123-39.52h5v5h-5Zm-58 19.76h5v5h-5Zm0-15.808h5v5h-5Zm44 11.856h5v5h-5Zm101-45.448h5v5h-5Zm-43 9.88h5v5h-5Zm-15-13.832h5v5h-5ZM316 145.7h5v5h-5Zm73-29.64h5v5h-5Zm-65-11.856h5v5h-5Zm14 13.832h5v5h-5Zm-43 43.472h5v5h-5Zm-80-11.856h5v5h-5Zm109-33.592h5v5h-5Zm-73 37.544h5v5h-5Zm15-5.928h5v5h-5Zm-8 3.952h5v5h-5Z" class="highcharts-point highcharts-color-2" tabindex="-1" aria-hidden="true" style="outline:0" transform="translate(82 61)"/><path d="M287 129.892h5v5h-5Zm29 7.904h5v5h-5Zm15-5.928h5v5h-5Zm-29 19.76h5v5h-5Zm-66 9.88h5v5h-5Zm59-9.88h5v5h-5Zm-95 13.832h5v5h-5Zm87-21.736h5v5h-5Zm22-11.856h5v5h-5Zm-58 7.904h5v5h-5Zm0 15.808h5v5h-5Z" class="highcharts-point highcharts-color-2" tabindex="-1" aria-hidden="true" style="outline:0" transform="translate(82 61)"/><path d="M200 161.508h5v5h-5Zm87-9.88h5v5h-5ZM157 165.46h5v5h-5Zm159-55.328h5v5h-5Zm-29 33.592h5v5h-5Zm109-43.472h5v5h-5Zm-152 51.376h5v5h-5Zm14-3.952h5v5h-5Zm-94 9.88h5v5h-5Zm51-11.856h5v5h-5Zm138-25.688h5v5h-5Zm-80 17.784h5v5h-5Zm-131 25.688h5v5h-5ZM382 86.42h5v5h-5Zm-15 37.544h5v5h-5Zm-123 5.928h5v5h-5Zm51 7.904h5v5h-5Zm72-31.616h5v5h-5Zm-94 39.52h5v5h-5Zm36 0h5v5h-5Zm-22-7.904h5v5h-5Zm-87 7.904h5v5h-5Z" class="highcharts-point highcharts-color-2" tabindex="-1" aria-hidden="true" style="outline:0" transform="translate(82 61)"/><path d="M273 137.796h5v5h-5Zm0 7.904h5v5h-5Zm0 5.928h5v5h-5Zm36 0h5v5h-5Z" class="highcharts-point highcharts-color-2" tabindex="-1" aria-hidden="true" style="outline:0" transform="translate(82 61)"/><path d="M273 145.7h5v5h-5Zm101-49.4h5v5h-5Zm22 19.76h5v5h-5Zm-51 3.952h5v5h-5Z" class="highcharts-point highcharts-color-2" tabindex="-1" aria-hidden="true" style="outline:0" transform="translate(82 61)"/><path d="M374 98.276h5v5h-5Zm-116 31.616h5v5h-5Zm145-17.784h5v5h-5Zm-130 21.736h5v5h-5Zm58 1.976h5v5h-5Zm14-7.904h5v5h-5Zm-29-9.88h5v5h-5ZM91 185.22h5v5h-5Zm124-21.736h5v5h-5Z" class="highcharts-point highcharts-color-2" tabindex="-1" aria-hidden="true" style="outline:0" transform="translate(82 61)"/></g></g><text x="10" class="highcharts-title" data-z-index="4" style="color:#e0e0e3;font-size:20px;text-transform:uppercase;fill:#e0e0e3" y="25" aria-hidden="true">Olympics athletes by height and weight</text><text x="10" class="highcharts-subtitle" data-z-index="4" style="color:#e0e0e3;text-transform:uppercase;fill:#e0e0e3" y="46" aria-hidden="true">Source: <a><tspan>The Guardian</tspan></a></text><g class="highcharts-legend highcharts-no-tooltip" data-z-index="7" transform="translate(158 359)" aria-hidden="true"><rect fill="rgba(0, 0, 0, 0.5)" class="highcharts-legend-box" rx="0" ry="0" width="284" height="26"/><g data-z-index="1"><g class="highcharts-legend-item highcharts-scatter-series highcharts-color-0 highcharts-series-0" data-z-index="1"><path fill="none" d="M8 14h16" class="highcharts-graph"/><path fill="rgba(5,141,199,0.5)" d="M16.5 17a2.5 2.5 0 1 1 .002 0Z" class="highcharts-point"/><text x="21" data-z-index="2" y="15" style="color:#e0e0e3;cursor:pointer;font-size:12px;font-weight:700;fill:#e0e0e3" transform="translate(8 3)">Basketball</text></g><g class="highcharts-legend-item highcharts-scatter-series highcharts-color-1 highcharts-series-1" data-z-index="1"><path fill="none" d="M109.031 14h16" class="highcharts-graph"/><path fill="rgba(80,180,50,0.5)" d="m117.531 12 2.5 5h-5Z" class="highcharts-point"/><text x="21" y="15" data-z-index="2" style="color:#e0e0e3;cursor:pointer;font-size:12px;font-weight:700;fill:#e0e0e3" transform="translate(109.031 3)">Triathlon</text></g><g class="highcharts-legend-item highcharts-scatter-series highcharts-color-2 highcharts-series-2" data-z-index="1"><path fill="none" d="M200.703 14h16" class="highcharts-graph"/><path fill="rgba(237,86,27,0.5)" d="M206.703 12h5v5h-5Z" class="highcharts-point"/><text x="21" y="15" data-z-index="2" style="color:#e0e0e3;cursor:pointer;font-size:12px;font-weight:700;fill:#e0e0e3" transform="translate(200.703 3)">Volleyball</text></g></g></g><g class="highcharts-axis-labels highcharts-xaxis-labels" data-z-index="7" aria-hidden="true" text-anchor="middle"><text x="82" style="color:#e0e0e3;cursor:default;font-size:11px;fill:#e0e0e3" y="327">1.5 m</text><text x="154.571" style="color:#e0e0e3;cursor:default;font-size:11px;fill:#e0e0e3" y="327">1.6 m</text><text x="227.143" style="color:#e0e0e3;cursor:default;font-size:11px;fill:#e0e0e3" y="327">1.7 m</text><text x="299.714" style="color:#e0e0e3;cursor:default;font-size:11px;fill:#e0e0e3" y="327">1.8 m</text><text x="372.286" style="color:#e0e0e3;cursor:default;font-size:11px;fill:#e0e0e3" y="327">1.9 m</text><text x="444.857" style="color:#e0e0e3;cursor:default;font-size:11px;fill:#e0e0e3" y="327">2 m</text><text x="517.429" style="color:#e0e0e3;cursor:default;font-size:11px;fill:#e0e0e3" y="327">2.1 m</text><text x="576.242" style="color:#e0e0e3;cursor:default;font-size:11px;fill:#e0e0e3" y="327">2.2 m</text></g><g class="highcharts-axis-labels highcharts-yaxis-labels" data-z-index="7" aria-hidden="true" text-anchor="end"><text x="67" style="color:#e0e0e3;cursor:default;font-size:11px;fill:#e0e0e3" y="313">25 kg</text><text x="67" style="color:#e0e0e3;cursor:default;font-size:11px;fill:#e0e0e3" y="263">50 kg</text><text x="67" style="color:#e0e0e3;cursor:default;font-size:11px;fill:#e0e0e3" y="214">75 kg</text><text x="67" style="color:#e0e0e3;cursor:default;font-size:11px;fill:#e0e0e3" y="165">100 kg</text><text x="67" style="color:#e0e0e3;cursor:default;font-size:11px;fill:#e0e0e3" y="115">125 kg</text><text x="67" style="color:#e0e0e3;cursor:default;font-size:11px;fill:#e0e0e3" y="66">150 kg</text></g></svg>