<svg class="highcharts-root" style="font-family:&quot;Unica One&quot;,sans-serif;font-size:12px" xmlns="http://www.w3.org/2000/svg" width="600" height="400" aria-label="Interactive chart" aria-hidden="false"><defs aria-hidden="true"><linearGradient x1="0" y1="0" x2="1" y2="1" id="a"><stop offset="0" stop-color="#2a2a2b"/><stop offset="1" stop-color="#3e3e40"/></linearGradient><clipPath id="b"><path fill="none" d="M1 0h284v512H1z"/></clipPath></defs><rect fill="url(#a)" class="highcharts-background" width="600" height="400" rx="0" ry="0" aria-hidden="true"/><path fill="none" class="highcharts-plot-background" aria-hidden="true" d="M78 61h512v285H78z"/><g class="highcharts-grid highcharts-xaxis-grid" data-z-index="1" aria-hidden="true" fill="none"><path data-z-index="1" class="highcharts-grid-line" d="M78 343.5h512m-512-84h512m-512-84h512m-512-84h512"/></g><g class="highcharts-grid highcharts-yaxis-grid" data-z-index="1" aria-hidden="true" fill="none" stroke="#707073"><path data-z-index="1" class="highcharts-grid-line" d="M77.5 61v285m47-285v285m46-285v285m47-285v285m46-285v285m47-285v285m46-285v285m47-285v285m46-285v285m47-285v285m46-285v285m48-285v285"/></g><path fill="none" class="highcharts-plot-border" data-z-index="1" aria-hidden="true" d="M78 61h512v285H78z"/><g class="highcharts-axis highcharts-xaxis" data-z-index="2" aria-hidden="true"><path fill="none" class="highcharts-tick" stroke="#707073" d="M78 343.5H68m10-84H68m10-84H68m10-84H68"/><text x="23.039" data-z-index="7" text-anchor="middle" transform="rotate(-90 23.04 203.5)" class="highcharts-axis-title" style="color:#a0a0a3;fill:#a0a0a3" y="203.5">Altitude</text><path fill="none" class="highcharts-axis-line" stroke="#707073" data-z-index="7" d="M77.5 61v285"/></g><g class="highcharts-axis highcharts-yaxis" data-z-index="2" aria-hidden="true"><path fill="none" class="highcharts-tick" stroke="#707073" d="M77.5 346v10m47-10v10m46-10v10m47-10v10m46-10v10m47-10v10m46-10v10m47-10v10m46-10v10m47-10v10m46-10v10m48-10v10"/><text x="334" data-z-index="7" text-anchor="middle" class="highcharts-axis-title" style="color:#a0a0a3;fill:#a0a0a3" y="383.5">Temperature</text><path fill="none" class="highcharts-axis-line" stroke="#707073" stroke-width="2" data-z-index="7" d="M78 346h512"/></g><g class="highcharts-series-group" data-z-index="3" aria-hidden="false"><g class="highcharts-series highcharts-series-0 highcharts-spline-series highcharts-color-0" data-z-index=".1" clip-path="url(#b)" aria-hidden="true" fill="none" stroke-linejoin="round" stroke-linecap="round" transform="matrix(0 -1 -1 0 590 346)"><path d="M2.689 23.273s20.165 272.29 33.608 302.545c13.444 30.255 20.165 30.255 33.609 30.255 13.443 0 20.165-14.522 33.608-46.546 13.444-32.023 20.165-72.61 33.609-113.57 13.443-40.96 20.165-91.23 33.608-91.23 13.444 0 20.165 67.77 33.609 117.295 13.443 49.524 20.165 84.899 33.608 130.327 13.444 45.428 33.609 96.815 33.609 96.815" class="highcharts-graph" data-z-index="1" stroke="#2b908f" stroke-width="2"/><path d="M2.689 23.273s20.165 272.29 33.608 302.545c13.444 30.255 20.165 30.255 33.609 30.255 13.443 0 20.165-14.522 33.608-46.546 13.444-32.023 20.165-72.61 33.609-113.57 13.443-40.96 20.165-91.23 33.608-91.23 13.444 0 20.165 67.77 33.609 117.295 13.443 49.524 20.165 84.899 33.608 130.327 13.444 45.428 33.609 96.815 33.609 96.815" data-z-index="2" class="highcharts-tracker-line" stroke="rgba(192,192,192,0.0001)" stroke-width="22"/></g><g class="highcharts-markers highcharts-series-0 highcharts-spline-series highcharts-color-0 highcharts-tracker" data-z-index=".1" aria-hidden="false" fill="#2b908f"><path d="M2 27.273a4 4 0 1 1 .004 0Z" class="highcharts-point highcharts-color-0" tabindex="-1" aria-label="x, 0, 15. Temperature." style="outline:0" transform="matrix(0 -1 -1 0 590 346)"/><path d="M36 329.818a4 4 0 1 1 .004 0Z" class="highcharts-point highcharts-negative highcharts-color-0" tabindex="-1" aria-label="x, 10, -50. Temperature." style="outline:0" transform="matrix(0 -1 -1 0 590 346)"/><path d="M69 360.073a4 4 0 1 1 .004 0Z" class="highcharts-point highcharts-negative highcharts-color-0" tabindex="-1" aria-label="x, 20, -56.5. Temperature." style="outline:0" transform="matrix(0 -1 -1 0 590 346)"/><path d="M103 313.527a4 4 0 1 1 .004 0Z" class="highcharts-point highcharts-negative highcharts-color-0" tabindex="-1" aria-label="x, 30, -46.5. Temperature." style="outline:0" transform="matrix(0 -1 -1 0 590 346)"/><path d="M137 199.956a4 4 0 1 1 .004 0Z" class="highcharts-point highcharts-negative highcharts-color-0" tabindex="-1" aria-label="x, 40, -22.1. Temperature." style="outline:0" transform="matrix(0 -1 -1 0 590 346)"/><path d="M170 108.727a4 4 0 1 1 .004 0Z" class="highcharts-point highcharts-negative highcharts-color-0" tabindex="-1" aria-label="x, 50, -2.5. Temperature." style="outline:0" transform="matrix(0 -1 -1 0 590 346)"/><path d="M204 226.022a4 4 0 1 1 .004 0Z" class="highcharts-point highcharts-negative highcharts-color-0" tabindex="-1" aria-label="x, 60, -27.7. Temperature." style="outline:0" transform="matrix(0 -1 -1 0 590 346)"/><path d="M237 356.35a4 4 0 1 1 .004 0Z" class="highcharts-point highcharts-negative highcharts-color-0" tabindex="-1" aria-label="x, 70, -55.7. Temperature." style="outline:0" transform="matrix(0 -1 -1 0 590 346)"/><path d="M271 453.164a4 4 0 1 1 .004 0Z" class="highcharts-point highcharts-negative highcharts-color-0" tabindex="-1" aria-label="x, 80, -76.5. Temperature." style="outline:0" transform="matrix(0 -1 -1 0 590 346)"/></g></g><text x="300" text-anchor="middle" class="highcharts-title" data-z-index="4" style="color:#e0e0e3;font-size:20px;text-transform:uppercase;fill:#e0e0e3" y="25" aria-hidden="true">Atmosphere Temperature by Altitude</text><text x="300" text-anchor="middle" class="highcharts-subtitle" data-z-index="4" style="color:#e0e0e3;text-transform:uppercase;fill:#e0e0e3" y="46" aria-hidden="true">According to the Standard Atmosphere Model</text><g class="highcharts-axis-labels highcharts-xaxis-labels" data-z-index="7" aria-hidden="true" text-anchor="end"><text x="63" style="color:#e0e0e3;cursor:default;font-size:11px;fill:#e0e0e3" y="348">0 km</text><text x="63" style="color:#e0e0e3;cursor:default;font-size:11px;fill:#e0e0e3" y="264">25 km</text><text x="63" style="color:#e0e0e3;cursor:default;font-size:11px;fill:#e0e0e3" y="180">50 km</text><text x="63" style="color:#e0e0e3;cursor:default;font-size:11px;fill:#e0e0e3" y="96">75 km</text></g><g class="highcharts-axis-labels highcharts-yaxis-labels" data-z-index="7" aria-hidden="true" text-anchor="middle"><text x="78" style="color:#e0e0e3;cursor:default;font-size:11px;fill:#e0e0e3" y="365">-90°</text><text x="124.545" style="color:#e0e0e3;cursor:default;font-size:11px;fill:#e0e0e3" y="365">-80°</text><text x="171.091" style="color:#e0e0e3;cursor:default;font-size:11px;fill:#e0e0e3" y="365">-70°</text><text x="217.636" style="color:#e0e0e3;cursor:default;font-size:11px;fill:#e0e0e3" y="365">-60°</text><text x="264.182" style="color:#e0e0e3;cursor:default;font-size:11px;fill:#e0e0e3" y="365">-50°</text><text x="310.727" style="color:#e0e0e3;cursor:default;font-size:11px;fill:#e0e0e3" y="365">-40°</text><text x="357.273" style="color:#e0e0e3;cursor:default;font-size:11px;fill:#e0e0e3" y="365">-30°</text><text x="403.818" style="color:#e0e0e3;cursor:default;font-size:11px;fill:#e0e0e3" y="365">-20°</text><text x="450.364" style="color:#e0e0e3;cursor:default;font-size:11px;fill:#e0e0e3" y="365">-10°</text><text x="496.909" style="color:#e0e0e3;cursor:default;font-size:11px;fill:#e0e0e3" y="365">0°</text><text x="543.455" style="color:#e0e0e3;cursor:default;font-size:11px;fill:#e0e0e3" y="365">10°</text><text x="581.68" style="color:#e0e0e3;cursor:default;font-size:11px;fill:#e0e0e3" y="365">20°</text></g></svg>