<svg class="highcharts-root" style="font-family:&quot;Unica One&quot;,sans-serif;font-size:12px" xmlns="http://www.w3.org/2000/svg" width="600" height="400" aria-label="Interactive chart" aria-hidden="false"><defs aria-hidden="true"><linearGradient x1="0" y1="0" x2="1" y2="1" id="a"><stop offset="0" stop-color="#2a2a2b"/><stop offset="1" stop-color="#3e3e40"/></linearGradient><clipPath id="b"><path fill="none" d="M0 0h525v266H0z"/></clipPath></defs><rect fill="url(#a)" class="highcharts-background" width="600" height="400" rx="0" ry="0" aria-hidden="true"/><path fill="none" class="highcharts-plot-background" aria-hidden="true" d="M65 61h525v266H65z"/><g class="highcharts-grid highcharts-xaxis-grid" data-z-index="1" aria-hidden="true" fill="none"><path data-z-index="1" class="highcharts-grid-line" d="M108.5 61v266m44-266v266m43-266v266m44-266v266m44-266v266m44-266v266m43-266v266m44-266v266m44-266v266m44-266v266m43-266v266m44-266v266M64.5 61v266"/></g><g class="highcharts-grid highcharts-yaxis-grid" data-z-index="1" aria-hidden="true" fill="none" stroke="#707073"><path data-z-index="1" class="highcharts-grid-line" d="M65 327.5h525m-525-44h525m-525-45h525m-525-44h525m-525-44h525m-525-45h525m-525-45h525"/></g><path fill="none" class="highcharts-plot-border" data-z-index="1" aria-hidden="true" d="M65 61h525v266H65z"/><g class="highcharts-axis highcharts-xaxis" data-z-index="2" aria-hidden="true"><path fill="none" class="highcharts-axis-line" stroke="#707073" data-z-index="7" d="M65 327.5h525"/></g><g class="highcharts-axis highcharts-yaxis" data-z-index="2" aria-hidden="true"><path fill="none" class="highcharts-tick" stroke="#707073" d="M65 327.5H55m10-44H55m10-45H55m10-44H55m10-44H55m10-45H55m10-45H55"/><text x="23.359" data-z-index="7" text-anchor="middle" transform="rotate(-90 23.36 194)" class="highcharts-axis-title" style="color:#a0a0a3;fill:#a0a0a3" y="194">Temperature</text><path fill="none" class="highcharts-axis-line" data-z-index="7" d="M65 61v266"/></g><g class="highcharts-series-group" data-z-index="3" aria-hidden="false"><g class="highcharts-series highcharts-series-0 highcharts-spline-series highcharts-color-0" data-z-index=".1" clip-path="url(#b)" aria-hidden="true" fill="none" stroke-linejoin="round" stroke-linecap="round" transform="translate(65 61)"><path d="M21.875 219.893s26.25 0 43.75-4.433 26.25-12.059 43.75-26.6c17.5-14.541 26.25-29.26 43.75-46.107 17.5-16.846 26.25-24.826 43.75-38.126 17.5-13.3 26.25-16.315 43.75-28.374 17.5-12.058 26.25-23.053 43.75-31.92 17.5-8.866 26.25-12.413 43.75-12.413s26.25 16.137 43.75 31.92c17.5 15.783 26.25 28.019 43.75 46.993 17.5 18.975 26.25 30.324 43.75 47.88s43.75 39.9 43.75 39.9" class="highcharts-graph" data-z-index="1" stroke="#2b908f" stroke-width="2"/><path d="M21.875 219.893s26.25 0 43.75-4.433 26.25-12.059 43.75-26.6c17.5-14.541 26.25-29.26 43.75-46.107 17.5-16.846 26.25-24.826 43.75-38.126 17.5-13.3 26.25-16.315 43.75-28.374 17.5-12.058 26.25-23.053 43.75-31.92 17.5-8.866 26.25-12.413 43.75-12.413s26.25 16.137 43.75 31.92c17.5 15.783 26.25 28.019 43.75 46.993 17.5 18.975 26.25 30.324 43.75 47.88s43.75 39.9 43.75 39.9" data-z-index="2" class="highcharts-tracker-line" stroke="rgba(192,192,192,0.0001)" stroke-width="22"/></g><g class="highcharts-markers highcharts-series-0 highcharts-spline-series highcharts-color-0 highcharts-tracker" data-z-index=".1" aria-hidden="false" tabindex="-1" aria-label="Tokyo, line 1 of 2 with 12 data points." style="outline:0" fill="#2b908f" stroke="#666" transform="translate(65 61)"><path d="M17 215.893h8v8h-8Z" class="highcharts-point highcharts-color-0" tabindex="-1" aria-label="Jan, 5.2. Tokyo." style="outline:0"/><path d="M61 211.46h8v8h-8Z" class="highcharts-point highcharts-color-0" tabindex="-1" aria-label="Feb, 5.7. Tokyo." style="outline:0"/><path d="M105 184.86h8v8h-8Z" class="highcharts-point highcharts-color-0" tabindex="-1" aria-label="Mar, 8.7. Tokyo." style="outline:0"/><path d="M149 138.753h8v8h-8Z" class="highcharts-point highcharts-color-0" tabindex="-1" aria-label="Apr, 13.9. Tokyo." style="outline:0"/><path d="M192 100.627h8v8h-8Z" class="highcharts-point highcharts-color-0" tabindex="-1" aria-label="May, 18.2. Tokyo." style="outline:0"/><path d="M236 72.253h8v8h-8Z" class="highcharts-point highcharts-color-0" tabindex="-1" aria-label="Jun, 21.4. Tokyo." style="outline:0"/><path d="M280 40.333h8v8h-8Z" class="highcharts-point highcharts-color-0" tabindex="-1" aria-label="Jul, 25. Tokyo." style="outline:0"/><image preserveAspectRatio="none" xmlns:ns1="http://www.w3.org/1999/xlink" ns1:href="https://www.highcharts.com/samples/graphics/sun.png" x="328" y="31.92" class="highcharts-point highcharts-color-0" width="30" transform="translate(-15 -15)" height="30" tabindex="-1" aria-label="Aug, 26.4. Sunny symbol, this is the warmest point in the chart. Tokyo." style="outline:0"/><path d="M367 59.84h8v8h-8Z" class="highcharts-point highcharts-color-0" tabindex="-1" aria-label="Sep, 22.8. Tokyo." style="outline:0"/><path d="M411 106.833h8v8h-8Z" class="highcharts-point highcharts-color-0" tabindex="-1" aria-label="Oct, 17.5. Tokyo." style="outline:0"/><path d="M455 154.713h8v8h-8Z" class="highcharts-point highcharts-color-0" tabindex="-1" aria-label="Nov, 12.1. Tokyo." style="outline:0"/><path d="M499 194.613h8v8h-8Z" class="highcharts-point highcharts-color-0" tabindex="-1" aria-label="Dec, 7.6. Tokyo." style="outline:0"/></g><g class="highcharts-series highcharts-series-1 highcharts-spline-series highcharts-color-1" data-z-index=".1" clip-path="url(#b)" aria-hidden="true" fill="none" stroke-linejoin="round" stroke-linecap="round" transform="translate(65 61)"><path d="M21.875 252.7s26.25 0 43.75-.887c17.5-.886 26.25-7.448 43.75-15.073s26.25-10.285 43.75-23.053 26.25-27.31 43.75-40.787 26.25-19.507 43.75-26.6 26.25-8.867 43.75-8.867 26.25 0 43.75.887 26.25 15.605 43.75 25.713 26.25 12.768 43.75 24.827c17.5 12.059 26.25 24.65 43.75 35.467s43.75 18.62 43.75 18.62" class="highcharts-graph" data-z-index="1" stroke="#90ee7e" stroke-width="2"/><path d="M21.875 252.7s26.25 0 43.75-.887c17.5-.886 26.25-7.448 43.75-15.073s26.25-10.285 43.75-23.053 26.25-27.31 43.75-40.787 26.25-19.507 43.75-26.6 26.25-8.867 43.75-8.867 26.25 0 43.75.887 26.25 15.605 43.75 25.713 26.25 12.768 43.75 24.827c17.5 12.059 26.25 24.65 43.75 35.467s43.75 18.62 43.75 18.62" data-z-index="2" class="highcharts-tracker-line" stroke="rgba(192,192,192,0.0001)" stroke-width="22"/></g><g class="highcharts-markers highcharts-series-1 highcharts-spline-series highcharts-color-1 highcharts-tracker" data-z-index=".1" aria-hidden="false" tabindex="-1" aria-label="Bergen, line 2 of 2 with 12 data points." style="outline:0" stroke="#666" fill="#90ee7e" transform="translate(65 61)"><image preserveAspectRatio="none" xmlns:ns2="http://www.w3.org/1999/xlink" ns2:href="https://www.highcharts.com/samples/graphics/snow.png" x="21" y="252.7" class="highcharts-point highcharts-color-1" width="30" transform="translate(-15 -15)" height="30" tabindex="-1" aria-label="Jan, 1.5. Snowy symbol, this is the coldest point in the chart. Bergen." style="outline:0"/><path d="m65 247.813 4 4-4 4-4-4Z" class="highcharts-point highcharts-color-1" tabindex="-1" aria-label="Feb, 1.6. Bergen." style="outline:0"/><path d="m109 232.74 4 4-4 4-4-4Z" class="highcharts-point highcharts-color-1" tabindex="-1" aria-label="Mar, 3.3. Bergen." style="outline:0"/><path d="m153 209.687 4 4-4 4-4-4Z" class="highcharts-point highcharts-color-1" tabindex="-1" aria-label="Apr, 5.9. Bergen." style="outline:0"/><path d="m196 168.9 4 4-4 4-4-4Z" class="highcharts-point highcharts-color-1" tabindex="-1" aria-label="May, 10.5. Bergen." style="outline:0"/><path d="m240 142.3 4 4-4 4-4-4Z" class="highcharts-point highcharts-color-1" tabindex="-1" aria-label="Jun, 13.5. Bergen." style="outline:0"/><path d="m284 133.433 4 4-4 4-4-4Z" class="highcharts-point highcharts-color-1" tabindex="-1" aria-label="Jul, 14.5. Bergen." style="outline:0"/><path d="m328 134.32 4 4-4 4-4-4Z" class="highcharts-point highcharts-color-1" tabindex="-1" aria-label="Aug, 14.4. Bergen." style="outline:0"/><path d="m371 160.033 4 4-4 4-4-4Z" class="highcharts-point highcharts-color-1" tabindex="-1" aria-label="Sep, 11.5. Bergen." style="outline:0"/><path d="m415 184.86 4 4-4 4-4-4Z" class="highcharts-point highcharts-color-1" tabindex="-1" aria-label="Oct, 8.7. Bergen." style="outline:0"/><path d="m459 220.327 4 4-4 4-4-4Z" class="highcharts-point highcharts-color-1" tabindex="-1" aria-label="Nov, 4.7. Bergen." style="outline:0"/><path d="m503 238.947 4 4-4 4-4-4Z" class="highcharts-point highcharts-color-1" tabindex="-1" aria-label="Dec, 2.6. Bergen." style="outline:0"/></g></g><g data-z-index="3" aria-hidden="true"><text data-z-index="1" y="12" style="color:#2b908f;font-weight:700;fill:#2b908f" transform="translate(394 76)" class="highcharts-label highcharts-series-label highcharts-series-label-0 highcharts-color-0">Tokyo</text></g><g data-z-index="3" aria-hidden="true"><text data-z-index="1" y="12" style="color:#90ee7e;font-weight:700;fill:#90ee7e" transform="translate(530 307)" class="highcharts-label highcharts-series-label highcharts-series-label-1 highcharts-color-1">Bergen</text></g><text x="300" text-anchor="middle" class="highcharts-title" data-z-index="4" style="color:#e0e0e3;font-size:20px;text-transform:uppercase;fill:#e0e0e3" y="25" aria-hidden="true">Monthly Average Temperature</text><text x="300" text-anchor="middle" class="highcharts-subtitle" data-z-index="4" style="color:#e0e0e3;text-transform:uppercase;fill:#e0e0e3" y="46" aria-hidden="true">Source: <a target="_blank"><tspan>Wikipedia.com</tspan></a></text><g class="highcharts-legend highcharts-no-tooltip" data-z-index="7" transform="translate(223 359)" aria-hidden="true"><rect fill="rgba(0, 0, 0, 0.5)" class="highcharts-legend-box" rx="0" ry="0" width="153" height="26"/><g data-z-index="1"><g class="highcharts-legend-item highcharts-spline-series highcharts-color-0 highcharts-series-0" data-z-index="1"><path fill="none" d="M8 14h16" class="highcharts-graph" stroke-width="2" stroke="#2b908f"/><path fill="#2b908f" d="M12 10h8v8h-8Z" class="highcharts-point" stroke="#666"/><text x="21" data-z-index="2" y="15" style="color:#e0e0e3;cursor:pointer;font-size:12px;font-weight:700;fill:#e0e0e3" transform="translate(8 3)">Tokyo</text></g><g class="highcharts-legend-item highcharts-spline-series highcharts-color-1 highcharts-series-1" data-z-index="1"><path fill="none" d="M83.453 14h16" class="highcharts-graph" stroke-width="2" stroke="#90ee7e"/><path fill="#90ee7e" d="m91.453 10 4 4-4 4-4-4Z" class="highcharts-point" stroke="#666"/><text x="21" y="15" data-z-index="2" style="color:#e0e0e3;cursor:pointer;font-size:12px;font-weight:700;fill:#e0e0e3" transform="translate(83.453 3)">Bergen</text></g></g></g><g class="highcharts-axis-labels highcharts-xaxis-labels" data-z-index="7" aria-hidden="true" text-anchor="middle"><text x="86.875" style="color:#e0e0e3;cursor:default;font-size:11px;fill:#e0e0e3" y="346">Jan</text><text x="130.625" style="color:#e0e0e3;cursor:default;font-size:11px;fill:#e0e0e3" y="346">Feb</text><text x="174.375" style="color:#e0e0e3;cursor:default;font-size:11px;fill:#e0e0e3" y="346">Mar</text><text x="218.125" style="color:#e0e0e3;cursor:default;font-size:11px;fill:#e0e0e3" y="346">Apr</text><text x="261.875" style="color:#e0e0e3;cursor:default;font-size:11px;fill:#e0e0e3" y="346">May</text><text x="305.625" style="color:#e0e0e3;cursor:default;font-size:11px;fill:#e0e0e3" y="346">Jun</text><text x="349.375" style="color:#e0e0e3;cursor:default;font-size:11px;fill:#e0e0e3" y="346">Jul</text><text x="393.125" style="color:#e0e0e3;cursor:default;font-size:11px;fill:#e0e0e3" y="346">Aug</text><text x="436.875" style="color:#e0e0e3;cursor:default;font-size:11px;fill:#e0e0e3" y="346">Sep</text><text x="480.625" style="color:#e0e0e3;cursor:default;font-size:11px;fill:#e0e0e3" y="346">Oct</text><text x="524.375" style="color:#e0e0e3;cursor:default;font-size:11px;fill:#e0e0e3" y="346">Nov</text><text x="568.125" style="color:#e0e0e3;cursor:default;font-size:11px;fill:#e0e0e3" y="346">Dec</text></g><g class="highcharts-axis-labels highcharts-yaxis-labels" data-z-index="7" aria-hidden="true" text-anchor="end"><text x="50" style="color:#e0e0e3;cursor:default;font-size:11px;fill:#e0e0e3" y="332">0°</text><text x="50" style="color:#e0e0e3;cursor:default;font-size:11px;fill:#e0e0e3" y="287">5°</text><text x="50" style="color:#e0e0e3;cursor:default;font-size:11px;fill:#e0e0e3" y="243">10°</text><text x="50" style="color:#e0e0e3;cursor:default;font-size:11px;fill:#e0e0e3" y="199">15°</text><text x="50" style="color:#e0e0e3;cursor:default;font-size:11px;fill:#e0e0e3" y="154">20°</text><text x="50" style="color:#e0e0e3;cursor:default;font-size:11px;fill:#e0e0e3" y="110">25°</text><text x="50" style="color:#e0e0e3;cursor:default;font-size:11px;fill:#e0e0e3" y="66">30°</text></g></svg>