<svg width="176" height="176" viewBox="0 0 176 176" fill="none" xmlns="http://www.w3.org/2000/svg">
<path d="M161.333 176H14.6667L0 161.333V14.6667L14.6667 0H161.333L176 14.6667V161.333L161.333 176Z" fill="#2F2B38"/>
<path d="M28.6406 9.71436H33.2698C36.5258 9.71436 38.6734 11.7736 38.6734 15.857C38.6734 19.9405 36.5261 22.0002 33.2698 22.0002H28.6406V9.71436ZM33.2698 19.6242C34.8538 19.6242 35.8397 18.7616 35.8397 16.8082V14.9067C35.8397 12.9531 34.8539 12.0907 33.2698 12.0907H31.3161V19.6242H33.2698Z" fill="#181228"/>
<path d="M47.5939 22.0001C47.1504 22.0018 46.7227 21.8359 46.3964 21.5356C46.07 21.2354 45.8691 20.823 45.8339 20.3809H45.7283C45.4465 21.5776 44.4256 22.2114 43.0177 22.2114C41.1697 22.2114 40.1484 21.12 40.1484 19.5183C40.1484 17.5647 41.6624 16.6315 44.1084 16.6315H45.5694V16.0507C45.5694 15.1531 45.1294 14.5898 44.0383 14.5898C43.6403 14.5825 43.2474 14.6793 42.8985 14.8708C42.5495 15.0623 42.2568 15.3416 42.0492 15.6812L40.5001 14.3083C41.2396 13.2169 42.2955 12.5483 44.232 12.5483C46.837 12.5483 48.1747 13.7454 48.1747 15.9278V19.9758H49.0373V22.0001H47.5939ZM45.5699 19.2014V18.11H44.3027C43.2994 18.11 42.7716 18.4799 42.7716 19.1488V19.4128C42.7716 20.0817 43.2116 20.3985 43.9858 20.3985C44.8482 20.3985 45.5698 20.0465 45.5698 19.2014H45.5699Z" fill="#181228"/>
<path d="M50.7812 22.0002V12.7594H53.3862V14.7661H53.4742C53.5506 14.1996 53.8337 13.6813 54.2691 13.3109C54.7045 12.9405 55.2614 12.7441 55.8328 12.7594H56.2904V15.1885H55.6391C54.1252 15.1885 53.3861 15.5227 53.3861 16.5965V22.0002H50.7812Z" fill="#181228"/>
<path d="M57.8906 8.97485H60.4956V16.6669H60.6012L61.7452 14.9597L63.5932 12.7597H66.48L63.4 16.2974L66.8321 22.0001H63.7344L61.6572 18.0925L60.4956 19.3952V22.0001H57.8906V8.97485Z" fill="#181228"/>
<path d="M161.333 176H14.6667L0 161.333V14.6667L14.6667 0H161.333L176 14.6667V161.333L161.333 176Z" fill="#201836"/>
<path d="M137.242 123.293V38.5227L40.7784 38.5227V123.293H137.242Z" fill="#30426B"/>
<path d="M125.766 139.7V87.0332H107.546V139.7H125.766Z" fill="#8087E8"/>
<path d="M99.1562 139.7V98.8767H80.3089V139.7H99.1562Z" fill="#A3EDBA"/>
<path d="M71.9141 139.506V81.2908H52.2667V139.506H71.9141Z" fill="#8087E8"/>
<path d="M65.3149 43.6333H35.3125V48.7849H65.3149V43.6333Z" fill="#F0F0F0"/>
<path d="M65.3149 52.6729H35.3125V57.8244H65.3149V52.6729Z" fill="#F0F0F0"/>
<path d="M65.3149 61.7126H35.3125V66.8642H65.3149V61.7126Z" fill="#F0F0F0"/>
</svg>
