<svg width="1235" height="1183.5" version="1.1" viewBox="0 0 1235.0314 1183.4319" xmlns="http://www.w3.org/2000/svg" xmlns:xlink="http://www.w3.org/1999/xlink">
 <defs>
  <linearGradient id="linearGradient5188" x1="818.03" x2="910.05" y1="1179.7" y2="1230.1" gradientUnits="userSpaceOnUse">
   <stop stop-color="#fcfcfc" offset="0"/>
   <stop stop-color="#fcfcfc" stop-opacity="0" offset="1"/>
  </linearGradient>
  <clipPath id="highcharts-ts23jsj-10">
   <rect width="521" height="301" fill="none"/>
  </clipPath>
  <linearGradient id="highcharts-ts23jsj-11" x1="3.6086" x2="3.6086" y1="65.186" y2="426.05" gradientTransform="scale(1.4154 .70649)" gradientUnits="userSpaceOnUse">
   <stop stop-color="#2b908f" offset="0"/>
   <stop stop-color="#2b908f" stop-opacity="0" offset="1"/>
  </linearGradient>
  <clipPath id="highcharts-t1tzhd0-9">
   <rect width="527" height="264" fill="none"/>
  </clipPath>
  <radialGradient id="highcharts-6ae325g-17-8" cx="252" cy="126" r="168" gradientUnits="userSpaceOnUse">
   <stop stop-color="#2b908f" offset="0"/>
   <stop stop-color="#004443" offset="1"/>
  </radialGradient>
  <radialGradient id="highcharts-6ae325g-18-7" cx="252" cy="126" r="168" gradientUnits="userSpaceOnUse">
   <stop stop-color="#90ee7e" offset="0"/>
   <stop stop-color="#44a232" offset="1"/>
  </radialGradient>
  <radialGradient id="highcharts-6ae325g-19-2" cx="252" cy="126" r="168" gradientUnits="userSpaceOnUse">
   <stop stop-color="#f45b5b" offset="0"/>
   <stop stop-color="#a80f0f" offset="1"/>
  </radialGradient>
  <radialGradient id="highcharts-6ae325g-20-1" cx="252" cy="126" r="168" gradientUnits="userSpaceOnUse">
   <stop stop-color="#7798BF" offset="0"/>
   <stop stop-color="#2b4c73" offset="1"/>
  </radialGradient>
  <radialGradient id="highcharts-6ae325g-21-0" cx="252" cy="126" r="168" gradientUnits="userSpaceOnUse">
   <stop stop-color="#aee" offset="0"/>
   <stop stop-color="#5ea2a2" offset="1"/>
  </radialGradient>
  <radialGradient id="highcharts-6ae325g-22-4" cx="252" cy="126" r="168" gradientUnits="userSpaceOnUse">
   <stop stop-color="#f06" offset="0"/>
   <stop stop-color="#b3001a" offset="1"/>
  </radialGradient>
  <clipPath id="highcharts-wwyswwn-9">
   <rect width="280" height="132" fill="none"/>
  </clipPath>
  <clipPath id="highcharts-wwyswwn-12">
   <rect width="280" height="132" fill="none"/>
  </clipPath>
  <clipPath id="highcharts-wwyswwn-12-2">
   <rect width="280" height="132" fill="none"/>
  </clipPath>
  <clipPath id="highcharts-3b4w7cp-8">
   <rect width="380" height="335" fill="none"/>
  </clipPath>
  <clipPath id="highcharts-vv151wj-9">
   <rect width="521" height="315" fill="none"/>
  </clipPath>
  <linearGradient id="linearGradient24006" x1="818.03" x2="910.05" y1="1179.7" y2="1230.1" gradientUnits="userSpaceOnUse" xlink:href="#linearGradient5188"/>
  <linearGradient id="linearGradient24905" x1="337.85" x2="1220" y1="565.82" y2="565.82" gradientTransform="translate(-2.0001)" gradientUnits="userSpaceOnUse" xlink:href="#linearGradient5188"/>
 </defs>
 <path d="m511.65 34.096c-72.128 0.04602-121.06 0.30045-123.57 0.83762-16.63 3.5661-23.288 6.8645-33.65 16.671-4.8365 4.578-12.165 15.091-14.184 20.348-3.8337 9.9778-4.3618 9.3624-0.25697 250.14-77.396-1.0754-272.75-0.67205-281.02 1.0943-16.887 3.6034-23.646 6.9381-34.168 16.849-4.9117 4.6262-12.355 15.25-14.405 20.562-4.5348 11.747-4.5638 6.6525 2.1202 392.37 4.5682 263.62 6.9633 377.09 8.0486 381.43 5.6649 22.675 23.843 40.409 48.06 46.888 10.501 2.8089 305.35 2.9419 316.27 0.1427 18.967-4.8592 35.778-17.237 43.056-31.702 1.6759-3.3309 2.9854-4.6426 3.9362-8.8066 106.25 2.9551 732.63 7.8275 742.54 5.2747 4.6798-3.9151 53.058-6.6609 53.931-49.734 3.7084-182.92-9.2202-845.08-11.378-1008.4-4.0036-24.555-32.277-44.678-57.25-50.784-6.5681-1.606-431.7-3.3438-648.08-3.2057z" fill-opacity=".19608" stroke-width="1.3254"/>
 <rect x="435.76" y="645.94" width="669.05" height="339.95" fill="#4a4a4a"/>
 <rect x="435.83" y="126.9" width="669.33" height="339.92" fill="#4a4a4a" stroke-width="1.88"/>
 <path d="m397.06 1123.7c-23.739-6.4873-55.534-20.051-60.723-42.757-0.9941-4.3498-1.4011-381.45-1.3682-645.44 0.048-386.26-0.0123-381.16 4.6556-392.92 2.111-5.3197 9.6236-15.959 14.54-20.592 10.533-9.9247 17.248-13.262 33.94-16.871 10.059-2.1745 762.89 0.22936 771.61 2.3964 24.866 6.1795 52.788 26.543 56.363 51.393-0.6922 165.26 0.6791 835.38-6.2222 1020.5-1.625 43.591-50.052 46.369-54.8 50.331-10.808 2.8031-747.71-3.2403-758-6.0531zm714.1-996.81c-248.86-4.1821-430.04-1e-5 -678.93-1e-5 -0.88349 332.2-2.9338 549.87-1.7178 864.26 204.64 2.2906 420.17-0.8043 680.65 0.9845 4.7025-291.14 0-572.12 0-865.24z" fill="#e6e6df" stroke="#c9c9c9"/>
 <g transform="translate(-69.677 -127.5)" fill="url(#linearGradient24006)">
  <ellipse cx="857.59" cy="1190.8" rx="29.679" ry="30.527"/>
  <rect x="848.27" y="1181.2" width="20" height="20" stroke="#5d5d5d" stroke-linejoin="round" stroke-width="4.2"/>
 </g>
 <g transform="translate(-89.116 -1121.6)">
  <ellipse cx="874.44" cy="1189.6" rx="8.2441" ry="8.4796" fill="#b2b2a3"/>
 </g>
 <g class="highcharts-axis highcharts-xaxis " transform="matrix(1.2152 0 0 1.1553 375.38 583.2)" fill="none" stroke="#707073">
  <path class="highcharts-tick" d="m100.5 327v10"/>
  <path class="highcharts-tick" d="m175.5 327v10"/>
  <path class="highcharts-tick" d="m250.5 327v10"/>
  <path class="highcharts-tick" d="m326.5 327v10"/>
  <path class="highcharts-tick" d="m401.5 327v10"/>
  <path class="highcharts-tick" d="m476.5 327v10"/>
  <path class="highcharts-tick" d="m551.5 327v10"/>
  <path class="highcharts-axis-line" d="m63 327.5h527"/>
 </g>
 <g class="highcharts-axis-labels highcharts-xaxis-labels " transform="matrix(1.0195 0 0 1.1553 364.56 579.25)" fill="#e0e0e3" font-family="'unica one', sans-serif" text-anchor="middle">
  <g font-size="11px">
   <text x="100.64286" y="346" color="#e0e0e3">
    <tspan>1750</tspan>
   </text>
   <text x="173.96683" y="346" color="#e0e0e3">
    <tspan>1800</tspan>
   </text>
   <text x="262.98471" y="346" color="#e0e0e3">
    <tspan>1850</tspan>
   </text>
   <text x="352.0025" y="346" color="#e0e0e3">
    <tspan>1900</tspan>
   </text>
   <text x="441.02032" y="346" color="#e0e0e3">
    <tspan>1950</tspan>
   </text>
   <text x="531.99994" y="346" color="#e0e0e3">
    <tspan>1999</tspan>
   </text>
   <text x="621.0177" y="346" color="#e0e0e3">
    <tspan>2050</tspan>
   </text>
  </g>
  <text x="703.70929" y="345.01135" color="#e0e0e3" font-family="'unica one', sans-serif" font-size="11px">
   <tspan>2050</tspan>
  </text>
 </g>
 <g class="highcharts-grid highcharts-yaxis-grid " transform="matrix(1.4426 0 0 .73939 219.78 166.33)">
  <g transform="matrix(.81507 0 0 .9493 110.37 -20.364)" fill="none" stroke="#e6e6e6">
   <path class="highcharts-grid-line" d="m74 363.5h516"/>
   <path class="highcharts-grid-line" d="m74 305.5h516"/>
   <path class="highcharts-grid-line" d="m74 247.5h516"/>
   <path class="highcharts-grid-line" d="m74 188.5h516"/>
   <path class="highcharts-grid-line" d="m74 130.5h516"/>
   <path class="highcharts-grid-line" d="m74 71.5h516"/>
  </g>
 </g>
 <g transform="matrix(1.9088 0 0 1.4197 -410.82 -336.36)">
  <g class="highcharts-series-group" transform="matrix(.71562 0 0 .77624 385.08 273.22)">
   <g class="highcharts-series highcharts-series-0 highcharts-area-series highcharts-color-0 " transform="translate(63,63)" clip-path="url(#highcharts-t1tzhd0-9)">
    <path class="highcharts-area" d="m37.643 243.12 75.286-4.9368 75.286-7.2336l75.286-10.507 75.286-23.021 75.286-91.238 76.665-41.466-1.3789 103.16-75.286 34.241-75.286 32.314-75.286 11.009-75.286 6.864-75.286 2.64-75.286 1.4256" fill="#2b908f" fill-opacity=".75"/>
    <path class="highcharts-graph" d="m37.643 243.12 75.286-4.9368 75.286-7.2336" fill="none" stroke="#666" stroke-linecap="round" stroke-linejoin="round"/>
   </g>
   <g class="highcharts-markers highcharts-series-0 highcharts-area-series highcharts-color-0 " transform="translate(63,63)" fill="#2b908f" stroke="#333">
    <path class="highcharts-point highcharts-color-0" d="m41 243a4 4 0 1 1 -2e-6 -4e-3z"/>
    <path class="highcharts-point highcharts-color-0" d="m116 238a4 4 0 1 1 0 -4e-3z"/>
    <path class="highcharts-point highcharts-color-0" d="m192 231a4 4 0 1 1 0 -4e-3z"/>
    <path class="highcharts-point highcharts-color-0" d="m267 220a4 4 0 1 1 0 -4e-3z"/>
    <path class="highcharts-point highcharts-color-0" d="m342 197a4 4 0 1 1 0 -4e-3z"/>
    <path class="highcharts-point highcharts-color-0" d="m418 106a4 4 0 1 1 0 -4e-3z"/>
   </g>
   <g class="highcharts-series highcharts-series-1 highcharts-area-series highcharts-color-1 " transform="translate(63,63)" clip-path="url(#highcharts-t1tzhd0-9)">
    <path class="highcharts-area" d="m37.643 256.37 75.286-1.4256 75.286-2.64 75.286-6.864 75.286-11.009 75.286-32.314 75.286-34.241v46.622l-75.286 7.8672-75.286 17.899-75.286 8.6856-75.286 6.2832-75.286 2.5344-75.286 1.3992" fill="#90ee7e" fill-opacity=".75"/>
    <path class="highcharts-graph" d="m37.643 256.37 75.286-1.4256 75.286-2.64 75.286-6.864 75.286-11.009 75.286-32.314 75.286-34.241" fill="none" stroke="#666" stroke-linecap="round" stroke-linejoin="round"/>
   </g>
   <g class="highcharts-markers highcharts-series-1 highcharts-area-series highcharts-color-1 " transform="translate(63,63)" fill="#90ee7e" stroke="#333">
    <path class="highcharts-point highcharts-color-1" d="m37 252 4 4-4 4-4-4z"/>
    <path class="highcharts-point highcharts-color-1" d="m112 251 4 4-4 4-4-4z"/>
    <path class="highcharts-point highcharts-color-1" d="m188 248 4 4-4 4-4-4z"/>
    <path class="highcharts-point highcharts-color-1" d="m263 241 4 4-4 4-4-4z"/>
    <path class="highcharts-point highcharts-color-1" d="m338 230 4 4-4 4-4-4z"/>
    <path class="highcharts-point highcharts-color-1" d="m414 198 4 4-4 4-4-4z"/>
    <path class="highcharts-point highcharts-color-1" d="m489 164 4 4-4 4-4-4z"/>
   </g>
   <g class="highcharts-series highcharts-series-2 highcharts-area-series highcharts-color-2 " transform="translate(63,63)" clip-path="url(#highcharts-t1tzhd0-9)">
    <path class="highcharts-area" d="m37.643 259.17 75.286-1.3992 75.286-2.5344 75.286-6.2832 75.286-8.6856 75.286-17.899 75.286-7.8672v16.579l-75.286 10.534-75.286 13.094-75.286 5.016-75.286 2.7984-75.286 0.6072-75.286 0.3432" fill="#f45b5b" fill-opacity=".75"/>
    <path class="highcharts-graph" d="m37.643 259.17 75.286-1.3992 75.286-2.5344 75.286-6.2832 75.286-8.6856 75.286-17.899 75.286-7.8672" fill="none" stroke="#666" stroke-linecap="round" stroke-linejoin="round"/>
   </g>
   <g class="highcharts-markers highcharts-series-2 highcharts-area-series highcharts-color-2 " transform="translate(63,63)" fill="#f45b5b" stroke="#333">
    <path class="highcharts-point highcharts-color-2" d="m33 255h8v8h-8z"/>
    <path class="highcharts-point highcharts-color-2" d="m108 254h8v8h-8z"/>
    <path class="highcharts-point highcharts-color-2" d="m184 251h8v8h-8z"/>
    <path class="highcharts-point highcharts-color-2" d="m259 245h8v8h-8z"/>
    <path class="highcharts-point highcharts-color-2" d="m334 236h8v8h-8z"/>
    <path class="highcharts-point highcharts-color-2" d="m410 218h8v8h-8z"/>
    <path class="highcharts-point highcharts-color-2" d="m485 211h8v8h-8z"/>
   </g>
   <g class="highcharts-series highcharts-series-3 highcharts-area-series highcharts-color-3 " transform="translate(63,63)" clip-path="url(#highcharts-t1tzhd0-9)">
    <path class="highcharts-area" d="m37.643 263.47 75.286-0.3432 75.286-0.6072 75.286-2.7984 75.286-5.016 75.286-13.094 75.286-10.534v31.706l-75.286 0.4224-75.286 0.4488-75.286 0.1848-75.286 0.1056h-150.57" fill="#7798bf" fill-opacity=".75"/>
    <path class="highcharts-graph" d="m37.643 263.47 75.286-0.3432 75.286-0.6072 75.286-2.7984 75.286-5.016 75.286-13.094 75.286-10.534" fill="none" stroke="#666" stroke-linecap="round" stroke-linejoin="round"/>
   </g>
   <g class="highcharts-markers highcharts-series-3 highcharts-area-series highcharts-color-3 " transform="translate(63,63)" fill="#7798bf" stroke="#333">
    <path class="highcharts-point highcharts-color-3" d="m37 259 4 8h-8z"/>
    <path class="highcharts-point highcharts-color-3" d="m112 259 4 8h-8z"/>
    <path class="highcharts-point highcharts-color-3" d="m188 259 4 8h-8z"/>
    <path class="highcharts-point highcharts-color-3" d="m263 256 4 8h-8z"/>
    <path class="highcharts-point highcharts-color-3" d="m338 251 4 8h-8z"/>
    <path class="highcharts-point highcharts-color-3" d="m414 238 4 8h-8z"/>
    <path class="highcharts-point highcharts-color-3" d="m489 227 4 8h-8z"/>
   </g>
   <g class="highcharts-series highcharts-series-4 highcharts-area-series highcharts-color-4 " transform="translate(63,63)" clip-path="url(#highcharts-t1tzhd0-9)">
    <path class="highcharts-area" d="m37.643 263.95h150.57l75.286-0.1056 75.286-0.1848 75.286-0.4488 75.286-0.4224v1.2144h-451.71" fill="#aee" fill-opacity=".75"/>
    <path class="highcharts-graph" d="m37.643 263.95h150.57l75.286-0.1056 75.286-0.1848 75.286-0.4488 75.286-0.4224" fill="none" stroke="#666" stroke-linecap="round" stroke-linejoin="round"/>
   </g>
   <g class="highcharts-markers highcharts-series-4 highcharts-area-series highcharts-color-4 " transform="translate(63,63)" fill="#aee" stroke="#333">
    <path class="highcharts-point highcharts-color-4" d="m33 260h8l-4 8z"/>
    <path class="highcharts-point highcharts-color-4" d="m108 260h8l-4 8z"/>
    <path class="highcharts-point highcharts-color-4" d="m184 260h8l-4 8z"/>
    <path class="highcharts-point highcharts-color-4" d="m259 260h8l-4 8z"/>
    <path class="highcharts-point highcharts-color-4" d="m334 260h8l-4 8z"/>
    <path class="highcharts-point highcharts-color-4" d="m410 259h8l-4 8z"/>
    <path class="highcharts-point highcharts-color-4" d="m485 259h8l-4 8z"/>
   </g>
  </g>
 </g>
 <g fill="#e1e1e1" font-family="sans-serif" letter-spacing="0px" word-spacing="0px">
  <text transform="scale(.94985 1.0528)" x="481.53967" y="421.45569" font-size="22.481px" stroke-width=".56202px" style="line-height:125%" xml:space="preserve"><tspan x="481.53967" y="421.45569" fill="#e1e1e1" stroke-width=".56202px">A           B            C            D            E            F          G   </tspan></text>
  <g stroke-width=".31777px">
   <text transform="scale(.99466 1.0054)" x="547.09955" y="801.72272" font-size="12.711px" style="line-height:125%" xml:space="preserve"><tspan x="547.09955" y="801.72272" fill="#e1e1e1" stroke-width=".31777px">A </tspan></text>
   <text transform="scale(.99466 1.0054)" x="558.01819" y="735.82416" font-size="12.711px" style="line-height:125%" xml:space="preserve"><tspan x="558.01819" y="735.82416" fill="#e1e1e1" stroke-width=".31777px">B </tspan></text>
   <text transform="scale(.99466 1.0054)" x="566.49884" y="722.06647" font-size="12.711px" style="line-height:125%" xml:space="preserve"><tspan x="566.49884" y="722.06647" fill="#e1e1e1" stroke-width=".31777px">C </tspan></text>
   <text transform="scale(.99466 1.0054)" x="579.23914" y="707.73071" font-size="12.711px" style="line-height:125%" xml:space="preserve"><tspan x="579.23914" y="707.73071" fill="#e1e1e1" stroke-width=".31777px">D </tspan></text>
   <text transform="scale(.99466 1.0054)" x="624.01935" y="696.41144" font-size="12.711px" style="line-height:125%" xml:space="preserve"><tspan x="624.01935" y="696.41144" fill="#e1e1e1" stroke-width=".31777px">E </tspan></text>
  </g>
 </g>
 <g transform="matrix(.86211 0 0 .86211 -180.36 412.35)">
  <g transform="matrix(.62829 0 0 .62829 784.18 284.94)">
   <g class="highcharts-series-group">
    <g class="highcharts-series highcharts-series-0 highcharts-pie-series highcharts-color-undefined " transform="translate(10,49)" stroke="#fff" stroke-linejoin="round">
     <path class="highcharts-point highcharts-color-0" d="m251.98 54a120 120 0 1 1 -59.622 224.13l59.647-104.13z" fill="url(#highcharts-6ae325g-17-8)"/>
     <path class="highcharts-point highcharts-point-select highcharts-color-1" transform="translate(-10,3)" d="m192.25 278.07a120 120 0 0 1 -44.837 -162.9l104.59 58.833z" fill="url(#highcharts-6ae325g-18-7)"/>
     <path class="highcharts-point highcharts-color-2" d="m147.47 115.06a120 120 0 0 1 59.641 -52.35l44.888 111.29z" fill="url(#highcharts-6ae325g-19-2)"/>
     <path class="highcharts-point highcharts-color-3" d="m207.22 62.667a120 120 0 0 1 35.978 -8.3439l8.7988 119.68z" fill="url(#highcharts-6ae325g-20-1)"/>
     <path class="highcharts-point highcharts-color-4" d="m243.32 54.314a120 120 0 0 1 6.9525 -0.30185l1.7266 119.99z" fill="url(#highcharts-6ae325g-21-0)"/>
     <path class="highcharts-point highcharts-color-5" d="m250.39 54.011a120 120 0 0 1 1.44 -0.01064l0.16668 120z" fill="url(#highcharts-6ae325g-22-4)"/>
    </g>
   </g>
   <g fill="none" stroke="#c0c0c0">
    <path class="highcharts-data-label-connector highcharts-color-0" d="m411.93 261.67c-5 0-22.391-4.6408-28.189-6.1878l-5.7972-1.547"/>
    <path class="highcharts-data-label-connector highcharts-color-1" d="m112.35 262.71c5 0 22.358-4.7651 28.144-6.3535l5.7859-1.5884"/>
    <path class="highcharts-data-label-connector highcharts-color-2" d="m130.12 142.98c5 0 44.849-19.233 48.805-14.722l3.9558 4.5113"/>
    <path class="highcharts-data-label-connector highcharts-color-3" d="m148.28 119.66c5 0 83.977-25.262 85.329-19.416l1.352 5.8457"/>
    <path class="highcharts-data-label-connector highcharts-color-4" d="m176.66 96.328c5 0 79.717-5.2084 79.973 0.78616l0.25549 5.9946"/>
    <path class="highcharts-data-label-connector highcharts-color-5" d="m256.02 73c5 0 5.117 18.003 5.1561 24.003l0.039 5.9999"/>
   </g>
  </g>
 </g>
 <g transform="matrix(.44488 0 0 .44487 676.69 599.01)" font-family="sans-serif" font-size="40.001px" letter-spacing="0px" stroke-width="1px" word-spacing="0px">
  <text x="642.31812" y="609.87207" fill="#e7e7e7" style="line-height:125%" xml:space="preserve"><tspan x="642.31812" y="609.87207">1Q: </tspan><tspan x="642.31812" y="659.87396">2Q:</tspan><tspan x="642.31812" y="709.87579">YTD:</tspan></text>
  <text x="749.71533" y="611.1156" fill="#8acf59" style="line-height:125%" xml:space="preserve"><tspan x="749.71533" y="611.1156">-12%</tspan><tspan x="749.71533" y="661.11749">+15%</tspan><tspan x="749.71533" y="711.11932">+3%</tspan></text>
 </g>
 <g class="highcharts-series-group" transform="matrix(1.2701 0 0 .99941 353.9 576.03)">
  <g class="highcharts-series highcharts-series-0 highcharts-area-series highcharts-color-0 " transform="translate(69,63)" clip-path="url(#highcharts-ts23jsj-10)">
   <path class="highcharts-area" d="m5.1078 231.27 0.67386 4.7157 0.67386 0.301 0.67386 0.70233 0.67386 8.9297 0.67386-1.3043 1.3477-1.204 0.67386 3.1103 0.67386 3.311 0.67386 1.204 0.67386 2.107 0.67386-1.505 1.3477 0.50167 0.67386 0.70233 0.67386 1.4047 0.67386-5.5183 0.67386-4.3143 0.67386-5.719 1.3477-0.903 0.67386 0.70233 0.67386-2.107 0.67386-4.1137 0.67386 1.4047 0.67386-1.6053h1.3477l0.67386 3.311 0.67386-5.117 0.67386 1.806 0.67386-5.719 0.67386-4.9163 1.3477-1.1037 0.67386 3.4113 0.67386-5.418 0.67386 11.94 0.67386 7.0233 0.67386-1.7057 1.3477-0.40134 0.67386 0.10034 0.67386 5.719 0.67386-2.107 0.67386-0.903 0.67386 1.9063 1.3477 1.0033 0.67386 1.505 0.67386 2.2073 0.67386-1.3043 0.67386 4.4147 0.67386 0.10033 1.3477 0.40134 0.67386-1.4047h0.67386l0.67386 2.2073 0.67386-5.3177 0.67386 4.214 1.3477-0.301 0.67386-1.0033 0.67386 2.709 0.67386 1.7057 0.67386 2.5083 0.67386-2.107 1.3477-0.301 0.67386-2.2073 0.67386-2.107 0.67386-0.301 0.67386 5.117 0.67386-1.0033 1.3477-0.10034 0.67386 0.40134 0.67386 4.6153 0.67386-3.4113h0.67386l0.67386 1.505 1.3477 0.10033 0.67386-0.903 0.67386 1.3043 0.67386-3.01 0.67386-5.5183 0.67386-1.0033 1.3477-1.0033 0.67386-0.903 0.67386-1.204 0.67386 2.2073 0.67386-5.117 0.67386 3.4113 1.3477-0.301 0.67386 4.7157 0.67386 0.70233 0.67386 2.5083 0.67386-0.70233 0.67386-0.301 1.3477 3.612 0.67386-1.4047 0.67386 1.4047 0.67386 9.03 0.67386 0.50167 0.67386-0.301 1.3477 0.50166 0.67386-2.2073 0.67386-1.1037 0.67386 2.9097 0.67386-2.0067 0.67386 1.7057 1.3477-1.4047 0.67386 1.7057h0.67386l0.67386 2.8093 0.67386 2.2073 0.67386-3.311 1.3477 0.602 0.67386 0.80266 0.67386-0.602 0.67386-2.5083 0.67386-0.40133 0.67386 1.204 1.3477 0.80266 0.67386 0.301 0.67386-2.107 0.67386 0.602 0.67386 7.7257 0.67386 0.50167 1.3477-0.20067 0.67386 0.10033 0.67386 5.2173 0.67386-0.20067 0.67386 1.1037 0.67385 0.301h1.3477l0.67386-1.1037 0.67386-2.0067 0.67385-0.50166 0.67386-8.127 0.67386-5.418 1.3477 0.40133 0.67386 1.204 0.67386-2.2073 0.67386 2.107 0.67386-5.2173 0.67385-2.709 1.3477-1.3043 0.67386 3.2107 0.67386 1.806 0.67385 2.709 0.67386-1.4047 0.67386 1.9063 1.3477-0.70233 0.67385 1.204 0.67386 1.9063 0.67386-5.5183 0.67386 2.3077 0.67386 4.214 1.3477-0.301 0.67386-2.0067 0.67386 3.01 0.67386 0.40133 0.67385 1.505 0.67386-0.80266 1.3477-0.40134 0.67385-2.3077 0.67386 2.6087 0.67386 0.20067 0.67386 4.0133 0.67386 2.0067 1.3477 0.10033 0.67386 1.7057 0.67386 1.204 0.67386 1.3043 0.67385-1.6053 0.67386-0.602 1.3477-0.20067 0.67386 1.1037 0.67385 0.40133 0.67386-4.4147 0.67386-1.204 0.67386 0.40133 1.3477 0.40133 0.67386 1.0033 0.67386-0.70234 0.67386-0.20066 0.67386 0.602 0.67385 2.709 1.3477 0.50166 0.67386 2.8093 0.67386-3.1103 0.67385 0.40134 0.67386-4.3143 0.67386-4.515 1.3477 0.40134 0.67386 1.7057 0.67386-0.70233 0.67386-2.107 0.67386 1.7057 0.67385 3.311 1.3477 0.10033h0.67386l0.67386 0.50167 0.67385-4.0133 0.67386 0.903 0.67386-4.4147 1.3477-0.70234 0.67385 1.3043 0.67386 0.602 0.67386-0.80267 0.67386 8.0267 0.67386-1.0033 1.3477 0.50167 0.67386-0.80267 0.67386-0.20066 0.67386-0.301 0.67385-5.8193 0.67386-3.8127 1.3477 0.10033 0.67385 2.107 0.67386-0.40133 0.67386 0.80266 0.67386 3.1103 0.67386 2.408 1.3477-0.903 0.67386 1.505 0.67386-0.40134 0.67386-2.408 0.67385 4.7157 0.67386 0.50167 1.3477 0.40133 0.67386 0.50167 0.67385 2.709 0.67386-1.3043 0.67386-0.80266 0.67386 1.1037 1.3477-0.20066h0.67386l0.67386 0.50166 0.67386-3.1103 0.67386 1.1037 0.67385 5.0167 1.3477-1.4047 0.67386-2.107 0.67385 0.40133 0.67386-0.602 0.67386 6.7223 0.67386 0.903h1.3477l0.67386-0.10033 0.67386-0.903 0.67386 2.408 0.67386-1.806 0.67385 2.3077 1.3477-0.10034 0.67386 0.50167 0.67386 0.602 0.67385-5.2173 0.67386-2.9097 0.67386 0.903 1.3477 0.20067 0.67385 2.107 0.67386-0.602 0.67386-2.3077 0.67386-2.3077 0.67386 0.70234 1.3477-0.10034 0.67386 1.1037 0.67386 1.1037 0.67385-1.4047 0.67386-2.5083 0.67386-0.903h1.3477l0.67385 2.0067 0.67386 3.01 0.67386 3.01 0.67386 1.806 0.67386-0.20066 1.3477-2.0067 0.67386-1.4047 0.67386-0.301 0.67386 0.10034h1.3477l1.3477-0.10034 0.67386-1.1037 0.67385 0.602 0.67386 0.602 0.67386 0.903h0.67386l1.3477 0.301 0.67386 0.602 0.67386-2.0067 0.67386 2.9097 0.67386 0.10033 0.67385 0.10033h1.3477l0.67386 0.20067 0.67385 2.709 0.67386-0.80267 0.67386-3.7123 0.67386-4.3143 1.3477 0.10033 0.67386-0.20067 0.67386-2.8093 0.67386 0.602 0.67386-0.301 0.67385-0.80267 1.3477 0.40134 0.67386 0.301 0.67386-0.301 0.67385-0.903 0.67386-1.6053 0.67386-1.204 1.3477-0.301 0.67385 0.903 0.67386-0.602 0.67386-2.3077 0.67386 0.70233 0.67386 1.4047 1.3477-0.10034 0.67386-1.7057 0.67386 1.7057 0.67385-1.505 0.67386 3.2107 0.67386-0.903 1.3477 0.301 0.67385-2.9097 0.67386-2.5083 0.67386-0.80267 0.67386 1.0033 0.67386-0.50167 1.3477-0.40133 0.67386 2.107 0.67386-1.505 0.67386 2.6087 0.67385 0.70234 0.67386-0.40134 1.3477-0.40133 0.67386 0.70233h0.67385l0.67386 1.3043 0.67386-1.0033 0.67386 2.0067 1.3477-0.301 0.67386 2.6087 0.67386-0.602 0.67386-1.0033 0.67385-2.709 0.67386-0.903 1.3477-0.40133 0.67386 1.0033 0.67385 0.40134 0.67386 1.7057 0.67386-1.9063 0.67386-0.10033 1.3477-0.301 0.67386 1.0033 0.67386-2.709 0.67386-2.408 0.67386 0.10033 0.67385-0.20066 1.3477 0.40133 0.67386-0.50167 0.67386-3.2107h0.67385l0.67386-0.10034 0.67386-1.806 1.3477-0.10033 0.67385 0.70233 0.67386-1.806 0.67386-0.602 0.67386-0.50166 0.67385 2.3077 1.3477-0.10033 0.67386-0.301 0.67386-2.709 0.67385 0.50167 0.67386-1.1037 0.67386 2.6087 1.3477-0.301 0.67385-1.0033 0.67386-1.0033 0.67386-0.20067h0.67386l0.67386 1.9063 1.3477-0.602 0.67386-1.4047 0.67386-2.5083 0.67386-3.311 0.67385 1.204 0.67386-2.2073 1.3477-2.6087 0.67386-0.301 0.67385-1.3043 0.67386 1.3043 0.67386-0.50167 0.67386-2.9097 1.3477-0.40133h0.67386l0.67386 0.40133 0.67386 1.0033 0.67385-12.14 0.67386 0.301 1.3477 0.10034 0.67386-3.2107 0.67385 2.3077 0.67386-1.204 0.67386 0.602 0.67386 2.3077 1.3477-0.40133 0.67386-1.0033 0.67386 1.1037 0.67386-5.6187 0.67386 3.311 0.67385-5.5183 1.3477 0.602 0.67386 0.602 0.67386-0.20066 0.67385-4.0133 0.67386-1.9063 0.67386-4.1137 1.3477-0.70233 0.67385 0.80267 0.67386-3.311 0.67386-0.602 0.67386 2.9097 0.67385-9.632 1.3477-0.301 0.67386 8.9297 0.67386 1.0033 0.67385 4.0133 0.67386-2.709 0.67386-3.913 1.3477 0.70233 0.67385 7.0233 0.67386-5.8193 0.67386 11.037 0.67386-1.6053 0.67386-2.9097 1.3477-0.903 0.67386 3.1103 0.67386-5.117 0.67386-4.1137 0.67385-0.20066 0.67386 1.4047 1.3477 0.40134 0.67386 1.4047 0.67385 2.2073 0.67386-6.321 0.67386-1.3043 0.67386-5.5183 1.3477-1.505 0.67386-1.3043 0.67386 4.1137 0.67386-3.8127 0.67385-7.224 0.67386 5.117 1.3477 0.50166 0.67386-2.6087 0.67385 3.5117 0.67386-2.408 0.67386 2.5083 0.67386 3.01 1.3477-0.301 0.67386-4.4147 0.67386 5.6187 0.67386 1.1037 0.67386-1.0033 0.67385-9.632 1.3477-1.1037 0.67386 4.515 0.67386 2.107 0.67385 2.0067 0.67386-2.6087 0.67386-0.903 1.3477-0.903 0.67386 2.0067 0.67386-5.5183 0.67386-4.816 0.67386 4.515 0.67385-6.1203 1.3477 0.40134 0.67386 1.6053 0.67386 3.8127 0.67385 4.7157 0.67386-2.3077 0.67386 3.311h1.3477l0.67385-1.6053 0.67386 4.7157 0.67386-10.936 0.67386-3.7123 0.67386-3.8127 1.3477-0.301 0.67386 0.40133 0.67386-3.913 0.67386 1.505 0.67385 1.806 0.67386-3.1103 1.3477-0.50167 0.67386-1.1037 0.67385 0.40134 0.67386-4.1137 0.67386 0.40133 0.67386-6.923 1.3477-4.0133 0.67386-0.903 0.67386-3.1103 0.67386-3.612 0.67385-3.311 0.67386 3.5117 1.3477 2.0067 0.67386-2.6087 0.67385-4.4147 0.67386 1.3043 0.67386-11.639 0.67386-4.515 1.3477-0.50166 0.67386 3.1103 0.67386-4.1137 0.67386 4.515 0.67386-18.562 0.67385-12.441 1.3477-6.8227 0.67386 9.2307 0.67386 11.137 0.67385-7.224 0.67386 2.5083 0.67386-2.5083 1.3477 1.6053 0.67386 2.6087 0.67386 10.736 0.67386-10.334 0.67386 10.033 0.67385-12.441 1.3477-0.20067 0.67386 0.80267 0.67386-0.20067 0.67385 1.0033 0.67386 5.3177 0.67386-1.3043 1.3477 0.903 0.67385-3.311 0.67386 4.515 0.67386-1.204 0.67386-2.408 0.67386 1.1037h1.3477l0.67386-3.7123 0.67386 0.602 0.67386 1.7057 0.67385-13.043 0.67386-0.10033 1.3477-2.8093 0.67385 1.9063 0.67386-0.70233 0.67386-7.826 0.67386-4.0133 0.67386-15.652 1.3477 0.10033 0.67386 0.70233 0.67386-13.344 0.67386-13.545 0.67385 7.9263 0.67386-12.542 1.3477-1.3043 0.67386 7.9263 0.67385 2.709 0.67386 23.277 0.67386-17.859 0.67386 14.047 1.3477 0.40133 0.67386 10.234 0.67386-1.7057 0.67386 3.8127 0.67386-7.4247 0.67385 0.40133 1.3477-0.40133 0.67386-4.3143 0.67385-8.8293 0.67386 2.8093 0.67386 10.334 0.67386 7.9263 1.3477 1.806 0.67386-6.321 0.67386-9.2307 0.67386-3.01 0.67386-10.635 0.67385-4.9163 1.3477 0.50167 0.67386-3.7123 0.67386 7.7257 0.67385 2.9097 0.67386 6.4213 0.67386 3.913 1.3477 0.301 0.67385-6.1203 0.67386-0.301 0.67386-0.80267 0.67386 8.729 0.67386 4.0133 1.3477-0.50167 0.67386 1.7057 0.67386 7.826 0.67385 12.341 0.67386 7.4247 0.67386-1.9063 1.3477-1.3043 0.67385-3.1103 0.67386 3.2107 0.67386 13.244 0.67386-6.8227 0.67386-4.9163 1.3477-0.903 0.67386-3.01 0.67386 4.7157 0.67386 11.237 0.67385 4.1137 0.67386 3.2107 1.3477-0.50167 0.67386-10.134 0.67385-13.144 0.67386-4.515 0.67386 1.505 0.67386-7.7257 1.3477-2.2073 0.67386-1.204 0.67386-8.6287 0.67386 2.6087 0.67386 3.7123 0.67385 3.2107 1.3477-2.5083 0.67386-2.5083 0.67385 18.662 0.67386 9.4313 0.67386-2.709 0.67386-10.134 1.3477-0.50167 0.67386 14.749 0.67386-0.50167 0.67386 3.311 0.67386-5.3177 0.67385 0.903 1.3477-4.0133 0.67386 5.117 0.67386-2.9097 0.67385 7.0233 0.67386 1.9063 0.67386-0.602 1.3477 1.4047 0.67385-2.408 0.67386-13.445 0.67386 2.8093 0.67386-0.10034 0.67386-3.01 1.3477-15.853 0.67386 21.371 0.67386-5.0167v195.65h-510.78" fill="url(#highcharts-ts23jsj-11)"/>
   <path class="highcharts-graph" d="m5.1078 231.27 0.67386 4.7157 0.67386 0.301 0.67386 0.70233 0.67386 8.9297 0.67386-1.3043 1.3477-1.204 0.67386 3.1103 0.67386 3.311 0.67386 1.204 0.67386 2.107 0.67386-1.505 1.3477 0.50167 0.67386 0.70233 0.67386 1.4047 0.67386-5.5183 0.67386-4.3143 0.67386-5.719 1.3477-0.903 0.67386 0.70233 0.67386-2.107 0.67386-4.1137 0.67386 1.4047 0.67386-1.6053h1.3477l0.67386 3.311 0.67386-5.117 0.67386 1.806 0.67386-5.719 0.67386-4.9163 1.3477-1.1037 0.67386 3.4113 0.67386-5.418 0.67386 11.94 0.67386 7.0233 0.67386-1.7057 1.3477-0.40134 0.67386 0.10034 0.67386 5.719 0.67386-2.107 0.67386-0.903 0.67386 1.9063 1.3477 1.0033 0.67386 1.505 0.67386 2.2073 0.67386-1.3043 0.67386 4.4147 0.67386 0.10033 1.3477 0.40134 0.67386-1.4047h0.67386l0.67386 2.2073 0.67386-5.3177 0.67386 4.214 1.3477-0.301 0.67386-1.0033 0.67386 2.709 0.67386 1.7057 0.67386 2.5083 0.67386-2.107 1.3477-0.301 0.67386-2.2073 0.67386-2.107 0.67386-0.301 0.67386 5.117 0.67386-1.0033 1.3477-0.10034 0.67386 0.40134 0.67386 4.6153 0.67386-3.4113h0.67386l0.67386 1.505 1.3477 0.10033 0.67386-0.903 0.67386 1.3043 0.67386-3.01 0.67386-5.5183 0.67386-1.0033 1.3477-1.0033 0.67386-0.903 0.67386-1.204 0.67386 2.2073 0.67386-5.117 0.67386 3.4113 1.3477-0.301 0.67386 4.7157 0.67386 0.70233 0.67386 2.5083 0.67386-0.70233 0.67386-0.301 1.3477 3.612 0.67386-1.4047 0.67386 1.4047 0.67386 9.03 0.67386 0.50167 0.67386-0.301 1.3477 0.50166 0.67386-2.2073 0.67386-1.1037 0.67386 2.9097 0.67386-2.0067 0.67386 1.7057 1.3477-1.4047 0.67386 1.7057h0.67386l0.67386 2.8093 0.67386 2.2073 0.67386-3.311 1.3477 0.602 0.67386 0.80266 0.67386-0.602 0.67386-2.5083 0.67386-0.40133 0.67386 1.204 1.3477 0.80266 0.67386 0.301 0.67386-2.107 0.67386 0.602 0.67386 7.7257 0.67386 0.50167 1.3477-0.20067 0.67386 0.10033 0.67386 5.2173 0.67386-0.20067 0.67386 1.1037 0.67385 0.301h1.3477l0.67386-1.1037 0.67386-2.0067 0.67385-0.50166 0.67386-8.127 0.67386-5.418 1.3477 0.40133 0.67386 1.204 0.67386-2.2073 0.67386 2.107 0.67386-5.2173 0.67385-2.709 1.3477-1.3043 0.67386 3.2107 0.67386 1.806 0.67385 2.709 0.67386-1.4047 0.67386 1.9063 1.3477-0.70233 0.67385 1.204 0.67386 1.9063 0.67386-5.5183 0.67386 2.3077 0.67386 4.214 1.3477-0.301 0.67386-2.0067 0.67386 3.01 0.67386 0.40133 0.67385 1.505 0.67386-0.80266 1.3477-0.40134 0.67385-2.3077 0.67386 2.6087 0.67386 0.20067 0.67386 4.0133 0.67386 2.0067 1.3477 0.10033 0.67386 1.7057 0.67386 1.204 0.67386 1.3043 0.67385-1.6053 0.67386-0.602 1.3477-0.20067 0.67386 1.1037 0.67385 0.40133 0.67386-4.4147 0.67386-1.204 0.67386 0.40133 1.3477 0.40133 0.67386 1.0033 0.67386-0.70234 0.67386-0.20066 0.67386 0.602 0.67385 2.709 1.3477 0.50166 0.67386 2.8093 0.67386-3.1103 0.67385 0.40134 0.67386-4.3143 0.67386-4.515 1.3477 0.40134 0.67386 1.7057 0.67386-0.70233 0.67386-2.107 0.67386 1.7057 0.67385 3.311 1.3477 0.10033h0.67386l0.67386 0.50167 0.67385-4.0133 0.67386 0.903 0.67386-4.4147 1.3477-0.70234 0.67385 1.3043 0.67386 0.602 0.67386-0.80267 0.67386 8.0267 0.67386-1.0033 1.3477 0.50167 0.67386-0.80267 0.67386-0.20066 0.67386-0.301 0.67385-5.8193 0.67386-3.8127 1.3477 0.10033 0.67385 2.107 0.67386-0.40133 0.67386 0.80266 0.67386 3.1103 0.67386 2.408 1.3477-0.903 0.67386 1.505 0.67386-0.40134 0.67386-2.408 0.67385 4.7157 0.67386 0.50167 1.3477 0.40133 0.67386 0.50167 0.67385 2.709 0.67386-1.3043 0.67386-0.80266 0.67386 1.1037 1.3477-0.20066h0.67386l0.67386 0.50166 0.67386-3.1103 0.67386 1.1037 0.67385 5.0167 1.3477-1.4047 0.67386-2.107 0.67385 0.40133 0.67386-0.602 0.67386 6.7223 0.67386 0.903h1.3477l0.67386-0.10033 0.67386-0.903 0.67386 2.408 0.67386-1.806 0.67385 2.3077 1.3477-0.10034 0.67386 0.50167 0.67386 0.602 0.67385-5.2173 0.67386-2.9097 0.67386 0.903 1.3477 0.20067 0.67385 2.107 0.67386-0.602 0.67386-2.3077 0.67386-2.3077 0.67386 0.70234 1.3477-0.10034 0.67386 1.1037 0.67386 1.1037 0.67385-1.4047 0.67386-2.5083 0.67386-0.903h1.3477l0.67385 2.0067 0.67386 3.01 0.67386 3.01 0.67386 1.806 0.67386-0.20066 1.3477-2.0067 0.67386-1.4047 0.67386-0.301 0.67386 0.10034h1.3477l1.3477-0.10034 0.67386-1.1037 0.67385 0.602 0.67386 0.602 0.67386 0.903h0.67386l1.3477 0.301 0.67386 0.602 0.67386-2.0067 0.67386 2.9097 0.67386 0.10033 0.67385 0.10033h1.3477l0.67386 0.20067 0.67385 2.709 0.67386-0.80267 0.67386-3.7123 0.67386-4.3143 1.3477 0.10033 0.67386-0.20067 0.67386-2.8093 0.67386 0.602 0.67386-0.301 0.67385-0.80267 1.3477 0.40134 0.67386 0.301 0.67386-0.301 0.67385-0.903 0.67386-1.6053 0.67386-1.204 1.3477-0.301 0.67385 0.903 0.67386-0.602 0.67386-2.3077 0.67386 0.70233 0.67386 1.4047 1.3477-0.10034 0.67386-1.7057 0.67386 1.7057 0.67385-1.505 0.67386 3.2107 0.67386-0.903 1.3477 0.301 0.67385-2.9097 0.67386-2.5083 0.67386-0.80267 0.67386 1.0033 0.67386-0.50167 1.3477-0.40133 0.67386 2.107 0.67386-1.505 0.67386 2.6087 0.67385 0.70234 0.67386-0.40134 1.3477-0.40133 0.67386 0.70233h0.67385l0.67386 1.3043 0.67386-1.0033 0.67386 2.0067 1.3477-0.301 0.67386 2.6087 0.67386-0.602 0.67386-1.0033 0.67385-2.709 0.67386-0.903 1.3477-0.40133 0.67386 1.0033 0.67385 0.40134 0.67386 1.7057 0.67386-1.9063 0.67386-0.10033 1.3477-0.301 0.67386 1.0033 0.67386-2.709 0.67386-2.408 0.67386 0.10033 0.67385-0.20066 1.3477 0.40133 0.67386-0.50167 0.67386-3.2107h0.67385l0.67386-0.10034 0.67386-1.806 1.3477-0.10033 0.67385 0.70233 0.67386-1.806 0.67386-0.602 0.67386-0.50166 0.67385 2.3077 1.3477-0.10033 0.67386-0.301 0.67386-2.709 0.67385 0.50167 0.67386-1.1037 0.67386 2.6087 1.3477-0.301 0.67385-1.0033 0.67386-1.0033 0.67386-0.20067h0.67386l0.67386 1.9063 1.3477-0.602 0.67386-1.4047 0.67386-2.5083 0.67386-3.311 0.67385 1.204 0.67386-2.2073 1.3477-2.6087 0.67386-0.301 0.67385-1.3043 0.67386 1.3043 0.67386-0.50167 0.67386-2.9097 1.3477-0.40133h0.67386l0.67386 0.40133 0.67386 1.0033 0.67385-12.14 0.67386 0.301 1.3477 0.10034 0.67386-3.2107 0.67385 2.3077 0.67386-1.204 0.67386 0.602 0.67386 2.3077 1.3477-0.40133 0.67386-1.0033 0.67386 1.1037 0.67386-5.6187 0.67386 3.311 0.67385-5.5183 1.3477 0.602 0.67386 0.602 0.67386-0.20066 0.67385-4.0133 0.67386-1.9063 0.67386-4.1137 1.3477-0.70233 0.67385 0.80267 0.67386-3.311 0.67386-0.602 0.67386 2.9097 0.67385-9.632 1.3477-0.301 0.67386 8.9297 0.67386 1.0033 0.67385 4.0133 0.67386-2.709 0.67386-3.913 1.3477 0.70233 0.67385 7.0233 0.67386-5.8193 0.67386 11.037 0.67386-1.6053 0.67386-2.9097 1.3477-0.903 0.67386 3.1103 0.67386-5.117 0.67386-4.1137 0.67385-0.20066 0.67386 1.4047 1.3477 0.40134 0.67386 1.4047 0.67385 2.2073 0.67386-6.321 0.67386-1.3043 0.67386-5.5183 1.3477-1.505 0.67386-1.3043 0.67386 4.1137 0.67386-3.8127 0.67385-7.224 0.67386 5.117 1.3477 0.50166 0.67386-2.6087 0.67385 3.5117 0.67386-2.408 0.67386 2.5083 0.67386 3.01 1.3477-0.301 0.67386-4.4147 0.67386 5.6187 0.67386 1.1037 0.67386-1.0033 0.67385-9.632 1.3477-1.1037 0.67386 4.515 0.67386 2.107 0.67385 2.0067 0.67386-2.6087 0.67386-0.903 1.3477-0.903 0.67386 2.0067 0.67386-5.5183 0.67386-4.816 0.67386 4.515 0.67385-6.1203 1.3477 0.40134 0.67386 1.6053 0.67386 3.8127 0.67385 4.7157 0.67386-2.3077 0.67386 3.311h1.3477l0.67385-1.6053 0.67386 4.7157 0.67386-10.936 0.67386-3.7123 0.67386-3.8127 1.3477-0.301 0.67386 0.40133 0.67386-3.913 0.67386 1.505 0.67385 1.806 0.67386-3.1103 1.3477-0.50167 0.67386-1.1037 0.67385 0.40134 0.67386-4.1137 0.67386 0.40133 0.67386-6.923 1.3477-4.0133 0.67386-0.903 0.67386-3.1103 0.67386-3.612 0.67385-3.311 0.67386 3.5117 1.3477 2.0067 0.67386-2.6087 0.67385-4.4147 0.67386 1.3043 0.67386-11.639 0.67386-4.515 1.3477-0.50166 0.67386 3.1103 0.67386-4.1137 0.67386 4.515 0.67386-18.562 0.67385-12.441 1.3477-6.8227 0.67386 9.2307 0.67386 11.137 0.67385-7.224 0.67386 2.5083 0.67386-2.5083 1.3477 1.6053 0.67386 2.6087 0.67386 10.736 0.67386-10.334 0.67386 10.033 0.67385-12.441 1.3477-0.20067 0.67386 0.80267 0.67386-0.20067 0.67385 1.0033 0.67386 5.3177 0.67386-1.3043 1.3477 0.903 0.67385-3.311 0.67386 4.515 0.67386-1.204 0.67386-2.408 0.67386 1.1037h1.3477l0.67386-3.7123 0.67386 0.602 0.67386 1.7057 0.67385-13.043 0.67386-0.10033 1.3477-2.8093 0.67385 1.9063 0.67386-0.70233 0.67386-7.826 0.67386-4.0133 0.67386-15.652 1.3477 0.10033 0.67386 0.70233 0.67386-13.344 0.67386-13.545 0.67385 7.9263 0.67386-12.542 1.3477-1.3043 0.67386 7.9263 0.67385 2.709 0.67386 23.277 0.67386-17.859 0.67386 14.047 1.3477 0.40133 0.67386 10.234 0.67386-1.7057 0.67386 3.8127 0.67386-7.4247 0.67385 0.40133 1.3477-0.40133 0.67386-4.3143 0.67385-8.8293 0.67386 2.8093 0.67386 10.334 0.67386 7.9263 1.3477 1.806 0.67386-6.321 0.67386-9.2307 0.67386-3.01 0.67386-10.635 0.67385-4.9163 1.3477 0.50167 0.67386-3.7123 0.67386 7.7257 0.67385 2.9097 0.67386 6.4213 0.67386 3.913 1.3477 0.301 0.67385-6.1203 0.67386-0.301 0.67386-0.80267 0.67386 8.729 0.67386 4.0133 1.3477-0.50167 0.67386 1.7057 0.67386 7.826 0.67385 12.341 0.67386 7.4247 0.67386-1.9063 1.3477-1.3043 0.67385-3.1103 0.67386 3.2107 0.67386 13.244 0.67386-6.8227 0.67386-4.9163 1.3477-0.903 0.67386-3.01 0.67386 4.7157 0.67386 11.237 0.67385 4.1137 0.67386 3.2107 1.3477-0.50167 0.67386-10.134 0.67385-13.144 0.67386-4.515 0.67386 1.505 0.67386-7.7257 1.3477-2.2073 0.67386-1.204 0.67386-8.6287 0.67386 2.6087 0.67386 3.7123 0.67385 3.2107 1.3477-2.5083 0.67386-2.5083 0.67385 18.662 0.67386 9.4313 0.67386-2.709 0.67386-10.134 1.3477-0.50167 0.67386 14.749 0.67386-0.50167 0.67386 3.311 0.67386-5.3177 0.67385 0.903 1.3477-4.0133 0.67386 5.117 0.67386-2.9097 0.67385 7.0233 0.67386 1.9063 0.67386-0.602 1.3477 1.4047 0.67385-2.408 0.67386-13.445 0.67386 2.8093 0.67386-0.10034 0.67386-3.01 1.3477-15.853 0.67386 21.371 0.67386-5.0167" fill="none" stroke="#2b908f" stroke-linecap="round" stroke-linejoin="round"/>
  </g>
 </g>
 <rect x="435.76" y="467.33" width="669.05" height="178.61" fill="#3f3f3f"/>
 <g class="highcharts-axis-labels highcharts-yaxis-labels " transform="matrix(1.2494 0 0 1.4078 767.04 390.16)" font-family="'lucida grande', 'lucida sans unicode', arial, helvetica, sans-serif">
  <g transform="matrix(.82416 0 0 .78046 -132.77 15.59)">
   <g class="highcharts-pane-group" transform="matrix(.915 0 0 .915 -187.87 13.142)">
    <path class="highcharts-pane " d="m57.6 165.2a92.4 92.4 0 1 1 184.8 -0.0924l-36.96 0.037a55.44 55.44 0 1 0 -110.88 0.0554z" fill="#eee" stroke="#ccc"/>
   </g>
   <g class="highcharts-grid highcharts-yaxis-grid " transform="matrix(.915 0 0 .915 -187.87 13.142)" fill="none">
    <path class="highcharts-grid-line" d="m150 165.2h-92.4"/>
    <path class="highcharts-grid-line" d="m150 165.2h92.4"/>
   </g>
   <text x="-118.80578" y="180.1409" color="#666666" fill="#c5c5c5" font-family="'lucida grande', 'lucida sans unicode', arial, helvetica, sans-serif" font-size="11px" text-anchor="middle">
    <tspan fill="#c5c5c5">0</tspan>
   </text>
   <text x="18.389141" y="180.1409" color="#666666" fill="#c5c5c5" font-family="'lucida grande', 'lucida sans unicode', arial, helvetica, sans-serif" font-size="11px" text-anchor="middle">
    <tspan fill="#c5c5c5">200</tspan>
   </text>
   <g class="highcharts-series-group" transform="matrix(.91904 0 0 .92019 -188.11 12.468)">
    <g class="highcharts-series highcharts-series-0 highcharts-solidgauge-series highcharts-color-undefined " transform="translate(10,53)" clip-path="url(#highcharts-wwyswwn-12)">
     <path class="highcharts-point" d="m47.6 112a92.4 92.4 0 0 1 179.79 -30.017l-34.955 12.007a55.44 55.44 0 0 0 -107.87 18.01z" fill="#df5552" stroke-linecap="round" stroke-linejoin="round" sweep-flag="0"/>
    </g>
   </g>
   <text x="-52.847679" y="155.48999" color="#666666" fill="#c5c5c5" font-family="'lucida grande', 'lucida sans unicode', arial, helvetica, sans-serif" font-size="11px" text-anchor="middle">
    <tspan fill="#c5c5c5" font-size="18.097px">187</tspan>
   </text>
  </g>
  <g transform="matrix(.82416 0 0 .78046 -114.22 17.693)">
   <g class="highcharts-pane-group" transform="matrix(.915 0 0 .915 13.534 14.201)">
    <path class="highcharts-pane " d="m57.6 165.2a92.4 92.4 0 1 1 184.8 -0.0924l-36.96 0.037a55.44 55.44 0 1 0 -110.88 0.0554z" fill="#eee" stroke="#ccc"/>
   </g>
   <g class="highcharts-grid highcharts-yaxis-grid " transform="matrix(.915 0 0 .915 13.534 14.201)" fill="none">
    <path class="highcharts-grid-line" d="m150 165.2h-92.4"/>
    <path class="highcharts-grid-line" d="m150 165.2h92.4"/>
   </g>
   <g class="highcharts-series-group" transform="matrix(.915 0 0 .915 13.534 14.201)">
    <g class="highcharts-series highcharts-series-0 highcharts-solidgauge-series highcharts-color-undefined " transform="translate(10,53)" clip-path="url(#highcharts-wwyswwn-9)">
     <path class="highcharts-point" d="m47.6 112a92.4 92.4 0 0 1 83.612 -91.981l3.515 36.792a55.44 55.44 0 0 0 -50.167 55.189z" fill="#d3dd10" stroke-linecap="round" stroke-linejoin="round" sweep-flag="0"/>
    </g>
   </g>
   <g fill="#c5c5c5" font-size="11px" text-anchor="middle">
    <text x="82.599998" y="181.2" color="#666666">
     <tspan fill="#c5c5c5">0</tspan>
    </text>
    <text x="219.79492" y="181.2" color="#666666">
     <tspan fill="#c5c5c5">200</tspan>
    </text>
    <text x="151.77921" y="157.99313" color="#666666" font-family="'lucida grande', 'lucida sans unicode', arial, helvetica, sans-serif">
     <tspan fill="#c5c5c5" font-size="18.097px">93.5</tspan>
    </text>
   </g>
  </g>
  <g class="highcharts-series-group" transform="matrix(-.75379 0 0 .71817 -55.616 115.29)"></g>
  <g transform="translate(353.79 -85.243)">
   <g class="highcharts-pane-group" transform="matrix(.7541 0 0 .71411 -281.82 115.85)">
    <path class="highcharts-pane " d="m57.6 165.2a92.4 92.4 0 1 1 184.8 -0.0924l-36.96 0.037a55.44 55.44 0 1 0 -110.88 0.0554z" fill="#eee" stroke="#ccc"/>
   </g>
   <g class="highcharts-grid highcharts-yaxis-grid " transform="matrix(.7541 0 0 .71411 -281.82 115.85)" fill="none">
    <path class="highcharts-grid-line" d="m150 165.2h-92.4"/>
    <path class="highcharts-grid-line" d="m150 165.2h92.4"/>
   </g>
   <g>
    <text transform="scale(1.0276 .97312)" x="-218.85141" y="252.98663" color="#666666" fill="#c5c5c5" font-family="'lucida grande', 'lucida sans unicode', arial, helvetica, sans-serif" font-size="8.8221px" stroke-width=".80201" text-anchor="middle">
     <tspan fill="#c5c5c5" stroke-width=".80201">0</tspan>
    </text>
    <text transform="scale(1.0276 .97312)" x="-108.81978" y="252.98663" color="#666666" fill="#c5c5c5" font-family="'lucida grande', 'lucida sans unicode', arial, helvetica, sans-serif" font-size="8.8221px" stroke-width=".80201" text-anchor="middle">
     <tspan fill="#c5c5c5" stroke-width=".80201">200</tspan>
    </text>
    <g class="highcharts-series highcharts-series-0 highcharts-solidgauge-series highcharts-color-undefined " transform="matrix(-.75379 0 0 .71817 -63.154 153.35)" clip-path="url(#highcharts-wwyswwn-12-2)" fill="#49b3ff">
     <path class="highcharts-point" d="m47.6 112a92.4 92.4 0 0 1 179.79 -30.017l-34.955 12.007a55.44 55.44 0 0 0 -107.87 18.01z" fill="#49b3ff" stroke-linecap="round" stroke-linejoin="round" sweep-flag="0"/>
    </g>
    <text transform="scale(1.0276 .97312)" x="-165.95239" y="233.21637" color="#666666" fill="#c5c5c5" font-family="'lucida grande', 'lucida sans unicode', arial, helvetica, sans-serif" font-size="8.8221px" stroke-width=".80201" text-anchor="middle">
     <tspan fill="#c5c5c5" font-size="14.514px" stroke-width=".80201">22.3</tspan>
    </text>
   </g>
  </g>
 </g>
 <text x="466.75485" y="180.87292" fill="#929292" font-family="sans-serif" font-size="40.001px" letter-spacing="0px" stroke-width="1px" word-spacing="0px" style="line-height:125%" xml:space="preserve"><tspan x="466.75485" y="180.87292" fill="#929292" stroke-width="1px">ACME INDUSTRIES KPI</tspan></text>
 <text transform="scale(.99466 1.0054)" x="726.19568" y="799.52478" fill="#e1e1e1" font-family="sans-serif" font-size="12.711px" letter-spacing="0px" stroke-width=".31777px" word-spacing="0px" style="line-height:125%" xml:space="preserve"><tspan x="726.19568" y="799.52478" fill="#e1e1e1" stroke-width=".31777px">F </tspan></text>
 <path d="m397.06 1123.7c-23.739-6.4874-55.534-20.051-60.723-42.757-14.108-165.5 614.97-623.92 823.38-1073.4 24.866 6.1795 52.788 26.543 56.363 51.393-0.6922 165.26 0.6791 835.38-6.2222 1020.5-1.625 43.591-50.052 46.369-54.8 50.331-10.808 2.803-747.71-3.2403-758-6.0531zm714.1-996.81c-884.25 1009.4-442.13 504.7 0 0z" fill-opacity=".13312"/>
 <path d="m398.44 1122.2c-23.739-6.4873-55.534-20.051-60.723-42.757-0.9941-4.3497-1.4011-381.45-1.3682-645.44 0.048-386.26-0.0123-381.16 4.6556-392.92 2.111-5.3197 9.6236-15.959 14.54-20.592 10.533-9.9247 17.248-13.262 33.94-16.871 10.059-2.1745 762.89 0.22936 771.61 2.3964 24.866 6.1795 52.788 26.543 56.363 51.393-0.6922 165.26 0.6791 835.38-6.2222 1020.5-1.625 43.591-50.052 46.369-54.8 50.331-10.808 2.8031-747.71-3.2404-758-6.0532zm714.1-996.81c-248.86-4.1821-430.04-1e-5 -678.93-1e-5 -0.88349 332.2-2.9338 549.87-1.7178 864.26 204.64 2.2906 420.17-0.8043 680.65 0.98447 4.7025-291.14 0-572.12 0-865.24z" fill="url(#linearGradient24905)"/>
 <path d="m38.277 417.81h342.82v624.55h-342.82z" fill="#333"/>
 <g transform="matrix(.76128 0 0 .75603 -60.766 116.96)">
  <g class="highcharts-series-group" transform="translate(24.946 722.72)">
   <g class="highcharts-series highcharts-series-0 highcharts-areaspline-series highcharts-color-0 " transform="translate(69,49)" clip-path="url(#highcharts-vv151wj-9)">
    <path class="highcharts-area" d="m37.214 252s44.657-21 74.429-21c29.771 0 44.657 21 74.429 21s44.657-42 74.429-42 44.657 21 74.429 21 44.657-92.4 74.429-126 74.429-42 74.429-42v252h-74.429-74.429-74.429-74.429-74.429-74.429" fill="#2b908f" fill-opacity=".5"/>
    <path class="highcharts-graph" d="m37.214 252s44.657-21 74.429-21c29.771 0 44.657 21 74.429 21s44.657-42 74.429-42 44.657 21 74.429 21 44.657-92.4 74.429-126 74.429-42 74.429-42" fill="none" stroke="#2b908f" stroke-linecap="round" stroke-linejoin="round" stroke-width="2"/>
   </g>
   <g class="highcharts-markers highcharts-series-0 highcharts-areaspline-series highcharts-color-0 " transform="translate(69,49)" fill="#2b908f">
    <path class="highcharts-point highcharts-color-0" d="m41 252a4 4 0 1 1 -2e-6 -4e-3z"/>
    <path class="highcharts-point highcharts-color-0" d="m115 231a4 4 0 1 1 0 -4e-3z"/>
    <path class="highcharts-point highcharts-color-0" d="m190 252a4 4 0 1 1 0 -4e-3z"/>
    <path class="highcharts-point highcharts-color-0" d="m264 210a4 4 0 1 1 0 -4e-3z"/>
    <path class="highcharts-point highcharts-color-0" d="m338 231a4 4 0 1 1 0 -4e-3z"/>
    <path class="highcharts-point highcharts-color-0" d="m413 105a4 4 0 1 1 0 -4e-3z"/>
    <path class="highcharts-point highcharts-color-0" d="m487 63a4 4 0 1 1 0 -4e-3z"/>
   </g>
   <g class="highcharts-series highcharts-series-1 highcharts-areaspline-series highcharts-color-1 " transform="translate(69,49)" clip-path="url(#highcharts-vv151wj-9)">
    <path class="highcharts-area" d="m37.214 294s44.657-29.4 74.429-42c29.771-12.6 44.657-21 74.429-21s44.657 21 74.429 21h74.429c29.771 0 44.657-42 74.429-42s74.429 21 74.429 21v84h-74.429-74.429-74.429-74.429-74.429-74.429" fill="#90ee7e" fill-opacity=".5"/>
    <path class="highcharts-graph" d="m37.214 294s44.657-29.4 74.429-42c29.771-12.6 44.657-21 74.429-21s44.657 21 74.429 21h74.429c29.771 0 44.657-42 74.429-42s74.429 21 74.429 21" fill="none" stroke="#90ee7e" stroke-linecap="round" stroke-linejoin="round" stroke-width="2"/>
   </g>
   <g class="highcharts-markers highcharts-series-1 highcharts-areaspline-series highcharts-color-1 " transform="translate(69,49)" fill="#90ee7e">
    <path class="highcharts-point highcharts-color-1" d="m37 290 4 4-4 4-4-4z"/>
    <path class="highcharts-point highcharts-color-1" d="m111 248 4 4-4 4-4-4z"/>
    <path class="highcharts-point highcharts-color-1" d="m186 227 4 4-4 4-4-4z"/>
    <path class="highcharts-point highcharts-color-1" d="m260 248 4 4-4 4-4-4z"/>
    <path class="highcharts-point highcharts-color-1" d="m334 248 4 4-4 4-4-4z"/>
    <path class="highcharts-point highcharts-color-1" d="m409 206 4 4-4 4-4-4z"/>
    <path class="highcharts-point highcharts-color-1" d="m483 227 4 4-4 4-4-4z"/>
   </g>
  </g>
 </g>
 <g transform="matrix(.79851 0 0 .76717 50.575 470.09)">
  <g class="highcharts-pane-group" fill-opacity=".3">
   <path class="highcharts-pane " d="m200 58.04a159.46 159.46 0 1 1 -0.15946 8e-5m0.0342 34.17a125.29 125.29 0 1 0 0.12526 -6.3e-5" fill="#f62366"/>
   <path class="highcharts-pane " d="m200 93.634a123.87 123.87 0 1 1 -0.12387 6.2e-5m0.0342 34.17a89.696 89.696 0 1 0 0.0897 -4e-5" fill="#9dff02"/>
   <path class="highcharts-pane " d="m200 129.23a88.272 88.272 0 1 1 -0.0883 4e-5m0.0342 34.17a54.102 54.102 0 1 0 0.0541 -3e-5" fill="#0ccdd6"/>
  </g>
  <g class="highcharts-axis highcharts-yaxis ">
   <path class="highcharts-axis-line" d="m200 75.125a142.38 142.38 0 1 1 -0.14237 7.1e-5m0.14237 142.37" fill="none"/>
  </g>
  <g class="highcharts-series-group">
   <g class="highcharts-series highcharts-series-0 highcharts-solidgauge-series highcharts-color-undefined " transform="translate(10,50)" clip-path="url(#highcharts-3b4w7cp-8)">
    <path class="highcharts-point" d="m190 8.54a159.46 159.46 0 1 1 -151.7 110.34 17.085 17.085 0 1 1 32.508 10.527 125.29 125.29 0 1 0 119.2 -86.692 17.085 17.085 0 1 1 0 -34.17z" fill="#f62366" stroke-linecap="round" stroke-linejoin="round" sweep-flag="0"/>
   </g>
   <g class="highcharts-series highcharts-series-1 highcharts-solidgauge-series highcharts-color-undefined " transform="translate(10,50)" clip-path="url(#highcharts-3b4w7cp-8)">
    <path class="highcharts-point" d="m190 44.134a123.87 123.87 0 1 1 -100.14 196.77 17.085 17.085 0 1 1 27.624 -20.112 89.696 89.696 0 1 0 72.513 -142.49 17.085 17.085 0 1 1 0 -34.17z" fill="#9dff02" stroke-linecap="round" stroke-linejoin="round" sweep-flag="0"/>
   </g>
   <g class="highcharts-series highcharts-series-2 highcharts-solidgauge-series highcharts-color-undefined " transform="translate(10,50)" clip-path="url(#highcharts-3b4w7cp-8)" stroke-linecap="round" stroke-linejoin="round">
    <path class="highcharts-point" d="m190 79.728a88.272 88.272 0 1 1 0.0883 176.54 17.085 17.085 0 1 1 -0.0342 -34.17 54.102 54.102 0 1 0 -0.0541 -108.2 17.085 17.085 0 1 1 0 -34.17z" fill="#0ccdd6" sweep-flag="0"/>
    <g fill="none" stroke-width="2">
     <path transform="translate(190,26)" d="m-8 0h16m-8-8 8 8-8 8" stroke="#303030"/>
     <path transform="translate(190,61)" d="m-8 0h16m-8-8 8 8-8 8m8-16 8 8-8 8" stroke="#fff"/>
     <path transform="translate(190,96)" d="m0 8v-16m-8 8 8-8 8 8" stroke="#303030"/>
    </g>
   </g>
  </g>
 </g>
 <rect x="38.277" y="939.21" width="340.49" height="103.15" fill="#a2dea6"/>
 <g fill="#676767" font-family="sans-serif" font-size="25.446px" letter-spacing="0px" stroke-width=".63614px" word-spacing="0px">
  <text x="57.220161" y="1021.9065" style="line-height:125%" xml:space="preserve"><tspan x="57.220161" y="1021.9065" fill="#676767" stroke-width=".63614px">321.12</tspan></text>
  <text x="274.78217" y="1022.6687" style="line-height:125%" xml:space="preserve"><tspan x="274.78217" y="1022.6687" fill="#676767" stroke-width=".63614px">297.03</tspan></text>
  <text x="173.31966" y="1021.8941" style="line-height:125%" xml:space="preserve"><tspan x="173.31966" y="1021.8941" fill="#676767" stroke-width=".63614px">56.11</tspan></text>
 </g>
 <g fill="none" stroke="#2b908f" stroke-linecap="round" stroke-linejoin="round">
  <path class="highcharts-graph" d="m249.45 988.36-1.6342 2.0753-1.6342-1.4824-3.2684 0.49412-1.6342 0.69177-1.6342 1.3835-1.6342-5.4353-1.6342-4.2494-1.6342-5.633-3.2684-0.88942-1.6342 0.69175-1.6342-2.0753-1.6342-4.0518-1.6342 1.3835-1.6342-1.5812h-3.2684l-1.6342 3.2612-1.6342-5.04-1.6342 1.7788-1.6342-5.633-1.6342-4.8424-3.2684-1.0871-1.6342 3.36-1.6342-5.3365-1.6342 11.76-1.6342 6.9177-1.6342-1.68-3.2684-0.3953-1.6342 0.0989-1.6342 5.633-1.6342-2.0753-1.6342-0.88942-1.6342 1.8776-3.2683 0.98825-1.6342 1.4824-1.6342 2.1742-1.6342-1.2847-1.6342 4.3483-1.6342 0.0988" stroke-width="3.1467"/>
  <path class="highcharts-graph" d="m60.089 971.31 1.4776 4.6265 1.4776 0.29531 1.4776 0.68905 1.4775 8.7608 1.4776-1.2796 2.9552-1.1812 1.4776 3.0515 1.4775 3.2484 1.4776 1.1812 1.4776 2.0671 1.4776-1.4765 2.9551 0.49217 1.4776 0.68906 1.4776 1.3781 1.4776-5.414 1.4775-4.2327 1.4776-5.6108 2.9552-0.88592 1.4776 0.68903 1.4775-2.0671 1.4776-4.0359 1.4776 1.3781 1.4776-1.575h2.9551l1.4776 3.2484 1.4776-5.0202 1.4776 1.7718 1.4776-5.6108 1.4775-4.8234 2.9552-1.0828 1.4776 3.3468 1.4776-5.3155 1.4775 11.714 1.4776 6.8905 1.4776-1.6734 2.9552-0.39374 1.4775 0.0985 1.4776 5.6108 1.4776-2.0671 1.4776-0.88593 1.4776 1.8703 2.9551 0.98436 1.4776 1.4765 1.4776 2.1656 1.4776-1.2797 1.4776 4.3312 1.4776 0.0984" stroke-width="2.9862"/>
  <path class="highcharts-graph" d="m282.72 985.55 2.2844-4.992 2.2844-0.31865 2.2844-0.74348 2.2843-9.4529 2.2844 1.3808 4.5687 1.2746 2.2844-3.2926 2.2843-3.505 2.2844-1.2745 2.2844-2.2304 2.2844 1.5932 4.5687-0.53106 2.2844-0.74349 2.2844-1.487 2.2844 5.8417 2.2844 4.5671 2.2843 6.0541 4.5687 0.9559 2.2844-0.74348 2.2844 2.2304 2.2843 4.3547 2.2844-1.487 2.2844 1.6994h4.5687l2.2843-3.505 2.2844 5.4168 2.2844-1.9118 2.2844 6.0541" stroke-width="3.8569"/>
 </g>
 <g fill="#676767" font-family="sans-serif" font-size="25.446px" letter-spacing="0px" stroke-width=".63614px" word-spacing="0px">
  <text x="56.771065" y="460.50729" style="line-height:125%" xml:space="preserve"><tspan x="56.771065" y="460.50729" fill="#676767" stroke-width=".63614px">ABC</tspan></text>
  <text x="280.33325" y="461.26953" style="line-height:125%" xml:space="preserve"><tspan x="280.33325" y="461.26953" fill="#676767" stroke-width=".63614px">+/- 63</tspan></text>
  <text x="130.86891" y="460.49509" style="line-height:125%" xml:space="preserve"><tspan x="130.86891" y="460.49509" fill="#676767" stroke-width=".63614px">DEF</tspan></text>
 </g>
 <path d="m55.839 1175c-24.104-6.5561-41.973-24.504-47.242-47.451 267.65-215.55 236.81-185.09 414.55-382.82 0.0288 410.76 0.55004 382.82-7.4305 398.33-7.5306 14.639-24.559 27.167-43.61 32.084-10.975 2.8328-305.82 2.6971-316.27-0.1456z" fill-opacity=".19805" stroke-width="1.3334"/>
 <g transform="matrix(1 0 0 1 172.06 -248)" stroke="#404040">
  <path d="m-116.21 1423c-24.103-6.5558-41.972-24.503-47.241-47.449-1.0094-4.3958-1.4226-119.22-1.3892-386 0.0488-390.34-0.0125-385.19 4.7272-397.08 2.1434-5.3759 9.7715-16.127 14.764-20.809 10.695-10.03 17.513-13.402 34.462-17.049 10.214-2.1975 303.15-2.3121 312-0.12215 25.248 6.2448 44.989 27.68 48.619 52.794 0.85636 5.9243 1.3373 142.81 1.3544 385.46 0.0288 410.75 0.55002 382.81-7.4302 398.32-7.5303 14.638-24.558 27.166-43.608 32.083-10.974 2.8327-305.81 2.697-316.26-0.1456zm323.99-447.19v-310h-340l-0.34172 308.67c-0.18795 169.77-0.0559 309.42 0.29344 310.34 0.5055 1.3305 35.278 1.6027 170.34 1.3334l169.71-0.3385z" stroke-width="1.3333"/>
  <path d="m69.229 1361.9a27.135 27.91 0 0 1 -27.135 27.91 27.135 27.91 0 0 1 -27.135 -27.91 27.135 27.91 0 0 1 27.135 -27.91 27.135 27.91 0 0 1 27.135 27.91z" fill="#393939" stroke-width=".91429"/>
  <g>
   <path d="m33.566 1353.1h18.286v18.286h-18.286z" fill="none" stroke-linejoin="round" stroke-width="3.84"/>
   <path d="m-132.23 665.79 0.79114 621.42 339.21-1.4184v-620" fill="none" stroke-width="2.8"/>
   <path transform="matrix(1 0 .011169 .99994 0 0)" d="m-3.8704 634.85h75.839v7.418h-75.839z" fill="#5d5d5d" stroke-linejoin="round" stroke-width="4.9809"/>
  </g>
  <path d="m49.246 610.66a5.9357 6.1053 0 0 1 -5.9357 6.1053 5.9357 6.1053 0 0 1 -5.9357 -6.1053 5.9357 6.1053 0 0 1 5.9357 -6.1053 5.9357 6.1053 0 0 1 5.9357 6.1053z" fill="#393939" stroke-width=".2"/>
 </g>
</svg>
