<svg class="highcharts-root" style="font-family:&quot;IBM Plex Sans&quot;,sans-serif;font-size:12px" xmlns="http://www.w3.org/2000/svg" width="600" height="400" aria-label="Interactive chart" aria-hidden="false"><rect fill="#f0f0f0" class="highcharts-background" width="600" height="400" rx="0" ry="0" aria-hidden="true"/><path d="m188.908 211.259 338.296 34.728L510.422 258l-347.685-37.231Zm338.508 35.321-17.012 12.206.018-.786 16.782-12.013Zm-17.012 12.206-348.262-37.382.595-.635L510.422 258Z" class="highcharts-3d-frame highcharts-3d-frame-bottom" data-z-index="-1000" aria-hidden="true" fill="none"/><g stroke-linejoin="round" class="highcharts-3d-frame highcharts-3d-frame-left" data-z-index="-1000" aria-hidden="true" fill="none"><path d="m186.097 79.847.237.106-26.726 5.227-.622-.036Zm.237.106 2.574 131.306-26.17 9.51-3.13-135.589Z"/><path d="m162.142 221.404-3.156-136.26.622.036 3.13 135.589Z"/></g><g stroke-linejoin="round" class="highcharts-3d-frame highcharts-3d-frame-back" data-z-index="-1000" aria-hidden="true" fill="none"><path d="M186.097 79.847 531.13 98.98l-.234.091-344.563-19.118ZM531.13 98.98l-3.714 147.6-.212-.593 3.693-146.916Z"/><path d="M186.334 79.953 530.897 99.07l-3.693 146.916-338.296-34.728Z"/></g><path fill="none" class="highcharts-plot-background" aria-hidden="true" d="M85 68h505v190H85z"/><g class="highcharts-grid highcharts-xaxis-grid" data-z-index="1" aria-hidden="true" fill="none" stroke="#ccc"><path data-z-index="1" class="highcharts-grid-line" d="m211.756 81.363 2.16 132.463m-25.573 9.685 25.573-9.685m24.046-131.009 1.726 133.655m-24.941 9.866 24.941-9.866m24.975-132.173 1.274 134.867m-24.28 10.054 24.28-10.054m25.935-133.357.806 136.102m-23.59 10.246 23.59-10.246m26.927-134.563.319 137.36m-22.87 10.444 22.87-10.444m27.952-135.792-.187 138.643m-22.115 10.647 22.115-10.647m29.706-137.005-.725 139.98m-21.308 10.862 21.308-10.862m30.135-138.348-1.271 141.31m-20.484 11.079 20.484-11.079m31.27-139.646-1.84 142.668m-19.622 11.3 19.622-11.3M467.41 95.549l-2.432 144.05m-18.72 11.53 18.72-11.53M498.64 97.282l-3.047 145.46m-17.778 11.766 17.778-11.766M531.28 99.093l-3.7 146.932m-16.77 12.017 16.77-12.017M186.031 79.936l2.579 131.292m-26.178 9.508 26.178-9.508"/></g><g class="highcharts-grid highcharts-yaxis-grid" data-z-index="1" aria-hidden="true" fill="none" stroke="#ccc"><path data-z-index="1" class="highcharts-grid-line" d="m188.915 211.598 338.28 34.768m-364.45-25.247 26.17-9.52m-.844-43.037 340.332 29.72M161.72 176.697l26.351-8.135m-.867-44.222 342.443 24.464m-368.981-17.771 26.538-6.693m-.876-44.739 344.579 19.076m-371.308-13.86 26.729-5.216"/></g><path fill="none" class="highcharts-plot-border" data-z-index="1" aria-hidden="true" d="M85 68h505v190H85z"/><g class="highcharts-axis highcharts-yaxis" data-z-index="2" aria-hidden="true"><path fill="none" class="highcharts-tick" stroke="#ccc" d="M162.745 221.12h-7.172m6.147-44.423h-7.215m6.161-45.664h-7.258m6.192-46.216h-7.303"/><text x="117.025" data-z-index="7" text-anchor="middle" transform="rotate(-90 117.025 153.576)" class="highcharts-axis-title" style="color:#2f2b38;font-weight:300;fill:#2f2b38" y="153.576">NOK (million)</text></g><g class="highcharts-series-group" data-z-index="3" aria-hidden="false"><g class="highcharts-markers highcharts-series-0 highcharts-column-series highcharts-color-0 highcharts-tracker" data-z-index="10" aria-hidden="false" stroke-linejoin="round" stroke="#8087E8"><g data-z-index="10600095" class="highcharts-point highcharts-color-0" tabindex="-1" aria-label="Belgium, 16,076 MNOK. Total imports." style="outline:0"><path fill="#8087E8" d="m169.563 221.668 12.953 1.388-.29-14.135-12.975-1.324Z" class="highcharts-3d-front" data-z-index="0"/><path fill="#99A0FF" d="m182.227 208.921 9.393-3.357-12.867-1.293-9.502 3.326Z" class="highcharts-3d-top" data-z-index="0"/><path fill="#676ECF" d="m182.227 208.921.29 14.135 9.371-3.518-.268-13.974Z" class="highcharts-3d-side" data-z-index="0"/></g><g data-z-index="52601325" class="highcharts-point highcharts-color-0" tabindex="-1" aria-label="China, 112,688 MNOK. Total imports." style="outline:0"><path fill="#8087E8" d="m195.592 224.457 13.2 1.414-1.756-103.18-13.37-.941Z" class="highcharts-3d-front" data-z-index="0"/><path fill="#99A0FF" d="m207.036 122.69 9.29-2.383-13.253-.918-9.407 2.36Z" class="highcharts-3d-top" data-z-index="0"/><path fill="#676ECF" d="m207.036 122.69 1.755 103.181 9.146-3.584-1.61-101.98Z" class="highcharts-3d-side" data-z-index="0"/></g><g data-z-index="94600395" class="highcharts-point highcharts-color-0" tabindex="-1" aria-label="Denmark, 39,452 MNOK. Total imports." style="outline:0"><path fill="#8087E8" d="m222.116 227.299 13.452 1.441-.486-36.09-13.514-1.275Z" class="highcharts-3d-front" data-z-index="0"/><path fill="#99A0FF" d="m235.082 192.65 8.957-3.233-13.393-1.245-9.078 3.203Z" class="highcharts-3d-top" data-z-index="0"/><path fill="#676ECF" d="m235.082 192.65.486 36.09 8.91-3.653-.439-35.67Z" class="highcharts-3d-side" data-z-index="0"/></g><g data-z-index="136599895" class="highcharts-point highcharts-color-0" tabindex="-1" aria-label="Fiji, 0 MNOK. Total imports." style="outline:0"><path fill="#8087E8" d="m249.15 230.195 13.713 1.47-13.713-1.47Z" class="highcharts-3d-front" data-z-index="0"/><path fill="#99A0FF" d="m262.863 231.664 8.662-3.723-13.588-1.433-8.787 3.687Z" class="highcharts-3d-top" data-z-index="0"/><path fill="#8087E8" d="m262.863 231.664 8.662-3.723Z" class="highcharts-3d-side" data-z-index="0"/></g><g data-z-index="178601095" class="highcharts-point highcharts-color-0" tabindex="-1" aria-label="Germany, 94,352 MNOK. Total imports." style="outline:0"><path fill="#8087E8" d="m276.708 233.148 13.981 1.498-.55-88.849-14.142-1.08Z" class="highcharts-3d-front" data-z-index="0"/><path fill="#99A0FF" d="m290.139 145.797 8.507-2.735-14.007-1.053-8.642 2.709Z" class="highcharts-3d-top" data-z-index="0"/><path fill="#676ECF" d="m290.139 145.797.55 88.849 8.403-3.796-.446-87.788Z" class="highcharts-3d-side" data-z-index="0"/></g><g data-z-index="220600285" class="highcharts-point highcharts-color-0" tabindex="-1" aria-label="Netherlands, 30,495 MNOK. Total imports." style="outline:0"><path fill="#8087E8" d="m304.807 236.159 14.256 1.527-.07-28.92-14.31-1.391Z" class="highcharts-3d-front" data-z-index="0"/><path fill="#99A0FF" d="m318.993 208.766 8.164-3.525-14.173-1.356-8.302 3.49Z" class="highcharts-3d-top" data-z-index="0"/><path fill="#676ECF" d="m318.993 208.766.07 28.92 8.133-3.87-.039-28.575Z" class="highcharts-3d-side" data-z-index="0"/></g><g data-z-index="262600175" class="highcharts-point highcharts-color-0" tabindex="-1" aria-label="Russia, 21,813 MNOK. Total imports." style="outline:0"><path fill="#8087E8" d="m333.46 239.229 14.541 1.558.03-20.94-14.581-1.458Z" class="highcharts-3d-front" data-z-index="0"/><path fill="#99A0FF" d="m348.03 219.848 7.872-3.695-14.437-1.422-8.015 3.658Z" class="highcharts-3d-top" data-z-index="0"/><path fill="#676ECF" d="m348.03 219.848-.029 20.939 7.85-3.948.051-20.686Z" class="highcharts-3d-side" data-z-index="0"/></g><g data-z-index="305601105" class="highcharts-point highcharts-color-0" tabindex="-1" aria-label="Sweden, 95,908 MNOK. Total imports." style="outline:0"><path fill="#8087E8" d="m363.39 242.435 14.841 1.59.498-92.237-15.024-1.143Z" class="highcharts-3d-front" data-z-index="0"/><path fill="#99A0FF" d="m378.729 151.788 7.632-2.895-14.87-1.114-7.786 2.866Z" class="highcharts-3d-top" data-z-index="0"/><path fill="#676ECF" d="m378.729 151.788-.498 92.237 7.547-4.028.583-91.104Z" class="highcharts-3d-side" data-z-index="0"/></g><g data-z-index="347600045" class="highcharts-point highcharts-color-0" tabindex="-1" aria-label="Turkey, 11,596 MNOK. Total imports." style="outline:0"><path fill="#8087E8" d="m393.221 245.632 15.143 1.622.107-11.423-15.166-1.567Z" class="highcharts-3d-front" data-z-index="0"/><path fill="#99A0FF" d="m408.471 235.83 7.247-3.969-15.009-1.527-7.404 3.93Z" class="highcharts-3d-top" data-z-index="0"/><path fill="#676ECF" d="m408.471 235.83-.107 11.424 7.237-4.11.117-11.283Z" class="highcharts-3d-side" data-z-index="0"/></g><g data-z-index="389600575" class="highcharts-point highcharts-color-0" tabindex="-1" aria-label="United States, 53,771 MNOK. Total imports." style="outline:0"><path fill="#8087E8" d="m423.66 248.893 15.454 1.656.709-52.58-15.565-1.396Z" class="highcharts-3d-front" data-z-index="0"/><path fill="#99A0FF" d="m439.823 197.97 6.952-3.54-15.398-1.36-7.119 3.503Z" class="highcharts-3d-top" data-z-index="0"/><path fill="#676ECF" d="m439.823 197.97-.709 52.579 6.914-4.194.747-51.924Z" class="highcharts-3d-side" data-z-index="0"/></g><g data-z-index="473599995" class="highcharts-point highcharts-color-0" tabindex="-1" aria-label="Vietnam, 8,270 MNOK. Total imports." style="outline:0"><path fill="#8087E8" d="m486.44 255.62 16.106 1.725.172-7.84-16.123-1.687Z" class="highcharts-3d-front" data-z-index="0"/><path fill="#99A0FF" d="m502.718 249.505 6.224-4.272L493 243.591l-6.404 4.227Z" class="highcharts-3d-top" data-z-index="0"/><path fill="#676ECF" d="m502.718 249.505-.172 7.84 6.22-4.37.176-7.742Z" class="highcharts-3d-side" data-z-index="0"/></g></g></g><text x="300" text-anchor="middle" class="highcharts-title" data-z-index="4" style="color:#2f2b38;font-size:22px;font-weight:500;fill:#2f2b38" y="27" aria-hidden="true">External trade in goods by country, Norway 2021</text><text x="300" text-anchor="middle" class="highcharts-subtitle" data-z-index="4" style="color:#2f2b38;font-size:16px;font-weight:400;fill:#2f2b38" y="52" aria-hidden="true">Source: <a target="_blank"><tspan>SSB</tspan></a></text><g class="highcharts-legend highcharts-no-tooltip" data-z-index="7" transform="translate(247 359)" aria-hidden="true"><rect fill="#f0f0f0" class="highcharts-legend-box" rx="2" ry="2" stroke="#BBBAC5" x=".5" y=".5" width="104" height="25"/><g class="highcharts-legend-item highcharts-column-series highcharts-color-0 highcharts-series-0" data-z-index="1" transform="translate(8 3)"><text x="21" data-z-index="2" y="15" style="color:#2f2b38;cursor:pointer;font-size:12px;font-weight:400;fill:#2f2b38">Total imports</text><rect x="2" y="4" width="12" height="12" fill="#8087E8" rx="6" ry="6" class="highcharts-point" data-z-index="3"/></g></g><g class="highcharts-axis-labels highcharts-xaxis-labels" data-z-index="7" aria-hidden="true" text-anchor="end"><text x="177.844" transform="matrix(.43712 -.46103 .43712 .55897 -3.096 186.114)" style="color:#46465c;cursor:default;font-size:16px;fill:#46465c" y="236.09">Belgium</text><text x="204.1" transform="matrix(.44545 -.46493 .44545 .56474 6.707 198.934)" style="color:#46465c;cursor:default;font-size:16px;fill:#46465c" y="239.032">China</text><text x="230.859" transform="matrix(.45402 -.4689 .45402 .57063 16.159 212.17)" style="color:#46465c;cursor:default;font-size:16px;fill:#46465c" y="242.03">Denmark</text><text x="258.135" transform="matrix(.46284 -.47293 .46284 .57664 25.226 225.84)" style="color:#46465c;cursor:default;font-size:16px;fill:#46465c" y="245.085">Fiji</text><text x="285.943" transform="matrix(.47191 -.47704 .47191 .58277 33.873 239.96)" style="color:#46465c;cursor:default;font-size:16px;fill:#46465c" y="248.201">Germany</text><text x="314.299" transform="matrix(.48126 -.48121 .48126 .58904 42.06 254.55)" style="color:#46465c;cursor:default;font-size:16px;fill:#46465c" y="251.377">Netherlands</text><text x="343.219" transform="matrix(.49089 -.48546 .49089 .59545 49.748 269.625)" style="color:#46465c;cursor:default;font-size:16px;fill:#46465c" y="254.617">Russia</text><text x="372.721" transform="matrix(.5008 -.48978 .5008 .60199 56.89 285.207)" style="color:#46465c;cursor:default;font-size:16px;fill:#46465c" y="257.922">Sweden</text><text x="402.822" transform="matrix(.51103 -.49418 .51103 .60868 63.438 301.315)" style="color:#46465c;cursor:default;font-size:16px;fill:#46465c" y="261.295">Turkey</text><text x="433.54" transform="matrix(.52157 -.49865 .52157 .61552 69.34 317.973)" style="color:#46465c;cursor:default;font-size:16px;fill:#46465c" y="264.736">United States</text><text x="464.896" transform="matrix(.53244 -.5032 .53244 .6225 74.541 335.201)" style="color:#46465c;cursor:default;font-size:16px;fill:#46465c" y="268.249">Unspecified</text><text x="496.908" transform="matrix(.54365 -.50785 .54365 .62966 78.98 353.025)" style="color:#46465c;cursor:default;font-size:16px;fill:#46465c" y="271.835">Vietnam</text></g><g class="highcharts-axis-labels highcharts-yaxis-labels" data-z-index="7" aria-hidden="true" text-anchor="end"><text x="152.063" style="color:#46465c;cursor:default;font-size:12px;fill:#46465c" y="224.273">0</text><text x="150.976" style="color:#46465c;cursor:default;font-size:12px;fill:#46465c" y="179.887">50k</text><text x="149.875" style="color:#46465c;cursor:default;font-size:12px;fill:#46465c" y="134.978">100k</text><text x="148.744" style="color:#46465c;cursor:default;font-size:12px;fill:#46465c" y="88.811">150k</text></g></svg>