<svg class="highcharts-root" style="font-family:&quot;IBM Plex Sans&quot;,sans-serif;font-size:12px" xmlns="http://www.w3.org/2000/svg" width="600" height="400" aria-label="Interactive chart" aria-hidden="false"><rect fill="#f0f0f0" class="highcharts-background" width="600" height="400" rx="0" ry="0" aria-hidden="true"/><path d="M41.824 294.802h516.352l6.95 66.484H34.874Zm523.23 67.094H34.032l.842-.61h530.252Z" class="highcharts-3d-frame highcharts-3d-frame-bottom" data-z-index="-1000" aria-hidden="true" fill="none"/><g stroke-linejoin="round" class="highcharts-3d-frame highcharts-3d-frame-left" data-z-index="-1000" aria-hidden="true" fill="none"><path d="m17.536 82.706.89.646-8.287 66.464h-1Z"/><path d="m18.426 83.352 23.398 211.45-6.95 66.484-24.735-211.47Z"/><path d="M34.032 361.896 9.139 149.816h1l24.735 211.47Z"/></g><path d="M17.536 82.706h563.958l.08.646H18.426Zm.89.646h563.148l-23.398 211.45H41.824Z" class="highcharts-3d-frame highcharts-3d-frame-back" data-z-index="-1000" aria-hidden="true" fill="none"/><path fill="none" class="highcharts-plot-background" aria-hidden="true" d="M10 68h580v317H10z"/><path fill="none" class="highcharts-plot-border" data-z-index="1" aria-hidden="true" d="M10 68h580v317H10z"/><g class="highcharts-series-group" data-z-index="3" aria-hidden="false"><g class="highcharts-series highcharts-series-0 highcharts-pie-series highcharts-tracker" data-z-index=".1" style="cursor:pointer" aria-hidden="false"><path fill="#676ECF" d="M447.323 213.303v18.562L300 245.062V226.5Z" data-z-index="20.164" class="highcharts-point highcharts-color-0"/><path fill="#6E9BCE" d="M158.788 258.992v18.561L300 245.062V226.5Z" data-z-index="39.499" class="highcharts-point highcharts-color-5"/><path fill="#676ECF" d="M299.97 121.495v18.561l.03 105.006V226.5Z" data-z-index="143033.846" class="highcharts-point highcharts-color-0"/><path fill="#8AD4A1" d="M379.61 315.141v18.562L300 245.062V226.5Z" data-z-index="143034.836" class="highcharts-point highcharts-color-1"/><path fill="#676ECF" d="M299.97 121.495c75.445-.011 137.87 38.883 147.353 91.808v18.562c-9.482-52.925-71.908-91.82-147.353-91.809ZM300 226.5v18.562Z" data-z-index="144478.633" class="highcharts-point highcharts-color-0"/><path fill="#6E9BCE" d="M299.94 121.495v18.561l.06 105.006V226.5Z" data-z-index="186653.509" class="highcharts-point highcharts-color-5"/><path fill="#C8BA50" d="M198.32 303.03v18.561L300 245.061V226.5Z" data-z-index="186654.499" class="highcharts-point highcharts-color-4"/><path fill="#6E9BCE" d="M158.788 258.992c-5.083-11.045-7.288-20.877-7.288-32.492v18.562c0-57.979 66.447-104.983 148.44-105.006v-18.561c-81.993.023-148.44 47.027-148.44 105.005v18.562c0 11.614 2.205 21.447 7.288 32.491ZM300 226.5v18.562Z" data-z-index="188538.898" class="highcharts-point highcharts-color-5"/><path fill="#C8BA50" d="M158.788 258.993v18.561L300 245.062V226.5Z" data-z-index="236351.509" class="highcharts-point highcharts-color-4"/><path fill="#4D8088" d="M272.216 329.651v18.562L300 245.062V226.5Z" data-z-index="236352.499" class="highcharts-point highcharts-color-3"/><path fill="#C8BA50" d="M198.32 303.03c-19.101-12.69-31.421-26.414-39.532-44.037v18.561c8.11 17.624 20.43 31.347 39.533 44.037ZM300 226.5v18.562Z" data-z-index="238738.898" class="highcharts-point highcharts-color-4"/><path fill="#8AD4A1" d="M447.323 213.304v18.562L300 245.062V226.5Z" data-z-index="255002.846" class="highcharts-point highcharts-color-1"/><path fill="#D8853A" d="M273.218 336.651v18.562L301 252.062V233.5Z" data-z-index="255003.836" class="highcharts-point highcharts-point-select highcharts-color-2"/><path fill="#8AD4A1" d="M448.5 226.5c0 37.104-24.595 68.75-68.89 88.641v18.562c44.295-19.892 68.89-51.538 68.89-88.641Zm-148.5 0v18.562Z" data-z-index="257578.633" class="highcharts-point highcharts-color-1"/><path fill="#4D8088" d="M198.322 303.03v18.562L300 245.062V226.5Z" data-z-index="292385.509" class="highcharts-point highcharts-color-3"/><path fill="#D8853A" d="M380.61 322.142v18.561L301 252.062V233.5Z" data-z-index="292386.499" class="highcharts-point highcharts-point-select highcharts-color-2"/><path fill="#4D8088" d="M272.216 329.651c-29.03-3.91-52.356-12.313-73.894-26.62v18.561c21.538 14.307 44.865 22.711 73.894 26.62ZM300 226.5v18.562Z" data-z-index="295338.898" class="highcharts-point highcharts-color-3"/><path fill="#D8853A" d="M380.61 322.142c-33.233 14.923-68.72 19.717-107.392 14.51v18.56c38.672 5.209 74.159.414 107.391-14.509ZM301 233.5v18.562Z" data-z-index="295339.898" class="highcharts-point highcharts-point-select highcharts-color-2"/><g data-z-index="31416026.536" stroke="#8087E8" stroke-linejoin="round" tabindex="-1" aria-label="Samsung, 23%. Share." style="outline:0"><path fill="#8087E8" d="M299.97 121.495c75.445-.011 137.87 38.883 147.353 91.808L300 226.5Z" data-z-index="314160.265" class="highcharts-point highcharts-color-0"/></g><g data-z-index="31416026.536" stroke="#A3EDBA" stroke-linejoin="round" tabindex="-1" aria-label="Apple, 18%. Share." style="outline:0"><path fill="#A3EDBA" d="M447.323 213.304c7.42 41.425-17.864 79.452-67.713 101.837L300 226.5Z" data-z-index="314160.265" class="highcharts-point highcharts-color-1"/></g><g data-z-index="31416026.536" stroke="#F19E53" stroke-linejoin="round" tabindex="-1" aria-label="Xiaomi, 12%. Share." style="outline:0"><path fill="#F19E53" d="M380.61 322.142c-33.233 14.923-68.72 19.717-107.392 14.51L301 233.5Z" data-z-index="314160.265" class="highcharts-point highcharts-point-select highcharts-color-2"/></g><g data-z-index="31416026.536" stroke="#6699A1" stroke-linejoin="round" tabindex="-1" aria-label="Oppo*, 9%. Share." style="outline:0"><path fill="#6699A1" d="M272.216 329.651c-29.03-3.91-52.356-12.313-73.894-26.62L300 226.5Z" data-z-index="314160.265" class="highcharts-point highcharts-color-3"/></g><g data-z-index="31416026.536" stroke="#E1D369" stroke-linejoin="round" tabindex="-1" aria-label="Vivo, 8%. Share." style="outline:0"><path fill="#E1D369" d="M198.32 303.03c-19.101-12.69-31.421-26.414-39.532-44.037L300 226.5Z" data-z-index="314160.265" class="highcharts-point highcharts-color-4"/></g><g data-z-index="31416026.536" stroke="#87B4E7" stroke-linejoin="round" tabindex="-1" aria-label="Others, 30%. Share." style="outline:0"><path fill="#87B4E7" d="M158.788 258.992c-25.378-55.147 17.273-114.4 95.262-132.344 15.6-3.59 29.486-5.149 45.89-5.153L300 226.5Z" data-z-index="314160.265" class="highcharts-point highcharts-color-5"/></g></g></g><text x="300" text-anchor="middle" class="highcharts-title" data-z-index="4" style="color:#2f2b38;font-size:22px;font-weight:500;fill:#2f2b38" y="27" aria-hidden="true">Global smartphone shipments market share, Q1 2022</text><text x="300" text-anchor="middle" class="highcharts-subtitle" data-z-index="4" style="color:#2f2b38;font-size:16px;font-weight:400;fill:#2f2b38" y="52" aria-hidden="true">Source: <a target="_blank"><tspan>Counterpoint Research</tspan></a></text><g class="highcharts-data-labels highcharts-series-0 highcharts-pie-series highcharts-tracker" data-z-index="6" aria-hidden="true" style="cursor:pointer"><path fill="none" class="highcharts-data-label-connector highcharts-color-0" stroke="#8087E8" d="M451.998 125.239c-5 0-45.857 13.502-49.825 18.002l-3.968 4.501"/><path fill="none" class="highcharts-data-label-connector highcharts-color-1" stroke="#A3EDBA" d="M473.987 283.995c-5 0-28.762-7.664-34.191-10.219l-5.43-2.554"/><path fill="none" class="highcharts-data-label-connector highcharts-color-2" stroke="#F19E53" d="M424.479 359.116c-5 0-94.404-17.68-95.529-23.574l-1.124-5.894"/><path fill="none" class="highcharts-data-label-connector highcharts-color-3" stroke="#6699A1" d="M163.12 346.79c5 0 64.015-16.038 66.738-21.384l2.724-5.346"/><path fill="none" class="highcharts-data-label-connector highcharts-color-4" stroke="#E1D369" d="M131.814 298.836c5 0 32.671-9.645 37.737-12.86l5.066-3.215"/><path fill="none" class="highcharts-data-label-connector highcharts-color-5" stroke="#87B4E7" d="M135.116 147.131c5 0 35.037 10.58 39.89 14.107l4.855 3.527"/><g style="cursor:pointer"><text x="5" data-z-index="1" y="18" style="color:#46465c;font-size:13px;font-weight:700;fill:#46465c" transform="translate(457 115)" class="highcharts-label highcharts-data-label highcharts-data-label-color-0"><tspan class="highcharts-text-outline" fill="#FFF" stroke="#FFF" stroke-width="2" stroke-linejoin="round">Samsung<tspan x="5" dy="0">​</tspan></tspan>Samsung</text></g><g style="cursor:pointer"><text x="5" data-z-index="1" y="18" style="color:#46465c;font-size:13px;font-weight:700;fill:#46465c" transform="translate(479 274)" class="highcharts-label highcharts-data-label highcharts-data-label-color-1"><tspan class="highcharts-text-outline" fill="#FFF" stroke="#FFF" stroke-width="2" stroke-linejoin="round">Apple<tspan x="5" dy="0">​</tspan></tspan>Apple</text></g><g style="cursor:pointer"><text x="5" data-z-index="1" y="18" style="color:#46465c;font-size:13px;font-weight:700;fill:#46465c" transform="translate(429 349)" class="highcharts-label highcharts-data-label highcharts-data-label-color-2"><tspan class="highcharts-text-outline" fill="#FFF" stroke="#FFF" stroke-width="2" stroke-linejoin="round">Xiaomi<tspan x="5" dy="0">​</tspan></tspan>Xiaomi</text></g><g style="cursor:pointer"><text x="5" data-z-index="1" y="18" style="color:#46465c;font-size:13px;font-weight:700;fill:#46465c" transform="translate(109 337)" class="highcharts-label highcharts-data-label highcharts-data-label-color-3"><tspan class="highcharts-text-outline" fill="#FFF" stroke="#FFF" stroke-width="2" stroke-linejoin="round">Oppo*<tspan x="5" dy="0">​</tspan></tspan>Oppo*</text></g><g style="cursor:pointer"><text x="5" data-z-index="1" y="18" style="color:#46465c;font-size:13px;font-weight:700;fill:#46465c" transform="translate(90 289)" class="highcharts-label highcharts-data-label highcharts-data-label-color-4"><tspan class="highcharts-text-outline" fill="#FFF" stroke="#FFF" stroke-width="2" stroke-linejoin="round">Vivo<tspan x="5" dy="0">​</tspan></tspan>Vivo</text></g><g style="cursor:pointer"><text x="5" data-z-index="1" y="18" style="color:#46465c;font-size:13px;font-weight:700;fill:#46465c" transform="translate(78 137)" class="highcharts-label highcharts-data-label highcharts-data-label-color-5"><tspan class="highcharts-text-outline" fill="#FFF" stroke="#FFF" stroke-width="2" stroke-linejoin="round">Others<tspan x="5" dy="0">​</tspan></tspan>Others</text></g></g></svg>