<svg class="highcharts-root" style="font-family:&quot;IBM Plex Sans&quot;,sans-serif;font-size:12px" xmlns="http://www.w3.org/2000/svg" width="600" height="400" aria-label="Interactive chart" aria-hidden="false"><defs aria-hidden="true"><clipPath id="a"><path fill="none" d="M0 0h522v296H0z"/></clipPath></defs><rect fill="#f0f0f0" class="highcharts-background" width="600" height="400" rx="0" ry="0" aria-hidden="true"/><path fill="none" class="highcharts-plot-background" aria-hidden="true" d="M68 68h522v296H68z"/><g class="highcharts-plot-bands-0" data-z-index="0" aria-hidden="true"><path fill="rgba(68, 170, 213, .2)" class="highcharts-plot-band" d="M558.5 68v296h26V68Z"/></g><g class="highcharts-grid highcharts-xaxis-grid" data-z-index="1" aria-hidden="true" fill="none"><path data-z-index="1" class="highcharts-grid-line" d="M72.5 68v296m128-296v296m128-296v296m128-296v296m128-296v296"/></g><g class="highcharts-grid highcharts-yaxis-grid" data-z-index="1" aria-hidden="true" fill="none" stroke="#ccc"><path data-z-index="1" class="highcharts-grid-line" d="M68 364.5h522m-522-49h522m-522-50h522m-522-49h522m-522-49h522m-522-50h522m-522-50h522"/></g><path fill="none" class="highcharts-plot-border" data-z-index="1" aria-hidden="true" d="M68 68h522v296H68z"/><g class="highcharts-axis highcharts-xaxis" data-z-index="2" aria-hidden="true" fill="none" stroke="#ccc"><path class="highcharts-tick" d="M72.5 364v10m128-10v10m128-10v10m128-10v10m128-10v10"/><path class="highcharts-axis-line" data-z-index="7" d="M68 364.5h522"/></g><g class="highcharts-axis highcharts-yaxis" data-z-index="2" aria-hidden="true"><path fill="none" class="highcharts-tick" stroke="#ccc" d="M68 364.5H58m10-49H58m10-50H58m10-49H58m10-49H58m10-50H58m10-50H58"/><text x="23.648" data-z-index="7" text-anchor="middle" transform="rotate(-90 23.648 216)" class="highcharts-axis-title" style="color:#2f2b38;font-weight:300;fill:#2f2b38" y="216">Quantity</text><path fill="none" class="highcharts-axis-line" data-z-index="7" d="M68 68v296"/></g><g class="highcharts-series-group" data-z-index="3" aria-hidden="false"><g class="highcharts-series highcharts-series-0 highcharts-areaspline-series highcharts-color-0" data-z-index=".1" clip-path="url(#a)" aria-hidden="true" transform="translate(68 68)"><path fill="rgba(128,135,232,0.5)" d="M5.118 108.533s15.353 3.454 25.588 3.454c10.235 0 15.353-1.674 25.588-2.92 10.235-1.248 15.353-3.316 25.588-3.316 10.236 0 15.353 6.346 25.589 8.85 10.235 2.504 15.353 1.903 25.588 3.67 10.235 1.769 15.353 5.17 25.588 5.17 10.235 0 15.353-3.349 25.588-3.349 10.236 0 15.353.183 25.589.183 10.235 0 15.352-.953 25.588-1.732 10.235-.778 15.353-2.032 25.588-2.16 10.235-.129 15.353-.129 25.588-.129 10.236 0 15.353 8.84 25.588 8.84 10.236 0 15.353-1.544 25.589-1.544 10.235 0 15.353 4.9 25.588 8.668 10.235 3.77 15.353 8.693 25.588 10.178 10.235 1.485 15.353 1.485 25.588 1.485 10.236 0 15.353-3.829 25.589-3.829 10.235 0 15.353 3.388 25.588 4.662 10.235 1.275 15.353 1.712 25.588 1.712 10.235 0 25.588-7.138 25.588-7.138V296H5.118Z" class="highcharts-area" data-z-index="0"/><path fill="none" d="M5.118 108.533s15.353 3.454 25.588 3.454c10.235 0 15.353-1.674 25.588-2.92 10.235-1.248 15.353-3.316 25.588-3.316 10.236 0 15.353 6.346 25.589 8.85 10.235 2.504 15.353 1.903 25.588 3.67 10.235 1.769 15.353 5.17 25.588 5.17 10.235 0 15.353-3.349 25.588-3.349 10.236 0 15.353.183 25.589.183 10.235 0 15.352-.953 25.588-1.732 10.235-.778 15.353-2.032 25.588-2.16 10.235-.129 15.353-.129 25.588-.129 10.236 0 15.353 8.84 25.588 8.84 10.236 0 15.353-1.544 25.589-1.544 10.235 0 15.353 4.9 25.588 8.668 10.235 3.77 15.353 8.693 25.588 10.178 10.235 1.485 15.353 1.485 25.588 1.485 10.236 0 15.353-3.829 25.589-3.829 10.235 0 15.353 3.388 25.588 4.662 10.235 1.275 15.353 1.712 25.588 1.712 10.235 0 25.588-7.138 25.588-7.138" class="highcharts-graph" data-z-index="1" stroke="#8087E8" stroke-width="2" stroke-linejoin="round" stroke-linecap="round"/><path fill="none" d="M5.118 108.533s15.353 3.454 25.588 3.454c10.235 0 15.353-1.674 25.588-2.92 10.235-1.248 15.353-3.316 25.588-3.316 10.236 0 15.353 6.346 25.589 8.85 10.235 2.504 15.353 1.903 25.588 3.67 10.235 1.769 15.353 5.17 25.588 5.17 10.235 0 15.353-3.349 25.588-3.349 10.236 0 15.353.183 25.589.183 10.235 0 15.352-.953 25.588-1.732 10.235-.778 15.353-2.032 25.588-2.16 10.235-.129 15.353-.129 25.588-.129 10.236 0 15.353 8.84 25.588 8.84 10.236 0 15.353-1.544 25.589-1.544 10.235 0 15.353 4.9 25.588 8.668 10.235 3.77 15.353 8.693 25.588 10.178 10.235 1.485 15.353 1.485 25.588 1.485 10.236 0 15.353-3.829 25.589-3.829 10.235 0 15.353 3.388 25.588 4.662 10.235 1.275 15.353 1.712 25.588 1.712 10.235 0 25.588-7.138 25.588-7.138" data-z-index="2" class="highcharts-tracker-line" stroke-linecap="round" stroke-linejoin="round" stroke="rgba(192,192,192,0.0001)" stroke-width="22"/></g><g class="highcharts-markers highcharts-series-0 highcharts-areaspline-series highcharts-color-0 highcharts-tracker" data-z-index=".1" aria-hidden="false" tabindex="-1" aria-label="Moose, series 1 of 2 with 21 data points." style="outline:0" fill="#8087E8"><path d="M5 113a4 4 0 1 1 .004 0Z" class="highcharts-point highcharts-color-0" tabindex="-1" aria-label="x, 2000, 38,000. Moose." style="outline:0" transform="translate(68 68)"/><path d="M30 116a4 4 0 1 1 .004 0Z" class="highcharts-point highcharts-color-0" tabindex="-1" aria-label="x, 2001, 37,300. Moose." style="outline:0" transform="translate(68 68)"/><path d="M56 113a4 4 0 1 1 .004 0Z" class="highcharts-point highcharts-color-0" tabindex="-1" aria-label="x, 2002, 37,892. Moose." style="outline:0" transform="translate(68 68)"/><path d="M81 110a4 4 0 1 1 .004 0Z" class="highcharts-point highcharts-color-0" tabindex="-1" aria-label="x, 2003, 38,564. Moose." style="outline:0" transform="translate(68 68)"/><path d="M107 119a4 4 0 1 1 .004 0Z" class="highcharts-point highcharts-color-0" tabindex="-1" aria-label="x, 2004, 36,770. Moose." style="outline:0" transform="translate(68 68)"/><path d="M133 122a4 4 0 1 1 .004 0Z" class="highcharts-point highcharts-color-0" tabindex="-1" aria-label="x, 2005, 36,026. Moose." style="outline:0" transform="translate(68 68)"/><path d="M158 127a4 4 0 1 1 .004 0Z" class="highcharts-point highcharts-color-0" tabindex="-1" aria-label="x, 2006, 34,978. Moose." style="outline:0" transform="translate(68 68)"/><path d="M184 124a4 4 0 1 1 .004 0Z" class="highcharts-point highcharts-color-0" tabindex="-1" aria-label="x, 2007, 35,657. Moose." style="outline:0" transform="translate(68 68)"/><path d="M209 124a4 4 0 1 1 .004 0Z" class="highcharts-point highcharts-color-0" tabindex="-1" aria-label="x, 2008, 35,620. Moose." style="outline:0" transform="translate(68 68)"/><path d="M235 123a4 4 0 1 1 .004 0Z" class="highcharts-point highcharts-color-0" tabindex="-1" aria-label="x, 2009, 35,971. Moose." style="outline:0" transform="translate(68 68)"/><path d="M261 120a4 4 0 1 1 .004 0Z" class="highcharts-point highcharts-color-0" tabindex="-1" aria-label="x, 2010, 36,409. Moose." style="outline:0" transform="translate(68 68)"/><path d="M286 120a4 4 0 1 1 .004 0Z" class="highcharts-point highcharts-color-0" tabindex="-1" aria-label="x, 2011, 36,435. Moose." style="outline:0" transform="translate(68 68)"/><path d="M312 129a4 4 0 1 1 .004 0Z" class="highcharts-point highcharts-color-0" tabindex="-1" aria-label="x, 2012, 34,643. Moose." style="outline:0" transform="translate(68 68)"/><path d="M337 128a4 4 0 1 1 .004 0Z" class="highcharts-point highcharts-color-0" tabindex="-1" aria-label="x, 2013, 34,956. Moose." style="outline:0" transform="translate(68 68)"/><path d="M363 136a4 4 0 1 1 .004 0Z" class="highcharts-point highcharts-color-0" tabindex="-1" aria-label="x, 2014, 33,199. Moose." style="outline:0" transform="translate(68 68)"/><path d="M388 146a4 4 0 1 1 .004 0Z" class="highcharts-point highcharts-color-0" tabindex="-1" aria-label="x, 2015, 31,136. Moose." style="outline:0" transform="translate(68 68)"/><path d="M414 148a4 4 0 1 1 .004 0Z" class="highcharts-point highcharts-color-0" tabindex="-1" aria-label="x, 2016, 30,835. Moose." style="outline:0" transform="translate(68 68)"/><path d="M440 144a4 4 0 1 1 .004 0Z" class="highcharts-point highcharts-color-0" tabindex="-1" aria-label="x, 2017, 31,611. Moose." style="outline:0" transform="translate(68 68)"/><path d="M465 149a4 4 0 1 1 .004 0Z" class="highcharts-point highcharts-color-0" tabindex="-1" aria-label="x, 2018, 30,666. Moose." style="outline:0" transform="translate(68 68)"/><path d="M491 150a4 4 0 1 1 .004 0Z" class="highcharts-point highcharts-color-0" tabindex="-1" aria-label="x, 2019, 30,319. Moose." style="outline:0" transform="translate(68 68)"/><path d="M516 143a4 4 0 1 1 .004 0Z" class="highcharts-point highcharts-color-0" tabindex="-1" aria-label="x, 2020, 31,766. Moose." style="outline:0" transform="translate(68 68)"/></g><g class="highcharts-series highcharts-series-1 highcharts-areaspline-series highcharts-color-1" data-z-index=".1" clip-path="url(#a)" aria-hidden="true" transform="translate(68 68)"><path fill="rgba(163,237,186,0.5)" d="M5.118 184.832s15.353-3.281 25.588-5.254c10.235-1.972 15.353-3.033 25.588-4.607 10.235-1.575 15.353-1.922 25.588-3.266 10.236-1.345 15.353-1.051 25.589-3.459 10.235-2.407 15.353-5.345 25.588-8.579 10.235-3.233 15.353-2.643 25.588-7.587 10.235-4.944 15.353-10.707 25.588-17.134 10.236-6.426 15.353-10.001 25.589-14.997 10.235-4.995 15.352-6.57 25.588-9.98 10.235-3.411 15.353-7.074 25.588-7.074 10.235 0 15.353 7.358 25.588 11.415 10.236 4.057 15.353 8.87 25.588 8.87 10.236 0 15.353-5.777 25.589-5.777 10.235 0 15.353 2.789 25.588 5.24 10.235 2.45 15.353 7.015 25.588 7.015 10.235 0 15.353-11.285 25.588-20.005 10.236-8.72 15.353-17.63 25.589-23.596 10.235-5.966 15.353-2.399 25.588-6.236 10.235-3.837 15.353-6.805 25.588-12.95 10.235-6.145 25.588-17.774 25.588-17.774V296H5.118Z" class="highcharts-area" data-z-index="0"/><path fill="none" d="M5.118 184.832s15.353-3.281 25.588-5.254c10.235-1.972 15.353-3.033 25.588-4.607 10.235-1.575 15.353-1.922 25.588-3.266 10.236-1.345 15.353-1.051 25.589-3.459 10.235-2.407 15.353-5.345 25.588-8.579 10.235-3.233 15.353-2.643 25.588-7.587 10.235-4.944 15.353-10.707 25.588-17.134 10.236-6.426 15.353-10.001 25.589-14.997 10.235-4.995 15.352-6.57 25.588-9.98 10.235-3.411 15.353-7.074 25.588-7.074 10.235 0 15.353 7.358 25.588 11.415 10.236 4.057 15.353 8.87 25.588 8.87 10.236 0 15.353-5.777 25.589-5.777 10.235 0 15.353 2.789 25.588 5.24 10.235 2.45 15.353 7.015 25.588 7.015 10.235 0 15.353-11.285 25.588-20.005 10.236-8.72 15.353-17.63 25.589-23.596 10.235-5.966 15.353-2.399 25.588-6.236 10.235-3.837 15.353-6.805 25.588-12.95 10.235-6.145 25.588-17.774 25.588-17.774" class="highcharts-graph" data-z-index="1" stroke="#A3EDBA" stroke-width="2" stroke-linejoin="round" stroke-linecap="round"/><path fill="none" d="M5.118 184.832s15.353-3.281 25.588-5.254c10.235-1.972 15.353-3.033 25.588-4.607 10.235-1.575 15.353-1.922 25.588-3.266 10.236-1.345 15.353-1.051 25.589-3.459 10.235-2.407 15.353-5.345 25.588-8.579 10.235-3.233 15.353-2.643 25.588-7.587 10.235-4.944 15.353-10.707 25.588-17.134 10.236-6.426 15.353-10.001 25.589-14.997 10.235-4.995 15.352-6.57 25.588-9.98 10.235-3.411 15.353-7.074 25.588-7.074 10.235 0 15.353 7.358 25.588 11.415 10.236 4.057 15.353 8.87 25.588 8.87 10.236 0 15.353-5.777 25.589-5.777 10.235 0 15.353 2.789 25.588 5.24 10.235 2.45 15.353 7.015 25.588 7.015 10.235 0 15.353-11.285 25.588-20.005 10.236-8.72 15.353-17.63 25.589-23.596 10.235-5.966 15.353-2.399 25.588-6.236 10.235-3.837 15.353-6.805 25.588-12.95 10.235-6.145 25.588-17.774 25.588-17.774" data-z-index="2" class="highcharts-tracker-line" stroke-linecap="round" stroke-linejoin="round" stroke="rgba(192,192,192,0.0001)" stroke-width="22"/></g><g class="highcharts-markers highcharts-series-1 highcharts-areaspline-series highcharts-color-1 highcharts-tracker" data-z-index=".1" aria-hidden="false" tabindex="-1" aria-label="Deer, series 2 of 2 with 21 data points." style="outline:0" fill="#A3EDBA"><path d="m5 181 4 4-4 4-4-4Z" class="highcharts-point highcharts-color-1" tabindex="-1" aria-label="x, 2000, 22,534. Deer." style="outline:0" transform="translate(68 68)"/><path d="m30 176 4 4-4 4-4-4Z" class="highcharts-point highcharts-color-1" tabindex="-1" aria-label="x, 2001, 23,599. Deer." style="outline:0" transform="translate(68 68)"/><path d="m56 171 4 4-4 4-4-4Z" class="highcharts-point highcharts-color-1" tabindex="-1" aria-label="x, 2002, 24,533. Deer." style="outline:0" transform="translate(68 68)"/><path d="m81 168 4 4-4 4-4-4Z" class="highcharts-point highcharts-color-1" tabindex="-1" aria-label="x, 2003, 25,195. Deer." style="outline:0" transform="translate(68 68)"/><path d="m107 164 4 4-4 4-4-4Z" class="highcharts-point highcharts-color-1" tabindex="-1" aria-label="x, 2004, 25,896. Deer." style="outline:0" transform="translate(68 68)"/><path d="m133 156 4 4-4 4-4-4Z" class="highcharts-point highcharts-color-1" tabindex="-1" aria-label="x, 2005, 27,635. Deer." style="outline:0" transform="translate(68 68)"/><path d="m158 148 4 4-4 4-4-4Z" class="highcharts-point highcharts-color-1" tabindex="-1" aria-label="x, 2006, 29,173. Deer." style="outline:0" transform="translate(68 68)"/><path d="m184 131 4 4-4 4-4-4Z" class="highcharts-point highcharts-color-1" tabindex="-1" aria-label="x, 2007, 32,646. Deer." style="outline:0" transform="translate(68 68)"/><path d="m209 116 4 4-4 4-4-4Z" class="highcharts-point highcharts-color-1" tabindex="-1" aria-label="x, 2008, 35,686. Deer." style="outline:0" transform="translate(68 68)"/><path d="m235 106 4 4-4 4-4-4Z" class="highcharts-point highcharts-color-1" tabindex="-1" aria-label="x, 2009, 37,709. Deer." style="outline:0" transform="translate(68 68)"/><path d="m261 99 4 4-4 4-4-4Z" class="highcharts-point highcharts-color-1" tabindex="-1" aria-label="x, 2010, 39,143. Deer." style="outline:0" transform="translate(68 68)"/><path d="m286 110 4 4-4 4-4-4Z" class="highcharts-point highcharts-color-1" tabindex="-1" aria-label="x, 2011, 36,829. Deer." style="outline:0" transform="translate(68 68)"/><path d="m312 119 4 4-4 4-4-4Z" class="highcharts-point highcharts-color-1" tabindex="-1" aria-label="x, 2012, 35,031. Deer." style="outline:0" transform="translate(68 68)"/><path d="m337 113 4 4-4 4-4-4Z" class="highcharts-point highcharts-color-1" tabindex="-1" aria-label="x, 2013, 36,202. Deer." style="outline:0" transform="translate(68 68)"/><path d="m363 119 4 4-4 4-4-4Z" class="highcharts-point highcharts-color-1" tabindex="-1" aria-label="x, 2014, 35,140. Deer." style="outline:0" transform="translate(68 68)"/><path d="m388 126 4 4-4 4-4-4Z" class="highcharts-point highcharts-color-1" tabindex="-1" aria-label="x, 2015, 33,718. Deer." style="outline:0" transform="translate(68 68)"/><path d="m414 106 4 4-4 4-4-4Z" class="highcharts-point highcharts-color-1" tabindex="-1" aria-label="x, 2016, 37,773. Deer." style="outline:0" transform="translate(68 68)"/><path d="m440 82 4 4-4 4-4-4Z" class="highcharts-point highcharts-color-1" tabindex="-1" aria-label="x, 2017, 42,556. Deer." style="outline:0" transform="translate(68 68)"/><path d="m465 76 4 4-4 4-4-4Z" class="highcharts-point highcharts-color-1" tabindex="-1" aria-label="x, 2018, 43,820. Deer." style="outline:0" transform="translate(68 68)"/><path d="m491 63 4 4-4 4-4-4Z" class="highcharts-point highcharts-color-1" tabindex="-1" aria-label="x, 2019, 46,445. Deer." style="outline:0" transform="translate(68 68)"/><path d="m516 45 4 4-4 4-4-4Z" class="highcharts-point highcharts-color-1" tabindex="-1" aria-label="x, 2020, 50,048. Deer." style="outline:0" transform="translate(68 68)"/></g></g><text x="300" text-anchor="middle" class="highcharts-title" data-z-index="4" style="color:#2f2b38;font-size:22px;font-weight:500;fill:#2f2b38" y="27" aria-hidden="true">Moose and deer hunting in Norway, 2000 - 2021</text><text x="300" text-anchor="middle" class="highcharts-subtitle" data-z-index="4" style="color:#2f2b38;font-size:16px;font-weight:400;fill:#2f2b38" y="52" aria-hidden="true">Source: <a target="_blank"><tspan>SSB</tspan></a></text><g class="highcharts-legend highcharts-no-tooltip" data-z-index="7" transform="translate(130 80)" aria-hidden="true"><rect fill="#f0f0f0" class="highcharts-legend-box" rx="2" ry="2" stroke="#BBBAC5" x=".5" y=".5" width="72" height="40"/><g data-z-index="1"><g class="highcharts-legend-item highcharts-areaspline-series highcharts-color-0 highcharts-series-0" data-z-index="1" transform="translate(8 3)"><text x="21" data-z-index="2" y="15" style="color:#2f2b38;cursor:pointer;font-size:12px;font-weight:400;fill:#2f2b38">Moose</text><rect x="2" y="4" width="12" height="12" fill="#8087E8" rx="6" ry="6" class="highcharts-point" data-z-index="3"/></g><g class="highcharts-legend-item highcharts-areaspline-series highcharts-color-1 highcharts-series-1" data-z-index="1" transform="translate(8 18)"><text x="21" y="15" data-z-index="2" style="color:#2f2b38;cursor:pointer;font-size:12px;font-weight:400;fill:#2f2b38">Deer</text><rect x="2" y="4" width="12" height="12" fill="#A3EDBA" rx="6" ry="6" class="highcharts-point" data-z-index="3"/></g></g></g><g class="highcharts-axis-labels highcharts-xaxis-labels" data-z-index="7" aria-hidden="true" text-anchor="middle"><text x="73.118" style="color:#46465c;cursor:default;font-size:12px;fill:#46465c" y="384">2000</text><text x="201.059" style="color:#46465c;cursor:default;font-size:12px;fill:#46465c" y="384">2005</text><text x="329" style="color:#46465c;cursor:default;font-size:12px;fill:#46465c" y="384">2010</text><text x="456.941" style="color:#46465c;cursor:default;font-size:12px;fill:#46465c" y="384">2015</text><text x="576.652" style="color:#46465c;cursor:default;font-size:12px;fill:#46465c" y="384">2020</text></g><g class="highcharts-axis-labels highcharts-yaxis-labels" data-z-index="7" aria-hidden="true" text-anchor="end"><text x="53" style="color:#46465c;cursor:default;font-size:12px;fill:#46465c" y="369">0</text><text x="53" style="color:#46465c;cursor:default;font-size:12px;fill:#46465c" y="320">10k</text><text x="53" style="color:#46465c;cursor:default;font-size:12px;fill:#46465c" y="271">20k</text><text x="53" style="color:#46465c;cursor:default;font-size:12px;fill:#46465c" y="221">30k</text><text x="53" style="color:#46465c;cursor:default;font-size:12px;fill:#46465c" y="172">40k</text><text x="53" style="color:#46465c;cursor:default;font-size:12px;fill:#46465c" y="123">50k</text><text x="53" style="color:#46465c;cursor:default;font-size:12px;fill:#46465c" y="73">60k</text></g></svg>