<svg class="highcharts-root" style="font-family:&quot;IBM Plex Sans&quot;,sans-serif;font-size:12px" xmlns="http://www.w3.org/2000/svg" width="600" height="900" aria-label="World population by country"><defs><clipPath id="a"><path fill="none" d="M0 0h810v440H0z"/></clipPath></defs><rect fill="#f0f0f0" class="highcharts-background" width="600" height="900" rx="0" ry="0"/><path fill="none" class="highcharts-plot-background" d="M110 75h440v810H110z"/><g class="highcharts-grid highcharts-xaxis-grid" data-z-index="1" fill="none"><path data-z-index="1" class="highcharts-grid-line" d="M110 118.5h440m-440 42h440m-440 43h440m-440 43h440m-440 42h440m-440 43h440m-440 42h440m-440 43h440m-440 43h440m-440 42h440m-440 43h440m-440 43h440m-440 42h440m-440 43h440m-440 42h440m-440 43h440m-440 43h440m-440 42h440m-440 43h440m-440-810h440"/></g><g class="highcharts-grid highcharts-yaxis-grid" data-z-index="1" fill="none" stroke="#ccc"><path data-z-index="1" class="highcharts-grid-line" d="M109.5 75v810m147-810v810m146-810v810m148-810v810"/></g><path fill="none" class="highcharts-plot-border" data-z-index="1" d="M110 75h440v810H110z"/><g class="highcharts-axis highcharts-xaxis" data-z-index="2"><path fill="none" class="highcharts-axis-line" stroke="#ccc" data-z-index="7" d="M109.5 75v810"/></g><g class="highcharts-axis highcharts-yaxis" data-z-index="2" fill="none"><path class="highcharts-tick" stroke="#ccc" d="M109.5 75V65m147 10V65m146 10V65m148 10V65"/><path class="highcharts-axis-line" data-z-index="7" d="M110 75h440"/></g><g class="highcharts-series-group" data-z-index="3"><g class="highcharts-series highcharts-series-0 highcharts-bar-series highcharts-tracker" data-z-index=".1" clip-path="url(#a)" transform="matrix(0 -1 -1 0 550 885)"><path fill="#8087E8" class="highcharts-point highcharts-color-0" d="M772 50h35v391h-35z"/><path fill="#A3EDBA" class="highcharts-point highcharts-color-1" d="M729 177h35v264h-35z"/><path fill="#F19E53" class="highcharts-point highcharts-color-2" d="M686 335h35v106h-35z"/><path fill="#6699A1" class="highcharts-point highcharts-color-3" d="M644 387h35v54h-35z"/><path fill="#E1D369" class="highcharts-point highcharts-color-4" d="M601 390h35v51h-35z"/><path fill="#87B4E7" class="highcharts-point highcharts-color-5" d="M558 398h35v43h-35z"/><path fill="#DA6D85" class="highcharts-point highcharts-color-6" d="M516 399h35v42h-35z"/><path fill="#BBBAC5" class="highcharts-point highcharts-color-7" d="M473 410h35v31h-35z"/><path fill="#8087E8" class="highcharts-point highcharts-color-0" d="M431 412h35v29h-35z"/><path fill="#A3EDBA" class="highcharts-point highcharts-color-1" d="M388 413h35v28h-35z"/><path fill="#F19E53" class="highcharts-point highcharts-color-2" d="M345 414h35v27h-35z"/><path fill="#6699A1" class="highcharts-point highcharts-color-3" d="M303 415h35v26h-35z"/><path fill="#E1D369" class="highcharts-point highcharts-color-4" d="M260 415h35v26h-35z"/><path fill="#87B4E7" class="highcharts-point highcharts-color-5" d="M217 416h35v25h-35z"/><path fill="#DA6D85" class="highcharts-point highcharts-color-6" d="M175 419h35v22h-35z"/><path fill="#BBBAC5" class="highcharts-point highcharts-color-7" d="M132 422h35v19h-35z"/><path fill="#8087E8" class="highcharts-point highcharts-color-0" d="M90 423h35v18H90z"/><path fill="#A3EDBA" class="highcharts-point highcharts-color-1" d="M47 424h35v17H47z"/><path fill="#F19E53" class="highcharts-point highcharts-color-2" d="M4 425h35v16H4z"/></g></g><text x="10" class="highcharts-title" data-z-index="4" style="color:#2f2b38;font-size:22px;font-weight:500;fill:#2f2b38" y="27">World population by country</text><text x="490" text-anchor="end" class="highcharts-subtitle" data-z-index="4" style="color:#2f2b38;font-size:16px;font-weight:400;fill:#2f2b38" y="380"><tspan style="font-size:80px">1960</tspan>
        <tspan class="highcharts-br" dy="19" x="490">​</tspan>
<tspan style="font-size:22px">
            Total: <tspan style="font-weight:700">: 3.03</tspan> billion
        </tspan></text><g class="highcharts-data-labels highcharts-series-0 highcharts-bar-series highcharts-tracker" data-z-index="6"><text x="5" data-z-index="1" y="18" style="color:#46465c;font-size:13px;font-weight:700;fill:#46465c" transform="translate(500 83)" class="highcharts-label highcharts-data-label highcharts-data-label-color-0"><tspan class="highcharts-text-outline" fill="#FFF" stroke="#FFF" stroke-width="2" stroke-linejoin="round">667 070 000<tspan x="5" dy="0">​</tspan></tspan>667 070 000</text><text x="5" data-z-index="1" y="18" style="color:#46465c;font-size:13px;font-weight:700;fill:#46465c" transform="translate(373 126)" class="highcharts-label highcharts-data-label highcharts-data-label-color-1"><tspan class="highcharts-text-outline" fill="#FFF" stroke="#FFF" stroke-width="2" stroke-linejoin="round">450 547 679<tspan x="5" dy="0">​</tspan></tspan>450 547 679</text><text x="5" data-z-index="1" y="18" style="color:#46465c;font-size:13px;font-weight:700;fill:#46465c" transform="translate(215 169)" class="highcharts-label highcharts-data-label highcharts-data-label-color-2"><tspan class="highcharts-text-outline" fill="#FFF" stroke="#FFF" stroke-width="2" stroke-linejoin="round">180 671 000<tspan x="5" dy="0">​</tspan></tspan>180 671 000</text><text x="5" data-z-index="1" y="18" style="color:#46465c;font-size:13px;font-weight:700;fill:#46465c" transform="translate(163 211)" class="highcharts-label highcharts-data-label highcharts-data-label-color-3"><tspan class="highcharts-text-outline" fill="#FFF" stroke="#FFF" stroke-width="2" stroke-linejoin="round">92 500 572<tspan x="5" dy="0">​</tspan></tspan>92 500 572</text><text x="5" data-z-index="1" y="18" style="color:#46465c;font-size:13px;font-weight:700;fill:#46465c" transform="translate(160 254)" class="highcharts-label highcharts-data-label highcharts-data-label-color-4"><tspan class="highcharts-text-outline" fill="#FFF" stroke="#FFF" stroke-width="2" stroke-linejoin="round">87 751 068<tspan x="5" dy="0">​</tspan></tspan>87 751 068</text><text x="5" data-z-index="1" y="18" style="color:#46465c;font-size:13px;font-weight:700;fill:#46465c" transform="translate(152 297)" class="highcharts-label highcharts-data-label highcharts-data-label-color-5"><tspan class="highcharts-text-outline" fill="#FFF" stroke="#FFF" stroke-width="2" stroke-linejoin="round">72 814 900<tspan x="5" dy="0">​</tspan></tspan>72 814 900</text><text x="5" data-z-index="1" y="18" style="color:#46465c;font-size:13px;font-weight:700;fill:#46465c" transform="translate(151 339)" class="highcharts-label highcharts-data-label highcharts-data-label-color-6"><tspan class="highcharts-text-outline" fill="#FFF" stroke="#FFF" stroke-width="2" stroke-linejoin="round">72 179 226<tspan x="5" dy="0">​</tspan></tspan>72 179 226</text><text x="5" data-z-index="1" y="18" style="color:#46465c;font-size:13px;font-weight:700;fill:#46465c" transform="translate(140 382)" class="highcharts-label highcharts-data-label highcharts-data-label-color-7"><tspan class="highcharts-text-outline" fill="#FFF" stroke="#FFF" stroke-width="2" stroke-linejoin="round">52 400 000<tspan x="5" dy="0">​</tspan></tspan>52 400 000</text><text x="5" data-z-index="1" y="18" style="color:#46465c;font-size:13px;font-weight:700;fill:#46465c" transform="translate(138 424)" class="highcharts-label highcharts-data-label highcharts-data-label-color-0"><tspan class="highcharts-text-outline" fill="#FFF" stroke="#FFF" stroke-width="2" stroke-linejoin="round">50 199 700<tspan x="5" dy="0">​</tspan></tspan>50 199 700</text><text x="5" data-z-index="1" y="18" style="color:#46465c;font-size:13px;font-weight:700;fill:#46465c" transform="translate(137 467)" class="highcharts-label highcharts-data-label highcharts-data-label-color-1"><tspan class="highcharts-text-outline" fill="#FFF" stroke="#FFF" stroke-width="2" stroke-linejoin="round">48 013 504<tspan x="5" dy="0">​</tspan></tspan>48 013 504</text><text x="5" data-z-index="1" y="18" style="color:#46465c;font-size:13px;font-weight:700;fill:#46465c" transform="translate(136 510)" class="highcharts-label highcharts-data-label highcharts-data-label-color-2"><tspan class="highcharts-text-outline" fill="#FFF" stroke="#FFF" stroke-width="2" stroke-linejoin="round">46 621 669<tspan x="5" dy="0">​</tspan></tspan>46 621 669</text><text x="5" data-z-index="1" y="18" style="color:#46465c;font-size:13px;font-weight:700;fill:#46465c" transform="translate(135 552)" class="highcharts-label highcharts-data-label highcharts-data-label-color-3"><tspan class="highcharts-text-outline" fill="#FFF" stroke="#FFF" stroke-width="2" stroke-linejoin="round">45 138 458<tspan x="5" dy="0">​</tspan></tspan>45 138 458</text><text x="5" data-z-index="1" y="18" style="color:#46465c;font-size:13px;font-weight:700;fill:#46465c" transform="translate(135 595)" class="highcharts-label highcharts-data-label highcharts-data-label-color-4"><tspan class="highcharts-text-outline" fill="#FFF" stroke="#FFF" stroke-width="2" stroke-linejoin="round">44 988 690<tspan x="5" dy="0">​</tspan></tspan>44 988 690</text><text x="5" data-z-index="1" y="18" style="color:#46465c;font-size:13px;font-weight:700;fill:#46465c" transform="translate(134 638)" class="highcharts-label highcharts-data-label highcharts-data-label-color-5"><tspan class="highcharts-text-outline" fill="#FFF" stroke="#FFF" stroke-width="2" stroke-linejoin="round">42 664 652<tspan x="5" dy="0">​</tspan></tspan>42 664 652</text><text x="5" data-z-index="1" y="18" style="color:#46465c;font-size:13px;font-weight:700;fill:#46465c" transform="translate(131 680)" class="highcharts-label highcharts-data-label highcharts-data-label-color-6"><tspan class="highcharts-text-outline" fill="#FFF" stroke="#FFF" stroke-width="2" stroke-linejoin="round">37 771 859<tspan x="5" dy="0">​</tspan></tspan>37 771 859</text><text x="5" data-z-index="1" y="18" style="color:#46465c;font-size:13px;font-weight:700;fill:#46465c" transform="translate(128 723)" class="highcharts-label highcharts-data-label highcharts-data-label-color-7"><tspan class="highcharts-text-outline" fill="#FFF" stroke="#FFF" stroke-width="2" stroke-linejoin="round">32 670 039<tspan x="5" dy="0">​</tspan></tspan>32 670 039</text><text x="5" data-z-index="1" y="18" style="color:#46465c;font-size:13px;font-weight:700;fill:#46465c" transform="translate(127 765)" class="highcharts-label highcharts-data-label highcharts-data-label-color-0"><tspan class="highcharts-text-outline" fill="#FFF" stroke="#FFF" stroke-width="2" stroke-linejoin="round">30 455 000<tspan x="5" dy="0">​</tspan></tspan>30 455 000</text><text x="5" data-z-index="1" y="18" style="color:#46465c;font-size:13px;font-weight:700;fill:#46465c" transform="translate(126 808)" class="highcharts-label highcharts-data-label highcharts-data-label-color-1"><tspan class="highcharts-text-outline" fill="#FFF" stroke="#FFF" stroke-width="2" stroke-linejoin="round">29 637 450<tspan x="5" dy="0">​</tspan></tspan>29 637 450</text><text x="5" data-z-index="1" y="18" style="color:#46465c;font-size:13px;font-weight:700;fill:#46465c" transform="translate(125 851)" class="highcharts-label highcharts-data-label highcharts-data-label-color-2"><tspan class="highcharts-text-outline" fill="#FFF" stroke="#FFF" stroke-width="2" stroke-linejoin="round">27 472 345<tspan x="5" dy="0">​</tspan></tspan>27 472 345</text></g><g class="highcharts-axis-labels highcharts-xaxis-labels" data-z-index="7" text-anchor="end"><text x="95" style="color:#46465c;cursor:default;font-size:12px;fill:#46465c" y="102">China</text><text x="95" style="color:#46465c;cursor:default;font-size:12px;fill:#46465c" y="144">India</text><text x="95" style="color:#46465c;cursor:default;font-size:12px;fill:#46465c" y="187">United States</text><text x="95" style="color:#46465c;cursor:default;font-size:12px;fill:#46465c" y="229">Japan</text><text x="95" style="color:#46465c;cursor:default;font-size:12px;fill:#46465c" y="272">Indonesia</text><text x="95" style="color:#46465c;cursor:default;font-size:12px;fill:#46465c" y="315">Germany</text><text x="95" style="color:#46465c;cursor:default;font-size:12px;fill:#46465c" y="357">Brazil</text><text x="95" style="color:#46465c;cursor:default;font-size:12px;fill:#46465c" y="400">United Kingdom</text><text x="95" style="color:#46465c;cursor:default;font-size:12px;fill:#46465c" y="443">Italy</text><text x="95" style="color:#46465c;cursor:default;font-size:12px;fill:#46465c" y="485">Bangladesh</text><text x="95" style="color:#46465c;cursor:default;font-size:12px;fill:#46465c" y="528">France</text><text x="95" style="color:#46465c;cursor:default;font-size:12px;fill:#46465c" y="571">Nigeria</text><text x="95" style="color:#46465c;cursor:default;font-size:12px;fill:#46465c" y="613">Pakistan</text><text x="95" style="color:#46465c;cursor:default;font-size:12px;fill:#46465c" y="656">Ukraine</text><text x="95" style="color:#46465c;cursor:default;font-size:12px;fill:#46465c" y="698">Mexico</text><text x="95" style="color:#46465c;cursor:default;font-size:12px;fill:#46465c" y="741">Vietnam</text><text x="95" style="color:#46465c;cursor:default;font-size:12px;fill:#46465c" y="784">Spain</text><text x="95" style="color:#46465c;cursor:default;font-size:12px;fill:#46465c" y="826">Poland</text><text x="95" style="color:#46465c;cursor:default;font-size:12px;fill:#46465c" y="869">Turkey</text></g><g class="highcharts-axis-labels highcharts-yaxis-labels" data-z-index="7" text-anchor="middle"><text x="110" style="color:#46465c;cursor:default;font-size:12px;fill:#46465c" y="62">0</text><text x="256.667" y="62" style="color:#46465c;cursor:default;font-size:12px;fill:#46465c">250M</text><text x="403.333" y="62" style="color:#46465c;cursor:default;font-size:12px;fill:#46465c">500M</text><text x="550" y="62" style="color:#46465c;cursor:default;font-size:12px;fill:#46465c">750M</text></g></svg>