<svg class="highcharts-root" style="font-family:&quot;IBM Plex Sans&quot;,sans-serif;font-size:12px" xmlns="http://www.w3.org/2000/svg" width="600" height="400" aria-label="Interactive chart" aria-hidden="false"><defs aria-hidden="true"><clipPath id="a"><path fill="none" d="M0 0h507v277H0z"/></clipPath></defs><rect fill="#f0f0f0" class="highcharts-background" width="600" height="400" rx="0" ry="0" aria-hidden="true"/><path fill="none" class="highcharts-plot-background" aria-hidden="true" d="M83 68h507v277H83z"/><g class="highcharts-grid highcharts-xaxis-grid" data-z-index="1" aria-hidden="true" fill="none" stroke="#ccc"><path data-z-index="1" class="highcharts-grid-line" d="M126.5 68v277m74-277v277m75-277v277m74-277v277m74-277v277m74-277v277m74-277v277"/></g><g class="highcharts-grid highcharts-yaxis-grid" data-z-index="1" aria-hidden="true" fill="none" stroke="#ccc"><path data-z-index="1" class="highcharts-grid-line" d="M83 269.5h507m-507-89h507m-507-88h507"/></g><path fill="none" class="highcharts-plot-border" data-z-index="1" stroke="#ccc" aria-hidden="true" d="M82.5 67.5h508v278h-508z"/><g class="highcharts-axis highcharts-xaxis" data-z-index="2" aria-hidden="true"><path fill="none" class="highcharts-tick" stroke="#ccc" d="M126.5 345v10m74-10v10m75-10v10m74-10v10m74-10v10m74-10v10m74-10v10"/><text x="336.5" data-z-index="7" text-anchor="middle" class="highcharts-axis-title" style="color:#2f2b38;fill:#2f2b38" y="383.525">Daily fat intake</text><path fill="none" class="highcharts-axis-line" stroke="#ccc" data-z-index="7" d="M83 345.5h507"/></g><g class="highcharts-axis highcharts-yaxis" data-z-index="2" aria-hidden="true"><path fill="none" class="highcharts-tick" stroke="#ccc" d="M83 269.5H73m10-89H73m10-88H73"/><text x="23.811" data-z-index="7" text-anchor="middle" transform="rotate(-90 23.81 206.5)" class="highcharts-axis-title" style="color:#2f2b38;font-weight:300;fill:#2f2b38" y="206.5">Daily sugar intake</text><path fill="none" class="highcharts-axis-line" data-z-index="7" d="M83 68v277"/></g><g class="highcharts-plot-lines-3" data-z-index="3" aria-hidden="true"><path fill="none" class="highcharts-plot-line" stroke="#000" stroke-width="2" stroke-dasharray="2,6" d="M127 68v277"/></g><text x="131" class="highcharts-plot-line-label" data-z-index="3" y="83" style="font-style:italic" aria-hidden="true">Safe fat intake 65g/day</text><g class="highcharts-plot-lines-3" data-z-index="3" aria-hidden="true"><path fill="none" class="highcharts-plot-line" stroke="#000" stroke-width="2" stroke-dasharray="2,6" d="M83 269h507"/></g><text x="580" text-anchor="end" class="highcharts-plot-line-label" data-z-index="3" y="265" style="font-style:italic" aria-hidden="true">Safe sugar intake 50g/day</text><g class="highcharts-series-group" data-z-index="3" aria-hidden="false"><g class="highcharts-series highcharts-series-0 highcharts-bubble-series highcharts-tracker" data-z-index=".1" clip-path="url(#a)" aria-hidden="false" stroke="#46465C" transform="translate(83 68)"><path fill="rgba(128,135,232,0.5)" d="M488.5 135a13.5 13.5 0 1 1 .013 0Z" class="highcharts-point highcharts-color-0" tabindex="-1" aria-label="1. BE, fat: 95g, sugar: 95g, obesity: 13.8%." style="outline:0"/><path fill="rgba(163,237,186,0.5)" d="M362.5 122a14.5 14.5 0 1 1 .014 0Z" class="highcharts-point highcharts-color-1" tabindex="-1" aria-label="2. DE, fat: 86.5g, sugar: 102.9g, obesity: 14.7%." style="outline:0"/><path fill="rgba(241,158,83,0.5)" d="M278.5 143a15.5 15.5 0 1 1 .015 0Z" class="highcharts-point highcharts-color-2" tabindex="-1" aria-label="3. FI, fat: 80.8g, sugar: 91.5g, obesity: 15.8%." style="outline:0"/><path fill="rgba(102,153,161,0.5)" d="M272 119a11 11 0 1 1 .011 0Z" class="highcharts-point highcharts-color-3" tabindex="-1" aria-label="4. NL, fat: 80.4g, sugar: 102.5g, obesity: 12%." style="outline:0"/><path fill="rgba(225,211,105,0.5)" d="M270.5 147a10.5 10.5 0 1 1 .01 0Z" class="highcharts-point highcharts-color-4" tabindex="-1" aria-label="5. SE, fat: 80.3g, sugar: 86.1g, obesity: 11.8%." style="outline:0"/><path fill="rgba(135,180,231,0.5)" d="M242.5 182a16.5 16.5 0 1 1 .016 0Z" class="highcharts-point highcharts-color-5" tabindex="-1" aria-label="6. ES, fat: 78.4g, sugar: 70.1g, obesity: 16.6%." style="outline:0"/><path fill="rgba(218,109,133,0.5)" d="M180 182a14 14 0 1 1 .014 0Z" class="highcharts-point highcharts-color-6" tabindex="-1" aria-label="7. FR, fat: 74.2g, sugar: 68.5g, obesity: 14.5%." style="outline:0"/><path fill="rgba(187,186,197,0.5)" d="M170 146a4 4 0 1 1 .004 0Z" class="highcharts-point highcharts-color-7" tabindex="-1" aria-label="8. NO, fat: 73.5g, sugar: 83.1g, obesity: 10%." style="outline:0"/><path fill="rgba(128,135,232,0.5)" d="M132.5 147a22.5 22.5 0 1 1 .022 0Z" class="highcharts-point highcharts-color-0" tabindex="-1" aria-label="9. UK, fat: 71g, sugar: 93.2g, obesity: 24.7%." style="outline:0"/><path fill="rgba(163,237,186,0.5)" d="M106 194a7 7 0 1 1 .007 0Z" class="highcharts-point highcharts-color-1" tabindex="-1" aria-label="10. IT, fat: 69.2g, sugar: 57.6g, obesity: 10.4%." style="outline:0"/><path fill="rgba(241,158,83,0.5)" d="M97 270a16 16 0 1 1 .016 0Z" class="highcharts-point highcharts-color-2" tabindex="-1" aria-label="11. RU, fat: 68.6g, sugar: 20g, obesity: 16%." style="outline:0"/><path fill="rgba(102,153,161,0.5)" d="M51 93a28 28 0 1 1 .028 0Z" class="highcharts-point highcharts-color-3" tabindex="-1" aria-label="12. US, fat: 65.5g, sugar: 126.4g, obesity: 35.3%." style="outline:0"/><path fill="rgba(225,211,105,0.5)" d="M49.5 224a24.5 24.5 0 1 1 .024 0Z" class="highcharts-point highcharts-color-4" tabindex="-1" aria-label="13. HU, fat: 65.4g, sugar: 50.8g, obesity: 28.5%." style="outline:0"/><path fill="rgba(135,180,231,0.5)" d="M20 213a15 15 0 1 1 .015 0Z" class="highcharts-point highcharts-color-5" tabindex="-1" aria-label="14. PT, fat: 63.4g, sugar: 51.8g, obesity: 15.4%." style="outline:0"/><path fill="rgba(218,109,133,0.5)" d="M29 168a26 26 0 1 1 .026 0Z" class="highcharts-point highcharts-color-6" tabindex="-1" aria-label="15. NZ, fat: 64g, sugar: 82.9g, obesity: 31.3%." style="outline:0"/></g></g><text x="300" text-anchor="middle" class="highcharts-title" data-z-index="4" style="color:#2f2b38;font-size:22px;font-weight:500;fill:#2f2b38" y="27" aria-hidden="true">Sugar and fat intake per country</text><text x="300" text-anchor="middle" class="highcharts-subtitle" data-z-index="4" style="color:#2f2b38;font-size:16px;font-weight:400;fill:#2f2b38" y="52" aria-hidden="true">Source: <a><tspan>Euromonitor</tspan></a> and <a><tspan>OECD</tspan></a></text><g class="highcharts-data-labels highcharts-series-0 highcharts-bubble-series highcharts-tracker" data-z-index="6" aria-hidden="true"><text x="5" data-z-index="1" y="18" style="color:#46465c;font-size:13px;font-weight:700;fill:#46465c" transform="translate(558 177)" class="highcharts-label highcharts-data-label highcharts-data-label-color-0"><tspan class="highcharts-text-outline" fill="#FFF" stroke="#FFF" stroke-width="2" stroke-linejoin="round">BE<tspan x="5" dy="0">​</tspan></tspan>BE</text><text x="5" data-z-index="1" y="18" style="color:#46465c;font-size:13px;font-weight:700;fill:#46465c" transform="translate(432 163)" class="highcharts-label highcharts-data-label highcharts-data-label-color-1"><tspan class="highcharts-text-outline" fill="#FFF" stroke="#FFF" stroke-width="2" stroke-linejoin="round">DE<tspan x="5" dy="0">​</tspan></tspan>DE</text><text x="5" data-z-index="1" y="18" style="color:#46465c;font-size:13px;font-weight:700;fill:#46465c" transform="translate(351 183)" class="highcharts-label highcharts-data-label highcharts-data-label-color-2"><tspan class="highcharts-text-outline" fill="#FFF" stroke="#FFF" stroke-width="2" stroke-linejoin="round">FI<tspan x="5" dy="0">​</tspan></tspan>FI</text><text x="5" data-z-index="1" y="18" style="color:#46465c;font-size:13px;font-weight:700;fill:#46465c" transform="translate(342 163)" class="highcharts-label highcharts-data-label highcharts-data-label-color-3"><tspan class="highcharts-text-outline" fill="#FFF" stroke="#FFF" stroke-width="2" stroke-linejoin="round">NL<tspan x="5" dy="0">​</tspan></tspan>NL</text><text x="5" data-z-index="1" y="18" style="color:#46465c;font-size:13px;font-weight:700;fill:#46465c" transform="translate(312 221)" class="highcharts-label highcharts-data-label highcharts-data-label-color-5"><tspan class="highcharts-text-outline" fill="#FFF" stroke="#FFF" stroke-width="2" stroke-linejoin="round">ES<tspan x="5" dy="0">​</tspan></tspan>ES</text><text x="5" data-z-index="1" y="18" style="color:#46465c;font-size:13px;font-weight:700;fill:#46465c" transform="translate(250 223)" class="highcharts-label highcharts-data-label highcharts-data-label-color-6"><tspan class="highcharts-text-outline" fill="#FFF" stroke="#FFF" stroke-width="2" stroke-linejoin="round">FR<tspan x="5" dy="0">​</tspan></tspan>FR</text><text x="5" data-z-index="1" y="18" style="color:#46465c;font-size:13px;font-weight:700;fill:#46465c" transform="translate(239 198)" class="highcharts-label highcharts-data-label highcharts-data-label-color-7"><tspan class="highcharts-text-outline" fill="#FFF" stroke="#FFF" stroke-width="2" stroke-linejoin="round">NO<tspan x="5" dy="0">​</tspan></tspan>NO</text><text x="5" data-z-index="1" y="18" style="color:#46465c;font-size:13px;font-weight:700;fill:#46465c" transform="translate(202 180)" class="highcharts-label highcharts-data-label highcharts-data-label-color-0"><tspan class="highcharts-text-outline" fill="#FFF" stroke="#FFF" stroke-width="2" stroke-linejoin="round">UK<tspan x="5" dy="0">​</tspan></tspan>UK</text><text x="5" data-z-index="1" y="18" style="color:#46465c;font-size:13px;font-weight:700;fill:#46465c" transform="translate(179 243)" class="highcharts-label highcharts-data-label highcharts-data-label-color-1"><tspan class="highcharts-text-outline" fill="#FFF" stroke="#FFF" stroke-width="2" stroke-linejoin="round">IT<tspan x="5" dy="0">​</tspan></tspan>IT</text><text x="5" data-z-index="1" y="18" style="color:#46465c;font-size:13px;font-weight:700;fill:#46465c" transform="translate(166 309)" class="highcharts-label highcharts-data-label highcharts-data-label-color-2"><tspan class="highcharts-text-outline" fill="#FFF" stroke="#FFF" stroke-width="2" stroke-linejoin="round">RU<tspan x="5" dy="0">​</tspan></tspan>RU</text><text x="5" data-z-index="1" y="18" style="color:#46465c;font-size:13px;font-weight:700;fill:#46465c" transform="translate(121 121)" class="highcharts-label highcharts-data-label highcharts-data-label-color-3"><tspan class="highcharts-text-outline" fill="#FFF" stroke="#FFF" stroke-width="2" stroke-linejoin="round">US<tspan x="5" dy="0">​</tspan></tspan>US</text><text x="5" data-z-index="1" y="18" style="color:#46465c;font-size:13px;font-weight:700;fill:#46465c" transform="translate(119 255)" class="highcharts-label highcharts-data-label highcharts-data-label-color-4"><tspan class="highcharts-text-outline" fill="#FFF" stroke="#FFF" stroke-width="2" stroke-linejoin="round">HU<tspan x="5" dy="0">​</tspan></tspan>HU</text><text x="5" data-z-index="1" y="18" style="color:#46465c;font-size:13px;font-weight:700;fill:#46465c" transform="translate(90 253)" class="highcharts-label highcharts-data-label highcharts-data-label-color-5"><tspan class="highcharts-text-outline" fill="#FFF" stroke="#FFF" stroke-width="2" stroke-linejoin="round">PT<tspan x="5" dy="0">​</tspan></tspan>PT</text><text x="5" data-z-index="1" y="18" style="color:#46465c;font-size:13px;font-weight:700;fill:#46465c" transform="translate(99 198)" class="highcharts-label highcharts-data-label highcharts-data-label-color-6"><tspan class="highcharts-text-outline" fill="#FFF" stroke="#FFF" stroke-width="2" stroke-linejoin="round">NZ<tspan x="5" dy="0">​</tspan></tspan>NZ</text></g><g class="highcharts-axis-labels highcharts-xaxis-labels" data-z-index="7" aria-hidden="true" text-anchor="middle"><text x="127.252" style="color:#46465c;cursor:default;font-size:12px;fill:#46465c" y="365">65 gr</text><text x="201.411" style="color:#46465c;cursor:default;font-size:12px;fill:#46465c" y="365">70 gr</text><text x="275.571" style="color:#46465c;cursor:default;font-size:12px;fill:#46465c" y="365">75 gr</text><text x="349.73" style="color:#46465c;cursor:default;font-size:12px;fill:#46465c" y="365">80 gr</text><text x="423.889" style="color:#46465c;cursor:default;font-size:12px;fill:#46465c" y="365">85 gr</text><text x="498.049" style="color:#46465c;cursor:default;font-size:12px;fill:#46465c" y="365">90 gr</text><text x="572.208" style="color:#46465c;cursor:default;font-size:12px;fill:#46465c" y="365">95 gr</text></g><g class="highcharts-axis-labels highcharts-yaxis-labels" data-z-index="7" aria-hidden="true" text-anchor="end"><text x="68" style="color:#46465c;cursor:default;font-size:12px;fill:#46465c" y="274">50 gr</text><text x="68" style="color:#46465c;cursor:default;font-size:12px;fill:#46465c" y="185">100 gr</text><text x="68" style="color:#46465c;cursor:default;font-size:12px;fill:#46465c" y="97">150 gr</text></g></svg>