<svg class="highcharts-root" style="font-family:&quot;IBM Plex Sans&quot;,sans-serif;font-size:12px" xmlns="http://www.w3.org/2000/svg" width="600" height="400" aria-label="Interactive chart" aria-hidden="false"><defs aria-hidden="true"><radialGradient cx=".4" cy=".3" r=".7" id="b"><stop offset="0" stop-color="#FFF" stop-opacity=".5"/><stop offset="1" stop-color="#8087E8" stop-opacity=".5"/></radialGradient><radialGradient cx=".4" cy=".3" r=".7" id="c"><stop offset="0" stop-color="#FFF" stop-opacity=".5"/><stop offset="1" stop-color="#A3EDBA" stop-opacity=".5"/></radialGradient><clipPath id="a"><path fill="none" d="M0 0h521v276H0z"/></clipPath></defs><rect fill="#f0f0f0" class="highcharts-background" width="600" height="400" rx="0" ry="0" aria-hidden="true"/><path fill="none" class="highcharts-plot-background" aria-hidden="true" d="M69 50h521v276H69z"/><g class="highcharts-grid highcharts-xaxis-grid" data-z-index="1" aria-hidden="true" fill="none" stroke="#ccc"><path data-z-index="1" class="highcharts-grid-line" d="M89.5 50v276m96-276v276m96-276v276m96-276v276m96-276v276m96-276v276"/></g><g class="highcharts-grid highcharts-yaxis-grid" data-z-index="1" aria-hidden="true" fill="none" stroke="#ccc"><path data-z-index="1" class="highcharts-grid-line" d="M69 296.5h521m-521-58h521m-521-58h521m-521-58h521m-521-57h521"/></g><path fill="none" class="highcharts-plot-border" data-z-index="1" stroke="#ccc" aria-hidden="true" d="M68.5 49.5h522v277h-522z"/><g class="highcharts-axis highcharts-xaxis" data-z-index="2" aria-hidden="true" fill="none" stroke="#ccc"><path class="highcharts-tick" d="M89.5 326v10m96-10v10m96-10v10m96-10v10m96-10v10m96-10v10"/><path class="highcharts-axis-line" data-z-index="7" d="M69 326.5h521"/></g><g class="highcharts-axis highcharts-yaxis" data-z-index="2" aria-hidden="true"><path fill="none" class="highcharts-tick" stroke="#ccc" d="M69 296.5H59m10-58H59m10-58H59m10-58H59m10-57H59"/><text x="23.977" data-z-index="7" text-anchor="middle" transform="rotate(-90 23.977 188)" class="highcharts-axis-title" style="color:#2f2b38;font-weight:300;fill:#2f2b38" y="188">Values</text><path fill="none" class="highcharts-axis-line" data-z-index="7" d="M69 50v276"/></g><g class="highcharts-series-group" data-z-index="3" aria-hidden="false" stroke="#46465C"><g class="highcharts-series highcharts-series-0 highcharts-bubble-series highcharts-color-0 highcharts-tracker" data-z-index=".1" clip-path="url(#a)" aria-hidden="false" tabindex="-1" aria-label="Series 1, bubble series 1 of 2 with 14 bubbles." style="outline:0" fill="url(#b)" transform="translate(69 50)"><path d="M64 81a23 23 0 1 1 .023 0Z" class="highcharts-point highcharts-color-0" tabindex="-1" aria-label="x, 9, y: 81, z: 63. Series 1." style="outline:0"/><path d="M490.5 261a26.5 26.5 0 1 1 .026 0Z" class="highcharts-point highcharts-color-0" tabindex="-1" aria-label="x, 98, y: 5, z: 89. Series 1." style="outline:0"/><path d="M265.5 155a24.5 24.5 0 1 1 .024 0Z" class="highcharts-point highcharts-color-0" tabindex="-1" aria-label="x, 51, y: 50, z: 73. Series 1." style="outline:0"/><path d="M217 208a13 13 0 1 1 .013 0Z" class="highcharts-point highcharts-color-0" tabindex="-1" aria-label="x, 41, y: 22, z: 14. Series 1." style="outline:0"/><path d="M298.5 205a14.5 14.5 0 1 1 .014 0Z" class="highcharts-point highcharts-color-0" tabindex="-1" aria-label="x, 58, y: 24, z: 20. Series 1." style="outline:0"/><path d="M395 178a18 18 0 1 1 .018 0Z" class="highcharts-point highcharts-color-0" tabindex="-1" aria-label="x, 78, y: 37, z: 34. Series 1." style="outline:0"/><path d="M284.5 138a21.5 21.5 0 1 1 .021 0Z" class="highcharts-point highcharts-color-0" tabindex="-1" aria-label="x, 55, y: 56, z: 53. Series 1." style="outline:0"/><path d="M107 166a24 24 0 1 1 .024 0Z" class="highcharts-point highcharts-color-0" tabindex="-1" aria-label="x, 18, y: 45, z: 70. Series 1." style="outline:0"/><path d="M221.5 161a16.5 16.5 0 1 1 .016 0Z" class="highcharts-point highcharts-color-0" tabindex="-1" aria-label="x, 42, y: 44, z: 28. Series 1." style="outline:0"/><path d="M34.5 148a22.5 22.5 0 1 1 .022 0Z" class="highcharts-point highcharts-color-0" tabindex="-1" aria-label="x, 3, y: 52, z: 59. Series 1." style="outline:0"/><path d="M169.5 232a27.5 27.5 0 1 1 .027 0Z" class="highcharts-point highcharts-color-0" tabindex="-1" aria-label="x, 31, y: 18, z: 97. Series 1." style="outline:0"/><path d="M399 58a23 23 0 1 1 .023 0Z" class="highcharts-point highcharts-color-0" tabindex="-1" aria-label="x, 79, y: 91, z: 63. Series 1." style="outline:0"/><path d="M466.5 208a15.5 15.5 0 1 1 .015 0Z" class="highcharts-point highcharts-color-0" tabindex="-1" aria-label="x, 93, y: 23, z: 23. Series 1." style="outline:0"/><path d="M232 69a15 15 0 1 1 .015 0Z" class="highcharts-point highcharts-color-0" tabindex="-1" aria-label="x, 44, y: 83, z: 22. Series 1." style="outline:0"/></g><g class="highcharts-series highcharts-series-1 highcharts-bubble-series highcharts-color-1 highcharts-tracker" data-z-index=".1" clip-path="url(#a)" aria-hidden="false" tabindex="-1" aria-label="Series 2, bubble series 2 of 2 with 14 bubbles." style="outline:0" fill="url(#c)" transform="translate(69 50)"><path d="M221.5 172a14.5 14.5 0 1 1 .014 0Z" class="highcharts-point highcharts-color-1" tabindex="-1" aria-label="x, 42, y: 38, z: 20. Series 2." style="outline:0"/><path d="M49 208a4 4 0 1 1 .004 0Z" class="highcharts-point highcharts-color-1" tabindex="-1" aria-label="x, 6, y: 18, z: 1. Series 2." style="outline:0"/><path d="M25 53a22 22 0 1 1 .022 0Z" class="highcharts-point highcharts-color-1" tabindex="-1" aria-label="x, 1, y: 93, z: 55. Series 2." style="outline:0"/><path d="M294 268a27 27 0 1 1 .027 0Z" class="highcharts-point highcharts-color-1" tabindex="-1" aria-label="x, 57, y: 2, z: 90. Series 2." style="outline:0"/><path d="M404 85a15 15 0 1 1 .015 0Z" class="highcharts-point highcharts-color-1" tabindex="-1" aria-label="x, 80, y: 76, z: 22. Series 2." style="outline:0"/><path d="M73.5 102a27.5 27.5 0 1 1 .027 0Z" class="highcharts-point highcharts-color-1" tabindex="-1" aria-label="x, 11, y: 74, z: 96. Series 2." style="outline:0"/><path d="M442.5 128a11.5 11.5 0 1 1 .011 0Z" class="highcharts-point highcharts-color-1" tabindex="-1" aria-label="x, 88, y: 56, z: 10. Series 2." style="outline:0"/><path d="M164 158a21 21 0 1 1 .021 0Z" class="highcharts-point highcharts-color-1" tabindex="-1" aria-label="x, 30, y: 47, z: 49. Series 2." style="outline:0"/><path d="M294 130a28 28 0 1 1 .028 0Z" class="highcharts-point highcharts-color-1" tabindex="-1" aria-label="x, 57, y: 62, z: 98. Series 2." style="outline:0"/><path d="M39.5 222a13.5 13.5 0 1 1 .013 0Z" class="highcharts-point highcharts-color-1" tabindex="-1" aria-label="x, 4, y: 16, z: 16. Series 2." style="outline:0"/><path d="M241 235a12 12 0 1 1 .012 0Z" class="highcharts-point highcharts-color-1" tabindex="-1" aria-label="x, 46, y: 10, z: 11. Series 2." style="outline:0"/><path d="M126.5 71a26.5 26.5 0 1 1 .026 0Z" class="highcharts-point highcharts-color-1" tabindex="-1" aria-label="x, 22, y: 87, z: 89. Series 2." style="outline:0"/><path d="M294 61a26 26 0 1 1 .026 0Z" class="highcharts-point highcharts-color-1" tabindex="-1" aria-label="x, 57, y: 91, z: 82. Series 2." style="outline:0"/><path d="M236 239a28 28 0 1 1 .028 0Z" class="highcharts-point highcharts-color-1" tabindex="-1" aria-label="x, 45, y: 15, z: 98. Series 2." style="outline:0"/></g></g><text x="300" text-anchor="middle" class="highcharts-title" data-z-index="4" style="color:#2f2b38;font-size:22px;font-weight:500;fill:#2f2b38" y="27" aria-hidden="true">Highcharts bubbles with radial gradient fill</text><g class="highcharts-legend highcharts-no-tooltip" data-z-index="7" transform="translate(217 359)" aria-hidden="true"><rect fill="#f0f0f0" class="highcharts-legend-box" rx="2" ry="2" stroke="#BBBAC5" x=".5" y=".5" width="165" height="25"/><g data-z-index="1"><g class="highcharts-legend-item highcharts-bubble-series highcharts-color-0 highcharts-series-0" data-z-index="1"><path fill="none" d="M8 14h16" class="highcharts-graph"/><path fill="url(#b)" d="M8 17a6 6 0 1 1 .006 0Z" class="highcharts-point" stroke="#46465C" transform="translate(8 3)"/><text x="21" data-z-index="2" y="15" style="color:#2f2b38;cursor:pointer;font-size:12px;font-weight:400;fill:#2f2b38" transform="translate(8 3)">Series 1</text></g><g class="highcharts-legend-item highcharts-bubble-series highcharts-color-1 highcharts-series-1" data-z-index="1"><path fill="none" d="M93.023 14h16" class="highcharts-graph"/><path fill="url(#c)" d="M8 17a6 6 0 1 1 .006 0Z" class="highcharts-point" stroke="#46465C" transform="translate(93.023 3)"/><text x="21" y="15" data-z-index="2" style="color:#2f2b38;cursor:pointer;font-size:12px;font-weight:400;fill:#2f2b38" transform="translate(93.023 3)">Series 2</text></g></g></g><g class="highcharts-axis-labels highcharts-xaxis-labels" data-z-index="7" aria-hidden="true" text-anchor="middle"><text x="90.007" style="color:#46465c;cursor:default;font-size:12px;fill:#46465c" y="346">0</text><text x="185.917" style="color:#46465c;cursor:default;font-size:12px;fill:#46465c" y="346">20</text><text x="281.826" style="color:#46465c;cursor:default;font-size:12px;fill:#46465c" y="346">40</text><text x="377.736" style="color:#46465c;cursor:default;font-size:12px;fill:#46465c" y="346">60</text><text x="473.646" style="color:#46465c;cursor:default;font-size:12px;fill:#46465c" y="346">80</text><text x="569.555" style="color:#46465c;cursor:default;font-size:12px;fill:#46465c" y="346">100</text></g><g class="highcharts-axis-labels highcharts-yaxis-labels" data-z-index="7" aria-hidden="true" text-anchor="end"><text x="54" style="color:#46465c;cursor:default;font-size:12px;fill:#46465c" y="301">0</text><text x="54" style="color:#46465c;cursor:default;font-size:12px;fill:#46465c" y="243">25</text><text x="54" style="color:#46465c;cursor:default;font-size:12px;fill:#46465c" y="185">50</text><text x="54" style="color:#46465c;cursor:default;font-size:12px;fill:#46465c" y="128">75</text><text x="54" style="color:#46465c;cursor:default;font-size:12px;fill:#46465c" y="70">100</text></g></svg>