<svg class="highcharts-root" style="font-family:&quot;IBM Plex Sans&quot;,sans-serif;font-size:12px" xmlns="http://www.w3.org/2000/svg" width="600" height="400" aria-label="Interactive chart" aria-hidden="false"><defs aria-hidden="true"><clipPath id="a"><path fill="none" d="M0 0h528v238H0z"/></clipPath></defs><rect fill="#f0f0f0" class="highcharts-background" width="600" height="400" rx="0" ry="0" aria-hidden="true"/><path fill="none" class="highcharts-plot-background" aria-hidden="true" d="M62 93h528v238H62z"/><g class="highcharts-grid highcharts-xaxis-grid" data-z-index="1" aria-hidden="true" fill="none"><path data-z-index="1" class="highcharts-grid-line" d="M167.5 93v238m105-238v238m106-238v238m105-238v238m106-238v238M61.5 93v238"/></g><g class="highcharts-grid highcharts-yaxis-grid" data-z-index="1" aria-hidden="true" fill="none" stroke="#ccc"><path data-z-index="1" class="highcharts-grid-line" d="M62 331.5h528m-528-48h528m-528-47h528m-528-48h528m-528-47h528m-528-49h528"/></g><path fill="none" class="highcharts-plot-border" data-z-index="1" aria-hidden="true" d="M62 93h528v238H62z"/><g class="highcharts-axis highcharts-xaxis" data-z-index="2" aria-hidden="true"><path fill="none" class="highcharts-axis-line" stroke="#ccc" data-z-index="7" d="M62 331.5h528"/></g><g class="highcharts-axis highcharts-yaxis" data-z-index="2" aria-hidden="true"><path fill="none" class="highcharts-tick" stroke="#ccc" d="M62 331.5H52m10-48H52m10-47H52m10-48H52m10-47H52m10-49H52"/><text x="23.648" data-z-index="7" text-anchor="middle" transform="rotate(-90 23.648 212)" class="highcharts-axis-title" style="color:#2f2b38;font-weight:300;fill:#2f2b38" y="212">Gold medals</text><path fill="none" class="highcharts-axis-line" data-z-index="7" d="M62 93v238"/></g><g class="highcharts-series-group" data-z-index="3" aria-hidden="false"><g class="highcharts-series highcharts-series-0 highcharts-column-series highcharts-tracker" data-z-index=".1" clip-path="url(#a)" aria-hidden="false" tabindex="-1" aria-label="2016, bar series 1 of 2 with 8 bars." style="outline:0" fill="#9E9FA3" transform="translate(62 93)"><path class="highcharts-point" tabindex="-1" aria-label="South Korea, 9. 2016." style="outline:0" d="M746 196h51v43h-51z"/><path class="highcharts-point" tabindex="-1" aria-label="Japan, 12. 2016." style="outline:0" d="M218 182h51v57h-51z"/><path class="highcharts-point" tabindex="-1" aria-label="Australia, 8. 2016." style="outline:0" d="M534 201h51v38h-51z"/><path class="highcharts-point" tabindex="-1" aria-label="Germany, 17. 2016." style="outline:0" d="M640 158h51v81h-51z"/><path class="highcharts-point" tabindex="-1" aria-label="Russia, 19. 2016." style="outline:0" d="M429 149h51v90h-51z"/><path class="highcharts-point" tabindex="-1" aria-label="China, 26. 2016." style="outline:0" d="M112 115h51v124h-51z"/><path class="highcharts-point" tabindex="-1" aria-label="Great Britain, 27. 2016." style="outline:0" d="M323 110h51v129h-51z"/><path class="highcharts-point" tabindex="-1" aria-label="United States, 46. 2016." style="outline:0" d="M6 20h51v219H6z"/></g><g class="highcharts-series highcharts-series-1 highcharts-column-series highcharts-color-0 highcharts-tracker" data-z-index=".1" clip-path="url(#a)" aria-hidden="false" tabindex="-1" aria-label="2020, bar series 2 of 2 with 8 bars." style="outline:0" transform="translate(62 93)"><path fill="#C92427" class="highcharts-point highcharts-color-0" tabindex="-1" aria-label="South Korea, 6. 2020." style="outline:0" d="M767 210h51v29h-51z"/><path fill="#C92427" class="highcharts-point highcharts-color-0" tabindex="-1" aria-label="Japan, 27. 2020." style="outline:0" d="M239 110h51v129h-51z"/><path fill="#0052B4" class="highcharts-point highcharts-color-0" tabindex="-1" aria-label="Australia, 17. 2020." style="outline:0" d="M555 158h51v81h-51z"/><path class="highcharts-point highcharts-color-0" tabindex="-1" aria-label="Germany, 10. 2020." style="outline:0" d="M661 191h51v48h-51z"/><path fill="#F0F0F0" class="highcharts-point highcharts-color-0" tabindex="-1" aria-label="Russia, 20. 2020." style="outline:0" d="M450 144h51v95h-51z"/><path fill="#FFD944" class="highcharts-point highcharts-color-0" tabindex="-1" aria-label="China, 38. 2020." style="outline:0" d="M133 58h51v181h-51z"/><path fill="#0052B4" class="highcharts-point highcharts-color-0" tabindex="-1" aria-label="Great Britain, 22. 2020." style="outline:0" d="M344 134h51v105h-51z"/><path fill="#D70026" class="highcharts-point highcharts-color-0" tabindex="-1" aria-label="United States, 39. 2020." style="outline:0" d="M27 53h51v186H27z"/></g></g><text x="10" class="highcharts-title" data-z-index="4" style="color:#2f2b38;font-size:22px;font-weight:500;fill:#2f2b38" y="27" aria-hidden="true">Summer Olympics 2020 - Top 5 countries by Gold<tspan dy="25" x="10">​</tspan>medals</text><text x="10" class="highcharts-subtitle" data-z-index="4" style="color:#2f2b38;font-size:16px;font-weight:400;fill:#2f2b38" y="77" aria-hidden="true">Comparing to results from Summer Olympics 2016 - Source: <a target="_blank"><tspan>Olympics</tspan></a></text><g class="highcharts-data-labels highcharts-series-1 highcharts-column-series highcharts-color-0 highcharts-tracker" data-z-index="6" aria-hidden="true"><text x="5" data-z-index="1" y="20" style="color:#46465c;font-size:16px;font-weight:700;fill:#46465c" transform="translate(845 303)" class="highcharts-label highcharts-data-label highcharts-data-label-color-0"><tspan class="highcharts-text-outline" fill="#FFF" stroke="#FFF" stroke-width="2" stroke-linejoin="round">6<tspan x="5" dy="0">​</tspan></tspan>6</text><text x="5" data-z-index="1" y="20" style="color:#46465c;font-size:16px;font-weight:700;fill:#46465c" transform="translate(313 253)" class="highcharts-label highcharts-data-label highcharts-data-label-color-0"><tspan class="highcharts-text-outline" fill="#FFF" stroke="#FFF" stroke-width="2" stroke-linejoin="round">27<tspan x="5" dy="0">​</tspan></tspan>27</text><text x="5" data-z-index="1" y="20" style="color:#46465c;font-size:16px;font-weight:700;fill:#46465c" transform="translate(629 277)" class="highcharts-label highcharts-data-label highcharts-data-label-color-0"><tspan class="highcharts-text-outline" fill="#FFF" stroke="#FFF" stroke-width="2" stroke-linejoin="round">17<tspan x="5" dy="0">​</tspan></tspan>17</text><text x="5" data-z-index="1" y="20" style="color:#46465c;font-size:16px;font-weight:700;fill:#46465c" transform="translate(735 294)" class="highcharts-label highcharts-data-label highcharts-data-label-color-0"><tspan class="highcharts-text-outline" fill="#FFF" stroke="#FFF" stroke-width="2" stroke-linejoin="round">10<tspan x="5" dy="0">​</tspan></tspan>10</text><text x="5" data-z-index="1" y="20" style="color:#46465c;font-size:16px;font-weight:700;fill:#46465c" transform="translate(524 270)" class="highcharts-label highcharts-data-label highcharts-data-label-color-0"><tspan class="highcharts-text-outline" fill="#FFF" stroke="#FFF" stroke-width="2" stroke-linejoin="round">20<tspan x="5" dy="0">​</tspan></tspan>20</text><text x="5" data-z-index="1" y="20" style="color:#46465c;font-size:16px;font-weight:700;fill:#46465c" transform="translate(207 227)" class="highcharts-label highcharts-data-label highcharts-data-label-color-0"><tspan class="highcharts-text-outline" fill="#FFF" stroke="#FFF" stroke-width="2" stroke-linejoin="round">38<tspan x="5" dy="0">​</tspan></tspan>38</text><text x="5" data-z-index="1" y="20" style="color:#46465c;font-size:16px;font-weight:700;fill:#46465c" transform="translate(418 265)" class="highcharts-label highcharts-data-label highcharts-data-label-color-0"><tspan class="highcharts-text-outline" fill="#FFF" stroke="#FFF" stroke-width="2" stroke-linejoin="round">22<tspan x="5" dy="0">​</tspan></tspan>22</text><text x="5" data-z-index="1" y="20" style="color:#46465c;font-size:16px;font-weight:700;fill:#46465c" transform="translate(101 225)" class="highcharts-label highcharts-data-label highcharts-data-label-color-0"><tspan class="highcharts-text-outline" fill="#FFF" stroke="#FFF" stroke-width="2" stroke-linejoin="round">39<tspan x="5" dy="0">​</tspan></tspan>39</text></g><g class="highcharts-axis-labels highcharts-yaxis-labels" data-z-index="7" aria-hidden="true" text-anchor="end"><text x="47" style="color:#46465c;cursor:default;font-size:12px;fill:#46465c" y="289">10</text><text x="47" style="color:#46465c;cursor:default;font-size:12px;fill:#46465c" y="241">20</text><text x="47" style="color:#46465c;cursor:default;font-size:12px;fill:#46465c" y="193">30</text><text x="47" style="color:#46465c;cursor:default;font-size:12px;fill:#46465c" y="146">40</text><text x="47" style="color:#46465c;cursor:default;font-size:12px;fill:#46465c" y="98">50</text></g></svg>