<svg class="highcharts-root" style="font-family:&quot;IBM Plex Sans&quot;,sans-serif;font-size:12px" xmlns="http://www.w3.org/2000/svg" width="600" height="400" aria-label="Interactive chart" aria-hidden="false"><rect fill="#f0f0f0" class="highcharts-background" width="600" height="400" rx="0" ry="0" aria-hidden="true"/><g stroke-linejoin="round" class="highcharts-3d-frame highcharts-3d-frame-bottom" data-z-index="-1000" aria-hidden="true" fill="none"><path d="m153.904 292.037 396.43 37.254L547.021 345 137.21 304.991Z"/><path d="m550.354 329.784-3.376 16.039.044-.823 3.311-15.71Zm-3.376 16.039-410.465-40.15.697-.682L547.022 345Z"/></g><g stroke-linejoin="round" class="highcharts-3d-frame highcharts-3d-frame-left" data-z-index="-1000" aria-hidden="true" fill="none"><path d="m143.571 78.43.403.144-17.991 5.894-.775-.032Z"/><path d="m143.974 78.574 9.93 213.463-16.694 12.954-11.227-220.523Z"/><path d="M136.513 305.673 125.208 84.436l.775.032 11.227 220.523Z"/></g><g stroke-linejoin="round" class="highcharts-3d-frame highcharts-3d-frame-back" data-z-index="-1000" aria-hidden="true" fill="none"><path d="m143.571 78.43 419.542 17.016-.057.138-419.082-17.01Zm419.542 17.016-12.76 234.338-.02-.493 12.723-233.707Z"/><path d="m143.974 78.574 419.082 17.01-12.723 233.707-396.43-37.254Z"/></g><path fill="none" class="highcharts-plot-background" aria-hidden="true" d="M85 68h505v277H85z"/><g class="highcharts-grid highcharts-xaxis-grid" data-z-index="1" aria-hidden="true" fill="none" stroke="#ccc"><path data-z-index="1" class="highcharts-grid-line" d="m182.256 80.128 8.038 215.329m-15.583 13.196 15.583-13.196M220.89 81.696l6.093 217.209m-14.438 13.441 14.438-13.441M261.07 83.327l4.031 219.16m-13.224 13.699 13.224-13.7m36.142-217.528 1.93 221.106m-11.986 13.96 11.986-13.96m39.865-219.41-.298 223.129m-10.67 14.232 10.67-14.232M384.841 88.35l-2.568 225.148m-9.328 14.507 9.328-14.507M428.35 90.117l-4.975 227.243m-7.904 14.797 7.904-14.797m48.512-225.476-7.432 229.336m-6.45 15.09 6.45-15.09m52.763-227.496-10.037 231.512m-4.904 15.396 4.904-15.396m56.333-229.633-12.75 233.728m-3.294 15.713 3.295-15.713M143.6 78.559l9.947 213.445m-16.705 12.952 16.705-12.952"/></g><g class="highcharts-grid highcharts-yaxis-grid" data-z-index="1" aria-hidden="true" fill="none" stroke="#ccc"><path data-z-index="1" class="highcharts-grid-line" d="m153.92 292.403 396.391 37.286m-413.082-24.32 16.692-12.966m-2.377-51.089 401.8 32.671m-418.798-21.32 16.998-11.35m-2.438-52.429 407.358 27.785m-424.674-18.14 17.316-9.645m-2.541-54.613 413.158 22.536m-430.807-14.72 17.65-7.816m-2.61-56.105 419.124 16.97M125.96 84.047l17.995-5.88"/></g><path fill="none" class="highcharts-plot-border" data-z-index="1" aria-hidden="true" d="M85 68h505v277H85z"/><g class="highcharts-axis highcharts-xaxis" data-z-index="2" aria-hidden="true"><text x="332.07" data-z-index="7" text-anchor="middle" class="highcharts-axis-title" style="color:#2f2b38;fill:#2f2b38" y="356.324">Age groups</text></g><g class="highcharts-axis highcharts-yaxis" data-z-index="2" aria-hidden="true"><path fill="none" class="highcharts-tick" stroke="#ccc" d="M137.23 305.368h-8m5.316-52.702h-8.106m5.35-54.135h-8.217m5.343-56.441h-8.33m5.375-58.042h-8.449"/><text x="81.6" data-z-index="7" text-anchor="middle" transform="rotate(-90 81.6 197.736)" class="highcharts-axis-title" style="color:#2f2b38;font-weight:300;fill:#2f2b38" y="197.736">Reported cases</text></g><g class="highcharts-series-group" data-z-index="3" aria-hidden="false"><g class="highcharts-markers highcharts-series-0 highcharts-cylinder-series highcharts-tracker" data-z-index="10" aria-hidden="false" stroke-linejoin="round"><g data-z-index="12601215" stroke="#8087E8" class="highcharts-point highcharts-color-0" tabindex="-1" aria-label="0-9, 95,321. Cases." style="outline:0"><path fill="#676ECF" d="M170.126 303.552c-.826 1.908-6.002 3.47-11.544 3.47-5.542 0-9.285-1.562-8.36-3.47.914-1.889 6.071-3.409 11.515-3.409 5.444 0 9.206 1.52 8.389 3.41" class="highcharts-3d-bottom" data-z-index="0"/><path fill="#8087E8" d="M145.385 201.924c.963-1.428 6.27-2.577 11.854-2.577s9.425 1.149 8.564 2.577l4.323 101.628c.817-1.889-2.945-3.409-8.389-3.409-5.444 0-10.6 1.52-11.516 3.41Z" class="highcharts-3d-back" data-z-index="1"/><path fill="#8087E8" d="M165.803 201.924c-.869 1.442-6.198 2.624-11.884 2.624-5.687 0-9.506-1.182-8.534-2.624l4.836 101.628c-.924 1.908 2.819 3.47 8.36 3.47 5.543 0 10.719-1.562 11.545-3.47Z" class="highcharts-3d-front" data-z-index="2"/><path fill="#99A0FF" d="M165.803 201.924c-.869 1.442-6.198 2.624-11.884 2.624-5.687 0-9.506-1.182-8.534-2.624.963-1.428 6.27-2.577 11.854-2.577s9.425 1.149 8.564 2.577" class="highcharts-3d-top" data-z-index="3"/></g><g data-z-index="63602245" stroke="#A3EDBA" class="highcharts-point highcharts-color-1" tabindex="-1" aria-label="10-19, 169,339. Cases." style="outline:0"><path fill="#8AD4A1" d="M208.131 307.219c-.644 1.944-5.715 3.536-11.31 3.536-5.595 0-9.527-1.592-8.783-3.536.737-1.925 5.792-3.474 11.288-3.474 5.495 0 9.443 1.549 8.805 3.474" class="highcharts-3d-bottom" data-z-index="0"/><path fill="#A3EDBA" d="M180.956 120.908c.808-1.054 6.13-1.9 11.883-1.9 5.754 0 9.862.846 9.162 1.9l6.13 186.31c.638-1.924-3.31-3.473-8.805-3.473-5.496 0-10.55 1.549-11.288 3.474Z" class="highcharts-3d-back" data-z-index="1"/><path fill="#A3EDBA" d="M202.001 120.908c-.707 1.064-6.047 1.936-11.91 1.936-5.862 0-9.952-.872-9.135-1.936l7.082 186.31c-.744 1.945 3.188 3.537 8.783 3.537 5.595 0 10.666-1.592 11.31-3.536Z" class="highcharts-3d-front" data-z-index="2"/><path fill="#BCFFD3" d="M202.001 120.908c-.707 1.064-6.047 1.936-11.91 1.936-5.862 0-9.952-.872-9.135-1.936.808-1.054 6.13-1.9 11.883-1.9 5.754 0 9.862.846 9.162 1.9" class="highcharts-3d-top" data-z-index="3"/></g><g data-z-index="113601575" stroke="#F19E53" class="highcharts-point highcharts-color-2" tabindex="-1" aria-label="20-29, 121,105. Cases." style="outline:0"><path fill="#D8853A" d="M246.098 310.881c-.46 1.98-5.422 3.604-11.07 3.604-5.648 0-9.773-1.623-9.211-3.604.556-1.96 5.506-3.539 11.053-3.539 5.546 0 9.683 1.578 9.228 3.54" class="highcharts-3d-bottom" data-z-index="0"/><path fill="#F19E53" d="M222.047 178.313c.594-1.345 5.726-2.427 11.458-2.427s9.995 1.082 9.508 2.427l3.085 132.568c.455-1.96-3.682-3.539-9.228-3.539-5.547 0-10.497 1.578-11.053 3.54Z" class="highcharts-3d-back" data-z-index="1"/><path fill="#F19E53" d="M243.013 178.313c-.49 1.358-5.635 2.472-11.476 2.472-5.84 0-10.09-1.114-9.49-2.472l3.77 132.568c-.562 1.98 3.563 3.604 9.211 3.604s10.61-1.623 11.07-3.604Z" class="highcharts-3d-front" data-z-index="2"/><path fill="#FFB76C" d="M243.013 178.313c-.49 1.358-5.635 2.472-11.476 2.472-5.84 0-10.09-1.114-9.49-2.472.594-1.345 5.726-2.427 11.458-2.427s9.995 1.082 9.508 2.427" class="highcharts-3d-top" data-z-index="3"/></g><g data-z-index="164601775" stroke="#6699A1" class="highcharts-point highcharts-color-3" tabindex="-1" aria-label="30-39, 136,046. Cases." style="outline:0"><path fill="#4D8088" d="M285.566 314.688c-.264 2.02-5.11 3.674-10.814 3.674-5.703 0-10.032-1.654-9.664-3.674.364-1.999 5.203-3.607 10.803-3.607 5.6 0 9.936 1.608 9.675 3.607" class="highcharts-3d-bottom" data-z-index="0"/><path fill="#6699A1" d="M262.315 164.39c.392-1.29 5.426-2.329 11.238-2.329 5.812 0 10.305 1.039 10.024 2.33l1.989 150.297c.26-1.999-4.076-3.607-9.675-3.607-5.6 0-10.439 1.608-10.803 3.607Z" class="highcharts-3d-back" data-z-index="1"/><path fill="#6699A1" d="M283.577 164.39c-.285 1.305-5.327 2.374-11.25 2.374-5.924 0-10.409-1.069-10.012-2.374l2.773 150.298c-.368 2.02 3.961 3.674 9.664 3.674 5.703 0 10.55-1.654 10.814-3.674Z" class="highcharts-3d-front" data-z-index="2"/><path fill="#7FB2BA" d="M283.577 164.39c-.285 1.305-5.327 2.374-11.25 2.374-5.924 0-10.409-1.069-10.012-2.374.392-1.29 5.426-2.329 11.238-2.329 5.812 0 10.305 1.039 10.024 2.33" class="highcharts-3d-top" data-z-index="3"/></g><g data-z-index="214601375" stroke="#E1D369" class="highcharts-point highcharts-color-4" tabindex="-1" aria-label="40-49, 106,800. Cases." style="outline:0"><path fill="#C8BA50" d="M325.007 318.493c-.064 2.058-4.792 3.745-10.55 3.745-5.758 0-10.294-1.687-10.124-3.745.169-2.037 4.894-3.676 10.546-3.676 5.653 0 10.191 1.639 10.128 3.676" class="highcharts-3d-bottom" data-z-index="0"/><path fill="#E1D369" d="M303.332 200.088c.178-1.48 5.049-2.67 10.87-2.67 5.822 0 10.495 1.19 10.428 2.67l.377 118.405c.063-2.037-4.475-3.676-10.128-3.676-5.652 0-10.377 1.639-10.546 3.676Z" class="highcharts-3d-back" data-z-index="1"/><path fill="#E1D369" d="M324.63 200.088c-.068 1.495-4.942 2.721-10.875 2.721-5.934 0-10.604-1.226-10.423-2.721l1.001 118.405c-.17 2.058 4.366 3.745 10.124 3.745 5.758 0 10.486-1.687 10.55-3.745Z" class="highcharts-3d-front" data-z-index="2"/><path fill="#FAEC82" d="M324.63 200.088c-.068 1.495-4.942 2.721-10.875 2.721-5.934 0-10.604-1.226-10.423-2.721.178-1.48 5.049-2.67 10.87-2.67 5.822 0 10.495 1.19 10.428 2.67" class="highcharts-3d-top" data-z-index="3"/></g><g data-z-index="265600695" stroke="#87B4E7" class="highcharts-point highcharts-color-5" tabindex="-1" aria-label="50-59, 58,041. Cases." style="outline:0"><path fill="#6E9BCE" d="M366.022 322.45c.148 2.099-4.453 3.819-10.268 3.819s-10.57-1.72-10.609-3.82c-.04-2.077 4.564-3.748 10.271-3.748 5.708 0 10.46 1.671 10.606 3.749" class="highcharts-3d-bottom" data-z-index="0"/><path fill="#87B4E7" d="M345.27 258.755c-.041-1.78 4.635-3.21 10.435-3.21 5.8 0 10.63 1.43 10.781 3.21l-.464 63.695c-.146-2.078-4.898-3.75-10.606-3.75-5.707 0-10.31 1.672-10.271 3.75Z" class="highcharts-3d-back" data-z-index="1"/><path fill="#87B4E7" d="M366.486 258.755c.153 1.798-4.522 3.272-10.432 3.272-5.911 0-10.744-1.474-10.785-3.272l-.124 63.695c.04 2.099 4.794 3.819 10.609 3.819s10.416-1.72 10.268-3.82Z" class="highcharts-3d-front" data-z-index="2"/><path fill="#A0CDFF" d="M366.486 258.755c.153 1.798-4.522 3.272-10.432 3.272-5.911 0-10.744-1.474-10.785-3.272-.04-1.78 4.636-3.21 10.436-3.21s10.63 1.43 10.781 3.21" class="highcharts-3d-top" data-z-index="3"/></g><g data-z-index="315600265" stroke="#DA6D85" class="highcharts-point highcharts-color-6" tabindex="-1" aria-label="60-69, 26,766. Cases." style="outline:0"><path fill="#C1546C" d="M407.026 326.405c.363 2.14-4.107 3.895-9.98 3.895-5.872 0-10.848-1.755-11.101-3.895-.25-2.118 4.227-3.822 9.99-3.822s10.731 1.704 11.09 3.822" class="highcharts-3d-bottom" data-z-index="0"/><path fill="#DA6D85" d="M386.31 296.944c-.255-1.98 4.254-3.573 10.06-3.573 5.806 0 10.814 1.593 11.18 3.573l-.524 29.461c-.36-2.118-5.328-3.822-11.091-3.822-5.763 0-10.24 1.704-9.99 3.822Z" class="highcharts-3d-back" data-z-index="1"/><path fill="#DA6D85" d="M407.55 296.944c.368 2.002-4.134 3.642-10.051 3.642s-10.932-1.64-11.19-3.642l-.364 29.461c.253 2.14 5.229 3.895 11.101 3.895 5.873 0 10.343-1.755 9.98-3.895Z" class="highcharts-3d-front" data-z-index="2"/><path fill="#F3869E" d="M407.55 296.944c.368 2.002-4.134 3.642-10.051 3.642s-10.932-1.64-11.19-3.642c-.254-1.98 4.255-3.573 10.061-3.573s10.814 1.593 11.18 3.573" class="highcharts-3d-top" data-z-index="3"/></g><g data-z-index="366600095" stroke="#BBBAC5" class="highcharts-point highcharts-color-7" tabindex="-1" aria-label="70-79, 14,291. Cases." style="outline:0"><path fill="#A2A1AC" d="M449.682 330.52c.592 2.183-3.739 3.973-9.671 3.973-5.932 0-11.142-1.79-11.622-3.973-.475-2.161 3.869-3.899 9.689-3.899s11.017 1.738 11.604 3.899" class="highcharts-3d-bottom" data-z-index="0"/><path fill="#BBBAC5" d="M428.761 314.507c-.479-2.086 3.881-3.763 9.725-3.763 5.844 0 11.064 1.677 11.655 3.763l-.46 16.013c-.586-2.161-5.783-3.899-11.603-3.899-5.82 0-10.164 1.738-9.69 3.899Z" class="highcharts-3d-back" data-z-index="1"/><path fill="#BBBAC5" d="M450.141 314.507c.597 2.107-3.75 3.835-9.706 3.835-5.957 0-11.19-1.728-11.674-3.835l-.372 16.013c.48 2.183 5.69 3.973 11.622 3.973 5.932 0 10.263-1.79 9.67-3.973Z" class="highcharts-3d-front" data-z-index="2"/><path fill="#D4D3DE" d="M450.141 314.507c.597 2.107-3.75 3.835-9.706 3.835-5.957 0-11.19-1.728-11.674-3.835-.479-2.086 3.881-3.763 9.725-3.763 5.844 0 11.064 1.677 11.655 3.763" class="highcharts-3d-top" data-z-index="3"/></g><g data-z-index="416599995" stroke="#8087E8" class="highcharts-point highcharts-color-0" tabindex="-1" aria-label="80-89, 7,065. Cases." style="outline:0"><path fill="#676ECF" d="M492.342 334.635c.826 2.228-3.362 4.054-9.354 4.054-5.992 0-11.44-1.826-12.15-4.054-.705-2.204 3.502-3.976 9.38-3.976 5.877 0 11.307 1.772 12.124 3.976" class="highcharts-3d-bottom" data-z-index="0"/><path fill="#8087E8" d="M471.112 326.574c-.706-2.166 3.508-3.908 9.397-3.908 5.89 0 11.332 1.742 12.152 3.908l-.32 8.061c-.816-2.204-6.246-3.976-12.123-3.976-5.878 0-10.085 1.772-9.38 3.976Z" class="highcharts-3d-back" data-z-index="1"/><path fill="#8087E8" d="M492.661 326.574c.83 2.189-3.366 3.983-9.37 3.983s-11.465-1.794-12.179-3.983l-.275 8.061c.711 2.228 6.16 4.054 12.15 4.054 5.993 0 10.18-1.826 9.355-4.054Z" class="highcharts-3d-front" data-z-index="2"/><path fill="#99A0FF" d="M492.661 326.574c.83 2.189-3.366 3.983-9.37 3.983s-11.465-1.794-12.179-3.983c-.706-2.166 3.508-3.908 9.397-3.908 5.89 0 11.332 1.742 12.152 3.908" class="highcharts-3d-top" data-z-index="3"/></g><g data-z-index="467599945" stroke="#A3EDBA" class="highcharts-point highcharts-color-1" tabindex="-1" aria-label="90+, 3,283. Cases." style="outline:0"><path fill="#8AD4A1" d="M536.739 338.918c1.073 2.273-2.962 4.137-9.016 4.137-6.053 0-11.753-1.864-12.71-4.137-.946-2.25 3.114-4.058 9.051-4.058 5.938 0 11.613 1.809 12.675 4.058" class="highcharts-3d-bottom" data-z-index="0"/><path fill="#A3EDBA" d="M515.199 334.854c-.949-2.23 3.114-4.023 9.058-4.023s11.625 1.794 12.69 4.023l-.208 4.064c-1.062-2.25-6.737-4.058-12.675-4.058-5.937 0-9.997 1.809-9.05 4.058Z" class="highcharts-3d-back" data-z-index="1"/><path fill="#A3EDBA" d="M536.946 334.854c1.076 2.254-2.962 4.102-9.022 4.102-6.06 0-11.767-1.848-12.725-4.102l-.185 4.064c.956 2.273 6.656 4.137 12.71 4.137 6.053 0 10.088-1.864 9.015-4.137Z" class="highcharts-3d-front" data-z-index="2"/><path fill="#BCFFD3" d="M536.946 334.854c1.076 2.254-2.962 4.102-9.022 4.102-6.06 0-11.767-1.848-12.725-4.102-.949-2.23 3.114-4.023 9.058-4.023s11.625 1.794 12.69 4.023" class="highcharts-3d-top" data-z-index="3"/></g></g></g><text x="300" text-anchor="middle" class="highcharts-title" data-z-index="4" style="color:#2f2b38;font-size:22px;font-weight:500;fill:#2f2b38" y="27" aria-hidden="true">Number of confirmed COVID-19</text><text x="300" text-anchor="middle" class="highcharts-subtitle" data-z-index="4" style="color:#2f2b38;font-size:16px;font-weight:400;fill:#2f2b38" y="52" aria-hidden="true">Source: <a target="_blank"><tspan>FHI</tspan></a></text><g class="highcharts-axis-labels highcharts-xaxis-labels" data-z-index="7" aria-hidden="true" text-anchor="middle"><text x="155.873" style="color:#46465c;cursor:default;font-size:12px;fill:#46465c" y="322.888">0-9</text><text x="193.728" style="color:#46465c;cursor:default;font-size:12px;fill:#46465c" y="326.736">10-19</text><text x="232.309" style="color:#46465c;cursor:default;font-size:12px;fill:#46465c" y="330.658">20-29</text><text x="271.635" style="color:#46465c;cursor:default;font-size:12px;fill:#46465c" y="334.656">30-39</text><text x="311.728" style="color:#46465c;cursor:default;font-size:12px;fill:#46465c" y="338.731">40-49</text><text x="352.612" style="color:#46465c;cursor:default;font-size:12px;fill:#46465c" y="342.887">50-59</text><text x="394.309" style="color:#46465c;cursor:default;font-size:12px;fill:#46465c" y="347.126">60-69</text><text x="436.845" style="color:#46465c;cursor:default;font-size:12px;fill:#46465c" y="351.45">70-79</text><text x="480.245" style="color:#46465c;cursor:default;font-size:12px;fill:#46465c" y="355.861">80-89</text><text x="524.535" style="color:#46465c;cursor:default;font-size:12px;fill:#46465c" y="360.364">90+</text></g><g class="highcharts-axis-labels highcharts-yaxis-labels" data-z-index="7" aria-hidden="true" text-anchor="end"><text x="125.413" style="color:#46465c;cursor:default;font-size:12px;fill:#46465c" y="308.757">0</text><text x="122.574" style="color:#46465c;cursor:default;font-size:12px;fill:#46465c" y="256.146">50k</text><text x="119.658" style="color:#46465c;cursor:default;font-size:12px;fill:#46465c" y="202.107">100k</text><text x="116.662" style="color:#46465c;cursor:default;font-size:12px;fill:#46465c" y="146.581">150k</text><text x="113.537" style="color:#46465c;cursor:default;font-size:12px;fill:#46465c" y="88.668">200k</text></g></svg>