<svg class="highcharts-root" style="font-family:&quot;IBM Plex Sans&quot;,sans-serif;font-size:12px" xmlns="http://www.w3.org/2000/svg" width="600" height="400" aria-label="Interactive chart" aria-hidden="false"><defs aria-hidden="true"><clipPath id="a"><path fill="none" d="M0 0h518v314H0z"/></clipPath></defs><rect fill="#f0f0f0" class="highcharts-background" width="600" height="400" rx="0" ry="0" aria-hidden="true"/><path fill="none" class="highcharts-plot-background" aria-hidden="true" d="M72 50h518v314H72z"/><g class="highcharts-plot-lines-0" data-z-index="0" aria-hidden="true"><path fill="none" class="highcharts-plot-line" stroke="gray" d="M72 364.5h518"/></g><g class="highcharts-grid highcharts-xaxis-grid" data-z-index="1" aria-hidden="true" fill="none"><path data-z-index="1" class="highcharts-grid-line" d="M73.5 50v314m132-314v314m132-314v314m132-314v314"/></g><g class="highcharts-grid highcharts-yaxis-grid" data-z-index="1" aria-hidden="true" fill="none" stroke="#ccc"><path data-z-index="1" class="highcharts-grid-line" d="M72 364.5h518m-518-63h518m-518-63h518m-518-62h518m-518-63h518m-518-64h518"/></g><path fill="none" class="highcharts-plot-border" data-z-index="1" aria-hidden="true" d="M72 50h518v314H72z"/><g class="highcharts-axis highcharts-xaxis" data-z-index="2" aria-hidden="true" fill="none" stroke="#ccc"><path class="highcharts-tick" d="M73.5 364v10m132-10v10m132-10v10m132-10v10"/><path class="highcharts-axis-line" data-z-index="7" d="M72 364.5h518"/></g><g class="highcharts-axis highcharts-yaxis" data-z-index="2" aria-hidden="true"><path fill="none" class="highcharts-tick" stroke="#ccc" d="M72 364.5H62m10-63H62m10-63H62m10-62H62m10-63H62m10-64H62"/><text x="23.641" data-z-index="7" text-anchor="middle" transform="rotate(-90 23.64 207)" class="highcharts-axis-title" style="color:#2f2b38;font-weight:300;fill:#2f2b38" y="207">Value</text><path fill="none" class="highcharts-axis-line" data-z-index="7" d="M72 50v314"/></g><g class="highcharts-series-group" data-z-index="3" aria-hidden="false"><g class="highcharts-series highcharts-series-0 highcharts-spline-series highcharts-color-0" data-z-index=".1" clip-path="url(#a)" aria-hidden="true" fill="none" stroke-linejoin="round" stroke-linecap="round" transform="translate(72 50)"><path d="M5.078 153.087S20.935 254.98 31.507 254.98c10.57 0 15.856-144.467 26.428-144.467 10.571 0 15.857 48.838 26.428 48.838 10.571 0 15.857-59.13 26.428-59.13 10.571 0 15.857 26.513 26.428 69.015 10.571 42.501 15.857 143.492 26.428 143.492 10.572 0 15.857-124.614 26.428-156.693 10.572-32.08 15.857-32.08 26.429-32.08 10.57 0 15.856 0 26.428 8.357 10.57 8.357 15.857 92.574 26.428 92.574 10.571 0 15.857 0 26.428-10.5 10.571-10.501 15.857-65.545 26.428-65.545 10.571 0 15.857 142.567 26.428 142.567 10.572 0 15.857-174.47 26.428-198.489C385.644 68.9 390.93 68.9 401.501 68.9c12.844 0 19.266 95.866 32.11 95.866 10.634 0 15.952-78.519 26.586-82.893 10.477-4.375 15.715-4.375 26.19-4.375 10.614 0 26.535 201.559 26.535 201.559" class="highcharts-graph" data-z-index="1" stroke="#8087E8" stroke-width="2"/><path d="M5.078 153.087S20.935 254.98 31.507 254.98c10.57 0 15.856-144.467 26.428-144.467 10.571 0 15.857 48.838 26.428 48.838 10.571 0 15.857-59.13 26.428-59.13 10.571 0 15.857 26.513 26.428 69.015 10.571 42.501 15.857 143.492 26.428 143.492 10.572 0 15.857-124.614 26.428-156.693 10.572-32.08 15.857-32.08 26.429-32.08 10.57 0 15.856 0 26.428 8.357 10.57 8.357 15.857 92.574 26.428 92.574 10.571 0 15.857 0 26.428-10.5 10.571-10.501 15.857-65.545 26.428-65.545 10.571 0 15.857 142.567 26.428 142.567 10.572 0 15.857-174.47 26.428-198.489C385.644 68.9 390.93 68.9 401.501 68.9c12.844 0 19.266 95.866 32.11 95.866 10.634 0 15.952-78.519 26.586-82.893 10.477-4.375 15.715-4.375 26.19-4.375 10.614 0 26.535 201.559 26.535 201.559" data-z-index="2" class="highcharts-tracker-line" stroke="rgba(192,192,192,0.0001)" stroke-width="22"/></g><g class="highcharts-markers highcharts-series-0 highcharts-spline-series highcharts-color-0 highcharts-tracker" data-z-index=".1" aria-hidden="false" fill="#8087E8"><path d="M5 157.087a4 4 0 1 1 .004 0Z" class="highcharts-point highcharts-color-0" tabindex="-1" aria-label="Wednesday, Nov 30, 08:16:40.132, 0.6405767038559942. Random data." style="outline:0" transform="translate(72 50)"/><path d="M31 258.98a4 4 0 1 1 .004 0Z" class="highcharts-point highcharts-color-0" tabindex="-1" aria-label="Wednesday, Nov 30, 08:16:41.132, 0.2349510536307624. Random data." style="outline:0" transform="translate(72 50)"/><path d="M57 114.513a4 4 0 1 1 .004 0Z" class="highcharts-point highcharts-color-0" tabindex="-1" aria-label="Wednesday, Nov 30, 08:16:42.132, 0.8100588697586659. Random data." style="outline:0" transform="translate(72 50)"/><path d="M84 163.351a4 4 0 1 1 .004 0Z" class="highcharts-point highcharts-color-0" tabindex="-1" aria-label="Wednesday, Nov 30, 08:16:43.132, 0.6156399766317227. Random data." style="outline:0" transform="translate(72 50)"/><path d="M110 104.22a4 4 0 1 1 .004 0Z" class="highcharts-point highcharts-color-0" tabindex="-1" aria-label="Wednesday, Nov 30, 08:16:44.132, 0.8510335139725114. Random data." style="outline:0" transform="translate(72 50)"/><path d="M137 173.236a4 4 0 1 1 .004 0Z" class="highcharts-point highcharts-color-0" tabindex="-1" aria-label="Wednesday, Nov 30, 08:16:45.132, 0.5762898734544168. Random data." style="outline:0" transform="translate(72 50)"/><path d="M163 316.728a4 4 0 1 1 .004 0Z" class="highcharts-point highcharts-color-0" tabindex="-1" aria-label="Wednesday, Nov 30, 08:16:46.132, 0.0050642839945505. Random data." style="outline:0" transform="translate(72 50)"/><path d="M190 160.035a4 4 0 1 1 .004 0Z" class="highcharts-point highcharts-color-0" tabindex="-1" aria-label="Wednesday, Nov 30, 08:16:47.132, 0.6288420195776057. Random data." style="outline:0" transform="translate(72 50)"/><path d="M216 127.956a4 4 0 1 1 .004 0Z" class="highcharts-point highcharts-color-0" tabindex="-1" aria-label="Wednesday, Nov 30, 08:16:48.132, 0.7565453500074764. Random data." style="outline:0" transform="translate(72 50)"/><path d="M242 136.312a4 4 0 1 1 .004 0Z" class="highcharts-point highcharts-color-0" tabindex="-1" aria-label="Wednesday, Nov 30, 08:16:49.132, 0.7232786233067225. Random data." style="outline:0" transform="translate(72 50)"/><path d="M269 228.886a4 4 0 1 1 .004 0Z" class="highcharts-point highcharts-color-0" tabindex="-1" aria-label="Wednesday, Nov 30, 08:16:50.132, 0.35475267578490377. Random data." style="outline:0" transform="translate(72 50)"/><path d="M295 218.385a4 4 0 1 1 .004 0Z" class="highcharts-point highcharts-color-0" tabindex="-1" aria-label="Wednesday, Nov 30, 08:16:51.132, 0.3965546518978802. Random data." style="outline:0" transform="translate(72 50)"/><path d="M322 152.841a4 4 0 1 1 .004 0Z" class="highcharts-point highcharts-color-0" tabindex="-1" aria-label="Wednesday, Nov 30, 08:16:52.132, 0.6574798333550675. Random data." style="outline:0" transform="translate(72 50)"/><path d="M348 295.408a4 4 0 1 1 .004 0Z" class="highcharts-point highcharts-color-0" tabindex="-1" aria-label="Wednesday, Nov 30, 08:16:53.132, 0.08993445095544894. Random data." style="outline:0" transform="translate(72 50)"/><path d="M375 96.92a4 4 0 1 1 .004 0Z" class="highcharts-point highcharts-color-0" tabindex="-1" aria-label="Wednesday, Nov 30, 08:16:54.132, 0.8800982675077871. Random data." style="outline:0" transform="translate(72 50)"/><path d="M401 72.9a4 4 0 1 1 .004 0Z" class="highcharts-point highcharts-color-0" tabindex="-1" aria-label="Wednesday, Nov 30, 08:16:55.132, 0.9757145715484088. Random data." style="outline:0" transform="translate(72 50)"/><path d="M433 168.766a4 4 0 1 1 .004 0Z" class="highcharts-point highcharts-color-0" tabindex="-1" aria-label="Wednesday, Nov 30, 08:16:56.347, 0.5940831306282479. Random data." style="outline:0" transform="translate(72 50)"/><path d="M460 85.873a4 4 0 1 1 .004 0Z" class="highcharts-point highcharts-color-0" tabindex="-1" aria-label="Wednesday, Nov 30, 08:16:57.353, 0.9240736427266028. Random data." style="outline:0" transform="translate(72 50)"/><path d="M486 81.498a4 4 0 1 1 .004 0Z" class="highcharts-point highcharts-color-0" tabindex="-1" aria-label="Wednesday, Nov 30, 08:16:58.344, 0.9414877321117914. Random data." style="outline:0" transform="translate(72 50)"/><path d="M512 283a4 4 0 1 1 .004 0Z" class="highcharts-point highcharts-color-0" tabindex="-1" aria-label="Wednesday, Nov 30, 08:16:59.348, 0.1391057064922776. Random data." style="outline:0" transform="translate(72 50)"/></g></g><text x="300" text-anchor="middle" class="highcharts-title" data-z-index="4" style="color:#2f2b38;font-size:22px;font-weight:500;fill:#2f2b38" y="27" aria-hidden="true">Live random data</text><g class="highcharts-axis-labels highcharts-xaxis-labels" data-z-index="7" aria-hidden="true" text-anchor="middle"><text x="73.59" style="color:#46465c;cursor:default;font-size:12px;fill:#46465c" y="384">08:16:40</text><text x="205.731" style="color:#46465c;cursor:default;font-size:12px;fill:#46465c" y="384">08:16:45</text><text x="337.871" style="color:#46465c;cursor:default;font-size:12px;fill:#46465c" y="384">08:16:50</text><text x="470.012" style="color:#46465c;cursor:default;font-size:12px;fill:#46465c" y="384">08:16:55</text></g><g class="highcharts-axis-labels highcharts-yaxis-labels" data-z-index="7" aria-hidden="true" text-anchor="end"><text x="57" style="color:#46465c;cursor:default;font-size:12px;fill:#46465c" y="369">0</text><text x="57" style="color:#46465c;cursor:default;font-size:12px;fill:#46465c" y="306">0.25</text><text x="57" style="color:#46465c;cursor:default;font-size:12px;fill:#46465c" y="244">0.5</text><text x="57" style="color:#46465c;cursor:default;font-size:12px;fill:#46465c" y="181">0.75</text><text x="57" style="color:#46465c;cursor:default;font-size:12px;fill:#46465c" y="118">1</text><text x="57" style="color:#46465c;cursor:default;font-size:12px;fill:#46465c" y="55">1.25</text></g></svg>