<svg class="highcharts-root" style="font-family:&quot;IBM Plex Sans&quot;,sans-serif;font-size:12px" xmlns="http://www.w3.org/2000/svg" width="600" height="400" aria-label="Interactive chart" aria-hidden="false"><defs aria-hidden="true"><clipPath id="a"><path fill="none" d="M0 0h429v275H0z"/></clipPath><clipPath id="b"><path fill="none" d="M0 0h429v275H0z"/></clipPath></defs><rect fill="#f0f0f0" class="highcharts-background" width="600" height="400" rx="0" ry="0" aria-hidden="true"/><path fill="none" class="highcharts-plot-background" aria-hidden="true" d="M79 50h429v275H79z"/><g class="highcharts-grid highcharts-xaxis-grid" data-z-index="1" aria-hidden="true" fill="none"><path data-z-index="1" class="highcharts-grid-line" d="M114.5 50v275m36-275v275m35-275v275m36-275v275m36-275v275m36-275v275m35-275v275m36-275v275m36-275v275m36-275v275m35-275v275m36-275v275M78.5 50v275"/></g><g class="highcharts-grid highcharts-yaxis-grid" data-z-index="1" aria-hidden="true" fill="none" stroke="#ccc"><path data-z-index="1" class="highcharts-grid-line" d="M79 325.5h429m-429-69h429m-429-68h429m-429-69h429m-429-70h429"/></g><g class="highcharts-grid highcharts-yaxis-grid" data-z-index="1" aria-hidden="true" fill="none" stroke="#ccc"><path data-z-index="1" class="highcharts-grid-line" d="M79 325.5h429m-429-69h429m-429-68h429m-429-69h429m-429-70h429"/></g><path fill="none" class="highcharts-plot-border" data-z-index="1" aria-hidden="true" d="M79 50h429v275H79z"/><g class="highcharts-axis highcharts-xaxis" data-z-index="2" aria-hidden="true"><path fill="none" class="highcharts-axis-line" stroke="#ccc" data-z-index="7" d="M79 325.5h429"/></g><g class="highcharts-axis highcharts-yaxis" data-z-index="2" aria-hidden="true"><path fill="none" class="highcharts-tick" stroke="#ccc" d="M79 325.5H69m10-69H69m10-68H69m10-69H69m10-70H69"/><text x="23.852" data-z-index="7" text-anchor="middle" transform="rotate(-90 23.852 187.5)" class="highcharts-axis-title" style="color:#a3edba;font-weight:300;fill:#a3edba" y="187.5">Temperature</text><path fill="none" class="highcharts-axis-line" data-z-index="7" d="M79 50v275"/></g><g class="highcharts-axis highcharts-yaxis" data-z-index="2" aria-hidden="true"><path fill="none" class="highcharts-tick" stroke="#ccc" d="M508 325.5h10m-10-69h10m-10-68h10m-10-69h10m-10-70h10"/><text x="576.352" data-z-index="7" text-anchor="middle" transform="rotate(90 576.352 187.5)" class="highcharts-axis-title" style="color:#8087e8;font-weight:300;fill:#8087e8" y="187.5">Rainfall</text><path fill="none" class="highcharts-axis-line" data-z-index="7" d="M508 50v275"/></g><g class="highcharts-series-group" data-z-index="3" aria-hidden="false"><g class="highcharts-series highcharts-series-0 highcharts-column-series highcharts-color-0 highcharts-tracker" data-z-index=".1" clip-path="url(#a)" aria-hidden="false" tabindex="-1" aria-label="Rainfall, series 1 of 4. Bar series with 12 bars. Y axis, Rainfall." style="outline:0" fill="#8087E8" stroke="#BBBAC5" transform="translate(79 50)"><path class="highcharts-point highcharts-color-0" tabindex="-1" aria-label="Jan, 49.9. Rainfall." style="outline:0" d="M8.5 218.5h18v57h-18z"/><path class="highcharts-point highcharts-color-0" tabindex="-1" aria-label="Feb, 71.5. Rainfall." style="outline:0" d="M44.5 193.5h18v82h-18z"/><path class="highcharts-point highcharts-color-0" tabindex="-1" aria-label="Mar, 106.4. Rainfall." style="outline:0" d="M80.5 153.5h18v122h-18z"/><path class="highcharts-point highcharts-color-0" tabindex="-1" aria-label="Apr, 129.2. Rainfall." style="outline:0" d="M116.5 127.5h18v148h-18z"/><path class="highcharts-point highcharts-color-0" tabindex="-1" aria-label="May, 144. Rainfall." style="outline:0" d="M151.5 110.5h18v165h-18z"/><path class="highcharts-point highcharts-color-0" tabindex="-1" aria-label="Jun, 176. Rainfall." style="outline:0" d="M187.5 73.5h18v202h-18z"/><path class="highcharts-point highcharts-color-0" tabindex="-1" aria-label="Jul, 135.6. Rainfall." style="outline:0" d="M223.5 120.5h18v155h-18z"/><path class="highcharts-point highcharts-color-0" tabindex="-1" aria-label="Aug, 148.5. Rainfall." style="outline:0" d="M259.5 105.5h18v170h-18z"/><path class="highcharts-point highcharts-color-0" tabindex="-1" aria-label="Sep, 216.4. Rainfall." style="outline:0" d="M294.5 27.5h18v248h-18z"/><path class="highcharts-point highcharts-color-0" tabindex="-1" aria-label="Oct, 194.1. Rainfall." style="outline:0" d="M330.5 53.5h18v222h-18z"/><path class="highcharts-point highcharts-color-0" tabindex="-1" aria-label="Nov, 95.6. Rainfall." style="outline:0" d="M366.5 165.5h18v110h-18z"/><path class="highcharts-point highcharts-color-0" tabindex="-1" aria-label="Dec, 54.4. Rainfall." style="outline:0" d="M402.5 213.5h18v62h-18z"/></g><g class="highcharts-series highcharts-series-1 highcharts-errorbar-series highcharts-tracker" data-z-index=".1" clip-path="url(#a)" aria-hidden="false" tabindex="-1" aria-label="Rainfall error, series 2 of 4 with 12 data points. Y axis, Rainfall." style="outline:0" fill="none" stroke="#fff" transform="translate(79 50)"><g class="highcharts-point" tabindex="-1" aria-label="Jan, low: 48, high: 51. Rainfall error." style="outline:0"><path class="highcharts-boxplot-stem" d="M17.5 220v-4m0 4"/><path class="highcharts-boxplot-whisker" d="M13 216.5h9m-9 4h9"/></g><g class="highcharts-point" tabindex="-1" aria-label="Feb, low: 68, high: 73. Rainfall error." style="outline:0"><path class="highcharts-boxplot-stem" d="M53.5 197v-6m0 6"/><path class="highcharts-boxplot-whisker" d="M49 191.5h9m-9 6h9"/></g><g class="highcharts-point" tabindex="-1" aria-label="Mar, low: 92, high: 110. Rainfall error." style="outline:0"><path class="highcharts-boxplot-stem" d="M89.5 169v-21m0 21"/><path class="highcharts-boxplot-whisker" d="M85 148.5h9m-9 21h9"/></g><g class="highcharts-point" tabindex="-1" aria-label="Apr, low: 128, high: 136. Rainfall error." style="outline:0"><path class="highcharts-boxplot-stem" d="M125.5 128v-9m0 9"/><path class="highcharts-boxplot-whisker" d="M121 119.5h9m-9 9h9"/></g><g class="highcharts-point" tabindex="-1" aria-label="May, low: 140, high: 150. Rainfall error." style="outline:0"><path class="highcharts-boxplot-stem" d="M160.5 114v-11m0 11"/><path class="highcharts-boxplot-whisker" d="M156 103.5h9m-9 11h9"/></g><g class="highcharts-point" tabindex="-1" aria-label="Jun, low: 171, high: 179. Rainfall error." style="outline:0"><path class="highcharts-boxplot-stem" d="M196.5 79V69m0 10"/><path class="highcharts-boxplot-whisker" d="M192 69.5h9m-9 10h9"/></g><g class="highcharts-point" tabindex="-1" aria-label="Jul, low: 135, high: 143. Rainfall error." style="outline:0"><path class="highcharts-boxplot-stem" d="M232.5 120v-9m0 9"/><path class="highcharts-boxplot-whisker" d="M228 111.5h9m-9 9h9"/></g><g class="highcharts-point" tabindex="-1" aria-label="Aug, low: 142, high: 149. Rainfall error." style="outline:0"><path class="highcharts-boxplot-stem" d="M268.5 112v-8m0 8"/><path class="highcharts-boxplot-whisker" d="M264 104.5h9m-9 8h9"/></g><g class="highcharts-point" tabindex="-1" aria-label="Sep, low: 204, high: 220. Rainfall error." style="outline:0"><path class="highcharts-boxplot-stem" d="M303.5 41V22m0 19"/><path class="highcharts-boxplot-whisker" d="M299 22.5h9m-9 19h9"/></g><g class="highcharts-point" tabindex="-1" aria-label="Oct, low: 189, high: 199. Rainfall error." style="outline:0"><path class="highcharts-boxplot-stem" d="M339.5 58V46m0 12"/><path class="highcharts-boxplot-whisker" d="M335 46.5h9m-9 12h9"/></g><g class="highcharts-point" tabindex="-1" aria-label="Nov, low: 95, high: 110. Rainfall error." style="outline:0"><path class="highcharts-boxplot-stem" d="M375.5 166v-18m0 18"/><path class="highcharts-boxplot-whisker" d="M371 148.5h9m-9 18h9"/></g><g class="highcharts-point" tabindex="-1" aria-label="Dec, low: 52, high: 56. Rainfall error." style="outline:0"><path class="highcharts-boxplot-stem" d="M411.5 215v-5m0 5"/><path class="highcharts-boxplot-whisker" d="M407 210.5h9m-9 5h9"/></g></g><g class="highcharts-series highcharts-series-2 highcharts-spline-series highcharts-color-1" data-z-index=".1" clip-path="url(#b)" aria-hidden="true" fill="none" stroke-linejoin="round" stroke-linecap="round" transform="translate(79 50)"><path d="M17.875 214.844s21.45.86 35.75.86 21.45-9.282 35.75-22.345c14.3-13.062 21.45-28.015 35.75-42.968 14.3-14.953 21.45-19.766 35.75-31.797 14.3-12.031 21.45-16.328 35.75-28.36 14.3-12.03 21.45-23.203 35.75-31.796 14.3-8.594 21.45-11.172 35.75-11.172s21.45 13.406 35.75 27.5c14.3 14.093 21.45 26.812 35.75 42.968 14.3 16.157 21.45 22.86 35.75 37.813 14.3 14.953 35.75 36.953 35.75 36.953" class="highcharts-graph" data-z-index="1" stroke="#A3EDBA" stroke-width="2"/><path d="M17.875 214.844s21.45.86 35.75.86 21.45-9.282 35.75-22.345c14.3-13.062 21.45-28.015 35.75-42.968 14.3-14.953 21.45-19.766 35.75-31.797 14.3-12.031 21.45-16.328 35.75-28.36 14.3-12.03 21.45-23.203 35.75-31.796 14.3-8.594 21.45-11.172 35.75-11.172s21.45 13.406 35.75 27.5c14.3 14.093 21.45 26.812 35.75 42.968 14.3 16.157 21.45 22.86 35.75 37.813 14.3 14.953 35.75 36.953 35.75 36.953" data-z-index="2" class="highcharts-tracker-line" stroke="rgba(192,192,192,0.0001)" stroke-width="22"/></g><g class="highcharts-markers highcharts-series-2 highcharts-spline-series highcharts-color-1 highcharts-tracker" data-z-index=".1" aria-hidden="false" tabindex="-1" aria-label="Temperature, series 3 of 4. Line with 12 data points. Y axis, Temperature." style="outline:0" fill="#A3EDBA"><path d="M17 219a4 4 0 1 1 .004 0Z" class="highcharts-point highcharts-color-1" tabindex="-1" aria-label="Jan, 7. Temperature." style="outline:0" transform="translate(79 50)"/><path d="M53 220a4 4 0 1 1 .004 0Z" class="highcharts-point highcharts-color-1" tabindex="-1" aria-label="Feb, 6.9. Temperature." style="outline:0" transform="translate(79 50)"/><path d="M89 197a4 4 0 1 1 .004 0Z" class="highcharts-point highcharts-color-1" tabindex="-1" aria-label="Mar, 9.5. Temperature." style="outline:0" transform="translate(79 50)"/><path d="M125 154a4 4 0 1 1 .004 0Z" class="highcharts-point highcharts-color-1" tabindex="-1" aria-label="Apr, 14.5. Temperature." style="outline:0" transform="translate(79 50)"/><path d="M160 123a4 4 0 1 1 .004 0Z" class="highcharts-point highcharts-color-1" tabindex="-1" aria-label="May, 18.2. Temperature." style="outline:0" transform="translate(79 50)"/><path d="M196 94a4 4 0 1 1 .004 0Z" class="highcharts-point highcharts-color-1" tabindex="-1" aria-label="Jun, 21.5. Temperature." style="outline:0" transform="translate(79 50)"/><path d="M232 62a4 4 0 1 1 .004 0Z" class="highcharts-point highcharts-color-1" tabindex="-1" aria-label="Jul, 25.2. Temperature." style="outline:0" transform="translate(79 50)"/><path d="M268 51a4 4 0 1 1 .004 0Z" class="highcharts-point highcharts-color-1" tabindex="-1" aria-label="Aug, 26.5. Temperature." style="outline:0" transform="translate(79 50)"/><path d="M303 79a4 4 0 1 1 .004 0Z" class="highcharts-point highcharts-color-1" tabindex="-1" aria-label="Sep, 23.3. Temperature." style="outline:0" transform="translate(79 50)"/><path d="M339 122a4 4 0 1 1 .004 0Z" class="highcharts-point highcharts-color-1" tabindex="-1" aria-label="Oct, 18.3. Temperature." style="outline:0" transform="translate(79 50)"/><path d="M375 160a4 4 0 1 1 .004 0Z" class="highcharts-point highcharts-color-1" tabindex="-1" aria-label="Nov, 13.9. Temperature." style="outline:0" transform="translate(79 50)"/><path d="M411 197a4 4 0 1 1 .004 0Z" class="highcharts-point highcharts-color-1" tabindex="-1" aria-label="Dec, 9.6. Temperature." style="outline:0" transform="translate(79 50)"/></g><g class="highcharts-series highcharts-series-3 highcharts-errorbar-series highcharts-tracker" data-z-index=".1" clip-path="url(#b)" aria-hidden="false" tabindex="-1" aria-label="Temperature error, series 4 of 4 with 12 data points. Y axis, Temperature." style="outline:0" fill="none" stroke="#fff" transform="translate(79 50)"><g class="highcharts-point" tabindex="-1" aria-label="Jan, low: 6, high: 8. Temperature error." style="outline:0"><path class="highcharts-boxplot-stem" d="M17.5 223v-17m0 17"/><path class="highcharts-boxplot-whisker" d="M13 206.5h9m-9 17h9"/></g><g class="highcharts-point" tabindex="-1" aria-label="Feb, low: 5.9, high: 7.6. Temperature error." style="outline:0"><path class="highcharts-boxplot-stem" d="M53.5 224v-15m0 15"/><path class="highcharts-boxplot-whisker" d="M49 209.5h9m-9 15h9"/></g><g class="highcharts-point" tabindex="-1" aria-label="Mar, low: 9.4, high: 10.4. Temperature error." style="outline:0"><path class="highcharts-boxplot-stem" d="M89.5 194v-9m0 9"/><path class="highcharts-boxplot-whisker" d="M85 185.5h9m-9 9h9"/></g><g class="highcharts-point" tabindex="-1" aria-label="Apr, low: 14.1, high: 15.9. Temperature error." style="outline:0"><path class="highcharts-boxplot-stem" d="M125.5 153v-15m0 15"/><path class="highcharts-boxplot-whisker" d="M121 138.5h9m-9 15h9"/></g><g class="highcharts-point" tabindex="-1" aria-label="May, low: 18, high: 20.1. Temperature error." style="outline:0"><path class="highcharts-boxplot-stem" d="M160.5 120v-18m0 18"/><path class="highcharts-boxplot-whisker" d="M156 102.5h9m-9 18h9"/></g><g class="highcharts-point" tabindex="-1" aria-label="Jun, low: 21, high: 24. Temperature error." style="outline:0"><path class="highcharts-boxplot-stem" d="M196.5 94V68m0 26"/><path class="highcharts-boxplot-whisker" d="M192 68.5h9m-9 26h9"/></g><g class="highcharts-point" tabindex="-1" aria-label="Jul, low: 23.2, high: 25.3. Temperature error." style="outline:0"><path class="highcharts-boxplot-stem" d="M232.5 75V57m0 18"/><path class="highcharts-boxplot-whisker" d="M228 57.5h9m-9 18h9"/></g><g class="highcharts-point" tabindex="-1" aria-label="Aug, low: 26.1, high: 27.8. Temperature error." style="outline:0"><path class="highcharts-boxplot-stem" d="M268.5 50V36m0 14"/><path class="highcharts-boxplot-whisker" d="M264 36.5h9m-9 14h9"/></g><g class="highcharts-point" tabindex="-1" aria-label="Sep, low: 23.2, high: 23.9. Temperature error." style="outline:0"><path class="highcharts-boxplot-stem" d="M303.5 75v-6m0 6"/><path class="highcharts-boxplot-whisker" d="M299 69.5h9m-9 6h9"/></g><g class="highcharts-point" tabindex="-1" aria-label="Oct, low: 18, high: 21.1. Temperature error." style="outline:0"><path class="highcharts-boxplot-stem" d="M339.5 120V93m0 27"/><path class="highcharts-boxplot-whisker" d="M335 93.5h9m-9 27h9"/></g><g class="highcharts-point" tabindex="-1" aria-label="Nov, low: 12.9, high: 14. Temperature error." style="outline:0"><path class="highcharts-boxplot-stem" d="M375.5 164v-10m0 10"/><path class="highcharts-boxplot-whisker" d="M371 154.5h9m-9 10h9"/></g><g class="highcharts-point" tabindex="-1" aria-label="Dec, low: 7.6, high: 10. Temperature error." style="outline:0"><path class="highcharts-boxplot-stem" d="M411.5 209v-20m0 20"/><path class="highcharts-boxplot-whisker" d="M407 189.5h9m-9 20h9"/></g></g></g><text x="300" text-anchor="middle" class="highcharts-title" data-z-index="4" style="color:#2f2b38;font-size:22px;font-weight:500;fill:#2f2b38" y="27" aria-hidden="true">Temperature vs Rainfall</text><g class="highcharts-legend highcharts-no-tooltip" data-z-index="7" transform="translate(207 359)" aria-hidden="true"><rect fill="#f0f0f0" class="highcharts-legend-box" rx="2" ry="2" stroke="#BBBAC5" x=".5" y=".5" width="184" height="25"/><g data-z-index="1"><g class="highcharts-legend-item highcharts-column-series highcharts-color-0 highcharts-series-0" data-z-index="1" transform="translate(8 3)"><text x="21" data-z-index="2" y="15" style="color:#2f2b38;cursor:pointer;font-size:12px;font-weight:400;fill:#2f2b38">Rainfall</text><rect x="2" y="4" width="12" height="12" fill="#8087E8" rx="6" ry="6" class="highcharts-point" data-z-index="3"/></g><g class="highcharts-legend-item highcharts-spline-series highcharts-color-1 highcharts-series-2" data-z-index="1"><path fill="none" d="M89.023 14h16" class="highcharts-graph" stroke-width="2" stroke="#A3EDBA"/><path fill="#A3EDBA" d="M97.023 18a4 4 0 1 1 .004 0Z" class="highcharts-point"/><text x="21" y="15" data-z-index="2" style="color:#2f2b38;cursor:pointer;font-size:12px;font-weight:400;fill:#2f2b38" transform="translate(89.023 3)">Temperature</text></g></g></g><g class="highcharts-axis-labels highcharts-xaxis-labels" data-z-index="7" aria-hidden="true" text-anchor="middle"><text x="96.875" style="color:#46465c;cursor:default;font-size:12px;fill:#46465c" y="345">Jan</text><text x="132.625" style="color:#46465c;cursor:default;font-size:12px;fill:#46465c" y="345">Feb</text><text x="168.375" style="color:#46465c;cursor:default;font-size:12px;fill:#46465c" y="345">Mar</text><text x="204.125" style="color:#46465c;cursor:default;font-size:12px;fill:#46465c" y="345">Apr</text><text x="239.875" style="color:#46465c;cursor:default;font-size:12px;fill:#46465c" y="345">May</text><text x="275.625" style="color:#46465c;cursor:default;font-size:12px;fill:#46465c" y="345">Jun</text><text x="311.375" style="color:#46465c;cursor:default;font-size:12px;fill:#46465c" y="345">Jul</text><text x="347.125" style="color:#46465c;cursor:default;font-size:12px;fill:#46465c" y="345">Aug</text><text x="382.875" style="color:#46465c;cursor:default;font-size:12px;fill:#46465c" y="345">Sep</text><text x="418.625" style="color:#46465c;cursor:default;font-size:12px;fill:#46465c" y="345">Oct</text><text x="454.375" style="color:#46465c;cursor:default;font-size:12px;fill:#46465c" y="345">Nov</text><text x="490.125" style="color:#46465c;cursor:default;font-size:12px;fill:#46465c" y="345">Dec</text></g><g class="highcharts-axis-labels highcharts-yaxis-labels" data-z-index="7" aria-hidden="true" text-anchor="end"><text x="64" style="color:#a3edba;cursor:default;font-size:12px;fill:#a3edba" y="330">0 °C</text><text x="64" style="color:#a3edba;cursor:default;font-size:12px;fill:#a3edba" y="262">8 °C</text><text x="64" style="color:#a3edba;cursor:default;font-size:12px;fill:#a3edba" y="193">16 °C</text><text x="64" style="color:#a3edba;cursor:default;font-size:12px;fill:#a3edba" y="124">24 °C</text><text x="64" style="color:#a3edba;cursor:default;font-size:12px;fill:#a3edba" y="55">32 °C</text></g><g class="highcharts-axis-labels highcharts-yaxis-labels" data-z-index="7" aria-hidden="true"><text x="523" style="color:#8087e8;cursor:default;font-size:12px;fill:#8087e8" y="330">0 mm</text><text x="523" style="color:#8087e8;cursor:default;font-size:12px;fill:#8087e8" y="262">60 mm</text><text x="523" style="color:#8087e8;cursor:default;font-size:12px;fill:#8087e8" y="193">120 mm</text><text x="523" style="color:#8087e8;cursor:default;font-size:12px;fill:#8087e8" y="124">180 mm</text><text x="523" style="color:#8087e8;cursor:default;font-size:12px;fill:#8087e8" y="55">240 mm</text></g></svg>