<svg class="highcharts-root" style="font-family:&quot;IBM Plex Sans&quot;,sans-serif;font-size:12px" xmlns="http://www.w3.org/2000/svg" width="500" height="400" aria-label="Interactive chart" aria-hidden="false"><defs aria-hidden="true"><linearGradient x1="0" y1="0" x2="0" y2="1" id="a"><stop offset="0" stop-color="#fff"/><stop offset="1" stop-color="#e6e6e6"/></linearGradient><linearGradient x1="0" y1="0" x2="0" y2="1" id="b"><stop offset="0" stop-color="#DDD"/><stop offset="1" stop-color="#FFF"/></linearGradient><clipPath id="c"><path fill="none" d="M0 0h480v335H0z"/></clipPath></defs><rect fill="#f0f0f0" class="highcharts-background" width="500" height="400" rx="0" ry="0" aria-hidden="true"/><path fill="none" class="highcharts-plot-background" aria-hidden="true" d="M10 50h480v335H10z"/><g class="highcharts-pane-group" data-z-index="0" aria-hidden="true"><path fill="url(#a)" d="M250 68.006a149.494 149.494 0 1 1-.15 0M250 217.5" class="highcharts-pane" stroke="#ccc"/></g><g class="highcharts-grid highcharts-yaxis-grid highcharts-radial-axis-grid" data-z-index="1" aria-hidden="true" fill="none"><path class="highcharts-minor-grid-line" d="m250 217.5-58.688 101.65M250 217.5l-71.453 93.12M250 217.5l-82.997 82.997M250 217.5l-93.12 71.453M250 217.5l-101.65 58.687M250 217.5l-108.44 44.917M250 217.5l-113.376 30.379M250 217.5l-116.37 15.32M250 217.5H132.625m117.375 0-116.37-15.32M250 217.5l-113.376-30.379M250 217.5l-108.44-44.917M250 217.5l-101.65-58.688M250 217.5l-93.12-71.453M250 217.5l-82.997-82.997M250 217.5l-71.453-93.12M250 217.5l-58.688-101.65M250 217.5l-44.917-108.44M250 217.5l-30.379-113.376M250 217.5l-15.32-116.37M250 217.5V100.125m0 117.375 15.32-116.37M250 217.5l30.379-113.376M250 217.5l44.917-108.44M250 217.5l58.688-101.65M250 217.5l71.453-93.12M250 217.5l82.997-82.997M250 217.5l93.12-71.453M250 217.5l101.65-58.688M250 217.5l108.44-44.917M250 217.5l113.376-30.379M250 217.5l116.37-15.32M250 217.5h117.375M250 217.5l116.37 15.32M250 217.5l113.376 30.379M250 217.5l108.44 44.917M250 217.5l101.65 58.687M250 217.5l93.12 71.453M250 217.5l82.997 82.997M250 217.5l71.453 93.12M250 217.5l58.688 101.65"/><path data-z-index="1" class="highcharts-grid-line" d="m250 217.5-58.688 101.65M250 217.5l-108.44 44.917M250 217.5l-113.376-30.379M250 217.5l-71.453-93.12M250 217.5V100.125m0 117.375 71.453-93.12M250 217.5l113.376-30.379M250 217.5l108.44 44.917M250 217.5l58.688 101.65"/></g><g class="highcharts-grid highcharts-yaxis-grid highcharts-radial-axis-grid" data-z-index="1" aria-hidden="true" fill="none"><path class="highcharts-minor-grid-line" d="m250 217.5-61.188 105.98M250 217.5l-78.132 94.186M250 217.5l-92.853 79.712M250 217.5l-104.931 62.969M250 217.5l-114.023 44.434M250 217.5l-119.87 24.634M250 217.5l-122.305 4.133M250 217.5l-121.26-16.485M250 217.5l-116.763-36.635M250 217.5l-108.943-55.741M250 217.5l-98.023-73.261M250 217.5l-84.312-88.697M250 217.5l-68.203-101.607M250 217.5l-50.152-111.626M250 217.5 219.326 99.032M250 217.5 239.678 95.561M250 217.5l10.322-121.939M250 217.5l30.674-118.468M250 217.5l50.152-111.626M250 217.5l68.203-101.607M250 217.5l84.312-88.697M250 217.5l98.023-73.261M250 217.5l108.943-55.741M250 217.5l116.763-36.635M250 217.5l121.26-16.485M250 217.5l122.305 4.133M250 217.5l119.87 24.634M250 217.5l114.023 44.434M250 217.5l104.931 62.969M250 217.5l92.853 79.712M250 217.5l78.132 94.186M250 217.5l61.188 105.98"/><path data-z-index="1" class="highcharts-grid-line" d="m250 217.5-61.188 105.98M250 217.5l-119.87 24.634M250 217.5l-98.023-73.261M250 217.5 239.678 95.561M250 217.5l84.312-88.697M250 217.5l122.305 4.133M250 217.5l78.132 94.186"/></g><path fill="none" class="highcharts-plot-border" data-z-index="1" aria-hidden="true" d="M10 50h480v335H10z"/><g class="highcharts-axis highcharts-yaxis highcharts-radial-axis" data-z-index="2" aria-hidden="true" fill="none" stroke="#339"><path class="highcharts-minor-tick" d="m191.312 319.15 2.5-4.33m-15.265-4.2 3.043-3.967m-14.587-6.156 3.536-3.536m-13.659-8.008 3.967-3.043m-12.497-9.723 4.33-2.5m-11.12-11.27 4.619-1.913m-9.555-12.625 4.83-1.294m-7.824-13.765 4.956-.652m-5.961-14.668h5m-3.995-15.32 4.956.652m-1.962-15.711 4.83 1.294m.106-15.832 4.619 1.913m2.171-15.684 4.33 2.5m4.2-15.265 3.967 3.043m6.156-14.587 3.536 3.536m8.008-13.659 3.043 3.967m9.722-12.497 2.5 4.33m11.271-11.12 1.913 4.619m12.625-9.555 1.294 4.83m13.765-7.824.652 4.956M250 100.125v5m15.32-3.995-.652 4.956m15.711-1.962-1.294 4.83m15.832.106-1.913 4.619m15.684 2.171-2.5 4.33m15.265 4.2-3.043 3.967m14.587 6.156-3.536 3.536m13.659 8.008-3.967 3.043m12.497 9.722-4.33 2.5m11.12 11.271-4.619 1.913m9.555 12.625-4.83 1.294m7.824 13.765-4.956.652m5.961 14.668h-5m3.995 15.32-4.956-.652m1.962 15.711-4.83-1.294m-.106 15.832-4.619-1.913m-2.171 15.683-4.33-2.5m-4.2 15.266-3.967-3.043m-6.156 14.587-3.536-3.536m-8.008 13.659-3.043-3.967m-9.722 12.497-2.5-4.33"/><path class="highcharts-tick" d="m191.312 319.15 2.5-4.33m-52.252-52.403 4.619-1.913m-9.555-73.383 4.83 1.294m37.093-64.035 3.043 3.967M250 100.125v5m71.453 19.255-3.043 3.967m44.966 58.774-4.83 1.294m-.106 74.002-4.619-1.913m-45.133 58.646-2.5-4.33"/><path class="highcharts-axis-line" stroke-width="2" data-z-index="7" d="M191.312 319.15a117.375 117.375 0 1 1 117.477-.059M250 217.5"/></g><g class="highcharts-axis highcharts-yaxis highcharts-radial-axis" data-z-index="2" aria-hidden="true" fill="none" stroke="#933"><path class="highcharts-minor-tick" d="m188.812 323.48-2.5 4.33m-14.444-16.124-3.192 3.848m-11.529-18.322-3.794 3.257m-8.284-20-4.288 2.572m-4.804-21.107-4.659 1.815m-1.188-21.615-4.898 1.006m2.463-21.507-4.997.169m6.042-20.787-4.954-.674m9.451-19.476-4.77-1.496m12.59-17.61-4.451-2.278m15.371-15.242-4.005-2.994m17.716-12.442-3.445-3.623m19.554-9.287-2.786-4.152m20.837-5.867-2.049-4.561m21.527-2.281-1.253-4.84m21.605 1.369-.422-4.982m21.066 4.982.422-4.982m19.93 8.453 1.253-4.84m18.225 11.682 2.049-4.561m16.002 14.58 2.786-4.152m13.323 17.062 3.445-3.623m10.266 19.059 4.005-2.994m6.915 20.514 4.451-2.278m3.369 21.384 4.77-1.496m-.273 21.646 4.954-.674m-3.909 21.292 4.997.169m-7.432 20.332 4.898 1.006m-10.745 18.794 4.659 1.815m-13.751 16.72 4.288 2.572m-16.366 14.171 3.794 3.257m-18.515 11.217 3.192 3.848m-20.136 7.946 2.5 4.33"/><path class="highcharts-tick" d="m188.812 323.48-2.5 4.33m-56.182-85.676-4.898 1.006m26.745-98.901-4.005-2.994m91.706-45.684-.422-4.982m95.056 38.224 3.445-3.623m34.548 96.453 4.997.169m-49.17 89.884 3.192 3.848"/><path class="highcharts-axis-line" stroke-width="2" data-z-index="7" d="M188.812 323.48a122.375 122.375 0 1 1 122.481-.061M250 217.5"/></g><g class="highcharts-data-labels highcharts-series-0 highcharts-gauge-series highcharts-color-0 highcharts-tracker" data-z-index="2" aria-hidden="true"><g class="highcharts-label highcharts-data-label highcharts-data-label-color-0" data-z-index="1" transform="translate(221 233)"><rect fill="url(#b)" class="highcharts-label-box highcharts-data-label-box" x=".5" y=".5" width="58" height="41" rx="3" ry="3" stroke="#ccc"/><text x="5" data-z-index="1" y="18" style="color:#46465c;font-size:13px;font-weight:700;fill:#46465c"><tspan class="highcharts-text-outline" fill="#FFF" stroke="#FFF" stroke-width="2" stroke-linejoin="round"><tspan style="color:#339;fill:#339">86 km/h</tspan><tspan class="highcharts-br" dy="16" x="5">​</tspan><tspan style="color:#933;fill:#933">53 mph</tspan><tspan x="5" dy="-16">​</tspan></tspan><tspan style="color:#339;fill:#339">86 km/h</tspan><tspan class="highcharts-br" dy="16" x="5">​</tspan><tspan style="color:#933;fill:#933">53 mph</tspan></text></g></g><g class="highcharts-series-group" data-z-index="3" aria-hidden="false"><g class="highcharts-series highcharts-series-0 highcharts-gauge-series highcharts-color-0 highcharts-tracker" data-z-index=".1" clip-path="url(#c)" aria-hidden="false" transform="translate(10 50)"><path d="M-11.39-1.5h91.12l34.17 1v1l-34.17 1h-91.12Z" transform="rotate(-111 177.56 1.276)" data-z-index="1" class="highcharts-dial" tabindex="-1" aria-label="86 km/h. Speed." style="outline:0"/><circle r="5" data-z-index="2" class="highcharts-pivot" transform="translate(240 167.5)"/></g></g><text x="250" text-anchor="middle" class="highcharts-title" data-z-index="4" style="color:#2f2b38;font-size:22px;font-weight:500;fill:#2f2b38" y="27" aria-hidden="true">Speedometer with dual axes</text><g class="highcharts-axis-labels highcharts-yaxis-labels highcharts-radial-axis-labels" data-z-index="7" aria-hidden="true" text-anchor="middle"><text x="201.312" style="color:#46465c;cursor:default;font-size:12px;fill:#46465c" transform="rotate(-150 201.312 301.83)" y="301.829">0</text><text x="160.037" style="color:#46465c;cursor:default;font-size:12px;fill:#46465c" transform="rotate(-112.5 160.037 254.764)" y="254.764">25</text><text x="155.943" style="color:#46465c;cursor:default;font-size:12px;fill:#46465c" transform="rotate(-75 155.943 192.297)" y="192.297">50</text><text x="190.722" style="color:#46465c;cursor:default;font-size:12px;fill:#46465c" transform="rotate(-37.5 190.722 140.247)" y="140.247">75</text><text x="250" style="color:#46465c;cursor:default;font-size:12px;fill:#46465c" y="120.125">100</text><text x="309.278" style="color:#46465c;cursor:default;font-size:12px;fill:#46465c" transform="rotate(37.5 309.278 140.247)" y="140.247">125</text><text x="344.057" style="color:#46465c;cursor:default;font-size:12px;fill:#46465c" transform="rotate(75 344.057 192.297)" y="192.297">150</text><text x="339.963" style="color:#46465c;cursor:default;font-size:12px;fill:#46465c" transform="rotate(112.5 339.963 254.764)" y="254.764">175</text><text x="298.688" style="color:#46465c;cursor:default;font-size:12px;fill:#46465c" transform="rotate(150 298.688 301.83)" y="301.829">200</text></g><g class="highcharts-axis-labels highcharts-yaxis-labels highcharts-radial-axis-labels" data-z-index="7" aria-hidden="true" text-anchor="middle"><text x="182.812" transform="rotate(-150 182.812 333.872)" y="333.872" style="color:#46465c;cursor:default;font-size:12px;fill:#46465c">0</text><text x="118.376" transform="rotate(-101.613 118.376 244.55)" y="244.549" style="color:#46465c;cursor:default;font-size:12px;fill:#46465c">20</text><text x="142.365" transform="rotate(-53.226 142.365 137.055)" y="137.055" style="color:#46465c;cursor:default;font-size:12px;fill:#46465c">40</text><text x="238.665" transform="rotate(-4.839 238.665 83.604)" y="83.604" style="color:#46465c;cursor:default;font-size:12px;fill:#46465c">60</text><text x="342.58" transform="rotate(43.548 342.58 120.106)" y="120.106" style="color:#46465c;cursor:default;font-size:12px;fill:#46465c">80</text><text x="384.298" transform="rotate(91.935 384.298 222.038)" y="222.038" style="color:#46465c;cursor:default;font-size:12px;fill:#46465c">100</text><text x="335.794" transform="rotate(140.323 335.794 320.922)" y="320.922" style="color:#46465c;cursor:default;font-size:12px;fill:#46465c">120</text></g></svg>