<svg class="highcharts-root" style="font-family:&quot;IBM Plex Sans&quot;,sans-serif;font-size:12px" xmlns="http://www.w3.org/2000/svg" width="600" height="400" aria-label="Interactive chart" aria-hidden="false"><defs aria-hidden="true"><clipPath id="a"><path fill="none" d="M0 0h560v279H0z"/></clipPath></defs><rect fill="#f0f0f0" class="highcharts-background" width="600" height="400" rx="0" ry="0" aria-hidden="true"/><path fill="none" class="highcharts-plot-background" aria-hidden="true" d="M20 106h560v279H20z"/><g class="highcharts-grid highcharts-yaxis-grid" data-z-index="1" aria-hidden="true" fill="none" stroke="#ccc"><path data-z-index="1" class="highcharts-grid-line" d="M20 385.5h560m-560-70h560m-560-69h560m-560-70h560m-560-71h560"/></g><g class="highcharts-grid highcharts-yaxis-grid" data-z-index="1" aria-hidden="true" fill="none"><path data-z-index="1" class="highcharts-grid-line" d="M20 385.5h560m-560-70h560m-560-69h560m-560-70h560m-560-70h560"/></g><path fill="none" class="highcharts-plot-border" data-z-index="1" aria-hidden="true" d="M20 106h560v279H20z"/><g class="highcharts-grid highcharts-xaxis-grid" data-z-index="1" aria-hidden="true" fill="none" stroke="#ccc"><path data-z-index="1" class="highcharts-grid-line" d="M24.5 106v279m129-279v279m128-279v279m128-279v279m128-279v279"/></g><g class="highcharts-axis highcharts-yaxis" data-z-index="2" aria-hidden="true" fill="none"><path class="highcharts-tick" stroke="#ccc" d="M20 385.5H10m10-70H10m10-69H10m10-70H10m10-71H10"/><path class="highcharts-axis-line" data-z-index="7" d="M20 106v279"/></g><g class="highcharts-axis highcharts-yaxis" data-z-index="2" aria-hidden="true" fill="none"><path class="highcharts-tick" stroke="#ccc" d="M580 385.5h10m-10-70h10m-10-69h10m-10-70h10m-10-71h10"/><path class="highcharts-axis-line" data-z-index="7" d="M580 106v279"/></g><g class="highcharts-axis highcharts-xaxis" data-z-index="2" aria-hidden="true"><path fill="none" class="highcharts-axis-line" stroke="#ccc" data-z-index="7" d="M20 385.5h560"/></g><g class="highcharts-series-group" data-z-index="3" aria-hidden="false"><g class="highcharts-series highcharts-series-0 highcharts-line-series highcharts-color-0 popup-on-click" data-z-index=".1" clip-path="url(#a)" aria-hidden="false" tabindex="-1" aria-label="All sessions, line 1 of 2 with 0 data points. Y axis, values." style="outline:0" fill="none" stroke-linejoin="round" stroke-linecap="round" transform="translate(20 106)"><path d="m5.49 135.42 18.3-17.117 18.302-13.162 18.3 25.598 18.3 30.774 18.301 55.026 18.301 19.823 18.3-16.182 18.301-29.672 18.301-20.939 18.3 14.18 18.301-6.298 18.301 37.4 18.3 18.846L261.7 221.17l18.3-50.087 18.3-20.165 18.301-22.892 18.301 9.605 18.3 51.768 18.301-4.98 18.3-40.225 18.302-25.25 18.3-8.593 18.3 15.631 18.302 6.794 18.3 61.296 18.3 22.746 18.301-56.93 18.301-30.69 18.3-2.532" class="highcharts-graph" data-z-index="1" stroke="#8087E8" stroke-width="4"/><path d="m5.49 135.42 18.3-17.117 18.302-13.162 18.3 25.598 18.3 30.774 18.301 55.026 18.301 19.823 18.3-16.182 18.301-29.672 18.301-20.939 18.3 14.18 18.301-6.298 18.301 37.4 18.3 18.846L261.7 221.17l18.3-50.087 18.3-20.165 18.301-22.892 18.301 9.605 18.3 51.768 18.301-4.98 18.3-40.225 18.302-25.25 18.3-8.593 18.3 15.631 18.302 6.794 18.3 61.296 18.3 22.746 18.301-56.93 18.301-30.69 18.3-2.532" data-z-index="2" class="highcharts-tracker-line" stroke="rgba(192,192,192,0.0001)" stroke-width="24" style="cursor:pointer"/></g><g class="highcharts-markers highcharts-series-0 highcharts-line-series highcharts-color-0 popup-on-click highcharts-tracker" data-z-index=".1" aria-hidden="false" style="cursor:pointer;outline:0" tabindex="-1" aria-label="Users, line 1 of 2 with 31 data points. Y axis, values." fill="#8087E8" stroke="#46465C"><path d="M5 139.42a4 4 0 1 1 .004 0Z" class="highcharts-point highcharts-color-0" tabindex="-1" aria-label="Monday, Dec 18, 2017, 40.585. Users." style="outline:0" transform="translate(20 106)"/><path d="M23 122.303a4 4 0 1 1 .004 0Z" class="highcharts-point highcharts-color-0" tabindex="-1" aria-label="Tuesday, Dec 19, 2017, 43.039. Users." style="outline:0" transform="translate(20 106)"/><path d="M42 109.141a4 4 0 1 1 .004 0Z" class="highcharts-point highcharts-color-0" tabindex="-1" aria-label="Wednesday, Dec 20, 2017, 44.926. Users." style="outline:0" transform="translate(20 106)"/><path d="M60 134.74a4 4 0 1 1 .004 0Z" class="highcharts-point highcharts-color-0" tabindex="-1" aria-label="Thursday, Dec 21, 2017, 41.256. Users." style="outline:0" transform="translate(20 106)"/><path d="M78 165.513a4 4 0 1 1 .004 0Z" class="highcharts-point highcharts-color-0" tabindex="-1" aria-label="Friday, Dec 22, 2017, 36.844. Users." style="outline:0" transform="translate(20 106)"/><path d="M96 220.539a4 4 0 1 1 .004 0Z" class="highcharts-point highcharts-color-0" tabindex="-1" aria-label="Saturday, Dec 23, 2017, 28.955. Users." style="outline:0" transform="translate(20 106)"/><path d="M115 240.362a4 4 0 1 1 .004 0Z" class="highcharts-point highcharts-color-0" tabindex="-1" aria-label="Sunday, Dec 24, 2017, 26.113. Users." style="outline:0" transform="translate(20 106)"/><path d="M133 224.18a4 4 0 1 1 .004 0Z" class="highcharts-point highcharts-color-0" tabindex="-1" aria-label="Monday, Dec 25, 2017, 28.433. Users." style="outline:0" transform="translate(20 106)"/><path d="M151 194.508a4 4 0 1 1 .004 0Z" class="highcharts-point highcharts-color-0" tabindex="-1" aria-label="Tuesday, Dec 26, 2017, 32.687. Users." style="outline:0" transform="translate(20 106)"/><path d="M170 173.57a4 4 0 1 1 .004 0Z" class="highcharts-point highcharts-color-0" tabindex="-1" aria-label="Wednesday, Dec 27, 2017, 35.689. Users." style="outline:0" transform="translate(20 106)"/><path d="M188 187.75a4 4 0 1 1 .004 0Z" class="highcharts-point highcharts-color-0" tabindex="-1" aria-label="Thursday, Dec 28, 2017, 33.656. Users." style="outline:0" transform="translate(20 106)"/><path d="M206 181.451a4 4 0 1 1 .004 0Z" class="highcharts-point highcharts-color-0" tabindex="-1" aria-label="Friday, Dec 29, 2017, 34.559. Users." style="outline:0" transform="translate(20 106)"/><path d="M225 218.85a4 4 0 1 1 .004 0Z" class="highcharts-point highcharts-color-0" tabindex="-1" aria-label="Saturday, Dec 30, 2017, 29.197. Users." style="outline:0" transform="translate(20 106)"/><path d="M243 237.697a4 4 0 1 1 .004 0Z" class="highcharts-point highcharts-color-0" tabindex="-1" aria-label="Sunday, Dec 31, 2017, 26.495. Users." style="outline:0" transform="translate(20 106)"/><path d="M261 225.17a4 4 0 1 1 .004 0Z" class="highcharts-point highcharts-color-0" tabindex="-1" aria-label="Monday, Jan 1, 2018, 28.291. Users." style="outline:0" transform="translate(20 106)"/><path d="M280 175.083a4 4 0 1 1 .004 0Z" class="highcharts-point highcharts-color-0" tabindex="-1" aria-label="Tuesday, Jan 2, 2018, 35.472. Users." style="outline:0" transform="translate(20 106)"/><path d="M298 154.918a4 4 0 1 1 .004 0Z" class="highcharts-point highcharts-color-0" tabindex="-1" aria-label="Wednesday, Jan 3, 2018, 38.363. Users." style="outline:0" transform="translate(20 106)"/><path d="M316 132.026a4 4 0 1 1 .004 0Z" class="highcharts-point highcharts-color-0" tabindex="-1" aria-label="Thursday, Jan 4, 2018, 41.645. Users." style="outline:0" transform="translate(20 106)"/><path d="M334 141.63a4 4 0 1 1 .004 0Z" class="highcharts-point highcharts-color-0" tabindex="-1" aria-label="Friday, Jan 5, 2018, 40.268. Users." style="outline:0" transform="translate(20 106)"/><path d="M353 193.4a4 4 0 1 1 .004 0Z" class="highcharts-point highcharts-color-0" tabindex="-1" aria-label="Saturday, Jan 6, 2018, 32.846. Users." style="outline:0" transform="translate(20 106)"/><path d="M371 188.419a4 4 0 1 1 .004 0Z" class="highcharts-point highcharts-color-0" tabindex="-1" aria-label="Sunday, Jan 7, 2018, 33.56. Users." style="outline:0" transform="translate(20 106)"/><path d="M389 148.194a4 4 0 1 1 .004 0Z" class="highcharts-point highcharts-color-0" tabindex="-1" aria-label="Monday, Jan 8, 2018, 39.327. Users." style="outline:0" transform="translate(20 106)"/><path d="M408 122.945a4 4 0 1 1 .004 0Z" class="highcharts-point highcharts-color-0" tabindex="-1" aria-label="Tuesday, Jan 9, 2018, 42.947. Users." style="outline:0" transform="translate(20 106)"/><path d="M426 114.351a4 4 0 1 1 .004 0Z" class="highcharts-point highcharts-color-0" tabindex="-1" aria-label="Wednesday, Jan 10, 2018, 44.179. Users." style="outline:0" transform="translate(20 106)"/><path d="M444 129.982a4 4 0 1 1 .004 0Z" class="highcharts-point highcharts-color-0" tabindex="-1" aria-label="Thursday, Jan 11, 2018, 41.938. Users." style="outline:0" transform="translate(20 106)"/><path d="M463 136.776a4 4 0 1 1 .004 0Z" class="highcharts-point highcharts-color-0" tabindex="-1" aria-label="Friday, Jan 12, 2018, 40.964. Users." style="outline:0" transform="translate(20 106)"/><path d="M481 198.072a4 4 0 1 1 .004 0Z" class="highcharts-point highcharts-color-0" tabindex="-1" aria-label="Saturday, Jan 13, 2018, 32.176. Users." style="outline:0" transform="translate(20 106)"/><path d="M499 220.818a4 4 0 1 1 .004 0Z" class="highcharts-point highcharts-color-0" tabindex="-1" aria-label="Sunday, Jan 14, 2018, 28.915. Users." style="outline:0" transform="translate(20 106)"/><path d="M517 163.888a4 4 0 1 1 .004 0Z" class="highcharts-point highcharts-color-0" tabindex="-1" aria-label="Monday, Jan 15, 2018, 37.077. Users." style="outline:0" transform="translate(20 106)"/><path d="M536 133.198a4 4 0 1 1 .004 0Z" class="highcharts-point highcharts-color-0" tabindex="-1" aria-label="Tuesday, Jan 16, 2018, 41.477. Users." style="outline:0" transform="translate(20 106)"/><path d="M554 130.666a4 4 0 1 1 .004 0Z" class="highcharts-point highcharts-color-0" tabindex="-1" aria-label="Wednesday, Jan 17, 2018, 41.84. Users." style="outline:0" transform="translate(20 106)"/></g><g class="highcharts-series highcharts-series-1 highcharts-line-series highcharts-color-1 popup-on-click" data-z-index=".1" clip-path="url(#a)" aria-hidden="false" tabindex="-1" aria-label="New users, line 2 of 2 with 0 data points. Y axis, values." style="outline:0" fill="none" stroke-linejoin="round" stroke-linecap="round" transform="translate(20 106)"><path d="m5.49 81.252 18.3-21.958 18.302-12.973 18.3 30.278 18.3 39.66 18.301 69.143 18.301 23.709 18.3-22.062 18.301-39.053 18.301-26.394 18.3 18.093 18.301-3.083 18.301 47.772 18.3 19.718 18.301-14.535L280 124.985l18.3-24.908 18.301-27.342 18.301 11.411 18.3 72.52 18.301-6.892 18.3-58.032 18.302-30.962 18.3-13.664 18.3 17.521 18.302 11.767 18.3 83.282 18.3 27.118 18.301-76.543 18.301-37.805 18.3-4.694" class="highcharts-graph" data-z-index="1" stroke="#A3EDBA" stroke-width="2"/><path d="m5.49 81.252 18.3-21.958 18.302-12.973 18.3 30.278 18.3 39.66 18.301 69.143 18.301 23.709 18.3-22.062 18.301-39.053 18.301-26.394 18.3 18.093 18.301-3.083 18.301 47.772 18.3 19.718 18.301-14.535L280 124.985l18.3-24.908 18.301-27.342 18.301 11.411 18.3 72.52 18.301-6.892 18.3-58.032 18.302-30.962 18.3-13.664 18.3 17.521 18.302 11.767 18.3 83.282 18.3 27.118 18.301-76.543 18.301-37.805 18.3-4.694" data-z-index="2" class="highcharts-tracker-line" stroke="rgba(192,192,192,0.0001)" stroke-width="22" style="cursor:pointer"/></g><g class="highcharts-markers highcharts-series-1 highcharts-line-series highcharts-color-1 popup-on-click highcharts-tracker" data-z-index=".1" aria-hidden="false" style="cursor:pointer;outline:0" tabindex="-1" aria-label="Sessions, line 2 of 2 with 31 data points. Y axis, values." fill="#A3EDBA" stroke="#46465C"><path d="m5 77.252 4 4-4 4-4-4Z" class="highcharts-point highcharts-color-1" tabindex="-1" aria-label="Monday, Dec 18, 2017, 48.351. Sessions." style="outline:0" transform="translate(20 106)"/><path d="m23 55.294 4 4-4 4-4-4Z" class="highcharts-point highcharts-color-1" tabindex="-1" aria-label="Tuesday, Dec 19, 2017, 51.499. Sessions." style="outline:0" transform="translate(20 106)"/><path d="m42 42.321 4 4-4 4-4-4Z" class="highcharts-point highcharts-color-1" tabindex="-1" aria-label="Wednesday, Dec 20, 2017, 53.359. Sessions." style="outline:0" transform="translate(20 106)"/><path d="m60 72.6 4 4-4 4-4-4Z" class="highcharts-point highcharts-color-1" tabindex="-1" aria-label="Thursday, Dec 21, 2017, 49.018. Sessions." style="outline:0" transform="translate(20 106)"/><path d="m78 112.26 4 4-4 4-4-4Z" class="highcharts-point highcharts-color-1" tabindex="-1" aria-label="Friday, Dec 22, 2017, 43.332. Sessions." style="outline:0" transform="translate(20 106)"/><path d="m96 181.402 4 4-4 4-4-4Z" class="highcharts-point highcharts-color-1" tabindex="-1" aria-label="Saturday, Dec 23, 2017, 33.419. Sessions." style="outline:0" transform="translate(20 106)"/><path d="m115 205.11 4 4-4 4-4-4Z" class="highcharts-point highcharts-color-1" tabindex="-1" aria-label="Sunday, Dec 24, 2017, 30.02. Sessions." style="outline:0" transform="translate(20 106)"/><path d="m133 183.049 4 4-4 4-4-4Z" class="highcharts-point highcharts-color-1" tabindex="-1" aria-label="Monday, Dec 25, 2017, 33.183. Sessions." style="outline:0" transform="translate(20 106)"/><path d="m151 143.996 4 4-4 4-4-4Z" class="highcharts-point highcharts-color-1" tabindex="-1" aria-label="Tuesday, Dec 26, 2017, 38.782. Sessions." style="outline:0" transform="translate(20 106)"/><path d="m170 117.602 4 4-4 4-4-4Z" class="highcharts-point highcharts-color-1" tabindex="-1" aria-label="Wednesday, Dec 27, 2017, 42.566. Sessions." style="outline:0" transform="translate(20 106)"/><path d="m188 135.695 4 4-4 4-4-4Z" class="highcharts-point highcharts-color-1" tabindex="-1" aria-label="Thursday, Dec 28, 2017, 39.972. Sessions." style="outline:0" transform="translate(20 106)"/><path d="m206 132.612 4 4-4 4-4-4Z" class="highcharts-point highcharts-color-1" tabindex="-1" aria-label="Friday, Dec 29, 2017, 40.414. Sessions." style="outline:0" transform="translate(20 106)"/><path d="m225 180.384 4 4-4 4-4-4Z" class="highcharts-point highcharts-color-1" tabindex="-1" aria-label="Saturday, Dec 30, 2017, 33.565. Sessions." style="outline:0" transform="translate(20 106)"/><path d="m243 200.102 4 4-4 4-4-4Z" class="highcharts-point highcharts-color-1" tabindex="-1" aria-label="Sunday, Dec 31, 2017, 30.738. Sessions." style="outline:0" transform="translate(20 106)"/><path d="m261 185.567 4 4-4 4-4-4Z" class="highcharts-point highcharts-color-1" tabindex="-1" aria-label="Monday, Jan 1, 2018, 32.822. Sessions." style="outline:0" transform="translate(20 106)"/><path d="m280 120.985 4 4-4 4-4-4Z" class="highcharts-point highcharts-color-1" tabindex="-1" aria-label="Tuesday, Jan 2, 2018, 42.081. Sessions." style="outline:0" transform="translate(20 106)"/><path d="m298 96.077 4 4-4 4-4-4Z" class="highcharts-point highcharts-color-1" tabindex="-1" aria-label="Wednesday, Jan 3, 2018, 45.652. Sessions." style="outline:0" transform="translate(20 106)"/><path d="m316 68.735 4 4-4 4-4-4Z" class="highcharts-point highcharts-color-1" tabindex="-1" aria-label="Thursday, Jan 4, 2018, 49.572. Sessions." style="outline:0" transform="translate(20 106)"/><path d="m334 80.146 4 4-4 4-4-4Z" class="highcharts-point highcharts-color-1" tabindex="-1" aria-label="Friday, Jan 5, 2018, 47.936. Sessions." style="outline:0" transform="translate(20 106)"/><path d="m353 152.665 4 4-4 4-4-4Z" class="highcharts-point highcharts-color-1" tabindex="-1" aria-label="Saturday, Jan 6, 2018, 37.539. Sessions." style="outline:0" transform="translate(20 106)"/><path d="m371 145.774 4 4-4 4-4-4Z" class="highcharts-point highcharts-color-1" tabindex="-1" aria-label="Sunday, Jan 7, 2018, 38.527. Sessions." style="outline:0" transform="translate(20 106)"/><path d="m389 87.742 4 4-4 4-4-4Z" class="highcharts-point highcharts-color-1" tabindex="-1" aria-label="Monday, Jan 8, 2018, 46.847. Sessions." style="outline:0" transform="translate(20 106)"/><path d="m408 56.78 4 4-4 4-4-4Z" class="highcharts-point highcharts-color-1" tabindex="-1" aria-label="Tuesday, Jan 9, 2018, 51.286. Sessions." style="outline:0" transform="translate(20 106)"/><path d="m426 43.116 4 4-4 4-4-4Z" class="highcharts-point highcharts-color-1" tabindex="-1" aria-label="Wednesday, Jan 10, 2018, 53.245. Sessions." style="outline:0" transform="translate(20 106)"/><path d="m444 60.637 4 4-4 4-4-4Z" class="highcharts-point highcharts-color-1" tabindex="-1" aria-label="Thursday, Jan 11, 2018, 50.733. Sessions." style="outline:0" transform="translate(20 106)"/><path d="m463 72.404 4 4-4 4-4-4Z" class="highcharts-point highcharts-color-1" tabindex="-1" aria-label="Friday, Jan 12, 2018, 49.046. Sessions." style="outline:0" transform="translate(20 106)"/><path d="m481 155.686 4 4-4 4-4-4Z" class="highcharts-point highcharts-color-1" tabindex="-1" aria-label="Saturday, Jan 13, 2018, 37.106. Sessions." style="outline:0" transform="translate(20 106)"/><path d="m499 182.804 4 4-4 4-4-4Z" class="highcharts-point highcharts-color-1" tabindex="-1" aria-label="Sunday, Jan 14, 2018, 33.218. Sessions." style="outline:0" transform="translate(20 106)"/><path d="m517 106.26 4 4-4 4-4-4Z" class="highcharts-point highcharts-color-1" tabindex="-1" aria-label="Monday, Jan 15, 2018, 44.192. Sessions." style="outline:0" transform="translate(20 106)"/><path d="m536 68.456 4 4-4 4-4-4Z" class="highcharts-point highcharts-color-1" tabindex="-1" aria-label="Tuesday, Jan 16, 2018, 49.612. Sessions." style="outline:0" transform="translate(20 106)"/><path d="m554 63.762 4 4-4 4-4-4Z" class="highcharts-point highcharts-color-1" tabindex="-1" aria-label="Wednesday, Jan 17, 2018, 50.285. Sessions." style="outline:0" transform="translate(20 106)"/></g></g><g data-z-index="3" aria-hidden="true"><text data-z-index="1" y="12" style="color:#8087e8;font-weight:700;fill:#8087e8" transform="translate(395 293)" class="highcharts-label highcharts-series-label highcharts-series-label-0 popup-on-click highcharts-color-0">Users</text></g><g data-z-index="3" aria-hidden="true"><text data-z-index="1" y="12" style="color:#a3edba;font-weight:700;fill:#a3edba" transform="translate(519 157)" class="highcharts-label highcharts-series-label highcharts-series-label-1 popup-on-click highcharts-color-1">Sessions</text></g><text x="300" text-anchor="middle" class="highcharts-title" data-z-index="4" style="color:#2f2b38;font-size:22px;font-weight:500;fill:#2f2b38" y="27" aria-hidden="true">Daily sessions at www.highcharts.com</text><text x="300" text-anchor="middle" class="highcharts-subtitle" data-z-index="4" style="color:#2f2b38;font-size:16px;font-weight:400;fill:#2f2b38" y="52" aria-hidden="true">Source: Google Analytics</text><g class="highcharts-legend highcharts-no-tooltip" data-z-index="7" transform="translate(10 68)" aria-hidden="true"><rect fill="#f0f0f0" class="highcharts-legend-box" rx="2" ry="2" width="158" height="26"/><g data-z-index="1"><g class="highcharts-legend-item highcharts-line-series highcharts-color-0 popup-on-click highcharts-series-0" data-z-index="1"><path fill="none" d="M8 14h16" class="highcharts-graph" stroke-width="4" stroke="#8087E8"/><path fill="#8087E8" d="M16 18a4 4 0 1 1 .004 0Z" class="highcharts-point" stroke="#46465C"/><text x="21" y="15" data-z-index="2" style="color:#2f2b38;cursor:pointer;font-size:12px;font-weight:400;fill:#2f2b38" transform="translate(8 3)">Users</text></g><g class="highcharts-legend-item highcharts-line-series highcharts-color-1 popup-on-click highcharts-series-1" data-z-index="1"><path fill="none" d="M80.336 14h16" class="highcharts-graph" stroke-width="2" stroke="#A3EDBA"/><path fill="#A3EDBA" d="m88.336 10 4 4-4 4-4-4Z" class="highcharts-point" stroke="#46465C"/><text x="21" y="15" data-z-index="2" style="color:#2f2b38;cursor:pointer;font-size:12px;font-weight:400;fill:#2f2b38" transform="translate(80.336 3)">Sessions</text></g></g></g><g class="highcharts-axis-labels highcharts-yaxis-labels" data-z-index="7" aria-hidden="true"><text x="23" style="color:#46465c;cursor:default;font-size:12px;fill:#46465c" y="331">30</text><text x="23" style="color:#46465c;cursor:default;font-size:12px;fill:#46465c" y="262">40</text><text x="23" style="color:#46465c;cursor:default;font-size:12px;fill:#46465c" y="192">50</text><text x="23" style="color:#46465c;cursor:default;font-size:12px;fill:#46465c" y="122">60</text></g><g class="highcharts-axis-labels highcharts-yaxis-labels" data-z-index="7" aria-hidden="true" text-anchor="end"><text x="577" style="color:#46465c;cursor:default;font-size:12px;fill:#46465c" y="331">30</text><text x="577" style="color:#46465c;cursor:default;font-size:12px;fill:#46465c" y="262">40</text><text x="577" style="color:#46465c;cursor:default;font-size:12px;fill:#46465c" y="192">50</text><text x="577" style="color:#46465c;cursor:default;font-size:12px;fill:#46465c" y="122">60</text></g><g class="highcharts-axis-labels highcharts-xaxis-labels" data-z-index="7" aria-hidden="true"><text x="28.49" style="color:#46465c;cursor:default;font-size:12px;fill:#46465c" y="382">18. Dec</text><text x="156.595" style="color:#46465c;cursor:default;font-size:12px;fill:#46465c" y="382">25. Dec</text><text x="284.699" style="color:#46465c;cursor:default;font-size:12px;fill:#46465c" y="382">1. Jan</text><text x="412.804" style="color:#46465c;cursor:default;font-size:12px;fill:#46465c" y="382">8. Jan</text><text x="540.908" style="color:#46465c;cursor:default;font-size:12px;fill:#46465c" y="382">15. Jan</text></g></svg>