<svg class="highcharts-root" style="font-family:&quot;IBM Plex Sans&quot;,sans-serif;font-size:12px" xmlns="http://www.w3.org/2000/svg" width="600" height="400" aria-label="Interactive chart" aria-hidden="false"><defs aria-hidden="true"><clipPath id="a"><path fill="none" d="M0 0h531v276H0z"/></clipPath></defs><rect fill="#f0f0f0" class="highcharts-background" width="600" height="400" rx="0" ry="0" aria-hidden="true"/><path fill="none" class="highcharts-plot-background" aria-hidden="true" d="M59 50h531v276H59z"/><path fill="none" class="highcharts-plot-border" data-z-index="1" aria-hidden="true" d="M59 50h531v276H59z"/><g class="highcharts-grid highcharts-xaxis-grid" data-z-index="1" aria-hidden="true" fill="none"><path data-z-index="1" class="highcharts-grid-line" d="M97.5 50v276m115-276v276m116-276v276m116-276v276m115-276v276"/></g><g class="highcharts-grid highcharts-yaxis-grid" data-z-index="1" aria-hidden="true" fill="none" stroke="#ccc"><path data-z-index="1" class="highcharts-grid-line" d="M59 326.5h531m-531-46h531m-531-46h531m-531-46h531m-531-46h531m-531-46h531m-531-47h531"/></g><g class="highcharts-axis highcharts-xaxis" data-z-index="2" aria-hidden="true" fill="none" stroke="#ccc"><path class="highcharts-tick" d="M97.5 326v10m115-10v10m116-10v10m116-10v10m115-10v10"/><path class="highcharts-axis-line" data-z-index="7" d="M59 326.5h531"/></g><g class="highcharts-axis highcharts-yaxis" data-z-index="2" aria-hidden="true"><path fill="none" class="highcharts-tick" stroke="#ccc" d="M59 326.5H49m10-46H49m10-46H49m10-46H49m10-46H49m10-46H49m10-47H49"/><text x="23.328" data-z-index="7" text-anchor="middle" transform="rotate(-90 23.328 188)" class="highcharts-axis-title" style="color:#2f2b38;font-weight:300;fill:#2f2b38" y="188">Values</text><path fill="none" class="highcharts-axis-line" data-z-index="7" d="M59 50v276"/></g><g class="highcharts-series-group" data-z-index="3" aria-hidden="false"><g class="highcharts-series highcharts-series-0 highcharts-spline-series highcharts-color-0" data-z-index=".1" clip-path="url(#a)" aria-hidden="true" fill="none" stroke-linejoin="round" stroke-linecap="round" transform="translate(59 50)"><path d="M5.206 96.51s34.706 77.22 57.843 104.91c23.137 27.689 34.706 33.539 57.843 33.539s34.706-22.803 57.843-22.803c23.138 0 34.706 38.882 57.843 38.882 23.138 0 34.706-214.57 57.844-214.57 23.137 0 34.705 0 57.843 4.801 23.137 4.8 34.706 59.6 57.843 92.789 23.137 33.188 34.706 73.154 57.843 73.154s57.843-1.387 57.843-1.387" class="highcharts-graph" data-z-index="1" stroke="#8087E8" stroke-width="2"/><path d="M5.206 96.51s34.706 77.22 57.843 104.91c23.137 27.689 34.706 33.539 57.843 33.539s34.706-22.803 57.843-22.803c23.138 0 34.706 38.882 57.843 38.882 23.138 0 34.706-214.57 57.844-214.57 23.137 0 34.705 0 57.843 4.801 23.137 4.8 34.706 59.6 57.843 92.789 23.137 33.188 34.706 73.154 57.843 73.154s57.843-1.387 57.843-1.387" data-z-index="2" class="highcharts-tracker-line" stroke="rgba(192,192,192,0.0001)" stroke-width="22"/></g><g class="highcharts-markers highcharts-series-0 highcharts-spline-series highcharts-color-0 highcharts-tracker" data-z-index=".1" aria-hidden="false" fill="#8087E8"><path d="M5 100.51a4 4 0 1 1 .004 0Z" class="highcharts-point highcharts-color-0" tabindex="-1" aria-label="Wednesday, Nov 30, 08:01:25.421, 1.8039197867172585. Value." style="outline:0" transform="translate(59 50)"/><path d="M63 205.42a4 4 0 1 1 .004 0Z" class="highcharts-point highcharts-negative highcharts-color-0" tabindex="-1" aria-label="Wednesday, Nov 30, 08:01:26.421, -2.7573519162142057. Value." style="outline:0" transform="translate(59 50)"/><path d="M120 238.959a4 4 0 1 1 .004 0Z" class="highcharts-point highcharts-negative highcharts-color-0" tabindex="-1" aria-label="Wednesday, Nov 30, 08:01:27.421, -4.215610739768721. Value." style="outline:0" transform="translate(59 50)"/><path d="M178 216.156a4 4 0 1 1 .004 0Z" class="highcharts-point highcharts-negative highcharts-color-0" tabindex="-1" aria-label="Wednesday, Nov 30, 08:01:28.421, -3.224152508557083. Value." style="outline:0" transform="translate(59 50)"/><path d="M236 255.038a4 4 0 1 1 .004 0Z" class="highcharts-point highcharts-negative highcharts-color-0" tabindex="-1" aria-label="Wednesday, Nov 30, 08:01:29.421, -4.914697202825465. Value." style="outline:0" transform="translate(59 50)"/><path d="M294 40.469a4 4 0 1 1 .004 0Z" class="highcharts-point highcharts-color-0" tabindex="-1" aria-label="Wednesday, Nov 30, 08:01:30.421, 4.414406389411408. Value." style="outline:0" transform="translate(59 50)"/><path d="M352 45.27a4 4 0 1 1 .004 0Z" class="highcharts-point highcharts-color-0" tabindex="-1" aria-label="Wednesday, Nov 30, 08:01:31.421, 4.205693160927613. Value." style="outline:0" transform="translate(59 50)"/><path d="M410 138.058a4 4 0 1 1 .004 0Z" class="highcharts-point highcharts-color-0" tabindex="-1" aria-label="Wednesday, Nov 30, 08:01:32.421, 0.17140687848280756. Value." style="outline:0" transform="translate(59 50)"/><path d="M467 211a4 4 0 1 1 .004 0Z" class="highcharts-point highcharts-negative highcharts-color-0" tabindex="-1" aria-label="Wednesday, Nov 30, 08:01:33.421, -3.0092341606553923. Value." style="outline:0" transform="translate(59 50)"/><path d="M525 210a4 4 0 1 1 .004 0Z" class="highcharts-point highcharts-negative highcharts-color-0" tabindex="-1" aria-label="Wednesday, Nov 30, 08:01:34.421, -2.9489032070707673. Value." style="outline:0" transform="translate(59 50)"/></g></g><text x="300" text-anchor="middle" class="highcharts-title" data-z-index="4" style="color:#2f2b38;font-size:22px;font-weight:500;fill:#2f2b38" y="27" aria-hidden="true">Live Data</text><g class="highcharts-legend highcharts-no-tooltip" data-z-index="7" transform="translate(267 359)" aria-hidden="true"><rect fill="#f0f0f0" class="highcharts-legend-box" rx="2" ry="2" stroke="#BBBAC5" x=".5" y=".5" width="65" height="25"/><g class="highcharts-legend-item highcharts-spline-series highcharts-color-0 highcharts-series-0" data-z-index="1"><path fill="none" d="M8 14h16" class="highcharts-graph" stroke-width="2" stroke="#8087E8"/><path fill="#8087E8" d="M16 18a4 4 0 1 1 .004 0Z" class="highcharts-point"/><text x="21" y="15" data-z-index="2" style="color:#2f2b38;cursor:pointer;font-size:12px;font-weight:400;fill:#2f2b38" transform="translate(8 3)">Value</text></g></g><g class="highcharts-axis-labels highcharts-xaxis-labels" data-z-index="7" aria-hidden="true" text-anchor="middle"><text x="97.697" style="color:#46465c;cursor:default;font-size:12px;fill:#46465c" y="346">08:01:26</text><text x="213.383" style="color:#46465c;cursor:default;font-size:12px;fill:#46465c" y="346">08:01:28</text><text x="329.07" y="346" style="color:#46465c;cursor:default;font-size:12px;fill:#46465c">08:01:30</text><text x="444.756" y="346" style="color:#46465c;cursor:default;font-size:12px;fill:#46465c">08:01:32</text><text x="560.442" y="346" style="color:#46465c;cursor:default;font-size:12px;fill:#46465c">08:01:34</text></g><g class="highcharts-axis-labels highcharts-yaxis-labels" data-z-index="7" aria-hidden="true" text-anchor="end"><text x="44" style="color:#46465c;cursor:default;font-size:12px;fill:#46465c" y="331">-6</text><text x="44" style="color:#46465c;cursor:default;font-size:12px;fill:#46465c" y="285">-4</text><text x="44" style="color:#46465c;cursor:default;font-size:12px;fill:#46465c" y="239">-2</text><text x="44" style="color:#46465c;cursor:default;font-size:12px;fill:#46465c" y="193">0</text><text x="44" style="color:#46465c;cursor:default;font-size:12px;fill:#46465c" y="147">2</text><text x="44" style="color:#46465c;cursor:default;font-size:12px;fill:#46465c" y="101">4</text><text x="44" style="color:#46465c;cursor:default;font-size:12px;fill:#46465c" y="55">6</text></g></svg>