<svg class="highcharts-root" style="font-family:&quot;IBM Plex Sans&quot;,sans-serif;font-size:12px" xmlns="http://www.w3.org/2000/svg" width="600" height="600" aria-label="Interactive chart" aria-hidden="false"><defs aria-hidden="true"><clipPath id="a"><path fill="none" d="M0 0h535v580H0z"/></clipPath></defs><rect fill="#f0f0f0" class="highcharts-background" width="600" height="600" rx="0" ry="0" aria-hidden="true"/><path fill="none" class="highcharts-plot-background" aria-hidden="true" d="M10 50h580v535H10z"/><path fill="none" class="highcharts-plot-border" data-z-index="1" aria-hidden="true" d="M10 50h580v535H10z"/><g class="highcharts-series-group" data-z-index="3" aria-hidden="false"><g class="highcharts-series highcharts-series-0 highcharts-organization-series highcharts-tracker" data-z-index=".1" clip-path="url(#a)" aria-hidden="false" transform="matrix(0 -1 -1 0 590 585)"><path fill="none" d="M469.5 290.5h-29" stroke="#666" opacity=".5" class="highcharts-link highcharts-point highcharts-null-point" tabindex="-1" aria-label="0. Board, reports to Shareholders." style="outline:0"/><path fill="none" d="M375.5 290.5h-29" stroke="#666" opacity=".5" class="highcharts-link highcharts-point highcharts-null-point" tabindex="-1" aria-label="1. Atle Sivertsen, CEO, reports to Board." style="outline:0"/><path fill="none" d="M281.5 290.5h-4c-10 0-10 0-10 10v201c0 10 0 10-10 10h-4" stroke="#666" opacity=".5" class="highcharts-link highcharts-point highcharts-null-point" tabindex="-1" aria-label="2. Christer Vasseng, CTO, reports to CEO." style="outline:0"/><path fill="none" d="M281.5 290.5h-4c-10 0-10 0-10 10v54c0 10 0 10-10 10h-4" stroke="#666" opacity=".5" class="highcharts-link highcharts-point highcharts-null-point" tabindex="-1" aria-label="3. Torstein Hønsi, CPO, reports to CEO." style="outline:0"/><path fill="none" d="M281.5 290.5h-4c-10 0-10 0-10-10v-54c0-10 0-10-10-10h-4" stroke="#666" opacity=".5" class="highcharts-link highcharts-point highcharts-null-point" tabindex="-1" aria-label="4. Anita Nesse, CSO, reports to CEO." style="outline:0"/><path fill="none" d="M281.5 290.5h-4c-10 0-10 0-10-10v-201c0-10 0-10-10-10h-4" stroke="#666" opacity=".5" class="highcharts-link highcharts-point highcharts-null-point" tabindex="-1" aria-label="5. Anne Jorunn Fjærestad, HR, reports to CEO." style="outline:0"/><path fill="none" d="M188.5 511.5h-5c-10 0-10 0-10-10v-54c0-10 0-10-10-10h-4" stroke="#666" opacity=".5" class="highcharts-link highcharts-point highcharts-null-point" tabindex="-1" aria-label="6. Product developers, Product, reports to CTO." style="outline:0"/><path fill="none" d="M188.5 511.5h-5c-10 0-10 0-10-10v-201c0-10 0-10-10-10h-4" stroke="#666" opacity=".5" class="highcharts-link highcharts-point highcharts-null-point" tabindex="-1" aria-label="7. Web devs, sys admin, Web, reports to CTO." style="outline:0"/><path fill="none" d="M188.5 216.5h-5c-10 0-10 0-10-10v-53c0-10 0-10-10-10h-4" stroke="#666" opacity=".5" class="highcharts-link highcharts-point highcharts-null-point" tabindex="-1" aria-label="8. Sales team, Sales, reports to CSO." style="outline:0"/><path fill="none" d="M188.5 69.5h-99c-10 0-10 0-10 10v201c0 10 0 10-10 10h-4" stroke="#666" opacity=".5" class="highcharts-link highcharts-point highcharts-null-point" tabindex="-1" aria-label="9. Marketing team, Market, reports to HR." style="outline:0"/><path fill="none" d="M188.5 216.5h-99c-10 0-10 0-10 10v54c0 10 0 10-10 10h-4" stroke="#666" opacity=".5" class="highcharts-link highcharts-point highcharts-null-point" tabindex="-1" aria-label="10. Marketing team, Market, reports to CSO." style="outline:0"/><path fill="none" d="M188.5 69.5h-99c-10 0-10 0-10 10v201c0 10 0 10-10 10h-4" stroke="#666" opacity=".5" class="highcharts-link highcharts-point highcharts-null-point" tabindex="-1" aria-label="11. Marketing team, Market, reports to HR." style="outline:0"/><path fill="none" d="M188.5 511.5h-99c-10 0-10 0-10-10v-201c0-10 0-10-10-10h-4" stroke="#666" opacity=".5" class="highcharts-link highcharts-point highcharts-null-point" tabindex="-1" aria-label="12. Marketing team, Market, reports to CTO." style="outline:0"/><rect x="469.5" y="221.5" width="65" height="137" fill="silver" rx="3" ry="3" stroke="#fff" class="highcharts-node highcharts-point"/><rect x="375.5" y="221.5" width="65" height="137" fill="silver" rx="3" ry="3" stroke="#fff" class="highcharts-node highcharts-point"/><rect x="281.5" y="221.5" width="65" height="137" fill="#980104" rx="3" ry="3" stroke="#fff" class="highcharts-node highcharts-point"/><rect x="188.5" y="442.5" width="65" height="137" fill="#007ad0" rx="3" ry="3" stroke="#fff" class="highcharts-node highcharts-point"/><rect x="188.5" y="295.5" width="65" height="137" fill="#007ad0" rx="3" ry="3" stroke="#fff" class="highcharts-node highcharts-point"/><rect x="188.5" y="147.5" width="65" height="137" fill="#007ad0" rx="3" ry="3" stroke="#fff" class="highcharts-node highcharts-point"/><rect x="188.5" y=".5" width="65" height="137" fill="#007ad0" rx="3" ry="3" stroke="#fff" class="highcharts-node highcharts-point"/><rect x="94.5" y="368.5" width="65" height="137" fill="#359154" rx="3" ry="3" stroke="#fff" class="highcharts-node highcharts-point"/><rect x="94.5" y="221.5" width="65" height="137" fill="#359154" rx="3" ry="3" stroke="#fff" class="highcharts-node highcharts-point"/><rect x="94.5" y="74.5" width="65" height="137" fill="#359154" rx="3" ry="3" stroke="#fff" class="highcharts-node highcharts-point"/><rect x=".5" y="221.5" width="65" height="137" fill="#359154" rx="3" ry="3" stroke="#fff" class="highcharts-node highcharts-point"/></g></g><text x="300" text-anchor="middle" class="highcharts-title" data-z-index="4" style="color:#2f2b38;font-size:22px;font-weight:500;fill:#2f2b38" y="27" aria-hidden="true">Highcharts Org Chart</text><g class="highcharts-data-labels highcharts-series-0 highcharts-organization-series highcharts-tracker" data-z-index="6" aria-hidden="true"><g class="highcharts-label highcharts-data-label highcharts-data-label-color-undefined highcharts-tracker" data-z-index="1" transform="translate(237 56)"><rect fill="none" class="highcharts-label-box highcharts-data-label-box" width="136" height="64" rx="0" ry="0"/></g><g class="highcharts-label highcharts-data-label highcharts-data-label-color-undefined highcharts-tracker" data-z-index="1" transform="translate(237 150)"><rect fill="none" class="highcharts-label-box highcharts-data-label-box" width="136" height="64" rx="0" ry="0"/></g><g class="highcharts-label highcharts-data-label highcharts-data-label-color-undefined highcharts-tracker" data-z-index="1" transform="translate(237 244)"><rect fill="none" class="highcharts-label-box highcharts-data-label-box" width="10" height="26" rx="0" ry="0"/></g><g class="highcharts-label highcharts-data-label highcharts-data-label-color-undefined highcharts-tracker" data-z-index="1" transform="translate(16 337)"><rect fill="none" class="highcharts-label-box highcharts-data-label-box" width="10" height="26" rx="0" ry="0"/></g><g class="highcharts-label highcharts-data-label highcharts-data-label-color-undefined highcharts-tracker" data-z-index="1" transform="translate(163 337)"><rect fill="none" class="highcharts-label-box highcharts-data-label-box" width="10" height="26" rx="0" ry="0"/></g><g class="highcharts-label highcharts-data-label highcharts-data-label-color-undefined highcharts-tracker" data-z-index="1" transform="translate(311 337)"><rect fill="none" class="highcharts-label-box highcharts-data-label-box" width="10" height="26" rx="0" ry="0"/></g><g class="highcharts-label highcharts-data-label highcharts-data-label-color-undefined highcharts-tracker" data-z-index="1" transform="translate(458 337)"><rect fill="none" class="highcharts-label-box highcharts-data-label-box" width="10" height="26" rx="0" ry="0"/></g><g class="highcharts-label highcharts-data-label highcharts-data-label-color-undefined highcharts-tracker" data-z-index="1" transform="translate(90 431)"><rect fill="none" class="highcharts-label-box highcharts-data-label-box" width="136" height="64" rx="0" ry="0"/></g><g class="highcharts-label highcharts-data-label highcharts-data-label-color-undefined highcharts-tracker" data-z-index="1" transform="translate(237 431)"><rect fill="none" class="highcharts-label-box highcharts-data-label-box" width="136" height="64" rx="0" ry="0"/></g><g class="highcharts-label highcharts-data-label highcharts-data-label-color-undefined highcharts-tracker" data-z-index="1" transform="translate(384 431)"><rect fill="none" class="highcharts-label-box highcharts-data-label-box" width="136" height="64" rx="0" ry="0"/></g><g class="highcharts-label highcharts-data-label highcharts-data-label-color-undefined highcharts-tracker" data-z-index="1" transform="translate(237 525)"><rect fill="none" class="highcharts-label-box highcharts-data-label-box" width="136" height="64" rx="0" ry="0"/></g></g></svg>