<svg class="highcharts-root" style="font-family:&quot;IBM Plex Sans&quot;,sans-serif;font-size:12px" xmlns="http://www.w3.org/2000/svg" width="600" height="400" aria-label="Interactive chart" aria-hidden="false"><defs aria-hidden="true"><clipPath id="b"><path fill="none" d="M0 0h499v216H0z"/></clipPath><clipPath id="a"><path fill="none" d="M0 0h499v216H0z"/></clipPath></defs><rect fill="#f0f0f0" class="highcharts-background" width="600" height="400" rx="0" ry="0" aria-hidden="true"/><path fill="none" class="highcharts-plot-background" aria-hidden="true" d="M45 50h499v216H45z"/><g class="highcharts-grid highcharts-xaxis-grid" data-z-index="1" aria-hidden="true" fill="none"><path data-z-index="1" class="highcharts-grid-line" d="M106.5 50v216m63-216v216m62-216v216m63-216v216m62-216v216m62-216v216m63-216v216m62-216v216M44.5 50v216"/></g><g class="highcharts-grid highcharts-yaxis-grid" data-z-index="1" aria-hidden="true" fill="none" stroke="#ccc"><path data-z-index="1" class="highcharts-grid-line" d="M45 266.5h499m-499-72h499m-499-72h499m-499-73h499"/></g><g class="highcharts-grid highcharts-yaxis-grid" data-z-index="1" aria-hidden="true" fill="none" stroke="#ccc"><path data-z-index="1" class="highcharts-grid-line" d="M45 266.5h499m-499-72h499m-499-72h499m-499-73h499"/></g><path fill="none" class="highcharts-plot-border" data-z-index="1" aria-hidden="true" d="M45 50h499v216H45z"/><g class="highcharts-axis highcharts-xaxis" data-z-index="2" aria-hidden="true"><path fill="none" class="highcharts-axis-line" stroke="#ccc" data-z-index="7" d="M45 266.5h499"/></g><g class="highcharts-axis highcharts-yaxis" data-z-index="2" aria-hidden="true" fill="none"><path class="highcharts-tick" stroke="#ccc" d="M45 266.5H35m10-72H35m10-72H35m10-73H35"/><path class="highcharts-axis-line" data-z-index="7" d="M45 50v216"/></g><g class="highcharts-axis highcharts-yaxis" data-z-index="2" aria-hidden="true" fill="none"><path class="highcharts-tick" stroke="#ccc" d="M544 266.5h10m-10-72h10m-10-72h10m-10-73h10"/><path class="highcharts-axis-line" data-z-index="7" d="M544 50v216"/></g><g class="highcharts-series-group" data-z-index="3" aria-hidden="false"><g class="highcharts-series highcharts-series-1 highcharts-column-series highcharts-color-1 highcharts-tracker" data-z-index="2" clip-path="url(#a)" aria-hidden="false" tabindex="-1" aria-label="Complaints, series 2 of 2. Bar series with 8 bars. Y axis, values." style="outline:0" fill="#A3EDBA" stroke="#BBBAC5" transform="translate(45 50)"><path class="highcharts-point highcharts-color-1" tabindex="-1" aria-label="Overpriced, 755. Complaints." style="outline:0" d="M15.5 35.5h30v181h-30z"/><path class="highcharts-point highcharts-color-1" tabindex="-1" aria-label="Small portions, 222. Complaints." style="outline:0" d="M78.5 163.5h30v53h-30z"/><path class="highcharts-point highcharts-color-1" tabindex="-1" aria-label="Wait time, 151. Complaints." style="outline:0" d="M140.5 180.5h30v36h-30z"/><path class="highcharts-point highcharts-color-1" tabindex="-1" aria-label="Food is tasteless, 86. Complaints." style="outline:0" d="M202.5 195.5h30v21h-30z"/><path class="highcharts-point highcharts-color-1" tabindex="-1" aria-label="No atmosphere, 72. Complaints." style="outline:0" d="M265.5 199.5h30v17h-30z"/><path class="highcharts-point highcharts-color-1" tabindex="-1" aria-label="Not clean, 51. Complaints." style="outline:0" d="M327.5 204.5h30v12h-30z"/><path class="highcharts-point highcharts-color-1" tabindex="-1" aria-label="Too noisy, 36. Complaints." style="outline:0" d="M389.5 207.5h30v9h-30z"/><path class="highcharts-point highcharts-color-1" tabindex="-1" aria-label="Unfriendly staff, 10. Complaints." style="outline:0" d="M452.5 214.5h30v2h-30z"/></g><g class="highcharts-series highcharts-series-0 highcharts-pareto-series highcharts-color-0" data-z-index="10" clip-path="url(#b)" aria-hidden="true" fill="none" stroke-linejoin="round" stroke-linecap="round" transform="translate(45 50)"><path d="m31.188 117.735 62.374-28.893 62.376-19.653 62.375-11.193 62.375-9.371 62.375-6.638 62.375-4.685L467.813 36" class="highcharts-graph" data-z-index="1" stroke="#8087E8" stroke-width="2"/><path d="m31.188 117.735 62.374-28.893 62.376-19.653 62.375-11.193 62.375-9.371 62.375-6.638 62.375-4.685L467.813 36" data-z-index="2" class="highcharts-tracker-line" stroke="rgba(192,192,192,0.0001)" stroke-width="22"/></g><g class="highcharts-markers highcharts-series-0 highcharts-pareto-series highcharts-color-0 highcharts-tracker" data-z-index="10" aria-hidden="false" tabindex="-1" aria-label="Pareto, series 1 of 2 with 8 data points. Y axis, values." style="outline:0" fill="#8087E8"><path d="M31 121.735a4 4 0 1 1 .004 0Z" class="highcharts-point highcharts-color-0" tabindex="-1" aria-label="Overpriced, 54.59%. Pareto." style="outline:0" transform="translate(45 50)"/><path d="M93 92.842a4 4 0 1 1 .004 0Z" class="highcharts-point highcharts-color-0" tabindex="-1" aria-label="Small portions, 70.64%. Pareto." style="outline:0" transform="translate(45 50)"/><path d="M155 73.189a4 4 0 1 1 .004 0Z" class="highcharts-point highcharts-color-0" tabindex="-1" aria-label="Wait time, 81.56%. Pareto." style="outline:0" transform="translate(45 50)"/><path d="M218 61.996a4 4 0 1 1 .004 0Z" class="highcharts-point highcharts-color-0" tabindex="-1" aria-label="Food is tasteless, 87.78%. Pareto." style="outline:0" transform="translate(45 50)"/><path d="M280 52.625a4 4 0 1 1 .004 0Z" class="highcharts-point highcharts-color-0" tabindex="-1" aria-label="No atmosphere, 92.99%. Pareto." style="outline:0" transform="translate(45 50)"/><path d="M343 45.987a4 4 0 1 1 .004 0Z" class="highcharts-point highcharts-color-0" tabindex="-1" aria-label="Not clean, 96.67%. Pareto." style="outline:0" transform="translate(45 50)"/><path d="M405 41.302a4 4 0 1 1 .004 0Z" class="highcharts-point highcharts-color-0" tabindex="-1" aria-label="Too noisy, 99.28%. Pareto." style="outline:0" transform="translate(45 50)"/><path d="M467 40a4 4 0 1 1 .004 0Z" class="highcharts-point highcharts-color-0" tabindex="-1" aria-label="Unfriendly staff, 100.00%. Pareto." style="outline:0" transform="translate(45 50)"/></g></g><text x="300" text-anchor="middle" class="highcharts-title" data-z-index="4" style="color:#2f2b38;font-size:22px;font-weight:500;fill:#2f2b38" y="27" aria-hidden="true">Restaurants Complaints</text><g class="highcharts-legend highcharts-no-tooltip" data-z-index="7" transform="translate(213 359)" aria-hidden="true"><rect fill="#f0f0f0" class="highcharts-legend-box" rx="2" ry="2" stroke="#BBBAC5" x=".5" y=".5" width="172" height="25"/><g data-z-index="1"><g class="highcharts-legend-item highcharts-pareto-series highcharts-color-0 highcharts-series-0" data-z-index="1"><path fill="none" d="M8 14h16" class="highcharts-graph" stroke-width="2" stroke="#8087E8"/><path fill="#8087E8" d="M16 18a4 4 0 1 1 .004 0Z" class="highcharts-point"/><text x="21" data-z-index="2" y="15" style="color:#2f2b38;cursor:pointer;font-size:12px;font-weight:400;fill:#2f2b38" transform="translate(8 3)">Pareto</text></g><g class="highcharts-legend-item highcharts-column-series highcharts-color-1 highcharts-series-1" data-z-index="1" transform="translate(84.36 3)"><text x="21" y="15" data-z-index="2" style="color:#2f2b38;cursor:pointer;font-size:12px;font-weight:400;fill:#2f2b38">Complaints</text><rect x="2" y="4" width="12" height="12" fill="#A3EDBA" rx="6" ry="6" class="highcharts-point" data-z-index="3"/></g></g></g><g class="highcharts-axis-labels highcharts-xaxis-labels" data-z-index="7" aria-hidden="true" text-anchor="end"><text x="79.016" transform="rotate(-45 79.016 282)" style="color:#46465c;cursor:default;font-size:12px;fill:#46465c" y="282">Overpriced</text><text x="141.391" transform="rotate(-45 141.39 282)" style="color:#46465c;cursor:default;font-size:12px;fill:#46465c" y="282">Small portions</text><text x="203.766" transform="rotate(-45 203.766 282)" style="color:#46465c;cursor:default;font-size:12px;fill:#46465c" y="282">Wait time</text><text x="266.141" transform="rotate(-45 266.14 282)" style="color:#46465c;cursor:default;font-size:12px;fill:#46465c" y="282">Food is tasteless</text><text x="328.516" transform="rotate(-45 328.516 282)" style="color:#46465c;cursor:default;font-size:12px;fill:#46465c" y="282">No atmosphere</text><text x="390.891" transform="rotate(-45 390.89 282)" style="color:#46465c;cursor:default;font-size:12px;fill:#46465c" y="282">Not clean</text><text x="453.266" transform="rotate(-45 453.266 282)" style="color:#46465c;cursor:default;font-size:12px;fill:#46465c" y="282">Too noisy</text><text x="515.641" transform="rotate(-45 515.64 282)" style="color:#46465c;cursor:default;font-size:12px;fill:#46465c" y="282">Unfriendly staff</text></g><g class="highcharts-axis-labels highcharts-yaxis-labels" data-z-index="7" aria-hidden="true" text-anchor="end"><text x="30" style="color:#46465c;cursor:default;font-size:12px;fill:#46465c" y="271">0</text><text x="30" style="color:#46465c;cursor:default;font-size:12px;fill:#46465c" y="127">600</text><text x="30" y="199" style="color:#46465c;cursor:default;font-size:12px;fill:#46465c">300</text><text x="30" y="55" style="color:#46465c;cursor:default;font-size:12px;fill:#46465c">900</text></g><g class="highcharts-axis-labels highcharts-yaxis-labels" data-z-index="7" aria-hidden="true"><text x="559" style="color:#46465c;cursor:default;font-size:12px;fill:#46465c" y="271">0%</text><text x="559" y="199" style="color:#46465c;cursor:default;font-size:12px;fill:#46465c">40%</text><text x="559" y="127" style="color:#46465c;cursor:default;font-size:12px;fill:#46465c">80%</text><text x="559" y="55" style="color:#46465c;cursor:default;font-size:12px;fill:#46465c">120%</text></g></svg>