<svg class="highcharts-root" style="font-family:&quot;IBM Plex Sans&quot;,sans-serif;font-size:12px" xmlns="http://www.w3.org/2000/svg" width="600" height="400" aria-label="Interactive chart" aria-hidden="false"><defs aria-hidden="true"><clipPath id="a"><circle cx="290" cy="139.5" r="118.575"/></clipPath><clipPath id="b"><circle cx="290" cy="139.5" r="118.575"/></clipPath><clipPath id="c"><circle cx="290" cy="139.5" r="118.575"/></clipPath></defs><rect fill="#f0f0f0" class="highcharts-background" width="600" height="400" rx="0" ry="0" aria-hidden="true"/><path fill="none" class="highcharts-plot-background" aria-hidden="true" d="M10 68h580v279H10z"/><g class="highcharts-grid highcharts-xaxis-grid highcharts-radial-axis-grid" data-z-index="1" aria-hidden="true" fill="none" stroke="#ccc"><path data-z-index="1" class="highcharts-grid-line" d="M300 207.5V88.925m0 118.575 83.845-83.845M300 207.5h118.575M300 207.5l83.845 83.845M300 207.5v118.575m0-118.575-83.845 83.845M300 207.5H181.425m118.575 0-83.845-83.845M300 207.5V88.925"/></g><g class="highcharts-grid highcharts-yaxis-grid highcharts-radial-axis-grid" data-z-index="1" aria-hidden="true" fill="none" stroke="#ccc"><path data-z-index="1" class="highcharts-grid-line" d="M300 148.213a59.288 59.288 0 1 1-.06 0M300 207.5"/><path data-z-index="1" class="highcharts-grid-line" d="M300 88.925a118.575 118.575 0 1 1-.119 0M300 207.5"/></g><path fill="none" class="highcharts-plot-border" data-z-index="1" aria-hidden="true" d="M10 68h580v279H10z"/><g class="highcharts-axis highcharts-xaxis highcharts-radial-axis" data-z-index="2" aria-hidden="true"><path fill="none" class="highcharts-axis-line" stroke="#ccc" data-z-index="7" d="M300 88.925a118.575 118.575 0 1 1-.119 0M300 207.5"/></g><g class="highcharts-axis highcharts-yaxis highcharts-radial-axis" data-z-index="2" aria-hidden="true" fill="none"><path class="highcharts-axis-line" data-z-index="7" d="M300 207.5V88.925"/></g><g class="highcharts-series-group" data-z-index="3" aria-hidden="false"><g class="highcharts-series highcharts-series-0 highcharts-column-series highcharts-color-0 highcharts-tracker highcharts-dense-data" data-z-index=".1" clip-path="url(#a)" aria-hidden="false" tabindex="-1" aria-label="Column, series 1 of 3. Bar series with 8 bars." style="outline:0" fill="#8087E8" stroke="#BBBAC5" transform="translate(10 68)"><path d="M290 44.64a94.86 94.86 0 0 1 67.009 27.717L290 139.5Z" class="highcharts-point highcharts-color-0" tabindex="-1" aria-label="x, 0, 8. Column." style="outline:0"/><path d="M348.692 80.808a83.002 83.002 0 0 1 24.31 58.609L290 139.5Z" class="highcharts-point highcharts-color-0" tabindex="-1" aria-label="x, 45, 7. Column." style="outline:0"/><path d="M361.145 139.5a71.145 71.145 0 0 1-20.788 50.257L290 139.5Z" class="highcharts-point highcharts-color-0" tabindex="-1" aria-label="x, 90, 6. Column." style="outline:0"/><path d="M331.923 181.423a59.288 59.288 0 0 1-41.864 17.364L290 139.5Z" class="highcharts-point highcharts-color-0" tabindex="-1" aria-label="x, 135, 5. Column." style="outline:0"/><path d="M290 186.93a47.43 47.43 0 0 1-33.505-13.858L290 139.5Z" class="highcharts-point highcharts-color-0" tabindex="-1" aria-label="x, 180, 4. Column." style="outline:0"/><path d="M264.846 164.654a35.573 35.573 0 0 1-10.418-25.118L290 139.5Z" class="highcharts-point highcharts-color-0" tabindex="-1" aria-label="x, 225, 3. Column." style="outline:0"/><path d="M266.285 139.5a23.715 23.715 0 0 1 6.93-16.752L290 139.5Z" class="highcharts-point highcharts-color-0" tabindex="-1" aria-label="x, 270, 2. Column." style="outline:0"/><path d="M281.615 131.115a11.858 11.858 0 0 1 8.373-3.472L290 139.5Z" class="highcharts-point highcharts-color-0" tabindex="-1" aria-label="x, 315, 1. Column." style="outline:0"/></g><g class="highcharts-series highcharts-series-1 highcharts-line-series highcharts-color-1" data-z-index=".1" clip-path="url(#b)" aria-hidden="true" fill="none" stroke-linejoin="round" stroke-linecap="round" transform="translate(10 68)"><path d="m290 127.642 16.769-4.911 18.803 16.769-2.034 33.538L290 198.788l-50.307-8.98-32.696-50.308 15.927-67.076L290 127.642" class="highcharts-graph" data-z-index="1" stroke="#A3EDBA" stroke-width="2"/><path d="m290 127.642 16.769-4.911 18.803 16.769-2.034 33.538L290 198.788l-50.307-8.98-32.696-50.308 15.927-67.076L290 127.642" data-z-index="2" class="highcharts-tracker-line" stroke="rgba(192,192,192,0.0001)" stroke-width="22"/></g><g class="highcharts-markers highcharts-series-1 highcharts-line-series highcharts-color-1 highcharts-tracker" data-z-index=".1" aria-hidden="false" tabindex="-1" aria-label="Line, series 2 of 3. Line with 8 data points." style="outline:0" fill="#A3EDBA"><path d="M290 131.642a4 4 0 1 1 .004 0Z" class="highcharts-point highcharts-color-1" tabindex="-1" aria-label="x, 0, 1. Line." style="outline:0" transform="translate(10 68)"/><path d="M306 126.731a4 4 0 1 1 .004 0Z" class="highcharts-point highcharts-color-1" tabindex="-1" aria-label="x, 45, 2. Line." style="outline:0" transform="translate(10 68)"/><path d="M325 143.5a4 4 0 1 1 .004 0Z" class="highcharts-point highcharts-color-1" tabindex="-1" aria-label="x, 90, 3. Line." style="outline:0" transform="translate(10 68)"/><path d="M323 177.038a4 4 0 1 1 .004 0Z" class="highcharts-point highcharts-color-1" tabindex="-1" aria-label="x, 135, 4. Line." style="outline:0" transform="translate(10 68)"/><path d="M289 202.788a4 4 0 1 1 .004 0Z" class="highcharts-point highcharts-color-1" tabindex="-1" aria-label="x, 180, 5. Line." style="outline:0" transform="translate(10 68)"/><path d="M239 193.807a4 4 0 1 1 .004 0Z" class="highcharts-point highcharts-color-1" tabindex="-1" aria-label="x, 225, 6. Line." style="outline:0" transform="translate(10 68)"/><path d="M206 143.5a4 4 0 1 1 .004 0Z" class="highcharts-point highcharts-color-1" tabindex="-1" aria-label="x, 270, 7. Line." style="outline:0" transform="translate(10 68)"/><path d="M222 76.424a4 4 0 1 1 .004 0Z" class="highcharts-point highcharts-color-1" tabindex="-1" aria-label="x, 315, 8. Line." style="outline:0" transform="translate(10 68)"/></g><g class="highcharts-series highcharts-series-2 highcharts-area-series highcharts-color-2" data-z-index=".1" clip-path="url(#c)" aria-hidden="true" transform="translate(10 68)"><path fill="rgba(241,158,83,0.75)" d="m290 127.642 67.076-55.218-43.361 67.076 34.977 58.692L290 175.072l-50.307 14.735 2.877-50.307 5.507-41.923L290 127.642v12.283l.3-.124.125-.301-.124-.3-.301-.125-.3.124-.125.301.124.3.301.125Z" class="highcharts-area" data-z-index="0"/><path fill="none" d="m290 127.642 67.076-55.218-43.361 67.076 34.977 58.692L290 175.072l-50.307 14.735 2.877-50.307 5.507-41.923L290 127.642" class="highcharts-graph" data-z-index="1" stroke="#F19E53" stroke-width="2" stroke-linejoin="round" stroke-linecap="round"/><path fill="none" d="m290 127.642 67.076-55.218-43.361 67.076 34.977 58.692L290 175.072l-50.307 14.735 2.877-50.307 5.507-41.923L290 127.642" data-z-index="2" class="highcharts-tracker-line" stroke-linecap="round" stroke-linejoin="round" stroke="rgba(192,192,192,0.0001)" stroke-width="22"/></g><g class="highcharts-markers highcharts-series-2 highcharts-area-series highcharts-color-2 highcharts-tracker" data-z-index=".1" aria-hidden="false" tabindex="-1" aria-label="Area, series 3 of 3 with 8 data points." style="outline:0" fill="#F19E53"><path d="m290 123.642 4 4-4 4-4-4Z" class="highcharts-point highcharts-color-2" tabindex="-1" aria-label="x, 0, 1. Area." style="outline:0" transform="translate(10 68)"/><path d="m357 68.424 4 4-4 4-4-4Z" class="highcharts-point highcharts-color-2" tabindex="-1" aria-label="x, 45, 8. Area." style="outline:0" transform="translate(10 68)"/><path d="m313 135.5 4 4-4 4-4-4Z" class="highcharts-point highcharts-color-2" tabindex="-1" aria-label="x, 90, 2. Area." style="outline:0" transform="translate(10 68)"/><path d="m348 194.192 4 4-4 4-4-4Z" class="highcharts-point highcharts-color-2" tabindex="-1" aria-label="x, 135, 7. Area." style="outline:0" transform="translate(10 68)"/><path d="m289 171.072 4 4-4 4-4-4Z" class="highcharts-point highcharts-color-2" tabindex="-1" aria-label="x, 180, 3. Area." style="outline:0" transform="translate(10 68)"/><path d="m239 185.807 4 4-4 4-4-4Z" class="highcharts-point highcharts-color-2" tabindex="-1" aria-label="x, 225, 6. Area." style="outline:0" transform="translate(10 68)"/><path d="m242 135.5 4 4-4 4-4-4Z" class="highcharts-point highcharts-color-2" tabindex="-1" aria-label="x, 270, 4. Area." style="outline:0" transform="translate(10 68)"/><path d="m248 93.577 4 4-4 4-4-4Z" class="highcharts-point highcharts-color-2" tabindex="-1" aria-label="x, 315, 5. Area." style="outline:0" transform="translate(10 68)"/></g></g><text x="300" text-anchor="middle" class="highcharts-title" data-z-index="4" style="color:#2f2b38;font-size:22px;font-weight:500;fill:#2f2b38" y="27" aria-hidden="true">Highcharts Polar Chart</text><text x="300" text-anchor="middle" class="highcharts-subtitle" data-z-index="4" style="color:#2f2b38;font-size:16px;font-weight:400;fill:#2f2b38" y="52" aria-hidden="true">Also known as Radar Chart</text><g class="highcharts-legend highcharts-no-tooltip" data-z-index="7" transform="translate(196 359)" aria-hidden="true"><rect fill="#f0f0f0" class="highcharts-legend-box" rx="2" ry="2" stroke="#BBBAC5" x=".5" y=".5" width="207" height="25"/><g data-z-index="1"><g class="highcharts-legend-item highcharts-column-series highcharts-color-0 highcharts-series-0" data-z-index="1" transform="translate(8 3)"><text x="21" data-z-index="2" y="15" style="color:#2f2b38;cursor:pointer;font-size:12px;font-weight:400;fill:#2f2b38">Column</text><rect x="2" y="4" width="12" height="12" fill="#8087E8" rx="6" ry="6" class="highcharts-point" data-z-index="3"/></g><g class="highcharts-legend-item highcharts-line-series highcharts-color-1 highcharts-series-1" data-z-index="1"><path fill="none" d="M90.352 14h16" class="highcharts-graph" stroke-width="2" stroke="#A3EDBA"/><path fill="#A3EDBA" d="M98.352 18a4 4 0 1 1 .004 0Z" class="highcharts-point"/><text x="21" y="15" data-z-index="2" style="color:#2f2b38;cursor:pointer;font-size:12px;font-weight:400;fill:#2f2b38" transform="translate(90.352 3)">Line</text></g><g class="highcharts-legend-item highcharts-area-series highcharts-color-2 highcharts-series-2" data-z-index="1" transform="translate(154.04 3)"><text x="21" y="15" data-z-index="2" style="color:#2f2b38;cursor:pointer;font-size:12px;font-weight:400;fill:#2f2b38">Area</text><rect x="2" y="4" width="12" height="12" fill="#F19E53" rx="6" ry="6" class="highcharts-point" data-z-index="3"/></g></g></g><g class="highcharts-axis-labels highcharts-xaxis-labels highcharts-radial-axis-labels" data-z-index="7" aria-hidden="true"><text x="300" style="color:#46465c;cursor:default;font-size:12px;fill:#46465c" text-anchor="middle" y="79.175">0°</text><text x="394.452" style="color:#46465c;cursor:default;font-size:12px;fill:#46465c" y="118.298">45°</text><text x="433.575" style="color:#46465c;cursor:default;font-size:12px;fill:#46465c" y="212.75">90°</text><text x="394.452" style="color:#46465c;cursor:default;font-size:12px;fill:#46465c" y="307.202">135°</text><text x="300" style="color:#46465c;cursor:default;font-size:12px;fill:#46465c" text-anchor="middle" y="346.325">180°</text><text x="205.548" style="color:#46465c;cursor:default;font-size:12px;fill:#46465c" text-anchor="end" y="307.202">225°</text><text x="166.425" style="color:#46465c;cursor:default;font-size:12px;fill:#46465c" text-anchor="end" y="212.75">270°</text><text x="205.548" style="color:#46465c;cursor:default;font-size:12px;fill:#46465c" text-anchor="end" y="118.298">315°</text></g><g class="highcharts-axis-labels highcharts-yaxis-labels highcharts-radial-axis-labels" data-z-index="7" aria-hidden="true" text-anchor="end"><text x="297" style="color:#46465c;cursor:default;font-size:12px;fill:#46465c" y="205.5">0</text><text x="297" style="color:#46465c;cursor:default;font-size:12px;fill:#46465c" y="146.213">5</text></g></svg>