<svg class="highcharts-root" style="font-family:&quot;IBM Plex Sans&quot;,sans-serif;font-size:12px" xmlns="http://www.w3.org/2000/svg" width="600" height="400" aria-label="Interactive chart" aria-hidden="false"><defs aria-hidden="true"><clipPath id="a"><path fill="none" d="M0 0h580v335H0z"/></clipPath></defs><rect fill="#f0f0f0" class="highcharts-background" width="600" height="400" rx="0" ry="0" aria-hidden="true"/><path fill="none" class="highcharts-plot-background" aria-hidden="true" d="M10 50h580v335H10z"/><path fill="none" class="highcharts-plot-border" data-z-index="1" aria-hidden="true" d="M10 50h580v335H10z"/><g class="highcharts-series-group" data-z-index="3" aria-hidden="false"><g class="highcharts-series highcharts-series-0 highcharts-sankey-series highcharts-tracker" data-z-index=".1" clip-path="url(#a)" aria-hidden="false" transform="translate(10 50)"><path fill="rgba(128,135,232,0.5)" d="M20.5 57.5c61.49 0 104.51-18 166-18v30.625c-61.49 0-104.51 18-166 18Z" class="highcharts-link highcharts-point highcharts-color-0" tabindex="-1" aria-label="1. Brazil to Portugal, 5. Sankey demo series." style="outline:0"/><path fill="rgba(128,135,232,0.5)" d="M20.5 88.125c61.49 0 104.51 10.375 166 10.375v6.125c-61.49 0-104.51-10.375-166-10.375Z" class="highcharts-link highcharts-point highcharts-color-1" tabindex="-1" aria-label="2. Brazil to France, 1. Sankey demo series." style="outline:0"/><path fill="rgba(128,135,232,0.5)" d="M20.5 94.25c61.49 0 104.51 81.25 166 81.25v6.125c-61.49 0-104.51-81.25-166-81.25Z" class="highcharts-link highcharts-point highcharts-color-2" tabindex="-1" aria-label="3. Brazil to Spain, 1. Sankey demo series." style="outline:0"/><path fill="rgba(128,135,232,0.5)" d="M20.5 100.375c61.49 0 104.51 128.125 166 128.125v6.125c-61.49 0-104.51-128.125-166-128.125Z" class="highcharts-link highcharts-point highcharts-color-3" tabindex="-1" aria-label="4. Brazil to England, 1. Sankey demo series." style="outline:0"/><path fill="rgba(135,180,231,0.5)" d="M20.5 116.5c61.49 0 104.51-46.375 166-46.375v6.125c-61.49 0-104.51 46.375-166 46.375Z" class="highcharts-link highcharts-point highcharts-color-4" tabindex="-1" aria-label="5. Canada to Portugal, 1. Sankey demo series." style="outline:0"/><path fill="rgba(135,180,231,0.5)" d="M20.5 122.625c61.49 0 104.51-18 166-18v30.625c-61.49 0-104.51 18-166 18Z" class="highcharts-link highcharts-point highcharts-color-5" tabindex="-1" aria-label="6. Canada to France, 5. Sankey demo series." style="outline:0"/><path fill="rgba(135,180,231,0.5)" d="M20.5 153.25c61.49 0 104.51 81.375 166 81.375v6.125c-61.49 0-104.51-81.375-166-81.375Z" class="highcharts-link highcharts-point highcharts-color-6" tabindex="-1" aria-label="7. Canada to England, 1. Sankey demo series." style="outline:0"/><path fill="rgba(218,109,133,0.5)" d="M20.5 169.5c61.49 0 104.51-93.25 166-93.25v6.125c-61.49 0-104.51 93.25-166 93.25Z" class="highcharts-link highcharts-point highcharts-color-7" tabindex="-1" aria-label="8. Mexico to Portugal, 1. Sankey demo series." style="outline:0"/><path fill="rgba(218,109,133,0.5)" d="M20.5 175.625c61.49 0 104.51-40.375 166-40.375v6.125c-61.49 0-104.51 40.375-166 40.375Z" class="highcharts-link highcharts-point highcharts-color-0" tabindex="-1" aria-label="9. Mexico to France, 1. Sankey demo series." style="outline:0"/><path fill="rgba(218,109,133,0.5)" d="M20.5 181.75c61.49 0 104.51-.125 166-.125v30.625c-61.49 0-104.51.125-166 .125Z" class="highcharts-link highcharts-point highcharts-color-1" tabindex="-1" aria-label="10. Mexico to Spain, 5. Sankey demo series." style="outline:0"/><path fill="rgba(218,109,133,0.5)" d="M20.5 212.375c61.49 0 104.51 28.375 166 28.375v6.125c-61.49 0-104.51-28.375-166-28.375Z" class="highcharts-link highcharts-point highcharts-color-2" tabindex="-1" aria-label="11. Mexico to England, 1. Sankey demo series." style="outline:0"/><path fill="rgba(187,186,197,0.5)" d="M20.5 228.5c61.49 0 104.51-146.125 166-146.125V88.5c-61.49 0-104.51 146.125-166 146.125Z" class="highcharts-link highcharts-point highcharts-color-3" tabindex="-1" aria-label="12. USA to Portugal, 1. Sankey demo series." style="outline:0"/><path fill="rgba(187,186,197,0.5)" d="M20.5 234.625c61.49 0 104.51-93.25 166-93.25v6.125c-61.49 0-104.51 93.25-166 93.25Z" class="highcharts-link highcharts-point highcharts-color-4" tabindex="-1" aria-label="13. USA to France, 1. Sankey demo series." style="outline:0"/><path fill="rgba(187,186,197,0.5)" d="M20.5 240.75c61.49 0 104.51-28.5 166-28.5v6.125c-61.49 0-104.51 28.5-166 28.5Z" class="highcharts-link highcharts-point highcharts-color-5" tabindex="-1" aria-label="14. USA to Spain, 1. Sankey demo series." style="outline:0"/><path fill="rgba(187,186,197,0.5)" d="M20.5 246.875h166V277.5h-166Z" class="highcharts-link highcharts-point highcharts-color-6" tabindex="-1" aria-label="15. USA to England, 5. Sankey demo series." style="outline:0"/><path fill="rgba(163,237,186,0.5)" d="M206.5 39.5c61.49 0 105.51-39 167-39v12.25c-61.49 0-105.51 39-167 39Z" class="highcharts-link highcharts-point highcharts-color-7" tabindex="-1" aria-label="16. Portugal to Angola, 2. Sankey demo series." style="outline:0"/><path fill="rgba(163,237,186,0.5)" d="M206.5 51.75c61.49 0 105.51 13.75 167 13.75v6.125c-61.49 0-105.51-13.75-167-13.75Z" class="highcharts-link highcharts-point highcharts-color-0" tabindex="-1" aria-label="17. Portugal to Senegal, 1. Sankey demo series." style="outline:0"/><path fill="rgba(163,237,186,0.5)" d="M206.5 57.875c61.49 0 105.51 72.625 167 72.625v6.125c-61.49 0-105.51-72.625-167-72.625Z" class="highcharts-link highcharts-point highcharts-color-1" tabindex="-1" aria-label="18. Portugal to Morocco, 1. Sankey demo series." style="outline:0"/><path fill="rgba(163,237,186,0.5)" d="M206.5 64c61.49 0 105.51 131.5 167 131.5v18.375c-61.49 0-105.51-131.5-167-131.5Z" class="highcharts-link highcharts-point highcharts-color-2" tabindex="-1" aria-label="19. Portugal to South Africa, 3. Sankey demo series." style="outline:0"/><path fill="rgba(241,158,83,0.5)" d="M206.5 98.5c61.49 0 105.51-85.75 167-85.75v6.125c-61.49 0-105.51 85.75-167 85.75Z" class="highcharts-link highcharts-point highcharts-color-3" tabindex="-1" aria-label="20. France to Angola, 1. Sankey demo series." style="outline:0"/><path fill="rgba(241,158,83,0.5)" d="M206.5 104.625c61.49 0 105.51-33 167-33V90c-61.49 0-105.51 33-167 33Z" class="highcharts-link highcharts-point highcharts-color-4" tabindex="-1" aria-label="21. France to Senegal, 3. Sankey demo series." style="outline:0"/><path fill="rgba(241,158,83,0.5)" d="M206.5 123c61.49 0 105.51 156.5 167 156.5v18.375c-61.49 0-105.51-156.5-167-156.5Z" class="highcharts-link highcharts-point highcharts-color-5" tabindex="-1" aria-label="22. France to Mali, 3. Sankey demo series." style="outline:0"/><path fill="rgba(241,158,83,0.5)" d="M206.5 141.375c61.49 0 105.51-4.75 167-4.75V155c-61.49 0-105.51 4.75-167 4.75Z" class="highcharts-link highcharts-point highcharts-color-6" tabindex="-1" aria-label="23. France to Morocco, 3. Sankey demo series." style="outline:0"/><path fill="rgba(241,158,83,0.5)" d="M206.5 159.375c61.49 0 105.51 54.5 167 54.5V220c-61.49 0-105.51-54.5-167-54.5Z" class="highcharts-link highcharts-point highcharts-color-7" tabindex="-1" aria-label="24. France to South Africa, 1. Sankey demo series." style="outline:0"/><path fill="rgba(102,153,161,0.5)" d="M206.5 175.5c61.49 0 105.51-85.5 167-85.5v6.125c-61.49 0-105.51 85.5-167 85.5Z" class="highcharts-link highcharts-point highcharts-color-0" tabindex="-1" aria-label="25. Spain to Senegal, 1. Sankey demo series." style="outline:0"/><path fill="rgba(102,153,161,0.5)" d="M206.5 181.625c61.49 0 105.51-26.625 167-26.625v18.375c-61.49 0-105.51 26.625-167 26.625Z" class="highcharts-link highcharts-point highcharts-color-1" tabindex="-1" aria-label="26. Spain to Morocco, 3. Sankey demo series." style="outline:0"/><path fill="rgba(102,153,161,0.5)" d="M206.5 200c61.49 0 105.51 20 167 20v6.125c-61.49 0-105.51-20-167-20Z" class="highcharts-link highcharts-point highcharts-color-2" tabindex="-1" aria-label="27. Spain to South Africa, 1. Sankey demo series." style="outline:0"/><path fill="rgba(225,211,105,0.5)" d="M206.5 228.5c61.49 0 105.51-209.625 167-209.625V25c-61.49 0-105.51 209.625-167 209.625Z" class="highcharts-link highcharts-point highcharts-color-3" tabindex="-1" aria-label="28. England to Angola, 1. Sankey demo series." style="outline:0"/><path fill="rgba(225,211,105,0.5)" d="M206.5 234.625c61.49 0 105.51-138.5 167-138.5v6.125c-61.49 0-105.51 138.5-167 138.5Z" class="highcharts-link highcharts-point highcharts-color-4" tabindex="-1" aria-label="29. England to Senegal, 1. Sankey demo series." style="outline:0"/><path fill="rgba(225,211,105,0.5)" d="M206.5 240.75c61.49 0 105.51-67.5 167-67.5v12.25c-61.49 0-105.51 67.5-167 67.5Z" class="highcharts-link highcharts-point highcharts-color-5" tabindex="-1" aria-label="30. England to Morocco, 2. Sankey demo series." style="outline:0"/><path fill="rgba(225,211,105,0.5)" d="M206.5 252.625c61.49 0 105.51-26.5 167-26.5V269c-61.49 0-105.51 26.5-167 26.5Z" class="highcharts-link highcharts-point highcharts-color-6" tabindex="-1" aria-label="31. England to South Africa, 7. Sankey demo series." style="outline:0"/><path fill="rgba(102,153,161,0.5)" d="M393.5 195.5c61.49 0 104.51-176 166-176v30.625c-61.49 0-104.51 176-166 176Z" class="highcharts-link highcharts-point highcharts-color-7" tabindex="-1" aria-label="32. South Africa to China, 5. Sankey demo series." style="outline:0"/><path fill="rgba(102,153,161,0.5)" d="M393.5 226.125c61.49 0 104.51-43.625 166-43.625v6.125c-61.49 0-104.51 43.625-166 43.625Z" class="highcharts-link highcharts-point highcharts-color-0" tabindex="-1" aria-label="33. South Africa to India, 1. Sankey demo series." style="outline:0"/><path fill="rgba(102,153,161,0.5)" d="M393.5 232.25c61.49 0 104.51-8.75 166-8.75v18.375c-61.49 0-104.51 8.75-166 8.75Z" class="highcharts-link highcharts-point highcharts-color-1" tabindex="-1" aria-label="34. South Africa to Japan, 3. Sankey demo series." style="outline:0"/><path fill="rgba(128,135,232,0.5)" d="M393.5.5c61.49 0 104.51 49.625 166 49.625V80.75c-61.49 0-104.51-49.625-166-49.625Z" class="highcharts-link highcharts-point highcharts-color-2" tabindex="-1" aria-label="35. Angola to China, 5. Sankey demo series." style="outline:0"/><path fill="rgba(128,135,232,0.5)" d="M393.5 31.125c61.49 0 104.51 157.5 166 157.5v6.125c-61.49 0-104.51-157.5-166-157.5Z" class="highcharts-link highcharts-point highcharts-color-3" tabindex="-1" aria-label="36. Angola to India, 1. Sankey demo series." style="outline:0"/><path fill="rgba(128,135,232,0.5)" d="M393.5 37.125c61.49 0 104.51 204.75 166 204.75v18.375c-61.49 0-104.51-204.75-166-204.75Z" class="highcharts-link highcharts-point highcharts-color-4" tabindex="-1" aria-label="37. Angola to Japan, 3. Sankey demo series." style="outline:0"/><path fill="rgba(163,237,186,0.5)" d="M393.5 65.5c61.49 0 104.51 15.25 166 15.25v30.625c-61.49 0-104.51-15.25-166-15.25Z" class="highcharts-link highcharts-point highcharts-color-5" tabindex="-1" aria-label="38. Senegal to China, 5. Sankey demo series." style="outline:0"/><path fill="rgba(163,237,186,0.5)" d="M393.5 96.125c61.49 0 104.51 98.625 166 98.625v6.125c-61.49 0-104.51-98.625-166-98.625Z" class="highcharts-link highcharts-point highcharts-color-6" tabindex="-1" aria-label="39. Senegal to India, 1. Sankey demo series." style="outline:0"/><path fill="rgba(163,237,186,0.5)" d="M393.5 102.125c61.49 0 104.51 158.125 166 158.125v18.375c-61.49 0-104.51-158.125-166-158.125Z" class="highcharts-link highcharts-point highcharts-color-7" tabindex="-1" aria-label="40. Senegal to Japan, 3. Sankey demo series." style="outline:0"/><path fill="rgba(225,211,105,0.5)" d="M393.5 279.5c61.49 0 104.51-168.125 166-168.125V142c-61.49 0-104.51 168.125-166 168.125Z" class="highcharts-link highcharts-point highcharts-color-0" tabindex="-1" aria-label="41. Mali to China, 5. Sankey demo series." style="outline:0"/><path fill="rgba(225,211,105,0.5)" d="M393.5 310.125c61.49 0 104.51-109.25 166-109.25V207c-61.49 0-104.51 109.25-166 109.25Z" class="highcharts-link highcharts-point highcharts-color-1" tabindex="-1" aria-label="42. Mali to India, 1. Sankey demo series." style="outline:0"/><path fill="rgba(225,211,105,0.5)" d="M393.5 316.125c61.49 0 104.51-37.5 166-37.5V297c-61.49 0-104.51 37.5-166 37.5Z" class="highcharts-link highcharts-point highcharts-color-2" tabindex="-1" aria-label="43. Mali to Japan, 3. Sankey demo series." style="outline:0"/><path fill="rgba(241,158,83,0.5)" d="M393.5 130.5c61.49 0 104.51 11.375 166 11.375V172.5c-61.49 0-104.51-11.375-166-11.375Z" class="highcharts-link highcharts-point highcharts-color-3" tabindex="-1" aria-label="44. Morocco to China, 5. Sankey demo series." style="outline:0"/><path fill="rgba(241,158,83,0.5)" d="M393.5 161.125c61.49 0 104.51 45.875 166 45.875v6.125c-61.49 0-104.51-45.875-166-45.875Z" class="highcharts-link highcharts-point highcharts-color-4" tabindex="-1" aria-label="45. Morocco to India, 1. Sankey demo series." style="outline:0"/><path fill="rgba(241,158,83,0.5)" d="M393.5 167.125c61.49 0 104.51 129.875 166 129.875v18.375c-61.49 0-104.51-129.875-166-129.875Z" class="highcharts-link highcharts-point highcharts-color-5" tabindex="-1" aria-label="46. Morocco to Japan, 3. Sankey demo series." style="outline:0"/><path fill="#8087E8" stroke="#BBBAC5" class="highcharts-node highcharts-point highcharts-color-0" d="M.5 57.5h20v49H.5z"/><path fill="#87B4E7" stroke="#BBBAC5" class="highcharts-node highcharts-point highcharts-color-5" d="M.5 116.5h20v43H.5z"/><path fill="#DA6D85" stroke="#BBBAC5" class="highcharts-node highcharts-point highcharts-color-6" d="M.5 169.5h20v49H.5z"/><path fill="#BBBAC5" stroke="#BBBAC5" class="highcharts-node highcharts-point highcharts-color-7" d="M.5 228.5h20v49H.5z"/><path fill="#A3EDBA" stroke="#BBBAC5" class="highcharts-node highcharts-point highcharts-color-1" d="M186.5 39.5h20v49h-20z"/><path fill="#F19E53" stroke="#BBBAC5" class="highcharts-node highcharts-point highcharts-color-2" d="M186.5 98.5h20v67h-20z"/><path fill="#6699A1" stroke="#BBBAC5" class="highcharts-node highcharts-point highcharts-color-3" d="M186.5 175.5h20v43h-20z"/><path fill="#E1D369" stroke="#BBBAC5" class="highcharts-node highcharts-point highcharts-color-4" d="M186.5 228.5h20v67h-20z"/><path fill="#8087E8" stroke="#BBBAC5" class="highcharts-node highcharts-point highcharts-color-0" d="M373.5.5h20v55h-20z"/><path fill="#A3EDBA" stroke="#BBBAC5" class="highcharts-node highcharts-point highcharts-color-1" d="M373.5 65.5h20v55h-20z"/><path fill="#F19E53" stroke="#BBBAC5" class="highcharts-node highcharts-point highcharts-color-2" d="M373.5 130.5h20v55h-20z"/><path fill="#6699A1" stroke="#BBBAC5" class="highcharts-node highcharts-point highcharts-color-3" d="M373.5 195.5h20v74h-20z"/><path fill="#E1D369" stroke="#BBBAC5" class="highcharts-node highcharts-point highcharts-color-4" d="M373.5 279.5h20v55h-20z"/><path fill="#87B4E7" stroke="#BBBAC5" class="highcharts-node highcharts-point highcharts-color-5" d="M559.5 19.5h20v153h-20z"/><path fill="#DA6D85" stroke="#BBBAC5" class="highcharts-node highcharts-point highcharts-color-6" d="M559.5 182.5h20v31h-20z"/><path fill="#BBBAC5" stroke="#BBBAC5" class="highcharts-node highcharts-point highcharts-color-7" d="M559.5 223.5h20v92h-20z"/></g></g><text x="300" text-anchor="middle" class="highcharts-title" data-z-index="4" style="color:#2f2b38;font-size:22px;font-weight:500;fill:#2f2b38" y="27" aria-hidden="true">Highcharts Sankey Diagram</text><g class="highcharts-data-labels highcharts-series-0 highcharts-sankey-series highcharts-tracker" data-z-index="6" aria-hidden="true"><g class="highcharts-label highcharts-data-label highcharts-data-label-color-0" data-z-index="1" transform="translate(10 120)"><rect fill="none" class="highcharts-label-box highcharts-data-label-box" width="45" height="25" rx="0" ry="0"/><text x="5" data-z-index="1" y="18" style="color:#46465c;font-size:13px;font-weight:700;fill:#46465c"><tspan class="highcharts-text-outline" fill="#FFF" stroke="#FFF" stroke-width="2" stroke-linejoin="round">Brazil<tspan x="5" dy="0">​</tspan></tspan>Brazil</text></g><g class="highcharts-label highcharts-data-label highcharts-data-label-color-5" data-z-index="1" transform="translate(10 176)"><rect fill="none" class="highcharts-label-box highcharts-data-label-box" width="57" height="25" rx="0" ry="0"/><text x="5" data-z-index="1" y="18" style="color:#46465c;font-size:13px;font-weight:700;fill:#46465c"><tspan class="highcharts-text-outline" fill="#FFF" stroke="#FFF" stroke-width="2" stroke-linejoin="round">Canada<tspan x="5" dy="0">​</tspan></tspan>Canada</text></g><g class="highcharts-label highcharts-data-label highcharts-data-label-color-6" data-z-index="1" transform="translate(10 232)"><rect fill="none" class="highcharts-label-box highcharts-data-label-box" width="54" height="25" rx="0" ry="0"/><text x="5" data-z-index="1" y="18" style="color:#46465c;font-size:13px;font-weight:700;fill:#46465c"><tspan class="highcharts-text-outline" fill="#FFF" stroke="#FFF" stroke-width="2" stroke-linejoin="round">Mexico<tspan x="5" dy="0">​</tspan></tspan>Mexico</text></g><g class="highcharts-label highcharts-data-label highcharts-data-label-color-7" data-z-index="1" transform="translate(10 291)"><rect fill="none" class="highcharts-label-box highcharts-data-label-box" width="37" height="25" rx="0" ry="0"/><text x="5" data-z-index="1" y="18" style="color:#46465c;font-size:13px;font-weight:700;fill:#46465c"><tspan class="highcharts-text-outline" fill="#FFF" stroke="#FFF" stroke-width="2" stroke-linejoin="round">USA<tspan x="5" dy="0">​</tspan></tspan>USA</text></g><g class="highcharts-label highcharts-data-label highcharts-data-label-color-1" data-z-index="1" transform="translate(175 102)"><rect fill="none" class="highcharts-label-box highcharts-data-label-box" width="63" height="25" rx="0" ry="0"/><text x="5" data-z-index="1" y="18" style="color:#46465c;font-size:13px;font-weight:700;fill:#46465c"><tspan class="highcharts-text-outline" fill="#FFF" stroke="#FFF" stroke-width="2" stroke-linejoin="round">Portugal<tspan x="5" dy="0">​</tspan></tspan>Portugal</text></g><g class="highcharts-label highcharts-data-label highcharts-data-label-color-2" data-z-index="1" transform="translate(180 170)"><rect fill="none" class="highcharts-label-box highcharts-data-label-box" width="53" height="25" rx="0" ry="0"/><text x="5" data-z-index="1" y="18" style="color:#46465c;font-size:13px;font-weight:700;fill:#46465c"><tspan class="highcharts-text-outline" fill="#FFF" stroke="#FFF" stroke-width="2" stroke-linejoin="round">France<tspan x="5" dy="0">​</tspan></tspan>France</text></g><g class="highcharts-label highcharts-data-label highcharts-data-label-color-3" data-z-index="1" transform="translate(184 235)"><rect fill="none" class="highcharts-label-box highcharts-data-label-box" width="45" height="25" rx="0" ry="0"/><text x="5" data-z-index="1" y="18" style="color:#46465c;font-size:13px;font-weight:700;fill:#46465c"><tspan class="highcharts-text-outline" fill="#FFF" stroke="#FFF" stroke-width="2" stroke-linejoin="round">Spain<tspan x="5" dy="0">​</tspan></tspan>Spain</text></g><g class="highcharts-label highcharts-data-label highcharts-data-label-color-4" data-z-index="1" transform="translate(176 300)"><rect fill="none" class="highcharts-label-box highcharts-data-label-box" width="61" height="25" rx="0" ry="0"/><text x="5" data-z-index="1" y="18" style="color:#46465c;font-size:13px;font-weight:700;fill:#46465c"><tspan class="highcharts-text-outline" fill="#FFF" stroke="#FFF" stroke-width="2" stroke-linejoin="round">England<tspan x="5" dy="0">​</tspan></tspan>England</text></g><g class="highcharts-label highcharts-data-label highcharts-data-label-color-0" data-z-index="1" transform="translate(366 66)"><rect fill="none" class="highcharts-label-box highcharts-data-label-box" width="54" height="25" rx="0" ry="0"/><text x="5" data-z-index="1" y="18" style="color:#46465c;font-size:13px;font-weight:700;fill:#46465c"><tspan class="highcharts-text-outline" fill="#FFF" stroke="#FFF" stroke-width="2" stroke-linejoin="round">Angola<tspan x="5" dy="0">​</tspan></tspan>Angola</text></g><g class="highcharts-label highcharts-data-label highcharts-data-label-color-1" data-z-index="1" transform="translate(364 131)"><rect fill="none" class="highcharts-label-box highcharts-data-label-box" width="60" height="25" rx="0" ry="0"/><text x="5" data-z-index="1" y="18" style="color:#46465c;font-size:13px;font-weight:700;fill:#46465c"><tspan class="highcharts-text-outline" fill="#FFF" stroke="#FFF" stroke-width="2" stroke-linejoin="round">Senegal<tspan x="5" dy="0">​</tspan></tspan>Senegal</text></g><g class="highcharts-label highcharts-data-label highcharts-data-label-color-2" data-z-index="1" transform="translate(361 196)"><rect fill="none" class="highcharts-label-box highcharts-data-label-box" width="64" height="25" rx="0" ry="0"/><text x="5" data-z-index="1" y="18" style="color:#46465c;font-size:13px;font-weight:700;fill:#46465c"><tspan class="highcharts-text-outline" fill="#FFF" stroke="#FFF" stroke-width="2" stroke-linejoin="round">Morocco<tspan x="5" dy="0">​</tspan></tspan>Morocco</text></g><g class="highcharts-label highcharts-data-label highcharts-data-label-color-3" data-z-index="1" transform="translate(350 270)"><rect fill="none" class="highcharts-label-box highcharts-data-label-box" width="87" height="25" rx="0" ry="0"/><text x="5" data-z-index="1" y="18" style="color:#46465c;font-size:13px;font-weight:700;fill:#46465c"><tspan class="highcharts-text-outline" fill="#FFF" stroke="#FFF" stroke-width="2" stroke-linejoin="round">South Africa<tspan x="5" dy="0">​</tspan></tspan>South Africa</text></g><g class="highcharts-label highcharts-data-label highcharts-data-label-color-4" data-z-index="1" transform="translate(376 345)"><rect fill="none" class="highcharts-label-box highcharts-data-label-box" width="35" height="25" rx="0" ry="0"/><text x="5" data-z-index="1" y="18" style="color:#46465c;font-size:13px;font-weight:700;fill:#46465c"><tspan class="highcharts-text-outline" fill="#FFF" stroke="#FFF" stroke-width="2" stroke-linejoin="round">Mali<tspan x="5" dy="0">​</tspan></tspan>Mali</text></g><g class="highcharts-label highcharts-data-label highcharts-data-label-color-5" data-z-index="1" transform="translate(544 134)"><rect fill="none" class="highcharts-label-box highcharts-data-label-box" width="46" height="25" rx="0" ry="0"/><text x="5" data-z-index="1" y="18" style="color:#46465c;font-size:13px;font-weight:700;fill:#46465c"><tspan class="highcharts-text-outline" fill="#FFF" stroke="#FFF" stroke-width="2" stroke-linejoin="round">China<tspan x="5" dy="0">​</tspan></tspan>China</text></g><g class="highcharts-label highcharts-data-label highcharts-data-label-color-6" data-z-index="1" transform="translate(550 236)"><rect fill="none" class="highcharts-label-box highcharts-data-label-box" width="40" height="25" rx="0" ry="0"/><text x="5" data-z-index="1" y="18" style="color:#46465c;font-size:13px;font-weight:700;fill:#46465c"><tspan class="highcharts-text-outline" fill="#FFF" stroke="#FFF" stroke-width="2" stroke-linejoin="round">India<tspan x="5" dy="0">​</tspan></tspan>India</text></g><g class="highcharts-label highcharts-data-label highcharts-data-label-color-7" data-z-index="1" transform="translate(542 307)"><rect fill="none" class="highcharts-label-box highcharts-data-label-box" width="48" height="25" rx="0" ry="0"/><text x="5" data-z-index="1" y="18" style="color:#46465c;font-size:13px;font-weight:700;fill:#46465c"><tspan class="highcharts-text-outline" fill="#FFF" stroke="#FFF" stroke-width="2" stroke-linejoin="round">Japan<tspan x="5" dy="0">​</tspan></tspan>Japan</text></g></g></svg>