<svg class="highcharts-root" style="font-family:&quot;IBM Plex Sans&quot;,sans-serif;font-size:12px" xmlns="http://www.w3.org/2000/svg" width="600" height="500" aria-label="Interactive chart" aria-hidden="false"><defs aria-hidden="true"><clipPath id="a"><path fill="none" d="M0 0h528v357H0z"/></clipPath></defs><rect fill="#f0f0f0" class="highcharts-background" width="600" height="500" rx="0" ry="0" aria-hidden="true"/><path fill="none" class="highcharts-plot-background" aria-hidden="true" d="M62 68h528v357H62z"/><g class="highcharts-plot-lines-0" data-z-index="0" aria-hidden="true"><path fill="none" class="highcharts-plot-line" stroke="#d33" stroke-dasharray="4,3" d="M286.5 68v357"/></g><g class="highcharts-grid highcharts-xaxis-grid" data-z-index="1" aria-hidden="true" fill="none"><path data-z-index="1" class="highcharts-grid-line" d="M164.5 68v357m113-357v357m113-357v357m114-357v357"/></g><g class="highcharts-grid highcharts-yaxis-grid" data-z-index="1" aria-hidden="true" fill="none" stroke="#ccc"><path data-z-index="1" class="highcharts-grid-line" d="M62 425.5h528m-528-45h528m-528-44h528m-528-45h528m-528-44h528m-528-45h528m-528-45h528m-528-44h528m-528-46h528"/></g><path fill="none" class="highcharts-plot-border" data-z-index="1" aria-hidden="true" d="M62 68h528v357H62z"/><g class="highcharts-axis highcharts-xaxis" data-z-index="2" aria-hidden="true" fill="none" stroke="#ccc"><path class="highcharts-tick" d="M164.5 425v10m113-10v10m113-10v10m114-10v10"/><path class="highcharts-axis-line" data-z-index="7" d="M62 425.5h528"/></g><g class="highcharts-axis highcharts-yaxis" data-z-index="2" aria-hidden="true"><path fill="none" class="highcharts-tick" stroke="#ccc" d="M62 425.5H52m10-45H52m10-44H52m10-45H52m10-44H52m10-45H52m10-45H52m10-44H52m10-46H52"/><text x="23.648" data-z-index="7" text-anchor="middle" transform="rotate(-90 23.648 246.5)" class="highcharts-axis-title" style="color:#2f2b38;font-weight:300;fill:#2f2b38" y="246.5">Temperature (°F)</text><path fill="none" class="highcharts-axis-line" data-z-index="7" d="M62 68v357"/></g><g class="highcharts-series-group" data-z-index="3" aria-hidden="false" fill="none" stroke-linejoin="round" stroke-linecap="round"><g class="highcharts-series highcharts-series-0 highcharts-spline-series" data-z-index=".1" clip-path="url(#a)" aria-hidden="true" transform="translate(62 68)"><path d="M5.176 129.412h12.942c5.176 0 7.764 1.786 12.94 4.463 5.177 2.678 7.766 8.925 12.942 8.925s7.765-31.238 12.941-31.238c5.177 0 7.765 17.85 12.941 17.85 5.177 0 7.765-4.462 12.942-4.462 5.176 0 7.764 35.7 12.94 35.7 5.177 0 7.765-2.678 12.942-8.925 5.176-6.248 7.765-22.313 12.941-22.313 5.177 0 7.765 4.463 12.941 4.463 5.177 0 7.765-4.463 12.941-4.463 5.177 0 7.765 4.463 12.942 4.463 5.176 0 7.764-3.57 12.94-8.925 5.177-5.355 7.765-17.85 12.942-17.85 5.176 0 7.765 22.313 12.941 22.313 5.177 0 7.765-4.463 12.941-4.463h25.883c5.176 0 7.764-4.462 12.94-4.462H264c5.176 0 7.765-6.248 12.941-8.925 5.177-2.678 7.765-2.678 12.941-4.463 5.177-1.785 7.765-4.463 12.942-4.463 5.176 0 7.764 4.463 12.94 4.463 5.177 0 7.765 0 12.942-4.463 5.176-4.462 7.765-16.065 12.941-22.312 5.177-6.248 7.765-8.925 12.941-8.925 5.177 0 7.765 4.463 12.941 4.463 5.177 0 7.765-5.356 12.942-8.925 5.176-3.57 7.764-3.57 12.94-8.926 5.177-5.355 7.765-17.85 12.942-17.85 5.176 0 7.765 17.85 12.941 22.313 5.177 4.462 7.765 2.677 12.941 4.462 5.177 1.785 7.765 1.785 12.941 4.463 5.177 2.677 7.765 8.925 12.942 8.925h12.94c5.177 0 7.766 1.785 12.942 4.463 5.176 2.677 7.765 8.924 12.941 8.924 5.177 0 7.765-8.924 12.941-8.924 5.177 0 12.942 13.387 12.942 13.387" class="highcharts-graph" data-z-index="1" stroke="#f4b042" stroke-width="2"/><path d="M5.176 129.412h12.942c5.176 0 7.764 1.786 12.94 4.463 5.177 2.678 7.766 8.925 12.942 8.925s7.765-31.238 12.941-31.238c5.177 0 7.765 17.85 12.941 17.85 5.177 0 7.765-4.462 12.942-4.462 5.176 0 7.764 35.7 12.94 35.7 5.177 0 7.765-2.678 12.942-8.925 5.176-6.248 7.765-22.313 12.941-22.313 5.177 0 7.765 4.463 12.941 4.463 5.177 0 7.765-4.463 12.941-4.463 5.177 0 7.765 4.463 12.942 4.463 5.176 0 7.764-3.57 12.94-8.925 5.177-5.355 7.765-17.85 12.942-17.85 5.176 0 7.765 22.313 12.941 22.313 5.177 0 7.765-4.463 12.941-4.463h25.883c5.176 0 7.764-4.462 12.94-4.462H264c5.176 0 7.765-6.248 12.941-8.925 5.177-2.678 7.765-2.678 12.941-4.463 5.177-1.785 7.765-4.463 12.942-4.463 5.176 0 7.764 4.463 12.94 4.463 5.177 0 7.765 0 12.942-4.463 5.176-4.462 7.765-16.065 12.941-22.312 5.177-6.248 7.765-8.925 12.941-8.925 5.177 0 7.765 4.463 12.941 4.463 5.177 0 7.765-5.356 12.942-8.925 5.176-3.57 7.764-3.57 12.94-8.926 5.177-5.355 7.765-17.85 12.942-17.85 5.176 0 7.765 17.85 12.941 22.313 5.177 4.462 7.765 2.677 12.941 4.462 5.177 1.785 7.765 1.785 12.941 4.463 5.177 2.677 7.765 8.925 12.942 8.925h12.94c5.177 0 7.766 1.785 12.942 4.463 5.176 2.677 7.765 8.924 12.941 8.924 5.177 0 7.765-8.924 12.941-8.924 5.177 0 12.942 13.387 12.942 13.387" data-z-index="2" class="highcharts-tracker-line" stroke="rgba(192,192,192,0.0001)" stroke-width="22" style="cursor:pointer"/></g><g class="highcharts-series highcharts-series-1 highcharts-spline-series" data-z-index=".1" clip-path="url(#a)" aria-hidden="true" transform="translate(62 68)"><path d="M5.176 330.862s7.765-80.325 12.942-80.325c5.176 0 7.764 8.925 12.94 8.925 5.177 0 7.766-33.15 12.942-33.15s7.765 31.876 12.941 31.876c5.177 0 7.765-9.18 12.941-16.576 5.177-7.395 7.765-12.24 12.942-20.4 5.176-8.16 7.764-20.4 12.94-20.4 5.177 0 7.765 0 12.942 7.013 5.176 7.012 7.765 30.6 12.941 30.6h12.941c5.177 0 7.765-1.02 12.941-7.012 5.177-5.993 7.765-22.95 12.942-22.95 5.176 0 7.764 9.562 12.94 9.562 5.177 0 7.765-20.4 12.942-21.038 5.176-.637 7.765 0 12.941-.637 5.177-.637 7.765-17.723 12.941-32.513 5.177-14.79 7.765-41.437 12.941-41.437 5.177 0 7.765 18.487 12.942 18.487 5.176 0 7.764 0 12.94-7.65 5.177-7.65 7.766-33.787 12.942-33.787s7.765 8.16 12.941 11.475c5.177 3.315 7.765 5.1 12.941 5.1 5.177 0 7.765-13.77 12.942-20.4 5.176-6.63 7.764-6.885 12.94-12.75 5.177-5.865 7.765-11.985 12.942-16.575 5.176-4.59 7.765-6.375 12.941-6.375 5.177 0 7.765 5.1 12.941 6.375 5.177 1.275 7.765 1.275 12.941 1.275 5.177 0 7.765-5.355 12.942-7.65 5.176-2.295 7.764-1.658 12.94-3.825 5.177-2.168 7.765-7.013 12.942-7.013 5.176 0 7.765 3.57 12.941 8.925 5.177 5.356 7.765 17.85 12.941 17.85 5.177 0 7.765-23.587 12.941-23.587 5.177 0 7.765 7.012 12.942 14.663 5.176 7.65 7.764 23.587 12.94 23.587 5.177 0 7.766-3.188 12.942-3.188s7.765 21.038 12.941 21.038c5.177 0 7.765-10.837 12.941-10.837 5.177 0 12.942 18.487 12.942 18.487" class="highcharts-graph" data-z-index="1" stroke="#41aff4" stroke-width="2"/><path d="M5.176 330.862s7.765-80.325 12.942-80.325c5.176 0 7.764 8.925 12.94 8.925 5.177 0 7.766-33.15 12.942-33.15s7.765 31.876 12.941 31.876c5.177 0 7.765-9.18 12.941-16.576 5.177-7.395 7.765-12.24 12.942-20.4 5.176-8.16 7.764-20.4 12.94-20.4 5.177 0 7.765 0 12.942 7.013 5.176 7.012 7.765 30.6 12.941 30.6h12.941c5.177 0 7.765-1.02 12.941-7.012 5.177-5.993 7.765-22.95 12.942-22.95 5.176 0 7.764 9.562 12.94 9.562 5.177 0 7.765-20.4 12.942-21.038 5.176-.637 7.765 0 12.941-.637 5.177-.637 7.765-17.723 12.941-32.513 5.177-14.79 7.765-41.437 12.941-41.437 5.177 0 7.765 18.487 12.942 18.487 5.176 0 7.764 0 12.94-7.65 5.177-7.65 7.766-33.787 12.942-33.787s7.765 8.16 12.941 11.475c5.177 3.315 7.765 5.1 12.941 5.1 5.177 0 7.765-13.77 12.942-20.4 5.176-6.63 7.764-6.885 12.94-12.75 5.177-5.865 7.765-11.985 12.942-16.575 5.176-4.59 7.765-6.375 12.941-6.375 5.177 0 7.765 5.1 12.941 6.375 5.177 1.275 7.765 1.275 12.941 1.275 5.177 0 7.765-5.355 12.942-7.65 5.176-2.295 7.764-1.658 12.94-3.825 5.177-2.168 7.765-7.013 12.942-7.013 5.176 0 7.765 3.57 12.941 8.925 5.177 5.356 7.765 17.85 12.941 17.85 5.177 0 7.765-23.587 12.941-23.587 5.177 0 7.765 7.012 12.942 14.663 5.176 7.65 7.764 23.587 12.94 23.587 5.177 0 7.766-3.188 12.942-3.188s7.765 21.038 12.941 21.038c5.177 0 7.765-10.837 12.941-10.837 5.177 0 12.942 18.487 12.942 18.487" data-z-index="2" class="highcharts-tracker-line" stroke="rgba(192,192,192,0.0001)" stroke-width="22" style="cursor:pointer"/></g></g><text x="300" text-anchor="middle" class="highcharts-title" data-z-index="4" style="color:#2f2b38;font-size:22px;font-weight:500;fill:#2f2b38" y="27" aria-hidden="true">Play chart as sound</text><text x="300" text-anchor="middle" class="highcharts-subtitle" data-z-index="4" style="color:#2f2b38;font-size:16px;font-weight:400;fill:#2f2b38" y="52" aria-hidden="true">Weekly temperature averages</text><g class="highcharts-legend highcharts-no-tooltip" data-z-index="7" transform="translate(208 459)" aria-hidden="true"><rect fill="#f0f0f0" class="highcharts-legend-box" rx="2" ry="2" stroke="#BBBAC5" x=".5" y=".5" width="183" height="25"/><g data-z-index="1"><g class="highcharts-legend-item highcharts-spline-series highcharts-color-undefined highcharts-series-0" data-z-index="1"><path fill="none" d="M8 14h16" class="highcharts-graph" stroke-width="2" stroke="#f4b042"/><text x="21" data-z-index="2" y="15" style="color:#2f2b38;cursor:pointer;font-size:12px;font-weight:400;fill:#2f2b38" transform="translate(8 3)">San Diego</text></g><g class="highcharts-legend-item highcharts-spline-series highcharts-color-undefined highcharts-series-1" data-z-index="1"><path fill="none" d="M105.04 14h16" class="highcharts-graph" stroke-width="2" stroke="#41aff4"/><text x="21" y="15" data-z-index="2" style="color:#2f2b38;cursor:pointer;font-size:12px;font-weight:400;fill:#2f2b38" transform="translate(105.04 3)">New York</text></g></g></g><g class="highcharts-axis-labels highcharts-xaxis-labels" data-z-index="7" aria-hidden="true" text-anchor="middle"><text x="165.16" style="color:#46465c;cursor:default;font-size:12px;fill:#46465c" y="445">Mar &apos;18</text><text x="277.933" style="color:#46465c;cursor:default;font-size:12px;fill:#46465c" y="445">May &apos;18</text><text x="390.706" style="color:#46465c;cursor:default;font-size:12px;fill:#46465c" y="445">Jul &apos;18</text><text x="505.328" style="color:#46465c;cursor:default;font-size:12px;fill:#46465c" y="445">Sep &apos;18</text></g><g class="highcharts-axis-labels highcharts-yaxis-labels" data-z-index="7" aria-hidden="true" text-anchor="end"><text x="47" style="color:#46465c;cursor:default;font-size:12px;fill:#46465c" y="430">10</text><text x="47" style="color:#46465c;cursor:default;font-size:12px;fill:#46465c" y="386">20</text><text x="47" style="color:#46465c;cursor:default;font-size:12px;fill:#46465c" y="341">30</text><text x="47" style="color:#46465c;cursor:default;font-size:12px;fill:#46465c" y="296">40</text><text x="47" style="color:#46465c;cursor:default;font-size:12px;fill:#46465c" y="252">50</text><text x="47" style="color:#46465c;cursor:default;font-size:12px;fill:#46465c" y="207">60</text><text x="47" style="color:#46465c;cursor:default;font-size:12px;fill:#46465c" y="163">70</text><text x="47" style="color:#46465c;cursor:default;font-size:12px;fill:#46465c" y="118">80</text><text x="47" style="color:#46465c;cursor:default;font-size:12px;fill:#46465c" y="73">90</text></g></svg>