<svg class="highcharts-root" style="font-family:&quot;IBM Plex Sans&quot;,sans-serif;font-size:12px" xmlns="http://www.w3.org/2000/svg" width="600" height="400" aria-label="Interactive chart" aria-hidden="false"><defs aria-hidden="true"><clipPath id="a"><path fill="none" d="M0 0h523v257H0z"/></clipPath></defs><rect fill="#f0f0f0" class="highcharts-background" width="600" height="400" rx="0" ry="0" aria-hidden="true"/><path fill="none" class="highcharts-plot-background" aria-hidden="true" d="M67 68h523v257H67z"/><g class="highcharts-grid highcharts-xaxis-grid" data-z-index="1" aria-hidden="true" fill="none"><path data-z-index="1" class="highcharts-grid-line" d="M110.5 68v257m43-257v257m44-257v257m43-257v257m44-257v257m43-257v257m44-257v257m44-257v257m43-257v257m44-257v257m43-257v257m44-257v257M66.5 68v257"/></g><g class="highcharts-grid highcharts-yaxis-grid" data-z-index="1" aria-hidden="true" fill="none" stroke="#ccc"><path data-z-index="1" class="highcharts-grid-line" d="M67 325.5h523m-523-86h523m-523-85h523m-523-87h523"/></g><path fill="none" class="highcharts-plot-border" data-z-index="1" aria-hidden="true" d="M67 68h523v257H67z"/><g class="highcharts-axis highcharts-xaxis" data-z-index="2" aria-hidden="true"><path fill="none" class="highcharts-axis-line" stroke="#ccc" data-z-index="7" d="M67 325.5h523"/></g><g class="highcharts-axis highcharts-yaxis" data-z-index="2" aria-hidden="true"><path fill="none" class="highcharts-tick" stroke="#ccc" d="M67 325.5H57m10-86H57m10-85H57m10-87H57"/><text x="23.852" data-z-index="7" text-anchor="middle" transform="rotate(-90 23.852 196.5)" class="highcharts-axis-title" style="color:#2f2b38;font-weight:300;fill:#2f2b38" y="196.5">Temperature</text><path fill="none" class="highcharts-axis-line" data-z-index="7" d="M67 68v257"/></g><g class="highcharts-series-group" data-z-index="3" aria-hidden="false"><g class="highcharts-series highcharts-series-0 highcharts-spline-series highcharts-color-0" data-z-index=".1" clip-path="url(#a)" aria-hidden="true" fill="none" stroke-linejoin="round" stroke-linecap="round" transform="translate(67 68)"><path d="M21.792 212.453s26.15 0 43.583-4.283 26.15-11.65 43.583-25.7c17.434-14.05 26.15-28.27 43.584-44.547 17.433-16.276 26.15-23.986 43.583-36.836 17.433-12.85 26.15-15.763 43.583-27.414 17.434-11.65 26.15-22.273 43.584-30.84 17.433-8.566 26.15-11.993 43.583-11.993s26.15 15.591 43.583 30.84c17.434 15.249 26.15 27.07 43.584 45.403 17.433 18.333 26.15 29.298 43.583 46.26s43.583 38.55 43.583 38.55" class="highcharts-graph" data-z-index="1" stroke="#8087E8" stroke-width="2"/><path d="M21.792 212.453s26.15 0 43.583-4.283 26.15-11.65 43.583-25.7c17.434-14.05 26.15-28.27 43.584-44.547 17.433-16.276 26.15-23.986 43.583-36.836 17.433-12.85 26.15-15.763 43.583-27.414 17.434-11.65 26.15-22.273 43.584-30.84 17.433-8.566 26.15-11.993 43.583-11.993s26.15 15.591 43.583 30.84c17.434 15.249 26.15 27.07 43.584 45.403 17.433 18.333 26.15 29.298 43.583 46.26s43.583 38.55 43.583 38.55" data-z-index="2" class="highcharts-tracker-line" stroke="rgba(192,192,192,0.0001)" stroke-width="22"/></g><g class="highcharts-markers highcharts-series-0 highcharts-spline-series highcharts-color-0 highcharts-tracker" data-z-index=".1" aria-hidden="false" tabindex="-1" aria-label="Tokyo, line 1 of 2 with 12 data points." style="outline:0" fill="#8087E8" stroke="#666" transform="translate(67 68)"><path d="M17 208h8v8h-8Z" class="highcharts-point highcharts-color-0" tabindex="-1" aria-label="Jan, 5.2. Tokyo." style="outline:0"/><path d="M61 204h8v8h-8Z" class="highcharts-point highcharts-color-0" tabindex="-1" aria-label="Feb, 5.7. Tokyo." style="outline:0"/><path d="M104 178h8v8h-8Z" class="highcharts-point highcharts-color-0" tabindex="-1" aria-label="Mar, 8.7. Tokyo." style="outline:0"/><path d="M148 134h8v8h-8Z" class="highcharts-point highcharts-color-0" tabindex="-1" aria-label="Apr, 13.9. Tokyo." style="outline:0"/><path d="M192 97h8v8h-8Z" class="highcharts-point highcharts-color-0" tabindex="-1" aria-label="May, 18.2. Tokyo." style="outline:0"/><path d="M235 70h8v8h-8Z" class="highcharts-point highcharts-color-0" tabindex="-1" aria-label="Jun, 21.4. Tokyo." style="outline:0"/><path d="M279 39h8v8h-8Z" class="highcharts-point highcharts-color-0" tabindex="-1" aria-label="Jul, 25. Tokyo." style="outline:0"/><image preserveAspectRatio="none" xmlns:ns1="http://www.w3.org/1999/xlink" ns1:href="https://www.highcharts.com/samples/graphics/sun.png" x="326" y="30.84" class="highcharts-point highcharts-color-0" width="30" transform="translate(-15 -15)" height="30" tabindex="-1" aria-label="Aug, 26.4. Sunny symbol, this is the warmest point in the chart. Tokyo." style="outline:0"/><path d="M366 58h8v8h-8Z" class="highcharts-point highcharts-color-0" tabindex="-1" aria-label="Sep, 22.8. Tokyo." style="outline:0"/><path d="M410 103h8v8h-8Z" class="highcharts-point highcharts-color-0" tabindex="-1" aria-label="Oct, 17.5. Tokyo." style="outline:0"/><path d="M453 149h8v8h-8Z" class="highcharts-point highcharts-color-0" tabindex="-1" aria-label="Nov, 12.1. Tokyo." style="outline:0"/><path d="M497 188h8v8h-8Z" class="highcharts-point highcharts-color-0" tabindex="-1" aria-label="Dec, 7.6. Tokyo." style="outline:0"/></g><g class="highcharts-series highcharts-series-1 highcharts-spline-series highcharts-color-1" data-z-index=".1" clip-path="url(#a)" aria-hidden="true" fill="none" stroke-linejoin="round" stroke-linecap="round" transform="translate(67 68)"><path d="M21.792 244.15s26.15 0 43.583-.857c17.433-.856 26.15-7.196 43.583-14.563 17.434-7.367 26.15-9.937 43.584-22.273 17.433-12.336 26.15-26.386 43.583-39.407 17.433-13.021 26.15-18.847 43.583-25.7 17.434-6.853 26.15-8.567 43.584-8.567 17.433 0 26.15 0 43.583.857s26.15 15.077 43.583 24.843c17.434 9.766 26.15 12.336 43.584 23.987 17.433 11.65 26.15 23.815 43.583 34.267 17.433 10.451 43.583 17.99 43.583 17.99" class="highcharts-graph" data-z-index="1" stroke="#A3EDBA" stroke-width="2"/><path d="M21.792 244.15s26.15 0 43.583-.857c17.433-.856 26.15-7.196 43.583-14.563 17.434-7.367 26.15-9.937 43.584-22.273 17.433-12.336 26.15-26.386 43.583-39.407 17.433-13.021 26.15-18.847 43.583-25.7 17.434-6.853 26.15-8.567 43.584-8.567 17.433 0 26.15 0 43.583.857s26.15 15.077 43.583 24.843c17.434 9.766 26.15 12.336 43.584 23.987 17.433 11.65 26.15 23.815 43.583 34.267 17.433 10.451 43.583 17.99 43.583 17.99" data-z-index="2" class="highcharts-tracker-line" stroke="rgba(192,192,192,0.0001)" stroke-width="22"/></g><g class="highcharts-markers highcharts-series-1 highcharts-spline-series highcharts-color-1 highcharts-tracker" data-z-index=".1" aria-hidden="false" tabindex="-1" aria-label="Bergen, line 2 of 2 with 12 data points." style="outline:0" stroke="#666" fill="#A3EDBA" transform="translate(67 68)"><image preserveAspectRatio="none" xmlns:ns2="http://www.w3.org/1999/xlink" ns2:href="https://www.highcharts.com/samples/graphics/snow.png" x="21" y="244.15" class="highcharts-point highcharts-color-1" width="30" transform="translate(-15 -15)" height="30" tabindex="-1" aria-label="Jan, 1.5. Snowy symbol, this is the coldest point in the chart. Bergen." style="outline:0"/><path d="m65 239 4 4-4 4-4-4Z" class="highcharts-point highcharts-color-1" tabindex="-1" aria-label="Feb, 1.6. Bergen." style="outline:0"/><path d="m108 225 4 4-4 4-4-4Z" class="highcharts-point highcharts-color-1" tabindex="-1" aria-label="Mar, 3.3. Bergen." style="outline:0"/><path d="m152 202 4 4-4 4-4-4Z" class="highcharts-point highcharts-color-1" tabindex="-1" aria-label="Apr, 5.9. Bergen." style="outline:0"/><path d="m196 163 4 4-4 4-4-4Z" class="highcharts-point highcharts-color-1" tabindex="-1" aria-label="May, 10.5. Bergen." style="outline:0"/><path d="m239 137 4 4-4 4-4-4Z" class="highcharts-point highcharts-color-1" tabindex="-1" aria-label="Jun, 13.5. Bergen." style="outline:0"/><path d="m283 129 4 4-4 4-4-4Z" class="highcharts-point highcharts-color-1" tabindex="-1" aria-label="Jul, 14.5. Bergen." style="outline:0"/><path d="m326 130 4 4-4 4-4-4Z" class="highcharts-point highcharts-color-1" tabindex="-1" aria-label="Aug, 14.4. Bergen." style="outline:0"/><path d="m370 154 4 4-4 4-4-4Z" class="highcharts-point highcharts-color-1" tabindex="-1" aria-label="Sep, 11.5. Bergen." style="outline:0"/><path d="m414 178 4 4-4 4-4-4Z" class="highcharts-point highcharts-color-1" tabindex="-1" aria-label="Oct, 8.7. Bergen." style="outline:0"/><path d="m457 213 4 4-4 4-4-4Z" class="highcharts-point highcharts-color-1" tabindex="-1" aria-label="Nov, 4.7. Bergen." style="outline:0"/><path d="m501 231 4 4-4 4-4-4Z" class="highcharts-point highcharts-color-1" tabindex="-1" aria-label="Dec, 2.6. Bergen." style="outline:0"/></g></g><g data-z-index="3" aria-hidden="true"><text data-z-index="1" y="12" style="color:#8087e8;font-weight:700;fill:#8087e8" transform="translate(400 82)" class="highcharts-label highcharts-series-label highcharts-series-label-0 highcharts-color-0">Tokyo</text></g><g data-z-index="3" aria-hidden="true"><text data-z-index="1" y="12" style="color:#a3edba;font-weight:700;fill:#a3edba" transform="translate(524 306)" class="highcharts-label highcharts-series-label highcharts-series-label-1 highcharts-color-1">Bergen</text></g><text x="300" text-anchor="middle" class="highcharts-title" data-z-index="4" style="color:#2f2b38;font-size:22px;font-weight:500;fill:#2f2b38" y="27" aria-hidden="true">Monthly Average Temperature</text><text x="300" text-anchor="middle" class="highcharts-subtitle" data-z-index="4" style="color:#2f2b38;font-size:16px;font-weight:400;fill:#2f2b38" y="52" aria-hidden="true">Source: <a target="_blank"><tspan>Wikipedia.com</tspan></a></text><g class="highcharts-legend highcharts-no-tooltip" data-z-index="7" transform="translate(226 359)" aria-hidden="true"><rect fill="#f0f0f0" class="highcharts-legend-box" rx="2" ry="2" stroke="#BBBAC5" x=".5" y=".5" width="147" height="25"/><g data-z-index="1"><g class="highcharts-legend-item highcharts-spline-series highcharts-color-0 highcharts-series-0" data-z-index="1"><path fill="none" d="M8 14h16" class="highcharts-graph" stroke-width="2" stroke="#8087E8"/><path fill="#8087E8" d="M12 10h8v8h-8Z" class="highcharts-point" stroke="#666"/><text x="21" data-z-index="2" y="15" style="color:#2f2b38;cursor:pointer;font-size:12px;font-weight:400;fill:#2f2b38" transform="translate(8 3)">Tokyo</text></g><g class="highcharts-legend-item highcharts-spline-series highcharts-color-1 highcharts-series-1" data-z-index="1"><path fill="none" d="M80.352 14h16" class="highcharts-graph" stroke-width="2" stroke="#A3EDBA"/><path fill="#A3EDBA" d="m88.352 10 4 4-4 4-4-4Z" class="highcharts-point" stroke="#666"/><text x="21" y="15" data-z-index="2" style="color:#2f2b38;cursor:pointer;font-size:12px;font-weight:400;fill:#2f2b38" transform="translate(80.352 3)">Bergen</text></g></g></g><g class="highcharts-axis-labels highcharts-xaxis-labels" data-z-index="7" aria-hidden="true" text-anchor="middle"><text x="88.792" style="color:#46465c;cursor:default;font-size:12px;fill:#46465c" y="345">Jan</text><text x="132.375" style="color:#46465c;cursor:default;font-size:12px;fill:#46465c" y="345">Feb</text><text x="175.958" style="color:#46465c;cursor:default;font-size:12px;fill:#46465c" y="345">Mar</text><text x="219.542" style="color:#46465c;cursor:default;font-size:12px;fill:#46465c" y="345">Apr</text><text x="263.125" style="color:#46465c;cursor:default;font-size:12px;fill:#46465c" y="345">May</text><text x="306.708" style="color:#46465c;cursor:default;font-size:12px;fill:#46465c" y="345">Jun</text><text x="350.292" style="color:#46465c;cursor:default;font-size:12px;fill:#46465c" y="345">Jul</text><text x="393.875" style="color:#46465c;cursor:default;font-size:12px;fill:#46465c" y="345">Aug</text><text x="437.458" style="color:#46465c;cursor:default;font-size:12px;fill:#46465c" y="345">Sep</text><text x="481.042" style="color:#46465c;cursor:default;font-size:12px;fill:#46465c" y="345">Oct</text><text x="524.625" style="color:#46465c;cursor:default;font-size:12px;fill:#46465c" y="345">Nov</text><text x="568.208" style="color:#46465c;cursor:default;font-size:12px;fill:#46465c" y="345">Dec</text></g><g class="highcharts-axis-labels highcharts-yaxis-labels" data-z-index="7" aria-hidden="true" text-anchor="end"><text x="52" style="color:#46465c;cursor:default;font-size:12px;fill:#46465c" y="330">0째</text><text x="52" style="color:#46465c;cursor:default;font-size:12px;fill:#46465c" y="245">10째</text><text x="52" style="color:#46465c;cursor:default;font-size:12px;fill:#46465c" y="159">20째</text><text x="52" style="color:#46465c;cursor:default;font-size:12px;fill:#46465c" y="73">30째</text></g></svg>